%TF.GenerationSoftware,KiCad,Pcbnew,10.0.5*%
%TF.CreationDate,2026-07-29T03:04:19-07:00*%
%TF.ProjectId,cv-agri,63762d61-6772-4692-9e6b-696361645f70,rev?*%
%TF.SameCoordinates,Original*%
%TF.FileFunction,Paste,Bot*%
%TF.FilePolarity,Positive*%
%FSLAX46Y46*%
G04 Gerber Fmt 4.6, Leading zero omitted, Abs format (unit mm)*
G04 Created by KiCad (PCBNEW 10.0.5) date 2026-07-29 03:04:19*
%MOMM*%
%LPD*%
G01*
G04 APERTURE LIST*
G04 Aperture macros list*
%AMRoundRect*
0 Rectangle with rounded corners*
0 $1 Rounding radius*
0 $2 $3 $4 $5 $6 $7 $8 $9 X,Y pos of 4 corners*
0 Add a 4 corners polygon primitive as box body*
4,1,4,$2,$3,$4,$5,$6,$7,$8,$9,$2,$3,0*
0 Add four circle primitives for the rounded corners*
1,1,$1+$1,$2,$3*
1,1,$1+$1,$4,$5*
1,1,$1+$1,$6,$7*
1,1,$1+$1,$8,$9*
0 Add four rect primitives between the rounded corners*
20,1,$1+$1,$2,$3,$4,$5,0*
20,1,$1+$1,$4,$5,$6,$7,0*
20,1,$1+$1,$6,$7,$8,$9,0*
20,1,$1+$1,$8,$9,$2,$3,0*%
G04 Aperture macros list end*
%ADD10R,5.080000X1.500000*%
%ADD11RoundRect,0.250000X0.450000X-0.262500X0.450000X0.262500X-0.450000X0.262500X-0.450000X-0.262500X0*%
%ADD12RoundRect,0.250000X0.262500X0.450000X-0.262500X0.450000X-0.262500X-0.450000X0.262500X-0.450000X0*%
%ADD13RoundRect,0.250000X0.250000X0.475000X-0.250000X0.475000X-0.250000X-0.475000X0.250000X-0.475000X0*%
%ADD14RoundRect,0.150000X0.587500X0.150000X-0.587500X0.150000X-0.587500X-0.150000X0.587500X-0.150000X0*%
%ADD15R,0.900000X1.500000*%
%ADD16R,1.500000X0.900000*%
%ADD17R,0.900000X0.900000*%
G04 APERTURE END LIST*
D10*
%TO.C,ANT1*%
X175951000Y-89625000D03*
X175951000Y-98125000D03*
%TD*%
D11*
%TO.C,R3*%
X200816000Y-98942500D03*
X200816000Y-97117500D03*
%TD*%
D12*
%TO.C,R6*%
X168813500Y-98540000D03*
X166988500Y-98540000D03*
%TD*%
%TO.C,R8*%
X198008500Y-100290000D03*
X196183500Y-100290000D03*
%TD*%
%TO.C,R5*%
X164363500Y-98540000D03*
X162538500Y-98540000D03*
%TD*%
%TO.C,R1*%
X193558500Y-97300000D03*
X191733500Y-97300000D03*
%TD*%
%TO.C,R7*%
X193558500Y-100290000D03*
X191733500Y-100290000D03*
%TD*%
%TO.C,R4*%
X159913500Y-98540000D03*
X158088500Y-98540000D03*
%TD*%
%TO.C,R9*%
X173263500Y-100870000D03*
X171438500Y-100870000D03*
%TD*%
D13*
%TO.C,C4*%
X193616000Y-89275000D03*
X191716000Y-89275000D03*
%TD*%
D12*
%TO.C,R10*%
X177713500Y-100870000D03*
X175888500Y-100870000D03*
%TD*%
D13*
%TO.C,C2*%
X164921000Y-89275000D03*
X163021000Y-89275000D03*
%TD*%
D12*
%TO.C,R12*%
X159913500Y-101530000D03*
X158088500Y-101530000D03*
%TD*%
%TO.C,R13*%
X164363500Y-101530000D03*
X162538500Y-101530000D03*
%TD*%
D13*
%TO.C,C6*%
X164921000Y-92325000D03*
X163021000Y-92325000D03*
%TD*%
D12*
%TO.C,R14*%
X168813500Y-101530000D03*
X166988500Y-101530000D03*
%TD*%
D14*
%TO.C,Q1*%
X160188500Y-89045000D03*
X160188500Y-90945000D03*
X158313500Y-89995000D03*
%TD*%
D12*
%TO.C,R2*%
X198008500Y-97300000D03*
X196183500Y-97300000D03*
%TD*%
%TO.C,R11*%
X182163500Y-100870000D03*
X180338500Y-100870000D03*
%TD*%
D13*
%TO.C,C7*%
X169411000Y-92325000D03*
X167511000Y-92325000D03*
%TD*%
%TO.C,C5*%
X198106000Y-89275000D03*
X196206000Y-89275000D03*
%TD*%
%TO.C,C3*%
X169411000Y-89275000D03*
X167511000Y-89275000D03*
%TD*%
D15*
%TO.C,U1*%
X189556000Y-149925000D03*
X188286000Y-149925000D03*
X187016000Y-149925000D03*
X185746000Y-149925000D03*
X184476000Y-149925000D03*
X183206000Y-149925000D03*
X181936000Y-149925000D03*
X180666000Y-149925000D03*
X179396000Y-149925000D03*
X178126000Y-149925000D03*
X176856000Y-149925000D03*
X175586000Y-149925000D03*
X174316000Y-149925000D03*
X173046000Y-149925000D03*
D16*
X171796000Y-146890000D03*
X171796000Y-145620000D03*
X171796000Y-144350000D03*
X171796000Y-143080000D03*
X171796000Y-141810000D03*
X171796000Y-140540000D03*
X171796000Y-139270000D03*
X171796000Y-138000000D03*
X171796000Y-136730000D03*
X171796000Y-135460000D03*
D15*
X173046000Y-132425000D03*
X174316000Y-132425000D03*
X175586000Y-132425000D03*
X176856000Y-132425000D03*
X178126000Y-132425000D03*
X179396000Y-132425000D03*
X180666000Y-132425000D03*
X181936000Y-132425000D03*
X183206000Y-132425000D03*
X184476000Y-132425000D03*
X185746000Y-132425000D03*
X187016000Y-132425000D03*
X188286000Y-132425000D03*
X189556000Y-132425000D03*
D17*
X180436000Y-144075000D03*
X181836000Y-144075000D03*
X183236000Y-144075000D03*
X180436000Y-142675000D03*
X181836000Y-142675000D03*
X183236000Y-142675000D03*
X180436000Y-141275000D03*
X181836000Y-141275000D03*
X183236000Y-141275000D03*
%TD*%
M02*
