%TF.GenerationSoftware,KiCad,Pcbnew,10.0.5*%
%TF.CreationDate,2026-08-03T02:56:58-07:00*%
%TF.ProjectId,cv-agri,63762d61-6772-4692-9e6b-696361645f70,rev?*%
%TF.SameCoordinates,Original*%
%TF.FileFunction,Drillmap*%
%TF.FilePolarity,Positive*%
%FSLAX45Y45*%
G04 Gerber Fmt 4.5, Leading zero omitted, Abs format (unit mm)*
G04 Created by KiCad (PCBNEW 10.0.5) date 2026-08-03 02:56:58*
%MOMM*%
%LPD*%
G01*
G04 APERTURE LIST*
%ADD10C,0.100000*%
%ADD11C,0.200000*%
%ADD12C,0.105000*%
%ADD13C,0.110000*%
%ADD14C,0.130000*%
G04 APERTURE END LIST*
D10*
X10000000Y-8300000D02*
G75*
G02*
X10300000Y-8000000I300000J0D01*
G01*
X10000000Y-16110000D02*
X10000000Y-8300000D01*
X10300000Y-8000000D02*
X20850000Y-8000000D01*
X10300000Y-16410000D02*
G75*
G02*
X10000000Y-16110000I0J300000D01*
G01*
X14229500Y-14398500D02*
X14389500Y-14398500D01*
X14229500Y-15710000D02*
X14229500Y-14398500D01*
X14389500Y-14398500D02*
X14389500Y-15710000D01*
X14389500Y-15710000D02*
X14229500Y-15710000D01*
X20850000Y-8000000D02*
G75*
G02*
X21150000Y-8300000I0J-300000D01*
G01*
X20850000Y-16410000D02*
X10300000Y-16410000D01*
X21150000Y-8300000D02*
X21150000Y-16110000D01*
X21150000Y-16110000D02*
G75*
G02*
X20850000Y-16410000I-300000J0D01*
G01*
D11*
D10*
X17164000Y-10939000D02*
X17184000Y-10959000D01*
X17184000Y-10939000D02*
X17164000Y-10959000D01*
X17164000Y-11079000D02*
X17184000Y-11099000D01*
X17184000Y-11079000D02*
X17164000Y-11099000D01*
X17234000Y-10869000D02*
X17254000Y-10889000D01*
X17254000Y-10869000D02*
X17234000Y-10889000D01*
X17234000Y-11009000D02*
X17254000Y-11029000D01*
X17254000Y-11009000D02*
X17234000Y-11029000D01*
X17234000Y-11149000D02*
X17254000Y-11169000D01*
X17254000Y-11149000D02*
X17234000Y-11169000D01*
X17304000Y-10939000D02*
X17324000Y-10959000D01*
X17324000Y-10939000D02*
X17304000Y-10959000D01*
X17304000Y-11079000D02*
X17324000Y-11099000D01*
X17324000Y-11079000D02*
X17304000Y-11099000D01*
X17374000Y-10869000D02*
X17394000Y-10889000D01*
X17394000Y-10869000D02*
X17374000Y-10889000D01*
X17374000Y-11009000D02*
X17394000Y-11029000D01*
X17394000Y-11009000D02*
X17374000Y-11029000D01*
X17374000Y-11149000D02*
X17394000Y-11169000D01*
X17394000Y-11149000D02*
X17374000Y-11169000D01*
X17444000Y-10939000D02*
X17464000Y-10959000D01*
X17464000Y-10939000D02*
X17444000Y-10959000D01*
X17444000Y-11079000D02*
X17464000Y-11099000D01*
X17464000Y-11079000D02*
X17444000Y-11099000D01*
X13616400Y-9650130D02*
G75*
G02*
X13586400Y-9650130I-15000J0D01*
G01*
X13586400Y-9650130D02*
G75*
G02*
X13616400Y-9650130I15000J0D01*
G01*
X16830710Y-10965940D02*
G75*
G02*
X16800710Y-10965940I-15000J0D01*
G01*
X16800710Y-10965940D02*
G75*
G02*
X16830710Y-10965940I15000J0D01*
G01*
X16830870Y-10830780D02*
G75*
G02*
X16800870Y-10830780I-15000J0D01*
G01*
X16800870Y-10830780D02*
G75*
G02*
X16830870Y-10830780I15000J0D01*
G01*
X16912830Y-10510440D02*
G75*
G02*
X16882830Y-10510440I-15000J0D01*
G01*
X16882830Y-10510440D02*
G75*
G02*
X16912830Y-10510440I15000J0D01*
G01*
X18353550Y-12199540D02*
G75*
G02*
X18323550Y-12199540I-15000J0D01*
G01*
X18323550Y-12199540D02*
G75*
G02*
X18353550Y-12199540I15000J0D01*
G01*
X18490270Y-11680700D02*
G75*
G02*
X18460270Y-11680700I-15000J0D01*
G01*
X18460270Y-11680700D02*
G75*
G02*
X18490270Y-11680700I15000J0D01*
G01*
X18970480Y-10171840D02*
G75*
G02*
X18940480Y-10171840I-15000J0D01*
G01*
X18940480Y-10171840D02*
G75*
G02*
X18970480Y-10171840I15000J0D01*
G01*
X19360170Y-8915750D02*
G75*
G02*
X19330170Y-8915750I-15000J0D01*
G01*
X19330170Y-8915750D02*
G75*
G02*
X19360170Y-8915750I15000J0D01*
G01*
X19895370Y-10268070D02*
G75*
G02*
X19865370Y-10268070I-15000J0D01*
G01*
X19865370Y-10268070D02*
G75*
G02*
X19895370Y-10268070I15000J0D01*
G01*
X20047560Y-9077660D02*
G75*
G02*
X20017560Y-9077660I-15000J0D01*
G01*
X20017560Y-9077660D02*
G75*
G02*
X20047560Y-9077660I15000J0D01*
G01*
X20127250Y-9845280D02*
G75*
G02*
X20097250Y-9845280I-15000J0D01*
G01*
X20097250Y-9845280D02*
G75*
G02*
X20127250Y-9845280I15000J0D01*
G01*
X20190430Y-13101320D02*
G75*
G02*
X20160430Y-13101320I-15000J0D01*
G01*
X20160430Y-13101320D02*
G75*
G02*
X20190430Y-13101320I15000J0D01*
G01*
X20388950Y-12219920D02*
G75*
G02*
X20358950Y-12219920I-15000J0D01*
G01*
X20358950Y-12219920D02*
G75*
G02*
X20388950Y-12219920I15000J0D01*
G01*
X20534130Y-9968940D02*
G75*
G02*
X20504130Y-9968940I-15000J0D01*
G01*
X20504130Y-9968940D02*
G75*
G02*
X20534130Y-9968940I15000J0D01*
G01*
X15814000Y-8255000D02*
X15814000Y-8295000D01*
X15794000Y-8275000D02*
X15834000Y-8275000D01*
X15814000Y-8605000D02*
X15814000Y-8645000D01*
X15794000Y-8625000D02*
X15834000Y-8625000D01*
X15814000Y-8955000D02*
X15814000Y-8995000D01*
X15794000Y-8975000D02*
X15834000Y-8975000D01*
X15814000Y-9305000D02*
X15814000Y-9345000D01*
X15794000Y-9325000D02*
X15834000Y-9325000D01*
X15814000Y-9655000D02*
X15814000Y-9695000D01*
X15794000Y-9675000D02*
X15834000Y-9675000D01*
X15814000Y-10005000D02*
X15814000Y-10045000D01*
X15794000Y-10025000D02*
X15834000Y-10025000D01*
X15814000Y-10355000D02*
X15814000Y-10395000D01*
X15794000Y-10375000D02*
X15834000Y-10375000D01*
X15814000Y-10705000D02*
X15814000Y-10745000D01*
X15794000Y-10725000D02*
X15834000Y-10725000D01*
X15814000Y-11055000D02*
X15814000Y-11095000D01*
X15794000Y-11075000D02*
X15834000Y-11075000D01*
X15814000Y-11405000D02*
X15814000Y-11445000D01*
X15794000Y-11425000D02*
X15834000Y-11425000D01*
X15814000Y-11755000D02*
X15814000Y-11795000D01*
X15794000Y-11775000D02*
X15834000Y-11775000D01*
X15814000Y-12105000D02*
X15814000Y-12145000D01*
X15794000Y-12125000D02*
X15834000Y-12125000D01*
X15814000Y-12455000D02*
X15814000Y-12495000D01*
X15794000Y-12475000D02*
X15834000Y-12475000D01*
X15814000Y-12805000D02*
X15814000Y-12845000D01*
X15794000Y-12825000D02*
X15834000Y-12825000D01*
X15814000Y-13155000D02*
X15814000Y-13195000D01*
X15794000Y-13175000D02*
X15834000Y-13175000D01*
X15814000Y-13505000D02*
X15814000Y-13545000D01*
X15794000Y-13525000D02*
X15834000Y-13525000D01*
X15814000Y-13855000D02*
X15814000Y-13895000D01*
X15794000Y-13875000D02*
X15834000Y-13875000D01*
X15814000Y-14205000D02*
X15814000Y-14245000D01*
X15794000Y-14225000D02*
X15834000Y-14225000D01*
X15814000Y-14555000D02*
X15814000Y-14595000D01*
X15794000Y-14575000D02*
X15834000Y-14575000D01*
X15814000Y-15255000D02*
X15814000Y-15295000D01*
X15794000Y-15275000D02*
X15834000Y-15275000D01*
X15814000Y-15605000D02*
X15814000Y-15645000D01*
X15794000Y-15625000D02*
X15834000Y-15625000D01*
X16164000Y-8255000D02*
X16164000Y-8295000D01*
X16144000Y-8275000D02*
X16184000Y-8275000D01*
X16164000Y-8605000D02*
X16164000Y-8645000D01*
X16144000Y-8625000D02*
X16184000Y-8625000D01*
X16164000Y-8955000D02*
X16164000Y-8995000D01*
X16144000Y-8975000D02*
X16184000Y-8975000D01*
X16164000Y-9305000D02*
X16164000Y-9345000D01*
X16144000Y-9325000D02*
X16184000Y-9325000D01*
X16164000Y-9655000D02*
X16164000Y-9695000D01*
X16144000Y-9675000D02*
X16184000Y-9675000D01*
X16164000Y-10005000D02*
X16164000Y-10045000D01*
X16144000Y-10025000D02*
X16184000Y-10025000D01*
X16164000Y-10355000D02*
X16164000Y-10395000D01*
X16144000Y-10375000D02*
X16184000Y-10375000D01*
X16164000Y-10705000D02*
X16164000Y-10745000D01*
X16144000Y-10725000D02*
X16184000Y-10725000D01*
X16164000Y-11055000D02*
X16164000Y-11095000D01*
X16144000Y-11075000D02*
X16184000Y-11075000D01*
X16164000Y-11405000D02*
X16164000Y-11445000D01*
X16144000Y-11425000D02*
X16184000Y-11425000D01*
X16164000Y-11755000D02*
X16164000Y-11795000D01*
X16144000Y-11775000D02*
X16184000Y-11775000D01*
X16164000Y-12105000D02*
X16164000Y-12145000D01*
X16144000Y-12125000D02*
X16184000Y-12125000D01*
X16164000Y-12455000D02*
X16164000Y-12495000D01*
X16144000Y-12475000D02*
X16184000Y-12475000D01*
X16164000Y-12805000D02*
X16164000Y-12845000D01*
X16144000Y-12825000D02*
X16184000Y-12825000D01*
X16164000Y-13155000D02*
X16164000Y-13195000D01*
X16144000Y-13175000D02*
X16184000Y-13175000D01*
X16164000Y-13505000D02*
X16164000Y-13545000D01*
X16144000Y-13525000D02*
X16184000Y-13525000D01*
X16164000Y-13855000D02*
X16164000Y-13895000D01*
X16144000Y-13875000D02*
X16184000Y-13875000D01*
X16164000Y-14555000D02*
X16164000Y-14595000D01*
X16144000Y-14575000D02*
X16184000Y-14575000D01*
X16164000Y-15255000D02*
X16164000Y-15295000D01*
X16144000Y-15275000D02*
X16184000Y-15275000D01*
X16164000Y-15605000D02*
X16164000Y-15645000D01*
X16144000Y-15625000D02*
X16184000Y-15625000D01*
X16374000Y-10227000D02*
X16374000Y-10267000D01*
X16354000Y-10247000D02*
X16394000Y-10247000D01*
X16514000Y-8255000D02*
X16514000Y-8295000D01*
X16494000Y-8275000D02*
X16534000Y-8275000D01*
X16514000Y-8605000D02*
X16514000Y-8645000D01*
X16494000Y-8625000D02*
X16534000Y-8625000D01*
X16514000Y-8955000D02*
X16514000Y-8995000D01*
X16494000Y-8975000D02*
X16534000Y-8975000D01*
X16514000Y-9305000D02*
X16514000Y-9345000D01*
X16494000Y-9325000D02*
X16534000Y-9325000D01*
X16514000Y-12105000D02*
X16514000Y-12145000D01*
X16494000Y-12125000D02*
X16534000Y-12125000D01*
X16514000Y-12455000D02*
X16514000Y-12495000D01*
X16494000Y-12475000D02*
X16534000Y-12475000D01*
X16514000Y-12805000D02*
X16514000Y-12845000D01*
X16494000Y-12825000D02*
X16534000Y-12825000D01*
X16514000Y-13155000D02*
X16514000Y-13195000D01*
X16494000Y-13175000D02*
X16534000Y-13175000D01*
X16514000Y-13505000D02*
X16514000Y-13545000D01*
X16494000Y-13525000D02*
X16534000Y-13525000D01*
X16514000Y-13855000D02*
X16514000Y-13895000D01*
X16494000Y-13875000D02*
X16534000Y-13875000D01*
X16514000Y-14555000D02*
X16514000Y-14595000D01*
X16494000Y-14575000D02*
X16534000Y-14575000D01*
X16514000Y-15255000D02*
X16514000Y-15295000D01*
X16494000Y-15275000D02*
X16534000Y-15275000D01*
X16514000Y-15605000D02*
X16514000Y-15645000D01*
X16494000Y-15625000D02*
X16534000Y-15625000D01*
X16678500Y-14895500D02*
X16678500Y-14935500D01*
X16658500Y-14915500D02*
X16698500Y-14915500D01*
X16864000Y-8255000D02*
X16864000Y-8295000D01*
X16844000Y-8275000D02*
X16884000Y-8275000D01*
X16864000Y-8605000D02*
X16864000Y-8645000D01*
X16844000Y-8625000D02*
X16884000Y-8625000D01*
X16864000Y-8955000D02*
X16864000Y-8995000D01*
X16844000Y-8975000D02*
X16884000Y-8975000D01*
X16864000Y-9305000D02*
X16864000Y-9345000D01*
X16844000Y-9325000D02*
X16884000Y-9325000D01*
X16864000Y-10355000D02*
X16864000Y-10395000D01*
X16844000Y-10375000D02*
X16884000Y-10375000D01*
X16864000Y-10705000D02*
X16864000Y-10745000D01*
X16844000Y-10725000D02*
X16884000Y-10725000D01*
X16864000Y-11055000D02*
X16864000Y-11095000D01*
X16844000Y-11075000D02*
X16884000Y-11075000D01*
X16864000Y-11405000D02*
X16864000Y-11445000D01*
X16844000Y-11425000D02*
X16884000Y-11425000D01*
X16864000Y-11755000D02*
X16864000Y-11795000D01*
X16844000Y-11775000D02*
X16884000Y-11775000D01*
X16864000Y-12455000D02*
X16864000Y-12495000D01*
X16844000Y-12475000D02*
X16884000Y-12475000D01*
X16864000Y-12805000D02*
X16864000Y-12845000D01*
X16844000Y-12825000D02*
X16884000Y-12825000D01*
X16864000Y-13155000D02*
X16864000Y-13195000D01*
X16844000Y-13175000D02*
X16884000Y-13175000D01*
X16864000Y-13505000D02*
X16864000Y-13545000D01*
X16844000Y-13525000D02*
X16884000Y-13525000D01*
X16864000Y-14205000D02*
X16864000Y-14245000D01*
X16844000Y-14225000D02*
X16884000Y-14225000D01*
X16864000Y-14905000D02*
X16864000Y-14945000D01*
X16844000Y-14925000D02*
X16884000Y-14925000D01*
X16864000Y-15605000D02*
X16864000Y-15645000D01*
X16844000Y-15625000D02*
X16884000Y-15625000D01*
X16954100Y-15930000D02*
X16954100Y-15970000D01*
X16934100Y-15950000D02*
X16974100Y-15950000D01*
X16974400Y-15574750D02*
X16974400Y-15614750D01*
X16954400Y-15594750D02*
X16994400Y-15594750D01*
X17214000Y-8255000D02*
X17214000Y-8295000D01*
X17194000Y-8275000D02*
X17234000Y-8275000D01*
X17214000Y-8605000D02*
X17214000Y-8645000D01*
X17194000Y-8625000D02*
X17234000Y-8625000D01*
X17214000Y-8955000D02*
X17214000Y-8995000D01*
X17194000Y-8975000D02*
X17234000Y-8975000D01*
X17214000Y-9305000D02*
X17214000Y-9345000D01*
X17194000Y-9325000D02*
X17234000Y-9325000D01*
X17214000Y-10355000D02*
X17214000Y-10395000D01*
X17194000Y-10375000D02*
X17234000Y-10375000D01*
X17214000Y-10705000D02*
X17214000Y-10745000D01*
X17194000Y-10725000D02*
X17234000Y-10725000D01*
X17214000Y-11405000D02*
X17214000Y-11445000D01*
X17194000Y-11425000D02*
X17234000Y-11425000D01*
X17214000Y-11755000D02*
X17214000Y-11795000D01*
X17194000Y-11775000D02*
X17234000Y-11775000D01*
X17214000Y-12455000D02*
X17214000Y-12495000D01*
X17194000Y-12475000D02*
X17234000Y-12475000D01*
X17214000Y-12805000D02*
X17214000Y-12845000D01*
X17194000Y-12825000D02*
X17234000Y-12825000D01*
X17214000Y-13155000D02*
X17214000Y-13195000D01*
X17194000Y-13175000D02*
X17234000Y-13175000D01*
X17214000Y-13505000D02*
X17214000Y-13545000D01*
X17194000Y-13525000D02*
X17234000Y-13525000D01*
X17214000Y-13855000D02*
X17214000Y-13895000D01*
X17194000Y-13875000D02*
X17234000Y-13875000D01*
X17214000Y-14205000D02*
X17214000Y-14245000D01*
X17194000Y-14225000D02*
X17234000Y-14225000D01*
X17214000Y-14555000D02*
X17214000Y-14595000D01*
X17194000Y-14575000D02*
X17234000Y-14575000D01*
X17214000Y-14905000D02*
X17214000Y-14945000D01*
X17194000Y-14925000D02*
X17234000Y-14925000D01*
X17214000Y-15605000D02*
X17214000Y-15645000D01*
X17194000Y-15625000D02*
X17234000Y-15625000D01*
X17214000Y-15955000D02*
X17214000Y-15995000D01*
X17194000Y-15975000D02*
X17234000Y-15975000D01*
X17564000Y-8255000D02*
X17564000Y-8295000D01*
X17544000Y-8275000D02*
X17584000Y-8275000D01*
X17564000Y-8605000D02*
X17564000Y-8645000D01*
X17544000Y-8625000D02*
X17584000Y-8625000D01*
X17564000Y-8955000D02*
X17564000Y-8995000D01*
X17544000Y-8975000D02*
X17584000Y-8975000D01*
X17564000Y-9305000D02*
X17564000Y-9345000D01*
X17544000Y-9325000D02*
X17584000Y-9325000D01*
X17564000Y-10355000D02*
X17564000Y-10395000D01*
X17544000Y-10375000D02*
X17584000Y-10375000D01*
X17564000Y-10705000D02*
X17564000Y-10745000D01*
X17544000Y-10725000D02*
X17584000Y-10725000D01*
X17564000Y-11055000D02*
X17564000Y-11095000D01*
X17544000Y-11075000D02*
X17584000Y-11075000D01*
X17564000Y-11405000D02*
X17564000Y-11445000D01*
X17544000Y-11425000D02*
X17584000Y-11425000D01*
X17564000Y-11755000D02*
X17564000Y-11795000D01*
X17544000Y-11775000D02*
X17584000Y-11775000D01*
X17564000Y-12455000D02*
X17564000Y-12495000D01*
X17544000Y-12475000D02*
X17584000Y-12475000D01*
X17564000Y-12805000D02*
X17564000Y-12845000D01*
X17544000Y-12825000D02*
X17584000Y-12825000D01*
X17564000Y-13155000D02*
X17564000Y-13195000D01*
X17544000Y-13175000D02*
X17584000Y-13175000D01*
X17564000Y-13505000D02*
X17564000Y-13545000D01*
X17544000Y-13525000D02*
X17584000Y-13525000D01*
X17564000Y-13855000D02*
X17564000Y-13895000D01*
X17544000Y-13875000D02*
X17584000Y-13875000D01*
X17564000Y-14205000D02*
X17564000Y-14245000D01*
X17544000Y-14225000D02*
X17584000Y-14225000D01*
X17564000Y-14555000D02*
X17564000Y-14595000D01*
X17544000Y-14575000D02*
X17584000Y-14575000D01*
X17564000Y-14905000D02*
X17564000Y-14945000D01*
X17544000Y-14925000D02*
X17584000Y-14925000D01*
X17564000Y-15605000D02*
X17564000Y-15645000D01*
X17544000Y-15625000D02*
X17584000Y-15625000D01*
X17564000Y-15955000D02*
X17564000Y-15995000D01*
X17544000Y-15975000D02*
X17584000Y-15975000D01*
X17914000Y-8255000D02*
X17914000Y-8295000D01*
X17894000Y-8275000D02*
X17934000Y-8275000D01*
X17914000Y-8605000D02*
X17914000Y-8645000D01*
X17894000Y-8625000D02*
X17934000Y-8625000D01*
X17914000Y-8955000D02*
X17914000Y-8995000D01*
X17894000Y-8975000D02*
X17934000Y-8975000D01*
X17914000Y-9305000D02*
X17914000Y-9345000D01*
X17894000Y-9325000D02*
X17934000Y-9325000D01*
X17914000Y-10355000D02*
X17914000Y-10395000D01*
X17894000Y-10375000D02*
X17934000Y-10375000D01*
X17914000Y-10705000D02*
X17914000Y-10745000D01*
X17894000Y-10725000D02*
X17934000Y-10725000D01*
X17914000Y-11055000D02*
X17914000Y-11095000D01*
X17894000Y-11075000D02*
X17934000Y-11075000D01*
X17914000Y-11405000D02*
X17914000Y-11445000D01*
X17894000Y-11425000D02*
X17934000Y-11425000D01*
X17914000Y-11755000D02*
X17914000Y-11795000D01*
X17894000Y-11775000D02*
X17934000Y-11775000D01*
X17914000Y-12455000D02*
X17914000Y-12495000D01*
X17894000Y-12475000D02*
X17934000Y-12475000D01*
X17914000Y-12805000D02*
X17914000Y-12845000D01*
X17894000Y-12825000D02*
X17934000Y-12825000D01*
X17914000Y-13155000D02*
X17914000Y-13195000D01*
X17894000Y-13175000D02*
X17934000Y-13175000D01*
X17914000Y-13505000D02*
X17914000Y-13545000D01*
X17894000Y-13525000D02*
X17934000Y-13525000D01*
X17914000Y-14205000D02*
X17914000Y-14245000D01*
X17894000Y-14225000D02*
X17934000Y-14225000D01*
X17914000Y-15605000D02*
X17914000Y-15645000D01*
X17894000Y-15625000D02*
X17934000Y-15625000D01*
X17914000Y-15955000D02*
X17914000Y-15995000D01*
X17894000Y-15975000D02*
X17934000Y-15975000D01*
X18264000Y-8255000D02*
X18264000Y-8295000D01*
X18244000Y-8275000D02*
X18284000Y-8275000D01*
X18264000Y-8605000D02*
X18264000Y-8645000D01*
X18244000Y-8625000D02*
X18284000Y-8625000D01*
X18264000Y-8955000D02*
X18264000Y-8995000D01*
X18244000Y-8975000D02*
X18284000Y-8975000D01*
X18264000Y-9305000D02*
X18264000Y-9345000D01*
X18244000Y-9325000D02*
X18284000Y-9325000D01*
X18264000Y-12105000D02*
X18264000Y-12145000D01*
X18244000Y-12125000D02*
X18284000Y-12125000D01*
X18264000Y-12455000D02*
X18264000Y-12495000D01*
X18244000Y-12475000D02*
X18284000Y-12475000D01*
X18264000Y-12805000D02*
X18264000Y-12845000D01*
X18244000Y-12825000D02*
X18284000Y-12825000D01*
X18264000Y-13155000D02*
X18264000Y-13195000D01*
X18244000Y-13175000D02*
X18284000Y-13175000D01*
X18264000Y-13505000D02*
X18264000Y-13545000D01*
X18244000Y-13525000D02*
X18284000Y-13525000D01*
X18264000Y-14205000D02*
X18264000Y-14245000D01*
X18244000Y-14225000D02*
X18284000Y-14225000D01*
X18264000Y-14905000D02*
X18264000Y-14945000D01*
X18244000Y-14925000D02*
X18284000Y-14925000D01*
X18264000Y-15605000D02*
X18264000Y-15645000D01*
X18244000Y-15625000D02*
X18284000Y-15625000D01*
X18264000Y-15955000D02*
X18264000Y-15995000D01*
X18244000Y-15975000D02*
X18284000Y-15975000D01*
X18335500Y-13965500D02*
X18335500Y-14005500D01*
X18315500Y-13985500D02*
X18355500Y-13985500D01*
X18554000Y-10227000D02*
X18554000Y-10267000D01*
X18534000Y-10247000D02*
X18574000Y-10247000D01*
X18614000Y-8255000D02*
X18614000Y-8295000D01*
X18594000Y-8275000D02*
X18634000Y-8275000D01*
X18614000Y-8605000D02*
X18614000Y-8645000D01*
X18594000Y-8625000D02*
X18634000Y-8625000D01*
X18614000Y-8955000D02*
X18614000Y-8995000D01*
X18594000Y-8975000D02*
X18634000Y-8975000D01*
X18614000Y-9305000D02*
X18614000Y-9345000D01*
X18594000Y-9325000D02*
X18634000Y-9325000D01*
X18614000Y-9655000D02*
X18614000Y-9695000D01*
X18594000Y-9675000D02*
X18634000Y-9675000D01*
X18614000Y-10005000D02*
X18614000Y-10045000D01*
X18594000Y-10025000D02*
X18634000Y-10025000D01*
X18614000Y-10355000D02*
X18614000Y-10395000D01*
X18594000Y-10375000D02*
X18634000Y-10375000D01*
X18614000Y-10705000D02*
X18614000Y-10745000D01*
X18594000Y-10725000D02*
X18634000Y-10725000D01*
X18614000Y-11055000D02*
X18614000Y-11095000D01*
X18594000Y-11075000D02*
X18634000Y-11075000D01*
X18614000Y-11405000D02*
X18614000Y-11445000D01*
X18594000Y-11425000D02*
X18634000Y-11425000D01*
X18614000Y-11755000D02*
X18614000Y-11795000D01*
X18594000Y-11775000D02*
X18634000Y-11775000D01*
X18614000Y-12105000D02*
X18614000Y-12145000D01*
X18594000Y-12125000D02*
X18634000Y-12125000D01*
X18614000Y-12455000D02*
X18614000Y-12495000D01*
X18594000Y-12475000D02*
X18634000Y-12475000D01*
X18614000Y-12805000D02*
X18614000Y-12845000D01*
X18594000Y-12825000D02*
X18634000Y-12825000D01*
X18614000Y-13155000D02*
X18614000Y-13195000D01*
X18594000Y-13175000D02*
X18634000Y-13175000D01*
X18614000Y-13505000D02*
X18614000Y-13545000D01*
X18594000Y-13525000D02*
X18634000Y-13525000D01*
X18614000Y-13855000D02*
X18614000Y-13895000D01*
X18594000Y-13875000D02*
X18634000Y-13875000D01*
X18614000Y-14205000D02*
X18614000Y-14245000D01*
X18594000Y-14225000D02*
X18634000Y-14225000D01*
X18614000Y-14555000D02*
X18614000Y-14595000D01*
X18594000Y-14575000D02*
X18634000Y-14575000D01*
X18614000Y-15955000D02*
X18614000Y-15995000D01*
X18594000Y-15975000D02*
X18634000Y-15975000D01*
X18651000Y-14759000D02*
X18651000Y-14799000D01*
X18631000Y-14779000D02*
X18671000Y-14779000D01*
X18964000Y-8255000D02*
X18964000Y-8295000D01*
X18944000Y-8275000D02*
X18984000Y-8275000D01*
X18964000Y-8605000D02*
X18964000Y-8645000D01*
X18944000Y-8625000D02*
X18984000Y-8625000D01*
X18964000Y-8955000D02*
X18964000Y-8995000D01*
X18944000Y-8975000D02*
X18984000Y-8975000D01*
X18964000Y-9305000D02*
X18964000Y-9345000D01*
X18944000Y-9325000D02*
X18984000Y-9325000D01*
X18964000Y-9655000D02*
X18964000Y-9695000D01*
X18944000Y-9675000D02*
X18984000Y-9675000D01*
X18964000Y-10005000D02*
X18964000Y-10045000D01*
X18944000Y-10025000D02*
X18984000Y-10025000D01*
X18964000Y-10355000D02*
X18964000Y-10395000D01*
X18944000Y-10375000D02*
X18984000Y-10375000D01*
X18964000Y-10705000D02*
X18964000Y-10745000D01*
X18944000Y-10725000D02*
X18984000Y-10725000D01*
X18964000Y-11055000D02*
X18964000Y-11095000D01*
X18944000Y-11075000D02*
X18984000Y-11075000D01*
X18964000Y-11405000D02*
X18964000Y-11445000D01*
X18944000Y-11425000D02*
X18984000Y-11425000D01*
X18964000Y-11755000D02*
X18964000Y-11795000D01*
X18944000Y-11775000D02*
X18984000Y-11775000D01*
X18964000Y-12105000D02*
X18964000Y-12145000D01*
X18944000Y-12125000D02*
X18984000Y-12125000D01*
X18964000Y-12455000D02*
X18964000Y-12495000D01*
X18944000Y-12475000D02*
X18984000Y-12475000D01*
X18964000Y-12805000D02*
X18964000Y-12845000D01*
X18944000Y-12825000D02*
X18984000Y-12825000D01*
X18964000Y-13155000D02*
X18964000Y-13195000D01*
X18944000Y-13175000D02*
X18984000Y-13175000D01*
X18964000Y-13505000D02*
X18964000Y-13545000D01*
X18944000Y-13525000D02*
X18984000Y-13525000D01*
X18964000Y-14905000D02*
X18964000Y-14945000D01*
X18944000Y-14925000D02*
X18984000Y-14925000D01*
X18964000Y-15255000D02*
X18964000Y-15295000D01*
X18944000Y-15275000D02*
X18984000Y-15275000D01*
X18964000Y-15605000D02*
X18964000Y-15645000D01*
X18944000Y-15625000D02*
X18984000Y-15625000D01*
X18964000Y-15955000D02*
X18964000Y-15995000D01*
X18944000Y-15975000D02*
X18984000Y-15975000D01*
X19057500Y-11815500D02*
X19057500Y-11855500D01*
X19037500Y-11835500D02*
X19077500Y-11835500D01*
X19083700Y-12133300D02*
X19083700Y-12173300D01*
X19063700Y-12153300D02*
X19103700Y-12153300D01*
X19125700Y-11539700D02*
X19125700Y-11579700D01*
X19105700Y-11559700D02*
X19145700Y-11559700D01*
X19160700Y-12056300D02*
X19160700Y-12096300D01*
X19140700Y-12076300D02*
X19180700Y-12076300D01*
X19181000Y-9837000D02*
X19181000Y-9877000D01*
X19161000Y-9857000D02*
X19201000Y-9857000D01*
X19314000Y-8255000D02*
X19314000Y-8295000D01*
X19294000Y-8275000D02*
X19334000Y-8275000D01*
X19314000Y-8605000D02*
X19314000Y-8645000D01*
X19294000Y-8625000D02*
X19334000Y-8625000D01*
X19314000Y-9305000D02*
X19314000Y-9345000D01*
X19294000Y-9325000D02*
X19334000Y-9325000D01*
X19314000Y-10355000D02*
X19314000Y-10395000D01*
X19294000Y-10375000D02*
X19334000Y-10375000D01*
X19314000Y-10705000D02*
X19314000Y-10745000D01*
X19294000Y-10725000D02*
X19334000Y-10725000D01*
X19314000Y-11055000D02*
X19314000Y-11095000D01*
X19294000Y-11075000D02*
X19334000Y-11075000D01*
X19314000Y-11405000D02*
X19314000Y-11445000D01*
X19294000Y-11425000D02*
X19334000Y-11425000D01*
X19314000Y-12805000D02*
X19314000Y-12845000D01*
X19294000Y-12825000D02*
X19334000Y-12825000D01*
X19314000Y-13505000D02*
X19314000Y-13545000D01*
X19294000Y-13525000D02*
X19334000Y-13525000D01*
X19314000Y-13855000D02*
X19314000Y-13895000D01*
X19294000Y-13875000D02*
X19334000Y-13875000D01*
X19314000Y-14205000D02*
X19314000Y-14245000D01*
X19294000Y-14225000D02*
X19334000Y-14225000D01*
X19314000Y-15255000D02*
X19314000Y-15295000D01*
X19294000Y-15275000D02*
X19334000Y-15275000D01*
X19314000Y-15605000D02*
X19314000Y-15645000D01*
X19294000Y-15625000D02*
X19334000Y-15625000D01*
X19314000Y-15955000D02*
X19314000Y-15995000D01*
X19294000Y-15975000D02*
X19334000Y-15975000D01*
X19664000Y-8255000D02*
X19664000Y-8295000D01*
X19644000Y-8275000D02*
X19684000Y-8275000D01*
X19664000Y-8605000D02*
X19664000Y-8645000D01*
X19644000Y-8625000D02*
X19684000Y-8625000D01*
X19664000Y-9305000D02*
X19664000Y-9345000D01*
X19644000Y-9325000D02*
X19684000Y-9325000D01*
X19664000Y-10355000D02*
X19664000Y-10395000D01*
X19644000Y-10375000D02*
X19684000Y-10375000D01*
X19664000Y-10705000D02*
X19664000Y-10745000D01*
X19644000Y-10725000D02*
X19684000Y-10725000D01*
X19664000Y-11055000D02*
X19664000Y-11095000D01*
X19644000Y-11075000D02*
X19684000Y-11075000D01*
X19664000Y-11405000D02*
X19664000Y-11445000D01*
X19644000Y-11425000D02*
X19684000Y-11425000D01*
X19664000Y-12455000D02*
X19664000Y-12495000D01*
X19644000Y-12475000D02*
X19684000Y-12475000D01*
X19664000Y-13505000D02*
X19664000Y-13545000D01*
X19644000Y-13525000D02*
X19684000Y-13525000D01*
X19664000Y-14205000D02*
X19664000Y-14245000D01*
X19644000Y-14225000D02*
X19684000Y-14225000D01*
X19664000Y-14555000D02*
X19664000Y-14595000D01*
X19644000Y-14575000D02*
X19684000Y-14575000D01*
X19664000Y-15255000D02*
X19664000Y-15295000D01*
X19644000Y-15275000D02*
X19684000Y-15275000D01*
X19664000Y-15605000D02*
X19664000Y-15645000D01*
X19644000Y-15625000D02*
X19684000Y-15625000D01*
X19664000Y-15955000D02*
X19664000Y-15995000D01*
X19644000Y-15975000D02*
X19684000Y-15975000D01*
X19792500Y-9624500D02*
X19792500Y-9664500D01*
X19772500Y-9644500D02*
X19812500Y-9644500D01*
X19838500Y-8695000D02*
X19838500Y-8735000D01*
X19818500Y-8715000D02*
X19858500Y-8715000D01*
X20014000Y-8255000D02*
X20014000Y-8295000D01*
X19994000Y-8275000D02*
X20034000Y-8275000D01*
X20014000Y-8605000D02*
X20014000Y-8645000D01*
X19994000Y-8625000D02*
X20034000Y-8625000D01*
X20014000Y-10355000D02*
X20014000Y-10395000D01*
X19994000Y-10375000D02*
X20034000Y-10375000D01*
X20014000Y-10705000D02*
X20014000Y-10745000D01*
X19994000Y-10725000D02*
X20034000Y-10725000D01*
X20014000Y-11055000D02*
X20014000Y-11095000D01*
X19994000Y-11075000D02*
X20034000Y-11075000D01*
X20014000Y-11405000D02*
X20014000Y-11445000D01*
X19994000Y-11425000D02*
X20034000Y-11425000D01*
X20014000Y-13505000D02*
X20014000Y-13545000D01*
X19994000Y-13525000D02*
X20034000Y-13525000D01*
X20014000Y-14205000D02*
X20014000Y-14245000D01*
X19994000Y-14225000D02*
X20034000Y-14225000D01*
X20014000Y-15255000D02*
X20014000Y-15295000D01*
X19994000Y-15275000D02*
X20034000Y-15275000D01*
X20014000Y-15605000D02*
X20014000Y-15645000D01*
X19994000Y-15625000D02*
X20034000Y-15625000D01*
X20014000Y-15955000D02*
X20014000Y-15995000D01*
X19994000Y-15975000D02*
X20034000Y-15975000D01*
X20068500Y-12529500D02*
X20068500Y-12569500D01*
X20048500Y-12549500D02*
X20088500Y-12549500D01*
X20251500Y-11421500D02*
X20251500Y-11461500D01*
X20231500Y-11441500D02*
X20271500Y-11441500D01*
X20251500Y-12209500D02*
X20251500Y-12249500D01*
X20231500Y-12229500D02*
X20271500Y-12229500D01*
X20255500Y-14754500D02*
X20255500Y-14794500D01*
X20235500Y-14774500D02*
X20275500Y-14774500D01*
X20283400Y-13943500D02*
X20283400Y-13983500D01*
X20263400Y-13963500D02*
X20303400Y-13963500D01*
X20287500Y-8695000D02*
X20287500Y-8735000D01*
X20267500Y-8715000D02*
X20307500Y-8715000D01*
X20287500Y-9425000D02*
X20287500Y-9465000D01*
X20267500Y-9445000D02*
X20307500Y-9445000D01*
X20364000Y-8255000D02*
X20364000Y-8295000D01*
X20344000Y-8275000D02*
X20384000Y-8275000D01*
X20364000Y-8605000D02*
X20364000Y-8645000D01*
X20344000Y-8625000D02*
X20384000Y-8625000D01*
X20364000Y-10355000D02*
X20364000Y-10395000D01*
X20344000Y-10375000D02*
X20384000Y-10375000D01*
X20364000Y-10705000D02*
X20364000Y-10745000D01*
X20344000Y-10725000D02*
X20384000Y-10725000D01*
X20364000Y-11055000D02*
X20364000Y-11095000D01*
X20344000Y-11075000D02*
X20384000Y-11075000D01*
X20364000Y-11405000D02*
X20364000Y-11445000D01*
X20344000Y-11425000D02*
X20384000Y-11425000D01*
X20364000Y-13505000D02*
X20364000Y-13545000D01*
X20344000Y-13525000D02*
X20384000Y-13525000D01*
X20364000Y-13855000D02*
X20364000Y-13895000D01*
X20344000Y-13875000D02*
X20384000Y-13875000D01*
X20364000Y-14205000D02*
X20364000Y-14245000D01*
X20344000Y-14225000D02*
X20384000Y-14225000D01*
X20364000Y-14555000D02*
X20364000Y-14595000D01*
X20344000Y-14575000D02*
X20384000Y-14575000D01*
X20364000Y-15605000D02*
X20364000Y-15645000D01*
X20344000Y-15625000D02*
X20384000Y-15625000D01*
X20364000Y-15955000D02*
X20364000Y-15995000D01*
X20344000Y-15975000D02*
X20384000Y-15975000D01*
X20714000Y-8955000D02*
X20714000Y-8995000D01*
X20694000Y-8975000D02*
X20734000Y-8975000D01*
X20714000Y-9305000D02*
X20714000Y-9345000D01*
X20694000Y-9325000D02*
X20734000Y-9325000D01*
X20714000Y-11055000D02*
X20714000Y-11095000D01*
X20694000Y-11075000D02*
X20734000Y-11075000D01*
X20714000Y-13155000D02*
X20714000Y-13195000D01*
X20694000Y-13175000D02*
X20734000Y-13175000D01*
X20714000Y-14555000D02*
X20714000Y-14595000D01*
X20694000Y-14575000D02*
X20734000Y-14575000D01*
X20714000Y-14905000D02*
X20714000Y-14945000D01*
X20694000Y-14925000D02*
X20734000Y-14925000D01*
X20714000Y-15255000D02*
X20714000Y-15295000D01*
X20694000Y-15275000D02*
X20734000Y-15275000D01*
X20714000Y-15605000D02*
X20714000Y-15645000D01*
X20694000Y-15625000D02*
X20734000Y-15625000D01*
X12069713Y-11565713D02*
X12069713Y-11523287D01*
X12027287Y-11523287D01*
X12027287Y-11565713D01*
X12069713Y-11565713D01*
X12199713Y-11065713D02*
X12199713Y-11023287D01*
X12157287Y-11023287D01*
X12157287Y-11065713D01*
X12199713Y-11065713D01*
X17033500Y-13771500D02*
X17073500Y-13731500D01*
X17033500Y-13691500D01*
X16993500Y-13731500D01*
X17033500Y-13771500D01*
X17033500Y-14025500D02*
X17073500Y-13985500D01*
X17033500Y-13945500D01*
X16993500Y-13985500D01*
X17033500Y-14025500D01*
X17033500Y-14439500D02*
X17073500Y-14399500D01*
X17033500Y-14359500D01*
X16993500Y-14399500D01*
X17033500Y-14439500D01*
X17033500Y-14693500D02*
X17073500Y-14653500D01*
X17033500Y-14613500D01*
X16993500Y-14653500D01*
X17033500Y-14693500D01*
X17795500Y-13771500D02*
X17835500Y-13731500D01*
X17795500Y-13691500D01*
X17755500Y-13731500D01*
X17795500Y-13771500D01*
X17795500Y-14025500D02*
X17835500Y-13985500D01*
X17795500Y-13945500D01*
X17755500Y-13985500D01*
X17795500Y-14025500D01*
X17795500Y-14439500D02*
X17835500Y-14399500D01*
X17795500Y-14359500D01*
X17755500Y-14399500D01*
X17795500Y-14439500D01*
X17795500Y-14693500D02*
X17835500Y-14653500D01*
X17795500Y-14613500D01*
X17755500Y-14653500D01*
X17795500Y-14693500D01*
X18115500Y-13771500D02*
X18155500Y-13731500D01*
X18115500Y-13691500D01*
X18075500Y-13731500D01*
X18115500Y-13771500D01*
X18115500Y-14025500D02*
X18155500Y-13985500D01*
X18115500Y-13945500D01*
X18075500Y-13985500D01*
X18115500Y-14025500D01*
X18115500Y-14439500D02*
X18155500Y-14399500D01*
X18115500Y-14359500D01*
X18075500Y-14399500D01*
X18115500Y-14439500D01*
X18115500Y-14693500D02*
X18155500Y-14653500D01*
X18115500Y-14613500D01*
X18075500Y-14653500D01*
X18115500Y-14693500D01*
X18877500Y-13771500D02*
X18917500Y-13731500D01*
X18877500Y-13691500D01*
X18837500Y-13731500D01*
X18877500Y-13771500D01*
X18877500Y-14025500D02*
X18917500Y-13985500D01*
X18877500Y-13945500D01*
X18837500Y-13985500D01*
X18877500Y-14025500D01*
X18877500Y-14439500D02*
X18917500Y-14399500D01*
X18877500Y-14359500D01*
X18837500Y-14399500D01*
X18877500Y-14439500D01*
X18877500Y-14693500D02*
X18917500Y-14653500D01*
X18877500Y-14613500D01*
X18837500Y-14653500D01*
X18877500Y-14693500D01*
X16809500Y-15091500D02*
X16899500Y-15181500D01*
X16899500Y-15091500D02*
X16809500Y-15181500D01*
X16899500Y-15136500D02*
G75*
G02*
X16809500Y-15136500I-45000J0D01*
G01*
X16809500Y-15136500D02*
G75*
G02*
X16899500Y-15136500I45000J0D01*
G01*
X17063500Y-15091500D02*
X17153500Y-15181500D01*
X17153500Y-15091500D02*
X17063500Y-15181500D01*
X17153500Y-15136500D02*
G75*
G02*
X17063500Y-15136500I-45000J0D01*
G01*
X17063500Y-15136500D02*
G75*
G02*
X17153500Y-15136500I45000J0D01*
G01*
X17402500Y-15091500D02*
X17492500Y-15181500D01*
X17492500Y-15091500D02*
X17402500Y-15181500D01*
X17492500Y-15136500D02*
G75*
G02*
X17402500Y-15136500I-45000J0D01*
G01*
X17402500Y-15136500D02*
G75*
G02*
X17492500Y-15136500I45000J0D01*
G01*
X17656500Y-15091500D02*
X17746500Y-15181500D01*
X17746500Y-15091500D02*
X17656500Y-15181500D01*
X17746500Y-15136500D02*
G75*
G02*
X17656500Y-15136500I-45000J0D01*
G01*
X17656500Y-15136500D02*
G75*
G02*
X17746500Y-15136500I45000J0D01*
G01*
X13359500Y-12818500D02*
X13459500Y-12918500D01*
X13459500Y-12818500D02*
X13359500Y-12918500D01*
X13409500Y-12818500D02*
X13409500Y-12918500D01*
X13359500Y-12868500D02*
X13459500Y-12868500D01*
X13359500Y-14018500D02*
X13459500Y-14118500D01*
X13459500Y-14018500D02*
X13359500Y-14118500D01*
X13409500Y-14018500D02*
X13409500Y-14118500D01*
X13359500Y-14068500D02*
X13459500Y-14068500D01*
X13409500Y-9190500D02*
X13509500Y-9290500D01*
X13509500Y-9190500D02*
X13409500Y-9290500D01*
X13459500Y-9190500D02*
X13459500Y-9290500D01*
X13409500Y-9240500D02*
X13509500Y-9240500D01*
X13909500Y-12098500D02*
X14009500Y-12198500D01*
X14009500Y-12098500D02*
X13909500Y-12198500D01*
X13959500Y-12098500D02*
X13959500Y-12198500D01*
X13909500Y-12148500D02*
X14009500Y-12148500D01*
X14409500Y-12098500D02*
X14509500Y-12198500D01*
X14509500Y-12098500D02*
X14409500Y-12198500D01*
X14459500Y-12098500D02*
X14459500Y-12198500D01*
X14409500Y-12148500D02*
X14509500Y-12148500D01*
X14909500Y-9190500D02*
X15009500Y-9290500D01*
X15009500Y-9190500D02*
X14909500Y-9290500D01*
X14959500Y-9190500D02*
X14959500Y-9290500D01*
X14909500Y-9240500D02*
X15009500Y-9240500D01*
X15895500Y-14865500D02*
X15995500Y-14965500D01*
X15995500Y-14865500D02*
X15895500Y-14965500D01*
X15945500Y-14865500D02*
X15945500Y-14965500D01*
X15895500Y-14915500D02*
X15995500Y-14915500D01*
X15993380Y-14054500D02*
X16093380Y-14154500D01*
X16093380Y-14054500D02*
X15993380Y-14154500D01*
X16043380Y-14054500D02*
X16043380Y-14154500D01*
X15993380Y-14104500D02*
X16093380Y-14104500D01*
X16149500Y-14865500D02*
X16249500Y-14965500D01*
X16249500Y-14865500D02*
X16149500Y-14965500D01*
X16199500Y-14865500D02*
X16199500Y-14965500D01*
X16149500Y-14915500D02*
X16249500Y-14915500D01*
X16403500Y-14865500D02*
X16503500Y-14965500D01*
X16503500Y-14865500D02*
X16403500Y-14965500D01*
X16453500Y-14865500D02*
X16453500Y-14965500D01*
X16403500Y-14915500D02*
X16503500Y-14915500D01*
X16493380Y-14054500D02*
X16593380Y-14154500D01*
X16593380Y-14054500D02*
X16493380Y-14154500D01*
X16543380Y-14054500D02*
X16543380Y-14154500D01*
X16493380Y-14104500D02*
X16593380Y-14104500D01*
X19218500Y-14724500D02*
X19318500Y-14824500D01*
X19318500Y-14724500D02*
X19218500Y-14824500D01*
X19268500Y-14724500D02*
X19268500Y-14824500D01*
X19218500Y-14774500D02*
X19318500Y-14774500D01*
X19443620Y-9504500D02*
X19543620Y-9604500D01*
X19543620Y-9504500D02*
X19443620Y-9604500D01*
X19493620Y-9504500D02*
X19493620Y-9604500D01*
X19443620Y-9554500D02*
X19543620Y-9554500D01*
X19472500Y-14724500D02*
X19572500Y-14824500D01*
X19572500Y-14724500D02*
X19472500Y-14824500D01*
X19522500Y-14724500D02*
X19522500Y-14824500D01*
X19472500Y-14774500D02*
X19572500Y-14774500D01*
X19493380Y-13913500D02*
X19593380Y-14013500D01*
X19593380Y-13913500D02*
X19493380Y-14013500D01*
X19543380Y-13913500D02*
X19543380Y-14013500D01*
X19493380Y-13963500D02*
X19593380Y-13963500D01*
X19726500Y-14724500D02*
X19826500Y-14824500D01*
X19826500Y-14724500D02*
X19726500Y-14824500D01*
X19776500Y-14724500D02*
X19776500Y-14824500D01*
X19726500Y-14774500D02*
X19826500Y-14774500D01*
X19980500Y-14724500D02*
X20080500Y-14824500D01*
X20080500Y-14724500D02*
X19980500Y-14824500D01*
X20030500Y-14724500D02*
X20030500Y-14824500D01*
X19980500Y-14774500D02*
X20080500Y-14774500D01*
X19993380Y-13913500D02*
X20093380Y-14013500D01*
X20093380Y-13913500D02*
X19993380Y-14013500D01*
X20043380Y-13913500D02*
X20043380Y-14013500D01*
X19993380Y-13963500D02*
X20093380Y-13963500D01*
X20443500Y-14790500D02*
X20543500Y-14890500D01*
X20543500Y-14790500D02*
X20443500Y-14890500D01*
X20493500Y-14790500D02*
X20493500Y-14890500D01*
X20443500Y-14840500D02*
X20543500Y-14840500D01*
X20443500Y-15044500D02*
X20543500Y-15144500D01*
X20543500Y-15044500D02*
X20443500Y-15144500D01*
X20493500Y-15044500D02*
X20493500Y-15144500D01*
X20443500Y-15094500D02*
X20543500Y-15094500D01*
X20443500Y-15298500D02*
X20543500Y-15398500D01*
X20543500Y-15298500D02*
X20443500Y-15398500D01*
X20493500Y-15298500D02*
X20493500Y-15398500D01*
X20443500Y-15348500D02*
X20543500Y-15348500D01*
X20443620Y-9504500D02*
X20543620Y-9604500D01*
X20543620Y-9504500D02*
X20443620Y-9604500D01*
X20493620Y-9504500D02*
X20493620Y-9604500D01*
X20443620Y-9554500D02*
X20543620Y-9554500D01*
X20554500Y-13565500D02*
X20654500Y-13665500D01*
X20654500Y-13565500D02*
X20554500Y-13665500D01*
X20604500Y-13565500D02*
X20604500Y-13665500D01*
X20554500Y-13615500D02*
X20654500Y-13615500D01*
X20554500Y-13819500D02*
X20654500Y-13919500D01*
X20654500Y-13819500D02*
X20554500Y-13919500D01*
X20604500Y-13819500D02*
X20604500Y-13919500D01*
X20554500Y-13869500D02*
X20654500Y-13869500D01*
X20554500Y-14073500D02*
X20654500Y-14173500D01*
X20654500Y-14073500D02*
X20554500Y-14173500D01*
X20604500Y-14073500D02*
X20604500Y-14173500D01*
X20554500Y-14123500D02*
X20654500Y-14123500D01*
X20554500Y-14327500D02*
X20654500Y-14427500D01*
X20654500Y-14327500D02*
X20554500Y-14427500D01*
X20604500Y-14327500D02*
X20604500Y-14427500D01*
X20554500Y-14377500D02*
X20654500Y-14377500D01*
D12*
X10867000Y-10992000D02*
X10972000Y-11097000D01*
X10972000Y-10992000D02*
X10867000Y-11097000D01*
X10956624Y-11081624D02*
X10956624Y-11007377D01*
X10882377Y-11007377D01*
X10882377Y-11081624D01*
X10956624Y-11081624D01*
X10867000Y-11492000D02*
X10972000Y-11597000D01*
X10972000Y-11492000D02*
X10867000Y-11597000D01*
X10956624Y-11581623D02*
X10956624Y-11507376D01*
X10882377Y-11507376D01*
X10882377Y-11581623D01*
X10956624Y-11581623D01*
X10867000Y-12492000D02*
X10972000Y-12597000D01*
X10972000Y-12492000D02*
X10867000Y-12597000D01*
X10956624Y-12581623D02*
X10956624Y-12507376D01*
X10882377Y-12507376D01*
X10882377Y-12581623D01*
X10956624Y-12581623D01*
X10867000Y-12992000D02*
X10972000Y-13097000D01*
X10972000Y-12992000D02*
X10867000Y-13097000D01*
X10956624Y-13081623D02*
X10956624Y-13007376D01*
X10882377Y-13007376D01*
X10882377Y-13081623D01*
X10956624Y-13081623D01*
D13*
X20598500Y-10468500D02*
X20708500Y-10578500D01*
X20708500Y-10468500D02*
X20598500Y-10578500D01*
X20653500Y-10578500D02*
X20708500Y-10523500D01*
X20653500Y-10468500D01*
X20598500Y-10523500D01*
X20653500Y-10578500D01*
X20598500Y-11484500D02*
X20708500Y-11594500D01*
X20708500Y-11484500D02*
X20598500Y-11594500D01*
X20653500Y-11594500D02*
X20708500Y-11539500D01*
X20653500Y-11484500D01*
X20598500Y-11539500D01*
X20653500Y-11594500D01*
D14*
X10929500Y-9635500D02*
X10929500Y-9765500D01*
X10864500Y-9700500D02*
X10994500Y-9700500D01*
X10994500Y-9700500D02*
G75*
G02*
X10864500Y-9700500I-65000J0D01*
G01*
X10864500Y-9700500D02*
G75*
G02*
X10994500Y-9700500I65000J0D01*
G01*
X10929500Y-14384500D02*
X10929500Y-14514500D01*
X10864500Y-14449500D02*
X10994500Y-14449500D01*
X10994500Y-14449500D02*
G75*
G02*
X10864500Y-14449500I-65000J0D01*
G01*
X10864500Y-14449500D02*
G75*
G02*
X10994500Y-14449500I65000J0D01*
G01*
X11429500Y-9635500D02*
X11429500Y-9765500D01*
X11364500Y-9700500D02*
X11494500Y-9700500D01*
X11494500Y-9700500D02*
G75*
G02*
X11364500Y-9700500I-65000J0D01*
G01*
X11364500Y-9700500D02*
G75*
G02*
X11494500Y-9700500I65000J0D01*
G01*
X11429500Y-14384500D02*
X11429500Y-14514500D01*
X11364500Y-14449500D02*
X11494500Y-14449500D01*
X11494500Y-14449500D02*
G75*
G02*
X11364500Y-14449500I-65000J0D01*
G01*
X11364500Y-14449500D02*
G75*
G02*
X11494500Y-14449500I65000J0D01*
G01*
X11929500Y-9635500D02*
X11929500Y-9765500D01*
X11864500Y-9700500D02*
X11994500Y-9700500D01*
X11994500Y-9700500D02*
G75*
G02*
X11864500Y-9700500I-65000J0D01*
G01*
X11864500Y-9700500D02*
G75*
G02*
X11994500Y-9700500I65000J0D01*
G01*
X13214500Y-13398500D02*
X13214500Y-13528500D01*
X13149500Y-13463500D02*
X13279500Y-13463500D01*
X13279500Y-13463500D02*
G75*
G02*
X13149500Y-13463500I-65000J0D01*
G01*
X13149500Y-13463500D02*
G75*
G02*
X13279500Y-13463500I65000J0D01*
G01*
X14629500Y-14003500D02*
X14629500Y-14133500D01*
X14564500Y-14068500D02*
X14694500Y-14068500D01*
X14694500Y-14068500D02*
G75*
G02*
X14564500Y-14068500I-65000J0D01*
G01*
X14564500Y-14068500D02*
G75*
G02*
X14694500Y-14068500I65000J0D01*
G01*
X14634500Y-12798500D02*
X14634500Y-12928500D01*
X14569500Y-12863500D02*
X14699500Y-12863500D01*
X14699500Y-12863500D02*
G75*
G02*
X14569500Y-12863500I-65000J0D01*
G01*
X14569500Y-12863500D02*
G75*
G02*
X14699500Y-12863500I65000J0D01*
G01*
X19568500Y-12754500D02*
X19568500Y-12884500D01*
X19503500Y-12819500D02*
X19633500Y-12819500D01*
X19633500Y-12819500D02*
G75*
G02*
X19503500Y-12819500I-65000J0D01*
G01*
X19503500Y-12819500D02*
G75*
G02*
X19633500Y-12819500I65000J0D01*
G01*
X20068500Y-12754500D02*
X20068500Y-12884500D01*
X20003500Y-12819500D02*
X20133500Y-12819500D01*
X20133500Y-12819500D02*
G75*
G02*
X20003500Y-12819500I-65000J0D01*
G01*
X20003500Y-12819500D02*
G75*
G02*
X20133500Y-12819500I65000J0D01*
G01*
D11*
X10255777Y-16726484D02*
X10255777Y-16526484D01*
X10255777Y-16526484D02*
X10303396Y-16526484D01*
X10303396Y-16526484D02*
X10331967Y-16536008D01*
X10331967Y-16536008D02*
X10351015Y-16555055D01*
X10351015Y-16555055D02*
X10360539Y-16574103D01*
X10360539Y-16574103D02*
X10370063Y-16612198D01*
X10370063Y-16612198D02*
X10370063Y-16640769D01*
X10370063Y-16640769D02*
X10360539Y-16678865D01*
X10360539Y-16678865D02*
X10351015Y-16697912D01*
X10351015Y-16697912D02*
X10331967Y-16716960D01*
X10331967Y-16716960D02*
X10303396Y-16726484D01*
X10303396Y-16726484D02*
X10255777Y-16726484D01*
X10455777Y-16726484D02*
X10455777Y-16593150D01*
X10455777Y-16631246D02*
X10465301Y-16612198D01*
X10465301Y-16612198D02*
X10474824Y-16602674D01*
X10474824Y-16602674D02*
X10493872Y-16593150D01*
X10493872Y-16593150D02*
X10512920Y-16593150D01*
X10579586Y-16726484D02*
X10579586Y-16593150D01*
X10579586Y-16526484D02*
X10570063Y-16536008D01*
X10570063Y-16536008D02*
X10579586Y-16545531D01*
X10579586Y-16545531D02*
X10589110Y-16536008D01*
X10589110Y-16536008D02*
X10579586Y-16526484D01*
X10579586Y-16526484D02*
X10579586Y-16545531D01*
X10703396Y-16726484D02*
X10684348Y-16716960D01*
X10684348Y-16716960D02*
X10674824Y-16697912D01*
X10674824Y-16697912D02*
X10674824Y-16526484D01*
X10808158Y-16726484D02*
X10789110Y-16716960D01*
X10789110Y-16716960D02*
X10779586Y-16697912D01*
X10779586Y-16697912D02*
X10779586Y-16526484D01*
X11036729Y-16726484D02*
X11036729Y-16526484D01*
X11036729Y-16526484D02*
X11103396Y-16669341D01*
X11103396Y-16669341D02*
X11170063Y-16526484D01*
X11170063Y-16526484D02*
X11170063Y-16726484D01*
X11351015Y-16726484D02*
X11351015Y-16621722D01*
X11351015Y-16621722D02*
X11341491Y-16602674D01*
X11341491Y-16602674D02*
X11322443Y-16593150D01*
X11322443Y-16593150D02*
X11284348Y-16593150D01*
X11284348Y-16593150D02*
X11265301Y-16602674D01*
X11351015Y-16716960D02*
X11331967Y-16726484D01*
X11331967Y-16726484D02*
X11284348Y-16726484D01*
X11284348Y-16726484D02*
X11265301Y-16716960D01*
X11265301Y-16716960D02*
X11255777Y-16697912D01*
X11255777Y-16697912D02*
X11255777Y-16678865D01*
X11255777Y-16678865D02*
X11265301Y-16659817D01*
X11265301Y-16659817D02*
X11284348Y-16650293D01*
X11284348Y-16650293D02*
X11331967Y-16650293D01*
X11331967Y-16650293D02*
X11351015Y-16640769D01*
X11446253Y-16593150D02*
X11446253Y-16793150D01*
X11446253Y-16602674D02*
X11465301Y-16593150D01*
X11465301Y-16593150D02*
X11503396Y-16593150D01*
X11503396Y-16593150D02*
X11522443Y-16602674D01*
X11522443Y-16602674D02*
X11531967Y-16612198D01*
X11531967Y-16612198D02*
X11541491Y-16631246D01*
X11541491Y-16631246D02*
X11541491Y-16688388D01*
X11541491Y-16688388D02*
X11531967Y-16707436D01*
X11531967Y-16707436D02*
X11522443Y-16716960D01*
X11522443Y-16716960D02*
X11503396Y-16726484D01*
X11503396Y-16726484D02*
X11465301Y-16726484D01*
X11465301Y-16726484D02*
X11446253Y-16716960D01*
X11627205Y-16707436D02*
X11636729Y-16716960D01*
X11636729Y-16716960D02*
X11627205Y-16726484D01*
X11627205Y-16726484D02*
X11617682Y-16716960D01*
X11617682Y-16716960D02*
X11627205Y-16707436D01*
X11627205Y-16707436D02*
X11627205Y-16726484D01*
X11627205Y-16602674D02*
X11636729Y-16612198D01*
X11636729Y-16612198D02*
X11627205Y-16621722D01*
X11627205Y-16621722D02*
X11617682Y-16612198D01*
X11617682Y-16612198D02*
X11627205Y-16602674D01*
X11627205Y-16602674D02*
X11627205Y-16621722D01*
D10*
X9975000Y-17045000D02*
X9995000Y-17065000D01*
X9995000Y-17045000D02*
X9975000Y-17065000D01*
D11*
X10293872Y-16946484D02*
X10312920Y-16946484D01*
X10312920Y-16946484D02*
X10331967Y-16956008D01*
X10331967Y-16956008D02*
X10341491Y-16965531D01*
X10341491Y-16965531D02*
X10351015Y-16984579D01*
X10351015Y-16984579D02*
X10360539Y-17022674D01*
X10360539Y-17022674D02*
X10360539Y-17070293D01*
X10360539Y-17070293D02*
X10351015Y-17108389D01*
X10351015Y-17108389D02*
X10341491Y-17127436D01*
X10341491Y-17127436D02*
X10331967Y-17136960D01*
X10331967Y-17136960D02*
X10312920Y-17146484D01*
X10312920Y-17146484D02*
X10293872Y-17146484D01*
X10293872Y-17146484D02*
X10274824Y-17136960D01*
X10274824Y-17136960D02*
X10265301Y-17127436D01*
X10265301Y-17127436D02*
X10255777Y-17108389D01*
X10255777Y-17108389D02*
X10246253Y-17070293D01*
X10246253Y-17070293D02*
X10246253Y-17022674D01*
X10246253Y-17022674D02*
X10255777Y-16984579D01*
X10255777Y-16984579D02*
X10265301Y-16965531D01*
X10265301Y-16965531D02*
X10274824Y-16956008D01*
X10274824Y-16956008D02*
X10293872Y-16946484D01*
X10446253Y-17127436D02*
X10455777Y-17136960D01*
X10455777Y-17136960D02*
X10446253Y-17146484D01*
X10446253Y-17146484D02*
X10436729Y-17136960D01*
X10436729Y-17136960D02*
X10446253Y-17127436D01*
X10446253Y-17127436D02*
X10446253Y-17146484D01*
X10531967Y-16965531D02*
X10541491Y-16956008D01*
X10541491Y-16956008D02*
X10560539Y-16946484D01*
X10560539Y-16946484D02*
X10608158Y-16946484D01*
X10608158Y-16946484D02*
X10627205Y-16956008D01*
X10627205Y-16956008D02*
X10636729Y-16965531D01*
X10636729Y-16965531D02*
X10646253Y-16984579D01*
X10646253Y-16984579D02*
X10646253Y-17003627D01*
X10646253Y-17003627D02*
X10636729Y-17032198D01*
X10636729Y-17032198D02*
X10522444Y-17146484D01*
X10522444Y-17146484D02*
X10646253Y-17146484D01*
X10770063Y-16946484D02*
X10789110Y-16946484D01*
X10789110Y-16946484D02*
X10808158Y-16956008D01*
X10808158Y-16956008D02*
X10817682Y-16965531D01*
X10817682Y-16965531D02*
X10827205Y-16984579D01*
X10827205Y-16984579D02*
X10836729Y-17022674D01*
X10836729Y-17022674D02*
X10836729Y-17070293D01*
X10836729Y-17070293D02*
X10827205Y-17108389D01*
X10827205Y-17108389D02*
X10817682Y-17127436D01*
X10817682Y-17127436D02*
X10808158Y-17136960D01*
X10808158Y-17136960D02*
X10789110Y-17146484D01*
X10789110Y-17146484D02*
X10770063Y-17146484D01*
X10770063Y-17146484D02*
X10751015Y-17136960D01*
X10751015Y-17136960D02*
X10741491Y-17127436D01*
X10741491Y-17127436D02*
X10731967Y-17108389D01*
X10731967Y-17108389D02*
X10722444Y-17070293D01*
X10722444Y-17070293D02*
X10722444Y-17022674D01*
X10722444Y-17022674D02*
X10731967Y-16984579D01*
X10731967Y-16984579D02*
X10741491Y-16965531D01*
X10741491Y-16965531D02*
X10751015Y-16956008D01*
X10751015Y-16956008D02*
X10770063Y-16946484D01*
X10960539Y-16946484D02*
X10979586Y-16946484D01*
X10979586Y-16946484D02*
X10998634Y-16956008D01*
X10998634Y-16956008D02*
X11008158Y-16965531D01*
X11008158Y-16965531D02*
X11017682Y-16984579D01*
X11017682Y-16984579D02*
X11027205Y-17022674D01*
X11027205Y-17022674D02*
X11027205Y-17070293D01*
X11027205Y-17070293D02*
X11017682Y-17108389D01*
X11017682Y-17108389D02*
X11008158Y-17127436D01*
X11008158Y-17127436D02*
X10998634Y-17136960D01*
X10998634Y-17136960D02*
X10979586Y-17146484D01*
X10979586Y-17146484D02*
X10960539Y-17146484D01*
X10960539Y-17146484D02*
X10941491Y-17136960D01*
X10941491Y-17136960D02*
X10931967Y-17127436D01*
X10931967Y-17127436D02*
X10922444Y-17108389D01*
X10922444Y-17108389D02*
X10912920Y-17070293D01*
X10912920Y-17070293D02*
X10912920Y-17022674D01*
X10912920Y-17022674D02*
X10922444Y-16984579D01*
X10922444Y-16984579D02*
X10931967Y-16965531D01*
X10931967Y-16965531D02*
X10941491Y-16956008D01*
X10941491Y-16956008D02*
X10960539Y-16946484D01*
X11112920Y-17146484D02*
X11112920Y-17013150D01*
X11112920Y-17032198D02*
X11122444Y-17022674D01*
X11122444Y-17022674D02*
X11141491Y-17013150D01*
X11141491Y-17013150D02*
X11170063Y-17013150D01*
X11170063Y-17013150D02*
X11189110Y-17022674D01*
X11189110Y-17022674D02*
X11198634Y-17041722D01*
X11198634Y-17041722D02*
X11198634Y-17146484D01*
X11198634Y-17041722D02*
X11208158Y-17022674D01*
X11208158Y-17022674D02*
X11227205Y-17013150D01*
X11227205Y-17013150D02*
X11255777Y-17013150D01*
X11255777Y-17013150D02*
X11274824Y-17022674D01*
X11274824Y-17022674D02*
X11284348Y-17041722D01*
X11284348Y-17041722D02*
X11284348Y-17146484D01*
X11379586Y-17146484D02*
X11379586Y-17013150D01*
X11379586Y-17032198D02*
X11389110Y-17022674D01*
X11389110Y-17022674D02*
X11408158Y-17013150D01*
X11408158Y-17013150D02*
X11436729Y-17013150D01*
X11436729Y-17013150D02*
X11455777Y-17022674D01*
X11455777Y-17022674D02*
X11465301Y-17041722D01*
X11465301Y-17041722D02*
X11465301Y-17146484D01*
X11465301Y-17041722D02*
X11474824Y-17022674D01*
X11474824Y-17022674D02*
X11493872Y-17013150D01*
X11493872Y-17013150D02*
X11522443Y-17013150D01*
X11522443Y-17013150D02*
X11541491Y-17022674D01*
X11541491Y-17022674D02*
X11551015Y-17041722D01*
X11551015Y-17041722D02*
X11551015Y-17146484D01*
X11941491Y-16936960D02*
X11770063Y-17194103D01*
X12198634Y-16946484D02*
X12217682Y-16946484D01*
X12217682Y-16946484D02*
X12236729Y-16956008D01*
X12236729Y-16956008D02*
X12246253Y-16965531D01*
X12246253Y-16965531D02*
X12255777Y-16984579D01*
X12255777Y-16984579D02*
X12265301Y-17022674D01*
X12265301Y-17022674D02*
X12265301Y-17070293D01*
X12265301Y-17070293D02*
X12255777Y-17108389D01*
X12255777Y-17108389D02*
X12246253Y-17127436D01*
X12246253Y-17127436D02*
X12236729Y-17136960D01*
X12236729Y-17136960D02*
X12217682Y-17146484D01*
X12217682Y-17146484D02*
X12198634Y-17146484D01*
X12198634Y-17146484D02*
X12179586Y-17136960D01*
X12179586Y-17136960D02*
X12170063Y-17127436D01*
X12170063Y-17127436D02*
X12160539Y-17108389D01*
X12160539Y-17108389D02*
X12151015Y-17070293D01*
X12151015Y-17070293D02*
X12151015Y-17022674D01*
X12151015Y-17022674D02*
X12160539Y-16984579D01*
X12160539Y-16984579D02*
X12170063Y-16965531D01*
X12170063Y-16965531D02*
X12179586Y-16956008D01*
X12179586Y-16956008D02*
X12198634Y-16946484D01*
X12351015Y-17127436D02*
X12360539Y-17136960D01*
X12360539Y-17136960D02*
X12351015Y-17146484D01*
X12351015Y-17146484D02*
X12341491Y-17136960D01*
X12341491Y-17136960D02*
X12351015Y-17127436D01*
X12351015Y-17127436D02*
X12351015Y-17146484D01*
X12484348Y-16946484D02*
X12503396Y-16946484D01*
X12503396Y-16946484D02*
X12522444Y-16956008D01*
X12522444Y-16956008D02*
X12531967Y-16965531D01*
X12531967Y-16965531D02*
X12541491Y-16984579D01*
X12541491Y-16984579D02*
X12551015Y-17022674D01*
X12551015Y-17022674D02*
X12551015Y-17070293D01*
X12551015Y-17070293D02*
X12541491Y-17108389D01*
X12541491Y-17108389D02*
X12531967Y-17127436D01*
X12531967Y-17127436D02*
X12522444Y-17136960D01*
X12522444Y-17136960D02*
X12503396Y-17146484D01*
X12503396Y-17146484D02*
X12484348Y-17146484D01*
X12484348Y-17146484D02*
X12465301Y-17136960D01*
X12465301Y-17136960D02*
X12455777Y-17127436D01*
X12455777Y-17127436D02*
X12446253Y-17108389D01*
X12446253Y-17108389D02*
X12436729Y-17070293D01*
X12436729Y-17070293D02*
X12436729Y-17022674D01*
X12436729Y-17022674D02*
X12446253Y-16984579D01*
X12446253Y-16984579D02*
X12455777Y-16965531D01*
X12455777Y-16965531D02*
X12465301Y-16956008D01*
X12465301Y-16956008D02*
X12484348Y-16946484D01*
X12674825Y-16946484D02*
X12693872Y-16946484D01*
X12693872Y-16946484D02*
X12712920Y-16956008D01*
X12712920Y-16956008D02*
X12722444Y-16965531D01*
X12722444Y-16965531D02*
X12731967Y-16984579D01*
X12731967Y-16984579D02*
X12741491Y-17022674D01*
X12741491Y-17022674D02*
X12741491Y-17070293D01*
X12741491Y-17070293D02*
X12731967Y-17108389D01*
X12731967Y-17108389D02*
X12722444Y-17127436D01*
X12722444Y-17127436D02*
X12712920Y-17136960D01*
X12712920Y-17136960D02*
X12693872Y-17146484D01*
X12693872Y-17146484D02*
X12674825Y-17146484D01*
X12674825Y-17146484D02*
X12655777Y-17136960D01*
X12655777Y-17136960D02*
X12646253Y-17127436D01*
X12646253Y-17127436D02*
X12636729Y-17108389D01*
X12636729Y-17108389D02*
X12627206Y-17070293D01*
X12627206Y-17070293D02*
X12627206Y-17022674D01*
X12627206Y-17022674D02*
X12636729Y-16984579D01*
X12636729Y-16984579D02*
X12646253Y-16965531D01*
X12646253Y-16965531D02*
X12655777Y-16956008D01*
X12655777Y-16956008D02*
X12674825Y-16946484D01*
X12808158Y-16946484D02*
X12941491Y-16946484D01*
X12941491Y-16946484D02*
X12855777Y-17146484D01*
X13027206Y-17146484D02*
X13065301Y-17146484D01*
X13065301Y-17146484D02*
X13084348Y-17136960D01*
X13084348Y-17136960D02*
X13093872Y-17127436D01*
X13093872Y-17127436D02*
X13112920Y-17098865D01*
X13112920Y-17098865D02*
X13122444Y-17060770D01*
X13122444Y-17060770D02*
X13122444Y-16984579D01*
X13122444Y-16984579D02*
X13112920Y-16965531D01*
X13112920Y-16965531D02*
X13103396Y-16956008D01*
X13103396Y-16956008D02*
X13084348Y-16946484D01*
X13084348Y-16946484D02*
X13046253Y-16946484D01*
X13046253Y-16946484D02*
X13027206Y-16956008D01*
X13027206Y-16956008D02*
X13017682Y-16965531D01*
X13017682Y-16965531D02*
X13008158Y-16984579D01*
X13008158Y-16984579D02*
X13008158Y-17032198D01*
X13008158Y-17032198D02*
X13017682Y-17051246D01*
X13017682Y-17051246D02*
X13027206Y-17060770D01*
X13027206Y-17060770D02*
X13046253Y-17070293D01*
X13046253Y-17070293D02*
X13084348Y-17070293D01*
X13084348Y-17070293D02*
X13103396Y-17060770D01*
X13103396Y-17060770D02*
X13112920Y-17051246D01*
X13112920Y-17051246D02*
X13122444Y-17032198D01*
X13198634Y-16946484D02*
X13198634Y-16984579D01*
X13274825Y-16946484D02*
X13274825Y-16984579D01*
X13570063Y-17222674D02*
X13560539Y-17213150D01*
X13560539Y-17213150D02*
X13541491Y-17184579D01*
X13541491Y-17184579D02*
X13531968Y-17165531D01*
X13531968Y-17165531D02*
X13522444Y-17136960D01*
X13522444Y-17136960D02*
X13512920Y-17089341D01*
X13512920Y-17089341D02*
X13512920Y-17051246D01*
X13512920Y-17051246D02*
X13522444Y-17003627D01*
X13522444Y-17003627D02*
X13531968Y-16975055D01*
X13531968Y-16975055D02*
X13541491Y-16956008D01*
X13541491Y-16956008D02*
X13560539Y-16927436D01*
X13560539Y-16927436D02*
X13570063Y-16917912D01*
X13751015Y-17146484D02*
X13636729Y-17146484D01*
X13693872Y-17146484D02*
X13693872Y-16946484D01*
X13693872Y-16946484D02*
X13674825Y-16975055D01*
X13674825Y-16975055D02*
X13655777Y-16994103D01*
X13655777Y-16994103D02*
X13636729Y-17003627D01*
X13827206Y-16965531D02*
X13836729Y-16956008D01*
X13836729Y-16956008D02*
X13855777Y-16946484D01*
X13855777Y-16946484D02*
X13903396Y-16946484D01*
X13903396Y-16946484D02*
X13922444Y-16956008D01*
X13922444Y-16956008D02*
X13931968Y-16965531D01*
X13931968Y-16965531D02*
X13941491Y-16984579D01*
X13941491Y-16984579D02*
X13941491Y-17003627D01*
X13941491Y-17003627D02*
X13931968Y-17032198D01*
X13931968Y-17032198D02*
X13817682Y-17146484D01*
X13817682Y-17146484D02*
X13941491Y-17146484D01*
X14179587Y-17146484D02*
X14179587Y-16946484D01*
X14265301Y-17146484D02*
X14265301Y-17041722D01*
X14265301Y-17041722D02*
X14255777Y-17022674D01*
X14255777Y-17022674D02*
X14236730Y-17013150D01*
X14236730Y-17013150D02*
X14208158Y-17013150D01*
X14208158Y-17013150D02*
X14189110Y-17022674D01*
X14189110Y-17022674D02*
X14179587Y-17032198D01*
X14389110Y-17146484D02*
X14370063Y-17136960D01*
X14370063Y-17136960D02*
X14360539Y-17127436D01*
X14360539Y-17127436D02*
X14351015Y-17108389D01*
X14351015Y-17108389D02*
X14351015Y-17051246D01*
X14351015Y-17051246D02*
X14360539Y-17032198D01*
X14360539Y-17032198D02*
X14370063Y-17022674D01*
X14370063Y-17022674D02*
X14389110Y-17013150D01*
X14389110Y-17013150D02*
X14417682Y-17013150D01*
X14417682Y-17013150D02*
X14436730Y-17022674D01*
X14436730Y-17022674D02*
X14446253Y-17032198D01*
X14446253Y-17032198D02*
X14455777Y-17051246D01*
X14455777Y-17051246D02*
X14455777Y-17108389D01*
X14455777Y-17108389D02*
X14446253Y-17127436D01*
X14446253Y-17127436D02*
X14436730Y-17136960D01*
X14436730Y-17136960D02*
X14417682Y-17146484D01*
X14417682Y-17146484D02*
X14389110Y-17146484D01*
X14570063Y-17146484D02*
X14551015Y-17136960D01*
X14551015Y-17136960D02*
X14541491Y-17117912D01*
X14541491Y-17117912D02*
X14541491Y-16946484D01*
X14722444Y-17136960D02*
X14703396Y-17146484D01*
X14703396Y-17146484D02*
X14665301Y-17146484D01*
X14665301Y-17146484D02*
X14646253Y-17136960D01*
X14646253Y-17136960D02*
X14636730Y-17117912D01*
X14636730Y-17117912D02*
X14636730Y-17041722D01*
X14636730Y-17041722D02*
X14646253Y-17022674D01*
X14646253Y-17022674D02*
X14665301Y-17013150D01*
X14665301Y-17013150D02*
X14703396Y-17013150D01*
X14703396Y-17013150D02*
X14722444Y-17022674D01*
X14722444Y-17022674D02*
X14731968Y-17041722D01*
X14731968Y-17041722D02*
X14731968Y-17060770D01*
X14731968Y-17060770D02*
X14636730Y-17079817D01*
X14808158Y-17136960D02*
X14827206Y-17146484D01*
X14827206Y-17146484D02*
X14865301Y-17146484D01*
X14865301Y-17146484D02*
X14884349Y-17136960D01*
X14884349Y-17136960D02*
X14893872Y-17117912D01*
X14893872Y-17117912D02*
X14893872Y-17108389D01*
X14893872Y-17108389D02*
X14884349Y-17089341D01*
X14884349Y-17089341D02*
X14865301Y-17079817D01*
X14865301Y-17079817D02*
X14836730Y-17079817D01*
X14836730Y-17079817D02*
X14817682Y-17070293D01*
X14817682Y-17070293D02*
X14808158Y-17051246D01*
X14808158Y-17051246D02*
X14808158Y-17041722D01*
X14808158Y-17041722D02*
X14817682Y-17022674D01*
X14817682Y-17022674D02*
X14836730Y-17013150D01*
X14836730Y-17013150D02*
X14865301Y-17013150D01*
X14865301Y-17013150D02*
X14884349Y-17022674D01*
X14960539Y-17222674D02*
X14970063Y-17213150D01*
X14970063Y-17213150D02*
X14989111Y-17184579D01*
X14989111Y-17184579D02*
X14998634Y-17165531D01*
X14998634Y-17165531D02*
X15008158Y-17136960D01*
X15008158Y-17136960D02*
X15017682Y-17089341D01*
X15017682Y-17089341D02*
X15017682Y-17051246D01*
X15017682Y-17051246D02*
X15008158Y-17003627D01*
X15008158Y-17003627D02*
X14998634Y-16975055D01*
X14998634Y-16975055D02*
X14989111Y-16956008D01*
X14989111Y-16956008D02*
X14970063Y-16927436D01*
X14970063Y-16927436D02*
X14960539Y-16917912D01*
D10*
X9995000Y-17319000D02*
G75*
G02*
X9965000Y-17319000I-15000J0D01*
G01*
X9965000Y-17319000D02*
G75*
G02*
X9995000Y-17319000I15000J0D01*
G01*
D11*
X10293872Y-17210484D02*
X10312920Y-17210484D01*
X10312920Y-17210484D02*
X10331967Y-17220008D01*
X10331967Y-17220008D02*
X10341491Y-17229531D01*
X10341491Y-17229531D02*
X10351015Y-17248579D01*
X10351015Y-17248579D02*
X10360539Y-17286674D01*
X10360539Y-17286674D02*
X10360539Y-17334293D01*
X10360539Y-17334293D02*
X10351015Y-17372389D01*
X10351015Y-17372389D02*
X10341491Y-17391436D01*
X10341491Y-17391436D02*
X10331967Y-17400960D01*
X10331967Y-17400960D02*
X10312920Y-17410484D01*
X10312920Y-17410484D02*
X10293872Y-17410484D01*
X10293872Y-17410484D02*
X10274824Y-17400960D01*
X10274824Y-17400960D02*
X10265301Y-17391436D01*
X10265301Y-17391436D02*
X10255777Y-17372389D01*
X10255777Y-17372389D02*
X10246253Y-17334293D01*
X10246253Y-17334293D02*
X10246253Y-17286674D01*
X10246253Y-17286674D02*
X10255777Y-17248579D01*
X10255777Y-17248579D02*
X10265301Y-17229531D01*
X10265301Y-17229531D02*
X10274824Y-17220008D01*
X10274824Y-17220008D02*
X10293872Y-17210484D01*
X10446253Y-17391436D02*
X10455777Y-17400960D01*
X10455777Y-17400960D02*
X10446253Y-17410484D01*
X10446253Y-17410484D02*
X10436729Y-17400960D01*
X10436729Y-17400960D02*
X10446253Y-17391436D01*
X10446253Y-17391436D02*
X10446253Y-17410484D01*
X10522444Y-17210484D02*
X10646253Y-17210484D01*
X10646253Y-17210484D02*
X10579586Y-17286674D01*
X10579586Y-17286674D02*
X10608158Y-17286674D01*
X10608158Y-17286674D02*
X10627205Y-17296198D01*
X10627205Y-17296198D02*
X10636729Y-17305722D01*
X10636729Y-17305722D02*
X10646253Y-17324770D01*
X10646253Y-17324770D02*
X10646253Y-17372389D01*
X10646253Y-17372389D02*
X10636729Y-17391436D01*
X10636729Y-17391436D02*
X10627205Y-17400960D01*
X10627205Y-17400960D02*
X10608158Y-17410484D01*
X10608158Y-17410484D02*
X10551015Y-17410484D01*
X10551015Y-17410484D02*
X10531967Y-17400960D01*
X10531967Y-17400960D02*
X10522444Y-17391436D01*
X10770063Y-17210484D02*
X10789110Y-17210484D01*
X10789110Y-17210484D02*
X10808158Y-17220008D01*
X10808158Y-17220008D02*
X10817682Y-17229531D01*
X10817682Y-17229531D02*
X10827205Y-17248579D01*
X10827205Y-17248579D02*
X10836729Y-17286674D01*
X10836729Y-17286674D02*
X10836729Y-17334293D01*
X10836729Y-17334293D02*
X10827205Y-17372389D01*
X10827205Y-17372389D02*
X10817682Y-17391436D01*
X10817682Y-17391436D02*
X10808158Y-17400960D01*
X10808158Y-17400960D02*
X10789110Y-17410484D01*
X10789110Y-17410484D02*
X10770063Y-17410484D01*
X10770063Y-17410484D02*
X10751015Y-17400960D01*
X10751015Y-17400960D02*
X10741491Y-17391436D01*
X10741491Y-17391436D02*
X10731967Y-17372389D01*
X10731967Y-17372389D02*
X10722444Y-17334293D01*
X10722444Y-17334293D02*
X10722444Y-17286674D01*
X10722444Y-17286674D02*
X10731967Y-17248579D01*
X10731967Y-17248579D02*
X10741491Y-17229531D01*
X10741491Y-17229531D02*
X10751015Y-17220008D01*
X10751015Y-17220008D02*
X10770063Y-17210484D01*
X10960539Y-17210484D02*
X10979586Y-17210484D01*
X10979586Y-17210484D02*
X10998634Y-17220008D01*
X10998634Y-17220008D02*
X11008158Y-17229531D01*
X11008158Y-17229531D02*
X11017682Y-17248579D01*
X11017682Y-17248579D02*
X11027205Y-17286674D01*
X11027205Y-17286674D02*
X11027205Y-17334293D01*
X11027205Y-17334293D02*
X11017682Y-17372389D01*
X11017682Y-17372389D02*
X11008158Y-17391436D01*
X11008158Y-17391436D02*
X10998634Y-17400960D01*
X10998634Y-17400960D02*
X10979586Y-17410484D01*
X10979586Y-17410484D02*
X10960539Y-17410484D01*
X10960539Y-17410484D02*
X10941491Y-17400960D01*
X10941491Y-17400960D02*
X10931967Y-17391436D01*
X10931967Y-17391436D02*
X10922444Y-17372389D01*
X10922444Y-17372389D02*
X10912920Y-17334293D01*
X10912920Y-17334293D02*
X10912920Y-17286674D01*
X10912920Y-17286674D02*
X10922444Y-17248579D01*
X10922444Y-17248579D02*
X10931967Y-17229531D01*
X10931967Y-17229531D02*
X10941491Y-17220008D01*
X10941491Y-17220008D02*
X10960539Y-17210484D01*
X11112920Y-17410484D02*
X11112920Y-17277150D01*
X11112920Y-17296198D02*
X11122444Y-17286674D01*
X11122444Y-17286674D02*
X11141491Y-17277150D01*
X11141491Y-17277150D02*
X11170063Y-17277150D01*
X11170063Y-17277150D02*
X11189110Y-17286674D01*
X11189110Y-17286674D02*
X11198634Y-17305722D01*
X11198634Y-17305722D02*
X11198634Y-17410484D01*
X11198634Y-17305722D02*
X11208158Y-17286674D01*
X11208158Y-17286674D02*
X11227205Y-17277150D01*
X11227205Y-17277150D02*
X11255777Y-17277150D01*
X11255777Y-17277150D02*
X11274824Y-17286674D01*
X11274824Y-17286674D02*
X11284348Y-17305722D01*
X11284348Y-17305722D02*
X11284348Y-17410484D01*
X11379586Y-17410484D02*
X11379586Y-17277150D01*
X11379586Y-17296198D02*
X11389110Y-17286674D01*
X11389110Y-17286674D02*
X11408158Y-17277150D01*
X11408158Y-17277150D02*
X11436729Y-17277150D01*
X11436729Y-17277150D02*
X11455777Y-17286674D01*
X11455777Y-17286674D02*
X11465301Y-17305722D01*
X11465301Y-17305722D02*
X11465301Y-17410484D01*
X11465301Y-17305722D02*
X11474824Y-17286674D01*
X11474824Y-17286674D02*
X11493872Y-17277150D01*
X11493872Y-17277150D02*
X11522443Y-17277150D01*
X11522443Y-17277150D02*
X11541491Y-17286674D01*
X11541491Y-17286674D02*
X11551015Y-17305722D01*
X11551015Y-17305722D02*
X11551015Y-17410484D01*
X11941491Y-17200960D02*
X11770063Y-17458103D01*
X12198634Y-17210484D02*
X12217682Y-17210484D01*
X12217682Y-17210484D02*
X12236729Y-17220008D01*
X12236729Y-17220008D02*
X12246253Y-17229531D01*
X12246253Y-17229531D02*
X12255777Y-17248579D01*
X12255777Y-17248579D02*
X12265301Y-17286674D01*
X12265301Y-17286674D02*
X12265301Y-17334293D01*
X12265301Y-17334293D02*
X12255777Y-17372389D01*
X12255777Y-17372389D02*
X12246253Y-17391436D01*
X12246253Y-17391436D02*
X12236729Y-17400960D01*
X12236729Y-17400960D02*
X12217682Y-17410484D01*
X12217682Y-17410484D02*
X12198634Y-17410484D01*
X12198634Y-17410484D02*
X12179586Y-17400960D01*
X12179586Y-17400960D02*
X12170063Y-17391436D01*
X12170063Y-17391436D02*
X12160539Y-17372389D01*
X12160539Y-17372389D02*
X12151015Y-17334293D01*
X12151015Y-17334293D02*
X12151015Y-17286674D01*
X12151015Y-17286674D02*
X12160539Y-17248579D01*
X12160539Y-17248579D02*
X12170063Y-17229531D01*
X12170063Y-17229531D02*
X12179586Y-17220008D01*
X12179586Y-17220008D02*
X12198634Y-17210484D01*
X12351015Y-17391436D02*
X12360539Y-17400960D01*
X12360539Y-17400960D02*
X12351015Y-17410484D01*
X12351015Y-17410484D02*
X12341491Y-17400960D01*
X12341491Y-17400960D02*
X12351015Y-17391436D01*
X12351015Y-17391436D02*
X12351015Y-17410484D01*
X12484348Y-17210484D02*
X12503396Y-17210484D01*
X12503396Y-17210484D02*
X12522444Y-17220008D01*
X12522444Y-17220008D02*
X12531967Y-17229531D01*
X12531967Y-17229531D02*
X12541491Y-17248579D01*
X12541491Y-17248579D02*
X12551015Y-17286674D01*
X12551015Y-17286674D02*
X12551015Y-17334293D01*
X12551015Y-17334293D02*
X12541491Y-17372389D01*
X12541491Y-17372389D02*
X12531967Y-17391436D01*
X12531967Y-17391436D02*
X12522444Y-17400960D01*
X12522444Y-17400960D02*
X12503396Y-17410484D01*
X12503396Y-17410484D02*
X12484348Y-17410484D01*
X12484348Y-17410484D02*
X12465301Y-17400960D01*
X12465301Y-17400960D02*
X12455777Y-17391436D01*
X12455777Y-17391436D02*
X12446253Y-17372389D01*
X12446253Y-17372389D02*
X12436729Y-17334293D01*
X12436729Y-17334293D02*
X12436729Y-17286674D01*
X12436729Y-17286674D02*
X12446253Y-17248579D01*
X12446253Y-17248579D02*
X12455777Y-17229531D01*
X12455777Y-17229531D02*
X12465301Y-17220008D01*
X12465301Y-17220008D02*
X12484348Y-17210484D01*
X12741491Y-17410484D02*
X12627206Y-17410484D01*
X12684348Y-17410484D02*
X12684348Y-17210484D01*
X12684348Y-17210484D02*
X12665301Y-17239055D01*
X12665301Y-17239055D02*
X12646253Y-17258103D01*
X12646253Y-17258103D02*
X12627206Y-17267627D01*
X12931967Y-17410484D02*
X12817682Y-17410484D01*
X12874825Y-17410484D02*
X12874825Y-17210484D01*
X12874825Y-17210484D02*
X12855777Y-17239055D01*
X12855777Y-17239055D02*
X12836729Y-17258103D01*
X12836729Y-17258103D02*
X12817682Y-17267627D01*
X13046253Y-17296198D02*
X13027206Y-17286674D01*
X13027206Y-17286674D02*
X13017682Y-17277150D01*
X13017682Y-17277150D02*
X13008158Y-17258103D01*
X13008158Y-17258103D02*
X13008158Y-17248579D01*
X13008158Y-17248579D02*
X13017682Y-17229531D01*
X13017682Y-17229531D02*
X13027206Y-17220008D01*
X13027206Y-17220008D02*
X13046253Y-17210484D01*
X13046253Y-17210484D02*
X13084348Y-17210484D01*
X13084348Y-17210484D02*
X13103396Y-17220008D01*
X13103396Y-17220008D02*
X13112920Y-17229531D01*
X13112920Y-17229531D02*
X13122444Y-17248579D01*
X13122444Y-17248579D02*
X13122444Y-17258103D01*
X13122444Y-17258103D02*
X13112920Y-17277150D01*
X13112920Y-17277150D02*
X13103396Y-17286674D01*
X13103396Y-17286674D02*
X13084348Y-17296198D01*
X13084348Y-17296198D02*
X13046253Y-17296198D01*
X13046253Y-17296198D02*
X13027206Y-17305722D01*
X13027206Y-17305722D02*
X13017682Y-17315246D01*
X13017682Y-17315246D02*
X13008158Y-17334293D01*
X13008158Y-17334293D02*
X13008158Y-17372389D01*
X13008158Y-17372389D02*
X13017682Y-17391436D01*
X13017682Y-17391436D02*
X13027206Y-17400960D01*
X13027206Y-17400960D02*
X13046253Y-17410484D01*
X13046253Y-17410484D02*
X13084348Y-17410484D01*
X13084348Y-17410484D02*
X13103396Y-17400960D01*
X13103396Y-17400960D02*
X13112920Y-17391436D01*
X13112920Y-17391436D02*
X13122444Y-17372389D01*
X13122444Y-17372389D02*
X13122444Y-17334293D01*
X13122444Y-17334293D02*
X13112920Y-17315246D01*
X13112920Y-17315246D02*
X13103396Y-17305722D01*
X13103396Y-17305722D02*
X13084348Y-17296198D01*
X13198634Y-17210484D02*
X13198634Y-17248579D01*
X13274825Y-17210484D02*
X13274825Y-17248579D01*
X13570063Y-17486674D02*
X13560539Y-17477150D01*
X13560539Y-17477150D02*
X13541491Y-17448579D01*
X13541491Y-17448579D02*
X13531968Y-17429531D01*
X13531968Y-17429531D02*
X13522444Y-17400960D01*
X13522444Y-17400960D02*
X13512920Y-17353341D01*
X13512920Y-17353341D02*
X13512920Y-17315246D01*
X13512920Y-17315246D02*
X13522444Y-17267627D01*
X13522444Y-17267627D02*
X13531968Y-17239055D01*
X13531968Y-17239055D02*
X13541491Y-17220008D01*
X13541491Y-17220008D02*
X13560539Y-17191436D01*
X13560539Y-17191436D02*
X13570063Y-17181912D01*
X13751015Y-17410484D02*
X13636729Y-17410484D01*
X13693872Y-17410484D02*
X13693872Y-17210484D01*
X13693872Y-17210484D02*
X13674825Y-17239055D01*
X13674825Y-17239055D02*
X13655777Y-17258103D01*
X13655777Y-17258103D02*
X13636729Y-17267627D01*
X13922444Y-17277150D02*
X13922444Y-17410484D01*
X13874825Y-17200960D02*
X13827206Y-17343817D01*
X13827206Y-17343817D02*
X13951015Y-17343817D01*
X14179587Y-17410484D02*
X14179587Y-17210484D01*
X14265301Y-17410484D02*
X14265301Y-17305722D01*
X14265301Y-17305722D02*
X14255777Y-17286674D01*
X14255777Y-17286674D02*
X14236730Y-17277150D01*
X14236730Y-17277150D02*
X14208158Y-17277150D01*
X14208158Y-17277150D02*
X14189110Y-17286674D01*
X14189110Y-17286674D02*
X14179587Y-17296198D01*
X14389110Y-17410484D02*
X14370063Y-17400960D01*
X14370063Y-17400960D02*
X14360539Y-17391436D01*
X14360539Y-17391436D02*
X14351015Y-17372389D01*
X14351015Y-17372389D02*
X14351015Y-17315246D01*
X14351015Y-17315246D02*
X14360539Y-17296198D01*
X14360539Y-17296198D02*
X14370063Y-17286674D01*
X14370063Y-17286674D02*
X14389110Y-17277150D01*
X14389110Y-17277150D02*
X14417682Y-17277150D01*
X14417682Y-17277150D02*
X14436730Y-17286674D01*
X14436730Y-17286674D02*
X14446253Y-17296198D01*
X14446253Y-17296198D02*
X14455777Y-17315246D01*
X14455777Y-17315246D02*
X14455777Y-17372389D01*
X14455777Y-17372389D02*
X14446253Y-17391436D01*
X14446253Y-17391436D02*
X14436730Y-17400960D01*
X14436730Y-17400960D02*
X14417682Y-17410484D01*
X14417682Y-17410484D02*
X14389110Y-17410484D01*
X14570063Y-17410484D02*
X14551015Y-17400960D01*
X14551015Y-17400960D02*
X14541491Y-17381912D01*
X14541491Y-17381912D02*
X14541491Y-17210484D01*
X14722444Y-17400960D02*
X14703396Y-17410484D01*
X14703396Y-17410484D02*
X14665301Y-17410484D01*
X14665301Y-17410484D02*
X14646253Y-17400960D01*
X14646253Y-17400960D02*
X14636730Y-17381912D01*
X14636730Y-17381912D02*
X14636730Y-17305722D01*
X14636730Y-17305722D02*
X14646253Y-17286674D01*
X14646253Y-17286674D02*
X14665301Y-17277150D01*
X14665301Y-17277150D02*
X14703396Y-17277150D01*
X14703396Y-17277150D02*
X14722444Y-17286674D01*
X14722444Y-17286674D02*
X14731968Y-17305722D01*
X14731968Y-17305722D02*
X14731968Y-17324770D01*
X14731968Y-17324770D02*
X14636730Y-17343817D01*
X14808158Y-17400960D02*
X14827206Y-17410484D01*
X14827206Y-17410484D02*
X14865301Y-17410484D01*
X14865301Y-17410484D02*
X14884349Y-17400960D01*
X14884349Y-17400960D02*
X14893872Y-17381912D01*
X14893872Y-17381912D02*
X14893872Y-17372389D01*
X14893872Y-17372389D02*
X14884349Y-17353341D01*
X14884349Y-17353341D02*
X14865301Y-17343817D01*
X14865301Y-17343817D02*
X14836730Y-17343817D01*
X14836730Y-17343817D02*
X14817682Y-17334293D01*
X14817682Y-17334293D02*
X14808158Y-17315246D01*
X14808158Y-17315246D02*
X14808158Y-17305722D01*
X14808158Y-17305722D02*
X14817682Y-17286674D01*
X14817682Y-17286674D02*
X14836730Y-17277150D01*
X14836730Y-17277150D02*
X14865301Y-17277150D01*
X14865301Y-17277150D02*
X14884349Y-17286674D01*
X14960539Y-17486674D02*
X14970063Y-17477150D01*
X14970063Y-17477150D02*
X14989111Y-17448579D01*
X14989111Y-17448579D02*
X14998634Y-17429531D01*
X14998634Y-17429531D02*
X15008158Y-17400960D01*
X15008158Y-17400960D02*
X15017682Y-17353341D01*
X15017682Y-17353341D02*
X15017682Y-17315246D01*
X15017682Y-17315246D02*
X15008158Y-17267627D01*
X15008158Y-17267627D02*
X14998634Y-17239055D01*
X14998634Y-17239055D02*
X14989111Y-17220008D01*
X14989111Y-17220008D02*
X14970063Y-17191436D01*
X14970063Y-17191436D02*
X14960539Y-17181912D01*
D10*
X9975000Y-17563000D02*
X9975000Y-17603000D01*
X9955000Y-17583000D02*
X9995000Y-17583000D01*
D11*
X10293872Y-17474484D02*
X10312920Y-17474484D01*
X10312920Y-17474484D02*
X10331967Y-17484008D01*
X10331967Y-17484008D02*
X10341491Y-17493531D01*
X10341491Y-17493531D02*
X10351015Y-17512579D01*
X10351015Y-17512579D02*
X10360539Y-17550674D01*
X10360539Y-17550674D02*
X10360539Y-17598293D01*
X10360539Y-17598293D02*
X10351015Y-17636389D01*
X10351015Y-17636389D02*
X10341491Y-17655436D01*
X10341491Y-17655436D02*
X10331967Y-17664960D01*
X10331967Y-17664960D02*
X10312920Y-17674484D01*
X10312920Y-17674484D02*
X10293872Y-17674484D01*
X10293872Y-17674484D02*
X10274824Y-17664960D01*
X10274824Y-17664960D02*
X10265301Y-17655436D01*
X10265301Y-17655436D02*
X10255777Y-17636389D01*
X10255777Y-17636389D02*
X10246253Y-17598293D01*
X10246253Y-17598293D02*
X10246253Y-17550674D01*
X10246253Y-17550674D02*
X10255777Y-17512579D01*
X10255777Y-17512579D02*
X10265301Y-17493531D01*
X10265301Y-17493531D02*
X10274824Y-17484008D01*
X10274824Y-17484008D02*
X10293872Y-17474484D01*
X10446253Y-17655436D02*
X10455777Y-17664960D01*
X10455777Y-17664960D02*
X10446253Y-17674484D01*
X10446253Y-17674484D02*
X10436729Y-17664960D01*
X10436729Y-17664960D02*
X10446253Y-17655436D01*
X10446253Y-17655436D02*
X10446253Y-17674484D01*
X10627205Y-17541150D02*
X10627205Y-17674484D01*
X10579586Y-17464960D02*
X10531967Y-17607817D01*
X10531967Y-17607817D02*
X10655777Y-17607817D01*
X10770063Y-17474484D02*
X10789110Y-17474484D01*
X10789110Y-17474484D02*
X10808158Y-17484008D01*
X10808158Y-17484008D02*
X10817682Y-17493531D01*
X10817682Y-17493531D02*
X10827205Y-17512579D01*
X10827205Y-17512579D02*
X10836729Y-17550674D01*
X10836729Y-17550674D02*
X10836729Y-17598293D01*
X10836729Y-17598293D02*
X10827205Y-17636389D01*
X10827205Y-17636389D02*
X10817682Y-17655436D01*
X10817682Y-17655436D02*
X10808158Y-17664960D01*
X10808158Y-17664960D02*
X10789110Y-17674484D01*
X10789110Y-17674484D02*
X10770063Y-17674484D01*
X10770063Y-17674484D02*
X10751015Y-17664960D01*
X10751015Y-17664960D02*
X10741491Y-17655436D01*
X10741491Y-17655436D02*
X10731967Y-17636389D01*
X10731967Y-17636389D02*
X10722444Y-17598293D01*
X10722444Y-17598293D02*
X10722444Y-17550674D01*
X10722444Y-17550674D02*
X10731967Y-17512579D01*
X10731967Y-17512579D02*
X10741491Y-17493531D01*
X10741491Y-17493531D02*
X10751015Y-17484008D01*
X10751015Y-17484008D02*
X10770063Y-17474484D01*
X10960539Y-17474484D02*
X10979586Y-17474484D01*
X10979586Y-17474484D02*
X10998634Y-17484008D01*
X10998634Y-17484008D02*
X11008158Y-17493531D01*
X11008158Y-17493531D02*
X11017682Y-17512579D01*
X11017682Y-17512579D02*
X11027205Y-17550674D01*
X11027205Y-17550674D02*
X11027205Y-17598293D01*
X11027205Y-17598293D02*
X11017682Y-17636389D01*
X11017682Y-17636389D02*
X11008158Y-17655436D01*
X11008158Y-17655436D02*
X10998634Y-17664960D01*
X10998634Y-17664960D02*
X10979586Y-17674484D01*
X10979586Y-17674484D02*
X10960539Y-17674484D01*
X10960539Y-17674484D02*
X10941491Y-17664960D01*
X10941491Y-17664960D02*
X10931967Y-17655436D01*
X10931967Y-17655436D02*
X10922444Y-17636389D01*
X10922444Y-17636389D02*
X10912920Y-17598293D01*
X10912920Y-17598293D02*
X10912920Y-17550674D01*
X10912920Y-17550674D02*
X10922444Y-17512579D01*
X10922444Y-17512579D02*
X10931967Y-17493531D01*
X10931967Y-17493531D02*
X10941491Y-17484008D01*
X10941491Y-17484008D02*
X10960539Y-17474484D01*
X11112920Y-17674484D02*
X11112920Y-17541150D01*
X11112920Y-17560198D02*
X11122444Y-17550674D01*
X11122444Y-17550674D02*
X11141491Y-17541150D01*
X11141491Y-17541150D02*
X11170063Y-17541150D01*
X11170063Y-17541150D02*
X11189110Y-17550674D01*
X11189110Y-17550674D02*
X11198634Y-17569722D01*
X11198634Y-17569722D02*
X11198634Y-17674484D01*
X11198634Y-17569722D02*
X11208158Y-17550674D01*
X11208158Y-17550674D02*
X11227205Y-17541150D01*
X11227205Y-17541150D02*
X11255777Y-17541150D01*
X11255777Y-17541150D02*
X11274824Y-17550674D01*
X11274824Y-17550674D02*
X11284348Y-17569722D01*
X11284348Y-17569722D02*
X11284348Y-17674484D01*
X11379586Y-17674484D02*
X11379586Y-17541150D01*
X11379586Y-17560198D02*
X11389110Y-17550674D01*
X11389110Y-17550674D02*
X11408158Y-17541150D01*
X11408158Y-17541150D02*
X11436729Y-17541150D01*
X11436729Y-17541150D02*
X11455777Y-17550674D01*
X11455777Y-17550674D02*
X11465301Y-17569722D01*
X11465301Y-17569722D02*
X11465301Y-17674484D01*
X11465301Y-17569722D02*
X11474824Y-17550674D01*
X11474824Y-17550674D02*
X11493872Y-17541150D01*
X11493872Y-17541150D02*
X11522443Y-17541150D01*
X11522443Y-17541150D02*
X11541491Y-17550674D01*
X11541491Y-17550674D02*
X11551015Y-17569722D01*
X11551015Y-17569722D02*
X11551015Y-17674484D01*
X11941491Y-17464960D02*
X11770063Y-17722103D01*
X12198634Y-17474484D02*
X12217682Y-17474484D01*
X12217682Y-17474484D02*
X12236729Y-17484008D01*
X12236729Y-17484008D02*
X12246253Y-17493531D01*
X12246253Y-17493531D02*
X12255777Y-17512579D01*
X12255777Y-17512579D02*
X12265301Y-17550674D01*
X12265301Y-17550674D02*
X12265301Y-17598293D01*
X12265301Y-17598293D02*
X12255777Y-17636389D01*
X12255777Y-17636389D02*
X12246253Y-17655436D01*
X12246253Y-17655436D02*
X12236729Y-17664960D01*
X12236729Y-17664960D02*
X12217682Y-17674484D01*
X12217682Y-17674484D02*
X12198634Y-17674484D01*
X12198634Y-17674484D02*
X12179586Y-17664960D01*
X12179586Y-17664960D02*
X12170063Y-17655436D01*
X12170063Y-17655436D02*
X12160539Y-17636389D01*
X12160539Y-17636389D02*
X12151015Y-17598293D01*
X12151015Y-17598293D02*
X12151015Y-17550674D01*
X12151015Y-17550674D02*
X12160539Y-17512579D01*
X12160539Y-17512579D02*
X12170063Y-17493531D01*
X12170063Y-17493531D02*
X12179586Y-17484008D01*
X12179586Y-17484008D02*
X12198634Y-17474484D01*
X12351015Y-17655436D02*
X12360539Y-17664960D01*
X12360539Y-17664960D02*
X12351015Y-17674484D01*
X12351015Y-17674484D02*
X12341491Y-17664960D01*
X12341491Y-17664960D02*
X12351015Y-17655436D01*
X12351015Y-17655436D02*
X12351015Y-17674484D01*
X12484348Y-17474484D02*
X12503396Y-17474484D01*
X12503396Y-17474484D02*
X12522444Y-17484008D01*
X12522444Y-17484008D02*
X12531967Y-17493531D01*
X12531967Y-17493531D02*
X12541491Y-17512579D01*
X12541491Y-17512579D02*
X12551015Y-17550674D01*
X12551015Y-17550674D02*
X12551015Y-17598293D01*
X12551015Y-17598293D02*
X12541491Y-17636389D01*
X12541491Y-17636389D02*
X12531967Y-17655436D01*
X12531967Y-17655436D02*
X12522444Y-17664960D01*
X12522444Y-17664960D02*
X12503396Y-17674484D01*
X12503396Y-17674484D02*
X12484348Y-17674484D01*
X12484348Y-17674484D02*
X12465301Y-17664960D01*
X12465301Y-17664960D02*
X12455777Y-17655436D01*
X12455777Y-17655436D02*
X12446253Y-17636389D01*
X12446253Y-17636389D02*
X12436729Y-17598293D01*
X12436729Y-17598293D02*
X12436729Y-17550674D01*
X12436729Y-17550674D02*
X12446253Y-17512579D01*
X12446253Y-17512579D02*
X12455777Y-17493531D01*
X12455777Y-17493531D02*
X12465301Y-17484008D01*
X12465301Y-17484008D02*
X12484348Y-17474484D01*
X12741491Y-17674484D02*
X12627206Y-17674484D01*
X12684348Y-17674484D02*
X12684348Y-17474484D01*
X12684348Y-17474484D02*
X12665301Y-17503055D01*
X12665301Y-17503055D02*
X12646253Y-17522103D01*
X12646253Y-17522103D02*
X12627206Y-17531627D01*
X12922444Y-17474484D02*
X12827206Y-17474484D01*
X12827206Y-17474484D02*
X12817682Y-17569722D01*
X12817682Y-17569722D02*
X12827206Y-17560198D01*
X12827206Y-17560198D02*
X12846253Y-17550674D01*
X12846253Y-17550674D02*
X12893872Y-17550674D01*
X12893872Y-17550674D02*
X12912920Y-17560198D01*
X12912920Y-17560198D02*
X12922444Y-17569722D01*
X12922444Y-17569722D02*
X12931967Y-17588770D01*
X12931967Y-17588770D02*
X12931967Y-17636389D01*
X12931967Y-17636389D02*
X12922444Y-17655436D01*
X12922444Y-17655436D02*
X12912920Y-17664960D01*
X12912920Y-17664960D02*
X12893872Y-17674484D01*
X12893872Y-17674484D02*
X12846253Y-17674484D01*
X12846253Y-17674484D02*
X12827206Y-17664960D01*
X12827206Y-17664960D02*
X12817682Y-17655436D01*
X12998634Y-17474484D02*
X13131967Y-17474484D01*
X13131967Y-17474484D02*
X13046253Y-17674484D01*
X13198634Y-17474484D02*
X13198634Y-17512579D01*
X13274825Y-17474484D02*
X13274825Y-17512579D01*
X13570063Y-17750674D02*
X13560539Y-17741150D01*
X13560539Y-17741150D02*
X13541491Y-17712579D01*
X13541491Y-17712579D02*
X13531968Y-17693531D01*
X13531968Y-17693531D02*
X13522444Y-17664960D01*
X13522444Y-17664960D02*
X13512920Y-17617341D01*
X13512920Y-17617341D02*
X13512920Y-17579246D01*
X13512920Y-17579246D02*
X13522444Y-17531627D01*
X13522444Y-17531627D02*
X13531968Y-17503055D01*
X13531968Y-17503055D02*
X13541491Y-17484008D01*
X13541491Y-17484008D02*
X13560539Y-17455436D01*
X13560539Y-17455436D02*
X13570063Y-17445912D01*
X13636729Y-17493531D02*
X13646253Y-17484008D01*
X13646253Y-17484008D02*
X13665301Y-17474484D01*
X13665301Y-17474484D02*
X13712920Y-17474484D01*
X13712920Y-17474484D02*
X13731968Y-17484008D01*
X13731968Y-17484008D02*
X13741491Y-17493531D01*
X13741491Y-17493531D02*
X13751015Y-17512579D01*
X13751015Y-17512579D02*
X13751015Y-17531627D01*
X13751015Y-17531627D02*
X13741491Y-17560198D01*
X13741491Y-17560198D02*
X13627206Y-17674484D01*
X13627206Y-17674484D02*
X13751015Y-17674484D01*
X13931968Y-17474484D02*
X13836729Y-17474484D01*
X13836729Y-17474484D02*
X13827206Y-17569722D01*
X13827206Y-17569722D02*
X13836729Y-17560198D01*
X13836729Y-17560198D02*
X13855777Y-17550674D01*
X13855777Y-17550674D02*
X13903396Y-17550674D01*
X13903396Y-17550674D02*
X13922444Y-17560198D01*
X13922444Y-17560198D02*
X13931968Y-17569722D01*
X13931968Y-17569722D02*
X13941491Y-17588770D01*
X13941491Y-17588770D02*
X13941491Y-17636389D01*
X13941491Y-17636389D02*
X13931968Y-17655436D01*
X13931968Y-17655436D02*
X13922444Y-17664960D01*
X13922444Y-17664960D02*
X13903396Y-17674484D01*
X13903396Y-17674484D02*
X13855777Y-17674484D01*
X13855777Y-17674484D02*
X13836729Y-17664960D01*
X13836729Y-17664960D02*
X13827206Y-17655436D01*
X14112920Y-17474484D02*
X14074825Y-17474484D01*
X14074825Y-17474484D02*
X14055777Y-17484008D01*
X14055777Y-17484008D02*
X14046253Y-17493531D01*
X14046253Y-17493531D02*
X14027206Y-17522103D01*
X14027206Y-17522103D02*
X14017682Y-17560198D01*
X14017682Y-17560198D02*
X14017682Y-17636389D01*
X14017682Y-17636389D02*
X14027206Y-17655436D01*
X14027206Y-17655436D02*
X14036729Y-17664960D01*
X14036729Y-17664960D02*
X14055777Y-17674484D01*
X14055777Y-17674484D02*
X14093872Y-17674484D01*
X14093872Y-17674484D02*
X14112920Y-17664960D01*
X14112920Y-17664960D02*
X14122444Y-17655436D01*
X14122444Y-17655436D02*
X14131968Y-17636389D01*
X14131968Y-17636389D02*
X14131968Y-17588770D01*
X14131968Y-17588770D02*
X14122444Y-17569722D01*
X14122444Y-17569722D02*
X14112920Y-17560198D01*
X14112920Y-17560198D02*
X14093872Y-17550674D01*
X14093872Y-17550674D02*
X14055777Y-17550674D01*
X14055777Y-17550674D02*
X14036729Y-17560198D01*
X14036729Y-17560198D02*
X14027206Y-17569722D01*
X14027206Y-17569722D02*
X14017682Y-17588770D01*
X14370063Y-17674484D02*
X14370063Y-17474484D01*
X14455777Y-17674484D02*
X14455777Y-17569722D01*
X14455777Y-17569722D02*
X14446253Y-17550674D01*
X14446253Y-17550674D02*
X14427206Y-17541150D01*
X14427206Y-17541150D02*
X14398634Y-17541150D01*
X14398634Y-17541150D02*
X14379587Y-17550674D01*
X14379587Y-17550674D02*
X14370063Y-17560198D01*
X14579587Y-17674484D02*
X14560539Y-17664960D01*
X14560539Y-17664960D02*
X14551015Y-17655436D01*
X14551015Y-17655436D02*
X14541491Y-17636389D01*
X14541491Y-17636389D02*
X14541491Y-17579246D01*
X14541491Y-17579246D02*
X14551015Y-17560198D01*
X14551015Y-17560198D02*
X14560539Y-17550674D01*
X14560539Y-17550674D02*
X14579587Y-17541150D01*
X14579587Y-17541150D02*
X14608158Y-17541150D01*
X14608158Y-17541150D02*
X14627206Y-17550674D01*
X14627206Y-17550674D02*
X14636730Y-17560198D01*
X14636730Y-17560198D02*
X14646253Y-17579246D01*
X14646253Y-17579246D02*
X14646253Y-17636389D01*
X14646253Y-17636389D02*
X14636730Y-17655436D01*
X14636730Y-17655436D02*
X14627206Y-17664960D01*
X14627206Y-17664960D02*
X14608158Y-17674484D01*
X14608158Y-17674484D02*
X14579587Y-17674484D01*
X14760539Y-17674484D02*
X14741491Y-17664960D01*
X14741491Y-17664960D02*
X14731968Y-17645912D01*
X14731968Y-17645912D02*
X14731968Y-17474484D01*
X14912920Y-17664960D02*
X14893872Y-17674484D01*
X14893872Y-17674484D02*
X14855777Y-17674484D01*
X14855777Y-17674484D02*
X14836730Y-17664960D01*
X14836730Y-17664960D02*
X14827206Y-17645912D01*
X14827206Y-17645912D02*
X14827206Y-17569722D01*
X14827206Y-17569722D02*
X14836730Y-17550674D01*
X14836730Y-17550674D02*
X14855777Y-17541150D01*
X14855777Y-17541150D02*
X14893872Y-17541150D01*
X14893872Y-17541150D02*
X14912920Y-17550674D01*
X14912920Y-17550674D02*
X14922444Y-17569722D01*
X14922444Y-17569722D02*
X14922444Y-17588770D01*
X14922444Y-17588770D02*
X14827206Y-17607817D01*
X14998634Y-17664960D02*
X15017682Y-17674484D01*
X15017682Y-17674484D02*
X15055777Y-17674484D01*
X15055777Y-17674484D02*
X15074825Y-17664960D01*
X15074825Y-17664960D02*
X15084349Y-17645912D01*
X15084349Y-17645912D02*
X15084349Y-17636389D01*
X15084349Y-17636389D02*
X15074825Y-17617341D01*
X15074825Y-17617341D02*
X15055777Y-17607817D01*
X15055777Y-17607817D02*
X15027206Y-17607817D01*
X15027206Y-17607817D02*
X15008158Y-17598293D01*
X15008158Y-17598293D02*
X14998634Y-17579246D01*
X14998634Y-17579246D02*
X14998634Y-17569722D01*
X14998634Y-17569722D02*
X15008158Y-17550674D01*
X15008158Y-17550674D02*
X15027206Y-17541150D01*
X15027206Y-17541150D02*
X15055777Y-17541150D01*
X15055777Y-17541150D02*
X15074825Y-17550674D01*
X15151015Y-17750674D02*
X15160539Y-17741150D01*
X15160539Y-17741150D02*
X15179587Y-17712579D01*
X15179587Y-17712579D02*
X15189111Y-17693531D01*
X15189111Y-17693531D02*
X15198634Y-17664960D01*
X15198634Y-17664960D02*
X15208158Y-17617341D01*
X15208158Y-17617341D02*
X15208158Y-17579246D01*
X15208158Y-17579246D02*
X15198634Y-17531627D01*
X15198634Y-17531627D02*
X15189111Y-17503055D01*
X15189111Y-17503055D02*
X15179587Y-17484008D01*
X15179587Y-17484008D02*
X15160539Y-17455436D01*
X15160539Y-17455436D02*
X15151015Y-17445912D01*
D10*
X9986213Y-17868213D02*
X9986213Y-17825787D01*
X9943787Y-17825787D01*
X9943787Y-17868213D01*
X9986213Y-17868213D01*
D11*
X10293872Y-17738484D02*
X10312920Y-17738484D01*
X10312920Y-17738484D02*
X10331967Y-17748008D01*
X10331967Y-17748008D02*
X10341491Y-17757531D01*
X10341491Y-17757531D02*
X10351015Y-17776579D01*
X10351015Y-17776579D02*
X10360539Y-17814674D01*
X10360539Y-17814674D02*
X10360539Y-17862293D01*
X10360539Y-17862293D02*
X10351015Y-17900389D01*
X10351015Y-17900389D02*
X10341491Y-17919436D01*
X10341491Y-17919436D02*
X10331967Y-17928960D01*
X10331967Y-17928960D02*
X10312920Y-17938484D01*
X10312920Y-17938484D02*
X10293872Y-17938484D01*
X10293872Y-17938484D02*
X10274824Y-17928960D01*
X10274824Y-17928960D02*
X10265301Y-17919436D01*
X10265301Y-17919436D02*
X10255777Y-17900389D01*
X10255777Y-17900389D02*
X10246253Y-17862293D01*
X10246253Y-17862293D02*
X10246253Y-17814674D01*
X10246253Y-17814674D02*
X10255777Y-17776579D01*
X10255777Y-17776579D02*
X10265301Y-17757531D01*
X10265301Y-17757531D02*
X10274824Y-17748008D01*
X10274824Y-17748008D02*
X10293872Y-17738484D01*
X10446253Y-17919436D02*
X10455777Y-17928960D01*
X10455777Y-17928960D02*
X10446253Y-17938484D01*
X10446253Y-17938484D02*
X10436729Y-17928960D01*
X10436729Y-17928960D02*
X10446253Y-17919436D01*
X10446253Y-17919436D02*
X10446253Y-17938484D01*
X10627205Y-17738484D02*
X10589110Y-17738484D01*
X10589110Y-17738484D02*
X10570063Y-17748008D01*
X10570063Y-17748008D02*
X10560539Y-17757531D01*
X10560539Y-17757531D02*
X10541491Y-17786103D01*
X10541491Y-17786103D02*
X10531967Y-17824198D01*
X10531967Y-17824198D02*
X10531967Y-17900389D01*
X10531967Y-17900389D02*
X10541491Y-17919436D01*
X10541491Y-17919436D02*
X10551015Y-17928960D01*
X10551015Y-17928960D02*
X10570063Y-17938484D01*
X10570063Y-17938484D02*
X10608158Y-17938484D01*
X10608158Y-17938484D02*
X10627205Y-17928960D01*
X10627205Y-17928960D02*
X10636729Y-17919436D01*
X10636729Y-17919436D02*
X10646253Y-17900389D01*
X10646253Y-17900389D02*
X10646253Y-17852770D01*
X10646253Y-17852770D02*
X10636729Y-17833722D01*
X10636729Y-17833722D02*
X10627205Y-17824198D01*
X10627205Y-17824198D02*
X10608158Y-17814674D01*
X10608158Y-17814674D02*
X10570063Y-17814674D01*
X10570063Y-17814674D02*
X10551015Y-17824198D01*
X10551015Y-17824198D02*
X10541491Y-17833722D01*
X10541491Y-17833722D02*
X10531967Y-17852770D01*
X10770063Y-17738484D02*
X10789110Y-17738484D01*
X10789110Y-17738484D02*
X10808158Y-17748008D01*
X10808158Y-17748008D02*
X10817682Y-17757531D01*
X10817682Y-17757531D02*
X10827205Y-17776579D01*
X10827205Y-17776579D02*
X10836729Y-17814674D01*
X10836729Y-17814674D02*
X10836729Y-17862293D01*
X10836729Y-17862293D02*
X10827205Y-17900389D01*
X10827205Y-17900389D02*
X10817682Y-17919436D01*
X10817682Y-17919436D02*
X10808158Y-17928960D01*
X10808158Y-17928960D02*
X10789110Y-17938484D01*
X10789110Y-17938484D02*
X10770063Y-17938484D01*
X10770063Y-17938484D02*
X10751015Y-17928960D01*
X10751015Y-17928960D02*
X10741491Y-17919436D01*
X10741491Y-17919436D02*
X10731967Y-17900389D01*
X10731967Y-17900389D02*
X10722444Y-17862293D01*
X10722444Y-17862293D02*
X10722444Y-17814674D01*
X10722444Y-17814674D02*
X10731967Y-17776579D01*
X10731967Y-17776579D02*
X10741491Y-17757531D01*
X10741491Y-17757531D02*
X10751015Y-17748008D01*
X10751015Y-17748008D02*
X10770063Y-17738484D01*
X10960539Y-17738484D02*
X10979586Y-17738484D01*
X10979586Y-17738484D02*
X10998634Y-17748008D01*
X10998634Y-17748008D02*
X11008158Y-17757531D01*
X11008158Y-17757531D02*
X11017682Y-17776579D01*
X11017682Y-17776579D02*
X11027205Y-17814674D01*
X11027205Y-17814674D02*
X11027205Y-17862293D01*
X11027205Y-17862293D02*
X11017682Y-17900389D01*
X11017682Y-17900389D02*
X11008158Y-17919436D01*
X11008158Y-17919436D02*
X10998634Y-17928960D01*
X10998634Y-17928960D02*
X10979586Y-17938484D01*
X10979586Y-17938484D02*
X10960539Y-17938484D01*
X10960539Y-17938484D02*
X10941491Y-17928960D01*
X10941491Y-17928960D02*
X10931967Y-17919436D01*
X10931967Y-17919436D02*
X10922444Y-17900389D01*
X10922444Y-17900389D02*
X10912920Y-17862293D01*
X10912920Y-17862293D02*
X10912920Y-17814674D01*
X10912920Y-17814674D02*
X10922444Y-17776579D01*
X10922444Y-17776579D02*
X10931967Y-17757531D01*
X10931967Y-17757531D02*
X10941491Y-17748008D01*
X10941491Y-17748008D02*
X10960539Y-17738484D01*
X11112920Y-17938484D02*
X11112920Y-17805150D01*
X11112920Y-17824198D02*
X11122444Y-17814674D01*
X11122444Y-17814674D02*
X11141491Y-17805150D01*
X11141491Y-17805150D02*
X11170063Y-17805150D01*
X11170063Y-17805150D02*
X11189110Y-17814674D01*
X11189110Y-17814674D02*
X11198634Y-17833722D01*
X11198634Y-17833722D02*
X11198634Y-17938484D01*
X11198634Y-17833722D02*
X11208158Y-17814674D01*
X11208158Y-17814674D02*
X11227205Y-17805150D01*
X11227205Y-17805150D02*
X11255777Y-17805150D01*
X11255777Y-17805150D02*
X11274824Y-17814674D01*
X11274824Y-17814674D02*
X11284348Y-17833722D01*
X11284348Y-17833722D02*
X11284348Y-17938484D01*
X11379586Y-17938484D02*
X11379586Y-17805150D01*
X11379586Y-17824198D02*
X11389110Y-17814674D01*
X11389110Y-17814674D02*
X11408158Y-17805150D01*
X11408158Y-17805150D02*
X11436729Y-17805150D01*
X11436729Y-17805150D02*
X11455777Y-17814674D01*
X11455777Y-17814674D02*
X11465301Y-17833722D01*
X11465301Y-17833722D02*
X11465301Y-17938484D01*
X11465301Y-17833722D02*
X11474824Y-17814674D01*
X11474824Y-17814674D02*
X11493872Y-17805150D01*
X11493872Y-17805150D02*
X11522443Y-17805150D01*
X11522443Y-17805150D02*
X11541491Y-17814674D01*
X11541491Y-17814674D02*
X11551015Y-17833722D01*
X11551015Y-17833722D02*
X11551015Y-17938484D01*
X11941491Y-17728960D02*
X11770063Y-17986103D01*
X12198634Y-17738484D02*
X12217682Y-17738484D01*
X12217682Y-17738484D02*
X12236729Y-17748008D01*
X12236729Y-17748008D02*
X12246253Y-17757531D01*
X12246253Y-17757531D02*
X12255777Y-17776579D01*
X12255777Y-17776579D02*
X12265301Y-17814674D01*
X12265301Y-17814674D02*
X12265301Y-17862293D01*
X12265301Y-17862293D02*
X12255777Y-17900389D01*
X12255777Y-17900389D02*
X12246253Y-17919436D01*
X12246253Y-17919436D02*
X12236729Y-17928960D01*
X12236729Y-17928960D02*
X12217682Y-17938484D01*
X12217682Y-17938484D02*
X12198634Y-17938484D01*
X12198634Y-17938484D02*
X12179586Y-17928960D01*
X12179586Y-17928960D02*
X12170063Y-17919436D01*
X12170063Y-17919436D02*
X12160539Y-17900389D01*
X12160539Y-17900389D02*
X12151015Y-17862293D01*
X12151015Y-17862293D02*
X12151015Y-17814674D01*
X12151015Y-17814674D02*
X12160539Y-17776579D01*
X12160539Y-17776579D02*
X12170063Y-17757531D01*
X12170063Y-17757531D02*
X12179586Y-17748008D01*
X12179586Y-17748008D02*
X12198634Y-17738484D01*
X12351015Y-17919436D02*
X12360539Y-17928960D01*
X12360539Y-17928960D02*
X12351015Y-17938484D01*
X12351015Y-17938484D02*
X12341491Y-17928960D01*
X12341491Y-17928960D02*
X12351015Y-17919436D01*
X12351015Y-17919436D02*
X12351015Y-17938484D01*
X12484348Y-17738484D02*
X12503396Y-17738484D01*
X12503396Y-17738484D02*
X12522444Y-17748008D01*
X12522444Y-17748008D02*
X12531967Y-17757531D01*
X12531967Y-17757531D02*
X12541491Y-17776579D01*
X12541491Y-17776579D02*
X12551015Y-17814674D01*
X12551015Y-17814674D02*
X12551015Y-17862293D01*
X12551015Y-17862293D02*
X12541491Y-17900389D01*
X12541491Y-17900389D02*
X12531967Y-17919436D01*
X12531967Y-17919436D02*
X12522444Y-17928960D01*
X12522444Y-17928960D02*
X12503396Y-17938484D01*
X12503396Y-17938484D02*
X12484348Y-17938484D01*
X12484348Y-17938484D02*
X12465301Y-17928960D01*
X12465301Y-17928960D02*
X12455777Y-17919436D01*
X12455777Y-17919436D02*
X12446253Y-17900389D01*
X12446253Y-17900389D02*
X12436729Y-17862293D01*
X12436729Y-17862293D02*
X12436729Y-17814674D01*
X12436729Y-17814674D02*
X12446253Y-17776579D01*
X12446253Y-17776579D02*
X12455777Y-17757531D01*
X12455777Y-17757531D02*
X12465301Y-17748008D01*
X12465301Y-17748008D02*
X12484348Y-17738484D01*
X12627206Y-17757531D02*
X12636729Y-17748008D01*
X12636729Y-17748008D02*
X12655777Y-17738484D01*
X12655777Y-17738484D02*
X12703396Y-17738484D01*
X12703396Y-17738484D02*
X12722444Y-17748008D01*
X12722444Y-17748008D02*
X12731967Y-17757531D01*
X12731967Y-17757531D02*
X12741491Y-17776579D01*
X12741491Y-17776579D02*
X12741491Y-17795627D01*
X12741491Y-17795627D02*
X12731967Y-17824198D01*
X12731967Y-17824198D02*
X12617682Y-17938484D01*
X12617682Y-17938484D02*
X12741491Y-17938484D01*
X12808158Y-17738484D02*
X12931967Y-17738484D01*
X12931967Y-17738484D02*
X12865301Y-17814674D01*
X12865301Y-17814674D02*
X12893872Y-17814674D01*
X12893872Y-17814674D02*
X12912920Y-17824198D01*
X12912920Y-17824198D02*
X12922444Y-17833722D01*
X12922444Y-17833722D02*
X12931967Y-17852770D01*
X12931967Y-17852770D02*
X12931967Y-17900389D01*
X12931967Y-17900389D02*
X12922444Y-17919436D01*
X12922444Y-17919436D02*
X12912920Y-17928960D01*
X12912920Y-17928960D02*
X12893872Y-17938484D01*
X12893872Y-17938484D02*
X12836729Y-17938484D01*
X12836729Y-17938484D02*
X12817682Y-17928960D01*
X12817682Y-17928960D02*
X12808158Y-17919436D01*
X13103396Y-17738484D02*
X13065301Y-17738484D01*
X13065301Y-17738484D02*
X13046253Y-17748008D01*
X13046253Y-17748008D02*
X13036729Y-17757531D01*
X13036729Y-17757531D02*
X13017682Y-17786103D01*
X13017682Y-17786103D02*
X13008158Y-17824198D01*
X13008158Y-17824198D02*
X13008158Y-17900389D01*
X13008158Y-17900389D02*
X13017682Y-17919436D01*
X13017682Y-17919436D02*
X13027206Y-17928960D01*
X13027206Y-17928960D02*
X13046253Y-17938484D01*
X13046253Y-17938484D02*
X13084348Y-17938484D01*
X13084348Y-17938484D02*
X13103396Y-17928960D01*
X13103396Y-17928960D02*
X13112920Y-17919436D01*
X13112920Y-17919436D02*
X13122444Y-17900389D01*
X13122444Y-17900389D02*
X13122444Y-17852770D01*
X13122444Y-17852770D02*
X13112920Y-17833722D01*
X13112920Y-17833722D02*
X13103396Y-17824198D01*
X13103396Y-17824198D02*
X13084348Y-17814674D01*
X13084348Y-17814674D02*
X13046253Y-17814674D01*
X13046253Y-17814674D02*
X13027206Y-17824198D01*
X13027206Y-17824198D02*
X13017682Y-17833722D01*
X13017682Y-17833722D02*
X13008158Y-17852770D01*
X13198634Y-17738484D02*
X13198634Y-17776579D01*
X13274825Y-17738484D02*
X13274825Y-17776579D01*
X13570063Y-18014674D02*
X13560539Y-18005150D01*
X13560539Y-18005150D02*
X13541491Y-17976579D01*
X13541491Y-17976579D02*
X13531968Y-17957531D01*
X13531968Y-17957531D02*
X13522444Y-17928960D01*
X13522444Y-17928960D02*
X13512920Y-17881341D01*
X13512920Y-17881341D02*
X13512920Y-17843246D01*
X13512920Y-17843246D02*
X13522444Y-17795627D01*
X13522444Y-17795627D02*
X13531968Y-17767055D01*
X13531968Y-17767055D02*
X13541491Y-17748008D01*
X13541491Y-17748008D02*
X13560539Y-17719436D01*
X13560539Y-17719436D02*
X13570063Y-17709912D01*
X13636729Y-17757531D02*
X13646253Y-17748008D01*
X13646253Y-17748008D02*
X13665301Y-17738484D01*
X13665301Y-17738484D02*
X13712920Y-17738484D01*
X13712920Y-17738484D02*
X13731968Y-17748008D01*
X13731968Y-17748008D02*
X13741491Y-17757531D01*
X13741491Y-17757531D02*
X13751015Y-17776579D01*
X13751015Y-17776579D02*
X13751015Y-17795627D01*
X13751015Y-17795627D02*
X13741491Y-17824198D01*
X13741491Y-17824198D02*
X13627206Y-17938484D01*
X13627206Y-17938484D02*
X13751015Y-17938484D01*
X13989110Y-17938484D02*
X13989110Y-17738484D01*
X14074825Y-17938484D02*
X14074825Y-17833722D01*
X14074825Y-17833722D02*
X14065301Y-17814674D01*
X14065301Y-17814674D02*
X14046253Y-17805150D01*
X14046253Y-17805150D02*
X14017682Y-17805150D01*
X14017682Y-17805150D02*
X13998634Y-17814674D01*
X13998634Y-17814674D02*
X13989110Y-17824198D01*
X14198634Y-17938484D02*
X14179587Y-17928960D01*
X14179587Y-17928960D02*
X14170063Y-17919436D01*
X14170063Y-17919436D02*
X14160539Y-17900389D01*
X14160539Y-17900389D02*
X14160539Y-17843246D01*
X14160539Y-17843246D02*
X14170063Y-17824198D01*
X14170063Y-17824198D02*
X14179587Y-17814674D01*
X14179587Y-17814674D02*
X14198634Y-17805150D01*
X14198634Y-17805150D02*
X14227206Y-17805150D01*
X14227206Y-17805150D02*
X14246253Y-17814674D01*
X14246253Y-17814674D02*
X14255777Y-17824198D01*
X14255777Y-17824198D02*
X14265301Y-17843246D01*
X14265301Y-17843246D02*
X14265301Y-17900389D01*
X14265301Y-17900389D02*
X14255777Y-17919436D01*
X14255777Y-17919436D02*
X14246253Y-17928960D01*
X14246253Y-17928960D02*
X14227206Y-17938484D01*
X14227206Y-17938484D02*
X14198634Y-17938484D01*
X14379587Y-17938484D02*
X14360539Y-17928960D01*
X14360539Y-17928960D02*
X14351015Y-17909912D01*
X14351015Y-17909912D02*
X14351015Y-17738484D01*
X14531968Y-17928960D02*
X14512920Y-17938484D01*
X14512920Y-17938484D02*
X14474825Y-17938484D01*
X14474825Y-17938484D02*
X14455777Y-17928960D01*
X14455777Y-17928960D02*
X14446253Y-17909912D01*
X14446253Y-17909912D02*
X14446253Y-17833722D01*
X14446253Y-17833722D02*
X14455777Y-17814674D01*
X14455777Y-17814674D02*
X14474825Y-17805150D01*
X14474825Y-17805150D02*
X14512920Y-17805150D01*
X14512920Y-17805150D02*
X14531968Y-17814674D01*
X14531968Y-17814674D02*
X14541491Y-17833722D01*
X14541491Y-17833722D02*
X14541491Y-17852770D01*
X14541491Y-17852770D02*
X14446253Y-17871817D01*
X14617682Y-17928960D02*
X14636730Y-17938484D01*
X14636730Y-17938484D02*
X14674825Y-17938484D01*
X14674825Y-17938484D02*
X14693872Y-17928960D01*
X14693872Y-17928960D02*
X14703396Y-17909912D01*
X14703396Y-17909912D02*
X14703396Y-17900389D01*
X14703396Y-17900389D02*
X14693872Y-17881341D01*
X14693872Y-17881341D02*
X14674825Y-17871817D01*
X14674825Y-17871817D02*
X14646253Y-17871817D01*
X14646253Y-17871817D02*
X14627206Y-17862293D01*
X14627206Y-17862293D02*
X14617682Y-17843246D01*
X14617682Y-17843246D02*
X14617682Y-17833722D01*
X14617682Y-17833722D02*
X14627206Y-17814674D01*
X14627206Y-17814674D02*
X14646253Y-17805150D01*
X14646253Y-17805150D02*
X14674825Y-17805150D01*
X14674825Y-17805150D02*
X14693872Y-17814674D01*
X14770063Y-18014674D02*
X14779587Y-18005150D01*
X14779587Y-18005150D02*
X14798634Y-17976579D01*
X14798634Y-17976579D02*
X14808158Y-17957531D01*
X14808158Y-17957531D02*
X14817682Y-17928960D01*
X14817682Y-17928960D02*
X14827206Y-17881341D01*
X14827206Y-17881341D02*
X14827206Y-17843246D01*
X14827206Y-17843246D02*
X14817682Y-17795627D01*
X14817682Y-17795627D02*
X14808158Y-17767055D01*
X14808158Y-17767055D02*
X14798634Y-17748008D01*
X14798634Y-17748008D02*
X14779587Y-17719436D01*
X14779587Y-17719436D02*
X14770063Y-17709912D01*
D10*
X9955000Y-18151000D02*
X9995000Y-18111000D01*
X9955000Y-18071000D01*
X9915000Y-18111000D01*
X9955000Y-18151000D01*
D11*
X10293872Y-18002484D02*
X10312920Y-18002484D01*
X10312920Y-18002484D02*
X10331967Y-18012008D01*
X10331967Y-18012008D02*
X10341491Y-18021531D01*
X10341491Y-18021531D02*
X10351015Y-18040579D01*
X10351015Y-18040579D02*
X10360539Y-18078674D01*
X10360539Y-18078674D02*
X10360539Y-18126293D01*
X10360539Y-18126293D02*
X10351015Y-18164389D01*
X10351015Y-18164389D02*
X10341491Y-18183436D01*
X10341491Y-18183436D02*
X10331967Y-18192960D01*
X10331967Y-18192960D02*
X10312920Y-18202484D01*
X10312920Y-18202484D02*
X10293872Y-18202484D01*
X10293872Y-18202484D02*
X10274824Y-18192960D01*
X10274824Y-18192960D02*
X10265301Y-18183436D01*
X10265301Y-18183436D02*
X10255777Y-18164389D01*
X10255777Y-18164389D02*
X10246253Y-18126293D01*
X10246253Y-18126293D02*
X10246253Y-18078674D01*
X10246253Y-18078674D02*
X10255777Y-18040579D01*
X10255777Y-18040579D02*
X10265301Y-18021531D01*
X10265301Y-18021531D02*
X10274824Y-18012008D01*
X10274824Y-18012008D02*
X10293872Y-18002484D01*
X10446253Y-18183436D02*
X10455777Y-18192960D01*
X10455777Y-18192960D02*
X10446253Y-18202484D01*
X10446253Y-18202484D02*
X10436729Y-18192960D01*
X10436729Y-18192960D02*
X10446253Y-18183436D01*
X10446253Y-18183436D02*
X10446253Y-18202484D01*
X10570063Y-18088198D02*
X10551015Y-18078674D01*
X10551015Y-18078674D02*
X10541491Y-18069150D01*
X10541491Y-18069150D02*
X10531967Y-18050103D01*
X10531967Y-18050103D02*
X10531967Y-18040579D01*
X10531967Y-18040579D02*
X10541491Y-18021531D01*
X10541491Y-18021531D02*
X10551015Y-18012008D01*
X10551015Y-18012008D02*
X10570063Y-18002484D01*
X10570063Y-18002484D02*
X10608158Y-18002484D01*
X10608158Y-18002484D02*
X10627205Y-18012008D01*
X10627205Y-18012008D02*
X10636729Y-18021531D01*
X10636729Y-18021531D02*
X10646253Y-18040579D01*
X10646253Y-18040579D02*
X10646253Y-18050103D01*
X10646253Y-18050103D02*
X10636729Y-18069150D01*
X10636729Y-18069150D02*
X10627205Y-18078674D01*
X10627205Y-18078674D02*
X10608158Y-18088198D01*
X10608158Y-18088198D02*
X10570063Y-18088198D01*
X10570063Y-18088198D02*
X10551015Y-18097722D01*
X10551015Y-18097722D02*
X10541491Y-18107246D01*
X10541491Y-18107246D02*
X10531967Y-18126293D01*
X10531967Y-18126293D02*
X10531967Y-18164389D01*
X10531967Y-18164389D02*
X10541491Y-18183436D01*
X10541491Y-18183436D02*
X10551015Y-18192960D01*
X10551015Y-18192960D02*
X10570063Y-18202484D01*
X10570063Y-18202484D02*
X10608158Y-18202484D01*
X10608158Y-18202484D02*
X10627205Y-18192960D01*
X10627205Y-18192960D02*
X10636729Y-18183436D01*
X10636729Y-18183436D02*
X10646253Y-18164389D01*
X10646253Y-18164389D02*
X10646253Y-18126293D01*
X10646253Y-18126293D02*
X10636729Y-18107246D01*
X10636729Y-18107246D02*
X10627205Y-18097722D01*
X10627205Y-18097722D02*
X10608158Y-18088198D01*
X10770063Y-18002484D02*
X10789110Y-18002484D01*
X10789110Y-18002484D02*
X10808158Y-18012008D01*
X10808158Y-18012008D02*
X10817682Y-18021531D01*
X10817682Y-18021531D02*
X10827205Y-18040579D01*
X10827205Y-18040579D02*
X10836729Y-18078674D01*
X10836729Y-18078674D02*
X10836729Y-18126293D01*
X10836729Y-18126293D02*
X10827205Y-18164389D01*
X10827205Y-18164389D02*
X10817682Y-18183436D01*
X10817682Y-18183436D02*
X10808158Y-18192960D01*
X10808158Y-18192960D02*
X10789110Y-18202484D01*
X10789110Y-18202484D02*
X10770063Y-18202484D01*
X10770063Y-18202484D02*
X10751015Y-18192960D01*
X10751015Y-18192960D02*
X10741491Y-18183436D01*
X10741491Y-18183436D02*
X10731967Y-18164389D01*
X10731967Y-18164389D02*
X10722444Y-18126293D01*
X10722444Y-18126293D02*
X10722444Y-18078674D01*
X10722444Y-18078674D02*
X10731967Y-18040579D01*
X10731967Y-18040579D02*
X10741491Y-18021531D01*
X10741491Y-18021531D02*
X10751015Y-18012008D01*
X10751015Y-18012008D02*
X10770063Y-18002484D01*
X10960539Y-18002484D02*
X10979586Y-18002484D01*
X10979586Y-18002484D02*
X10998634Y-18012008D01*
X10998634Y-18012008D02*
X11008158Y-18021531D01*
X11008158Y-18021531D02*
X11017682Y-18040579D01*
X11017682Y-18040579D02*
X11027205Y-18078674D01*
X11027205Y-18078674D02*
X11027205Y-18126293D01*
X11027205Y-18126293D02*
X11017682Y-18164389D01*
X11017682Y-18164389D02*
X11008158Y-18183436D01*
X11008158Y-18183436D02*
X10998634Y-18192960D01*
X10998634Y-18192960D02*
X10979586Y-18202484D01*
X10979586Y-18202484D02*
X10960539Y-18202484D01*
X10960539Y-18202484D02*
X10941491Y-18192960D01*
X10941491Y-18192960D02*
X10931967Y-18183436D01*
X10931967Y-18183436D02*
X10922444Y-18164389D01*
X10922444Y-18164389D02*
X10912920Y-18126293D01*
X10912920Y-18126293D02*
X10912920Y-18078674D01*
X10912920Y-18078674D02*
X10922444Y-18040579D01*
X10922444Y-18040579D02*
X10931967Y-18021531D01*
X10931967Y-18021531D02*
X10941491Y-18012008D01*
X10941491Y-18012008D02*
X10960539Y-18002484D01*
X11112920Y-18202484D02*
X11112920Y-18069150D01*
X11112920Y-18088198D02*
X11122444Y-18078674D01*
X11122444Y-18078674D02*
X11141491Y-18069150D01*
X11141491Y-18069150D02*
X11170063Y-18069150D01*
X11170063Y-18069150D02*
X11189110Y-18078674D01*
X11189110Y-18078674D02*
X11198634Y-18097722D01*
X11198634Y-18097722D02*
X11198634Y-18202484D01*
X11198634Y-18097722D02*
X11208158Y-18078674D01*
X11208158Y-18078674D02*
X11227205Y-18069150D01*
X11227205Y-18069150D02*
X11255777Y-18069150D01*
X11255777Y-18069150D02*
X11274824Y-18078674D01*
X11274824Y-18078674D02*
X11284348Y-18097722D01*
X11284348Y-18097722D02*
X11284348Y-18202484D01*
X11379586Y-18202484D02*
X11379586Y-18069150D01*
X11379586Y-18088198D02*
X11389110Y-18078674D01*
X11389110Y-18078674D02*
X11408158Y-18069150D01*
X11408158Y-18069150D02*
X11436729Y-18069150D01*
X11436729Y-18069150D02*
X11455777Y-18078674D01*
X11455777Y-18078674D02*
X11465301Y-18097722D01*
X11465301Y-18097722D02*
X11465301Y-18202484D01*
X11465301Y-18097722D02*
X11474824Y-18078674D01*
X11474824Y-18078674D02*
X11493872Y-18069150D01*
X11493872Y-18069150D02*
X11522443Y-18069150D01*
X11522443Y-18069150D02*
X11541491Y-18078674D01*
X11541491Y-18078674D02*
X11551015Y-18097722D01*
X11551015Y-18097722D02*
X11551015Y-18202484D01*
X11941491Y-17992960D02*
X11770063Y-18250103D01*
X12198634Y-18002484D02*
X12217682Y-18002484D01*
X12217682Y-18002484D02*
X12236729Y-18012008D01*
X12236729Y-18012008D02*
X12246253Y-18021531D01*
X12246253Y-18021531D02*
X12255777Y-18040579D01*
X12255777Y-18040579D02*
X12265301Y-18078674D01*
X12265301Y-18078674D02*
X12265301Y-18126293D01*
X12265301Y-18126293D02*
X12255777Y-18164389D01*
X12255777Y-18164389D02*
X12246253Y-18183436D01*
X12246253Y-18183436D02*
X12236729Y-18192960D01*
X12236729Y-18192960D02*
X12217682Y-18202484D01*
X12217682Y-18202484D02*
X12198634Y-18202484D01*
X12198634Y-18202484D02*
X12179586Y-18192960D01*
X12179586Y-18192960D02*
X12170063Y-18183436D01*
X12170063Y-18183436D02*
X12160539Y-18164389D01*
X12160539Y-18164389D02*
X12151015Y-18126293D01*
X12151015Y-18126293D02*
X12151015Y-18078674D01*
X12151015Y-18078674D02*
X12160539Y-18040579D01*
X12160539Y-18040579D02*
X12170063Y-18021531D01*
X12170063Y-18021531D02*
X12179586Y-18012008D01*
X12179586Y-18012008D02*
X12198634Y-18002484D01*
X12351015Y-18183436D02*
X12360539Y-18192960D01*
X12360539Y-18192960D02*
X12351015Y-18202484D01*
X12351015Y-18202484D02*
X12341491Y-18192960D01*
X12341491Y-18192960D02*
X12351015Y-18183436D01*
X12351015Y-18183436D02*
X12351015Y-18202484D01*
X12484348Y-18002484D02*
X12503396Y-18002484D01*
X12503396Y-18002484D02*
X12522444Y-18012008D01*
X12522444Y-18012008D02*
X12531967Y-18021531D01*
X12531967Y-18021531D02*
X12541491Y-18040579D01*
X12541491Y-18040579D02*
X12551015Y-18078674D01*
X12551015Y-18078674D02*
X12551015Y-18126293D01*
X12551015Y-18126293D02*
X12541491Y-18164389D01*
X12541491Y-18164389D02*
X12531967Y-18183436D01*
X12531967Y-18183436D02*
X12522444Y-18192960D01*
X12522444Y-18192960D02*
X12503396Y-18202484D01*
X12503396Y-18202484D02*
X12484348Y-18202484D01*
X12484348Y-18202484D02*
X12465301Y-18192960D01*
X12465301Y-18192960D02*
X12455777Y-18183436D01*
X12455777Y-18183436D02*
X12446253Y-18164389D01*
X12446253Y-18164389D02*
X12436729Y-18126293D01*
X12436729Y-18126293D02*
X12436729Y-18078674D01*
X12436729Y-18078674D02*
X12446253Y-18040579D01*
X12446253Y-18040579D02*
X12455777Y-18021531D01*
X12455777Y-18021531D02*
X12465301Y-18012008D01*
X12465301Y-18012008D02*
X12484348Y-18002484D01*
X12617682Y-18002484D02*
X12741491Y-18002484D01*
X12741491Y-18002484D02*
X12674825Y-18078674D01*
X12674825Y-18078674D02*
X12703396Y-18078674D01*
X12703396Y-18078674D02*
X12722444Y-18088198D01*
X12722444Y-18088198D02*
X12731967Y-18097722D01*
X12731967Y-18097722D02*
X12741491Y-18116770D01*
X12741491Y-18116770D02*
X12741491Y-18164389D01*
X12741491Y-18164389D02*
X12731967Y-18183436D01*
X12731967Y-18183436D02*
X12722444Y-18192960D01*
X12722444Y-18192960D02*
X12703396Y-18202484D01*
X12703396Y-18202484D02*
X12646253Y-18202484D01*
X12646253Y-18202484D02*
X12627206Y-18192960D01*
X12627206Y-18192960D02*
X12617682Y-18183436D01*
X12931967Y-18202484D02*
X12817682Y-18202484D01*
X12874825Y-18202484D02*
X12874825Y-18002484D01*
X12874825Y-18002484D02*
X12855777Y-18031055D01*
X12855777Y-18031055D02*
X12836729Y-18050103D01*
X12836729Y-18050103D02*
X12817682Y-18059627D01*
X13112920Y-18002484D02*
X13017682Y-18002484D01*
X13017682Y-18002484D02*
X13008158Y-18097722D01*
X13008158Y-18097722D02*
X13017682Y-18088198D01*
X13017682Y-18088198D02*
X13036729Y-18078674D01*
X13036729Y-18078674D02*
X13084348Y-18078674D01*
X13084348Y-18078674D02*
X13103396Y-18088198D01*
X13103396Y-18088198D02*
X13112920Y-18097722D01*
X13112920Y-18097722D02*
X13122444Y-18116770D01*
X13122444Y-18116770D02*
X13122444Y-18164389D01*
X13122444Y-18164389D02*
X13112920Y-18183436D01*
X13112920Y-18183436D02*
X13103396Y-18192960D01*
X13103396Y-18192960D02*
X13084348Y-18202484D01*
X13084348Y-18202484D02*
X13036729Y-18202484D01*
X13036729Y-18202484D02*
X13017682Y-18192960D01*
X13017682Y-18192960D02*
X13008158Y-18183436D01*
X13198634Y-18002484D02*
X13198634Y-18040579D01*
X13274825Y-18002484D02*
X13274825Y-18040579D01*
X13570063Y-18278674D02*
X13560539Y-18269150D01*
X13560539Y-18269150D02*
X13541491Y-18240579D01*
X13541491Y-18240579D02*
X13531968Y-18221531D01*
X13531968Y-18221531D02*
X13522444Y-18192960D01*
X13522444Y-18192960D02*
X13512920Y-18145341D01*
X13512920Y-18145341D02*
X13512920Y-18107246D01*
X13512920Y-18107246D02*
X13522444Y-18059627D01*
X13522444Y-18059627D02*
X13531968Y-18031055D01*
X13531968Y-18031055D02*
X13541491Y-18012008D01*
X13541491Y-18012008D02*
X13560539Y-17983436D01*
X13560539Y-17983436D02*
X13570063Y-17973912D01*
X13751015Y-18202484D02*
X13636729Y-18202484D01*
X13693872Y-18202484D02*
X13693872Y-18002484D01*
X13693872Y-18002484D02*
X13674825Y-18031055D01*
X13674825Y-18031055D02*
X13655777Y-18050103D01*
X13655777Y-18050103D02*
X13636729Y-18059627D01*
X13922444Y-18002484D02*
X13884348Y-18002484D01*
X13884348Y-18002484D02*
X13865301Y-18012008D01*
X13865301Y-18012008D02*
X13855777Y-18021531D01*
X13855777Y-18021531D02*
X13836729Y-18050103D01*
X13836729Y-18050103D02*
X13827206Y-18088198D01*
X13827206Y-18088198D02*
X13827206Y-18164389D01*
X13827206Y-18164389D02*
X13836729Y-18183436D01*
X13836729Y-18183436D02*
X13846253Y-18192960D01*
X13846253Y-18192960D02*
X13865301Y-18202484D01*
X13865301Y-18202484D02*
X13903396Y-18202484D01*
X13903396Y-18202484D02*
X13922444Y-18192960D01*
X13922444Y-18192960D02*
X13931968Y-18183436D01*
X13931968Y-18183436D02*
X13941491Y-18164389D01*
X13941491Y-18164389D02*
X13941491Y-18116770D01*
X13941491Y-18116770D02*
X13931968Y-18097722D01*
X13931968Y-18097722D02*
X13922444Y-18088198D01*
X13922444Y-18088198D02*
X13903396Y-18078674D01*
X13903396Y-18078674D02*
X13865301Y-18078674D01*
X13865301Y-18078674D02*
X13846253Y-18088198D01*
X13846253Y-18088198D02*
X13836729Y-18097722D01*
X13836729Y-18097722D02*
X13827206Y-18116770D01*
X14179587Y-18202484D02*
X14179587Y-18002484D01*
X14265301Y-18202484D02*
X14265301Y-18097722D01*
X14265301Y-18097722D02*
X14255777Y-18078674D01*
X14255777Y-18078674D02*
X14236730Y-18069150D01*
X14236730Y-18069150D02*
X14208158Y-18069150D01*
X14208158Y-18069150D02*
X14189110Y-18078674D01*
X14189110Y-18078674D02*
X14179587Y-18088198D01*
X14389110Y-18202484D02*
X14370063Y-18192960D01*
X14370063Y-18192960D02*
X14360539Y-18183436D01*
X14360539Y-18183436D02*
X14351015Y-18164389D01*
X14351015Y-18164389D02*
X14351015Y-18107246D01*
X14351015Y-18107246D02*
X14360539Y-18088198D01*
X14360539Y-18088198D02*
X14370063Y-18078674D01*
X14370063Y-18078674D02*
X14389110Y-18069150D01*
X14389110Y-18069150D02*
X14417682Y-18069150D01*
X14417682Y-18069150D02*
X14436730Y-18078674D01*
X14436730Y-18078674D02*
X14446253Y-18088198D01*
X14446253Y-18088198D02*
X14455777Y-18107246D01*
X14455777Y-18107246D02*
X14455777Y-18164389D01*
X14455777Y-18164389D02*
X14446253Y-18183436D01*
X14446253Y-18183436D02*
X14436730Y-18192960D01*
X14436730Y-18192960D02*
X14417682Y-18202484D01*
X14417682Y-18202484D02*
X14389110Y-18202484D01*
X14570063Y-18202484D02*
X14551015Y-18192960D01*
X14551015Y-18192960D02*
X14541491Y-18173912D01*
X14541491Y-18173912D02*
X14541491Y-18002484D01*
X14722444Y-18192960D02*
X14703396Y-18202484D01*
X14703396Y-18202484D02*
X14665301Y-18202484D01*
X14665301Y-18202484D02*
X14646253Y-18192960D01*
X14646253Y-18192960D02*
X14636730Y-18173912D01*
X14636730Y-18173912D02*
X14636730Y-18097722D01*
X14636730Y-18097722D02*
X14646253Y-18078674D01*
X14646253Y-18078674D02*
X14665301Y-18069150D01*
X14665301Y-18069150D02*
X14703396Y-18069150D01*
X14703396Y-18069150D02*
X14722444Y-18078674D01*
X14722444Y-18078674D02*
X14731968Y-18097722D01*
X14731968Y-18097722D02*
X14731968Y-18116770D01*
X14731968Y-18116770D02*
X14636730Y-18135817D01*
X14808158Y-18192960D02*
X14827206Y-18202484D01*
X14827206Y-18202484D02*
X14865301Y-18202484D01*
X14865301Y-18202484D02*
X14884349Y-18192960D01*
X14884349Y-18192960D02*
X14893872Y-18173912D01*
X14893872Y-18173912D02*
X14893872Y-18164389D01*
X14893872Y-18164389D02*
X14884349Y-18145341D01*
X14884349Y-18145341D02*
X14865301Y-18135817D01*
X14865301Y-18135817D02*
X14836730Y-18135817D01*
X14836730Y-18135817D02*
X14817682Y-18126293D01*
X14817682Y-18126293D02*
X14808158Y-18107246D01*
X14808158Y-18107246D02*
X14808158Y-18097722D01*
X14808158Y-18097722D02*
X14817682Y-18078674D01*
X14817682Y-18078674D02*
X14836730Y-18069150D01*
X14836730Y-18069150D02*
X14865301Y-18069150D01*
X14865301Y-18069150D02*
X14884349Y-18078674D01*
X14960539Y-18278674D02*
X14970063Y-18269150D01*
X14970063Y-18269150D02*
X14989111Y-18240579D01*
X14989111Y-18240579D02*
X14998634Y-18221531D01*
X14998634Y-18221531D02*
X15008158Y-18192960D01*
X15008158Y-18192960D02*
X15017682Y-18145341D01*
X15017682Y-18145341D02*
X15017682Y-18107246D01*
X15017682Y-18107246D02*
X15008158Y-18059627D01*
X15008158Y-18059627D02*
X14998634Y-18031055D01*
X14998634Y-18031055D02*
X14989111Y-18012008D01*
X14989111Y-18012008D02*
X14970063Y-17983436D01*
X14970063Y-17983436D02*
X14960539Y-17973912D01*
D10*
X9905000Y-18330000D02*
X9995000Y-18420000D01*
X9995000Y-18330000D02*
X9905000Y-18420000D01*
X9995000Y-18375000D02*
G75*
G02*
X9905000Y-18375000I-45000J0D01*
G01*
X9905000Y-18375000D02*
G75*
G02*
X9995000Y-18375000I45000J0D01*
G01*
D11*
X10293872Y-18266484D02*
X10312920Y-18266484D01*
X10312920Y-18266484D02*
X10331967Y-18276008D01*
X10331967Y-18276008D02*
X10341491Y-18285531D01*
X10341491Y-18285531D02*
X10351015Y-18304579D01*
X10351015Y-18304579D02*
X10360539Y-18342674D01*
X10360539Y-18342674D02*
X10360539Y-18390293D01*
X10360539Y-18390293D02*
X10351015Y-18428389D01*
X10351015Y-18428389D02*
X10341491Y-18447436D01*
X10341491Y-18447436D02*
X10331967Y-18456960D01*
X10331967Y-18456960D02*
X10312920Y-18466484D01*
X10312920Y-18466484D02*
X10293872Y-18466484D01*
X10293872Y-18466484D02*
X10274824Y-18456960D01*
X10274824Y-18456960D02*
X10265301Y-18447436D01*
X10265301Y-18447436D02*
X10255777Y-18428389D01*
X10255777Y-18428389D02*
X10246253Y-18390293D01*
X10246253Y-18390293D02*
X10246253Y-18342674D01*
X10246253Y-18342674D02*
X10255777Y-18304579D01*
X10255777Y-18304579D02*
X10265301Y-18285531D01*
X10265301Y-18285531D02*
X10274824Y-18276008D01*
X10274824Y-18276008D02*
X10293872Y-18266484D01*
X10446253Y-18447436D02*
X10455777Y-18456960D01*
X10455777Y-18456960D02*
X10446253Y-18466484D01*
X10446253Y-18466484D02*
X10436729Y-18456960D01*
X10436729Y-18456960D02*
X10446253Y-18447436D01*
X10446253Y-18447436D02*
X10446253Y-18466484D01*
X10551015Y-18466484D02*
X10589110Y-18466484D01*
X10589110Y-18466484D02*
X10608158Y-18456960D01*
X10608158Y-18456960D02*
X10617682Y-18447436D01*
X10617682Y-18447436D02*
X10636729Y-18418865D01*
X10636729Y-18418865D02*
X10646253Y-18380770D01*
X10646253Y-18380770D02*
X10646253Y-18304579D01*
X10646253Y-18304579D02*
X10636729Y-18285531D01*
X10636729Y-18285531D02*
X10627205Y-18276008D01*
X10627205Y-18276008D02*
X10608158Y-18266484D01*
X10608158Y-18266484D02*
X10570063Y-18266484D01*
X10570063Y-18266484D02*
X10551015Y-18276008D01*
X10551015Y-18276008D02*
X10541491Y-18285531D01*
X10541491Y-18285531D02*
X10531967Y-18304579D01*
X10531967Y-18304579D02*
X10531967Y-18352198D01*
X10531967Y-18352198D02*
X10541491Y-18371246D01*
X10541491Y-18371246D02*
X10551015Y-18380770D01*
X10551015Y-18380770D02*
X10570063Y-18390293D01*
X10570063Y-18390293D02*
X10608158Y-18390293D01*
X10608158Y-18390293D02*
X10627205Y-18380770D01*
X10627205Y-18380770D02*
X10636729Y-18371246D01*
X10636729Y-18371246D02*
X10646253Y-18352198D01*
X10770063Y-18266484D02*
X10789110Y-18266484D01*
X10789110Y-18266484D02*
X10808158Y-18276008D01*
X10808158Y-18276008D02*
X10817682Y-18285531D01*
X10817682Y-18285531D02*
X10827205Y-18304579D01*
X10827205Y-18304579D02*
X10836729Y-18342674D01*
X10836729Y-18342674D02*
X10836729Y-18390293D01*
X10836729Y-18390293D02*
X10827205Y-18428389D01*
X10827205Y-18428389D02*
X10817682Y-18447436D01*
X10817682Y-18447436D02*
X10808158Y-18456960D01*
X10808158Y-18456960D02*
X10789110Y-18466484D01*
X10789110Y-18466484D02*
X10770063Y-18466484D01*
X10770063Y-18466484D02*
X10751015Y-18456960D01*
X10751015Y-18456960D02*
X10741491Y-18447436D01*
X10741491Y-18447436D02*
X10731967Y-18428389D01*
X10731967Y-18428389D02*
X10722444Y-18390293D01*
X10722444Y-18390293D02*
X10722444Y-18342674D01*
X10722444Y-18342674D02*
X10731967Y-18304579D01*
X10731967Y-18304579D02*
X10741491Y-18285531D01*
X10741491Y-18285531D02*
X10751015Y-18276008D01*
X10751015Y-18276008D02*
X10770063Y-18266484D01*
X10960539Y-18266484D02*
X10979586Y-18266484D01*
X10979586Y-18266484D02*
X10998634Y-18276008D01*
X10998634Y-18276008D02*
X11008158Y-18285531D01*
X11008158Y-18285531D02*
X11017682Y-18304579D01*
X11017682Y-18304579D02*
X11027205Y-18342674D01*
X11027205Y-18342674D02*
X11027205Y-18390293D01*
X11027205Y-18390293D02*
X11017682Y-18428389D01*
X11017682Y-18428389D02*
X11008158Y-18447436D01*
X11008158Y-18447436D02*
X10998634Y-18456960D01*
X10998634Y-18456960D02*
X10979586Y-18466484D01*
X10979586Y-18466484D02*
X10960539Y-18466484D01*
X10960539Y-18466484D02*
X10941491Y-18456960D01*
X10941491Y-18456960D02*
X10931967Y-18447436D01*
X10931967Y-18447436D02*
X10922444Y-18428389D01*
X10922444Y-18428389D02*
X10912920Y-18390293D01*
X10912920Y-18390293D02*
X10912920Y-18342674D01*
X10912920Y-18342674D02*
X10922444Y-18304579D01*
X10922444Y-18304579D02*
X10931967Y-18285531D01*
X10931967Y-18285531D02*
X10941491Y-18276008D01*
X10941491Y-18276008D02*
X10960539Y-18266484D01*
X11112920Y-18466484D02*
X11112920Y-18333150D01*
X11112920Y-18352198D02*
X11122444Y-18342674D01*
X11122444Y-18342674D02*
X11141491Y-18333150D01*
X11141491Y-18333150D02*
X11170063Y-18333150D01*
X11170063Y-18333150D02*
X11189110Y-18342674D01*
X11189110Y-18342674D02*
X11198634Y-18361722D01*
X11198634Y-18361722D02*
X11198634Y-18466484D01*
X11198634Y-18361722D02*
X11208158Y-18342674D01*
X11208158Y-18342674D02*
X11227205Y-18333150D01*
X11227205Y-18333150D02*
X11255777Y-18333150D01*
X11255777Y-18333150D02*
X11274824Y-18342674D01*
X11274824Y-18342674D02*
X11284348Y-18361722D01*
X11284348Y-18361722D02*
X11284348Y-18466484D01*
X11379586Y-18466484D02*
X11379586Y-18333150D01*
X11379586Y-18352198D02*
X11389110Y-18342674D01*
X11389110Y-18342674D02*
X11408158Y-18333150D01*
X11408158Y-18333150D02*
X11436729Y-18333150D01*
X11436729Y-18333150D02*
X11455777Y-18342674D01*
X11455777Y-18342674D02*
X11465301Y-18361722D01*
X11465301Y-18361722D02*
X11465301Y-18466484D01*
X11465301Y-18361722D02*
X11474824Y-18342674D01*
X11474824Y-18342674D02*
X11493872Y-18333150D01*
X11493872Y-18333150D02*
X11522443Y-18333150D01*
X11522443Y-18333150D02*
X11541491Y-18342674D01*
X11541491Y-18342674D02*
X11551015Y-18361722D01*
X11551015Y-18361722D02*
X11551015Y-18466484D01*
X11941491Y-18256960D02*
X11770063Y-18514103D01*
X12198634Y-18266484D02*
X12217682Y-18266484D01*
X12217682Y-18266484D02*
X12236729Y-18276008D01*
X12236729Y-18276008D02*
X12246253Y-18285531D01*
X12246253Y-18285531D02*
X12255777Y-18304579D01*
X12255777Y-18304579D02*
X12265301Y-18342674D01*
X12265301Y-18342674D02*
X12265301Y-18390293D01*
X12265301Y-18390293D02*
X12255777Y-18428389D01*
X12255777Y-18428389D02*
X12246253Y-18447436D01*
X12246253Y-18447436D02*
X12236729Y-18456960D01*
X12236729Y-18456960D02*
X12217682Y-18466484D01*
X12217682Y-18466484D02*
X12198634Y-18466484D01*
X12198634Y-18466484D02*
X12179586Y-18456960D01*
X12179586Y-18456960D02*
X12170063Y-18447436D01*
X12170063Y-18447436D02*
X12160539Y-18428389D01*
X12160539Y-18428389D02*
X12151015Y-18390293D01*
X12151015Y-18390293D02*
X12151015Y-18342674D01*
X12151015Y-18342674D02*
X12160539Y-18304579D01*
X12160539Y-18304579D02*
X12170063Y-18285531D01*
X12170063Y-18285531D02*
X12179586Y-18276008D01*
X12179586Y-18276008D02*
X12198634Y-18266484D01*
X12351015Y-18447436D02*
X12360539Y-18456960D01*
X12360539Y-18456960D02*
X12351015Y-18466484D01*
X12351015Y-18466484D02*
X12341491Y-18456960D01*
X12341491Y-18456960D02*
X12351015Y-18447436D01*
X12351015Y-18447436D02*
X12351015Y-18466484D01*
X12484348Y-18266484D02*
X12503396Y-18266484D01*
X12503396Y-18266484D02*
X12522444Y-18276008D01*
X12522444Y-18276008D02*
X12531967Y-18285531D01*
X12531967Y-18285531D02*
X12541491Y-18304579D01*
X12541491Y-18304579D02*
X12551015Y-18342674D01*
X12551015Y-18342674D02*
X12551015Y-18390293D01*
X12551015Y-18390293D02*
X12541491Y-18428389D01*
X12541491Y-18428389D02*
X12531967Y-18447436D01*
X12531967Y-18447436D02*
X12522444Y-18456960D01*
X12522444Y-18456960D02*
X12503396Y-18466484D01*
X12503396Y-18466484D02*
X12484348Y-18466484D01*
X12484348Y-18466484D02*
X12465301Y-18456960D01*
X12465301Y-18456960D02*
X12455777Y-18447436D01*
X12455777Y-18447436D02*
X12446253Y-18428389D01*
X12446253Y-18428389D02*
X12436729Y-18390293D01*
X12436729Y-18390293D02*
X12436729Y-18342674D01*
X12436729Y-18342674D02*
X12446253Y-18304579D01*
X12446253Y-18304579D02*
X12455777Y-18285531D01*
X12455777Y-18285531D02*
X12465301Y-18276008D01*
X12465301Y-18276008D02*
X12484348Y-18266484D01*
X12617682Y-18266484D02*
X12741491Y-18266484D01*
X12741491Y-18266484D02*
X12674825Y-18342674D01*
X12674825Y-18342674D02*
X12703396Y-18342674D01*
X12703396Y-18342674D02*
X12722444Y-18352198D01*
X12722444Y-18352198D02*
X12731967Y-18361722D01*
X12731967Y-18361722D02*
X12741491Y-18380770D01*
X12741491Y-18380770D02*
X12741491Y-18428389D01*
X12741491Y-18428389D02*
X12731967Y-18447436D01*
X12731967Y-18447436D02*
X12722444Y-18456960D01*
X12722444Y-18456960D02*
X12703396Y-18466484D01*
X12703396Y-18466484D02*
X12646253Y-18466484D01*
X12646253Y-18466484D02*
X12627206Y-18456960D01*
X12627206Y-18456960D02*
X12617682Y-18447436D01*
X12922444Y-18266484D02*
X12827206Y-18266484D01*
X12827206Y-18266484D02*
X12817682Y-18361722D01*
X12817682Y-18361722D02*
X12827206Y-18352198D01*
X12827206Y-18352198D02*
X12846253Y-18342674D01*
X12846253Y-18342674D02*
X12893872Y-18342674D01*
X12893872Y-18342674D02*
X12912920Y-18352198D01*
X12912920Y-18352198D02*
X12922444Y-18361722D01*
X12922444Y-18361722D02*
X12931967Y-18380770D01*
X12931967Y-18380770D02*
X12931967Y-18428389D01*
X12931967Y-18428389D02*
X12922444Y-18447436D01*
X12922444Y-18447436D02*
X12912920Y-18456960D01*
X12912920Y-18456960D02*
X12893872Y-18466484D01*
X12893872Y-18466484D02*
X12846253Y-18466484D01*
X12846253Y-18466484D02*
X12827206Y-18456960D01*
X12827206Y-18456960D02*
X12817682Y-18447436D01*
X13103396Y-18333150D02*
X13103396Y-18466484D01*
X13055777Y-18256960D02*
X13008158Y-18399817D01*
X13008158Y-18399817D02*
X13131967Y-18399817D01*
X13198634Y-18266484D02*
X13198634Y-18304579D01*
X13274825Y-18266484D02*
X13274825Y-18304579D01*
X13570063Y-18542674D02*
X13560539Y-18533150D01*
X13560539Y-18533150D02*
X13541491Y-18504579D01*
X13541491Y-18504579D02*
X13531968Y-18485531D01*
X13531968Y-18485531D02*
X13522444Y-18456960D01*
X13522444Y-18456960D02*
X13512920Y-18409341D01*
X13512920Y-18409341D02*
X13512920Y-18371246D01*
X13512920Y-18371246D02*
X13522444Y-18323627D01*
X13522444Y-18323627D02*
X13531968Y-18295055D01*
X13531968Y-18295055D02*
X13541491Y-18276008D01*
X13541491Y-18276008D02*
X13560539Y-18247436D01*
X13560539Y-18247436D02*
X13570063Y-18237912D01*
X13731968Y-18333150D02*
X13731968Y-18466484D01*
X13684348Y-18256960D02*
X13636729Y-18399817D01*
X13636729Y-18399817D02*
X13760539Y-18399817D01*
X13989110Y-18466484D02*
X13989110Y-18266484D01*
X14074825Y-18466484D02*
X14074825Y-18361722D01*
X14074825Y-18361722D02*
X14065301Y-18342674D01*
X14065301Y-18342674D02*
X14046253Y-18333150D01*
X14046253Y-18333150D02*
X14017682Y-18333150D01*
X14017682Y-18333150D02*
X13998634Y-18342674D01*
X13998634Y-18342674D02*
X13989110Y-18352198D01*
X14198634Y-18466484D02*
X14179587Y-18456960D01*
X14179587Y-18456960D02*
X14170063Y-18447436D01*
X14170063Y-18447436D02*
X14160539Y-18428389D01*
X14160539Y-18428389D02*
X14160539Y-18371246D01*
X14160539Y-18371246D02*
X14170063Y-18352198D01*
X14170063Y-18352198D02*
X14179587Y-18342674D01*
X14179587Y-18342674D02*
X14198634Y-18333150D01*
X14198634Y-18333150D02*
X14227206Y-18333150D01*
X14227206Y-18333150D02*
X14246253Y-18342674D01*
X14246253Y-18342674D02*
X14255777Y-18352198D01*
X14255777Y-18352198D02*
X14265301Y-18371246D01*
X14265301Y-18371246D02*
X14265301Y-18428389D01*
X14265301Y-18428389D02*
X14255777Y-18447436D01*
X14255777Y-18447436D02*
X14246253Y-18456960D01*
X14246253Y-18456960D02*
X14227206Y-18466484D01*
X14227206Y-18466484D02*
X14198634Y-18466484D01*
X14379587Y-18466484D02*
X14360539Y-18456960D01*
X14360539Y-18456960D02*
X14351015Y-18437912D01*
X14351015Y-18437912D02*
X14351015Y-18266484D01*
X14531968Y-18456960D02*
X14512920Y-18466484D01*
X14512920Y-18466484D02*
X14474825Y-18466484D01*
X14474825Y-18466484D02*
X14455777Y-18456960D01*
X14455777Y-18456960D02*
X14446253Y-18437912D01*
X14446253Y-18437912D02*
X14446253Y-18361722D01*
X14446253Y-18361722D02*
X14455777Y-18342674D01*
X14455777Y-18342674D02*
X14474825Y-18333150D01*
X14474825Y-18333150D02*
X14512920Y-18333150D01*
X14512920Y-18333150D02*
X14531968Y-18342674D01*
X14531968Y-18342674D02*
X14541491Y-18361722D01*
X14541491Y-18361722D02*
X14541491Y-18380770D01*
X14541491Y-18380770D02*
X14446253Y-18399817D01*
X14617682Y-18456960D02*
X14636730Y-18466484D01*
X14636730Y-18466484D02*
X14674825Y-18466484D01*
X14674825Y-18466484D02*
X14693872Y-18456960D01*
X14693872Y-18456960D02*
X14703396Y-18437912D01*
X14703396Y-18437912D02*
X14703396Y-18428389D01*
X14703396Y-18428389D02*
X14693872Y-18409341D01*
X14693872Y-18409341D02*
X14674825Y-18399817D01*
X14674825Y-18399817D02*
X14646253Y-18399817D01*
X14646253Y-18399817D02*
X14627206Y-18390293D01*
X14627206Y-18390293D02*
X14617682Y-18371246D01*
X14617682Y-18371246D02*
X14617682Y-18361722D01*
X14617682Y-18361722D02*
X14627206Y-18342674D01*
X14627206Y-18342674D02*
X14646253Y-18333150D01*
X14646253Y-18333150D02*
X14674825Y-18333150D01*
X14674825Y-18333150D02*
X14693872Y-18342674D01*
X14770063Y-18542674D02*
X14779587Y-18533150D01*
X14779587Y-18533150D02*
X14798634Y-18504579D01*
X14798634Y-18504579D02*
X14808158Y-18485531D01*
X14808158Y-18485531D02*
X14817682Y-18456960D01*
X14817682Y-18456960D02*
X14827206Y-18409341D01*
X14827206Y-18409341D02*
X14827206Y-18371246D01*
X14827206Y-18371246D02*
X14817682Y-18323627D01*
X14817682Y-18323627D02*
X14808158Y-18295055D01*
X14808158Y-18295055D02*
X14798634Y-18276008D01*
X14798634Y-18276008D02*
X14779587Y-18247436D01*
X14779587Y-18247436D02*
X14770063Y-18237912D01*
D10*
X9895000Y-18589000D02*
X9995000Y-18689000D01*
X9995000Y-18589000D02*
X9895000Y-18689000D01*
X9945000Y-18589000D02*
X9945000Y-18689000D01*
X9895000Y-18639000D02*
X9995000Y-18639000D01*
D11*
X10360539Y-18730484D02*
X10246253Y-18730484D01*
X10303396Y-18730484D02*
X10303396Y-18530484D01*
X10303396Y-18530484D02*
X10284348Y-18559055D01*
X10284348Y-18559055D02*
X10265301Y-18578103D01*
X10265301Y-18578103D02*
X10246253Y-18587627D01*
X10446253Y-18711436D02*
X10455777Y-18720960D01*
X10455777Y-18720960D02*
X10446253Y-18730484D01*
X10446253Y-18730484D02*
X10436729Y-18720960D01*
X10436729Y-18720960D02*
X10446253Y-18711436D01*
X10446253Y-18711436D02*
X10446253Y-18730484D01*
X10579586Y-18530484D02*
X10598634Y-18530484D01*
X10598634Y-18530484D02*
X10617682Y-18540008D01*
X10617682Y-18540008D02*
X10627205Y-18549531D01*
X10627205Y-18549531D02*
X10636729Y-18568579D01*
X10636729Y-18568579D02*
X10646253Y-18606674D01*
X10646253Y-18606674D02*
X10646253Y-18654293D01*
X10646253Y-18654293D02*
X10636729Y-18692389D01*
X10636729Y-18692389D02*
X10627205Y-18711436D01*
X10627205Y-18711436D02*
X10617682Y-18720960D01*
X10617682Y-18720960D02*
X10598634Y-18730484D01*
X10598634Y-18730484D02*
X10579586Y-18730484D01*
X10579586Y-18730484D02*
X10560539Y-18720960D01*
X10560539Y-18720960D02*
X10551015Y-18711436D01*
X10551015Y-18711436D02*
X10541491Y-18692389D01*
X10541491Y-18692389D02*
X10531967Y-18654293D01*
X10531967Y-18654293D02*
X10531967Y-18606674D01*
X10531967Y-18606674D02*
X10541491Y-18568579D01*
X10541491Y-18568579D02*
X10551015Y-18549531D01*
X10551015Y-18549531D02*
X10560539Y-18540008D01*
X10560539Y-18540008D02*
X10579586Y-18530484D01*
X10770063Y-18530484D02*
X10789110Y-18530484D01*
X10789110Y-18530484D02*
X10808158Y-18540008D01*
X10808158Y-18540008D02*
X10817682Y-18549531D01*
X10817682Y-18549531D02*
X10827205Y-18568579D01*
X10827205Y-18568579D02*
X10836729Y-18606674D01*
X10836729Y-18606674D02*
X10836729Y-18654293D01*
X10836729Y-18654293D02*
X10827205Y-18692389D01*
X10827205Y-18692389D02*
X10817682Y-18711436D01*
X10817682Y-18711436D02*
X10808158Y-18720960D01*
X10808158Y-18720960D02*
X10789110Y-18730484D01*
X10789110Y-18730484D02*
X10770063Y-18730484D01*
X10770063Y-18730484D02*
X10751015Y-18720960D01*
X10751015Y-18720960D02*
X10741491Y-18711436D01*
X10741491Y-18711436D02*
X10731967Y-18692389D01*
X10731967Y-18692389D02*
X10722444Y-18654293D01*
X10722444Y-18654293D02*
X10722444Y-18606674D01*
X10722444Y-18606674D02*
X10731967Y-18568579D01*
X10731967Y-18568579D02*
X10741491Y-18549531D01*
X10741491Y-18549531D02*
X10751015Y-18540008D01*
X10751015Y-18540008D02*
X10770063Y-18530484D01*
X10960539Y-18530484D02*
X10979586Y-18530484D01*
X10979586Y-18530484D02*
X10998634Y-18540008D01*
X10998634Y-18540008D02*
X11008158Y-18549531D01*
X11008158Y-18549531D02*
X11017682Y-18568579D01*
X11017682Y-18568579D02*
X11027205Y-18606674D01*
X11027205Y-18606674D02*
X11027205Y-18654293D01*
X11027205Y-18654293D02*
X11017682Y-18692389D01*
X11017682Y-18692389D02*
X11008158Y-18711436D01*
X11008158Y-18711436D02*
X10998634Y-18720960D01*
X10998634Y-18720960D02*
X10979586Y-18730484D01*
X10979586Y-18730484D02*
X10960539Y-18730484D01*
X10960539Y-18730484D02*
X10941491Y-18720960D01*
X10941491Y-18720960D02*
X10931967Y-18711436D01*
X10931967Y-18711436D02*
X10922444Y-18692389D01*
X10922444Y-18692389D02*
X10912920Y-18654293D01*
X10912920Y-18654293D02*
X10912920Y-18606674D01*
X10912920Y-18606674D02*
X10922444Y-18568579D01*
X10922444Y-18568579D02*
X10931967Y-18549531D01*
X10931967Y-18549531D02*
X10941491Y-18540008D01*
X10941491Y-18540008D02*
X10960539Y-18530484D01*
X11112920Y-18730484D02*
X11112920Y-18597150D01*
X11112920Y-18616198D02*
X11122444Y-18606674D01*
X11122444Y-18606674D02*
X11141491Y-18597150D01*
X11141491Y-18597150D02*
X11170063Y-18597150D01*
X11170063Y-18597150D02*
X11189110Y-18606674D01*
X11189110Y-18606674D02*
X11198634Y-18625722D01*
X11198634Y-18625722D02*
X11198634Y-18730484D01*
X11198634Y-18625722D02*
X11208158Y-18606674D01*
X11208158Y-18606674D02*
X11227205Y-18597150D01*
X11227205Y-18597150D02*
X11255777Y-18597150D01*
X11255777Y-18597150D02*
X11274824Y-18606674D01*
X11274824Y-18606674D02*
X11284348Y-18625722D01*
X11284348Y-18625722D02*
X11284348Y-18730484D01*
X11379586Y-18730484D02*
X11379586Y-18597150D01*
X11379586Y-18616198D02*
X11389110Y-18606674D01*
X11389110Y-18606674D02*
X11408158Y-18597150D01*
X11408158Y-18597150D02*
X11436729Y-18597150D01*
X11436729Y-18597150D02*
X11455777Y-18606674D01*
X11455777Y-18606674D02*
X11465301Y-18625722D01*
X11465301Y-18625722D02*
X11465301Y-18730484D01*
X11465301Y-18625722D02*
X11474824Y-18606674D01*
X11474824Y-18606674D02*
X11493872Y-18597150D01*
X11493872Y-18597150D02*
X11522443Y-18597150D01*
X11522443Y-18597150D02*
X11541491Y-18606674D01*
X11541491Y-18606674D02*
X11551015Y-18625722D01*
X11551015Y-18625722D02*
X11551015Y-18730484D01*
X11941491Y-18520960D02*
X11770063Y-18778103D01*
X12198634Y-18530484D02*
X12217682Y-18530484D01*
X12217682Y-18530484D02*
X12236729Y-18540008D01*
X12236729Y-18540008D02*
X12246253Y-18549531D01*
X12246253Y-18549531D02*
X12255777Y-18568579D01*
X12255777Y-18568579D02*
X12265301Y-18606674D01*
X12265301Y-18606674D02*
X12265301Y-18654293D01*
X12265301Y-18654293D02*
X12255777Y-18692389D01*
X12255777Y-18692389D02*
X12246253Y-18711436D01*
X12246253Y-18711436D02*
X12236729Y-18720960D01*
X12236729Y-18720960D02*
X12217682Y-18730484D01*
X12217682Y-18730484D02*
X12198634Y-18730484D01*
X12198634Y-18730484D02*
X12179586Y-18720960D01*
X12179586Y-18720960D02*
X12170063Y-18711436D01*
X12170063Y-18711436D02*
X12160539Y-18692389D01*
X12160539Y-18692389D02*
X12151015Y-18654293D01*
X12151015Y-18654293D02*
X12151015Y-18606674D01*
X12151015Y-18606674D02*
X12160539Y-18568579D01*
X12160539Y-18568579D02*
X12170063Y-18549531D01*
X12170063Y-18549531D02*
X12179586Y-18540008D01*
X12179586Y-18540008D02*
X12198634Y-18530484D01*
X12351015Y-18711436D02*
X12360539Y-18720960D01*
X12360539Y-18720960D02*
X12351015Y-18730484D01*
X12351015Y-18730484D02*
X12341491Y-18720960D01*
X12341491Y-18720960D02*
X12351015Y-18711436D01*
X12351015Y-18711436D02*
X12351015Y-18730484D01*
X12484348Y-18530484D02*
X12503396Y-18530484D01*
X12503396Y-18530484D02*
X12522444Y-18540008D01*
X12522444Y-18540008D02*
X12531967Y-18549531D01*
X12531967Y-18549531D02*
X12541491Y-18568579D01*
X12541491Y-18568579D02*
X12551015Y-18606674D01*
X12551015Y-18606674D02*
X12551015Y-18654293D01*
X12551015Y-18654293D02*
X12541491Y-18692389D01*
X12541491Y-18692389D02*
X12531967Y-18711436D01*
X12531967Y-18711436D02*
X12522444Y-18720960D01*
X12522444Y-18720960D02*
X12503396Y-18730484D01*
X12503396Y-18730484D02*
X12484348Y-18730484D01*
X12484348Y-18730484D02*
X12465301Y-18720960D01*
X12465301Y-18720960D02*
X12455777Y-18711436D01*
X12455777Y-18711436D02*
X12446253Y-18692389D01*
X12446253Y-18692389D02*
X12436729Y-18654293D01*
X12436729Y-18654293D02*
X12436729Y-18606674D01*
X12436729Y-18606674D02*
X12446253Y-18568579D01*
X12446253Y-18568579D02*
X12455777Y-18549531D01*
X12455777Y-18549531D02*
X12465301Y-18540008D01*
X12465301Y-18540008D02*
X12484348Y-18530484D01*
X12617682Y-18530484D02*
X12741491Y-18530484D01*
X12741491Y-18530484D02*
X12674825Y-18606674D01*
X12674825Y-18606674D02*
X12703396Y-18606674D01*
X12703396Y-18606674D02*
X12722444Y-18616198D01*
X12722444Y-18616198D02*
X12731967Y-18625722D01*
X12731967Y-18625722D02*
X12741491Y-18644770D01*
X12741491Y-18644770D02*
X12741491Y-18692389D01*
X12741491Y-18692389D02*
X12731967Y-18711436D01*
X12731967Y-18711436D02*
X12722444Y-18720960D01*
X12722444Y-18720960D02*
X12703396Y-18730484D01*
X12703396Y-18730484D02*
X12646253Y-18730484D01*
X12646253Y-18730484D02*
X12627206Y-18720960D01*
X12627206Y-18720960D02*
X12617682Y-18711436D01*
X12836729Y-18730484D02*
X12874825Y-18730484D01*
X12874825Y-18730484D02*
X12893872Y-18720960D01*
X12893872Y-18720960D02*
X12903396Y-18711436D01*
X12903396Y-18711436D02*
X12922444Y-18682865D01*
X12922444Y-18682865D02*
X12931967Y-18644770D01*
X12931967Y-18644770D02*
X12931967Y-18568579D01*
X12931967Y-18568579D02*
X12922444Y-18549531D01*
X12922444Y-18549531D02*
X12912920Y-18540008D01*
X12912920Y-18540008D02*
X12893872Y-18530484D01*
X12893872Y-18530484D02*
X12855777Y-18530484D01*
X12855777Y-18530484D02*
X12836729Y-18540008D01*
X12836729Y-18540008D02*
X12827206Y-18549531D01*
X12827206Y-18549531D02*
X12817682Y-18568579D01*
X12817682Y-18568579D02*
X12817682Y-18616198D01*
X12817682Y-18616198D02*
X12827206Y-18635246D01*
X12827206Y-18635246D02*
X12836729Y-18644770D01*
X12836729Y-18644770D02*
X12855777Y-18654293D01*
X12855777Y-18654293D02*
X12893872Y-18654293D01*
X12893872Y-18654293D02*
X12912920Y-18644770D01*
X12912920Y-18644770D02*
X12922444Y-18635246D01*
X12922444Y-18635246D02*
X12931967Y-18616198D01*
X13103396Y-18597150D02*
X13103396Y-18730484D01*
X13055777Y-18520960D02*
X13008158Y-18663817D01*
X13008158Y-18663817D02*
X13131967Y-18663817D01*
X13198634Y-18530484D02*
X13198634Y-18568579D01*
X13274825Y-18530484D02*
X13274825Y-18568579D01*
X13570063Y-18806674D02*
X13560539Y-18797150D01*
X13560539Y-18797150D02*
X13541491Y-18768579D01*
X13541491Y-18768579D02*
X13531968Y-18749531D01*
X13531968Y-18749531D02*
X13522444Y-18720960D01*
X13522444Y-18720960D02*
X13512920Y-18673341D01*
X13512920Y-18673341D02*
X13512920Y-18635246D01*
X13512920Y-18635246D02*
X13522444Y-18587627D01*
X13522444Y-18587627D02*
X13531968Y-18559055D01*
X13531968Y-18559055D02*
X13541491Y-18540008D01*
X13541491Y-18540008D02*
X13560539Y-18511436D01*
X13560539Y-18511436D02*
X13570063Y-18501912D01*
X13636729Y-18549531D02*
X13646253Y-18540008D01*
X13646253Y-18540008D02*
X13665301Y-18530484D01*
X13665301Y-18530484D02*
X13712920Y-18530484D01*
X13712920Y-18530484D02*
X13731968Y-18540008D01*
X13731968Y-18540008D02*
X13741491Y-18549531D01*
X13741491Y-18549531D02*
X13751015Y-18568579D01*
X13751015Y-18568579D02*
X13751015Y-18587627D01*
X13751015Y-18587627D02*
X13741491Y-18616198D01*
X13741491Y-18616198D02*
X13627206Y-18730484D01*
X13627206Y-18730484D02*
X13751015Y-18730484D01*
X13922444Y-18530484D02*
X13884348Y-18530484D01*
X13884348Y-18530484D02*
X13865301Y-18540008D01*
X13865301Y-18540008D02*
X13855777Y-18549531D01*
X13855777Y-18549531D02*
X13836729Y-18578103D01*
X13836729Y-18578103D02*
X13827206Y-18616198D01*
X13827206Y-18616198D02*
X13827206Y-18692389D01*
X13827206Y-18692389D02*
X13836729Y-18711436D01*
X13836729Y-18711436D02*
X13846253Y-18720960D01*
X13846253Y-18720960D02*
X13865301Y-18730484D01*
X13865301Y-18730484D02*
X13903396Y-18730484D01*
X13903396Y-18730484D02*
X13922444Y-18720960D01*
X13922444Y-18720960D02*
X13931968Y-18711436D01*
X13931968Y-18711436D02*
X13941491Y-18692389D01*
X13941491Y-18692389D02*
X13941491Y-18644770D01*
X13941491Y-18644770D02*
X13931968Y-18625722D01*
X13931968Y-18625722D02*
X13922444Y-18616198D01*
X13922444Y-18616198D02*
X13903396Y-18606674D01*
X13903396Y-18606674D02*
X13865301Y-18606674D01*
X13865301Y-18606674D02*
X13846253Y-18616198D01*
X13846253Y-18616198D02*
X13836729Y-18625722D01*
X13836729Y-18625722D02*
X13827206Y-18644770D01*
X14179587Y-18730484D02*
X14179587Y-18530484D01*
X14265301Y-18730484D02*
X14265301Y-18625722D01*
X14265301Y-18625722D02*
X14255777Y-18606674D01*
X14255777Y-18606674D02*
X14236730Y-18597150D01*
X14236730Y-18597150D02*
X14208158Y-18597150D01*
X14208158Y-18597150D02*
X14189110Y-18606674D01*
X14189110Y-18606674D02*
X14179587Y-18616198D01*
X14389110Y-18730484D02*
X14370063Y-18720960D01*
X14370063Y-18720960D02*
X14360539Y-18711436D01*
X14360539Y-18711436D02*
X14351015Y-18692389D01*
X14351015Y-18692389D02*
X14351015Y-18635246D01*
X14351015Y-18635246D02*
X14360539Y-18616198D01*
X14360539Y-18616198D02*
X14370063Y-18606674D01*
X14370063Y-18606674D02*
X14389110Y-18597150D01*
X14389110Y-18597150D02*
X14417682Y-18597150D01*
X14417682Y-18597150D02*
X14436730Y-18606674D01*
X14436730Y-18606674D02*
X14446253Y-18616198D01*
X14446253Y-18616198D02*
X14455777Y-18635246D01*
X14455777Y-18635246D02*
X14455777Y-18692389D01*
X14455777Y-18692389D02*
X14446253Y-18711436D01*
X14446253Y-18711436D02*
X14436730Y-18720960D01*
X14436730Y-18720960D02*
X14417682Y-18730484D01*
X14417682Y-18730484D02*
X14389110Y-18730484D01*
X14570063Y-18730484D02*
X14551015Y-18720960D01*
X14551015Y-18720960D02*
X14541491Y-18701912D01*
X14541491Y-18701912D02*
X14541491Y-18530484D01*
X14722444Y-18720960D02*
X14703396Y-18730484D01*
X14703396Y-18730484D02*
X14665301Y-18730484D01*
X14665301Y-18730484D02*
X14646253Y-18720960D01*
X14646253Y-18720960D02*
X14636730Y-18701912D01*
X14636730Y-18701912D02*
X14636730Y-18625722D01*
X14636730Y-18625722D02*
X14646253Y-18606674D01*
X14646253Y-18606674D02*
X14665301Y-18597150D01*
X14665301Y-18597150D02*
X14703396Y-18597150D01*
X14703396Y-18597150D02*
X14722444Y-18606674D01*
X14722444Y-18606674D02*
X14731968Y-18625722D01*
X14731968Y-18625722D02*
X14731968Y-18644770D01*
X14731968Y-18644770D02*
X14636730Y-18663817D01*
X14808158Y-18720960D02*
X14827206Y-18730484D01*
X14827206Y-18730484D02*
X14865301Y-18730484D01*
X14865301Y-18730484D02*
X14884349Y-18720960D01*
X14884349Y-18720960D02*
X14893872Y-18701912D01*
X14893872Y-18701912D02*
X14893872Y-18692389D01*
X14893872Y-18692389D02*
X14884349Y-18673341D01*
X14884349Y-18673341D02*
X14865301Y-18663817D01*
X14865301Y-18663817D02*
X14836730Y-18663817D01*
X14836730Y-18663817D02*
X14817682Y-18654293D01*
X14817682Y-18654293D02*
X14808158Y-18635246D01*
X14808158Y-18635246D02*
X14808158Y-18625722D01*
X14808158Y-18625722D02*
X14817682Y-18606674D01*
X14817682Y-18606674D02*
X14836730Y-18597150D01*
X14836730Y-18597150D02*
X14865301Y-18597150D01*
X14865301Y-18597150D02*
X14884349Y-18606674D01*
X14960539Y-18806674D02*
X14970063Y-18797150D01*
X14970063Y-18797150D02*
X14989111Y-18768579D01*
X14989111Y-18768579D02*
X14998634Y-18749531D01*
X14998634Y-18749531D02*
X15008158Y-18720960D01*
X15008158Y-18720960D02*
X15017682Y-18673341D01*
X15017682Y-18673341D02*
X15017682Y-18635246D01*
X15017682Y-18635246D02*
X15008158Y-18587627D01*
X15008158Y-18587627D02*
X14998634Y-18559055D01*
X14998634Y-18559055D02*
X14989111Y-18540008D01*
X14989111Y-18540008D02*
X14970063Y-18511436D01*
X14970063Y-18511436D02*
X14960539Y-18501912D01*
D12*
X9890000Y-18850500D02*
X9995000Y-18955500D01*
X9995000Y-18850500D02*
X9890000Y-18955500D01*
X9979624Y-18940124D02*
X9979624Y-18865877D01*
X9905377Y-18865877D01*
X9905377Y-18940124D01*
X9979624Y-18940124D01*
D11*
X10360539Y-18994484D02*
X10246253Y-18994484D01*
X10303396Y-18994484D02*
X10303396Y-18794484D01*
X10303396Y-18794484D02*
X10284348Y-18823055D01*
X10284348Y-18823055D02*
X10265301Y-18842103D01*
X10265301Y-18842103D02*
X10246253Y-18851627D01*
X10446253Y-18975436D02*
X10455777Y-18984960D01*
X10455777Y-18984960D02*
X10446253Y-18994484D01*
X10446253Y-18994484D02*
X10436729Y-18984960D01*
X10436729Y-18984960D02*
X10446253Y-18975436D01*
X10446253Y-18975436D02*
X10446253Y-18994484D01*
X10579586Y-18794484D02*
X10598634Y-18794484D01*
X10598634Y-18794484D02*
X10617682Y-18804008D01*
X10617682Y-18804008D02*
X10627205Y-18813531D01*
X10627205Y-18813531D02*
X10636729Y-18832579D01*
X10636729Y-18832579D02*
X10646253Y-18870674D01*
X10646253Y-18870674D02*
X10646253Y-18918293D01*
X10646253Y-18918293D02*
X10636729Y-18956389D01*
X10636729Y-18956389D02*
X10627205Y-18975436D01*
X10627205Y-18975436D02*
X10617682Y-18984960D01*
X10617682Y-18984960D02*
X10598634Y-18994484D01*
X10598634Y-18994484D02*
X10579586Y-18994484D01*
X10579586Y-18994484D02*
X10560539Y-18984960D01*
X10560539Y-18984960D02*
X10551015Y-18975436D01*
X10551015Y-18975436D02*
X10541491Y-18956389D01*
X10541491Y-18956389D02*
X10531967Y-18918293D01*
X10531967Y-18918293D02*
X10531967Y-18870674D01*
X10531967Y-18870674D02*
X10541491Y-18832579D01*
X10541491Y-18832579D02*
X10551015Y-18813531D01*
X10551015Y-18813531D02*
X10560539Y-18804008D01*
X10560539Y-18804008D02*
X10579586Y-18794484D01*
X10827205Y-18794484D02*
X10731967Y-18794484D01*
X10731967Y-18794484D02*
X10722444Y-18889722D01*
X10722444Y-18889722D02*
X10731967Y-18880198D01*
X10731967Y-18880198D02*
X10751015Y-18870674D01*
X10751015Y-18870674D02*
X10798634Y-18870674D01*
X10798634Y-18870674D02*
X10817682Y-18880198D01*
X10817682Y-18880198D02*
X10827205Y-18889722D01*
X10827205Y-18889722D02*
X10836729Y-18908770D01*
X10836729Y-18908770D02*
X10836729Y-18956389D01*
X10836729Y-18956389D02*
X10827205Y-18975436D01*
X10827205Y-18975436D02*
X10817682Y-18984960D01*
X10817682Y-18984960D02*
X10798634Y-18994484D01*
X10798634Y-18994484D02*
X10751015Y-18994484D01*
X10751015Y-18994484D02*
X10731967Y-18984960D01*
X10731967Y-18984960D02*
X10722444Y-18975436D01*
X10960539Y-18794484D02*
X10979586Y-18794484D01*
X10979586Y-18794484D02*
X10998634Y-18804008D01*
X10998634Y-18804008D02*
X11008158Y-18813531D01*
X11008158Y-18813531D02*
X11017682Y-18832579D01*
X11017682Y-18832579D02*
X11027205Y-18870674D01*
X11027205Y-18870674D02*
X11027205Y-18918293D01*
X11027205Y-18918293D02*
X11017682Y-18956389D01*
X11017682Y-18956389D02*
X11008158Y-18975436D01*
X11008158Y-18975436D02*
X10998634Y-18984960D01*
X10998634Y-18984960D02*
X10979586Y-18994484D01*
X10979586Y-18994484D02*
X10960539Y-18994484D01*
X10960539Y-18994484D02*
X10941491Y-18984960D01*
X10941491Y-18984960D02*
X10931967Y-18975436D01*
X10931967Y-18975436D02*
X10922444Y-18956389D01*
X10922444Y-18956389D02*
X10912920Y-18918293D01*
X10912920Y-18918293D02*
X10912920Y-18870674D01*
X10912920Y-18870674D02*
X10922444Y-18832579D01*
X10922444Y-18832579D02*
X10931967Y-18813531D01*
X10931967Y-18813531D02*
X10941491Y-18804008D01*
X10941491Y-18804008D02*
X10960539Y-18794484D01*
X11112920Y-18994484D02*
X11112920Y-18861150D01*
X11112920Y-18880198D02*
X11122444Y-18870674D01*
X11122444Y-18870674D02*
X11141491Y-18861150D01*
X11141491Y-18861150D02*
X11170063Y-18861150D01*
X11170063Y-18861150D02*
X11189110Y-18870674D01*
X11189110Y-18870674D02*
X11198634Y-18889722D01*
X11198634Y-18889722D02*
X11198634Y-18994484D01*
X11198634Y-18889722D02*
X11208158Y-18870674D01*
X11208158Y-18870674D02*
X11227205Y-18861150D01*
X11227205Y-18861150D02*
X11255777Y-18861150D01*
X11255777Y-18861150D02*
X11274824Y-18870674D01*
X11274824Y-18870674D02*
X11284348Y-18889722D01*
X11284348Y-18889722D02*
X11284348Y-18994484D01*
X11379586Y-18994484D02*
X11379586Y-18861150D01*
X11379586Y-18880198D02*
X11389110Y-18870674D01*
X11389110Y-18870674D02*
X11408158Y-18861150D01*
X11408158Y-18861150D02*
X11436729Y-18861150D01*
X11436729Y-18861150D02*
X11455777Y-18870674D01*
X11455777Y-18870674D02*
X11465301Y-18889722D01*
X11465301Y-18889722D02*
X11465301Y-18994484D01*
X11465301Y-18889722D02*
X11474824Y-18870674D01*
X11474824Y-18870674D02*
X11493872Y-18861150D01*
X11493872Y-18861150D02*
X11522443Y-18861150D01*
X11522443Y-18861150D02*
X11541491Y-18870674D01*
X11541491Y-18870674D02*
X11551015Y-18889722D01*
X11551015Y-18889722D02*
X11551015Y-18994484D01*
X11941491Y-18784960D02*
X11770063Y-19042103D01*
X12198634Y-18794484D02*
X12217682Y-18794484D01*
X12217682Y-18794484D02*
X12236729Y-18804008D01*
X12236729Y-18804008D02*
X12246253Y-18813531D01*
X12246253Y-18813531D02*
X12255777Y-18832579D01*
X12255777Y-18832579D02*
X12265301Y-18870674D01*
X12265301Y-18870674D02*
X12265301Y-18918293D01*
X12265301Y-18918293D02*
X12255777Y-18956389D01*
X12255777Y-18956389D02*
X12246253Y-18975436D01*
X12246253Y-18975436D02*
X12236729Y-18984960D01*
X12236729Y-18984960D02*
X12217682Y-18994484D01*
X12217682Y-18994484D02*
X12198634Y-18994484D01*
X12198634Y-18994484D02*
X12179586Y-18984960D01*
X12179586Y-18984960D02*
X12170063Y-18975436D01*
X12170063Y-18975436D02*
X12160539Y-18956389D01*
X12160539Y-18956389D02*
X12151015Y-18918293D01*
X12151015Y-18918293D02*
X12151015Y-18870674D01*
X12151015Y-18870674D02*
X12160539Y-18832579D01*
X12160539Y-18832579D02*
X12170063Y-18813531D01*
X12170063Y-18813531D02*
X12179586Y-18804008D01*
X12179586Y-18804008D02*
X12198634Y-18794484D01*
X12351015Y-18975436D02*
X12360539Y-18984960D01*
X12360539Y-18984960D02*
X12351015Y-18994484D01*
X12351015Y-18994484D02*
X12341491Y-18984960D01*
X12341491Y-18984960D02*
X12351015Y-18975436D01*
X12351015Y-18975436D02*
X12351015Y-18994484D01*
X12484348Y-18794484D02*
X12503396Y-18794484D01*
X12503396Y-18794484D02*
X12522444Y-18804008D01*
X12522444Y-18804008D02*
X12531967Y-18813531D01*
X12531967Y-18813531D02*
X12541491Y-18832579D01*
X12541491Y-18832579D02*
X12551015Y-18870674D01*
X12551015Y-18870674D02*
X12551015Y-18918293D01*
X12551015Y-18918293D02*
X12541491Y-18956389D01*
X12541491Y-18956389D02*
X12531967Y-18975436D01*
X12531967Y-18975436D02*
X12522444Y-18984960D01*
X12522444Y-18984960D02*
X12503396Y-18994484D01*
X12503396Y-18994484D02*
X12484348Y-18994484D01*
X12484348Y-18994484D02*
X12465301Y-18984960D01*
X12465301Y-18984960D02*
X12455777Y-18975436D01*
X12455777Y-18975436D02*
X12446253Y-18956389D01*
X12446253Y-18956389D02*
X12436729Y-18918293D01*
X12436729Y-18918293D02*
X12436729Y-18870674D01*
X12436729Y-18870674D02*
X12446253Y-18832579D01*
X12446253Y-18832579D02*
X12455777Y-18813531D01*
X12455777Y-18813531D02*
X12465301Y-18804008D01*
X12465301Y-18804008D02*
X12484348Y-18794484D01*
X12722444Y-18861150D02*
X12722444Y-18994484D01*
X12674825Y-18784960D02*
X12627206Y-18927817D01*
X12627206Y-18927817D02*
X12751015Y-18927817D01*
X12931967Y-18994484D02*
X12817682Y-18994484D01*
X12874825Y-18994484D02*
X12874825Y-18794484D01*
X12874825Y-18794484D02*
X12855777Y-18823055D01*
X12855777Y-18823055D02*
X12836729Y-18842103D01*
X12836729Y-18842103D02*
X12817682Y-18851627D01*
X12998634Y-18794484D02*
X13122444Y-18794484D01*
X13122444Y-18794484D02*
X13055777Y-18870674D01*
X13055777Y-18870674D02*
X13084348Y-18870674D01*
X13084348Y-18870674D02*
X13103396Y-18880198D01*
X13103396Y-18880198D02*
X13112920Y-18889722D01*
X13112920Y-18889722D02*
X13122444Y-18908770D01*
X13122444Y-18908770D02*
X13122444Y-18956389D01*
X13122444Y-18956389D02*
X13112920Y-18975436D01*
X13112920Y-18975436D02*
X13103396Y-18984960D01*
X13103396Y-18984960D02*
X13084348Y-18994484D01*
X13084348Y-18994484D02*
X13027206Y-18994484D01*
X13027206Y-18994484D02*
X13008158Y-18984960D01*
X13008158Y-18984960D02*
X12998634Y-18975436D01*
X13198634Y-18794484D02*
X13198634Y-18832579D01*
X13274825Y-18794484D02*
X13274825Y-18832579D01*
X13570063Y-19070674D02*
X13560539Y-19061150D01*
X13560539Y-19061150D02*
X13541491Y-19032579D01*
X13541491Y-19032579D02*
X13531968Y-19013531D01*
X13531968Y-19013531D02*
X13522444Y-18984960D01*
X13522444Y-18984960D02*
X13512920Y-18937341D01*
X13512920Y-18937341D02*
X13512920Y-18899246D01*
X13512920Y-18899246D02*
X13522444Y-18851627D01*
X13522444Y-18851627D02*
X13531968Y-18823055D01*
X13531968Y-18823055D02*
X13541491Y-18804008D01*
X13541491Y-18804008D02*
X13560539Y-18775436D01*
X13560539Y-18775436D02*
X13570063Y-18765912D01*
X13731968Y-18861150D02*
X13731968Y-18994484D01*
X13684348Y-18784960D02*
X13636729Y-18927817D01*
X13636729Y-18927817D02*
X13760539Y-18927817D01*
X13989110Y-18994484D02*
X13989110Y-18794484D01*
X14074825Y-18994484D02*
X14074825Y-18889722D01*
X14074825Y-18889722D02*
X14065301Y-18870674D01*
X14065301Y-18870674D02*
X14046253Y-18861150D01*
X14046253Y-18861150D02*
X14017682Y-18861150D01*
X14017682Y-18861150D02*
X13998634Y-18870674D01*
X13998634Y-18870674D02*
X13989110Y-18880198D01*
X14198634Y-18994484D02*
X14179587Y-18984960D01*
X14179587Y-18984960D02*
X14170063Y-18975436D01*
X14170063Y-18975436D02*
X14160539Y-18956389D01*
X14160539Y-18956389D02*
X14160539Y-18899246D01*
X14160539Y-18899246D02*
X14170063Y-18880198D01*
X14170063Y-18880198D02*
X14179587Y-18870674D01*
X14179587Y-18870674D02*
X14198634Y-18861150D01*
X14198634Y-18861150D02*
X14227206Y-18861150D01*
X14227206Y-18861150D02*
X14246253Y-18870674D01*
X14246253Y-18870674D02*
X14255777Y-18880198D01*
X14255777Y-18880198D02*
X14265301Y-18899246D01*
X14265301Y-18899246D02*
X14265301Y-18956389D01*
X14265301Y-18956389D02*
X14255777Y-18975436D01*
X14255777Y-18975436D02*
X14246253Y-18984960D01*
X14246253Y-18984960D02*
X14227206Y-18994484D01*
X14227206Y-18994484D02*
X14198634Y-18994484D01*
X14379587Y-18994484D02*
X14360539Y-18984960D01*
X14360539Y-18984960D02*
X14351015Y-18965912D01*
X14351015Y-18965912D02*
X14351015Y-18794484D01*
X14531968Y-18984960D02*
X14512920Y-18994484D01*
X14512920Y-18994484D02*
X14474825Y-18994484D01*
X14474825Y-18994484D02*
X14455777Y-18984960D01*
X14455777Y-18984960D02*
X14446253Y-18965912D01*
X14446253Y-18965912D02*
X14446253Y-18889722D01*
X14446253Y-18889722D02*
X14455777Y-18870674D01*
X14455777Y-18870674D02*
X14474825Y-18861150D01*
X14474825Y-18861150D02*
X14512920Y-18861150D01*
X14512920Y-18861150D02*
X14531968Y-18870674D01*
X14531968Y-18870674D02*
X14541491Y-18889722D01*
X14541491Y-18889722D02*
X14541491Y-18908770D01*
X14541491Y-18908770D02*
X14446253Y-18927817D01*
X14617682Y-18984960D02*
X14636730Y-18994484D01*
X14636730Y-18994484D02*
X14674825Y-18994484D01*
X14674825Y-18994484D02*
X14693872Y-18984960D01*
X14693872Y-18984960D02*
X14703396Y-18965912D01*
X14703396Y-18965912D02*
X14703396Y-18956389D01*
X14703396Y-18956389D02*
X14693872Y-18937341D01*
X14693872Y-18937341D02*
X14674825Y-18927817D01*
X14674825Y-18927817D02*
X14646253Y-18927817D01*
X14646253Y-18927817D02*
X14627206Y-18918293D01*
X14627206Y-18918293D02*
X14617682Y-18899246D01*
X14617682Y-18899246D02*
X14617682Y-18889722D01*
X14617682Y-18889722D02*
X14627206Y-18870674D01*
X14627206Y-18870674D02*
X14646253Y-18861150D01*
X14646253Y-18861150D02*
X14674825Y-18861150D01*
X14674825Y-18861150D02*
X14693872Y-18870674D01*
X14770063Y-19070674D02*
X14779587Y-19061150D01*
X14779587Y-19061150D02*
X14798634Y-19032579D01*
X14798634Y-19032579D02*
X14808158Y-19013531D01*
X14808158Y-19013531D02*
X14817682Y-18984960D01*
X14817682Y-18984960D02*
X14827206Y-18937341D01*
X14827206Y-18937341D02*
X14827206Y-18899246D01*
X14827206Y-18899246D02*
X14817682Y-18851627D01*
X14817682Y-18851627D02*
X14808158Y-18823055D01*
X14808158Y-18823055D02*
X14798634Y-18804008D01*
X14798634Y-18804008D02*
X14779587Y-18775436D01*
X14779587Y-18775436D02*
X14770063Y-18765912D01*
D13*
X9885000Y-19112000D02*
X9995000Y-19222000D01*
X9995000Y-19112000D02*
X9885000Y-19222000D01*
X9940000Y-19222000D02*
X9995000Y-19167000D01*
X9940000Y-19112000D01*
X9885000Y-19167000D01*
X9940000Y-19222000D01*
D11*
X10360539Y-19258484D02*
X10246253Y-19258484D01*
X10303396Y-19258484D02*
X10303396Y-19058484D01*
X10303396Y-19058484D02*
X10284348Y-19087055D01*
X10284348Y-19087055D02*
X10265301Y-19106103D01*
X10265301Y-19106103D02*
X10246253Y-19115627D01*
X10446253Y-19239436D02*
X10455777Y-19248960D01*
X10455777Y-19248960D02*
X10446253Y-19258484D01*
X10446253Y-19258484D02*
X10436729Y-19248960D01*
X10436729Y-19248960D02*
X10446253Y-19239436D01*
X10446253Y-19239436D02*
X10446253Y-19258484D01*
X10646253Y-19258484D02*
X10531967Y-19258484D01*
X10589110Y-19258484D02*
X10589110Y-19058484D01*
X10589110Y-19058484D02*
X10570063Y-19087055D01*
X10570063Y-19087055D02*
X10551015Y-19106103D01*
X10551015Y-19106103D02*
X10531967Y-19115627D01*
X10770063Y-19058484D02*
X10789110Y-19058484D01*
X10789110Y-19058484D02*
X10808158Y-19068008D01*
X10808158Y-19068008D02*
X10817682Y-19077531D01*
X10817682Y-19077531D02*
X10827205Y-19096579D01*
X10827205Y-19096579D02*
X10836729Y-19134674D01*
X10836729Y-19134674D02*
X10836729Y-19182293D01*
X10836729Y-19182293D02*
X10827205Y-19220389D01*
X10827205Y-19220389D02*
X10817682Y-19239436D01*
X10817682Y-19239436D02*
X10808158Y-19248960D01*
X10808158Y-19248960D02*
X10789110Y-19258484D01*
X10789110Y-19258484D02*
X10770063Y-19258484D01*
X10770063Y-19258484D02*
X10751015Y-19248960D01*
X10751015Y-19248960D02*
X10741491Y-19239436D01*
X10741491Y-19239436D02*
X10731967Y-19220389D01*
X10731967Y-19220389D02*
X10722444Y-19182293D01*
X10722444Y-19182293D02*
X10722444Y-19134674D01*
X10722444Y-19134674D02*
X10731967Y-19096579D01*
X10731967Y-19096579D02*
X10741491Y-19077531D01*
X10741491Y-19077531D02*
X10751015Y-19068008D01*
X10751015Y-19068008D02*
X10770063Y-19058484D01*
X10960539Y-19058484D02*
X10979586Y-19058484D01*
X10979586Y-19058484D02*
X10998634Y-19068008D01*
X10998634Y-19068008D02*
X11008158Y-19077531D01*
X11008158Y-19077531D02*
X11017682Y-19096579D01*
X11017682Y-19096579D02*
X11027205Y-19134674D01*
X11027205Y-19134674D02*
X11027205Y-19182293D01*
X11027205Y-19182293D02*
X11017682Y-19220389D01*
X11017682Y-19220389D02*
X11008158Y-19239436D01*
X11008158Y-19239436D02*
X10998634Y-19248960D01*
X10998634Y-19248960D02*
X10979586Y-19258484D01*
X10979586Y-19258484D02*
X10960539Y-19258484D01*
X10960539Y-19258484D02*
X10941491Y-19248960D01*
X10941491Y-19248960D02*
X10931967Y-19239436D01*
X10931967Y-19239436D02*
X10922444Y-19220389D01*
X10922444Y-19220389D02*
X10912920Y-19182293D01*
X10912920Y-19182293D02*
X10912920Y-19134674D01*
X10912920Y-19134674D02*
X10922444Y-19096579D01*
X10922444Y-19096579D02*
X10931967Y-19077531D01*
X10931967Y-19077531D02*
X10941491Y-19068008D01*
X10941491Y-19068008D02*
X10960539Y-19058484D01*
X11112920Y-19258484D02*
X11112920Y-19125150D01*
X11112920Y-19144198D02*
X11122444Y-19134674D01*
X11122444Y-19134674D02*
X11141491Y-19125150D01*
X11141491Y-19125150D02*
X11170063Y-19125150D01*
X11170063Y-19125150D02*
X11189110Y-19134674D01*
X11189110Y-19134674D02*
X11198634Y-19153722D01*
X11198634Y-19153722D02*
X11198634Y-19258484D01*
X11198634Y-19153722D02*
X11208158Y-19134674D01*
X11208158Y-19134674D02*
X11227205Y-19125150D01*
X11227205Y-19125150D02*
X11255777Y-19125150D01*
X11255777Y-19125150D02*
X11274824Y-19134674D01*
X11274824Y-19134674D02*
X11284348Y-19153722D01*
X11284348Y-19153722D02*
X11284348Y-19258484D01*
X11379586Y-19258484D02*
X11379586Y-19125150D01*
X11379586Y-19144198D02*
X11389110Y-19134674D01*
X11389110Y-19134674D02*
X11408158Y-19125150D01*
X11408158Y-19125150D02*
X11436729Y-19125150D01*
X11436729Y-19125150D02*
X11455777Y-19134674D01*
X11455777Y-19134674D02*
X11465301Y-19153722D01*
X11465301Y-19153722D02*
X11465301Y-19258484D01*
X11465301Y-19153722D02*
X11474824Y-19134674D01*
X11474824Y-19134674D02*
X11493872Y-19125150D01*
X11493872Y-19125150D02*
X11522443Y-19125150D01*
X11522443Y-19125150D02*
X11541491Y-19134674D01*
X11541491Y-19134674D02*
X11551015Y-19153722D01*
X11551015Y-19153722D02*
X11551015Y-19258484D01*
X11941491Y-19048960D02*
X11770063Y-19306103D01*
X12198634Y-19058484D02*
X12217682Y-19058484D01*
X12217682Y-19058484D02*
X12236729Y-19068008D01*
X12236729Y-19068008D02*
X12246253Y-19077531D01*
X12246253Y-19077531D02*
X12255777Y-19096579D01*
X12255777Y-19096579D02*
X12265301Y-19134674D01*
X12265301Y-19134674D02*
X12265301Y-19182293D01*
X12265301Y-19182293D02*
X12255777Y-19220389D01*
X12255777Y-19220389D02*
X12246253Y-19239436D01*
X12246253Y-19239436D02*
X12236729Y-19248960D01*
X12236729Y-19248960D02*
X12217682Y-19258484D01*
X12217682Y-19258484D02*
X12198634Y-19258484D01*
X12198634Y-19258484D02*
X12179586Y-19248960D01*
X12179586Y-19248960D02*
X12170063Y-19239436D01*
X12170063Y-19239436D02*
X12160539Y-19220389D01*
X12160539Y-19220389D02*
X12151015Y-19182293D01*
X12151015Y-19182293D02*
X12151015Y-19134674D01*
X12151015Y-19134674D02*
X12160539Y-19096579D01*
X12160539Y-19096579D02*
X12170063Y-19077531D01*
X12170063Y-19077531D02*
X12179586Y-19068008D01*
X12179586Y-19068008D02*
X12198634Y-19058484D01*
X12351015Y-19239436D02*
X12360539Y-19248960D01*
X12360539Y-19248960D02*
X12351015Y-19258484D01*
X12351015Y-19258484D02*
X12341491Y-19248960D01*
X12341491Y-19248960D02*
X12351015Y-19239436D01*
X12351015Y-19239436D02*
X12351015Y-19258484D01*
X12484348Y-19058484D02*
X12503396Y-19058484D01*
X12503396Y-19058484D02*
X12522444Y-19068008D01*
X12522444Y-19068008D02*
X12531967Y-19077531D01*
X12531967Y-19077531D02*
X12541491Y-19096579D01*
X12541491Y-19096579D02*
X12551015Y-19134674D01*
X12551015Y-19134674D02*
X12551015Y-19182293D01*
X12551015Y-19182293D02*
X12541491Y-19220389D01*
X12541491Y-19220389D02*
X12531967Y-19239436D01*
X12531967Y-19239436D02*
X12522444Y-19248960D01*
X12522444Y-19248960D02*
X12503396Y-19258484D01*
X12503396Y-19258484D02*
X12484348Y-19258484D01*
X12484348Y-19258484D02*
X12465301Y-19248960D01*
X12465301Y-19248960D02*
X12455777Y-19239436D01*
X12455777Y-19239436D02*
X12446253Y-19220389D01*
X12446253Y-19220389D02*
X12436729Y-19182293D01*
X12436729Y-19182293D02*
X12436729Y-19134674D01*
X12436729Y-19134674D02*
X12446253Y-19096579D01*
X12446253Y-19096579D02*
X12455777Y-19077531D01*
X12455777Y-19077531D02*
X12465301Y-19068008D01*
X12465301Y-19068008D02*
X12484348Y-19058484D01*
X12722444Y-19125150D02*
X12722444Y-19258484D01*
X12674825Y-19048960D02*
X12627206Y-19191817D01*
X12627206Y-19191817D02*
X12751015Y-19191817D01*
X12808158Y-19058484D02*
X12931967Y-19058484D01*
X12931967Y-19058484D02*
X12865301Y-19134674D01*
X12865301Y-19134674D02*
X12893872Y-19134674D01*
X12893872Y-19134674D02*
X12912920Y-19144198D01*
X12912920Y-19144198D02*
X12922444Y-19153722D01*
X12922444Y-19153722D02*
X12931967Y-19172770D01*
X12931967Y-19172770D02*
X12931967Y-19220389D01*
X12931967Y-19220389D02*
X12922444Y-19239436D01*
X12922444Y-19239436D02*
X12912920Y-19248960D01*
X12912920Y-19248960D02*
X12893872Y-19258484D01*
X12893872Y-19258484D02*
X12836729Y-19258484D01*
X12836729Y-19258484D02*
X12817682Y-19248960D01*
X12817682Y-19248960D02*
X12808158Y-19239436D01*
X12998634Y-19058484D02*
X13122444Y-19058484D01*
X13122444Y-19058484D02*
X13055777Y-19134674D01*
X13055777Y-19134674D02*
X13084348Y-19134674D01*
X13084348Y-19134674D02*
X13103396Y-19144198D01*
X13103396Y-19144198D02*
X13112920Y-19153722D01*
X13112920Y-19153722D02*
X13122444Y-19172770D01*
X13122444Y-19172770D02*
X13122444Y-19220389D01*
X13122444Y-19220389D02*
X13112920Y-19239436D01*
X13112920Y-19239436D02*
X13103396Y-19248960D01*
X13103396Y-19248960D02*
X13084348Y-19258484D01*
X13084348Y-19258484D02*
X13027206Y-19258484D01*
X13027206Y-19258484D02*
X13008158Y-19248960D01*
X13008158Y-19248960D02*
X12998634Y-19239436D01*
X13198634Y-19058484D02*
X13198634Y-19096579D01*
X13274825Y-19058484D02*
X13274825Y-19096579D01*
X13570063Y-19334674D02*
X13560539Y-19325150D01*
X13560539Y-19325150D02*
X13541491Y-19296579D01*
X13541491Y-19296579D02*
X13531968Y-19277531D01*
X13531968Y-19277531D02*
X13522444Y-19248960D01*
X13522444Y-19248960D02*
X13512920Y-19201341D01*
X13512920Y-19201341D02*
X13512920Y-19163246D01*
X13512920Y-19163246D02*
X13522444Y-19115627D01*
X13522444Y-19115627D02*
X13531968Y-19087055D01*
X13531968Y-19087055D02*
X13541491Y-19068008D01*
X13541491Y-19068008D02*
X13560539Y-19039436D01*
X13560539Y-19039436D02*
X13570063Y-19029912D01*
X13636729Y-19077531D02*
X13646253Y-19068008D01*
X13646253Y-19068008D02*
X13665301Y-19058484D01*
X13665301Y-19058484D02*
X13712920Y-19058484D01*
X13712920Y-19058484D02*
X13731968Y-19068008D01*
X13731968Y-19068008D02*
X13741491Y-19077531D01*
X13741491Y-19077531D02*
X13751015Y-19096579D01*
X13751015Y-19096579D02*
X13751015Y-19115627D01*
X13751015Y-19115627D02*
X13741491Y-19144198D01*
X13741491Y-19144198D02*
X13627206Y-19258484D01*
X13627206Y-19258484D02*
X13751015Y-19258484D01*
X13989110Y-19258484D02*
X13989110Y-19058484D01*
X14074825Y-19258484D02*
X14074825Y-19153722D01*
X14074825Y-19153722D02*
X14065301Y-19134674D01*
X14065301Y-19134674D02*
X14046253Y-19125150D01*
X14046253Y-19125150D02*
X14017682Y-19125150D01*
X14017682Y-19125150D02*
X13998634Y-19134674D01*
X13998634Y-19134674D02*
X13989110Y-19144198D01*
X14198634Y-19258484D02*
X14179587Y-19248960D01*
X14179587Y-19248960D02*
X14170063Y-19239436D01*
X14170063Y-19239436D02*
X14160539Y-19220389D01*
X14160539Y-19220389D02*
X14160539Y-19163246D01*
X14160539Y-19163246D02*
X14170063Y-19144198D01*
X14170063Y-19144198D02*
X14179587Y-19134674D01*
X14179587Y-19134674D02*
X14198634Y-19125150D01*
X14198634Y-19125150D02*
X14227206Y-19125150D01*
X14227206Y-19125150D02*
X14246253Y-19134674D01*
X14246253Y-19134674D02*
X14255777Y-19144198D01*
X14255777Y-19144198D02*
X14265301Y-19163246D01*
X14265301Y-19163246D02*
X14265301Y-19220389D01*
X14265301Y-19220389D02*
X14255777Y-19239436D01*
X14255777Y-19239436D02*
X14246253Y-19248960D01*
X14246253Y-19248960D02*
X14227206Y-19258484D01*
X14227206Y-19258484D02*
X14198634Y-19258484D01*
X14379587Y-19258484D02*
X14360539Y-19248960D01*
X14360539Y-19248960D02*
X14351015Y-19229912D01*
X14351015Y-19229912D02*
X14351015Y-19058484D01*
X14531968Y-19248960D02*
X14512920Y-19258484D01*
X14512920Y-19258484D02*
X14474825Y-19258484D01*
X14474825Y-19258484D02*
X14455777Y-19248960D01*
X14455777Y-19248960D02*
X14446253Y-19229912D01*
X14446253Y-19229912D02*
X14446253Y-19153722D01*
X14446253Y-19153722D02*
X14455777Y-19134674D01*
X14455777Y-19134674D02*
X14474825Y-19125150D01*
X14474825Y-19125150D02*
X14512920Y-19125150D01*
X14512920Y-19125150D02*
X14531968Y-19134674D01*
X14531968Y-19134674D02*
X14541491Y-19153722D01*
X14541491Y-19153722D02*
X14541491Y-19172770D01*
X14541491Y-19172770D02*
X14446253Y-19191817D01*
X14617682Y-19248960D02*
X14636730Y-19258484D01*
X14636730Y-19258484D02*
X14674825Y-19258484D01*
X14674825Y-19258484D02*
X14693872Y-19248960D01*
X14693872Y-19248960D02*
X14703396Y-19229912D01*
X14703396Y-19229912D02*
X14703396Y-19220389D01*
X14703396Y-19220389D02*
X14693872Y-19201341D01*
X14693872Y-19201341D02*
X14674825Y-19191817D01*
X14674825Y-19191817D02*
X14646253Y-19191817D01*
X14646253Y-19191817D02*
X14627206Y-19182293D01*
X14627206Y-19182293D02*
X14617682Y-19163246D01*
X14617682Y-19163246D02*
X14617682Y-19153722D01*
X14617682Y-19153722D02*
X14627206Y-19134674D01*
X14627206Y-19134674D02*
X14646253Y-19125150D01*
X14646253Y-19125150D02*
X14674825Y-19125150D01*
X14674825Y-19125150D02*
X14693872Y-19134674D01*
X14770063Y-19334674D02*
X14779587Y-19325150D01*
X14779587Y-19325150D02*
X14798634Y-19296579D01*
X14798634Y-19296579D02*
X14808158Y-19277531D01*
X14808158Y-19277531D02*
X14817682Y-19248960D01*
X14817682Y-19248960D02*
X14827206Y-19201341D01*
X14827206Y-19201341D02*
X14827206Y-19163246D01*
X14827206Y-19163246D02*
X14817682Y-19115627D01*
X14817682Y-19115627D02*
X14808158Y-19087055D01*
X14808158Y-19087055D02*
X14798634Y-19068008D01*
X14798634Y-19068008D02*
X14779587Y-19039436D01*
X14779587Y-19039436D02*
X14770063Y-19029912D01*
D14*
X9930000Y-19366000D02*
X9930000Y-19496000D01*
X9865000Y-19431000D02*
X9995000Y-19431000D01*
X9995000Y-19431000D02*
G75*
G02*
X9865000Y-19431000I-65000J0D01*
G01*
X9865000Y-19431000D02*
G75*
G02*
X9995000Y-19431000I65000J0D01*
G01*
D11*
X10360539Y-19522484D02*
X10246253Y-19522484D01*
X10303396Y-19522484D02*
X10303396Y-19322484D01*
X10303396Y-19322484D02*
X10284348Y-19351055D01*
X10284348Y-19351055D02*
X10265301Y-19370103D01*
X10265301Y-19370103D02*
X10246253Y-19379627D01*
X10446253Y-19503436D02*
X10455777Y-19512960D01*
X10455777Y-19512960D02*
X10446253Y-19522484D01*
X10446253Y-19522484D02*
X10436729Y-19512960D01*
X10436729Y-19512960D02*
X10446253Y-19503436D01*
X10446253Y-19503436D02*
X10446253Y-19522484D01*
X10522444Y-19322484D02*
X10646253Y-19322484D01*
X10646253Y-19322484D02*
X10579586Y-19398674D01*
X10579586Y-19398674D02*
X10608158Y-19398674D01*
X10608158Y-19398674D02*
X10627205Y-19408198D01*
X10627205Y-19408198D02*
X10636729Y-19417722D01*
X10636729Y-19417722D02*
X10646253Y-19436770D01*
X10646253Y-19436770D02*
X10646253Y-19484389D01*
X10646253Y-19484389D02*
X10636729Y-19503436D01*
X10636729Y-19503436D02*
X10627205Y-19512960D01*
X10627205Y-19512960D02*
X10608158Y-19522484D01*
X10608158Y-19522484D02*
X10551015Y-19522484D01*
X10551015Y-19522484D02*
X10531967Y-19512960D01*
X10531967Y-19512960D02*
X10522444Y-19503436D01*
X10770063Y-19322484D02*
X10789110Y-19322484D01*
X10789110Y-19322484D02*
X10808158Y-19332008D01*
X10808158Y-19332008D02*
X10817682Y-19341531D01*
X10817682Y-19341531D02*
X10827205Y-19360579D01*
X10827205Y-19360579D02*
X10836729Y-19398674D01*
X10836729Y-19398674D02*
X10836729Y-19446293D01*
X10836729Y-19446293D02*
X10827205Y-19484389D01*
X10827205Y-19484389D02*
X10817682Y-19503436D01*
X10817682Y-19503436D02*
X10808158Y-19512960D01*
X10808158Y-19512960D02*
X10789110Y-19522484D01*
X10789110Y-19522484D02*
X10770063Y-19522484D01*
X10770063Y-19522484D02*
X10751015Y-19512960D01*
X10751015Y-19512960D02*
X10741491Y-19503436D01*
X10741491Y-19503436D02*
X10731967Y-19484389D01*
X10731967Y-19484389D02*
X10722444Y-19446293D01*
X10722444Y-19446293D02*
X10722444Y-19398674D01*
X10722444Y-19398674D02*
X10731967Y-19360579D01*
X10731967Y-19360579D02*
X10741491Y-19341531D01*
X10741491Y-19341531D02*
X10751015Y-19332008D01*
X10751015Y-19332008D02*
X10770063Y-19322484D01*
X10960539Y-19322484D02*
X10979586Y-19322484D01*
X10979586Y-19322484D02*
X10998634Y-19332008D01*
X10998634Y-19332008D02*
X11008158Y-19341531D01*
X11008158Y-19341531D02*
X11017682Y-19360579D01*
X11017682Y-19360579D02*
X11027205Y-19398674D01*
X11027205Y-19398674D02*
X11027205Y-19446293D01*
X11027205Y-19446293D02*
X11017682Y-19484389D01*
X11017682Y-19484389D02*
X11008158Y-19503436D01*
X11008158Y-19503436D02*
X10998634Y-19512960D01*
X10998634Y-19512960D02*
X10979586Y-19522484D01*
X10979586Y-19522484D02*
X10960539Y-19522484D01*
X10960539Y-19522484D02*
X10941491Y-19512960D01*
X10941491Y-19512960D02*
X10931967Y-19503436D01*
X10931967Y-19503436D02*
X10922444Y-19484389D01*
X10922444Y-19484389D02*
X10912920Y-19446293D01*
X10912920Y-19446293D02*
X10912920Y-19398674D01*
X10912920Y-19398674D02*
X10922444Y-19360579D01*
X10922444Y-19360579D02*
X10931967Y-19341531D01*
X10931967Y-19341531D02*
X10941491Y-19332008D01*
X10941491Y-19332008D02*
X10960539Y-19322484D01*
X11112920Y-19522484D02*
X11112920Y-19389150D01*
X11112920Y-19408198D02*
X11122444Y-19398674D01*
X11122444Y-19398674D02*
X11141491Y-19389150D01*
X11141491Y-19389150D02*
X11170063Y-19389150D01*
X11170063Y-19389150D02*
X11189110Y-19398674D01*
X11189110Y-19398674D02*
X11198634Y-19417722D01*
X11198634Y-19417722D02*
X11198634Y-19522484D01*
X11198634Y-19417722D02*
X11208158Y-19398674D01*
X11208158Y-19398674D02*
X11227205Y-19389150D01*
X11227205Y-19389150D02*
X11255777Y-19389150D01*
X11255777Y-19389150D02*
X11274824Y-19398674D01*
X11274824Y-19398674D02*
X11284348Y-19417722D01*
X11284348Y-19417722D02*
X11284348Y-19522484D01*
X11379586Y-19522484D02*
X11379586Y-19389150D01*
X11379586Y-19408198D02*
X11389110Y-19398674D01*
X11389110Y-19398674D02*
X11408158Y-19389150D01*
X11408158Y-19389150D02*
X11436729Y-19389150D01*
X11436729Y-19389150D02*
X11455777Y-19398674D01*
X11455777Y-19398674D02*
X11465301Y-19417722D01*
X11465301Y-19417722D02*
X11465301Y-19522484D01*
X11465301Y-19417722D02*
X11474824Y-19398674D01*
X11474824Y-19398674D02*
X11493872Y-19389150D01*
X11493872Y-19389150D02*
X11522443Y-19389150D01*
X11522443Y-19389150D02*
X11541491Y-19398674D01*
X11541491Y-19398674D02*
X11551015Y-19417722D01*
X11551015Y-19417722D02*
X11551015Y-19522484D01*
X11941491Y-19312960D02*
X11770063Y-19570103D01*
X12198634Y-19322484D02*
X12217682Y-19322484D01*
X12217682Y-19322484D02*
X12236729Y-19332008D01*
X12236729Y-19332008D02*
X12246253Y-19341531D01*
X12246253Y-19341531D02*
X12255777Y-19360579D01*
X12255777Y-19360579D02*
X12265301Y-19398674D01*
X12265301Y-19398674D02*
X12265301Y-19446293D01*
X12265301Y-19446293D02*
X12255777Y-19484389D01*
X12255777Y-19484389D02*
X12246253Y-19503436D01*
X12246253Y-19503436D02*
X12236729Y-19512960D01*
X12236729Y-19512960D02*
X12217682Y-19522484D01*
X12217682Y-19522484D02*
X12198634Y-19522484D01*
X12198634Y-19522484D02*
X12179586Y-19512960D01*
X12179586Y-19512960D02*
X12170063Y-19503436D01*
X12170063Y-19503436D02*
X12160539Y-19484389D01*
X12160539Y-19484389D02*
X12151015Y-19446293D01*
X12151015Y-19446293D02*
X12151015Y-19398674D01*
X12151015Y-19398674D02*
X12160539Y-19360579D01*
X12160539Y-19360579D02*
X12170063Y-19341531D01*
X12170063Y-19341531D02*
X12179586Y-19332008D01*
X12179586Y-19332008D02*
X12198634Y-19322484D01*
X12351015Y-19503436D02*
X12360539Y-19512960D01*
X12360539Y-19512960D02*
X12351015Y-19522484D01*
X12351015Y-19522484D02*
X12341491Y-19512960D01*
X12341491Y-19512960D02*
X12351015Y-19503436D01*
X12351015Y-19503436D02*
X12351015Y-19522484D01*
X12484348Y-19322484D02*
X12503396Y-19322484D01*
X12503396Y-19322484D02*
X12522444Y-19332008D01*
X12522444Y-19332008D02*
X12531967Y-19341531D01*
X12531967Y-19341531D02*
X12541491Y-19360579D01*
X12541491Y-19360579D02*
X12551015Y-19398674D01*
X12551015Y-19398674D02*
X12551015Y-19446293D01*
X12551015Y-19446293D02*
X12541491Y-19484389D01*
X12541491Y-19484389D02*
X12531967Y-19503436D01*
X12531967Y-19503436D02*
X12522444Y-19512960D01*
X12522444Y-19512960D02*
X12503396Y-19522484D01*
X12503396Y-19522484D02*
X12484348Y-19522484D01*
X12484348Y-19522484D02*
X12465301Y-19512960D01*
X12465301Y-19512960D02*
X12455777Y-19503436D01*
X12455777Y-19503436D02*
X12446253Y-19484389D01*
X12446253Y-19484389D02*
X12436729Y-19446293D01*
X12436729Y-19446293D02*
X12436729Y-19398674D01*
X12436729Y-19398674D02*
X12446253Y-19360579D01*
X12446253Y-19360579D02*
X12455777Y-19341531D01*
X12455777Y-19341531D02*
X12465301Y-19332008D01*
X12465301Y-19332008D02*
X12484348Y-19322484D01*
X12731967Y-19322484D02*
X12636729Y-19322484D01*
X12636729Y-19322484D02*
X12627206Y-19417722D01*
X12627206Y-19417722D02*
X12636729Y-19408198D01*
X12636729Y-19408198D02*
X12655777Y-19398674D01*
X12655777Y-19398674D02*
X12703396Y-19398674D01*
X12703396Y-19398674D02*
X12722444Y-19408198D01*
X12722444Y-19408198D02*
X12731967Y-19417722D01*
X12731967Y-19417722D02*
X12741491Y-19436770D01*
X12741491Y-19436770D02*
X12741491Y-19484389D01*
X12741491Y-19484389D02*
X12731967Y-19503436D01*
X12731967Y-19503436D02*
X12722444Y-19512960D01*
X12722444Y-19512960D02*
X12703396Y-19522484D01*
X12703396Y-19522484D02*
X12655777Y-19522484D01*
X12655777Y-19522484D02*
X12636729Y-19512960D01*
X12636729Y-19512960D02*
X12627206Y-19503436D01*
X12931967Y-19522484D02*
X12817682Y-19522484D01*
X12874825Y-19522484D02*
X12874825Y-19322484D01*
X12874825Y-19322484D02*
X12855777Y-19351055D01*
X12855777Y-19351055D02*
X12836729Y-19370103D01*
X12836729Y-19370103D02*
X12817682Y-19379627D01*
X13008158Y-19341531D02*
X13017682Y-19332008D01*
X13017682Y-19332008D02*
X13036729Y-19322484D01*
X13036729Y-19322484D02*
X13084348Y-19322484D01*
X13084348Y-19322484D02*
X13103396Y-19332008D01*
X13103396Y-19332008D02*
X13112920Y-19341531D01*
X13112920Y-19341531D02*
X13122444Y-19360579D01*
X13122444Y-19360579D02*
X13122444Y-19379627D01*
X13122444Y-19379627D02*
X13112920Y-19408198D01*
X13112920Y-19408198D02*
X12998634Y-19522484D01*
X12998634Y-19522484D02*
X13122444Y-19522484D01*
X13198634Y-19322484D02*
X13198634Y-19360579D01*
X13274825Y-19322484D02*
X13274825Y-19360579D01*
X13570063Y-19598674D02*
X13560539Y-19589150D01*
X13560539Y-19589150D02*
X13541491Y-19560579D01*
X13541491Y-19560579D02*
X13531968Y-19541531D01*
X13531968Y-19541531D02*
X13522444Y-19512960D01*
X13522444Y-19512960D02*
X13512920Y-19465341D01*
X13512920Y-19465341D02*
X13512920Y-19427246D01*
X13512920Y-19427246D02*
X13522444Y-19379627D01*
X13522444Y-19379627D02*
X13531968Y-19351055D01*
X13531968Y-19351055D02*
X13541491Y-19332008D01*
X13541491Y-19332008D02*
X13560539Y-19303436D01*
X13560539Y-19303436D02*
X13570063Y-19293912D01*
X13751015Y-19522484D02*
X13636729Y-19522484D01*
X13693872Y-19522484D02*
X13693872Y-19322484D01*
X13693872Y-19322484D02*
X13674825Y-19351055D01*
X13674825Y-19351055D02*
X13655777Y-19370103D01*
X13655777Y-19370103D02*
X13636729Y-19379627D01*
X13874825Y-19322484D02*
X13893872Y-19322484D01*
X13893872Y-19322484D02*
X13912920Y-19332008D01*
X13912920Y-19332008D02*
X13922444Y-19341531D01*
X13922444Y-19341531D02*
X13931968Y-19360579D01*
X13931968Y-19360579D02*
X13941491Y-19398674D01*
X13941491Y-19398674D02*
X13941491Y-19446293D01*
X13941491Y-19446293D02*
X13931968Y-19484389D01*
X13931968Y-19484389D02*
X13922444Y-19503436D01*
X13922444Y-19503436D02*
X13912920Y-19512960D01*
X13912920Y-19512960D02*
X13893872Y-19522484D01*
X13893872Y-19522484D02*
X13874825Y-19522484D01*
X13874825Y-19522484D02*
X13855777Y-19512960D01*
X13855777Y-19512960D02*
X13846253Y-19503436D01*
X13846253Y-19503436D02*
X13836729Y-19484389D01*
X13836729Y-19484389D02*
X13827206Y-19446293D01*
X13827206Y-19446293D02*
X13827206Y-19398674D01*
X13827206Y-19398674D02*
X13836729Y-19360579D01*
X13836729Y-19360579D02*
X13846253Y-19341531D01*
X13846253Y-19341531D02*
X13855777Y-19332008D01*
X13855777Y-19332008D02*
X13874825Y-19322484D01*
X14179587Y-19522484D02*
X14179587Y-19322484D01*
X14265301Y-19522484D02*
X14265301Y-19417722D01*
X14265301Y-19417722D02*
X14255777Y-19398674D01*
X14255777Y-19398674D02*
X14236730Y-19389150D01*
X14236730Y-19389150D02*
X14208158Y-19389150D01*
X14208158Y-19389150D02*
X14189110Y-19398674D01*
X14189110Y-19398674D02*
X14179587Y-19408198D01*
X14389110Y-19522484D02*
X14370063Y-19512960D01*
X14370063Y-19512960D02*
X14360539Y-19503436D01*
X14360539Y-19503436D02*
X14351015Y-19484389D01*
X14351015Y-19484389D02*
X14351015Y-19427246D01*
X14351015Y-19427246D02*
X14360539Y-19408198D01*
X14360539Y-19408198D02*
X14370063Y-19398674D01*
X14370063Y-19398674D02*
X14389110Y-19389150D01*
X14389110Y-19389150D02*
X14417682Y-19389150D01*
X14417682Y-19389150D02*
X14436730Y-19398674D01*
X14436730Y-19398674D02*
X14446253Y-19408198D01*
X14446253Y-19408198D02*
X14455777Y-19427246D01*
X14455777Y-19427246D02*
X14455777Y-19484389D01*
X14455777Y-19484389D02*
X14446253Y-19503436D01*
X14446253Y-19503436D02*
X14436730Y-19512960D01*
X14436730Y-19512960D02*
X14417682Y-19522484D01*
X14417682Y-19522484D02*
X14389110Y-19522484D01*
X14570063Y-19522484D02*
X14551015Y-19512960D01*
X14551015Y-19512960D02*
X14541491Y-19493912D01*
X14541491Y-19493912D02*
X14541491Y-19322484D01*
X14722444Y-19512960D02*
X14703396Y-19522484D01*
X14703396Y-19522484D02*
X14665301Y-19522484D01*
X14665301Y-19522484D02*
X14646253Y-19512960D01*
X14646253Y-19512960D02*
X14636730Y-19493912D01*
X14636730Y-19493912D02*
X14636730Y-19417722D01*
X14636730Y-19417722D02*
X14646253Y-19398674D01*
X14646253Y-19398674D02*
X14665301Y-19389150D01*
X14665301Y-19389150D02*
X14703396Y-19389150D01*
X14703396Y-19389150D02*
X14722444Y-19398674D01*
X14722444Y-19398674D02*
X14731968Y-19417722D01*
X14731968Y-19417722D02*
X14731968Y-19436770D01*
X14731968Y-19436770D02*
X14636730Y-19455817D01*
X14808158Y-19512960D02*
X14827206Y-19522484D01*
X14827206Y-19522484D02*
X14865301Y-19522484D01*
X14865301Y-19522484D02*
X14884349Y-19512960D01*
X14884349Y-19512960D02*
X14893872Y-19493912D01*
X14893872Y-19493912D02*
X14893872Y-19484389D01*
X14893872Y-19484389D02*
X14884349Y-19465341D01*
X14884349Y-19465341D02*
X14865301Y-19455817D01*
X14865301Y-19455817D02*
X14836730Y-19455817D01*
X14836730Y-19455817D02*
X14817682Y-19446293D01*
X14817682Y-19446293D02*
X14808158Y-19427246D01*
X14808158Y-19427246D02*
X14808158Y-19417722D01*
X14808158Y-19417722D02*
X14817682Y-19398674D01*
X14817682Y-19398674D02*
X14836730Y-19389150D01*
X14836730Y-19389150D02*
X14865301Y-19389150D01*
X14865301Y-19389150D02*
X14884349Y-19398674D01*
X14960539Y-19598674D02*
X14970063Y-19589150D01*
X14970063Y-19589150D02*
X14989111Y-19560579D01*
X14989111Y-19560579D02*
X14998634Y-19541531D01*
X14998634Y-19541531D02*
X15008158Y-19512960D01*
X15008158Y-19512960D02*
X15017682Y-19465341D01*
X15017682Y-19465341D02*
X15017682Y-19427246D01*
X15017682Y-19427246D02*
X15008158Y-19379627D01*
X15008158Y-19379627D02*
X14998634Y-19351055D01*
X14998634Y-19351055D02*
X14989111Y-19332008D01*
X14989111Y-19332008D02*
X14970063Y-19303436D01*
X14970063Y-19303436D02*
X14960539Y-19293912D01*
M02*
