M48
; DRILL file KiCad 10.0.5 date 2026-07-29T13:50:02
; FORMAT={-:-/ absolute / metric / decimal}
; #@! TF.CreationDate,2026-07-29T13:50:02-07:00
; #@! TF.GenerationSoftware,Kicad,Pcbnew,10.0.5
; #@! TF.FileFunction,Plated,1,2,PTH
FMAT,2
METRIC
; #@! TA.AperFunction,Plated,PTH,ComponentDrill
T1C0.200
; #@! TA.AperFunction,Plated,PTH,ViaDrill
T2C0.300
; #@! TA.AperFunction,Plated,PTH,ViaDrill
T3C0.400
; #@! TA.AperFunction,Plated,PTH,ComponentDrill
T4C0.600
; #@! TA.AperFunction,Plated,PTH,ComponentDrill
T5C0.800
; #@! TA.AperFunction,Plated,PTH,ComponentDrill
T6C0.900
; #@! TA.AperFunction,Plated,PTH,ComponentDrill
T7C1.000
; #@! TA.AperFunction,Plated,PTH,ComponentDrill
T8C1.050
; #@! TA.AperFunction,Plated,PTH,ComponentDrill
T9C1.100
; #@! TA.AperFunction,Plated,PTH,ComponentDrill
T10C1.300
%
G90
G05
T1
X171.796Y-109.49
X171.796Y-110.89
X172.496Y-108.79
X172.496Y-110.19
X172.496Y-111.59
X173.196Y-109.49
X173.196Y-110.89
X173.896Y-108.79
X173.896Y-110.19
X173.896Y-111.59
X174.596Y-109.49
X174.596Y-110.89
T2
X163.391Y-104.608
X163.391Y-113.329
X180.92Y-107.007
X189.517Y-130.334
X190.399Y-141.472
X192.59Y-95.888
X205.37Y-98.42
T3
X158.196Y-82.75
X158.196Y-86.25
X158.196Y-89.75
X158.196Y-93.25
X158.196Y-96.75
X158.196Y-100.25
X158.196Y-103.75
X158.196Y-107.25
X158.196Y-110.75
X158.196Y-114.25
X158.196Y-117.75
X158.196Y-121.25
X158.196Y-124.75
X158.196Y-128.25
X158.196Y-131.75
X158.196Y-138.75
X158.196Y-142.25
X158.196Y-145.75
X158.196Y-156.25
X161.696Y-82.75
X161.696Y-86.25
X161.696Y-89.75
X161.696Y-93.25
X161.696Y-96.75
X161.696Y-100.25
X161.696Y-103.75
X161.696Y-107.25
X161.696Y-110.75
X161.696Y-114.25
X161.696Y-117.75
X161.696Y-121.25
X161.696Y-124.75
X161.696Y-128.25
X161.696Y-131.75
X161.696Y-135.25
X161.696Y-138.75
X161.696Y-145.75
X161.696Y-149.25
X161.696Y-152.75
X161.696Y-156.25
X163.796Y-102.47
X165.196Y-82.75
X165.196Y-86.25
X165.196Y-89.75
X165.196Y-93.25
X165.196Y-121.25
X165.196Y-124.75
X165.196Y-128.25
X165.196Y-131.75
X165.196Y-135.25
X165.196Y-138.75
X165.196Y-145.75
X165.196Y-156.25
X168.696Y-82.75
X168.696Y-86.25
X168.696Y-89.75
X168.696Y-93.25
X168.696Y-103.75
X168.696Y-107.25
X168.696Y-110.75
X168.696Y-114.25
X168.696Y-117.75
X168.696Y-124.75
X168.696Y-128.25
X168.696Y-131.75
X168.696Y-135.25
X168.696Y-138.75
X168.696Y-142.25
X168.696Y-145.75
X168.696Y-152.75
X168.696Y-156.25
X169.597Y-159.5
X172.196Y-82.75
X172.196Y-86.25
X172.196Y-89.75
X172.196Y-93.25
X172.196Y-103.75
X172.196Y-107.25
X172.196Y-114.25
X172.196Y-117.75
X172.196Y-124.75
X172.196Y-128.25
X172.196Y-131.75
X172.196Y-135.25
X172.196Y-138.75
X172.196Y-145.75
X172.196Y-152.75
X172.196Y-156.25
X172.196Y-159.75
X174.496Y-105.018
X175.696Y-82.75
X175.696Y-86.25
X175.696Y-89.75
X175.696Y-93.25
X175.696Y-103.75
X175.696Y-107.25
X175.696Y-110.75
X175.696Y-114.25
X175.696Y-117.75
X175.696Y-124.75
X175.696Y-128.25
X175.696Y-131.75
X175.696Y-135.25
X175.696Y-138.75
X175.696Y-145.75
X175.696Y-152.75
X175.696Y-156.25
X175.696Y-159.75
X179.196Y-82.75
X179.196Y-86.25
X179.196Y-89.75
X179.196Y-93.25
X179.196Y-103.75
X179.196Y-107.25
X179.196Y-110.75
X179.196Y-114.25
X179.196Y-117.75
X179.196Y-124.75
X179.196Y-128.25
X179.196Y-131.75
X179.196Y-135.25
X179.196Y-138.75
X179.196Y-142.25
X179.196Y-145.75
X179.196Y-156.25
X179.196Y-159.75
X182.696Y-82.75
X182.696Y-86.25
X182.696Y-89.75
X182.696Y-93.25
X182.696Y-121.25
X182.696Y-124.75
X182.696Y-128.25
X182.696Y-131.75
X182.696Y-135.25
X182.696Y-156.25
X182.696Y-159.75
X184.181Y-139.855
X184.181Y-146.535
X185.596Y-102.47
X186.196Y-82.75
X186.196Y-86.25
X186.196Y-89.75
X186.196Y-93.25
X186.196Y-96.75
X186.196Y-100.25
X186.196Y-103.75
X186.196Y-107.25
X186.196Y-110.75
X186.196Y-114.25
X186.196Y-117.75
X186.196Y-121.25
X186.196Y-124.75
X186.196Y-128.25
X186.196Y-131.75
X186.196Y-135.25
X186.196Y-138.75
X186.196Y-142.25
X186.196Y-145.75
X186.196Y-156.25
X186.196Y-159.75
X187.676Y-147.79
X189.696Y-82.75
X189.696Y-86.25
X189.696Y-89.75
X189.696Y-93.25
X189.696Y-96.75
X189.696Y-100.25
X189.696Y-103.75
X189.696Y-107.25
X189.696Y-110.75
X189.696Y-114.25
X189.696Y-117.75
X189.696Y-121.25
X189.696Y-124.75
X189.696Y-128.25
X189.696Y-131.75
X189.696Y-135.25
X189.696Y-156.25
X189.696Y-159.75
X190.631Y-118.355
X190.893Y-121.533
X191.663Y-120.763
X191.866Y-98.57
X193.196Y-82.75
X193.196Y-86.25
X193.196Y-93.25
X193.196Y-103.75
X193.196Y-107.25
X193.196Y-110.75
X193.196Y-114.25
X193.196Y-128.25
X193.196Y-138.75
X193.196Y-142.25
X193.196Y-145.75
X193.196Y-152.75
X193.196Y-156.25
X193.196Y-159.75
X194.071Y-114.415
X195.142Y-104.388
X196.696Y-82.75
X196.696Y-86.25
X196.696Y-93.25
X196.696Y-103.75
X196.696Y-107.25
X196.696Y-110.75
X196.696Y-114.25
X196.696Y-124.75
X196.696Y-145.75
X196.696Y-149.25
X196.696Y-152.75
X196.696Y-156.25
X196.696Y-159.75
X197.981Y-96.445
X198.441Y-87.15
X200.196Y-82.75
X200.196Y-86.25
X200.196Y-103.75
X200.196Y-107.25
X200.196Y-110.75
X200.196Y-114.25
X200.196Y-145.75
X200.196Y-152.75
X200.196Y-156.25
X200.196Y-159.75
X200.741Y-125.495
X200.741Y-137.395
X201.059Y-101.501
X202.571Y-114.415
X202.571Y-122.295
X202.631Y-126.305
X202.931Y-87.15
X202.931Y-94.45
X203.441Y-140.095
X203.696Y-82.75
X203.696Y-86.25
X203.696Y-103.75
X203.696Y-107.25
X203.696Y-110.75
X203.696Y-114.25
X203.696Y-124.75
X203.696Y-128.25
X203.696Y-135.25
X203.696Y-138.75
X203.696Y-142.25
X203.696Y-145.75
X203.696Y-149.25
X203.696Y-152.75
X203.696Y-156.25
X203.696Y-159.75
X204.979Y-120.763
X207.196Y-89.75
X207.196Y-93.25
X207.196Y-110.75
X207.196Y-121.25
X207.196Y-156.25
X208.851Y-151.295
T4
X120.485Y-97.545
X121.785Y-92.545
T5
X158.801Y-148.905
X158.801Y-151.445
X166.421Y-148.905
X166.421Y-151.445
X181.981Y-137.315
X181.981Y-139.855
X181.981Y-143.995
X181.981Y-146.535
X189.601Y-137.315
X189.601Y-139.855
X189.601Y-143.995
X189.601Y-146.535
X192.801Y-147.805
X192.801Y-150.345
X200.421Y-147.805
X200.421Y-150.345
T6
X169.711Y-149.595
X172.251Y-149.595
X175.641Y-149.595
X178.181Y-149.595
T7
X134.151Y-128.685
X134.151Y-140.685
X134.651Y-92.405
X139.651Y-121.485
X144.651Y-121.485
X149.651Y-92.405
X153.611Y-128.455
X153.611Y-130.995
X153.611Y-133.535
X153.611Y-136.075
X160.49Y-141.045
X165.49Y-141.045
X172.08Y-141.045
X177.08Y-141.045
X194.992Y-95.545
X204.992Y-95.545
X206.601Y-124.255
X206.601Y-126.795
X206.601Y-129.335
X206.601Y-131.875
X206.601Y-136.505
X206.601Y-139.045
X206.601Y-141.585
X206.601Y-146.215
X206.601Y-148.755
X206.601Y-151.295
T8
X109.195Y-92.545
X109.195Y-97.545
X109.195Y-107.545
X109.195Y-112.545
T9
X206.591Y-105.235
X206.591Y-115.395
T10
X132.201Y-134.635
X133.651Y-149.385
X138.651Y-149.385
X143.651Y-149.385
X146.351Y-140.685
X146.401Y-128.635
X195.741Y-128.195
X195.741Y-140.095
X200.741Y-128.195
X200.741Y-140.095
M30
