%TF.GenerationSoftware,KiCad,Pcbnew,10.0.5*%
%TF.CreationDate,2026-07-29T03:04:19-07:00*%
%TF.ProjectId,cv-agri,63762d61-6772-4692-9e6b-696361645f70,rev?*%
%TF.SameCoordinates,Original*%
%TF.FileFunction,Legend,Bot*%
%TF.FilePolarity,Positive*%
%FSLAX46Y46*%
G04 Gerber Fmt 4.6, Leading zero omitted, Abs format (unit mm)*
G04 Created by KiCad (PCBNEW 10.0.5) date 2026-07-29 03:04:19*
%MOMM*%
%LPD*%
G01*
G04 APERTURE LIST*
%ADD10C,0.150000*%
%ADD11C,0.120000*%
G04 APERTURE END LIST*
D10*
X165883142Y-124057200D02*
X165740285Y-124104819D01*
X165740285Y-124104819D02*
X165502190Y-124104819D01*
X165502190Y-124104819D02*
X165406952Y-124057200D01*
X165406952Y-124057200D02*
X165359333Y-124009580D01*
X165359333Y-124009580D02*
X165311714Y-123914342D01*
X165311714Y-123914342D02*
X165311714Y-123819104D01*
X165311714Y-123819104D02*
X165359333Y-123723866D01*
X165359333Y-123723866D02*
X165406952Y-123676247D01*
X165406952Y-123676247D02*
X165502190Y-123628628D01*
X165502190Y-123628628D02*
X165692666Y-123581009D01*
X165692666Y-123581009D02*
X165787904Y-123533390D01*
X165787904Y-123533390D02*
X165835523Y-123485771D01*
X165835523Y-123485771D02*
X165883142Y-123390533D01*
X165883142Y-123390533D02*
X165883142Y-123295295D01*
X165883142Y-123295295D02*
X165835523Y-123200057D01*
X165835523Y-123200057D02*
X165787904Y-123152438D01*
X165787904Y-123152438D02*
X165692666Y-123104819D01*
X165692666Y-123104819D02*
X165454571Y-123104819D01*
X165454571Y-123104819D02*
X165311714Y-123152438D01*
X164883142Y-124104819D02*
X164883142Y-123104819D01*
X164883142Y-123104819D02*
X164311714Y-124104819D01*
X164311714Y-124104819D02*
X164311714Y-123104819D01*
X163121238Y-123057200D02*
X163978380Y-124342914D01*
X162121238Y-124200057D02*
X162216476Y-124152438D01*
X162216476Y-124152438D02*
X162311714Y-124057200D01*
X162311714Y-124057200D02*
X162454571Y-123914342D01*
X162454571Y-123914342D02*
X162549809Y-123866723D01*
X162549809Y-123866723D02*
X162645047Y-123866723D01*
X162597428Y-124104819D02*
X162692666Y-124057200D01*
X162692666Y-124057200D02*
X162787904Y-123961961D01*
X162787904Y-123961961D02*
X162835523Y-123771485D01*
X162835523Y-123771485D02*
X162835523Y-123438152D01*
X162835523Y-123438152D02*
X162787904Y-123247676D01*
X162787904Y-123247676D02*
X162692666Y-123152438D01*
X162692666Y-123152438D02*
X162597428Y-123104819D01*
X162597428Y-123104819D02*
X162406952Y-123104819D01*
X162406952Y-123104819D02*
X162311714Y-123152438D01*
X162311714Y-123152438D02*
X162216476Y-123247676D01*
X162216476Y-123247676D02*
X162168857Y-123438152D01*
X162168857Y-123438152D02*
X162168857Y-123771485D01*
X162168857Y-123771485D02*
X162216476Y-123961961D01*
X162216476Y-123961961D02*
X162311714Y-124057200D01*
X162311714Y-124057200D02*
X162406952Y-124104819D01*
X162406952Y-124104819D02*
X162597428Y-124104819D01*
X161168857Y-124104819D02*
X161502190Y-123628628D01*
X161740285Y-124104819D02*
X161740285Y-123104819D01*
X161740285Y-123104819D02*
X161359333Y-123104819D01*
X161359333Y-123104819D02*
X161264095Y-123152438D01*
X161264095Y-123152438D02*
X161216476Y-123200057D01*
X161216476Y-123200057D02*
X161168857Y-123295295D01*
X161168857Y-123295295D02*
X161168857Y-123438152D01*
X161168857Y-123438152D02*
X161216476Y-123533390D01*
X161216476Y-123533390D02*
X161264095Y-123581009D01*
X161264095Y-123581009D02*
X161359333Y-123628628D01*
X161359333Y-123628628D02*
X161740285Y-123628628D01*
%TO.C,R3*%
D11*
X200081000Y-98257064D02*
X200081000Y-97802936D01*
X201551000Y-98257064D02*
X201551000Y-97802936D01*
%TO.C,R6*%
X168128064Y-97805000D02*
X167673936Y-97805000D01*
X168128064Y-99275000D02*
X167673936Y-99275000D01*
%TO.C,R8*%
X197323064Y-99555000D02*
X196868936Y-99555000D01*
X197323064Y-101025000D02*
X196868936Y-101025000D01*
%TO.C,R5*%
X163678064Y-97805000D02*
X163223936Y-97805000D01*
X163678064Y-99275000D02*
X163223936Y-99275000D01*
%TO.C,R1*%
X192873064Y-96565000D02*
X192418936Y-96565000D01*
X192873064Y-98035000D02*
X192418936Y-98035000D01*
%TO.C,R7*%
X192873064Y-99555000D02*
X192418936Y-99555000D01*
X192873064Y-101025000D02*
X192418936Y-101025000D01*
%TO.C,R4*%
X159228064Y-97805000D02*
X158773936Y-97805000D01*
X159228064Y-99275000D02*
X158773936Y-99275000D01*
%TO.C,R9*%
X172578064Y-100135000D02*
X172123936Y-100135000D01*
X172578064Y-101605000D02*
X172123936Y-101605000D01*
%TO.C,C4*%
X192927252Y-88540000D02*
X192404748Y-88540000D01*
X192927252Y-90010000D02*
X192404748Y-90010000D01*
%TO.C,R10*%
X177028064Y-100135000D02*
X176573936Y-100135000D01*
X177028064Y-101605000D02*
X176573936Y-101605000D01*
%TO.C,C2*%
X164232252Y-88540000D02*
X163709748Y-88540000D01*
X164232252Y-90010000D02*
X163709748Y-90010000D01*
%TO.C,R12*%
X159228064Y-100795000D02*
X158773936Y-100795000D01*
X159228064Y-102265000D02*
X158773936Y-102265000D01*
%TO.C,R13*%
X163678064Y-100795000D02*
X163223936Y-100795000D01*
X163678064Y-102265000D02*
X163223936Y-102265000D01*
%TO.C,C6*%
X164232252Y-91590000D02*
X163709748Y-91590000D01*
X164232252Y-93060000D02*
X163709748Y-93060000D01*
%TO.C,R14*%
X168128064Y-100795000D02*
X167673936Y-100795000D01*
X168128064Y-102265000D02*
X167673936Y-102265000D01*
%TO.C,Q1*%
X158491000Y-88435000D02*
X158491000Y-89435000D01*
X158491000Y-90555000D02*
X158491000Y-91555000D01*
X158491000Y-91555000D02*
X160011000Y-91555000D01*
X160011000Y-88435000D02*
X158491000Y-88435000D01*
X160011000Y-88485000D02*
X160011000Y-88435000D01*
X160011000Y-90385000D02*
X160011000Y-89605000D01*
X160011000Y-91555000D02*
X160011000Y-91505000D01*
X160551000Y-89615000D02*
X160311000Y-89945000D01*
X160791000Y-89945000D01*
X160551000Y-89615000D01*
G36*
X160791000Y-89945000D02*
G01*
X160311000Y-89945000D01*
X160551000Y-89615000D01*
X160791000Y-89945000D01*
G37*
%TO.C,R2*%
X197323064Y-96565000D02*
X196868936Y-96565000D01*
X197323064Y-98035000D02*
X196868936Y-98035000D01*
%TO.C,R11*%
X181478064Y-100135000D02*
X181023936Y-100135000D01*
X181478064Y-101605000D02*
X181023936Y-101605000D01*
%TO.C,C7*%
X168722252Y-91590000D02*
X168199748Y-91590000D01*
X168722252Y-93060000D02*
X168199748Y-93060000D01*
%TO.C,C5*%
X197417252Y-88540000D02*
X196894748Y-88540000D01*
X197417252Y-90010000D02*
X196894748Y-90010000D01*
%TO.C,C3*%
X168722252Y-88540000D02*
X168199748Y-88540000D01*
X168722252Y-90010000D02*
X168199748Y-90010000D01*
%TO.C,U1*%
X171346000Y-131975000D02*
X172296000Y-131975000D01*
X171346000Y-133375000D02*
X171346000Y-131975000D01*
X171346000Y-148975000D02*
X171346000Y-150375000D01*
X171346000Y-150375000D02*
X172296000Y-150375000D01*
X190296000Y-150375000D02*
X190296000Y-150875000D01*
X190796000Y-150375000D01*
X190296000Y-150375000D01*
G36*
X190296000Y-150875000D02*
G01*
X190296000Y-150375000D01*
X190796000Y-150375000D01*
X190296000Y-150875000D01*
G37*
%TD*%
M02*
