%TF.GenerationSoftware,KiCad,Pcbnew,10.0.5*%
%TF.CreationDate,2026-08-03T01:44:54-07:00*%
%TF.ProjectId,cv-door,63762d64-6f6f-4722-9e6b-696361645f70,rev?*%
%TF.SameCoordinates,Original*%
%TF.FileFunction,Legend,Bot*%
%TF.FilePolarity,Positive*%
%FSLAX46Y46*%
G04 Gerber Fmt 4.6, Leading zero omitted, Abs format (unit mm)*
G04 Created by KiCad (PCBNEW 10.0.5) date 2026-08-03 01:44:54*
%MOMM*%
%LPD*%
G01*
G04 APERTURE LIST*
%ADD10C,0.150000*%
%ADD11C,0.120000*%
G04 APERTURE END LIST*
D10*
X160887142Y-121907200D02*
X160744285Y-121954819D01*
X160744285Y-121954819D02*
X160506190Y-121954819D01*
X160506190Y-121954819D02*
X160410952Y-121907200D01*
X160410952Y-121907200D02*
X160363333Y-121859580D01*
X160363333Y-121859580D02*
X160315714Y-121764342D01*
X160315714Y-121764342D02*
X160315714Y-121669104D01*
X160315714Y-121669104D02*
X160363333Y-121573866D01*
X160363333Y-121573866D02*
X160410952Y-121526247D01*
X160410952Y-121526247D02*
X160506190Y-121478628D01*
X160506190Y-121478628D02*
X160696666Y-121431009D01*
X160696666Y-121431009D02*
X160791904Y-121383390D01*
X160791904Y-121383390D02*
X160839523Y-121335771D01*
X160839523Y-121335771D02*
X160887142Y-121240533D01*
X160887142Y-121240533D02*
X160887142Y-121145295D01*
X160887142Y-121145295D02*
X160839523Y-121050057D01*
X160839523Y-121050057D02*
X160791904Y-121002438D01*
X160791904Y-121002438D02*
X160696666Y-120954819D01*
X160696666Y-120954819D02*
X160458571Y-120954819D01*
X160458571Y-120954819D02*
X160315714Y-121002438D01*
X159887142Y-121954819D02*
X159887142Y-120954819D01*
X159887142Y-120954819D02*
X159315714Y-121954819D01*
X159315714Y-121954819D02*
X159315714Y-120954819D01*
X158125238Y-120907200D02*
X158982380Y-122192914D01*
X157125238Y-122050057D02*
X157220476Y-122002438D01*
X157220476Y-122002438D02*
X157315714Y-121907200D01*
X157315714Y-121907200D02*
X157458571Y-121764342D01*
X157458571Y-121764342D02*
X157553809Y-121716723D01*
X157553809Y-121716723D02*
X157649047Y-121716723D01*
X157601428Y-121954819D02*
X157696666Y-121907200D01*
X157696666Y-121907200D02*
X157791904Y-121811961D01*
X157791904Y-121811961D02*
X157839523Y-121621485D01*
X157839523Y-121621485D02*
X157839523Y-121288152D01*
X157839523Y-121288152D02*
X157791904Y-121097676D01*
X157791904Y-121097676D02*
X157696666Y-121002438D01*
X157696666Y-121002438D02*
X157601428Y-120954819D01*
X157601428Y-120954819D02*
X157410952Y-120954819D01*
X157410952Y-120954819D02*
X157315714Y-121002438D01*
X157315714Y-121002438D02*
X157220476Y-121097676D01*
X157220476Y-121097676D02*
X157172857Y-121288152D01*
X157172857Y-121288152D02*
X157172857Y-121621485D01*
X157172857Y-121621485D02*
X157220476Y-121811961D01*
X157220476Y-121811961D02*
X157315714Y-121907200D01*
X157315714Y-121907200D02*
X157410952Y-121954819D01*
X157410952Y-121954819D02*
X157601428Y-121954819D01*
X156172857Y-121954819D02*
X156506190Y-121478628D01*
X156744285Y-121954819D02*
X156744285Y-120954819D01*
X156744285Y-120954819D02*
X156363333Y-120954819D01*
X156363333Y-120954819D02*
X156268095Y-121002438D01*
X156268095Y-121002438D02*
X156220476Y-121050057D01*
X156220476Y-121050057D02*
X156172857Y-121145295D01*
X156172857Y-121145295D02*
X156172857Y-121288152D01*
X156172857Y-121288152D02*
X156220476Y-121383390D01*
X156220476Y-121383390D02*
X156268095Y-121431009D01*
X156268095Y-121431009D02*
X156363333Y-121478628D01*
X156363333Y-121478628D02*
X156744285Y-121478628D01*
%TO.C,C4*%
D11*
X193315000Y-110811252D02*
X193315000Y-110288748D01*
X194785000Y-110811252D02*
X194785000Y-110288748D01*
%TO.C,C3*%
X193315000Y-106321252D02*
X193315000Y-105798748D01*
X194785000Y-106321252D02*
X194785000Y-105798748D01*
%TO.C,R3*%
X156232064Y-136010000D02*
X155777936Y-136010000D01*
X156232064Y-137480000D02*
X155777936Y-137480000D01*
%TO.C,R11*%
X172147064Y-144055000D02*
X171692936Y-144055000D01*
X172147064Y-145525000D02*
X171692936Y-145525000D01*
%TO.C,U2*%
X172730000Y-147270000D02*
X172730000Y-148530000D01*
X172730000Y-154090000D02*
X172730000Y-152830000D01*
X176490000Y-147270000D02*
X172730000Y-147270000D01*
X176490000Y-154090000D02*
X172730000Y-154090000D01*
X177770000Y-147370000D02*
X178010000Y-147040000D01*
X177530000Y-147040000D01*
X177770000Y-147370000D01*
G36*
X177770000Y-147370000D02*
G01*
X177530000Y-147040000D01*
X178010000Y-147040000D01*
X177770000Y-147370000D01*
G37*
%TO.C,R7*%
X156232064Y-143305000D02*
X155777936Y-143305000D01*
X156232064Y-144775000D02*
X155777936Y-144775000D01*
%TO.C,R4*%
X160682064Y-136010000D02*
X160227936Y-136010000D01*
X160682064Y-137480000D02*
X160227936Y-137480000D01*
%TO.C,R2*%
X193205000Y-137657064D02*
X193205000Y-137202936D01*
X194675000Y-137657064D02*
X194675000Y-137202936D01*
%TO.C,R13*%
X182037064Y-150285000D02*
X181582936Y-150285000D01*
X182037064Y-151755000D02*
X181582936Y-151755000D01*
%TO.C,R14*%
X156232064Y-151265000D02*
X155777936Y-151265000D01*
X156232064Y-152735000D02*
X155777936Y-152735000D01*
%TO.C,R8*%
X160682064Y-143305000D02*
X160227936Y-143305000D01*
X160682064Y-144775000D02*
X160227936Y-144775000D01*
%TO.C,R10*%
X186707064Y-143490000D02*
X186252936Y-143490000D01*
X186707064Y-144960000D02*
X186252936Y-144960000D01*
%TO.C,C7*%
X193315000Y-124281252D02*
X193315000Y-123758748D01*
X194785000Y-124281252D02*
X194785000Y-123758748D01*
%TO.C,R6*%
X186707064Y-140500000D02*
X186252936Y-140500000D01*
X186707064Y-141970000D02*
X186252936Y-141970000D01*
%TO.C,R5*%
X193205000Y-142107064D02*
X193205000Y-141652936D01*
X194675000Y-142107064D02*
X194675000Y-141652936D01*
%TO.C,R9*%
X163440000Y-144997064D02*
X163440000Y-144542936D01*
X164910000Y-144997064D02*
X164910000Y-144542936D01*
%TO.C,R1*%
X193285000Y-133207064D02*
X193285000Y-132752936D01*
X194755000Y-133207064D02*
X194755000Y-132752936D01*
%TO.C,C5*%
X193315000Y-115301252D02*
X193315000Y-114778748D01*
X194785000Y-115301252D02*
X194785000Y-114778748D01*
%TO.C,Q1*%
X185970000Y-135935000D02*
X185970000Y-136935000D01*
X185970000Y-138055000D02*
X185970000Y-139055000D01*
X185970000Y-139055000D02*
X187490000Y-139055000D01*
X187490000Y-135935000D02*
X185970000Y-135935000D01*
X187490000Y-135985000D02*
X187490000Y-135935000D01*
X187490000Y-137885000D02*
X187490000Y-137105000D01*
X187490000Y-139055000D02*
X187490000Y-139005000D01*
X188030000Y-137115000D02*
X187790000Y-137445000D01*
X188270000Y-137445000D01*
X188030000Y-137115000D01*
G36*
X188270000Y-137445000D02*
G01*
X187790000Y-137445000D01*
X188030000Y-137115000D01*
X188270000Y-137445000D01*
G37*
%TO.C,C6*%
X193315000Y-119791252D02*
X193315000Y-119268748D01*
X194785000Y-119791252D02*
X194785000Y-119268748D01*
%TO.C,C8*%
X193315000Y-128771252D02*
X193315000Y-128248748D01*
X194785000Y-128771252D02*
X194785000Y-128248748D01*
%TO.C,R12*%
X182037064Y-147295000D02*
X181582936Y-147295000D01*
X182037064Y-148765000D02*
X181582936Y-148765000D01*
%TD*%
M02*
