%TF.GenerationSoftware,KiCad,Pcbnew,10.0.5*%
%TF.CreationDate,2026-08-03T01:44:54-07:00*%
%TF.ProjectId,cv-door,63762d64-6f6f-4722-9e6b-696361645f70,rev?*%
%TF.SameCoordinates,Original*%
%TF.FileFunction,Copper,L2,Bot*%
%TF.FilePolarity,Positive*%
%FSLAX46Y46*%
G04 Gerber Fmt 4.6, Leading zero omitted, Abs format (unit mm)*
G04 Created by KiCad (PCBNEW 10.0.5) date 2026-08-03 01:44:54*
%MOMM*%
%LPD*%
G01*
G04 APERTURE LIST*
G04 Aperture macros list*
%AMRoundRect*
0 Rectangle with rounded corners*
0 $1 Rounding radius*
0 $2 $3 $4 $5 $6 $7 $8 $9 X,Y pos of 4 corners*
0 Add a 4 corners polygon primitive as box body*
4,1,4,$2,$3,$4,$5,$6,$7,$8,$9,$2,$3,0*
0 Add four circle primitives for the rounded corners*
1,1,$1+$1,$2,$3*
1,1,$1+$1,$4,$5*
1,1,$1+$1,$6,$7*
1,1,$1+$1,$8,$9*
0 Add four rect primitives between the rounded corners*
20,1,$1+$1,$2,$3,$4,$5,0*
20,1,$1+$1,$4,$5,$6,$7,0*
20,1,$1+$1,$6,$7,$8,$9,0*
20,1,$1+$1,$8,$9,$2,$3,0*%
G04 Aperture macros list end*
%TA.AperFunction,ComponentPad*%
%ADD10RoundRect,0.250000X0.750000X-0.600000X0.750000X0.600000X-0.750000X0.600000X-0.750000X-0.600000X0*%
%TD*%
%TA.AperFunction,ComponentPad*%
%ADD11O,2.000000X1.700000*%
%TD*%
%TA.AperFunction,ComponentPad*%
%ADD12RoundRect,0.249999X0.850001X-0.850001X0.850001X0.850001X-0.850001X0.850001X-0.850001X-0.850001X0*%
%TD*%
%TA.AperFunction,ComponentPad*%
%ADD13C,2.200000*%
%TD*%
%TA.AperFunction,ComponentPad*%
%ADD14R,1.700000X1.700000*%
%TD*%
%TA.AperFunction,ComponentPad*%
%ADD15C,1.700000*%
%TD*%
%TA.AperFunction,ComponentPad*%
%ADD16R,1.800000X1.800000*%
%TD*%
%TA.AperFunction,ComponentPad*%
%ADD17C,1.800000*%
%TD*%
%TA.AperFunction,ComponentPad*%
%ADD18C,2.000000*%
%TD*%
%TA.AperFunction,ComponentPad*%
%ADD19RoundRect,0.250000X-0.750000X-0.750000X0.750000X-0.750000X0.750000X0.750000X-0.750000X0.750000X0*%
%TD*%
%TA.AperFunction,ComponentPad*%
%ADD20C,3.000000*%
%TD*%
%TA.AperFunction,ComponentPad*%
%ADD21C,2.500000*%
%TD*%
%TA.AperFunction,HeatsinkPad*%
%ADD22C,0.600000*%
%TD*%
%TA.AperFunction,ComponentPad*%
%ADD23RoundRect,0.250000X0.550000X-0.550000X0.550000X0.550000X-0.550000X0.550000X-0.550000X-0.550000X0*%
%TD*%
%TA.AperFunction,ComponentPad*%
%ADD24C,1.600000*%
%TD*%
%TA.AperFunction,ComponentPad*%
%ADD25RoundRect,0.250000X-1.050000X-1.050000X1.050000X-1.050000X1.050000X1.050000X-1.050000X1.050000X0*%
%TD*%
%TA.AperFunction,ComponentPad*%
%ADD26C,2.600000*%
%TD*%
%TA.AperFunction,ComponentPad*%
%ADD27RoundRect,0.500000X0.500000X-0.500000X0.500000X0.500000X-0.500000X0.500000X-0.500000X-0.500000X0*%
%TD*%
%TA.AperFunction,ComponentPad*%
%ADD28RoundRect,0.250000X-0.550000X-0.550000X0.550000X-0.550000X0.550000X0.550000X-0.550000X0.550000X0*%
%TD*%
%TA.AperFunction,ComponentPad*%
%ADD29RoundRect,0.250000X1.050000X-1.050000X1.050000X1.050000X-1.050000X1.050000X-1.050000X-1.050000X0*%
%TD*%
%TA.AperFunction,SMDPad,CuDef*%
%ADD30RoundRect,0.250000X0.475000X-0.250000X0.475000X0.250000X-0.475000X0.250000X-0.475000X-0.250000X0*%
%TD*%
%TA.AperFunction,SMDPad,CuDef*%
%ADD31RoundRect,0.250000X0.262500X0.450000X-0.262500X0.450000X-0.262500X-0.450000X0.262500X-0.450000X0*%
%TD*%
%TA.AperFunction,SMDPad,CuDef*%
%ADD32RoundRect,0.375000X0.625000X0.375000X-0.625000X0.375000X-0.625000X-0.375000X0.625000X-0.375000X0*%
%TD*%
%TA.AperFunction,SMDPad,CuDef*%
%ADD33RoundRect,0.500000X0.500000X1.400000X-0.500000X1.400000X-0.500000X-1.400000X0.500000X-1.400000X0*%
%TD*%
%TA.AperFunction,SMDPad,CuDef*%
%ADD34RoundRect,0.250000X0.450000X-0.262500X0.450000X0.262500X-0.450000X0.262500X-0.450000X-0.262500X0*%
%TD*%
%TA.AperFunction,SMDPad,CuDef*%
%ADD35RoundRect,0.150000X0.587500X0.150000X-0.587500X0.150000X-0.587500X-0.150000X0.587500X-0.150000X0*%
%TD*%
%TA.AperFunction,ViaPad*%
%ADD36C,0.800000*%
%TD*%
%TA.AperFunction,ViaPad*%
%ADD37C,0.600000*%
%TD*%
%TA.AperFunction,Conductor*%
%ADD38C,0.800000*%
%TD*%
%TA.AperFunction,Conductor*%
%ADD39C,0.250000*%
%TD*%
G04 APERTURE END LIST*
D10*
%TO.P,PS1,1*%
%TO.N,AC_L_FUSED*%
X136235000Y-121485000D03*
D11*
%TO.P,PS1,2*%
%TO.N,AC_N*%
X141235000Y-121485000D03*
%TO.P,PS1,3*%
%TO.N,GND*%
X131235000Y-92405000D03*
%TO.P,PS1,4*%
%TO.N,+5V*%
X146235000Y-92405000D03*
%TD*%
D12*
%TO.P,D2,1*%
%TO.N,N$D2.1*%
X190925000Y-132465000D03*
D13*
%TO.P,D2,2*%
%TO.N,N$D2.2*%
X190925000Y-122305000D03*
%TD*%
D14*
%TO.P,JP,1*%
%TO.N,UART_TX*%
X168345000Y-146155000D03*
D15*
%TO.P,JP,2*%
%TO.N,UART_RX*%
X168345000Y-148695000D03*
%TO.P,JP,3*%
%TO.N,GND*%
X168345000Y-151235000D03*
%TD*%
D16*
%TO.P,LED0,1*%
%TO.N,GND*%
X186915000Y-149365000D03*
D17*
%TO.P,LED0,2*%
%TO.N,LED0_A*%
X189455000Y-149365000D03*
%TD*%
D14*
%TO.P,J4,1*%
%TO.N,KP_ROW1*%
X178275000Y-137565000D03*
D15*
%TO.P,J4,2*%
%TO.N,KP_ROW2*%
X178275000Y-140105000D03*
%TO.P,J4,3*%
%TO.N,KP_ROW3*%
X178275000Y-142645000D03*
%TO.P,J4,4*%
%TO.N,GND*%
X178275000Y-145185000D03*
%TD*%
D18*
%TO.P,SW1,1*%
%TO.N,BTN_PIN*%
X167415000Y-137295000D03*
X173915000Y-137295000D03*
%TO.P,SW1,2*%
%TO.N,GND*%
X167415000Y-141795000D03*
X173915000Y-141795000D03*
%TD*%
D14*
%TO.P,J6,1*%
%TO.N,KP_COL3*%
X156095000Y-149155000D03*
D15*
%TO.P,J6,2*%
%TO.N,KP_COL4*%
X158635000Y-149155000D03*
%TO.P,J6,3*%
%TO.N,BELL_BTN*%
X161175000Y-149155000D03*
%TO.P,J6,4*%
%TO.N,GND*%
X163715000Y-149155000D03*
%TD*%
D12*
%TO.P,D1,1*%
%TO.N,+5V*%
X190925000Y-118515000D03*
D13*
%TO.P,D1,2*%
%TO.N,LOCK_RELAY_COIL*%
X190925000Y-108355000D03*
%TD*%
D19*
%TO.P,C1,1*%
%TO.N,+5V*%
X157073800Y-141045000D03*
D18*
%TO.P,C1,2*%
%TO.N,GND*%
X162073800Y-141045000D03*
%TD*%
D16*
%TO.P,LED1,1*%
%TO.N,GND*%
X193905000Y-150845000D03*
D17*
%TO.P,LED1,2*%
%TO.N,LED_PIN_A*%
X193905000Y-148305000D03*
%TD*%
D20*
%TO.P,K1,1*%
%TO.N,AC_L_FUSED*%
X128785000Y-134635000D03*
D21*
%TO.P,K1,2*%
%TO.N,+5V*%
X130735000Y-140685000D03*
D20*
%TO.P,K1,3*%
%TO.N,LOCK_RELAY_SW*%
X142935000Y-140685000D03*
%TO.P,K1,4*%
%TO.N,N$K1.4*%
X142985000Y-128635000D03*
D21*
%TO.P,K1,5*%
%TO.N,LOCK_RELAY_COIL*%
X130735000Y-128685000D03*
%TD*%
D22*
%TO.P,U1,39*%
%TO.N,GND*%
X168380000Y-109490000D03*
X168380000Y-110890000D03*
X169080000Y-108790000D03*
X169080000Y-110190000D03*
X169080000Y-111590000D03*
X169780000Y-109490000D03*
X169780000Y-110890000D03*
X170480000Y-108790000D03*
X170480000Y-110190000D03*
X170480000Y-111590000D03*
X171180000Y-109490000D03*
X171180000Y-110890000D03*
%TD*%
D23*
%TO.P,U3,1*%
%TO.N,LOCK_RELAY_OPT*%
X190845000Y-96965000D03*
D24*
%TO.P,U3,2*%
%TO.N,GND*%
X193385000Y-96965000D03*
%TO.P,U3,3*%
%TO.N,LOCK_RELAY_DRV*%
X193385000Y-89345000D03*
%TO.P,U3,4*%
%TO.N,+5V*%
X190845000Y-89345000D03*
%TD*%
D25*
%TO.P,J2,1*%
%TO.N,+5V*%
X130235000Y-149385000D03*
D26*
%TO.P,J2,2*%
%TO.N,LOCK_RELAY_SW*%
X135235000Y-149385000D03*
%TO.P,J2,3*%
%TO.N,AC_N*%
X140235000Y-149385000D03*
%TD*%
D27*
%TO.P,F1,1*%
%TO.N,AC_L*%
X109195000Y-135635000D03*
X109195000Y-130635000D03*
D18*
%TO.P,F1,2*%
%TO.N,AC_L_FUSED*%
X109195000Y-120635000D03*
X109195000Y-115635000D03*
%TD*%
D14*
%TO.P,J5,1*%
%TO.N,KP_ROW4*%
X182905000Y-137565000D03*
D15*
%TO.P,J5,2*%
%TO.N,KP_COL1*%
X182905000Y-140105000D03*
%TO.P,J5,3*%
%TO.N,KP_COL2*%
X182905000Y-142645000D03*
%TO.P,J5,4*%
%TO.N,GND*%
X182905000Y-145185000D03*
%TD*%
D24*
%TO.P,RV1,1*%
%TO.N,AC_L_FUSED*%
X107545000Y-145275000D03*
%TO.P,RV1,2*%
%TO.N,AC_N*%
X112545000Y-146575000D03*
%TD*%
D14*
%TO.P,J3,1*%
%TO.N,+5V*%
X191095000Y-136675000D03*
D15*
%TO.P,J3,2*%
%TO.N,FP_RX*%
X191095000Y-139215000D03*
%TO.P,J3,3*%
%TO.N,FP_TX*%
X191095000Y-141755000D03*
%TO.P,J3,4*%
%TO.N,GND*%
X191095000Y-144295000D03*
%TD*%
D28*
%TO.P,C2,1*%
%TO.N,+3V3*%
X191473800Y-102515000D03*
D24*
%TO.P,C2,2*%
%TO.N,GND*%
X193973800Y-102515000D03*
%TD*%
D29*
%TO.P,J1,1*%
%TO.N,AC_L*%
X112005000Y-104295000D03*
D26*
%TO.P,J1,2*%
%TO.N,AC_N*%
X112005000Y-99295000D03*
%TO.P,J1,3*%
%TO.N,PE*%
X112005000Y-94295000D03*
%TD*%
D30*
%TO.P,C4,1*%
%TO.N,+3V3*%
X194050000Y-111500000D03*
%TO.P,C4,2*%
%TO.N,GND*%
X194050000Y-109600000D03*
%TD*%
%TO.P,C3,1*%
%TO.N,+3V3*%
X194050000Y-107010000D03*
%TO.P,C3,2*%
%TO.N,GND*%
X194050000Y-105110000D03*
%TD*%
D31*
%TO.P,R3,1*%
%TO.N,+3V3*%
X156917500Y-136745000D03*
%TO.P,R3,2*%
%TO.N,EN*%
X155092500Y-136745000D03*
%TD*%
%TO.P,R11,1*%
%TO.N,N$R11.1*%
X172832500Y-144790000D03*
%TO.P,R11,2*%
%TO.N,N$R11.2*%
X171007500Y-144790000D03*
%TD*%
D32*
%TO.P,U2,1*%
%TO.N,GND*%
X177790000Y-148380000D03*
%TO.P,U2,2*%
%TO.N,+3V3*%
X177790000Y-150680000D03*
D33*
X171490000Y-150680000D03*
D32*
%TO.P,U2,3*%
%TO.N,+5V*%
X177790000Y-152980000D03*
%TD*%
D31*
%TO.P,R7,1*%
%TO.N,+3V3*%
X156917500Y-144040000D03*
%TO.P,R7,2*%
%TO.N,KP_COL3*%
X155092500Y-144040000D03*
%TD*%
%TO.P,R4,1*%
%TO.N,+3V3*%
X161367500Y-136745000D03*
%TO.P,R4,2*%
%TO.N,LED0_A*%
X159542500Y-136745000D03*
%TD*%
D34*
%TO.P,R2,1*%
%TO.N,LED_PIN*%
X193940000Y-138342500D03*
%TO.P,R2,2*%
%TO.N,LED_PIN_A*%
X193940000Y-136517500D03*
%TD*%
D31*
%TO.P,R13,1*%
%TO.N,N$R13.1*%
X182722500Y-151020000D03*
%TO.P,R13,2*%
%TO.N,N$R13.2*%
X180897500Y-151020000D03*
%TD*%
%TO.P,R14,1*%
%TO.N,N$R14.1*%
X156917500Y-152000000D03*
%TO.P,R14,2*%
%TO.N,N$R14.2*%
X155092500Y-152000000D03*
%TD*%
%TO.P,R8,1*%
%TO.N,+3V3*%
X161367500Y-144040000D03*
%TO.P,R8,2*%
%TO.N,KP_COL4*%
X159542500Y-144040000D03*
%TD*%
%TO.P,R10,1*%
%TO.N,+3V3*%
X187392500Y-144225000D03*
%TO.P,R10,2*%
%TO.N,BELL_BTN*%
X185567500Y-144225000D03*
%TD*%
D30*
%TO.P,C7,1*%
%TO.N,+3V3*%
X194050000Y-124970000D03*
%TO.P,C7,2*%
%TO.N,GND*%
X194050000Y-123070000D03*
%TD*%
D31*
%TO.P,R6,1*%
%TO.N,+3V3*%
X187392500Y-141235000D03*
%TO.P,R6,2*%
%TO.N,KP_COL2*%
X185567500Y-141235000D03*
%TD*%
D34*
%TO.P,R5,1*%
%TO.N,+3V3*%
X193940000Y-142792500D03*
%TO.P,R5,2*%
%TO.N,KP_COL1*%
X193940000Y-140967500D03*
%TD*%
%TO.P,R9,1*%
%TO.N,+3V3*%
X164175000Y-145682500D03*
%TO.P,R9,2*%
%TO.N,FP_RX*%
X164175000Y-143857500D03*
%TD*%
%TO.P,R1,1*%
%TO.N,LOCK_RELAY*%
X194020000Y-133892500D03*
%TO.P,R1,2*%
%TO.N,LOCK_RELAY_OPT*%
X194020000Y-132067500D03*
%TD*%
D30*
%TO.P,C5,1*%
%TO.N,+3V3*%
X194050000Y-115990000D03*
%TO.P,C5,2*%
%TO.N,GND*%
X194050000Y-114090000D03*
%TD*%
D35*
%TO.P,Q1,1*%
%TO.N,LOCK_RELAY_DRV*%
X187667500Y-136545000D03*
%TO.P,Q1,2*%
%TO.N,GND*%
X187667500Y-138445000D03*
%TO.P,Q1,3*%
%TO.N,LOCK_RELAY_COIL*%
X185792500Y-137495000D03*
%TD*%
D30*
%TO.P,C6,1*%
%TO.N,+3V3*%
X194050000Y-120480000D03*
%TO.P,C6,2*%
%TO.N,GND*%
X194050000Y-118580000D03*
%TD*%
%TO.P,C8,1*%
%TO.N,+3V3*%
X194050000Y-129460000D03*
%TO.P,C8,2*%
%TO.N,GND*%
X194050000Y-127560000D03*
%TD*%
D31*
%TO.P,R12,1*%
%TO.N,N$R12.1*%
X182722500Y-148030000D03*
%TO.P,R12,2*%
%TO.N,N$R12.2*%
X180897500Y-148030000D03*
%TD*%
D36*
%TO.N,GND*%
X168780000Y-114250000D03*
X189780000Y-114250000D03*
X189780000Y-86250000D03*
X186280000Y-114250000D03*
X168780000Y-128250000D03*
X182780000Y-89750000D03*
X161780000Y-86250000D03*
X154780000Y-89750000D03*
X196175000Y-127560000D03*
X191018911Y-125810000D03*
X172280000Y-89750000D03*
X179280000Y-135250000D03*
X189164000Y-139941000D03*
X190326090Y-125410000D03*
X189780000Y-93250000D03*
X196175000Y-118580000D03*
X182780000Y-135250000D03*
X186280000Y-131750000D03*
X196175000Y-109600000D03*
X172280000Y-107250000D03*
X165280000Y-82750000D03*
X186280000Y-96750000D03*
X168780000Y-89750000D03*
X179280000Y-82750000D03*
X168780000Y-93250000D03*
X172280000Y-135250000D03*
X161780000Y-82750000D03*
X165280000Y-131750000D03*
X196780000Y-107250000D03*
X186280000Y-152750000D03*
X196780000Y-124750000D03*
X186915000Y-151665000D03*
X158280000Y-124750000D03*
X182780000Y-107250000D03*
X182780000Y-124750000D03*
X196205000Y-150845000D03*
X161780000Y-128250000D03*
X196780000Y-89750000D03*
X189780000Y-145750000D03*
X193280000Y-82750000D03*
X189780000Y-82750000D03*
X175780000Y-86250000D03*
X182780000Y-131750000D03*
X172280000Y-128250000D03*
X158280000Y-138750000D03*
X195585000Y-96965000D03*
X161780000Y-124750000D03*
X165280000Y-128250000D03*
X189780000Y-100250000D03*
X175780000Y-107250000D03*
X175780000Y-93250000D03*
X179280000Y-159750000D03*
X196780000Y-100250000D03*
X165280000Y-156250000D03*
X196780000Y-145750000D03*
X158280000Y-103750000D03*
X186280000Y-110750000D03*
X165280000Y-93250000D03*
X172280000Y-124750000D03*
X175780000Y-103750000D03*
X165280000Y-159750000D03*
X196780000Y-103750000D03*
X182780000Y-100250000D03*
X196780000Y-121250000D03*
X158280000Y-131750000D03*
X175780000Y-110750000D03*
X182780000Y-82750000D03*
X172280000Y-156250000D03*
X158280000Y-82750000D03*
X182780000Y-159750000D03*
X175780000Y-131750000D03*
X154780000Y-117750000D03*
X158280000Y-96750000D03*
X189780000Y-124750000D03*
X180655000Y-145185000D03*
X165280000Y-86250000D03*
X172280000Y-114250000D03*
X175780000Y-114250000D03*
X154780000Y-156250000D03*
X175780000Y-145750000D03*
X196780000Y-138750000D03*
X196780000Y-135250000D03*
X196780000Y-96750000D03*
X175780000Y-156250000D03*
X196780000Y-142250000D03*
X193280000Y-93250000D03*
X196780000Y-93250000D03*
X182780000Y-110750000D03*
X154780000Y-114250000D03*
X154780000Y-86250000D03*
X175780000Y-135250000D03*
X186280000Y-100250000D03*
X182780000Y-93250000D03*
X168780000Y-135250000D03*
X165280000Y-152750000D03*
X179280000Y-156250000D03*
X160380000Y-102470000D03*
X186280000Y-89750000D03*
X168780000Y-117750000D03*
X168780000Y-103750000D03*
X175780000Y-128250000D03*
X186280000Y-82750000D03*
X165965000Y-149155000D03*
X154780000Y-100250000D03*
X168780000Y-124750000D03*
X179280000Y-93250000D03*
X158280000Y-89750000D03*
X175780000Y-82750000D03*
X193280000Y-145750000D03*
X158280000Y-100250000D03*
X186280000Y-135250000D03*
X182780000Y-117750000D03*
X158280000Y-128250000D03*
X168780000Y-131750000D03*
X190862444Y-126705897D03*
X168780000Y-156250000D03*
X182780000Y-121250000D03*
X172280000Y-86250000D03*
X186280000Y-121250000D03*
X193280000Y-86250000D03*
X179280000Y-128250000D03*
X186280000Y-156250000D03*
X175780000Y-117750000D03*
X154780000Y-110750000D03*
X196175000Y-123070000D03*
X189780000Y-110750000D03*
X154780000Y-124750000D03*
X158280000Y-107250000D03*
X165280000Y-138750000D03*
X168780000Y-159750000D03*
X196780000Y-128250000D03*
X158280000Y-121250000D03*
X154780000Y-107250000D03*
X154780000Y-103750000D03*
X182780000Y-156250000D03*
X186280000Y-117750000D03*
X165280000Y-124750000D03*
X182780000Y-128250000D03*
X196780000Y-114250000D03*
X154780000Y-93250000D03*
X196780000Y-156250000D03*
X182780000Y-103750000D03*
X172280000Y-117750000D03*
X196780000Y-149250000D03*
X182780000Y-96750000D03*
X168780000Y-107250000D03*
X175390000Y-148380000D03*
X161780000Y-156250000D03*
X165280000Y-114250000D03*
X158280000Y-117750000D03*
X172280000Y-82750000D03*
X168780000Y-82750000D03*
X189780000Y-156250000D03*
X154780000Y-128250000D03*
X186280000Y-128250000D03*
X179280000Y-86250000D03*
X175780000Y-124750000D03*
X182780000Y-114250000D03*
X165280000Y-103750000D03*
X169815000Y-141795000D03*
X179280000Y-89750000D03*
X189780000Y-159750000D03*
X189780000Y-152750000D03*
X161780000Y-159750000D03*
X186280000Y-93250000D03*
X165280000Y-110750000D03*
X161780000Y-93250000D03*
X158280000Y-110750000D03*
X165280000Y-117750000D03*
X193280000Y-100250000D03*
X172280000Y-110750000D03*
X158280000Y-156250000D03*
X158280000Y-159750000D03*
X175780000Y-89750000D03*
X172280000Y-131750000D03*
X172280000Y-159750000D03*
X196780000Y-131750000D03*
X161780000Y-121250000D03*
X191925000Y-114090000D03*
X193280000Y-156250000D03*
X189780000Y-128250000D03*
X186280000Y-107250000D03*
X196780000Y-152750000D03*
X154780000Y-121250000D03*
X176315000Y-141795000D03*
X158280000Y-93250000D03*
X179280000Y-121250000D03*
X158280000Y-114250000D03*
X161780000Y-152750000D03*
X196175000Y-105110000D03*
X158280000Y-86250000D03*
X182180000Y-102470000D03*
X161780000Y-131750000D03*
X172280000Y-93250000D03*
X154780000Y-82750000D03*
X196780000Y-86250000D03*
X161780000Y-89750000D03*
X165280000Y-135250000D03*
X154780000Y-131750000D03*
X196780000Y-110750000D03*
X154780000Y-96750000D03*
X186280000Y-103750000D03*
X168345000Y-153485000D03*
X182780000Y-86250000D03*
X186280000Y-124750000D03*
X161780000Y-138750000D03*
X165280000Y-107250000D03*
X165280000Y-89750000D03*
X179280000Y-124750000D03*
X186280000Y-86250000D03*
X179280000Y-131750000D03*
X154780000Y-138750000D03*
X175780000Y-159750000D03*
X172280000Y-103750000D03*
X196780000Y-117750000D03*
X168780000Y-86250000D03*
D37*
%TO.N,UART_TX*%
X163276700Y-121026300D03*
X166424700Y-116716500D03*
%TO.N,UART_RX*%
X156731700Y-146413200D03*
X177627400Y-111098700D03*
X155115000Y-111867200D03*
%TO.N,LED0_A*%
X160030000Y-156094500D03*
X158294400Y-136844800D03*
%TO.N,KP_ROW1*%
X161121100Y-113152300D03*
X157160600Y-134236200D03*
X157710400Y-113217200D03*
%TO.N,KP_ROW2*%
X163625800Y-129793200D03*
X163846400Y-112382200D03*
X171728700Y-141676500D03*
%TO.N,KP_ROW3*%
X161178200Y-114193200D03*
X174867300Y-139659300D03*
X153620700Y-116542100D03*
X155416600Y-134714500D03*
%TO.N,KP_COL3*%
X174382900Y-103437900D03*
X159170800Y-104583000D03*
%TO.N,KP_COL4*%
X178124600Y-119719300D03*
X162152600Y-126296000D03*
X161049900Y-146756700D03*
D36*
%TO.N,+3V3*%
X169638600Y-144287500D03*
X192453300Y-129448400D03*
X169611800Y-149965000D03*
X160080200Y-105155700D03*
X194357900Y-144288500D03*
X159412300Y-134714500D03*
D37*
%TO.N,EN*%
X158697100Y-106232300D03*
X160700600Y-106152800D03*
X156476200Y-131792500D03*
%TO.N,KP_ROW4*%
X179701600Y-136953300D03*
%TO.N,KP_COL1*%
X163838900Y-116875600D03*
X181393600Y-115782200D03*
%TO.N,LOCK_RELAY*%
X174194400Y-131899200D03*
%TO.N,LED_PIN*%
X179793300Y-129531700D03*
%TO.N,FP_RX*%
X181023000Y-138849500D03*
%TO.N,LOCK_RELAY_OPT*%
X194920300Y-126312200D03*
%TO.N,LOCK_RELAY_DRV*%
X195656900Y-134207000D03*
%TD*%
%TO.N,+5V*%
D38*
X176137900Y-154632100D02*
X155645200Y-154632100D01*
X155645200Y-154632100D02*
X153837500Y-152824400D01*
X189336700Y-90853300D02*
X190845000Y-89345000D01*
X146235000Y-90853300D02*
X189336700Y-90853300D01*
X134689500Y-136730500D02*
X130735000Y-140685000D01*
X153837500Y-143183500D02*
X155976000Y-141045000D01*
X153837500Y-152824400D02*
X153837500Y-143183500D01*
X147384500Y-136730500D02*
X134689500Y-136730500D01*
X146235000Y-92405000D02*
X146235000Y-90853300D01*
X153837500Y-143183500D02*
X147384500Y-136730500D01*
X177790000Y-152980000D02*
X176137900Y-154632100D01*
X155976000Y-141045000D02*
X157073800Y-141045000D01*
%TO.N,UART_TX*%
D39*
X166424700Y-116716500D02*
X166424700Y-117878300D01*
X166424700Y-117878300D02*
X163276700Y-121026300D01*
%TO.N,UART_RX*%
X177627400Y-111098700D02*
X176409400Y-112316700D01*
X155281700Y-111700500D02*
X155115000Y-111867200D01*
X158211700Y-150461000D02*
X157365000Y-149614300D01*
X168345000Y-148695000D02*
X166579000Y-150461000D01*
X165145400Y-112316700D02*
X164529200Y-111700500D01*
X157365000Y-147046500D02*
X156731700Y-146413200D01*
X164529200Y-111700500D02*
X155281700Y-111700500D01*
X166579000Y-150461000D02*
X158211700Y-150461000D01*
X176409400Y-112316700D02*
X165145400Y-112316700D01*
X157365000Y-149614300D02*
X157365000Y-147046500D01*
%TO.N,LED0_A*%
X158294400Y-136844800D02*
X159442700Y-136844800D01*
X189455000Y-149365000D02*
X189455000Y-150777300D01*
X183101700Y-157130600D02*
X161066100Y-157130600D01*
X159442700Y-136844800D02*
X159542500Y-136745000D01*
X189455000Y-150777300D02*
X183101700Y-157130600D01*
X161066100Y-157130600D02*
X160030000Y-156094500D01*
%TO.N,KP_ROW1*%
X161121100Y-113152300D02*
X157775300Y-113152300D01*
X157775300Y-113152300D02*
X157710400Y-113217200D01*
X176182400Y-137565000D02*
X172025400Y-133408000D01*
X157988800Y-133408000D02*
X157160600Y-134236200D01*
X178275000Y-137565000D02*
X176182400Y-137565000D01*
X172025400Y-133408000D02*
X157988800Y-133408000D01*
%TO.N,KP_ROW2*%
X160932600Y-115325100D02*
X163846400Y-112411300D01*
X175415000Y-142325600D02*
X174515500Y-143225100D01*
X163625800Y-128828700D02*
X160932600Y-126135500D01*
X176805000Y-140105000D02*
X175415000Y-141495000D01*
X175415000Y-141495000D02*
X175415000Y-142325600D01*
X163846400Y-112411300D02*
X163846400Y-112382200D01*
X163625800Y-129793200D02*
X163625800Y-128828700D01*
X173277300Y-143225100D02*
X171728700Y-141676500D01*
X174515500Y-143225100D02*
X173277300Y-143225100D01*
X160932600Y-126135500D02*
X160932600Y-115325100D01*
X178275000Y-140105000D02*
X176805000Y-140105000D01*
%TO.N,KP_ROW3*%
X162015100Y-133867200D02*
X158628300Y-133867200D01*
X157632500Y-134863000D02*
X155565100Y-134863000D01*
X174867300Y-139659300D02*
X167807200Y-139659300D01*
X155565100Y-134863000D02*
X155416600Y-134714500D01*
X158628300Y-133867200D02*
X157632500Y-134863000D01*
X158829300Y-116542100D02*
X161178200Y-114193200D01*
X167807200Y-139659300D02*
X162015100Y-133867200D01*
X153620700Y-116542100D02*
X158829300Y-116542100D01*
%TO.N,BTN_PIN*%
X173915000Y-137295000D02*
X167415000Y-137295000D01*
%TO.N,KP_COL3*%
X155092500Y-144040000D02*
X155092500Y-146975800D01*
X173825700Y-102880700D02*
X163259500Y-102880700D01*
X163259500Y-102880700D02*
X162373700Y-103766500D01*
X156095000Y-149155000D02*
X156095000Y-147978300D01*
X155092500Y-146975800D02*
X156095000Y-147978300D01*
X159987300Y-103766500D02*
X159170800Y-104583000D01*
X162373700Y-103766500D02*
X159987300Y-103766500D01*
X174382900Y-103437900D02*
X173825700Y-102880700D01*
%TO.N,KP_COL4*%
X159542500Y-146756700D02*
X159542500Y-148247500D01*
X159542500Y-148247500D02*
X158635000Y-149155000D01*
X161049900Y-146756700D02*
X159542500Y-146756700D01*
X159542500Y-144040000D02*
X159542500Y-146756700D01*
X178124600Y-119719300D02*
X168729300Y-119719300D01*
X168729300Y-119719300D02*
X162152600Y-126296000D01*
%TO.N,BELL_BTN*%
X162981000Y-147349000D02*
X161175000Y-149155000D01*
X185567500Y-144225000D02*
X185567500Y-144356800D01*
X185567500Y-144356800D02*
X183347600Y-146576700D01*
X173257300Y-147349000D02*
X162981000Y-147349000D01*
X174029600Y-146576700D02*
X173257300Y-147349000D01*
X183347600Y-146576700D02*
X174029600Y-146576700D01*
%TO.N,LOCK_RELAY_COIL*%
X169946600Y-130471600D02*
X132521600Y-130471600D01*
X169946600Y-129333400D02*
X190925000Y-108355000D01*
X169946600Y-130471600D02*
X169946600Y-129333400D01*
X132521600Y-130471600D02*
X130735000Y-128685000D01*
X184468600Y-136171100D02*
X175496300Y-136171100D01*
X175496300Y-136171100D02*
X169946600Y-130621400D01*
X169946600Y-130621400D02*
X169946600Y-130471600D01*
X185792500Y-137495000D02*
X184468600Y-136171100D01*
%TO.N,LED_PIN_A*%
X195184600Y-147025400D02*
X195184600Y-137762100D01*
X195184600Y-137762100D02*
X193940000Y-136517500D01*
X193905000Y-148305000D02*
X195184600Y-147025400D01*
%TO.N,+3V3*%
D38*
X189974600Y-120665600D02*
X189108300Y-119799300D01*
X193389200Y-107010000D02*
X194050000Y-107010000D01*
X190329300Y-115990000D02*
X194050000Y-115990000D01*
X194260800Y-115990000D02*
X194050000Y-115990000D01*
X161367500Y-136745000D02*
X161367500Y-136506600D01*
X192607500Y-128231200D02*
X192607500Y-126412500D01*
X197236400Y-111851700D02*
X197881700Y-111206400D01*
X192453300Y-129448400D02*
X193824700Y-129448400D01*
X195504700Y-112954700D02*
X195504700Y-114746100D01*
X183343400Y-152478100D02*
X180242900Y-152478100D01*
X156926000Y-144040000D02*
X156917500Y-144040000D01*
X169611800Y-149965000D02*
X170775000Y-149965000D01*
X184521900Y-151299600D02*
X183343400Y-152478100D01*
X194050000Y-111500000D02*
X194374500Y-111824500D01*
X197881700Y-111206400D02*
X197881700Y-109748600D01*
X193940000Y-142792500D02*
X193940000Y-143870600D01*
X194050000Y-129460000D02*
X193836300Y-129460000D01*
X164175000Y-145682500D02*
X165948000Y-145682500D01*
X158349900Y-135314800D02*
X159412300Y-135314800D01*
X187392500Y-145324200D02*
X184521900Y-148194800D01*
X191473800Y-102515000D02*
X191473800Y-105094600D01*
X180242900Y-152478100D02*
X178444800Y-150680000D01*
X156919700Y-136745000D02*
X158349900Y-135314800D01*
X187392500Y-144225000D02*
X187392500Y-145324200D01*
X189375900Y-129448400D02*
X188666800Y-128739300D01*
X161367500Y-144040000D02*
X161367500Y-143798000D01*
X158328700Y-142637300D02*
X156926000Y-144040000D01*
X191473800Y-105094600D02*
X193389200Y-107010000D01*
X193836300Y-129460000D02*
X192607500Y-128231200D01*
X187392500Y-144225000D02*
X187392500Y-141235000D01*
X197881700Y-109748600D02*
X196530400Y-108397300D01*
X160206800Y-142637300D02*
X158328700Y-142637300D01*
X165948000Y-145682500D02*
X167343000Y-144287500D01*
X192607500Y-126412500D02*
X194050000Y-124970000D01*
X159412300Y-134714500D02*
X159412300Y-135314800D01*
X160206800Y-142637300D02*
X160206800Y-138217200D01*
X192453300Y-129448400D02*
X189375900Y-129448400D01*
X195504700Y-114746100D02*
X194260800Y-115990000D01*
X171490000Y-150680000D02*
X177790000Y-150680000D01*
X163010000Y-145682500D02*
X164175000Y-145682500D01*
X160141300Y-105094600D02*
X160080200Y-105155700D01*
X190160200Y-120480000D02*
X194050000Y-120480000D01*
X161367500Y-144040000D02*
X163010000Y-145682500D01*
X194401700Y-111851700D02*
X197236400Y-111851700D01*
X189974600Y-120665600D02*
X190160200Y-120480000D01*
X160175700Y-135314800D02*
X159412300Y-135314800D01*
X189108300Y-119799300D02*
X189108300Y-117211000D01*
X161367500Y-136506600D02*
X160175700Y-135314800D01*
X184521900Y-148194800D02*
X184521900Y-151299600D01*
X189108300Y-117211000D02*
X190329300Y-115990000D01*
X195437300Y-108397300D02*
X194050000Y-107010000D01*
X170775000Y-149965000D02*
X171490000Y-150680000D01*
X194374500Y-111824500D02*
X195504700Y-112954700D01*
X178444800Y-150680000D02*
X177790000Y-150680000D01*
X188666800Y-121973400D02*
X189974600Y-120665600D01*
X167343000Y-144287500D02*
X169638600Y-144287500D01*
X161367500Y-143798000D02*
X160206800Y-142637300D01*
X188666800Y-128739300D02*
X188666800Y-121973400D01*
X193940000Y-143870600D02*
X194357900Y-144288500D01*
X161367500Y-137056500D02*
X161367500Y-136745000D01*
X196530400Y-108397300D02*
X195437300Y-108397300D01*
X160206800Y-138217200D02*
X161367500Y-137056500D01*
X191473800Y-105094600D02*
X160141300Y-105094600D01*
%TO.N,EN*%
D39*
X154789900Y-136442400D02*
X155092500Y-136745000D01*
X156476200Y-131792500D02*
X154789900Y-133478800D01*
X158697100Y-106232300D02*
X160621100Y-106232300D01*
X154789900Y-133478800D02*
X154789900Y-136442400D01*
X160621100Y-106232300D02*
X160700600Y-106152800D01*
%TO.N,KP_ROW4*%
X179701600Y-136953300D02*
X181116600Y-136953300D01*
X181116600Y-136953300D02*
X181728300Y-137565000D01*
X182905000Y-137565000D02*
X181728300Y-137565000D01*
%TO.N,KP_COL1*%
X164932300Y-115782200D02*
X181393600Y-115782200D01*
X190012000Y-140557000D02*
X193529500Y-140557000D01*
X189795800Y-140773200D02*
X190012000Y-140557000D01*
X188139400Y-140105000D02*
X188807600Y-140773200D01*
X188807600Y-140773200D02*
X189795800Y-140773200D01*
X163838900Y-116875600D02*
X164932300Y-115782200D01*
X182905000Y-140105000D02*
X188139400Y-140105000D01*
X193529500Y-140557000D02*
X193940000Y-140967500D01*
%TO.N,KP_COL2*%
X184157500Y-142645000D02*
X182905000Y-142645000D01*
X185567500Y-141235000D02*
X184157500Y-142645000D01*
%TO.N,LOCK_RELAY*%
X194019300Y-133893200D02*
X176188400Y-133893200D01*
X176188400Y-133893200D02*
X174194400Y-131899200D01*
%TO.N,LED_PIN*%
X193601800Y-135293300D02*
X192912300Y-135982800D01*
X192912300Y-135982800D02*
X192912300Y-137314800D01*
X193400700Y-132980000D02*
X195324000Y-132980000D01*
X195324000Y-132980000D02*
X196286600Y-133942600D01*
X196286600Y-133942600D02*
X196286600Y-134528000D01*
X191522900Y-130496900D02*
X192424900Y-131398900D01*
X196286600Y-134528000D02*
X195521300Y-135293300D01*
X179793300Y-129531700D02*
X180758500Y-130496900D01*
X192912300Y-137314800D02*
X193940000Y-138342500D01*
X195521300Y-135293300D02*
X193601800Y-135293300D01*
X180758500Y-130496900D02*
X191522900Y-130496900D01*
X192424900Y-132004200D02*
X193400700Y-132980000D01*
X192424900Y-131398900D02*
X192424900Y-132004200D01*
%TO.N,FP_RX*%
X181023000Y-138890400D02*
X176885500Y-138890400D01*
X188688600Y-139231200D02*
X185133400Y-139231200D01*
X184792600Y-138890400D02*
X181023000Y-138890400D01*
X172182500Y-140336500D02*
X171102000Y-141417000D01*
X191095000Y-139215000D02*
X190976100Y-139096100D01*
X176885500Y-138890400D02*
X175439400Y-140336500D01*
X171102000Y-141417000D02*
X171102000Y-141711100D01*
X164630700Y-143401800D02*
X164175000Y-143857500D01*
X171102000Y-141711100D02*
X169411300Y-143401800D01*
X181023000Y-138890400D02*
X181023000Y-138849500D01*
X190976100Y-139096100D02*
X188823700Y-139096100D01*
X175439400Y-140336500D02*
X172182500Y-140336500D01*
X185133400Y-139231200D02*
X184792600Y-138890400D01*
X169411300Y-143401800D02*
X164630700Y-143401800D01*
X188823700Y-139096100D02*
X188688600Y-139231200D01*
%TO.N,LOCK_RELAY_OPT*%
X194020000Y-132067500D02*
X195202700Y-130884800D01*
X195202700Y-130884800D02*
X195202700Y-126594600D01*
X195202700Y-126594600D02*
X194920300Y-126312200D01*
%TO.N,LOCK_RELAY_DRV*%
X185453300Y-135592400D02*
X186405900Y-136545000D01*
X185453300Y-134907600D02*
X185453300Y-135592400D01*
X186622500Y-134423300D02*
X185937600Y-134423300D01*
X186405900Y-136545000D02*
X187667500Y-136545000D01*
X186975400Y-134776200D02*
X186622500Y-134423300D01*
X195656900Y-134207000D02*
X195087700Y-134776200D01*
X185937600Y-134423300D02*
X185453300Y-134907600D01*
X195087700Y-134776200D02*
X186975400Y-134776200D01*
%TD*%
%TA.AperFunction,Conductor*%
%TO.N,GND*%
G36*
X198419333Y-112044780D02*
G01*
X198475267Y-112086651D01*
X198499684Y-112152116D01*
X198500000Y-112160962D01*
X198500000Y-161449903D01*
X198480315Y-161516942D01*
X198473611Y-161526376D01*
X198375525Y-161651573D01*
X198365595Y-161662781D01*
X198162781Y-161865595D01*
X198151574Y-161875524D01*
X198026378Y-161973610D01*
X197961466Y-161999460D01*
X197949904Y-162000000D01*
X153154000Y-162000000D01*
X153086961Y-161980315D01*
X153041206Y-161927511D01*
X153030000Y-161876000D01*
X153030000Y-158881995D01*
X193698200Y-158881995D01*
X193698200Y-159118004D01*
X193698201Y-159118020D01*
X193729006Y-159352010D01*
X193790094Y-159579993D01*
X193880414Y-159798045D01*
X193880419Y-159798056D01*
X193951377Y-159920957D01*
X193998427Y-160002450D01*
X193998429Y-160002453D01*
X193998430Y-160002454D01*
X194142106Y-160189697D01*
X194142112Y-160189704D01*
X194308995Y-160356587D01*
X194309001Y-160356592D01*
X194496250Y-160500273D01*
X194627618Y-160576118D01*
X194700643Y-160618280D01*
X194700648Y-160618282D01*
X194700651Y-160618284D01*
X194918707Y-160708606D01*
X195146686Y-160769693D01*
X195380689Y-160800500D01*
X195380696Y-160800500D01*
X195616704Y-160800500D01*
X195616711Y-160800500D01*
X195850714Y-160769693D01*
X196078693Y-160708606D01*
X196296749Y-160618284D01*
X196501150Y-160500273D01*
X196688399Y-160356592D01*
X196855292Y-160189699D01*
X196998973Y-160002450D01*
X197116984Y-159798049D01*
X197207306Y-159579993D01*
X197268393Y-159352014D01*
X197299200Y-159118011D01*
X197299200Y-158881989D01*
X197268393Y-158647986D01*
X197207306Y-158420007D01*
X197116984Y-158201951D01*
X197116982Y-158201948D01*
X197116980Y-158201943D01*
X197074818Y-158128918D01*
X196998973Y-157997550D01*
X196855292Y-157810301D01*
X196855287Y-157810295D01*
X196688404Y-157643412D01*
X196688397Y-157643406D01*
X196501154Y-157499730D01*
X196501153Y-157499729D01*
X196501150Y-157499727D01*
X196419657Y-157452677D01*
X196296756Y-157381719D01*
X196296745Y-157381714D01*
X196078693Y-157291394D01*
X195850710Y-157230306D01*
X195616720Y-157199501D01*
X195616717Y-157199500D01*
X195616711Y-157199500D01*
X195380689Y-157199500D01*
X195380683Y-157199500D01*
X195380679Y-157199501D01*
X195146689Y-157230306D01*
X194918706Y-157291394D01*
X194700654Y-157381714D01*
X194700643Y-157381719D01*
X194496245Y-157499730D01*
X194309002Y-157643406D01*
X194308995Y-157643412D01*
X194142112Y-157810295D01*
X194142106Y-157810302D01*
X193998430Y-157997545D01*
X193880419Y-158201943D01*
X193880414Y-158201954D01*
X193790094Y-158420006D01*
X193729006Y-158647989D01*
X193698201Y-158881979D01*
X193698200Y-158881995D01*
X153030000Y-158881995D01*
X153030000Y-153589762D01*
X153049685Y-153522723D01*
X153102489Y-153476968D01*
X153171647Y-153467024D01*
X153235203Y-153496049D01*
X153241681Y-153502081D01*
X155071160Y-155331561D01*
X155071164Y-155331564D01*
X155218646Y-155430109D01*
X155218652Y-155430112D01*
X155218653Y-155430113D01*
X155382534Y-155497995D01*
X155556503Y-155532599D01*
X155556507Y-155532600D01*
X155556508Y-155532600D01*
X155556509Y-155532600D01*
X159211390Y-155532600D01*
X159278429Y-155552285D01*
X159324184Y-155605089D01*
X159334128Y-155674247D01*
X159322558Y-155709535D01*
X159322937Y-155709692D01*
X159320877Y-155714663D01*
X159320753Y-155715044D01*
X159320606Y-155715317D01*
X159260264Y-155860998D01*
X159260261Y-155861010D01*
X159229500Y-156015653D01*
X159229500Y-156173346D01*
X159260261Y-156327989D01*
X159260264Y-156328001D01*
X159320602Y-156473672D01*
X159320609Y-156473685D01*
X159408210Y-156604788D01*
X159408213Y-156604792D01*
X159519707Y-156716286D01*
X159519711Y-156716289D01*
X159650814Y-156803890D01*
X159650827Y-156803897D01*
X159738230Y-156840099D01*
X159796503Y-156864237D01*
X159907716Y-156886358D01*
X159969623Y-156918741D01*
X159971203Y-156920293D01*
X160667363Y-157616455D01*
X160667367Y-157616458D01*
X160769810Y-157684909D01*
X160769811Y-157684909D01*
X160769815Y-157684912D01*
X160836496Y-157712531D01*
X160836498Y-157712533D01*
X160883643Y-157732061D01*
X160883648Y-157732063D01*
X160903697Y-157736051D01*
X160937296Y-157742734D01*
X161004492Y-157756101D01*
X161004494Y-157756101D01*
X161133821Y-157756101D01*
X161133841Y-157756100D01*
X183163307Y-157756100D01*
X183223729Y-157744081D01*
X183284152Y-157732063D01*
X183284155Y-157732061D01*
X183284158Y-157732061D01*
X183317487Y-157718254D01*
X183317486Y-157718254D01*
X183317492Y-157718252D01*
X183397986Y-157684912D01*
X183449209Y-157650684D01*
X183500433Y-157616458D01*
X183587558Y-157529333D01*
X183587559Y-157529331D01*
X183594625Y-157522265D01*
X183594628Y-157522261D01*
X189853729Y-151263160D01*
X189853733Y-151263158D01*
X189940858Y-151176033D01*
X189987287Y-151106547D01*
X190009312Y-151073586D01*
X190056463Y-150959751D01*
X190059862Y-150942666D01*
X190076357Y-150859734D01*
X190080500Y-150838907D01*
X190080500Y-150715693D01*
X190080500Y-150694097D01*
X190100185Y-150627058D01*
X190148203Y-150583612D01*
X190189022Y-150562815D01*
X190367365Y-150433242D01*
X190523242Y-150277365D01*
X190652815Y-150099022D01*
X190752895Y-149902606D01*
X190821015Y-149692951D01*
X190855500Y-149475222D01*
X190855500Y-149254778D01*
X190821015Y-149037049D01*
X190783342Y-148921102D01*
X190752896Y-148827396D01*
X190752895Y-148827393D01*
X190682417Y-148689075D01*
X190652815Y-148630978D01*
X190622108Y-148588713D01*
X190523247Y-148452641D01*
X190523243Y-148452636D01*
X190367363Y-148296756D01*
X190367358Y-148296752D01*
X190189025Y-148167187D01*
X190189024Y-148167186D01*
X190189022Y-148167185D01*
X190106026Y-148124896D01*
X189992606Y-148067104D01*
X189992603Y-148067103D01*
X189782952Y-147998985D01*
X189624912Y-147973954D01*
X189565222Y-147964500D01*
X189344778Y-147964500D01*
X189285088Y-147973954D01*
X189127047Y-147998985D01*
X188917396Y-148067103D01*
X188917393Y-148067104D01*
X188720974Y-148167187D01*
X188542641Y-148296752D01*
X188542636Y-148296756D01*
X188492075Y-148347317D01*
X188430752Y-148380801D01*
X188361060Y-148375816D01*
X188305127Y-148333945D01*
X188288213Y-148302968D01*
X188258354Y-148222913D01*
X188258350Y-148222906D01*
X188172190Y-148107812D01*
X188172187Y-148107809D01*
X188057093Y-148021649D01*
X188057086Y-148021645D01*
X187922379Y-147971403D01*
X187922372Y-147971401D01*
X187862844Y-147965000D01*
X187165000Y-147965000D01*
X187165000Y-148989722D01*
X187088694Y-148945667D01*
X186974244Y-148915000D01*
X186855756Y-148915000D01*
X186741306Y-148945667D01*
X186665000Y-148989722D01*
X186665000Y-147965000D01*
X186324561Y-147965000D01*
X186257522Y-147945315D01*
X186211767Y-147892511D01*
X186201823Y-147823353D01*
X186230848Y-147759797D01*
X186236880Y-147753319D01*
X188091960Y-145898239D01*
X188091963Y-145898236D01*
X188115397Y-145863165D01*
X188190513Y-145750747D01*
X188258394Y-145586866D01*
X188258746Y-145585099D01*
X188290492Y-145425499D01*
X188293000Y-145412891D01*
X188293000Y-145105398D01*
X188311461Y-145040301D01*
X188339814Y-144994334D01*
X188394999Y-144827797D01*
X188405500Y-144725009D01*
X188405499Y-143724992D01*
X188404065Y-143710958D01*
X188394999Y-143622203D01*
X188394998Y-143622200D01*
X188385667Y-143594042D01*
X188339814Y-143455666D01*
X188311459Y-143409695D01*
X188293000Y-143344601D01*
X188293000Y-142115398D01*
X188311461Y-142050301D01*
X188339814Y-142004334D01*
X188394999Y-141837797D01*
X188405500Y-141735009D01*
X188405499Y-141469257D01*
X188425183Y-141402220D01*
X188477987Y-141356465D01*
X188547146Y-141346521D01*
X188576999Y-141354718D01*
X188577997Y-141355132D01*
X188578048Y-141355153D01*
X188578050Y-141355154D01*
X188578629Y-141355394D01*
X188625148Y-141374663D01*
X188645197Y-141378651D01*
X188678796Y-141385334D01*
X188745992Y-141398701D01*
X188745994Y-141398701D01*
X188875321Y-141398701D01*
X188875341Y-141398700D01*
X189638913Y-141398700D01*
X189705952Y-141418385D01*
X189751707Y-141471189D01*
X189761651Y-141540347D01*
X189761386Y-141542098D01*
X189760240Y-141549334D01*
X189744500Y-141648713D01*
X189744500Y-141861287D01*
X189748113Y-141884096D01*
X189776185Y-142061342D01*
X189777754Y-142071243D01*
X189841573Y-142267658D01*
X189843444Y-142273414D01*
X189939951Y-142462820D01*
X190064890Y-142634786D01*
X190215213Y-142785109D01*
X190387179Y-142910048D01*
X190387181Y-142910049D01*
X190387184Y-142910051D01*
X190396493Y-142914794D01*
X190447290Y-142962766D01*
X190464087Y-143030587D01*
X190441552Y-143096722D01*
X190396505Y-143135760D01*
X190387446Y-143140376D01*
X190387440Y-143140380D01*
X190333282Y-143179727D01*
X190333282Y-143179728D01*
X190965591Y-143812037D01*
X190902007Y-143829075D01*
X190787993Y-143894901D01*
X190694901Y-143987993D01*
X190629075Y-144102007D01*
X190612037Y-144165591D01*
X189979728Y-143533282D01*
X189979727Y-143533282D01*
X189940380Y-143587439D01*
X189843904Y-143776782D01*
X189778242Y-143978869D01*
X189778242Y-143978872D01*
X189745000Y-144188753D01*
X189745000Y-144401246D01*
X189778242Y-144611127D01*
X189778242Y-144611130D01*
X189843904Y-144813217D01*
X189940375Y-145002550D01*
X189979728Y-145056716D01*
X190612037Y-144424408D01*
X190629075Y-144487993D01*
X190694901Y-144602007D01*
X190787993Y-144695099D01*
X190902007Y-144760925D01*
X190965590Y-144777962D01*
X190333282Y-145410269D01*
X190333282Y-145410270D01*
X190387449Y-145449624D01*
X190576782Y-145546095D01*
X190778870Y-145611757D01*
X190988754Y-145645000D01*
X191201246Y-145645000D01*
X191411127Y-145611757D01*
X191411130Y-145611757D01*
X191613217Y-145546095D01*
X191802554Y-145449622D01*
X191856716Y-145410270D01*
X191856717Y-145410270D01*
X191224408Y-144777962D01*
X191287993Y-144760925D01*
X191402007Y-144695099D01*
X191495099Y-144602007D01*
X191560925Y-144487993D01*
X191577962Y-144424408D01*
X192210270Y-145056717D01*
X192210270Y-145056716D01*
X192249622Y-145002554D01*
X192346095Y-144813217D01*
X192411757Y-144611130D01*
X192411757Y-144611127D01*
X192445000Y-144401246D01*
X192445000Y-144188753D01*
X192411757Y-143978872D01*
X192411757Y-143978869D01*
X192346095Y-143776782D01*
X192249624Y-143587449D01*
X192210270Y-143533282D01*
X192210269Y-143533282D01*
X191577962Y-144165590D01*
X191560925Y-144102007D01*
X191495099Y-143987993D01*
X191402007Y-143894901D01*
X191287993Y-143829075D01*
X191224409Y-143812037D01*
X191856716Y-143179728D01*
X191802547Y-143140373D01*
X191802547Y-143140372D01*
X191793500Y-143135763D01*
X191742706Y-143087788D01*
X191725912Y-143019966D01*
X191748451Y-142953832D01*
X191793508Y-142914793D01*
X191802816Y-142910051D01*
X191885470Y-142850000D01*
X191974786Y-142785109D01*
X191974793Y-142785103D01*
X192046637Y-142713259D01*
X192125104Y-142634792D01*
X192125106Y-142634788D01*
X192125109Y-142634786D01*
X192250048Y-142462820D01*
X192250047Y-142462820D01*
X192250051Y-142462816D01*
X192346557Y-142273412D01*
X192412246Y-142071243D01*
X192445500Y-141861287D01*
X192445500Y-141648713D01*
X192412246Y-141438757D01*
X192381722Y-141344817D01*
X192379728Y-141274977D01*
X192415808Y-141215144D01*
X192478509Y-141184316D01*
X192499654Y-141182500D01*
X192617562Y-141182500D01*
X192684601Y-141202185D01*
X192730356Y-141254989D01*
X192740920Y-141293899D01*
X192750000Y-141382796D01*
X192750001Y-141382799D01*
X192805185Y-141549331D01*
X192805187Y-141549336D01*
X192897289Y-141698657D01*
X192990951Y-141792319D01*
X193024436Y-141853642D01*
X193019452Y-141923334D01*
X192990951Y-141967681D01*
X192897289Y-142061342D01*
X192805187Y-142210663D01*
X192805186Y-142210666D01*
X192750001Y-142377203D01*
X192750001Y-142377204D01*
X192750000Y-142377204D01*
X192739500Y-142479983D01*
X192739500Y-143105001D01*
X192739501Y-143105019D01*
X192750000Y-143207796D01*
X192750001Y-143207799D01*
X192805185Y-143374331D01*
X192805187Y-143374336D01*
X192826997Y-143409696D01*
X192891343Y-143514018D01*
X192897289Y-143523657D01*
X193003181Y-143629549D01*
X193036666Y-143690872D01*
X193039500Y-143717230D01*
X193039500Y-143959296D01*
X193074103Y-144133258D01*
X193074105Y-144133266D01*
X193101668Y-144199808D01*
X193101668Y-144199809D01*
X193141984Y-144297142D01*
X193141985Y-144297144D01*
X193172860Y-144343352D01*
X193172861Y-144343353D01*
X193172864Y-144343357D01*
X193211544Y-144401246D01*
X193240537Y-144444638D01*
X193783860Y-144987961D01*
X193783864Y-144987964D01*
X193931346Y-145086509D01*
X193931352Y-145086512D01*
X193931353Y-145086513D01*
X194095234Y-145154395D01*
X194264181Y-145188000D01*
X194269203Y-145188999D01*
X194269207Y-145189000D01*
X194435100Y-145189000D01*
X194502139Y-145208685D01*
X194547894Y-145261489D01*
X194559100Y-145313000D01*
X194559100Y-146714946D01*
X194539415Y-146781985D01*
X194522781Y-146802628D01*
X194402517Y-146922891D01*
X194341194Y-146956375D01*
X194276519Y-146953140D01*
X194232953Y-146938985D01*
X194232954Y-146938985D01*
X194069654Y-146913121D01*
X194015222Y-146904500D01*
X193794778Y-146904500D01*
X193722201Y-146915995D01*
X193577047Y-146938985D01*
X193367396Y-147007103D01*
X193367393Y-147007104D01*
X193170974Y-147107187D01*
X192992641Y-147236752D01*
X192992636Y-147236756D01*
X192836756Y-147392636D01*
X192836752Y-147392641D01*
X192707187Y-147570974D01*
X192607104Y-147767393D01*
X192607103Y-147767396D01*
X192538985Y-147977047D01*
X192504500Y-148194778D01*
X192504500Y-148415221D01*
X192538985Y-148632952D01*
X192607103Y-148842603D01*
X192607104Y-148842606D01*
X192659565Y-148945564D01*
X192704447Y-149033649D01*
X192707187Y-149039025D01*
X192836752Y-149217358D01*
X192836756Y-149217363D01*
X192887316Y-149267923D01*
X192920801Y-149329246D01*
X192915817Y-149398938D01*
X192873945Y-149454871D01*
X192842969Y-149471785D01*
X192762918Y-149501643D01*
X192762906Y-149501649D01*
X192647812Y-149587809D01*
X192647809Y-149587812D01*
X192561649Y-149702906D01*
X192561645Y-149702913D01*
X192511403Y-149837620D01*
X192511401Y-149837627D01*
X192505000Y-149897155D01*
X192505000Y-150595000D01*
X193529722Y-150595000D01*
X193485667Y-150671306D01*
X193455000Y-150785756D01*
X193455000Y-150904244D01*
X193485667Y-151018694D01*
X193529722Y-151095000D01*
X192505000Y-151095000D01*
X192505000Y-151792844D01*
X192511401Y-151852372D01*
X192511403Y-151852379D01*
X192561645Y-151987086D01*
X192561649Y-151987093D01*
X192647809Y-152102187D01*
X192647812Y-152102190D01*
X192762906Y-152188350D01*
X192762913Y-152188354D01*
X192897620Y-152238596D01*
X192897627Y-152238598D01*
X192957155Y-152244999D01*
X192957172Y-152245000D01*
X193655000Y-152245000D01*
X193655000Y-151220277D01*
X193731306Y-151264333D01*
X193845756Y-151295000D01*
X193964244Y-151295000D01*
X194078694Y-151264333D01*
X194155000Y-151220277D01*
X194155000Y-152245000D01*
X194852828Y-152245000D01*
X194852844Y-152244999D01*
X194912372Y-152238598D01*
X194912379Y-152238596D01*
X195047086Y-152188354D01*
X195047093Y-152188350D01*
X195162187Y-152102190D01*
X195162190Y-152102187D01*
X195248350Y-151987093D01*
X195248354Y-151987086D01*
X195298596Y-151852379D01*
X195298598Y-151852372D01*
X195304999Y-151792844D01*
X195305000Y-151792827D01*
X195305000Y-151095000D01*
X194280278Y-151095000D01*
X194324333Y-151018694D01*
X194355000Y-150904244D01*
X194355000Y-150785756D01*
X194324333Y-150671306D01*
X194280278Y-150595000D01*
X195305000Y-150595000D01*
X195305000Y-149897172D01*
X195304999Y-149897155D01*
X195298598Y-149837627D01*
X195298596Y-149837620D01*
X195248354Y-149702913D01*
X195248350Y-149702906D01*
X195162190Y-149587812D01*
X195162187Y-149587809D01*
X195047093Y-149501649D01*
X195047087Y-149501646D01*
X194967030Y-149471786D01*
X194911097Y-149429914D01*
X194886680Y-149364450D01*
X194901532Y-149296177D01*
X194922681Y-149267925D01*
X194973242Y-149217365D01*
X195102815Y-149039022D01*
X195202895Y-148842606D01*
X195271015Y-148632951D01*
X195305500Y-148415222D01*
X195305500Y-148194778D01*
X195271015Y-147977049D01*
X195256859Y-147933480D01*
X195254864Y-147863639D01*
X195287109Y-147807481D01*
X195472591Y-147622000D01*
X195670458Y-147424133D01*
X195738912Y-147321685D01*
X195771687Y-147242558D01*
X195774090Y-147236758D01*
X195786061Y-147207856D01*
X195786063Y-147207852D01*
X195793320Y-147171369D01*
X195801710Y-147129187D01*
X195810101Y-147087007D01*
X195810101Y-146958683D01*
X195810100Y-146958657D01*
X195810100Y-137700493D01*
X195810099Y-137700489D01*
X195802581Y-137662694D01*
X195786063Y-137579648D01*
X195738911Y-137465814D01*
X195738910Y-137465813D01*
X195738907Y-137465807D01*
X195670458Y-137363367D01*
X195670455Y-137363363D01*
X195580237Y-137273145D01*
X195580206Y-137273116D01*
X195176818Y-136869728D01*
X195143333Y-136808405D01*
X195140499Y-136782055D01*
X195140499Y-136204992D01*
X195129999Y-136102203D01*
X195129997Y-136102196D01*
X195123240Y-136081803D01*
X195120839Y-136011974D01*
X195156571Y-135951933D01*
X195219091Y-135920741D01*
X195240946Y-135918800D01*
X195582908Y-135918800D01*
X195582908Y-135918799D01*
X195655141Y-135904432D01*
X195655142Y-135904432D01*
X195679782Y-135899530D01*
X195703752Y-135894763D01*
X195751913Y-135874814D01*
X195817586Y-135847612D01*
X195888318Y-135800349D01*
X195920033Y-135779158D01*
X196007158Y-135692033D01*
X196007158Y-135692031D01*
X196017366Y-135681824D01*
X196017367Y-135681821D01*
X196772458Y-134926733D01*
X196840912Y-134824285D01*
X196881975Y-134725149D01*
X196888063Y-134710452D01*
X196899512Y-134652893D01*
X196912101Y-134589606D01*
X196912101Y-134466393D01*
X196912101Y-134461283D01*
X196912100Y-134461257D01*
X196912100Y-133880996D01*
X196912100Y-133880994D01*
X196888063Y-133760148D01*
X196873882Y-133725914D01*
X196873882Y-133725912D01*
X196840914Y-133646319D01*
X196840912Y-133646314D01*
X196800083Y-133585211D01*
X196772458Y-133543867D01*
X196772455Y-133543863D01*
X196682237Y-133453645D01*
X196682206Y-133453616D01*
X195814198Y-132585608D01*
X195814178Y-132585586D01*
X195722736Y-132494144D01*
X195722728Y-132494138D01*
X195646196Y-132443001D01*
X195646194Y-132442999D01*
X195646194Y-132443000D01*
X195620285Y-132425687D01*
X195580039Y-132409017D01*
X195539792Y-132392347D01*
X195506453Y-132378537D01*
X195496427Y-132376543D01*
X195446029Y-132366518D01*
X195385610Y-132354500D01*
X195385607Y-132354500D01*
X195385606Y-132354500D01*
X195344500Y-132354500D01*
X195277461Y-132334815D01*
X195231706Y-132282011D01*
X195220500Y-132230500D01*
X195220499Y-131802952D01*
X195240183Y-131735913D01*
X195256813Y-131715275D01*
X195688557Y-131283534D01*
X195692649Y-131277411D01*
X195757011Y-131181086D01*
X195804163Y-131067252D01*
X195828200Y-130946406D01*
X195828200Y-126532994D01*
X195827504Y-126529497D01*
X195827502Y-126529486D01*
X195827502Y-126529483D01*
X195804164Y-126412156D01*
X195804163Y-126412149D01*
X195795420Y-126391042D01*
X195781571Y-126357607D01*
X195757012Y-126298315D01*
X195737551Y-126269189D01*
X195719036Y-126224490D01*
X195690038Y-126078710D01*
X195690037Y-126078703D01*
X195674125Y-126040288D01*
X195629697Y-125933027D01*
X195629690Y-125933014D01*
X195542089Y-125801911D01*
X195542086Y-125801907D01*
X195430592Y-125690413D01*
X195430588Y-125690410D01*
X195299475Y-125602802D01*
X195297532Y-125601764D01*
X195296705Y-125600952D01*
X195294414Y-125599421D01*
X195294704Y-125598986D01*
X195247691Y-125552798D01*
X195232235Y-125484660D01*
X195238285Y-125453411D01*
X195264999Y-125372797D01*
X195275500Y-125270009D01*
X195275499Y-124669992D01*
X195264999Y-124567203D01*
X195209814Y-124400666D01*
X195117712Y-124251344D01*
X194993656Y-124127288D01*
X194990342Y-124125243D01*
X194988546Y-124123248D01*
X194987989Y-124122807D01*
X194988064Y-124122711D01*
X194943618Y-124073297D01*
X194932397Y-124004334D01*
X194960240Y-123940252D01*
X194990348Y-123914165D01*
X194993342Y-123912318D01*
X195117315Y-123788345D01*
X195209356Y-123639124D01*
X195209358Y-123639119D01*
X195264505Y-123472697D01*
X195264506Y-123472690D01*
X195274999Y-123369986D01*
X195275000Y-123369973D01*
X195275000Y-123320000D01*
X192825001Y-123320000D01*
X192825001Y-123369986D01*
X192835494Y-123472697D01*
X192890641Y-123639119D01*
X192890643Y-123639124D01*
X192982684Y-123788345D01*
X193106655Y-123912316D01*
X193106659Y-123912319D01*
X193109656Y-123914168D01*
X193111279Y-123915972D01*
X193112323Y-123916798D01*
X193112181Y-123916976D01*
X193156381Y-123966116D01*
X193167602Y-124035079D01*
X193139759Y-124099161D01*
X193109661Y-124125241D01*
X193106349Y-124127283D01*
X193106343Y-124127288D01*
X192982289Y-124251342D01*
X192890187Y-124400663D01*
X192890186Y-124400666D01*
X192835001Y-124567203D01*
X192835001Y-124567204D01*
X192835000Y-124567204D01*
X192824500Y-124669983D01*
X192824500Y-124870637D01*
X192804815Y-124937676D01*
X192788181Y-124958318D01*
X191908038Y-125838460D01*
X191908032Y-125838468D01*
X191868745Y-125897266D01*
X191868745Y-125897267D01*
X191809490Y-125985947D01*
X191809485Y-125985956D01*
X191786981Y-126040288D01*
X191741605Y-126149833D01*
X191741603Y-126149841D01*
X191712070Y-126298312D01*
X191712071Y-126298313D01*
X191707000Y-126323808D01*
X191707000Y-128319896D01*
X191722876Y-128399709D01*
X191716649Y-128469301D01*
X191673786Y-128524478D01*
X191607896Y-128547722D01*
X191601259Y-128547900D01*
X189800262Y-128547900D01*
X189733223Y-128528215D01*
X189712581Y-128511581D01*
X189603619Y-128402619D01*
X189570134Y-128341296D01*
X189567300Y-128314938D01*
X189567300Y-123510111D01*
X189586985Y-123443072D01*
X189639789Y-123397317D01*
X189708947Y-123387373D01*
X189772503Y-123416398D01*
X189778981Y-123422430D01*
X189882345Y-123525794D01*
X189882350Y-123525798D01*
X190038324Y-123639119D01*
X190086155Y-123673870D01*
X190229184Y-123746747D01*
X190310616Y-123788239D01*
X190310618Y-123788239D01*
X190310621Y-123788241D01*
X190550215Y-123866090D01*
X190799038Y-123905500D01*
X190799039Y-123905500D01*
X191050961Y-123905500D01*
X191050962Y-123905500D01*
X191299785Y-123866090D01*
X191539379Y-123788241D01*
X191763845Y-123673870D01*
X191967656Y-123525793D01*
X192145793Y-123347656D01*
X192293870Y-123143845D01*
X192408241Y-122919379D01*
X192456773Y-122770013D01*
X192825000Y-122770013D01*
X192825000Y-122820000D01*
X193800000Y-122820000D01*
X194300000Y-122820000D01*
X195274999Y-122820000D01*
X195274999Y-122770028D01*
X195274998Y-122770013D01*
X195264505Y-122667302D01*
X195209358Y-122500880D01*
X195209356Y-122500875D01*
X195117315Y-122351654D01*
X194993345Y-122227684D01*
X194844124Y-122135643D01*
X194844119Y-122135641D01*
X194677697Y-122080494D01*
X194677690Y-122080493D01*
X194574986Y-122070000D01*
X194300000Y-122070000D01*
X194300000Y-122820000D01*
X193800000Y-122820000D01*
X193800000Y-122070000D01*
X193525029Y-122070000D01*
X193525012Y-122070001D01*
X193422302Y-122080494D01*
X193255880Y-122135641D01*
X193255875Y-122135643D01*
X193106654Y-122227684D01*
X192982684Y-122351654D01*
X192890643Y-122500875D01*
X192890641Y-122500880D01*
X192835494Y-122667302D01*
X192835493Y-122667309D01*
X192825000Y-122770013D01*
X192456773Y-122770013D01*
X192486090Y-122679785D01*
X192525500Y-122430962D01*
X192525500Y-122179038D01*
X192486090Y-121930215D01*
X192408241Y-121690621D01*
X192408239Y-121690618D01*
X192408239Y-121690616D01*
X192342091Y-121560795D01*
X192329195Y-121492126D01*
X192355471Y-121427385D01*
X192412577Y-121387128D01*
X192452576Y-121380500D01*
X193164868Y-121380500D01*
X193229963Y-121398960D01*
X193255666Y-121414814D01*
X193422203Y-121469999D01*
X193524991Y-121480500D01*
X194575008Y-121480499D01*
X194575016Y-121480498D01*
X194575019Y-121480498D01*
X194631302Y-121474748D01*
X194677797Y-121469999D01*
X194844334Y-121414814D01*
X194993656Y-121322712D01*
X195117712Y-121198656D01*
X195209814Y-121049334D01*
X195264999Y-120882797D01*
X195275500Y-120780009D01*
X195275499Y-120179992D01*
X195264999Y-120077203D01*
X195209814Y-119910666D01*
X195117712Y-119761344D01*
X194993656Y-119637288D01*
X194990342Y-119635243D01*
X194988546Y-119633248D01*
X194987989Y-119632807D01*
X194988064Y-119632711D01*
X194943618Y-119583297D01*
X194932397Y-119514334D01*
X194960240Y-119450252D01*
X194990348Y-119424165D01*
X194993342Y-119422318D01*
X195117315Y-119298345D01*
X195209356Y-119149124D01*
X195209358Y-119149119D01*
X195264505Y-118982697D01*
X195264506Y-118982690D01*
X195274999Y-118879986D01*
X195275000Y-118879973D01*
X195275000Y-118830000D01*
X192825001Y-118830000D01*
X192825001Y-118879986D01*
X192835494Y-118982697D01*
X192890641Y-119149119D01*
X192890643Y-119149124D01*
X192982684Y-119298345D01*
X193052158Y-119367819D01*
X193085643Y-119429142D01*
X193080659Y-119498834D01*
X193038787Y-119554767D01*
X192973323Y-119579184D01*
X192964477Y-119579500D01*
X192646009Y-119579500D01*
X192578970Y-119559815D01*
X192533215Y-119507011D01*
X192522651Y-119442897D01*
X192525499Y-119415017D01*
X192525500Y-119415004D01*
X192525500Y-118280013D01*
X192825000Y-118280013D01*
X192825000Y-118330000D01*
X193800000Y-118330000D01*
X194300000Y-118330000D01*
X195274999Y-118330000D01*
X195274999Y-118280028D01*
X195274998Y-118280013D01*
X195264505Y-118177302D01*
X195209358Y-118010880D01*
X195209356Y-118010875D01*
X195117315Y-117861654D01*
X194993345Y-117737684D01*
X194844124Y-117645643D01*
X194844119Y-117645641D01*
X194677697Y-117590494D01*
X194677690Y-117590493D01*
X194574986Y-117580000D01*
X194300000Y-117580000D01*
X194300000Y-118330000D01*
X193800000Y-118330000D01*
X193800000Y-117580000D01*
X193525029Y-117580000D01*
X193525012Y-117580001D01*
X193422302Y-117590494D01*
X193255880Y-117645641D01*
X193255875Y-117645643D01*
X193106654Y-117737684D01*
X192982684Y-117861654D01*
X192890643Y-118010875D01*
X192890641Y-118010880D01*
X192835494Y-118177302D01*
X192835493Y-118177309D01*
X192825000Y-118280013D01*
X192525500Y-118280013D01*
X192525500Y-117614995D01*
X192525499Y-117614982D01*
X192522435Y-117584994D01*
X192514999Y-117512202D01*
X192459814Y-117345665D01*
X192367712Y-117196344D01*
X192273549Y-117102181D01*
X192240064Y-117040858D01*
X192245048Y-116971166D01*
X192286920Y-116915233D01*
X192352384Y-116890816D01*
X192361230Y-116890500D01*
X193164868Y-116890500D01*
X193229963Y-116908960D01*
X193255666Y-116924814D01*
X193422203Y-116979999D01*
X193524991Y-116990500D01*
X194575008Y-116990499D01*
X194575016Y-116990498D01*
X194575019Y-116990498D01*
X194631302Y-116984748D01*
X194677797Y-116979999D01*
X194844334Y-116924814D01*
X194993656Y-116832712D01*
X195117712Y-116708656D01*
X195209814Y-116559334D01*
X195264999Y-116392797D01*
X195275500Y-116290009D01*
X195275499Y-116290001D01*
X195275705Y-116287995D01*
X195302100Y-116223303D01*
X195311373Y-116212924D01*
X196204163Y-115320136D01*
X196220062Y-115296342D01*
X196302713Y-115172647D01*
X196344068Y-115072806D01*
X196370595Y-115008766D01*
X196405200Y-114834792D01*
X196405200Y-114657408D01*
X196405200Y-112876200D01*
X196424885Y-112809161D01*
X196477689Y-112763406D01*
X196529200Y-112752200D01*
X197325093Y-112752200D01*
X197325094Y-112752199D01*
X197499066Y-112717595D01*
X197581006Y-112683653D01*
X197662947Y-112649713D01*
X197772377Y-112576594D01*
X197810436Y-112551164D01*
X198288319Y-112073281D01*
X198349642Y-112039796D01*
X198419333Y-112044780D01*
G37*
%TD.AperFunction*%
%TA.AperFunction,Conductor*%
G36*
X187165000Y-150765000D02*
G01*
X187862828Y-150765000D01*
X187862844Y-150764999D01*
X187922372Y-150758598D01*
X187922379Y-150758596D01*
X188057086Y-150708354D01*
X188057093Y-150708350D01*
X188172187Y-150622190D01*
X188172190Y-150622187D01*
X188258350Y-150507093D01*
X188258354Y-150507086D01*
X188288213Y-150427031D01*
X188330084Y-150371097D01*
X188395548Y-150346680D01*
X188463821Y-150361531D01*
X188492076Y-150382683D01*
X188542636Y-150433243D01*
X188542641Y-150433247D01*
X188640539Y-150504374D01*
X188683205Y-150559704D01*
X188689184Y-150629317D01*
X188656579Y-150691112D01*
X188655335Y-150692373D01*
X182878929Y-156468781D01*
X182817606Y-156502266D01*
X182791248Y-156505100D01*
X161376553Y-156505100D01*
X161309514Y-156485415D01*
X161288872Y-156468781D01*
X160855793Y-156035703D01*
X160822308Y-155974380D01*
X160821887Y-155972364D01*
X160799737Y-155861003D01*
X160739394Y-155715321D01*
X160739393Y-155715319D01*
X160739392Y-155715317D01*
X160739247Y-155715044D01*
X160739213Y-155714884D01*
X160737063Y-155709692D01*
X160738048Y-155709283D01*
X160725011Y-155646639D01*
X160750017Y-155581398D01*
X160806325Y-155540032D01*
X160848610Y-155532600D01*
X176226593Y-155532600D01*
X176226594Y-155532599D01*
X176400566Y-155497995D01*
X176482506Y-155464053D01*
X176564447Y-155430113D01*
X176564449Y-155430111D01*
X176564452Y-155430110D01*
X176652855Y-155371039D01*
X176652855Y-155371038D01*
X176652859Y-155371036D01*
X176711936Y-155331564D01*
X177776681Y-154266817D01*
X177838004Y-154233333D01*
X177864362Y-154230499D01*
X178491123Y-154230499D01*
X178491123Y-154230498D01*
X178533889Y-154227600D01*
X178718693Y-154181641D01*
X178889296Y-154097030D01*
X179037722Y-153977722D01*
X179157030Y-153829296D01*
X179241641Y-153658693D01*
X179287600Y-153473889D01*
X179290500Y-153431123D01*
X179290499Y-153098558D01*
X179310183Y-153031521D01*
X179362987Y-152985766D01*
X179432146Y-152975822D01*
X179495701Y-153004847D01*
X179502180Y-153010879D01*
X179543436Y-153052135D01*
X179626113Y-153134812D01*
X179668866Y-153177565D01*
X179816346Y-153276109D01*
X179816359Y-153276116D01*
X179939263Y-153327023D01*
X179980234Y-153343994D01*
X179980236Y-153343994D01*
X179980241Y-153343996D01*
X180154204Y-153378599D01*
X180154207Y-153378600D01*
X180154209Y-153378600D01*
X183432093Y-153378600D01*
X183432094Y-153378599D01*
X183606066Y-153343995D01*
X183688006Y-153310053D01*
X183769947Y-153276113D01*
X183769949Y-153276111D01*
X183769952Y-153276110D01*
X183858355Y-153217039D01*
X183858355Y-153217038D01*
X183858359Y-153217036D01*
X183917436Y-153177564D01*
X185221364Y-151873635D01*
X185272550Y-151797030D01*
X185319913Y-151726147D01*
X185362722Y-151622797D01*
X185387795Y-151562266D01*
X185422400Y-151388291D01*
X185422400Y-151210908D01*
X185422400Y-150680276D01*
X185442085Y-150613237D01*
X185494889Y-150567482D01*
X185564047Y-150557538D01*
X185627603Y-150586563D01*
X185645668Y-150605967D01*
X185657812Y-150622190D01*
X185772906Y-150708350D01*
X185772913Y-150708354D01*
X185907620Y-150758596D01*
X185907627Y-150758598D01*
X185967155Y-150764999D01*
X185967172Y-150765000D01*
X186665000Y-150765000D01*
X186665000Y-149740277D01*
X186741306Y-149784333D01*
X186855756Y-149815000D01*
X186974244Y-149815000D01*
X187088694Y-149784333D01*
X187165000Y-149740277D01*
X187165000Y-150765000D01*
G37*
%TD.AperFunction*%
%TA.AperFunction,Conductor*%
G36*
X169932540Y-150885185D02*
G01*
X169978295Y-150937989D01*
X169989501Y-150989500D01*
X169989501Y-152138034D01*
X170000113Y-152257415D01*
X170056089Y-152453045D01*
X170056090Y-152453048D01*
X170056091Y-152453049D01*
X170150302Y-152633407D01*
X170150304Y-152633409D01*
X170278890Y-152791109D01*
X170372803Y-152867684D01*
X170436593Y-152919698D01*
X170616951Y-153013909D01*
X170812582Y-153069886D01*
X170931963Y-153080500D01*
X172048036Y-153080499D01*
X172167418Y-153069886D01*
X172363049Y-153013909D01*
X172543407Y-152919698D01*
X172701109Y-152791109D01*
X172829698Y-152633407D01*
X172923909Y-152453049D01*
X172979886Y-152257418D01*
X172990500Y-152138037D01*
X172990500Y-151704500D01*
X173010185Y-151637461D01*
X173062989Y-151591706D01*
X173114500Y-151580500D01*
X176404709Y-151580500D01*
X176471748Y-151600185D01*
X176501356Y-151626813D01*
X176542277Y-151677721D01*
X176542278Y-151677722D01*
X176611486Y-151733353D01*
X176651405Y-151790696D01*
X176653985Y-151860518D01*
X176618406Y-151920651D01*
X176611486Y-151926647D01*
X176542278Y-151982277D01*
X176542277Y-151982278D01*
X176422969Y-152130704D01*
X176422967Y-152130707D01*
X176338360Y-152301302D01*
X176292400Y-152486107D01*
X176289500Y-152528879D01*
X176289500Y-153155637D01*
X176269815Y-153222676D01*
X176253181Y-153243318D01*
X175801219Y-153695281D01*
X175739896Y-153728766D01*
X175713538Y-153731600D01*
X156069562Y-153731600D01*
X156002523Y-153711915D01*
X155981881Y-153695281D01*
X155626515Y-153339915D01*
X155593030Y-153278592D01*
X155598014Y-153208900D01*
X155639886Y-153152967D01*
X155667990Y-153138292D01*
X155667791Y-153137864D01*
X155674326Y-153134816D01*
X155674334Y-153134814D01*
X155823656Y-153042712D01*
X155917319Y-152949049D01*
X155978642Y-152915564D01*
X156048334Y-152920548D01*
X156092681Y-152949049D01*
X156186344Y-153042712D01*
X156335666Y-153134814D01*
X156502203Y-153189999D01*
X156604991Y-153200500D01*
X157230008Y-153200499D01*
X157230016Y-153200498D01*
X157230019Y-153200498D01*
X157286302Y-153194748D01*
X157332797Y-153189999D01*
X157499334Y-153134814D01*
X157648656Y-153042712D01*
X157772712Y-152918656D01*
X157864814Y-152769334D01*
X157919999Y-152602797D01*
X157930500Y-152500009D01*
X157930499Y-151996717D01*
X157930499Y-151499998D01*
X157930498Y-151499980D01*
X157919999Y-151397203D01*
X157919998Y-151397200D01*
X157917046Y-151388291D01*
X157864814Y-151230666D01*
X157864809Y-151230659D01*
X157862998Y-151226773D01*
X157862553Y-151223844D01*
X157862542Y-151223811D01*
X157862547Y-151223809D01*
X157852505Y-151157696D01*
X157881023Y-151093911D01*
X157939499Y-151055671D01*
X158009366Y-151055115D01*
X158022833Y-151059806D01*
X158029248Y-151062463D01*
X158049297Y-151066451D01*
X158082896Y-151073134D01*
X158150092Y-151086501D01*
X158150094Y-151086501D01*
X158279421Y-151086501D01*
X158279441Y-151086500D01*
X166640608Y-151086500D01*
X166640608Y-151086499D01*
X166705531Y-151073586D01*
X166705532Y-151073586D01*
X166724516Y-151069809D01*
X166761452Y-151062463D01*
X166794792Y-151048652D01*
X166823552Y-151036739D01*
X166893020Y-151029273D01*
X166955498Y-151060549D01*
X166991149Y-151120639D01*
X166995000Y-151151302D01*
X166995000Y-151341246D01*
X167028242Y-151551127D01*
X167028242Y-151551130D01*
X167093904Y-151753217D01*
X167190375Y-151942550D01*
X167229728Y-151996716D01*
X167862036Y-151364407D01*
X167879075Y-151427993D01*
X167944901Y-151542007D01*
X168037993Y-151635099D01*
X168152007Y-151700925D01*
X168215590Y-151717962D01*
X167583282Y-152350269D01*
X167583282Y-152350270D01*
X167637449Y-152389624D01*
X167826782Y-152486095D01*
X168028870Y-152551757D01*
X168238754Y-152585000D01*
X168451246Y-152585000D01*
X168661127Y-152551757D01*
X168661130Y-152551757D01*
X168863217Y-152486095D01*
X169052554Y-152389622D01*
X169106716Y-152350270D01*
X169106717Y-152350270D01*
X168474408Y-151717962D01*
X168537993Y-151700925D01*
X168652007Y-151635099D01*
X168745099Y-151542007D01*
X168810925Y-151427993D01*
X168827962Y-151364409D01*
X169460270Y-151996717D01*
X169460270Y-151996716D01*
X169499622Y-151942554D01*
X169596095Y-151753217D01*
X169661757Y-151551130D01*
X169661757Y-151551127D01*
X169695000Y-151341246D01*
X169695000Y-151128753D01*
X169676017Y-151008898D01*
X169684972Y-150939604D01*
X169729968Y-150886152D01*
X169796720Y-150865513D01*
X169798490Y-150865500D01*
X169865501Y-150865500D01*
X169932540Y-150885185D01*
G37*
%TD.AperFunction*%
%TA.AperFunction,Conductor*%
G36*
X176495941Y-147221885D02*
G01*
X176541696Y-147274689D01*
X176551640Y-147343847D01*
X176525549Y-147403887D01*
X176423392Y-147530975D01*
X176423390Y-147530977D01*
X176338831Y-147701476D01*
X176292897Y-147886175D01*
X176290000Y-147928903D01*
X176290000Y-148130000D01*
X179290000Y-148130000D01*
X179290000Y-147928903D01*
X179287102Y-147886175D01*
X179241168Y-147701476D01*
X179156609Y-147530977D01*
X179156607Y-147530975D01*
X179054451Y-147403887D01*
X179027792Y-147339304D01*
X179040282Y-147270559D01*
X179087956Y-147219481D01*
X179151098Y-147202200D01*
X179797840Y-147202200D01*
X179864879Y-147221885D01*
X179910634Y-147274689D01*
X179920578Y-147343847D01*
X179915547Y-147365198D01*
X179895001Y-147427203D01*
X179895001Y-147427204D01*
X179895000Y-147427204D01*
X179884500Y-147529983D01*
X179884500Y-148530001D01*
X179884501Y-148530019D01*
X179895000Y-148632796D01*
X179895001Y-148632799D01*
X179950185Y-148799331D01*
X179950187Y-148799336D01*
X179967493Y-148827393D01*
X180042288Y-148948656D01*
X180166344Y-149072712D01*
X180315666Y-149164814D01*
X180482203Y-149219999D01*
X180584991Y-149230500D01*
X181210008Y-149230499D01*
X181210016Y-149230498D01*
X181210019Y-149230498D01*
X181293492Y-149221971D01*
X181312797Y-149219999D01*
X181479334Y-149164814D01*
X181628656Y-149072712D01*
X181722319Y-148979049D01*
X181783642Y-148945564D01*
X181853334Y-148950548D01*
X181897681Y-148979049D01*
X181991344Y-149072712D01*
X182140666Y-149164814D01*
X182307203Y-149219999D01*
X182409991Y-149230500D01*
X183035008Y-149230499D01*
X183035016Y-149230498D01*
X183035019Y-149230498D01*
X183118492Y-149221971D01*
X183137797Y-149219999D01*
X183304334Y-149164814D01*
X183432304Y-149085881D01*
X183499696Y-149067442D01*
X183566359Y-149088365D01*
X183611129Y-149142007D01*
X183621400Y-149191421D01*
X183621400Y-149858578D01*
X183601715Y-149925617D01*
X183548911Y-149971372D01*
X183479753Y-149981316D01*
X183432304Y-149964117D01*
X183304340Y-149885189D01*
X183304335Y-149885187D01*
X183304334Y-149885186D01*
X183137797Y-149830001D01*
X183137795Y-149830000D01*
X183035010Y-149819500D01*
X182409998Y-149819500D01*
X182409980Y-149819501D01*
X182307203Y-149830000D01*
X182307200Y-149830001D01*
X182140668Y-149885185D01*
X182140663Y-149885187D01*
X181991342Y-149977289D01*
X181897681Y-150070951D01*
X181836358Y-150104436D01*
X181766666Y-150099452D01*
X181722319Y-150070951D01*
X181628657Y-149977289D01*
X181628656Y-149977288D01*
X181535888Y-149920069D01*
X181479336Y-149885187D01*
X181479331Y-149885185D01*
X181477862Y-149884698D01*
X181312797Y-149830001D01*
X181312795Y-149830000D01*
X181210010Y-149819500D01*
X180584998Y-149819500D01*
X180584980Y-149819501D01*
X180482203Y-149830000D01*
X180482200Y-149830001D01*
X180315668Y-149885185D01*
X180315663Y-149885187D01*
X180166342Y-149977289D01*
X180042289Y-150101342D01*
X179950187Y-150250663D01*
X179950185Y-150250668D01*
X179922349Y-150334670D01*
X179895001Y-150417203D01*
X179895001Y-150417204D01*
X179895000Y-150417204D01*
X179884500Y-150519983D01*
X179884500Y-150546838D01*
X179864815Y-150613877D01*
X179812011Y-150659632D01*
X179742853Y-150669576D01*
X179679297Y-150640551D01*
X179672819Y-150634519D01*
X179325084Y-150286784D01*
X179291599Y-150225461D01*
X179289049Y-150207487D01*
X179287600Y-150186114D01*
X179287600Y-150186112D01*
X179287600Y-150186111D01*
X179241641Y-150001307D01*
X179223197Y-149964117D01*
X179157032Y-149830707D01*
X179157030Y-149830704D01*
X179037724Y-149682280D01*
X179037722Y-149682278D01*
X178968112Y-149626324D01*
X178928196Y-149568985D01*
X178925616Y-149499163D01*
X178961194Y-149439030D01*
X178968115Y-149433033D01*
X179037366Y-149377367D01*
X179037367Y-149377366D01*
X179156607Y-149229025D01*
X179156609Y-149229022D01*
X179241168Y-149058523D01*
X179287102Y-148873824D01*
X179290000Y-148831096D01*
X179290000Y-148630000D01*
X176290000Y-148630000D01*
X176290000Y-148831096D01*
X176292897Y-148873824D01*
X176338831Y-149058523D01*
X176423390Y-149229022D01*
X176423392Y-149229025D01*
X176542630Y-149377364D01*
X176611884Y-149433031D01*
X176651803Y-149490375D01*
X176654383Y-149560197D01*
X176618805Y-149620329D01*
X176611885Y-149626326D01*
X176542276Y-149682280D01*
X176501356Y-149733187D01*
X176444013Y-149773106D01*
X176404709Y-149779500D01*
X173114499Y-149779500D01*
X173047460Y-149759815D01*
X173001705Y-149707011D01*
X172990499Y-149655500D01*
X172990499Y-149221971D01*
X172990499Y-149221964D01*
X172979886Y-149102582D01*
X172923909Y-148906951D01*
X172829698Y-148726593D01*
X172753219Y-148632799D01*
X172701109Y-148568890D01*
X172585933Y-148474977D01*
X172543407Y-148440302D01*
X172363049Y-148346091D01*
X172363048Y-148346090D01*
X172363045Y-148346089D01*
X172245829Y-148312550D01*
X172167418Y-148290114D01*
X172167415Y-148290113D01*
X172167413Y-148290113D01*
X172101102Y-148284217D01*
X172048037Y-148279500D01*
X172048032Y-148279500D01*
X170931971Y-148279500D01*
X170931965Y-148279500D01*
X170931964Y-148279501D01*
X170920316Y-148280536D01*
X170812584Y-148290113D01*
X170616954Y-148346089D01*
X170560045Y-148375816D01*
X170436593Y-148440302D01*
X170436591Y-148440303D01*
X170436590Y-148440304D01*
X170278890Y-148568890D01*
X170150302Y-148726592D01*
X170056090Y-148906953D01*
X170036731Y-148974612D01*
X169999364Y-149033649D01*
X169936010Y-149063113D01*
X169917515Y-149064500D01*
X169798996Y-149064500D01*
X169731957Y-149044815D01*
X169686202Y-148992011D01*
X169676258Y-148922853D01*
X169676523Y-148921102D01*
X169695500Y-148801287D01*
X169695500Y-148588713D01*
X169662246Y-148378757D01*
X169596557Y-148176588D01*
X169585453Y-148154795D01*
X169572557Y-148086126D01*
X169598833Y-148021385D01*
X169655940Y-147981128D01*
X169695938Y-147974500D01*
X173318907Y-147974500D01*
X173379329Y-147962481D01*
X173439752Y-147950463D01*
X173484002Y-147932134D01*
X173553586Y-147903312D01*
X173626234Y-147854769D01*
X173656033Y-147834858D01*
X173743158Y-147747733D01*
X173743159Y-147747731D01*
X173750225Y-147740665D01*
X173750227Y-147740661D01*
X174252371Y-147238519D01*
X174313694Y-147205034D01*
X174340052Y-147202200D01*
X176428902Y-147202200D01*
X176495941Y-147221885D01*
G37*
%TD.AperFunction*%
%TA.AperFunction,Conductor*%
G36*
X167061101Y-147994185D02*
G01*
X167106856Y-148046989D01*
X167116800Y-148116147D01*
X167104547Y-148154795D01*
X167093444Y-148176585D01*
X167027753Y-148378760D01*
X166994500Y-148588713D01*
X166994500Y-148801286D01*
X167027753Y-149011241D01*
X167032821Y-149026837D01*
X167034816Y-149096678D01*
X167002571Y-149152837D01*
X166356229Y-149799181D01*
X166294906Y-149832666D01*
X166268548Y-149835500D01*
X165084038Y-149835500D01*
X165016999Y-149815815D01*
X164971244Y-149763011D01*
X164961300Y-149693853D01*
X164966107Y-149673182D01*
X165031757Y-149471130D01*
X165031757Y-149471127D01*
X165065000Y-149261246D01*
X165065000Y-149048753D01*
X165031757Y-148838872D01*
X165031757Y-148838869D01*
X164966095Y-148636782D01*
X164869624Y-148447449D01*
X164830270Y-148393282D01*
X164830269Y-148393282D01*
X164197962Y-149025589D01*
X164180925Y-148962007D01*
X164115099Y-148847993D01*
X164022007Y-148754901D01*
X163907993Y-148689075D01*
X163844407Y-148672036D01*
X164505626Y-148010819D01*
X164566949Y-147977334D01*
X164593307Y-147974500D01*
X166994062Y-147974500D01*
X167061101Y-147994185D01*
G37*
%TD.AperFunction*%
%TA.AperFunction,Conductor*%
G36*
X177090156Y-140806946D02*
G01*
X177146090Y-140848818D01*
X177147086Y-140850167D01*
X177205918Y-140931143D01*
X177244896Y-140984792D01*
X177395213Y-141135109D01*
X177567182Y-141260050D01*
X177575946Y-141264516D01*
X177626742Y-141312491D01*
X177643536Y-141380312D01*
X177620998Y-141446447D01*
X177575946Y-141485484D01*
X177567182Y-141489949D01*
X177395213Y-141614890D01*
X177244890Y-141765213D01*
X177119951Y-141937179D01*
X177023444Y-142126585D01*
X177023443Y-142126587D01*
X177023443Y-142126588D01*
X177017055Y-142146247D01*
X176957753Y-142328760D01*
X176933829Y-142479814D01*
X176924500Y-142538713D01*
X176924500Y-142751287D01*
X176932269Y-142800337D01*
X176949645Y-142910049D01*
X176957754Y-142961243D01*
X177017990Y-143146631D01*
X177023444Y-143163414D01*
X177119951Y-143352820D01*
X177244890Y-143524786D01*
X177395213Y-143675109D01*
X177567179Y-143800048D01*
X177567181Y-143800049D01*
X177567184Y-143800051D01*
X177576493Y-143804794D01*
X177627290Y-143852766D01*
X177644087Y-143920587D01*
X177621552Y-143986722D01*
X177576505Y-144025760D01*
X177567446Y-144030376D01*
X177567440Y-144030380D01*
X177513282Y-144069727D01*
X177513282Y-144069728D01*
X178145591Y-144702037D01*
X178082007Y-144719075D01*
X177967993Y-144784901D01*
X177874901Y-144877993D01*
X177809075Y-144992007D01*
X177792037Y-145055591D01*
X177159728Y-144423282D01*
X177159727Y-144423282D01*
X177120380Y-144477439D01*
X177023904Y-144666782D01*
X176958242Y-144868869D01*
X176958242Y-144868872D01*
X176925000Y-145078753D01*
X176925000Y-145291246D01*
X176958242Y-145501127D01*
X176958242Y-145501130D01*
X177023904Y-145703217D01*
X177058393Y-145770905D01*
X177071289Y-145839574D01*
X177045013Y-145904315D01*
X176987906Y-145944572D01*
X176947908Y-145951200D01*
X173967989Y-145951200D01*
X173907571Y-145963218D01*
X173859166Y-145972846D01*
X173847147Y-145975237D01*
X173841856Y-145977428D01*
X173835652Y-145979999D01*
X173775702Y-146004830D01*
X173733313Y-146022388D01*
X173733309Y-146022390D01*
X173696022Y-146047306D01*
X173696021Y-146047307D01*
X173630868Y-146090840D01*
X173600529Y-146121180D01*
X173543742Y-146177967D01*
X173543739Y-146177970D01*
X173034529Y-146687181D01*
X172973206Y-146720666D01*
X172946848Y-146723500D01*
X169819500Y-146723500D01*
X169752461Y-146703815D01*
X169706706Y-146651011D01*
X169695500Y-146599500D01*
X169695499Y-145296088D01*
X169715184Y-145229049D01*
X169767987Y-145183294D01*
X169795307Y-145174471D01*
X169846308Y-145164326D01*
X169915900Y-145170553D01*
X169971077Y-145213416D01*
X169994322Y-145279305D01*
X169994500Y-145285926D01*
X169994500Y-145289992D01*
X169994501Y-145290019D01*
X170005000Y-145392796D01*
X170005001Y-145392799D01*
X170027872Y-145461818D01*
X170060186Y-145559334D01*
X170152288Y-145708656D01*
X170276344Y-145832712D01*
X170425666Y-145924814D01*
X170592203Y-145979999D01*
X170694991Y-145990500D01*
X171320008Y-145990499D01*
X171320016Y-145990498D01*
X171320019Y-145990498D01*
X171376302Y-145984748D01*
X171422797Y-145979999D01*
X171589334Y-145924814D01*
X171738656Y-145832712D01*
X171832319Y-145739049D01*
X171893642Y-145705564D01*
X171963334Y-145710548D01*
X172007681Y-145739049D01*
X172101344Y-145832712D01*
X172250666Y-145924814D01*
X172417203Y-145979999D01*
X172519991Y-145990500D01*
X173145008Y-145990499D01*
X173145016Y-145990498D01*
X173145019Y-145990498D01*
X173201302Y-145984748D01*
X173247797Y-145979999D01*
X173414334Y-145924814D01*
X173563656Y-145832712D01*
X173687712Y-145708656D01*
X173779814Y-145559334D01*
X173834999Y-145392797D01*
X173845500Y-145290009D01*
X173845499Y-144289992D01*
X173843730Y-144272679D01*
X173834999Y-144187203D01*
X173834998Y-144187200D01*
X173829299Y-144170003D01*
X173779814Y-144020666D01*
X173779813Y-144020664D01*
X173777542Y-144013811D01*
X173780647Y-144012781D01*
X173772246Y-143958158D01*
X173800646Y-143894321D01*
X173859050Y-143855971D01*
X173895151Y-143850600D01*
X174577107Y-143850600D01*
X174637529Y-143838581D01*
X174697952Y-143826563D01*
X174697955Y-143826561D01*
X174697958Y-143826561D01*
X174731287Y-143812754D01*
X174731286Y-143812754D01*
X174731292Y-143812752D01*
X174811786Y-143779412D01*
X174871047Y-143739814D01*
X174914233Y-143710958D01*
X175001358Y-143623833D01*
X175001359Y-143623830D01*
X175008425Y-143616765D01*
X175008428Y-143616761D01*
X175813729Y-142811460D01*
X175813733Y-142811458D01*
X175900858Y-142724333D01*
X175918393Y-142698089D01*
X175936626Y-142670803D01*
X175936627Y-142670800D01*
X175936635Y-142670789D01*
X175969312Y-142621886D01*
X176006486Y-142532139D01*
X176016463Y-142508052D01*
X176028360Y-142448241D01*
X176039392Y-142392782D01*
X176039393Y-142392782D01*
X176039393Y-142392771D01*
X176040500Y-142387207D01*
X176040500Y-142263993D01*
X176040500Y-141805452D01*
X176060185Y-141738413D01*
X176076819Y-141717771D01*
X176514582Y-141280008D01*
X176959144Y-140835445D01*
X177020465Y-140801962D01*
X177090156Y-140806946D01*
G37*
%TD.AperFunction*%
%TA.AperFunction,Conductor*%
G36*
X180608900Y-139535585D02*
G01*
X180610753Y-139536799D01*
X180643812Y-139558889D01*
X180643827Y-139558897D01*
X180767654Y-139610187D01*
X180789503Y-139619237D01*
X180944153Y-139649999D01*
X180944156Y-139650000D01*
X180944158Y-139650000D01*
X181101844Y-139650000D01*
X181101845Y-139649999D01*
X181256497Y-139619237D01*
X181402179Y-139558894D01*
X181402184Y-139558890D01*
X181402187Y-139558889D01*
X181435247Y-139536799D01*
X181501924Y-139515920D01*
X181504139Y-139515900D01*
X181505740Y-139515900D01*
X181572779Y-139535585D01*
X181618534Y-139588389D01*
X181628478Y-139657547D01*
X181623672Y-139678212D01*
X181599930Y-139751284D01*
X181587753Y-139788760D01*
X181554500Y-139998713D01*
X181554500Y-140211286D01*
X181577624Y-140357289D01*
X181587754Y-140421243D01*
X181627965Y-140545000D01*
X181653444Y-140623414D01*
X181749951Y-140812820D01*
X181874890Y-140984786D01*
X182025213Y-141135109D01*
X182197182Y-141260050D01*
X182205946Y-141264516D01*
X182256742Y-141312491D01*
X182273536Y-141380312D01*
X182250998Y-141446447D01*
X182205946Y-141485484D01*
X182197182Y-141489949D01*
X182025213Y-141614890D01*
X181874890Y-141765213D01*
X181749951Y-141937179D01*
X181653444Y-142126585D01*
X181653443Y-142126587D01*
X181653443Y-142126588D01*
X181647055Y-142146247D01*
X181587753Y-142328760D01*
X181563829Y-142479814D01*
X181554500Y-142538713D01*
X181554500Y-142751287D01*
X181562269Y-142800337D01*
X181579645Y-142910049D01*
X181587754Y-142961243D01*
X181647990Y-143146631D01*
X181653444Y-143163414D01*
X181749951Y-143352820D01*
X181874890Y-143524786D01*
X182025213Y-143675109D01*
X182197179Y-143800048D01*
X182197181Y-143800049D01*
X182197184Y-143800051D01*
X182206493Y-143804794D01*
X182257290Y-143852766D01*
X182274087Y-143920587D01*
X182251552Y-143986722D01*
X182206505Y-144025760D01*
X182197446Y-144030376D01*
X182197440Y-144030380D01*
X182143282Y-144069727D01*
X182143282Y-144069728D01*
X182775591Y-144702037D01*
X182712007Y-144719075D01*
X182597993Y-144784901D01*
X182504901Y-144877993D01*
X182439075Y-144992007D01*
X182422037Y-145055591D01*
X181789728Y-144423282D01*
X181789727Y-144423282D01*
X181750380Y-144477439D01*
X181653904Y-144666782D01*
X181588242Y-144868869D01*
X181588242Y-144868872D01*
X181555000Y-145078753D01*
X181555000Y-145291246D01*
X181588242Y-145501127D01*
X181588242Y-145501130D01*
X181653904Y-145703217D01*
X181688393Y-145770905D01*
X181701289Y-145839574D01*
X181675013Y-145904315D01*
X181617906Y-145944572D01*
X181577908Y-145951200D01*
X179602092Y-145951200D01*
X179535053Y-145931515D01*
X179489298Y-145878711D01*
X179479354Y-145809553D01*
X179491607Y-145770905D01*
X179526095Y-145703217D01*
X179591757Y-145501130D01*
X179591757Y-145501127D01*
X179625000Y-145291246D01*
X179625000Y-145078753D01*
X179591757Y-144868872D01*
X179591757Y-144868869D01*
X179526095Y-144666782D01*
X179429624Y-144477449D01*
X179390270Y-144423282D01*
X179390269Y-144423282D01*
X178757962Y-145055589D01*
X178740925Y-144992007D01*
X178675099Y-144877993D01*
X178582007Y-144784901D01*
X178467993Y-144719075D01*
X178404409Y-144702037D01*
X179036716Y-144069728D01*
X178982547Y-144030373D01*
X178982547Y-144030372D01*
X178973500Y-144025763D01*
X178922706Y-143977788D01*
X178905912Y-143909966D01*
X178928451Y-143843832D01*
X178973508Y-143804793D01*
X178982816Y-143800051D01*
X179081798Y-143728137D01*
X179154786Y-143675109D01*
X179154788Y-143675106D01*
X179154792Y-143675104D01*
X179305104Y-143524792D01*
X179305106Y-143524788D01*
X179305109Y-143524786D01*
X179430048Y-143352820D01*
X179430049Y-143352819D01*
X179430051Y-143352816D01*
X179526557Y-143163412D01*
X179592246Y-142961243D01*
X179625500Y-142751287D01*
X179625500Y-142538713D01*
X179592246Y-142328757D01*
X179526557Y-142126588D01*
X179430051Y-141937184D01*
X179430049Y-141937181D01*
X179430048Y-141937179D01*
X179305109Y-141765213D01*
X179154786Y-141614890D01*
X178982820Y-141489951D01*
X178982115Y-141489591D01*
X178974054Y-141485485D01*
X178923259Y-141437512D01*
X178906463Y-141369692D01*
X178928999Y-141303556D01*
X178974054Y-141264515D01*
X178982816Y-141260051D01*
X179044626Y-141215144D01*
X179154786Y-141135109D01*
X179154788Y-141135106D01*
X179154792Y-141135104D01*
X179305104Y-140984792D01*
X179305106Y-140984788D01*
X179305109Y-140984786D01*
X179414086Y-140834789D01*
X179430051Y-140812816D01*
X179526557Y-140623412D01*
X179592246Y-140421243D01*
X179625500Y-140211287D01*
X179625500Y-139998713D01*
X179592246Y-139788757D01*
X179556328Y-139678216D01*
X179554334Y-139608377D01*
X179590414Y-139548544D01*
X179653115Y-139517716D01*
X179674260Y-139515900D01*
X180541861Y-139515900D01*
X180608900Y-139535585D01*
G37*
%TD.AperFunction*%
%TA.AperFunction,Conductor*%
G36*
X184666682Y-143144241D02*
G01*
X184713371Y-143196221D01*
X184724546Y-143265191D01*
X184707052Y-143314831D01*
X184620189Y-143455659D01*
X184620186Y-143455666D01*
X184565001Y-143622203D01*
X184565001Y-143622204D01*
X184565000Y-143622204D01*
X184554500Y-143724983D01*
X184554500Y-144433845D01*
X184534815Y-144500884D01*
X184518181Y-144521526D01*
X184349967Y-144689740D01*
X184288644Y-144723225D01*
X184218952Y-144718241D01*
X184163019Y-144676369D01*
X184151801Y-144658354D01*
X184059624Y-144477450D01*
X184020270Y-144423282D01*
X184020269Y-144423282D01*
X183387962Y-145055589D01*
X183370925Y-144992007D01*
X183305099Y-144877993D01*
X183212007Y-144784901D01*
X183097993Y-144719075D01*
X183034409Y-144702037D01*
X183666716Y-144069728D01*
X183612547Y-144030373D01*
X183612547Y-144030372D01*
X183603500Y-144025763D01*
X183552706Y-143977788D01*
X183535912Y-143909966D01*
X183558451Y-143843832D01*
X183603508Y-143804793D01*
X183612816Y-143800051D01*
X183711798Y-143728137D01*
X183784786Y-143675109D01*
X183784788Y-143675106D01*
X183784792Y-143675104D01*
X183935104Y-143524792D01*
X183935106Y-143524788D01*
X183935109Y-143524786D01*
X184060049Y-143352819D01*
X184067497Y-143338203D01*
X184115473Y-143287408D01*
X184177981Y-143270500D01*
X184219107Y-143270500D01*
X184279529Y-143258481D01*
X184339952Y-143246463D01*
X184394267Y-143223965D01*
X184453786Y-143199312D01*
X184507391Y-143163493D01*
X184532628Y-143146629D01*
X184599302Y-143125755D01*
X184666682Y-143144241D01*
G37*
%TD.AperFunction*%
%TA.AperFunction,Conductor*%
G36*
X161771687Y-134512385D02*
G01*
X161792328Y-134529018D01*
X164560053Y-137296744D01*
X167321341Y-140058032D01*
X167350489Y-140087180D01*
X167383974Y-140148503D01*
X167378990Y-140218195D01*
X167337118Y-140274128D01*
X167282206Y-140297334D01*
X167063752Y-140331934D01*
X166839197Y-140404897D01*
X166628830Y-140512084D01*
X166545894Y-140572340D01*
X167244766Y-141271212D01*
X167202708Y-141282482D01*
X167077292Y-141354890D01*
X166974890Y-141457292D01*
X166902482Y-141582708D01*
X166891212Y-141624766D01*
X166192340Y-140925894D01*
X166132084Y-141008830D01*
X166024897Y-141219197D01*
X165951934Y-141443752D01*
X165915000Y-141676947D01*
X165915000Y-141913052D01*
X165951934Y-142146247D01*
X166024897Y-142370802D01*
X166132089Y-142581179D01*
X166134631Y-142585327D01*
X166133222Y-142586190D01*
X166154288Y-142645202D01*
X166138473Y-142713259D01*
X166088374Y-142761961D01*
X166030491Y-142776300D01*
X164692307Y-142776300D01*
X164569093Y-142776300D01*
X164524832Y-142785104D01*
X164524831Y-142785103D01*
X164448255Y-142800335D01*
X164448241Y-142800339D01*
X164421401Y-142811457D01*
X164421400Y-142811458D01*
X164364412Y-142835062D01*
X164316961Y-142844500D01*
X163674998Y-142844500D01*
X163674980Y-142844501D01*
X163572203Y-142855000D01*
X163572200Y-142855001D01*
X163405668Y-142910185D01*
X163405663Y-142910187D01*
X163256342Y-143002289D01*
X163132289Y-143126342D01*
X163040187Y-143275663D01*
X163040186Y-143275666D01*
X162985001Y-143442203D01*
X162985001Y-143442204D01*
X162985000Y-143442204D01*
X162974500Y-143544983D01*
X162974500Y-144074139D01*
X162954815Y-144141178D01*
X162902011Y-144186933D01*
X162832853Y-144196877D01*
X162769297Y-144167852D01*
X162762819Y-144161820D01*
X162703006Y-144102007D01*
X162416818Y-143815818D01*
X162383333Y-143754495D01*
X162380499Y-143728137D01*
X162380499Y-143539998D01*
X162380498Y-143539981D01*
X162369999Y-143437203D01*
X162369998Y-143437200D01*
X162360884Y-143409696D01*
X162314814Y-143270666D01*
X162222712Y-143121344D01*
X162098656Y-142997288D01*
X161957442Y-142910187D01*
X161949336Y-142905187D01*
X161949331Y-142905185D01*
X161782798Y-142850001D01*
X161782790Y-142850000D01*
X161726666Y-142844266D01*
X161661974Y-142817869D01*
X161651596Y-142808597D01*
X161537482Y-142694483D01*
X161503999Y-142633161D01*
X161508983Y-142563469D01*
X161550855Y-142507536D01*
X161616319Y-142483119D01*
X161663485Y-142488873D01*
X161722548Y-142508064D01*
X161722551Y-142508065D01*
X161955748Y-142545000D01*
X162191852Y-142545000D01*
X162425047Y-142508065D01*
X162649602Y-142435102D01*
X162859963Y-142327918D01*
X162859969Y-142327914D01*
X162942904Y-142267658D01*
X162942905Y-142267658D01*
X162203209Y-141527962D01*
X162266793Y-141510925D01*
X162380807Y-141445099D01*
X162473899Y-141352007D01*
X162539725Y-141237993D01*
X162556762Y-141174409D01*
X163296458Y-141914105D01*
X163296458Y-141914104D01*
X163356714Y-141831169D01*
X163356718Y-141831163D01*
X163463902Y-141620802D01*
X163536865Y-141396247D01*
X163573800Y-141163052D01*
X163573800Y-140926947D01*
X163536865Y-140693752D01*
X163463902Y-140469197D01*
X163356714Y-140258828D01*
X163296458Y-140175894D01*
X163296458Y-140175893D01*
X162556762Y-140915590D01*
X162539725Y-140852007D01*
X162473899Y-140737993D01*
X162380807Y-140644901D01*
X162266793Y-140579075D01*
X162203208Y-140562037D01*
X162942905Y-139822340D01*
X162942904Y-139822338D01*
X162859974Y-139762087D01*
X162649602Y-139654897D01*
X162425047Y-139581934D01*
X162425048Y-139581934D01*
X162191852Y-139545000D01*
X161955748Y-139545000D01*
X161722552Y-139581934D01*
X161497997Y-139654897D01*
X161287595Y-139762102D01*
X161218925Y-139774998D01*
X161154185Y-139748721D01*
X161113928Y-139691615D01*
X161107300Y-139651617D01*
X161107300Y-138641561D01*
X161126985Y-138574522D01*
X161143619Y-138553880D01*
X161435433Y-138262066D01*
X161731661Y-137965837D01*
X161780336Y-137935814D01*
X161782794Y-137934999D01*
X161782797Y-137934999D01*
X161949334Y-137879814D01*
X162098656Y-137787712D01*
X162222712Y-137663656D01*
X162314814Y-137514334D01*
X162369999Y-137347797D01*
X162380500Y-137245009D01*
X162380499Y-136244992D01*
X162369999Y-136142203D01*
X162314814Y-135975666D01*
X162222712Y-135826344D01*
X162098656Y-135702288D01*
X161964798Y-135619724D01*
X161949336Y-135610187D01*
X161949331Y-135610185D01*
X161947862Y-135609698D01*
X161782797Y-135555001D01*
X161782795Y-135555000D01*
X161722656Y-135548856D01*
X161657964Y-135522459D01*
X161647579Y-135513179D01*
X160838782Y-134704381D01*
X160805297Y-134643058D01*
X160810281Y-134573366D01*
X160852153Y-134517433D01*
X160917617Y-134493016D01*
X160926463Y-134492700D01*
X161704648Y-134492700D01*
X161771687Y-134512385D01*
G37*
%TD.AperFunction*%
%TA.AperFunction,Conductor*%
G36*
X171117287Y-140304485D02*
G01*
X171163042Y-140357289D01*
X171172986Y-140426447D01*
X171143961Y-140490003D01*
X171137933Y-140496476D01*
X170703270Y-140931139D01*
X170703267Y-140931142D01*
X170678505Y-140955904D01*
X170616140Y-141018268D01*
X170598280Y-141044999D01*
X170591791Y-141054711D01*
X170547688Y-141120714D01*
X170525868Y-141173393D01*
X170500538Y-141234544D01*
X170500535Y-141234556D01*
X170476500Y-141355389D01*
X170476500Y-141400648D01*
X170456815Y-141467687D01*
X170440181Y-141488329D01*
X169188529Y-142739981D01*
X169127206Y-142773466D01*
X169100848Y-142776300D01*
X168799509Y-142776300D01*
X168732470Y-142756615D01*
X168686715Y-142703811D01*
X168676771Y-142634653D01*
X168696511Y-142586026D01*
X168695369Y-142585327D01*
X168697910Y-142581179D01*
X168805102Y-142370802D01*
X168878065Y-142146247D01*
X168915000Y-141913052D01*
X168915000Y-141676947D01*
X168878065Y-141443752D01*
X168805102Y-141219197D01*
X168697914Y-141008828D01*
X168637658Y-140925894D01*
X168637658Y-140925893D01*
X167938787Y-141624764D01*
X167927518Y-141582708D01*
X167855110Y-141457292D01*
X167752708Y-141354890D01*
X167627292Y-141282482D01*
X167585234Y-141271212D01*
X168284105Y-140572340D01*
X168284104Y-140572338D01*
X168197230Y-140509221D01*
X168198619Y-140507308D01*
X168158270Y-140462692D01*
X168146863Y-140393760D01*
X168174533Y-140329603D01*
X168232497Y-140290590D01*
X168269947Y-140284800D01*
X171050248Y-140284800D01*
X171117287Y-140304485D01*
G37*
%TD.AperFunction*%
%TA.AperFunction,Conductor*%
G36*
X155813149Y-131116785D02*
G01*
X155858904Y-131169589D01*
X155868848Y-131238747D01*
X155849212Y-131289991D01*
X155766809Y-131413314D01*
X155766802Y-131413327D01*
X155706464Y-131558998D01*
X155706461Y-131559008D01*
X155684341Y-131670213D01*
X155651956Y-131732124D01*
X155650405Y-131733702D01*
X154391169Y-132992940D01*
X154304044Y-133080064D01*
X154304038Y-133080072D01*
X154235590Y-133182508D01*
X154235589Y-133182510D01*
X154217762Y-133225548D01*
X154217763Y-133225549D01*
X154200304Y-133267700D01*
X154188438Y-133296346D01*
X154188435Y-133296356D01*
X154166360Y-133407334D01*
X154166361Y-133407335D01*
X154164400Y-133417194D01*
X154164400Y-135909348D01*
X154147542Y-135968789D01*
X154148240Y-135969115D01*
X154146225Y-135973436D01*
X154145940Y-135974442D01*
X154145188Y-135975661D01*
X154145186Y-135975664D01*
X154145186Y-135975666D01*
X154090001Y-136142203D01*
X154090001Y-136142204D01*
X154090000Y-136142204D01*
X154079500Y-136244983D01*
X154079500Y-137245001D01*
X154079501Y-137245019D01*
X154090000Y-137347796D01*
X154090001Y-137347799D01*
X154145185Y-137514331D01*
X154145187Y-137514336D01*
X154169772Y-137554194D01*
X154237288Y-137663656D01*
X154361344Y-137787712D01*
X154510666Y-137879814D01*
X154677203Y-137934999D01*
X154779991Y-137945500D01*
X155405008Y-137945499D01*
X155405016Y-137945498D01*
X155405019Y-137945498D01*
X155485193Y-137937308D01*
X155507797Y-137934999D01*
X155674334Y-137879814D01*
X155823656Y-137787712D01*
X155917319Y-137694049D01*
X155978642Y-137660564D01*
X156048334Y-137665548D01*
X156092681Y-137694049D01*
X156186344Y-137787712D01*
X156335666Y-137879814D01*
X156502203Y-137934999D01*
X156604991Y-137945500D01*
X157230008Y-137945499D01*
X157230016Y-137945498D01*
X157230019Y-137945498D01*
X157310193Y-137937308D01*
X157332797Y-137934999D01*
X157499334Y-137879814D01*
X157648656Y-137787712D01*
X157772712Y-137663656D01*
X157800056Y-137619322D01*
X157851999Y-137572602D01*
X157920961Y-137561378D01*
X157953044Y-137569861D01*
X158025078Y-137599698D01*
X158060903Y-137614537D01*
X158214050Y-137645000D01*
X158215553Y-137645299D01*
X158215556Y-137645300D01*
X158215558Y-137645300D01*
X158373244Y-137645300D01*
X158373245Y-137645299D01*
X158527897Y-137614537D01*
X158533160Y-137612356D01*
X158602627Y-137604885D01*
X158665108Y-137636157D01*
X158686152Y-137661815D01*
X158686696Y-137662697D01*
X158687288Y-137663656D01*
X158811344Y-137787712D01*
X158960666Y-137879814D01*
X159127203Y-137934999D01*
X159204849Y-137942931D01*
X159269540Y-137969327D01*
X159309691Y-138026507D01*
X159313864Y-138090478D01*
X159308129Y-138119312D01*
X159306300Y-138128507D01*
X159306300Y-141612800D01*
X159286615Y-141679839D01*
X159233811Y-141725594D01*
X159182300Y-141736800D01*
X158698300Y-141736800D01*
X158631261Y-141717115D01*
X158585506Y-141664311D01*
X158574300Y-141612800D01*
X158574299Y-140244998D01*
X158574298Y-140244981D01*
X158563799Y-140142203D01*
X158563798Y-140142200D01*
X158561993Y-140136753D01*
X158508614Y-139975666D01*
X158416512Y-139826344D01*
X158292456Y-139702288D01*
X158143134Y-139610186D01*
X157976597Y-139555001D01*
X157976595Y-139555000D01*
X157873810Y-139544500D01*
X156273798Y-139544500D01*
X156273781Y-139544501D01*
X156171003Y-139555000D01*
X156171000Y-139555001D01*
X156004468Y-139610185D01*
X156004463Y-139610187D01*
X155855142Y-139702289D01*
X155731089Y-139826342D01*
X155638987Y-139975663D01*
X155638985Y-139975668D01*
X155583801Y-140142201D01*
X155583800Y-140142208D01*
X155580760Y-140171964D01*
X155554363Y-140236656D01*
X155526293Y-140262462D01*
X155401965Y-140345535D01*
X155401961Y-140345538D01*
X153925181Y-141822319D01*
X153863858Y-141855804D01*
X153794166Y-141850820D01*
X153749819Y-141822319D01*
X153066319Y-141138819D01*
X153032834Y-141077496D01*
X153030000Y-141051138D01*
X153030000Y-131221100D01*
X153049685Y-131154061D01*
X153102489Y-131108306D01*
X153154000Y-131097100D01*
X155746110Y-131097100D01*
X155813149Y-131116785D01*
G37*
%TD.AperFunction*%
%TA.AperFunction,Conductor*%
G36*
X189828476Y-139741285D02*
G01*
X189871928Y-139789317D01*
X189873582Y-139792564D01*
X189886471Y-139861234D01*
X189860188Y-139925972D01*
X189810546Y-139963407D01*
X189793657Y-139970403D01*
X189782397Y-139975067D01*
X189715718Y-140002685D01*
X189696571Y-140015479D01*
X189690190Y-140019743D01*
X189690189Y-140019744D01*
X189690188Y-140019743D01*
X189613266Y-140071142D01*
X189613260Y-140071147D01*
X189573029Y-140111380D01*
X189511706Y-140144866D01*
X189485347Y-140147700D01*
X189118053Y-140147700D01*
X189114007Y-140146512D01*
X189109894Y-140147431D01*
X189080773Y-140136753D01*
X189051014Y-140128015D01*
X189048253Y-140124829D01*
X189044295Y-140123378D01*
X189030372Y-140111381D01*
X188917849Y-139998858D01*
X188884364Y-139937535D01*
X188889348Y-139867843D01*
X188931220Y-139811910D01*
X188958080Y-139796615D01*
X188984886Y-139785512D01*
X189036109Y-139751284D01*
X189049260Y-139742497D01*
X189115938Y-139721620D01*
X189118150Y-139721600D01*
X189761437Y-139721600D01*
X189828476Y-139741285D01*
G37*
%TD.AperFunction*%
%TA.AperFunction,Conductor*%
G36*
X186379087Y-135068485D02*
G01*
X186399729Y-135085119D01*
X186486416Y-135171806D01*
X186486445Y-135171837D01*
X186576666Y-135262058D01*
X186606434Y-135281948D01*
X186642929Y-135306333D01*
X186679115Y-135330512D01*
X186743788Y-135357300D01*
X186792948Y-135377663D01*
X186853371Y-135389681D01*
X186913793Y-135401700D01*
X186913794Y-135401700D01*
X189691029Y-135401700D01*
X189758068Y-135421385D01*
X189803823Y-135474189D01*
X189813767Y-135543347D01*
X189803540Y-135574074D01*
X189804303Y-135574359D01*
X189750908Y-135717517D01*
X189744501Y-135777116D01*
X189744500Y-135777135D01*
X189744500Y-137572870D01*
X189744501Y-137572876D01*
X189750908Y-137632483D01*
X189801202Y-137767328D01*
X189801206Y-137767335D01*
X189887452Y-137882544D01*
X189887455Y-137882547D01*
X190002664Y-137968793D01*
X190002671Y-137968797D01*
X190134082Y-138017810D01*
X190190016Y-138059681D01*
X190214433Y-138125145D01*
X190199582Y-138193418D01*
X190178431Y-138221673D01*
X190064893Y-138335211D01*
X190003666Y-138419485D01*
X189948336Y-138462151D01*
X189903347Y-138470600D01*
X188885306Y-138470600D01*
X188762093Y-138470600D01*
X188738801Y-138475233D01*
X188715508Y-138479866D01*
X188715507Y-138479865D01*
X188641253Y-138494635D01*
X188641245Y-138494638D01*
X188527416Y-138541787D01*
X188463041Y-138584802D01*
X188396363Y-138605680D01*
X188394150Y-138605700D01*
X185443852Y-138605700D01*
X185376813Y-138586015D01*
X185356171Y-138569381D01*
X185293971Y-138507181D01*
X185260486Y-138445858D01*
X185265470Y-138376166D01*
X185307342Y-138320233D01*
X185372806Y-138295816D01*
X185381652Y-138295500D01*
X186445686Y-138295500D01*
X186445694Y-138295500D01*
X186482569Y-138292598D01*
X186482571Y-138292597D01*
X186482573Y-138292597D01*
X186524191Y-138280505D01*
X186640398Y-138246744D01*
X186698694Y-138212268D01*
X186761815Y-138195000D01*
X187417500Y-138195000D01*
X187917500Y-138195000D01*
X188902295Y-138195000D01*
X188902295Y-138194998D01*
X188902100Y-138192513D01*
X188856281Y-138034801D01*
X188772685Y-137893447D01*
X188772678Y-137893438D01*
X188656561Y-137777321D01*
X188656552Y-137777314D01*
X188515196Y-137693717D01*
X188515193Y-137693716D01*
X188357495Y-137647900D01*
X188357489Y-137647899D01*
X188320649Y-137645000D01*
X187917500Y-137645000D01*
X187917500Y-138195000D01*
X187417500Y-138195000D01*
X187417500Y-137645000D01*
X187154500Y-137645000D01*
X187087461Y-137625315D01*
X187041706Y-137572511D01*
X187030500Y-137521000D01*
X187030500Y-137469500D01*
X187050185Y-137402461D01*
X187102989Y-137356706D01*
X187154500Y-137345500D01*
X188320686Y-137345500D01*
X188320694Y-137345500D01*
X188357569Y-137342598D01*
X188357571Y-137342597D01*
X188357573Y-137342597D01*
X188399191Y-137330505D01*
X188515398Y-137296744D01*
X188656865Y-137213081D01*
X188773081Y-137096865D01*
X188856744Y-136955398D01*
X188902598Y-136797569D01*
X188905500Y-136760694D01*
X188905500Y-136329306D01*
X188902598Y-136292431D01*
X188888817Y-136244998D01*
X188861358Y-136150483D01*
X188856744Y-136134602D01*
X188773081Y-135993135D01*
X188773079Y-135993133D01*
X188773076Y-135993129D01*
X188656870Y-135876923D01*
X188656862Y-135876917D01*
X188527393Y-135800350D01*
X188515398Y-135793256D01*
X188515397Y-135793255D01*
X188515396Y-135793255D01*
X188515393Y-135793254D01*
X188357573Y-135747402D01*
X188357567Y-135747401D01*
X188320701Y-135744500D01*
X188320694Y-135744500D01*
X187014306Y-135744500D01*
X187014298Y-135744500D01*
X186977432Y-135747401D01*
X186977426Y-135747402D01*
X186819606Y-135793254D01*
X186819605Y-135793254D01*
X186725906Y-135848667D01*
X186658182Y-135865848D01*
X186591920Y-135843688D01*
X186575105Y-135829615D01*
X186115119Y-135369629D01*
X186081634Y-135308306D01*
X186078800Y-135281948D01*
X186078800Y-135218053D01*
X186098485Y-135151014D01*
X186115120Y-135130371D01*
X186160374Y-135085118D01*
X186221697Y-135051633D01*
X186248054Y-135048800D01*
X186312048Y-135048800D01*
X186379087Y-135068485D01*
G37*
%TD.AperFunction*%
%TA.AperFunction,Conductor*%
G36*
X171781987Y-134053185D02*
G01*
X171802629Y-134069819D01*
X173421021Y-135688211D01*
X173454506Y-135749534D01*
X173449522Y-135819226D01*
X173407650Y-135875159D01*
X173371660Y-135893822D01*
X173339007Y-135904431D01*
X173128566Y-136011657D01*
X173032020Y-136081803D01*
X172937490Y-136150483D01*
X172937488Y-136150485D01*
X172937487Y-136150485D01*
X172770485Y-136317487D01*
X172770485Y-136317488D01*
X172770483Y-136317490D01*
X172710862Y-136399550D01*
X172631657Y-136508566D01*
X172584155Y-136601795D01*
X172536180Y-136652591D01*
X172473670Y-136669500D01*
X168856330Y-136669500D01*
X168789291Y-136649815D01*
X168745845Y-136601795D01*
X168698342Y-136508566D01*
X168559517Y-136317490D01*
X168392510Y-136150483D01*
X168201433Y-136011657D01*
X167990996Y-135904433D01*
X167766368Y-135831446D01*
X167533097Y-135794500D01*
X167533092Y-135794500D01*
X167296908Y-135794500D01*
X167296903Y-135794500D01*
X167063631Y-135831446D01*
X166839003Y-135904433D01*
X166628566Y-136011657D01*
X166532020Y-136081803D01*
X166437490Y-136150483D01*
X166437488Y-136150485D01*
X166437487Y-136150485D01*
X166270485Y-136317487D01*
X166270485Y-136317488D01*
X166270483Y-136317490D01*
X166210862Y-136399550D01*
X166131657Y-136508566D01*
X166024431Y-136719007D01*
X166020027Y-136732564D01*
X165980589Y-136790239D01*
X165916230Y-136817436D01*
X165847384Y-136805520D01*
X165814416Y-136781925D01*
X164547491Y-135515000D01*
X163277670Y-134245180D01*
X163244186Y-134183858D01*
X163249170Y-134114166D01*
X163291042Y-134058233D01*
X163356506Y-134033816D01*
X163365352Y-134033500D01*
X171714948Y-134033500D01*
X171781987Y-134053185D01*
G37*
%TD.AperFunction*%
%TA.AperFunction,Conductor*%
G36*
X192506740Y-107401039D02*
G01*
X192689736Y-107584035D01*
X192764062Y-107658361D01*
X192815166Y-107709465D01*
X192962649Y-107808011D01*
X192962651Y-107808012D01*
X192962653Y-107808013D01*
X192999471Y-107823263D01*
X192999472Y-107823264D01*
X192999473Y-107823264D01*
X193126534Y-107875895D01*
X193130307Y-107876645D01*
X193171213Y-107892724D01*
X193255659Y-107944810D01*
X193255660Y-107944810D01*
X193255666Y-107944814D01*
X193422203Y-107999999D01*
X193524991Y-108010500D01*
X193725637Y-108010499D01*
X193792677Y-108030183D01*
X193813319Y-108046818D01*
X194263681Y-108497180D01*
X194297166Y-108558503D01*
X194300000Y-108584861D01*
X194300000Y-109350000D01*
X195274999Y-109350000D01*
X195290880Y-109334119D01*
X195352203Y-109300634D01*
X195378561Y-109297800D01*
X196106038Y-109297800D01*
X196173077Y-109317485D01*
X196193719Y-109334119D01*
X196944881Y-110085280D01*
X196978366Y-110146603D01*
X196981200Y-110172961D01*
X196981200Y-110782038D01*
X196961515Y-110849077D01*
X196944881Y-110869719D01*
X196899719Y-110914881D01*
X196838396Y-110948366D01*
X196812038Y-110951200D01*
X195291686Y-110951200D01*
X195224647Y-110931515D01*
X195186147Y-110892296D01*
X195169440Y-110865210D01*
X195117712Y-110781344D01*
X194993656Y-110657288D01*
X194990342Y-110655243D01*
X194988546Y-110653248D01*
X194987989Y-110652807D01*
X194988064Y-110652711D01*
X194943618Y-110603297D01*
X194932397Y-110534334D01*
X194960240Y-110470252D01*
X194990348Y-110444165D01*
X194993342Y-110442318D01*
X195117315Y-110318345D01*
X195209356Y-110169124D01*
X195209358Y-110169119D01*
X195264505Y-110002697D01*
X195264506Y-110002690D01*
X195274999Y-109899986D01*
X195275000Y-109899973D01*
X195275000Y-109850000D01*
X192825001Y-109850000D01*
X192825001Y-109899986D01*
X192835494Y-110002697D01*
X192890641Y-110169119D01*
X192890643Y-110169124D01*
X192982684Y-110318345D01*
X193106655Y-110442316D01*
X193106659Y-110442319D01*
X193109656Y-110444168D01*
X193111279Y-110445972D01*
X193112323Y-110446798D01*
X193112181Y-110446976D01*
X193156381Y-110496116D01*
X193167602Y-110565079D01*
X193139759Y-110629161D01*
X193109661Y-110655241D01*
X193106349Y-110657283D01*
X193106343Y-110657288D01*
X192982289Y-110781342D01*
X192890187Y-110930663D01*
X192890185Y-110930668D01*
X192862802Y-111013306D01*
X192835001Y-111097203D01*
X192835001Y-111097204D01*
X192835000Y-111097204D01*
X192824500Y-111199983D01*
X192824500Y-111800001D01*
X192824501Y-111800019D01*
X192835000Y-111902796D01*
X192835001Y-111902799D01*
X192890185Y-112069331D01*
X192890187Y-112069336D01*
X192900867Y-112086651D01*
X192982288Y-112218656D01*
X193106344Y-112342712D01*
X193255666Y-112434814D01*
X193422203Y-112489999D01*
X193524991Y-112500500D01*
X193725636Y-112500499D01*
X193792676Y-112520183D01*
X193813318Y-112536818D01*
X194263681Y-112987181D01*
X194297166Y-113048504D01*
X194300000Y-113074862D01*
X194300000Y-113966000D01*
X194280315Y-114033039D01*
X194227511Y-114078794D01*
X194176000Y-114090000D01*
X194050000Y-114090000D01*
X194050000Y-114216000D01*
X194030315Y-114283039D01*
X193977511Y-114328794D01*
X193926000Y-114340000D01*
X192825001Y-114340000D01*
X192825001Y-114389986D01*
X192835494Y-114492697D01*
X192890641Y-114659119D01*
X192890643Y-114659124D01*
X192982684Y-114808345D01*
X193052158Y-114877819D01*
X193085643Y-114939142D01*
X193080659Y-115008834D01*
X193038787Y-115064767D01*
X192973323Y-115089184D01*
X192964477Y-115089500D01*
X190240603Y-115089500D01*
X190066639Y-115124103D01*
X190066623Y-115124108D01*
X189950753Y-115172102D01*
X189950754Y-115172103D01*
X189902754Y-115191986D01*
X189795736Y-115263494D01*
X189795735Y-115263494D01*
X189755269Y-115290532D01*
X189755261Y-115290538D01*
X188408835Y-116636964D01*
X188396859Y-116654890D01*
X188396856Y-116654894D01*
X188310290Y-116784447D01*
X188310283Y-116784459D01*
X188280695Y-116855894D01*
X188280695Y-116855895D01*
X188245514Y-116940829D01*
X188242405Y-116948334D01*
X188213097Y-117095679D01*
X188210427Y-117109101D01*
X188207800Y-117122308D01*
X188207800Y-119887996D01*
X188242403Y-120061958D01*
X188242405Y-120061966D01*
X188264580Y-120115501D01*
X188310285Y-120225844D01*
X188310287Y-120225847D01*
X188357005Y-120295765D01*
X188389769Y-120344800D01*
X188408837Y-120373338D01*
X188613418Y-120577919D01*
X188646903Y-120639242D01*
X188641919Y-120708934D01*
X188613418Y-120753281D01*
X187967335Y-121399364D01*
X187963250Y-121405479D01*
X187957013Y-121414814D01*
X187868787Y-121546852D01*
X187868784Y-121546857D01*
X187860816Y-121566097D01*
X187860815Y-121566100D01*
X187800905Y-121710733D01*
X187800903Y-121710741D01*
X187766300Y-121884703D01*
X187766300Y-128827996D01*
X187800903Y-129001958D01*
X187800905Y-129001966D01*
X187834804Y-129083805D01*
X187834805Y-129083807D01*
X187868784Y-129165842D01*
X187868785Y-129165843D01*
X187868787Y-129165847D01*
X187921055Y-129244070D01*
X187921055Y-129244071D01*
X187967337Y-129313338D01*
X187967340Y-129313341D01*
X188313719Y-129659719D01*
X188347204Y-129721042D01*
X188342220Y-129790733D01*
X188300349Y-129846667D01*
X188234884Y-129871084D01*
X188226038Y-129871400D01*
X181068952Y-129871400D01*
X181001913Y-129851715D01*
X180981271Y-129835081D01*
X180619093Y-129472903D01*
X180585608Y-129411580D01*
X180585187Y-129409564D01*
X180563037Y-129298203D01*
X180508214Y-129165847D01*
X180502697Y-129152527D01*
X180502690Y-129152514D01*
X180415089Y-129021411D01*
X180415086Y-129021407D01*
X180303592Y-128909913D01*
X180303588Y-128909910D01*
X180172485Y-128822309D01*
X180172472Y-128822302D01*
X180026801Y-128761964D01*
X180026789Y-128761961D01*
X179872145Y-128731200D01*
X179872142Y-128731200D01*
X179714458Y-128731200D01*
X179714455Y-128731200D01*
X179559810Y-128761961D01*
X179559798Y-128761964D01*
X179414127Y-128822302D01*
X179414114Y-128822309D01*
X179283011Y-128909910D01*
X179283007Y-128909913D01*
X179171513Y-129021407D01*
X179171510Y-129021411D01*
X179083909Y-129152514D01*
X179083902Y-129152527D01*
X179023564Y-129298198D01*
X179023561Y-129298210D01*
X178992800Y-129452853D01*
X178992800Y-129610546D01*
X179023561Y-129765189D01*
X179023564Y-129765201D01*
X179083902Y-129910872D01*
X179083909Y-129910885D01*
X179171510Y-130041988D01*
X179171513Y-130041992D01*
X179283007Y-130153486D01*
X179283011Y-130153489D01*
X179414114Y-130241090D01*
X179414127Y-130241097D01*
X179501530Y-130277299D01*
X179559803Y-130301437D01*
X179671016Y-130323558D01*
X179732923Y-130355941D01*
X179734503Y-130357493D01*
X180269516Y-130892506D01*
X180269545Y-130892537D01*
X180359764Y-130982756D01*
X180359767Y-130982758D01*
X180415701Y-131020131D01*
X180415702Y-131020133D01*
X180424350Y-131025911D01*
X180462215Y-131051212D01*
X180514969Y-131073063D01*
X180576048Y-131098363D01*
X180620768Y-131107258D01*
X180696891Y-131122399D01*
X180696892Y-131122400D01*
X180696893Y-131122400D01*
X180696894Y-131122400D01*
X189276340Y-131122400D01*
X189343379Y-131142085D01*
X189389134Y-131194889D01*
X189399078Y-131264047D01*
X189391768Y-131288581D01*
X189392458Y-131288810D01*
X189390187Y-131295663D01*
X189390186Y-131295665D01*
X189335001Y-131462202D01*
X189335001Y-131462203D01*
X189335000Y-131462203D01*
X189324500Y-131564982D01*
X189324500Y-133143700D01*
X189304815Y-133210739D01*
X189252011Y-133256494D01*
X189200500Y-133267700D01*
X176498852Y-133267700D01*
X176431813Y-133248015D01*
X176411171Y-133231381D01*
X175020193Y-131840403D01*
X174986708Y-131779080D01*
X174986287Y-131777064D01*
X174964137Y-131665703D01*
X174922421Y-131564990D01*
X174903797Y-131520027D01*
X174903790Y-131520014D01*
X174816189Y-131388911D01*
X174816186Y-131388907D01*
X174704692Y-131277413D01*
X174704688Y-131277410D01*
X174573585Y-131189809D01*
X174573572Y-131189802D01*
X174427901Y-131129464D01*
X174427889Y-131129461D01*
X174273245Y-131098700D01*
X174273242Y-131098700D01*
X174115558Y-131098700D01*
X174115555Y-131098700D01*
X173960910Y-131129461D01*
X173960898Y-131129464D01*
X173815227Y-131189802D01*
X173815214Y-131189809D01*
X173684111Y-131277410D01*
X173684107Y-131277413D01*
X173572613Y-131388907D01*
X173572610Y-131388911D01*
X173485009Y-131520014D01*
X173485002Y-131520027D01*
X173424664Y-131665698D01*
X173424661Y-131665710D01*
X173393900Y-131820353D01*
X173393900Y-131978046D01*
X173424661Y-132132689D01*
X173424664Y-132132701D01*
X173485002Y-132278372D01*
X173485009Y-132278385D01*
X173572610Y-132409488D01*
X173572613Y-132409492D01*
X173684107Y-132520986D01*
X173684111Y-132520989D01*
X173815214Y-132608590D01*
X173815227Y-132608597D01*
X173872071Y-132632142D01*
X173960903Y-132668937D01*
X174072116Y-132691058D01*
X174134023Y-132723441D01*
X174135603Y-132724993D01*
X175699416Y-134288806D01*
X175699445Y-134288837D01*
X175789663Y-134379055D01*
X175789671Y-134379061D01*
X175853547Y-134421742D01*
X175853548Y-134421742D01*
X175892115Y-134447512D01*
X175943179Y-134468663D01*
X176005948Y-134494663D01*
X176013173Y-134496100D01*
X176049270Y-134503281D01*
X176049300Y-134503286D01*
X176126790Y-134518699D01*
X176126792Y-134518700D01*
X176126793Y-134518700D01*
X176126794Y-134518700D01*
X184751771Y-134518700D01*
X184818810Y-134538385D01*
X184864565Y-134591189D01*
X184874509Y-134660347D01*
X184866333Y-134690150D01*
X184853122Y-134722046D01*
X184853120Y-134722051D01*
X184851837Y-134725148D01*
X184829429Y-134837797D01*
X184829430Y-134837798D01*
X184827800Y-134845993D01*
X184827800Y-135457269D01*
X184808115Y-135524308D01*
X184755311Y-135570063D01*
X184686153Y-135580007D01*
X184656351Y-135571832D01*
X184652080Y-135570063D01*
X184651052Y-135569637D01*
X184651053Y-135569637D01*
X184636417Y-135566725D01*
X184577470Y-135555001D01*
X184553838Y-135550300D01*
X184530208Y-135545600D01*
X184530207Y-135545600D01*
X184530206Y-135545600D01*
X175806752Y-135545600D01*
X175739713Y-135525915D01*
X175719071Y-135509281D01*
X170608419Y-130398629D01*
X170574934Y-130337306D01*
X170572100Y-130310948D01*
X170572100Y-129643851D01*
X170591785Y-129576812D01*
X170608414Y-129556175D01*
X186374575Y-113790013D01*
X192825000Y-113790013D01*
X192825000Y-113840000D01*
X193800000Y-113840000D01*
X193800000Y-113090000D01*
X193525029Y-113090000D01*
X193525012Y-113090001D01*
X193422302Y-113100494D01*
X193255880Y-113155641D01*
X193255875Y-113155643D01*
X193106654Y-113247684D01*
X192982684Y-113371654D01*
X192890643Y-113520875D01*
X192890641Y-113520880D01*
X192835494Y-113687302D01*
X192835493Y-113687309D01*
X192825000Y-113790013D01*
X186374575Y-113790013D01*
X190268761Y-109895827D01*
X190330082Y-109862344D01*
X190394757Y-109865578D01*
X190550215Y-109916090D01*
X190799038Y-109955500D01*
X190799039Y-109955500D01*
X191050961Y-109955500D01*
X191050962Y-109955500D01*
X191299785Y-109916090D01*
X191539379Y-109838241D01*
X191763845Y-109723870D01*
X191967656Y-109575793D01*
X192145793Y-109397656D01*
X192200722Y-109322053D01*
X192216735Y-109300013D01*
X192825000Y-109300013D01*
X192825000Y-109350000D01*
X193800000Y-109350000D01*
X193800000Y-108600000D01*
X193525029Y-108600000D01*
X193525012Y-108600001D01*
X193422302Y-108610494D01*
X193255880Y-108665641D01*
X193255875Y-108665643D01*
X193106654Y-108757684D01*
X192982684Y-108881654D01*
X192890643Y-109030875D01*
X192890641Y-109030880D01*
X192835494Y-109197302D01*
X192835493Y-109197309D01*
X192825000Y-109300013D01*
X192216735Y-109300013D01*
X192271977Y-109223979D01*
X192292803Y-109195313D01*
X192293870Y-109193845D01*
X192408241Y-108969379D01*
X192486090Y-108729785D01*
X192525500Y-108480962D01*
X192525500Y-108229038D01*
X192486090Y-107980215D01*
X192408241Y-107740621D01*
X192408239Y-107740618D01*
X192408239Y-107740616D01*
X192336226Y-107599284D01*
X192308574Y-107545014D01*
X192295679Y-107476347D01*
X192321955Y-107411606D01*
X192379062Y-107371349D01*
X192448867Y-107368357D01*
X192506740Y-107401039D01*
G37*
%TD.AperFunction*%
%TA.AperFunction,Conductor*%
G36*
X169553387Y-131116785D02*
G01*
X169574029Y-131133419D01*
X171011429Y-132570819D01*
X171044914Y-132632142D01*
X171039930Y-132701834D01*
X170998058Y-132757767D01*
X170932594Y-132782184D01*
X170923748Y-132782500D01*
X158056541Y-132782500D01*
X158056521Y-132782499D01*
X158050407Y-132782499D01*
X157927194Y-132782499D01*
X157826397Y-132802548D01*
X157826392Y-132802548D01*
X157806349Y-132806536D01*
X157806347Y-132806536D01*
X157759197Y-132826067D01*
X157692519Y-132853685D01*
X157692517Y-132853686D01*
X157590066Y-132922141D01*
X157590063Y-132922144D01*
X157101803Y-133410405D01*
X157040480Y-133443890D01*
X157038314Y-133444341D01*
X156927108Y-133466461D01*
X156927098Y-133466464D01*
X156781427Y-133526802D01*
X156781414Y-133526809D01*
X156650311Y-133614410D01*
X156650307Y-133614413D01*
X156538813Y-133725907D01*
X156538810Y-133725911D01*
X156451209Y-133857014D01*
X156451202Y-133857027D01*
X156390864Y-134002698D01*
X156390861Y-134002708D01*
X156364011Y-134137692D01*
X156331626Y-134199603D01*
X156270910Y-134234177D01*
X156242394Y-134237500D01*
X156123041Y-134237500D01*
X156056002Y-134217815D01*
X156035360Y-134201181D01*
X155926892Y-134092713D01*
X155926888Y-134092710D01*
X155795785Y-134005109D01*
X155795772Y-134005102D01*
X155650101Y-133944764D01*
X155650091Y-133944761D01*
X155515208Y-133917931D01*
X155453297Y-133885546D01*
X155418723Y-133824830D01*
X155415400Y-133796314D01*
X155415400Y-133789252D01*
X155435085Y-133722213D01*
X155451719Y-133701571D01*
X155970782Y-133182508D01*
X156534998Y-132618291D01*
X156596319Y-132584808D01*
X156598314Y-132584392D01*
X156709697Y-132562237D01*
X156855379Y-132501894D01*
X156986489Y-132414289D01*
X157097989Y-132302789D01*
X157185594Y-132171679D01*
X157245937Y-132025997D01*
X157276700Y-131871342D01*
X157276700Y-131713658D01*
X157276700Y-131713655D01*
X157276699Y-131713653D01*
X157245937Y-131559003D01*
X157229790Y-131520021D01*
X157185597Y-131413327D01*
X157185590Y-131413314D01*
X157103188Y-131289991D01*
X157082310Y-131223313D01*
X157100795Y-131155933D01*
X157152773Y-131109243D01*
X157206290Y-131097100D01*
X169486348Y-131097100D01*
X169553387Y-131116785D01*
G37*
%TD.AperFunction*%
%TA.AperFunction,Conductor*%
G36*
X160226434Y-116132069D02*
G01*
X160282367Y-116173941D01*
X160306784Y-116239405D01*
X160307100Y-116248251D01*
X160307100Y-126197111D01*
X160331135Y-126317944D01*
X160331140Y-126317961D01*
X160378285Y-126431781D01*
X160378287Y-126431784D01*
X160409470Y-126478451D01*
X160409471Y-126478453D01*
X160446743Y-126534235D01*
X160538186Y-126625678D01*
X160538208Y-126625698D01*
X162963981Y-129051471D01*
X162997466Y-129112794D01*
X163000300Y-129139152D01*
X163000300Y-129250850D01*
X162980615Y-129317889D01*
X162979402Y-129319741D01*
X162916409Y-129414015D01*
X162916402Y-129414028D01*
X162856064Y-129559698D01*
X162856061Y-129559710D01*
X162825300Y-129714353D01*
X162825300Y-129722100D01*
X162805615Y-129789139D01*
X162752811Y-129834894D01*
X162701300Y-129846100D01*
X153154000Y-129846100D01*
X153086961Y-129826415D01*
X153041206Y-129773611D01*
X153030000Y-129722100D01*
X153030000Y-117342148D01*
X153049685Y-117275109D01*
X153102489Y-117229354D01*
X153171647Y-117219410D01*
X153222892Y-117239047D01*
X153241513Y-117251489D01*
X153241515Y-117251490D01*
X153241521Y-117251494D01*
X153241523Y-117251495D01*
X153241527Y-117251497D01*
X153387198Y-117311835D01*
X153387203Y-117311837D01*
X153539586Y-117342148D01*
X153541853Y-117342599D01*
X153541856Y-117342600D01*
X153541858Y-117342600D01*
X153699544Y-117342600D01*
X153699545Y-117342599D01*
X153854197Y-117311837D01*
X153999879Y-117251494D01*
X154094159Y-117188498D01*
X154160836Y-117167620D01*
X154163050Y-117167600D01*
X158890907Y-117167600D01*
X158951329Y-117155581D01*
X159011752Y-117143563D01*
X159011755Y-117143561D01*
X159011758Y-117143561D01*
X159045087Y-117129754D01*
X159045086Y-117129754D01*
X159045092Y-117129752D01*
X159125586Y-117096412D01*
X159191469Y-117052389D01*
X159228033Y-117027958D01*
X159315158Y-116940833D01*
X159315159Y-116940831D01*
X159322225Y-116933765D01*
X159322227Y-116933761D01*
X160095420Y-116160569D01*
X160156742Y-116127085D01*
X160226434Y-116132069D01*
G37*
%TD.AperFunction*%
%TA.AperFunction,Conductor*%
G36*
X177649289Y-120364485D02*
G01*
X177651141Y-120365698D01*
X177750486Y-120432079D01*
X177749258Y-120433916D01*
X177792023Y-120475922D01*
X177807484Y-120544060D01*
X177783654Y-120609740D01*
X177771407Y-120624001D01*
X173524772Y-124870637D01*
X169547870Y-128847539D01*
X169547867Y-128847542D01*
X169504303Y-128891105D01*
X169460740Y-128934668D01*
X169446999Y-128955234D01*
X169392289Y-129037112D01*
X169392285Y-129037119D01*
X169372948Y-129083805D01*
X169345138Y-129150944D01*
X169345135Y-129150956D01*
X169321100Y-129271789D01*
X169321100Y-129722100D01*
X169301415Y-129789139D01*
X169248611Y-129834894D01*
X169197100Y-129846100D01*
X164550300Y-129846100D01*
X164483261Y-129826415D01*
X164437506Y-129773611D01*
X164426300Y-129722100D01*
X164426300Y-129714355D01*
X164426299Y-129714353D01*
X164395537Y-129559703D01*
X164335194Y-129414021D01*
X164272197Y-129319739D01*
X164251320Y-129253063D01*
X164251300Y-129250850D01*
X164251300Y-128767098D01*
X164251300Y-128767094D01*
X164251298Y-128767083D01*
X164250279Y-128761959D01*
X164250277Y-128761954D01*
X164239281Y-128706673D01*
X164239281Y-128706672D01*
X164239281Y-128706671D01*
X164227263Y-128646248D01*
X164200860Y-128582506D01*
X164180112Y-128532415D01*
X164180110Y-128532412D01*
X164180109Y-128532409D01*
X164142841Y-128476635D01*
X164142840Y-128476633D01*
X164111661Y-128429971D01*
X164111655Y-128429963D01*
X164021437Y-128339745D01*
X164021406Y-128339716D01*
X162718865Y-127037175D01*
X162685380Y-126975852D01*
X162690364Y-126906160D01*
X162718863Y-126861814D01*
X162774389Y-126806289D01*
X162861994Y-126675179D01*
X162922337Y-126529497D01*
X162944458Y-126418282D01*
X162976840Y-126356375D01*
X162978334Y-126354854D01*
X168952072Y-120381119D01*
X169013395Y-120347634D01*
X169039753Y-120344800D01*
X177582250Y-120344800D01*
X177649289Y-120364485D01*
G37*
%TD.AperFunction*%
%TA.AperFunction,Conductor*%
G36*
X198016943Y-81019685D02*
G01*
X198026377Y-81026389D01*
X198151573Y-81124474D01*
X198162781Y-81134404D01*
X198365596Y-81337219D01*
X198375525Y-81348426D01*
X198473611Y-81473623D01*
X198499460Y-81538532D01*
X198500000Y-81550094D01*
X198500000Y-108794038D01*
X198480315Y-108861077D01*
X198427511Y-108906832D01*
X198358353Y-108916776D01*
X198294797Y-108887751D01*
X198288319Y-108881719D01*
X197104441Y-107697840D01*
X197104440Y-107697839D01*
X197045360Y-107658364D01*
X197045358Y-107658361D01*
X196956944Y-107599285D01*
X196956942Y-107599284D01*
X196875007Y-107565346D01*
X196875006Y-107565346D01*
X196793066Y-107531405D01*
X196793058Y-107531403D01*
X196619096Y-107496800D01*
X196619092Y-107496800D01*
X196619091Y-107496800D01*
X195861661Y-107496800D01*
X195794622Y-107477115D01*
X195773980Y-107460481D01*
X195311818Y-106998318D01*
X195278333Y-106936995D01*
X195275499Y-106910637D01*
X195275499Y-106709998D01*
X195275498Y-106709981D01*
X195264999Y-106607203D01*
X195264998Y-106607200D01*
X195240070Y-106531972D01*
X195209814Y-106440666D01*
X195117712Y-106291344D01*
X194993656Y-106167288D01*
X194990342Y-106165243D01*
X194988546Y-106163248D01*
X194987989Y-106162807D01*
X194988064Y-106162711D01*
X194943618Y-106113297D01*
X194932397Y-106044334D01*
X194960240Y-105980252D01*
X194990348Y-105954165D01*
X194993342Y-105952318D01*
X195117315Y-105828345D01*
X195209356Y-105679124D01*
X195209358Y-105679119D01*
X195264505Y-105512697D01*
X195264506Y-105512690D01*
X195274999Y-105409986D01*
X195275000Y-105409973D01*
X195275000Y-105360000D01*
X194174000Y-105360000D01*
X194106961Y-105340315D01*
X194061206Y-105287511D01*
X194050000Y-105236000D01*
X194050000Y-105110000D01*
X193924000Y-105110000D01*
X193856961Y-105090315D01*
X193811206Y-105037511D01*
X193800000Y-104986000D01*
X193800000Y-104860000D01*
X194300000Y-104860000D01*
X195274999Y-104860000D01*
X195274999Y-104810028D01*
X195274998Y-104810013D01*
X195264505Y-104707302D01*
X195209358Y-104540880D01*
X195209356Y-104540875D01*
X195117315Y-104391654D01*
X194993345Y-104267684D01*
X194844124Y-104175643D01*
X194844119Y-104175641D01*
X194677697Y-104120494D01*
X194677690Y-104120493D01*
X194574986Y-104110000D01*
X194300000Y-104110000D01*
X194300000Y-104860000D01*
X193800000Y-104860000D01*
X193800000Y-104110000D01*
X193525029Y-104110000D01*
X193525012Y-104110001D01*
X193422302Y-104120494D01*
X193255880Y-104175641D01*
X193255875Y-104175643D01*
X193106654Y-104267684D01*
X192982684Y-104391654D01*
X192890643Y-104540875D01*
X192890641Y-104540880D01*
X192835494Y-104707302D01*
X192835493Y-104707309D01*
X192825000Y-104810013D01*
X192825000Y-104872938D01*
X192805315Y-104939977D01*
X192752511Y-104985732D01*
X192683353Y-104995676D01*
X192619797Y-104966651D01*
X192613319Y-104960619D01*
X192410619Y-104757919D01*
X192377134Y-104696596D01*
X192374300Y-104670238D01*
X192374300Y-103799797D01*
X192393985Y-103732758D01*
X192433203Y-103694258D01*
X192492456Y-103657712D01*
X192616512Y-103533656D01*
X192708614Y-103384334D01*
X192731902Y-103314054D01*
X192735910Y-103306050D01*
X192753860Y-103286772D01*
X192768855Y-103265116D01*
X192777295Y-103261606D01*
X192783525Y-103254917D01*
X192809049Y-103248404D01*
X192833371Y-103238292D01*
X192849634Y-103238048D01*
X192851225Y-103237643D01*
X192852323Y-103238008D01*
X192856519Y-103237946D01*
X192894325Y-103240921D01*
X193573800Y-102561446D01*
X193573800Y-102567661D01*
X193601059Y-102669394D01*
X193653720Y-102760606D01*
X193728194Y-102835080D01*
X193819406Y-102887741D01*
X193921139Y-102915000D01*
X193927353Y-102915000D01*
X193247876Y-103594474D01*
X193292450Y-103626859D01*
X193474768Y-103719755D01*
X193669382Y-103782990D01*
X193871483Y-103815000D01*
X194076117Y-103815000D01*
X194278217Y-103782990D01*
X194472831Y-103719755D01*
X194655149Y-103626859D01*
X194699721Y-103594474D01*
X194020247Y-102915000D01*
X194026461Y-102915000D01*
X194128194Y-102887741D01*
X194219406Y-102835080D01*
X194293880Y-102760606D01*
X194346541Y-102669394D01*
X194373800Y-102567661D01*
X194373800Y-102561447D01*
X195053274Y-103240921D01*
X195085659Y-103196349D01*
X195178555Y-103014031D01*
X195241790Y-102819417D01*
X195273800Y-102617317D01*
X195273800Y-102412682D01*
X195241790Y-102210582D01*
X195178555Y-102015968D01*
X195085659Y-101833650D01*
X195053274Y-101789077D01*
X195053274Y-101789076D01*
X194373800Y-102468551D01*
X194373800Y-102462339D01*
X194346541Y-102360606D01*
X194293880Y-102269394D01*
X194219406Y-102194920D01*
X194128194Y-102142259D01*
X194026461Y-102115000D01*
X194020246Y-102115000D01*
X194699722Y-101435524D01*
X194699721Y-101435523D01*
X194655159Y-101403147D01*
X194655150Y-101403141D01*
X194472831Y-101310244D01*
X194278217Y-101247009D01*
X194076117Y-101215000D01*
X193871483Y-101215000D01*
X193669382Y-101247009D01*
X193474768Y-101310244D01*
X193292444Y-101403143D01*
X193247877Y-101435523D01*
X193247877Y-101435524D01*
X193927354Y-102115000D01*
X193921139Y-102115000D01*
X193819406Y-102142259D01*
X193728194Y-102194920D01*
X193653720Y-102269394D01*
X193601059Y-102360606D01*
X193573800Y-102462339D01*
X193573800Y-102468553D01*
X192894324Y-101789077D01*
X192856519Y-101792053D01*
X192788141Y-101777689D01*
X192738384Y-101728638D01*
X192735910Y-101723949D01*
X192731901Y-101715942D01*
X192708614Y-101645666D01*
X192616512Y-101496344D01*
X192492456Y-101372288D01*
X192343134Y-101280186D01*
X192176597Y-101225001D01*
X192176595Y-101225000D01*
X192073810Y-101214500D01*
X190873798Y-101214500D01*
X190873781Y-101214501D01*
X190771003Y-101225000D01*
X190771000Y-101225001D01*
X190604468Y-101280185D01*
X190604463Y-101280187D01*
X190455142Y-101372289D01*
X190331089Y-101496342D01*
X190238987Y-101645663D01*
X190238986Y-101645666D01*
X190183801Y-101812203D01*
X190183801Y-101812204D01*
X190183800Y-101812204D01*
X190173300Y-101914983D01*
X190173300Y-103115001D01*
X190173301Y-103115018D01*
X190183800Y-103217796D01*
X190183801Y-103217799D01*
X190204225Y-103279433D01*
X190238986Y-103384334D01*
X190331088Y-103533656D01*
X190455144Y-103657712D01*
X190514396Y-103694258D01*
X190561121Y-103746204D01*
X190573300Y-103799797D01*
X190573300Y-104070100D01*
X190553615Y-104137139D01*
X190500811Y-104182894D01*
X190449300Y-104194100D01*
X175058141Y-104194100D01*
X174991102Y-104174415D01*
X174945347Y-104121611D01*
X174935403Y-104052453D01*
X174964428Y-103988897D01*
X174970460Y-103982419D01*
X175004686Y-103948192D01*
X175004689Y-103948189D01*
X175092294Y-103817079D01*
X175093876Y-103813261D01*
X175121651Y-103746204D01*
X175152637Y-103671397D01*
X175183400Y-103516742D01*
X175183400Y-103359058D01*
X175183400Y-103359055D01*
X175183399Y-103359053D01*
X175167561Y-103279431D01*
X175152637Y-103204403D01*
X175111331Y-103104681D01*
X175092297Y-103058727D01*
X175092290Y-103058714D01*
X175004689Y-102927611D01*
X175004686Y-102927607D01*
X174893192Y-102816113D01*
X174893188Y-102816110D01*
X174762085Y-102728509D01*
X174762072Y-102728502D01*
X174616401Y-102668164D01*
X174616389Y-102668161D01*
X174505185Y-102646041D01*
X174443274Y-102613656D01*
X174441695Y-102612105D01*
X174315898Y-102486308D01*
X174315878Y-102486286D01*
X174224433Y-102394841D01*
X174173209Y-102360615D01*
X174121987Y-102326389D01*
X174121986Y-102326388D01*
X174121983Y-102326386D01*
X174121980Y-102326385D01*
X174041492Y-102293047D01*
X174008153Y-102279237D01*
X173998127Y-102277243D01*
X173947729Y-102267218D01*
X173887310Y-102255200D01*
X173887307Y-102255200D01*
X173887306Y-102255200D01*
X163321106Y-102255200D01*
X163197893Y-102255200D01*
X163197889Y-102255200D01*
X163137471Y-102267218D01*
X163094243Y-102275816D01*
X163077046Y-102279237D01*
X162963212Y-102326389D01*
X162963206Y-102326393D01*
X162860766Y-102394842D01*
X162860762Y-102394845D01*
X162150929Y-103104681D01*
X162089606Y-103138166D01*
X162063248Y-103141000D01*
X159925689Y-103141000D01*
X159865271Y-103153018D01*
X159822043Y-103161616D01*
X159804846Y-103165037D01*
X159691016Y-103212187D01*
X159617057Y-103261606D01*
X159590377Y-103279433D01*
X159589471Y-103280038D01*
X159588564Y-103280644D01*
X159112003Y-103757205D01*
X159050680Y-103790690D01*
X159048514Y-103791141D01*
X158937308Y-103813261D01*
X158937298Y-103813264D01*
X158791627Y-103873602D01*
X158791614Y-103873609D01*
X158660511Y-103961210D01*
X158660507Y-103961213D01*
X158549013Y-104072707D01*
X158549010Y-104072711D01*
X158461409Y-104203814D01*
X158461402Y-104203827D01*
X158401064Y-104349498D01*
X158401061Y-104349510D01*
X158370300Y-104504153D01*
X158370300Y-104661846D01*
X158401061Y-104816489D01*
X158401064Y-104816501D01*
X158461402Y-104962172D01*
X158461409Y-104962185D01*
X158549010Y-105093288D01*
X158549013Y-105093292D01*
X158660507Y-105204786D01*
X158660511Y-105204789D01*
X158663709Y-105206926D01*
X158665007Y-105208479D01*
X158665219Y-105208653D01*
X158665186Y-105208693D01*
X158708517Y-105260536D01*
X158717227Y-105329861D01*
X158687075Y-105392890D01*
X158627634Y-105429611D01*
X158619015Y-105431648D01*
X158463608Y-105462561D01*
X158463598Y-105462564D01*
X158317927Y-105522902D01*
X158317914Y-105522909D01*
X158186811Y-105610510D01*
X158186807Y-105610513D01*
X158075313Y-105722007D01*
X158075310Y-105722011D01*
X157987709Y-105853114D01*
X157987702Y-105853127D01*
X157927364Y-105998798D01*
X157927361Y-105998810D01*
X157896600Y-106153453D01*
X157896600Y-106311146D01*
X157927361Y-106465789D01*
X157927364Y-106465801D01*
X157987702Y-106611472D01*
X157987709Y-106611485D01*
X158075310Y-106742588D01*
X158075313Y-106742592D01*
X158186807Y-106854086D01*
X158186811Y-106854089D01*
X158317914Y-106941690D01*
X158317927Y-106941697D01*
X158454624Y-106998318D01*
X158463603Y-107002037D01*
X158618253Y-107032799D01*
X158618256Y-107032800D01*
X158618258Y-107032800D01*
X158775944Y-107032800D01*
X158775945Y-107032799D01*
X158930597Y-107002037D01*
X159076279Y-106941694D01*
X159170559Y-106878698D01*
X159237236Y-106857820D01*
X159239450Y-106857800D01*
X160286147Y-106857800D01*
X160333599Y-106867239D01*
X160467098Y-106922535D01*
X160467103Y-106922537D01*
X160621753Y-106953299D01*
X160621756Y-106953300D01*
X160621758Y-106953300D01*
X160779444Y-106953300D01*
X160779445Y-106953299D01*
X160934097Y-106922537D01*
X161056682Y-106871761D01*
X161079772Y-106862197D01*
X161079772Y-106862196D01*
X161079779Y-106862194D01*
X161210889Y-106774589D01*
X161322389Y-106663089D01*
X161409994Y-106531979D01*
X161470337Y-106386297D01*
X161501100Y-106231642D01*
X161501100Y-106119100D01*
X161520785Y-106052061D01*
X161573589Y-106006306D01*
X161625100Y-105995100D01*
X191049438Y-105995100D01*
X191116477Y-106014785D01*
X191137119Y-106031419D01*
X191878958Y-106773258D01*
X191912443Y-106834580D01*
X191907459Y-106904271D01*
X191865587Y-106960205D01*
X191800123Y-106984622D01*
X191734982Y-106971423D01*
X191539383Y-106871761D01*
X191539382Y-106871760D01*
X191539379Y-106871759D01*
X191299785Y-106793910D01*
X191050962Y-106754500D01*
X190799038Y-106754500D01*
X190680612Y-106773257D01*
X190550214Y-106793910D01*
X190310616Y-106871760D01*
X190086151Y-106986132D01*
X189882350Y-107134201D01*
X189882345Y-107134205D01*
X189704205Y-107312345D01*
X189704201Y-107312350D01*
X189556132Y-107516151D01*
X189441760Y-107740616D01*
X189363910Y-107980214D01*
X189324500Y-108229038D01*
X189324500Y-108480961D01*
X189363910Y-108729788D01*
X189414419Y-108885241D01*
X189416414Y-108955082D01*
X189384169Y-109011239D01*
X182398656Y-115996752D01*
X182337333Y-116030237D01*
X182267641Y-116025253D01*
X182211708Y-115983381D01*
X182187291Y-115917917D01*
X182189357Y-115884883D01*
X182194100Y-115861042D01*
X182194100Y-115703358D01*
X182194100Y-115703355D01*
X182194099Y-115703353D01*
X182163338Y-115548710D01*
X182163337Y-115548703D01*
X182162992Y-115547871D01*
X182102997Y-115403027D01*
X182102990Y-115403014D01*
X182015389Y-115271911D01*
X182015386Y-115271907D01*
X181903892Y-115160413D01*
X181903888Y-115160410D01*
X181772785Y-115072809D01*
X181772772Y-115072802D01*
X181627101Y-115012464D01*
X181627089Y-115012461D01*
X181472445Y-114981700D01*
X181472442Y-114981700D01*
X181314758Y-114981700D01*
X181314755Y-114981700D01*
X181160110Y-115012461D01*
X181160098Y-115012464D01*
X181014427Y-115072802D01*
X181014415Y-115072809D01*
X180920141Y-115135802D01*
X180853464Y-115156680D01*
X180851250Y-115156700D01*
X164870689Y-115156700D01*
X164810271Y-115168718D01*
X164772559Y-115176219D01*
X164749850Y-115180736D01*
X164749848Y-115180737D01*
X164716507Y-115194547D01*
X164636019Y-115227884D01*
X164636005Y-115227892D01*
X164533572Y-115296338D01*
X164533567Y-115296342D01*
X164446439Y-115383470D01*
X163780103Y-116049805D01*
X163718780Y-116083290D01*
X163716614Y-116083741D01*
X163605408Y-116105861D01*
X163605398Y-116105864D01*
X163459727Y-116166202D01*
X163459714Y-116166209D01*
X163328611Y-116253810D01*
X163328607Y-116253813D01*
X163217113Y-116365307D01*
X163217110Y-116365311D01*
X163129509Y-116496414D01*
X163129502Y-116496427D01*
X163069164Y-116642098D01*
X163069161Y-116642110D01*
X163038400Y-116796753D01*
X163038400Y-116954446D01*
X163069161Y-117109089D01*
X163069164Y-117109101D01*
X163129502Y-117254772D01*
X163129509Y-117254785D01*
X163217110Y-117385888D01*
X163217113Y-117385892D01*
X163328607Y-117497386D01*
X163328611Y-117497389D01*
X163459714Y-117584990D01*
X163459727Y-117584997D01*
X163532138Y-117614990D01*
X163605403Y-117645337D01*
X163760053Y-117676099D01*
X163760056Y-117676100D01*
X163760058Y-117676100D01*
X163917744Y-117676100D01*
X163917745Y-117676099D01*
X164072397Y-117645337D01*
X164218079Y-117584994D01*
X164349189Y-117497389D01*
X164460689Y-117385889D01*
X164548294Y-117254779D01*
X164549654Y-117251497D01*
X164584404Y-117167600D01*
X164608637Y-117109097D01*
X164630758Y-116997882D01*
X164663140Y-116935975D01*
X164664632Y-116934456D01*
X165155071Y-116444019D01*
X165216394Y-116410534D01*
X165242752Y-116407700D01*
X165518847Y-116407700D01*
X165585886Y-116427385D01*
X165631641Y-116480189D01*
X165641585Y-116549347D01*
X165640464Y-116555892D01*
X165624200Y-116637655D01*
X165624200Y-116795346D01*
X165654961Y-116949989D01*
X165654964Y-116950001D01*
X165715302Y-117095672D01*
X165715307Y-117095681D01*
X165778302Y-117189959D01*
X165799180Y-117256636D01*
X165799200Y-117258850D01*
X165799200Y-117567847D01*
X165779515Y-117634886D01*
X165762881Y-117655528D01*
X163217903Y-120200505D01*
X163156580Y-120233990D01*
X163154414Y-120234441D01*
X163043208Y-120256561D01*
X163043198Y-120256564D01*
X162897527Y-120316902D01*
X162897514Y-120316909D01*
X162766411Y-120404510D01*
X162766407Y-120404513D01*
X162654913Y-120516007D01*
X162654910Y-120516011D01*
X162567309Y-120647114D01*
X162567302Y-120647127D01*
X162506964Y-120792798D01*
X162506961Y-120792810D01*
X162476200Y-120947453D01*
X162476200Y-121105146D01*
X162506961Y-121259789D01*
X162506964Y-121259801D01*
X162567302Y-121405472D01*
X162567309Y-121405485D01*
X162654910Y-121536588D01*
X162654913Y-121536592D01*
X162766407Y-121648086D01*
X162766411Y-121648089D01*
X162897514Y-121735690D01*
X162897527Y-121735697D01*
X163043198Y-121796035D01*
X163043203Y-121796037D01*
X163197853Y-121826799D01*
X163197856Y-121826800D01*
X163197858Y-121826800D01*
X163355544Y-121826800D01*
X163355545Y-121826799D01*
X163510197Y-121796037D01*
X163655879Y-121735694D01*
X163786989Y-121648089D01*
X163898489Y-121536589D01*
X163986094Y-121405479D01*
X164046437Y-121259797D01*
X164068558Y-121148582D01*
X164100940Y-121086675D01*
X164102435Y-121085153D01*
X166823429Y-118364160D01*
X166823433Y-118364158D01*
X166910558Y-118277033D01*
X166979011Y-118174586D01*
X167026163Y-118060752D01*
X167050200Y-117939906D01*
X167050200Y-117258850D01*
X167069885Y-117191811D01*
X167071098Y-117189959D01*
X167134093Y-117095681D01*
X167134097Y-117095672D01*
X167177660Y-116990500D01*
X167194437Y-116949997D01*
X167225200Y-116795342D01*
X167225200Y-116637658D01*
X167225200Y-116637655D01*
X167208936Y-116555892D01*
X167215163Y-116486300D01*
X167258026Y-116431123D01*
X167323916Y-116407878D01*
X167330553Y-116407700D01*
X180851250Y-116407700D01*
X180918289Y-116427385D01*
X180920141Y-116428598D01*
X181014421Y-116491594D01*
X181014423Y-116491595D01*
X181014427Y-116491597D01*
X181153850Y-116549347D01*
X181160103Y-116551937D01*
X181290919Y-116577958D01*
X181314753Y-116582699D01*
X181314756Y-116582700D01*
X181314758Y-116582700D01*
X181472440Y-116582700D01*
X181472442Y-116582700D01*
X181496279Y-116577958D01*
X181565868Y-116584184D01*
X181621046Y-116627045D01*
X181644293Y-116692934D01*
X181628227Y-116760931D01*
X181608152Y-116787256D01*
X179029301Y-119366107D01*
X178967978Y-119399592D01*
X178898286Y-119394608D01*
X178842353Y-119352736D01*
X178837497Y-119345106D01*
X178837379Y-119345186D01*
X178746389Y-119209011D01*
X178746386Y-119209007D01*
X178634892Y-119097513D01*
X178634888Y-119097510D01*
X178503785Y-119009909D01*
X178503772Y-119009902D01*
X178358101Y-118949564D01*
X178358089Y-118949561D01*
X178203445Y-118918800D01*
X178203442Y-118918800D01*
X178045758Y-118918800D01*
X178045755Y-118918800D01*
X177891110Y-118949561D01*
X177891098Y-118949564D01*
X177745427Y-119009902D01*
X177745415Y-119009909D01*
X177651141Y-119072902D01*
X177584464Y-119093780D01*
X177582250Y-119093800D01*
X168667688Y-119093800D01*
X168637349Y-119099835D01*
X168546855Y-119117835D01*
X168546845Y-119117838D01*
X168433016Y-119164987D01*
X168342809Y-119225261D01*
X168342810Y-119225262D01*
X168330562Y-119233445D01*
X168330560Y-119233447D01*
X162093803Y-125470205D01*
X162032480Y-125503690D01*
X162030314Y-125504141D01*
X161919108Y-125526261D01*
X161919098Y-125526264D01*
X161773427Y-125586602D01*
X161773411Y-125586611D01*
X161750989Y-125601593D01*
X161684311Y-125622470D01*
X161616932Y-125603984D01*
X161570242Y-125552005D01*
X161558100Y-125498490D01*
X161558100Y-115635552D01*
X161577785Y-115568513D01*
X161594419Y-115547871D01*
X162752304Y-114389986D01*
X163941523Y-113200766D01*
X164002844Y-113167283D01*
X164004872Y-113166860D01*
X164079897Y-113151937D01*
X164225579Y-113091594D01*
X164356689Y-113003989D01*
X164468189Y-112892489D01*
X164531810Y-112797273D01*
X164585420Y-112752469D01*
X164654745Y-112743762D01*
X164717773Y-112773916D01*
X164722592Y-112778484D01*
X164746666Y-112802558D01*
X164841628Y-112866009D01*
X164841627Y-112866009D01*
X164846629Y-112869350D01*
X164849114Y-112871011D01*
X164962948Y-112918163D01*
X165083788Y-112942199D01*
X165083792Y-112942200D01*
X165083793Y-112942200D01*
X176471008Y-112942200D01*
X176471008Y-112942199D01*
X176578021Y-112920914D01*
X176578022Y-112920914D01*
X176591847Y-112918164D01*
X176591847Y-112918163D01*
X176591852Y-112918163D01*
X176591857Y-112918160D01*
X176591860Y-112918160D01*
X176625187Y-112904354D01*
X176625186Y-112904354D01*
X176625192Y-112904352D01*
X176705686Y-112871012D01*
X176756909Y-112836784D01*
X176808133Y-112802558D01*
X176895258Y-112715433D01*
X176895259Y-112715431D01*
X176902325Y-112708365D01*
X176902328Y-112708361D01*
X177686197Y-111924491D01*
X177747518Y-111891008D01*
X177749528Y-111890589D01*
X177860897Y-111868437D01*
X178006579Y-111808094D01*
X178137689Y-111720489D01*
X178249189Y-111608989D01*
X178336794Y-111477879D01*
X178340445Y-111469066D01*
X178397135Y-111332201D01*
X178397137Y-111332197D01*
X178427900Y-111177542D01*
X178427900Y-111019858D01*
X178427900Y-111019855D01*
X178427899Y-111019853D01*
X178410158Y-110930663D01*
X178397137Y-110865203D01*
X178397135Y-110865198D01*
X178336797Y-110719527D01*
X178336790Y-110719514D01*
X178249189Y-110588411D01*
X178249186Y-110588407D01*
X178137692Y-110476913D01*
X178137688Y-110476910D01*
X178006585Y-110389309D01*
X178006572Y-110389302D01*
X177860901Y-110328964D01*
X177860889Y-110328961D01*
X177706245Y-110298200D01*
X177706242Y-110298200D01*
X177548558Y-110298200D01*
X177548555Y-110298200D01*
X177393910Y-110328961D01*
X177393898Y-110328964D01*
X177248227Y-110389302D01*
X177248214Y-110389309D01*
X177117111Y-110476910D01*
X177117107Y-110476913D01*
X177005613Y-110588407D01*
X177005610Y-110588411D01*
X176918009Y-110719514D01*
X176918002Y-110719527D01*
X176857664Y-110865198D01*
X176857661Y-110865208D01*
X176835541Y-110976414D01*
X176803156Y-111038325D01*
X176801605Y-111039903D01*
X176186629Y-111654881D01*
X176125306Y-111688366D01*
X176098948Y-111691200D01*
X165455853Y-111691200D01*
X165388814Y-111671515D01*
X165368172Y-111654881D01*
X165025748Y-111312458D01*
X165015059Y-111301769D01*
X165015058Y-111301767D01*
X164927933Y-111214642D01*
X164850300Y-111162769D01*
X164825486Y-111146188D01*
X164825487Y-111146188D01*
X164825485Y-111146187D01*
X164785239Y-111129517D01*
X164744992Y-111112847D01*
X164711653Y-111099037D01*
X164701627Y-111097043D01*
X164651229Y-111087018D01*
X164590810Y-111075000D01*
X164590807Y-111075000D01*
X164590806Y-111075000D01*
X155343306Y-111075000D01*
X155247780Y-111075000D01*
X155223590Y-111072617D01*
X155193842Y-111066700D01*
X155036158Y-111066700D01*
X155036155Y-111066700D01*
X154881510Y-111097461D01*
X154881498Y-111097464D01*
X154735827Y-111157802D01*
X154735814Y-111157809D01*
X154604711Y-111245410D01*
X154604707Y-111245413D01*
X154493213Y-111356907D01*
X154493210Y-111356911D01*
X154405609Y-111488014D01*
X154405602Y-111488027D01*
X154345264Y-111633698D01*
X154345261Y-111633710D01*
X154314500Y-111788353D01*
X154314500Y-111946046D01*
X154345261Y-112100689D01*
X154345264Y-112100701D01*
X154405602Y-112246372D01*
X154405609Y-112246385D01*
X154493210Y-112377488D01*
X154493213Y-112377492D01*
X154604707Y-112488986D01*
X154604711Y-112488989D01*
X154735814Y-112576590D01*
X154735827Y-112576597D01*
X154781254Y-112595413D01*
X154881503Y-112636937D01*
X154974966Y-112655528D01*
X155036153Y-112667699D01*
X155036156Y-112667700D01*
X155036158Y-112667700D01*
X155193844Y-112667700D01*
X155193845Y-112667699D01*
X155348497Y-112636937D01*
X155494179Y-112576594D01*
X155625289Y-112488989D01*
X155736789Y-112377489D01*
X155736791Y-112377485D01*
X155740653Y-112372781D01*
X155742507Y-112374302D01*
X155788009Y-112336293D01*
X155837473Y-112326000D01*
X157194539Y-112326000D01*
X157261578Y-112345685D01*
X157307333Y-112398489D01*
X157317277Y-112467647D01*
X157288252Y-112531203D01*
X157263430Y-112553102D01*
X157200111Y-112595410D01*
X157200107Y-112595413D01*
X157088613Y-112706907D01*
X157088610Y-112706911D01*
X157001009Y-112838014D01*
X157001002Y-112838027D01*
X156940664Y-112983698D01*
X156940661Y-112983710D01*
X156909900Y-113138353D01*
X156909900Y-113296046D01*
X156940661Y-113450689D01*
X156940664Y-113450701D01*
X157001002Y-113596372D01*
X157001009Y-113596385D01*
X157088610Y-113727488D01*
X157088613Y-113727492D01*
X157200107Y-113838986D01*
X157200111Y-113838989D01*
X157331214Y-113926590D01*
X157331227Y-113926597D01*
X157426356Y-113966000D01*
X157476903Y-113986937D01*
X157631553Y-114017699D01*
X157631556Y-114017700D01*
X157631558Y-114017700D01*
X157789244Y-114017700D01*
X157789245Y-114017699D01*
X157943897Y-113986937D01*
X158089579Y-113926594D01*
X158220689Y-113838989D01*
X158220692Y-113838986D01*
X158245560Y-113814119D01*
X158306883Y-113780634D01*
X158333241Y-113777800D01*
X160298231Y-113777800D01*
X160365270Y-113797485D01*
X160411025Y-113850289D01*
X160420969Y-113919447D01*
X160412791Y-113949254D01*
X160408464Y-113959698D01*
X160408461Y-113959708D01*
X160386341Y-114070914D01*
X160353956Y-114132825D01*
X160352405Y-114134403D01*
X158606529Y-115880281D01*
X158545206Y-115913766D01*
X158518848Y-115916600D01*
X154163050Y-115916600D01*
X154096011Y-115896915D01*
X154094159Y-115895702D01*
X153999884Y-115832709D01*
X153999872Y-115832702D01*
X153854201Y-115772364D01*
X153854189Y-115772361D01*
X153699545Y-115741600D01*
X153699542Y-115741600D01*
X153541858Y-115741600D01*
X153541855Y-115741600D01*
X153387210Y-115772361D01*
X153387198Y-115772364D01*
X153241527Y-115832702D01*
X153241511Y-115832711D01*
X153222889Y-115845154D01*
X153156211Y-115866031D01*
X153088832Y-115847545D01*
X153042142Y-115795566D01*
X153030000Y-115742051D01*
X153030000Y-96364983D01*
X189544500Y-96364983D01*
X189544500Y-97565001D01*
X189544501Y-97565018D01*
X189555000Y-97667796D01*
X189555001Y-97667799D01*
X189610185Y-97834331D01*
X189610186Y-97834334D01*
X189702288Y-97983656D01*
X189826344Y-98107712D01*
X189975666Y-98199814D01*
X190142203Y-98254999D01*
X190244991Y-98265500D01*
X191445008Y-98265499D01*
X191547797Y-98254999D01*
X191714334Y-98199814D01*
X191863656Y-98107712D01*
X191987712Y-97983656D01*
X192079814Y-97834334D01*
X192109698Y-97744149D01*
X192113225Y-97736858D01*
X192131458Y-97716732D01*
X192146919Y-97694401D01*
X192154572Y-97691219D01*
X192160136Y-97685078D01*
X192186356Y-97678004D01*
X192211435Y-97667578D01*
X192219592Y-97669038D01*
X192227594Y-97666880D01*
X192253478Y-97675106D01*
X192280211Y-97679893D01*
X192287222Y-97685830D01*
X192294182Y-97688042D01*
X192295943Y-97690168D01*
X192305524Y-97690922D01*
X192985000Y-97011446D01*
X192985000Y-97017661D01*
X193012259Y-97119394D01*
X193064920Y-97210606D01*
X193139394Y-97285080D01*
X193230606Y-97337741D01*
X193332339Y-97365000D01*
X193338553Y-97365000D01*
X192659076Y-98044474D01*
X192703650Y-98076859D01*
X192885968Y-98169755D01*
X193080582Y-98232990D01*
X193282683Y-98265000D01*
X193487317Y-98265000D01*
X193689417Y-98232990D01*
X193884031Y-98169755D01*
X194066349Y-98076859D01*
X194110921Y-98044474D01*
X193431447Y-97365000D01*
X193437661Y-97365000D01*
X193539394Y-97337741D01*
X193630606Y-97285080D01*
X193705080Y-97210606D01*
X193757741Y-97119394D01*
X193785000Y-97017661D01*
X193785000Y-97011447D01*
X194464474Y-97690921D01*
X194496859Y-97646349D01*
X194589755Y-97464031D01*
X194652990Y-97269417D01*
X194685000Y-97067317D01*
X194685000Y-96862682D01*
X194652990Y-96660582D01*
X194589755Y-96465968D01*
X194496859Y-96283650D01*
X194464474Y-96239077D01*
X194464474Y-96239076D01*
X193785000Y-96918551D01*
X193785000Y-96912339D01*
X193757741Y-96810606D01*
X193705080Y-96719394D01*
X193630606Y-96644920D01*
X193539394Y-96592259D01*
X193437661Y-96565000D01*
X193431446Y-96565000D01*
X194110922Y-95885524D01*
X194110921Y-95885523D01*
X194066359Y-95853147D01*
X194066350Y-95853141D01*
X193884031Y-95760244D01*
X193689417Y-95697009D01*
X193487317Y-95665000D01*
X193282683Y-95665000D01*
X193080582Y-95697009D01*
X192885968Y-95760244D01*
X192703644Y-95853143D01*
X192659077Y-95885523D01*
X192659077Y-95885524D01*
X193338554Y-96565000D01*
X193332339Y-96565000D01*
X193230606Y-96592259D01*
X193139394Y-96644920D01*
X193064920Y-96719394D01*
X193012259Y-96810606D01*
X192985000Y-96912339D01*
X192985000Y-96918553D01*
X192305524Y-96239077D01*
X192288345Y-96240429D01*
X192269840Y-96254699D01*
X192265786Y-96255047D01*
X192262410Y-96257324D01*
X192231261Y-96258012D01*
X192200227Y-96260678D01*
X192196626Y-96258778D01*
X192192557Y-96258868D01*
X192165985Y-96242610D01*
X192138432Y-96228072D01*
X192135434Y-96223918D01*
X192132958Y-96222403D01*
X192127124Y-96212402D01*
X192113225Y-96193140D01*
X192109696Y-96185844D01*
X192079814Y-96095666D01*
X191987712Y-95946344D01*
X191863656Y-95822288D01*
X191714334Y-95730186D01*
X191547797Y-95675001D01*
X191547795Y-95675000D01*
X191445010Y-95664500D01*
X190244998Y-95664500D01*
X190244981Y-95664501D01*
X190142203Y-95675000D01*
X190142200Y-95675001D01*
X189975668Y-95730185D01*
X189975663Y-95730187D01*
X189826342Y-95822289D01*
X189702289Y-95946342D01*
X189610187Y-96095663D01*
X189610186Y-96095666D01*
X189555001Y-96262203D01*
X189555001Y-96262204D01*
X189555000Y-96262204D01*
X189544500Y-96364983D01*
X153030000Y-96364983D01*
X153030000Y-91877800D01*
X153049685Y-91810761D01*
X153102489Y-91765006D01*
X153154000Y-91753800D01*
X189425393Y-91753800D01*
X189425394Y-91753799D01*
X189599366Y-91719195D01*
X189681306Y-91685253D01*
X189763247Y-91651313D01*
X189763249Y-91651311D01*
X189763252Y-91651310D01*
X189851655Y-91592239D01*
X189851655Y-91592238D01*
X189851659Y-91592236D01*
X189910736Y-91552764D01*
X190781680Y-90681818D01*
X190843003Y-90648334D01*
X190869361Y-90645500D01*
X190947351Y-90645500D01*
X190947352Y-90645500D01*
X191149534Y-90613477D01*
X191344219Y-90550220D01*
X191526610Y-90457287D01*
X191619590Y-90389732D01*
X191692213Y-90336971D01*
X191692215Y-90336968D01*
X191692219Y-90336966D01*
X191836966Y-90192219D01*
X191836968Y-90192215D01*
X191836971Y-90192213D01*
X191957284Y-90026614D01*
X191957285Y-90026613D01*
X191957287Y-90026610D01*
X192004516Y-89933917D01*
X192052489Y-89883123D01*
X192120310Y-89866328D01*
X192186445Y-89888865D01*
X192225485Y-89933919D01*
X192272715Y-90026614D01*
X192393028Y-90192213D01*
X192537786Y-90336971D01*
X192661363Y-90426753D01*
X192703390Y-90457287D01*
X192819607Y-90516503D01*
X192885776Y-90550218D01*
X192885778Y-90550218D01*
X192885781Y-90550220D01*
X192990137Y-90584127D01*
X193080465Y-90613477D01*
X193181557Y-90629488D01*
X193282648Y-90645500D01*
X193282649Y-90645500D01*
X193487351Y-90645500D01*
X193487352Y-90645500D01*
X193689534Y-90613477D01*
X193884219Y-90550220D01*
X194066610Y-90457287D01*
X194159590Y-90389732D01*
X194232213Y-90336971D01*
X194232215Y-90336968D01*
X194232219Y-90336966D01*
X194376966Y-90192219D01*
X194376968Y-90192215D01*
X194376971Y-90192213D01*
X194476452Y-90055287D01*
X194497287Y-90026610D01*
X194590220Y-89844219D01*
X194653477Y-89649534D01*
X194685500Y-89447352D01*
X194685500Y-89242648D01*
X194653477Y-89040466D01*
X194590220Y-88845781D01*
X194590218Y-88845778D01*
X194590218Y-88845776D01*
X194544515Y-88756080D01*
X194497287Y-88663390D01*
X194489556Y-88652749D01*
X194376971Y-88497786D01*
X194232213Y-88353028D01*
X194066613Y-88232715D01*
X194066612Y-88232714D01*
X194066610Y-88232713D01*
X194009653Y-88203691D01*
X193884223Y-88139781D01*
X193689534Y-88076522D01*
X193514995Y-88048878D01*
X193487352Y-88044500D01*
X193282648Y-88044500D01*
X193258329Y-88048351D01*
X193080465Y-88076522D01*
X192885776Y-88139781D01*
X192703386Y-88232715D01*
X192537786Y-88353028D01*
X192393028Y-88497786D01*
X192272715Y-88663386D01*
X192225485Y-88756080D01*
X192177510Y-88806876D01*
X192109689Y-88823671D01*
X192043554Y-88801134D01*
X192004515Y-88756080D01*
X192003883Y-88754840D01*
X191957287Y-88663390D01*
X191949556Y-88652749D01*
X191836971Y-88497786D01*
X191692213Y-88353028D01*
X191526613Y-88232715D01*
X191526612Y-88232714D01*
X191526610Y-88232713D01*
X191469653Y-88203691D01*
X191344223Y-88139781D01*
X191149534Y-88076522D01*
X190974995Y-88048878D01*
X190947352Y-88044500D01*
X190742648Y-88044500D01*
X190718329Y-88048351D01*
X190540465Y-88076522D01*
X190345776Y-88139781D01*
X190163386Y-88232715D01*
X189997786Y-88353028D01*
X189853028Y-88497786D01*
X189732715Y-88663386D01*
X189639781Y-88845776D01*
X189576522Y-89040465D01*
X189544500Y-89242648D01*
X189544500Y-89320638D01*
X189524815Y-89387677D01*
X189508181Y-89408319D01*
X189000019Y-89916481D01*
X188938696Y-89949966D01*
X188912338Y-89952800D01*
X153154000Y-89952800D01*
X153086961Y-89933115D01*
X153041206Y-89880311D01*
X153030000Y-89828800D01*
X153030000Y-83881995D01*
X193698200Y-83881995D01*
X193698200Y-84118004D01*
X193698201Y-84118020D01*
X193729006Y-84352010D01*
X193790094Y-84579993D01*
X193880414Y-84798045D01*
X193880419Y-84798056D01*
X193951377Y-84920957D01*
X193998427Y-85002450D01*
X193998429Y-85002453D01*
X193998430Y-85002454D01*
X194142106Y-85189697D01*
X194142112Y-85189704D01*
X194308995Y-85356587D01*
X194309001Y-85356592D01*
X194496250Y-85500273D01*
X194627618Y-85576118D01*
X194700643Y-85618280D01*
X194700648Y-85618282D01*
X194700651Y-85618284D01*
X194918707Y-85708606D01*
X195146686Y-85769693D01*
X195380689Y-85800500D01*
X195380696Y-85800500D01*
X195616704Y-85800500D01*
X195616711Y-85800500D01*
X195850714Y-85769693D01*
X196078693Y-85708606D01*
X196296749Y-85618284D01*
X196501150Y-85500273D01*
X196688399Y-85356592D01*
X196855292Y-85189699D01*
X196998973Y-85002450D01*
X197116984Y-84798049D01*
X197207306Y-84579993D01*
X197268393Y-84352014D01*
X197299200Y-84118011D01*
X197299200Y-83881989D01*
X197268393Y-83647986D01*
X197207306Y-83420007D01*
X197116984Y-83201951D01*
X197116982Y-83201948D01*
X197116980Y-83201943D01*
X197074818Y-83128918D01*
X196998973Y-82997550D01*
X196855292Y-82810301D01*
X196855287Y-82810295D01*
X196688404Y-82643412D01*
X196688397Y-82643406D01*
X196501154Y-82499730D01*
X196501153Y-82499729D01*
X196501150Y-82499727D01*
X196419657Y-82452677D01*
X196296756Y-82381719D01*
X196296745Y-82381714D01*
X196078693Y-82291394D01*
X195850710Y-82230306D01*
X195616720Y-82199501D01*
X195616717Y-82199500D01*
X195616711Y-82199500D01*
X195380689Y-82199500D01*
X195380683Y-82199500D01*
X195380679Y-82199501D01*
X195146689Y-82230306D01*
X194918706Y-82291394D01*
X194700654Y-82381714D01*
X194700643Y-82381719D01*
X194496245Y-82499730D01*
X194309002Y-82643406D01*
X194308995Y-82643412D01*
X194142112Y-82810295D01*
X194142106Y-82810302D01*
X193998430Y-82997545D01*
X193998427Y-82997549D01*
X193998427Y-82997550D01*
X193990714Y-83010909D01*
X193880419Y-83201943D01*
X193880414Y-83201954D01*
X193790094Y-83420006D01*
X193729006Y-83647989D01*
X193698201Y-83881979D01*
X193698200Y-83881995D01*
X153030000Y-83881995D01*
X153030000Y-81124000D01*
X153049685Y-81056961D01*
X153102489Y-81011206D01*
X153154000Y-81000000D01*
X197949904Y-81000000D01*
X198016943Y-81019685D01*
G37*
%TD.AperFunction*%
%TA.AperFunction,Conductor*%
G36*
X173545578Y-103525885D02*
G01*
X173591333Y-103578689D01*
X173600156Y-103606009D01*
X173613161Y-103671389D01*
X173613164Y-103671401D01*
X173673502Y-103817072D01*
X173673509Y-103817085D01*
X173761110Y-103948188D01*
X173761113Y-103948192D01*
X173795340Y-103982419D01*
X173828825Y-104043742D01*
X173823841Y-104113434D01*
X173781969Y-104169367D01*
X173716505Y-104193784D01*
X173707659Y-104194100D01*
X163130052Y-104194100D01*
X163063013Y-104174415D01*
X163017258Y-104121611D01*
X163007314Y-104052453D01*
X163036339Y-103988897D01*
X163042371Y-103982419D01*
X163482272Y-103542519D01*
X163543595Y-103509034D01*
X163569953Y-103506200D01*
X173478539Y-103506200D01*
X173545578Y-103525885D01*
G37*
%TD.AperFunction*%
%TD*%
M02*
