%TF.GenerationSoftware,KiCad,Pcbnew,10.0.5*%
%TF.CreationDate,2026-07-29T02:32:07-07:00*%
%TF.ProjectId,cv-led,63762d6c-6564-42e6-9b69-6361645f7063,rev?*%
%TF.SameCoordinates,Original*%
%TF.FileFunction,Soldermask,Top*%
%TF.FilePolarity,Negative*%
%FSLAX46Y46*%
G04 Gerber Fmt 4.6, Leading zero omitted, Abs format (unit mm)*
G04 Created by KiCad (PCBNEW 10.0.5) date 2026-07-29 02:32:07*
%MOMM*%
%LPD*%
G01*
G04 APERTURE LIST*
G04 Aperture macros list*
%AMRoundRect*
0 Rectangle with rounded corners*
0 $1 Rounding radius*
0 $2 $3 $4 $5 $6 $7 $8 $9 X,Y pos of 4 corners*
0 Add a 4 corners polygon primitive as box body*
4,1,4,$2,$3,$4,$5,$6,$7,$8,$9,$2,$3,0*
0 Add four circle primitives for the rounded corners*
1,1,$1+$1,$2,$3*
1,1,$1+$1,$4,$5*
1,1,$1+$1,$6,$7*
1,1,$1+$1,$8,$9*
0 Add four rect primitives between the rounded corners*
20,1,$1+$1,$2,$3,$4,$5,0*
20,1,$1+$1,$4,$5,$6,$7,0*
20,1,$1+$1,$6,$7,$8,$9,0*
20,1,$1+$1,$8,$9,$2,$3,0*%
G04 Aperture macros list end*
%ADD10RoundRect,0.250000X0.550000X-0.550000X0.550000X0.550000X-0.550000X0.550000X-0.550000X-0.550000X0*%
%ADD11C,1.600000*%
%ADD12RoundRect,0.250000X-0.550000X-0.550000X0.550000X-0.550000X0.550000X0.550000X-0.550000X0.550000X0*%
%ADD13R,2.000000X1.905000*%
%ADD14O,2.000000X1.905000*%
%ADD15C,1.500000*%
%ADD16RoundRect,0.250000X-1.050000X-1.050000X1.050000X-1.050000X1.050000X1.050000X-1.050000X1.050000X0*%
%ADD17C,2.600000*%
%ADD18C,2.000000*%
%ADD19R,1.905000X2.000000*%
%ADD20O,1.905000X2.000000*%
%ADD21RoundRect,0.249999X0.850001X-0.850001X0.850001X0.850001X-0.850001X0.850001X-0.850001X-0.850001X0*%
%ADD22C,2.200000*%
%ADD23R,1.800000X1.800000*%
%ADD24C,1.800000*%
%ADD25RoundRect,0.375000X-0.625000X-0.375000X0.625000X-0.375000X0.625000X0.375000X-0.625000X0.375000X0*%
%ADD26RoundRect,0.500000X-0.500000X-1.400000X0.500000X-1.400000X0.500000X1.400000X-0.500000X1.400000X0*%
%ADD27RoundRect,0.250000X-0.750000X-0.750000X0.750000X-0.750000X0.750000X0.750000X-0.750000X0.750000X0*%
%ADD28R,1.700000X1.700000*%
%ADD29C,1.700000*%
%ADD30C,3.200000*%
%ADD31C,3.000000*%
%ADD32C,2.500000*%
%ADD33C,0.600000*%
G04 APERTURE END LIST*
D10*
%TO.C,PC1*%
X184455000Y-96965000D03*
D11*
X186995000Y-96965000D03*
X186995000Y-89345000D03*
X184455000Y-89345000D03*
%TD*%
D12*
%TO.C,C3*%
X146113800Y-103595000D03*
D11*
X148613800Y-103595000D03*
%TD*%
D13*
%TO.C,Q1*%
X175745000Y-104675000D03*
D14*
X175745000Y-102135000D03*
X175745000Y-99595000D03*
%TD*%
D15*
%TO.C,TP3*%
X148195300Y-143400000D03*
%TD*%
D16*
%TO.C,J2*%
X139575000Y-94005000D03*
D17*
X144575000Y-94005000D03*
%TD*%
D18*
%TO.C,FID1*%
X111485300Y-83200000D03*
%TD*%
D16*
%TO.C,J3*%
X151665000Y-94005000D03*
D17*
X156665000Y-94005000D03*
%TD*%
D19*
%TO.C,Q4*%
X127195000Y-103595000D03*
D20*
X129735000Y-103595000D03*
X132275000Y-103595000D03*
%TD*%
D21*
%TO.C,D1*%
X153455000Y-111705000D03*
D22*
X153455000Y-101545000D03*
%TD*%
D23*
%TO.C,LED0*%
X189805000Y-108795000D03*
D24*
X189805000Y-106255000D03*
%TD*%
D25*
%TO.C,U2*%
X104545000Y-106585000D03*
X104545000Y-108885000D03*
D26*
X110845000Y-108885000D03*
D25*
X104545000Y-111185000D03*
%TD*%
D27*
%TO.C,C1*%
X163503800Y-93545000D03*
D18*
X168503800Y-93545000D03*
%TD*%
%TO.C,FID2*%
X184217300Y-144800000D03*
%TD*%
D16*
%TO.C,J1*%
X127485000Y-94005000D03*
D17*
X132485000Y-94005000D03*
%TD*%
D19*
%TO.C,Q2*%
X181045000Y-102515000D03*
D20*
X183585000Y-102515000D03*
X186125000Y-102515000D03*
%TD*%
D28*
%TO.C,U3*%
X180105000Y-106875000D03*
D29*
X180105000Y-109415000D03*
X180105000Y-111955000D03*
X180105000Y-114495000D03*
%TD*%
D19*
%TO.C,Q3*%
X163465000Y-103285000D03*
D20*
X166005000Y-103285000D03*
X168545000Y-103285000D03*
%TD*%
D30*
%TO.C,MH1*%
X103998700Y-84000000D03*
%TD*%
D28*
%TO.C,JP*%
X184735000Y-106875000D03*
D29*
X184735000Y-109415000D03*
X184735000Y-111955000D03*
%TD*%
D15*
%TO.C,TP1*%
X140195300Y-143400000D03*
%TD*%
D18*
%TO.C,SW1*%
X173845000Y-89795000D03*
X180345000Y-89795000D03*
X173845000Y-94295000D03*
X180345000Y-94295000D03*
%TD*%
D30*
%TO.C,MH2*%
X191698700Y-144000000D03*
%TD*%
D15*
%TO.C,TP2*%
X144195300Y-143400000D03*
%TD*%
D12*
%TO.C,C2*%
X138223800Y-103595000D03*
D11*
X140723800Y-103595000D03*
%TD*%
D31*
%TO.C,K1*%
X104845000Y-96245000D03*
D32*
X106795000Y-102295000D03*
D31*
X118995000Y-102295000D03*
X119045000Y-90245000D03*
D32*
X106795000Y-90295000D03*
%TD*%
D33*
%TO.C,U1*%
X127110000Y-125495000D03*
X128510000Y-125495000D03*
X126410000Y-124795000D03*
X127810000Y-124795000D03*
X129210000Y-124795000D03*
X127110000Y-124095000D03*
X128510000Y-124095000D03*
X126410000Y-123395000D03*
X127810000Y-123395000D03*
X129210000Y-123395000D03*
X127110000Y-122695000D03*
X128510000Y-122695000D03*
%TD*%
M02*
