%TF.GenerationSoftware,KiCad,Pcbnew,10.0.5*%
%TF.CreationDate,2026-08-03T02:30:35-07:00*%
%TF.ProjectId,cv-led,63762d6c-6564-42e6-9b69-6361645f7063,rev?*%
%TF.SameCoordinates,Original*%
%TF.FileFunction,Legend,Bot*%
%TF.FilePolarity,Positive*%
%FSLAX46Y46*%
G04 Gerber Fmt 4.6, Leading zero omitted, Abs format (unit mm)*
G04 Created by KiCad (PCBNEW 10.0.5) date 2026-08-03 02:30:35*
%MOMM*%
%LPD*%
G01*
G04 APERTURE LIST*
%ADD10C,0.150000*%
%ADD11C,0.120000*%
G04 APERTURE END LIST*
D10*
X126857142Y-112007200D02*
X126714285Y-112054819D01*
X126714285Y-112054819D02*
X126476190Y-112054819D01*
X126476190Y-112054819D02*
X126380952Y-112007200D01*
X126380952Y-112007200D02*
X126333333Y-111959580D01*
X126333333Y-111959580D02*
X126285714Y-111864342D01*
X126285714Y-111864342D02*
X126285714Y-111769104D01*
X126285714Y-111769104D02*
X126333333Y-111673866D01*
X126333333Y-111673866D02*
X126380952Y-111626247D01*
X126380952Y-111626247D02*
X126476190Y-111578628D01*
X126476190Y-111578628D02*
X126666666Y-111531009D01*
X126666666Y-111531009D02*
X126761904Y-111483390D01*
X126761904Y-111483390D02*
X126809523Y-111435771D01*
X126809523Y-111435771D02*
X126857142Y-111340533D01*
X126857142Y-111340533D02*
X126857142Y-111245295D01*
X126857142Y-111245295D02*
X126809523Y-111150057D01*
X126809523Y-111150057D02*
X126761904Y-111102438D01*
X126761904Y-111102438D02*
X126666666Y-111054819D01*
X126666666Y-111054819D02*
X126428571Y-111054819D01*
X126428571Y-111054819D02*
X126285714Y-111102438D01*
X125857142Y-112054819D02*
X125857142Y-111054819D01*
X125857142Y-111054819D02*
X125285714Y-112054819D01*
X125285714Y-112054819D02*
X125285714Y-111054819D01*
X124095238Y-111007200D02*
X124952380Y-112292914D01*
X123095238Y-112150057D02*
X123190476Y-112102438D01*
X123190476Y-112102438D02*
X123285714Y-112007200D01*
X123285714Y-112007200D02*
X123428571Y-111864342D01*
X123428571Y-111864342D02*
X123523809Y-111816723D01*
X123523809Y-111816723D02*
X123619047Y-111816723D01*
X123571428Y-112054819D02*
X123666666Y-112007200D01*
X123666666Y-112007200D02*
X123761904Y-111911961D01*
X123761904Y-111911961D02*
X123809523Y-111721485D01*
X123809523Y-111721485D02*
X123809523Y-111388152D01*
X123809523Y-111388152D02*
X123761904Y-111197676D01*
X123761904Y-111197676D02*
X123666666Y-111102438D01*
X123666666Y-111102438D02*
X123571428Y-111054819D01*
X123571428Y-111054819D02*
X123380952Y-111054819D01*
X123380952Y-111054819D02*
X123285714Y-111102438D01*
X123285714Y-111102438D02*
X123190476Y-111197676D01*
X123190476Y-111197676D02*
X123142857Y-111388152D01*
X123142857Y-111388152D02*
X123142857Y-111721485D01*
X123142857Y-111721485D02*
X123190476Y-111911961D01*
X123190476Y-111911961D02*
X123285714Y-112007200D01*
X123285714Y-112007200D02*
X123380952Y-112054819D01*
X123380952Y-112054819D02*
X123571428Y-112054819D01*
X122142857Y-112054819D02*
X122476190Y-111578628D01*
X122714285Y-112054819D02*
X122714285Y-111054819D01*
X122714285Y-111054819D02*
X122333333Y-111054819D01*
X122333333Y-111054819D02*
X122238095Y-111102438D01*
X122238095Y-111102438D02*
X122190476Y-111150057D01*
X122190476Y-111150057D02*
X122142857Y-111245295D01*
X122142857Y-111245295D02*
X122142857Y-111388152D01*
X122142857Y-111388152D02*
X122190476Y-111483390D01*
X122190476Y-111483390D02*
X122238095Y-111531009D01*
X122238095Y-111531009D02*
X122333333Y-111578628D01*
X122333333Y-111578628D02*
X122714285Y-111578628D01*
%TO.C,R1*%
D11*
X167467064Y-108465000D02*
X167012936Y-108465000D01*
X167467064Y-109935000D02*
X167012936Y-109935000D01*
%TO.C,R6*%
X154997064Y-113145000D02*
X154542936Y-113145000D01*
X154997064Y-114615000D02*
X154542936Y-114615000D01*
%TO.C,R2*%
X150547064Y-109655000D02*
X150092936Y-109655000D01*
X150547064Y-111125000D02*
X150092936Y-111125000D01*
%TO.C,R5*%
X150547064Y-112645000D02*
X150092936Y-112645000D01*
X150547064Y-114115000D02*
X150092936Y-114115000D01*
%TO.C,R8*%
X140202064Y-113555000D02*
X139747936Y-113555000D01*
X140202064Y-115025000D02*
X139747936Y-115025000D01*
%TO.C,C6*%
X140256252Y-105085000D02*
X139733748Y-105085000D01*
X140256252Y-106555000D02*
X139733748Y-106555000D01*
%TO.C,F1*%
X162272064Y-88515000D02*
X161067936Y-88515000D01*
X162272064Y-90335000D02*
X161067936Y-90335000D01*
%TO.C,R7*%
X159447064Y-113145000D02*
X158992936Y-113145000D01*
X159447064Y-114615000D02*
X158992936Y-114615000D01*
%TO.C,D2*%
X156120000Y-111850000D02*
X156120000Y-106340000D01*
X159420000Y-111850000D02*
X156120000Y-111850000D01*
X159420000Y-111850000D02*
X159420000Y-106340000D01*
%TO.C,TVS1*%
X166700000Y-96450000D02*
X160890000Y-96450000D01*
X166700000Y-96450000D02*
X166700000Y-100750000D01*
X166700000Y-100750000D02*
X160890000Y-100750000D01*
%TO.C,C5*%
X168025000Y-98311252D02*
X168025000Y-97788748D01*
X169495000Y-98311252D02*
X169495000Y-97788748D01*
%TO.C,C7*%
X144746252Y-105085000D02*
X144223748Y-105085000D01*
X144746252Y-106555000D02*
X144223748Y-106555000D01*
%TO.C,R10*%
X179662064Y-115515000D02*
X179207936Y-115515000D01*
X179662064Y-116985000D02*
X179207936Y-116985000D01*
%TO.C,R4*%
X178927064Y-112525000D02*
X178472936Y-112525000D01*
X178927064Y-113995000D02*
X178472936Y-113995000D01*
%TO.C,Q5*%
X161780000Y-108390000D02*
X161780000Y-109390000D01*
X161780000Y-110510000D02*
X161780000Y-111510000D01*
X161780000Y-111510000D02*
X163300000Y-111510000D01*
X163300000Y-108390000D02*
X161780000Y-108390000D01*
X163300000Y-108440000D02*
X163300000Y-108390000D01*
X163300000Y-110340000D02*
X163300000Y-109560000D01*
X163300000Y-111510000D02*
X163300000Y-111460000D01*
X163840000Y-109570000D02*
X163600000Y-109900000D01*
X164080000Y-109900000D01*
X163840000Y-109570000D01*
G36*
X164080000Y-109900000D02*
G01*
X163600000Y-109900000D01*
X163840000Y-109570000D01*
X164080000Y-109900000D01*
G37*
%TO.C,C4*%
X167001252Y-88540000D02*
X166478748Y-88540000D01*
X167001252Y-90010000D02*
X166478748Y-90010000D01*
%TO.C,R3*%
X169327064Y-111455000D02*
X168872936Y-111455000D01*
X169327064Y-112925000D02*
X168872936Y-112925000D01*
%TO.C,R12*%
X179662064Y-118505000D02*
X179207936Y-118505000D01*
X179662064Y-119975000D02*
X179207936Y-119975000D01*
%TO.C,R9*%
X144652064Y-113555000D02*
X144197936Y-113555000D01*
X144652064Y-115025000D02*
X144197936Y-115025000D01*
%TO.C,R11*%
X148300000Y-117327064D02*
X148300000Y-116872936D01*
X149770000Y-117327064D02*
X149770000Y-116872936D01*
%TD*%
M02*
