%TF.GenerationSoftware,KiCad,Pcbnew,10.0.5*%
%TF.CreationDate,2026-07-29T02:32:06-07:00*%
%TF.ProjectId,cv-led,63762d6c-6564-42e6-9b69-6361645f7063,rev?*%
%TF.SameCoordinates,Original*%
%TF.FileFunction,Legend,Top*%
%TF.FilePolarity,Positive*%
%FSLAX46Y46*%
G04 Gerber Fmt 4.6, Leading zero omitted, Abs format (unit mm)*
G04 Created by KiCad (PCBNEW 10.0.5) date 2026-07-29 02:32:06*
%MOMM*%
%LPD*%
G01*
G04 APERTURE LIST*
%ADD10C,0.150000*%
%ADD11C,0.200000*%
%ADD12C,0.120000*%
G04 APERTURE END LIST*
D10*
X137949999Y-145822842D02*
X137907142Y-145865700D01*
X137907142Y-145865700D02*
X137778570Y-145908557D01*
X137778570Y-145908557D02*
X137692856Y-145908557D01*
X137692856Y-145908557D02*
X137564285Y-145865700D01*
X137564285Y-145865700D02*
X137478570Y-145779985D01*
X137478570Y-145779985D02*
X137435713Y-145694271D01*
X137435713Y-145694271D02*
X137392856Y-145522842D01*
X137392856Y-145522842D02*
X137392856Y-145394271D01*
X137392856Y-145394271D02*
X137435713Y-145222842D01*
X137435713Y-145222842D02*
X137478570Y-145137128D01*
X137478570Y-145137128D02*
X137564285Y-145051414D01*
X137564285Y-145051414D02*
X137692856Y-145008557D01*
X137692856Y-145008557D02*
X137778570Y-145008557D01*
X137778570Y-145008557D02*
X137907142Y-145051414D01*
X137907142Y-145051414D02*
X137949999Y-145094271D01*
X138207142Y-145008557D02*
X138507142Y-145908557D01*
X138507142Y-145908557D02*
X138807142Y-145008557D01*
X139107142Y-145565700D02*
X139792857Y-145565700D01*
X140650000Y-145908557D02*
X140221428Y-145908557D01*
X140221428Y-145908557D02*
X140221428Y-145008557D01*
X140949999Y-145437128D02*
X141249999Y-145437128D01*
X141378571Y-145908557D02*
X140949999Y-145908557D01*
X140949999Y-145908557D02*
X140949999Y-145008557D01*
X140949999Y-145008557D02*
X141378571Y-145008557D01*
X141764285Y-145908557D02*
X141764285Y-145008557D01*
X141764285Y-145008557D02*
X141978571Y-145008557D01*
X141978571Y-145008557D02*
X142107142Y-145051414D01*
X142107142Y-145051414D02*
X142192857Y-145137128D01*
X142192857Y-145137128D02*
X142235714Y-145222842D01*
X142235714Y-145222842D02*
X142278571Y-145394271D01*
X142278571Y-145394271D02*
X142278571Y-145522842D01*
X142278571Y-145522842D02*
X142235714Y-145694271D01*
X142235714Y-145694271D02*
X142192857Y-145779985D01*
X142192857Y-145779985D02*
X142107142Y-145865700D01*
X142107142Y-145865700D02*
X141978571Y-145908557D01*
X141978571Y-145908557D02*
X141764285Y-145908557D01*
X144549999Y-145908557D02*
X144249999Y-145479985D01*
X144035713Y-145908557D02*
X144035713Y-145008557D01*
X144035713Y-145008557D02*
X144378570Y-145008557D01*
X144378570Y-145008557D02*
X144464285Y-145051414D01*
X144464285Y-145051414D02*
X144507142Y-145094271D01*
X144507142Y-145094271D02*
X144549999Y-145179985D01*
X144549999Y-145179985D02*
X144549999Y-145308557D01*
X144549999Y-145308557D02*
X144507142Y-145394271D01*
X144507142Y-145394271D02*
X144464285Y-145437128D01*
X144464285Y-145437128D02*
X144378570Y-145479985D01*
X144378570Y-145479985D02*
X144035713Y-145479985D01*
X144935713Y-145437128D02*
X145235713Y-145437128D01*
X145364285Y-145908557D02*
X144935713Y-145908557D01*
X144935713Y-145908557D02*
X144935713Y-145008557D01*
X144935713Y-145008557D02*
X145364285Y-145008557D01*
X145621428Y-145008557D02*
X145921428Y-145908557D01*
X145921428Y-145908557D02*
X146221428Y-145008557D01*
X147164285Y-145651414D02*
X147592857Y-145651414D01*
X147078571Y-145908557D02*
X147378571Y-145008557D01*
X147378571Y-145008557D02*
X147678571Y-145908557D01*
X149735714Y-145865700D02*
X149649999Y-145908557D01*
X149649999Y-145908557D02*
X149478571Y-145908557D01*
X149478571Y-145908557D02*
X149392856Y-145865700D01*
X149392856Y-145865700D02*
X149349999Y-145822842D01*
X149349999Y-145822842D02*
X149307142Y-145737128D01*
X149307142Y-145737128D02*
X149307142Y-145479985D01*
X149307142Y-145479985D02*
X149349999Y-145394271D01*
X149349999Y-145394271D02*
X149392856Y-145351414D01*
X149392856Y-145351414D02*
X149478571Y-145308557D01*
X149478571Y-145308557D02*
X149649999Y-145308557D01*
X149649999Y-145308557D02*
X149735714Y-145351414D01*
X150121428Y-145908557D02*
X150121428Y-145308557D01*
X150121428Y-145008557D02*
X150078571Y-145051414D01*
X150078571Y-145051414D02*
X150121428Y-145094271D01*
X150121428Y-145094271D02*
X150164285Y-145051414D01*
X150164285Y-145051414D02*
X150121428Y-145008557D01*
X150121428Y-145008557D02*
X150121428Y-145094271D01*
X150549999Y-145908557D02*
X150549999Y-145308557D01*
X150549999Y-145479985D02*
X150592856Y-145394271D01*
X150592856Y-145394271D02*
X150635714Y-145351414D01*
X150635714Y-145351414D02*
X150721428Y-145308557D01*
X150721428Y-145308557D02*
X150807142Y-145308557D01*
X151492857Y-145865700D02*
X151407142Y-145908557D01*
X151407142Y-145908557D02*
X151235714Y-145908557D01*
X151235714Y-145908557D02*
X151149999Y-145865700D01*
X151149999Y-145865700D02*
X151107142Y-145822842D01*
X151107142Y-145822842D02*
X151064285Y-145737128D01*
X151064285Y-145737128D02*
X151064285Y-145479985D01*
X151064285Y-145479985D02*
X151107142Y-145394271D01*
X151107142Y-145394271D02*
X151149999Y-145351414D01*
X151149999Y-145351414D02*
X151235714Y-145308557D01*
X151235714Y-145308557D02*
X151407142Y-145308557D01*
X151407142Y-145308557D02*
X151492857Y-145351414D01*
X152264286Y-145308557D02*
X152264286Y-145908557D01*
X151878571Y-145308557D02*
X151878571Y-145779985D01*
X151878571Y-145779985D02*
X151921428Y-145865700D01*
X151921428Y-145865700D02*
X152007143Y-145908557D01*
X152007143Y-145908557D02*
X152135714Y-145908557D01*
X152135714Y-145908557D02*
X152221428Y-145865700D01*
X152221428Y-145865700D02*
X152264286Y-145822842D01*
X152607143Y-145308557D02*
X152821429Y-145908557D01*
X152821429Y-145908557D02*
X153035714Y-145308557D01*
X153721428Y-145865700D02*
X153635714Y-145908557D01*
X153635714Y-145908557D02*
X153464286Y-145908557D01*
X153464286Y-145908557D02*
X153378571Y-145865700D01*
X153378571Y-145865700D02*
X153335714Y-145779985D01*
X153335714Y-145779985D02*
X153335714Y-145437128D01*
X153335714Y-145437128D02*
X153378571Y-145351414D01*
X153378571Y-145351414D02*
X153464286Y-145308557D01*
X153464286Y-145308557D02*
X153635714Y-145308557D01*
X153635714Y-145308557D02*
X153721428Y-145351414D01*
X153721428Y-145351414D02*
X153764286Y-145437128D01*
X153764286Y-145437128D02*
X153764286Y-145522842D01*
X153764286Y-145522842D02*
X153335714Y-145608557D01*
X154150000Y-145308557D02*
X154150000Y-145908557D01*
X154150000Y-145394271D02*
X154192857Y-145351414D01*
X154192857Y-145351414D02*
X154278572Y-145308557D01*
X154278572Y-145308557D02*
X154407143Y-145308557D01*
X154407143Y-145308557D02*
X154492857Y-145351414D01*
X154492857Y-145351414D02*
X154535715Y-145437128D01*
X154535715Y-145437128D02*
X154535715Y-145908557D01*
X154835715Y-145308557D02*
X155178572Y-145308557D01*
X154964286Y-145008557D02*
X154964286Y-145779985D01*
X154964286Y-145779985D02*
X155007143Y-145865700D01*
X155007143Y-145865700D02*
X155092858Y-145908557D01*
X155092858Y-145908557D02*
X155178572Y-145908557D01*
X155478572Y-145822842D02*
X155521429Y-145865700D01*
X155521429Y-145865700D02*
X155478572Y-145908557D01*
X155478572Y-145908557D02*
X155435715Y-145865700D01*
X155435715Y-145865700D02*
X155478572Y-145822842D01*
X155478572Y-145822842D02*
X155478572Y-145908557D01*
X156292858Y-145865700D02*
X156207143Y-145908557D01*
X156207143Y-145908557D02*
X156035715Y-145908557D01*
X156035715Y-145908557D02*
X155950000Y-145865700D01*
X155950000Y-145865700D02*
X155907143Y-145822842D01*
X155907143Y-145822842D02*
X155864286Y-145737128D01*
X155864286Y-145737128D02*
X155864286Y-145479985D01*
X155864286Y-145479985D02*
X155907143Y-145394271D01*
X155907143Y-145394271D02*
X155950000Y-145351414D01*
X155950000Y-145351414D02*
X156035715Y-145308557D01*
X156035715Y-145308557D02*
X156207143Y-145308557D01*
X156207143Y-145308557D02*
X156292858Y-145351414D01*
X156807144Y-145908557D02*
X156721429Y-145865700D01*
X156721429Y-145865700D02*
X156678572Y-145822842D01*
X156678572Y-145822842D02*
X156635715Y-145737128D01*
X156635715Y-145737128D02*
X156635715Y-145479985D01*
X156635715Y-145479985D02*
X156678572Y-145394271D01*
X156678572Y-145394271D02*
X156721429Y-145351414D01*
X156721429Y-145351414D02*
X156807144Y-145308557D01*
X156807144Y-145308557D02*
X156935715Y-145308557D01*
X156935715Y-145308557D02*
X157021429Y-145351414D01*
X157021429Y-145351414D02*
X157064287Y-145394271D01*
X157064287Y-145394271D02*
X157107144Y-145479985D01*
X157107144Y-145479985D02*
X157107144Y-145737128D01*
X157107144Y-145737128D02*
X157064287Y-145822842D01*
X157064287Y-145822842D02*
X157021429Y-145865700D01*
X157021429Y-145865700D02*
X156935715Y-145908557D01*
X156935715Y-145908557D02*
X156807144Y-145908557D01*
X157492858Y-145908557D02*
X157492858Y-145308557D01*
X157492858Y-145394271D02*
X157535715Y-145351414D01*
X157535715Y-145351414D02*
X157621430Y-145308557D01*
X157621430Y-145308557D02*
X157750001Y-145308557D01*
X157750001Y-145308557D02*
X157835715Y-145351414D01*
X157835715Y-145351414D02*
X157878573Y-145437128D01*
X157878573Y-145437128D02*
X157878573Y-145908557D01*
X157878573Y-145437128D02*
X157921430Y-145351414D01*
X157921430Y-145351414D02*
X158007144Y-145308557D01*
X158007144Y-145308557D02*
X158135715Y-145308557D01*
X158135715Y-145308557D02*
X158221430Y-145351414D01*
X158221430Y-145351414D02*
X158264287Y-145437128D01*
X158264287Y-145437128D02*
X158264287Y-145908557D01*
D11*
X135964286Y-82930457D02*
X135907143Y-82987600D01*
X135907143Y-82987600D02*
X135735715Y-83044742D01*
X135735715Y-83044742D02*
X135621429Y-83044742D01*
X135621429Y-83044742D02*
X135450000Y-82987600D01*
X135450000Y-82987600D02*
X135335715Y-82873314D01*
X135335715Y-82873314D02*
X135278572Y-82759028D01*
X135278572Y-82759028D02*
X135221429Y-82530457D01*
X135221429Y-82530457D02*
X135221429Y-82359028D01*
X135221429Y-82359028D02*
X135278572Y-82130457D01*
X135278572Y-82130457D02*
X135335715Y-82016171D01*
X135335715Y-82016171D02*
X135450000Y-81901885D01*
X135450000Y-81901885D02*
X135621429Y-81844742D01*
X135621429Y-81844742D02*
X135735715Y-81844742D01*
X135735715Y-81844742D02*
X135907143Y-81901885D01*
X135907143Y-81901885D02*
X135964286Y-81959028D01*
X136478572Y-83044742D02*
X136478572Y-82244742D01*
X136478572Y-81844742D02*
X136421429Y-81901885D01*
X136421429Y-81901885D02*
X136478572Y-81959028D01*
X136478572Y-81959028D02*
X136535715Y-81901885D01*
X136535715Y-81901885D02*
X136478572Y-81844742D01*
X136478572Y-81844742D02*
X136478572Y-81959028D01*
X137050001Y-83044742D02*
X137050001Y-82244742D01*
X137050001Y-82473314D02*
X137107144Y-82359028D01*
X137107144Y-82359028D02*
X137164287Y-82301885D01*
X137164287Y-82301885D02*
X137278572Y-82244742D01*
X137278572Y-82244742D02*
X137392858Y-82244742D01*
X138307144Y-82987600D02*
X138192858Y-83044742D01*
X138192858Y-83044742D02*
X137964286Y-83044742D01*
X137964286Y-83044742D02*
X137850001Y-82987600D01*
X137850001Y-82987600D02*
X137792858Y-82930457D01*
X137792858Y-82930457D02*
X137735715Y-82816171D01*
X137735715Y-82816171D02*
X137735715Y-82473314D01*
X137735715Y-82473314D02*
X137792858Y-82359028D01*
X137792858Y-82359028D02*
X137850001Y-82301885D01*
X137850001Y-82301885D02*
X137964286Y-82244742D01*
X137964286Y-82244742D02*
X138192858Y-82244742D01*
X138192858Y-82244742D02*
X138307144Y-82301885D01*
X139335715Y-82244742D02*
X139335715Y-83044742D01*
X138821429Y-82244742D02*
X138821429Y-82873314D01*
X138821429Y-82873314D02*
X138878572Y-82987600D01*
X138878572Y-82987600D02*
X138992857Y-83044742D01*
X138992857Y-83044742D02*
X139164286Y-83044742D01*
X139164286Y-83044742D02*
X139278572Y-82987600D01*
X139278572Y-82987600D02*
X139335715Y-82930457D01*
X139792857Y-82244742D02*
X140078571Y-83044742D01*
X140078571Y-83044742D02*
X140364286Y-82244742D01*
X141278572Y-82987600D02*
X141164286Y-83044742D01*
X141164286Y-83044742D02*
X140935715Y-83044742D01*
X140935715Y-83044742D02*
X140821429Y-82987600D01*
X140821429Y-82987600D02*
X140764286Y-82873314D01*
X140764286Y-82873314D02*
X140764286Y-82416171D01*
X140764286Y-82416171D02*
X140821429Y-82301885D01*
X140821429Y-82301885D02*
X140935715Y-82244742D01*
X140935715Y-82244742D02*
X141164286Y-82244742D01*
X141164286Y-82244742D02*
X141278572Y-82301885D01*
X141278572Y-82301885D02*
X141335715Y-82416171D01*
X141335715Y-82416171D02*
X141335715Y-82530457D01*
X141335715Y-82530457D02*
X140764286Y-82644742D01*
X141850000Y-82244742D02*
X141850000Y-83044742D01*
X141850000Y-82359028D02*
X141907143Y-82301885D01*
X141907143Y-82301885D02*
X142021428Y-82244742D01*
X142021428Y-82244742D02*
X142192857Y-82244742D01*
X142192857Y-82244742D02*
X142307143Y-82301885D01*
X142307143Y-82301885D02*
X142364286Y-82416171D01*
X142364286Y-82416171D02*
X142364286Y-83044742D01*
X142764285Y-82244742D02*
X143221428Y-82244742D01*
X142935714Y-81844742D02*
X142935714Y-82873314D01*
X142935714Y-82873314D02*
X142992857Y-82987600D01*
X142992857Y-82987600D02*
X143107142Y-83044742D01*
X143107142Y-83044742D02*
X143221428Y-83044742D01*
X144478571Y-82987600D02*
X144650000Y-83044742D01*
X144650000Y-83044742D02*
X144935714Y-83044742D01*
X144935714Y-83044742D02*
X145050000Y-82987600D01*
X145050000Y-82987600D02*
X145107142Y-82930457D01*
X145107142Y-82930457D02*
X145164285Y-82816171D01*
X145164285Y-82816171D02*
X145164285Y-82701885D01*
X145164285Y-82701885D02*
X145107142Y-82587600D01*
X145107142Y-82587600D02*
X145050000Y-82530457D01*
X145050000Y-82530457D02*
X144935714Y-82473314D01*
X144935714Y-82473314D02*
X144707142Y-82416171D01*
X144707142Y-82416171D02*
X144592857Y-82359028D01*
X144592857Y-82359028D02*
X144535714Y-82301885D01*
X144535714Y-82301885D02*
X144478571Y-82187600D01*
X144478571Y-82187600D02*
X144478571Y-82073314D01*
X144478571Y-82073314D02*
X144535714Y-81959028D01*
X144535714Y-81959028D02*
X144592857Y-81901885D01*
X144592857Y-81901885D02*
X144707142Y-81844742D01*
X144707142Y-81844742D02*
X144992857Y-81844742D01*
X144992857Y-81844742D02*
X145164285Y-81901885D01*
X145678571Y-83044742D02*
X145678571Y-82244742D01*
X145678571Y-82359028D02*
X145735714Y-82301885D01*
X145735714Y-82301885D02*
X145849999Y-82244742D01*
X145849999Y-82244742D02*
X146021428Y-82244742D01*
X146021428Y-82244742D02*
X146135714Y-82301885D01*
X146135714Y-82301885D02*
X146192857Y-82416171D01*
X146192857Y-82416171D02*
X146192857Y-83044742D01*
X146192857Y-82416171D02*
X146249999Y-82301885D01*
X146249999Y-82301885D02*
X146364285Y-82244742D01*
X146364285Y-82244742D02*
X146535714Y-82244742D01*
X146535714Y-82244742D02*
X146649999Y-82301885D01*
X146649999Y-82301885D02*
X146707142Y-82416171D01*
X146707142Y-82416171D02*
X146707142Y-83044742D01*
X147792857Y-83044742D02*
X147792857Y-82416171D01*
X147792857Y-82416171D02*
X147735714Y-82301885D01*
X147735714Y-82301885D02*
X147621428Y-82244742D01*
X147621428Y-82244742D02*
X147392857Y-82244742D01*
X147392857Y-82244742D02*
X147278571Y-82301885D01*
X147792857Y-82987600D02*
X147678571Y-83044742D01*
X147678571Y-83044742D02*
X147392857Y-83044742D01*
X147392857Y-83044742D02*
X147278571Y-82987600D01*
X147278571Y-82987600D02*
X147221428Y-82873314D01*
X147221428Y-82873314D02*
X147221428Y-82759028D01*
X147221428Y-82759028D02*
X147278571Y-82644742D01*
X147278571Y-82644742D02*
X147392857Y-82587600D01*
X147392857Y-82587600D02*
X147678571Y-82587600D01*
X147678571Y-82587600D02*
X147792857Y-82530457D01*
X148364285Y-83044742D02*
X148364285Y-82244742D01*
X148364285Y-82473314D02*
X148421428Y-82359028D01*
X148421428Y-82359028D02*
X148478571Y-82301885D01*
X148478571Y-82301885D02*
X148592856Y-82244742D01*
X148592856Y-82244742D02*
X148707142Y-82244742D01*
X148935713Y-82244742D02*
X149392856Y-82244742D01*
X149107142Y-81844742D02*
X149107142Y-82873314D01*
X149107142Y-82873314D02*
X149164285Y-82987600D01*
X149164285Y-82987600D02*
X149278570Y-83044742D01*
X149278570Y-83044742D02*
X149392856Y-83044742D01*
X151278570Y-83044742D02*
X150707142Y-83044742D01*
X150707142Y-83044742D02*
X150707142Y-81844742D01*
X151678571Y-83044742D02*
X151678571Y-82244742D01*
X151678571Y-81844742D02*
X151621428Y-81901885D01*
X151621428Y-81901885D02*
X151678571Y-81959028D01*
X151678571Y-81959028D02*
X151735714Y-81901885D01*
X151735714Y-81901885D02*
X151678571Y-81844742D01*
X151678571Y-81844742D02*
X151678571Y-81959028D01*
X152764286Y-82244742D02*
X152764286Y-83216171D01*
X152764286Y-83216171D02*
X152707143Y-83330457D01*
X152707143Y-83330457D02*
X152650000Y-83387600D01*
X152650000Y-83387600D02*
X152535714Y-83444742D01*
X152535714Y-83444742D02*
X152364286Y-83444742D01*
X152364286Y-83444742D02*
X152250000Y-83387600D01*
X152764286Y-82987600D02*
X152650000Y-83044742D01*
X152650000Y-83044742D02*
X152421428Y-83044742D01*
X152421428Y-83044742D02*
X152307143Y-82987600D01*
X152307143Y-82987600D02*
X152250000Y-82930457D01*
X152250000Y-82930457D02*
X152192857Y-82816171D01*
X152192857Y-82816171D02*
X152192857Y-82473314D01*
X152192857Y-82473314D02*
X152250000Y-82359028D01*
X152250000Y-82359028D02*
X152307143Y-82301885D01*
X152307143Y-82301885D02*
X152421428Y-82244742D01*
X152421428Y-82244742D02*
X152650000Y-82244742D01*
X152650000Y-82244742D02*
X152764286Y-82301885D01*
X153335714Y-83044742D02*
X153335714Y-81844742D01*
X153850000Y-83044742D02*
X153850000Y-82416171D01*
X153850000Y-82416171D02*
X153792857Y-82301885D01*
X153792857Y-82301885D02*
X153678571Y-82244742D01*
X153678571Y-82244742D02*
X153507142Y-82244742D01*
X153507142Y-82244742D02*
X153392857Y-82301885D01*
X153392857Y-82301885D02*
X153335714Y-82359028D01*
X154249999Y-82244742D02*
X154707142Y-82244742D01*
X154421428Y-81844742D02*
X154421428Y-82873314D01*
X154421428Y-82873314D02*
X154478571Y-82987600D01*
X154478571Y-82987600D02*
X154592856Y-83044742D01*
X154592856Y-83044742D02*
X154707142Y-83044742D01*
X156707142Y-83044742D02*
X156307142Y-82473314D01*
X156021428Y-83044742D02*
X156021428Y-81844742D01*
X156021428Y-81844742D02*
X156478571Y-81844742D01*
X156478571Y-81844742D02*
X156592856Y-81901885D01*
X156592856Y-81901885D02*
X156649999Y-81959028D01*
X156649999Y-81959028D02*
X156707142Y-82073314D01*
X156707142Y-82073314D02*
X156707142Y-82244742D01*
X156707142Y-82244742D02*
X156649999Y-82359028D01*
X156649999Y-82359028D02*
X156592856Y-82416171D01*
X156592856Y-82416171D02*
X156478571Y-82473314D01*
X156478571Y-82473314D02*
X156021428Y-82473314D01*
X157849999Y-81901885D02*
X157735714Y-81844742D01*
X157735714Y-81844742D02*
X157564285Y-81844742D01*
X157564285Y-81844742D02*
X157392856Y-81901885D01*
X157392856Y-81901885D02*
X157278571Y-82016171D01*
X157278571Y-82016171D02*
X157221428Y-82130457D01*
X157221428Y-82130457D02*
X157164285Y-82359028D01*
X157164285Y-82359028D02*
X157164285Y-82530457D01*
X157164285Y-82530457D02*
X157221428Y-82759028D01*
X157221428Y-82759028D02*
X157278571Y-82873314D01*
X157278571Y-82873314D02*
X157392856Y-82987600D01*
X157392856Y-82987600D02*
X157564285Y-83044742D01*
X157564285Y-83044742D02*
X157678571Y-83044742D01*
X157678571Y-83044742D02*
X157849999Y-82987600D01*
X157849999Y-82987600D02*
X157907142Y-82930457D01*
X157907142Y-82930457D02*
X157907142Y-82530457D01*
X157907142Y-82530457D02*
X157678571Y-82530457D01*
X158821428Y-82416171D02*
X158992856Y-82473314D01*
X158992856Y-82473314D02*
X159049999Y-82530457D01*
X159049999Y-82530457D02*
X159107142Y-82644742D01*
X159107142Y-82644742D02*
X159107142Y-82816171D01*
X159107142Y-82816171D02*
X159049999Y-82930457D01*
X159049999Y-82930457D02*
X158992856Y-82987600D01*
X158992856Y-82987600D02*
X158878571Y-83044742D01*
X158878571Y-83044742D02*
X158421428Y-83044742D01*
X158421428Y-83044742D02*
X158421428Y-81844742D01*
X158421428Y-81844742D02*
X158821428Y-81844742D01*
X158821428Y-81844742D02*
X158935714Y-81901885D01*
X158935714Y-81901885D02*
X158992856Y-81959028D01*
X158992856Y-81959028D02*
X159049999Y-82073314D01*
X159049999Y-82073314D02*
X159049999Y-82187600D01*
X159049999Y-82187600D02*
X158992856Y-82301885D01*
X158992856Y-82301885D02*
X158935714Y-82359028D01*
X158935714Y-82359028D02*
X158821428Y-82416171D01*
X158821428Y-82416171D02*
X158421428Y-82416171D01*
X159507142Y-81844742D02*
X159792856Y-83044742D01*
X159792856Y-83044742D02*
X160021428Y-82187600D01*
X160021428Y-82187600D02*
X160249999Y-83044742D01*
X160249999Y-83044742D02*
X160535714Y-81844742D01*
D10*
X151809819Y-111966904D02*
X150809819Y-111966904D01*
X151809819Y-111395476D02*
X151238390Y-111824047D01*
X150809819Y-111395476D02*
X151381247Y-111966904D01*
%TO.C,PC1*%
D12*
X183125000Y-90505000D02*
X183125000Y-92155000D01*
X183125000Y-94155000D02*
X183125000Y-95805000D01*
X183125000Y-95805000D02*
X188325000Y-95805000D01*
X188325000Y-90505000D02*
X183125000Y-90505000D01*
X188325000Y-95805000D02*
X188325000Y-90505000D01*
X183125000Y-92155000D02*
G75*
G02*
X183125000Y-94155000I0J-1000000D01*
G01*
%TO.C,C3*%
X143863559Y-101756000D02*
X144493559Y-101756000D01*
X144178559Y-101441000D02*
X144178559Y-102071000D01*
X147363800Y-100365000D02*
X147363800Y-106825000D01*
X147403800Y-100365000D02*
X147403800Y-106825000D01*
X147443800Y-100366000D02*
X147443800Y-106824000D01*
X147483800Y-100367000D02*
X147483800Y-106823000D01*
X147523800Y-100369000D02*
X147523800Y-106821000D01*
X147563800Y-100371000D02*
X147563800Y-106819000D01*
X147603800Y-100374000D02*
X147603800Y-102555000D01*
X147603800Y-104635000D02*
X147603800Y-106816000D01*
X147643800Y-100377000D02*
X147643800Y-102555000D01*
X147643800Y-104635000D02*
X147643800Y-106813000D01*
X147683800Y-100381000D02*
X147683800Y-102555000D01*
X147683800Y-104635000D02*
X147683800Y-106809000D01*
X147723800Y-100385000D02*
X147723800Y-102555000D01*
X147723800Y-104635000D02*
X147723800Y-106805000D01*
X147763800Y-100390000D02*
X147763800Y-102555000D01*
X147763800Y-104635000D02*
X147763800Y-106800000D01*
X147803800Y-100395000D02*
X147803800Y-102555000D01*
X147803800Y-104635000D02*
X147803800Y-106795000D01*
X147843800Y-100400000D02*
X147843800Y-102555000D01*
X147843800Y-104635000D02*
X147843800Y-106790000D01*
X147883800Y-100407000D02*
X147883800Y-102555000D01*
X147883800Y-104635000D02*
X147883800Y-106783000D01*
X147923800Y-100413000D02*
X147923800Y-102555000D01*
X147923800Y-104635000D02*
X147923800Y-106777000D01*
X147963800Y-100421000D02*
X147963800Y-102555000D01*
X147963800Y-104635000D02*
X147963800Y-106769000D01*
X148003800Y-100428000D02*
X148003800Y-102555000D01*
X148003800Y-104635000D02*
X148003800Y-106762000D01*
X148043800Y-100436000D02*
X148043800Y-102555000D01*
X148043800Y-104635000D02*
X148043800Y-106754000D01*
X148083800Y-100445000D02*
X148083800Y-102555000D01*
X148083800Y-104635000D02*
X148083800Y-106745000D01*
X148123800Y-100455000D02*
X148123800Y-102555000D01*
X148123800Y-104635000D02*
X148123800Y-106735000D01*
X148163800Y-100464000D02*
X148163800Y-102555000D01*
X148163800Y-104635000D02*
X148163800Y-106726000D01*
X148203800Y-100475000D02*
X148203800Y-102555000D01*
X148203800Y-104635000D02*
X148203800Y-106715000D01*
X148243800Y-100486000D02*
X148243800Y-102555000D01*
X148243800Y-104635000D02*
X148243800Y-106704000D01*
X148283800Y-100497000D02*
X148283800Y-102555000D01*
X148283800Y-104635000D02*
X148283800Y-106693000D01*
X148323800Y-100509000D02*
X148323800Y-102555000D01*
X148323800Y-104635000D02*
X148323800Y-106681000D01*
X148363800Y-100522000D02*
X148363800Y-102555000D01*
X148363800Y-104635000D02*
X148363800Y-106668000D01*
X148403800Y-100535000D02*
X148403800Y-102555000D01*
X148403800Y-104635000D02*
X148403800Y-106655000D01*
X148443800Y-100548000D02*
X148443800Y-102555000D01*
X148443800Y-104635000D02*
X148443800Y-106642000D01*
X148483800Y-100563000D02*
X148483800Y-102555000D01*
X148483800Y-104635000D02*
X148483800Y-106627000D01*
X148523800Y-100578000D02*
X148523800Y-102555000D01*
X148523800Y-104635000D02*
X148523800Y-106612000D01*
X148563800Y-100593000D02*
X148563800Y-102555000D01*
X148563800Y-104635000D02*
X148563800Y-106597000D01*
X148603800Y-100609000D02*
X148603800Y-102555000D01*
X148603800Y-104635000D02*
X148603800Y-106581000D01*
X148643800Y-100626000D02*
X148643800Y-102555000D01*
X148643800Y-104635000D02*
X148643800Y-106564000D01*
X148683800Y-100643000D02*
X148683800Y-102555000D01*
X148683800Y-104635000D02*
X148683800Y-106547000D01*
X148723800Y-100661000D02*
X148723800Y-102555000D01*
X148723800Y-104635000D02*
X148723800Y-106529000D01*
X148763800Y-100680000D02*
X148763800Y-102555000D01*
X148763800Y-104635000D02*
X148763800Y-106510000D01*
X148803800Y-100699000D02*
X148803800Y-102555000D01*
X148803800Y-104635000D02*
X148803800Y-106491000D01*
X148843800Y-100719000D02*
X148843800Y-102555000D01*
X148843800Y-104635000D02*
X148843800Y-106471000D01*
X148883800Y-100740000D02*
X148883800Y-102555000D01*
X148883800Y-104635000D02*
X148883800Y-106450000D01*
X148923800Y-100761000D02*
X148923800Y-102555000D01*
X148923800Y-104635000D02*
X148923800Y-106429000D01*
X148963800Y-100783000D02*
X148963800Y-102555000D01*
X148963800Y-104635000D02*
X148963800Y-106407000D01*
X149003800Y-100806000D02*
X149003800Y-102555000D01*
X149003800Y-104635000D02*
X149003800Y-106384000D01*
X149043800Y-100830000D02*
X149043800Y-102555000D01*
X149043800Y-104635000D02*
X149043800Y-106360000D01*
X149083800Y-100854000D02*
X149083800Y-102555000D01*
X149083800Y-104635000D02*
X149083800Y-106336000D01*
X149123800Y-100879000D02*
X149123800Y-102555000D01*
X149123800Y-104635000D02*
X149123800Y-106311000D01*
X149163800Y-100905000D02*
X149163800Y-102555000D01*
X149163800Y-104635000D02*
X149163800Y-106285000D01*
X149203800Y-100932000D02*
X149203800Y-102555000D01*
X149203800Y-104635000D02*
X149203800Y-106258000D01*
X149243800Y-100959000D02*
X149243800Y-102555000D01*
X149243800Y-104635000D02*
X149243800Y-106231000D01*
X149283800Y-100988000D02*
X149283800Y-102555000D01*
X149283800Y-104635000D02*
X149283800Y-106202000D01*
X149323800Y-101018000D02*
X149323800Y-102555000D01*
X149323800Y-104635000D02*
X149323800Y-106172000D01*
X149363800Y-101048000D02*
X149363800Y-102555000D01*
X149363800Y-104635000D02*
X149363800Y-106142000D01*
X149403800Y-101079000D02*
X149403800Y-102555000D01*
X149403800Y-104635000D02*
X149403800Y-106111000D01*
X149443800Y-101112000D02*
X149443800Y-102555000D01*
X149443800Y-104635000D02*
X149443800Y-106078000D01*
X149483800Y-101145000D02*
X149483800Y-102555000D01*
X149483800Y-104635000D02*
X149483800Y-106045000D01*
X149523800Y-101180000D02*
X149523800Y-102555000D01*
X149523800Y-104635000D02*
X149523800Y-106010000D01*
X149563800Y-101216000D02*
X149563800Y-102555000D01*
X149563800Y-104635000D02*
X149563800Y-105974000D01*
X149603800Y-101253000D02*
X149603800Y-102555000D01*
X149603800Y-104635000D02*
X149603800Y-105937000D01*
X149643800Y-101291000D02*
X149643800Y-102555000D01*
X149643800Y-104635000D02*
X149643800Y-105899000D01*
X149683800Y-101331000D02*
X149683800Y-105859000D01*
X149723800Y-101372000D02*
X149723800Y-105818000D01*
X149763800Y-101414000D02*
X149763800Y-105776000D01*
X149803800Y-101458000D02*
X149803800Y-105732000D01*
X149843800Y-101504000D02*
X149843800Y-105686000D01*
X149883800Y-101551000D02*
X149883800Y-105639000D01*
X149923800Y-101600000D02*
X149923800Y-105590000D01*
X149963800Y-101652000D02*
X149963800Y-105538000D01*
X150003800Y-101705000D02*
X150003800Y-105485000D01*
X150043800Y-101761000D02*
X150043800Y-105429000D01*
X150083800Y-101820000D02*
X150083800Y-105370000D01*
X150123800Y-101881000D02*
X150123800Y-105309000D01*
X150163800Y-101946000D02*
X150163800Y-105244000D01*
X150203800Y-102014000D02*
X150203800Y-105176000D01*
X150243800Y-102086000D02*
X150243800Y-105104000D01*
X150283800Y-102163000D02*
X150283800Y-105027000D01*
X150323800Y-102245000D02*
X150323800Y-104945000D01*
X150363800Y-102334000D02*
X150363800Y-104856000D01*
X150403800Y-102430000D02*
X150403800Y-104760000D01*
X150443800Y-102537000D02*
X150443800Y-104653000D01*
X150483800Y-102656000D02*
X150483800Y-104534000D01*
X150523800Y-102794000D02*
X150523800Y-104396000D01*
X150563800Y-102962000D02*
X150563800Y-104228000D01*
X150603800Y-103193000D02*
X150603800Y-103997000D01*
X150633800Y-103595000D02*
G75*
G02*
X144093800Y-103595000I-3270000J0D01*
G01*
X144093800Y-103595000D02*
G75*
G02*
X150633800Y-103595000I3270000J0D01*
G01*
%TO.C,Q1*%
X172485000Y-97025000D02*
X177105000Y-97025000D01*
X172485000Y-100285000D02*
X173865000Y-100285000D01*
X172485000Y-103985000D02*
X173865000Y-103985000D01*
X172485000Y-107245000D02*
X172485000Y-97025000D01*
X173865000Y-107245000D02*
X173865000Y-97025000D01*
X177105000Y-97025000D02*
X177105000Y-107245000D01*
X177105000Y-107245000D02*
X172485000Y-107245000D01*
%TO.C,TP3*%
X149145300Y-143400000D02*
G75*
G02*
X147245300Y-143400000I-950000J0D01*
G01*
X147245300Y-143400000D02*
G75*
G02*
X149145300Y-143400000I950000J0D01*
G01*
%TO.C,J2*%
X136955000Y-88685000D02*
X147195000Y-88685000D01*
X136955000Y-91705000D02*
X147195000Y-91705000D01*
X136955000Y-96605000D02*
X147195000Y-96605000D01*
X136955000Y-98105000D02*
X147195000Y-98105000D01*
X136955000Y-98725000D02*
X136955000Y-88685000D01*
X139275000Y-98725000D02*
X136955000Y-98725000D01*
X147195000Y-88685000D02*
X147195000Y-98725000D01*
X147195000Y-98725000D02*
X139875000Y-98725000D01*
X139575000Y-98725000D02*
X140015000Y-99335000D01*
X139135000Y-99335000D01*
X139575000Y-98725000D01*
G36*
X140015000Y-99335000D02*
G01*
X139135000Y-99335000D01*
X139575000Y-98725000D01*
X140015000Y-99335000D01*
G37*
%TO.C,J3*%
X149045000Y-88685000D02*
X159285000Y-88685000D01*
X149045000Y-91705000D02*
X159285000Y-91705000D01*
X149045000Y-96605000D02*
X159285000Y-96605000D01*
X149045000Y-98105000D02*
X159285000Y-98105000D01*
X149045000Y-98725000D02*
X149045000Y-88685000D01*
X151365000Y-98725000D02*
X149045000Y-98725000D01*
X159285000Y-88685000D02*
X159285000Y-98725000D01*
X159285000Y-98725000D02*
X151965000Y-98725000D01*
X151665000Y-98725000D02*
X152105000Y-99335000D01*
X151225000Y-99335000D01*
X151665000Y-98725000D01*
G36*
X152105000Y-99335000D02*
G01*
X151225000Y-99335000D01*
X151665000Y-98725000D01*
X152105000Y-99335000D01*
G37*
%TO.C,Q4*%
X124625000Y-100335000D02*
X134845000Y-100335000D01*
X124625000Y-101715000D02*
X134845000Y-101715000D01*
X124625000Y-104955000D02*
X124625000Y-100335000D01*
X127885000Y-100335000D02*
X127885000Y-101715000D01*
X131585000Y-100335000D02*
X131585000Y-101715000D01*
X134845000Y-100335000D02*
X134845000Y-104955000D01*
X134845000Y-104955000D02*
X124625000Y-104955000D01*
%TO.C,D1*%
X151985000Y-108325000D02*
X154925000Y-108325000D01*
X151985000Y-108445000D02*
X154925000Y-108445000D01*
X151985000Y-108565000D02*
X154925000Y-108565000D01*
X153455000Y-102885000D02*
X153455000Y-103905000D01*
X153455000Y-110365000D02*
X153455000Y-109345000D01*
X151985000Y-103905000D02*
X154925000Y-103905000D01*
X154925000Y-109345000D01*
X151985000Y-109345000D01*
X151985000Y-103905000D01*
%TO.C,LED0*%
X188569000Y-109085000D02*
X188725000Y-109085000D01*
X190885000Y-109085000D02*
X191041000Y-109085000D01*
X188569484Y-109085000D02*
G75*
G02*
X188725000Y-105853563I1235516J1560000D01*
G01*
X188725000Y-108565961D02*
G75*
G02*
X188725000Y-106484039I1080000J1040961D01*
G01*
X190885000Y-105853563D02*
G75*
G02*
X191040516Y-109085000I-1080000J-1671437D01*
G01*
X190885000Y-106484039D02*
G75*
G02*
X190885000Y-108565961I-1080000J-1040961D01*
G01*
%TO.C,U2*%
X105845000Y-105475000D02*
X109605000Y-105475000D01*
X105845000Y-112295000D02*
X109605000Y-112295000D01*
X109605000Y-105475000D02*
X109605000Y-106735000D01*
X109605000Y-112295000D02*
X109605000Y-111035000D01*
X104565000Y-105575000D02*
X104325000Y-105245000D01*
X104805000Y-105245000D01*
X104565000Y-105575000D01*
G36*
X104565000Y-105575000D02*
G01*
X104325000Y-105245000D01*
X104805000Y-105245000D01*
X104565000Y-105575000D01*
G37*
%TO.C,C1*%
X160524154Y-90670000D02*
X161524154Y-90670000D01*
X161024154Y-90170000D02*
X161024154Y-91170000D01*
X166003800Y-88465000D02*
X166003800Y-98625000D01*
X166043800Y-88465000D02*
X166043800Y-98625000D01*
X166083800Y-88466000D02*
X166083800Y-98624000D01*
X166123800Y-88466000D02*
X166123800Y-98624000D01*
X166163800Y-88468000D02*
X166163800Y-98622000D01*
X166203800Y-88469000D02*
X166203800Y-98621000D01*
X166243800Y-88471000D02*
X166243800Y-98619000D01*
X166283800Y-88473000D02*
X166283800Y-98617000D01*
X166323800Y-88475000D02*
X166323800Y-98615000D01*
X166363800Y-88478000D02*
X166363800Y-98612000D01*
X166403800Y-88481000D02*
X166403800Y-98609000D01*
X166443800Y-88484000D02*
X166443800Y-98606000D01*
X166483800Y-88488000D02*
X166483800Y-98602000D01*
X166523800Y-88491000D02*
X166523800Y-98599000D01*
X166563800Y-88496000D02*
X166563800Y-98594000D01*
X166603800Y-88500000D02*
X166603800Y-98590000D01*
X166643800Y-88505000D02*
X166643800Y-98585000D01*
X166683800Y-88510000D02*
X166683800Y-98580000D01*
X166723800Y-88516000D02*
X166723800Y-98574000D01*
X166763800Y-88522000D02*
X166763800Y-98568000D01*
X166803800Y-88528000D02*
X166803800Y-98562000D01*
X166843800Y-88534000D02*
X166843800Y-98556000D01*
X166883800Y-88541000D02*
X166883800Y-98549000D01*
X166923800Y-88548000D02*
X166923800Y-98542000D01*
X166963800Y-88556000D02*
X166963800Y-98534000D01*
X167003800Y-88564000D02*
X167003800Y-98526000D01*
X167043800Y-88572000D02*
X167043800Y-98518000D01*
X167083800Y-88580000D02*
X167083800Y-98510000D01*
X167123800Y-88589000D02*
X167123800Y-98501000D01*
X167163800Y-88598000D02*
X167163800Y-98492000D01*
X167203800Y-88608000D02*
X167203800Y-98482000D01*
X167243800Y-88617000D02*
X167243800Y-98473000D01*
X167283800Y-88628000D02*
X167283800Y-92305000D01*
X167283800Y-94785000D02*
X167283800Y-98462000D01*
X167323800Y-88638000D02*
X167323800Y-92305000D01*
X167323800Y-94785000D02*
X167323800Y-98452000D01*
X167363800Y-88649000D02*
X167363800Y-92305000D01*
X167363800Y-94785000D02*
X167363800Y-98441000D01*
X167403800Y-88660000D02*
X167403800Y-92305000D01*
X167403800Y-94785000D02*
X167403800Y-98430000D01*
X167443800Y-88672000D02*
X167443800Y-92305000D01*
X167443800Y-94785000D02*
X167443800Y-98418000D01*
X167483800Y-88684000D02*
X167483800Y-92305000D01*
X167483800Y-94785000D02*
X167483800Y-98406000D01*
X167523800Y-88696000D02*
X167523800Y-92305000D01*
X167523800Y-94785000D02*
X167523800Y-98394000D01*
X167563800Y-88708000D02*
X167563800Y-92305000D01*
X167563800Y-94785000D02*
X167563800Y-98382000D01*
X167603800Y-88721000D02*
X167603800Y-92305000D01*
X167603800Y-94785000D02*
X167603800Y-98369000D01*
X167643800Y-88735000D02*
X167643800Y-92305000D01*
X167643800Y-94785000D02*
X167643800Y-98355000D01*
X167683800Y-88748000D02*
X167683800Y-92305000D01*
X167683800Y-94785000D02*
X167683800Y-98342000D01*
X167723800Y-88763000D02*
X167723800Y-92305000D01*
X167723800Y-94785000D02*
X167723800Y-98327000D01*
X167763800Y-88777000D02*
X167763800Y-92305000D01*
X167763800Y-94785000D02*
X167763800Y-98313000D01*
X167803800Y-88792000D02*
X167803800Y-92305000D01*
X167803800Y-94785000D02*
X167803800Y-98298000D01*
X167843800Y-88807000D02*
X167843800Y-92305000D01*
X167843800Y-94785000D02*
X167843800Y-98283000D01*
X167883800Y-88823000D02*
X167883800Y-92305000D01*
X167883800Y-94785000D02*
X167883800Y-98267000D01*
X167923800Y-88839000D02*
X167923800Y-92305000D01*
X167923800Y-94785000D02*
X167923800Y-98251000D01*
X167963800Y-88855000D02*
X167963800Y-92305000D01*
X167963800Y-94785000D02*
X167963800Y-98235000D01*
X168003800Y-88872000D02*
X168003800Y-92305000D01*
X168003800Y-94785000D02*
X168003800Y-98218000D01*
X168043800Y-88889000D02*
X168043800Y-92305000D01*
X168043800Y-94785000D02*
X168043800Y-98201000D01*
X168083800Y-88907000D02*
X168083800Y-92305000D01*
X168083800Y-94785000D02*
X168083800Y-98183000D01*
X168123800Y-88925000D02*
X168123800Y-92305000D01*
X168123800Y-94785000D02*
X168123800Y-98165000D01*
X168163800Y-88943000D02*
X168163800Y-92305000D01*
X168163800Y-94785000D02*
X168163800Y-98147000D01*
X168203800Y-88962000D02*
X168203800Y-92305000D01*
X168203800Y-94785000D02*
X168203800Y-98128000D01*
X168243800Y-88981000D02*
X168243800Y-92305000D01*
X168243800Y-94785000D02*
X168243800Y-98109000D01*
X168283800Y-89001000D02*
X168283800Y-92305000D01*
X168283800Y-94785000D02*
X168283800Y-98089000D01*
X168323800Y-89021000D02*
X168323800Y-92305000D01*
X168323800Y-94785000D02*
X168323800Y-98069000D01*
X168363800Y-89041000D02*
X168363800Y-92305000D01*
X168363800Y-94785000D02*
X168363800Y-98049000D01*
X168403800Y-89062000D02*
X168403800Y-92305000D01*
X168403800Y-94785000D02*
X168403800Y-98028000D01*
X168443800Y-89084000D02*
X168443800Y-92305000D01*
X168443800Y-94785000D02*
X168443800Y-98006000D01*
X168483800Y-89106000D02*
X168483800Y-92305000D01*
X168483800Y-94785000D02*
X168483800Y-97984000D01*
X168523800Y-89128000D02*
X168523800Y-92305000D01*
X168523800Y-94785000D02*
X168523800Y-97962000D01*
X168563800Y-89151000D02*
X168563800Y-92305000D01*
X168563800Y-94785000D02*
X168563800Y-97939000D01*
X168603800Y-89174000D02*
X168603800Y-92305000D01*
X168603800Y-94785000D02*
X168603800Y-97916000D01*
X168643800Y-89198000D02*
X168643800Y-92305000D01*
X168643800Y-94785000D02*
X168643800Y-97892000D01*
X168683800Y-89222000D02*
X168683800Y-92305000D01*
X168683800Y-94785000D02*
X168683800Y-97868000D01*
X168723800Y-89247000D02*
X168723800Y-92305000D01*
X168723800Y-94785000D02*
X168723800Y-97843000D01*
X168763800Y-89273000D02*
X168763800Y-92305000D01*
X168763800Y-94785000D02*
X168763800Y-97817000D01*
X168803800Y-89298000D02*
X168803800Y-92305000D01*
X168803800Y-94785000D02*
X168803800Y-97792000D01*
X168843800Y-89325000D02*
X168843800Y-92305000D01*
X168843800Y-94785000D02*
X168843800Y-97765000D01*
X168883800Y-89352000D02*
X168883800Y-92305000D01*
X168883800Y-94785000D02*
X168883800Y-97738000D01*
X168923800Y-89379000D02*
X168923800Y-92305000D01*
X168923800Y-94785000D02*
X168923800Y-97711000D01*
X168963800Y-89407000D02*
X168963800Y-92305000D01*
X168963800Y-94785000D02*
X168963800Y-97683000D01*
X169003800Y-89436000D02*
X169003800Y-92305000D01*
X169003800Y-94785000D02*
X169003800Y-97654000D01*
X169043800Y-89465000D02*
X169043800Y-92305000D01*
X169043800Y-94785000D02*
X169043800Y-97625000D01*
X169083800Y-89495000D02*
X169083800Y-92305000D01*
X169083800Y-94785000D02*
X169083800Y-97595000D01*
X169123800Y-89525000D02*
X169123800Y-92305000D01*
X169123800Y-94785000D02*
X169123800Y-97565000D01*
X169163800Y-89557000D02*
X169163800Y-92305000D01*
X169163800Y-94785000D02*
X169163800Y-97533000D01*
X169203800Y-89588000D02*
X169203800Y-92305000D01*
X169203800Y-94785000D02*
X169203800Y-97502000D01*
X169243800Y-89621000D02*
X169243800Y-92305000D01*
X169243800Y-94785000D02*
X169243800Y-97469000D01*
X169283800Y-89654000D02*
X169283800Y-92305000D01*
X169283800Y-94785000D02*
X169283800Y-97436000D01*
X169323800Y-89687000D02*
X169323800Y-92305000D01*
X169323800Y-94785000D02*
X169323800Y-97403000D01*
X169363800Y-89722000D02*
X169363800Y-92305000D01*
X169363800Y-94785000D02*
X169363800Y-97368000D01*
X169403800Y-89757000D02*
X169403800Y-92305000D01*
X169403800Y-94785000D02*
X169403800Y-97333000D01*
X169443800Y-89793000D02*
X169443800Y-92305000D01*
X169443800Y-94785000D02*
X169443800Y-97297000D01*
X169483800Y-89829000D02*
X169483800Y-92305000D01*
X169483800Y-94785000D02*
X169483800Y-97261000D01*
X169523800Y-89867000D02*
X169523800Y-92305000D01*
X169523800Y-94785000D02*
X169523800Y-97223000D01*
X169563800Y-89905000D02*
X169563800Y-92305000D01*
X169563800Y-94785000D02*
X169563800Y-97185000D01*
X169603800Y-89944000D02*
X169603800Y-92305000D01*
X169603800Y-94785000D02*
X169603800Y-97146000D01*
X169643800Y-89984000D02*
X169643800Y-92305000D01*
X169643800Y-94785000D02*
X169643800Y-97106000D01*
X169683800Y-90025000D02*
X169683800Y-92305000D01*
X169683800Y-94785000D02*
X169683800Y-97065000D01*
X169723800Y-90067000D02*
X169723800Y-92305000D01*
X169723800Y-94785000D02*
X169723800Y-97023000D01*
X169763800Y-90110000D02*
X169763800Y-96980000D01*
X169803800Y-90154000D02*
X169803800Y-96936000D01*
X169843800Y-90198000D02*
X169843800Y-96892000D01*
X169883800Y-90244000D02*
X169883800Y-96846000D01*
X169923800Y-90291000D02*
X169923800Y-96799000D01*
X169963800Y-90340000D02*
X169963800Y-96750000D01*
X170003800Y-90389000D02*
X170003800Y-96701000D01*
X170043800Y-90440000D02*
X170043800Y-96650000D01*
X170083800Y-90492000D02*
X170083800Y-96598000D01*
X170123800Y-90545000D02*
X170123800Y-96545000D01*
X170163800Y-90600000D02*
X170163800Y-96490000D01*
X170203800Y-90657000D02*
X170203800Y-96433000D01*
X170243800Y-90715000D02*
X170243800Y-96375000D01*
X170283800Y-90775000D02*
X170283800Y-96315000D01*
X170323800Y-90837000D02*
X170323800Y-96253000D01*
X170363800Y-90901000D02*
X170363800Y-96189000D01*
X170403800Y-90967000D02*
X170403800Y-96123000D01*
X170443800Y-91035000D02*
X170443800Y-96055000D01*
X170483800Y-91106000D02*
X170483800Y-95984000D01*
X170523800Y-91180000D02*
X170523800Y-95910000D01*
X170563800Y-91257000D02*
X170563800Y-95833000D01*
X170603800Y-91337000D02*
X170603800Y-95753000D01*
X170643800Y-91421000D02*
X170643800Y-95669000D01*
X170683800Y-91508000D02*
X170683800Y-95582000D01*
X170723800Y-91601000D02*
X170723800Y-95489000D01*
X170763800Y-91699000D02*
X170763800Y-95391000D01*
X170803800Y-91803000D02*
X170803800Y-95287000D01*
X170843800Y-91915000D02*
X170843800Y-95175000D01*
X170883800Y-92036000D02*
X170883800Y-95054000D01*
X170923800Y-92168000D02*
X170923800Y-94922000D01*
X170963800Y-92315000D02*
X170963800Y-94775000D01*
X171003800Y-92483000D02*
X171003800Y-94607000D01*
X171043800Y-92683000D02*
X171043800Y-94407000D01*
X171083800Y-92946000D02*
X171083800Y-94144000D01*
X171123800Y-93545000D02*
G75*
G02*
X160883800Y-93545000I-5120000J0D01*
G01*
X160883800Y-93545000D02*
G75*
G02*
X171123800Y-93545000I5120000J0D01*
G01*
%TO.C,J1*%
X124865000Y-88685000D02*
X135105000Y-88685000D01*
X124865000Y-91705000D02*
X135105000Y-91705000D01*
X124865000Y-96605000D02*
X135105000Y-96605000D01*
X124865000Y-98105000D02*
X135105000Y-98105000D01*
X124865000Y-98725000D02*
X124865000Y-88685000D01*
X127185000Y-98725000D02*
X124865000Y-98725000D01*
X135105000Y-88685000D02*
X135105000Y-98725000D01*
X135105000Y-98725000D02*
X127785000Y-98725000D01*
X127485000Y-98725000D02*
X127925000Y-99335000D01*
X127045000Y-99335000D01*
X127485000Y-98725000D01*
G36*
X127925000Y-99335000D02*
G01*
X127045000Y-99335000D01*
X127485000Y-98725000D01*
X127925000Y-99335000D01*
G37*
%TO.C,Q2*%
X178475000Y-99255000D02*
X188695000Y-99255000D01*
X178475000Y-100635000D02*
X188695000Y-100635000D01*
X178475000Y-103875000D02*
X178475000Y-99255000D01*
X181735000Y-99255000D02*
X181735000Y-100635000D01*
X185435000Y-99255000D02*
X185435000Y-100635000D01*
X188695000Y-99255000D02*
X188695000Y-103875000D01*
X188695000Y-103875000D02*
X178475000Y-103875000D01*
%TO.C,U3*%
X178725000Y-105495000D02*
X180105000Y-105495000D01*
X178725000Y-106875000D02*
X178725000Y-105495000D01*
X178725000Y-108145000D02*
X178725000Y-115875000D01*
X178725000Y-108145000D02*
X181485000Y-108145000D01*
X178725000Y-115875000D02*
X181485000Y-115875000D01*
X181485000Y-108145000D02*
X181485000Y-115875000D01*
%TO.C,Q3*%
X160895000Y-100025000D02*
X171115000Y-100025000D01*
X160895000Y-101405000D02*
X171115000Y-101405000D01*
X160895000Y-104645000D02*
X160895000Y-100025000D01*
X164155000Y-100025000D02*
X164155000Y-101405000D01*
X167855000Y-100025000D02*
X167855000Y-101405000D01*
X171115000Y-100025000D02*
X171115000Y-104645000D01*
X171115000Y-104645000D02*
X160895000Y-104645000D01*
%TO.C,JP*%
X183355000Y-105495000D02*
X184735000Y-105495000D01*
X183355000Y-106875000D02*
X183355000Y-105495000D01*
X183355000Y-108145000D02*
X183355000Y-113335000D01*
X183355000Y-108145000D02*
X186115000Y-108145000D01*
X183355000Y-113335000D02*
X186115000Y-113335000D01*
X186115000Y-108145000D02*
X186115000Y-113335000D01*
%TO.C,TP1*%
X141145300Y-143400000D02*
G75*
G02*
X139245300Y-143400000I-950000J0D01*
G01*
X139245300Y-143400000D02*
G75*
G02*
X141145300Y-143400000I950000J0D01*
G01*
%TO.C,SW1*%
X173595000Y-91295000D02*
X173595000Y-92795000D01*
X174845000Y-95295000D02*
X179345000Y-95295000D01*
X179345000Y-88795000D02*
X174845000Y-88795000D01*
X180595000Y-92795000D02*
X180595000Y-91295000D01*
%TO.C,TP2*%
X145145300Y-143400000D02*
G75*
G02*
X143245300Y-143400000I-950000J0D01*
G01*
X143245300Y-143400000D02*
G75*
G02*
X145145300Y-143400000I950000J0D01*
G01*
%TO.C,C2*%
X135973559Y-101756000D02*
X136603559Y-101756000D01*
X136288559Y-101441000D02*
X136288559Y-102071000D01*
X139473800Y-100365000D02*
X139473800Y-106825000D01*
X139513800Y-100365000D02*
X139513800Y-106825000D01*
X139553800Y-100366000D02*
X139553800Y-106824000D01*
X139593800Y-100367000D02*
X139593800Y-106823000D01*
X139633800Y-100369000D02*
X139633800Y-106821000D01*
X139673800Y-100371000D02*
X139673800Y-106819000D01*
X139713800Y-100374000D02*
X139713800Y-102555000D01*
X139713800Y-104635000D02*
X139713800Y-106816000D01*
X139753800Y-100377000D02*
X139753800Y-102555000D01*
X139753800Y-104635000D02*
X139753800Y-106813000D01*
X139793800Y-100381000D02*
X139793800Y-102555000D01*
X139793800Y-104635000D02*
X139793800Y-106809000D01*
X139833800Y-100385000D02*
X139833800Y-102555000D01*
X139833800Y-104635000D02*
X139833800Y-106805000D01*
X139873800Y-100390000D02*
X139873800Y-102555000D01*
X139873800Y-104635000D02*
X139873800Y-106800000D01*
X139913800Y-100395000D02*
X139913800Y-102555000D01*
X139913800Y-104635000D02*
X139913800Y-106795000D01*
X139953800Y-100400000D02*
X139953800Y-102555000D01*
X139953800Y-104635000D02*
X139953800Y-106790000D01*
X139993800Y-100407000D02*
X139993800Y-102555000D01*
X139993800Y-104635000D02*
X139993800Y-106783000D01*
X140033800Y-100413000D02*
X140033800Y-102555000D01*
X140033800Y-104635000D02*
X140033800Y-106777000D01*
X140073800Y-100421000D02*
X140073800Y-102555000D01*
X140073800Y-104635000D02*
X140073800Y-106769000D01*
X140113800Y-100428000D02*
X140113800Y-102555000D01*
X140113800Y-104635000D02*
X140113800Y-106762000D01*
X140153800Y-100436000D02*
X140153800Y-102555000D01*
X140153800Y-104635000D02*
X140153800Y-106754000D01*
X140193800Y-100445000D02*
X140193800Y-102555000D01*
X140193800Y-104635000D02*
X140193800Y-106745000D01*
X140233800Y-100455000D02*
X140233800Y-102555000D01*
X140233800Y-104635000D02*
X140233800Y-106735000D01*
X140273800Y-100464000D02*
X140273800Y-102555000D01*
X140273800Y-104635000D02*
X140273800Y-106726000D01*
X140313800Y-100475000D02*
X140313800Y-102555000D01*
X140313800Y-104635000D02*
X140313800Y-106715000D01*
X140353800Y-100486000D02*
X140353800Y-102555000D01*
X140353800Y-104635000D02*
X140353800Y-106704000D01*
X140393800Y-100497000D02*
X140393800Y-102555000D01*
X140393800Y-104635000D02*
X140393800Y-106693000D01*
X140433800Y-100509000D02*
X140433800Y-102555000D01*
X140433800Y-104635000D02*
X140433800Y-106681000D01*
X140473800Y-100522000D02*
X140473800Y-102555000D01*
X140473800Y-104635000D02*
X140473800Y-106668000D01*
X140513800Y-100535000D02*
X140513800Y-102555000D01*
X140513800Y-104635000D02*
X140513800Y-106655000D01*
X140553800Y-100548000D02*
X140553800Y-102555000D01*
X140553800Y-104635000D02*
X140553800Y-106642000D01*
X140593800Y-100563000D02*
X140593800Y-102555000D01*
X140593800Y-104635000D02*
X140593800Y-106627000D01*
X140633800Y-100578000D02*
X140633800Y-102555000D01*
X140633800Y-104635000D02*
X140633800Y-106612000D01*
X140673800Y-100593000D02*
X140673800Y-102555000D01*
X140673800Y-104635000D02*
X140673800Y-106597000D01*
X140713800Y-100609000D02*
X140713800Y-102555000D01*
X140713800Y-104635000D02*
X140713800Y-106581000D01*
X140753800Y-100626000D02*
X140753800Y-102555000D01*
X140753800Y-104635000D02*
X140753800Y-106564000D01*
X140793800Y-100643000D02*
X140793800Y-102555000D01*
X140793800Y-104635000D02*
X140793800Y-106547000D01*
X140833800Y-100661000D02*
X140833800Y-102555000D01*
X140833800Y-104635000D02*
X140833800Y-106529000D01*
X140873800Y-100680000D02*
X140873800Y-102555000D01*
X140873800Y-104635000D02*
X140873800Y-106510000D01*
X140913800Y-100699000D02*
X140913800Y-102555000D01*
X140913800Y-104635000D02*
X140913800Y-106491000D01*
X140953800Y-100719000D02*
X140953800Y-102555000D01*
X140953800Y-104635000D02*
X140953800Y-106471000D01*
X140993800Y-100740000D02*
X140993800Y-102555000D01*
X140993800Y-104635000D02*
X140993800Y-106450000D01*
X141033800Y-100761000D02*
X141033800Y-102555000D01*
X141033800Y-104635000D02*
X141033800Y-106429000D01*
X141073800Y-100783000D02*
X141073800Y-102555000D01*
X141073800Y-104635000D02*
X141073800Y-106407000D01*
X141113800Y-100806000D02*
X141113800Y-102555000D01*
X141113800Y-104635000D02*
X141113800Y-106384000D01*
X141153800Y-100830000D02*
X141153800Y-102555000D01*
X141153800Y-104635000D02*
X141153800Y-106360000D01*
X141193800Y-100854000D02*
X141193800Y-102555000D01*
X141193800Y-104635000D02*
X141193800Y-106336000D01*
X141233800Y-100879000D02*
X141233800Y-102555000D01*
X141233800Y-104635000D02*
X141233800Y-106311000D01*
X141273800Y-100905000D02*
X141273800Y-102555000D01*
X141273800Y-104635000D02*
X141273800Y-106285000D01*
X141313800Y-100932000D02*
X141313800Y-102555000D01*
X141313800Y-104635000D02*
X141313800Y-106258000D01*
X141353800Y-100959000D02*
X141353800Y-102555000D01*
X141353800Y-104635000D02*
X141353800Y-106231000D01*
X141393800Y-100988000D02*
X141393800Y-102555000D01*
X141393800Y-104635000D02*
X141393800Y-106202000D01*
X141433800Y-101018000D02*
X141433800Y-102555000D01*
X141433800Y-104635000D02*
X141433800Y-106172000D01*
X141473800Y-101048000D02*
X141473800Y-102555000D01*
X141473800Y-104635000D02*
X141473800Y-106142000D01*
X141513800Y-101079000D02*
X141513800Y-102555000D01*
X141513800Y-104635000D02*
X141513800Y-106111000D01*
X141553800Y-101112000D02*
X141553800Y-102555000D01*
X141553800Y-104635000D02*
X141553800Y-106078000D01*
X141593800Y-101145000D02*
X141593800Y-102555000D01*
X141593800Y-104635000D02*
X141593800Y-106045000D01*
X141633800Y-101180000D02*
X141633800Y-102555000D01*
X141633800Y-104635000D02*
X141633800Y-106010000D01*
X141673800Y-101216000D02*
X141673800Y-102555000D01*
X141673800Y-104635000D02*
X141673800Y-105974000D01*
X141713800Y-101253000D02*
X141713800Y-102555000D01*
X141713800Y-104635000D02*
X141713800Y-105937000D01*
X141753800Y-101291000D02*
X141753800Y-102555000D01*
X141753800Y-104635000D02*
X141753800Y-105899000D01*
X141793800Y-101331000D02*
X141793800Y-105859000D01*
X141833800Y-101372000D02*
X141833800Y-105818000D01*
X141873800Y-101414000D02*
X141873800Y-105776000D01*
X141913800Y-101458000D02*
X141913800Y-105732000D01*
X141953800Y-101504000D02*
X141953800Y-105686000D01*
X141993800Y-101551000D02*
X141993800Y-105639000D01*
X142033800Y-101600000D02*
X142033800Y-105590000D01*
X142073800Y-101652000D02*
X142073800Y-105538000D01*
X142113800Y-101705000D02*
X142113800Y-105485000D01*
X142153800Y-101761000D02*
X142153800Y-105429000D01*
X142193800Y-101820000D02*
X142193800Y-105370000D01*
X142233800Y-101881000D02*
X142233800Y-105309000D01*
X142273800Y-101946000D02*
X142273800Y-105244000D01*
X142313800Y-102014000D02*
X142313800Y-105176000D01*
X142353800Y-102086000D02*
X142353800Y-105104000D01*
X142393800Y-102163000D02*
X142393800Y-105027000D01*
X142433800Y-102245000D02*
X142433800Y-104945000D01*
X142473800Y-102334000D02*
X142473800Y-104856000D01*
X142513800Y-102430000D02*
X142513800Y-104760000D01*
X142553800Y-102537000D02*
X142553800Y-104653000D01*
X142593800Y-102656000D02*
X142593800Y-104534000D01*
X142633800Y-102794000D02*
X142633800Y-104396000D01*
X142673800Y-102962000D02*
X142673800Y-104228000D01*
X142713800Y-103193000D02*
X142713800Y-103997000D01*
X142743800Y-103595000D02*
G75*
G02*
X136203800Y-103595000I-3270000J0D01*
G01*
X136203800Y-103595000D02*
G75*
G02*
X142743800Y-103595000I3270000J0D01*
G01*
%TO.C,K1*%
X103445000Y-88445000D02*
X103445000Y-95045000D01*
X103445000Y-88445000D02*
X123245000Y-88445000D01*
X103445000Y-97445000D02*
X103445000Y-104045000D01*
X107495000Y-96295000D02*
X106695000Y-96295000D01*
X107495000Y-96295000D02*
X107495000Y-99895000D01*
X108395000Y-102295000D02*
X110895000Y-102295000D01*
X108895000Y-94495000D02*
X112895000Y-94495000D01*
X108895000Y-98095000D02*
X108895000Y-94495000D01*
X110895000Y-90295000D02*
X108395000Y-90295000D01*
X110895000Y-90295000D02*
X110895000Y-94495000D01*
X110895000Y-98095000D02*
X110895000Y-102295000D01*
X112895000Y-94495000D02*
X112895000Y-98095000D01*
X112895000Y-98095000D02*
X108895000Y-94495000D01*
X112895000Y-98095000D02*
X108895000Y-98095000D01*
X114295000Y-96295000D02*
X114295000Y-99895000D01*
X114295000Y-96295000D02*
X115795000Y-96295000D01*
X114295000Y-99895000D02*
X107495000Y-99895000D01*
X115795000Y-96295000D02*
X120395000Y-93795000D01*
X118995000Y-92045000D02*
X118995000Y-94545000D01*
X118995000Y-100445000D02*
X118995000Y-97995000D01*
X123245000Y-88445000D02*
X123245000Y-104045000D01*
X123245000Y-104045000D02*
X103445000Y-104045000D01*
%TD*%
M02*
