%TF.GenerationSoftware,KiCad,Pcbnew,10.0.5*%
%TF.CreationDate,2026-08-03T02:30:35-07:00*%
%TF.ProjectId,cv-led,63762d6c-6564-42e6-9b69-6361645f7063,rev?*%
%TF.SameCoordinates,Original*%
%TF.FileFunction,Soldermask,Bot*%
%TF.FilePolarity,Negative*%
%FSLAX46Y46*%
G04 Gerber Fmt 4.6, Leading zero omitted, Abs format (unit mm)*
G04 Created by KiCad (PCBNEW 10.0.5) date 2026-08-03 02:30:35*
%MOMM*%
%LPD*%
G01*
G04 APERTURE LIST*
G04 Aperture macros list*
%AMRoundRect*
0 Rectangle with rounded corners*
0 $1 Rounding radius*
0 $2 $3 $4 $5 $6 $7 $8 $9 X,Y pos of 4 corners*
0 Add a 4 corners polygon primitive as box body*
4,1,4,$2,$3,$4,$5,$6,$7,$8,$9,$2,$3,0*
0 Add four circle primitives for the rounded corners*
1,1,$1+$1,$2,$3*
1,1,$1+$1,$4,$5*
1,1,$1+$1,$6,$7*
1,1,$1+$1,$8,$9*
0 Add four rect primitives between the rounded corners*
20,1,$1+$1,$2,$3,$4,$5,0*
20,1,$1+$1,$4,$5,$6,$7,0*
20,1,$1+$1,$6,$7,$8,$9,0*
20,1,$1+$1,$8,$9,$2,$3,0*%
G04 Aperture macros list end*
%ADD10RoundRect,0.250000X-0.550000X-0.550000X0.550000X-0.550000X0.550000X0.550000X-0.550000X0.550000X0*%
%ADD11C,1.600000*%
%ADD12RoundRect,0.250000X-1.050000X-1.050000X1.050000X-1.050000X1.050000X1.050000X-1.050000X1.050000X0*%
%ADD13C,2.600000*%
%ADD14RoundRect,0.249999X0.850001X-0.850001X0.850001X0.850001X-0.850001X0.850001X-0.850001X-0.850001X0*%
%ADD15C,2.200000*%
%ADD16R,1.905000X2.000000*%
%ADD17O,1.905000X2.000000*%
%ADD18C,2.000000*%
%ADD19R,1.800000X1.800000*%
%ADD20C,1.800000*%
%ADD21R,2.000000X1.905000*%
%ADD22O,2.000000X1.905000*%
%ADD23R,1.700000X1.700000*%
%ADD24C,1.700000*%
%ADD25C,0.600000*%
%ADD26C,3.200000*%
%ADD27RoundRect,0.250000X-0.750000X-0.750000X0.750000X-0.750000X0.750000X0.750000X-0.750000X0.750000X0*%
%ADD28C,3.000000*%
%ADD29C,2.500000*%
%ADD30RoundRect,0.250000X0.262500X0.450000X-0.262500X0.450000X-0.262500X-0.450000X0.262500X-0.450000X0*%
%ADD31RoundRect,0.250000X0.250000X0.475000X-0.250000X0.475000X-0.250000X-0.475000X0.250000X-0.475000X0*%
%ADD32RoundRect,0.250000X0.375000X0.625000X-0.375000X0.625000X-0.375000X-0.625000X0.375000X-0.625000X0*%
%ADD33RoundRect,0.250000X0.650000X-1.000000X0.650000X1.000000X-0.650000X1.000000X-0.650000X-1.000000X0*%
%ADD34RoundRect,0.250000X1.000000X0.900000X-1.000000X0.900000X-1.000000X-0.900000X1.000000X-0.900000X0*%
%ADD35RoundRect,0.250000X0.475000X-0.250000X0.475000X0.250000X-0.475000X0.250000X-0.475000X-0.250000X0*%
%ADD36RoundRect,0.150000X0.587500X0.150000X-0.587500X0.150000X-0.587500X-0.150000X0.587500X-0.150000X0*%
%ADD37RoundRect,0.250000X0.450000X-0.262500X0.450000X0.262500X-0.450000X0.262500X-0.450000X-0.262500X0*%
G04 APERTURE END LIST*
D10*
%TO.C,C2*%
X170113800Y-124545000D03*
D11*
X172613800Y-124545000D03*
%TD*%
D12*
%TO.C,J2*%
X162485000Y-105905000D03*
D13*
X167485000Y-105905000D03*
%TD*%
D14*
%TO.C,D1*%
X177455000Y-132655000D03*
D15*
X177455000Y-122495000D03*
%TD*%
D16*
%TO.C,Q3*%
X170675000Y-118555000D03*
D17*
X173215000Y-118555000D03*
X175755000Y-118555000D03*
%TD*%
D16*
%TO.C,Q4*%
X141005000Y-120585000D03*
D17*
X143545000Y-120585000D03*
X146085000Y-120585000D03*
%TD*%
D18*
%TO.C,SW1*%
X173075000Y-89795000D03*
X179575000Y-89795000D03*
X173075000Y-94295000D03*
X179575000Y-94295000D03*
%TD*%
D19*
%TO.C,LED0*%
X151535000Y-107495000D03*
D20*
X154075000Y-107495000D03*
%TD*%
D21*
%TO.C,Q1*%
X174975000Y-111355000D03*
D22*
X174975000Y-108815000D03*
X174975000Y-106275000D03*
%TD*%
D10*
%TO.C,C3*%
X140443800Y-126575000D03*
D11*
X142943800Y-126575000D03*
%TD*%
D23*
%TO.C,JP*%
X179335000Y-105335000D03*
D24*
X179335000Y-107875000D03*
X179335000Y-110415000D03*
%TD*%
D10*
%TO.C,PC1*%
X172635000Y-98405000D03*
D11*
X172635000Y-100945000D03*
X180255000Y-100945000D03*
X180255000Y-98405000D03*
%TD*%
D12*
%TO.C,J1*%
X162485000Y-94005000D03*
D13*
X167485000Y-94005000D03*
%TD*%
D12*
%TO.C,J3*%
X141295000Y-110995000D03*
D13*
X146295000Y-110995000D03*
%TD*%
D25*
%TO.C,U1*%
X117350000Y-109490000D03*
X117350000Y-110890000D03*
X118050000Y-108790000D03*
X118050000Y-110190000D03*
X118050000Y-111590000D03*
X118750000Y-109490000D03*
X118750000Y-110890000D03*
X119450000Y-108790000D03*
X119450000Y-110190000D03*
X119450000Y-111590000D03*
X120150000Y-109490000D03*
X120150000Y-110890000D03*
%TD*%
D21*
%TO.C,Q2*%
X165375000Y-119885000D03*
D22*
X165375000Y-117345000D03*
X165375000Y-114805000D03*
%TD*%
D23*
%TO.C,U3*%
X147955000Y-125455000D03*
D24*
X147955000Y-127995000D03*
X147955000Y-130535000D03*
X147955000Y-133075000D03*
%TD*%
D26*
%TO.C,MH2*%
X180698700Y-139200000D03*
%TD*%
D27*
%TO.C,C1*%
X153133800Y-117345000D03*
D18*
X158133800Y-117345000D03*
%TD*%
D28*
%TO.C,K1*%
X139845000Y-96245000D03*
D29*
X141795000Y-102295000D03*
D28*
X153995000Y-102295000D03*
X154045000Y-90245000D03*
D29*
X141795000Y-90295000D03*
%TD*%
D26*
%TO.C,MH1*%
X103998700Y-84000000D03*
%TD*%
D30*
%TO.C,R1*%
X168152500Y-109200000D03*
X166327500Y-109200000D03*
%TD*%
%TO.C,R6*%
X155682500Y-113880000D03*
X153857500Y-113880000D03*
%TD*%
%TO.C,R2*%
X151232500Y-110390000D03*
X149407500Y-110390000D03*
%TD*%
%TO.C,R5*%
X151232500Y-113380000D03*
X149407500Y-113380000D03*
%TD*%
%TO.C,R8*%
X140887500Y-114290000D03*
X139062500Y-114290000D03*
%TD*%
D31*
%TO.C,C6*%
X140945000Y-105820000D03*
X139045000Y-105820000D03*
%TD*%
D32*
%TO.C,F1*%
X163070000Y-89425000D03*
X160270000Y-89425000D03*
%TD*%
D30*
%TO.C,R7*%
X160132500Y-113880000D03*
X158307500Y-113880000D03*
%TD*%
D33*
%TO.C,D2*%
X157770000Y-110340000D03*
X157770000Y-106340000D03*
%TD*%
D34*
%TO.C,TVS1*%
X165190000Y-98600000D03*
X160890000Y-98600000D03*
%TD*%
D35*
%TO.C,C5*%
X168760000Y-99000000D03*
X168760000Y-97100000D03*
%TD*%
D31*
%TO.C,C7*%
X145435000Y-105820000D03*
X143535000Y-105820000D03*
%TD*%
D30*
%TO.C,R10*%
X180347500Y-116250000D03*
X178522500Y-116250000D03*
%TD*%
%TO.C,R4*%
X179612500Y-113260000D03*
X177787500Y-113260000D03*
%TD*%
D36*
%TO.C,Q5*%
X163477500Y-109000000D03*
X163477500Y-110900000D03*
X161602500Y-109950000D03*
%TD*%
D31*
%TO.C,C4*%
X167690000Y-89275000D03*
X165790000Y-89275000D03*
%TD*%
D30*
%TO.C,R3*%
X170012500Y-112190000D03*
X168187500Y-112190000D03*
%TD*%
%TO.C,R12*%
X180347500Y-119240000D03*
X178522500Y-119240000D03*
%TD*%
%TO.C,R9*%
X145337500Y-114290000D03*
X143512500Y-114290000D03*
%TD*%
D37*
%TO.C,R11*%
X149035000Y-118012500D03*
X149035000Y-116187500D03*
%TD*%
M02*
