%TF.GenerationSoftware,KiCad,Pcbnew,10.0.5*%
%TF.CreationDate,2026-08-03T03:26:34-07:00*%
%TF.ProjectId,cv-duo,63762d64-756f-42e6-9b69-6361645f7063,rev?*%
%TF.SameCoordinates,Original*%
%TF.FileFunction,Legend,Top*%
%TF.FilePolarity,Positive*%
%FSLAX46Y46*%
G04 Gerber Fmt 4.6, Leading zero omitted, Abs format (unit mm)*
G04 Created by KiCad (PCBNEW 10.0.5) date 2026-08-03 03:26:34*
%MOMM*%
%LPD*%
G01*
G04 APERTURE LIST*
%ADD10C,0.150000*%
%ADD11C,0.180000*%
%ADD12C,0.200000*%
%ADD13C,0.120000*%
G04 APERTURE END LIST*
D10*
X128828570Y-138222842D02*
X128785713Y-138265700D01*
X128785713Y-138265700D02*
X128657141Y-138308557D01*
X128657141Y-138308557D02*
X128571427Y-138308557D01*
X128571427Y-138308557D02*
X128442856Y-138265700D01*
X128442856Y-138265700D02*
X128357141Y-138179985D01*
X128357141Y-138179985D02*
X128314284Y-138094271D01*
X128314284Y-138094271D02*
X128271427Y-137922842D01*
X128271427Y-137922842D02*
X128271427Y-137794271D01*
X128271427Y-137794271D02*
X128314284Y-137622842D01*
X128314284Y-137622842D02*
X128357141Y-137537128D01*
X128357141Y-137537128D02*
X128442856Y-137451414D01*
X128442856Y-137451414D02*
X128571427Y-137408557D01*
X128571427Y-137408557D02*
X128657141Y-137408557D01*
X128657141Y-137408557D02*
X128785713Y-137451414D01*
X128785713Y-137451414D02*
X128828570Y-137494271D01*
X129085713Y-137408557D02*
X129385713Y-138308557D01*
X129385713Y-138308557D02*
X129685713Y-137408557D01*
X129985713Y-137965700D02*
X130671428Y-137965700D01*
X131099999Y-138308557D02*
X131099999Y-137408557D01*
X131099999Y-137408557D02*
X131314285Y-137408557D01*
X131314285Y-137408557D02*
X131442856Y-137451414D01*
X131442856Y-137451414D02*
X131528571Y-137537128D01*
X131528571Y-137537128D02*
X131571428Y-137622842D01*
X131571428Y-137622842D02*
X131614285Y-137794271D01*
X131614285Y-137794271D02*
X131614285Y-137922842D01*
X131614285Y-137922842D02*
X131571428Y-138094271D01*
X131571428Y-138094271D02*
X131528571Y-138179985D01*
X131528571Y-138179985D02*
X131442856Y-138265700D01*
X131442856Y-138265700D02*
X131314285Y-138308557D01*
X131314285Y-138308557D02*
X131099999Y-138308557D01*
X131999999Y-137408557D02*
X131999999Y-138137128D01*
X131999999Y-138137128D02*
X132042856Y-138222842D01*
X132042856Y-138222842D02*
X132085714Y-138265700D01*
X132085714Y-138265700D02*
X132171428Y-138308557D01*
X132171428Y-138308557D02*
X132342856Y-138308557D01*
X132342856Y-138308557D02*
X132428571Y-138265700D01*
X132428571Y-138265700D02*
X132471428Y-138222842D01*
X132471428Y-138222842D02*
X132514285Y-138137128D01*
X132514285Y-138137128D02*
X132514285Y-137408557D01*
X133114285Y-137408557D02*
X133285713Y-137408557D01*
X133285713Y-137408557D02*
X133371428Y-137451414D01*
X133371428Y-137451414D02*
X133457142Y-137537128D01*
X133457142Y-137537128D02*
X133499999Y-137708557D01*
X133499999Y-137708557D02*
X133499999Y-138008557D01*
X133499999Y-138008557D02*
X133457142Y-138179985D01*
X133457142Y-138179985D02*
X133371428Y-138265700D01*
X133371428Y-138265700D02*
X133285713Y-138308557D01*
X133285713Y-138308557D02*
X133114285Y-138308557D01*
X133114285Y-138308557D02*
X133028571Y-138265700D01*
X133028571Y-138265700D02*
X132942856Y-138179985D01*
X132942856Y-138179985D02*
X132899999Y-138008557D01*
X132899999Y-138008557D02*
X132899999Y-137708557D01*
X132899999Y-137708557D02*
X132942856Y-137537128D01*
X132942856Y-137537128D02*
X133028571Y-137451414D01*
X133028571Y-137451414D02*
X133114285Y-137408557D01*
X135771427Y-138308557D02*
X135471427Y-137879985D01*
X135257141Y-138308557D02*
X135257141Y-137408557D01*
X135257141Y-137408557D02*
X135599998Y-137408557D01*
X135599998Y-137408557D02*
X135685713Y-137451414D01*
X135685713Y-137451414D02*
X135728570Y-137494271D01*
X135728570Y-137494271D02*
X135771427Y-137579985D01*
X135771427Y-137579985D02*
X135771427Y-137708557D01*
X135771427Y-137708557D02*
X135728570Y-137794271D01*
X135728570Y-137794271D02*
X135685713Y-137837128D01*
X135685713Y-137837128D02*
X135599998Y-137879985D01*
X135599998Y-137879985D02*
X135257141Y-137879985D01*
X136157141Y-137837128D02*
X136457141Y-137837128D01*
X136585713Y-138308557D02*
X136157141Y-138308557D01*
X136157141Y-138308557D02*
X136157141Y-137408557D01*
X136157141Y-137408557D02*
X136585713Y-137408557D01*
X136842856Y-137408557D02*
X137142856Y-138308557D01*
X137142856Y-138308557D02*
X137442856Y-137408557D01*
X138385713Y-138051414D02*
X138814285Y-138051414D01*
X138299999Y-138308557D02*
X138599999Y-137408557D01*
X138599999Y-137408557D02*
X138899999Y-138308557D01*
X140957142Y-138265700D02*
X140871427Y-138308557D01*
X140871427Y-138308557D02*
X140699999Y-138308557D01*
X140699999Y-138308557D02*
X140614284Y-138265700D01*
X140614284Y-138265700D02*
X140571427Y-138222842D01*
X140571427Y-138222842D02*
X140528570Y-138137128D01*
X140528570Y-138137128D02*
X140528570Y-137879985D01*
X140528570Y-137879985D02*
X140571427Y-137794271D01*
X140571427Y-137794271D02*
X140614284Y-137751414D01*
X140614284Y-137751414D02*
X140699999Y-137708557D01*
X140699999Y-137708557D02*
X140871427Y-137708557D01*
X140871427Y-137708557D02*
X140957142Y-137751414D01*
X141342856Y-138308557D02*
X141342856Y-137708557D01*
X141342856Y-137408557D02*
X141299999Y-137451414D01*
X141299999Y-137451414D02*
X141342856Y-137494271D01*
X141342856Y-137494271D02*
X141385713Y-137451414D01*
X141385713Y-137451414D02*
X141342856Y-137408557D01*
X141342856Y-137408557D02*
X141342856Y-137494271D01*
X141771427Y-138308557D02*
X141771427Y-137708557D01*
X141771427Y-137879985D02*
X141814284Y-137794271D01*
X141814284Y-137794271D02*
X141857142Y-137751414D01*
X141857142Y-137751414D02*
X141942856Y-137708557D01*
X141942856Y-137708557D02*
X142028570Y-137708557D01*
X142714285Y-138265700D02*
X142628570Y-138308557D01*
X142628570Y-138308557D02*
X142457142Y-138308557D01*
X142457142Y-138308557D02*
X142371427Y-138265700D01*
X142371427Y-138265700D02*
X142328570Y-138222842D01*
X142328570Y-138222842D02*
X142285713Y-138137128D01*
X142285713Y-138137128D02*
X142285713Y-137879985D01*
X142285713Y-137879985D02*
X142328570Y-137794271D01*
X142328570Y-137794271D02*
X142371427Y-137751414D01*
X142371427Y-137751414D02*
X142457142Y-137708557D01*
X142457142Y-137708557D02*
X142628570Y-137708557D01*
X142628570Y-137708557D02*
X142714285Y-137751414D01*
X143485714Y-137708557D02*
X143485714Y-138308557D01*
X143099999Y-137708557D02*
X143099999Y-138179985D01*
X143099999Y-138179985D02*
X143142856Y-138265700D01*
X143142856Y-138265700D02*
X143228571Y-138308557D01*
X143228571Y-138308557D02*
X143357142Y-138308557D01*
X143357142Y-138308557D02*
X143442856Y-138265700D01*
X143442856Y-138265700D02*
X143485714Y-138222842D01*
X143828571Y-137708557D02*
X144042857Y-138308557D01*
X144042857Y-138308557D02*
X144257142Y-137708557D01*
X144942856Y-138265700D02*
X144857142Y-138308557D01*
X144857142Y-138308557D02*
X144685714Y-138308557D01*
X144685714Y-138308557D02*
X144599999Y-138265700D01*
X144599999Y-138265700D02*
X144557142Y-138179985D01*
X144557142Y-138179985D02*
X144557142Y-137837128D01*
X144557142Y-137837128D02*
X144599999Y-137751414D01*
X144599999Y-137751414D02*
X144685714Y-137708557D01*
X144685714Y-137708557D02*
X144857142Y-137708557D01*
X144857142Y-137708557D02*
X144942856Y-137751414D01*
X144942856Y-137751414D02*
X144985714Y-137837128D01*
X144985714Y-137837128D02*
X144985714Y-137922842D01*
X144985714Y-137922842D02*
X144557142Y-138008557D01*
X145371428Y-137708557D02*
X145371428Y-138308557D01*
X145371428Y-137794271D02*
X145414285Y-137751414D01*
X145414285Y-137751414D02*
X145500000Y-137708557D01*
X145500000Y-137708557D02*
X145628571Y-137708557D01*
X145628571Y-137708557D02*
X145714285Y-137751414D01*
X145714285Y-137751414D02*
X145757143Y-137837128D01*
X145757143Y-137837128D02*
X145757143Y-138308557D01*
X146057143Y-137708557D02*
X146400000Y-137708557D01*
X146185714Y-137408557D02*
X146185714Y-138179985D01*
X146185714Y-138179985D02*
X146228571Y-138265700D01*
X146228571Y-138265700D02*
X146314286Y-138308557D01*
X146314286Y-138308557D02*
X146400000Y-138308557D01*
X146700000Y-138222842D02*
X146742857Y-138265700D01*
X146742857Y-138265700D02*
X146700000Y-138308557D01*
X146700000Y-138308557D02*
X146657143Y-138265700D01*
X146657143Y-138265700D02*
X146700000Y-138222842D01*
X146700000Y-138222842D02*
X146700000Y-138308557D01*
X147514286Y-138265700D02*
X147428571Y-138308557D01*
X147428571Y-138308557D02*
X147257143Y-138308557D01*
X147257143Y-138308557D02*
X147171428Y-138265700D01*
X147171428Y-138265700D02*
X147128571Y-138222842D01*
X147128571Y-138222842D02*
X147085714Y-138137128D01*
X147085714Y-138137128D02*
X147085714Y-137879985D01*
X147085714Y-137879985D02*
X147128571Y-137794271D01*
X147128571Y-137794271D02*
X147171428Y-137751414D01*
X147171428Y-137751414D02*
X147257143Y-137708557D01*
X147257143Y-137708557D02*
X147428571Y-137708557D01*
X147428571Y-137708557D02*
X147514286Y-137751414D01*
X148028572Y-138308557D02*
X147942857Y-138265700D01*
X147942857Y-138265700D02*
X147900000Y-138222842D01*
X147900000Y-138222842D02*
X147857143Y-138137128D01*
X147857143Y-138137128D02*
X147857143Y-137879985D01*
X147857143Y-137879985D02*
X147900000Y-137794271D01*
X147900000Y-137794271D02*
X147942857Y-137751414D01*
X147942857Y-137751414D02*
X148028572Y-137708557D01*
X148028572Y-137708557D02*
X148157143Y-137708557D01*
X148157143Y-137708557D02*
X148242857Y-137751414D01*
X148242857Y-137751414D02*
X148285715Y-137794271D01*
X148285715Y-137794271D02*
X148328572Y-137879985D01*
X148328572Y-137879985D02*
X148328572Y-138137128D01*
X148328572Y-138137128D02*
X148285715Y-138222842D01*
X148285715Y-138222842D02*
X148242857Y-138265700D01*
X148242857Y-138265700D02*
X148157143Y-138308557D01*
X148157143Y-138308557D02*
X148028572Y-138308557D01*
X148714286Y-138308557D02*
X148714286Y-137708557D01*
X148714286Y-137794271D02*
X148757143Y-137751414D01*
X148757143Y-137751414D02*
X148842858Y-137708557D01*
X148842858Y-137708557D02*
X148971429Y-137708557D01*
X148971429Y-137708557D02*
X149057143Y-137751414D01*
X149057143Y-137751414D02*
X149100001Y-137837128D01*
X149100001Y-137837128D02*
X149100001Y-138308557D01*
X149100001Y-137837128D02*
X149142858Y-137751414D01*
X149142858Y-137751414D02*
X149228572Y-137708557D01*
X149228572Y-137708557D02*
X149357143Y-137708557D01*
X149357143Y-137708557D02*
X149442858Y-137751414D01*
X149442858Y-137751414D02*
X149485715Y-137837128D01*
X149485715Y-137837128D02*
X149485715Y-138308557D01*
D11*
X103857142Y-136853259D02*
X103523809Y-136377068D01*
X103285714Y-136853259D02*
X103285714Y-135853259D01*
X103285714Y-135853259D02*
X103666666Y-135853259D01*
X103666666Y-135853259D02*
X103761904Y-135900878D01*
X103761904Y-135900878D02*
X103809523Y-135948497D01*
X103809523Y-135948497D02*
X103857142Y-136043735D01*
X103857142Y-136043735D02*
X103857142Y-136186592D01*
X103857142Y-136186592D02*
X103809523Y-136281830D01*
X103809523Y-136281830D02*
X103761904Y-136329449D01*
X103761904Y-136329449D02*
X103666666Y-136377068D01*
X103666666Y-136377068D02*
X103285714Y-136377068D01*
X104285714Y-136853259D02*
X104285714Y-135853259D01*
X104714285Y-136805640D02*
X104857142Y-136853259D01*
X104857142Y-136853259D02*
X105095237Y-136853259D01*
X105095237Y-136853259D02*
X105190475Y-136805640D01*
X105190475Y-136805640D02*
X105238094Y-136758020D01*
X105238094Y-136758020D02*
X105285713Y-136662782D01*
X105285713Y-136662782D02*
X105285713Y-136567544D01*
X105285713Y-136567544D02*
X105238094Y-136472306D01*
X105238094Y-136472306D02*
X105190475Y-136424687D01*
X105190475Y-136424687D02*
X105095237Y-136377068D01*
X105095237Y-136377068D02*
X104904761Y-136329449D01*
X104904761Y-136329449D02*
X104809523Y-136281830D01*
X104809523Y-136281830D02*
X104761904Y-136234211D01*
X104761904Y-136234211D02*
X104714285Y-136138973D01*
X104714285Y-136138973D02*
X104714285Y-136043735D01*
X104714285Y-136043735D02*
X104761904Y-135948497D01*
X104761904Y-135948497D02*
X104809523Y-135900878D01*
X104809523Y-135900878D02*
X104904761Y-135853259D01*
X104904761Y-135853259D02*
X105142856Y-135853259D01*
X105142856Y-135853259D02*
X105285713Y-135900878D01*
X105714285Y-136853259D02*
X105714285Y-135853259D01*
X106285713Y-136853259D02*
X105857142Y-136281830D01*
X106285713Y-135853259D02*
X105714285Y-136424687D01*
X107666666Y-135853259D02*
X107857142Y-135853259D01*
X107857142Y-135853259D02*
X107952380Y-135900878D01*
X107952380Y-135900878D02*
X108047618Y-135996116D01*
X108047618Y-135996116D02*
X108095237Y-136186592D01*
X108095237Y-136186592D02*
X108095237Y-136519925D01*
X108095237Y-136519925D02*
X108047618Y-136710401D01*
X108047618Y-136710401D02*
X107952380Y-136805640D01*
X107952380Y-136805640D02*
X107857142Y-136853259D01*
X107857142Y-136853259D02*
X107666666Y-136853259D01*
X107666666Y-136853259D02*
X107571428Y-136805640D01*
X107571428Y-136805640D02*
X107476190Y-136710401D01*
X107476190Y-136710401D02*
X107428571Y-136519925D01*
X107428571Y-136519925D02*
X107428571Y-136186592D01*
X107428571Y-136186592D02*
X107476190Y-135996116D01*
X107476190Y-135996116D02*
X107571428Y-135900878D01*
X107571428Y-135900878D02*
X107666666Y-135853259D01*
X108857142Y-136329449D02*
X108523809Y-136329449D01*
X108523809Y-136853259D02*
X108523809Y-135853259D01*
X108523809Y-135853259D02*
X108999999Y-135853259D01*
X110095238Y-136805640D02*
X110238095Y-136853259D01*
X110238095Y-136853259D02*
X110476190Y-136853259D01*
X110476190Y-136853259D02*
X110571428Y-136805640D01*
X110571428Y-136805640D02*
X110619047Y-136758020D01*
X110619047Y-136758020D02*
X110666666Y-136662782D01*
X110666666Y-136662782D02*
X110666666Y-136567544D01*
X110666666Y-136567544D02*
X110619047Y-136472306D01*
X110619047Y-136472306D02*
X110571428Y-136424687D01*
X110571428Y-136424687D02*
X110476190Y-136377068D01*
X110476190Y-136377068D02*
X110285714Y-136329449D01*
X110285714Y-136329449D02*
X110190476Y-136281830D01*
X110190476Y-136281830D02*
X110142857Y-136234211D01*
X110142857Y-136234211D02*
X110095238Y-136138973D01*
X110095238Y-136138973D02*
X110095238Y-136043735D01*
X110095238Y-136043735D02*
X110142857Y-135948497D01*
X110142857Y-135948497D02*
X110190476Y-135900878D01*
X110190476Y-135900878D02*
X110285714Y-135853259D01*
X110285714Y-135853259D02*
X110523809Y-135853259D01*
X110523809Y-135853259D02*
X110666666Y-135900878D01*
X111095238Y-136853259D02*
X111095238Y-135853259D01*
X111095238Y-136329449D02*
X111666666Y-136329449D01*
X111666666Y-136853259D02*
X111666666Y-135853259D01*
X112333333Y-135853259D02*
X112523809Y-135853259D01*
X112523809Y-135853259D02*
X112619047Y-135900878D01*
X112619047Y-135900878D02*
X112714285Y-135996116D01*
X112714285Y-135996116D02*
X112761904Y-136186592D01*
X112761904Y-136186592D02*
X112761904Y-136519925D01*
X112761904Y-136519925D02*
X112714285Y-136710401D01*
X112714285Y-136710401D02*
X112619047Y-136805640D01*
X112619047Y-136805640D02*
X112523809Y-136853259D01*
X112523809Y-136853259D02*
X112333333Y-136853259D01*
X112333333Y-136853259D02*
X112238095Y-136805640D01*
X112238095Y-136805640D02*
X112142857Y-136710401D01*
X112142857Y-136710401D02*
X112095238Y-136519925D01*
X112095238Y-136519925D02*
X112095238Y-136186592D01*
X112095238Y-136186592D02*
X112142857Y-135996116D01*
X112142857Y-135996116D02*
X112238095Y-135900878D01*
X112238095Y-135900878D02*
X112333333Y-135853259D01*
X113761904Y-136758020D02*
X113714285Y-136805640D01*
X113714285Y-136805640D02*
X113571428Y-136853259D01*
X113571428Y-136853259D02*
X113476190Y-136853259D01*
X113476190Y-136853259D02*
X113333333Y-136805640D01*
X113333333Y-136805640D02*
X113238095Y-136710401D01*
X113238095Y-136710401D02*
X113190476Y-136615163D01*
X113190476Y-136615163D02*
X113142857Y-136424687D01*
X113142857Y-136424687D02*
X113142857Y-136281830D01*
X113142857Y-136281830D02*
X113190476Y-136091354D01*
X113190476Y-136091354D02*
X113238095Y-135996116D01*
X113238095Y-135996116D02*
X113333333Y-135900878D01*
X113333333Y-135900878D02*
X113476190Y-135853259D01*
X113476190Y-135853259D02*
X113571428Y-135853259D01*
X113571428Y-135853259D02*
X113714285Y-135900878D01*
X113714285Y-135900878D02*
X113761904Y-135948497D01*
X114190476Y-136853259D02*
X114190476Y-135853259D01*
X114761904Y-136853259D02*
X114333333Y-136281830D01*
X114761904Y-135853259D02*
X114190476Y-136424687D01*
D12*
X128438719Y-121985714D02*
X128491100Y-121933333D01*
X128491100Y-121933333D02*
X128543480Y-121985714D01*
X128543480Y-121985714D02*
X128491100Y-122038095D01*
X128491100Y-122038095D02*
X128438719Y-121985714D01*
X128438719Y-121985714D02*
X128543480Y-121985714D01*
X128124433Y-121985714D02*
X127495861Y-122038095D01*
X127495861Y-122038095D02*
X127443480Y-121985714D01*
X127443480Y-121985714D02*
X127495861Y-121933333D01*
X127495861Y-121933333D02*
X128124433Y-121985714D01*
X128124433Y-121985714D02*
X127443480Y-121985714D01*
X128438719Y-121461904D02*
X128491100Y-121409523D01*
X128491100Y-121409523D02*
X128543480Y-121461904D01*
X128543480Y-121461904D02*
X128491100Y-121514285D01*
X128491100Y-121514285D02*
X128438719Y-121461904D01*
X128438719Y-121461904D02*
X128543480Y-121461904D01*
X128124433Y-121461904D02*
X127495861Y-121514285D01*
X127495861Y-121514285D02*
X127443480Y-121461904D01*
X127443480Y-121461904D02*
X127495861Y-121409523D01*
X127495861Y-121409523D02*
X128124433Y-121461904D01*
X128124433Y-121461904D02*
X127443480Y-121461904D01*
X128543480Y-120099999D02*
X127443480Y-120099999D01*
X127443480Y-120099999D02*
X128229195Y-119733332D01*
X128229195Y-119733332D02*
X127443480Y-119366665D01*
X127443480Y-119366665D02*
X128543480Y-119366665D01*
X128229195Y-118895237D02*
X128229195Y-118371427D01*
X128543480Y-118999999D02*
X127443480Y-118633332D01*
X127443480Y-118633332D02*
X128543480Y-118266665D01*
X128543480Y-117899999D02*
X127443480Y-117899999D01*
X128543480Y-117376189D02*
X127443480Y-117376189D01*
X127443480Y-117376189D02*
X128543480Y-116747617D01*
X128543480Y-116747617D02*
X127443480Y-116747617D01*
X128491100Y-116276189D02*
X128543480Y-116119046D01*
X128543480Y-116119046D02*
X128543480Y-115857141D01*
X128543480Y-115857141D02*
X128491100Y-115752379D01*
X128491100Y-115752379D02*
X128438719Y-115699998D01*
X128438719Y-115699998D02*
X128333957Y-115647617D01*
X128333957Y-115647617D02*
X128229195Y-115647617D01*
X128229195Y-115647617D02*
X128124433Y-115699998D01*
X128124433Y-115699998D02*
X128072052Y-115752379D01*
X128072052Y-115752379D02*
X128019671Y-115857141D01*
X128019671Y-115857141D02*
X127967290Y-116066665D01*
X127967290Y-116066665D02*
X127914909Y-116171427D01*
X127914909Y-116171427D02*
X127862528Y-116223808D01*
X127862528Y-116223808D02*
X127757766Y-116276189D01*
X127757766Y-116276189D02*
X127653004Y-116276189D01*
X127653004Y-116276189D02*
X127548242Y-116223808D01*
X127548242Y-116223808D02*
X127495861Y-116171427D01*
X127495861Y-116171427D02*
X127443480Y-116066665D01*
X127443480Y-116066665D02*
X127443480Y-115804760D01*
X127443480Y-115804760D02*
X127495861Y-115647617D01*
X128438719Y-114338094D02*
X128491100Y-114285713D01*
X128491100Y-114285713D02*
X128543480Y-114338094D01*
X128543480Y-114338094D02*
X128491100Y-114390475D01*
X128491100Y-114390475D02*
X128438719Y-114338094D01*
X128438719Y-114338094D02*
X128543480Y-114338094D01*
X128124433Y-114338094D02*
X127495861Y-114390475D01*
X127495861Y-114390475D02*
X127443480Y-114338094D01*
X127443480Y-114338094D02*
X127495861Y-114285713D01*
X127495861Y-114285713D02*
X128124433Y-114338094D01*
X128124433Y-114338094D02*
X127443480Y-114338094D01*
X128438719Y-113814284D02*
X128491100Y-113761903D01*
X128491100Y-113761903D02*
X128543480Y-113814284D01*
X128543480Y-113814284D02*
X128491100Y-113866665D01*
X128491100Y-113866665D02*
X128438719Y-113814284D01*
X128438719Y-113814284D02*
X128543480Y-113814284D01*
X128124433Y-113814284D02*
X127495861Y-113866665D01*
X127495861Y-113866665D02*
X127443480Y-113814284D01*
X127443480Y-113814284D02*
X127495861Y-113761903D01*
X127495861Y-113761903D02*
X128124433Y-113814284D01*
X128124433Y-113814284D02*
X127443480Y-113814284D01*
X121414289Y-82930457D02*
X121357146Y-82987600D01*
X121357146Y-82987600D02*
X121185718Y-83044742D01*
X121185718Y-83044742D02*
X121071432Y-83044742D01*
X121071432Y-83044742D02*
X120900003Y-82987600D01*
X120900003Y-82987600D02*
X120785718Y-82873314D01*
X120785718Y-82873314D02*
X120728575Y-82759028D01*
X120728575Y-82759028D02*
X120671432Y-82530457D01*
X120671432Y-82530457D02*
X120671432Y-82359028D01*
X120671432Y-82359028D02*
X120728575Y-82130457D01*
X120728575Y-82130457D02*
X120785718Y-82016171D01*
X120785718Y-82016171D02*
X120900003Y-81901885D01*
X120900003Y-81901885D02*
X121071432Y-81844742D01*
X121071432Y-81844742D02*
X121185718Y-81844742D01*
X121185718Y-81844742D02*
X121357146Y-81901885D01*
X121357146Y-81901885D02*
X121414289Y-81959028D01*
X121928575Y-83044742D02*
X121928575Y-82244742D01*
X121928575Y-81844742D02*
X121871432Y-81901885D01*
X121871432Y-81901885D02*
X121928575Y-81959028D01*
X121928575Y-81959028D02*
X121985718Y-81901885D01*
X121985718Y-81901885D02*
X121928575Y-81844742D01*
X121928575Y-81844742D02*
X121928575Y-81959028D01*
X122500004Y-83044742D02*
X122500004Y-82244742D01*
X122500004Y-82473314D02*
X122557147Y-82359028D01*
X122557147Y-82359028D02*
X122614290Y-82301885D01*
X122614290Y-82301885D02*
X122728575Y-82244742D01*
X122728575Y-82244742D02*
X122842861Y-82244742D01*
X123757147Y-82987600D02*
X123642861Y-83044742D01*
X123642861Y-83044742D02*
X123414289Y-83044742D01*
X123414289Y-83044742D02*
X123300004Y-82987600D01*
X123300004Y-82987600D02*
X123242861Y-82930457D01*
X123242861Y-82930457D02*
X123185718Y-82816171D01*
X123185718Y-82816171D02*
X123185718Y-82473314D01*
X123185718Y-82473314D02*
X123242861Y-82359028D01*
X123242861Y-82359028D02*
X123300004Y-82301885D01*
X123300004Y-82301885D02*
X123414289Y-82244742D01*
X123414289Y-82244742D02*
X123642861Y-82244742D01*
X123642861Y-82244742D02*
X123757147Y-82301885D01*
X124785718Y-82244742D02*
X124785718Y-83044742D01*
X124271432Y-82244742D02*
X124271432Y-82873314D01*
X124271432Y-82873314D02*
X124328575Y-82987600D01*
X124328575Y-82987600D02*
X124442860Y-83044742D01*
X124442860Y-83044742D02*
X124614289Y-83044742D01*
X124614289Y-83044742D02*
X124728575Y-82987600D01*
X124728575Y-82987600D02*
X124785718Y-82930457D01*
X125242860Y-82244742D02*
X125528574Y-83044742D01*
X125528574Y-83044742D02*
X125814289Y-82244742D01*
X126728575Y-82987600D02*
X126614289Y-83044742D01*
X126614289Y-83044742D02*
X126385718Y-83044742D01*
X126385718Y-83044742D02*
X126271432Y-82987600D01*
X126271432Y-82987600D02*
X126214289Y-82873314D01*
X126214289Y-82873314D02*
X126214289Y-82416171D01*
X126214289Y-82416171D02*
X126271432Y-82301885D01*
X126271432Y-82301885D02*
X126385718Y-82244742D01*
X126385718Y-82244742D02*
X126614289Y-82244742D01*
X126614289Y-82244742D02*
X126728575Y-82301885D01*
X126728575Y-82301885D02*
X126785718Y-82416171D01*
X126785718Y-82416171D02*
X126785718Y-82530457D01*
X126785718Y-82530457D02*
X126214289Y-82644742D01*
X127300003Y-82244742D02*
X127300003Y-83044742D01*
X127300003Y-82359028D02*
X127357146Y-82301885D01*
X127357146Y-82301885D02*
X127471431Y-82244742D01*
X127471431Y-82244742D02*
X127642860Y-82244742D01*
X127642860Y-82244742D02*
X127757146Y-82301885D01*
X127757146Y-82301885D02*
X127814289Y-82416171D01*
X127814289Y-82416171D02*
X127814289Y-83044742D01*
X128214288Y-82244742D02*
X128671431Y-82244742D01*
X128385717Y-81844742D02*
X128385717Y-82873314D01*
X128385717Y-82873314D02*
X128442860Y-82987600D01*
X128442860Y-82987600D02*
X128557145Y-83044742D01*
X128557145Y-83044742D02*
X128671431Y-83044742D01*
X129985717Y-83044742D02*
X129985717Y-81844742D01*
X129985717Y-81844742D02*
X130271431Y-81844742D01*
X130271431Y-81844742D02*
X130442860Y-81901885D01*
X130442860Y-81901885D02*
X130557145Y-82016171D01*
X130557145Y-82016171D02*
X130614288Y-82130457D01*
X130614288Y-82130457D02*
X130671431Y-82359028D01*
X130671431Y-82359028D02*
X130671431Y-82530457D01*
X130671431Y-82530457D02*
X130614288Y-82759028D01*
X130614288Y-82759028D02*
X130557145Y-82873314D01*
X130557145Y-82873314D02*
X130442860Y-82987600D01*
X130442860Y-82987600D02*
X130271431Y-83044742D01*
X130271431Y-83044742D02*
X129985717Y-83044742D01*
X131700003Y-82244742D02*
X131700003Y-83044742D01*
X131185717Y-82244742D02*
X131185717Y-82873314D01*
X131185717Y-82873314D02*
X131242860Y-82987600D01*
X131242860Y-82987600D02*
X131357145Y-83044742D01*
X131357145Y-83044742D02*
X131528574Y-83044742D01*
X131528574Y-83044742D02*
X131642860Y-82987600D01*
X131642860Y-82987600D02*
X131700003Y-82930457D01*
X132785717Y-83044742D02*
X132785717Y-82416171D01*
X132785717Y-82416171D02*
X132728574Y-82301885D01*
X132728574Y-82301885D02*
X132614288Y-82244742D01*
X132614288Y-82244742D02*
X132385717Y-82244742D01*
X132385717Y-82244742D02*
X132271431Y-82301885D01*
X132785717Y-82987600D02*
X132671431Y-83044742D01*
X132671431Y-83044742D02*
X132385717Y-83044742D01*
X132385717Y-83044742D02*
X132271431Y-82987600D01*
X132271431Y-82987600D02*
X132214288Y-82873314D01*
X132214288Y-82873314D02*
X132214288Y-82759028D01*
X132214288Y-82759028D02*
X132271431Y-82644742D01*
X132271431Y-82644742D02*
X132385717Y-82587600D01*
X132385717Y-82587600D02*
X132671431Y-82587600D01*
X132671431Y-82587600D02*
X132785717Y-82530457D01*
X133528573Y-83044742D02*
X133414288Y-82987600D01*
X133414288Y-82987600D02*
X133357145Y-82873314D01*
X133357145Y-82873314D02*
X133357145Y-81844742D01*
X133985716Y-82587600D02*
X134900002Y-82587600D01*
X136157144Y-82930457D02*
X136100001Y-82987600D01*
X136100001Y-82987600D02*
X135928573Y-83044742D01*
X135928573Y-83044742D02*
X135814287Y-83044742D01*
X135814287Y-83044742D02*
X135642858Y-82987600D01*
X135642858Y-82987600D02*
X135528573Y-82873314D01*
X135528573Y-82873314D02*
X135471430Y-82759028D01*
X135471430Y-82759028D02*
X135414287Y-82530457D01*
X135414287Y-82530457D02*
X135414287Y-82359028D01*
X135414287Y-82359028D02*
X135471430Y-82130457D01*
X135471430Y-82130457D02*
X135528573Y-82016171D01*
X135528573Y-82016171D02*
X135642858Y-81901885D01*
X135642858Y-81901885D02*
X135814287Y-81844742D01*
X135814287Y-81844742D02*
X135928573Y-81844742D01*
X135928573Y-81844742D02*
X136100001Y-81901885D01*
X136100001Y-81901885D02*
X136157144Y-81959028D01*
X136671430Y-83044742D02*
X136671430Y-81844742D01*
X137185716Y-83044742D02*
X137185716Y-82416171D01*
X137185716Y-82416171D02*
X137128573Y-82301885D01*
X137128573Y-82301885D02*
X137014287Y-82244742D01*
X137014287Y-82244742D02*
X136842858Y-82244742D01*
X136842858Y-82244742D02*
X136728573Y-82301885D01*
X136728573Y-82301885D02*
X136671430Y-82359028D01*
X138271430Y-83044742D02*
X138271430Y-82416171D01*
X138271430Y-82416171D02*
X138214287Y-82301885D01*
X138214287Y-82301885D02*
X138100001Y-82244742D01*
X138100001Y-82244742D02*
X137871430Y-82244742D01*
X137871430Y-82244742D02*
X137757144Y-82301885D01*
X138271430Y-82987600D02*
X138157144Y-83044742D01*
X138157144Y-83044742D02*
X137871430Y-83044742D01*
X137871430Y-83044742D02*
X137757144Y-82987600D01*
X137757144Y-82987600D02*
X137700001Y-82873314D01*
X137700001Y-82873314D02*
X137700001Y-82759028D01*
X137700001Y-82759028D02*
X137757144Y-82644742D01*
X137757144Y-82644742D02*
X137871430Y-82587600D01*
X137871430Y-82587600D02*
X138157144Y-82587600D01*
X138157144Y-82587600D02*
X138271430Y-82530457D01*
X138842858Y-82244742D02*
X138842858Y-83044742D01*
X138842858Y-82359028D02*
X138900001Y-82301885D01*
X138900001Y-82301885D02*
X139014286Y-82244742D01*
X139014286Y-82244742D02*
X139185715Y-82244742D01*
X139185715Y-82244742D02*
X139300001Y-82301885D01*
X139300001Y-82301885D02*
X139357144Y-82416171D01*
X139357144Y-82416171D02*
X139357144Y-83044742D01*
X139928572Y-82244742D02*
X139928572Y-83044742D01*
X139928572Y-82359028D02*
X139985715Y-82301885D01*
X139985715Y-82301885D02*
X140100000Y-82244742D01*
X140100000Y-82244742D02*
X140271429Y-82244742D01*
X140271429Y-82244742D02*
X140385715Y-82301885D01*
X140385715Y-82301885D02*
X140442858Y-82416171D01*
X140442858Y-82416171D02*
X140442858Y-83044742D01*
X141471429Y-82987600D02*
X141357143Y-83044742D01*
X141357143Y-83044742D02*
X141128572Y-83044742D01*
X141128572Y-83044742D02*
X141014286Y-82987600D01*
X141014286Y-82987600D02*
X140957143Y-82873314D01*
X140957143Y-82873314D02*
X140957143Y-82416171D01*
X140957143Y-82416171D02*
X141014286Y-82301885D01*
X141014286Y-82301885D02*
X141128572Y-82244742D01*
X141128572Y-82244742D02*
X141357143Y-82244742D01*
X141357143Y-82244742D02*
X141471429Y-82301885D01*
X141471429Y-82301885D02*
X141528572Y-82416171D01*
X141528572Y-82416171D02*
X141528572Y-82530457D01*
X141528572Y-82530457D02*
X140957143Y-82644742D01*
X142214285Y-83044742D02*
X142100000Y-82987600D01*
X142100000Y-82987600D02*
X142042857Y-82873314D01*
X142042857Y-82873314D02*
X142042857Y-81844742D01*
X144157142Y-83044742D02*
X143585714Y-83044742D01*
X143585714Y-83044742D02*
X143585714Y-81844742D01*
X144728571Y-83044742D02*
X144614286Y-82987600D01*
X144614286Y-82987600D02*
X144557143Y-82930457D01*
X144557143Y-82930457D02*
X144500000Y-82816171D01*
X144500000Y-82816171D02*
X144500000Y-82473314D01*
X144500000Y-82473314D02*
X144557143Y-82359028D01*
X144557143Y-82359028D02*
X144614286Y-82301885D01*
X144614286Y-82301885D02*
X144728571Y-82244742D01*
X144728571Y-82244742D02*
X144900000Y-82244742D01*
X144900000Y-82244742D02*
X145014286Y-82301885D01*
X145014286Y-82301885D02*
X145071429Y-82359028D01*
X145071429Y-82359028D02*
X145128571Y-82473314D01*
X145128571Y-82473314D02*
X145128571Y-82816171D01*
X145128571Y-82816171D02*
X145071429Y-82930457D01*
X145071429Y-82930457D02*
X145014286Y-82987600D01*
X145014286Y-82987600D02*
X144900000Y-83044742D01*
X144900000Y-83044742D02*
X144728571Y-83044742D01*
X146157143Y-83044742D02*
X146157143Y-82416171D01*
X146157143Y-82416171D02*
X146100000Y-82301885D01*
X146100000Y-82301885D02*
X145985714Y-82244742D01*
X145985714Y-82244742D02*
X145757143Y-82244742D01*
X145757143Y-82244742D02*
X145642857Y-82301885D01*
X146157143Y-82987600D02*
X146042857Y-83044742D01*
X146042857Y-83044742D02*
X145757143Y-83044742D01*
X145757143Y-83044742D02*
X145642857Y-82987600D01*
X145642857Y-82987600D02*
X145585714Y-82873314D01*
X145585714Y-82873314D02*
X145585714Y-82759028D01*
X145585714Y-82759028D02*
X145642857Y-82644742D01*
X145642857Y-82644742D02*
X145757143Y-82587600D01*
X145757143Y-82587600D02*
X146042857Y-82587600D01*
X146042857Y-82587600D02*
X146157143Y-82530457D01*
X147242857Y-83044742D02*
X147242857Y-81844742D01*
X147242857Y-82987600D02*
X147128571Y-83044742D01*
X147128571Y-83044742D02*
X146899999Y-83044742D01*
X146899999Y-83044742D02*
X146785714Y-82987600D01*
X146785714Y-82987600D02*
X146728571Y-82930457D01*
X146728571Y-82930457D02*
X146671428Y-82816171D01*
X146671428Y-82816171D02*
X146671428Y-82473314D01*
X146671428Y-82473314D02*
X146728571Y-82359028D01*
X146728571Y-82359028D02*
X146785714Y-82301885D01*
X146785714Y-82301885D02*
X146899999Y-82244742D01*
X146899999Y-82244742D02*
X147128571Y-82244742D01*
X147128571Y-82244742D02*
X147242857Y-82301885D01*
X149414285Y-82930457D02*
X149357142Y-82987600D01*
X149357142Y-82987600D02*
X149185714Y-83044742D01*
X149185714Y-83044742D02*
X149071428Y-83044742D01*
X149071428Y-83044742D02*
X148899999Y-82987600D01*
X148899999Y-82987600D02*
X148785714Y-82873314D01*
X148785714Y-82873314D02*
X148728571Y-82759028D01*
X148728571Y-82759028D02*
X148671428Y-82530457D01*
X148671428Y-82530457D02*
X148671428Y-82359028D01*
X148671428Y-82359028D02*
X148728571Y-82130457D01*
X148728571Y-82130457D02*
X148785714Y-82016171D01*
X148785714Y-82016171D02*
X148899999Y-81901885D01*
X148899999Y-81901885D02*
X149071428Y-81844742D01*
X149071428Y-81844742D02*
X149185714Y-81844742D01*
X149185714Y-81844742D02*
X149357142Y-81901885D01*
X149357142Y-81901885D02*
X149414285Y-81959028D01*
X150099999Y-83044742D02*
X149985714Y-82987600D01*
X149985714Y-82987600D02*
X149928571Y-82930457D01*
X149928571Y-82930457D02*
X149871428Y-82816171D01*
X149871428Y-82816171D02*
X149871428Y-82473314D01*
X149871428Y-82473314D02*
X149928571Y-82359028D01*
X149928571Y-82359028D02*
X149985714Y-82301885D01*
X149985714Y-82301885D02*
X150099999Y-82244742D01*
X150099999Y-82244742D02*
X150271428Y-82244742D01*
X150271428Y-82244742D02*
X150385714Y-82301885D01*
X150385714Y-82301885D02*
X150442857Y-82359028D01*
X150442857Y-82359028D02*
X150499999Y-82473314D01*
X150499999Y-82473314D02*
X150499999Y-82816171D01*
X150499999Y-82816171D02*
X150442857Y-82930457D01*
X150442857Y-82930457D02*
X150385714Y-82987600D01*
X150385714Y-82987600D02*
X150271428Y-83044742D01*
X150271428Y-83044742D02*
X150099999Y-83044742D01*
X151014285Y-82244742D02*
X151014285Y-83044742D01*
X151014285Y-82359028D02*
X151071428Y-82301885D01*
X151071428Y-82301885D02*
X151185713Y-82244742D01*
X151185713Y-82244742D02*
X151357142Y-82244742D01*
X151357142Y-82244742D02*
X151471428Y-82301885D01*
X151471428Y-82301885D02*
X151528571Y-82416171D01*
X151528571Y-82416171D02*
X151528571Y-83044742D01*
X151928570Y-82244742D02*
X152385713Y-82244742D01*
X152099999Y-81844742D02*
X152099999Y-82873314D01*
X152099999Y-82873314D02*
X152157142Y-82987600D01*
X152157142Y-82987600D02*
X152271427Y-83044742D01*
X152271427Y-83044742D02*
X152385713Y-83044742D01*
X152785713Y-83044742D02*
X152785713Y-82244742D01*
X152785713Y-82473314D02*
X152842856Y-82359028D01*
X152842856Y-82359028D02*
X152899999Y-82301885D01*
X152899999Y-82301885D02*
X153014284Y-82244742D01*
X153014284Y-82244742D02*
X153128570Y-82244742D01*
X153699998Y-83044742D02*
X153585713Y-82987600D01*
X153585713Y-82987600D02*
X153528570Y-82930457D01*
X153528570Y-82930457D02*
X153471427Y-82816171D01*
X153471427Y-82816171D02*
X153471427Y-82473314D01*
X153471427Y-82473314D02*
X153528570Y-82359028D01*
X153528570Y-82359028D02*
X153585713Y-82301885D01*
X153585713Y-82301885D02*
X153699998Y-82244742D01*
X153699998Y-82244742D02*
X153871427Y-82244742D01*
X153871427Y-82244742D02*
X153985713Y-82301885D01*
X153985713Y-82301885D02*
X154042856Y-82359028D01*
X154042856Y-82359028D02*
X154099998Y-82473314D01*
X154099998Y-82473314D02*
X154099998Y-82816171D01*
X154099998Y-82816171D02*
X154042856Y-82930457D01*
X154042856Y-82930457D02*
X153985713Y-82987600D01*
X153985713Y-82987600D02*
X153871427Y-83044742D01*
X153871427Y-83044742D02*
X153699998Y-83044742D01*
X154785712Y-83044742D02*
X154671427Y-82987600D01*
X154671427Y-82987600D02*
X154614284Y-82873314D01*
X154614284Y-82873314D02*
X154614284Y-81844742D01*
X155414283Y-83044742D02*
X155299998Y-82987600D01*
X155299998Y-82987600D02*
X155242855Y-82873314D01*
X155242855Y-82873314D02*
X155242855Y-81844742D01*
X156328569Y-82987600D02*
X156214283Y-83044742D01*
X156214283Y-83044742D02*
X155985712Y-83044742D01*
X155985712Y-83044742D02*
X155871426Y-82987600D01*
X155871426Y-82987600D02*
X155814283Y-82873314D01*
X155814283Y-82873314D02*
X155814283Y-82416171D01*
X155814283Y-82416171D02*
X155871426Y-82301885D01*
X155871426Y-82301885D02*
X155985712Y-82244742D01*
X155985712Y-82244742D02*
X156214283Y-82244742D01*
X156214283Y-82244742D02*
X156328569Y-82301885D01*
X156328569Y-82301885D02*
X156385712Y-82416171D01*
X156385712Y-82416171D02*
X156385712Y-82530457D01*
X156385712Y-82530457D02*
X155814283Y-82644742D01*
X156899997Y-83044742D02*
X156899997Y-82244742D01*
X156899997Y-82473314D02*
X156957140Y-82359028D01*
X156957140Y-82359028D02*
X157014283Y-82301885D01*
X157014283Y-82301885D02*
X157128568Y-82244742D01*
X157128568Y-82244742D02*
X157242854Y-82244742D01*
%TO.C,J4*%
D13*
X157805000Y-116795000D02*
X157805000Y-118045000D01*
X158105000Y-119345000D02*
X158855000Y-119345000D01*
X158855000Y-119345000D02*
X158855000Y-122295000D01*
X158855000Y-122295000D02*
X161905000Y-122295000D01*
X159055000Y-116795000D02*
X157805000Y-116795000D01*
X164955000Y-119345000D02*
X164955000Y-122295000D01*
X164955000Y-122295000D02*
X161905000Y-122295000D01*
X165705000Y-119345000D02*
X164955000Y-119345000D01*
X158095000Y-117085000D02*
X165715000Y-117085000D01*
X165715000Y-123055000D01*
X158095000Y-123055000D01*
X158095000Y-117085000D01*
X158105000Y-117095000D02*
X159905000Y-117095000D01*
X159905000Y-117845000D01*
X158105000Y-117845000D01*
X158105000Y-117095000D01*
X161405000Y-117095000D02*
X162405000Y-117095000D01*
X162405000Y-117845000D01*
X161405000Y-117845000D01*
X161405000Y-117095000D01*
X163905000Y-117095000D02*
X165705000Y-117095000D01*
X165705000Y-117845000D01*
X163905000Y-117845000D01*
X163905000Y-117095000D01*
%TO.C,SW1*%
X167325000Y-119495000D02*
X167815000Y-119005000D01*
X167325000Y-122395000D02*
X167325000Y-119495000D01*
X167325000Y-122395000D02*
X167815000Y-122885000D01*
X171085000Y-118225000D02*
X169005000Y-118225000D01*
X171085000Y-123665000D02*
X169005000Y-123665000D01*
X172765000Y-119495000D02*
X172275000Y-119005000D01*
X172765000Y-122395000D02*
X172275000Y-122885000D01*
X172765000Y-122395000D02*
X172765000Y-119495000D01*
%TO.C,R5*%
X168071359Y-130865000D02*
X168378641Y-130865000D01*
X168071359Y-131625000D02*
X168378641Y-131625000D01*
%TO.C,C1*%
X172724420Y-113705000D02*
X173005580Y-113705000D01*
X172724420Y-114725000D02*
X173005580Y-114725000D01*
%TO.C,R10*%
X172627742Y-108592500D02*
X173102258Y-108592500D01*
X172627742Y-109637500D02*
X173102258Y-109637500D01*
%TO.C,R7*%
X150511359Y-130965000D02*
X150818641Y-130965000D01*
X150511359Y-131725000D02*
X150818641Y-131725000D01*
%TO.C,U1*%
X144480000Y-88740000D02*
X144480000Y-94550000D01*
X144480000Y-88740000D02*
X162700000Y-88740000D01*
X144480000Y-108660000D02*
X144480000Y-108960000D01*
X144480000Y-108960000D02*
X162700000Y-108960000D01*
X162700000Y-88740000D02*
X162700000Y-95240000D01*
X162700000Y-108660000D02*
X162700000Y-108960000D01*
X144490000Y-95250000D02*
X143990000Y-95250000D01*
X144490000Y-94750000D01*
X144490000Y-95250000D01*
G36*
X144490000Y-95250000D02*
G01*
X143990000Y-95250000D01*
X144490000Y-94750000D01*
X144490000Y-95250000D01*
G37*
%TO.C,LED1*%
X171380000Y-98180000D02*
X171380000Y-99650000D01*
X171380000Y-99650000D02*
X173665000Y-99650000D01*
X173665000Y-98180000D02*
X171380000Y-98180000D01*
%TO.C,R4*%
X154581359Y-130535000D02*
X154888641Y-130535000D01*
X154581359Y-131295000D02*
X154888641Y-131295000D01*
%TO.C,J2*%
X148995000Y-117075000D02*
X156235000Y-117075000D01*
X148995000Y-123295000D02*
X156235000Y-123295000D01*
X148995000Y-124395000D02*
X156235000Y-124395000D01*
X148995000Y-124915000D02*
X148995000Y-117075000D01*
X150565000Y-124915000D02*
X148995000Y-124915000D01*
X156235000Y-117075000D02*
X156235000Y-124915000D01*
X156235000Y-124915000D02*
X151165000Y-124915000D01*
X150865000Y-124915000D02*
X151305000Y-125525000D01*
X150425000Y-125525000D01*
X150865000Y-124915000D01*
G36*
X151305000Y-125525000D02*
G01*
X150425000Y-125525000D01*
X150865000Y-124915000D01*
X151305000Y-125525000D01*
G37*
%TO.C,C3*%
X172705000Y-127905580D02*
X172705000Y-127624420D01*
X173725000Y-127905580D02*
X173725000Y-127624420D01*
%TO.C,R9*%
X172627742Y-106042500D02*
X173102258Y-106042500D01*
X172627742Y-107087500D02*
X173102258Y-107087500D01*
%TO.C,TP2*%
X143541300Y-135800000D02*
G75*
G02*
X141641300Y-135800000I-950000J0D01*
G01*
X141641300Y-135800000D02*
G75*
G02*
X143541300Y-135800000I950000J0D01*
G01*
%TO.C,TP1*%
X139541300Y-135800000D02*
G75*
G02*
X137641300Y-135800000I-950000J0D01*
G01*
X137641300Y-135800000D02*
G75*
G02*
X139541300Y-135800000I950000J0D01*
G01*
%TO.C,R6*%
X147561359Y-130965000D02*
X147868641Y-130965000D01*
X147561359Y-131725000D02*
X147868641Y-131725000D01*
%TO.C,R11*%
X172627742Y-111142500D02*
X173102258Y-111142500D01*
X172627742Y-112187500D02*
X173102258Y-112187500D01*
%TO.C,U3*%
X149755000Y-126525000D02*
X151575000Y-126525000D01*
X149755000Y-126575000D02*
X149755000Y-126525000D01*
X149755000Y-129645000D02*
X149755000Y-129595000D01*
X151575000Y-126525000D02*
X151575000Y-126575000D01*
X151575000Y-129595000D02*
X151575000Y-129645000D01*
X151575000Y-129645000D02*
X149755000Y-129645000D01*
X149215000Y-126575000D02*
X148975000Y-126245000D01*
X149455000Y-126245000D01*
X149215000Y-126575000D01*
G36*
X149215000Y-126575000D02*
G01*
X148975000Y-126245000D01*
X149455000Y-126245000D01*
X149215000Y-126575000D01*
G37*
%TO.C,SW2*%
X159235000Y-130175000D02*
X159235000Y-128095000D01*
X160505000Y-126415000D02*
X160015000Y-126905000D01*
X160505000Y-126415000D02*
X163405000Y-126415000D01*
X160505000Y-131855000D02*
X160015000Y-131365000D01*
X160505000Y-131855000D02*
X163405000Y-131855000D01*
X163405000Y-126415000D02*
X163895000Y-126905000D01*
X163405000Y-131855000D02*
X163895000Y-131365000D01*
X164675000Y-130175000D02*
X164675000Y-128095000D01*
%TO.C,TP3*%
X147541300Y-135800000D02*
G75*
G02*
X145641300Y-135800000I-950000J0D01*
G01*
X145641300Y-135800000D02*
G75*
G02*
X147541300Y-135800000I950000J0D01*
G01*
%TO.C,LED2*%
X171380000Y-100730000D02*
X171380000Y-102200000D01*
X171380000Y-102200000D02*
X173665000Y-102200000D01*
X173665000Y-100730000D02*
X171380000Y-100730000D01*
%TO.C,PC1*%
X171435000Y-90295000D02*
X171585000Y-90295000D01*
X171435000Y-95095000D02*
X171435000Y-90295000D01*
X171585000Y-95095000D02*
X171435000Y-95095000D01*
X174085000Y-90295000D02*
X174235000Y-90295000D01*
X174235000Y-90295000D02*
X174235000Y-95095000D01*
X174235000Y-95095000D02*
X174085000Y-95095000D01*
X171585000Y-95945000D02*
X171255000Y-96185000D01*
X171255000Y-95705000D01*
X171585000Y-95945000D01*
G36*
X171585000Y-95945000D02*
G01*
X171255000Y-96185000D01*
X171255000Y-95705000D01*
X171585000Y-95945000D01*
G37*
%TO.C,Q1*%
X138055000Y-127345000D02*
X139575000Y-127345000D01*
X138055000Y-127395000D02*
X138055000Y-127345000D01*
X138055000Y-129295000D02*
X138055000Y-128515000D01*
X138055000Y-130465000D02*
X138055000Y-130415000D01*
X139575000Y-127345000D02*
X139575000Y-128345000D01*
X139575000Y-129465000D02*
X139575000Y-130465000D01*
X139575000Y-130465000D02*
X138055000Y-130465000D01*
X137515000Y-128525000D02*
X137755000Y-128855000D01*
X137275000Y-128855000D01*
X137515000Y-128525000D01*
G36*
X137755000Y-128855000D02*
G01*
X137275000Y-128855000D01*
X137515000Y-128525000D01*
X137755000Y-128855000D01*
G37*
%TO.C,J1*%
X137505000Y-120065000D02*
X137505000Y-122065000D01*
X137505000Y-123965000D02*
X137505000Y-125865000D01*
X137505000Y-125865000D02*
X146905000Y-125865000D01*
X146905000Y-120065000D02*
X146905000Y-122065000D01*
X146905000Y-123965000D02*
X146905000Y-125865000D01*
%TO.C,R1*%
X154581359Y-126475000D02*
X154888641Y-126475000D01*
X154581359Y-127235000D02*
X154888641Y-127235000D01*
%TO.C,J3*%
X106675000Y-91675000D02*
X114515000Y-91675000D01*
X106675000Y-102415000D02*
X106675000Y-91675000D01*
X112895000Y-102415000D02*
X112895000Y-91675000D01*
X113995000Y-102415000D02*
X113995000Y-91675000D01*
X114515000Y-91675000D02*
X114515000Y-100245000D01*
X114515000Y-100845000D02*
X114515000Y-102415000D01*
X114515000Y-102415000D02*
X106675000Y-102415000D01*
X114515000Y-100545000D02*
X115125000Y-100105000D01*
X115125000Y-100985000D01*
X114515000Y-100545000D01*
G36*
X115125000Y-100985000D02*
G01*
X114515000Y-100545000D01*
X115125000Y-100105000D01*
X115125000Y-100985000D01*
G37*
%TO.C,LED3*%
X171380000Y-103280000D02*
X171380000Y-104750000D01*
X171380000Y-104750000D02*
X173665000Y-104750000D01*
X173665000Y-103280000D02*
X171380000Y-103280000D01*
%TO.C,R3*%
X173261359Y-130425000D02*
X173568641Y-130425000D01*
X173261359Y-131185000D02*
X173568641Y-131185000D01*
%TO.C,U2*%
X168435000Y-126425000D02*
X170255000Y-126425000D01*
X168435000Y-126475000D02*
X168435000Y-126425000D01*
X168435000Y-129545000D02*
X168435000Y-129495000D01*
X170255000Y-126425000D02*
X170255000Y-126475000D01*
X170255000Y-127595000D02*
X170255000Y-128375000D01*
X170255000Y-129495000D02*
X170255000Y-129545000D01*
X170255000Y-129545000D02*
X168435000Y-129545000D01*
X167895000Y-126475000D02*
X167655000Y-126145000D01*
X168135000Y-126145000D01*
X167895000Y-126475000D01*
G36*
X167895000Y-126475000D02*
G01*
X167655000Y-126145000D01*
X168135000Y-126145000D01*
X167895000Y-126475000D01*
G37*
%TO.C,R2*%
X154581359Y-128505000D02*
X154888641Y-128505000D01*
X154581359Y-129265000D02*
X154888641Y-129265000D01*
%TO.C,K1*%
X121535000Y-109675000D02*
X121535000Y-88535000D01*
X123225000Y-105455000D02*
X123225000Y-106725000D01*
X126015000Y-104945000D02*
X128555000Y-104945000D01*
X126015000Y-105455000D02*
X123225000Y-105455000D01*
X126015000Y-105455000D02*
X126015000Y-104945000D01*
X126015000Y-105965000D02*
X126015000Y-105455000D01*
X127035000Y-92755000D02*
X125635000Y-89965000D01*
X127035000Y-97835000D02*
X127035000Y-92755000D01*
X127795000Y-105965000D02*
X126785000Y-104945000D01*
X128555000Y-104945000D02*
X128555000Y-105455000D01*
X128555000Y-105455000D02*
X128555000Y-105965000D01*
X128555000Y-105965000D02*
X126015000Y-105965000D01*
X129575000Y-90215000D02*
X128305000Y-90215000D01*
X129575000Y-97835000D02*
X127035000Y-97835000D01*
X130845000Y-105455000D02*
X128555000Y-105455000D01*
X130845000Y-106725000D02*
X130845000Y-105455000D01*
X132535000Y-88535000D02*
X121535000Y-88535000D01*
X132535000Y-109675000D02*
X121535000Y-109675000D01*
X132535000Y-109675000D02*
X132535000Y-88535000D01*
X127165000Y-92755000D02*
G75*
G02*
X126905000Y-92755000I-130000J0D01*
G01*
X126905000Y-92755000D02*
G75*
G02*
X127165000Y-92755000I130000J0D01*
G01*
%TO.C,Q2*%
X143005000Y-127345000D02*
X144525000Y-127345000D01*
X143005000Y-127395000D02*
X143005000Y-127345000D01*
X143005000Y-129295000D02*
X143005000Y-128515000D01*
X143005000Y-130465000D02*
X143005000Y-130415000D01*
X144525000Y-127345000D02*
X144525000Y-128345000D01*
X144525000Y-129465000D02*
X144525000Y-130465000D01*
X144525000Y-130465000D02*
X143005000Y-130465000D01*
X142465000Y-128525000D02*
X142705000Y-128855000D01*
X142225000Y-128855000D01*
X142465000Y-128525000D01*
G36*
X142705000Y-128855000D02*
G01*
X142225000Y-128855000D01*
X142465000Y-128525000D01*
X142705000Y-128855000D01*
G37*
%TD*%
M02*
