%TF.GenerationSoftware,KiCad,Pcbnew,10.0.5*%
%TF.CreationDate,2026-08-03T03:26:34-07:00*%
%TF.ProjectId,cv-duo,63762d64-756f-42e6-9b69-6361645f7063,rev?*%
%TF.SameCoordinates,Original*%
%TF.FileFunction,Copper,L2,Bot*%
%TF.FilePolarity,Positive*%
%FSLAX46Y46*%
G04 Gerber Fmt 4.6, Leading zero omitted, Abs format (unit mm)*
G04 Created by KiCad (PCBNEW 10.0.5) date 2026-08-03 03:26:34*
%MOMM*%
%LPD*%
G01*
G04 APERTURE LIST*
G04 Aperture macros list*
%AMRoundRect*
0 Rectangle with rounded corners*
0 $1 Rounding radius*
0 $2 $3 $4 $5 $6 $7 $8 $9 X,Y pos of 4 corners*
0 Add a 4 corners polygon primitive as box body*
4,1,4,$2,$3,$4,$5,$6,$7,$8,$9,$2,$3,0*
0 Add four circle primitives for the rounded corners*
1,1,$1+$1,$2,$3*
1,1,$1+$1,$4,$5*
1,1,$1+$1,$6,$7*
1,1,$1+$1,$8,$9*
0 Add four rect primitives between the rounded corners*
20,1,$1+$1,$2,$3,$4,$5,0*
20,1,$1+$1,$4,$5,$6,$7,0*
20,1,$1+$1,$6,$7,$8,$9,0*
20,1,$1+$1,$8,$9,$2,$3,0*%
G04 Aperture macros list end*
%TA.AperFunction,ComponentPad*%
%ADD10RoundRect,0.250000X-0.600000X-0.750000X0.600000X-0.750000X0.600000X0.750000X-0.600000X0.750000X0*%
%TD*%
%TA.AperFunction,ComponentPad*%
%ADD11O,1.700000X2.000000*%
%TD*%
%TA.AperFunction,HeatsinkPad*%
%ADD12C,0.600000*%
%TD*%
%TA.AperFunction,ComponentPad*%
%ADD13RoundRect,0.250001X-0.949999X-0.949999X0.949999X-0.949999X0.949999X0.949999X-0.949999X0.949999X0*%
%TD*%
%TA.AperFunction,ComponentPad*%
%ADD14C,2.400000*%
%TD*%
%TA.AperFunction,ComponentPad*%
%ADD15O,1.000000X2.100000*%
%TD*%
%TA.AperFunction,ComponentPad*%
%ADD16O,1.000000X1.600000*%
%TD*%
%TA.AperFunction,ComponentPad*%
%ADD17RoundRect,0.250001X0.949999X-0.949999X0.949999X0.949999X-0.949999X0.949999X-0.949999X-0.949999X0*%
%TD*%
%TA.AperFunction,ComponentPad*%
%ADD18R,2.300000X2.300000*%
%TD*%
%TA.AperFunction,ComponentPad*%
%ADD19C,2.300000*%
%TD*%
%TA.AperFunction,SMDPad,CuDef*%
%ADD20RoundRect,0.250000X1.000000X0.650000X-1.000000X0.650000X-1.000000X-0.650000X1.000000X-0.650000X0*%
%TD*%
%TA.AperFunction,SMDPad,CuDef*%
%ADD21RoundRect,0.135000X0.135000X0.185000X-0.135000X0.185000X-0.135000X-0.185000X0.135000X-0.185000X0*%
%TD*%
%TA.AperFunction,SMDPad,CuDef*%
%ADD22RoundRect,0.140000X0.140000X0.170000X-0.140000X0.170000X-0.140000X-0.170000X0.140000X-0.170000X0*%
%TD*%
%TA.AperFunction,ViaPad*%
%ADD23C,0.600000*%
%TD*%
%TA.AperFunction,ViaPad*%
%ADD24C,0.800000*%
%TD*%
%TA.AperFunction,Conductor*%
%ADD25C,0.500000*%
%TD*%
%TA.AperFunction,Conductor*%
%ADD26C,0.200000*%
%TD*%
G04 APERTURE END LIST*
D10*
%TO.P,J4,1*%
%TO.N,+5V*%
X160655000Y-119545000D03*
D11*
%TO.P,J4,2*%
%TO.N,PULSE_OUT*%
X163155000Y-119545000D03*
%TD*%
D12*
%TO.P,U1,19*%
%TO.N,GND*%
X153450000Y-101600000D03*
X153450000Y-102700000D03*
X154000000Y-101050000D03*
X154000000Y-102150000D03*
X154000000Y-103250000D03*
X154550000Y-101600000D03*
X154550000Y-102700000D03*
X155100000Y-101050000D03*
X155100000Y-102150000D03*
X155100000Y-103250000D03*
X155650000Y-101600000D03*
X155650000Y-102700000D03*
%TD*%
D13*
%TO.P,J2,1*%
%TO.N,VIN_EXT*%
X150865000Y-120295000D03*
D14*
%TO.P,J2,2*%
%TO.N,GND*%
X154365000Y-120295000D03*
%TD*%
D15*
%TO.P,J1,SH*%
%TO.N,GND*%
X137885000Y-118835000D03*
D16*
X137885000Y-123015000D03*
D15*
X146525000Y-118835000D03*
D16*
X146525000Y-123015000D03*
%TD*%
D17*
%TO.P,J3,1*%
%TO.N,LOAD_COM*%
X109895000Y-100545000D03*
D14*
%TO.P,J3,2*%
%TO.N,LOAD_NO*%
X109895000Y-97045000D03*
%TO.P,J3,3*%
%TO.N,PE*%
X109895000Y-93545000D03*
%TD*%
D18*
%TO.P,K1,1*%
%TO.N,+5V*%
X130845000Y-107995000D03*
D19*
%TO.P,K1,2*%
%TO.N,LOAD_COM*%
X130845000Y-97835000D03*
%TO.P,K1,3*%
%TO.N,LOAD_NO*%
X130845000Y-90215000D03*
%TO.P,K1,5*%
%TO.N,RELAY_COIL*%
X123225000Y-107995000D03*
%TD*%
D20*
%TO.P,D4,1*%
%TO.N,+5V*%
X150475000Y-130280000D03*
%TO.P,D4,2*%
%TO.N,PULSE_OUT*%
X146475000Y-130280000D03*
%TD*%
%TO.P,D1,1*%
%TO.N,+5V*%
X153570000Y-125690000D03*
%TO.P,D1,2*%
%TO.N,VBUS*%
X149570000Y-125690000D03*
%TD*%
%TO.P,D3,1*%
%TO.N,+5V*%
X142385000Y-128410000D03*
%TO.P,D3,2*%
%TO.N,RELAY_COIL*%
X138385000Y-128410000D03*
%TD*%
D21*
%TO.P,R8,1*%
%TO.N,PULSE_GATE*%
X172825000Y-88765000D03*
%TO.P,R8,2*%
%TO.N,GND*%
X171805000Y-88765000D03*
%TD*%
D20*
%TO.P,D2,1*%
%TO.N,+5V*%
X172795000Y-128035000D03*
%TO.P,D2,2*%
%TO.N,VIN_EXT*%
X168795000Y-128035000D03*
%TD*%
D22*
%TO.P,C5,1*%
%TO.N,+3V3*%
X172775000Y-94805000D03*
%TO.P,C5,2*%
%TO.N,GND*%
X171815000Y-94805000D03*
%TD*%
%TO.P,C4,1*%
%TO.N,+3V3*%
X172775000Y-92795000D03*
%TO.P,C4,2*%
%TO.N,GND*%
X171815000Y-92795000D03*
%TD*%
%TO.P,C2,1*%
%TO.N,+5V*%
X172775000Y-90785000D03*
%TO.P,C2,2*%
%TO.N,GND*%
X171815000Y-90785000D03*
%TD*%
%TO.P,C6,1*%
%TO.N,EN*%
X172775000Y-96815000D03*
%TO.P,C6,2*%
%TO.N,GND*%
X171815000Y-96815000D03*
%TD*%
D23*
%TO.N,+5V*%
X141590600Y-126790000D03*
X170537900Y-125833700D03*
X167894900Y-130080000D03*
%TO.N,PULSE_OUT*%
X144372800Y-129802900D03*
%TO.N,EN*%
X146613500Y-98587700D03*
X173094000Y-107840000D03*
D24*
%TO.N,GND*%
X151340000Y-86250000D03*
X168840000Y-107250000D03*
X165340000Y-100250000D03*
X154840000Y-82750000D03*
X137340000Y-82750000D03*
X161840000Y-131750000D03*
X175840000Y-96750000D03*
X158340000Y-110750000D03*
X144340000Y-124750000D03*
X158340000Y-86250000D03*
X140840000Y-93250000D03*
X148475000Y-118835000D03*
X165340000Y-114250000D03*
X137340000Y-131750000D03*
X175840000Y-114250000D03*
X165340000Y-110750000D03*
X168840000Y-110750000D03*
X170605000Y-96815000D03*
X154840000Y-100250000D03*
X140840000Y-131750000D03*
X158340000Y-107250000D03*
X158340000Y-114250000D03*
X161840000Y-110750000D03*
X170202000Y-104015000D03*
X161840000Y-135250000D03*
X175840000Y-103750000D03*
X154840000Y-135250000D03*
X140840000Y-82750000D03*
X165340000Y-103750000D03*
X168840000Y-86250000D03*
X154840000Y-117750000D03*
X170202000Y-101465000D03*
X145455000Y-115795000D03*
X154840000Y-86250000D03*
X137340000Y-93250000D03*
X140840000Y-121250000D03*
X175840000Y-86250000D03*
X161840000Y-86250000D03*
X137340000Y-103750000D03*
X161840000Y-82750000D03*
X140840000Y-96750000D03*
X175840000Y-89750000D03*
X168840000Y-100250000D03*
X158340000Y-117750000D03*
X158340000Y-82750000D03*
X168840000Y-82750000D03*
X168840000Y-135250000D03*
X165340000Y-82750000D03*
X165340000Y-93250000D03*
X147840000Y-82750000D03*
X158340000Y-135250000D03*
X173695000Y-124045000D03*
X147840000Y-96750000D03*
X175840000Y-117750000D03*
X148741000Y-135800000D03*
X148225000Y-133065000D03*
X147465000Y-128085000D03*
X175840000Y-128250000D03*
X151340000Y-110750000D03*
X140840000Y-107250000D03*
X147840000Y-86250000D03*
X173695000Y-117845000D03*
X165340000Y-121250000D03*
X172340000Y-82750000D03*
X154840000Y-96750000D03*
X168840000Y-93250000D03*
X158340000Y-121250000D03*
X140840000Y-110750000D03*
X151340000Y-114250000D03*
X147840000Y-100250000D03*
X161840000Y-128250000D03*
X159142114Y-124605000D03*
X137340000Y-110750000D03*
X165055000Y-132785000D03*
X165340000Y-135250000D03*
X172340000Y-86250000D03*
X165340000Y-89750000D03*
X161840000Y-114250000D03*
X168840000Y-89750000D03*
X158340000Y-96750000D03*
X144340000Y-121250000D03*
X147840000Y-114250000D03*
X144340000Y-110750000D03*
X157756473Y-125405000D03*
X154840000Y-107250000D03*
X137885000Y-120785000D03*
X137340000Y-89750000D03*
X158340000Y-124750000D03*
X165340000Y-107250000D03*
X168840000Y-96750000D03*
X161840000Y-124750000D03*
X170605000Y-92795000D03*
X175840000Y-110750000D03*
X144840000Y-109600000D03*
X147840000Y-110750000D03*
X144340000Y-82750000D03*
X168840000Y-114250000D03*
X147840000Y-103750000D03*
X158855000Y-132785000D03*
X175840000Y-82750000D03*
X147840000Y-121250000D03*
X175840000Y-124750000D03*
X151340000Y-100250000D03*
X165340000Y-96750000D03*
X174528000Y-125678000D03*
X151340000Y-117750000D03*
X151340000Y-103750000D03*
X165340000Y-86250000D03*
X137340000Y-107250000D03*
X140840000Y-100250000D03*
X165340000Y-124750000D03*
X154840000Y-110750000D03*
X154840000Y-114250000D03*
X156465000Y-128885000D03*
X158340000Y-100250000D03*
X140840000Y-114250000D03*
X172340000Y-121250000D03*
X175840000Y-93250000D03*
X137340000Y-96750000D03*
X140840000Y-89750000D03*
X168840000Y-103750000D03*
X151340000Y-96750000D03*
X175840000Y-107250000D03*
X142828000Y-131492000D03*
X140840000Y-103750000D03*
X137340000Y-114250000D03*
X147840000Y-107250000D03*
X140840000Y-124750000D03*
X140840000Y-86250000D03*
X175840000Y-121250000D03*
X151340000Y-107250000D03*
X151340000Y-135250000D03*
X175840000Y-131750000D03*
X137340000Y-86250000D03*
X151340000Y-82750000D03*
X144340000Y-114250000D03*
X158340000Y-103750000D03*
X175840000Y-100250000D03*
X144340000Y-86250000D03*
X138955000Y-115795000D03*
D23*
%TO.N,RELAY_CTL*%
X167492400Y-125508000D03*
X163920000Y-124628100D03*
%TO.N,RELAY_OPT*%
X174520000Y-129732500D03*
X169542000Y-130448100D03*
%TO.N,RELAY_LED*%
X172514500Y-110390000D03*
X146602900Y-101729400D03*
%TO.N,RELAY_LED_A*%
X173717400Y-110163600D03*
X174684300Y-105350700D03*
%TO.N,PULSE_PWM*%
X146156400Y-128671600D03*
X143548000Y-115741500D03*
%TO.N,PULSE_GATE*%
X140527900Y-90707800D03*
%TO.N,+3V3*%
X173964200Y-92882700D03*
%TO.N,PULSE_LED*%
X147527900Y-104922300D03*
X171515000Y-107840000D03*
%TO.N,USB_D_P*%
X144184400Y-119865100D03*
X164495000Y-108403900D03*
%TO.N,RELAY_GATE*%
X171991800Y-131710700D03*
X146362500Y-132831200D03*
%TO.N,VBUS*%
X151354400Y-125113000D03*
X140347500Y-119530000D03*
X143498700Y-119472300D03*
%TO.N,RELAY_COIL*%
X140385000Y-128130200D03*
%TD*%
%TO.N,+5V*%
D25*
X156053900Y-129775200D02*
X153516900Y-127238100D01*
X172795000Y-128035000D02*
X170593700Y-125833700D01*
X141590600Y-126790000D02*
X142385000Y-127584400D01*
X171133600Y-129696400D02*
X167973700Y-129696400D01*
X153570000Y-125690000D02*
X153570000Y-127185000D01*
X142385000Y-128878100D02*
X142385000Y-128410000D01*
X153570000Y-127185000D02*
X153516900Y-127238100D01*
X149105100Y-131649900D02*
X145156800Y-131649900D01*
X167973700Y-129696400D02*
X167894900Y-129775200D01*
X155149300Y-125690000D02*
X153570000Y-125690000D01*
X167894900Y-129775200D02*
X156053900Y-129775200D01*
X153516900Y-127238100D02*
X150475000Y-130280000D01*
X142385000Y-127584400D02*
X142385000Y-128410000D01*
X170593700Y-125833700D02*
X170537900Y-125833700D01*
X150475000Y-130280000D02*
X149105100Y-131649900D01*
X172795000Y-128035000D02*
X171133600Y-129696400D01*
X160655000Y-119545000D02*
X160655000Y-120184300D01*
X145156800Y-131649900D02*
X142385000Y-128878100D01*
X160655000Y-120184300D02*
X155149300Y-125690000D01*
X167894900Y-129775200D02*
X167894900Y-130080000D01*
%TO.N,PULSE_OUT*%
D26*
X147419500Y-130280000D02*
X151906100Y-125793400D01*
X159686500Y-118238200D02*
X161493800Y-118238200D01*
X144849900Y-130280000D02*
X146475000Y-130280000D01*
X146475000Y-130280000D02*
X147419500Y-130280000D01*
X151906100Y-124903600D02*
X155189700Y-121620000D01*
X162053300Y-118797700D02*
X162053300Y-119545000D01*
X144372800Y-129802900D02*
X144849900Y-130280000D01*
X155189700Y-121620000D02*
X156304700Y-121620000D01*
X156304700Y-121620000D02*
X159686500Y-118238200D01*
X163155000Y-119545000D02*
X162053300Y-119545000D01*
X151906100Y-125793400D02*
X151906100Y-124903600D01*
X161493800Y-118238200D02*
X162053300Y-118797700D01*
%TO.N,EN*%
X171002300Y-98587700D02*
X173094000Y-100679400D01*
X173094000Y-100679400D02*
X173094000Y-107840000D01*
X146613500Y-98587700D02*
X171002300Y-98587700D01*
X171002300Y-98587700D02*
X172775000Y-96815000D01*
%TO.N,RELAY_CTL*%
X164799800Y-125507900D02*
X167492400Y-125507900D01*
X163920000Y-124628100D02*
X164799800Y-125507900D01*
%TO.N,RELAY_OPT*%
X169542000Y-130448100D02*
X173804400Y-130448100D01*
X173804400Y-130448100D02*
X174520000Y-129732500D01*
%TO.N,RELAY_LED*%
X168989900Y-104465200D02*
X153047600Y-104465200D01*
X172514500Y-110390000D02*
X172514500Y-107989800D01*
X150311800Y-101729400D02*
X146602900Y-101729400D01*
X153047600Y-104465200D02*
X150311800Y-101729400D01*
X172514500Y-107989800D02*
X168989900Y-104465200D01*
%TO.N,RELAY_LED_A*%
X174684300Y-109196700D02*
X173717400Y-110163600D01*
X174684300Y-105350700D02*
X174684300Y-109196700D01*
%TO.N,PULSE_PWM*%
X137041300Y-120963800D02*
X137041300Y-117961200D01*
X139184800Y-121700000D02*
X137777500Y-121700000D01*
X138414800Y-116587700D02*
X142701800Y-116587700D01*
X137777500Y-121700000D02*
X137041300Y-120963800D01*
X146156400Y-128671600D02*
X139184800Y-121700000D01*
X142701800Y-116587700D02*
X143548000Y-115741500D01*
X137041300Y-117961200D02*
X138414800Y-116587700D01*
%TO.N,PULSE_GATE*%
X172184600Y-89405400D02*
X170939600Y-89405400D01*
X141303300Y-90707800D02*
X140527900Y-90707800D01*
X172825000Y-88765000D02*
X172184600Y-89405400D01*
X143770400Y-88240700D02*
X141303300Y-90707800D01*
X169774900Y-88240700D02*
X143770400Y-88240700D01*
X170939600Y-89405400D02*
X169774900Y-88240700D01*
%TO.N,+3V3*%
D25*
X172862700Y-92882700D02*
X173964200Y-92882700D01*
X172775000Y-92795000D02*
X172775000Y-94805000D01*
X172775000Y-92795000D02*
X172862700Y-92882700D01*
%TO.N,PULSE_LED*%
D26*
X150557300Y-107951700D02*
X147527900Y-104922300D01*
X164266600Y-107852200D02*
X164167100Y-107951700D01*
X164823000Y-107951700D02*
X164723500Y-107852200D01*
X164723500Y-107852200D02*
X164266600Y-107852200D01*
X171515000Y-107840000D02*
X171403300Y-107951700D01*
X164167100Y-107951700D02*
X150557300Y-107951700D01*
X171403300Y-107951700D02*
X164823000Y-107951700D01*
%TO.N,USB_D_P*%
X154915900Y-108403900D02*
X144184400Y-119135400D01*
X164495000Y-108403900D02*
X154915900Y-108403900D01*
X144184400Y-119135400D02*
X144184400Y-119865100D01*
%TO.N,VIN_EXT*%
X168795000Y-128035000D02*
X168795000Y-123371600D01*
X152413600Y-118746400D02*
X150865000Y-120295000D01*
X163308200Y-117884800D02*
X159456000Y-117884800D01*
X159456000Y-117884800D02*
X158594400Y-118746400D01*
X168795000Y-123371600D02*
X163308200Y-117884800D01*
X158594400Y-118746400D02*
X152413600Y-118746400D01*
%TO.N,RELAY_GATE*%
X146992100Y-132201600D02*
X146362500Y-132831200D01*
X157434400Y-132201600D02*
X146992100Y-132201600D01*
X171308700Y-131027600D02*
X158608400Y-131027600D01*
X158608400Y-131027600D02*
X157434400Y-132201600D01*
X171991800Y-131710700D02*
X171308700Y-131027600D01*
%TO.N,VBUS*%
X146507500Y-125690000D02*
X140347500Y-119530000D01*
X151354400Y-125113000D02*
X150147000Y-125113000D01*
X140347500Y-119530000D02*
X143441000Y-119530000D01*
X150147000Y-125113000D02*
X149570000Y-125690000D01*
X149570000Y-125690000D02*
X146507500Y-125690000D01*
X143441000Y-119530000D02*
X143498700Y-119472300D01*
%TO.N,RELAY_COIL*%
X133135200Y-107479200D02*
X132199300Y-106543300D01*
X133135200Y-121084400D02*
X133135200Y-107479200D01*
X139422900Y-127372100D02*
X133135200Y-121084400D01*
X138385000Y-128410000D02*
X139422900Y-127372100D01*
X132199300Y-106543300D02*
X124676700Y-106543300D01*
X139422900Y-127372100D02*
X140181000Y-128130200D01*
X124676700Y-106543300D02*
X123225000Y-107995000D01*
X140181000Y-128130200D02*
X140385000Y-128130200D01*
%TD*%
%TA.AperFunction,Conductor*%
%TO.N,GND*%
G36*
X176316943Y-81019685D02*
G01*
X176326377Y-81026389D01*
X176451573Y-81124474D01*
X176462781Y-81134404D01*
X176665596Y-81337219D01*
X176675525Y-81348426D01*
X176773611Y-81473623D01*
X176799460Y-81538532D01*
X176800000Y-81550094D01*
X176800000Y-138849903D01*
X176780315Y-138916942D01*
X176773611Y-138926376D01*
X176675525Y-139051573D01*
X176665595Y-139062781D01*
X176462781Y-139265595D01*
X176451574Y-139275524D01*
X176326378Y-139373610D01*
X176261466Y-139399460D01*
X176249904Y-139400000D01*
X135714000Y-139400000D01*
X135646961Y-139380315D01*
X135601206Y-139327511D01*
X135590000Y-139276000D01*
X135590000Y-136281995D01*
X171998200Y-136281995D01*
X171998200Y-136518004D01*
X171998201Y-136518020D01*
X172029006Y-136752010D01*
X172090094Y-136979993D01*
X172180414Y-137198045D01*
X172180419Y-137198056D01*
X172251377Y-137320957D01*
X172298427Y-137402450D01*
X172298429Y-137402453D01*
X172298430Y-137402454D01*
X172442106Y-137589697D01*
X172442112Y-137589704D01*
X172608995Y-137756587D01*
X172609001Y-137756592D01*
X172796250Y-137900273D01*
X172927618Y-137976118D01*
X173000643Y-138018280D01*
X173000648Y-138018282D01*
X173000651Y-138018284D01*
X173218707Y-138108606D01*
X173446686Y-138169693D01*
X173680689Y-138200500D01*
X173680696Y-138200500D01*
X173916704Y-138200500D01*
X173916711Y-138200500D01*
X174150714Y-138169693D01*
X174378693Y-138108606D01*
X174596749Y-138018284D01*
X174801150Y-137900273D01*
X174988399Y-137756592D01*
X175155292Y-137589699D01*
X175298973Y-137402450D01*
X175416984Y-137198049D01*
X175507306Y-136979993D01*
X175568393Y-136752014D01*
X175599200Y-136518011D01*
X175599200Y-136281989D01*
X175568393Y-136047986D01*
X175507306Y-135820007D01*
X175416984Y-135601951D01*
X175416982Y-135601948D01*
X175416980Y-135601943D01*
X175374818Y-135528918D01*
X175298973Y-135397550D01*
X175155292Y-135210301D01*
X175155287Y-135210295D01*
X174988404Y-135043412D01*
X174988397Y-135043406D01*
X174801154Y-134899730D01*
X174801153Y-134899729D01*
X174801150Y-134899727D01*
X174719657Y-134852677D01*
X174596756Y-134781719D01*
X174596745Y-134781714D01*
X174378693Y-134691394D01*
X174150710Y-134630306D01*
X173916720Y-134599501D01*
X173916717Y-134599500D01*
X173916711Y-134599500D01*
X173680689Y-134599500D01*
X173680683Y-134599500D01*
X173680679Y-134599501D01*
X173446689Y-134630306D01*
X173218706Y-134691394D01*
X173000654Y-134781714D01*
X173000643Y-134781719D01*
X172796245Y-134899730D01*
X172609002Y-135043406D01*
X172608995Y-135043412D01*
X172442112Y-135210295D01*
X172442106Y-135210302D01*
X172298430Y-135397545D01*
X172180419Y-135601943D01*
X172180414Y-135601954D01*
X172090094Y-135820006D01*
X172029006Y-136047989D01*
X171998201Y-136281979D01*
X171998200Y-136281995D01*
X135590000Y-136281995D01*
X135590000Y-124687797D01*
X135609685Y-124620758D01*
X135662489Y-124575003D01*
X135731647Y-124565059D01*
X135795203Y-124594084D01*
X135801672Y-124600108D01*
X136956417Y-125754853D01*
X137999383Y-126797819D01*
X138032868Y-126859142D01*
X138027884Y-126928834D01*
X137986012Y-126984767D01*
X137920548Y-127009184D01*
X137911702Y-127009500D01*
X137334998Y-127009500D01*
X137334980Y-127009501D01*
X137232203Y-127020000D01*
X137232200Y-127020001D01*
X137065668Y-127075185D01*
X137065663Y-127075187D01*
X136916342Y-127167289D01*
X136792289Y-127291342D01*
X136700187Y-127440663D01*
X136700186Y-127440666D01*
X136645001Y-127607203D01*
X136645001Y-127607204D01*
X136645000Y-127607204D01*
X136634500Y-127709983D01*
X136634500Y-129110001D01*
X136634501Y-129110018D01*
X136645000Y-129212796D01*
X136645001Y-129212799D01*
X136648119Y-129222207D01*
X136700186Y-129379334D01*
X136792288Y-129528656D01*
X136916344Y-129652712D01*
X137065666Y-129744814D01*
X137232203Y-129799999D01*
X137334991Y-129810500D01*
X139435008Y-129810499D01*
X139537797Y-129799999D01*
X139704334Y-129744814D01*
X139853656Y-129652712D01*
X139977712Y-129528656D01*
X140069814Y-129379334D01*
X140124999Y-129212797D01*
X140135500Y-129110009D01*
X140135500Y-129047846D01*
X140155183Y-128980810D01*
X140207986Y-128935054D01*
X140277144Y-128925110D01*
X140283684Y-128926229D01*
X140295081Y-128928496D01*
X140306157Y-128930700D01*
X140306158Y-128930700D01*
X140463842Y-128930700D01*
X140486308Y-128926231D01*
X140555898Y-128932457D01*
X140611076Y-128975319D01*
X140634322Y-129041208D01*
X140634500Y-129047846D01*
X140634500Y-129110000D01*
X140634501Y-129110019D01*
X140645000Y-129212796D01*
X140645001Y-129212799D01*
X140648119Y-129222207D01*
X140700186Y-129379334D01*
X140792288Y-129528656D01*
X140916344Y-129652712D01*
X141065666Y-129744814D01*
X141232203Y-129799999D01*
X141334991Y-129810500D01*
X142204669Y-129810499D01*
X142271708Y-129830183D01*
X142292350Y-129846818D01*
X143453209Y-131007676D01*
X144573849Y-132128316D01*
X144666521Y-132220988D01*
X144678385Y-132232852D01*
X144801298Y-132314980D01*
X144801311Y-132314987D01*
X144937882Y-132371556D01*
X144937887Y-132371558D01*
X144937891Y-132371558D01*
X144937892Y-132371559D01*
X145082879Y-132400400D01*
X145082882Y-132400400D01*
X145488909Y-132400400D01*
X145555948Y-132420085D01*
X145601703Y-132472889D01*
X145611647Y-132542047D01*
X145603471Y-132571851D01*
X145592763Y-132597702D01*
X145592761Y-132597710D01*
X145562000Y-132752353D01*
X145562000Y-132910046D01*
X145592761Y-133064689D01*
X145592764Y-133064701D01*
X145653102Y-133210372D01*
X145653109Y-133210385D01*
X145740710Y-133341488D01*
X145740713Y-133341492D01*
X145852207Y-133452986D01*
X145852211Y-133452989D01*
X145983314Y-133540590D01*
X145983327Y-133540597D01*
X146110290Y-133593186D01*
X146129003Y-133600937D01*
X146283653Y-133631699D01*
X146283656Y-133631700D01*
X146283658Y-133631700D01*
X146441344Y-133631700D01*
X146441345Y-133631699D01*
X146595997Y-133600937D01*
X146741679Y-133540594D01*
X146872789Y-133452989D01*
X146984289Y-133341489D01*
X147071894Y-133210379D01*
X147132237Y-133064697D01*
X147151613Y-132967285D01*
X147163138Y-132909350D01*
X147195523Y-132847439D01*
X147197024Y-132845910D01*
X147204522Y-132838413D01*
X147265847Y-132804932D01*
X147292197Y-132802100D01*
X157347731Y-132802100D01*
X157347747Y-132802101D01*
X157355343Y-132802101D01*
X157513454Y-132802101D01*
X157513457Y-132802101D01*
X157666185Y-132761177D01*
X157716304Y-132732239D01*
X157803116Y-132682120D01*
X157914920Y-132570316D01*
X157914920Y-132570314D01*
X157925128Y-132560107D01*
X157925129Y-132560104D01*
X158820817Y-131664419D01*
X158882140Y-131630934D01*
X158908498Y-131628100D01*
X171008603Y-131628100D01*
X171075642Y-131647785D01*
X171096284Y-131664419D01*
X171157225Y-131725360D01*
X171190710Y-131786683D01*
X171191161Y-131788849D01*
X171222061Y-131944191D01*
X171222064Y-131944201D01*
X171282402Y-132089872D01*
X171282409Y-132089885D01*
X171370010Y-132220988D01*
X171370013Y-132220992D01*
X171481507Y-132332486D01*
X171481511Y-132332489D01*
X171612614Y-132420090D01*
X171612627Y-132420097D01*
X171689700Y-132452021D01*
X171758303Y-132480437D01*
X171912953Y-132511199D01*
X171912956Y-132511200D01*
X171912958Y-132511200D01*
X172070644Y-132511200D01*
X172070645Y-132511199D01*
X172225297Y-132480437D01*
X172370979Y-132420094D01*
X172502089Y-132332489D01*
X172613589Y-132220989D01*
X172701194Y-132089879D01*
X172761537Y-131944197D01*
X172792300Y-131789542D01*
X172792300Y-131631858D01*
X172792300Y-131631855D01*
X172792299Y-131631853D01*
X172778957Y-131564781D01*
X172761537Y-131477203D01*
X172754185Y-131459453D01*
X172701197Y-131331527D01*
X172701190Y-131331514D01*
X172641038Y-131241491D01*
X172620160Y-131174814D01*
X172638644Y-131107434D01*
X172690623Y-131060743D01*
X172744140Y-131048600D01*
X173717731Y-131048600D01*
X173717747Y-131048601D01*
X173725343Y-131048601D01*
X173883454Y-131048601D01*
X173883457Y-131048601D01*
X174036185Y-131007677D01*
X174086304Y-130978739D01*
X174173116Y-130928620D01*
X174284920Y-130816816D01*
X174284920Y-130816814D01*
X174295128Y-130806607D01*
X174295129Y-130806604D01*
X174534661Y-130567072D01*
X174595983Y-130533589D01*
X174598150Y-130533138D01*
X174656085Y-130521613D01*
X174753497Y-130502237D01*
X174899179Y-130441894D01*
X175030289Y-130354289D01*
X175141789Y-130242789D01*
X175229394Y-130111679D01*
X175289737Y-129965997D01*
X175320500Y-129811342D01*
X175320500Y-129653658D01*
X175320500Y-129653655D01*
X175320499Y-129653653D01*
X175305281Y-129577146D01*
X175289737Y-129499003D01*
X175240168Y-129379331D01*
X175229397Y-129353327D01*
X175229390Y-129353314D01*
X175141789Y-129222211D01*
X175141786Y-129222207D01*
X175030292Y-129110713D01*
X175030288Y-129110710D01*
X174899185Y-129023109D01*
X174899172Y-129023102D01*
X174753501Y-128962764D01*
X174753491Y-128962761D01*
X174637468Y-128939682D01*
X174575557Y-128907297D01*
X174540983Y-128846581D01*
X174538302Y-128805462D01*
X174543407Y-128755500D01*
X174545500Y-128735009D01*
X174545499Y-127334992D01*
X174545019Y-127330297D01*
X174534999Y-127232203D01*
X174534998Y-127232200D01*
X174514115Y-127169179D01*
X174479814Y-127065666D01*
X174387712Y-126916344D01*
X174263656Y-126792288D01*
X174132123Y-126711158D01*
X174114336Y-126700187D01*
X174114331Y-126700185D01*
X174112862Y-126699698D01*
X173947797Y-126645001D01*
X173947795Y-126645000D01*
X173845016Y-126634500D01*
X173845009Y-126634500D01*
X172507230Y-126634500D01*
X172440191Y-126614815D01*
X172419549Y-126598181D01*
X171198350Y-125376982D01*
X171182928Y-125358191D01*
X171159687Y-125323408D01*
X171048192Y-125211913D01*
X171048188Y-125211910D01*
X170917085Y-125124309D01*
X170917072Y-125124302D01*
X170771401Y-125063964D01*
X170771389Y-125063961D01*
X170616745Y-125033200D01*
X170616742Y-125033200D01*
X170459058Y-125033200D01*
X170459055Y-125033200D01*
X170304410Y-125063961D01*
X170304398Y-125063964D01*
X170158727Y-125124302D01*
X170158714Y-125124309D01*
X170027611Y-125211910D01*
X170027607Y-125211913D01*
X169916113Y-125323407D01*
X169916110Y-125323411D01*
X169828509Y-125454514D01*
X169828502Y-125454527D01*
X169768164Y-125600198D01*
X169768161Y-125600210D01*
X169737400Y-125754853D01*
X169737400Y-125912546D01*
X169768161Y-126067189D01*
X169768164Y-126067201D01*
X169828502Y-126212872D01*
X169828509Y-126212885D01*
X169916110Y-126343988D01*
X169916113Y-126343992D01*
X170001304Y-126429183D01*
X170034789Y-126490506D01*
X170029805Y-126560198D01*
X169987933Y-126616131D01*
X169922469Y-126640548D01*
X169901021Y-126640222D01*
X169845018Y-126634500D01*
X169845009Y-126634500D01*
X169519500Y-126634500D01*
X169452461Y-126614815D01*
X169406706Y-126562011D01*
X169395500Y-126510500D01*
X169395500Y-123460659D01*
X169395501Y-123460646D01*
X169395501Y-123292545D01*
X169395501Y-123292543D01*
X169354577Y-123139815D01*
X169325639Y-123089695D01*
X169275520Y-123002884D01*
X169163716Y-122891080D01*
X169163715Y-122891079D01*
X169159385Y-122886749D01*
X169159374Y-122886739D01*
X163795790Y-117523155D01*
X163795788Y-117523152D01*
X163676917Y-117404281D01*
X163676916Y-117404280D01*
X163590104Y-117354160D01*
X163590104Y-117354159D01*
X163590100Y-117354158D01*
X163539985Y-117325223D01*
X163387257Y-117284299D01*
X163229143Y-117284299D01*
X163221547Y-117284299D01*
X163221531Y-117284300D01*
X159376940Y-117284300D01*
X159336019Y-117295264D01*
X159336019Y-117295265D01*
X159298751Y-117305251D01*
X159224214Y-117325223D01*
X159224209Y-117325226D01*
X159087290Y-117404275D01*
X159087282Y-117404281D01*
X158975478Y-117516086D01*
X158381984Y-118109581D01*
X158320661Y-118143066D01*
X158294303Y-118145900D01*
X152492657Y-118145900D01*
X152334543Y-118145900D01*
X152181815Y-118186823D01*
X152181814Y-118186823D01*
X152181812Y-118186824D01*
X152181809Y-118186825D01*
X152131696Y-118215759D01*
X152131695Y-118215760D01*
X152088289Y-118240820D01*
X152044885Y-118265879D01*
X152044882Y-118265881D01*
X151933078Y-118377686D01*
X151752584Y-118558181D01*
X151691261Y-118591666D01*
X151664903Y-118594500D01*
X149864984Y-118594500D01*
X149762204Y-118605000D01*
X149762203Y-118605001D01*
X149595664Y-118660186D01*
X149595662Y-118660187D01*
X149446348Y-118752286D01*
X149446344Y-118752289D01*
X149322289Y-118876344D01*
X149322286Y-118876348D01*
X149230187Y-119025662D01*
X149230186Y-119025664D01*
X149175001Y-119192203D01*
X149175000Y-119192204D01*
X149164500Y-119294984D01*
X149164500Y-121295015D01*
X149175000Y-121397795D01*
X149175001Y-121397796D01*
X149230186Y-121564335D01*
X149230187Y-121564337D01*
X149322286Y-121713651D01*
X149322289Y-121713655D01*
X149446344Y-121837710D01*
X149446348Y-121837713D01*
X149595662Y-121929812D01*
X149595664Y-121929813D01*
X149595666Y-121929814D01*
X149762203Y-121984999D01*
X149864992Y-121995500D01*
X149864997Y-121995500D01*
X151865003Y-121995500D01*
X151865008Y-121995500D01*
X151967797Y-121984999D01*
X152134334Y-121929814D01*
X152283655Y-121837711D01*
X152407711Y-121713655D01*
X152499814Y-121564334D01*
X152554999Y-121397797D01*
X152565500Y-121295008D01*
X152565500Y-121016326D01*
X152585185Y-120949287D01*
X152637989Y-120903532D01*
X152707147Y-120893588D01*
X152770703Y-120922613D01*
X152804061Y-120968873D01*
X152837045Y-121048502D01*
X152837054Y-121048520D01*
X152948464Y-121241491D01*
X152948473Y-121241504D01*
X152999040Y-121307403D01*
X152999043Y-121307403D01*
X153800387Y-120506058D01*
X153805889Y-120526591D01*
X153884881Y-120663408D01*
X153996592Y-120775119D01*
X154133409Y-120854111D01*
X154153939Y-120859612D01*
X153352595Y-121660955D01*
X153352595Y-121660956D01*
X153418507Y-121711533D01*
X153611485Y-121822949D01*
X153611497Y-121822954D01*
X153811990Y-121906003D01*
X153866394Y-121949845D01*
X153888458Y-122016139D01*
X153871178Y-122083838D01*
X153852218Y-122108245D01*
X151659206Y-124301257D01*
X151597883Y-124334742D01*
X151547334Y-124335193D01*
X151433246Y-124312500D01*
X151433242Y-124312500D01*
X151275558Y-124312500D01*
X151275555Y-124312500D01*
X151120910Y-124343261D01*
X151120903Y-124343263D01*
X151029382Y-124381171D01*
X150959913Y-124388638D01*
X150916837Y-124372149D01*
X150889336Y-124355187D01*
X150889334Y-124355186D01*
X150889331Y-124355185D01*
X150722797Y-124300001D01*
X150722795Y-124300000D01*
X150620010Y-124289500D01*
X148519998Y-124289500D01*
X148519981Y-124289501D01*
X148417203Y-124300000D01*
X148417200Y-124300001D01*
X148250668Y-124355185D01*
X148250663Y-124355187D01*
X148101342Y-124447289D01*
X147977289Y-124571342D01*
X147885187Y-124720663D01*
X147885185Y-124720668D01*
X147859359Y-124798606D01*
X147830234Y-124886502D01*
X147830001Y-124887204D01*
X147830000Y-124887205D01*
X147820714Y-124978103D01*
X147794317Y-125042795D01*
X147737136Y-125082946D01*
X147697356Y-125089500D01*
X146807598Y-125089500D01*
X146740559Y-125069815D01*
X146719917Y-125053181D01*
X146160343Y-124493607D01*
X146126858Y-124432284D01*
X146131842Y-124362592D01*
X146173714Y-124306659D01*
X146239178Y-124282242D01*
X146272216Y-124284309D01*
X146275000Y-124284862D01*
X146275000Y-123481988D01*
X146284940Y-123499205D01*
X146340795Y-123555060D01*
X146409204Y-123594556D01*
X146485504Y-123615000D01*
X146564496Y-123615000D01*
X146640796Y-123594556D01*
X146709205Y-123555060D01*
X146765060Y-123499205D01*
X146775000Y-123481988D01*
X146775000Y-124284862D01*
X146816690Y-124276569D01*
X146816692Y-124276569D01*
X146998671Y-124201192D01*
X146998684Y-124201185D01*
X147162462Y-124091751D01*
X147162466Y-124091748D01*
X147301748Y-123952466D01*
X147301751Y-123952462D01*
X147411185Y-123788684D01*
X147411192Y-123788671D01*
X147486569Y-123606693D01*
X147486572Y-123606681D01*
X147524999Y-123413495D01*
X147525000Y-123413492D01*
X147525000Y-123265000D01*
X146825000Y-123265000D01*
X146825000Y-122765000D01*
X147525000Y-122765000D01*
X147525000Y-122616508D01*
X147524999Y-122616504D01*
X147486572Y-122423318D01*
X147486569Y-122423306D01*
X147411192Y-122241328D01*
X147411185Y-122241315D01*
X147301751Y-122077537D01*
X147301748Y-122077533D01*
X147162466Y-121938251D01*
X147162462Y-121938248D01*
X146998684Y-121828814D01*
X146998671Y-121828807D01*
X146816691Y-121753429D01*
X146816683Y-121753427D01*
X146775000Y-121745135D01*
X146775000Y-122548011D01*
X146765060Y-122530795D01*
X146709205Y-122474940D01*
X146640796Y-122435444D01*
X146564496Y-122415000D01*
X146485504Y-122415000D01*
X146409204Y-122435444D01*
X146340795Y-122474940D01*
X146284940Y-122530795D01*
X146275000Y-122548011D01*
X146275000Y-121745136D01*
X146274999Y-121745135D01*
X146233316Y-121753427D01*
X146233308Y-121753429D01*
X146051328Y-121828807D01*
X146051315Y-121828814D01*
X145887537Y-121938248D01*
X145887533Y-121938251D01*
X145748251Y-122077533D01*
X145748248Y-122077537D01*
X145638814Y-122241315D01*
X145638807Y-122241328D01*
X145563430Y-122423306D01*
X145563427Y-122423318D01*
X145525000Y-122616504D01*
X145525000Y-122765000D01*
X146225000Y-122765000D01*
X146225000Y-123265000D01*
X145525000Y-123265000D01*
X145525000Y-123413489D01*
X145555690Y-123567785D01*
X145549461Y-123637376D01*
X145506598Y-123692553D01*
X145440708Y-123715797D01*
X145372711Y-123699729D01*
X145346394Y-123679658D01*
X142008915Y-120342180D01*
X141975431Y-120280858D01*
X141980415Y-120211166D01*
X142022287Y-120155233D01*
X142087751Y-120130816D01*
X142096597Y-120130500D01*
X143005289Y-120130500D01*
X143072328Y-120150185D01*
X143074181Y-120151399D01*
X143119512Y-120181689D01*
X143119527Y-120181697D01*
X143258822Y-120239394D01*
X143265203Y-120242037D01*
X143411739Y-120271185D01*
X143419853Y-120272799D01*
X143419856Y-120272800D01*
X143419858Y-120272800D01*
X143427784Y-120272800D01*
X143494823Y-120292485D01*
X143530885Y-120327908D01*
X143543354Y-120346569D01*
X143562612Y-120375391D01*
X143674107Y-120486886D01*
X143674111Y-120486889D01*
X143805214Y-120574490D01*
X143805227Y-120574497D01*
X143932837Y-120627354D01*
X143950903Y-120634837D01*
X144094538Y-120663408D01*
X144105553Y-120665599D01*
X144105556Y-120665600D01*
X144105558Y-120665600D01*
X144263244Y-120665600D01*
X144263245Y-120665599D01*
X144417897Y-120634837D01*
X144563579Y-120574494D01*
X144694689Y-120486889D01*
X144806189Y-120375389D01*
X144893794Y-120244279D01*
X144894724Y-120242035D01*
X144932104Y-120151789D01*
X144954137Y-120098597D01*
X144960041Y-120068915D01*
X144975678Y-119990308D01*
X145008063Y-119928397D01*
X145068779Y-119893823D01*
X145097295Y-119890500D01*
X145164181Y-119890500D01*
X145164183Y-119890500D01*
X145297836Y-119854688D01*
X145417665Y-119785505D01*
X145421381Y-119781788D01*
X145482699Y-119748303D01*
X145552390Y-119753284D01*
X145608326Y-119795152D01*
X145623624Y-119822014D01*
X145638811Y-119858677D01*
X145638814Y-119858684D01*
X145748248Y-120022462D01*
X145748251Y-120022466D01*
X145887533Y-120161748D01*
X145887537Y-120161751D01*
X146051315Y-120271185D01*
X146051328Y-120271192D01*
X146233308Y-120346569D01*
X146275000Y-120354862D01*
X146275000Y-119551988D01*
X146284940Y-119569205D01*
X146340795Y-119625060D01*
X146409204Y-119664556D01*
X146485504Y-119685000D01*
X146564496Y-119685000D01*
X146640796Y-119664556D01*
X146709205Y-119625060D01*
X146765060Y-119569205D01*
X146775000Y-119551988D01*
X146775000Y-120354862D01*
X146816690Y-120346569D01*
X146816692Y-120346569D01*
X146998671Y-120271192D01*
X146998684Y-120271185D01*
X147162462Y-120161751D01*
X147162466Y-120161748D01*
X147301748Y-120022466D01*
X147301751Y-120022462D01*
X147411185Y-119858684D01*
X147411192Y-119858671D01*
X147486569Y-119676693D01*
X147486572Y-119676681D01*
X147524999Y-119483495D01*
X147525000Y-119483492D01*
X147525000Y-119085000D01*
X146825000Y-119085000D01*
X146825000Y-118585000D01*
X147525000Y-118585000D01*
X147525000Y-118186508D01*
X147524999Y-118186504D01*
X147486572Y-117993318D01*
X147486569Y-117993306D01*
X147411192Y-117811328D01*
X147411185Y-117811315D01*
X147301751Y-117647537D01*
X147301748Y-117647533D01*
X147162466Y-117508251D01*
X147162462Y-117508248D01*
X146998685Y-117398815D01*
X146997259Y-117398053D01*
X146996651Y-117397456D01*
X146993613Y-117395426D01*
X146993997Y-117394850D01*
X146947411Y-117349094D01*
X146931945Y-117280958D01*
X146955772Y-117215276D01*
X146968009Y-117201024D01*
X155128316Y-109040719D01*
X155189639Y-109007234D01*
X155215997Y-109004400D01*
X163915234Y-109004400D01*
X163982273Y-109024085D01*
X163984125Y-109025298D01*
X164115814Y-109113290D01*
X164115827Y-109113297D01*
X164261498Y-109173635D01*
X164261503Y-109173637D01*
X164416153Y-109204399D01*
X164416156Y-109204400D01*
X164416158Y-109204400D01*
X164573844Y-109204400D01*
X164573845Y-109204399D01*
X164728497Y-109173637D01*
X164874179Y-109113294D01*
X165005289Y-109025689D01*
X165116789Y-108914189D01*
X165204394Y-108783079D01*
X165264737Y-108637397D01*
X165267068Y-108631770D01*
X165268910Y-108632533D01*
X165302191Y-108581759D01*
X165366006Y-108553308D01*
X165382546Y-108552200D01*
X171117931Y-108552200D01*
X171165382Y-108561638D01*
X171281503Y-108609737D01*
X171281506Y-108609737D01*
X171281511Y-108609739D01*
X171436153Y-108640499D01*
X171436156Y-108640500D01*
X171436158Y-108640500D01*
X171593844Y-108640500D01*
X171593845Y-108640499D01*
X171748497Y-108609737D01*
X171748506Y-108609733D01*
X171753996Y-108608068D01*
X171823862Y-108607439D01*
X171882978Y-108644683D01*
X171912574Y-108707975D01*
X171914000Y-108726726D01*
X171914000Y-109810234D01*
X171894315Y-109877273D01*
X171893102Y-109879125D01*
X171805109Y-110010814D01*
X171805102Y-110010827D01*
X171744764Y-110156498D01*
X171744761Y-110156510D01*
X171714000Y-110311153D01*
X171714000Y-110468846D01*
X171744761Y-110623489D01*
X171744764Y-110623501D01*
X171805102Y-110769172D01*
X171805109Y-110769185D01*
X171892710Y-110900288D01*
X171892713Y-110900292D01*
X172004207Y-111011786D01*
X172004211Y-111011789D01*
X172135314Y-111099390D01*
X172135327Y-111099397D01*
X172280998Y-111159735D01*
X172281003Y-111159737D01*
X172435653Y-111190499D01*
X172435656Y-111190500D01*
X172435658Y-111190500D01*
X172593344Y-111190500D01*
X172593345Y-111190499D01*
X172747997Y-111159737D01*
X172893679Y-111099394D01*
X173024789Y-111011789D01*
X173136289Y-110900289D01*
X173142334Y-110891241D01*
X173195940Y-110846438D01*
X173265265Y-110837727D01*
X173314327Y-110857029D01*
X173338215Y-110872990D01*
X173338221Y-110872994D01*
X173338223Y-110872995D01*
X173338227Y-110872997D01*
X173404134Y-110900296D01*
X173483903Y-110933337D01*
X173638553Y-110964099D01*
X173638556Y-110964100D01*
X173638558Y-110964100D01*
X173796244Y-110964100D01*
X173796245Y-110964099D01*
X173950897Y-110933337D01*
X174063566Y-110886667D01*
X174096572Y-110872997D01*
X174096572Y-110872996D01*
X174096579Y-110872994D01*
X174227689Y-110785389D01*
X174339189Y-110673889D01*
X174426794Y-110542779D01*
X174487137Y-110397097D01*
X174517900Y-110242442D01*
X174518038Y-110241750D01*
X174550423Y-110179839D01*
X174551922Y-110178312D01*
X175042806Y-109687427D01*
X175042811Y-109687424D01*
X175053014Y-109677220D01*
X175053016Y-109677220D01*
X175164820Y-109565416D01*
X175229027Y-109454206D01*
X175243877Y-109428485D01*
X175284800Y-109275757D01*
X175284800Y-109117643D01*
X175284800Y-105930465D01*
X175304485Y-105863426D01*
X175305698Y-105861574D01*
X175393690Y-105729885D01*
X175393690Y-105729884D01*
X175393694Y-105729879D01*
X175454037Y-105584197D01*
X175484800Y-105429542D01*
X175484800Y-105271858D01*
X175484800Y-105271855D01*
X175484799Y-105271853D01*
X175454037Y-105117203D01*
X175438874Y-105080596D01*
X175393697Y-104971527D01*
X175393690Y-104971514D01*
X175306089Y-104840411D01*
X175306086Y-104840407D01*
X175194592Y-104728913D01*
X175194588Y-104728910D01*
X175063485Y-104641309D01*
X175063472Y-104641302D01*
X174917801Y-104580964D01*
X174917789Y-104580961D01*
X174763145Y-104550200D01*
X174763142Y-104550200D01*
X174605458Y-104550200D01*
X174605455Y-104550200D01*
X174450810Y-104580961D01*
X174450798Y-104580964D01*
X174305127Y-104641302D01*
X174305114Y-104641309D01*
X174174011Y-104728910D01*
X174174007Y-104728913D01*
X174062513Y-104840407D01*
X174062510Y-104840411D01*
X173974909Y-104971514D01*
X173974902Y-104971527D01*
X173933061Y-105072543D01*
X173889220Y-105126947D01*
X173822926Y-105149012D01*
X173755227Y-105131733D01*
X173707616Y-105080596D01*
X173694500Y-105025091D01*
X173694500Y-100768460D01*
X173694501Y-100768447D01*
X173694501Y-100600344D01*
X173653576Y-100447614D01*
X173653573Y-100447609D01*
X173574524Y-100310690D01*
X173574518Y-100310682D01*
X171939216Y-98675380D01*
X171905731Y-98614057D01*
X171910715Y-98544365D01*
X171939216Y-98500018D01*
X172777416Y-97661819D01*
X172838739Y-97628334D01*
X172865097Y-97625500D01*
X172979682Y-97625500D01*
X172979690Y-97625500D01*
X173015993Y-97622643D01*
X173015995Y-97622642D01*
X173015997Y-97622642D01*
X173056975Y-97610736D01*
X173171395Y-97577494D01*
X173310687Y-97495117D01*
X173425117Y-97380687D01*
X173507494Y-97241395D01*
X173552643Y-97085993D01*
X173555500Y-97049690D01*
X173555500Y-96580310D01*
X173552643Y-96544007D01*
X173507494Y-96388605D01*
X173425117Y-96249313D01*
X173425115Y-96249311D01*
X173425112Y-96249307D01*
X173310692Y-96134887D01*
X173310684Y-96134881D01*
X173192371Y-96064911D01*
X173171395Y-96052506D01*
X173171394Y-96052505D01*
X173171393Y-96052505D01*
X173171390Y-96052504D01*
X173015997Y-96007357D01*
X173015991Y-96007356D01*
X172979697Y-96004500D01*
X172979690Y-96004500D01*
X172570310Y-96004500D01*
X172570302Y-96004500D01*
X172534008Y-96007356D01*
X172534002Y-96007357D01*
X172378609Y-96052504D01*
X172378604Y-96052506D01*
X172357628Y-96064911D01*
X172289903Y-96082092D01*
X172231389Y-96064911D01*
X172211191Y-96052966D01*
X172211190Y-96052965D01*
X172065001Y-96010493D01*
X172065000Y-96010494D01*
X172065000Y-96316645D01*
X172047734Y-96379763D01*
X172042507Y-96388600D01*
X172042504Y-96388608D01*
X171997357Y-96544002D01*
X171997356Y-96544008D01*
X171994500Y-96580302D01*
X171994500Y-96691000D01*
X171974815Y-96758039D01*
X171922011Y-96803794D01*
X171870500Y-96815000D01*
X171815000Y-96815000D01*
X171815000Y-96874403D01*
X171795315Y-96941442D01*
X171778681Y-96962084D01*
X171712084Y-97028681D01*
X171650761Y-97062166D01*
X171624403Y-97065000D01*
X171036210Y-97065000D01*
X171037854Y-97085910D01*
X171082968Y-97241195D01*
X171165278Y-97380374D01*
X171165285Y-97380383D01*
X171175152Y-97390250D01*
X171208637Y-97451573D01*
X171203653Y-97521265D01*
X171175152Y-97565612D01*
X170789884Y-97950881D01*
X170728561Y-97984366D01*
X170702203Y-97987200D01*
X147193266Y-97987200D01*
X147126227Y-97967515D01*
X147124375Y-97966302D01*
X146992685Y-97878309D01*
X146992672Y-97878302D01*
X146847001Y-97817964D01*
X146846989Y-97817961D01*
X146692345Y-97787200D01*
X146692342Y-97787200D01*
X146534658Y-97787200D01*
X146534655Y-97787200D01*
X146380010Y-97817961D01*
X146379998Y-97817964D01*
X146234327Y-97878302D01*
X146234314Y-97878309D01*
X146103211Y-97965910D01*
X146103207Y-97965913D01*
X145991713Y-98077407D01*
X145991710Y-98077411D01*
X145904109Y-98208514D01*
X145904102Y-98208527D01*
X145843764Y-98354198D01*
X145843761Y-98354210D01*
X145813000Y-98508853D01*
X145813000Y-98666546D01*
X145843761Y-98821189D01*
X145843764Y-98821201D01*
X145904102Y-98966872D01*
X145904109Y-98966885D01*
X145991710Y-99097988D01*
X145991713Y-99097992D01*
X146103207Y-99209486D01*
X146103211Y-99209489D01*
X146234314Y-99297090D01*
X146234327Y-99297097D01*
X146379998Y-99357435D01*
X146380003Y-99357437D01*
X146534653Y-99388199D01*
X146534656Y-99388200D01*
X146534658Y-99388200D01*
X146692344Y-99388200D01*
X146692345Y-99388199D01*
X146846997Y-99357437D01*
X146992679Y-99297094D01*
X146992685Y-99297090D01*
X147124375Y-99209098D01*
X147191053Y-99188220D01*
X147193266Y-99188200D01*
X170702203Y-99188200D01*
X170769242Y-99207885D01*
X170789884Y-99224519D01*
X172457181Y-100891816D01*
X172490666Y-100953139D01*
X172493500Y-100979497D01*
X172493500Y-106820203D01*
X172473815Y-106887242D01*
X172421011Y-106932997D01*
X172351853Y-106942941D01*
X172288297Y-106913916D01*
X172281819Y-106907884D01*
X169477490Y-104103555D01*
X169477488Y-104103552D01*
X169358617Y-103984681D01*
X169358616Y-103984680D01*
X169271804Y-103934560D01*
X169271804Y-103934559D01*
X169271800Y-103934558D01*
X169221685Y-103905623D01*
X169068957Y-103864699D01*
X168910843Y-103864699D01*
X168903247Y-103864699D01*
X168903231Y-103864700D01*
X153347697Y-103864700D01*
X153280658Y-103845015D01*
X153260016Y-103828381D01*
X150799390Y-101367755D01*
X150799388Y-101367752D01*
X150680517Y-101248881D01*
X150680516Y-101248880D01*
X150593704Y-101198760D01*
X150593704Y-101198759D01*
X150593700Y-101198758D01*
X150543585Y-101169823D01*
X150390857Y-101128899D01*
X150232743Y-101128899D01*
X150225147Y-101128899D01*
X150225131Y-101128900D01*
X147182666Y-101128900D01*
X147115627Y-101109215D01*
X147113775Y-101108002D01*
X146982085Y-101020009D01*
X146982072Y-101020002D01*
X146836401Y-100959664D01*
X146836389Y-100959661D01*
X146681745Y-100928900D01*
X146681742Y-100928900D01*
X146524058Y-100928900D01*
X146524055Y-100928900D01*
X146369410Y-100959661D01*
X146369398Y-100959664D01*
X146223727Y-101020002D01*
X146223714Y-101020009D01*
X146092611Y-101107610D01*
X146092607Y-101107613D01*
X145981113Y-101219107D01*
X145981110Y-101219111D01*
X145893509Y-101350214D01*
X145893502Y-101350227D01*
X145833164Y-101495898D01*
X145833161Y-101495910D01*
X145802400Y-101650553D01*
X145802400Y-101808246D01*
X145833161Y-101962889D01*
X145833164Y-101962901D01*
X145893502Y-102108572D01*
X145893509Y-102108585D01*
X145981110Y-102239688D01*
X145981113Y-102239692D01*
X146092607Y-102351186D01*
X146092611Y-102351189D01*
X146223714Y-102438790D01*
X146223727Y-102438797D01*
X146369398Y-102499135D01*
X146369403Y-102499137D01*
X146524053Y-102529899D01*
X146524056Y-102529900D01*
X146524058Y-102529900D01*
X146681744Y-102529900D01*
X146681745Y-102529899D01*
X146836397Y-102499137D01*
X146982079Y-102438794D01*
X146982085Y-102438790D01*
X147113775Y-102350798D01*
X147180453Y-102329920D01*
X147182666Y-102329900D01*
X150011703Y-102329900D01*
X150078742Y-102349585D01*
X150099384Y-102366219D01*
X152562739Y-104829574D01*
X152562749Y-104829585D01*
X152567079Y-104833915D01*
X152567080Y-104833916D01*
X152678884Y-104945720D01*
X152678886Y-104945721D01*
X152678890Y-104945724D01*
X152815809Y-105024773D01*
X152815816Y-105024777D01*
X152927619Y-105054734D01*
X152968542Y-105065700D01*
X152968543Y-105065700D01*
X168689803Y-105065700D01*
X168756842Y-105085385D01*
X168777484Y-105102019D01*
X170814984Y-107139519D01*
X170848469Y-107200842D01*
X170843485Y-107270534D01*
X170801613Y-107326467D01*
X170736149Y-107350884D01*
X170727303Y-107351200D01*
X165089969Y-107351200D01*
X165027971Y-107334588D01*
X165005405Y-107321560D01*
X165005405Y-107321559D01*
X165005400Y-107321558D01*
X164955285Y-107292623D01*
X164802557Y-107251699D01*
X164644443Y-107251699D01*
X164636847Y-107251699D01*
X164636831Y-107251700D01*
X164345657Y-107251700D01*
X164187542Y-107251700D01*
X164034815Y-107292623D01*
X164034814Y-107292623D01*
X164034812Y-107292624D01*
X164034809Y-107292625D01*
X163984696Y-107321559D01*
X163984695Y-107321560D01*
X163962130Y-107334587D01*
X163900132Y-107351200D01*
X150857398Y-107351200D01*
X150790359Y-107331515D01*
X150769717Y-107314881D01*
X148362473Y-104907637D01*
X148328988Y-104846314D01*
X148328537Y-104844147D01*
X148297638Y-104688810D01*
X148297637Y-104688803D01*
X148297635Y-104688798D01*
X148237297Y-104543127D01*
X148237290Y-104543114D01*
X148149689Y-104412011D01*
X148149686Y-104412007D01*
X148038192Y-104300513D01*
X148038188Y-104300510D01*
X147907085Y-104212909D01*
X147907072Y-104212902D01*
X147761401Y-104152564D01*
X147761389Y-104152561D01*
X147606745Y-104121800D01*
X147606742Y-104121800D01*
X147449058Y-104121800D01*
X147449055Y-104121800D01*
X147294410Y-104152561D01*
X147294398Y-104152564D01*
X147148727Y-104212902D01*
X147148714Y-104212909D01*
X147017611Y-104300510D01*
X147017607Y-104300513D01*
X146906113Y-104412007D01*
X146906110Y-104412011D01*
X146818509Y-104543114D01*
X146818502Y-104543127D01*
X146758164Y-104688798D01*
X146758161Y-104688810D01*
X146727400Y-104843453D01*
X146727400Y-105001146D01*
X146758161Y-105155789D01*
X146758164Y-105155801D01*
X146818502Y-105301472D01*
X146818509Y-105301485D01*
X146906110Y-105432588D01*
X146906113Y-105432592D01*
X147017607Y-105544086D01*
X147017611Y-105544089D01*
X147148714Y-105631690D01*
X147148727Y-105631697D01*
X147294398Y-105692035D01*
X147294403Y-105692037D01*
X147359047Y-105704895D01*
X147449749Y-105722938D01*
X147511660Y-105755323D01*
X147513238Y-105756873D01*
X150188584Y-108432220D01*
X150188586Y-108432221D01*
X150188590Y-108432224D01*
X150239794Y-108461786D01*
X150325516Y-108511277D01*
X150478243Y-108552201D01*
X150478245Y-108552201D01*
X150643954Y-108552201D01*
X150643970Y-108552200D01*
X153619003Y-108552200D01*
X153686042Y-108571885D01*
X153731797Y-108624689D01*
X153741741Y-108693847D01*
X153712716Y-108757403D01*
X153706684Y-108763880D01*
X143815686Y-118654878D01*
X143815684Y-118654880D01*
X143810378Y-118660186D01*
X143808921Y-118661643D01*
X143747595Y-118695123D01*
X143697055Y-118695572D01*
X143577545Y-118671800D01*
X143577542Y-118671800D01*
X143419858Y-118671800D01*
X143419855Y-118671800D01*
X143265210Y-118702561D01*
X143265198Y-118702564D01*
X143119527Y-118762902D01*
X143119514Y-118762909D01*
X142988411Y-118850510D01*
X142988407Y-118850513D01*
X142945742Y-118893180D01*
X142884419Y-118926666D01*
X142858060Y-118929500D01*
X140927266Y-118929500D01*
X140860227Y-118909815D01*
X140858375Y-118908602D01*
X140726685Y-118820609D01*
X140726672Y-118820602D01*
X140581001Y-118760264D01*
X140580989Y-118760261D01*
X140426345Y-118729500D01*
X140426342Y-118729500D01*
X140268658Y-118729500D01*
X140268655Y-118729500D01*
X140114010Y-118760261D01*
X140113998Y-118760264D01*
X139968327Y-118820602D01*
X139968314Y-118820609D01*
X139837211Y-118908210D01*
X139806935Y-118938486D01*
X139745611Y-118971970D01*
X139675920Y-118966984D01*
X139643766Y-118949177D01*
X139637661Y-118944492D01*
X139517838Y-118875313D01*
X139517837Y-118875312D01*
X139517836Y-118875312D01*
X139384183Y-118839500D01*
X139245817Y-118839500D01*
X139112164Y-118875312D01*
X139112161Y-118875313D01*
X138992338Y-118944492D01*
X138992333Y-118944496D01*
X138888748Y-119048082D01*
X138886370Y-119045704D01*
X138842509Y-119077706D01*
X138800607Y-119085000D01*
X138185000Y-119085000D01*
X138185000Y-118585000D01*
X138885000Y-118585000D01*
X138885000Y-118186508D01*
X138884999Y-118186504D01*
X138846572Y-117993318D01*
X138846569Y-117993306D01*
X138771192Y-117811328D01*
X138771185Y-117811315D01*
X138661751Y-117647537D01*
X138661748Y-117647533D01*
X138520655Y-117506440D01*
X138487170Y-117445117D01*
X138492154Y-117375425D01*
X138520652Y-117331082D01*
X138627217Y-117224518D01*
X138688540Y-117191034D01*
X138714897Y-117188200D01*
X142615131Y-117188200D01*
X142615147Y-117188201D01*
X142622743Y-117188201D01*
X142780854Y-117188201D01*
X142780857Y-117188201D01*
X142933585Y-117147277D01*
X142983704Y-117118339D01*
X143070516Y-117068220D01*
X143182320Y-116956416D01*
X143182320Y-116956414D01*
X143192528Y-116946207D01*
X143192529Y-116946204D01*
X143562665Y-116576070D01*
X143623984Y-116542588D01*
X143626151Y-116542137D01*
X143626840Y-116542000D01*
X143626842Y-116542000D01*
X143781497Y-116511237D01*
X143927179Y-116450894D01*
X144058289Y-116363289D01*
X144169789Y-116251789D01*
X144257394Y-116120679D01*
X144262988Y-116107175D01*
X144295730Y-116028126D01*
X144317737Y-115974997D01*
X144348500Y-115820342D01*
X144348500Y-115662658D01*
X144348500Y-115662655D01*
X144348499Y-115662653D01*
X144317738Y-115508010D01*
X144317738Y-115508008D01*
X144317737Y-115508003D01*
X144317735Y-115507998D01*
X144257397Y-115362327D01*
X144257390Y-115362314D01*
X144169789Y-115231211D01*
X144169786Y-115231207D01*
X144058292Y-115119713D01*
X144058288Y-115119710D01*
X143927185Y-115032109D01*
X143927172Y-115032102D01*
X143781501Y-114971764D01*
X143781489Y-114971761D01*
X143626845Y-114941000D01*
X143626842Y-114941000D01*
X143469158Y-114941000D01*
X143469155Y-114941000D01*
X143314510Y-114971761D01*
X143314498Y-114971764D01*
X143168827Y-115032102D01*
X143168814Y-115032109D01*
X143037711Y-115119710D01*
X143037707Y-115119713D01*
X142926213Y-115231207D01*
X142926210Y-115231211D01*
X142838609Y-115362314D01*
X142838602Y-115362327D01*
X142778264Y-115507998D01*
X142778261Y-115508008D01*
X142747362Y-115663349D01*
X142714977Y-115725259D01*
X142713426Y-115726838D01*
X142489384Y-115950881D01*
X142428061Y-115984366D01*
X142401703Y-115987200D01*
X138335740Y-115987200D01*
X138294819Y-115998164D01*
X138294819Y-115998165D01*
X138257551Y-116008151D01*
X138183014Y-116028123D01*
X138183009Y-116028126D01*
X138046090Y-116107175D01*
X138046082Y-116107181D01*
X136560779Y-117592484D01*
X136542430Y-117624266D01*
X136534675Y-117637700D01*
X136481723Y-117729415D01*
X136440799Y-117882143D01*
X136440799Y-117882145D01*
X136440799Y-118050246D01*
X136440800Y-118050259D01*
X136440800Y-120877130D01*
X136440799Y-120877148D01*
X136440799Y-121042854D01*
X136440798Y-121042854D01*
X136481723Y-121195585D01*
X136495519Y-121219480D01*
X136495518Y-121219480D01*
X136495519Y-121219481D01*
X136560775Y-121332509D01*
X136560781Y-121332517D01*
X136679649Y-121451385D01*
X136679655Y-121451390D01*
X137119344Y-121891079D01*
X137152829Y-121952402D01*
X137147845Y-122022094D01*
X137119347Y-122066438D01*
X137108251Y-122077534D01*
X137108246Y-122077540D01*
X136998814Y-122241315D01*
X136998807Y-122241328D01*
X136923430Y-122423306D01*
X136923427Y-122423318D01*
X136885000Y-122616504D01*
X136885000Y-122765000D01*
X137585000Y-122765000D01*
X137585000Y-123265000D01*
X136885000Y-123265000D01*
X136885000Y-123413495D01*
X136923427Y-123606681D01*
X136923430Y-123606693D01*
X136979521Y-123742110D01*
X136986990Y-123811579D01*
X136955714Y-123874058D01*
X136895625Y-123909710D01*
X136825800Y-123907216D01*
X136777279Y-123877243D01*
X135626319Y-122726283D01*
X135592834Y-122664960D01*
X135590000Y-122638602D01*
X135590000Y-96564999D01*
X171036209Y-96564999D01*
X171036210Y-96565000D01*
X171565000Y-96565000D01*
X171565000Y-96010494D01*
X171564998Y-96010493D01*
X171418809Y-96052965D01*
X171418806Y-96052967D01*
X171279625Y-96135278D01*
X171279616Y-96135285D01*
X171165285Y-96249616D01*
X171165278Y-96249625D01*
X171082968Y-96388804D01*
X171082966Y-96388809D01*
X171037855Y-96544081D01*
X171037854Y-96544087D01*
X171036209Y-96564999D01*
X135590000Y-96564999D01*
X135590000Y-95055000D01*
X171036210Y-95055000D01*
X171037854Y-95075910D01*
X171082968Y-95231195D01*
X171165278Y-95370374D01*
X171165285Y-95370383D01*
X171279616Y-95484714D01*
X171279625Y-95484721D01*
X171418804Y-95567031D01*
X171565000Y-95609504D01*
X171565000Y-95055000D01*
X171036210Y-95055000D01*
X135590000Y-95055000D01*
X135590000Y-94554999D01*
X171036209Y-94554999D01*
X171036210Y-94555000D01*
X171565000Y-94555000D01*
X171565000Y-94000494D01*
X171564998Y-94000493D01*
X171418809Y-94042965D01*
X171418806Y-94042967D01*
X171279625Y-94125278D01*
X171279616Y-94125285D01*
X171165285Y-94239616D01*
X171165278Y-94239625D01*
X171082968Y-94378804D01*
X171082966Y-94378809D01*
X171037855Y-94534081D01*
X171037854Y-94534087D01*
X171036209Y-94554999D01*
X135590000Y-94554999D01*
X135590000Y-93045000D01*
X171036210Y-93045000D01*
X171037854Y-93065910D01*
X171082968Y-93221195D01*
X171165278Y-93360374D01*
X171165285Y-93360383D01*
X171279616Y-93474714D01*
X171279625Y-93474721D01*
X171418804Y-93557031D01*
X171565000Y-93599504D01*
X171565000Y-93045000D01*
X171036210Y-93045000D01*
X135590000Y-93045000D01*
X135590000Y-92560302D01*
X171994500Y-92560302D01*
X171994500Y-93029697D01*
X171997356Y-93065991D01*
X171997357Y-93065994D01*
X172019576Y-93142469D01*
X172024500Y-93177065D01*
X172024500Y-94422934D01*
X172019576Y-94457530D01*
X171997357Y-94534005D01*
X171997356Y-94534008D01*
X171994500Y-94570302D01*
X171994500Y-95039697D01*
X171997356Y-95075991D01*
X171997357Y-95075997D01*
X172042503Y-95231389D01*
X172042505Y-95231393D01*
X172042506Y-95231395D01*
X172047732Y-95240233D01*
X172065000Y-95303352D01*
X172065000Y-95609503D01*
X172211194Y-95567032D01*
X172231384Y-95555091D01*
X172299108Y-95537906D01*
X172357629Y-95555089D01*
X172378605Y-95567494D01*
X172419587Y-95579400D01*
X172534002Y-95612642D01*
X172534005Y-95612642D01*
X172534007Y-95612643D01*
X172570310Y-95615500D01*
X172570318Y-95615500D01*
X172979682Y-95615500D01*
X172979690Y-95615500D01*
X173015993Y-95612643D01*
X173015995Y-95612642D01*
X173015997Y-95612642D01*
X173056975Y-95600736D01*
X173171395Y-95567494D01*
X173310687Y-95485117D01*
X173425117Y-95370687D01*
X173507494Y-95231395D01*
X173552643Y-95075993D01*
X173555500Y-95039690D01*
X173555500Y-94570310D01*
X173552643Y-94534007D01*
X173530423Y-94457528D01*
X173525500Y-94422934D01*
X173525500Y-93757200D01*
X173545185Y-93690161D01*
X173597989Y-93644406D01*
X173649500Y-93633200D01*
X173659596Y-93633200D01*
X173707044Y-93642637D01*
X173730703Y-93652437D01*
X173730708Y-93652438D01*
X173730711Y-93652439D01*
X173885353Y-93683199D01*
X173885356Y-93683200D01*
X173885358Y-93683200D01*
X174043044Y-93683200D01*
X174043045Y-93683199D01*
X174197697Y-93652437D01*
X174343379Y-93592094D01*
X174474489Y-93504489D01*
X174585989Y-93392989D01*
X174673594Y-93261879D01*
X174733937Y-93116197D01*
X174764700Y-92961542D01*
X174764700Y-92803858D01*
X174764700Y-92803855D01*
X174764699Y-92803853D01*
X174733938Y-92649210D01*
X174733937Y-92649203D01*
X174733935Y-92649198D01*
X174673597Y-92503527D01*
X174673590Y-92503514D01*
X174585989Y-92372411D01*
X174585986Y-92372407D01*
X174474492Y-92260913D01*
X174474488Y-92260910D01*
X174343385Y-92173309D01*
X174343372Y-92173302D01*
X174197701Y-92112964D01*
X174197689Y-92112961D01*
X174043045Y-92082200D01*
X174043042Y-92082200D01*
X173885358Y-92082200D01*
X173885355Y-92082200D01*
X173730711Y-92112960D01*
X173730706Y-92112962D01*
X173730704Y-92112962D01*
X173730703Y-92112963D01*
X173707044Y-92122762D01*
X173659596Y-92132200D01*
X173373891Y-92132200D01*
X173310770Y-92114932D01*
X173221422Y-92062092D01*
X173171395Y-92032506D01*
X173171394Y-92032505D01*
X173171393Y-92032505D01*
X173171390Y-92032504D01*
X173015997Y-91987357D01*
X173015991Y-91987356D01*
X172979697Y-91984500D01*
X172979690Y-91984500D01*
X172570310Y-91984500D01*
X172570302Y-91984500D01*
X172534008Y-91987356D01*
X172534002Y-91987357D01*
X172378609Y-92032504D01*
X172378604Y-92032506D01*
X172357628Y-92044911D01*
X172289903Y-92062092D01*
X172231389Y-92044911D01*
X172211191Y-92032966D01*
X172211190Y-92032965D01*
X172065001Y-91990493D01*
X172065000Y-91990494D01*
X172065000Y-92296645D01*
X172047734Y-92359763D01*
X172042507Y-92368600D01*
X172042504Y-92368608D01*
X171997357Y-92524002D01*
X171997356Y-92524008D01*
X171994500Y-92560302D01*
X135590000Y-92560302D01*
X135590000Y-92544999D01*
X171036209Y-92544999D01*
X171036210Y-92545000D01*
X171565000Y-92545000D01*
X171565000Y-91990494D01*
X171564998Y-91990493D01*
X171418809Y-92032965D01*
X171418806Y-92032967D01*
X171279625Y-92115278D01*
X171279616Y-92115285D01*
X171165285Y-92229616D01*
X171165278Y-92229625D01*
X171082968Y-92368804D01*
X171082966Y-92368809D01*
X171037855Y-92524081D01*
X171037854Y-92524087D01*
X171036209Y-92544999D01*
X135590000Y-92544999D01*
X135590000Y-90628953D01*
X139727400Y-90628953D01*
X139727400Y-90786646D01*
X139758161Y-90941289D01*
X139758164Y-90941301D01*
X139818502Y-91086972D01*
X139818509Y-91086985D01*
X139906110Y-91218088D01*
X139906113Y-91218092D01*
X140017607Y-91329586D01*
X140017611Y-91329589D01*
X140148714Y-91417190D01*
X140148727Y-91417197D01*
X140294398Y-91477535D01*
X140294403Y-91477537D01*
X140449053Y-91508299D01*
X140449056Y-91508300D01*
X140449058Y-91508300D01*
X140606744Y-91508300D01*
X140606745Y-91508299D01*
X140761397Y-91477537D01*
X140907079Y-91417194D01*
X140907085Y-91417190D01*
X141038775Y-91329198D01*
X141105453Y-91308320D01*
X141107666Y-91308300D01*
X141216631Y-91308300D01*
X141216647Y-91308301D01*
X141224243Y-91308301D01*
X141382354Y-91308301D01*
X141382357Y-91308301D01*
X141535085Y-91267377D01*
X141598263Y-91230901D01*
X141672016Y-91188320D01*
X141783820Y-91076516D01*
X141783820Y-91076514D01*
X141794024Y-91066311D01*
X141794027Y-91066306D01*
X141825333Y-91035000D01*
X171036210Y-91035000D01*
X171037854Y-91055910D01*
X171082968Y-91211195D01*
X171165278Y-91350374D01*
X171165285Y-91350383D01*
X171279616Y-91464714D01*
X171279625Y-91464721D01*
X171418804Y-91547031D01*
X171565000Y-91589504D01*
X171565000Y-91035000D01*
X171036210Y-91035000D01*
X141825333Y-91035000D01*
X143982816Y-88877519D01*
X144044139Y-88844034D01*
X144070497Y-88841200D01*
X169474803Y-88841200D01*
X169541842Y-88860885D01*
X169562483Y-88877518D01*
X170570884Y-89885920D01*
X170570886Y-89885921D01*
X170570890Y-89885924D01*
X170661199Y-89938063D01*
X170707816Y-89964977D01*
X170860543Y-90005901D01*
X170860545Y-90005901D01*
X171026254Y-90005901D01*
X171026270Y-90005900D01*
X171079640Y-90005900D01*
X171146679Y-90025585D01*
X171192434Y-90078389D01*
X171202378Y-90147547D01*
X171173353Y-90211103D01*
X171167321Y-90217581D01*
X171165285Y-90219616D01*
X171165278Y-90219625D01*
X171082968Y-90358804D01*
X171082966Y-90358809D01*
X171037855Y-90514081D01*
X171037854Y-90514087D01*
X171036209Y-90534999D01*
X171036210Y-90535000D01*
X171691000Y-90535000D01*
X171758039Y-90554685D01*
X171803794Y-90607489D01*
X171815000Y-90659000D01*
X171815000Y-90785000D01*
X171870500Y-90785000D01*
X171937539Y-90804685D01*
X171983294Y-90857489D01*
X171994500Y-90909000D01*
X171994500Y-91019697D01*
X171997356Y-91055991D01*
X171997357Y-91055997D01*
X172042503Y-91211389D01*
X172042505Y-91211393D01*
X172042506Y-91211395D01*
X172047732Y-91220233D01*
X172065000Y-91283352D01*
X172065000Y-91589503D01*
X172211194Y-91547032D01*
X172231384Y-91535091D01*
X172299108Y-91517906D01*
X172357629Y-91535089D01*
X172378605Y-91547494D01*
X172419587Y-91559400D01*
X172534002Y-91592642D01*
X172534005Y-91592642D01*
X172534007Y-91592643D01*
X172570310Y-91595500D01*
X172570318Y-91595500D01*
X172979682Y-91595500D01*
X172979690Y-91595500D01*
X173015993Y-91592643D01*
X173015995Y-91592642D01*
X173015997Y-91592642D01*
X173056975Y-91580736D01*
X173171395Y-91547494D01*
X173310687Y-91465117D01*
X173425117Y-91350687D01*
X173507494Y-91211395D01*
X173543643Y-91086972D01*
X173552642Y-91055997D01*
X173552643Y-91055991D01*
X173555500Y-91019690D01*
X173555500Y-90550310D01*
X173552643Y-90514007D01*
X173541106Y-90474298D01*
X173507495Y-90358609D01*
X173507494Y-90358606D01*
X173507494Y-90358605D01*
X173425117Y-90219313D01*
X173425115Y-90219311D01*
X173425112Y-90219307D01*
X173310692Y-90104887D01*
X173310684Y-90104881D01*
X173230802Y-90057639D01*
X173171395Y-90022506D01*
X173171394Y-90022505D01*
X173171393Y-90022505D01*
X173171390Y-90022504D01*
X173015997Y-89977357D01*
X173015991Y-89977356D01*
X172979697Y-89974500D01*
X172979690Y-89974500D01*
X172764096Y-89974500D01*
X172697057Y-89954815D01*
X172651302Y-89902011D01*
X172641358Y-89832853D01*
X172670383Y-89769297D01*
X172676415Y-89762819D01*
X172817416Y-89621818D01*
X172878739Y-89588333D01*
X172905097Y-89585499D01*
X173024168Y-89585499D01*
X173024180Y-89585499D01*
X173060204Y-89582665D01*
X173214393Y-89537869D01*
X173352598Y-89456135D01*
X173466135Y-89342598D01*
X173547869Y-89204393D01*
X173592665Y-89050204D01*
X173595500Y-89014181D01*
X173595499Y-88515820D01*
X173592665Y-88479796D01*
X173547869Y-88325607D01*
X173466135Y-88187402D01*
X173466133Y-88187400D01*
X173466130Y-88187396D01*
X173352603Y-88073869D01*
X173352595Y-88073863D01*
X173214393Y-87992131D01*
X173214388Y-87992129D01*
X173060208Y-87947335D01*
X173060202Y-87947334D01*
X173024181Y-87944500D01*
X172625830Y-87944500D01*
X172625808Y-87944501D01*
X172589794Y-87947335D01*
X172435611Y-87992129D01*
X172435607Y-87992130D01*
X172377628Y-88026419D01*
X172309903Y-88043600D01*
X172251388Y-88026419D01*
X172194189Y-87992592D01*
X172194188Y-87992591D01*
X172055001Y-87952153D01*
X172055000Y-87952154D01*
X172055000Y-88504591D01*
X172054618Y-88514316D01*
X172054500Y-88515803D01*
X172054500Y-88634901D01*
X172034815Y-88701940D01*
X172018188Y-88722575D01*
X172012090Y-88728674D01*
X171950770Y-88762164D01*
X171924402Y-88765000D01*
X171679000Y-88765000D01*
X171611961Y-88745315D01*
X171566206Y-88692511D01*
X171555000Y-88641000D01*
X171555000Y-87952154D01*
X171554998Y-87952153D01*
X171415811Y-87992591D01*
X171415808Y-87992593D01*
X171277714Y-88074261D01*
X171277705Y-88074268D01*
X171164268Y-88187705D01*
X171164261Y-88187714D01*
X171082593Y-88325808D01*
X171082591Y-88325811D01*
X171057040Y-88413761D01*
X171019434Y-88472647D01*
X170955961Y-88501853D01*
X170886774Y-88492107D01*
X170850283Y-88466847D01*
X170262490Y-87879055D01*
X170262488Y-87879052D01*
X170143617Y-87760181D01*
X170143616Y-87760180D01*
X170056804Y-87710060D01*
X170056804Y-87710059D01*
X170056800Y-87710058D01*
X170006685Y-87681123D01*
X169853957Y-87640199D01*
X169695843Y-87640199D01*
X169688247Y-87640199D01*
X169688231Y-87640200D01*
X143849457Y-87640200D01*
X143691342Y-87640200D01*
X143538615Y-87681123D01*
X143538614Y-87681123D01*
X143538612Y-87681124D01*
X143538609Y-87681125D01*
X143488496Y-87710059D01*
X143488495Y-87710060D01*
X143445089Y-87735120D01*
X143401685Y-87760179D01*
X143401682Y-87760181D01*
X143289878Y-87871986D01*
X141132725Y-90029138D01*
X141071402Y-90062623D01*
X141001710Y-90057639D01*
X140976153Y-90044559D01*
X140907085Y-89998409D01*
X140907072Y-89998402D01*
X140761401Y-89938064D01*
X140761389Y-89938061D01*
X140606745Y-89907300D01*
X140606742Y-89907300D01*
X140449058Y-89907300D01*
X140449055Y-89907300D01*
X140294410Y-89938061D01*
X140294398Y-89938064D01*
X140148727Y-89998402D01*
X140148714Y-89998409D01*
X140017611Y-90086010D01*
X140017607Y-90086013D01*
X139906113Y-90197507D01*
X139906110Y-90197511D01*
X139818509Y-90328614D01*
X139818502Y-90328627D01*
X139758164Y-90474298D01*
X139758161Y-90474310D01*
X139727400Y-90628953D01*
X135590000Y-90628953D01*
X135590000Y-81124000D01*
X135609685Y-81056961D01*
X135662489Y-81011206D01*
X135714000Y-81000000D01*
X176249904Y-81000000D01*
X176316943Y-81019685D01*
G37*
%TD.AperFunction*%
%TA.AperFunction,Conductor*%
G36*
X164610111Y-120045319D02*
G01*
X164643080Y-120068915D01*
X168158181Y-123584016D01*
X168191666Y-123645339D01*
X168194500Y-123671697D01*
X168194500Y-124782387D01*
X168174815Y-124849426D01*
X168122011Y-124895181D01*
X168052853Y-124905125D01*
X168001609Y-124885489D01*
X167871585Y-124798609D01*
X167871572Y-124798602D01*
X167725901Y-124738264D01*
X167725889Y-124738261D01*
X167571245Y-124707500D01*
X167571242Y-124707500D01*
X167413558Y-124707500D01*
X167413555Y-124707500D01*
X167258910Y-124738261D01*
X167258898Y-124738264D01*
X167113227Y-124798602D01*
X167113214Y-124798609D01*
X166981675Y-124886502D01*
X166914998Y-124907380D01*
X166912784Y-124907400D01*
X165099897Y-124907400D01*
X165032858Y-124887715D01*
X165012216Y-124871081D01*
X164754574Y-124613439D01*
X164721089Y-124552116D01*
X164720638Y-124549949D01*
X164697232Y-124432284D01*
X164689737Y-124394603D01*
X164675982Y-124361396D01*
X164629397Y-124248927D01*
X164629390Y-124248914D01*
X164541789Y-124117811D01*
X164541786Y-124117807D01*
X164430292Y-124006313D01*
X164430288Y-124006310D01*
X164299185Y-123918709D01*
X164299172Y-123918702D01*
X164153501Y-123858364D01*
X164153489Y-123858361D01*
X163998845Y-123827600D01*
X163998842Y-123827600D01*
X163841158Y-123827600D01*
X163841155Y-123827600D01*
X163686510Y-123858361D01*
X163686498Y-123858364D01*
X163540827Y-123918702D01*
X163540814Y-123918709D01*
X163409711Y-124006310D01*
X163409707Y-124006313D01*
X163298213Y-124117807D01*
X163298210Y-124117811D01*
X163210609Y-124248914D01*
X163210602Y-124248927D01*
X163150264Y-124394598D01*
X163150261Y-124394610D01*
X163119500Y-124549253D01*
X163119500Y-124706946D01*
X163150261Y-124861589D01*
X163150264Y-124861601D01*
X163210602Y-125007272D01*
X163210609Y-125007285D01*
X163298210Y-125138388D01*
X163298213Y-125138392D01*
X163409707Y-125249886D01*
X163409711Y-125249889D01*
X163540814Y-125337490D01*
X163540827Y-125337497D01*
X163615302Y-125368345D01*
X163686503Y-125397837D01*
X163751147Y-125410695D01*
X163841849Y-125428738D01*
X163903760Y-125461123D01*
X163905339Y-125462674D01*
X164314939Y-125872274D01*
X164314949Y-125872285D01*
X164319279Y-125876615D01*
X164319280Y-125876616D01*
X164431084Y-125988420D01*
X164431086Y-125988421D01*
X164431087Y-125988422D01*
X164445687Y-125996851D01*
X164491748Y-126023444D01*
X164568015Y-126067477D01*
X164720743Y-126108400D01*
X164878857Y-126108400D01*
X166912485Y-126108400D01*
X166979524Y-126128085D01*
X166981376Y-126129298D01*
X167113214Y-126217390D01*
X167113227Y-126217397D01*
X167258898Y-126277735D01*
X167258903Y-126277737D01*
X167413553Y-126308499D01*
X167413556Y-126308500D01*
X167413558Y-126308500D01*
X167571244Y-126308500D01*
X167571245Y-126308499D01*
X167725897Y-126277737D01*
X167871579Y-126217394D01*
X168001610Y-126130509D01*
X168068286Y-126109632D01*
X168135666Y-126128116D01*
X168182357Y-126180095D01*
X168194500Y-126233612D01*
X168194500Y-126510500D01*
X168174815Y-126577539D01*
X168122011Y-126623294D01*
X168070500Y-126634500D01*
X167744999Y-126634500D01*
X167744980Y-126634501D01*
X167642203Y-126645000D01*
X167642200Y-126645001D01*
X167475668Y-126700185D01*
X167475663Y-126700187D01*
X167326342Y-126792289D01*
X167202289Y-126916342D01*
X167110187Y-127065663D01*
X167110185Y-127065668D01*
X167095434Y-127110183D01*
X167055001Y-127232203D01*
X167055001Y-127232204D01*
X167055000Y-127232204D01*
X167044500Y-127334983D01*
X167044500Y-128735001D01*
X167044501Y-128735018D01*
X167055000Y-128837796D01*
X167055001Y-128837799D01*
X167062920Y-128861696D01*
X167065322Y-128931525D01*
X167029590Y-128991566D01*
X166967069Y-129022759D01*
X166945214Y-129024700D01*
X156416140Y-129024700D01*
X156349101Y-129005015D01*
X156328457Y-128988380D01*
X156320887Y-128980810D01*
X154632711Y-127292568D01*
X154599228Y-127231245D01*
X154604214Y-127161553D01*
X154646087Y-127105620D01*
X154707796Y-127081531D01*
X154722797Y-127079999D01*
X154889334Y-127024814D01*
X155038656Y-126932712D01*
X155162712Y-126808656D01*
X155254814Y-126659334D01*
X155304133Y-126510500D01*
X155312129Y-126486370D01*
X155313583Y-126486852D01*
X155343038Y-126432476D01*
X155383555Y-126405302D01*
X155504795Y-126355084D01*
X155554029Y-126322186D01*
X155627716Y-126272952D01*
X160818848Y-121081817D01*
X160880171Y-121048333D01*
X160906529Y-121045499D01*
X161305002Y-121045499D01*
X161305008Y-121045499D01*
X161407797Y-121034999D01*
X161574334Y-120979814D01*
X161723656Y-120887712D01*
X161847712Y-120763656D01*
X161939814Y-120614334D01*
X161939814Y-120614331D01*
X161943178Y-120608879D01*
X161995126Y-120562154D01*
X162064088Y-120550931D01*
X162128170Y-120578774D01*
X162136398Y-120586294D01*
X162275213Y-120725109D01*
X162447179Y-120850048D01*
X162447181Y-120850049D01*
X162447184Y-120850051D01*
X162636588Y-120946557D01*
X162838757Y-121012246D01*
X163048713Y-121045500D01*
X163048714Y-121045500D01*
X163261286Y-121045500D01*
X163261287Y-121045500D01*
X163471243Y-121012246D01*
X163673412Y-120946557D01*
X163862816Y-120850051D01*
X163965952Y-120775119D01*
X164034786Y-120725109D01*
X164034788Y-120725106D01*
X164034792Y-120725104D01*
X164185104Y-120574792D01*
X164185106Y-120574788D01*
X164185109Y-120574786D01*
X164310048Y-120402820D01*
X164310047Y-120402820D01*
X164310051Y-120402816D01*
X164406557Y-120213412D01*
X164437468Y-120118275D01*
X164476906Y-120060602D01*
X164541265Y-120033404D01*
X164610111Y-120045319D01*
G37*
%TD.AperFunction*%
%TA.AperFunction,Conductor*%
G36*
X138135000Y-120354862D02*
G01*
X138176690Y-120346569D01*
X138176692Y-120346569D01*
X138358671Y-120271192D01*
X138358684Y-120271185D01*
X138522462Y-120161751D01*
X138522466Y-120161748D01*
X138661748Y-120022466D01*
X138661751Y-120022462D01*
X138771185Y-119858684D01*
X138771187Y-119858680D01*
X138786374Y-119822016D01*
X138830215Y-119767613D01*
X138896509Y-119745547D01*
X138964208Y-119762826D01*
X138988617Y-119781787D01*
X138992335Y-119785505D01*
X139112164Y-119854688D01*
X139245817Y-119890500D01*
X139245819Y-119890500D01*
X139384180Y-119890500D01*
X139384183Y-119890500D01*
X139503135Y-119858627D01*
X139572981Y-119860290D01*
X139630844Y-119899452D01*
X139638327Y-119909511D01*
X139725710Y-120040288D01*
X139725713Y-120040292D01*
X139837207Y-120151786D01*
X139837211Y-120151789D01*
X139968314Y-120239390D01*
X139968327Y-120239397D01*
X140096495Y-120292485D01*
X140114003Y-120299737D01*
X140178647Y-120312595D01*
X140269349Y-120330638D01*
X140331260Y-120363023D01*
X140332838Y-120364573D01*
X146138784Y-126170520D01*
X146138786Y-126170521D01*
X146138790Y-126170524D01*
X146275709Y-126249573D01*
X146275716Y-126249577D01*
X146428443Y-126290501D01*
X146428445Y-126290501D01*
X146594154Y-126290501D01*
X146594170Y-126290500D01*
X147697357Y-126290500D01*
X147764396Y-126310185D01*
X147810151Y-126362989D01*
X147820715Y-126401898D01*
X147830001Y-126492797D01*
X147830001Y-126492799D01*
X147885185Y-126659331D01*
X147885186Y-126659334D01*
X147977288Y-126808656D01*
X148101344Y-126932712D01*
X148250666Y-127024814D01*
X148417203Y-127079999D01*
X148519991Y-127090500D01*
X149460401Y-127090499D01*
X149527440Y-127110183D01*
X149573195Y-127162987D01*
X149583139Y-127232146D01*
X149554114Y-127295702D01*
X149548082Y-127302180D01*
X147931254Y-128919009D01*
X147869931Y-128952494D01*
X147800239Y-128947510D01*
X147796047Y-128945754D01*
X147794335Y-128945186D01*
X147794334Y-128945186D01*
X147627797Y-128890001D01*
X147627795Y-128890000D01*
X147525016Y-128879500D01*
X147525009Y-128879500D01*
X147080900Y-128879500D01*
X147013861Y-128859815D01*
X146968106Y-128807011D01*
X146956900Y-128755500D01*
X146956900Y-128592755D01*
X146956899Y-128592753D01*
X146926138Y-128438110D01*
X146926137Y-128438103D01*
X146926135Y-128438098D01*
X146865797Y-128292427D01*
X146865790Y-128292414D01*
X146778189Y-128161311D01*
X146778186Y-128161307D01*
X146666692Y-128049813D01*
X146666688Y-128049810D01*
X146535585Y-127962209D01*
X146535572Y-127962202D01*
X146389901Y-127901864D01*
X146389891Y-127901861D01*
X146234549Y-127870961D01*
X146172638Y-127838576D01*
X146171060Y-127837025D01*
X139672390Y-121338355D01*
X139672388Y-121338352D01*
X139553516Y-121219480D01*
X139553514Y-121219479D01*
X139466704Y-121169360D01*
X139466704Y-121169359D01*
X139466700Y-121169358D01*
X139416585Y-121140423D01*
X139263857Y-121099499D01*
X139105743Y-121099499D01*
X139098147Y-121099499D01*
X139098131Y-121099500D01*
X138077597Y-121099500D01*
X138010558Y-121079815D01*
X137989916Y-121063181D01*
X137678119Y-120751384D01*
X137644634Y-120690061D01*
X137641800Y-120663703D01*
X137641800Y-119563766D01*
X137644940Y-119569205D01*
X137700795Y-119625060D01*
X137769204Y-119664556D01*
X137845504Y-119685000D01*
X137924496Y-119685000D01*
X138000796Y-119664556D01*
X138069205Y-119625060D01*
X138125060Y-119569205D01*
X138135000Y-119551988D01*
X138135000Y-120354862D01*
G37*
%TD.AperFunction*%
%TA.AperFunction,Conductor*%
G36*
X139056578Y-122427261D02*
G01*
X139082900Y-122447335D01*
X143433384Y-126797819D01*
X143466869Y-126859142D01*
X143461885Y-126928834D01*
X143420013Y-126984767D01*
X143354549Y-127009184D01*
X143345703Y-127009500D01*
X142922829Y-127009500D01*
X142855790Y-126989815D01*
X142835148Y-126973181D01*
X142336672Y-126474705D01*
X142309791Y-126434473D01*
X142299997Y-126410828D01*
X142299996Y-126410826D01*
X142299994Y-126410821D01*
X142240770Y-126322186D01*
X142212389Y-126279710D01*
X142100892Y-126168213D01*
X142100888Y-126168210D01*
X141969785Y-126080609D01*
X141969772Y-126080602D01*
X141824101Y-126020264D01*
X141824089Y-126020261D01*
X141669445Y-125989500D01*
X141669442Y-125989500D01*
X141511758Y-125989500D01*
X141511755Y-125989500D01*
X141357110Y-126020261D01*
X141357098Y-126020264D01*
X141211427Y-126080602D01*
X141211414Y-126080609D01*
X141080311Y-126168210D01*
X141080307Y-126168213D01*
X140968813Y-126279707D01*
X140968810Y-126279711D01*
X140881209Y-126410814D01*
X140881202Y-126410827D01*
X140820864Y-126556498D01*
X140820861Y-126556510D01*
X140790100Y-126711153D01*
X140790100Y-126868846D01*
X140820861Y-127023489D01*
X140820863Y-127023497D01*
X140854798Y-127105425D01*
X140859237Y-127116141D01*
X140866705Y-127185611D01*
X140835429Y-127248090D01*
X140832358Y-127251272D01*
X140792289Y-127291342D01*
X140792285Y-127291347D01*
X140778397Y-127313863D01*
X140726448Y-127360587D01*
X140657485Y-127371807D01*
X140625406Y-127363324D01*
X140618503Y-127360464D01*
X140618494Y-127360461D01*
X140463845Y-127329700D01*
X140463842Y-127329700D01*
X140306158Y-127329700D01*
X140306157Y-127329700D01*
X140300095Y-127330297D01*
X140299945Y-127328783D01*
X140237812Y-127323215D01*
X140195547Y-127295512D01*
X139910490Y-127010455D01*
X139910488Y-127010452D01*
X137322755Y-124422719D01*
X137289270Y-124361396D01*
X137294254Y-124291704D01*
X137336126Y-124235771D01*
X137401590Y-124211354D01*
X137457889Y-124220477D01*
X137593310Y-124276570D01*
X137635000Y-124284862D01*
X137635000Y-123481988D01*
X137644940Y-123499205D01*
X137700795Y-123555060D01*
X137769204Y-123594556D01*
X137845504Y-123615000D01*
X137924496Y-123615000D01*
X138000796Y-123594556D01*
X138069205Y-123555060D01*
X138125060Y-123499205D01*
X138135000Y-123481988D01*
X138135000Y-124284862D01*
X138176690Y-124276569D01*
X138176692Y-124276569D01*
X138358671Y-124201192D01*
X138358684Y-124201185D01*
X138522462Y-124091751D01*
X138522466Y-124091748D01*
X138661748Y-123952466D01*
X138661751Y-123952462D01*
X138771185Y-123788684D01*
X138771192Y-123788671D01*
X138846569Y-123606693D01*
X138846572Y-123606681D01*
X138884999Y-123413495D01*
X138885000Y-123413492D01*
X138885000Y-123265000D01*
X138185000Y-123265000D01*
X138185000Y-122765000D01*
X138885000Y-122765000D01*
X138885000Y-122616508D01*
X138884999Y-122616507D01*
X138873602Y-122559208D01*
X138879829Y-122489616D01*
X138922692Y-122434439D01*
X138988581Y-122411194D01*
X139056578Y-122427261D01*
G37*
%TD.AperFunction*%
%TA.AperFunction,Conductor*%
G36*
X159223834Y-119652613D02*
G01*
X159279767Y-119694485D01*
X159304184Y-119759949D01*
X159304500Y-119768795D01*
X159304500Y-120345001D01*
X159304502Y-120345022D01*
X159310415Y-120402911D01*
X159297645Y-120471604D01*
X159274738Y-120503192D01*
X155272330Y-124505600D01*
X155211007Y-124539085D01*
X155141315Y-124534101D01*
X155096968Y-124505600D01*
X155038657Y-124447289D01*
X155038656Y-124447288D01*
X154889334Y-124355186D01*
X154722797Y-124300001D01*
X154722795Y-124300000D01*
X154620016Y-124289500D01*
X154620009Y-124289500D01*
X153668796Y-124289500D01*
X153601757Y-124269815D01*
X153556002Y-124217011D01*
X153546058Y-124147853D01*
X153575083Y-124084297D01*
X153581115Y-124077819D01*
X153916825Y-123742110D01*
X155402117Y-122256819D01*
X155463440Y-122223334D01*
X155489798Y-122220500D01*
X156218031Y-122220500D01*
X156218047Y-122220501D01*
X156225643Y-122220501D01*
X156383754Y-122220501D01*
X156383757Y-122220501D01*
X156536485Y-122179577D01*
X156586604Y-122150639D01*
X156673416Y-122100520D01*
X156785220Y-121988716D01*
X156785220Y-121988714D01*
X156795428Y-121978507D01*
X156795430Y-121978504D01*
X159092821Y-119681112D01*
X159154142Y-119647629D01*
X159223834Y-119652613D01*
G37*
%TD.AperFunction*%
%TD*%
M02*
