%TF.GenerationSoftware,KiCad,Pcbnew,10.0.5*%
%TF.CreationDate,2026-08-03T02:23:30-07:00*%
%TF.ProjectId,cv-plug,63762d70-6c75-4672-9e6b-696361645f70,rev?*%
%TF.SameCoordinates,Original*%
%TF.FileFunction,Copper,L1,Top*%
%TF.FilePolarity,Positive*%
%FSLAX46Y46*%
G04 Gerber Fmt 4.6, Leading zero omitted, Abs format (unit mm)*
G04 Created by KiCad (PCBNEW 10.0.5) date 2026-08-03 02:23:30*
%MOMM*%
%LPD*%
G01*
G04 APERTURE LIST*
G04 Aperture macros list*
%AMRoundRect*
0 Rectangle with rounded corners*
0 $1 Rounding radius*
0 $2 $3 $4 $5 $6 $7 $8 $9 X,Y pos of 4 corners*
0 Add a 4 corners polygon primitive as box body*
4,1,4,$2,$3,$4,$5,$6,$7,$8,$9,$2,$3,0*
0 Add four circle primitives for the rounded corners*
1,1,$1+$1,$2,$3*
1,1,$1+$1,$4,$5*
1,1,$1+$1,$6,$7*
1,1,$1+$1,$8,$9*
0 Add four rect primitives between the rounded corners*
20,1,$1+$1,$2,$3,$4,$5,0*
20,1,$1+$1,$4,$5,$6,$7,0*
20,1,$1+$1,$6,$7,$8,$9,0*
20,1,$1+$1,$8,$9,$2,$3,0*%
G04 Aperture macros list end*
%TA.AperFunction,ComponentPad*%
%ADD10C,2.000000*%
%TD*%
%TA.AperFunction,SMDPad,CuDef*%
%ADD11C,1.500000*%
%TD*%
%TA.AperFunction,ComponentPad*%
%ADD12RoundRect,0.250000X-0.550000X-0.550000X0.550000X-0.550000X0.550000X0.550000X-0.550000X0.550000X0*%
%TD*%
%TA.AperFunction,ComponentPad*%
%ADD13C,1.600000*%
%TD*%
%TA.AperFunction,ComponentPad*%
%ADD14RoundRect,0.250000X0.750000X-0.600000X0.750000X0.600000X-0.750000X0.600000X-0.750000X-0.600000X0*%
%TD*%
%TA.AperFunction,ComponentPad*%
%ADD15O,2.000000X1.700000*%
%TD*%
%TA.AperFunction,SMDPad,CuDef*%
%ADD16C,1.000000*%
%TD*%
%TA.AperFunction,ComponentPad*%
%ADD17RoundRect,0.249999X0.850001X-0.850001X0.850001X0.850001X-0.850001X0.850001X-0.850001X-0.850001X0*%
%TD*%
%TA.AperFunction,ComponentPad*%
%ADD18C,2.200000*%
%TD*%
%TA.AperFunction,SMDPad,CuDef*%
%ADD19RoundRect,0.375000X-0.625000X-0.375000X0.625000X-0.375000X0.625000X0.375000X-0.625000X0.375000X0*%
%TD*%
%TA.AperFunction,SMDPad,CuDef*%
%ADD20RoundRect,0.500000X-0.500000X-1.400000X0.500000X-1.400000X0.500000X1.400000X-0.500000X1.400000X0*%
%TD*%
%TA.AperFunction,ComponentPad*%
%ADD21RoundRect,0.250000X-0.750000X-0.750000X0.750000X-0.750000X0.750000X0.750000X-0.750000X0.750000X0*%
%TD*%
%TA.AperFunction,ComponentPad*%
%ADD22R,1.700000X1.700000*%
%TD*%
%TA.AperFunction,ComponentPad*%
%ADD23C,1.700000*%
%TD*%
%TA.AperFunction,SMDPad,CuDef*%
%ADD24RoundRect,0.150000X-0.825000X-0.150000X0.825000X-0.150000X0.825000X0.150000X-0.825000X0.150000X0*%
%TD*%
%TA.AperFunction,SMDPad,CuDef*%
%ADD25R,1.500000X0.900000*%
%TD*%
%TA.AperFunction,SMDPad,CuDef*%
%ADD26R,0.900000X1.500000*%
%TD*%
%TA.AperFunction,HeatsinkPad*%
%ADD27R,0.900000X0.900000*%
%TD*%
%TA.AperFunction,HeatsinkPad*%
%ADD28C,0.600000*%
%TD*%
%TA.AperFunction,ComponentPad*%
%ADD29C,3.000000*%
%TD*%
%TA.AperFunction,ComponentPad*%
%ADD30C,2.500000*%
%TD*%
%TA.AperFunction,ComponentPad*%
%ADD31R,1.800000X1.800000*%
%TD*%
%TA.AperFunction,ComponentPad*%
%ADD32C,1.800000*%
%TD*%
%TA.AperFunction,ComponentPad*%
%ADD33RoundRect,0.250000X1.050000X-1.050000X1.050000X1.050000X-1.050000X1.050000X-1.050000X-1.050000X0*%
%TD*%
%TA.AperFunction,ComponentPad*%
%ADD34C,2.600000*%
%TD*%
%TA.AperFunction,ComponentPad*%
%ADD35RoundRect,0.500000X0.500000X-0.500000X0.500000X0.500000X-0.500000X0.500000X-0.500000X-0.500000X0*%
%TD*%
%TA.AperFunction,ViaPad*%
%ADD36C,0.800000*%
%TD*%
%TA.AperFunction,ViaPad*%
%ADD37C,0.600000*%
%TD*%
%TA.AperFunction,Conductor*%
%ADD38C,0.250000*%
%TD*%
%TA.AperFunction,Conductor*%
%ADD39C,0.800000*%
%TD*%
%TA.AperFunction,Conductor*%
%ADD40C,1.500000*%
%TD*%
G04 APERTURE END LIST*
D10*
%TO.P,SW1,1*%
%TO.N,BTN_PIN*%
X164419000Y-137295000D03*
X170919000Y-137295000D03*
%TO.P,SW1,2*%
%TO.N,GND*%
X164419000Y-141795000D03*
X170919000Y-141795000D03*
%TD*%
D11*
%TO.P,TP3,1*%
%TO.N,GND*%
X161035300Y-165200000D03*
%TD*%
D12*
%TO.P,C2,1*%
%TO.N,+3V3*%
X175657800Y-145875000D03*
D13*
%TO.P,C2,2*%
%TO.N,GND*%
X178157800Y-145875000D03*
%TD*%
D14*
%TO.P,PS1,1*%
%TO.N,AC_L_FUSED*%
X133239000Y-121485000D03*
D15*
%TO.P,PS1,2*%
%TO.N,AC_N*%
X138239000Y-121485000D03*
%TO.P,PS1,3*%
%TO.N,GND*%
X128239000Y-92405000D03*
%TO.P,PS1,4*%
%TO.N,+5V*%
X143239000Y-92405000D03*
%TD*%
D16*
%TO.P,FID2,*%
%TO.N,*%
X178145300Y-166600000D03*
%TD*%
D17*
%TO.P,D1,1*%
%TO.N,+5V*%
X182999000Y-153985000D03*
D18*
%TO.P,D1,2*%
%TO.N,RELAY_PIN_COIL*%
X182999000Y-143825000D03*
%TD*%
D13*
%TO.P,RV1,1*%
%TO.N,AC_L_FUSED*%
X107545000Y-145275000D03*
%TO.P,RV1,2*%
%TO.N,AC_N*%
X112545000Y-146575000D03*
%TD*%
D12*
%TO.P,U4,1*%
%TO.N,RELAY_PIN_OPT*%
X174569000Y-137315000D03*
D13*
%TO.P,U4,2*%
%TO.N,GND*%
X174569000Y-139855000D03*
%TO.P,U4,3*%
%TO.N,RELAY_PIN_DRV*%
X182189000Y-139855000D03*
%TO.P,U4,4*%
%TO.N,+5V*%
X182189000Y-137315000D03*
%TD*%
D19*
%TO.P,U2,1*%
%TO.N,GND*%
X168799000Y-151665000D03*
%TO.P,U2,2*%
%TO.N,+3V3*%
X168799000Y-153965000D03*
D20*
X175099000Y-153965000D03*
D19*
%TO.P,U2,3*%
%TO.N,+5V*%
X168799000Y-156265000D03*
%TD*%
D21*
%TO.P,C1,1*%
%TO.N,+5V*%
X154077800Y-141045000D03*
D10*
%TO.P,C1,2*%
%TO.N,GND*%
X159077800Y-141045000D03*
%TD*%
D22*
%TO.P,JP,1*%
%TO.N,UART_TX*%
X164689000Y-146155000D03*
D23*
%TO.P,JP,2*%
%TO.N,UART_RX*%
X164689000Y-148695000D03*
%TO.P,JP,3*%
%TO.N,GND*%
X164689000Y-151235000D03*
%TD*%
D24*
%TO.P,U3,1*%
%TO.N,AC_L_FUSED*%
X125464000Y-144470000D03*
%TO.P,U3,2*%
%TO.N,RELAY_PIN_SW*%
X125464000Y-145740000D03*
%TO.P,U3,3*%
%TO.N,AC_LOAD*%
X125464000Y-147010000D03*
%TO.P,U3,4*%
%TO.N,GND*%
X125464000Y-148280000D03*
%TO.P,U3,5*%
%TO.N,MTR_CF*%
X130414000Y-148280000D03*
%TO.P,U3,6*%
%TO.N,MTR_CF1*%
X130414000Y-147010000D03*
%TO.P,U3,7*%
%TO.N,MTR_SEL*%
X130414000Y-145740000D03*
%TO.P,U3,8*%
%TO.N,+3V3*%
X130414000Y-144470000D03*
%TD*%
D25*
%TO.P,U1,1*%
%TO.N,GND*%
X159534000Y-102470000D03*
%TO.P,U1,2*%
%TO.N,+3V3*%
X159534000Y-103740000D03*
%TO.P,U1,3*%
%TO.N,EN*%
X159534000Y-105010000D03*
%TO.P,U1,4*%
%TO.N,N$U1.4*%
X159534000Y-106280000D03*
%TO.P,U1,5*%
%TO.N,N$U1.5*%
X159534000Y-107550000D03*
%TO.P,U1,6*%
%TO.N,MTR_CF1*%
X159534000Y-108820000D03*
%TO.P,U1,7*%
%TO.N,MTR_CF*%
X159534000Y-110090000D03*
%TO.P,U1,8*%
%TO.N,N$U1.8*%
X159534000Y-111360000D03*
%TO.P,U1,9*%
%TO.N,N$U1.9*%
X159534000Y-112630000D03*
%TO.P,U1,10*%
%TO.N,MTR_SEL*%
X159534000Y-113900000D03*
%TO.P,U1,11*%
%TO.N,RELAY_PIN*%
X159534000Y-115170000D03*
%TO.P,U1,12*%
%TO.N,N$U1.12*%
X159534000Y-116440000D03*
%TO.P,U1,13*%
%TO.N,N$U1.13*%
X159534000Y-117710000D03*
%TO.P,U1,14*%
%TO.N,N$U1.14*%
X159534000Y-118980000D03*
D26*
%TO.P,U1,15*%
%TO.N,GND*%
X162569000Y-120230000D03*
%TO.P,U1,16*%
%TO.N,N$U1.16*%
X163839000Y-120230000D03*
%TO.P,U1,17*%
%TO.N,N$U1.17*%
X165109000Y-120230000D03*
%TO.P,U1,18*%
%TO.N,N$U1.18*%
X166379000Y-120230000D03*
%TO.P,U1,19*%
%TO.N,N$U1.19*%
X167649000Y-120230000D03*
%TO.P,U1,20*%
%TO.N,N$U1.20*%
X168919000Y-120230000D03*
%TO.P,U1,21*%
%TO.N,N$U1.21*%
X170189000Y-120230000D03*
%TO.P,U1,22*%
%TO.N,N$U1.22*%
X171459000Y-120230000D03*
%TO.P,U1,23*%
%TO.N,N$U1.23*%
X172729000Y-120230000D03*
%TO.P,U1,24*%
%TO.N,LED_PIN*%
X173999000Y-120230000D03*
D25*
%TO.P,U1,25*%
%TO.N,BTN_PIN*%
X177034000Y-118980000D03*
%TO.P,U1,26*%
%TO.N,N$U1.26*%
X177034000Y-117710000D03*
%TO.P,U1,27*%
%TO.N,N$U1.27*%
X177034000Y-116440000D03*
%TO.P,U1,28*%
%TO.N,N$U1.28*%
X177034000Y-115170000D03*
%TO.P,U1,29*%
%TO.N,N$U1.29*%
X177034000Y-113900000D03*
%TO.P,U1,30*%
%TO.N,N$U1.30*%
X177034000Y-112630000D03*
%TO.P,U1,31*%
%TO.N,N$U1.31*%
X177034000Y-111360000D03*
%TO.P,U1,32*%
%TO.N,N$U1.32*%
X177034000Y-110090000D03*
%TO.P,U1,33*%
%TO.N,N$U1.33*%
X177034000Y-108820000D03*
%TO.P,U1,34*%
%TO.N,UART_RX*%
X177034000Y-107550000D03*
%TO.P,U1,35*%
%TO.N,UART_TX*%
X177034000Y-106280000D03*
%TO.P,U1,36*%
%TO.N,N$U1.36*%
X177034000Y-105010000D03*
%TO.P,U1,37*%
%TO.N,N$U1.37*%
X177034000Y-103740000D03*
%TO.P,U1,38*%
%TO.N,GND*%
X177034000Y-102470000D03*
D27*
%TO.P,U1,39*%
X165384000Y-108790000D03*
D28*
X165384000Y-109490000D03*
D27*
X165384000Y-110190000D03*
D28*
X165384000Y-110890000D03*
D27*
X165384000Y-111590000D03*
D28*
X166084000Y-108790000D03*
X166084000Y-110190000D03*
X166084000Y-111590000D03*
D27*
X166784000Y-108790000D03*
D28*
X166784000Y-109490000D03*
D27*
X166784000Y-110190000D03*
D28*
X166784000Y-110890000D03*
D27*
X166784000Y-111590000D03*
D28*
X167484000Y-108790000D03*
X167484000Y-110190000D03*
X167484000Y-111590000D03*
D27*
X168184000Y-108790000D03*
D28*
X168184000Y-109490000D03*
D27*
X168184000Y-110190000D03*
D28*
X168184000Y-110890000D03*
D27*
X168184000Y-111590000D03*
%TD*%
D29*
%TO.P,K1,1*%
%TO.N,AC_L_FUSED*%
X125789000Y-134635000D03*
D30*
%TO.P,K1,2*%
%TO.N,+5V*%
X127739000Y-140685000D03*
D29*
%TO.P,K1,3*%
%TO.N,RELAY_PIN_SW*%
X139939000Y-140685000D03*
%TO.P,K1,4*%
%TO.N,N$K1.4*%
X139989000Y-128635000D03*
D30*
%TO.P,K1,5*%
%TO.N,RELAY_PIN_COIL*%
X127739000Y-128685000D03*
%TD*%
D31*
%TO.P,LED0,1*%
%TO.N,GND*%
X168699000Y-146595000D03*
D32*
%TO.P,LED0,2*%
%TO.N,LED0_A*%
X171239000Y-146595000D03*
%TD*%
D33*
%TO.P,J1,1*%
%TO.N,AC_L*%
X112005000Y-104295000D03*
D34*
%TO.P,J1,2*%
%TO.N,AC_N*%
X112005000Y-99295000D03*
%TO.P,J1,3*%
%TO.N,AC_LOAD*%
X112005000Y-94295000D03*
%TD*%
D31*
%TO.P,LED1,1*%
%TO.N,GND*%
X152479000Y-149595000D03*
D32*
%TO.P,LED1,2*%
%TO.N,LED_PIN_A*%
X155019000Y-149595000D03*
%TD*%
D11*
%TO.P,TP2,1*%
%TO.N,+3V3*%
X157035300Y-165200000D03*
%TD*%
D35*
%TO.P,F1,1*%
%TO.N,AC_L*%
X109195000Y-135635000D03*
X109195000Y-130635000D03*
D10*
%TO.P,F1,2*%
%TO.N,AC_L_FUSED*%
X109195000Y-120635000D03*
X109195000Y-115635000D03*
%TD*%
D16*
%TO.P,FID1,*%
%TO.N,*%
X110657300Y-83200000D03*
%TD*%
D11*
%TO.P,TP1,1*%
%TO.N,+5V*%
X153035300Y-165200000D03*
%TD*%
D36*
%TO.N,GND*%
X179784000Y-117750000D03*
X155284000Y-114250000D03*
X186784000Y-96750000D03*
X162284000Y-124750000D03*
X186784000Y-152750000D03*
X176284000Y-135250000D03*
X172784000Y-135250000D03*
X158784000Y-131750000D03*
X172784000Y-93250000D03*
X151784000Y-82750000D03*
X186784000Y-121250000D03*
X158784000Y-163250000D03*
X172784000Y-89750000D03*
X179784000Y-89750000D03*
X162284000Y-107250000D03*
X183284000Y-121250000D03*
X128083700Y-94077500D03*
X165784000Y-107250000D03*
X165784000Y-117750000D03*
X173714000Y-144815000D03*
X155284000Y-152750000D03*
X165784000Y-128250000D03*
X186784000Y-135250000D03*
X162284000Y-156250000D03*
X165784000Y-131750000D03*
X179784000Y-86250000D03*
X179784000Y-96750000D03*
X165784000Y-156250000D03*
X169284000Y-110750000D03*
X155284000Y-128250000D03*
X183284000Y-149250000D03*
X168699000Y-144295000D03*
X155284000Y-163250000D03*
X183284000Y-82750000D03*
X162284000Y-135250000D03*
X165784000Y-135250000D03*
X169284000Y-117750000D03*
X183284000Y-114250000D03*
X186784000Y-89750000D03*
X169284000Y-128250000D03*
X155284000Y-107250000D03*
X151784000Y-86250000D03*
X179784000Y-159750000D03*
X158784000Y-166750000D03*
X169284000Y-159750000D03*
X172784000Y-107250000D03*
X162284000Y-114250000D03*
X158784000Y-128250000D03*
X155284000Y-131750000D03*
X172784000Y-117750000D03*
X176284000Y-124750000D03*
X172784000Y-163250000D03*
X162284000Y-89750000D03*
X172784000Y-128250000D03*
X179184000Y-102470000D03*
X169284000Y-114250000D03*
X179784000Y-107250000D03*
X169284000Y-163250000D03*
X169284000Y-103750000D03*
X155284000Y-103750000D03*
X186784000Y-93250000D03*
X186784000Y-124750000D03*
X151784000Y-131750000D03*
X164689000Y-153485000D03*
X151784000Y-117750000D03*
X179784000Y-121250000D03*
X155284000Y-159750000D03*
X151784000Y-138750000D03*
X157384000Y-102470000D03*
X162284000Y-86250000D03*
X151784000Y-100250000D03*
X186784000Y-149250000D03*
X172784000Y-131750000D03*
X158784000Y-82750000D03*
X186784000Y-138750000D03*
X169284000Y-93250000D03*
X176284000Y-163250000D03*
X165784000Y-159750000D03*
X151784000Y-96750000D03*
X172784000Y-124750000D03*
X172784000Y-159750000D03*
X179784000Y-135250000D03*
X151784000Y-110750000D03*
X179784000Y-103750000D03*
X176284000Y-131750000D03*
X155284000Y-100250000D03*
X186784000Y-110750000D03*
X165784000Y-103750000D03*
X169284000Y-124750000D03*
X155284000Y-110750000D03*
X179784000Y-156250000D03*
X172784000Y-103750000D03*
X165784000Y-163250000D03*
X179784000Y-110750000D03*
X172784000Y-86250000D03*
X186784000Y-86250000D03*
X179784000Y-131750000D03*
X155284000Y-121250000D03*
X158784000Y-159750000D03*
X151784000Y-89750000D03*
X151784000Y-142250000D03*
X158784000Y-86250000D03*
X162284000Y-82750000D03*
X176284000Y-93250000D03*
X162284000Y-159750000D03*
X183284000Y-163250000D03*
X183284000Y-135250000D03*
X183284000Y-86250000D03*
X172784000Y-166750000D03*
X186784000Y-156250000D03*
X186784000Y-117750000D03*
X165784000Y-86250000D03*
X152479000Y-151895000D03*
X165784000Y-124750000D03*
X155284000Y-124750000D03*
X179784000Y-93250000D03*
X169284000Y-86250000D03*
X151784000Y-114250000D03*
X183284000Y-124750000D03*
X165784000Y-93250000D03*
X176284000Y-166750000D03*
X179784000Y-82750000D03*
X179784000Y-152750000D03*
X170919000Y-144195000D03*
X155284000Y-86250000D03*
X186784000Y-82750000D03*
X186784000Y-114250000D03*
X179784000Y-163250000D03*
X151784000Y-121250000D03*
X162284000Y-128250000D03*
X151784000Y-107250000D03*
X186784000Y-145750000D03*
X186784000Y-131750000D03*
X162284000Y-117750000D03*
X151784000Y-159750000D03*
X157029000Y-141945000D03*
X151784000Y-124750000D03*
X162284000Y-166750000D03*
X176284000Y-82750000D03*
X151784000Y-152750000D03*
X186784000Y-142250000D03*
X162284000Y-163250000D03*
X176284000Y-86250000D03*
X165784000Y-114250000D03*
X172784000Y-82750000D03*
X183284000Y-93250000D03*
X151784000Y-103750000D03*
X169284000Y-166750000D03*
X183284000Y-128250000D03*
X151784000Y-163250000D03*
X186784000Y-107250000D03*
X158784000Y-121250000D03*
X169284000Y-82750000D03*
X162284000Y-152750000D03*
X158784000Y-89750000D03*
X169284000Y-89750000D03*
X179784000Y-124750000D03*
X186784000Y-159750000D03*
X180358000Y-145875000D03*
X155284000Y-96750000D03*
X155284000Y-117750000D03*
X172784000Y-110750000D03*
X179784000Y-114250000D03*
X183284000Y-131750000D03*
X158784000Y-93250000D03*
X176284000Y-89750000D03*
X183284000Y-100250000D03*
X176284000Y-121250000D03*
X176284000Y-128250000D03*
X179784000Y-138750000D03*
X151784000Y-93250000D03*
X183284000Y-117750000D03*
X172784000Y-156250000D03*
X169284000Y-131750000D03*
X155284000Y-89750000D03*
X162284000Y-93250000D03*
X151784000Y-166750000D03*
X158784000Y-124750000D03*
X186784000Y-103750000D03*
X158784000Y-156250000D03*
X166819000Y-141795000D03*
X186784000Y-128250000D03*
X172784000Y-114250000D03*
X183284000Y-159750000D03*
X183284000Y-103750000D03*
X155284000Y-156250000D03*
X179784000Y-100250000D03*
X155284000Y-93250000D03*
X151784000Y-156250000D03*
X176284000Y-159750000D03*
X162284000Y-110750000D03*
X151784000Y-128250000D03*
X154196000Y-147378000D03*
X165784000Y-89750000D03*
X172784000Y-138750000D03*
X165784000Y-82750000D03*
X183284000Y-110750000D03*
X169284000Y-135250000D03*
X169284000Y-107250000D03*
X162284000Y-131750000D03*
X162284000Y-138750000D03*
X155284000Y-166750000D03*
X186784000Y-100250000D03*
X158784000Y-138750000D03*
X155284000Y-138750000D03*
X183284000Y-96750000D03*
X179784000Y-128250000D03*
X183284000Y-89750000D03*
X155284000Y-82750000D03*
X183284000Y-107250000D03*
X165784000Y-166750000D03*
X162284000Y-103750000D03*
X186784000Y-163250000D03*
%TO.N,+3V3*%
X160559000Y-156400000D03*
X159859900Y-135400000D03*
X155567900Y-144756900D03*
X146897200Y-135895400D03*
D37*
%TO.N,MTR_CF*%
X161726600Y-116531900D03*
X143260600Y-132523900D03*
X142294500Y-134897100D03*
X131961700Y-147178700D03*
%TO.N,MTR_CF1*%
X161150200Y-143013400D03*
%TO.N,MTR_SEL*%
X161084000Y-113810000D03*
X143452200Y-130574200D03*
%TO.N,RELAY_PIN*%
X160224400Y-132400400D03*
%TO.N,LED_PIN*%
X163129500Y-146872500D03*
%TO.N,LED_PIN_A*%
X161351700Y-147745000D03*
X156411100Y-146660800D03*
%TD*%
%TO.N,BTN_PIN*%
D38*
X177034000Y-118980000D02*
X178110700Y-118980000D01*
X171938500Y-137295000D02*
X170919000Y-137295000D01*
X178110700Y-131122800D02*
X171938500Y-137295000D01*
X178110700Y-118980000D02*
X178110700Y-131122800D01*
%TO.N,GND*%
D39*
X128083700Y-94077500D02*
X128204500Y-93956700D01*
X128239000Y-92405000D02*
X128239000Y-93956700D01*
X128204500Y-93956700D02*
X128239000Y-93956700D01*
%TO.N,+3V3*%
X138312400Y-135898800D02*
X146893800Y-135898800D01*
X174681500Y-153965000D02*
X175657800Y-152988700D01*
X168799000Y-153965000D02*
X174681500Y-153965000D01*
X159534000Y-103740000D02*
X158082300Y-103740000D01*
X130414000Y-144470000D02*
X130414000Y-143797200D01*
X130414000Y-143797200D02*
X138312400Y-135898800D01*
X157630600Y-138308800D02*
X155780500Y-140158900D01*
X157035300Y-165200000D02*
X157035300Y-159923700D01*
X174681500Y-153965000D02*
X175099000Y-153965000D01*
X175657800Y-152988700D02*
X175657800Y-145875000D01*
X157630600Y-135400000D02*
X157630600Y-138308800D01*
X157630600Y-135400000D02*
X157630600Y-104191700D01*
X157630600Y-135400000D02*
X159859900Y-135400000D01*
X155780500Y-144544300D02*
X155567900Y-144756900D01*
X155780500Y-140158900D02*
X155780500Y-144544300D01*
X157630600Y-104191700D02*
X158082300Y-103740000D01*
X157035300Y-159923700D02*
X160559000Y-156400000D01*
%TO.N,AC_L_FUSED*%
D40*
X109195000Y-115635000D02*
X109195000Y-120635000D01*
%TO.N,+5V*%
D39*
X154077800Y-139432000D02*
X144110800Y-129465000D01*
X154077800Y-145084200D02*
X153851300Y-145310700D01*
X167852500Y-156265000D02*
X168799000Y-156265000D01*
X184842700Y-152141300D02*
X182999000Y-153985000D01*
X166243200Y-154655700D02*
X167852500Y-156265000D01*
X176809900Y-157401900D02*
X180226800Y-153985000D01*
X143239000Y-129465000D02*
X143144800Y-129465000D01*
X143239000Y-92405000D02*
X143239000Y-129465000D01*
X155409400Y-147075700D02*
X156097400Y-147763700D01*
X150616100Y-163722100D02*
X150616100Y-148617200D01*
X153851300Y-145310700D02*
X153851300Y-145381900D01*
X182189000Y-137315000D02*
X184842700Y-139968700D01*
X180226800Y-153985000D02*
X182999000Y-153985000D01*
X168799000Y-156265000D02*
X169935900Y-157401900D01*
X153851400Y-145381900D02*
X155409400Y-146940000D01*
X184842700Y-139968700D02*
X184842700Y-152141300D01*
X153035300Y-165200000D02*
X152094000Y-165200000D01*
X152094000Y-165200000D02*
X150616100Y-163722100D01*
X144110800Y-129465000D02*
X143239000Y-129465000D01*
X156097400Y-148152100D02*
X162601000Y-154655700D01*
X162601000Y-154655700D02*
X166243200Y-154655700D01*
X154077800Y-141045000D02*
X154077800Y-139432000D01*
X155409400Y-146940000D02*
X155409400Y-147075700D01*
X169935900Y-157401900D02*
X176809900Y-157401900D01*
X156097400Y-147763700D02*
X156097400Y-148152100D01*
X140020700Y-132589100D02*
X135834900Y-132589100D01*
X143144800Y-129465000D02*
X140020700Y-132589100D01*
X154077800Y-141045000D02*
X154077800Y-145084200D01*
X150616100Y-148617200D02*
X153851400Y-145381900D01*
X135834900Y-132589100D02*
X127739000Y-140685000D01*
%TO.N,UART_TX*%
D38*
X164689000Y-146155000D02*
X164689000Y-144978300D01*
X164836100Y-144978300D02*
X167873800Y-141940600D01*
X177034000Y-106280000D02*
X175957300Y-106280000D01*
X174783300Y-107454000D02*
X175957300Y-106280000D01*
X174783300Y-131478100D02*
X174783300Y-107454000D01*
X167873800Y-141940600D02*
X167873800Y-138387600D01*
X164689000Y-144978300D02*
X164836100Y-144978300D01*
X167873800Y-138387600D02*
X174783300Y-131478100D01*
%TO.N,UART_RX*%
X164689000Y-148695000D02*
X165939000Y-147445000D01*
X171192000Y-145195000D02*
X178575000Y-137812000D01*
X178575000Y-108014300D02*
X178110700Y-107550000D01*
X178575000Y-137812000D02*
X178575000Y-108014300D01*
X165939000Y-147445000D02*
X165939000Y-146882400D01*
X167626400Y-145195000D02*
X171192000Y-145195000D01*
X165939000Y-146882400D02*
X167626400Y-145195000D01*
X177034000Y-107550000D02*
X178110700Y-107550000D01*
%TO.N,MTR_CF*%
X159534000Y-110090000D02*
X160610700Y-110090000D01*
X163119200Y-113196000D02*
X163119200Y-115139300D01*
X160610700Y-110687500D02*
X163119200Y-113196000D01*
X142294500Y-133490000D02*
X142294500Y-134897100D01*
X131961700Y-147178700D02*
X130860400Y-148280000D01*
X143260600Y-132523900D02*
X142294500Y-133490000D01*
X163119200Y-115139300D02*
X161726600Y-116531900D01*
X130860400Y-148280000D02*
X130414000Y-148280000D01*
X160610700Y-110090000D02*
X160610700Y-110687500D01*
%TO.N,MTR_CF1*%
X161523500Y-108820000D02*
X159534000Y-108820000D01*
X163581000Y-110877500D02*
X161523500Y-108820000D01*
X163581000Y-117674700D02*
X163581000Y-110877500D01*
X161889800Y-119053300D02*
X162202400Y-119053300D01*
X162202400Y-119053300D02*
X163581000Y-117674700D01*
X161150200Y-143013400D02*
X161150200Y-119792900D01*
X161150200Y-119792900D02*
X161889800Y-119053300D01*
%TO.N,MTR_SEL*%
X140425700Y-133600700D02*
X139378600Y-133600700D01*
X129875200Y-145740000D02*
X130414000Y-145740000D01*
X160994000Y-113900000D02*
X161084000Y-113810000D01*
X159534000Y-113900000D02*
X160994000Y-113900000D01*
X143452200Y-130574200D02*
X140425700Y-133600700D01*
X128959000Y-144823800D02*
X129875200Y-145740000D01*
X128959000Y-144020300D02*
X128959000Y-144823800D01*
X139378600Y-133600700D02*
X128959000Y-144020300D01*
%TO.N,RELAY_PIN*%
X160521000Y-115764900D02*
X160419400Y-115663300D01*
X160419400Y-115663300D02*
X158648600Y-115663300D01*
X160610600Y-115764900D02*
X160521000Y-115764900D01*
X159534000Y-115170000D02*
X160610700Y-115170000D01*
X160610700Y-115170000D02*
X160610700Y-115764800D01*
X160224400Y-121334600D02*
X160224400Y-132400400D01*
X158648600Y-115663300D02*
X158457300Y-115854600D01*
X158457300Y-115854600D02*
X158457300Y-119567500D01*
X158457300Y-119567500D02*
X160224400Y-121334600D01*
%TO.N,LED_PIN*%
X173999000Y-120230000D02*
X173999000Y-129210100D01*
X173999000Y-129210100D02*
X165906800Y-137302300D01*
X165906800Y-137302300D02*
X165906800Y-142373500D01*
X163129500Y-145150800D02*
X163129500Y-146872500D01*
X165906800Y-142373500D02*
X163129500Y-145150800D01*
%TO.N,AC_L*%
D40*
X105436700Y-126876700D02*
X105436700Y-110863300D01*
X105436700Y-110863300D02*
X112005000Y-104295000D01*
X109195000Y-130635000D02*
X105436700Y-126876700D01*
X109195000Y-130635000D02*
X109195000Y-135635000D01*
%TO.N,LED_PIN_A*%
D38*
X161351700Y-147745000D02*
X157495300Y-147745000D01*
X157495300Y-147745000D02*
X156411100Y-146660800D01*
%TD*%
%TA.AperFunction,Conductor*%
%TO.N,GND*%
G36*
X187316943Y-81019685D02*
G01*
X187326377Y-81026389D01*
X187451573Y-81124474D01*
X187462781Y-81134404D01*
X187665596Y-81337219D01*
X187675525Y-81348426D01*
X187773611Y-81473623D01*
X187799460Y-81538532D01*
X187800000Y-81550094D01*
X187800000Y-168249903D01*
X187780315Y-168316942D01*
X187773611Y-168326376D01*
X187675525Y-168451573D01*
X187665595Y-168462781D01*
X187462781Y-168665595D01*
X187451574Y-168675524D01*
X187326378Y-168773610D01*
X187261466Y-168799460D01*
X187249904Y-168800000D01*
X150158000Y-168800000D01*
X150090961Y-168780315D01*
X150045206Y-168727511D01*
X150034000Y-168676000D01*
X150034000Y-166513389D01*
X177044800Y-166513389D01*
X177044800Y-166686611D01*
X177071898Y-166857701D01*
X177125427Y-167022445D01*
X177204068Y-167176788D01*
X177305886Y-167316928D01*
X177428372Y-167439414D01*
X177568512Y-167541232D01*
X177722855Y-167619873D01*
X177887599Y-167673402D01*
X178058689Y-167700500D01*
X178058690Y-167700500D01*
X178231910Y-167700500D01*
X178231911Y-167700500D01*
X178403001Y-167673402D01*
X178567745Y-167619873D01*
X178722088Y-167541232D01*
X178862228Y-167439414D01*
X178984714Y-167316928D01*
X179086532Y-167176788D01*
X179165173Y-167022445D01*
X179218702Y-166857701D01*
X179245800Y-166686611D01*
X179245800Y-166513389D01*
X179218702Y-166342299D01*
X179165173Y-166177555D01*
X179086532Y-166023212D01*
X178984714Y-165883072D01*
X178862228Y-165760586D01*
X178754057Y-165681995D01*
X182998200Y-165681995D01*
X182998200Y-165918012D01*
X183029006Y-166152010D01*
X183090094Y-166379993D01*
X183180414Y-166598045D01*
X183180419Y-166598056D01*
X183231547Y-166686611D01*
X183298427Y-166802450D01*
X183298429Y-166802453D01*
X183298430Y-166802454D01*
X183442106Y-166989697D01*
X183442112Y-166989704D01*
X183608995Y-167156587D01*
X183609001Y-167156592D01*
X183796250Y-167300273D01*
X183927618Y-167376118D01*
X184000643Y-167418280D01*
X184000648Y-167418282D01*
X184000651Y-167418284D01*
X184218707Y-167508606D01*
X184446686Y-167569693D01*
X184680689Y-167600500D01*
X184680696Y-167600500D01*
X184916704Y-167600500D01*
X184916711Y-167600500D01*
X185150714Y-167569693D01*
X185378693Y-167508606D01*
X185596749Y-167418284D01*
X185801150Y-167300273D01*
X185988399Y-167156592D01*
X186155292Y-166989699D01*
X186298973Y-166802450D01*
X186416984Y-166598049D01*
X186507306Y-166379993D01*
X186568393Y-166152014D01*
X186599200Y-165918011D01*
X186599200Y-165681989D01*
X186568393Y-165447986D01*
X186507306Y-165220007D01*
X186416984Y-165001951D01*
X186416982Y-165001948D01*
X186416980Y-165001943D01*
X186362264Y-164907173D01*
X186298973Y-164797550D01*
X186166710Y-164625181D01*
X186155293Y-164610302D01*
X186155287Y-164610295D01*
X185988404Y-164443412D01*
X185988397Y-164443406D01*
X185801154Y-164299730D01*
X185801153Y-164299729D01*
X185801150Y-164299727D01*
X185692606Y-164237059D01*
X185596756Y-164181719D01*
X185596745Y-164181714D01*
X185378693Y-164091394D01*
X185191057Y-164041117D01*
X185150714Y-164030307D01*
X185150713Y-164030306D01*
X185150710Y-164030306D01*
X184916720Y-163999501D01*
X184916717Y-163999500D01*
X184916711Y-163999500D01*
X184680689Y-163999500D01*
X184680683Y-163999500D01*
X184680679Y-163999501D01*
X184446689Y-164030306D01*
X184218706Y-164091394D01*
X184000654Y-164181714D01*
X184000643Y-164181719D01*
X183796245Y-164299730D01*
X183609002Y-164443406D01*
X183608995Y-164443412D01*
X183442112Y-164610295D01*
X183442106Y-164610302D01*
X183298430Y-164797545D01*
X183180419Y-165001943D01*
X183180414Y-165001954D01*
X183090094Y-165220006D01*
X183029006Y-165447989D01*
X182998201Y-165681979D01*
X182998200Y-165681995D01*
X178754057Y-165681995D01*
X178722088Y-165658768D01*
X178567745Y-165580127D01*
X178403001Y-165526598D01*
X178402999Y-165526597D01*
X178402998Y-165526597D01*
X178271571Y-165505781D01*
X178231911Y-165499500D01*
X178058689Y-165499500D01*
X178019028Y-165505781D01*
X177887602Y-165526597D01*
X177722852Y-165580128D01*
X177568511Y-165658768D01*
X177488556Y-165716859D01*
X177428372Y-165760586D01*
X177428370Y-165760588D01*
X177428369Y-165760588D01*
X177305888Y-165883069D01*
X177305888Y-165883070D01*
X177305886Y-165883072D01*
X177280501Y-165918011D01*
X177204068Y-166023211D01*
X177125428Y-166177552D01*
X177071897Y-166342302D01*
X177044800Y-166513389D01*
X150034000Y-166513389D01*
X150034000Y-164712862D01*
X150053685Y-164645823D01*
X150106489Y-164600068D01*
X150175647Y-164590124D01*
X150239203Y-164619149D01*
X150245681Y-164625181D01*
X151519958Y-165899459D01*
X151519961Y-165899461D01*
X151519964Y-165899464D01*
X151547722Y-165918011D01*
X151667453Y-165998013D01*
X151749393Y-166031953D01*
X151831334Y-166065895D01*
X152005303Y-166100499D01*
X152005307Y-166100500D01*
X152005308Y-166100500D01*
X152005309Y-166100500D01*
X152115964Y-166100500D01*
X152183003Y-166120185D01*
X152203645Y-166136819D01*
X152220654Y-166153828D01*
X152379895Y-166269524D01*
X152462755Y-166311743D01*
X152555270Y-166358882D01*
X152555272Y-166358882D01*
X152555275Y-166358884D01*
X152652840Y-166390585D01*
X152742473Y-166419709D01*
X152936878Y-166450500D01*
X152936883Y-166450500D01*
X153133722Y-166450500D01*
X153328126Y-166419709D01*
X153329628Y-166419221D01*
X153515325Y-166358884D01*
X153690705Y-166269524D01*
X153849946Y-166153828D01*
X153989128Y-166014646D01*
X154104824Y-165855405D01*
X154194184Y-165680025D01*
X154255009Y-165492826D01*
X154255028Y-165492705D01*
X154285800Y-165298422D01*
X154285800Y-165101577D01*
X155784800Y-165101577D01*
X155784800Y-165298422D01*
X155815590Y-165492826D01*
X155876417Y-165680029D01*
X155965643Y-165855143D01*
X155965776Y-165855405D01*
X156081472Y-166014646D01*
X156220654Y-166153828D01*
X156379895Y-166269524D01*
X156462755Y-166311743D01*
X156555270Y-166358882D01*
X156555272Y-166358882D01*
X156555275Y-166358884D01*
X156652840Y-166390585D01*
X156742473Y-166419709D01*
X156936878Y-166450500D01*
X156936883Y-166450500D01*
X157133722Y-166450500D01*
X157328126Y-166419709D01*
X157329628Y-166419221D01*
X157515325Y-166358884D01*
X157690705Y-166269524D01*
X157726280Y-166243677D01*
X160345173Y-166243677D01*
X160345173Y-166243678D01*
X160380158Y-166269096D01*
X160555464Y-166358418D01*
X160742594Y-166419221D01*
X160936918Y-166450000D01*
X161133682Y-166450000D01*
X161328003Y-166419221D01*
X161416135Y-166390586D01*
X161416136Y-166390585D01*
X161515135Y-166358418D01*
X161690443Y-166269095D01*
X161725425Y-166243678D01*
X161725426Y-166243678D01*
X161035301Y-165553553D01*
X161035300Y-165553553D01*
X160345173Y-166243677D01*
X157726280Y-166243677D01*
X157849946Y-166153828D01*
X157989128Y-166014646D01*
X158104824Y-165855405D01*
X158194184Y-165680025D01*
X158255009Y-165492826D01*
X158255028Y-165492705D01*
X158285800Y-165298422D01*
X158285800Y-165101617D01*
X159785300Y-165101617D01*
X159785300Y-165298382D01*
X159816078Y-165492705D01*
X159876881Y-165679835D01*
X159966205Y-165855145D01*
X159991619Y-165890125D01*
X159991620Y-165890125D01*
X160681746Y-165200000D01*
X160681746Y-165199999D01*
X161388853Y-165199999D01*
X161388853Y-165200000D01*
X162078978Y-165890126D01*
X162078978Y-165890125D01*
X162104395Y-165855143D01*
X162193718Y-165679835D01*
X162254521Y-165492705D01*
X162285300Y-165298382D01*
X162285300Y-165101617D01*
X162254521Y-164907294D01*
X162193718Y-164720164D01*
X162104396Y-164544858D01*
X162078978Y-164509873D01*
X162078977Y-164509873D01*
X161388853Y-165199999D01*
X160681746Y-165199999D01*
X159991620Y-164509872D01*
X159991620Y-164509873D01*
X159966202Y-164544859D01*
X159966199Y-164544863D01*
X159876882Y-164720161D01*
X159816078Y-164907294D01*
X159785300Y-165101617D01*
X158285800Y-165101617D01*
X158285800Y-165101577D01*
X158255009Y-164907173D01*
X158194182Y-164719970D01*
X158128022Y-164590124D01*
X158104824Y-164544595D01*
X157989128Y-164385354D01*
X157972119Y-164368345D01*
X157957415Y-164341417D01*
X157940823Y-164315599D01*
X157939931Y-164309398D01*
X157938634Y-164307022D01*
X157935800Y-164280664D01*
X157935800Y-164156320D01*
X160345172Y-164156320D01*
X161035300Y-164846446D01*
X161035301Y-164846446D01*
X161725425Y-164156320D01*
X161725425Y-164156319D01*
X161690445Y-164130905D01*
X161515135Y-164041581D01*
X161328005Y-163980778D01*
X161133682Y-163950000D01*
X160936918Y-163950000D01*
X160742594Y-163980778D01*
X160555461Y-164041582D01*
X160380163Y-164130899D01*
X160380159Y-164130902D01*
X160345173Y-164156320D01*
X160345172Y-164156320D01*
X157935800Y-164156320D01*
X157935800Y-160348061D01*
X157955485Y-160281022D01*
X157972119Y-160260380D01*
X158882839Y-159349660D01*
X161258463Y-156974036D01*
X161261056Y-156970154D01*
X161264862Y-156964461D01*
X161310728Y-156895816D01*
X161357013Y-156826547D01*
X161424894Y-156662666D01*
X161436586Y-156603887D01*
X161444224Y-156565488D01*
X161459500Y-156488694D01*
X161459500Y-156311306D01*
X161459499Y-156311304D01*
X161424896Y-156137341D01*
X161424893Y-156137332D01*
X161399534Y-156076109D01*
X161357016Y-155973458D01*
X161357009Y-155973446D01*
X161258464Y-155825965D01*
X161258461Y-155825961D01*
X161133037Y-155700537D01*
X161133034Y-155700535D01*
X160985553Y-155601990D01*
X160985540Y-155601983D01*
X160821667Y-155534106D01*
X160821658Y-155534103D01*
X160647694Y-155499500D01*
X160647691Y-155499500D01*
X160470308Y-155499500D01*
X160470306Y-155499500D01*
X160296340Y-155534104D01*
X160296332Y-155534106D01*
X160132459Y-155601983D01*
X160132446Y-155601990D01*
X159984966Y-155700534D01*
X159984964Y-155700537D01*
X156335838Y-159349660D01*
X156335837Y-159349661D01*
X156296364Y-159408739D01*
X156296363Y-159408740D01*
X156237285Y-159497155D01*
X156203346Y-159579093D01*
X156169406Y-159661029D01*
X156169403Y-159661041D01*
X156134800Y-159835003D01*
X156134800Y-164280664D01*
X156115115Y-164347703D01*
X156098481Y-164368345D01*
X156081474Y-164385351D01*
X156081474Y-164385352D01*
X156081472Y-164385354D01*
X156039295Y-164443406D01*
X155965776Y-164544594D01*
X155876417Y-164719970D01*
X155815590Y-164907173D01*
X155784800Y-165101577D01*
X154285800Y-165101577D01*
X154255009Y-164907173D01*
X154194182Y-164719970D01*
X154128022Y-164590124D01*
X154104824Y-164544595D01*
X153989128Y-164385354D01*
X153849946Y-164246172D01*
X153690705Y-164130476D01*
X153690010Y-164130122D01*
X153515329Y-164041117D01*
X153328126Y-163980290D01*
X153133722Y-163949500D01*
X153133717Y-163949500D01*
X152936883Y-163949500D01*
X152936878Y-163949500D01*
X152742473Y-163980290D01*
X152555267Y-164041118D01*
X152405897Y-164117226D01*
X152337228Y-164130122D01*
X152272488Y-164103845D01*
X152261922Y-164094422D01*
X151552919Y-163385419D01*
X151519434Y-163324096D01*
X151516600Y-163297738D01*
X151516600Y-151119000D01*
X151536285Y-151051961D01*
X151589089Y-151006206D01*
X151640600Y-150995000D01*
X152229000Y-150995000D01*
X152229000Y-149970277D01*
X152305306Y-150014333D01*
X152419756Y-150045000D01*
X152538244Y-150045000D01*
X152652694Y-150014333D01*
X152729000Y-149970277D01*
X152729000Y-150995000D01*
X153426828Y-150995000D01*
X153426844Y-150994999D01*
X153486372Y-150988598D01*
X153486379Y-150988596D01*
X153621086Y-150938354D01*
X153621093Y-150938350D01*
X153736187Y-150852190D01*
X153736190Y-150852187D01*
X153822350Y-150737093D01*
X153822354Y-150737086D01*
X153852213Y-150657031D01*
X153894084Y-150601097D01*
X153959548Y-150576680D01*
X154027821Y-150591531D01*
X154056076Y-150612683D01*
X154106636Y-150663243D01*
X154106641Y-150663247D01*
X154252302Y-150769075D01*
X154284978Y-150792815D01*
X154367576Y-150834901D01*
X154481393Y-150892895D01*
X154481396Y-150892896D01*
X154561335Y-150918869D01*
X154691049Y-150961015D01*
X154908778Y-150995500D01*
X154908779Y-150995500D01*
X155129221Y-150995500D01*
X155129222Y-150995500D01*
X155346951Y-150961015D01*
X155556606Y-150892895D01*
X155753022Y-150792815D01*
X155931365Y-150663242D01*
X156087242Y-150507365D01*
X156216815Y-150329022D01*
X156316895Y-150132606D01*
X156345197Y-150045500D01*
X156373921Y-149957096D01*
X156413358Y-149899420D01*
X156477716Y-149872221D01*
X156546563Y-149884135D01*
X156579533Y-149907732D01*
X161901536Y-155229735D01*
X161975457Y-155303656D01*
X162026966Y-155355165D01*
X162174449Y-155453711D01*
X162174451Y-155453711D01*
X162174453Y-155453713D01*
X162334033Y-155519812D01*
X162334034Y-155519813D01*
X162335293Y-155520334D01*
X162338334Y-155521594D01*
X162338338Y-155521594D01*
X162338342Y-155521596D01*
X162512303Y-155556199D01*
X162512306Y-155556200D01*
X162512308Y-155556200D01*
X162512309Y-155556200D01*
X165818838Y-155556200D01*
X165885877Y-155575885D01*
X165906519Y-155592519D01*
X167278460Y-156964461D01*
X167278463Y-156964463D01*
X167278464Y-156964464D01*
X167369411Y-157025232D01*
X167411607Y-157073238D01*
X167431969Y-157114295D01*
X167551277Y-157262721D01*
X167551278Y-157262722D01*
X167699704Y-157382030D01*
X167699707Y-157382032D01*
X167870302Y-157466639D01*
X167870303Y-157466639D01*
X167870307Y-157466641D01*
X168055111Y-157512600D01*
X168097877Y-157515500D01*
X168724638Y-157515499D01*
X168791677Y-157535183D01*
X168812319Y-157551818D01*
X169236436Y-157975935D01*
X169361862Y-158101361D01*
X169361866Y-158101365D01*
X169509346Y-158199909D01*
X169509359Y-158199916D01*
X169632263Y-158250823D01*
X169673234Y-158267794D01*
X169673236Y-158267794D01*
X169673241Y-158267796D01*
X169847204Y-158302399D01*
X169847207Y-158302400D01*
X169847209Y-158302400D01*
X176898593Y-158302400D01*
X176898594Y-158302399D01*
X177072566Y-158267795D01*
X177154506Y-158233853D01*
X177236447Y-158199913D01*
X177236449Y-158199911D01*
X177236452Y-158199910D01*
X177324855Y-158140839D01*
X177324855Y-158140838D01*
X177324859Y-158140836D01*
X177383936Y-158101364D01*
X180563480Y-154921818D01*
X180624803Y-154888334D01*
X180651161Y-154885500D01*
X181286837Y-154885500D01*
X181353876Y-154905185D01*
X181399631Y-154957989D01*
X181408088Y-154983535D01*
X181408999Y-154987793D01*
X181409001Y-154987798D01*
X181464186Y-155154335D01*
X181556288Y-155303656D01*
X181680344Y-155427712D01*
X181829665Y-155519814D01*
X181996202Y-155574999D01*
X182098990Y-155585500D01*
X182098995Y-155585500D01*
X183899005Y-155585500D01*
X183899010Y-155585500D01*
X184001798Y-155574999D01*
X184168335Y-155519814D01*
X184317656Y-155427712D01*
X184441712Y-155303656D01*
X184533814Y-155154335D01*
X184588999Y-154987798D01*
X184599500Y-154885010D01*
X184599500Y-153709361D01*
X184619185Y-153642322D01*
X184635819Y-153621680D01*
X185542164Y-152715335D01*
X185574899Y-152666344D01*
X185577558Y-152662364D01*
X185640713Y-152567847D01*
X185647378Y-152551757D01*
X185665932Y-152506964D01*
X185665932Y-152506963D01*
X185674576Y-152486095D01*
X185708595Y-152403966D01*
X185743200Y-152229991D01*
X185743200Y-152052608D01*
X185743200Y-139880009D01*
X185738931Y-139858547D01*
X185708595Y-139706034D01*
X185658404Y-139584864D01*
X185657190Y-139581934D01*
X185640711Y-139542149D01*
X185542165Y-139394666D01*
X185490806Y-139343307D01*
X185416735Y-139269236D01*
X184473488Y-138325989D01*
X183525819Y-137378319D01*
X183492334Y-137316996D01*
X183489500Y-137290638D01*
X183489500Y-137212648D01*
X183457477Y-137010465D01*
X183394218Y-136815776D01*
X183360503Y-136749607D01*
X183301287Y-136633390D01*
X183265274Y-136583822D01*
X183180971Y-136467786D01*
X183036213Y-136323028D01*
X182870613Y-136202715D01*
X182870612Y-136202714D01*
X182870610Y-136202713D01*
X182797201Y-136165309D01*
X182688223Y-136109781D01*
X182493534Y-136046522D01*
X182318995Y-136018878D01*
X182291352Y-136014500D01*
X182086648Y-136014500D01*
X182062329Y-136018351D01*
X181884465Y-136046522D01*
X181689776Y-136109781D01*
X181507386Y-136202715D01*
X181341786Y-136323028D01*
X181197028Y-136467786D01*
X181076715Y-136633386D01*
X180983781Y-136815776D01*
X180920522Y-137010465D01*
X180888500Y-137212648D01*
X180888500Y-137417351D01*
X180920522Y-137619534D01*
X180983781Y-137814223D01*
X181035135Y-137915009D01*
X181075613Y-137994452D01*
X181076715Y-137996613D01*
X181197028Y-138162213D01*
X181341786Y-138306971D01*
X181466379Y-138397491D01*
X181507390Y-138427287D01*
X181598840Y-138473883D01*
X181600080Y-138474515D01*
X181650876Y-138522490D01*
X181667671Y-138590311D01*
X181645134Y-138656446D01*
X181600080Y-138695485D01*
X181507386Y-138742715D01*
X181341786Y-138863028D01*
X181197028Y-139007786D01*
X181076715Y-139173386D01*
X180983781Y-139355776D01*
X180920522Y-139550465D01*
X180888500Y-139752648D01*
X180888500Y-139957351D01*
X180920522Y-140159534D01*
X180983781Y-140354223D01*
X181037174Y-140459010D01*
X181076585Y-140536359D01*
X181076715Y-140536613D01*
X181197028Y-140702213D01*
X181341786Y-140846971D01*
X181451866Y-140926947D01*
X181507390Y-140967287D01*
X181588919Y-141008828D01*
X181689776Y-141060218D01*
X181689778Y-141060218D01*
X181689781Y-141060220D01*
X181794137Y-141094127D01*
X181884465Y-141123477D01*
X181913401Y-141128060D01*
X182086648Y-141155500D01*
X182086649Y-141155500D01*
X182291351Y-141155500D01*
X182291352Y-141155500D01*
X182493534Y-141123477D01*
X182688219Y-141060220D01*
X182870610Y-140967287D01*
X183029281Y-140852007D01*
X183036213Y-140846971D01*
X183036215Y-140846968D01*
X183036219Y-140846966D01*
X183180966Y-140702219D01*
X183180968Y-140702215D01*
X183180971Y-140702213D01*
X183267393Y-140583261D01*
X183301287Y-140536610D01*
X183394220Y-140354219D01*
X183457477Y-140159534D01*
X183460775Y-140138712D01*
X183490704Y-140075577D01*
X183550015Y-140038645D01*
X183619877Y-140039643D01*
X183670929Y-140070428D01*
X183905881Y-140305380D01*
X183939366Y-140366703D01*
X183942200Y-140393061D01*
X183942200Y-142306951D01*
X183922515Y-142373990D01*
X183869711Y-142419745D01*
X183800553Y-142429689D01*
X183761906Y-142417436D01*
X183613386Y-142341761D01*
X183373785Y-142263910D01*
X183372181Y-142263656D01*
X183124962Y-142224500D01*
X182873038Y-142224500D01*
X182748626Y-142244205D01*
X182624214Y-142263910D01*
X182384616Y-142341760D01*
X182160151Y-142456132D01*
X181956350Y-142604201D01*
X181956345Y-142604205D01*
X181778205Y-142782345D01*
X181778201Y-142782350D01*
X181630132Y-142986151D01*
X181515760Y-143210616D01*
X181437910Y-143450214D01*
X181398500Y-143699038D01*
X181398500Y-143950961D01*
X181437910Y-144199785D01*
X181515760Y-144439383D01*
X181589957Y-144585001D01*
X181628816Y-144661267D01*
X181630132Y-144663848D01*
X181778201Y-144867649D01*
X181778205Y-144867654D01*
X181956345Y-145045794D01*
X181956350Y-145045798D01*
X182102599Y-145152053D01*
X182160155Y-145193870D01*
X182284296Y-145257123D01*
X182384616Y-145308239D01*
X182384618Y-145308239D01*
X182384621Y-145308241D01*
X182624215Y-145386090D01*
X182873038Y-145425500D01*
X182873039Y-145425500D01*
X183124961Y-145425500D01*
X183124962Y-145425500D01*
X183373785Y-145386090D01*
X183613379Y-145308241D01*
X183761905Y-145232562D01*
X183830574Y-145219667D01*
X183895315Y-145245943D01*
X183935572Y-145303050D01*
X183942200Y-145343048D01*
X183942200Y-151716938D01*
X183922515Y-151783977D01*
X183905881Y-151804619D01*
X183362320Y-152348181D01*
X183300997Y-152381666D01*
X183274639Y-152384500D01*
X182098982Y-152384500D01*
X181996203Y-152395000D01*
X181996202Y-152395001D01*
X181913669Y-152422349D01*
X181829667Y-152450185D01*
X181829662Y-152450187D01*
X181680342Y-152542289D01*
X181556289Y-152666342D01*
X181464187Y-152815662D01*
X181464185Y-152815667D01*
X181408999Y-152982206D01*
X181408088Y-152986465D01*
X181374802Y-153047896D01*
X181313588Y-153081580D01*
X181286837Y-153084500D01*
X180138106Y-153084500D01*
X180064680Y-153099106D01*
X180064679Y-153099106D01*
X179964141Y-153119103D01*
X179964132Y-153119106D01*
X179800259Y-153186983D01*
X179800246Y-153186990D01*
X179652766Y-153285534D01*
X179652764Y-153285537D01*
X176473219Y-156465081D01*
X176411896Y-156498566D01*
X176385538Y-156501400D01*
X176089606Y-156501400D01*
X176022567Y-156481715D01*
X175976812Y-156428911D01*
X175966868Y-156359753D01*
X175995893Y-156296197D01*
X176032193Y-156267492D01*
X176152407Y-156204698D01*
X176310109Y-156076109D01*
X176438698Y-155918407D01*
X176532909Y-155738049D01*
X176588886Y-155542418D01*
X176599500Y-155423037D01*
X176599499Y-152506964D01*
X176588886Y-152387582D01*
X176563084Y-152297406D01*
X176558300Y-152263295D01*
X176558300Y-147159797D01*
X176577985Y-147092758D01*
X176617203Y-147054258D01*
X176676456Y-147017712D01*
X176800512Y-146893656D01*
X176892614Y-146744334D01*
X176915902Y-146674054D01*
X176919910Y-146666050D01*
X176937860Y-146646772D01*
X176952855Y-146625116D01*
X176961295Y-146621606D01*
X176967525Y-146614917D01*
X176993049Y-146608404D01*
X177017371Y-146598292D01*
X177033634Y-146598048D01*
X177035225Y-146597643D01*
X177036323Y-146598008D01*
X177040519Y-146597946D01*
X177078325Y-146600921D01*
X177757800Y-145921446D01*
X177757800Y-145927661D01*
X177785059Y-146029394D01*
X177837720Y-146120606D01*
X177912194Y-146195080D01*
X178003406Y-146247741D01*
X178105139Y-146275000D01*
X178111353Y-146275000D01*
X177431876Y-146954474D01*
X177476450Y-146986859D01*
X177658768Y-147079755D01*
X177853382Y-147142990D01*
X178055483Y-147175000D01*
X178260117Y-147175000D01*
X178462217Y-147142990D01*
X178656831Y-147079755D01*
X178839149Y-146986859D01*
X178883721Y-146954474D01*
X178204247Y-146275000D01*
X178210461Y-146275000D01*
X178312194Y-146247741D01*
X178403406Y-146195080D01*
X178477880Y-146120606D01*
X178530541Y-146029394D01*
X178557800Y-145927661D01*
X178557800Y-145921447D01*
X179237274Y-146600921D01*
X179269659Y-146556349D01*
X179362555Y-146374031D01*
X179425790Y-146179417D01*
X179457800Y-145977317D01*
X179457800Y-145772682D01*
X179425790Y-145570582D01*
X179362555Y-145375968D01*
X179269659Y-145193650D01*
X179237274Y-145149077D01*
X179237274Y-145149076D01*
X178557800Y-145828551D01*
X178557800Y-145822339D01*
X178530541Y-145720606D01*
X178477880Y-145629394D01*
X178403406Y-145554920D01*
X178312194Y-145502259D01*
X178210461Y-145475000D01*
X178204246Y-145475000D01*
X178883722Y-144795524D01*
X178883721Y-144795523D01*
X178839159Y-144763147D01*
X178839150Y-144763141D01*
X178656831Y-144670244D01*
X178462217Y-144607009D01*
X178260117Y-144575000D01*
X178055483Y-144575000D01*
X177853382Y-144607009D01*
X177658768Y-144670244D01*
X177476444Y-144763143D01*
X177431877Y-144795523D01*
X177431877Y-144795524D01*
X178111354Y-145475000D01*
X178105139Y-145475000D01*
X178003406Y-145502259D01*
X177912194Y-145554920D01*
X177837720Y-145629394D01*
X177785059Y-145720606D01*
X177757800Y-145822339D01*
X177757800Y-145828553D01*
X177078324Y-145149077D01*
X177040519Y-145152053D01*
X176972141Y-145137689D01*
X176922384Y-145088638D01*
X176919910Y-145083949D01*
X176915901Y-145075942D01*
X176892614Y-145005666D01*
X176800512Y-144856344D01*
X176676456Y-144732288D01*
X176567267Y-144664940D01*
X176527136Y-144640187D01*
X176527131Y-144640185D01*
X176505424Y-144632992D01*
X176360597Y-144585001D01*
X176360595Y-144585000D01*
X176257810Y-144574500D01*
X175057798Y-144574500D01*
X175057781Y-144574501D01*
X174955003Y-144585000D01*
X174955000Y-144585001D01*
X174788468Y-144640185D01*
X174788463Y-144640187D01*
X174639142Y-144732289D01*
X174515089Y-144856342D01*
X174422987Y-145005663D01*
X174422985Y-145005668D01*
X174404099Y-145062664D01*
X174367801Y-145172203D01*
X174367801Y-145172204D01*
X174367800Y-145172204D01*
X174357300Y-145274983D01*
X174357300Y-146475001D01*
X174357301Y-146475018D01*
X174367800Y-146577796D01*
X174367801Y-146577799D01*
X174411482Y-146709617D01*
X174422986Y-146744334D01*
X174515088Y-146893656D01*
X174639144Y-147017712D01*
X174698396Y-147054258D01*
X174745121Y-147106204D01*
X174757300Y-147159797D01*
X174757300Y-151440500D01*
X174737615Y-151507539D01*
X174684811Y-151553294D01*
X174633301Y-151564500D01*
X174540972Y-151564500D01*
X174540964Y-151564501D01*
X174421584Y-151575113D01*
X174225954Y-151631089D01*
X174135772Y-151678196D01*
X174045593Y-151725302D01*
X174045591Y-151725303D01*
X174045590Y-151725304D01*
X173887890Y-151853890D01*
X173759304Y-152011590D01*
X173665089Y-152191954D01*
X173609114Y-152387583D01*
X173609113Y-152387586D01*
X173598500Y-152506963D01*
X173598500Y-152940500D01*
X173578815Y-153007539D01*
X173526011Y-153053294D01*
X173474500Y-153064500D01*
X170184291Y-153064500D01*
X170117252Y-153044815D01*
X170087644Y-153018187D01*
X170046724Y-152967280D01*
X170046722Y-152967278D01*
X169977112Y-152911324D01*
X169937196Y-152853985D01*
X169934616Y-152784163D01*
X169970194Y-152724030D01*
X169977115Y-152718033D01*
X170046366Y-152662367D01*
X170046367Y-152662366D01*
X170165607Y-152514025D01*
X170165609Y-152514022D01*
X170250168Y-152343523D01*
X170296102Y-152158824D01*
X170299000Y-152116096D01*
X170299000Y-151915000D01*
X167299000Y-151915000D01*
X167299000Y-152116096D01*
X167301897Y-152158824D01*
X167347831Y-152343523D01*
X167432390Y-152514022D01*
X167432392Y-152514025D01*
X167551630Y-152662364D01*
X167620884Y-152718031D01*
X167660803Y-152775375D01*
X167663383Y-152845197D01*
X167627805Y-152905329D01*
X167620885Y-152911326D01*
X167551276Y-152967280D01*
X167431969Y-153115704D01*
X167431967Y-153115707D01*
X167347360Y-153286302D01*
X167301400Y-153471107D01*
X167298500Y-153513879D01*
X167298500Y-154138138D01*
X167278815Y-154205177D01*
X167226011Y-154250932D01*
X167156853Y-154260876D01*
X167093297Y-154231851D01*
X167086819Y-154225819D01*
X166817235Y-153956235D01*
X166817230Y-153956231D01*
X166758161Y-153916764D01*
X166758160Y-153916763D01*
X166669744Y-153857685D01*
X166669742Y-153857684D01*
X166587807Y-153823746D01*
X166587806Y-153823746D01*
X166505866Y-153789805D01*
X166505858Y-153789803D01*
X166331896Y-153755200D01*
X166331892Y-153755200D01*
X166331891Y-153755200D01*
X163025361Y-153755200D01*
X162958322Y-153735515D01*
X162937680Y-153718881D01*
X160430361Y-151211562D01*
X160270760Y-151051961D01*
X157800981Y-148582181D01*
X157767496Y-148520858D01*
X157772480Y-148451166D01*
X157814352Y-148395233D01*
X157879816Y-148370816D01*
X157888662Y-148370500D01*
X160809350Y-148370500D01*
X160876389Y-148390185D01*
X160878241Y-148391398D01*
X160972521Y-148454394D01*
X160972523Y-148454395D01*
X160972527Y-148454397D01*
X161118198Y-148514735D01*
X161118203Y-148514737D01*
X161272853Y-148545499D01*
X161272856Y-148545500D01*
X161272858Y-148545500D01*
X161430544Y-148545500D01*
X161430545Y-148545499D01*
X161585197Y-148514737D01*
X161730879Y-148454394D01*
X161861989Y-148366789D01*
X161973489Y-148255289D01*
X162061094Y-148124179D01*
X162121437Y-147978497D01*
X162152200Y-147823842D01*
X162152200Y-147666158D01*
X162152200Y-147666155D01*
X162152199Y-147666153D01*
X162151619Y-147663238D01*
X162121437Y-147511503D01*
X162119407Y-147506603D01*
X162061097Y-147365827D01*
X162061090Y-147365814D01*
X161973489Y-147234711D01*
X161973486Y-147234707D01*
X161861992Y-147123213D01*
X161861988Y-147123210D01*
X161730885Y-147035609D01*
X161730872Y-147035602D01*
X161585201Y-146975264D01*
X161585189Y-146975261D01*
X161430545Y-146944500D01*
X161430542Y-146944500D01*
X161272858Y-146944500D01*
X161272855Y-146944500D01*
X161118210Y-146975261D01*
X161118198Y-146975264D01*
X160972527Y-147035602D01*
X160972515Y-147035609D01*
X160878241Y-147098602D01*
X160811564Y-147119480D01*
X160809350Y-147119500D01*
X157805753Y-147119500D01*
X157738714Y-147099815D01*
X157718072Y-147083181D01*
X157236893Y-146602003D01*
X157203408Y-146540680D01*
X157202987Y-146538664D01*
X157180837Y-146427303D01*
X157135850Y-146318694D01*
X157120497Y-146281627D01*
X157120490Y-146281614D01*
X157032889Y-146150511D01*
X157032886Y-146150507D01*
X156921392Y-146039013D01*
X156921388Y-146039010D01*
X156790285Y-145951409D01*
X156790272Y-145951402D01*
X156644601Y-145891064D01*
X156644589Y-145891061D01*
X156489945Y-145860300D01*
X156489942Y-145860300D01*
X156332258Y-145860300D01*
X156332255Y-145860300D01*
X156177610Y-145891061D01*
X156177598Y-145891064D01*
X156031927Y-145951402D01*
X156031916Y-145951408D01*
X155914159Y-146030091D01*
X155847482Y-146050968D01*
X155780102Y-146032483D01*
X155757585Y-146014666D01*
X155606882Y-145863953D01*
X155573399Y-145802629D01*
X155578386Y-145732938D01*
X155620259Y-145677005D01*
X155670370Y-145654659D01*
X155830566Y-145622795D01*
X155912506Y-145588853D01*
X155994447Y-145554913D01*
X156089671Y-145491286D01*
X156141936Y-145456364D01*
X156479964Y-145118336D01*
X156517158Y-145062671D01*
X156552949Y-145009107D01*
X156552950Y-145009105D01*
X156578510Y-144970852D01*
X156578510Y-144970850D01*
X156578513Y-144970847D01*
X156608391Y-144898714D01*
X156646395Y-144806966D01*
X156681000Y-144632992D01*
X156681000Y-144455608D01*
X156681000Y-140583261D01*
X156700685Y-140516222D01*
X156717319Y-140495580D01*
X158330060Y-138882839D01*
X158330064Y-138882835D01*
X158346682Y-138857965D01*
X158428613Y-138735347D01*
X158464056Y-138649780D01*
X158496495Y-138571466D01*
X158531100Y-138397491D01*
X158531100Y-138220108D01*
X158531100Y-136424500D01*
X158550785Y-136357461D01*
X158603589Y-136311706D01*
X158655100Y-136300500D01*
X159948593Y-136300500D01*
X159948594Y-136300499D01*
X160006582Y-136288964D01*
X160122558Y-136265896D01*
X160122561Y-136265894D01*
X160122566Y-136265894D01*
X160286447Y-136198013D01*
X160331809Y-136167702D01*
X160398485Y-136146825D01*
X160465866Y-136165309D01*
X160512556Y-136217287D01*
X160524700Y-136270805D01*
X160524700Y-140102902D01*
X160505015Y-140169941D01*
X160452211Y-140215696D01*
X160383053Y-140225640D01*
X160319497Y-140196615D01*
X160300481Y-140175895D01*
X160300458Y-140175893D01*
X159560762Y-140915590D01*
X159543725Y-140852007D01*
X159477899Y-140737993D01*
X159384807Y-140644901D01*
X159270793Y-140579075D01*
X159207209Y-140562037D01*
X159946905Y-139822340D01*
X159946904Y-139822338D01*
X159863974Y-139762087D01*
X159653602Y-139654897D01*
X159429047Y-139581934D01*
X159429048Y-139581934D01*
X159195852Y-139545000D01*
X158959748Y-139545000D01*
X158726552Y-139581934D01*
X158501997Y-139654897D01*
X158291630Y-139762084D01*
X158208694Y-139822340D01*
X158948391Y-140562037D01*
X158884807Y-140579075D01*
X158770793Y-140644901D01*
X158677701Y-140737993D01*
X158611875Y-140852007D01*
X158594837Y-140915591D01*
X157855140Y-140175894D01*
X157794884Y-140258830D01*
X157687697Y-140469197D01*
X157614734Y-140693752D01*
X157577800Y-140926947D01*
X157577800Y-141163052D01*
X157614734Y-141396247D01*
X157687697Y-141620802D01*
X157794887Y-141831174D01*
X157855138Y-141914104D01*
X157855140Y-141914105D01*
X158594837Y-141174408D01*
X158611875Y-141237993D01*
X158677701Y-141352007D01*
X158770793Y-141445099D01*
X158884807Y-141510925D01*
X158948390Y-141527962D01*
X158208693Y-142267658D01*
X158291628Y-142327914D01*
X158501997Y-142435102D01*
X158726552Y-142508065D01*
X158726551Y-142508065D01*
X158959748Y-142545000D01*
X159195852Y-142545000D01*
X159429047Y-142508065D01*
X159653602Y-142435102D01*
X159863963Y-142327918D01*
X159863969Y-142327914D01*
X159946904Y-142267658D01*
X159946905Y-142267658D01*
X159207208Y-141527962D01*
X159270793Y-141510925D01*
X159384807Y-141445099D01*
X159477899Y-141352007D01*
X159543725Y-141237993D01*
X159560762Y-141174409D01*
X160300458Y-141914105D01*
X160300526Y-141914099D01*
X160355712Y-141871545D01*
X160425325Y-141865566D01*
X160487120Y-141898172D01*
X160521477Y-141959010D01*
X160524700Y-141987096D01*
X160524700Y-142471050D01*
X160505015Y-142538089D01*
X160503826Y-142539903D01*
X160483002Y-142571068D01*
X160440809Y-142634215D01*
X160440802Y-142634228D01*
X160380464Y-142779898D01*
X160380461Y-142779910D01*
X160349700Y-142934553D01*
X160349700Y-143092246D01*
X160380461Y-143246889D01*
X160380464Y-143246901D01*
X160440802Y-143392572D01*
X160440809Y-143392585D01*
X160528410Y-143523688D01*
X160528413Y-143523692D01*
X160639907Y-143635186D01*
X160639911Y-143635189D01*
X160771014Y-143722790D01*
X160771027Y-143722797D01*
X160916698Y-143783135D01*
X160916703Y-143783137D01*
X161071353Y-143813899D01*
X161071356Y-143813900D01*
X161071358Y-143813900D01*
X161229044Y-143813900D01*
X161229045Y-143813899D01*
X161383697Y-143783137D01*
X161529379Y-143722794D01*
X161660489Y-143635189D01*
X161771989Y-143523689D01*
X161859594Y-143392579D01*
X161919937Y-143246897D01*
X161950700Y-143092242D01*
X161950700Y-142934558D01*
X161950700Y-142934555D01*
X161950699Y-142934553D01*
X161940388Y-142882718D01*
X161919937Y-142779903D01*
X161859594Y-142634221D01*
X161796597Y-142539939D01*
X161775720Y-142473263D01*
X161775700Y-142471050D01*
X161775700Y-121564196D01*
X161795385Y-121497157D01*
X161848189Y-121451402D01*
X161917347Y-121441458D01*
X161943035Y-121448015D01*
X162011619Y-121473596D01*
X162011627Y-121473598D01*
X162071155Y-121479999D01*
X162071172Y-121480000D01*
X162319000Y-121480000D01*
X162319000Y-120354000D01*
X162338685Y-120286961D01*
X162391489Y-120241206D01*
X162443000Y-120230000D01*
X162695000Y-120230000D01*
X162762039Y-120249685D01*
X162807794Y-120302489D01*
X162819000Y-120354000D01*
X162819000Y-121480000D01*
X163066828Y-121480000D01*
X163066844Y-121479999D01*
X163126372Y-121473598D01*
X163126375Y-121473597D01*
X163159949Y-121461075D01*
X163229640Y-121456089D01*
X163246619Y-121461075D01*
X163281511Y-121474089D01*
X163281512Y-121474089D01*
X163281517Y-121474091D01*
X163341127Y-121480500D01*
X164336872Y-121480499D01*
X164396483Y-121474091D01*
X164430667Y-121461340D01*
X164500358Y-121456357D01*
X164517327Y-121461338D01*
X164551517Y-121474091D01*
X164611127Y-121480500D01*
X165606872Y-121480499D01*
X165666483Y-121474091D01*
X165700667Y-121461340D01*
X165770358Y-121456357D01*
X165787327Y-121461338D01*
X165821517Y-121474091D01*
X165881127Y-121480500D01*
X166876872Y-121480499D01*
X166936483Y-121474091D01*
X166970667Y-121461340D01*
X167040358Y-121456357D01*
X167057327Y-121461338D01*
X167091517Y-121474091D01*
X167151127Y-121480500D01*
X168146872Y-121480499D01*
X168206483Y-121474091D01*
X168240667Y-121461340D01*
X168310358Y-121456357D01*
X168327327Y-121461338D01*
X168361517Y-121474091D01*
X168421127Y-121480500D01*
X169416872Y-121480499D01*
X169476483Y-121474091D01*
X169510667Y-121461340D01*
X169580358Y-121456357D01*
X169597327Y-121461338D01*
X169631517Y-121474091D01*
X169691127Y-121480500D01*
X170686872Y-121480499D01*
X170746483Y-121474091D01*
X170780667Y-121461340D01*
X170850358Y-121456357D01*
X170867327Y-121461338D01*
X170901517Y-121474091D01*
X170961127Y-121480500D01*
X171956872Y-121480499D01*
X172016483Y-121474091D01*
X172050667Y-121461340D01*
X172120358Y-121456357D01*
X172137327Y-121461338D01*
X172171517Y-121474091D01*
X172231127Y-121480500D01*
X173226872Y-121480499D01*
X173226875Y-121480498D01*
X173226885Y-121480498D01*
X173236243Y-121479492D01*
X173305003Y-121491896D01*
X173356141Y-121539506D01*
X173373500Y-121602781D01*
X173373500Y-128899647D01*
X173353815Y-128966686D01*
X173337181Y-128987328D01*
X165852807Y-136471701D01*
X165791484Y-136505186D01*
X165721792Y-136500202D01*
X165665859Y-136458330D01*
X165664808Y-136456905D01*
X165656642Y-136445666D01*
X165563517Y-136317490D01*
X165396510Y-136150483D01*
X165205433Y-136011657D01*
X165151332Y-135984091D01*
X164994996Y-135904433D01*
X164770368Y-135831446D01*
X164537097Y-135794500D01*
X164537092Y-135794500D01*
X164300908Y-135794500D01*
X164300903Y-135794500D01*
X164067631Y-135831446D01*
X163843003Y-135904433D01*
X163632566Y-136011657D01*
X163538245Y-136080186D01*
X163441490Y-136150483D01*
X163441488Y-136150485D01*
X163441487Y-136150485D01*
X163274485Y-136317487D01*
X163274485Y-136317488D01*
X163274483Y-136317490D01*
X163214862Y-136399550D01*
X163135657Y-136508566D01*
X163028433Y-136719003D01*
X162955446Y-136943631D01*
X162918500Y-137176902D01*
X162918500Y-137413097D01*
X162955446Y-137646368D01*
X163028433Y-137870996D01*
X163101535Y-138014465D01*
X163135657Y-138081433D01*
X163274483Y-138272510D01*
X163441490Y-138439517D01*
X163632567Y-138578343D01*
X163691622Y-138608433D01*
X163843003Y-138685566D01*
X163843005Y-138685566D01*
X163843008Y-138685568D01*
X163963412Y-138724689D01*
X164067631Y-138758553D01*
X164300903Y-138795500D01*
X164300908Y-138795500D01*
X164537097Y-138795500D01*
X164770368Y-138758553D01*
X164770996Y-138758349D01*
X164994992Y-138685568D01*
X164994997Y-138685565D01*
X164995001Y-138685564D01*
X165101005Y-138631552D01*
X165169674Y-138618655D01*
X165234414Y-138644931D01*
X165274672Y-138702037D01*
X165281300Y-138742036D01*
X165281300Y-140348525D01*
X165261615Y-140415564D01*
X165208811Y-140461319D01*
X165139653Y-140471263D01*
X165101005Y-140459010D01*
X164994802Y-140404897D01*
X164770247Y-140331934D01*
X164770248Y-140331934D01*
X164537052Y-140295000D01*
X164300948Y-140295000D01*
X164067752Y-140331934D01*
X163843197Y-140404897D01*
X163632830Y-140512084D01*
X163549894Y-140572340D01*
X164248766Y-141271212D01*
X164206708Y-141282482D01*
X164081292Y-141354890D01*
X163978890Y-141457292D01*
X163906482Y-141582708D01*
X163895212Y-141624766D01*
X163196340Y-140925894D01*
X163136084Y-141008830D01*
X163028897Y-141219197D01*
X162955934Y-141443752D01*
X162919000Y-141676947D01*
X162919000Y-141913052D01*
X162955934Y-142146247D01*
X163028897Y-142370802D01*
X163136087Y-142581174D01*
X163196338Y-142664104D01*
X163196340Y-142664105D01*
X163895212Y-141965233D01*
X163906482Y-142007292D01*
X163978890Y-142132708D01*
X164081292Y-142235110D01*
X164206708Y-142307518D01*
X164248764Y-142318787D01*
X163549893Y-143017658D01*
X163632828Y-143077914D01*
X163843195Y-143185102D01*
X163928058Y-143212676D01*
X163985733Y-143252114D01*
X164012931Y-143316473D01*
X164001016Y-143385319D01*
X163977420Y-143418288D01*
X162730769Y-144664940D01*
X162643644Y-144752064D01*
X162643638Y-144752072D01*
X162575190Y-144854508D01*
X162575188Y-144854513D01*
X162549433Y-144916693D01*
X162528038Y-144968344D01*
X162528035Y-144968356D01*
X162504000Y-145089189D01*
X162504000Y-146330150D01*
X162484315Y-146397189D01*
X162483102Y-146399041D01*
X162420109Y-146493315D01*
X162420102Y-146493328D01*
X162359764Y-146638998D01*
X162359761Y-146639010D01*
X162329000Y-146793653D01*
X162329000Y-146951346D01*
X162359761Y-147105989D01*
X162359764Y-147106001D01*
X162420102Y-147251672D01*
X162420109Y-147251685D01*
X162507710Y-147382788D01*
X162507713Y-147382792D01*
X162619207Y-147494286D01*
X162619211Y-147494289D01*
X162750314Y-147581890D01*
X162750327Y-147581897D01*
X162860313Y-147627454D01*
X162896003Y-147642237D01*
X163050653Y-147672999D01*
X163050656Y-147673000D01*
X163050658Y-147673000D01*
X163208344Y-147673000D01*
X163208345Y-147672999D01*
X163362997Y-147642237D01*
X163508679Y-147581894D01*
X163508684Y-147581890D01*
X163508687Y-147581889D01*
X163571454Y-147539949D01*
X163615271Y-147510671D01*
X163681946Y-147489793D01*
X163727440Y-147497571D01*
X163728028Y-147497790D01*
X163783981Y-147539635D01*
X163808429Y-147605088D01*
X163793609Y-147673368D01*
X163772431Y-147701673D01*
X163658889Y-147815215D01*
X163533951Y-147987179D01*
X163437444Y-148176585D01*
X163371753Y-148378760D01*
X163349247Y-148520858D01*
X163338500Y-148588713D01*
X163338500Y-148801287D01*
X163371754Y-149011243D01*
X163415214Y-149145000D01*
X163437444Y-149213414D01*
X163533951Y-149402820D01*
X163658890Y-149574786D01*
X163809213Y-149725109D01*
X163981179Y-149850048D01*
X163981181Y-149850049D01*
X163981184Y-149850051D01*
X163990493Y-149854794D01*
X164041290Y-149902766D01*
X164058087Y-149970587D01*
X164035552Y-150036722D01*
X163990505Y-150075760D01*
X163981446Y-150080376D01*
X163981440Y-150080380D01*
X163927282Y-150119727D01*
X163927282Y-150119728D01*
X164559591Y-150752037D01*
X164496007Y-150769075D01*
X164381993Y-150834901D01*
X164288901Y-150927993D01*
X164223075Y-151042007D01*
X164206037Y-151105591D01*
X163573728Y-150473282D01*
X163573727Y-150473282D01*
X163534380Y-150527439D01*
X163437904Y-150716782D01*
X163372242Y-150918869D01*
X163372242Y-150918872D01*
X163339000Y-151128753D01*
X163339000Y-151341246D01*
X163372242Y-151551127D01*
X163372242Y-151551130D01*
X163437904Y-151753217D01*
X163534375Y-151942550D01*
X163573728Y-151996716D01*
X164206037Y-151364408D01*
X164223075Y-151427993D01*
X164288901Y-151542007D01*
X164381993Y-151635099D01*
X164496007Y-151700925D01*
X164559590Y-151717962D01*
X163927282Y-152350269D01*
X163927282Y-152350270D01*
X163981449Y-152389624D01*
X164170782Y-152486095D01*
X164372870Y-152551757D01*
X164582754Y-152585000D01*
X164795246Y-152585000D01*
X165005127Y-152551757D01*
X165005130Y-152551757D01*
X165207217Y-152486095D01*
X165396554Y-152389622D01*
X165450716Y-152350270D01*
X165450717Y-152350270D01*
X164818408Y-151717962D01*
X164881993Y-151700925D01*
X164996007Y-151635099D01*
X165089099Y-151542007D01*
X165154925Y-151427993D01*
X165171962Y-151364408D01*
X165804270Y-151996717D01*
X165804270Y-151996716D01*
X165843622Y-151942554D01*
X165940095Y-151753217D01*
X166005757Y-151551130D01*
X166005757Y-151551127D01*
X166039000Y-151341246D01*
X166039000Y-151213903D01*
X167299000Y-151213903D01*
X167299000Y-151415000D01*
X168549000Y-151415000D01*
X169049000Y-151415000D01*
X170299000Y-151415000D01*
X170299000Y-151213903D01*
X170296102Y-151171175D01*
X170250168Y-150986476D01*
X170165609Y-150815977D01*
X170165607Y-150815974D01*
X170046367Y-150667633D01*
X170046366Y-150667632D01*
X169898025Y-150548392D01*
X169898022Y-150548390D01*
X169727523Y-150463831D01*
X169542824Y-150417897D01*
X169500097Y-150415000D01*
X169049000Y-150415000D01*
X169049000Y-151415000D01*
X168549000Y-151415000D01*
X168549000Y-150415000D01*
X168097903Y-150415000D01*
X168055175Y-150417897D01*
X167870476Y-150463831D01*
X167699977Y-150548390D01*
X167699974Y-150548392D01*
X167551633Y-150667632D01*
X167551632Y-150667633D01*
X167432392Y-150815974D01*
X167432390Y-150815977D01*
X167347831Y-150986476D01*
X167301897Y-151171175D01*
X167299000Y-151213903D01*
X166039000Y-151213903D01*
X166039000Y-151128753D01*
X166005757Y-150918872D01*
X166005757Y-150918869D01*
X165940095Y-150716782D01*
X165843624Y-150527449D01*
X165804270Y-150473282D01*
X165804269Y-150473282D01*
X165171962Y-151105590D01*
X165154925Y-151042007D01*
X165089099Y-150927993D01*
X164996007Y-150834901D01*
X164881993Y-150769075D01*
X164818409Y-150752037D01*
X165450716Y-150119728D01*
X165396547Y-150080373D01*
X165396547Y-150080372D01*
X165387500Y-150075763D01*
X165336706Y-150027788D01*
X165319912Y-149959966D01*
X165342451Y-149893832D01*
X165387508Y-149854793D01*
X165396816Y-149850051D01*
X165545687Y-149741891D01*
X165568786Y-149725109D01*
X165568788Y-149725106D01*
X165568792Y-149725104D01*
X165719104Y-149574792D01*
X165719106Y-149574788D01*
X165719109Y-149574786D01*
X165844048Y-149402820D01*
X165844047Y-149402820D01*
X165844051Y-149402816D01*
X165940557Y-149213412D01*
X166006246Y-149011243D01*
X166039500Y-148801287D01*
X166039500Y-148588713D01*
X166006246Y-148378757D01*
X166002357Y-148366789D01*
X166001179Y-148363162D01*
X165999182Y-148293321D01*
X166031426Y-148237162D01*
X166337729Y-147930860D01*
X166337733Y-147930858D01*
X166424858Y-147843733D01*
X166493311Y-147741286D01*
X166493312Y-147741285D01*
X166493313Y-147741282D01*
X166493315Y-147741279D01*
X166504565Y-147714118D01*
X166525638Y-147663242D01*
X166531233Y-147649736D01*
X166534339Y-147642237D01*
X166540463Y-147627452D01*
X166564500Y-147506606D01*
X166564500Y-147192852D01*
X166584185Y-147125813D01*
X166600819Y-147105171D01*
X167324671Y-146381319D01*
X167385994Y-146347834D01*
X167412352Y-146345000D01*
X168323722Y-146345000D01*
X168279667Y-146421306D01*
X168249000Y-146535756D01*
X168249000Y-146654244D01*
X168279667Y-146768694D01*
X168323722Y-146845000D01*
X167299000Y-146845000D01*
X167299000Y-147542844D01*
X167305401Y-147602372D01*
X167305403Y-147602379D01*
X167355645Y-147737086D01*
X167355649Y-147737093D01*
X167441809Y-147852187D01*
X167441812Y-147852190D01*
X167556906Y-147938350D01*
X167556913Y-147938354D01*
X167691620Y-147988596D01*
X167691627Y-147988598D01*
X167751155Y-147994999D01*
X167751172Y-147995000D01*
X168449000Y-147995000D01*
X168449000Y-146970277D01*
X168525306Y-147014333D01*
X168639756Y-147045000D01*
X168758244Y-147045000D01*
X168872694Y-147014333D01*
X168949000Y-146970277D01*
X168949000Y-147995000D01*
X169646828Y-147995000D01*
X169646844Y-147994999D01*
X169706372Y-147988598D01*
X169706379Y-147988596D01*
X169841086Y-147938354D01*
X169841093Y-147938350D01*
X169956187Y-147852190D01*
X169956190Y-147852187D01*
X170042350Y-147737093D01*
X170042354Y-147737086D01*
X170072213Y-147657031D01*
X170114084Y-147601097D01*
X170179548Y-147576680D01*
X170247821Y-147591531D01*
X170276076Y-147612683D01*
X170326636Y-147663243D01*
X170326641Y-147663247D01*
X170482192Y-147776260D01*
X170504978Y-147792815D01*
X170621501Y-147852187D01*
X170701393Y-147892895D01*
X170701396Y-147892896D01*
X170806221Y-147926955D01*
X170911049Y-147961015D01*
X171128778Y-147995500D01*
X171128779Y-147995500D01*
X171349221Y-147995500D01*
X171349222Y-147995500D01*
X171566951Y-147961015D01*
X171776606Y-147892895D01*
X171973022Y-147792815D01*
X172151365Y-147663242D01*
X172307242Y-147507365D01*
X172436815Y-147329022D01*
X172536895Y-147132606D01*
X172605015Y-146922951D01*
X172639500Y-146705222D01*
X172639500Y-146484778D01*
X172605015Y-146267049D01*
X172567149Y-146150507D01*
X172536896Y-146057396D01*
X172536895Y-146057393D01*
X172455327Y-145897310D01*
X172436815Y-145860978D01*
X172343789Y-145732938D01*
X172307247Y-145682641D01*
X172307243Y-145682636D01*
X172151363Y-145526756D01*
X172151358Y-145526752D01*
X172033361Y-145441022D01*
X171990695Y-145385692D01*
X171984716Y-145316079D01*
X172017322Y-145254284D01*
X172018493Y-145253095D01*
X179060858Y-138210733D01*
X179129312Y-138108285D01*
X179166793Y-138017797D01*
X179176463Y-137994452D01*
X179200500Y-137873606D01*
X179200500Y-107952694D01*
X179176463Y-107831848D01*
X179129311Y-107718014D01*
X179129310Y-107718013D01*
X179129307Y-107718007D01*
X179060859Y-107615568D01*
X179060858Y-107615567D01*
X178973733Y-107528442D01*
X178973732Y-107528441D01*
X178603627Y-107158337D01*
X178603625Y-107158334D01*
X178603625Y-107158335D01*
X178596558Y-107151268D01*
X178596558Y-107151267D01*
X178509433Y-107064142D01*
X178509432Y-107064141D01*
X178509431Y-107064140D01*
X178458209Y-107029915D01*
X178406987Y-106995689D01*
X178406988Y-106995689D01*
X178406986Y-106995688D01*
X178387768Y-106987728D01*
X178353021Y-106973335D01*
X178298618Y-106929494D01*
X178276553Y-106863200D01*
X178278332Y-106845311D01*
X178277262Y-106845196D01*
X178278883Y-106830108D01*
X178284500Y-106777873D01*
X178284499Y-105782128D01*
X178278091Y-105722517D01*
X178265340Y-105688332D01*
X178260357Y-105618642D01*
X178265338Y-105601672D01*
X178278091Y-105567483D01*
X178284500Y-105507873D01*
X178284499Y-104512128D01*
X178278091Y-104452517D01*
X178265340Y-104418332D01*
X178260357Y-104348642D01*
X178265340Y-104331669D01*
X178278091Y-104297483D01*
X178284500Y-104237873D01*
X178284499Y-103242128D01*
X178278091Y-103182517D01*
X178265073Y-103147616D01*
X178260090Y-103077926D01*
X178265075Y-103060949D01*
X178277597Y-103027375D01*
X178277598Y-103027372D01*
X178283999Y-102967844D01*
X178284000Y-102967827D01*
X178284000Y-102720000D01*
X175784000Y-102720000D01*
X175784000Y-102967844D01*
X175790401Y-103027372D01*
X175790403Y-103027379D01*
X175802925Y-103060952D01*
X175807909Y-103130643D01*
X175802925Y-103147617D01*
X175789909Y-103182514D01*
X175789908Y-103182516D01*
X175783501Y-103242116D01*
X175783501Y-103242123D01*
X175783500Y-103242135D01*
X175783500Y-104237870D01*
X175783501Y-104237876D01*
X175789908Y-104297481D01*
X175802659Y-104331669D01*
X175807642Y-104401361D01*
X175802659Y-104418331D01*
X175789908Y-104452518D01*
X175783501Y-104512116D01*
X175783501Y-104512123D01*
X175783500Y-104512135D01*
X175783500Y-105507870D01*
X175783501Y-105507876D01*
X175790738Y-105575196D01*
X175787427Y-105575551D01*
X175784364Y-105630299D01*
X175743366Y-105686876D01*
X175714978Y-105703334D01*
X175661021Y-105725684D01*
X175661017Y-105725686D01*
X175558566Y-105794141D01*
X175558563Y-105794144D01*
X174574845Y-106777864D01*
X174384569Y-106968140D01*
X174384567Y-106968142D01*
X174360192Y-106992517D01*
X174297440Y-107055268D01*
X174275876Y-107087543D01*
X174275874Y-107087546D01*
X174228987Y-107157715D01*
X174228985Y-107157718D01*
X174198840Y-107230496D01*
X174198841Y-107230497D01*
X174181837Y-107271549D01*
X174181835Y-107271556D01*
X174157800Y-107392389D01*
X174157800Y-118855500D01*
X174138115Y-118922539D01*
X174085311Y-118968294D01*
X174033800Y-118979500D01*
X173501129Y-118979500D01*
X173501123Y-118979501D01*
X173441518Y-118985908D01*
X173407331Y-118998659D01*
X173337639Y-119003642D01*
X173320669Y-118998659D01*
X173286480Y-118985908D01*
X173286482Y-118985908D01*
X173226883Y-118979501D01*
X173226881Y-118979500D01*
X173226873Y-118979500D01*
X173226864Y-118979500D01*
X172231129Y-118979500D01*
X172231123Y-118979501D01*
X172171518Y-118985908D01*
X172137331Y-118998659D01*
X172067639Y-119003642D01*
X172050669Y-118998659D01*
X172016480Y-118985908D01*
X172016482Y-118985908D01*
X171956883Y-118979501D01*
X171956881Y-118979500D01*
X171956873Y-118979500D01*
X171956864Y-118979500D01*
X170961129Y-118979500D01*
X170961123Y-118979501D01*
X170901518Y-118985908D01*
X170867331Y-118998659D01*
X170797639Y-119003642D01*
X170780669Y-118998659D01*
X170746480Y-118985908D01*
X170746482Y-118985908D01*
X170686883Y-118979501D01*
X170686881Y-118979500D01*
X170686873Y-118979500D01*
X170686864Y-118979500D01*
X169691129Y-118979500D01*
X169691123Y-118979501D01*
X169631518Y-118985908D01*
X169597331Y-118998659D01*
X169527639Y-119003642D01*
X169510669Y-118998659D01*
X169476480Y-118985908D01*
X169476482Y-118985908D01*
X169416883Y-118979501D01*
X169416881Y-118979500D01*
X169416873Y-118979500D01*
X169416864Y-118979500D01*
X168421129Y-118979500D01*
X168421123Y-118979501D01*
X168361518Y-118985908D01*
X168327331Y-118998659D01*
X168257639Y-119003642D01*
X168240669Y-118998659D01*
X168206480Y-118985908D01*
X168206482Y-118985908D01*
X168146883Y-118979501D01*
X168146881Y-118979500D01*
X168146873Y-118979500D01*
X168146864Y-118979500D01*
X167151129Y-118979500D01*
X167151123Y-118979501D01*
X167091518Y-118985908D01*
X167057331Y-118998659D01*
X166987639Y-119003642D01*
X166970669Y-118998659D01*
X166936480Y-118985908D01*
X166936482Y-118985908D01*
X166876883Y-118979501D01*
X166876881Y-118979500D01*
X166876873Y-118979500D01*
X166876864Y-118979500D01*
X165881129Y-118979500D01*
X165881123Y-118979501D01*
X165821518Y-118985908D01*
X165787331Y-118998659D01*
X165717639Y-119003642D01*
X165700669Y-118998659D01*
X165666480Y-118985908D01*
X165666482Y-118985908D01*
X165606883Y-118979501D01*
X165606881Y-118979500D01*
X165606873Y-118979500D01*
X165606864Y-118979500D01*
X164611129Y-118979500D01*
X164611123Y-118979501D01*
X164551518Y-118985908D01*
X164517331Y-118998659D01*
X164447639Y-119003642D01*
X164430669Y-118998659D01*
X164396480Y-118985908D01*
X164396482Y-118985908D01*
X164336883Y-118979501D01*
X164336881Y-118979500D01*
X164336873Y-118979500D01*
X164336865Y-118979500D01*
X163460149Y-118979500D01*
X163393110Y-118959815D01*
X163347355Y-118907011D01*
X163337411Y-118837853D01*
X163366436Y-118774297D01*
X163372440Y-118767848D01*
X163979729Y-118160560D01*
X163979733Y-118160558D01*
X164066858Y-118073433D01*
X164135311Y-117970986D01*
X164135312Y-117970985D01*
X164135313Y-117970982D01*
X164135315Y-117970979D01*
X164145672Y-117945972D01*
X164182463Y-117857151D01*
X164206500Y-117736307D01*
X164206500Y-117613093D01*
X164206500Y-110815894D01*
X164193215Y-110749106D01*
X164182463Y-110695048D01*
X164135311Y-110581214D01*
X164112390Y-110546911D01*
X164066857Y-110478765D01*
X164066854Y-110478762D01*
X162016428Y-108428338D01*
X162016425Y-108428334D01*
X162016425Y-108428335D01*
X162009358Y-108421268D01*
X162009358Y-108421267D01*
X161922233Y-108334142D01*
X161922232Y-108334141D01*
X161922231Y-108334140D01*
X161871009Y-108299915D01*
X161819787Y-108265689D01*
X161819786Y-108265688D01*
X161819783Y-108265686D01*
X161819780Y-108265685D01*
X161739292Y-108232347D01*
X161705953Y-108218537D01*
X161695927Y-108216543D01*
X161645529Y-108206518D01*
X161585110Y-108194500D01*
X161585107Y-108194500D01*
X161585106Y-108194500D01*
X160906781Y-108194500D01*
X160839742Y-108174815D01*
X160793987Y-108122011D01*
X160783492Y-108057243D01*
X160784500Y-108047873D01*
X160784499Y-107052128D01*
X160778091Y-106992517D01*
X160765340Y-106958332D01*
X160760357Y-106888642D01*
X160765338Y-106871672D01*
X160778091Y-106837483D01*
X160784500Y-106777873D01*
X160784499Y-105782128D01*
X160778091Y-105722517D01*
X160765340Y-105688332D01*
X160760357Y-105618642D01*
X160765338Y-105601672D01*
X160778091Y-105567483D01*
X160784500Y-105507873D01*
X160784499Y-104512128D01*
X160778091Y-104452517D01*
X160765340Y-104418332D01*
X160760357Y-104348642D01*
X160765340Y-104331669D01*
X160778091Y-104297483D01*
X160784500Y-104237873D01*
X160784499Y-103242128D01*
X160778091Y-103182517D01*
X160765073Y-103147616D01*
X160760090Y-103077926D01*
X160765075Y-103060949D01*
X160777597Y-103027375D01*
X160777598Y-103027372D01*
X160783999Y-102967844D01*
X160784000Y-102967827D01*
X160784000Y-102720000D01*
X158284000Y-102720000D01*
X158282129Y-102721870D01*
X158264315Y-102782539D01*
X158211511Y-102828294D01*
X158160000Y-102839500D01*
X157993606Y-102839500D01*
X157819640Y-102874104D01*
X157819632Y-102874106D01*
X157655759Y-102941983D01*
X157655746Y-102941990D01*
X157508266Y-103040534D01*
X157508264Y-103040537D01*
X156931138Y-103617660D01*
X156931137Y-103617661D01*
X156891664Y-103676739D01*
X156891663Y-103676740D01*
X156832590Y-103765147D01*
X156832583Y-103765159D01*
X156806269Y-103828690D01*
X156806269Y-103828691D01*
X156764705Y-103929033D01*
X156764703Y-103929041D01*
X156730100Y-104103003D01*
X156730100Y-137884437D01*
X156710415Y-137951476D01*
X156693781Y-137972118D01*
X155189981Y-139475918D01*
X155128658Y-139509403D01*
X155058966Y-139504419D01*
X155003033Y-139462547D01*
X154978616Y-139397083D01*
X154978300Y-139388237D01*
X154978300Y-139343308D01*
X154978299Y-139343307D01*
X154963566Y-139269236D01*
X154963566Y-139269233D01*
X154944552Y-139173644D01*
X154943695Y-139169334D01*
X154878139Y-139011071D01*
X154876495Y-139006474D01*
X154777264Y-138857965D01*
X154714799Y-138795500D01*
X154651835Y-138732536D01*
X152364962Y-136445663D01*
X150070319Y-134151019D01*
X150036834Y-134089696D01*
X150034000Y-134063338D01*
X150034000Y-101972155D01*
X158284000Y-101972155D01*
X158284000Y-102220000D01*
X159284000Y-102220000D01*
X159784000Y-102220000D01*
X160784000Y-102220000D01*
X160784000Y-101972172D01*
X160783999Y-101972155D01*
X175784000Y-101972155D01*
X175784000Y-102220000D01*
X176784000Y-102220000D01*
X177284000Y-102220000D01*
X178284000Y-102220000D01*
X178284000Y-101972172D01*
X178283999Y-101972155D01*
X178277598Y-101912627D01*
X178277596Y-101912620D01*
X178227354Y-101777913D01*
X178227350Y-101777906D01*
X178141190Y-101662812D01*
X178141187Y-101662809D01*
X178026093Y-101576649D01*
X178026086Y-101576645D01*
X177891379Y-101526403D01*
X177891372Y-101526401D01*
X177831844Y-101520000D01*
X177284000Y-101520000D01*
X177284000Y-102220000D01*
X176784000Y-102220000D01*
X176784000Y-101520000D01*
X176236155Y-101520000D01*
X176176627Y-101526401D01*
X176176620Y-101526403D01*
X176041913Y-101576645D01*
X176041906Y-101576649D01*
X175926812Y-101662809D01*
X175926809Y-101662812D01*
X175840649Y-101777906D01*
X175840645Y-101777913D01*
X175790403Y-101912620D01*
X175790401Y-101912627D01*
X175784000Y-101972155D01*
X160783999Y-101972155D01*
X160777598Y-101912627D01*
X160777596Y-101912620D01*
X160727354Y-101777913D01*
X160727350Y-101777906D01*
X160641190Y-101662812D01*
X160641187Y-101662809D01*
X160526093Y-101576649D01*
X160526086Y-101576645D01*
X160391379Y-101526403D01*
X160391372Y-101526401D01*
X160331844Y-101520000D01*
X159784000Y-101520000D01*
X159784000Y-102220000D01*
X159284000Y-102220000D01*
X159284000Y-101520000D01*
X158736155Y-101520000D01*
X158676627Y-101526401D01*
X158676620Y-101526403D01*
X158541913Y-101576645D01*
X158541906Y-101576649D01*
X158426812Y-101662809D01*
X158426809Y-101662812D01*
X158340649Y-101777906D01*
X158340645Y-101777913D01*
X158290403Y-101912620D01*
X158290401Y-101912627D01*
X158284000Y-101972155D01*
X150034000Y-101972155D01*
X150034000Y-81124000D01*
X150053685Y-81056961D01*
X150106489Y-81011206D01*
X150158000Y-81000000D01*
X187249904Y-81000000D01*
X187316943Y-81019685D01*
G37*
%TD.AperFunction*%
%TA.AperFunction,Conductor*%
G36*
X173541540Y-154885185D02*
G01*
X173587295Y-154937989D01*
X173598501Y-154989500D01*
X173598501Y-155423034D01*
X173609113Y-155542415D01*
X173665089Y-155738045D01*
X173665090Y-155738048D01*
X173665091Y-155738049D01*
X173759302Y-155918407D01*
X173759304Y-155918409D01*
X173887890Y-156076109D01*
X173962986Y-156137341D01*
X174045593Y-156204698D01*
X174165805Y-156267491D01*
X174216113Y-156315978D01*
X174232220Y-156383966D01*
X174209014Y-156449869D01*
X174153861Y-156492764D01*
X174108394Y-156501400D01*
X170423499Y-156501400D01*
X170356460Y-156481715D01*
X170310705Y-156428911D01*
X170299499Y-156377400D01*
X170299499Y-155813877D01*
X170299498Y-155813876D01*
X170296600Y-155771111D01*
X170250641Y-155586307D01*
X170224750Y-155534103D01*
X170166032Y-155415707D01*
X170166030Y-155415704D01*
X170046722Y-155267278D01*
X170046721Y-155267277D01*
X169977514Y-155211647D01*
X169937595Y-155154304D01*
X169935015Y-155084482D01*
X169970594Y-155024349D01*
X169977514Y-155018353D01*
X169986909Y-155010800D01*
X170046722Y-154962722D01*
X170087644Y-154911813D01*
X170144987Y-154871894D01*
X170184291Y-154865500D01*
X173474501Y-154865500D01*
X173541540Y-154885185D01*
G37*
%TD.AperFunction*%
%TA.AperFunction,Conductor*%
G36*
X153894711Y-146714601D02*
G01*
X153939058Y-146743103D01*
X154319140Y-147123210D01*
X154532587Y-147336671D01*
X154559464Y-147376895D01*
X154577446Y-147420306D01*
X154577446Y-147420307D01*
X154611385Y-147502244D01*
X154636575Y-147539944D01*
X154636576Y-147539945D01*
X154636579Y-147539949D01*
X154685178Y-147612683D01*
X154709937Y-147649738D01*
X154709938Y-147649739D01*
X155043019Y-147982819D01*
X155076504Y-148044142D01*
X155071520Y-148113833D01*
X155029649Y-148169767D01*
X154964184Y-148194184D01*
X154955338Y-148194500D01*
X154908778Y-148194500D01*
X154841101Y-148205219D01*
X154691047Y-148228985D01*
X154481396Y-148297103D01*
X154481393Y-148297104D01*
X154284974Y-148397187D01*
X154106641Y-148526752D01*
X154106636Y-148526756D01*
X154056075Y-148577317D01*
X153994752Y-148610801D01*
X153925060Y-148605816D01*
X153869127Y-148563945D01*
X153852213Y-148532968D01*
X153822354Y-148452913D01*
X153822350Y-148452906D01*
X153736190Y-148337812D01*
X153736187Y-148337809D01*
X153621093Y-148251649D01*
X153621086Y-148251645D01*
X153486379Y-148201403D01*
X153486372Y-148201401D01*
X153426844Y-148195000D01*
X152729000Y-148195000D01*
X152729000Y-149219722D01*
X152652694Y-149175667D01*
X152538244Y-149145000D01*
X152419756Y-149145000D01*
X152305306Y-149175667D01*
X152229000Y-149219722D01*
X152229000Y-148329161D01*
X152248685Y-148262122D01*
X152265316Y-148241483D01*
X153763698Y-146743100D01*
X153825019Y-146709617D01*
X153894711Y-146714601D01*
G37*
%TD.AperFunction*%
%TA.AperFunction,Conductor*%
G36*
X150239203Y-136867348D02*
G01*
X150245681Y-136873380D01*
X152881506Y-139509205D01*
X152914991Y-139570528D01*
X152910007Y-139640220D01*
X152868135Y-139696153D01*
X152859278Y-139702181D01*
X152859143Y-139702288D01*
X152735089Y-139826342D01*
X152642987Y-139975663D01*
X152642985Y-139975668D01*
X152624393Y-140031777D01*
X152587801Y-140142203D01*
X152587801Y-140142204D01*
X152587800Y-140142204D01*
X152577300Y-140244983D01*
X152577300Y-141845001D01*
X152577301Y-141845018D01*
X152587800Y-141947796D01*
X152587801Y-141947799D01*
X152642985Y-142114331D01*
X152642987Y-142114336D01*
X152648363Y-142123052D01*
X152735088Y-142263656D01*
X152859144Y-142387712D01*
X153008466Y-142479814D01*
X153092305Y-142507595D01*
X153149748Y-142547366D01*
X153176572Y-142611882D01*
X153177300Y-142625300D01*
X153177300Y-144661267D01*
X153157615Y-144728306D01*
X153155220Y-144731595D01*
X153155221Y-144731596D01*
X153138958Y-144755937D01*
X153138956Y-144755941D01*
X153053286Y-144884154D01*
X153046911Y-144899543D01*
X153020034Y-144939764D01*
X150245681Y-147714118D01*
X150184358Y-147747603D01*
X150114666Y-147742619D01*
X150058733Y-147700747D01*
X150034316Y-147635283D01*
X150034000Y-147626437D01*
X150034000Y-136961061D01*
X150053685Y-136894022D01*
X150106489Y-136848267D01*
X150175647Y-136838323D01*
X150239203Y-136867348D01*
G37*
%TD.AperFunction*%
%TA.AperFunction,Conductor*%
G36*
X173187834Y-137032768D02*
G01*
X173243767Y-137074640D01*
X173268184Y-137140104D01*
X173268500Y-137148950D01*
X173268500Y-137915001D01*
X173268501Y-137915019D01*
X173279000Y-138017796D01*
X173279001Y-138017799D01*
X173326856Y-138162213D01*
X173334186Y-138184334D01*
X173426288Y-138333656D01*
X173550344Y-138457712D01*
X173699666Y-138549814D01*
X173782152Y-138577147D01*
X173839597Y-138616920D01*
X173866420Y-138681436D01*
X173854105Y-138750212D01*
X173844143Y-138761975D01*
X173843077Y-138775524D01*
X174522554Y-139455000D01*
X174516339Y-139455000D01*
X174414606Y-139482259D01*
X174323394Y-139534920D01*
X174248920Y-139609394D01*
X174196259Y-139700606D01*
X174169000Y-139802339D01*
X174169000Y-139808553D01*
X173489524Y-139129077D01*
X173489523Y-139129077D01*
X173457143Y-139173644D01*
X173364244Y-139355968D01*
X173301009Y-139550582D01*
X173269000Y-139752682D01*
X173269000Y-139957317D01*
X173301009Y-140159417D01*
X173364244Y-140354031D01*
X173457141Y-140536350D01*
X173457147Y-140536359D01*
X173489523Y-140580921D01*
X173489524Y-140580922D01*
X174169000Y-139901446D01*
X174169000Y-139907661D01*
X174196259Y-140009394D01*
X174248920Y-140100606D01*
X174323394Y-140175080D01*
X174414606Y-140227741D01*
X174516339Y-140255000D01*
X174522553Y-140255000D01*
X173843076Y-140934474D01*
X173887650Y-140966859D01*
X174069970Y-141059755D01*
X174158811Y-141088622D01*
X174216487Y-141128060D01*
X174243685Y-141192418D01*
X174231770Y-141261265D01*
X174208174Y-141294234D01*
X170969229Y-144533181D01*
X170907906Y-144566666D01*
X170881548Y-144569500D01*
X167688007Y-144569500D01*
X167564793Y-144569500D01*
X167539651Y-144574501D01*
X167462983Y-144589750D01*
X167443947Y-144593537D01*
X167443941Y-144593539D01*
X167401218Y-144611236D01*
X167330119Y-144640685D01*
X167330117Y-144640686D01*
X167304724Y-144657654D01*
X167227668Y-144709140D01*
X167205214Y-144731595D01*
X167140542Y-144796267D01*
X166251180Y-145685629D01*
X166189857Y-145719114D01*
X166120165Y-145714130D01*
X166064232Y-145672258D01*
X166039815Y-145606794D01*
X166039499Y-145597948D01*
X166039499Y-145257129D01*
X166039498Y-145257123D01*
X166039057Y-145253023D01*
X166033091Y-145197517D01*
X166023649Y-145172203D01*
X165982797Y-145062671D01*
X165982793Y-145062664D01*
X165898856Y-144950539D01*
X165874438Y-144885075D01*
X165889289Y-144816802D01*
X165910437Y-144788551D01*
X167488374Y-143210616D01*
X167816273Y-142882718D01*
X168359655Y-142339336D01*
X168359655Y-142339335D01*
X168359658Y-142339333D01*
X168428112Y-142236885D01*
X168475263Y-142123051D01*
X168487913Y-142059457D01*
X168499301Y-142002208D01*
X168499301Y-141873883D01*
X168499300Y-141873857D01*
X168499300Y-141676947D01*
X169419000Y-141676947D01*
X169419000Y-141913052D01*
X169455934Y-142146247D01*
X169528897Y-142370802D01*
X169636087Y-142581174D01*
X169696338Y-142664104D01*
X169696340Y-142664105D01*
X170395212Y-141965233D01*
X170406482Y-142007292D01*
X170478890Y-142132708D01*
X170581292Y-142235110D01*
X170706708Y-142307518D01*
X170748765Y-142318787D01*
X170049893Y-143017658D01*
X170132828Y-143077914D01*
X170343197Y-143185102D01*
X170567752Y-143258065D01*
X170567751Y-143258065D01*
X170800948Y-143295000D01*
X171037052Y-143295000D01*
X171270247Y-143258065D01*
X171494802Y-143185102D01*
X171705163Y-143077918D01*
X171705169Y-143077914D01*
X171788104Y-143017658D01*
X171788105Y-143017658D01*
X171089233Y-142318787D01*
X171131292Y-142307518D01*
X171256708Y-142235110D01*
X171359110Y-142132708D01*
X171431518Y-142007292D01*
X171442787Y-141965234D01*
X172141658Y-142664105D01*
X172141658Y-142664104D01*
X172201914Y-142581169D01*
X172201918Y-142581163D01*
X172309102Y-142370802D01*
X172382065Y-142146247D01*
X172419000Y-141913052D01*
X172419000Y-141676947D01*
X172382065Y-141443752D01*
X172309102Y-141219197D01*
X172201914Y-141008828D01*
X172141658Y-140925894D01*
X172141658Y-140925893D01*
X171442787Y-141624765D01*
X171431518Y-141582708D01*
X171359110Y-141457292D01*
X171256708Y-141354890D01*
X171131292Y-141282482D01*
X171089234Y-141271212D01*
X171788105Y-140572340D01*
X171788104Y-140572338D01*
X171705174Y-140512087D01*
X171494802Y-140404897D01*
X171270247Y-140331934D01*
X171270248Y-140331934D01*
X171037052Y-140295000D01*
X170800948Y-140295000D01*
X170567752Y-140331934D01*
X170343197Y-140404897D01*
X170132830Y-140512084D01*
X170049894Y-140572340D01*
X170748766Y-141271212D01*
X170706708Y-141282482D01*
X170581292Y-141354890D01*
X170478890Y-141457292D01*
X170406482Y-141582708D01*
X170395212Y-141624765D01*
X169696340Y-140925894D01*
X169636084Y-141008830D01*
X169528897Y-141219197D01*
X169455934Y-141443752D01*
X169419000Y-141676947D01*
X168499300Y-141676947D01*
X168499300Y-138698051D01*
X168518985Y-138631012D01*
X168535615Y-138610374D01*
X169323199Y-137822789D01*
X169384520Y-137789306D01*
X169454211Y-137794290D01*
X169510145Y-137836162D01*
X169526002Y-137866734D01*
X169526571Y-137866499D01*
X169528430Y-137870990D01*
X169601535Y-138014465D01*
X169635657Y-138081433D01*
X169774483Y-138272510D01*
X169941490Y-138439517D01*
X170132567Y-138578343D01*
X170191622Y-138608433D01*
X170343003Y-138685566D01*
X170343005Y-138685566D01*
X170343008Y-138685568D01*
X170463412Y-138724689D01*
X170567631Y-138758553D01*
X170800903Y-138795500D01*
X170800908Y-138795500D01*
X171037097Y-138795500D01*
X171270368Y-138758553D01*
X171319118Y-138742713D01*
X171494992Y-138685568D01*
X171705433Y-138578343D01*
X171896510Y-138439517D01*
X172063517Y-138272510D01*
X172202343Y-138081433D01*
X172309568Y-137870992D01*
X172330435Y-137806767D01*
X172360685Y-137757405D01*
X172431416Y-137686675D01*
X172431427Y-137686661D01*
X173056821Y-137061267D01*
X173118142Y-137027784D01*
X173187834Y-137032768D01*
G37*
%TD.AperFunction*%
%TA.AperFunction,Conductor*%
G36*
X174077134Y-130119070D02*
G01*
X174133067Y-130160942D01*
X174157484Y-130226406D01*
X174157800Y-130235252D01*
X174157800Y-131167647D01*
X174138115Y-131234686D01*
X174121481Y-131255328D01*
X167475069Y-137901740D01*
X167475067Y-137901742D01*
X167441009Y-137935800D01*
X167387942Y-137988866D01*
X167370838Y-138014465D01*
X167319489Y-138091312D01*
X167319487Y-138091316D01*
X167290118Y-138162218D01*
X167290119Y-138162219D01*
X167272336Y-138205149D01*
X167272335Y-138205155D01*
X167248300Y-138325989D01*
X167248300Y-141630147D01*
X167228615Y-141697186D01*
X167211981Y-141717828D01*
X166743981Y-142185828D01*
X166682658Y-142219313D01*
X166612966Y-142214329D01*
X166557033Y-142172457D01*
X166532616Y-142106993D01*
X166532300Y-142098147D01*
X166532300Y-137612752D01*
X166551985Y-137545713D01*
X166568619Y-137525071D01*
X173946119Y-130147571D01*
X174007442Y-130114086D01*
X174077134Y-130119070D01*
G37*
%TD.AperFunction*%
%TA.AperFunction,Conductor*%
G36*
X177868834Y-132351769D02*
G01*
X177924767Y-132393641D01*
X177949184Y-132459105D01*
X177949500Y-132467951D01*
X177949500Y-137501546D01*
X177929815Y-137568585D01*
X177913181Y-137589227D01*
X176008234Y-139494173D01*
X175946911Y-139527658D01*
X175877219Y-139522674D01*
X175821286Y-139480802D01*
X175802622Y-139444811D01*
X175773754Y-139355968D01*
X175680859Y-139173650D01*
X175648474Y-139129077D01*
X175648474Y-139129076D01*
X174969000Y-139808553D01*
X174969000Y-139802339D01*
X174941741Y-139700606D01*
X174889080Y-139609394D01*
X174814606Y-139534920D01*
X174723394Y-139482259D01*
X174621661Y-139455000D01*
X174615446Y-139455000D01*
X175294922Y-138775524D01*
X175293570Y-138758349D01*
X175279299Y-138739842D01*
X175273320Y-138670229D01*
X175305925Y-138608433D01*
X175355845Y-138577148D01*
X175438334Y-138549814D01*
X175587656Y-138457712D01*
X175711712Y-138333656D01*
X175803814Y-138184334D01*
X175858999Y-138017797D01*
X175869500Y-137915009D01*
X175869499Y-136714992D01*
X175858999Y-136612203D01*
X175803814Y-136445666D01*
X175711712Y-136296344D01*
X175587656Y-136172288D01*
X175438334Y-136080186D01*
X175271797Y-136025001D01*
X175271795Y-136025000D01*
X175169016Y-136014500D01*
X175169009Y-136014500D01*
X174402951Y-136014500D01*
X174335912Y-135994815D01*
X174290157Y-135942011D01*
X174280213Y-135872853D01*
X174309238Y-135809297D01*
X174315270Y-135802819D01*
X175967070Y-134151019D01*
X177737821Y-132380268D01*
X177799142Y-132346785D01*
X177868834Y-132351769D01*
G37*
%TD.AperFunction*%
%TA.AperFunction,Conductor*%
G36*
X175702833Y-107521569D02*
G01*
X175758767Y-107563440D01*
X175783184Y-107628904D01*
X175783500Y-107637751D01*
X175783500Y-108047870D01*
X175783501Y-108047876D01*
X175789908Y-108107481D01*
X175802659Y-108141669D01*
X175807642Y-108211361D01*
X175802659Y-108228331D01*
X175789908Y-108262518D01*
X175783501Y-108322116D01*
X175783500Y-108322135D01*
X175783500Y-109317870D01*
X175783501Y-109317876D01*
X175789908Y-109377481D01*
X175802659Y-109411669D01*
X175807642Y-109481361D01*
X175802659Y-109498331D01*
X175789908Y-109532518D01*
X175783501Y-109592116D01*
X175783500Y-109592135D01*
X175783500Y-110587870D01*
X175783501Y-110587876D01*
X175789908Y-110647481D01*
X175802659Y-110681669D01*
X175807642Y-110751361D01*
X175802659Y-110768331D01*
X175789908Y-110802518D01*
X175783501Y-110862116D01*
X175783500Y-110862135D01*
X175783500Y-111857870D01*
X175783501Y-111857876D01*
X175789908Y-111917481D01*
X175802659Y-111951669D01*
X175807642Y-112021361D01*
X175802659Y-112038331D01*
X175789908Y-112072518D01*
X175783501Y-112132116D01*
X175783501Y-112132123D01*
X175783500Y-112132135D01*
X175783500Y-113127870D01*
X175783501Y-113127876D01*
X175789908Y-113187481D01*
X175802659Y-113221669D01*
X175807642Y-113291361D01*
X175802659Y-113308331D01*
X175789908Y-113342518D01*
X175783501Y-113402116D01*
X175783500Y-113402135D01*
X175783500Y-114397870D01*
X175783501Y-114397876D01*
X175789908Y-114457481D01*
X175802659Y-114491669D01*
X175807642Y-114561361D01*
X175802659Y-114578331D01*
X175789908Y-114612518D01*
X175783501Y-114672116D01*
X175783500Y-114672135D01*
X175783500Y-115667870D01*
X175783501Y-115667876D01*
X175789908Y-115727481D01*
X175802659Y-115761669D01*
X175807642Y-115831361D01*
X175802659Y-115848331D01*
X175789908Y-115882518D01*
X175783501Y-115942116D01*
X175783500Y-115942135D01*
X175783500Y-116937870D01*
X175783501Y-116937876D01*
X175789908Y-116997481D01*
X175802659Y-117031669D01*
X175807642Y-117101361D01*
X175802659Y-117118331D01*
X175789908Y-117152518D01*
X175783501Y-117212116D01*
X175783501Y-117212123D01*
X175783500Y-117212135D01*
X175783500Y-118207870D01*
X175783501Y-118207876D01*
X175789908Y-118267481D01*
X175802659Y-118301669D01*
X175807642Y-118371361D01*
X175802659Y-118388331D01*
X175789908Y-118422518D01*
X175783501Y-118482116D01*
X175783500Y-118482127D01*
X175783500Y-119477870D01*
X175783501Y-119477876D01*
X175789908Y-119537483D01*
X175840202Y-119672328D01*
X175840206Y-119672335D01*
X175926452Y-119787544D01*
X175926455Y-119787547D01*
X176041664Y-119873793D01*
X176041671Y-119873797D01*
X176176517Y-119924091D01*
X176176516Y-119924091D01*
X176183444Y-119924835D01*
X176236127Y-119930500D01*
X177361200Y-119930499D01*
X177428239Y-119950184D01*
X177473994Y-120002987D01*
X177485200Y-120054499D01*
X177485200Y-130812347D01*
X177465515Y-130879386D01*
X177448881Y-130900028D01*
X172135149Y-136213760D01*
X172073826Y-136247245D01*
X172004134Y-136242261D01*
X171959787Y-136213760D01*
X171896512Y-136150485D01*
X171896510Y-136150483D01*
X171705433Y-136011657D01*
X171651332Y-135984091D01*
X171494990Y-135904430D01*
X171490499Y-135902571D01*
X171491022Y-135901307D01*
X171438460Y-135865350D01*
X171411277Y-135800985D01*
X171423207Y-135732141D01*
X171446788Y-135699200D01*
X175269158Y-131876833D01*
X175337612Y-131774385D01*
X175384763Y-131660551D01*
X175408801Y-131539706D01*
X175408801Y-131416493D01*
X175408801Y-131411383D01*
X175408800Y-131411357D01*
X175408800Y-107764452D01*
X175428485Y-107697413D01*
X175445113Y-107676776D01*
X175571822Y-107550067D01*
X175633141Y-107516585D01*
X175702833Y-107521569D01*
G37*
%TD.AperFunction*%
%TA.AperFunction,Conductor*%
G36*
X158736303Y-120731539D02*
G01*
X158742781Y-120737571D01*
X159562581Y-121557371D01*
X159596066Y-121618694D01*
X159598900Y-121645052D01*
X159598900Y-131858050D01*
X159579215Y-131925089D01*
X159578002Y-131926941D01*
X159515009Y-132021215D01*
X159515002Y-132021228D01*
X159454664Y-132166898D01*
X159454661Y-132166910D01*
X159423900Y-132321553D01*
X159423900Y-132479246D01*
X159454661Y-132633889D01*
X159454664Y-132633901D01*
X159515002Y-132779572D01*
X159515009Y-132779585D01*
X159602610Y-132910688D01*
X159602613Y-132910692D01*
X159714107Y-133022186D01*
X159714111Y-133022189D01*
X159845214Y-133109790D01*
X159845227Y-133109797D01*
X159974001Y-133163136D01*
X159990903Y-133170137D01*
X160109432Y-133193714D01*
X160145553Y-133200899D01*
X160145556Y-133200900D01*
X160145558Y-133200900D01*
X160303243Y-133200900D01*
X160321787Y-133197211D01*
X160376509Y-133186326D01*
X160446099Y-133192553D01*
X160501277Y-133235415D01*
X160524522Y-133301305D01*
X160524700Y-133307943D01*
X160524700Y-134529194D01*
X160505015Y-134596233D01*
X160452211Y-134641988D01*
X160383053Y-134651932D01*
X160331810Y-134632296D01*
X160286458Y-134601993D01*
X160286440Y-134601983D01*
X160122567Y-134534106D01*
X160122558Y-134534103D01*
X159948594Y-134499500D01*
X159948591Y-134499500D01*
X158655100Y-134499500D01*
X158588061Y-134479815D01*
X158542306Y-134427011D01*
X158531100Y-134375500D01*
X158531100Y-120825252D01*
X158550785Y-120758213D01*
X158603589Y-120712458D01*
X158672747Y-120702514D01*
X158736303Y-120731539D01*
G37*
%TD.AperFunction*%
%TA.AperFunction,Conductor*%
G36*
X162874834Y-116370769D02*
G01*
X162930767Y-116412641D01*
X162955184Y-116478105D01*
X162955500Y-116486951D01*
X162955500Y-117364248D01*
X162935815Y-117431287D01*
X162919181Y-117451929D01*
X161979629Y-118391481D01*
X161918306Y-118424966D01*
X161891948Y-118427800D01*
X161828189Y-118427800D01*
X161767771Y-118439818D01*
X161724543Y-118448416D01*
X161707346Y-118451837D01*
X161634222Y-118482127D01*
X161593516Y-118498987D01*
X161491065Y-118567442D01*
X161491062Y-118567445D01*
X160996180Y-119062328D01*
X160934857Y-119095813D01*
X160865165Y-119090829D01*
X160809232Y-119048957D01*
X160784815Y-118983493D01*
X160784499Y-118974647D01*
X160784499Y-118482127D01*
X160784498Y-118482123D01*
X160784497Y-118482116D01*
X160778091Y-118422517D01*
X160765340Y-118388332D01*
X160760357Y-118318642D01*
X160765340Y-118301669D01*
X160778091Y-118267483D01*
X160784500Y-118207873D01*
X160784499Y-117212128D01*
X160778091Y-117152517D01*
X160765340Y-117118332D01*
X160760357Y-117048642D01*
X160765340Y-117031669D01*
X160778091Y-116997483D01*
X160782862Y-116953100D01*
X160809599Y-116888554D01*
X160866991Y-116848705D01*
X160936816Y-116846211D01*
X160996905Y-116881862D01*
X161015509Y-116907905D01*
X161017206Y-116911080D01*
X161104810Y-117042188D01*
X161104813Y-117042192D01*
X161216307Y-117153686D01*
X161216311Y-117153689D01*
X161347414Y-117241290D01*
X161347427Y-117241297D01*
X161493098Y-117301635D01*
X161493103Y-117301637D01*
X161647753Y-117332399D01*
X161647756Y-117332400D01*
X161647758Y-117332400D01*
X161805444Y-117332400D01*
X161805445Y-117332399D01*
X161960097Y-117301637D01*
X162105779Y-117241294D01*
X162236889Y-117153689D01*
X162348389Y-117042189D01*
X162435994Y-116911079D01*
X162496337Y-116765397D01*
X162518458Y-116654182D01*
X162550840Y-116592275D01*
X162552331Y-116590757D01*
X162743820Y-116399269D01*
X162805142Y-116365785D01*
X162874834Y-116370769D01*
G37*
%TD.AperFunction*%
%TA.AperFunction,Conductor*%
G36*
X160938687Y-111915934D02*
G01*
X160983049Y-111944440D01*
X162457381Y-113418771D01*
X162490866Y-113480094D01*
X162493700Y-113506452D01*
X162493700Y-114828847D01*
X162474015Y-114895886D01*
X162457381Y-114916528D01*
X161667803Y-115706105D01*
X161606480Y-115739590D01*
X161604314Y-115740041D01*
X161493108Y-115762161D01*
X161493098Y-115762164D01*
X161407652Y-115797557D01*
X161338183Y-115805026D01*
X161275704Y-115773750D01*
X161240052Y-115713661D01*
X161236200Y-115682996D01*
X161236200Y-115108393D01*
X161236199Y-115108389D01*
X161212164Y-114987555D01*
X161212163Y-114987548D01*
X161165011Y-114873714D01*
X161165010Y-114873713D01*
X161165007Y-114873707D01*
X161112618Y-114795302D01*
X161091740Y-114728625D01*
X161110224Y-114661245D01*
X161162203Y-114614554D01*
X161191529Y-114604794D01*
X161227637Y-114597611D01*
X161317497Y-114579737D01*
X161463179Y-114519394D01*
X161594289Y-114431789D01*
X161705789Y-114320289D01*
X161793394Y-114189179D01*
X161853737Y-114043497D01*
X161884500Y-113888842D01*
X161884500Y-113731158D01*
X161884500Y-113731155D01*
X161884499Y-113731153D01*
X161853738Y-113576510D01*
X161853737Y-113576503D01*
X161824721Y-113506452D01*
X161793397Y-113430827D01*
X161793390Y-113430814D01*
X161705789Y-113299711D01*
X161705786Y-113299707D01*
X161594292Y-113188213D01*
X161594288Y-113188210D01*
X161463185Y-113100609D01*
X161463172Y-113100602D01*
X161317501Y-113040264D01*
X161317489Y-113040261D01*
X161162845Y-113009500D01*
X161162842Y-113009500D01*
X161005158Y-113009500D01*
X161005153Y-113009500D01*
X160932690Y-113023914D01*
X160863098Y-113017687D01*
X160807921Y-112974824D01*
X160784677Y-112908934D01*
X160784499Y-112902297D01*
X160784499Y-112132129D01*
X160784498Y-112132123D01*
X160784498Y-112132116D01*
X160778091Y-112072517D01*
X160778090Y-112072515D01*
X160778090Y-112072512D01*
X160776308Y-112064969D01*
X160778404Y-112064473D01*
X160774198Y-112005778D01*
X160807676Y-111944451D01*
X160868995Y-111910958D01*
X160938687Y-111915934D01*
G37*
%TD.AperFunction*%
%TA.AperFunction,Conductor*%
G36*
X161280087Y-109465185D02*
G01*
X161300729Y-109481819D01*
X162919181Y-111100271D01*
X162952666Y-111161594D01*
X162955500Y-111187952D01*
X162955500Y-111848347D01*
X162935815Y-111915386D01*
X162883011Y-111961141D01*
X162813853Y-111971085D01*
X162750297Y-111942060D01*
X162743819Y-111936028D01*
X161272519Y-110464728D01*
X161239034Y-110403405D01*
X161236200Y-110377047D01*
X161236200Y-110028393D01*
X161236199Y-110028389D01*
X161212164Y-109907555D01*
X161212163Y-109907548D01*
X161165011Y-109793714D01*
X161165010Y-109793713D01*
X161165007Y-109793707D01*
X161096558Y-109691267D01*
X161096555Y-109691263D01*
X161062473Y-109657181D01*
X161028988Y-109595858D01*
X161033972Y-109526166D01*
X161075844Y-109470233D01*
X161141308Y-109445816D01*
X161150154Y-109445500D01*
X161213048Y-109445500D01*
X161280087Y-109465185D01*
G37*
%TD.AperFunction*%
%TD*%
M02*
