%TF.GenerationSoftware,KiCad,Pcbnew,10.0.5*%
%TF.CreationDate,2026-07-29T02:33:01-07:00*%
%TF.ProjectId,cv-plug,63762d70-6c75-4672-9e6b-696361645f70,rev?*%
%TF.SameCoordinates,Original*%
%TF.FileFunction,Copper,L2,Bot*%
%TF.FilePolarity,Positive*%
%FSLAX46Y46*%
G04 Gerber Fmt 4.6, Leading zero omitted, Abs format (unit mm)*
G04 Created by KiCad (PCBNEW 10.0.5) date 2026-07-29 02:33:01*
%MOMM*%
%LPD*%
G01*
G04 APERTURE LIST*
G04 Aperture macros list*
%AMRoundRect*
0 Rectangle with rounded corners*
0 $1 Rounding radius*
0 $2 $3 $4 $5 $6 $7 $8 $9 X,Y pos of 4 corners*
0 Add a 4 corners polygon primitive as box body*
4,1,4,$2,$3,$4,$5,$6,$7,$8,$9,$2,$3,0*
0 Add four circle primitives for the rounded corners*
1,1,$1+$1,$2,$3*
1,1,$1+$1,$4,$5*
1,1,$1+$1,$6,$7*
1,1,$1+$1,$8,$9*
0 Add four rect primitives between the rounded corners*
20,1,$1+$1,$2,$3,$4,$5,0*
20,1,$1+$1,$4,$5,$6,$7,0*
20,1,$1+$1,$6,$7,$8,$9,0*
20,1,$1+$1,$8,$9,$2,$3,0*%
G04 Aperture macros list end*
%TA.AperFunction,ComponentPad*%
%ADD10C,3.000000*%
%TD*%
%TA.AperFunction,ComponentPad*%
%ADD11C,2.500000*%
%TD*%
%TA.AperFunction,ComponentPad*%
%ADD12RoundRect,0.500000X0.500000X-0.500000X0.500000X0.500000X-0.500000X0.500000X-0.500000X-0.500000X0*%
%TD*%
%TA.AperFunction,ComponentPad*%
%ADD13C,2.000000*%
%TD*%
%TA.AperFunction,ComponentPad*%
%ADD14R,1.700000X1.700000*%
%TD*%
%TA.AperFunction,ComponentPad*%
%ADD15C,1.700000*%
%TD*%
%TA.AperFunction,ComponentPad*%
%ADD16RoundRect,0.250000X1.050000X-1.050000X1.050000X1.050000X-1.050000X1.050000X-1.050000X-1.050000X0*%
%TD*%
%TA.AperFunction,ComponentPad*%
%ADD17C,2.600000*%
%TD*%
%TA.AperFunction,ComponentPad*%
%ADD18RoundRect,0.250000X-0.550000X-0.550000X0.550000X-0.550000X0.550000X0.550000X-0.550000X0.550000X0*%
%TD*%
%TA.AperFunction,ComponentPad*%
%ADD19C,1.600000*%
%TD*%
%TA.AperFunction,HeatsinkPad*%
%ADD20C,0.600000*%
%TD*%
%TA.AperFunction,ComponentPad*%
%ADD21RoundRect,0.250000X0.750000X-0.600000X0.750000X0.600000X-0.750000X0.600000X-0.750000X-0.600000X0*%
%TD*%
%TA.AperFunction,ComponentPad*%
%ADD22O,2.000000X1.700000*%
%TD*%
%TA.AperFunction,ComponentPad*%
%ADD23RoundRect,0.250000X-0.750000X-0.750000X0.750000X-0.750000X0.750000X0.750000X-0.750000X0.750000X0*%
%TD*%
%TA.AperFunction,ComponentPad*%
%ADD24R,1.800000X1.800000*%
%TD*%
%TA.AperFunction,ComponentPad*%
%ADD25C,1.800000*%
%TD*%
%TA.AperFunction,ComponentPad*%
%ADD26RoundRect,0.249999X0.850001X-0.850001X0.850001X0.850001X-0.850001X0.850001X-0.850001X-0.850001X0*%
%TD*%
%TA.AperFunction,ComponentPad*%
%ADD27C,2.200000*%
%TD*%
%TA.AperFunction,SMDPad,CuDef*%
%ADD28RoundRect,0.250000X0.262500X0.450000X-0.262500X0.450000X-0.262500X-0.450000X0.262500X-0.450000X0*%
%TD*%
%TA.AperFunction,SMDPad,CuDef*%
%ADD29RoundRect,0.250000X0.450000X-0.262500X0.450000X0.262500X-0.450000X0.262500X-0.450000X-0.262500X0*%
%TD*%
%TA.AperFunction,SMDPad,CuDef*%
%ADD30RoundRect,0.250000X0.362500X1.425000X-0.362500X1.425000X-0.362500X-1.425000X0.362500X-1.425000X0*%
%TD*%
%TA.AperFunction,SMDPad,CuDef*%
%ADD31RoundRect,0.250000X0.250000X0.475000X-0.250000X0.475000X-0.250000X-0.475000X0.250000X-0.475000X0*%
%TD*%
%TA.AperFunction,SMDPad,CuDef*%
%ADD32RoundRect,0.375000X0.375000X-0.625000X0.375000X0.625000X-0.375000X0.625000X-0.375000X-0.625000X0*%
%TD*%
%TA.AperFunction,SMDPad,CuDef*%
%ADD33RoundRect,0.500000X1.400000X-0.500000X1.400000X0.500000X-1.400000X0.500000X-1.400000X-0.500000X0*%
%TD*%
%TA.AperFunction,SMDPad,CuDef*%
%ADD34RoundRect,0.150000X0.587500X0.150000X-0.587500X0.150000X-0.587500X-0.150000X0.587500X-0.150000X0*%
%TD*%
%TA.AperFunction,ViaPad*%
%ADD35C,0.800000*%
%TD*%
%TA.AperFunction,ViaPad*%
%ADD36C,0.600000*%
%TD*%
%TA.AperFunction,Conductor*%
%ADD37C,1.500000*%
%TD*%
%TA.AperFunction,Conductor*%
%ADD38C,0.800000*%
%TD*%
%TA.AperFunction,Conductor*%
%ADD39C,0.250000*%
%TD*%
G04 APERTURE END LIST*
D10*
%TO.P,K1,1*%
%TO.N,AC_L_FUSED*%
X125789000Y-134635000D03*
D11*
%TO.P,K1,2*%
%TO.N,RELAY_PIN_SW*%
X127739000Y-140685000D03*
D10*
%TO.P,K1,3*%
%TO.N,+5V*%
X139939000Y-140685000D03*
%TO.P,K1,4*%
%TO.N,RELAY_PIN_COIL*%
X139989000Y-128635000D03*
D11*
%TO.P,K1,5*%
%TO.N,N$K1.5*%
X127739000Y-128685000D03*
%TD*%
D12*
%TO.P,F1,1*%
%TO.N,AC_L*%
X109195000Y-135635000D03*
X109195000Y-130635000D03*
D13*
%TO.P,F1,2*%
%TO.N,AC_L_FUSED*%
X109195000Y-120635000D03*
X109195000Y-115635000D03*
%TD*%
D14*
%TO.P,JP,1*%
%TO.N,UART_TX*%
X164689000Y-98655000D03*
D15*
%TO.P,JP,2*%
%TO.N,UART_RX*%
X164689000Y-101195000D03*
%TO.P,JP,3*%
%TO.N,GND*%
X164689000Y-103735000D03*
%TD*%
D16*
%TO.P,J1,1*%
%TO.N,AC_L*%
X112005000Y-104295000D03*
D17*
%TO.P,J1,2*%
%TO.N,AC_N*%
X112005000Y-99295000D03*
%TO.P,J1,3*%
%TO.N,AC_LOAD*%
X112005000Y-94295000D03*
%TD*%
D18*
%TO.P,C2,1*%
%TO.N,+3V3*%
X175657800Y-98375000D03*
D19*
%TO.P,C2,2*%
%TO.N,GND*%
X178157800Y-98375000D03*
%TD*%
D20*
%TO.P,U1,39*%
%TO.N,GND*%
X165384000Y-130120000D03*
X165384000Y-131520000D03*
X166084000Y-129420000D03*
X166084000Y-130820000D03*
X166084000Y-132220000D03*
X166784000Y-130120000D03*
X166784000Y-131520000D03*
X167484000Y-129420000D03*
X167484000Y-130820000D03*
X167484000Y-132220000D03*
X168184000Y-130120000D03*
X168184000Y-131520000D03*
%TD*%
D18*
%TO.P,U4,1*%
%TO.N,RELAY_PIN_OPT*%
X174569000Y-89815000D03*
D19*
%TO.P,U4,2*%
%TO.N,GND*%
X174569000Y-92355000D03*
%TO.P,U4,3*%
%TO.N,RELAY_PIN_DRV*%
X182189000Y-92355000D03*
%TO.P,U4,4*%
%TO.N,+5V*%
X182189000Y-89815000D03*
%TD*%
D21*
%TO.P,PS1,1*%
%TO.N,AC_L_FUSED*%
X133239000Y-121485000D03*
D22*
%TO.P,PS1,2*%
%TO.N,AC_N*%
X138239000Y-121485000D03*
%TO.P,PS1,3*%
%TO.N,GND*%
X128239000Y-92405000D03*
%TO.P,PS1,4*%
%TO.N,+5V*%
X143239000Y-92405000D03*
%TD*%
D23*
%TO.P,C1,1*%
%TO.N,+5V*%
X154077800Y-93545000D03*
D13*
%TO.P,C1,2*%
%TO.N,GND*%
X159077800Y-93545000D03*
%TD*%
%TO.P,SW1,1*%
%TO.N,BTN_PIN*%
X164419000Y-89795000D03*
X170919000Y-89795000D03*
%TO.P,SW1,2*%
%TO.N,GND*%
X164419000Y-94295000D03*
X170919000Y-94295000D03*
%TD*%
D24*
%TO.P,LED0,1*%
%TO.N,N$LED0.1*%
X168699000Y-99095000D03*
D25*
%TO.P,LED0,2*%
%TO.N,N$LED0.2*%
X171239000Y-99095000D03*
%TD*%
D24*
%TO.P,LED1,1*%
%TO.N,LED_PIN_A*%
X152479000Y-102095000D03*
D25*
%TO.P,LED1,2*%
%TO.N,GND*%
X155019000Y-102095000D03*
%TD*%
D19*
%TO.P,RV1,1*%
%TO.N,AC_L_FUSED*%
X107545000Y-145275000D03*
%TO.P,RV1,2*%
%TO.N,AC_N*%
X112545000Y-146575000D03*
%TD*%
D26*
%TO.P,D1,1*%
%TO.N,+5V*%
X182999000Y-106485000D03*
D27*
%TO.P,D1,2*%
%TO.N,RELAY_PIN_COIL*%
X182999000Y-96325000D03*
%TD*%
D28*
%TO.P,R5,1*%
%TO.N,+3V3*%
X169176500Y-101990000D03*
%TO.P,R5,2*%
%TO.N,MTR_CF1*%
X167351500Y-101990000D03*
%TD*%
%TO.P,R7,1*%
%TO.N,N$R7.1*%
X169176500Y-104980000D03*
%TO.P,R7,2*%
%TO.N,N$R7.2*%
X167351500Y-104980000D03*
%TD*%
D29*
%TO.P,R4,1*%
%TO.N,+3V3*%
X160904000Y-103382500D03*
%TO.P,R4,2*%
%TO.N,MTR_CF*%
X160904000Y-101557500D03*
%TD*%
D30*
%TO.P,Rsh,1*%
%TO.N,RELAY_PIN_SW*%
X113087500Y-156350000D03*
%TO.P,Rsh,2*%
%TO.N,AC_LOAD*%
X107162500Y-156350000D03*
%TD*%
D29*
%TO.P,R2,1*%
%TO.N,LED_PIN*%
X161719000Y-98932500D03*
%TO.P,R2,2*%
%TO.N,LED_PIN_A*%
X161719000Y-97107500D03*
%TD*%
D28*
%TO.P,R8,1*%
%TO.N,N$R8.1*%
X153921500Y-104990000D03*
%TO.P,R8,2*%
%TO.N,N$R8.2*%
X152096500Y-104990000D03*
%TD*%
D29*
%TO.P,R9,1*%
%TO.N,N$R9.1*%
X160904000Y-107832500D03*
%TO.P,R9,2*%
%TO.N,N$R9.2*%
X160904000Y-106007500D03*
%TD*%
D31*
%TO.P,C3,1*%
%TO.N,+3V3*%
X153979000Y-89275000D03*
%TO.P,C3,2*%
%TO.N,GND*%
X152079000Y-89275000D03*
%TD*%
D28*
%TO.P,R1,1*%
%TO.N,RELAY_PIN*%
X180046500Y-95160000D03*
%TO.P,R1,2*%
%TO.N,RELAY_PIN_OPT*%
X178221500Y-95160000D03*
%TD*%
D29*
%TO.P,R3,1*%
%TO.N,+3V3*%
X157914000Y-101232500D03*
%TO.P,R3,2*%
%TO.N,EN*%
X157914000Y-99407500D03*
%TD*%
D32*
%TO.P,U2,1*%
%TO.N,GND*%
X179084000Y-107770000D03*
%TO.P,U2,2*%
%TO.N,+3V3*%
X176784000Y-107770000D03*
D33*
X176784000Y-101470000D03*
D32*
%TO.P,U2,3*%
%TO.N,+5V*%
X174484000Y-107770000D03*
%TD*%
D31*
%TO.P,C6,1*%
%TO.N,+3V3*%
X158929000Y-96570000D03*
%TO.P,C6,2*%
%TO.N,GND*%
X157029000Y-96570000D03*
%TD*%
%TO.P,C5,1*%
%TO.N,+3V3*%
X175614000Y-95190000D03*
%TO.P,C5,2*%
%TO.N,GND*%
X173714000Y-95190000D03*
%TD*%
D29*
%TO.P,R6,1*%
%TO.N,N$R6.1*%
X157914000Y-105682500D03*
%TO.P,R6,2*%
%TO.N,N$R6.2*%
X157914000Y-103857500D03*
%TD*%
D31*
%TO.P,C4,1*%
%TO.N,+3V3*%
X158469000Y-89275000D03*
%TO.P,C4,2*%
%TO.N,GND*%
X156569000Y-89275000D03*
%TD*%
D34*
%TO.P,Q1,1*%
%TO.N,RELAY_PIN_DRV*%
X154196500Y-96340000D03*
%TO.P,Q1,2*%
%TO.N,GND*%
X154196500Y-98240000D03*
%TO.P,Q1,3*%
%TO.N,RELAY_PIN_COIL*%
X152321500Y-97290000D03*
%TD*%
D29*
%TO.P,R10,1*%
%TO.N,N$R10.1*%
X163894000Y-108222500D03*
%TO.P,R10,2*%
%TO.N,N$R10.2*%
X163894000Y-106397500D03*
%TD*%
D35*
%TO.N,+5V*%
X145883900Y-137488200D03*
X160559000Y-87387500D03*
D36*
%TO.N,RELAY_PIN_COIL*%
X145883900Y-99400000D03*
D35*
%TO.N,GND*%
X162284000Y-166750000D03*
X157384000Y-123100000D03*
X165784000Y-114250000D03*
X179784000Y-117750000D03*
X158784000Y-166750000D03*
X158784000Y-163250000D03*
X162284000Y-149250000D03*
X183284000Y-135250000D03*
X151784000Y-117750000D03*
X186784000Y-149250000D03*
X183284000Y-86250000D03*
X186784000Y-103750000D03*
X186784000Y-135250000D03*
X165784000Y-128250000D03*
X183284000Y-124750000D03*
X151784000Y-145750000D03*
X183284000Y-138750000D03*
X186784000Y-163250000D03*
X172784000Y-110750000D03*
X186784000Y-110750000D03*
X179784000Y-135250000D03*
X176284000Y-166750000D03*
X155284000Y-128250000D03*
X165784000Y-152750000D03*
X169284000Y-96750000D03*
X151784000Y-142250000D03*
X158784000Y-145750000D03*
X172784000Y-166750000D03*
X151784000Y-93250000D03*
X169284000Y-131750000D03*
X172784000Y-138750000D03*
X179784000Y-138750000D03*
X179784000Y-163250000D03*
X186784000Y-131750000D03*
X162284000Y-124750000D03*
X158784000Y-156250000D03*
X186784000Y-93250000D03*
X162284000Y-114250000D03*
X155284000Y-149250000D03*
X151784000Y-124750000D03*
X151784000Y-138750000D03*
X169284000Y-135250000D03*
X158784000Y-82750000D03*
X158784000Y-152750000D03*
X151784000Y-121250000D03*
X158784000Y-142250000D03*
X183284000Y-117750000D03*
X162284000Y-135250000D03*
X165784000Y-138750000D03*
X179784000Y-100250000D03*
X176769000Y-92355000D03*
X183284000Y-100250000D03*
X186784000Y-86250000D03*
X151784000Y-131750000D03*
X151784000Y-166750000D03*
X162284000Y-93250000D03*
X155284000Y-138750000D03*
X186784000Y-152750000D03*
X176284000Y-86250000D03*
X179784000Y-149250000D03*
X176284000Y-82750000D03*
X162284000Y-131750000D03*
X165784000Y-163250000D03*
X179784000Y-159750000D03*
X176284000Y-149250000D03*
X169284000Y-152750000D03*
X179084000Y-110170000D03*
X156569000Y-91400000D03*
X162284000Y-110750000D03*
X155284000Y-145750000D03*
X183284000Y-114250000D03*
X186784000Y-156250000D03*
X151784000Y-110750000D03*
X151784000Y-135250000D03*
X169284000Y-159750000D03*
X176284000Y-163250000D03*
X169284000Y-82750000D03*
X158784000Y-110750000D03*
X186784000Y-159750000D03*
X165784000Y-107250000D03*
X172784000Y-163250000D03*
X169284000Y-110750000D03*
X157029000Y-94445000D03*
X172784000Y-86250000D03*
X169284000Y-149250000D03*
X172784000Y-131750000D03*
X169284000Y-138750000D03*
X172784000Y-128250000D03*
X176284000Y-145750000D03*
X176284000Y-152750000D03*
X176284000Y-156250000D03*
X179184000Y-123100000D03*
X165784000Y-159750000D03*
X176284000Y-114250000D03*
X186784000Y-114250000D03*
X162284000Y-128250000D03*
X183284000Y-142250000D03*
X179784000Y-156250000D03*
X155284000Y-114250000D03*
X169284000Y-107250000D03*
X151784000Y-152750000D03*
X183284000Y-131750000D03*
X162284000Y-152750000D03*
X173714000Y-97315000D03*
X172784000Y-149250000D03*
X155284000Y-86250000D03*
X162284000Y-156250000D03*
X179784000Y-121250000D03*
X169284000Y-156250000D03*
X172784000Y-82750000D03*
X165784000Y-124750000D03*
X165784000Y-156250000D03*
X186784000Y-82750000D03*
X183284000Y-110750000D03*
X172784000Y-152750000D03*
X186784000Y-107250000D03*
X169284000Y-166750000D03*
X179784000Y-124750000D03*
X151784000Y-159750000D03*
X186784000Y-138750000D03*
X186784000Y-145750000D03*
X183284000Y-159750000D03*
X155284000Y-82750000D03*
X165784000Y-145750000D03*
X169284000Y-163250000D03*
X166839234Y-94342900D03*
X172784000Y-114250000D03*
X155284000Y-124750000D03*
X179784000Y-131750000D03*
X158784000Y-86250000D03*
X162284000Y-86250000D03*
X151784000Y-82750000D03*
X165784000Y-149250000D03*
X158784000Y-159750000D03*
X179784000Y-114250000D03*
X186784000Y-89750000D03*
X155284000Y-135250000D03*
X162284000Y-159750000D03*
X165784000Y-110750000D03*
X169284000Y-145750000D03*
X179784000Y-110750000D03*
X162284000Y-82750000D03*
X155284000Y-107250000D03*
X162284000Y-138750000D03*
X172784000Y-156250000D03*
X155284000Y-156250000D03*
X151784000Y-114250000D03*
X186784000Y-128250000D03*
X155284000Y-121250000D03*
X172784000Y-135250000D03*
X186784000Y-121250000D03*
X176284000Y-110750000D03*
X151784000Y-86250000D03*
X179784000Y-128250000D03*
X186784000Y-117750000D03*
X186784000Y-96750000D03*
X186784000Y-100250000D03*
X169284000Y-124750000D03*
X183284000Y-152750000D03*
X155284000Y-131750000D03*
X183284000Y-149250000D03*
X165784000Y-86250000D03*
X155284000Y-117750000D03*
X151784000Y-149250000D03*
X179784000Y-145750000D03*
X169284000Y-114250000D03*
X152079000Y-91400000D03*
X179784000Y-142250000D03*
X170919000Y-96695000D03*
X169284000Y-86250000D03*
X172784000Y-145750000D03*
X183284000Y-163250000D03*
X155284000Y-163250000D03*
X176284000Y-142250000D03*
X183284000Y-103750000D03*
X179784000Y-103750000D03*
X179784000Y-86250000D03*
X172784000Y-159750000D03*
X155284000Y-142250000D03*
X179784000Y-82750000D03*
X151784000Y-107250000D03*
X172784000Y-103750000D03*
X165784000Y-166750000D03*
X155284000Y-110750000D03*
X155284000Y-166750000D03*
X183284000Y-128250000D03*
X172784000Y-124750000D03*
X169284000Y-128250000D03*
X179784000Y-152750000D03*
X158784000Y-114250000D03*
X165784000Y-135250000D03*
X186784000Y-142250000D03*
X176284000Y-159750000D03*
X151784000Y-128250000D03*
X183284000Y-82750000D03*
X151784000Y-163250000D03*
X151784000Y-156250000D03*
X186784000Y-124750000D03*
X165784000Y-82750000D03*
X155284000Y-152750000D03*
X162284000Y-145750000D03*
X154196000Y-99877500D03*
X183284000Y-145750000D03*
X183284000Y-121250000D03*
X158784000Y-149250000D03*
X155284000Y-159750000D03*
X179784000Y-89750000D03*
X162284000Y-163250000D03*
X183284000Y-156250000D03*
D36*
%TO.N,MTR_CF*%
X137557000Y-139451800D03*
X161242400Y-123285000D03*
%TO.N,MTR_CF1*%
X136219600Y-139508600D03*
X156542800Y-121622000D03*
X163144400Y-102465000D03*
X158109700Y-129085000D03*
%TO.N,MTR_SEL*%
X157735400Y-143727000D03*
X131961700Y-145291200D03*
D35*
%TO.N,+3V3*%
X157750700Y-102545000D03*
X160717400Y-90400000D03*
D36*
%TO.N,UART_RX*%
X175112400Y-111855100D03*
X182103900Y-126449600D03*
X183708800Y-119875000D03*
X178287500Y-127788900D03*
%TO.N,EN*%
X158109800Y-125449000D03*
%TO.N,RELAY_PIN*%
X161084000Y-135260000D03*
%TO.N,LED_PIN*%
X178477900Y-96718000D03*
%TD*%
%TO.N,AC_L_FUSED*%
D37*
X133239000Y-121485000D02*
X132389000Y-120635000D01*
X132389000Y-120635000D02*
X109195000Y-120635000D01*
%TO.N,RELAY_PIN_SW*%
X127739000Y-141698500D02*
X127739000Y-140685000D01*
X113087500Y-156350000D02*
X127739000Y-141698500D01*
%TO.N,+5V*%
D38*
X153233400Y-94389400D02*
X143671700Y-94389400D01*
X142687100Y-140685000D02*
X145883900Y-137488200D01*
X182568900Y-106054900D02*
X175940100Y-106054900D01*
X154077800Y-93545000D02*
X153233400Y-94389400D01*
X179761500Y-87387500D02*
X182189000Y-89815000D01*
X174484000Y-107511000D02*
X174484000Y-107770000D01*
X143239000Y-92405000D02*
X143239000Y-93956700D01*
X182999000Y-106485000D02*
X182568900Y-106054900D01*
X175940100Y-106054900D02*
X174484000Y-107511000D01*
X143671700Y-94389400D02*
X143239000Y-93956700D01*
X160559000Y-87387500D02*
X179761500Y-87387500D01*
X139939000Y-140685000D02*
X142687100Y-140685000D01*
%TO.N,RELAY_PIN_COIL*%
D39*
X180135500Y-85419300D02*
X183428300Y-88712100D01*
X141800600Y-95316700D02*
X141800600Y-91875800D01*
X148257100Y-85419300D02*
X180135500Y-85419300D01*
X152321500Y-97290000D02*
X150211500Y-99400000D01*
X183428300Y-88712100D02*
X183428300Y-95895700D01*
X141800600Y-91875800D02*
X148257100Y-85419300D01*
X145883900Y-99400000D02*
X141800600Y-95316700D01*
X183428300Y-95895700D02*
X182999000Y-96325000D01*
X150211500Y-99400000D02*
X145883900Y-99400000D01*
%TO.N,GND*%
D38*
X150770700Y-81736500D02*
X141653900Y-90853300D01*
X141653900Y-90853300D02*
X128239000Y-90853300D01*
X128239000Y-92405000D02*
X128239000Y-90853300D01*
%TO.N,MTR_CF*%
D39*
X160904000Y-101557500D02*
X163412300Y-104065800D01*
X163412300Y-104065800D02*
X163412300Y-104263800D01*
X161242400Y-126879000D02*
X161242400Y-123285000D01*
X177937200Y-115311800D02*
X178147300Y-115521900D01*
X137557000Y-139451800D02*
X146118800Y-130890000D01*
X165846700Y-105011700D02*
X176146800Y-115311800D01*
X178147300Y-115521900D02*
X178147300Y-122790100D01*
X146118800Y-130890000D02*
X157231400Y-130890000D01*
X164160200Y-105011700D02*
X165846700Y-105011700D01*
X177652400Y-123285000D02*
X161242400Y-123285000D01*
X178147300Y-122790100D02*
X177652400Y-123285000D01*
X157231400Y-130890000D02*
X161242400Y-126879000D01*
X176146800Y-115311800D02*
X177937200Y-115311800D01*
X163412300Y-104263800D02*
X164160200Y-105011700D01*
%TO.N,MTR_CF1*%
X166969800Y-102371700D02*
X167351500Y-101990000D01*
X156542800Y-129085000D02*
X158109700Y-129085000D01*
X163144400Y-102465000D02*
X163237700Y-102371700D01*
X146643200Y-129085000D02*
X136219600Y-139508600D01*
X156542800Y-129085000D02*
X156542800Y-121622000D01*
X163237700Y-102371700D02*
X166969800Y-102371700D01*
X156542800Y-129085000D02*
X146643200Y-129085000D01*
%TO.N,MTR_SEL*%
X157735400Y-143727000D02*
X133525900Y-143727000D01*
X133525900Y-143727000D02*
X131961700Y-145291200D01*
%TO.N,+3V3*%
D38*
X169696500Y-101470000D02*
X169176500Y-101990000D01*
X173662600Y-109476000D02*
X170812900Y-106626300D01*
X160064000Y-103382500D02*
X158488600Y-101807100D01*
X170812900Y-103626400D02*
X169176500Y-101990000D01*
X160717400Y-90400000D02*
X159592400Y-89275000D01*
X158488600Y-101807100D02*
X157914000Y-101232500D01*
X176784000Y-107997200D02*
X175305200Y-109476000D01*
X175614000Y-95190000D02*
X175657800Y-95233800D01*
X157914000Y-101232500D02*
X158188400Y-101232500D01*
X170812900Y-106626300D02*
X170812900Y-103626400D01*
X159336600Y-96977600D02*
X158929000Y-96570000D01*
X175657800Y-101470000D02*
X169696500Y-101470000D01*
X175657800Y-101470000D02*
X175657800Y-98375000D01*
X153979000Y-89275000D02*
X155442000Y-87812000D01*
X158188400Y-101232500D02*
X159336600Y-100084300D01*
X176784000Y-107770000D02*
X176784000Y-107997200D01*
X160904000Y-103382500D02*
X160064000Y-103382500D01*
X159592400Y-89275000D02*
X158469000Y-89275000D01*
X158469000Y-89018500D02*
X158469000Y-89275000D01*
X175657800Y-95233800D02*
X175657800Y-98375000D01*
X157262500Y-87812000D02*
X158469000Y-89018500D01*
X176784000Y-101470000D02*
X175657800Y-101470000D01*
X157750700Y-102545000D02*
X158488600Y-101807100D01*
X175305200Y-109476000D02*
X173662600Y-109476000D01*
X155442000Y-87812000D02*
X157262500Y-87812000D01*
X159336600Y-100084300D02*
X159336600Y-96977600D01*
%TO.N,UART_RX*%
D39*
X178584600Y-127788900D02*
X178287500Y-127788900D01*
X179113000Y-127260500D02*
X178584600Y-127788900D01*
X182103900Y-126449600D02*
X181293000Y-127260500D01*
X175688900Y-111855100D02*
X183708800Y-119875000D01*
X175112400Y-111855100D02*
X175688900Y-111855100D01*
X181293000Y-127260500D02*
X179113000Y-127260500D01*
%TO.N,AC_N*%
D37*
X112005000Y-99295000D02*
X119650700Y-99295000D01*
X119650700Y-99295000D02*
X138239000Y-117883300D01*
X138239000Y-121485000D02*
X138239000Y-117883300D01*
%TO.N,EN*%
D39*
X158109800Y-125449000D02*
X158230200Y-125328600D01*
X156737400Y-120930300D02*
X156737400Y-100584100D01*
X158230200Y-125328600D02*
X158230200Y-122423100D01*
X156737400Y-100584100D02*
X157914000Y-99407500D01*
X158230200Y-122423100D02*
X156737400Y-120930300D01*
%TO.N,RELAY_PIN*%
X178547100Y-127162200D02*
X178028000Y-127162200D01*
X180046500Y-95160000D02*
X180046500Y-98211000D01*
X162734400Y-133609600D02*
X161084000Y-135260000D01*
X180046500Y-98211000D02*
X184572900Y-102737400D01*
X177660800Y-127529400D02*
X177660800Y-128076000D01*
X178572400Y-127162300D02*
X178547200Y-127162300D01*
X184572900Y-102737400D02*
X184572900Y-121161800D01*
X184572900Y-121161800D02*
X178572400Y-127162300D01*
X172127200Y-133609600D02*
X162734400Y-133609600D01*
X177660800Y-128076000D02*
X172127200Y-133609600D01*
X178028000Y-127162200D02*
X177660800Y-127529400D01*
%TO.N,LED_PIN*%
X177381300Y-95849200D02*
X178250100Y-96718000D01*
X178250100Y-96718000D02*
X178477900Y-96718000D01*
X177381300Y-95210000D02*
X177381300Y-95849200D01*
X161719000Y-98932500D02*
X164856400Y-95795100D01*
X172636000Y-94667500D02*
X172636000Y-94560100D01*
X173200200Y-93995900D02*
X176167200Y-93995900D01*
X164856400Y-95795100D02*
X171508400Y-95795100D01*
X171508400Y-95795100D02*
X172636000Y-94667500D01*
X176167200Y-93995900D02*
X177381300Y-95210000D01*
X172636000Y-94560100D02*
X173200200Y-93995900D01*
%TO.N,RELAY_PIN_OPT*%
X178221500Y-95160000D02*
X175883900Y-92822400D01*
X175883800Y-91129800D02*
X174569000Y-89815000D01*
X175883900Y-92822400D02*
X175883900Y-91129800D01*
%TO.N,RELAY_PIN_DRV*%
X168527800Y-88467400D02*
X165020900Y-91974300D01*
X158293300Y-91974300D02*
X154196500Y-96071100D01*
X179029000Y-92355000D02*
X175141400Y-88467400D01*
X182189000Y-92355000D02*
X179029000Y-92355000D01*
X165020900Y-91974300D02*
X158293300Y-91974300D01*
X175141400Y-88467400D02*
X168527800Y-88467400D01*
X154196500Y-96071100D02*
X154196500Y-96340000D01*
%TO.N,LED_PIN_A*%
X159974100Y-95362600D02*
X161719000Y-97107500D01*
X152479000Y-102095000D02*
X153805700Y-100768300D01*
X154589700Y-100768300D02*
X157979000Y-97379000D01*
X153805700Y-100768300D02*
X154589700Y-100768300D01*
X157979000Y-97379000D02*
X157979000Y-95806500D01*
X157979000Y-95806500D02*
X158422900Y-95362600D01*
X158422900Y-95362600D02*
X159974100Y-95362600D01*
%TD*%
%TA.AperFunction,Conductor*%
%TO.N,GND*%
G36*
X187316943Y-81019685D02*
G01*
X187326377Y-81026389D01*
X187451573Y-81124474D01*
X187462781Y-81134404D01*
X187665596Y-81337219D01*
X187675525Y-81348426D01*
X187773611Y-81473623D01*
X187799460Y-81538532D01*
X187800000Y-81550094D01*
X187800000Y-168249903D01*
X187780315Y-168316942D01*
X187773611Y-168326376D01*
X187675525Y-168451573D01*
X187665595Y-168462781D01*
X187462781Y-168665595D01*
X187451574Y-168675524D01*
X187326378Y-168773610D01*
X187261466Y-168799460D01*
X187249904Y-168800000D01*
X150158000Y-168800000D01*
X150090961Y-168780315D01*
X150045206Y-168727511D01*
X150034000Y-168676000D01*
X150034000Y-165681995D01*
X182998200Y-165681995D01*
X182998200Y-165918004D01*
X182998201Y-165918020D01*
X183029006Y-166152010D01*
X183090094Y-166379993D01*
X183180414Y-166598045D01*
X183180419Y-166598056D01*
X183251377Y-166720957D01*
X183298427Y-166802450D01*
X183298429Y-166802453D01*
X183298430Y-166802454D01*
X183442106Y-166989697D01*
X183442112Y-166989704D01*
X183608995Y-167156587D01*
X183609001Y-167156592D01*
X183796250Y-167300273D01*
X183927618Y-167376118D01*
X184000643Y-167418280D01*
X184000648Y-167418282D01*
X184000651Y-167418284D01*
X184218707Y-167508606D01*
X184446686Y-167569693D01*
X184680689Y-167600500D01*
X184680696Y-167600500D01*
X184916704Y-167600500D01*
X184916711Y-167600500D01*
X185150714Y-167569693D01*
X185378693Y-167508606D01*
X185596749Y-167418284D01*
X185801150Y-167300273D01*
X185988399Y-167156592D01*
X186155292Y-166989699D01*
X186298973Y-166802450D01*
X186416984Y-166598049D01*
X186507306Y-166379993D01*
X186568393Y-166152014D01*
X186599200Y-165918011D01*
X186599200Y-165681989D01*
X186568393Y-165447986D01*
X186507306Y-165220007D01*
X186416984Y-165001951D01*
X186416982Y-165001948D01*
X186416980Y-165001943D01*
X186374818Y-164928918D01*
X186298973Y-164797550D01*
X186155292Y-164610301D01*
X186155287Y-164610295D01*
X185988404Y-164443412D01*
X185988397Y-164443406D01*
X185801154Y-164299730D01*
X185801153Y-164299729D01*
X185801150Y-164299727D01*
X185719657Y-164252677D01*
X185596756Y-164181719D01*
X185596745Y-164181714D01*
X185378693Y-164091394D01*
X185150710Y-164030306D01*
X184916720Y-163999501D01*
X184916717Y-163999500D01*
X184916711Y-163999500D01*
X184680689Y-163999500D01*
X184680683Y-163999500D01*
X184680679Y-163999501D01*
X184446689Y-164030306D01*
X184218706Y-164091394D01*
X184000654Y-164181714D01*
X184000643Y-164181719D01*
X183796245Y-164299730D01*
X183609002Y-164443406D01*
X183608995Y-164443412D01*
X183442112Y-164610295D01*
X183442106Y-164610302D01*
X183298430Y-164797545D01*
X183180419Y-165001943D01*
X183180414Y-165001954D01*
X183090094Y-165220006D01*
X183029006Y-165447989D01*
X182998201Y-165681979D01*
X182998200Y-165681995D01*
X150034000Y-165681995D01*
X150034000Y-144476500D01*
X150053685Y-144409461D01*
X150106489Y-144363706D01*
X150158000Y-144352500D01*
X157193050Y-144352500D01*
X157260089Y-144372185D01*
X157261941Y-144373398D01*
X157356221Y-144436394D01*
X157356223Y-144436395D01*
X157356227Y-144436397D01*
X157453046Y-144476500D01*
X157501903Y-144496737D01*
X157656553Y-144527499D01*
X157656556Y-144527500D01*
X157656558Y-144527500D01*
X157814244Y-144527500D01*
X157814245Y-144527499D01*
X157968897Y-144496737D01*
X158114579Y-144436394D01*
X158245689Y-144348789D01*
X158357189Y-144237289D01*
X158444794Y-144106179D01*
X158505137Y-143960497D01*
X158535900Y-143805842D01*
X158535900Y-143648158D01*
X158535900Y-143648155D01*
X158535899Y-143648153D01*
X158505137Y-143493503D01*
X158479129Y-143430714D01*
X158444797Y-143347827D01*
X158444790Y-143347814D01*
X158357189Y-143216711D01*
X158357186Y-143216707D01*
X158245692Y-143105213D01*
X158245688Y-143105210D01*
X158114585Y-143017609D01*
X158114572Y-143017602D01*
X157968901Y-142957264D01*
X157968889Y-142957261D01*
X157814245Y-142926500D01*
X157814242Y-142926500D01*
X157656558Y-142926500D01*
X157656555Y-142926500D01*
X157501910Y-142957261D01*
X157501898Y-142957264D01*
X157356227Y-143017602D01*
X157356215Y-143017609D01*
X157261941Y-143080602D01*
X157195264Y-143101480D01*
X157193050Y-143101500D01*
X150158000Y-143101500D01*
X150090961Y-143081815D01*
X150045206Y-143029011D01*
X150034000Y-142977500D01*
X150034000Y-131639500D01*
X150053685Y-131572461D01*
X150106489Y-131526706D01*
X150158000Y-131515500D01*
X157293007Y-131515500D01*
X157353429Y-131503481D01*
X157413852Y-131491463D01*
X157413855Y-131491461D01*
X157413858Y-131491461D01*
X157447187Y-131477654D01*
X157447186Y-131477654D01*
X157447192Y-131477652D01*
X157527686Y-131444312D01*
X157578909Y-131410084D01*
X157630133Y-131375858D01*
X157717258Y-131288733D01*
X157717258Y-131288731D01*
X157727466Y-131278524D01*
X157727467Y-131278521D01*
X161728258Y-127277733D01*
X161796712Y-127175285D01*
X161827854Y-127100100D01*
X161843863Y-127061452D01*
X161852275Y-127019163D01*
X161864065Y-126959892D01*
X161867901Y-126940608D01*
X161867901Y-126812283D01*
X161867900Y-126812257D01*
X161867900Y-124034500D01*
X161887585Y-123967461D01*
X161940389Y-123921706D01*
X161991900Y-123910500D01*
X177714007Y-123910500D01*
X177774429Y-123898481D01*
X177834852Y-123886463D01*
X177834855Y-123886461D01*
X177834858Y-123886461D01*
X177868187Y-123872654D01*
X177868186Y-123872654D01*
X177868192Y-123872652D01*
X177948686Y-123839312D01*
X178014569Y-123795289D01*
X178051133Y-123770858D01*
X178138258Y-123683733D01*
X178138259Y-123683731D01*
X178145325Y-123676665D01*
X178145328Y-123676661D01*
X178546029Y-123275960D01*
X178546033Y-123275958D01*
X178633158Y-123188833D01*
X178701611Y-123086386D01*
X178748763Y-122972552D01*
X178765926Y-122886267D01*
X178772800Y-122851707D01*
X178772800Y-122728494D01*
X178772800Y-116122952D01*
X178792485Y-116055913D01*
X178845289Y-116010158D01*
X178914447Y-116000214D01*
X178978003Y-116029239D01*
X178984481Y-116035271D01*
X182883005Y-119933796D01*
X182916490Y-119995119D01*
X182916941Y-119997286D01*
X182939061Y-120108489D01*
X182939064Y-120108501D01*
X182999402Y-120254172D01*
X182999409Y-120254185D01*
X183087010Y-120385288D01*
X183087013Y-120385292D01*
X183198507Y-120496786D01*
X183198511Y-120496789D01*
X183329614Y-120584390D01*
X183329627Y-120584397D01*
X183415215Y-120619848D01*
X183475303Y-120644737D01*
X183608391Y-120671210D01*
X183629953Y-120675499D01*
X183629956Y-120675500D01*
X183629958Y-120675500D01*
X183787643Y-120675500D01*
X183791767Y-120674679D01*
X183799204Y-120673200D01*
X183868795Y-120679424D01*
X183923974Y-120722284D01*
X183947222Y-120788173D01*
X183947400Y-120794816D01*
X183947400Y-120851347D01*
X183927715Y-120918386D01*
X183911081Y-120939028D01*
X178349729Y-126500381D01*
X178288406Y-126533866D01*
X178262048Y-126536700D01*
X177966389Y-126536700D01*
X177905971Y-126548718D01*
X177862743Y-126557316D01*
X177845546Y-126560737D01*
X177731716Y-126607887D01*
X177731707Y-126607892D01*
X177629268Y-126676340D01*
X177585705Y-126719903D01*
X177542142Y-126763467D01*
X177174944Y-127130664D01*
X177174938Y-127130672D01*
X177106492Y-127233105D01*
X177106484Y-127233119D01*
X177073147Y-127313606D01*
X177073147Y-127313607D01*
X177059337Y-127346948D01*
X177059335Y-127346954D01*
X177047317Y-127407373D01*
X177037134Y-127458576D01*
X177037132Y-127458588D01*
X177035300Y-127467795D01*
X177035300Y-127765548D01*
X177015615Y-127832587D01*
X176998981Y-127853229D01*
X171904429Y-132947781D01*
X171843106Y-132981266D01*
X171816748Y-132984100D01*
X162672789Y-132984100D01*
X162612371Y-132996118D01*
X162574659Y-133003619D01*
X162551950Y-133008136D01*
X162551948Y-133008137D01*
X162518607Y-133021947D01*
X162438119Y-133055284D01*
X162438105Y-133055292D01*
X162335672Y-133123738D01*
X162335664Y-133123744D01*
X162248539Y-133210870D01*
X161025203Y-134434205D01*
X160963880Y-134467690D01*
X160961714Y-134468141D01*
X160850508Y-134490261D01*
X160850498Y-134490264D01*
X160704827Y-134550602D01*
X160704814Y-134550609D01*
X160573711Y-134638210D01*
X160573707Y-134638213D01*
X160462213Y-134749707D01*
X160462210Y-134749711D01*
X160374609Y-134880814D01*
X160374602Y-134880827D01*
X160314264Y-135026498D01*
X160314261Y-135026510D01*
X160283500Y-135181153D01*
X160283500Y-135338846D01*
X160314261Y-135493489D01*
X160314264Y-135493501D01*
X160374602Y-135639172D01*
X160374609Y-135639185D01*
X160462210Y-135770288D01*
X160462213Y-135770292D01*
X160573707Y-135881786D01*
X160573711Y-135881789D01*
X160704814Y-135969390D01*
X160704827Y-135969397D01*
X160850498Y-136029735D01*
X160850503Y-136029737D01*
X161005153Y-136060499D01*
X161005156Y-136060500D01*
X161005158Y-136060500D01*
X161162844Y-136060500D01*
X161162845Y-136060499D01*
X161317497Y-136029737D01*
X161463179Y-135969394D01*
X161594289Y-135881789D01*
X161705789Y-135770289D01*
X161793394Y-135639179D01*
X161853737Y-135493497D01*
X161875858Y-135382282D01*
X161908240Y-135320375D01*
X161909734Y-135318854D01*
X162957171Y-134271419D01*
X163018494Y-134237934D01*
X163044852Y-134235100D01*
X172188807Y-134235100D01*
X172249229Y-134223081D01*
X172309652Y-134211063D01*
X172309655Y-134211061D01*
X172309658Y-134211061D01*
X172342987Y-134197254D01*
X172342986Y-134197254D01*
X172342992Y-134197252D01*
X172423486Y-134163912D01*
X172474709Y-134129684D01*
X172525933Y-134095458D01*
X172613058Y-134008333D01*
X172613059Y-134008331D01*
X172620125Y-134001265D01*
X172620128Y-134001261D01*
X178014436Y-128606952D01*
X178075757Y-128573469D01*
X178126303Y-128573018D01*
X178208658Y-128589400D01*
X178366344Y-128589400D01*
X178366345Y-128589399D01*
X178520997Y-128558637D01*
X178666679Y-128498294D01*
X178797789Y-128410689D01*
X178836777Y-128371699D01*
X178877012Y-128344817D01*
X178878553Y-128344178D01*
X178880886Y-128343212D01*
X178946769Y-128299189D01*
X178983333Y-128274758D01*
X179070458Y-128187633D01*
X179070458Y-128187631D01*
X179080666Y-128177424D01*
X179080666Y-128177422D01*
X179335773Y-127922318D01*
X179397097Y-127888834D01*
X179423454Y-127886000D01*
X181354608Y-127886000D01*
X181354608Y-127885999D01*
X181446398Y-127867742D01*
X181446399Y-127867742D01*
X181475442Y-127861965D01*
X181475442Y-127861964D01*
X181475452Y-127861963D01*
X181508792Y-127848152D01*
X181589286Y-127814812D01*
X181641811Y-127779715D01*
X181691733Y-127746358D01*
X181778858Y-127659233D01*
X181778859Y-127659231D01*
X181785925Y-127652165D01*
X181785928Y-127652161D01*
X182162697Y-127275391D01*
X182224018Y-127241908D01*
X182226028Y-127241489D01*
X182337397Y-127219337D01*
X182483079Y-127158994D01*
X182614189Y-127071389D01*
X182725689Y-126959889D01*
X182813294Y-126828779D01*
X182873637Y-126683097D01*
X182904400Y-126528442D01*
X182904400Y-126370758D01*
X182904400Y-126370755D01*
X182904399Y-126370753D01*
X182874161Y-126218737D01*
X182873637Y-126216103D01*
X182849735Y-126158397D01*
X182813297Y-126070427D01*
X182813290Y-126070414D01*
X182725689Y-125939311D01*
X182725686Y-125939307D01*
X182614192Y-125827813D01*
X182614188Y-125827810D01*
X182483085Y-125740209D01*
X182483072Y-125740202D01*
X182337401Y-125679864D01*
X182337389Y-125679861D01*
X182182745Y-125649100D01*
X182182742Y-125649100D01*
X182025058Y-125649100D01*
X182025055Y-125649100D01*
X181870410Y-125679861D01*
X181870398Y-125679864D01*
X181724727Y-125740202D01*
X181724714Y-125740209D01*
X181593611Y-125827810D01*
X181593607Y-125827813D01*
X181482113Y-125939307D01*
X181482110Y-125939311D01*
X181394509Y-126070414D01*
X181394502Y-126070427D01*
X181334164Y-126216098D01*
X181334161Y-126216108D01*
X181312041Y-126327314D01*
X181279656Y-126389225D01*
X181278106Y-126390803D01*
X181070227Y-126598682D01*
X181008907Y-126632166D01*
X180982548Y-126635000D01*
X180283652Y-126635000D01*
X180216613Y-126615315D01*
X180170858Y-126562511D01*
X180160914Y-126493353D01*
X180189939Y-126429797D01*
X180195971Y-126423319D01*
X181848631Y-124770659D01*
X185058757Y-121560534D01*
X185058759Y-121560530D01*
X185058761Y-121560529D01*
X185060508Y-121557916D01*
X185127207Y-121458092D01*
X185127207Y-121458091D01*
X185127211Y-121458086D01*
X185174363Y-121344252D01*
X185182931Y-121301175D01*
X185194539Y-121242820D01*
X185194539Y-121242815D01*
X185198400Y-121223407D01*
X185198400Y-121100194D01*
X185198400Y-102675794D01*
X185192762Y-102647451D01*
X185177456Y-102570499D01*
X185174363Y-102554948D01*
X185133000Y-102455090D01*
X185127214Y-102441120D01*
X185127207Y-102441107D01*
X185058758Y-102338667D01*
X185058755Y-102338663D01*
X184968537Y-102248445D01*
X184968506Y-102248416D01*
X180708319Y-97988229D01*
X180674834Y-97926906D01*
X180672000Y-97900548D01*
X180672000Y-96337087D01*
X180691685Y-96270048D01*
X180730902Y-96231548D01*
X180777656Y-96202712D01*
X180901712Y-96078656D01*
X180993814Y-95929334D01*
X181048999Y-95762797D01*
X181059500Y-95660009D01*
X181059499Y-94659992D01*
X181056406Y-94629718D01*
X181048999Y-94557203D01*
X181048998Y-94557200D01*
X181032460Y-94507292D01*
X180993814Y-94390666D01*
X180901712Y-94241344D01*
X180777656Y-94117288D01*
X180628334Y-94025186D01*
X180461797Y-93970001D01*
X180461795Y-93970000D01*
X180359010Y-93959500D01*
X179733998Y-93959500D01*
X179733980Y-93959501D01*
X179631203Y-93970000D01*
X179631200Y-93970001D01*
X179464668Y-94025185D01*
X179464663Y-94025187D01*
X179315342Y-94117289D01*
X179221681Y-94210951D01*
X179160358Y-94244436D01*
X179090666Y-94239452D01*
X179046319Y-94210951D01*
X178952657Y-94117289D01*
X178952656Y-94117288D01*
X178803334Y-94025186D01*
X178636797Y-93970001D01*
X178636795Y-93970000D01*
X178534016Y-93959500D01*
X177956952Y-93959500D01*
X177889913Y-93939815D01*
X177869271Y-93923181D01*
X176545719Y-92599628D01*
X176512234Y-92538305D01*
X176509400Y-92511947D01*
X176509400Y-91068193D01*
X176509399Y-91068192D01*
X176502688Y-91034449D01*
X176508915Y-90964858D01*
X176551778Y-90909681D01*
X176617667Y-90886436D01*
X176685664Y-90902504D01*
X176711986Y-90922577D01*
X178630263Y-92840855D01*
X178630267Y-92840858D01*
X178732710Y-92909309D01*
X178732711Y-92909309D01*
X178732715Y-92909312D01*
X178799396Y-92936931D01*
X178799398Y-92936933D01*
X178846543Y-92956461D01*
X178846548Y-92956463D01*
X178866597Y-92960451D01*
X178900196Y-92967134D01*
X178967392Y-92980501D01*
X178967394Y-92980501D01*
X179096721Y-92980501D01*
X179096741Y-92980500D01*
X180972885Y-92980500D01*
X181039924Y-93000185D01*
X181072606Y-93033571D01*
X181073849Y-93032669D01*
X181197028Y-93202213D01*
X181341786Y-93346971D01*
X181496749Y-93459556D01*
X181507390Y-93467287D01*
X181599450Y-93514194D01*
X181689776Y-93560218D01*
X181689778Y-93560218D01*
X181689781Y-93560220D01*
X181737516Y-93575730D01*
X181884465Y-93623477D01*
X181985557Y-93639488D01*
X182086648Y-93655500D01*
X182086649Y-93655500D01*
X182291351Y-93655500D01*
X182291352Y-93655500D01*
X182493534Y-93623477D01*
X182640484Y-93575729D01*
X182710322Y-93573735D01*
X182770155Y-93609815D01*
X182800984Y-93672515D01*
X182802800Y-93693661D01*
X182802800Y-94629718D01*
X182783115Y-94696757D01*
X182730311Y-94742512D01*
X182698200Y-94752191D01*
X182624216Y-94763909D01*
X182384618Y-94841760D01*
X182160151Y-94956132D01*
X181956350Y-95104201D01*
X181956345Y-95104205D01*
X181778205Y-95282345D01*
X181778201Y-95282350D01*
X181630132Y-95486151D01*
X181515760Y-95710616D01*
X181437910Y-95950214D01*
X181437910Y-95950215D01*
X181398500Y-96199038D01*
X181398500Y-96450962D01*
X181404604Y-96489500D01*
X181437910Y-96699785D01*
X181515760Y-96939383D01*
X181584508Y-97074306D01*
X181603004Y-97110608D01*
X181630132Y-97163848D01*
X181778201Y-97367649D01*
X181778205Y-97367654D01*
X181956345Y-97545794D01*
X181956350Y-97545798D01*
X182102599Y-97652053D01*
X182160155Y-97693870D01*
X182284296Y-97757123D01*
X182384616Y-97808239D01*
X182384618Y-97808239D01*
X182384621Y-97808241D01*
X182624215Y-97886090D01*
X182873038Y-97925500D01*
X182873039Y-97925500D01*
X183124961Y-97925500D01*
X183124962Y-97925500D01*
X183373785Y-97886090D01*
X183613379Y-97808241D01*
X183837845Y-97693870D01*
X184041656Y-97545793D01*
X184219793Y-97367656D01*
X184367870Y-97163845D01*
X184482241Y-96939379D01*
X184560090Y-96699785D01*
X184599500Y-96450962D01*
X184599500Y-96199038D01*
X184560090Y-95950215D01*
X184482241Y-95710621D01*
X184482239Y-95710618D01*
X184482239Y-95710616D01*
X184438130Y-95624048D01*
X184367870Y-95486155D01*
X184315374Y-95413900D01*
X184219798Y-95282350D01*
X184219794Y-95282345D01*
X184090119Y-95152670D01*
X184056634Y-95091347D01*
X184053800Y-95064989D01*
X184053800Y-88650498D01*
X184053799Y-88650489D01*
X184053669Y-88649836D01*
X184053662Y-88649797D01*
X184029764Y-88529655D01*
X184029763Y-88529648D01*
X183982611Y-88415814D01*
X183955006Y-88374500D01*
X183929584Y-88336453D01*
X183914159Y-88313368D01*
X183888790Y-88287999D01*
X183827033Y-88226242D01*
X183827032Y-88226241D01*
X180628427Y-85027637D01*
X180628425Y-85027634D01*
X180628425Y-85027635D01*
X180621358Y-85020568D01*
X180621358Y-85020567D01*
X180534233Y-84933442D01*
X180534232Y-84933441D01*
X180534231Y-84933440D01*
X180483009Y-84899215D01*
X180431787Y-84864989D01*
X180431786Y-84864988D01*
X180431783Y-84864986D01*
X180431780Y-84864985D01*
X180351292Y-84831647D01*
X180317953Y-84817837D01*
X180307927Y-84815843D01*
X180257529Y-84805818D01*
X180197110Y-84793800D01*
X180197107Y-84793800D01*
X180197106Y-84793800D01*
X150158000Y-84793800D01*
X150090961Y-84774115D01*
X150045206Y-84721311D01*
X150034000Y-84669800D01*
X150034000Y-81124000D01*
X150053685Y-81056961D01*
X150106489Y-81011206D01*
X150158000Y-81000000D01*
X187249904Y-81000000D01*
X187316943Y-81019685D01*
G37*
%TD.AperFunction*%
%TA.AperFunction,Conductor*%
G36*
X162245071Y-103792208D02*
G01*
X162277394Y-103815484D01*
X162760073Y-104298163D01*
X162793558Y-104359486D01*
X162794009Y-104361653D01*
X162810835Y-104446244D01*
X162810840Y-104446261D01*
X162857985Y-104560080D01*
X162857987Y-104560083D01*
X162857988Y-104560086D01*
X162877078Y-104588656D01*
X162892214Y-104611307D01*
X162892215Y-104611309D01*
X162926441Y-104662533D01*
X163017886Y-104753978D01*
X163017908Y-104753998D01*
X163440309Y-105176399D01*
X163473794Y-105237722D01*
X163468810Y-105307414D01*
X163426938Y-105363347D01*
X163365231Y-105387438D01*
X163291202Y-105395001D01*
X163291200Y-105395001D01*
X163124668Y-105450185D01*
X163124663Y-105450187D01*
X162975342Y-105542289D01*
X162851289Y-105666342D01*
X162759187Y-105815663D01*
X162759185Y-105815668D01*
X162732710Y-105895564D01*
X162704001Y-105982203D01*
X162704001Y-105982204D01*
X162704000Y-105982204D01*
X162693500Y-106084983D01*
X162693500Y-106710001D01*
X162693501Y-106710019D01*
X162704000Y-106812796D01*
X162704001Y-106812799D01*
X162748259Y-106946358D01*
X162759186Y-106979334D01*
X162814417Y-107068879D01*
X162851289Y-107128657D01*
X162944951Y-107222319D01*
X162978436Y-107283642D01*
X162973452Y-107353334D01*
X162944951Y-107397681D01*
X162851289Y-107491342D01*
X162759187Y-107640663D01*
X162759185Y-107640668D01*
X162754656Y-107654337D01*
X162704001Y-107807203D01*
X162704001Y-107807204D01*
X162704000Y-107807204D01*
X162693500Y-107909983D01*
X162693500Y-108535001D01*
X162693501Y-108535019D01*
X162704000Y-108637796D01*
X162704001Y-108637799D01*
X162759185Y-108804331D01*
X162759187Y-108804336D01*
X162778100Y-108834999D01*
X162851288Y-108953656D01*
X162975344Y-109077712D01*
X163124666Y-109169814D01*
X163291203Y-109224999D01*
X163393991Y-109235500D01*
X164394008Y-109235499D01*
X164394016Y-109235498D01*
X164394019Y-109235498D01*
X164450302Y-109229748D01*
X164496797Y-109224999D01*
X164663334Y-109169814D01*
X164812656Y-109077712D01*
X164936712Y-108953656D01*
X165028814Y-108804334D01*
X165083999Y-108637797D01*
X165094500Y-108535009D01*
X165094499Y-107909992D01*
X165092865Y-107894000D01*
X165083999Y-107807203D01*
X165083998Y-107807200D01*
X165033342Y-107654332D01*
X165028814Y-107640666D01*
X164936712Y-107491344D01*
X164843049Y-107397681D01*
X164809564Y-107336358D01*
X164814548Y-107266666D01*
X164843049Y-107222319D01*
X164865032Y-107200336D01*
X164936712Y-107128656D01*
X165028814Y-106979334D01*
X165083999Y-106812797D01*
X165094500Y-106710009D01*
X165094499Y-106084992D01*
X165093631Y-106076498D01*
X165083999Y-105982203D01*
X165083998Y-105982200D01*
X165056314Y-105898656D01*
X165028814Y-105815666D01*
X165028813Y-105815664D01*
X165027850Y-105813599D01*
X165027614Y-105812047D01*
X165026542Y-105808811D01*
X165027095Y-105808627D01*
X165017362Y-105744521D01*
X165045885Y-105680739D01*
X165104363Y-105642502D01*
X165140235Y-105637200D01*
X165536248Y-105637200D01*
X165603287Y-105656885D01*
X165623929Y-105673519D01*
X175657816Y-115707406D01*
X175657845Y-115707437D01*
X175748063Y-115797655D01*
X175748066Y-115797657D01*
X175748067Y-115797658D01*
X175778785Y-115818183D01*
X175778787Y-115818185D01*
X175778788Y-115818185D01*
X175850514Y-115866112D01*
X175931007Y-115899452D01*
X175964348Y-115913263D01*
X175977429Y-115915865D01*
X176001359Y-115920625D01*
X176001379Y-115920628D01*
X176001401Y-115920633D01*
X176085191Y-115937299D01*
X176085192Y-115937300D01*
X176085193Y-115937300D01*
X176085194Y-115937300D01*
X177397800Y-115937300D01*
X177464839Y-115956985D01*
X177510594Y-116009789D01*
X177521800Y-116061300D01*
X177521800Y-122479648D01*
X177502115Y-122546687D01*
X177485481Y-122567329D01*
X177429629Y-122623181D01*
X177368306Y-122656666D01*
X177341948Y-122659500D01*
X161784750Y-122659500D01*
X161717711Y-122639815D01*
X161715859Y-122638602D01*
X161621584Y-122575609D01*
X161621572Y-122575602D01*
X161475901Y-122515264D01*
X161475889Y-122515261D01*
X161321245Y-122484500D01*
X161321242Y-122484500D01*
X161163558Y-122484500D01*
X161163555Y-122484500D01*
X161008910Y-122515261D01*
X161008898Y-122515264D01*
X160863227Y-122575602D01*
X160863214Y-122575609D01*
X160732111Y-122663210D01*
X160732107Y-122663213D01*
X160620613Y-122774707D01*
X160620610Y-122774711D01*
X160533009Y-122905814D01*
X160533002Y-122905827D01*
X160472664Y-123051498D01*
X160472661Y-123051510D01*
X160441900Y-123206153D01*
X160441900Y-123363846D01*
X160472661Y-123518489D01*
X160472664Y-123518501D01*
X160533002Y-123664172D01*
X160533009Y-123664184D01*
X160596002Y-123758459D01*
X160616880Y-123825136D01*
X160616900Y-123827350D01*
X160616900Y-126568546D01*
X160597215Y-126635585D01*
X160580581Y-126656227D01*
X158783827Y-128452980D01*
X158722504Y-128486465D01*
X158652812Y-128481481D01*
X158625577Y-128465812D01*
X158625054Y-128466595D01*
X158488885Y-128375609D01*
X158488872Y-128375602D01*
X158343201Y-128315264D01*
X158343189Y-128315261D01*
X158188545Y-128284500D01*
X158188542Y-128284500D01*
X158030858Y-128284500D01*
X158030855Y-128284500D01*
X157876210Y-128315261D01*
X157876198Y-128315264D01*
X157730527Y-128375602D01*
X157730515Y-128375609D01*
X157636241Y-128438602D01*
X157569564Y-128459480D01*
X157567350Y-128459500D01*
X157292300Y-128459500D01*
X157225261Y-128439815D01*
X157179506Y-128387011D01*
X157168300Y-128335500D01*
X157168300Y-125888975D01*
X157187985Y-125821936D01*
X157240789Y-125776181D01*
X157309947Y-125766237D01*
X157373503Y-125795262D01*
X157396185Y-125823672D01*
X157397021Y-125823114D01*
X157488010Y-125959288D01*
X157488013Y-125959292D01*
X157599507Y-126070786D01*
X157599511Y-126070789D01*
X157730614Y-126158390D01*
X157730627Y-126158397D01*
X157869932Y-126216098D01*
X157876303Y-126218737D01*
X158030953Y-126249499D01*
X158030956Y-126249500D01*
X158030958Y-126249500D01*
X158188644Y-126249500D01*
X158188645Y-126249499D01*
X158343297Y-126218737D01*
X158488979Y-126158394D01*
X158620089Y-126070789D01*
X158731589Y-125959289D01*
X158819194Y-125828179D01*
X158819347Y-125827811D01*
X158879535Y-125682501D01*
X158879537Y-125682497D01*
X158910300Y-125527842D01*
X158910300Y-125370158D01*
X158910300Y-125370155D01*
X158910299Y-125370153D01*
X158879538Y-125215505D01*
X158879536Y-125215501D01*
X158865139Y-125180742D01*
X158855700Y-125133289D01*
X158855700Y-122361493D01*
X158855699Y-122361489D01*
X158831663Y-122240648D01*
X158800163Y-122164600D01*
X158784512Y-122126814D01*
X158750284Y-122075590D01*
X158716058Y-122024367D01*
X158716056Y-122024364D01*
X158625837Y-121934145D01*
X158625806Y-121934116D01*
X157399219Y-120707529D01*
X157365734Y-120646206D01*
X157362900Y-120619848D01*
X157362900Y-106819499D01*
X157382585Y-106752460D01*
X157435389Y-106706705D01*
X157486895Y-106695499D01*
X158414008Y-106695499D01*
X158414016Y-106695498D01*
X158414019Y-106695498D01*
X158470302Y-106689748D01*
X158516797Y-106684999D01*
X158683334Y-106629814D01*
X158832656Y-106537712D01*
X158956712Y-106413656D01*
X159048814Y-106264334D01*
X159103999Y-106097797D01*
X159114500Y-105995009D01*
X159114499Y-105694983D01*
X159703500Y-105694983D01*
X159703500Y-106320001D01*
X159703501Y-106320019D01*
X159714000Y-106422796D01*
X159714001Y-106422799D01*
X159752079Y-106537710D01*
X159769186Y-106589334D01*
X159846694Y-106714996D01*
X159861289Y-106738657D01*
X159954951Y-106832319D01*
X159988436Y-106893642D01*
X159983452Y-106963334D01*
X159954951Y-107007681D01*
X159861289Y-107101342D01*
X159769187Y-107250663D01*
X159769186Y-107250666D01*
X159714001Y-107417203D01*
X159714001Y-107417204D01*
X159714000Y-107417204D01*
X159703500Y-107519983D01*
X159703500Y-108145001D01*
X159703501Y-108145019D01*
X159714000Y-108247796D01*
X159714001Y-108247799D01*
X159769185Y-108414331D01*
X159769186Y-108414334D01*
X159861288Y-108563656D01*
X159985344Y-108687712D01*
X160134666Y-108779814D01*
X160301203Y-108834999D01*
X160403991Y-108845500D01*
X161404008Y-108845499D01*
X161404016Y-108845498D01*
X161404019Y-108845498D01*
X161460302Y-108839748D01*
X161506797Y-108834999D01*
X161673334Y-108779814D01*
X161822656Y-108687712D01*
X161946712Y-108563656D01*
X162038814Y-108414334D01*
X162093999Y-108247797D01*
X162104500Y-108145009D01*
X162104499Y-107519992D01*
X162101572Y-107491342D01*
X162093999Y-107417203D01*
X162093998Y-107417200D01*
X162087530Y-107397681D01*
X162038814Y-107250666D01*
X161946712Y-107101344D01*
X161853049Y-107007681D01*
X161819564Y-106946358D01*
X161824548Y-106876666D01*
X161853049Y-106832319D01*
X161872573Y-106812795D01*
X161946712Y-106738656D01*
X162038814Y-106589334D01*
X162093999Y-106422797D01*
X162104500Y-106320009D01*
X162104499Y-105694992D01*
X162104176Y-105691834D01*
X162093999Y-105592203D01*
X162093998Y-105592200D01*
X162077459Y-105542288D01*
X162038814Y-105425666D01*
X161946712Y-105276344D01*
X161822656Y-105152288D01*
X161673334Y-105060186D01*
X161506797Y-105005001D01*
X161506795Y-105005000D01*
X161404010Y-104994500D01*
X160403998Y-104994500D01*
X160403980Y-104994501D01*
X160301203Y-105005000D01*
X160301200Y-105005001D01*
X160134668Y-105060185D01*
X160134663Y-105060187D01*
X159985342Y-105152289D01*
X159861289Y-105276342D01*
X159769187Y-105425663D01*
X159769185Y-105425668D01*
X159747867Y-105490001D01*
X159714001Y-105592203D01*
X159714001Y-105592204D01*
X159714000Y-105592204D01*
X159703500Y-105694983D01*
X159114499Y-105694983D01*
X159114499Y-105680739D01*
X159114499Y-105369999D01*
X159114498Y-105369980D01*
X159103999Y-105267203D01*
X159103998Y-105267200D01*
X159078087Y-105189006D01*
X159048814Y-105100666D01*
X158956712Y-104951344D01*
X158863049Y-104857681D01*
X158829564Y-104796358D01*
X158834548Y-104726666D01*
X158863049Y-104682319D01*
X158882835Y-104662533D01*
X158956712Y-104588656D01*
X159048814Y-104439334D01*
X159103999Y-104272797D01*
X159114500Y-104170009D01*
X159114499Y-104005860D01*
X159134183Y-103938823D01*
X159186987Y-103893068D01*
X159256145Y-103883124D01*
X159319701Y-103912149D01*
X159326180Y-103918181D01*
X159489961Y-104081962D01*
X159537396Y-104113657D01*
X159598107Y-104154223D01*
X159637453Y-104180513D01*
X159710250Y-104210666D01*
X159710251Y-104210666D01*
X159710252Y-104210667D01*
X159730884Y-104219213D01*
X159801334Y-104248395D01*
X159975303Y-104282999D01*
X159975307Y-104283000D01*
X159975308Y-104283000D01*
X159975309Y-104283000D01*
X160023601Y-104283000D01*
X160088697Y-104301461D01*
X160112732Y-104316285D01*
X160134666Y-104329814D01*
X160301203Y-104384999D01*
X160403991Y-104395500D01*
X161404008Y-104395499D01*
X161404016Y-104395498D01*
X161404019Y-104395498D01*
X161485250Y-104387200D01*
X161506797Y-104384999D01*
X161673334Y-104329814D01*
X161822656Y-104237712D01*
X161946712Y-104113656D01*
X162038814Y-103964334D01*
X162072008Y-103864159D01*
X162111779Y-103806717D01*
X162176295Y-103779893D01*
X162245071Y-103792208D01*
G37*
%TD.AperFunction*%
%TA.AperFunction,Conductor*%
G36*
X158611875Y-93737993D02*
G01*
X158677701Y-93852007D01*
X158770793Y-93945099D01*
X158884807Y-94010925D01*
X158948390Y-94027962D01*
X158214814Y-94761537D01*
X158174589Y-94788416D01*
X158126613Y-94808289D01*
X158043665Y-94863714D01*
X158024166Y-94876742D01*
X158024160Y-94876747D01*
X157580269Y-95320640D01*
X157580261Y-95320645D01*
X157580262Y-95320646D01*
X157571188Y-95329719D01*
X157556691Y-95337633D01*
X157548042Y-95343868D01*
X157548040Y-95343869D01*
X157547446Y-95342681D01*
X157509863Y-95363201D01*
X157444509Y-95359739D01*
X157431699Y-95355494D01*
X157328986Y-95345000D01*
X157279000Y-95345000D01*
X157279000Y-96446000D01*
X157259315Y-96513039D01*
X157206511Y-96558794D01*
X157155000Y-96570000D01*
X157029000Y-96570000D01*
X157029000Y-96696000D01*
X157009315Y-96763039D01*
X156956511Y-96808794D01*
X156905000Y-96820000D01*
X156029001Y-96820000D01*
X156029001Y-97094986D01*
X156039494Y-97197697D01*
X156094641Y-97364119D01*
X156094643Y-97364124D01*
X156186684Y-97513345D01*
X156310654Y-97637315D01*
X156459875Y-97729356D01*
X156459884Y-97729360D01*
X156482491Y-97736851D01*
X156539937Y-97776622D01*
X156566761Y-97841138D01*
X156554447Y-97909914D01*
X156531170Y-97942238D01*
X154366929Y-100106481D01*
X154305606Y-100139966D01*
X154279248Y-100142800D01*
X153744089Y-100142800D01*
X153683671Y-100154818D01*
X153623248Y-100166837D01*
X153623247Y-100166837D01*
X153623244Y-100166838D01*
X153608388Y-100172992D01*
X153608387Y-100172992D01*
X153509418Y-100213985D01*
X153509414Y-100213987D01*
X153485450Y-100230001D01*
X153485448Y-100230002D01*
X153406968Y-100282440D01*
X153374201Y-100315208D01*
X153319842Y-100369567D01*
X153319839Y-100369570D01*
X153031227Y-100658181D01*
X152969904Y-100691666D01*
X152943546Y-100694500D01*
X151531129Y-100694500D01*
X151531123Y-100694501D01*
X151471516Y-100700908D01*
X151336671Y-100751202D01*
X151336664Y-100751206D01*
X151221455Y-100837452D01*
X151221452Y-100837455D01*
X151135206Y-100952664D01*
X151135202Y-100952671D01*
X151084908Y-101087517D01*
X151078501Y-101147116D01*
X151078500Y-101147135D01*
X151078500Y-103042870D01*
X151078501Y-103042876D01*
X151084908Y-103102483D01*
X151135202Y-103237328D01*
X151135206Y-103237335D01*
X151221452Y-103352544D01*
X151221455Y-103352547D01*
X151336664Y-103438793D01*
X151336671Y-103438797D01*
X151471517Y-103489091D01*
X151471516Y-103489091D01*
X151478444Y-103489835D01*
X151531127Y-103495500D01*
X153426872Y-103495499D01*
X153486483Y-103489091D01*
X153621331Y-103438796D01*
X153736546Y-103352546D01*
X153822796Y-103237331D01*
X153873091Y-103102483D01*
X153879500Y-103042873D01*
X153879499Y-102932305D01*
X153899183Y-102865269D01*
X153915818Y-102844627D01*
X154576861Y-102183584D01*
X154599667Y-102268694D01*
X154658910Y-102371306D01*
X154742694Y-102455090D01*
X154845306Y-102514333D01*
X154930413Y-102537137D01*
X154221485Y-103246065D01*
X154221485Y-103246066D01*
X154285243Y-103292388D01*
X154481589Y-103392432D01*
X154691164Y-103460526D01*
X154908819Y-103495000D01*
X155129181Y-103495000D01*
X155346835Y-103460526D01*
X155556410Y-103392432D01*
X155752760Y-103292386D01*
X155915014Y-103174502D01*
X155980821Y-103151022D01*
X156048875Y-103166847D01*
X156097570Y-103216953D01*
X156111900Y-103274820D01*
X156111900Y-120880885D01*
X156092215Y-120947924D01*
X156056794Y-120983985D01*
X156032509Y-121000212D01*
X156032504Y-121000217D01*
X155921013Y-121111707D01*
X155921010Y-121111711D01*
X155833412Y-121242811D01*
X155833402Y-121242827D01*
X155773064Y-121388498D01*
X155773061Y-121388510D01*
X155742300Y-121543153D01*
X155742300Y-121700846D01*
X155773061Y-121855489D01*
X155773064Y-121855501D01*
X155833402Y-122001172D01*
X155833409Y-122001184D01*
X155896402Y-122095459D01*
X155917280Y-122162136D01*
X155917300Y-122164350D01*
X155917300Y-128335500D01*
X155897615Y-128402539D01*
X155844811Y-128448294D01*
X155793300Y-128459500D01*
X150158000Y-128459500D01*
X150090961Y-128439815D01*
X150045206Y-128387011D01*
X150034000Y-128335500D01*
X150034000Y-104489983D01*
X151083500Y-104489983D01*
X151083500Y-105490001D01*
X151083501Y-105490019D01*
X151094000Y-105592796D01*
X151094001Y-105592799D01*
X151127861Y-105694980D01*
X151149186Y-105759334D01*
X151241288Y-105908656D01*
X151365344Y-106032712D01*
X151514666Y-106124814D01*
X151681203Y-106179999D01*
X151783991Y-106190500D01*
X152409008Y-106190499D01*
X152409016Y-106190498D01*
X152409019Y-106190498D01*
X152506892Y-106180500D01*
X152511797Y-106179999D01*
X152678334Y-106124814D01*
X152827656Y-106032712D01*
X152921319Y-105939049D01*
X152982642Y-105905564D01*
X153052334Y-105910548D01*
X153096681Y-105939049D01*
X153190344Y-106032712D01*
X153339666Y-106124814D01*
X153506203Y-106179999D01*
X153608991Y-106190500D01*
X154234008Y-106190499D01*
X154234016Y-106190498D01*
X154234019Y-106190498D01*
X154331892Y-106180500D01*
X154336797Y-106179999D01*
X154503334Y-106124814D01*
X154652656Y-106032712D01*
X154776712Y-105908656D01*
X154868814Y-105759334D01*
X154923999Y-105592797D01*
X154934500Y-105490009D01*
X154934499Y-104489992D01*
X154933477Y-104479992D01*
X154923999Y-104387203D01*
X154923998Y-104387200D01*
X154920685Y-104377203D01*
X154868814Y-104220666D01*
X154776712Y-104071344D01*
X154652656Y-103947288D01*
X154548629Y-103883124D01*
X154503336Y-103855187D01*
X154503331Y-103855185D01*
X154473153Y-103845185D01*
X154336797Y-103800001D01*
X154336795Y-103800000D01*
X154234010Y-103789500D01*
X153608998Y-103789500D01*
X153608980Y-103789501D01*
X153506203Y-103800000D01*
X153506200Y-103800001D01*
X153339668Y-103855185D01*
X153339663Y-103855187D01*
X153190342Y-103947289D01*
X153096681Y-104040951D01*
X153035358Y-104074436D01*
X152965666Y-104069452D01*
X152921319Y-104040951D01*
X152827657Y-103947289D01*
X152827656Y-103947288D01*
X152723629Y-103883124D01*
X152678336Y-103855187D01*
X152678331Y-103855185D01*
X152648153Y-103845185D01*
X152511797Y-103800001D01*
X152511795Y-103800000D01*
X152409010Y-103789500D01*
X151783998Y-103789500D01*
X151783980Y-103789501D01*
X151681203Y-103800000D01*
X151681200Y-103800001D01*
X151514668Y-103855185D01*
X151514663Y-103855187D01*
X151365342Y-103947289D01*
X151241289Y-104071342D01*
X151149187Y-104220663D01*
X151149185Y-104220668D01*
X151123506Y-104298163D01*
X151094001Y-104387203D01*
X151094001Y-104387204D01*
X151094000Y-104387204D01*
X151083500Y-104489983D01*
X150034000Y-104489983D01*
X150034000Y-100149500D01*
X150053685Y-100082461D01*
X150106489Y-100036706D01*
X150158000Y-100025500D01*
X150273108Y-100025500D01*
X150273108Y-100025499D01*
X150356195Y-100008973D01*
X150356196Y-100008973D01*
X150375334Y-100005166D01*
X150393952Y-100001463D01*
X150445493Y-99980114D01*
X150507786Y-99954312D01*
X150573669Y-99910289D01*
X150610233Y-99885858D01*
X150697358Y-99798733D01*
X150697358Y-99798731D01*
X150707566Y-99788524D01*
X150707567Y-99788521D01*
X151895287Y-98600803D01*
X152006089Y-98490001D01*
X152961704Y-98490001D01*
X152961899Y-98492486D01*
X153007718Y-98650198D01*
X153091314Y-98791552D01*
X153091321Y-98791561D01*
X153207438Y-98907678D01*
X153207447Y-98907685D01*
X153348803Y-98991282D01*
X153348806Y-98991283D01*
X153506504Y-99037099D01*
X153506510Y-99037100D01*
X153543350Y-99039999D01*
X153543366Y-99040000D01*
X153946500Y-99040000D01*
X154446500Y-99040000D01*
X154849634Y-99040000D01*
X154849649Y-99039999D01*
X154886489Y-99037100D01*
X154886495Y-99037099D01*
X155044193Y-98991283D01*
X155044196Y-98991282D01*
X155185552Y-98907685D01*
X155185561Y-98907678D01*
X155301678Y-98791561D01*
X155301685Y-98791552D01*
X155385281Y-98650198D01*
X155431100Y-98492486D01*
X155431295Y-98490001D01*
X155431295Y-98490000D01*
X154446500Y-98490000D01*
X154446500Y-99040000D01*
X153946500Y-99040000D01*
X153946500Y-98490000D01*
X152961705Y-98490000D01*
X152961704Y-98490001D01*
X152006089Y-98490001D01*
X152138116Y-98357975D01*
X152369272Y-98126819D01*
X152430595Y-98093334D01*
X152456953Y-98090500D01*
X152974686Y-98090500D01*
X152974694Y-98090500D01*
X153011569Y-98087598D01*
X153011571Y-98087597D01*
X153011573Y-98087597D01*
X153053191Y-98075505D01*
X153169398Y-98041744D01*
X153227694Y-98007268D01*
X153290815Y-97990000D01*
X153946500Y-97990000D01*
X154446500Y-97990000D01*
X155431295Y-97990000D01*
X155431295Y-97989998D01*
X155431100Y-97987513D01*
X155385281Y-97829801D01*
X155301685Y-97688447D01*
X155301678Y-97688438D01*
X155185561Y-97572321D01*
X155185552Y-97572314D01*
X155044196Y-97488717D01*
X155044193Y-97488716D01*
X154886495Y-97442900D01*
X154886489Y-97442899D01*
X154849649Y-97440000D01*
X154446500Y-97440000D01*
X154446500Y-97990000D01*
X153946500Y-97990000D01*
X153946500Y-97440000D01*
X153683500Y-97440000D01*
X153616461Y-97420315D01*
X153570706Y-97367511D01*
X153559500Y-97316000D01*
X153559500Y-97264500D01*
X153579185Y-97197461D01*
X153631989Y-97151706D01*
X153683500Y-97140500D01*
X154849686Y-97140500D01*
X154849694Y-97140500D01*
X154886569Y-97137598D01*
X154886571Y-97137597D01*
X154886573Y-97137597D01*
X154958386Y-97116733D01*
X155044398Y-97091744D01*
X155185865Y-97008081D01*
X155302081Y-96891865D01*
X155385744Y-96750398D01*
X155431598Y-96592569D01*
X155434500Y-96555694D01*
X155434500Y-96124306D01*
X155431598Y-96087431D01*
X155419274Y-96045013D01*
X156029000Y-96045013D01*
X156029000Y-96320000D01*
X156779000Y-96320000D01*
X156779000Y-95345000D01*
X156778999Y-95344999D01*
X156729029Y-95345000D01*
X156729011Y-95345001D01*
X156626302Y-95355494D01*
X156459880Y-95410641D01*
X156459875Y-95410643D01*
X156310654Y-95502684D01*
X156186684Y-95626654D01*
X156094643Y-95775875D01*
X156094641Y-95775880D01*
X156039494Y-95942302D01*
X156039493Y-95942309D01*
X156029000Y-96045013D01*
X155419274Y-96045013D01*
X155385744Y-95929602D01*
X155367585Y-95898897D01*
X155363467Y-95886847D01*
X155362474Y-95864158D01*
X155356889Y-95842145D01*
X155360977Y-95829919D01*
X155360414Y-95817044D01*
X155371844Y-95797421D01*
X155379048Y-95775882D01*
X155393117Y-95759071D01*
X157393596Y-93758593D01*
X157454916Y-93725110D01*
X157524608Y-93730094D01*
X157580541Y-93771966D01*
X157603747Y-93826878D01*
X157614734Y-93896247D01*
X157687697Y-94120802D01*
X157794887Y-94331174D01*
X157855138Y-94414104D01*
X157855140Y-94414105D01*
X158594837Y-93674408D01*
X158611875Y-93737993D01*
G37*
%TD.AperFunction*%
%TA.AperFunction,Conductor*%
G36*
X157373503Y-122451439D02*
G01*
X157379981Y-122457471D01*
X157568381Y-122645871D01*
X157601866Y-122707194D01*
X157604700Y-122733552D01*
X157604700Y-124770659D01*
X157585015Y-124837698D01*
X157568381Y-124858340D01*
X157488013Y-124938707D01*
X157488010Y-124938711D01*
X157397021Y-125074886D01*
X157395426Y-125073820D01*
X157352697Y-125117321D01*
X157284559Y-125132782D01*
X157218879Y-125108951D01*
X157176510Y-125053394D01*
X157168300Y-125009024D01*
X157168300Y-122545152D01*
X157187985Y-122478113D01*
X157240789Y-122432358D01*
X157309947Y-122422414D01*
X157373503Y-122451439D01*
G37*
%TD.AperFunction*%
%TA.AperFunction,Conductor*%
G36*
X168307334Y-105900548D02*
G01*
X168351681Y-105929049D01*
X168445344Y-106022712D01*
X168594666Y-106114814D01*
X168761203Y-106169999D01*
X168863991Y-106180500D01*
X169489008Y-106180499D01*
X169489016Y-106180498D01*
X169489019Y-106180498D01*
X169545302Y-106174748D01*
X169591797Y-106169999D01*
X169749398Y-106117774D01*
X169819224Y-106115373D01*
X169879266Y-106151104D01*
X169910459Y-106213625D01*
X169912400Y-106235481D01*
X169912400Y-106714996D01*
X169947003Y-106888958D01*
X169947005Y-106888966D01*
X169980946Y-106970906D01*
X169980946Y-106970907D01*
X170014884Y-107052842D01*
X170014886Y-107052845D01*
X170014887Y-107052847D01*
X170036006Y-107084453D01*
X170065542Y-107128657D01*
X170113437Y-107200338D01*
X170113438Y-107200339D01*
X172963136Y-110050035D01*
X173088562Y-110175461D01*
X173088566Y-110175465D01*
X173236046Y-110274009D01*
X173236059Y-110274016D01*
X173358963Y-110324923D01*
X173399934Y-110341894D01*
X173442535Y-110350368D01*
X173573905Y-110376500D01*
X173573908Y-110376500D01*
X175393893Y-110376500D01*
X175393894Y-110376499D01*
X175567866Y-110341895D01*
X175649806Y-110307953D01*
X175731747Y-110274013D01*
X175731749Y-110274011D01*
X175731752Y-110274010D01*
X175820155Y-110214939D01*
X175820155Y-110214938D01*
X175820159Y-110214936D01*
X175879236Y-110175464D01*
X176747881Y-109306817D01*
X176809204Y-109273333D01*
X176835562Y-109270499D01*
X177235123Y-109270499D01*
X177235123Y-109270498D01*
X177277889Y-109267600D01*
X177462693Y-109221641D01*
X177633296Y-109137030D01*
X177781722Y-109017722D01*
X177837675Y-108948112D01*
X177895015Y-108908196D01*
X177964837Y-108905616D01*
X178024970Y-108941194D01*
X178030967Y-108948115D01*
X178086632Y-109017366D01*
X178086633Y-109017367D01*
X178234974Y-109136607D01*
X178234977Y-109136609D01*
X178405476Y-109221168D01*
X178590175Y-109267102D01*
X178632903Y-109270000D01*
X178834000Y-109270000D01*
X179334000Y-109270000D01*
X179535097Y-109270000D01*
X179577824Y-109267102D01*
X179762523Y-109221168D01*
X179933022Y-109136609D01*
X179933025Y-109136607D01*
X180081366Y-109017367D01*
X180081367Y-109017366D01*
X180200607Y-108869025D01*
X180200609Y-108869022D01*
X180285168Y-108698523D01*
X180331102Y-108513824D01*
X180334000Y-108471096D01*
X180334000Y-108020000D01*
X179334000Y-108020000D01*
X179334000Y-109270000D01*
X178834000Y-109270000D01*
X178834000Y-107894000D01*
X178853685Y-107826961D01*
X178906489Y-107781206D01*
X178958000Y-107770000D01*
X179084000Y-107770000D01*
X179084000Y-107644000D01*
X179103685Y-107576961D01*
X179156489Y-107531206D01*
X179208000Y-107520000D01*
X180334000Y-107520000D01*
X180334000Y-107079400D01*
X180353685Y-107012361D01*
X180406489Y-106966606D01*
X180458000Y-106955400D01*
X181274500Y-106955400D01*
X181341539Y-106975085D01*
X181387294Y-107027889D01*
X181398500Y-107079400D01*
X181398500Y-107385017D01*
X181409000Y-107487796D01*
X181423385Y-107531206D01*
X181464186Y-107654335D01*
X181556288Y-107803656D01*
X181680344Y-107927712D01*
X181829665Y-108019814D01*
X181996202Y-108074999D01*
X182098990Y-108085500D01*
X182098995Y-108085500D01*
X183823400Y-108085500D01*
X183890439Y-108105185D01*
X183936194Y-108157989D01*
X183947400Y-108209500D01*
X183947400Y-118929647D01*
X183927715Y-118996686D01*
X183874911Y-119042441D01*
X183805753Y-119052385D01*
X183742197Y-119023360D01*
X183735719Y-119017328D01*
X176181828Y-111463438D01*
X176181825Y-111463434D01*
X176181825Y-111463435D01*
X176174758Y-111456368D01*
X176174758Y-111456367D01*
X176087633Y-111369242D01*
X176087632Y-111369241D01*
X176087631Y-111369240D01*
X176036409Y-111335015D01*
X175985187Y-111300789D01*
X175985186Y-111300788D01*
X175985183Y-111300786D01*
X175985180Y-111300785D01*
X175904692Y-111267447D01*
X175871353Y-111253637D01*
X175861327Y-111251643D01*
X175810929Y-111241618D01*
X175750510Y-111229600D01*
X175750507Y-111229600D01*
X175750506Y-111229600D01*
X175654750Y-111229600D01*
X175587711Y-111209915D01*
X175585859Y-111208702D01*
X175491584Y-111145709D01*
X175491572Y-111145702D01*
X175345901Y-111085364D01*
X175345889Y-111085361D01*
X175191245Y-111054600D01*
X175191242Y-111054600D01*
X175033558Y-111054600D01*
X175033555Y-111054600D01*
X174878910Y-111085361D01*
X174878898Y-111085364D01*
X174733227Y-111145702D01*
X174733214Y-111145709D01*
X174602111Y-111233310D01*
X174602107Y-111233313D01*
X174490613Y-111344807D01*
X174490610Y-111344811D01*
X174403009Y-111475914D01*
X174403002Y-111475927D01*
X174342664Y-111621598D01*
X174342661Y-111621610D01*
X174311900Y-111776253D01*
X174311900Y-111933946D01*
X174342661Y-112088589D01*
X174342664Y-112088601D01*
X174403002Y-112234272D01*
X174403009Y-112234285D01*
X174490610Y-112365388D01*
X174490613Y-112365392D01*
X174602107Y-112476886D01*
X174602111Y-112476889D01*
X174733214Y-112564490D01*
X174733227Y-112564497D01*
X174859017Y-112616600D01*
X174878903Y-112624837D01*
X175033553Y-112655599D01*
X175033556Y-112655600D01*
X175033558Y-112655600D01*
X175191244Y-112655600D01*
X175191245Y-112655599D01*
X175345897Y-112624837D01*
X175430678Y-112589719D01*
X175500145Y-112582251D01*
X175562625Y-112613526D01*
X175565810Y-112616600D01*
X177423829Y-114474619D01*
X177457314Y-114535942D01*
X177452330Y-114605634D01*
X177410458Y-114661567D01*
X177344994Y-114685984D01*
X177336148Y-114686300D01*
X176457252Y-114686300D01*
X176390213Y-114666615D01*
X176369571Y-114649981D01*
X167983036Y-106263446D01*
X167949551Y-106202123D01*
X167954535Y-106132431D01*
X167996407Y-106076498D01*
X168005595Y-106070242D01*
X168082656Y-106022712D01*
X168176319Y-105929049D01*
X168237642Y-105895564D01*
X168307334Y-105900548D01*
G37*
%TD.AperFunction*%
%TA.AperFunction,Conductor*%
G36*
X177757800Y-98427661D02*
G01*
X177785059Y-98529394D01*
X177837720Y-98620606D01*
X177912194Y-98695080D01*
X178003406Y-98747741D01*
X178105139Y-98775000D01*
X178111353Y-98775000D01*
X177431876Y-99454474D01*
X177476450Y-99486859D01*
X177658768Y-99579755D01*
X177853382Y-99642990D01*
X178055483Y-99675000D01*
X178260117Y-99675000D01*
X178462217Y-99642990D01*
X178656831Y-99579755D01*
X178839149Y-99486859D01*
X178883721Y-99454474D01*
X178204247Y-98775000D01*
X178210461Y-98775000D01*
X178312194Y-98747741D01*
X178403406Y-98695080D01*
X178477880Y-98620606D01*
X178530541Y-98529394D01*
X178557800Y-98427661D01*
X178557800Y-98421447D01*
X179237274Y-99100921D01*
X179269659Y-99056349D01*
X179362555Y-98874029D01*
X179413420Y-98717487D01*
X179452858Y-98659811D01*
X179517216Y-98632613D01*
X179586063Y-98644528D01*
X179619032Y-98668124D01*
X179652086Y-98701178D01*
X179652108Y-98701198D01*
X183911081Y-102960171D01*
X183944566Y-103021494D01*
X183947400Y-103047852D01*
X183947400Y-104760500D01*
X183927715Y-104827539D01*
X183874911Y-104873294D01*
X183823400Y-104884500D01*
X182098982Y-104884500D01*
X181996203Y-104895000D01*
X181996202Y-104895001D01*
X181913669Y-104922349D01*
X181829667Y-104950185D01*
X181829662Y-104950187D01*
X181680342Y-105042289D01*
X181604551Y-105118081D01*
X181543228Y-105151566D01*
X181516870Y-105154400D01*
X175851405Y-105154400D01*
X175677501Y-105188991D01*
X175677502Y-105188992D01*
X175677439Y-105189004D01*
X175677429Y-105189007D01*
X175513559Y-105256883D01*
X175513546Y-105256890D01*
X175366066Y-105355434D01*
X175366064Y-105355437D01*
X174488317Y-106233181D01*
X174426994Y-106266666D01*
X174400636Y-106269500D01*
X174032878Y-106269500D01*
X174032874Y-106269501D01*
X173990113Y-106272399D01*
X173990112Y-106272399D01*
X173805303Y-106318360D01*
X173634707Y-106402967D01*
X173634704Y-106402969D01*
X173486278Y-106522277D01*
X173486277Y-106522278D01*
X173366969Y-106670704D01*
X173366967Y-106670707D01*
X173282360Y-106841302D01*
X173236400Y-107026107D01*
X173233500Y-107068879D01*
X173233500Y-107474038D01*
X173213815Y-107541077D01*
X173161011Y-107586832D01*
X173091853Y-107596776D01*
X173028297Y-107567751D01*
X173021819Y-107561719D01*
X171749719Y-106289619D01*
X171716234Y-106228296D01*
X171713400Y-106201938D01*
X171713400Y-103537707D01*
X171713399Y-103537703D01*
X171693726Y-103438797D01*
X171678795Y-103363734D01*
X171642315Y-103275666D01*
X171610913Y-103199853D01*
X171535366Y-103086789D01*
X171512364Y-103052364D01*
X171512362Y-103052361D01*
X171512361Y-103052360D01*
X171042181Y-102582181D01*
X171008696Y-102520858D01*
X171013680Y-102451167D01*
X171055551Y-102395233D01*
X171121016Y-102370816D01*
X171129862Y-102370500D01*
X174389304Y-102370500D01*
X174456343Y-102390185D01*
X174499212Y-102437088D01*
X174544300Y-102523404D01*
X174544302Y-102523407D01*
X174592226Y-102582181D01*
X174672890Y-102681109D01*
X174766803Y-102757684D01*
X174830593Y-102809698D01*
X175010951Y-102903909D01*
X175206582Y-102959886D01*
X175325963Y-102970500D01*
X178242036Y-102970499D01*
X178361418Y-102959886D01*
X178557049Y-102903909D01*
X178737407Y-102809698D01*
X178895109Y-102681109D01*
X179023698Y-102523407D01*
X179117909Y-102343049D01*
X179173886Y-102147418D01*
X179184500Y-102028037D01*
X179184499Y-100911964D01*
X179173886Y-100792582D01*
X179117909Y-100596951D01*
X179023698Y-100416593D01*
X178941034Y-100315213D01*
X178895109Y-100258890D01*
X178767475Y-100154819D01*
X178737407Y-100130302D01*
X178557049Y-100036091D01*
X178557048Y-100036090D01*
X178557045Y-100036089D01*
X178436019Y-100001460D01*
X178361418Y-99980114D01*
X178361415Y-99980113D01*
X178361413Y-99980113D01*
X178288631Y-99973642D01*
X178242037Y-99969500D01*
X178242033Y-99969500D01*
X176682300Y-99969500D01*
X176615261Y-99949815D01*
X176569506Y-99897011D01*
X176558300Y-99845500D01*
X176558300Y-99659797D01*
X176577985Y-99592758D01*
X176617203Y-99554258D01*
X176676456Y-99517712D01*
X176800512Y-99393656D01*
X176892614Y-99244334D01*
X176915902Y-99174054D01*
X176919910Y-99166050D01*
X176937860Y-99146772D01*
X176952855Y-99125116D01*
X176961295Y-99121606D01*
X176967525Y-99114917D01*
X176993049Y-99108404D01*
X177017371Y-99098292D01*
X177033634Y-99098048D01*
X177035225Y-99097643D01*
X177036323Y-99098008D01*
X177040519Y-99097946D01*
X177078325Y-99100921D01*
X177757800Y-98421446D01*
X177757800Y-98427661D01*
G37*
%TD.AperFunction*%
%TA.AperFunction,Conductor*%
G36*
X173907039Y-95209685D02*
G01*
X173952794Y-95262489D01*
X173964000Y-95314000D01*
X173964000Y-96414999D01*
X174013972Y-96414999D01*
X174013986Y-96414998D01*
X174116697Y-96404505D01*
X174283119Y-96349358D01*
X174283124Y-96349356D01*
X174432345Y-96257315D01*
X174545619Y-96144042D01*
X174606942Y-96110557D01*
X174676634Y-96115541D01*
X174732567Y-96157413D01*
X174756984Y-96222877D01*
X174757300Y-96231723D01*
X174757300Y-97090201D01*
X174737615Y-97157240D01*
X174698398Y-97195739D01*
X174639144Y-97232287D01*
X174515089Y-97356342D01*
X174422987Y-97505663D01*
X174422985Y-97505668D01*
X174408944Y-97548041D01*
X174367801Y-97672203D01*
X174367801Y-97672204D01*
X174367800Y-97672204D01*
X174357300Y-97774983D01*
X174357300Y-98975001D01*
X174357301Y-98975018D01*
X174367800Y-99077796D01*
X174367801Y-99077799D01*
X174422985Y-99244331D01*
X174422987Y-99244336D01*
X174457869Y-99300888D01*
X174515088Y-99393656D01*
X174639144Y-99517712D01*
X174698396Y-99554258D01*
X174745121Y-99606204D01*
X174757300Y-99659797D01*
X174757300Y-100131175D01*
X174737615Y-100198214D01*
X174711662Y-100227276D01*
X174672894Y-100258888D01*
X174672892Y-100258889D01*
X174672891Y-100258891D01*
X174645230Y-100292815D01*
X174544301Y-100416593D01*
X174544300Y-100416595D01*
X174499212Y-100502912D01*
X174450725Y-100553219D01*
X174389304Y-100569500D01*
X171946496Y-100569500D01*
X171879457Y-100549815D01*
X171833702Y-100497011D01*
X171823758Y-100427853D01*
X171852783Y-100364297D01*
X171890200Y-100335016D01*
X171937113Y-100311111D01*
X171973022Y-100292815D01*
X172151365Y-100163242D01*
X172307242Y-100007365D01*
X172436815Y-99829022D01*
X172536895Y-99632606D01*
X172605015Y-99422951D01*
X172639500Y-99205222D01*
X172639500Y-98984778D01*
X172605015Y-98767049D01*
X172536895Y-98557394D01*
X172536895Y-98557393D01*
X172457917Y-98402393D01*
X172436815Y-98360978D01*
X172372610Y-98272607D01*
X172307247Y-98182641D01*
X172307243Y-98182636D01*
X172151363Y-98026756D01*
X172151358Y-98026752D01*
X171973025Y-97897187D01*
X171973024Y-97897186D01*
X171973022Y-97897185D01*
X171855791Y-97837452D01*
X171776606Y-97797104D01*
X171776603Y-97797103D01*
X171566952Y-97728985D01*
X171458086Y-97711742D01*
X171349222Y-97694500D01*
X171128778Y-97694500D01*
X171056201Y-97705995D01*
X170911047Y-97728985D01*
X170701396Y-97797103D01*
X170701393Y-97797104D01*
X170504974Y-97897187D01*
X170326641Y-98026752D01*
X170326636Y-98026756D01*
X170276463Y-98076929D01*
X170215140Y-98110413D01*
X170145448Y-98105428D01*
X170089515Y-98063557D01*
X170072601Y-98032580D01*
X170042797Y-97952671D01*
X170042793Y-97952664D01*
X169956547Y-97837455D01*
X169956544Y-97837452D01*
X169841335Y-97751206D01*
X169841328Y-97751202D01*
X169706482Y-97700908D01*
X169706483Y-97700908D01*
X169646883Y-97694501D01*
X169646881Y-97694500D01*
X169646873Y-97694500D01*
X169646864Y-97694500D01*
X167751129Y-97694500D01*
X167751123Y-97694501D01*
X167691516Y-97700908D01*
X167556671Y-97751202D01*
X167556664Y-97751206D01*
X167441455Y-97837452D01*
X167441452Y-97837455D01*
X167355206Y-97952664D01*
X167355202Y-97952671D01*
X167304908Y-98087517D01*
X167298501Y-98147116D01*
X167298500Y-98147135D01*
X167298500Y-100042870D01*
X167298501Y-100042876D01*
X167304908Y-100102483D01*
X167355202Y-100237328D01*
X167355206Y-100237335D01*
X167441452Y-100352544D01*
X167441455Y-100352547D01*
X167556664Y-100438793D01*
X167556671Y-100438797D01*
X167691517Y-100489091D01*
X167691516Y-100489091D01*
X167698444Y-100489835D01*
X167751127Y-100495500D01*
X169125313Y-100495499D01*
X169192352Y-100515184D01*
X169238107Y-100567987D01*
X169248051Y-100637146D01*
X169219026Y-100700702D01*
X169194203Y-100722602D01*
X169125357Y-100768603D01*
X169058680Y-100789480D01*
X169056468Y-100789500D01*
X168863999Y-100789500D01*
X168863980Y-100789501D01*
X168761203Y-100800000D01*
X168761200Y-100800001D01*
X168594668Y-100855185D01*
X168594663Y-100855187D01*
X168445342Y-100947289D01*
X168351681Y-101040951D01*
X168290358Y-101074436D01*
X168220666Y-101069452D01*
X168176319Y-101040951D01*
X168082657Y-100947289D01*
X168082656Y-100947288D01*
X167933334Y-100855186D01*
X167766797Y-100800001D01*
X167766795Y-100800000D01*
X167664010Y-100789500D01*
X167038998Y-100789500D01*
X167038980Y-100789501D01*
X166936203Y-100800000D01*
X166936200Y-100800001D01*
X166769668Y-100855185D01*
X166769663Y-100855187D01*
X166620342Y-100947289D01*
X166496289Y-101071342D01*
X166404187Y-101220663D01*
X166404186Y-101220666D01*
X166349001Y-101387203D01*
X166349001Y-101387204D01*
X166349000Y-101387204D01*
X166338500Y-101489983D01*
X166338500Y-101622200D01*
X166318815Y-101689239D01*
X166266011Y-101734994D01*
X166214500Y-101746200D01*
X166100575Y-101746200D01*
X166033536Y-101726515D01*
X165987781Y-101673711D01*
X165977837Y-101604553D01*
X165982644Y-101583882D01*
X165984201Y-101579090D01*
X166006246Y-101511243D01*
X166039500Y-101301287D01*
X166039500Y-101088713D01*
X166006246Y-100878757D01*
X165940557Y-100676588D01*
X165844051Y-100487184D01*
X165844049Y-100487181D01*
X165844048Y-100487179D01*
X165719109Y-100315213D01*
X165605569Y-100201673D01*
X165572084Y-100140350D01*
X165577068Y-100070658D01*
X165618940Y-100014725D01*
X165649915Y-99997810D01*
X165781331Y-99948796D01*
X165896546Y-99862546D01*
X165982796Y-99747331D01*
X166033091Y-99612483D01*
X166039500Y-99552873D01*
X166039499Y-97757128D01*
X166033091Y-97697517D01*
X166023649Y-97672203D01*
X165982797Y-97562671D01*
X165982793Y-97562664D01*
X165896547Y-97447455D01*
X165896544Y-97447452D01*
X165781335Y-97361206D01*
X165781328Y-97361202D01*
X165646482Y-97310908D01*
X165646483Y-97310908D01*
X165586883Y-97304501D01*
X165586881Y-97304500D01*
X165586873Y-97304500D01*
X165586865Y-97304500D01*
X164530951Y-97304500D01*
X164463912Y-97284815D01*
X164418157Y-97232011D01*
X164408213Y-97162853D01*
X164437238Y-97099297D01*
X164443270Y-97092819D01*
X164461784Y-97074306D01*
X165079172Y-96456919D01*
X165140495Y-96423434D01*
X165166853Y-96420600D01*
X171570007Y-96420600D01*
X171630429Y-96408581D01*
X171690852Y-96396563D01*
X171739665Y-96376344D01*
X171804686Y-96349412D01*
X171855909Y-96315184D01*
X171907133Y-96280958D01*
X171994258Y-96193833D01*
X171994259Y-96193831D01*
X172001325Y-96186765D01*
X172001328Y-96186761D01*
X172507157Y-95680931D01*
X172568476Y-95647449D01*
X172638167Y-95652433D01*
X172694101Y-95694304D01*
X172718192Y-95756012D01*
X172724494Y-95817697D01*
X172779641Y-95984119D01*
X172779643Y-95984124D01*
X172871684Y-96133345D01*
X172995654Y-96257315D01*
X173144875Y-96349356D01*
X173144880Y-96349358D01*
X173311302Y-96404505D01*
X173311309Y-96404506D01*
X173414019Y-96414999D01*
X173463999Y-96414998D01*
X173464000Y-96414998D01*
X173464000Y-95314000D01*
X173483685Y-95246961D01*
X173536489Y-95201206D01*
X173588000Y-95190000D01*
X173840000Y-95190000D01*
X173907039Y-95209685D01*
G37*
%TD.AperFunction*%
%TA.AperFunction,Conductor*%
G36*
X176763503Y-96026491D02*
G01*
X176796861Y-96072751D01*
X176802942Y-96087432D01*
X176826987Y-96145485D01*
X176826988Y-96145486D01*
X176858059Y-96191985D01*
X176865226Y-96202711D01*
X176895443Y-96247935D01*
X176986886Y-96339378D01*
X176986908Y-96339398D01*
X177643407Y-96995897D01*
X177676892Y-97057220D01*
X177671908Y-97126912D01*
X177630036Y-97182845D01*
X177612022Y-97194062D01*
X177476448Y-97263141D01*
X177476445Y-97263143D01*
X177431877Y-97295523D01*
X177431877Y-97295524D01*
X178111354Y-97975000D01*
X178105139Y-97975000D01*
X178003406Y-98002259D01*
X177912194Y-98054920D01*
X177837720Y-98129394D01*
X177785059Y-98220606D01*
X177757800Y-98322339D01*
X177757800Y-98328553D01*
X177078324Y-97649077D01*
X177040519Y-97652053D01*
X176972141Y-97637689D01*
X176922384Y-97588638D01*
X176913085Y-97567444D01*
X176892614Y-97505666D01*
X176800512Y-97356344D01*
X176676456Y-97232288D01*
X176676455Y-97232287D01*
X176617202Y-97195739D01*
X176570478Y-97143791D01*
X176558300Y-97090201D01*
X176558300Y-96120204D01*
X176577985Y-96053165D01*
X176630789Y-96007410D01*
X176699947Y-95997466D01*
X176763503Y-96026491D01*
G37*
%TD.AperFunction*%
%TA.AperFunction,Conductor*%
G36*
X179370417Y-97055052D02*
G01*
X179412788Y-97110608D01*
X179421000Y-97154982D01*
X179421000Y-97529393D01*
X179401315Y-97596432D01*
X179348511Y-97642187D01*
X179287272Y-97653011D01*
X179237274Y-97649076D01*
X178557800Y-98328551D01*
X178557800Y-98322339D01*
X178530541Y-98220606D01*
X178477880Y-98129394D01*
X178403406Y-98054920D01*
X178312194Y-98002259D01*
X178210461Y-97975000D01*
X178204244Y-97975000D01*
X178660886Y-97518359D01*
X178706231Y-97491184D01*
X178705769Y-97490068D01*
X178857072Y-97427397D01*
X178857072Y-97427396D01*
X178857079Y-97427394D01*
X178988189Y-97339789D01*
X179099689Y-97228289D01*
X179187294Y-97097179D01*
X179187297Y-97097171D01*
X179187639Y-97096534D01*
X179187909Y-97096258D01*
X179190679Y-97092114D01*
X179191464Y-97092638D01*
X179236599Y-97046687D01*
X179304736Y-97031224D01*
X179370417Y-97055052D01*
G37*
%TD.AperFunction*%
%TA.AperFunction,Conductor*%
G36*
X164066322Y-92619485D02*
G01*
X164112077Y-92672289D01*
X164122021Y-92741447D01*
X164092996Y-92805003D01*
X164037601Y-92841731D01*
X163843197Y-92904897D01*
X163632830Y-93012084D01*
X163549894Y-93072340D01*
X164248766Y-93771212D01*
X164206708Y-93782482D01*
X164081292Y-93854890D01*
X163978890Y-93957292D01*
X163906482Y-94082708D01*
X163895212Y-94124766D01*
X163196340Y-93425894D01*
X163136084Y-93508830D01*
X163028897Y-93719197D01*
X162955934Y-93943752D01*
X162919000Y-94176947D01*
X162919000Y-94413052D01*
X162955934Y-94646247D01*
X163028897Y-94870802D01*
X163136087Y-95081174D01*
X163196338Y-95164104D01*
X163196340Y-95164105D01*
X163895212Y-94465233D01*
X163906482Y-94507292D01*
X163978890Y-94632708D01*
X164081292Y-94735110D01*
X164206708Y-94807518D01*
X164248765Y-94818787D01*
X163549893Y-95517658D01*
X163632828Y-95577914D01*
X163847541Y-95687316D01*
X163846684Y-95688997D01*
X163894838Y-95727767D01*
X163916932Y-95794051D01*
X163899683Y-95861758D01*
X163880694Y-95886213D01*
X163092394Y-96674514D01*
X163031071Y-96707999D01*
X162961380Y-96703015D01*
X162905446Y-96661143D01*
X162887007Y-96625837D01*
X162885708Y-96621917D01*
X162853814Y-96525666D01*
X162761712Y-96376344D01*
X162637656Y-96252288D01*
X162488334Y-96160186D01*
X162321797Y-96105001D01*
X162321795Y-96105000D01*
X162219016Y-96094500D01*
X162219009Y-96094500D01*
X161641952Y-96094500D01*
X161574913Y-96074815D01*
X161554271Y-96058181D01*
X160464298Y-94968208D01*
X160464278Y-94968186D01*
X160372835Y-94876743D01*
X160353335Y-94863714D01*
X160320477Y-94841759D01*
X160320478Y-94841759D01*
X160320476Y-94841757D01*
X160270390Y-94808290D01*
X160270386Y-94808288D01*
X160268527Y-94807518D01*
X160189892Y-94774947D01*
X160156552Y-94761137D01*
X160156548Y-94761136D01*
X160156544Y-94761135D01*
X160063111Y-94742550D01*
X160063108Y-94742550D01*
X160035709Y-94737100D01*
X160035707Y-94737100D01*
X160035706Y-94737100D01*
X159967708Y-94737100D01*
X159900669Y-94717415D01*
X159880027Y-94700781D01*
X159207208Y-94027962D01*
X159270793Y-94010925D01*
X159384807Y-93945099D01*
X159477899Y-93852007D01*
X159543725Y-93737993D01*
X159560762Y-93674409D01*
X160300458Y-94414105D01*
X160300458Y-94414104D01*
X160360714Y-94331169D01*
X160360718Y-94331163D01*
X160467902Y-94120802D01*
X160540865Y-93896247D01*
X160577800Y-93663052D01*
X160577800Y-93426947D01*
X160540865Y-93193752D01*
X160467902Y-92969197D01*
X160371550Y-92780095D01*
X160358654Y-92711426D01*
X160384930Y-92646685D01*
X160442037Y-92606428D01*
X160482035Y-92599800D01*
X163999283Y-92599800D01*
X164066322Y-92619485D01*
G37*
%TD.AperFunction*%
%TA.AperFunction,Conductor*%
G36*
X169465775Y-89112585D02*
G01*
X169511530Y-89165389D01*
X169521474Y-89234547D01*
X169516668Y-89255211D01*
X169504878Y-89291499D01*
X169455446Y-89443631D01*
X169418500Y-89676902D01*
X169418500Y-89913097D01*
X169455446Y-90146368D01*
X169528433Y-90370996D01*
X169635657Y-90581433D01*
X169774483Y-90772510D01*
X169941490Y-90939517D01*
X170132567Y-91078343D01*
X170203166Y-91114315D01*
X170343003Y-91185566D01*
X170343005Y-91185566D01*
X170343008Y-91185568D01*
X170381310Y-91198013D01*
X170567631Y-91258553D01*
X170800903Y-91295500D01*
X170800908Y-91295500D01*
X171037097Y-91295500D01*
X171270368Y-91258553D01*
X171319118Y-91242713D01*
X171494992Y-91185568D01*
X171705433Y-91078343D01*
X171896510Y-90939517D01*
X172063517Y-90772510D01*
X172202343Y-90581433D01*
X172309568Y-90370992D01*
X172382553Y-90146368D01*
X172386803Y-90119534D01*
X172419500Y-89913097D01*
X172419500Y-89676902D01*
X172382553Y-89443631D01*
X172334157Y-89294685D01*
X172321332Y-89255216D01*
X172319338Y-89185378D01*
X172355418Y-89125545D01*
X172418119Y-89094716D01*
X172439264Y-89092900D01*
X173144500Y-89092900D01*
X173211539Y-89112585D01*
X173257294Y-89165389D01*
X173268500Y-89216900D01*
X173268500Y-90415001D01*
X173268501Y-90415018D01*
X173279000Y-90517796D01*
X173279001Y-90517799D01*
X173300088Y-90581433D01*
X173334186Y-90684334D01*
X173426288Y-90833656D01*
X173550344Y-90957712D01*
X173699666Y-91049814D01*
X173782152Y-91077147D01*
X173839597Y-91116920D01*
X173866420Y-91181436D01*
X173854105Y-91250212D01*
X173844143Y-91261975D01*
X173843077Y-91275524D01*
X174522553Y-91955000D01*
X174516339Y-91955000D01*
X174414606Y-91982259D01*
X174323394Y-92034920D01*
X174248920Y-92109394D01*
X174196259Y-92200606D01*
X174169000Y-92302339D01*
X174169000Y-92308553D01*
X173489524Y-91629077D01*
X173489523Y-91629077D01*
X173457143Y-91673644D01*
X173364244Y-91855968D01*
X173301009Y-92050582D01*
X173269000Y-92252682D01*
X173269000Y-92457317D01*
X173301009Y-92659417D01*
X173364244Y-92854031D01*
X173457140Y-93036349D01*
X173556797Y-93173514D01*
X173580277Y-93239321D01*
X173564452Y-93307375D01*
X173514346Y-93356069D01*
X173456479Y-93370400D01*
X173138592Y-93370400D01*
X173122729Y-93373555D01*
X173106865Y-93376711D01*
X173035473Y-93390911D01*
X173017747Y-93394437D01*
X172903916Y-93441587D01*
X172903907Y-93441592D01*
X172801468Y-93510040D01*
X172766510Y-93544999D01*
X172714342Y-93597167D01*
X172714339Y-93597170D01*
X172521639Y-93789869D01*
X172460316Y-93823354D01*
X172390624Y-93818370D01*
X172334691Y-93776498D01*
X172316026Y-93740504D01*
X172309104Y-93719200D01*
X172201914Y-93508828D01*
X172141658Y-93425894D01*
X172141658Y-93425893D01*
X171442787Y-94124764D01*
X171431518Y-94082708D01*
X171359110Y-93957292D01*
X171256708Y-93854890D01*
X171131292Y-93782482D01*
X171089234Y-93771212D01*
X171788105Y-93072340D01*
X171788104Y-93072338D01*
X171705174Y-93012087D01*
X171494802Y-92904897D01*
X171270247Y-92831934D01*
X171270248Y-92831934D01*
X171037052Y-92795000D01*
X170800948Y-92795000D01*
X170567752Y-92831934D01*
X170343197Y-92904897D01*
X170132830Y-93012084D01*
X170049894Y-93072340D01*
X170748766Y-93771212D01*
X170706708Y-93782482D01*
X170581292Y-93854890D01*
X170478890Y-93957292D01*
X170406482Y-94082708D01*
X170395212Y-94124766D01*
X169696340Y-93425894D01*
X169636084Y-93508830D01*
X169528897Y-93719197D01*
X169455934Y-93943752D01*
X169419000Y-94176947D01*
X169419000Y-94413052D01*
X169455934Y-94646247D01*
X169528897Y-94870802D01*
X169589277Y-94989305D01*
X169602173Y-95057975D01*
X169575897Y-95122715D01*
X169518790Y-95162972D01*
X169478792Y-95169600D01*
X165859208Y-95169600D01*
X165792169Y-95149915D01*
X165746414Y-95097111D01*
X165736470Y-95027953D01*
X165748723Y-94989305D01*
X165809102Y-94870802D01*
X165882065Y-94646247D01*
X165919000Y-94413052D01*
X165919000Y-94176947D01*
X165882065Y-93943752D01*
X165809102Y-93719197D01*
X165701914Y-93508828D01*
X165641658Y-93425894D01*
X165641658Y-93425893D01*
X164942787Y-94124765D01*
X164931518Y-94082708D01*
X164859110Y-93957292D01*
X164756708Y-93854890D01*
X164631292Y-93782482D01*
X164589234Y-93771212D01*
X165288105Y-93072340D01*
X165288104Y-93072339D01*
X165205174Y-93012087D01*
X164994802Y-92904897D01*
X164800399Y-92841731D01*
X164742723Y-92802293D01*
X164715525Y-92737935D01*
X164727440Y-92669088D01*
X164774684Y-92617613D01*
X164838717Y-92599800D01*
X165082508Y-92599800D01*
X165082508Y-92599799D01*
X165167224Y-92582949D01*
X165167225Y-92582949D01*
X165179376Y-92580531D01*
X165203352Y-92575763D01*
X165203357Y-92575760D01*
X165203360Y-92575760D01*
X165236687Y-92561954D01*
X165236686Y-92561954D01*
X165236692Y-92561952D01*
X165317186Y-92528612D01*
X165368409Y-92494384D01*
X165419633Y-92460158D01*
X165506758Y-92373033D01*
X165506758Y-92373031D01*
X165516966Y-92362824D01*
X165516967Y-92362821D01*
X168750572Y-89129219D01*
X168811895Y-89095734D01*
X168838253Y-89092900D01*
X169398736Y-89092900D01*
X169465775Y-89112585D01*
G37*
%TD.AperFunction*%
%TA.AperFunction,Conductor*%
G36*
X179892087Y-86064485D02*
G01*
X179912729Y-86081119D01*
X180146451Y-86314841D01*
X180179936Y-86376164D01*
X180174952Y-86445856D01*
X180133080Y-86501789D01*
X180067616Y-86526206D01*
X180030293Y-86522025D01*
X180030141Y-86522793D01*
X179850196Y-86487000D01*
X179850192Y-86487000D01*
X179850191Y-86487000D01*
X160470309Y-86487000D01*
X160470306Y-86487000D01*
X160296341Y-86521603D01*
X160296332Y-86521606D01*
X160132459Y-86589483D01*
X160132446Y-86589490D01*
X159984965Y-86688035D01*
X159984961Y-86688038D01*
X159859538Y-86813461D01*
X159859535Y-86813465D01*
X159760990Y-86960946D01*
X159760983Y-86960959D01*
X159693106Y-87124832D01*
X159693103Y-87124841D01*
X159658500Y-87298804D01*
X159658500Y-87476195D01*
X159693103Y-87650158D01*
X159693106Y-87650167D01*
X159760983Y-87814040D01*
X159760990Y-87814053D01*
X159859535Y-87961534D01*
X159859538Y-87961538D01*
X159984961Y-88086961D01*
X159984965Y-88086964D01*
X160132446Y-88185509D01*
X160132459Y-88185516D01*
X160230785Y-88226243D01*
X160296334Y-88253394D01*
X160296336Y-88253394D01*
X160296341Y-88253396D01*
X160470304Y-88287999D01*
X160470307Y-88288000D01*
X160470309Y-88288000D01*
X163558771Y-88288000D01*
X163625810Y-88307685D01*
X163671565Y-88360489D01*
X163681509Y-88429647D01*
X163652484Y-88493203D01*
X163631657Y-88512318D01*
X163607795Y-88529655D01*
X163441490Y-88650483D01*
X163441488Y-88650485D01*
X163441487Y-88650485D01*
X163274485Y-88817487D01*
X163274485Y-88817488D01*
X163274483Y-88817490D01*
X163214862Y-88899550D01*
X163135657Y-89008566D01*
X163028433Y-89219003D01*
X162955446Y-89443631D01*
X162918500Y-89676902D01*
X162918500Y-89913097D01*
X162955446Y-90146368D01*
X163028433Y-90370996D01*
X163135657Y-90581433D01*
X163274483Y-90772510D01*
X163441490Y-90939517D01*
X163632567Y-91078343D01*
X163699362Y-91112377D01*
X163703166Y-91114315D01*
X163753962Y-91162290D01*
X163770757Y-91230111D01*
X163748220Y-91296246D01*
X163693504Y-91339697D01*
X163646871Y-91348800D01*
X161327051Y-91348800D01*
X161260012Y-91329115D01*
X161214257Y-91276311D01*
X161204313Y-91207153D01*
X161233338Y-91143597D01*
X161258160Y-91121698D01*
X161283151Y-91104999D01*
X161291435Y-91099464D01*
X161416864Y-90974035D01*
X161515413Y-90826547D01*
X161583294Y-90662666D01*
X161583385Y-90662213D01*
X161610014Y-90528338D01*
X161610014Y-90528336D01*
X161612111Y-90517797D01*
X161615651Y-90499998D01*
X161617900Y-90488693D01*
X161617900Y-90311305D01*
X161583295Y-90137340D01*
X161583294Y-90137334D01*
X161558579Y-90077666D01*
X161555039Y-90069119D01*
X161515416Y-89973458D01*
X161515409Y-89973446D01*
X161416865Y-89825966D01*
X161378898Y-89787999D01*
X161291435Y-89700536D01*
X161034530Y-89443631D01*
X160166441Y-88575540D01*
X160166438Y-88575537D01*
X160096797Y-88529005D01*
X160018944Y-88476985D01*
X160018942Y-88476984D01*
X159937007Y-88443046D01*
X159937006Y-88443046D01*
X159855066Y-88409105D01*
X159855058Y-88409103D01*
X159681096Y-88374500D01*
X159681092Y-88374500D01*
X159681091Y-88374500D01*
X159405868Y-88374500D01*
X159338829Y-88354815D01*
X159317653Y-88335616D01*
X159316819Y-88336451D01*
X159187657Y-88207289D01*
X159187656Y-88207288D01*
X159038334Y-88115186D01*
X158953157Y-88086961D01*
X158871798Y-88060001D01*
X158871792Y-88060000D01*
X158817892Y-88054493D01*
X158753201Y-88028095D01*
X158742816Y-88018816D01*
X157836539Y-87112538D01*
X157836155Y-87112281D01*
X157751458Y-87055689D01*
X157751456Y-87055688D01*
X157751456Y-87055687D01*
X157689044Y-87013985D01*
X157689042Y-87013984D01*
X157607107Y-86980046D01*
X157607106Y-86980046D01*
X157525166Y-86946105D01*
X157525158Y-86946103D01*
X157351196Y-86911500D01*
X157351192Y-86911500D01*
X157351191Y-86911500D01*
X155353309Y-86911500D01*
X155353306Y-86911500D01*
X155179341Y-86946103D01*
X155179332Y-86946106D01*
X155015459Y-87013983D01*
X155015446Y-87013990D01*
X154867966Y-87112534D01*
X154867964Y-87112537D01*
X153967317Y-88013181D01*
X153905994Y-88046666D01*
X153879637Y-88049500D01*
X153678999Y-88049500D01*
X153678980Y-88049501D01*
X153576203Y-88060000D01*
X153576200Y-88060001D01*
X153409668Y-88115185D01*
X153409663Y-88115187D01*
X153260342Y-88207289D01*
X153136288Y-88331343D01*
X153136283Y-88331349D01*
X153134241Y-88334661D01*
X153132247Y-88336453D01*
X153131807Y-88337011D01*
X153131711Y-88336935D01*
X153082291Y-88381383D01*
X153013328Y-88392602D01*
X152949247Y-88364755D01*
X152923168Y-88334656D01*
X152921319Y-88331659D01*
X152921316Y-88331655D01*
X152797345Y-88207684D01*
X152648124Y-88115643D01*
X152648119Y-88115641D01*
X152481697Y-88060494D01*
X152481690Y-88060493D01*
X152378986Y-88050000D01*
X152329000Y-88050000D01*
X152329000Y-90499999D01*
X152378972Y-90499999D01*
X152378986Y-90499998D01*
X152481697Y-90489505D01*
X152648119Y-90434358D01*
X152648124Y-90434356D01*
X152797345Y-90342315D01*
X152921318Y-90218342D01*
X152923165Y-90215348D01*
X152924969Y-90213724D01*
X152925798Y-90212677D01*
X152925976Y-90212818D01*
X152975110Y-90168621D01*
X153044073Y-90157396D01*
X153108156Y-90185236D01*
X153134243Y-90215341D01*
X153136288Y-90218656D01*
X153260344Y-90342712D01*
X153409666Y-90434814D01*
X153576203Y-90489999D01*
X153678991Y-90500500D01*
X154279008Y-90500499D01*
X154279016Y-90500498D01*
X154279019Y-90500498D01*
X154335302Y-90494748D01*
X154381797Y-90489999D01*
X154548334Y-90434814D01*
X154697656Y-90342712D01*
X154821712Y-90218656D01*
X154913814Y-90069334D01*
X154968999Y-89902797D01*
X154979500Y-89800009D01*
X154979500Y-89799986D01*
X155569001Y-89799986D01*
X155579494Y-89902697D01*
X155634641Y-90069119D01*
X155634643Y-90069124D01*
X155726684Y-90218345D01*
X155850654Y-90342315D01*
X155999875Y-90434356D01*
X155999880Y-90434358D01*
X156166302Y-90489505D01*
X156166309Y-90489506D01*
X156269019Y-90499999D01*
X156318999Y-90499998D01*
X156319000Y-90499998D01*
X156319000Y-89525000D01*
X155569001Y-89525000D01*
X155569001Y-89799986D01*
X154979500Y-89799986D01*
X154979499Y-89599360D01*
X154988144Y-89569915D01*
X154994667Y-89539933D01*
X154998419Y-89534919D01*
X154999183Y-89532321D01*
X155015813Y-89511684D01*
X155466180Y-89061318D01*
X155527502Y-89027834D01*
X155553860Y-89025000D01*
X156445000Y-89025000D01*
X156512039Y-89044685D01*
X156557794Y-89097489D01*
X156569000Y-89149000D01*
X156569000Y-89275000D01*
X156695000Y-89275000D01*
X156762039Y-89294685D01*
X156807794Y-89347489D01*
X156819000Y-89399000D01*
X156819000Y-90499999D01*
X156868972Y-90499999D01*
X156868986Y-90499998D01*
X156971697Y-90489505D01*
X157138119Y-90434358D01*
X157138124Y-90434356D01*
X157287345Y-90342315D01*
X157411318Y-90218342D01*
X157413165Y-90215348D01*
X157414969Y-90213724D01*
X157415798Y-90212677D01*
X157415976Y-90212818D01*
X157465110Y-90168621D01*
X157534073Y-90157396D01*
X157598156Y-90185236D01*
X157624243Y-90215341D01*
X157626288Y-90218656D01*
X157750344Y-90342712D01*
X157899666Y-90434814D01*
X158066203Y-90489999D01*
X158168991Y-90500500D01*
X158769008Y-90500499D01*
X158769016Y-90500498D01*
X158769019Y-90500498D01*
X158825302Y-90494748D01*
X158871797Y-90489999D01*
X159038334Y-90434814D01*
X159187656Y-90342712D01*
X159199449Y-90330917D01*
X159260769Y-90297430D01*
X159330461Y-90302411D01*
X159374815Y-90330914D01*
X160017936Y-90974035D01*
X160093713Y-91049812D01*
X160143366Y-91099465D01*
X160176640Y-91121698D01*
X160221445Y-91175310D01*
X160230152Y-91244635D01*
X160199998Y-91307663D01*
X160140555Y-91344382D01*
X160107749Y-91348800D01*
X158231689Y-91348800D01*
X158171271Y-91360818D01*
X158133559Y-91368319D01*
X158110850Y-91372836D01*
X158110848Y-91372837D01*
X158077507Y-91386647D01*
X157997019Y-91419984D01*
X157997005Y-91419992D01*
X157894572Y-91488438D01*
X157894564Y-91488444D01*
X155789980Y-93593029D01*
X155728657Y-93626514D01*
X155658965Y-93621530D01*
X155603032Y-93579658D01*
X155578615Y-93514194D01*
X155578299Y-93505348D01*
X155578299Y-92744998D01*
X155578298Y-92744981D01*
X155567799Y-92642203D01*
X155567798Y-92642200D01*
X155541205Y-92561949D01*
X155512614Y-92475666D01*
X155420512Y-92326344D01*
X155296456Y-92202288D01*
X155147134Y-92110186D01*
X154980597Y-92055001D01*
X154980595Y-92055000D01*
X154877810Y-92044500D01*
X153277798Y-92044500D01*
X153277781Y-92044501D01*
X153175003Y-92055000D01*
X153175000Y-92055001D01*
X153008468Y-92110185D01*
X153008463Y-92110187D01*
X152859142Y-92202289D01*
X152735089Y-92326342D01*
X152642987Y-92475663D01*
X152642985Y-92475668D01*
X152625442Y-92528609D01*
X152587801Y-92642203D01*
X152587801Y-92642204D01*
X152587800Y-92642204D01*
X152577300Y-92744983D01*
X152577300Y-93364900D01*
X152557615Y-93431939D01*
X152504811Y-93477694D01*
X152453300Y-93488900D01*
X150158000Y-93488900D01*
X150090961Y-93469215D01*
X150045206Y-93416411D01*
X150034000Y-93364900D01*
X150034000Y-89799986D01*
X151079001Y-89799986D01*
X151089494Y-89902697D01*
X151144641Y-90069119D01*
X151144643Y-90069124D01*
X151236684Y-90218345D01*
X151360654Y-90342315D01*
X151509875Y-90434356D01*
X151509880Y-90434358D01*
X151676302Y-90489505D01*
X151676309Y-90489506D01*
X151779019Y-90499999D01*
X151828999Y-90499998D01*
X151829000Y-90499998D01*
X151829000Y-89525000D01*
X151079001Y-89525000D01*
X151079001Y-89799986D01*
X150034000Y-89799986D01*
X150034000Y-88750013D01*
X151079000Y-88750013D01*
X151079000Y-89025000D01*
X151829000Y-89025000D01*
X151829000Y-88050000D01*
X151828999Y-88049999D01*
X151779029Y-88050000D01*
X151779011Y-88050001D01*
X151676302Y-88060494D01*
X151509880Y-88115641D01*
X151509875Y-88115643D01*
X151360654Y-88207684D01*
X151236684Y-88331654D01*
X151144643Y-88480875D01*
X151144641Y-88480880D01*
X151089494Y-88647302D01*
X151089493Y-88647309D01*
X151079000Y-88750013D01*
X150034000Y-88750013D01*
X150034000Y-86168800D01*
X150053685Y-86101761D01*
X150106489Y-86056006D01*
X150158000Y-86044800D01*
X179825048Y-86044800D01*
X179892087Y-86064485D01*
G37*
%TD.AperFunction*%
%TA.AperFunction,Conductor*%
G36*
X179404177Y-88307685D02*
G01*
X179424819Y-88324319D01*
X180852181Y-89751680D01*
X180885666Y-89813003D01*
X180888500Y-89839361D01*
X180888500Y-89917351D01*
X180920522Y-90119534D01*
X180983781Y-90314223D01*
X181035140Y-90415018D01*
X181073093Y-90489506D01*
X181076715Y-90496613D01*
X181197028Y-90662213D01*
X181341786Y-90806971D01*
X181473279Y-90902504D01*
X181507390Y-90927287D01*
X181581127Y-90964858D01*
X181600080Y-90974515D01*
X181650876Y-91022490D01*
X181667671Y-91090311D01*
X181645134Y-91156446D01*
X181600080Y-91195485D01*
X181507386Y-91242715D01*
X181341786Y-91363028D01*
X181197028Y-91507786D01*
X181073849Y-91677331D01*
X181072176Y-91676115D01*
X181026792Y-91717169D01*
X180972885Y-91729500D01*
X179339453Y-91729500D01*
X179272414Y-91709815D01*
X179251772Y-91693181D01*
X177678125Y-90119534D01*
X176058270Y-88499680D01*
X176024786Y-88438358D01*
X176029770Y-88368666D01*
X176071642Y-88312733D01*
X176137106Y-88288316D01*
X176145952Y-88288000D01*
X179337138Y-88288000D01*
X179404177Y-88307685D01*
G37*
%TD.AperFunction*%
%TD*%
M02*
