%TF.GenerationSoftware,KiCad,Pcbnew,10.0.5*%
%TF.CreationDate,2026-08-03T02:45:54-07:00*%
%TF.ProjectId,cv-curt,63762d63-7572-4742-9e6b-696361645f70,rev?*%
%TF.SameCoordinates,Original*%
%TF.FileFunction,Legend,Top*%
%TF.FilePolarity,Positive*%
%FSLAX46Y46*%
G04 Gerber Fmt 4.6, Leading zero omitted, Abs format (unit mm)*
G04 Created by KiCad (PCBNEW 10.0.5) date 2026-08-03 02:45:54*
%MOMM*%
%LPD*%
G01*
G04 APERTURE LIST*
%ADD10C,0.150000*%
%ADD11C,0.180000*%
%ADD12C,0.200000*%
%ADD13C,0.120000*%
G04 APERTURE END LIST*
D10*
X141057142Y-165922842D02*
X141014285Y-165965700D01*
X141014285Y-165965700D02*
X140885713Y-166008557D01*
X140885713Y-166008557D02*
X140799999Y-166008557D01*
X140799999Y-166008557D02*
X140671428Y-165965700D01*
X140671428Y-165965700D02*
X140585713Y-165879985D01*
X140585713Y-165879985D02*
X140542856Y-165794271D01*
X140542856Y-165794271D02*
X140499999Y-165622842D01*
X140499999Y-165622842D02*
X140499999Y-165494271D01*
X140499999Y-165494271D02*
X140542856Y-165322842D01*
X140542856Y-165322842D02*
X140585713Y-165237128D01*
X140585713Y-165237128D02*
X140671428Y-165151414D01*
X140671428Y-165151414D02*
X140799999Y-165108557D01*
X140799999Y-165108557D02*
X140885713Y-165108557D01*
X140885713Y-165108557D02*
X141014285Y-165151414D01*
X141014285Y-165151414D02*
X141057142Y-165194271D01*
X141314285Y-165108557D02*
X141614285Y-166008557D01*
X141614285Y-166008557D02*
X141914285Y-165108557D01*
X142214285Y-165665700D02*
X142900000Y-165665700D01*
X143842857Y-165922842D02*
X143800000Y-165965700D01*
X143800000Y-165965700D02*
X143671428Y-166008557D01*
X143671428Y-166008557D02*
X143585714Y-166008557D01*
X143585714Y-166008557D02*
X143457143Y-165965700D01*
X143457143Y-165965700D02*
X143371428Y-165879985D01*
X143371428Y-165879985D02*
X143328571Y-165794271D01*
X143328571Y-165794271D02*
X143285714Y-165622842D01*
X143285714Y-165622842D02*
X143285714Y-165494271D01*
X143285714Y-165494271D02*
X143328571Y-165322842D01*
X143328571Y-165322842D02*
X143371428Y-165237128D01*
X143371428Y-165237128D02*
X143457143Y-165151414D01*
X143457143Y-165151414D02*
X143585714Y-165108557D01*
X143585714Y-165108557D02*
X143671428Y-165108557D01*
X143671428Y-165108557D02*
X143800000Y-165151414D01*
X143800000Y-165151414D02*
X143842857Y-165194271D01*
X144228571Y-165108557D02*
X144228571Y-165837128D01*
X144228571Y-165837128D02*
X144271428Y-165922842D01*
X144271428Y-165922842D02*
X144314286Y-165965700D01*
X144314286Y-165965700D02*
X144400000Y-166008557D01*
X144400000Y-166008557D02*
X144571428Y-166008557D01*
X144571428Y-166008557D02*
X144657143Y-165965700D01*
X144657143Y-165965700D02*
X144700000Y-165922842D01*
X144700000Y-165922842D02*
X144742857Y-165837128D01*
X144742857Y-165837128D02*
X144742857Y-165108557D01*
X145685714Y-166008557D02*
X145385714Y-165579985D01*
X145171428Y-166008557D02*
X145171428Y-165108557D01*
X145171428Y-165108557D02*
X145514285Y-165108557D01*
X145514285Y-165108557D02*
X145600000Y-165151414D01*
X145600000Y-165151414D02*
X145642857Y-165194271D01*
X145642857Y-165194271D02*
X145685714Y-165279985D01*
X145685714Y-165279985D02*
X145685714Y-165408557D01*
X145685714Y-165408557D02*
X145642857Y-165494271D01*
X145642857Y-165494271D02*
X145600000Y-165537128D01*
X145600000Y-165537128D02*
X145514285Y-165579985D01*
X145514285Y-165579985D02*
X145171428Y-165579985D01*
X145942857Y-165108557D02*
X146457143Y-165108557D01*
X146200000Y-166008557D02*
X146200000Y-165108557D01*
X148642856Y-166008557D02*
X148342856Y-165579985D01*
X148128570Y-166008557D02*
X148128570Y-165108557D01*
X148128570Y-165108557D02*
X148471427Y-165108557D01*
X148471427Y-165108557D02*
X148557142Y-165151414D01*
X148557142Y-165151414D02*
X148599999Y-165194271D01*
X148599999Y-165194271D02*
X148642856Y-165279985D01*
X148642856Y-165279985D02*
X148642856Y-165408557D01*
X148642856Y-165408557D02*
X148599999Y-165494271D01*
X148599999Y-165494271D02*
X148557142Y-165537128D01*
X148557142Y-165537128D02*
X148471427Y-165579985D01*
X148471427Y-165579985D02*
X148128570Y-165579985D01*
X149028570Y-165537128D02*
X149328570Y-165537128D01*
X149457142Y-166008557D02*
X149028570Y-166008557D01*
X149028570Y-166008557D02*
X149028570Y-165108557D01*
X149028570Y-165108557D02*
X149457142Y-165108557D01*
X149714285Y-165108557D02*
X150014285Y-166008557D01*
X150014285Y-166008557D02*
X150314285Y-165108557D01*
X151257142Y-165751414D02*
X151685714Y-165751414D01*
X151171428Y-166008557D02*
X151471428Y-165108557D01*
X151471428Y-165108557D02*
X151771428Y-166008557D01*
X153828571Y-165965700D02*
X153742856Y-166008557D01*
X153742856Y-166008557D02*
X153571428Y-166008557D01*
X153571428Y-166008557D02*
X153485713Y-165965700D01*
X153485713Y-165965700D02*
X153442856Y-165922842D01*
X153442856Y-165922842D02*
X153399999Y-165837128D01*
X153399999Y-165837128D02*
X153399999Y-165579985D01*
X153399999Y-165579985D02*
X153442856Y-165494271D01*
X153442856Y-165494271D02*
X153485713Y-165451414D01*
X153485713Y-165451414D02*
X153571428Y-165408557D01*
X153571428Y-165408557D02*
X153742856Y-165408557D01*
X153742856Y-165408557D02*
X153828571Y-165451414D01*
X154214285Y-166008557D02*
X154214285Y-165408557D01*
X154214285Y-165108557D02*
X154171428Y-165151414D01*
X154171428Y-165151414D02*
X154214285Y-165194271D01*
X154214285Y-165194271D02*
X154257142Y-165151414D01*
X154257142Y-165151414D02*
X154214285Y-165108557D01*
X154214285Y-165108557D02*
X154214285Y-165194271D01*
X154642856Y-166008557D02*
X154642856Y-165408557D01*
X154642856Y-165579985D02*
X154685713Y-165494271D01*
X154685713Y-165494271D02*
X154728571Y-165451414D01*
X154728571Y-165451414D02*
X154814285Y-165408557D01*
X154814285Y-165408557D02*
X154899999Y-165408557D01*
X155585714Y-165965700D02*
X155499999Y-166008557D01*
X155499999Y-166008557D02*
X155328571Y-166008557D01*
X155328571Y-166008557D02*
X155242856Y-165965700D01*
X155242856Y-165965700D02*
X155199999Y-165922842D01*
X155199999Y-165922842D02*
X155157142Y-165837128D01*
X155157142Y-165837128D02*
X155157142Y-165579985D01*
X155157142Y-165579985D02*
X155199999Y-165494271D01*
X155199999Y-165494271D02*
X155242856Y-165451414D01*
X155242856Y-165451414D02*
X155328571Y-165408557D01*
X155328571Y-165408557D02*
X155499999Y-165408557D01*
X155499999Y-165408557D02*
X155585714Y-165451414D01*
X156357143Y-165408557D02*
X156357143Y-166008557D01*
X155971428Y-165408557D02*
X155971428Y-165879985D01*
X155971428Y-165879985D02*
X156014285Y-165965700D01*
X156014285Y-165965700D02*
X156100000Y-166008557D01*
X156100000Y-166008557D02*
X156228571Y-166008557D01*
X156228571Y-166008557D02*
X156314285Y-165965700D01*
X156314285Y-165965700D02*
X156357143Y-165922842D01*
X156700000Y-165408557D02*
X156914286Y-166008557D01*
X156914286Y-166008557D02*
X157128571Y-165408557D01*
X157814285Y-165965700D02*
X157728571Y-166008557D01*
X157728571Y-166008557D02*
X157557143Y-166008557D01*
X157557143Y-166008557D02*
X157471428Y-165965700D01*
X157471428Y-165965700D02*
X157428571Y-165879985D01*
X157428571Y-165879985D02*
X157428571Y-165537128D01*
X157428571Y-165537128D02*
X157471428Y-165451414D01*
X157471428Y-165451414D02*
X157557143Y-165408557D01*
X157557143Y-165408557D02*
X157728571Y-165408557D01*
X157728571Y-165408557D02*
X157814285Y-165451414D01*
X157814285Y-165451414D02*
X157857143Y-165537128D01*
X157857143Y-165537128D02*
X157857143Y-165622842D01*
X157857143Y-165622842D02*
X157428571Y-165708557D01*
X158242857Y-165408557D02*
X158242857Y-166008557D01*
X158242857Y-165494271D02*
X158285714Y-165451414D01*
X158285714Y-165451414D02*
X158371429Y-165408557D01*
X158371429Y-165408557D02*
X158500000Y-165408557D01*
X158500000Y-165408557D02*
X158585714Y-165451414D01*
X158585714Y-165451414D02*
X158628572Y-165537128D01*
X158628572Y-165537128D02*
X158628572Y-166008557D01*
X158928572Y-165408557D02*
X159271429Y-165408557D01*
X159057143Y-165108557D02*
X159057143Y-165879985D01*
X159057143Y-165879985D02*
X159100000Y-165965700D01*
X159100000Y-165965700D02*
X159185715Y-166008557D01*
X159185715Y-166008557D02*
X159271429Y-166008557D01*
X159571429Y-165922842D02*
X159614286Y-165965700D01*
X159614286Y-165965700D02*
X159571429Y-166008557D01*
X159571429Y-166008557D02*
X159528572Y-165965700D01*
X159528572Y-165965700D02*
X159571429Y-165922842D01*
X159571429Y-165922842D02*
X159571429Y-166008557D01*
X160385715Y-165965700D02*
X160300000Y-166008557D01*
X160300000Y-166008557D02*
X160128572Y-166008557D01*
X160128572Y-166008557D02*
X160042857Y-165965700D01*
X160042857Y-165965700D02*
X160000000Y-165922842D01*
X160000000Y-165922842D02*
X159957143Y-165837128D01*
X159957143Y-165837128D02*
X159957143Y-165579985D01*
X159957143Y-165579985D02*
X160000000Y-165494271D01*
X160000000Y-165494271D02*
X160042857Y-165451414D01*
X160042857Y-165451414D02*
X160128572Y-165408557D01*
X160128572Y-165408557D02*
X160300000Y-165408557D01*
X160300000Y-165408557D02*
X160385715Y-165451414D01*
X160900001Y-166008557D02*
X160814286Y-165965700D01*
X160814286Y-165965700D02*
X160771429Y-165922842D01*
X160771429Y-165922842D02*
X160728572Y-165837128D01*
X160728572Y-165837128D02*
X160728572Y-165579985D01*
X160728572Y-165579985D02*
X160771429Y-165494271D01*
X160771429Y-165494271D02*
X160814286Y-165451414D01*
X160814286Y-165451414D02*
X160900001Y-165408557D01*
X160900001Y-165408557D02*
X161028572Y-165408557D01*
X161028572Y-165408557D02*
X161114286Y-165451414D01*
X161114286Y-165451414D02*
X161157144Y-165494271D01*
X161157144Y-165494271D02*
X161200001Y-165579985D01*
X161200001Y-165579985D02*
X161200001Y-165837128D01*
X161200001Y-165837128D02*
X161157144Y-165922842D01*
X161157144Y-165922842D02*
X161114286Y-165965700D01*
X161114286Y-165965700D02*
X161028572Y-166008557D01*
X161028572Y-166008557D02*
X160900001Y-166008557D01*
X161585715Y-166008557D02*
X161585715Y-165408557D01*
X161585715Y-165494271D02*
X161628572Y-165451414D01*
X161628572Y-165451414D02*
X161714287Y-165408557D01*
X161714287Y-165408557D02*
X161842858Y-165408557D01*
X161842858Y-165408557D02*
X161928572Y-165451414D01*
X161928572Y-165451414D02*
X161971430Y-165537128D01*
X161971430Y-165537128D02*
X161971430Y-166008557D01*
X161971430Y-165537128D02*
X162014287Y-165451414D01*
X162014287Y-165451414D02*
X162100001Y-165408557D01*
X162100001Y-165408557D02*
X162228572Y-165408557D01*
X162228572Y-165408557D02*
X162314287Y-165451414D01*
X162314287Y-165451414D02*
X162357144Y-165537128D01*
X162357144Y-165537128D02*
X162357144Y-166008557D01*
D11*
X103857142Y-164553259D02*
X103523809Y-164077068D01*
X103285714Y-164553259D02*
X103285714Y-163553259D01*
X103285714Y-163553259D02*
X103666666Y-163553259D01*
X103666666Y-163553259D02*
X103761904Y-163600878D01*
X103761904Y-163600878D02*
X103809523Y-163648497D01*
X103809523Y-163648497D02*
X103857142Y-163743735D01*
X103857142Y-163743735D02*
X103857142Y-163886592D01*
X103857142Y-163886592D02*
X103809523Y-163981830D01*
X103809523Y-163981830D02*
X103761904Y-164029449D01*
X103761904Y-164029449D02*
X103666666Y-164077068D01*
X103666666Y-164077068D02*
X103285714Y-164077068D01*
X104285714Y-164553259D02*
X104285714Y-163553259D01*
X104714285Y-164505640D02*
X104857142Y-164553259D01*
X104857142Y-164553259D02*
X105095237Y-164553259D01*
X105095237Y-164553259D02*
X105190475Y-164505640D01*
X105190475Y-164505640D02*
X105238094Y-164458020D01*
X105238094Y-164458020D02*
X105285713Y-164362782D01*
X105285713Y-164362782D02*
X105285713Y-164267544D01*
X105285713Y-164267544D02*
X105238094Y-164172306D01*
X105238094Y-164172306D02*
X105190475Y-164124687D01*
X105190475Y-164124687D02*
X105095237Y-164077068D01*
X105095237Y-164077068D02*
X104904761Y-164029449D01*
X104904761Y-164029449D02*
X104809523Y-163981830D01*
X104809523Y-163981830D02*
X104761904Y-163934211D01*
X104761904Y-163934211D02*
X104714285Y-163838973D01*
X104714285Y-163838973D02*
X104714285Y-163743735D01*
X104714285Y-163743735D02*
X104761904Y-163648497D01*
X104761904Y-163648497D02*
X104809523Y-163600878D01*
X104809523Y-163600878D02*
X104904761Y-163553259D01*
X104904761Y-163553259D02*
X105142856Y-163553259D01*
X105142856Y-163553259D02*
X105285713Y-163600878D01*
X105714285Y-164553259D02*
X105714285Y-163553259D01*
X106285713Y-164553259D02*
X105857142Y-163981830D01*
X106285713Y-163553259D02*
X105714285Y-164124687D01*
X107666666Y-163553259D02*
X107857142Y-163553259D01*
X107857142Y-163553259D02*
X107952380Y-163600878D01*
X107952380Y-163600878D02*
X108047618Y-163696116D01*
X108047618Y-163696116D02*
X108095237Y-163886592D01*
X108095237Y-163886592D02*
X108095237Y-164219925D01*
X108095237Y-164219925D02*
X108047618Y-164410401D01*
X108047618Y-164410401D02*
X107952380Y-164505640D01*
X107952380Y-164505640D02*
X107857142Y-164553259D01*
X107857142Y-164553259D02*
X107666666Y-164553259D01*
X107666666Y-164553259D02*
X107571428Y-164505640D01*
X107571428Y-164505640D02*
X107476190Y-164410401D01*
X107476190Y-164410401D02*
X107428571Y-164219925D01*
X107428571Y-164219925D02*
X107428571Y-163886592D01*
X107428571Y-163886592D02*
X107476190Y-163696116D01*
X107476190Y-163696116D02*
X107571428Y-163600878D01*
X107571428Y-163600878D02*
X107666666Y-163553259D01*
X108857142Y-164029449D02*
X108523809Y-164029449D01*
X108523809Y-164553259D02*
X108523809Y-163553259D01*
X108523809Y-163553259D02*
X108999999Y-163553259D01*
X110095238Y-164505640D02*
X110238095Y-164553259D01*
X110238095Y-164553259D02*
X110476190Y-164553259D01*
X110476190Y-164553259D02*
X110571428Y-164505640D01*
X110571428Y-164505640D02*
X110619047Y-164458020D01*
X110619047Y-164458020D02*
X110666666Y-164362782D01*
X110666666Y-164362782D02*
X110666666Y-164267544D01*
X110666666Y-164267544D02*
X110619047Y-164172306D01*
X110619047Y-164172306D02*
X110571428Y-164124687D01*
X110571428Y-164124687D02*
X110476190Y-164077068D01*
X110476190Y-164077068D02*
X110285714Y-164029449D01*
X110285714Y-164029449D02*
X110190476Y-163981830D01*
X110190476Y-163981830D02*
X110142857Y-163934211D01*
X110142857Y-163934211D02*
X110095238Y-163838973D01*
X110095238Y-163838973D02*
X110095238Y-163743735D01*
X110095238Y-163743735D02*
X110142857Y-163648497D01*
X110142857Y-163648497D02*
X110190476Y-163600878D01*
X110190476Y-163600878D02*
X110285714Y-163553259D01*
X110285714Y-163553259D02*
X110523809Y-163553259D01*
X110523809Y-163553259D02*
X110666666Y-163600878D01*
X111095238Y-164553259D02*
X111095238Y-163553259D01*
X111095238Y-164029449D02*
X111666666Y-164029449D01*
X111666666Y-164553259D02*
X111666666Y-163553259D01*
X112333333Y-163553259D02*
X112523809Y-163553259D01*
X112523809Y-163553259D02*
X112619047Y-163600878D01*
X112619047Y-163600878D02*
X112714285Y-163696116D01*
X112714285Y-163696116D02*
X112761904Y-163886592D01*
X112761904Y-163886592D02*
X112761904Y-164219925D01*
X112761904Y-164219925D02*
X112714285Y-164410401D01*
X112714285Y-164410401D02*
X112619047Y-164505640D01*
X112619047Y-164505640D02*
X112523809Y-164553259D01*
X112523809Y-164553259D02*
X112333333Y-164553259D01*
X112333333Y-164553259D02*
X112238095Y-164505640D01*
X112238095Y-164505640D02*
X112142857Y-164410401D01*
X112142857Y-164410401D02*
X112095238Y-164219925D01*
X112095238Y-164219925D02*
X112095238Y-163886592D01*
X112095238Y-163886592D02*
X112142857Y-163696116D01*
X112142857Y-163696116D02*
X112238095Y-163600878D01*
X112238095Y-163600878D02*
X112333333Y-163553259D01*
X113761904Y-164458020D02*
X113714285Y-164505640D01*
X113714285Y-164505640D02*
X113571428Y-164553259D01*
X113571428Y-164553259D02*
X113476190Y-164553259D01*
X113476190Y-164553259D02*
X113333333Y-164505640D01*
X113333333Y-164505640D02*
X113238095Y-164410401D01*
X113238095Y-164410401D02*
X113190476Y-164315163D01*
X113190476Y-164315163D02*
X113142857Y-164124687D01*
X113142857Y-164124687D02*
X113142857Y-163981830D01*
X113142857Y-163981830D02*
X113190476Y-163791354D01*
X113190476Y-163791354D02*
X113238095Y-163696116D01*
X113238095Y-163696116D02*
X113333333Y-163600878D01*
X113333333Y-163600878D02*
X113476190Y-163553259D01*
X113476190Y-163553259D02*
X113571428Y-163553259D01*
X113571428Y-163553259D02*
X113714285Y-163600878D01*
X113714285Y-163600878D02*
X113761904Y-163648497D01*
X114190476Y-164553259D02*
X114190476Y-163553259D01*
X114761904Y-164553259D02*
X114333333Y-163981830D01*
X114761904Y-163553259D02*
X114190476Y-164124687D01*
D12*
X141080718Y-100040715D02*
X141133099Y-99988334D01*
X141133099Y-99988334D02*
X141185479Y-100040715D01*
X141185479Y-100040715D02*
X141133099Y-100093096D01*
X141133099Y-100093096D02*
X141080718Y-100040715D01*
X141080718Y-100040715D02*
X141185479Y-100040715D01*
X140766432Y-100040715D02*
X140137860Y-100093096D01*
X140137860Y-100093096D02*
X140085479Y-100040715D01*
X140085479Y-100040715D02*
X140137860Y-99988334D01*
X140137860Y-99988334D02*
X140766432Y-100040715D01*
X140766432Y-100040715D02*
X140085479Y-100040715D01*
X141080718Y-99516905D02*
X141133099Y-99464524D01*
X141133099Y-99464524D02*
X141185479Y-99516905D01*
X141185479Y-99516905D02*
X141133099Y-99569286D01*
X141133099Y-99569286D02*
X141080718Y-99516905D01*
X141080718Y-99516905D02*
X141185479Y-99516905D01*
X140766432Y-99516905D02*
X140137860Y-99569286D01*
X140137860Y-99569286D02*
X140085479Y-99516905D01*
X140085479Y-99516905D02*
X140137860Y-99464524D01*
X140137860Y-99464524D02*
X140766432Y-99516905D01*
X140766432Y-99516905D02*
X140085479Y-99516905D01*
X141185479Y-98155000D02*
X140085479Y-98155000D01*
X140085479Y-98155000D02*
X140871194Y-97788333D01*
X140871194Y-97788333D02*
X140085479Y-97421666D01*
X140085479Y-97421666D02*
X141185479Y-97421666D01*
X140871194Y-96950238D02*
X140871194Y-96426428D01*
X141185479Y-97055000D02*
X140085479Y-96688333D01*
X140085479Y-96688333D02*
X141185479Y-96321666D01*
X141185479Y-95955000D02*
X140085479Y-95955000D01*
X141185479Y-95431190D02*
X140085479Y-95431190D01*
X140085479Y-95431190D02*
X141185479Y-94802618D01*
X141185479Y-94802618D02*
X140085479Y-94802618D01*
X141133099Y-94331190D02*
X141185479Y-94174047D01*
X141185479Y-94174047D02*
X141185479Y-93912142D01*
X141185479Y-93912142D02*
X141133099Y-93807380D01*
X141133099Y-93807380D02*
X141080718Y-93754999D01*
X141080718Y-93754999D02*
X140975956Y-93702618D01*
X140975956Y-93702618D02*
X140871194Y-93702618D01*
X140871194Y-93702618D02*
X140766432Y-93754999D01*
X140766432Y-93754999D02*
X140714051Y-93807380D01*
X140714051Y-93807380D02*
X140661670Y-93912142D01*
X140661670Y-93912142D02*
X140609289Y-94121666D01*
X140609289Y-94121666D02*
X140556908Y-94226428D01*
X140556908Y-94226428D02*
X140504527Y-94278809D01*
X140504527Y-94278809D02*
X140399765Y-94331190D01*
X140399765Y-94331190D02*
X140295003Y-94331190D01*
X140295003Y-94331190D02*
X140190241Y-94278809D01*
X140190241Y-94278809D02*
X140137860Y-94226428D01*
X140137860Y-94226428D02*
X140085479Y-94121666D01*
X140085479Y-94121666D02*
X140085479Y-93859761D01*
X140085479Y-93859761D02*
X140137860Y-93702618D01*
X141080718Y-92393095D02*
X141133099Y-92340714D01*
X141133099Y-92340714D02*
X141185479Y-92393095D01*
X141185479Y-92393095D02*
X141133099Y-92445476D01*
X141133099Y-92445476D02*
X141080718Y-92393095D01*
X141080718Y-92393095D02*
X141185479Y-92393095D01*
X140766432Y-92393095D02*
X140137860Y-92445476D01*
X140137860Y-92445476D02*
X140085479Y-92393095D01*
X140085479Y-92393095D02*
X140137860Y-92340714D01*
X140137860Y-92340714D02*
X140766432Y-92393095D01*
X140766432Y-92393095D02*
X140085479Y-92393095D01*
X141080718Y-91869285D02*
X141133099Y-91816904D01*
X141133099Y-91816904D02*
X141185479Y-91869285D01*
X141185479Y-91869285D02*
X141133099Y-91921666D01*
X141133099Y-91921666D02*
X141080718Y-91869285D01*
X141080718Y-91869285D02*
X141185479Y-91869285D01*
X140766432Y-91869285D02*
X140137860Y-91921666D01*
X140137860Y-91921666D02*
X140085479Y-91869285D01*
X140085479Y-91869285D02*
X140137860Y-91816904D01*
X140137860Y-91816904D02*
X140766432Y-91869285D01*
X140766432Y-91869285D02*
X140085479Y-91869285D01*
X140850001Y-82930457D02*
X140792858Y-82987600D01*
X140792858Y-82987600D02*
X140621430Y-83044742D01*
X140621430Y-83044742D02*
X140507144Y-83044742D01*
X140507144Y-83044742D02*
X140335715Y-82987600D01*
X140335715Y-82987600D02*
X140221430Y-82873314D01*
X140221430Y-82873314D02*
X140164287Y-82759028D01*
X140164287Y-82759028D02*
X140107144Y-82530457D01*
X140107144Y-82530457D02*
X140107144Y-82359028D01*
X140107144Y-82359028D02*
X140164287Y-82130457D01*
X140164287Y-82130457D02*
X140221430Y-82016171D01*
X140221430Y-82016171D02*
X140335715Y-81901885D01*
X140335715Y-81901885D02*
X140507144Y-81844742D01*
X140507144Y-81844742D02*
X140621430Y-81844742D01*
X140621430Y-81844742D02*
X140792858Y-81901885D01*
X140792858Y-81901885D02*
X140850001Y-81959028D01*
X141364287Y-83044742D02*
X141364287Y-82244742D01*
X141364287Y-81844742D02*
X141307144Y-81901885D01*
X141307144Y-81901885D02*
X141364287Y-81959028D01*
X141364287Y-81959028D02*
X141421430Y-81901885D01*
X141421430Y-81901885D02*
X141364287Y-81844742D01*
X141364287Y-81844742D02*
X141364287Y-81959028D01*
X141935716Y-83044742D02*
X141935716Y-82244742D01*
X141935716Y-82473314D02*
X141992859Y-82359028D01*
X141992859Y-82359028D02*
X142050002Y-82301885D01*
X142050002Y-82301885D02*
X142164287Y-82244742D01*
X142164287Y-82244742D02*
X142278573Y-82244742D01*
X143192859Y-82987600D02*
X143078573Y-83044742D01*
X143078573Y-83044742D02*
X142850001Y-83044742D01*
X142850001Y-83044742D02*
X142735716Y-82987600D01*
X142735716Y-82987600D02*
X142678573Y-82930457D01*
X142678573Y-82930457D02*
X142621430Y-82816171D01*
X142621430Y-82816171D02*
X142621430Y-82473314D01*
X142621430Y-82473314D02*
X142678573Y-82359028D01*
X142678573Y-82359028D02*
X142735716Y-82301885D01*
X142735716Y-82301885D02*
X142850001Y-82244742D01*
X142850001Y-82244742D02*
X143078573Y-82244742D01*
X143078573Y-82244742D02*
X143192859Y-82301885D01*
X144221430Y-82244742D02*
X144221430Y-83044742D01*
X143707144Y-82244742D02*
X143707144Y-82873314D01*
X143707144Y-82873314D02*
X143764287Y-82987600D01*
X143764287Y-82987600D02*
X143878572Y-83044742D01*
X143878572Y-83044742D02*
X144050001Y-83044742D01*
X144050001Y-83044742D02*
X144164287Y-82987600D01*
X144164287Y-82987600D02*
X144221430Y-82930457D01*
X144678572Y-82244742D02*
X144964286Y-83044742D01*
X144964286Y-83044742D02*
X145250001Y-82244742D01*
X146164287Y-82987600D02*
X146050001Y-83044742D01*
X146050001Y-83044742D02*
X145821430Y-83044742D01*
X145821430Y-83044742D02*
X145707144Y-82987600D01*
X145707144Y-82987600D02*
X145650001Y-82873314D01*
X145650001Y-82873314D02*
X145650001Y-82416171D01*
X145650001Y-82416171D02*
X145707144Y-82301885D01*
X145707144Y-82301885D02*
X145821430Y-82244742D01*
X145821430Y-82244742D02*
X146050001Y-82244742D01*
X146050001Y-82244742D02*
X146164287Y-82301885D01*
X146164287Y-82301885D02*
X146221430Y-82416171D01*
X146221430Y-82416171D02*
X146221430Y-82530457D01*
X146221430Y-82530457D02*
X145650001Y-82644742D01*
X146735715Y-82244742D02*
X146735715Y-83044742D01*
X146735715Y-82359028D02*
X146792858Y-82301885D01*
X146792858Y-82301885D02*
X146907143Y-82244742D01*
X146907143Y-82244742D02*
X147078572Y-82244742D01*
X147078572Y-82244742D02*
X147192858Y-82301885D01*
X147192858Y-82301885D02*
X147250001Y-82416171D01*
X147250001Y-82416171D02*
X147250001Y-83044742D01*
X147650000Y-82244742D02*
X148107143Y-82244742D01*
X147821429Y-81844742D02*
X147821429Y-82873314D01*
X147821429Y-82873314D02*
X147878572Y-82987600D01*
X147878572Y-82987600D02*
X147992857Y-83044742D01*
X147992857Y-83044742D02*
X148107143Y-83044742D01*
X150107143Y-82930457D02*
X150050000Y-82987600D01*
X150050000Y-82987600D02*
X149878572Y-83044742D01*
X149878572Y-83044742D02*
X149764286Y-83044742D01*
X149764286Y-83044742D02*
X149592857Y-82987600D01*
X149592857Y-82987600D02*
X149478572Y-82873314D01*
X149478572Y-82873314D02*
X149421429Y-82759028D01*
X149421429Y-82759028D02*
X149364286Y-82530457D01*
X149364286Y-82530457D02*
X149364286Y-82359028D01*
X149364286Y-82359028D02*
X149421429Y-82130457D01*
X149421429Y-82130457D02*
X149478572Y-82016171D01*
X149478572Y-82016171D02*
X149592857Y-81901885D01*
X149592857Y-81901885D02*
X149764286Y-81844742D01*
X149764286Y-81844742D02*
X149878572Y-81844742D01*
X149878572Y-81844742D02*
X150050000Y-81901885D01*
X150050000Y-81901885D02*
X150107143Y-81959028D01*
X151135715Y-82244742D02*
X151135715Y-83044742D01*
X150621429Y-82244742D02*
X150621429Y-82873314D01*
X150621429Y-82873314D02*
X150678572Y-82987600D01*
X150678572Y-82987600D02*
X150792857Y-83044742D01*
X150792857Y-83044742D02*
X150964286Y-83044742D01*
X150964286Y-83044742D02*
X151078572Y-82987600D01*
X151078572Y-82987600D02*
X151135715Y-82930457D01*
X151707143Y-83044742D02*
X151707143Y-82244742D01*
X151707143Y-82473314D02*
X151764286Y-82359028D01*
X151764286Y-82359028D02*
X151821429Y-82301885D01*
X151821429Y-82301885D02*
X151935714Y-82244742D01*
X151935714Y-82244742D02*
X152050000Y-82244742D01*
X152278571Y-82244742D02*
X152735714Y-82244742D01*
X152450000Y-81844742D02*
X152450000Y-82873314D01*
X152450000Y-82873314D02*
X152507143Y-82987600D01*
X152507143Y-82987600D02*
X152621428Y-83044742D01*
X152621428Y-83044742D02*
X152735714Y-83044742D01*
X153650000Y-83044742D02*
X153650000Y-82416171D01*
X153650000Y-82416171D02*
X153592857Y-82301885D01*
X153592857Y-82301885D02*
X153478571Y-82244742D01*
X153478571Y-82244742D02*
X153250000Y-82244742D01*
X153250000Y-82244742D02*
X153135714Y-82301885D01*
X153650000Y-82987600D02*
X153535714Y-83044742D01*
X153535714Y-83044742D02*
X153250000Y-83044742D01*
X153250000Y-83044742D02*
X153135714Y-82987600D01*
X153135714Y-82987600D02*
X153078571Y-82873314D01*
X153078571Y-82873314D02*
X153078571Y-82759028D01*
X153078571Y-82759028D02*
X153135714Y-82644742D01*
X153135714Y-82644742D02*
X153250000Y-82587600D01*
X153250000Y-82587600D02*
X153535714Y-82587600D01*
X153535714Y-82587600D02*
X153650000Y-82530457D01*
X154221428Y-83044742D02*
X154221428Y-82244742D01*
X154221428Y-81844742D02*
X154164285Y-81901885D01*
X154164285Y-81901885D02*
X154221428Y-81959028D01*
X154221428Y-81959028D02*
X154278571Y-81901885D01*
X154278571Y-81901885D02*
X154221428Y-81844742D01*
X154221428Y-81844742D02*
X154221428Y-81959028D01*
X154792857Y-82244742D02*
X154792857Y-83044742D01*
X154792857Y-82359028D02*
X154850000Y-82301885D01*
X154850000Y-82301885D02*
X154964285Y-82244742D01*
X154964285Y-82244742D02*
X155135714Y-82244742D01*
X155135714Y-82244742D02*
X155250000Y-82301885D01*
X155250000Y-82301885D02*
X155307143Y-82416171D01*
X155307143Y-82416171D02*
X155307143Y-83044742D01*
X157478571Y-82930457D02*
X157421428Y-82987600D01*
X157421428Y-82987600D02*
X157250000Y-83044742D01*
X157250000Y-83044742D02*
X157135714Y-83044742D01*
X157135714Y-83044742D02*
X156964285Y-82987600D01*
X156964285Y-82987600D02*
X156850000Y-82873314D01*
X156850000Y-82873314D02*
X156792857Y-82759028D01*
X156792857Y-82759028D02*
X156735714Y-82530457D01*
X156735714Y-82530457D02*
X156735714Y-82359028D01*
X156735714Y-82359028D02*
X156792857Y-82130457D01*
X156792857Y-82130457D02*
X156850000Y-82016171D01*
X156850000Y-82016171D02*
X156964285Y-81901885D01*
X156964285Y-81901885D02*
X157135714Y-81844742D01*
X157135714Y-81844742D02*
X157250000Y-81844742D01*
X157250000Y-81844742D02*
X157421428Y-81901885D01*
X157421428Y-81901885D02*
X157478571Y-81959028D01*
X158164285Y-83044742D02*
X158050000Y-82987600D01*
X158050000Y-82987600D02*
X157992857Y-82930457D01*
X157992857Y-82930457D02*
X157935714Y-82816171D01*
X157935714Y-82816171D02*
X157935714Y-82473314D01*
X157935714Y-82473314D02*
X157992857Y-82359028D01*
X157992857Y-82359028D02*
X158050000Y-82301885D01*
X158050000Y-82301885D02*
X158164285Y-82244742D01*
X158164285Y-82244742D02*
X158335714Y-82244742D01*
X158335714Y-82244742D02*
X158450000Y-82301885D01*
X158450000Y-82301885D02*
X158507143Y-82359028D01*
X158507143Y-82359028D02*
X158564285Y-82473314D01*
X158564285Y-82473314D02*
X158564285Y-82816171D01*
X158564285Y-82816171D02*
X158507143Y-82930457D01*
X158507143Y-82930457D02*
X158450000Y-82987600D01*
X158450000Y-82987600D02*
X158335714Y-83044742D01*
X158335714Y-83044742D02*
X158164285Y-83044742D01*
X159078571Y-82244742D02*
X159078571Y-83044742D01*
X159078571Y-82359028D02*
X159135714Y-82301885D01*
X159135714Y-82301885D02*
X159249999Y-82244742D01*
X159249999Y-82244742D02*
X159421428Y-82244742D01*
X159421428Y-82244742D02*
X159535714Y-82301885D01*
X159535714Y-82301885D02*
X159592857Y-82416171D01*
X159592857Y-82416171D02*
X159592857Y-83044742D01*
X159992856Y-82244742D02*
X160449999Y-82244742D01*
X160164285Y-81844742D02*
X160164285Y-82873314D01*
X160164285Y-82873314D02*
X160221428Y-82987600D01*
X160221428Y-82987600D02*
X160335713Y-83044742D01*
X160335713Y-83044742D02*
X160449999Y-83044742D01*
X160849999Y-83044742D02*
X160849999Y-82244742D01*
X160849999Y-82473314D02*
X160907142Y-82359028D01*
X160907142Y-82359028D02*
X160964285Y-82301885D01*
X160964285Y-82301885D02*
X161078570Y-82244742D01*
X161078570Y-82244742D02*
X161192856Y-82244742D01*
X161764284Y-83044742D02*
X161649999Y-82987600D01*
X161649999Y-82987600D02*
X161592856Y-82930457D01*
X161592856Y-82930457D02*
X161535713Y-82816171D01*
X161535713Y-82816171D02*
X161535713Y-82473314D01*
X161535713Y-82473314D02*
X161592856Y-82359028D01*
X161592856Y-82359028D02*
X161649999Y-82301885D01*
X161649999Y-82301885D02*
X161764284Y-82244742D01*
X161764284Y-82244742D02*
X161935713Y-82244742D01*
X161935713Y-82244742D02*
X162049999Y-82301885D01*
X162049999Y-82301885D02*
X162107142Y-82359028D01*
X162107142Y-82359028D02*
X162164284Y-82473314D01*
X162164284Y-82473314D02*
X162164284Y-82816171D01*
X162164284Y-82816171D02*
X162107142Y-82930457D01*
X162107142Y-82930457D02*
X162049999Y-82987600D01*
X162049999Y-82987600D02*
X161935713Y-83044742D01*
X161935713Y-83044742D02*
X161764284Y-83044742D01*
X162849998Y-83044742D02*
X162735713Y-82987600D01*
X162735713Y-82987600D02*
X162678570Y-82873314D01*
X162678570Y-82873314D02*
X162678570Y-81844742D01*
D10*
X175845095Y-135749819D02*
X175845095Y-134749819D01*
X176416523Y-135749819D02*
X175987952Y-135178390D01*
X176416523Y-134749819D02*
X175845095Y-135321247D01*
X175845095Y-140039819D02*
X175845095Y-139039819D01*
X176416523Y-140039819D02*
X175987952Y-139468390D01*
X176416523Y-139039819D02*
X175845095Y-139611247D01*
%TO.C,TP2*%
D13*
X161933300Y-163500000D02*
G75*
G02*
X160033300Y-163500000I-950000J0D01*
G01*
X160033300Y-163500000D02*
G75*
G02*
X161933300Y-163500000I950000J0D01*
G01*
%TO.C,C2*%
X166765559Y-137356000D02*
X167395559Y-137356000D01*
X167080559Y-137041000D02*
X167080559Y-137671000D01*
X170265800Y-135965000D02*
X170265800Y-142425000D01*
X170305800Y-135965000D02*
X170305800Y-142425000D01*
X170345800Y-135966000D02*
X170345800Y-142424000D01*
X170385800Y-135967000D02*
X170385800Y-142423000D01*
X170425800Y-135969000D02*
X170425800Y-142421000D01*
X170465800Y-135971000D02*
X170465800Y-142419000D01*
X170505800Y-135974000D02*
X170505800Y-138155000D01*
X170505800Y-140235000D02*
X170505800Y-142416000D01*
X170545800Y-135977000D02*
X170545800Y-138155000D01*
X170545800Y-140235000D02*
X170545800Y-142413000D01*
X170585800Y-135981000D02*
X170585800Y-138155000D01*
X170585800Y-140235000D02*
X170585800Y-142409000D01*
X170625800Y-135985000D02*
X170625800Y-138155000D01*
X170625800Y-140235000D02*
X170625800Y-142405000D01*
X170665800Y-135990000D02*
X170665800Y-138155000D01*
X170665800Y-140235000D02*
X170665800Y-142400000D01*
X170705800Y-135995000D02*
X170705800Y-138155000D01*
X170705800Y-140235000D02*
X170705800Y-142395000D01*
X170745800Y-136000000D02*
X170745800Y-138155000D01*
X170745800Y-140235000D02*
X170745800Y-142390000D01*
X170785800Y-136007000D02*
X170785800Y-138155000D01*
X170785800Y-140235000D02*
X170785800Y-142383000D01*
X170825800Y-136013000D02*
X170825800Y-138155000D01*
X170825800Y-140235000D02*
X170825800Y-142377000D01*
X170865800Y-136021000D02*
X170865800Y-138155000D01*
X170865800Y-140235000D02*
X170865800Y-142369000D01*
X170905800Y-136028000D02*
X170905800Y-138155000D01*
X170905800Y-140235000D02*
X170905800Y-142362000D01*
X170945800Y-136036000D02*
X170945800Y-138155000D01*
X170945800Y-140235000D02*
X170945800Y-142354000D01*
X170985800Y-136045000D02*
X170985800Y-138155000D01*
X170985800Y-140235000D02*
X170985800Y-142345000D01*
X171025800Y-136055000D02*
X171025800Y-138155000D01*
X171025800Y-140235000D02*
X171025800Y-142335000D01*
X171065800Y-136064000D02*
X171065800Y-138155000D01*
X171065800Y-140235000D02*
X171065800Y-142326000D01*
X171105800Y-136075000D02*
X171105800Y-138155000D01*
X171105800Y-140235000D02*
X171105800Y-142315000D01*
X171145800Y-136086000D02*
X171145800Y-138155000D01*
X171145800Y-140235000D02*
X171145800Y-142304000D01*
X171185800Y-136097000D02*
X171185800Y-138155000D01*
X171185800Y-140235000D02*
X171185800Y-142293000D01*
X171225800Y-136109000D02*
X171225800Y-138155000D01*
X171225800Y-140235000D02*
X171225800Y-142281000D01*
X171265800Y-136122000D02*
X171265800Y-138155000D01*
X171265800Y-140235000D02*
X171265800Y-142268000D01*
X171305800Y-136135000D02*
X171305800Y-138155000D01*
X171305800Y-140235000D02*
X171305800Y-142255000D01*
X171345800Y-136148000D02*
X171345800Y-138155000D01*
X171345800Y-140235000D02*
X171345800Y-142242000D01*
X171385800Y-136163000D02*
X171385800Y-138155000D01*
X171385800Y-140235000D02*
X171385800Y-142227000D01*
X171425800Y-136178000D02*
X171425800Y-138155000D01*
X171425800Y-140235000D02*
X171425800Y-142212000D01*
X171465800Y-136193000D02*
X171465800Y-138155000D01*
X171465800Y-140235000D02*
X171465800Y-142197000D01*
X171505800Y-136209000D02*
X171505800Y-138155000D01*
X171505800Y-140235000D02*
X171505800Y-142181000D01*
X171545800Y-136226000D02*
X171545800Y-138155000D01*
X171545800Y-140235000D02*
X171545800Y-142164000D01*
X171585800Y-136243000D02*
X171585800Y-138155000D01*
X171585800Y-140235000D02*
X171585800Y-142147000D01*
X171625800Y-136261000D02*
X171625800Y-138155000D01*
X171625800Y-140235000D02*
X171625800Y-142129000D01*
X171665800Y-136280000D02*
X171665800Y-138155000D01*
X171665800Y-140235000D02*
X171665800Y-142110000D01*
X171705800Y-136299000D02*
X171705800Y-138155000D01*
X171705800Y-140235000D02*
X171705800Y-142091000D01*
X171745800Y-136319000D02*
X171745800Y-138155000D01*
X171745800Y-140235000D02*
X171745800Y-142071000D01*
X171785800Y-136340000D02*
X171785800Y-138155000D01*
X171785800Y-140235000D02*
X171785800Y-142050000D01*
X171825800Y-136361000D02*
X171825800Y-138155000D01*
X171825800Y-140235000D02*
X171825800Y-142029000D01*
X171865800Y-136383000D02*
X171865800Y-138155000D01*
X171865800Y-140235000D02*
X171865800Y-142007000D01*
X171905800Y-136406000D02*
X171905800Y-138155000D01*
X171905800Y-140235000D02*
X171905800Y-141984000D01*
X171945800Y-136430000D02*
X171945800Y-138155000D01*
X171945800Y-140235000D02*
X171945800Y-141960000D01*
X171985800Y-136454000D02*
X171985800Y-138155000D01*
X171985800Y-140235000D02*
X171985800Y-141936000D01*
X172025800Y-136479000D02*
X172025800Y-138155000D01*
X172025800Y-140235000D02*
X172025800Y-141911000D01*
X172065800Y-136505000D02*
X172065800Y-138155000D01*
X172065800Y-140235000D02*
X172065800Y-141885000D01*
X172105800Y-136532000D02*
X172105800Y-138155000D01*
X172105800Y-140235000D02*
X172105800Y-141858000D01*
X172145800Y-136559000D02*
X172145800Y-138155000D01*
X172145800Y-140235000D02*
X172145800Y-141831000D01*
X172185800Y-136588000D02*
X172185800Y-138155000D01*
X172185800Y-140235000D02*
X172185800Y-141802000D01*
X172225800Y-136618000D02*
X172225800Y-138155000D01*
X172225800Y-140235000D02*
X172225800Y-141772000D01*
X172265800Y-136648000D02*
X172265800Y-138155000D01*
X172265800Y-140235000D02*
X172265800Y-141742000D01*
X172305800Y-136679000D02*
X172305800Y-138155000D01*
X172305800Y-140235000D02*
X172305800Y-141711000D01*
X172345800Y-136712000D02*
X172345800Y-138155000D01*
X172345800Y-140235000D02*
X172345800Y-141678000D01*
X172385800Y-136745000D02*
X172385800Y-138155000D01*
X172385800Y-140235000D02*
X172385800Y-141645000D01*
X172425800Y-136780000D02*
X172425800Y-138155000D01*
X172425800Y-140235000D02*
X172425800Y-141610000D01*
X172465800Y-136816000D02*
X172465800Y-138155000D01*
X172465800Y-140235000D02*
X172465800Y-141574000D01*
X172505800Y-136853000D02*
X172505800Y-138155000D01*
X172505800Y-140235000D02*
X172505800Y-141537000D01*
X172545800Y-136891000D02*
X172545800Y-138155000D01*
X172545800Y-140235000D02*
X172545800Y-141499000D01*
X172585800Y-136931000D02*
X172585800Y-141459000D01*
X172625800Y-136972000D02*
X172625800Y-141418000D01*
X172665800Y-137014000D02*
X172665800Y-141376000D01*
X172705800Y-137058000D02*
X172705800Y-141332000D01*
X172745800Y-137104000D02*
X172745800Y-141286000D01*
X172785800Y-137151000D02*
X172785800Y-141239000D01*
X172825800Y-137200000D02*
X172825800Y-141190000D01*
X172865800Y-137252000D02*
X172865800Y-141138000D01*
X172905800Y-137305000D02*
X172905800Y-141085000D01*
X172945800Y-137361000D02*
X172945800Y-141029000D01*
X172985800Y-137420000D02*
X172985800Y-140970000D01*
X173025800Y-137481000D02*
X173025800Y-140909000D01*
X173065800Y-137546000D02*
X173065800Y-140844000D01*
X173105800Y-137614000D02*
X173105800Y-140776000D01*
X173145800Y-137686000D02*
X173145800Y-140704000D01*
X173185800Y-137763000D02*
X173185800Y-140627000D01*
X173225800Y-137845000D02*
X173225800Y-140545000D01*
X173265800Y-137934000D02*
X173265800Y-140456000D01*
X173305800Y-138030000D02*
X173305800Y-140360000D01*
X173345800Y-138137000D02*
X173345800Y-140253000D01*
X173385800Y-138256000D02*
X173385800Y-140134000D01*
X173425800Y-138394000D02*
X173425800Y-139996000D01*
X173465800Y-138562000D02*
X173465800Y-139828000D01*
X173505800Y-138793000D02*
X173505800Y-139597000D01*
X173535800Y-139195000D02*
G75*
G02*
X166995800Y-139195000I-3270000J0D01*
G01*
X166995800Y-139195000D02*
G75*
G02*
X173535800Y-139195000I3270000J0D01*
G01*
%TO.C,F1*%
X106545000Y-127845000D02*
X106545000Y-133845000D01*
X106545000Y-133845000D02*
X108095000Y-133845000D01*
X106545000Y-142845000D02*
X106545000Y-148845000D01*
X106545000Y-142845000D02*
X108095000Y-142845000D01*
X106545000Y-148845000D02*
X108095000Y-148845000D01*
X106695000Y-133845000D02*
X106695000Y-142845000D01*
X108095000Y-127845000D02*
X106545000Y-127845000D01*
X110295000Y-127845000D02*
X111845000Y-127845000D01*
X111695000Y-133845000D02*
X111695000Y-142845000D01*
X111845000Y-133845000D02*
X110295000Y-133845000D01*
X111845000Y-133845000D02*
X111845000Y-127845000D01*
X111845000Y-142845000D02*
X110295000Y-142845000D01*
X111845000Y-142845000D02*
X111845000Y-148845000D01*
X111845000Y-148845000D02*
X110295000Y-148845000D01*
%TO.C,D1*%
X177447000Y-137395000D02*
X178467000Y-137395000D01*
X179247000Y-135925000D02*
X179247000Y-138865000D01*
X179367000Y-135925000D02*
X179367000Y-138865000D01*
X179487000Y-135925000D02*
X179487000Y-138865000D01*
X184927000Y-137395000D02*
X183907000Y-137395000D01*
X178467000Y-135925000D02*
X183907000Y-135925000D01*
X183907000Y-138865000D01*
X178467000Y-138865000D01*
X178467000Y-135925000D01*
%TO.C,PS1*%
X128327000Y-88435000D02*
X151047000Y-88435000D01*
X128327000Y-125455000D02*
X128327000Y-88435000D01*
X136891000Y-125455000D02*
X128327000Y-125455000D01*
X151047000Y-88435000D02*
X151047000Y-125455000D01*
X151047000Y-125455000D02*
X137483000Y-125455000D01*
X137187000Y-125455000D02*
X137627000Y-126065000D01*
X136747000Y-126065000D01*
X137187000Y-125455000D01*
G36*
X137627000Y-126065000D02*
G01*
X136747000Y-126065000D01*
X137187000Y-125455000D01*
X137627000Y-126065000D01*
G37*
%TO.C,SW1*%
X190777000Y-90795000D02*
X190777000Y-95295000D01*
X193277000Y-96545000D02*
X194777000Y-96545000D01*
X194777000Y-89545000D02*
X193277000Y-89545000D01*
X197277000Y-95295000D02*
X197277000Y-90795000D01*
%TO.C,K1*%
X128337000Y-126835000D02*
X128337000Y-133435000D01*
X128337000Y-126835000D02*
X148137000Y-126835000D01*
X128337000Y-135835000D02*
X128337000Y-142435000D01*
X132387000Y-134685000D02*
X131587000Y-134685000D01*
X132387000Y-134685000D02*
X132387000Y-138285000D01*
X133287000Y-140685000D02*
X135787000Y-140685000D01*
X133787000Y-132885000D02*
X137787000Y-132885000D01*
X133787000Y-136485000D02*
X133787000Y-132885000D01*
X135787000Y-128685000D02*
X133287000Y-128685000D01*
X135787000Y-128685000D02*
X135787000Y-132885000D01*
X135787000Y-136485000D02*
X135787000Y-140685000D01*
X137787000Y-132885000D02*
X137787000Y-136485000D01*
X137787000Y-136485000D02*
X133787000Y-132885000D01*
X137787000Y-136485000D02*
X133787000Y-136485000D01*
X139187000Y-134685000D02*
X139187000Y-138285000D01*
X139187000Y-134685000D02*
X140687000Y-134685000D01*
X139187000Y-138285000D02*
X132387000Y-138285000D01*
X140687000Y-134685000D02*
X145287000Y-132185000D01*
X143887000Y-130435000D02*
X143887000Y-132935000D01*
X143887000Y-138835000D02*
X143887000Y-136385000D01*
X148137000Y-126835000D02*
X148137000Y-142435000D01*
X148137000Y-142435000D02*
X128337000Y-142435000D01*
%TO.C,SW3*%
X190777000Y-111975000D02*
X190777000Y-116475000D01*
X193277000Y-117725000D02*
X194777000Y-117725000D01*
X194777000Y-110725000D02*
X193277000Y-110725000D01*
X197277000Y-116475000D02*
X197277000Y-111975000D01*
%TO.C,J2*%
X106675000Y-109585000D02*
X121915000Y-109585000D01*
X106675000Y-112605000D02*
X121915000Y-112605000D01*
X106675000Y-117505000D02*
X121915000Y-117505000D01*
X106675000Y-119005000D02*
X121915000Y-119005000D01*
X106675000Y-119625000D02*
X106675000Y-109585000D01*
X108995000Y-119625000D02*
X106675000Y-119625000D01*
X121915000Y-109585000D02*
X121915000Y-119625000D01*
X121915000Y-119625000D02*
X109595000Y-119625000D01*
X109295000Y-119625000D02*
X109735000Y-120235000D01*
X108855000Y-120235000D01*
X109295000Y-119625000D01*
G36*
X109735000Y-120235000D02*
G01*
X108855000Y-120235000D01*
X109295000Y-119625000D01*
X109735000Y-120235000D01*
G37*
%TO.C,U2*%
X181277000Y-144565000D02*
X185037000Y-144565000D01*
X181277000Y-151385000D02*
X185037000Y-151385000D01*
X185037000Y-144565000D02*
X185037000Y-145825000D01*
X185037000Y-151385000D02*
X185037000Y-150125000D01*
X179997000Y-144665000D02*
X179757000Y-144335000D01*
X180237000Y-144335000D01*
X179997000Y-144665000D01*
G36*
X179997000Y-144665000D02*
G01*
X179757000Y-144335000D01*
X180237000Y-144335000D01*
X179997000Y-144665000D01*
G37*
%TO.C,TP1*%
X157933300Y-163500000D02*
G75*
G02*
X156033300Y-163500000I-950000J0D01*
G01*
X156033300Y-163500000D02*
G75*
G02*
X157933300Y-163500000I950000J0D01*
G01*
%TO.C,U1*%
X163032000Y-120680000D02*
X163032000Y-119730000D01*
X164432000Y-120680000D02*
X163032000Y-120680000D01*
X180032000Y-120680000D02*
X181432000Y-120680000D01*
X181432000Y-120680000D02*
X181432000Y-119730000D01*
X163032000Y-101730000D02*
X162532000Y-101730000D01*
X163032000Y-101230000D01*
X163032000Y-101730000D01*
G36*
X163032000Y-101730000D02*
G01*
X162532000Y-101730000D01*
X163032000Y-101230000D01*
X163032000Y-101730000D01*
G37*
%TO.C,LED0*%
X194197000Y-142679000D02*
X194197000Y-142835000D01*
X194197000Y-144995000D02*
X194197000Y-145151000D01*
X194197000Y-142679484D02*
G75*
G02*
X197428437Y-142835000I1560000J-1235516D01*
G01*
X194716039Y-142835000D02*
G75*
G02*
X196797961Y-142835000I1040961J-1080000D01*
G01*
X196797961Y-144995000D02*
G75*
G02*
X194716039Y-144995000I-1040961J1080000D01*
G01*
X197428437Y-144995000D02*
G75*
G02*
X194197000Y-145150516I-1671437J1080000D01*
G01*
%TO.C,JP*%
X189097000Y-142095000D02*
X190477000Y-142095000D01*
X189097000Y-143475000D02*
X189097000Y-142095000D01*
X189097000Y-144745000D02*
X189097000Y-149935000D01*
X189097000Y-144745000D02*
X191857000Y-144745000D01*
X189097000Y-149935000D02*
X191857000Y-149935000D01*
X191857000Y-144745000D02*
X191857000Y-149935000D01*
%TO.C,LED2*%
X173657000Y-145349000D02*
X173657000Y-145505000D01*
X173657000Y-147665000D02*
X173657000Y-147821000D01*
X173657000Y-145349484D02*
G75*
G02*
X176888437Y-145505000I1560000J-1235516D01*
G01*
X174176039Y-145505000D02*
G75*
G02*
X176257961Y-145505000I1040961J-1080000D01*
G01*
X176257961Y-147665000D02*
G75*
G02*
X174176039Y-147665000I-1040961J1080000D01*
G01*
X176888437Y-147665000D02*
G75*
G02*
X173657000Y-147820516I-1671437J1080000D01*
G01*
%TO.C,RV1*%
D10*
X119435000Y-127345000D02*
X122835000Y-127345000D01*
X119435000Y-134345000D02*
X119435000Y-127345000D01*
X119435000Y-134345000D02*
X122835000Y-134345000D01*
X122835000Y-134345000D02*
X122835000Y-127345000D01*
%TO.C,D2*%
D13*
X177447000Y-141685000D02*
X178467000Y-141685000D01*
X179247000Y-140215000D02*
X179247000Y-143155000D01*
X179367000Y-140215000D02*
X179367000Y-143155000D01*
X179487000Y-140215000D02*
X179487000Y-143155000D01*
X184927000Y-141685000D02*
X183907000Y-141685000D01*
X178467000Y-140215000D02*
X183907000Y-140215000D01*
X183907000Y-143155000D01*
X178467000Y-143155000D01*
X178467000Y-140215000D01*
%TO.C,J1*%
X106675000Y-91685000D02*
X121915000Y-91685000D01*
X106675000Y-94705000D02*
X121915000Y-94705000D01*
X106675000Y-99605000D02*
X121915000Y-99605000D01*
X106675000Y-101105000D02*
X121915000Y-101105000D01*
X106675000Y-101725000D02*
X106675000Y-91685000D01*
X108995000Y-101725000D02*
X106675000Y-101725000D01*
X121915000Y-91685000D02*
X121915000Y-101725000D01*
X121915000Y-101725000D02*
X109595000Y-101725000D01*
X109295000Y-101725000D02*
X109735000Y-102335000D01*
X108855000Y-102335000D01*
X109295000Y-101725000D01*
G36*
X109735000Y-102335000D02*
G01*
X108855000Y-102335000D01*
X109295000Y-101725000D01*
X109735000Y-102335000D01*
G37*
%TO.C,U3*%
X190467000Y-122275000D02*
X190467000Y-123925000D01*
X190467000Y-125925000D02*
X190467000Y-127575000D01*
X190467000Y-127575000D02*
X195667000Y-127575000D01*
X195667000Y-122275000D02*
X190467000Y-122275000D01*
X195667000Y-127575000D02*
X195667000Y-122275000D01*
X190467000Y-123925000D02*
G75*
G02*
X190467000Y-125925000I0J-1000000D01*
G01*
%TO.C,C1*%
X155046154Y-138170000D02*
X156046154Y-138170000D01*
X155546154Y-137670000D02*
X155546154Y-138670000D01*
X160525800Y-135965000D02*
X160525800Y-146125000D01*
X160565800Y-135965000D02*
X160565800Y-146125000D01*
X160605800Y-135966000D02*
X160605800Y-146124000D01*
X160645800Y-135966000D02*
X160645800Y-146124000D01*
X160685800Y-135968000D02*
X160685800Y-146122000D01*
X160725800Y-135969000D02*
X160725800Y-146121000D01*
X160765800Y-135971000D02*
X160765800Y-146119000D01*
X160805800Y-135973000D02*
X160805800Y-146117000D01*
X160845800Y-135975000D02*
X160845800Y-146115000D01*
X160885800Y-135978000D02*
X160885800Y-146112000D01*
X160925800Y-135981000D02*
X160925800Y-146109000D01*
X160965800Y-135984000D02*
X160965800Y-146106000D01*
X161005800Y-135988000D02*
X161005800Y-146102000D01*
X161045800Y-135991000D02*
X161045800Y-146099000D01*
X161085800Y-135996000D02*
X161085800Y-146094000D01*
X161125800Y-136000000D02*
X161125800Y-146090000D01*
X161165800Y-136005000D02*
X161165800Y-146085000D01*
X161205800Y-136010000D02*
X161205800Y-146080000D01*
X161245800Y-136016000D02*
X161245800Y-146074000D01*
X161285800Y-136022000D02*
X161285800Y-146068000D01*
X161325800Y-136028000D02*
X161325800Y-146062000D01*
X161365800Y-136034000D02*
X161365800Y-146056000D01*
X161405800Y-136041000D02*
X161405800Y-146049000D01*
X161445800Y-136048000D02*
X161445800Y-146042000D01*
X161485800Y-136056000D02*
X161485800Y-146034000D01*
X161525800Y-136064000D02*
X161525800Y-146026000D01*
X161565800Y-136072000D02*
X161565800Y-146018000D01*
X161605800Y-136080000D02*
X161605800Y-146010000D01*
X161645800Y-136089000D02*
X161645800Y-146001000D01*
X161685800Y-136098000D02*
X161685800Y-145992000D01*
X161725800Y-136108000D02*
X161725800Y-145982000D01*
X161765800Y-136117000D02*
X161765800Y-145973000D01*
X161805800Y-136128000D02*
X161805800Y-139805000D01*
X161805800Y-142285000D02*
X161805800Y-145962000D01*
X161845800Y-136138000D02*
X161845800Y-139805000D01*
X161845800Y-142285000D02*
X161845800Y-145952000D01*
X161885800Y-136149000D02*
X161885800Y-139805000D01*
X161885800Y-142285000D02*
X161885800Y-145941000D01*
X161925800Y-136160000D02*
X161925800Y-139805000D01*
X161925800Y-142285000D02*
X161925800Y-145930000D01*
X161965800Y-136172000D02*
X161965800Y-139805000D01*
X161965800Y-142285000D02*
X161965800Y-145918000D01*
X162005800Y-136184000D02*
X162005800Y-139805000D01*
X162005800Y-142285000D02*
X162005800Y-145906000D01*
X162045800Y-136196000D02*
X162045800Y-139805000D01*
X162045800Y-142285000D02*
X162045800Y-145894000D01*
X162085800Y-136208000D02*
X162085800Y-139805000D01*
X162085800Y-142285000D02*
X162085800Y-145882000D01*
X162125800Y-136221000D02*
X162125800Y-139805000D01*
X162125800Y-142285000D02*
X162125800Y-145869000D01*
X162165800Y-136235000D02*
X162165800Y-139805000D01*
X162165800Y-142285000D02*
X162165800Y-145855000D01*
X162205800Y-136248000D02*
X162205800Y-139805000D01*
X162205800Y-142285000D02*
X162205800Y-145842000D01*
X162245800Y-136263000D02*
X162245800Y-139805000D01*
X162245800Y-142285000D02*
X162245800Y-145827000D01*
X162285800Y-136277000D02*
X162285800Y-139805000D01*
X162285800Y-142285000D02*
X162285800Y-145813000D01*
X162325800Y-136292000D02*
X162325800Y-139805000D01*
X162325800Y-142285000D02*
X162325800Y-145798000D01*
X162365800Y-136307000D02*
X162365800Y-139805000D01*
X162365800Y-142285000D02*
X162365800Y-145783000D01*
X162405800Y-136323000D02*
X162405800Y-139805000D01*
X162405800Y-142285000D02*
X162405800Y-145767000D01*
X162445800Y-136339000D02*
X162445800Y-139805000D01*
X162445800Y-142285000D02*
X162445800Y-145751000D01*
X162485800Y-136355000D02*
X162485800Y-139805000D01*
X162485800Y-142285000D02*
X162485800Y-145735000D01*
X162525800Y-136372000D02*
X162525800Y-139805000D01*
X162525800Y-142285000D02*
X162525800Y-145718000D01*
X162565800Y-136389000D02*
X162565800Y-139805000D01*
X162565800Y-142285000D02*
X162565800Y-145701000D01*
X162605800Y-136407000D02*
X162605800Y-139805000D01*
X162605800Y-142285000D02*
X162605800Y-145683000D01*
X162645800Y-136425000D02*
X162645800Y-139805000D01*
X162645800Y-142285000D02*
X162645800Y-145665000D01*
X162685800Y-136443000D02*
X162685800Y-139805000D01*
X162685800Y-142285000D02*
X162685800Y-145647000D01*
X162725800Y-136462000D02*
X162725800Y-139805000D01*
X162725800Y-142285000D02*
X162725800Y-145628000D01*
X162765800Y-136481000D02*
X162765800Y-139805000D01*
X162765800Y-142285000D02*
X162765800Y-145609000D01*
X162805800Y-136501000D02*
X162805800Y-139805000D01*
X162805800Y-142285000D02*
X162805800Y-145589000D01*
X162845800Y-136521000D02*
X162845800Y-139805000D01*
X162845800Y-142285000D02*
X162845800Y-145569000D01*
X162885800Y-136541000D02*
X162885800Y-139805000D01*
X162885800Y-142285000D02*
X162885800Y-145549000D01*
X162925800Y-136562000D02*
X162925800Y-139805000D01*
X162925800Y-142285000D02*
X162925800Y-145528000D01*
X162965800Y-136584000D02*
X162965800Y-139805000D01*
X162965800Y-142285000D02*
X162965800Y-145506000D01*
X163005800Y-136606000D02*
X163005800Y-139805000D01*
X163005800Y-142285000D02*
X163005800Y-145484000D01*
X163045800Y-136628000D02*
X163045800Y-139805000D01*
X163045800Y-142285000D02*
X163045800Y-145462000D01*
X163085800Y-136651000D02*
X163085800Y-139805000D01*
X163085800Y-142285000D02*
X163085800Y-145439000D01*
X163125800Y-136674000D02*
X163125800Y-139805000D01*
X163125800Y-142285000D02*
X163125800Y-145416000D01*
X163165800Y-136698000D02*
X163165800Y-139805000D01*
X163165800Y-142285000D02*
X163165800Y-145392000D01*
X163205800Y-136722000D02*
X163205800Y-139805000D01*
X163205800Y-142285000D02*
X163205800Y-145368000D01*
X163245800Y-136747000D02*
X163245800Y-139805000D01*
X163245800Y-142285000D02*
X163245800Y-145343000D01*
X163285800Y-136773000D02*
X163285800Y-139805000D01*
X163285800Y-142285000D02*
X163285800Y-145317000D01*
X163325800Y-136798000D02*
X163325800Y-139805000D01*
X163325800Y-142285000D02*
X163325800Y-145292000D01*
X163365800Y-136825000D02*
X163365800Y-139805000D01*
X163365800Y-142285000D02*
X163365800Y-145265000D01*
X163405800Y-136852000D02*
X163405800Y-139805000D01*
X163405800Y-142285000D02*
X163405800Y-145238000D01*
X163445800Y-136879000D02*
X163445800Y-139805000D01*
X163445800Y-142285000D02*
X163445800Y-145211000D01*
X163485800Y-136907000D02*
X163485800Y-139805000D01*
X163485800Y-142285000D02*
X163485800Y-145183000D01*
X163525800Y-136936000D02*
X163525800Y-139805000D01*
X163525800Y-142285000D02*
X163525800Y-145154000D01*
X163565800Y-136965000D02*
X163565800Y-139805000D01*
X163565800Y-142285000D02*
X163565800Y-145125000D01*
X163605800Y-136995000D02*
X163605800Y-139805000D01*
X163605800Y-142285000D02*
X163605800Y-145095000D01*
X163645800Y-137025000D02*
X163645800Y-139805000D01*
X163645800Y-142285000D02*
X163645800Y-145065000D01*
X163685800Y-137057000D02*
X163685800Y-139805000D01*
X163685800Y-142285000D02*
X163685800Y-145033000D01*
X163725800Y-137088000D02*
X163725800Y-139805000D01*
X163725800Y-142285000D02*
X163725800Y-145002000D01*
X163765800Y-137121000D02*
X163765800Y-139805000D01*
X163765800Y-142285000D02*
X163765800Y-144969000D01*
X163805800Y-137154000D02*
X163805800Y-139805000D01*
X163805800Y-142285000D02*
X163805800Y-144936000D01*
X163845800Y-137187000D02*
X163845800Y-139805000D01*
X163845800Y-142285000D02*
X163845800Y-144903000D01*
X163885800Y-137222000D02*
X163885800Y-139805000D01*
X163885800Y-142285000D02*
X163885800Y-144868000D01*
X163925800Y-137257000D02*
X163925800Y-139805000D01*
X163925800Y-142285000D02*
X163925800Y-144833000D01*
X163965800Y-137293000D02*
X163965800Y-139805000D01*
X163965800Y-142285000D02*
X163965800Y-144797000D01*
X164005800Y-137329000D02*
X164005800Y-139805000D01*
X164005800Y-142285000D02*
X164005800Y-144761000D01*
X164045800Y-137367000D02*
X164045800Y-139805000D01*
X164045800Y-142285000D02*
X164045800Y-144723000D01*
X164085800Y-137405000D02*
X164085800Y-139805000D01*
X164085800Y-142285000D02*
X164085800Y-144685000D01*
X164125800Y-137444000D02*
X164125800Y-139805000D01*
X164125800Y-142285000D02*
X164125800Y-144646000D01*
X164165800Y-137484000D02*
X164165800Y-139805000D01*
X164165800Y-142285000D02*
X164165800Y-144606000D01*
X164205800Y-137525000D02*
X164205800Y-139805000D01*
X164205800Y-142285000D02*
X164205800Y-144565000D01*
X164245800Y-137567000D02*
X164245800Y-139805000D01*
X164245800Y-142285000D02*
X164245800Y-144523000D01*
X164285800Y-137610000D02*
X164285800Y-144480000D01*
X164325800Y-137654000D02*
X164325800Y-144436000D01*
X164365800Y-137698000D02*
X164365800Y-144392000D01*
X164405800Y-137744000D02*
X164405800Y-144346000D01*
X164445800Y-137791000D02*
X164445800Y-144299000D01*
X164485800Y-137840000D02*
X164485800Y-144250000D01*
X164525800Y-137889000D02*
X164525800Y-144201000D01*
X164565800Y-137940000D02*
X164565800Y-144150000D01*
X164605800Y-137992000D02*
X164605800Y-144098000D01*
X164645800Y-138045000D02*
X164645800Y-144045000D01*
X164685800Y-138100000D02*
X164685800Y-143990000D01*
X164725800Y-138157000D02*
X164725800Y-143933000D01*
X164765800Y-138215000D02*
X164765800Y-143875000D01*
X164805800Y-138275000D02*
X164805800Y-143815000D01*
X164845800Y-138337000D02*
X164845800Y-143753000D01*
X164885800Y-138401000D02*
X164885800Y-143689000D01*
X164925800Y-138467000D02*
X164925800Y-143623000D01*
X164965800Y-138535000D02*
X164965800Y-143555000D01*
X165005800Y-138606000D02*
X165005800Y-143484000D01*
X165045800Y-138680000D02*
X165045800Y-143410000D01*
X165085800Y-138757000D02*
X165085800Y-143333000D01*
X165125800Y-138837000D02*
X165125800Y-143253000D01*
X165165800Y-138921000D02*
X165165800Y-143169000D01*
X165205800Y-139008000D02*
X165205800Y-143082000D01*
X165245800Y-139101000D02*
X165245800Y-142989000D01*
X165285800Y-139199000D02*
X165285800Y-142891000D01*
X165325800Y-139303000D02*
X165325800Y-142787000D01*
X165365800Y-139415000D02*
X165365800Y-142675000D01*
X165405800Y-139536000D02*
X165405800Y-142554000D01*
X165445800Y-139668000D02*
X165445800Y-142422000D01*
X165485800Y-139815000D02*
X165485800Y-142275000D01*
X165525800Y-139983000D02*
X165525800Y-142107000D01*
X165565800Y-140183000D02*
X165565800Y-141907000D01*
X165605800Y-140446000D02*
X165605800Y-141644000D01*
X165645800Y-141045000D02*
G75*
G02*
X155405800Y-141045000I-5120000J0D01*
G01*
X155405800Y-141045000D02*
G75*
G02*
X165645800Y-141045000I5120000J0D01*
G01*
%TO.C,U4*%
X190467000Y-133095000D02*
X190467000Y-134745000D01*
X190467000Y-136745000D02*
X190467000Y-138395000D01*
X190467000Y-138395000D02*
X195667000Y-138395000D01*
X195667000Y-133095000D02*
X190467000Y-133095000D01*
X195667000Y-138395000D02*
X195667000Y-133095000D01*
X190467000Y-134745000D02*
G75*
G02*
X190467000Y-136745000I0J-1000000D01*
G01*
%TO.C,TP3*%
X165933300Y-163500000D02*
G75*
G02*
X164033300Y-163500000I-950000J0D01*
G01*
X164033300Y-163500000D02*
G75*
G02*
X165933300Y-163500000I950000J0D01*
G01*
%TO.C,SW2*%
X190777000Y-101385000D02*
X190777000Y-105885000D01*
X193277000Y-107135000D02*
X194777000Y-107135000D01*
X194777000Y-100135000D02*
X193277000Y-100135000D01*
X197277000Y-105885000D02*
X197277000Y-101385000D01*
%TO.C,K2*%
X128337000Y-143825000D02*
X128337000Y-150425000D01*
X128337000Y-143825000D02*
X148137000Y-143825000D01*
X128337000Y-152825000D02*
X128337000Y-159425000D01*
X132387000Y-151675000D02*
X131587000Y-151675000D01*
X132387000Y-151675000D02*
X132387000Y-155275000D01*
X133287000Y-157675000D02*
X135787000Y-157675000D01*
X133787000Y-149875000D02*
X137787000Y-149875000D01*
X133787000Y-153475000D02*
X133787000Y-149875000D01*
X135787000Y-145675000D02*
X133287000Y-145675000D01*
X135787000Y-145675000D02*
X135787000Y-149875000D01*
X135787000Y-153475000D02*
X135787000Y-157675000D01*
X137787000Y-149875000D02*
X137787000Y-153475000D01*
X137787000Y-153475000D02*
X133787000Y-149875000D01*
X137787000Y-153475000D02*
X133787000Y-153475000D01*
X139187000Y-151675000D02*
X139187000Y-155275000D01*
X139187000Y-151675000D02*
X140687000Y-151675000D01*
X139187000Y-155275000D02*
X132387000Y-155275000D01*
X140687000Y-151675000D02*
X145287000Y-149175000D01*
X143887000Y-147425000D02*
X143887000Y-149925000D01*
X143887000Y-155825000D02*
X143887000Y-153375000D01*
X148137000Y-143825000D02*
X148137000Y-159425000D01*
X148137000Y-159425000D02*
X128337000Y-159425000D01*
%TO.C,LED1*%
X167727000Y-144659000D02*
X167727000Y-144815000D01*
X167727000Y-146975000D02*
X167727000Y-147131000D01*
X167727000Y-144659484D02*
G75*
G02*
X170958437Y-144815000I1560000J-1235516D01*
G01*
X168246039Y-144815000D02*
G75*
G02*
X170327961Y-144815000I1040961J-1080000D01*
G01*
X170327961Y-146975000D02*
G75*
G02*
X168246039Y-146975000I-1040961J1080000D01*
G01*
X170958437Y-146975000D02*
G75*
G02*
X167727000Y-147130516I-1671437J1080000D01*
G01*
%TD*%
M02*
