M48
; DRILL file KiCad 10.0.5 date 2026-08-03T02:45:55
; FORMAT={-:-/ absolute / metric / decimal}
; #@! TF.CreationDate,2026-08-03T02:45:55-07:00
; #@! TF.GenerationSoftware,Kicad,Pcbnew,10.0.5
; #@! TF.FileFunction,Plated,1,2,PTH
FMAT,2
METRIC
; #@! TA.AperFunction,Plated,PTH,ComponentDrill
T1C0.200
; #@! TA.AperFunction,Plated,PTH,ViaDrill
T2C0.300
; #@! TA.AperFunction,Plated,PTH,ViaDrill
T3C0.400
; #@! TA.AperFunction,Plated,PTH,ComponentDrill
T4C0.600
; #@! TA.AperFunction,Plated,PTH,ComponentDrill
T5C0.800
; #@! TA.AperFunction,Plated,PTH,ComponentDrill
T6C0.900
; #@! TA.AperFunction,Plated,PTH,ComponentDrill
T7C1.000
; #@! TA.AperFunction,Plated,PTH,ComponentDrill
T8C1.050
; #@! TA.AperFunction,Plated,PTH,ComponentDrill
T9C1.100
; #@! TA.AperFunction,Plated,PTH,ComponentDrill
T10C1.300
%
G90
G05
T1
X169.332Y-109.49
X169.332Y-110.89
X170.032Y-108.79
X170.032Y-110.19
X170.032Y-111.59
X170.732Y-109.49
X170.732Y-110.89
X171.432Y-108.79
X171.432Y-110.19
X171.432Y-111.59
X172.132Y-109.49
X172.132Y-110.89
T2
X160.042Y-111.625
X160.282Y-142.712
X163.79Y-137.086
X165.358Y-109.929
X166.18Y-113.063
X167.133Y-137.53
X168.493Y-128.464
X171.918Y-144.221
X171.977Y-129.379
X180.21Y-126.071
X187.534Y-140.612
X193.662Y-137.289
X195.351Y-127.639
X197.599Y-138.295
T3
X154.128Y-138.841
X155.732Y-82.75
X155.732Y-86.25
X155.732Y-89.75
X155.732Y-93.25
X155.732Y-96.75
X155.732Y-100.25
X155.732Y-103.75
X155.732Y-107.25
X155.732Y-110.75
X155.732Y-114.25
X155.732Y-117.75
X155.732Y-121.25
X155.732Y-124.75
X155.732Y-128.25
X155.732Y-131.75
X155.732Y-138.75
X155.732Y-149.25
X155.732Y-152.75
X155.732Y-156.25
X155.732Y-159.75
X156.977Y-138.006
X157.386Y-119.594
X159.232Y-82.75
X159.232Y-86.25
X159.232Y-89.75
X159.232Y-93.25
X159.232Y-96.75
X159.232Y-100.25
X159.232Y-103.75
X159.232Y-107.25
X159.232Y-110.75
X159.232Y-114.25
X159.232Y-117.75
X159.232Y-121.25
X159.232Y-124.75
X159.232Y-128.25
X159.232Y-131.75
X159.232Y-138.75
X159.232Y-145.75
X159.232Y-149.25
X159.232Y-152.75
X159.232Y-156.25
X159.232Y-159.75
X160.697Y-145.956
X161.332Y-102.47
X162.732Y-82.75
X162.732Y-86.25
X162.732Y-89.75
X162.732Y-93.25
X162.732Y-121.25
X162.732Y-124.75
X162.732Y-128.25
X162.732Y-131.75
X162.732Y-138.75
X162.732Y-149.25
X162.732Y-152.75
X162.732Y-156.25
X162.732Y-159.75
X164.212Y-145.696
X166.232Y-82.75
X166.232Y-86.25
X166.232Y-89.75
X166.232Y-93.25
X166.232Y-103.75
X166.232Y-107.25
X166.232Y-110.75
X166.232Y-114.25
X166.232Y-117.75
X166.232Y-124.75
X166.232Y-128.25
X166.232Y-131.75
X166.232Y-149.25
X166.232Y-152.75
X166.232Y-156.25
X166.232Y-159.75
X167.133Y-163.5
X168.017Y-148.195
X169.732Y-82.75
X169.732Y-86.25
X169.732Y-89.75
X169.732Y-93.25
X169.732Y-103.75
X169.732Y-107.25
X169.732Y-114.25
X169.732Y-117.75
X169.732Y-124.75
X169.732Y-128.25
X169.732Y-131.75
X169.732Y-135.25
X169.732Y-149.25
X169.732Y-152.75
X169.732Y-156.25
X169.732Y-159.75
X169.732Y-163.25
X173.232Y-82.75
X173.232Y-86.25
X173.232Y-89.75
X173.232Y-93.25
X173.232Y-103.75
X173.232Y-107.25
X173.232Y-110.75
X173.232Y-114.25
X173.232Y-117.75
X173.232Y-124.75
X173.232Y-128.25
X173.232Y-131.75
X173.232Y-135.25
X173.232Y-142.25
X173.232Y-149.25
X173.232Y-152.75
X173.232Y-156.25
X173.232Y-159.75
X173.232Y-163.25
X173.716Y-139.195
X173.947Y-148.885
X176.732Y-82.75
X176.732Y-86.25
X176.732Y-89.75
X176.732Y-93.25
X176.732Y-103.75
X176.732Y-107.25
X176.732Y-110.75
X176.732Y-114.25
X176.732Y-117.75
X176.732Y-124.75
X176.732Y-128.25
X176.732Y-131.75
X176.732Y-149.25
X176.732Y-152.75
X176.732Y-156.25
X176.732Y-159.75
X176.732Y-163.25
X180.232Y-82.75
X180.232Y-86.25
X180.232Y-89.75
X180.232Y-93.25
X180.232Y-121.25
X180.232Y-124.75
X180.232Y-128.25
X180.232Y-131.75
X180.232Y-135.25
X180.232Y-138.75
X180.232Y-142.25
X180.232Y-152.75
X180.232Y-156.25
X180.232Y-159.75
X180.232Y-163.25
X183.018Y-142.634
X183.132Y-102.47
X183.732Y-82.75
X183.732Y-86.25
X183.732Y-89.75
X183.732Y-93.25
X183.732Y-96.75
X183.732Y-100.25
X183.732Y-103.75
X183.732Y-107.25
X183.732Y-110.75
X183.732Y-114.25
X183.732Y-117.75
X183.732Y-121.25
X183.732Y-124.75
X183.732Y-128.25
X183.732Y-131.75
X183.732Y-135.25
X183.732Y-138.75
X183.732Y-142.25
X183.732Y-152.75
X183.732Y-156.25
X183.732Y-159.75
X183.732Y-163.25
X183.829Y-148.901
X187.232Y-82.75
X187.232Y-86.25
X187.232Y-89.75
X187.232Y-93.25
X187.232Y-96.75
X187.232Y-100.25
X187.232Y-103.75
X187.232Y-107.25
X187.232Y-110.75
X187.232Y-114.25
X187.232Y-117.75
X187.232Y-121.25
X187.232Y-124.75
X187.232Y-128.25
X187.232Y-131.75
X187.232Y-135.25
X187.232Y-152.75
X187.232Y-156.25
X187.232Y-159.75
X187.232Y-163.25
X190.477Y-150.805
X190.732Y-82.75
X190.732Y-86.25
X190.732Y-93.25
X190.732Y-103.75
X190.732Y-114.25
X190.732Y-124.75
X190.732Y-135.25
X190.732Y-152.75
X190.732Y-156.25
X190.732Y-159.75
X194.232Y-82.75
X194.232Y-86.25
X194.232Y-93.25
X194.232Y-103.75
X194.232Y-114.25
X194.232Y-124.75
X194.232Y-135.25
X194.232Y-149.25
X194.232Y-152.75
X194.232Y-156.25
X194.232Y-159.75
X194.232Y-163.25
X194.337Y-126.535
X194.487Y-141.615
X195.317Y-136.5
X195.446Y-123.884
X195.446Y-125.841
X195.454Y-134.938
X197.732Y-82.75
X197.732Y-86.25
X197.732Y-93.25
X197.732Y-103.75
X197.732Y-114.25
X197.732Y-149.25
X197.732Y-152.75
X197.732Y-156.25
X197.732Y-159.75
X198.677Y-89.795
X198.677Y-96.295
X198.677Y-100.385
X198.677Y-106.885
X198.677Y-110.975
X198.677Y-117.475
T4
X120.485Y-133.345
X121.785Y-128.345
T5
X169.016Y-139.195
X171.516Y-139.195
X191.797Y-121.115
X191.797Y-128.735
X191.797Y-131.935
X191.797Y-139.555
X194.337Y-121.115
X194.337Y-128.735
X194.337Y-131.935
X194.337Y-139.555
T6
X168.017Y-145.895
X170.557Y-145.895
X173.947Y-146.585
X176.487Y-146.585
X194.487Y-143.915
X197.027Y-143.915
T7
X131.687Y-128.685
X131.687Y-140.685
X131.687Y-145.675
X131.687Y-157.675
X132.187Y-92.405
X137.187Y-121.485
X142.187Y-121.485
X147.187Y-92.405
X158.026Y-141.045
X163.026Y-141.045
X190.477Y-143.475
X190.477Y-146.015
X190.477Y-148.555
T8
X109.195Y-128.345
X109.195Y-133.345
X109.195Y-143.345
X109.195Y-148.345
T9
X176.107Y-137.395
X176.107Y-141.685
X186.267Y-137.395
X186.267Y-141.685
X191.777Y-89.795
X191.777Y-96.295
X191.777Y-100.385
X191.777Y-106.885
X191.777Y-110.975
X191.777Y-117.475
X196.277Y-89.795
X196.277Y-96.295
X196.277Y-100.385
X196.277Y-106.885
X196.277Y-110.975
X196.277Y-117.475
T10
X109.295Y-97.005
X109.295Y-114.905
X114.295Y-97.005
X114.295Y-114.905
X119.295Y-97.005
X119.295Y-114.905
X129.737Y-134.635
X129.737Y-151.625
X143.887Y-140.685
X143.887Y-157.675
X143.937Y-128.635
X143.937Y-145.625
M30
