%TF.GenerationSoftware,KiCad,Pcbnew,10.0.5*%
%TF.CreationDate,2026-08-03T02:45:54-07:00*%
%TF.ProjectId,cv-curt,63762d63-7572-4742-9e6b-696361645f70,rev?*%
%TF.SameCoordinates,Original*%
%TF.FileFunction,Legend,Bot*%
%TF.FilePolarity,Positive*%
%FSLAX46Y46*%
G04 Gerber Fmt 4.6, Leading zero omitted, Abs format (unit mm)*
G04 Created by KiCad (PCBNEW 10.0.5) date 2026-08-03 02:45:54*
%MOMM*%
%LPD*%
G01*
G04 APERTURE LIST*
%ADD10C,0.150000*%
%ADD11C,0.120000*%
G04 APERTURE END LIST*
D10*
X161839142Y-124457200D02*
X161696285Y-124504819D01*
X161696285Y-124504819D02*
X161458190Y-124504819D01*
X161458190Y-124504819D02*
X161362952Y-124457200D01*
X161362952Y-124457200D02*
X161315333Y-124409580D01*
X161315333Y-124409580D02*
X161267714Y-124314342D01*
X161267714Y-124314342D02*
X161267714Y-124219104D01*
X161267714Y-124219104D02*
X161315333Y-124123866D01*
X161315333Y-124123866D02*
X161362952Y-124076247D01*
X161362952Y-124076247D02*
X161458190Y-124028628D01*
X161458190Y-124028628D02*
X161648666Y-123981009D01*
X161648666Y-123981009D02*
X161743904Y-123933390D01*
X161743904Y-123933390D02*
X161791523Y-123885771D01*
X161791523Y-123885771D02*
X161839142Y-123790533D01*
X161839142Y-123790533D02*
X161839142Y-123695295D01*
X161839142Y-123695295D02*
X161791523Y-123600057D01*
X161791523Y-123600057D02*
X161743904Y-123552438D01*
X161743904Y-123552438D02*
X161648666Y-123504819D01*
X161648666Y-123504819D02*
X161410571Y-123504819D01*
X161410571Y-123504819D02*
X161267714Y-123552438D01*
X160839142Y-124504819D02*
X160839142Y-123504819D01*
X160839142Y-123504819D02*
X160267714Y-124504819D01*
X160267714Y-124504819D02*
X160267714Y-123504819D01*
X159077238Y-123457200D02*
X159934380Y-124742914D01*
X158077238Y-124600057D02*
X158172476Y-124552438D01*
X158172476Y-124552438D02*
X158267714Y-124457200D01*
X158267714Y-124457200D02*
X158410571Y-124314342D01*
X158410571Y-124314342D02*
X158505809Y-124266723D01*
X158505809Y-124266723D02*
X158601047Y-124266723D01*
X158553428Y-124504819D02*
X158648666Y-124457200D01*
X158648666Y-124457200D02*
X158743904Y-124361961D01*
X158743904Y-124361961D02*
X158791523Y-124171485D01*
X158791523Y-124171485D02*
X158791523Y-123838152D01*
X158791523Y-123838152D02*
X158743904Y-123647676D01*
X158743904Y-123647676D02*
X158648666Y-123552438D01*
X158648666Y-123552438D02*
X158553428Y-123504819D01*
X158553428Y-123504819D02*
X158362952Y-123504819D01*
X158362952Y-123504819D02*
X158267714Y-123552438D01*
X158267714Y-123552438D02*
X158172476Y-123647676D01*
X158172476Y-123647676D02*
X158124857Y-123838152D01*
X158124857Y-123838152D02*
X158124857Y-124171485D01*
X158124857Y-124171485D02*
X158172476Y-124361961D01*
X158172476Y-124361961D02*
X158267714Y-124457200D01*
X158267714Y-124457200D02*
X158362952Y-124504819D01*
X158362952Y-124504819D02*
X158553428Y-124504819D01*
X157124857Y-124504819D02*
X157458190Y-124028628D01*
X157696285Y-124504819D02*
X157696285Y-123504819D01*
X157696285Y-123504819D02*
X157315333Y-123504819D01*
X157315333Y-123504819D02*
X157220095Y-123552438D01*
X157220095Y-123552438D02*
X157172476Y-123600057D01*
X157172476Y-123600057D02*
X157124857Y-123695295D01*
X157124857Y-123695295D02*
X157124857Y-123838152D01*
X157124857Y-123838152D02*
X157172476Y-123933390D01*
X157172476Y-123933390D02*
X157220095Y-123981009D01*
X157220095Y-123981009D02*
X157315333Y-124028628D01*
X157315333Y-124028628D02*
X157696285Y-124028628D01*
%TO.C,R2*%
D11*
X165287000Y-137702064D02*
X165287000Y-137247936D01*
X166757000Y-137702064D02*
X166757000Y-137247936D01*
%TO.C,R3*%
X198099064Y-138785000D02*
X197644936Y-138785000D01*
X198099064Y-140255000D02*
X197644936Y-140255000D01*
%TO.C,C6*%
X157238252Y-136040000D02*
X156715748Y-136040000D01*
X157238252Y-137510000D02*
X156715748Y-137510000D01*
%TO.C,R1*%
X161674064Y-136010000D02*
X161219936Y-136010000D01*
X161674064Y-137480000D02*
X161219936Y-137480000D01*
%TO.C,R10*%
X194279064Y-146075000D02*
X193824936Y-146075000D01*
X194279064Y-147545000D02*
X193824936Y-147545000D01*
%TO.C,C3*%
X198153252Y-129665000D02*
X197630748Y-129665000D01*
X198153252Y-131135000D02*
X197630748Y-131135000D01*
%TO.C,R9*%
X184789064Y-144045000D02*
X184334936Y-144045000D01*
X184789064Y-145515000D02*
X184334936Y-145515000D01*
%TO.C,C4*%
X198153252Y-132715000D02*
X197630748Y-132715000D01*
X198153252Y-134185000D02*
X197630748Y-134185000D01*
%TO.C,R4*%
X165287000Y-142152064D02*
X165287000Y-141697936D01*
X166757000Y-142152064D02*
X166757000Y-141697936D01*
%TO.C,C5*%
X198153252Y-135765000D02*
X197630748Y-135765000D01*
X198153252Y-137235000D02*
X197630748Y-137235000D01*
%TO.C,R8*%
X180339064Y-144045000D02*
X179884936Y-144045000D01*
X180339064Y-145515000D02*
X179884936Y-145515000D01*
%TO.C,Q2*%
X196332000Y-125640000D02*
X196332000Y-127160000D01*
X196332000Y-127160000D02*
X196382000Y-127160000D01*
X197332000Y-125640000D02*
X196332000Y-125640000D01*
X197502000Y-127160000D02*
X198282000Y-127160000D01*
X199402000Y-127160000D02*
X199452000Y-127160000D01*
X199452000Y-125640000D02*
X198452000Y-125640000D01*
X199452000Y-127160000D02*
X199452000Y-125640000D01*
X198272000Y-127700000D02*
X197942000Y-127460000D01*
X197942000Y-127940000D01*
X198272000Y-127700000D01*
G36*
X198272000Y-127700000D02*
G01*
X197942000Y-127940000D01*
X197942000Y-127460000D01*
X198272000Y-127700000D01*
G37*
%TO.C,R6*%
X157184064Y-143305000D02*
X156729936Y-143305000D01*
X157184064Y-144775000D02*
X156729936Y-144775000D01*
%TO.C,R7*%
X161634064Y-143305000D02*
X161179936Y-143305000D01*
X161634064Y-144775000D02*
X161179936Y-144775000D01*
%TO.C,R5*%
X169969064Y-141255000D02*
X169514936Y-141255000D01*
X169969064Y-142725000D02*
X169514936Y-142725000D01*
%TO.C,Q1*%
X196332000Y-120690000D02*
X196332000Y-122210000D01*
X196332000Y-122210000D02*
X196382000Y-122210000D01*
X197332000Y-120690000D02*
X196332000Y-120690000D01*
X197502000Y-122210000D02*
X198282000Y-122210000D01*
X199402000Y-122210000D02*
X199452000Y-122210000D01*
X199452000Y-120690000D02*
X198452000Y-120690000D01*
X199452000Y-122210000D02*
X199452000Y-120690000D01*
X198272000Y-122750000D02*
X197942000Y-122510000D01*
X197942000Y-122990000D01*
X198272000Y-122750000D01*
G36*
X198272000Y-122750000D02*
G01*
X197942000Y-122990000D01*
X197942000Y-122510000D01*
X198272000Y-122750000D01*
G37*
%TD*%
M02*
