M48
; DRILL file KiCad 10.0.5 date 2026-07-29T13:23:05
; FORMAT={-:-/ absolute / metric / decimal}
; #@! TF.CreationDate,2026-07-29T13:23:05-07:00
; #@! TF.GenerationSoftware,Kicad,Pcbnew,10.0.5
; #@! TF.FileFunction,Plated,1,2,PTH
FMAT,2
METRIC
; #@! TA.AperFunction,Plated,PTH,ComponentDrill
T1C0.200
; #@! TA.AperFunction,Plated,PTH,ViaDrill
T2C0.300
; #@! TA.AperFunction,Plated,PTH,ViaDrill
T3C0.400
; #@! TA.AperFunction,Plated,PTH,ComponentDrill
T4C0.600
; #@! TA.AperFunction,Plated,PTH,ComponentDrill
T5C0.800
; #@! TA.AperFunction,Plated,PTH,ComponentDrill
T6C0.900
; #@! TA.AperFunction,Plated,PTH,ComponentDrill
T7C1.000
; #@! TA.AperFunction,Plated,PTH,ComponentDrill
T8C1.050
; #@! TA.AperFunction,Plated,PTH,ComponentDrill
T9C1.100
; #@! TA.AperFunction,Plated,PTH,ComponentDrill
T10C1.300
%
G90
G05
T1
X165.356Y-109.49
X165.356Y-110.89
X166.056Y-108.79
X166.056Y-110.19
X166.056Y-111.59
X166.756Y-109.49
X166.756Y-110.89
X167.456Y-108.79
X167.456Y-110.19
X167.456Y-111.59
X168.156Y-109.49
X168.156Y-110.89
T2
X158.179Y-112.867
X159.821Y-137.309
X162.495Y-151.569
X166.576Y-163.571
X167.019Y-151.542
X169.701Y-157.423
X175.352Y-158.676
X176.001Y-139.775
T3
X151.756Y-82.75
X151.756Y-86.25
X151.756Y-89.75
X151.756Y-93.25
X151.756Y-96.75
X151.756Y-100.25
X151.756Y-103.75
X151.756Y-107.25
X151.756Y-110.75
X151.756Y-114.25
X151.756Y-117.75
X151.756Y-121.25
X151.756Y-124.75
X151.756Y-128.25
X151.756Y-131.75
X151.756Y-138.75
X151.756Y-142.25
X151.756Y-166.75
X151.756Y-170.25
X151.756Y-173.75
X151.756Y-177.25
X154.168Y-147.378
X154.561Y-151.445
X155.256Y-82.75
X155.256Y-86.25
X155.256Y-89.75
X155.256Y-93.25
X155.256Y-96.75
X155.256Y-100.25
X155.256Y-103.75
X155.256Y-107.25
X155.256Y-110.75
X155.256Y-114.25
X155.256Y-117.75
X155.256Y-121.25
X155.256Y-124.75
X155.256Y-128.25
X155.256Y-131.75
X155.256Y-138.75
X155.256Y-149.25
X155.256Y-152.75
X155.256Y-166.75
X155.256Y-170.25
X155.256Y-173.75
X155.256Y-177.25
X156.061Y-154.28
X157.356Y-102.47
X157.368Y-172.347
X158.756Y-82.75
X158.756Y-86.25
X158.756Y-89.75
X158.756Y-93.25
X158.756Y-121.25
X158.756Y-124.75
X158.756Y-128.25
X158.756Y-131.75
X158.756Y-138.75
X158.756Y-166.75
X158.756Y-170.25
X158.756Y-173.75
X158.756Y-177.25
X161.256Y-145.74
X162.256Y-82.75
X162.256Y-86.25
X162.256Y-89.75
X162.256Y-93.25
X162.256Y-103.75
X162.256Y-107.25
X162.256Y-110.75
X162.256Y-114.25
X162.256Y-117.75
X162.256Y-124.75
X162.256Y-128.25
X162.256Y-131.75
X162.256Y-135.25
X162.256Y-138.75
X162.256Y-149.25
X162.256Y-156.25
X162.256Y-159.75
X162.256Y-166.75
X162.256Y-170.25
X162.256Y-173.75
X162.256Y-177.25
X162.277Y-116.289
X165.756Y-82.75
X165.756Y-86.25
X165.756Y-89.75
X165.756Y-93.25
X165.756Y-103.75
X165.756Y-107.25
X165.756Y-114.25
X165.756Y-117.75
X165.756Y-124.75
X165.756Y-128.25
X165.756Y-131.75
X165.756Y-135.25
X165.756Y-152.75
X165.756Y-156.25
X165.756Y-159.75
X165.756Y-170.25
X165.756Y-173.75
X165.756Y-177.25
X166.791Y-141.795
X167.107Y-169.89
X168.491Y-141.795
X168.491Y-150.385
X169.256Y-82.75
X169.256Y-86.25
X169.256Y-89.75
X169.256Y-93.25
X169.256Y-103.75
X169.256Y-107.25
X169.256Y-110.75
X169.256Y-114.25
X169.256Y-117.75
X169.256Y-124.75
X169.256Y-128.25
X169.256Y-131.75
X169.256Y-135.25
X169.256Y-163.25
X169.256Y-170.25
X169.256Y-173.75
X169.256Y-177.25
X172.756Y-82.75
X172.756Y-86.25
X172.756Y-89.75
X172.756Y-93.25
X172.756Y-103.75
X172.756Y-107.25
X172.756Y-110.75
X172.756Y-114.25
X172.756Y-117.75
X172.756Y-124.75
X172.756Y-128.25
X172.756Y-131.75
X172.756Y-135.25
X172.756Y-138.75
X172.756Y-173.75
X172.756Y-177.25
X175.816Y-164.41
X176.256Y-82.75
X176.256Y-86.25
X176.256Y-89.75
X176.256Y-93.25
X176.256Y-121.25
X176.256Y-124.75
X176.256Y-128.25
X176.256Y-131.75
X176.256Y-135.25
X176.256Y-166.75
X176.256Y-170.25
X176.256Y-173.75
X176.256Y-177.25
X176.741Y-148.445
X177.381Y-141.795
X179.06Y-136.254
X179.156Y-102.47
X179.756Y-82.75
X179.756Y-86.25
X179.756Y-89.75
X179.756Y-93.25
X179.756Y-96.75
X179.756Y-100.25
X179.756Y-103.75
X179.756Y-107.25
X179.756Y-110.75
X179.756Y-114.25
X179.756Y-117.75
X179.756Y-121.25
X179.756Y-124.75
X179.756Y-128.25
X179.756Y-131.75
X179.756Y-135.25
X179.756Y-138.75
X179.756Y-145.75
X179.756Y-149.25
X179.756Y-156.25
X179.756Y-166.75
X179.756Y-170.25
X179.756Y-173.75
X179.756Y-177.25
X183.256Y-82.75
X183.256Y-86.25
X183.256Y-89.75
X183.256Y-93.25
X183.256Y-96.75
X183.256Y-100.25
X183.256Y-103.75
X183.256Y-107.25
X183.256Y-110.75
X183.256Y-114.25
X183.256Y-117.75
X183.256Y-121.25
X183.256Y-124.75
X183.256Y-128.25
X183.256Y-131.75
X183.256Y-135.25
X183.256Y-138.75
X183.256Y-156.25
X183.256Y-159.75
X183.256Y-166.75
X183.256Y-170.25
X183.256Y-173.75
X183.881Y-141.795
X186.756Y-82.75
X186.756Y-86.25
X186.756Y-89.75
X186.756Y-93.25
X186.756Y-96.75
X186.756Y-100.25
X186.756Y-103.75
X186.756Y-107.25
X186.756Y-110.75
X186.756Y-114.25
X186.756Y-117.75
X186.756Y-121.25
X186.756Y-124.75
X186.756Y-128.25
X186.756Y-131.75
X186.756Y-135.25
X186.756Y-138.75
X186.756Y-142.25
X186.756Y-145.75
X186.756Y-149.25
X186.756Y-152.75
X186.756Y-156.25
X186.756Y-159.75
X186.756Y-163.25
X186.756Y-166.75
X186.756Y-170.25
X186.756Y-173.75
T4
X107.545Y-145.275
X112.545Y-146.575
T5
X152.361Y-148.905
X152.361Y-151.445
X159.981Y-148.905
X159.981Y-151.445
X174.541Y-145.905
X174.541Y-148.445
X175.63Y-154.465
X178.13Y-154.465
X182.161Y-145.905
X182.161Y-148.445
T6
X152.451Y-156.275
X152.451Y-161.785
X154.991Y-156.275
X154.991Y-161.785
X172.191Y-161.165
X174.731Y-161.165
T7
X127.711Y-128.685
X127.711Y-140.685
X127.711Y-145.675
X127.711Y-157.675
X128.211Y-92.405
X133.211Y-121.485
X138.211Y-121.485
X143.211Y-92.405
X154.05Y-141.045
X159.05Y-141.045
X168.181Y-154.745
X168.181Y-157.285
X168.181Y-159.825
T8
X109.195Y-115.635
X109.195Y-120.635
X109.195Y-130.635
X109.195Y-135.635
T9
X163.721Y-154.325
X163.721Y-164.485
X164.391Y-137.295
X164.391Y-141.795
X164.391Y-145.885
X164.391Y-150.385
X170.891Y-137.295
X170.891Y-141.795
X170.891Y-145.885
X170.891Y-150.385
X174.981Y-137.295
X174.981Y-141.795
X181.481Y-137.295
X181.481Y-141.795
X182.971Y-152.415
X182.971Y-162.575
T10
X112.005Y-94.295
X112.005Y-99.295
X112.005Y-104.295
X125.761Y-134.635
X125.761Y-151.625
X127.211Y-166.375
X132.211Y-166.375
X137.211Y-166.375
X139.911Y-140.685
X139.911Y-157.675
X139.961Y-128.635
X139.961Y-145.625
M30
