%TF.GenerationSoftware,KiCad,Pcbnew,10.0.5*%
%TF.CreationDate,2026-07-29T14:16:02-07:00*%
%TF.ProjectId,aquaguard,61717561-6775-4617-9264-2e6b69636164,rev?*%
%TF.SameCoordinates,Original*%
%TF.FileFunction,Copper,L2,Bot*%
%TF.FilePolarity,Positive*%
%FSLAX46Y46*%
G04 Gerber Fmt 4.6, Leading zero omitted, Abs format (unit mm)*
G04 Created by KiCad (PCBNEW 10.0.5) date 2026-07-29 14:16:02*
%MOMM*%
%LPD*%
G01*
G04 APERTURE LIST*
G04 Aperture macros list*
%AMRoundRect*
0 Rectangle with rounded corners*
0 $1 Rounding radius*
0 $2 $3 $4 $5 $6 $7 $8 $9 X,Y pos of 4 corners*
0 Add a 4 corners polygon primitive as box body*
4,1,4,$2,$3,$4,$5,$6,$7,$8,$9,$2,$3,0*
0 Add four circle primitives for the rounded corners*
1,1,$1+$1,$2,$3*
1,1,$1+$1,$4,$5*
1,1,$1+$1,$6,$7*
1,1,$1+$1,$8,$9*
0 Add four rect primitives between the rounded corners*
20,1,$1+$1,$2,$3,$4,$5,0*
20,1,$1+$1,$4,$5,$6,$7,0*
20,1,$1+$1,$6,$7,$8,$9,0*
20,1,$1+$1,$8,$9,$2,$3,0*%
G04 Aperture macros list end*
%TA.AperFunction,ComponentPad*%
%ADD10RoundRect,0.250000X-1.050000X-1.050000X1.050000X-1.050000X1.050000X1.050000X-1.050000X1.050000X0*%
%TD*%
%TA.AperFunction,ComponentPad*%
%ADD11C,2.600000*%
%TD*%
%TA.AperFunction,ComponentPad*%
%ADD12C,2.000000*%
%TD*%
%TA.AperFunction,HeatsinkPad*%
%ADD13C,0.600000*%
%TD*%
%TA.AperFunction,ComponentPad*%
%ADD14R,1.700000X1.700000*%
%TD*%
%TA.AperFunction,ComponentPad*%
%ADD15C,1.700000*%
%TD*%
%TA.AperFunction,ComponentPad*%
%ADD16C,1.600000*%
%TD*%
%TA.AperFunction,ComponentPad*%
%ADD17R,2.000000X2.000000*%
%TD*%
%TA.AperFunction,ComponentPad*%
%ADD18R,1.800000X1.800000*%
%TD*%
%TA.AperFunction,ComponentPad*%
%ADD19C,1.800000*%
%TD*%
%TA.AperFunction,ComponentPad*%
%ADD20RoundRect,0.250000X-0.750000X-0.750000X0.750000X-0.750000X0.750000X0.750000X-0.750000X0.750000X0*%
%TD*%
%TA.AperFunction,ComponentPad*%
%ADD21RoundRect,0.500000X0.500000X-0.500000X0.500000X0.500000X-0.500000X0.500000X-0.500000X-0.500000X0*%
%TD*%
%TA.AperFunction,ComponentPad*%
%ADD22C,3.000000*%
%TD*%
%TA.AperFunction,ComponentPad*%
%ADD23C,2.500000*%
%TD*%
%TA.AperFunction,ComponentPad*%
%ADD24RoundRect,0.250000X-0.550000X-0.550000X0.550000X-0.550000X0.550000X0.550000X-0.550000X0.550000X0*%
%TD*%
%TA.AperFunction,ComponentPad*%
%ADD25RoundRect,0.250000X1.050000X-1.050000X1.050000X1.050000X-1.050000X1.050000X-1.050000X-1.050000X0*%
%TD*%
%TA.AperFunction,ComponentPad*%
%ADD26RoundRect,0.250000X0.750000X-0.600000X0.750000X0.600000X-0.750000X0.600000X-0.750000X-0.600000X0*%
%TD*%
%TA.AperFunction,ComponentPad*%
%ADD27O,2.000000X1.700000*%
%TD*%
%TA.AperFunction,ComponentPad*%
%ADD28RoundRect,0.249999X-0.850001X-0.850001X0.850001X-0.850001X0.850001X0.850001X-0.850001X0.850001X0*%
%TD*%
%TA.AperFunction,ComponentPad*%
%ADD29C,2.200000*%
%TD*%
%TA.AperFunction,SMDPad,CuDef*%
%ADD30RoundRect,0.250000X0.262500X0.450000X-0.262500X0.450000X-0.262500X-0.450000X0.262500X-0.450000X0*%
%TD*%
%TA.AperFunction,SMDPad,CuDef*%
%ADD31RoundRect,0.250000X0.250000X0.475000X-0.250000X0.475000X-0.250000X-0.475000X0.250000X-0.475000X0*%
%TD*%
%TA.AperFunction,SMDPad,CuDef*%
%ADD32RoundRect,0.250000X0.450000X-0.262500X0.450000X0.262500X-0.450000X0.262500X-0.450000X-0.262500X0*%
%TD*%
%TA.AperFunction,SMDPad,CuDef*%
%ADD33RoundRect,0.375000X0.625000X0.375000X-0.625000X0.375000X-0.625000X-0.375000X0.625000X-0.375000X0*%
%TD*%
%TA.AperFunction,SMDPad,CuDef*%
%ADD34RoundRect,0.500000X0.500000X1.400000X-0.500000X1.400000X-0.500000X-1.400000X0.500000X-1.400000X0*%
%TD*%
%TA.AperFunction,SMDPad,CuDef*%
%ADD35RoundRect,0.150000X0.587500X0.150000X-0.587500X0.150000X-0.587500X-0.150000X0.587500X-0.150000X0*%
%TD*%
%TA.AperFunction,SMDPad,CuDef*%
%ADD36RoundRect,0.250000X0.475000X-0.250000X0.475000X0.250000X-0.475000X0.250000X-0.475000X-0.250000X0*%
%TD*%
%TA.AperFunction,ViaPad*%
%ADD37C,0.800000*%
%TD*%
%TA.AperFunction,ViaPad*%
%ADD38C,0.600000*%
%TD*%
%TA.AperFunction,Conductor*%
%ADD39C,0.800000*%
%TD*%
%TA.AperFunction,Conductor*%
%ADD40C,0.250000*%
%TD*%
%TA.AperFunction,Conductor*%
%ADD41C,1.500000*%
%TD*%
G04 APERTURE END LIST*
D10*
%TO.P,J3,1*%
%TO.N,+5V*%
X194649000Y-122995000D03*
D11*
%TO.P,J3,2*%
%TO.N,GND*%
X199649000Y-122995000D03*
%TD*%
D12*
%TO.P,SW1,1*%
%TO.N,BTN_PIN*%
X173739000Y-137295000D03*
X180239000Y-137295000D03*
%TO.P,SW1,2*%
%TO.N,GND*%
X173739000Y-141795000D03*
X180239000Y-141795000D03*
%TD*%
D13*
%TO.P,U1,39*%
%TO.N,GND*%
X170704000Y-109490000D03*
X170704000Y-110890000D03*
X171404000Y-108790000D03*
X171404000Y-110190000D03*
X171404000Y-111590000D03*
X172104000Y-109490000D03*
X172104000Y-110890000D03*
X172804000Y-108790000D03*
X172804000Y-110190000D03*
X172804000Y-111590000D03*
X173504000Y-109490000D03*
X173504000Y-110890000D03*
%TD*%
D14*
%TO.P,J5,1*%
%TO.N,+5V*%
X152519000Y-128455000D03*
D15*
%TO.P,J5,2*%
%TO.N,MOTOR_RELAY_SW*%
X152519000Y-130995000D03*
%TO.P,J5,3*%
%TO.N,AC_N*%
X152519000Y-133535000D03*
%TD*%
D16*
%TO.P,RV1,1*%
%TO.N,AC_L_FUSED*%
X120485000Y-97545000D03*
%TO.P,RV1,2*%
%TO.N,AC_N*%
X121785000Y-92545000D03*
%TD*%
D17*
%TO.P,FB1,1*%
%TO.N,BUZZER_PIN*%
X158900200Y-143045000D03*
D12*
%TO.P,FB1,2*%
%TO.N,GND*%
X168900200Y-143045000D03*
%TD*%
D18*
%TO.P,LED1,1*%
%TO.N,N$LED1.1*%
X195229000Y-149665000D03*
D19*
%TO.P,LED1,2*%
%TO.N,N$LED1.2*%
X197769000Y-149665000D03*
%TD*%
D18*
%TO.P,LED2,1*%
%TO.N,GND*%
X202219000Y-151145000D03*
D19*
%TO.P,LED2,2*%
%TO.N,LED_PIN_A*%
X202219000Y-148605000D03*
%TD*%
D10*
%TO.P,J2,1*%
%TO.N,+5V*%
X194649000Y-111095000D03*
D11*
%TO.P,J2,2*%
%TO.N,GND*%
X199649000Y-111095000D03*
%TD*%
D20*
%TO.P,C1,1*%
%TO.N,+5V*%
X194397800Y-134435000D03*
D12*
%TO.P,C1,2*%
%TO.N,GND*%
X199397800Y-134435000D03*
%TD*%
D21*
%TO.P,F1,1*%
%TO.N,AC_L*%
X109195000Y-112545000D03*
X109195000Y-107545000D03*
D12*
%TO.P,F1,2*%
%TO.N,AC_L_FUSED*%
X109195000Y-97545000D03*
X109195000Y-92545000D03*
%TD*%
D22*
%TO.P,K1,1*%
%TO.N,AC_L_FUSED*%
X131109000Y-134635000D03*
D23*
%TO.P,K1,2*%
%TO.N,+5V*%
X133059000Y-140685000D03*
D22*
%TO.P,K1,3*%
%TO.N,MOTOR_RELAY_SW*%
X145259000Y-140685000D03*
%TO.P,K1,4*%
%TO.N,N$K1.4*%
X145309000Y-128635000D03*
D23*
%TO.P,K1,5*%
%TO.N,MOTOR_RELAY_COIL*%
X133059000Y-128685000D03*
%TD*%
D12*
%TO.P,SW2,1*%
%TO.N,N$SW2.1*%
X184329000Y-143795000D03*
X184329000Y-137295000D03*
%TO.P,SW2,2*%
%TO.N,N$SW2.2*%
X188829000Y-143795000D03*
X188829000Y-137295000D03*
%TD*%
D10*
%TO.P,J1,1*%
%TO.N,AC_L*%
X132559000Y-149385000D03*
D11*
%TO.P,J1,2*%
%TO.N,AC_N*%
X137559000Y-149385000D03*
%TO.P,J1,3*%
%TO.N,US_TRIG*%
X142559000Y-149385000D03*
%TD*%
D24*
%TO.P,U3,1*%
%TO.N,N$U3.1*%
X192479000Y-142295000D03*
D16*
%TO.P,U3,2*%
%TO.N,N$U3.2*%
X192479000Y-144835000D03*
%TO.P,U3,3*%
%TO.N,N$U3.3*%
X200099000Y-144835000D03*
%TO.P,U3,4*%
%TO.N,N$U3.4*%
X200099000Y-142295000D03*
%TD*%
D25*
%TO.P,J4,1*%
%TO.N,+5V*%
X197359000Y-101295000D03*
D11*
%TO.P,J4,2*%
%TO.N,FLOAT_LOW*%
X197359000Y-96295000D03*
%TO.P,J4,3*%
%TO.N,GND*%
X197359000Y-91295000D03*
%TD*%
D24*
%TO.P,C2,1*%
%TO.N,+3V3*%
X174387800Y-147785000D03*
D16*
%TO.P,C2,2*%
%TO.N,GND*%
X176887800Y-147785000D03*
%TD*%
D26*
%TO.P,PS1,1*%
%TO.N,AC_L_FUSED*%
X138559000Y-121485000D03*
D27*
%TO.P,PS1,2*%
%TO.N,AC_N*%
X143559000Y-121485000D03*
%TO.P,PS1,3*%
%TO.N,GND*%
X133559000Y-92405000D03*
%TO.P,PS1,4*%
%TO.N,+5V*%
X148559000Y-92405000D03*
%TD*%
D28*
%TO.P,D1,1*%
%TO.N,+5V*%
X181479000Y-149055000D03*
D29*
%TO.P,D1,2*%
%TO.N,MOTOR_RELAY_COIL*%
X191639000Y-149055000D03*
%TD*%
D30*
%TO.P,R2,1*%
%TO.N,LED_PIN*%
X202296500Y-99835000D03*
%TO.P,R2,2*%
%TO.N,LED_PIN_A*%
X200471500Y-99835000D03*
%TD*%
D31*
%TO.P,C6,1*%
%TO.N,+3V3*%
X202354000Y-96815000D03*
%TO.P,C6,2*%
%TO.N,GND*%
X200454000Y-96815000D03*
%TD*%
D30*
%TO.P,R5,1*%
%TO.N,+3V3*%
X197231500Y-104590000D03*
%TO.P,R5,2*%
%TO.N,FLOAT_LOW*%
X195406500Y-104590000D03*
%TD*%
D32*
%TO.P,R3,1*%
%TO.N,+3V3*%
X192599000Y-104317500D03*
%TO.P,R3,2*%
%TO.N,EN*%
X192599000Y-102492500D03*
%TD*%
D33*
%TO.P,U2,1*%
%TO.N,GND*%
X164199000Y-146390000D03*
%TO.P,U2,2*%
%TO.N,+3V3*%
X164199000Y-148690000D03*
D34*
X157899000Y-148690000D03*
D33*
%TO.P,U2,3*%
%TO.N,+5V*%
X164199000Y-150990000D03*
%TD*%
D35*
%TO.P,Q1,1*%
%TO.N,MOTOR_RELAY_B*%
X202571500Y-89045000D03*
%TO.P,Q1,2*%
%TO.N,GND*%
X202571500Y-90945000D03*
%TO.P,Q1,3*%
%TO.N,MOTOR_RELAY_COIL*%
X200696500Y-89995000D03*
%TD*%
D30*
%TO.P,R4,1*%
%TO.N,+3V3*%
X202296500Y-102825000D03*
%TO.P,R4,2*%
%TO.N,US_ECHO*%
X200471500Y-102825000D03*
%TD*%
D32*
%TO.P,R1,1*%
%TO.N,MOTOR_RELAY*%
X192599000Y-99867500D03*
%TO.P,R1,2*%
%TO.N,MOTOR_RELAY_B*%
X192599000Y-98042500D03*
%TD*%
D36*
%TO.P,C3,1*%
%TO.N,+3V3*%
X192629000Y-90945000D03*
%TO.P,C3,2*%
%TO.N,GND*%
X192629000Y-89045000D03*
%TD*%
D30*
%TO.P,R6,1*%
%TO.N,+3V3*%
X201681500Y-105815000D03*
%TO.P,R6,2*%
%TO.N,FLOAT_HIGH*%
X199856500Y-105815000D03*
%TD*%
D31*
%TO.P,C5,1*%
%TO.N,+3V3*%
X202354000Y-93765000D03*
%TO.P,C5,2*%
%TO.N,GND*%
X200454000Y-93765000D03*
%TD*%
D36*
%TO.P,C4,1*%
%TO.N,+3V3*%
X192629000Y-95435000D03*
%TO.P,C4,2*%
%TO.N,GND*%
X192629000Y-93535000D03*
%TD*%
D37*
%TO.N,GND*%
X178104000Y-93250000D03*
X171104000Y-135250000D03*
X202604000Y-121250000D03*
X164104000Y-142250000D03*
X192104000Y-124750000D03*
X167604000Y-82750000D03*
X195604000Y-93250000D03*
X192104000Y-128250000D03*
X195604000Y-114250000D03*
X185104000Y-89750000D03*
X188604000Y-128250000D03*
X157104000Y-82750000D03*
X164104000Y-121250000D03*
X171104000Y-103750000D03*
X178104000Y-135250000D03*
X202604000Y-86250000D03*
X181604000Y-89750000D03*
X188604000Y-124750000D03*
X178104000Y-152750000D03*
X171104000Y-159750000D03*
X185104000Y-93250000D03*
X167604000Y-110750000D03*
X157104000Y-131750000D03*
X167604000Y-93250000D03*
X199104000Y-156250000D03*
X178104000Y-114250000D03*
X185104000Y-135250000D03*
X171104000Y-89750000D03*
X160604000Y-93250000D03*
X171104000Y-156250000D03*
X185104000Y-117750000D03*
X174604000Y-131750000D03*
X157104000Y-100250000D03*
X188604000Y-114250000D03*
X160604000Y-89750000D03*
X160604000Y-131750000D03*
X201539000Y-112985000D03*
X178104000Y-82750000D03*
X202604000Y-128250000D03*
X160604000Y-128250000D03*
X195604000Y-107250000D03*
X171104000Y-107250000D03*
X157104000Y-93250000D03*
X181604000Y-86250000D03*
X199649000Y-113795000D03*
X171104000Y-117750000D03*
X178104000Y-110750000D03*
X160604000Y-86250000D03*
X188604000Y-131750000D03*
X185104000Y-131750000D03*
X188604000Y-110750000D03*
X188604000Y-93250000D03*
X199104000Y-131750000D03*
X160604000Y-100250000D03*
X167604000Y-131750000D03*
X164104000Y-128250000D03*
X185104000Y-100250000D03*
X174604000Y-156250000D03*
X167604000Y-156250000D03*
X199104000Y-152750000D03*
X167604000Y-159750000D03*
X157104000Y-152750000D03*
X160604000Y-138750000D03*
X199104000Y-159750000D03*
X199104000Y-86250000D03*
X178104000Y-138750000D03*
X171104000Y-86250000D03*
X174604000Y-128250000D03*
X198829000Y-93765000D03*
X171104000Y-142250000D03*
X157104000Y-124750000D03*
X164104000Y-156250000D03*
X157104000Y-117750000D03*
X178104000Y-156250000D03*
X157104000Y-110750000D03*
X185104000Y-152750000D03*
X160604000Y-159750000D03*
X192104000Y-107250000D03*
X157104000Y-107250000D03*
X188604000Y-156250000D03*
X164104000Y-93250000D03*
X174604000Y-159750000D03*
X174604000Y-107250000D03*
X185104000Y-121250000D03*
X174604000Y-124750000D03*
X188604000Y-103750000D03*
X171104000Y-145750000D03*
X174604000Y-86250000D03*
X167604000Y-114250000D03*
X157104000Y-135250000D03*
X195604000Y-89750000D03*
X167604000Y-145750000D03*
X181604000Y-135250000D03*
X178104000Y-159750000D03*
X181604000Y-145750000D03*
X160604000Y-107250000D03*
X192104000Y-152750000D03*
X157104000Y-156250000D03*
X164104000Y-159750000D03*
X185104000Y-149250000D03*
X174604000Y-117750000D03*
X181604000Y-82750000D03*
X162704000Y-102470000D03*
X178104000Y-145750000D03*
X188604000Y-86250000D03*
X171104000Y-131750000D03*
X164104000Y-89750000D03*
X171104000Y-114250000D03*
X185104000Y-110750000D03*
X192104000Y-86250000D03*
X167604000Y-124750000D03*
X192104000Y-121250000D03*
X174604000Y-103750000D03*
X167604000Y-152750000D03*
X199104000Y-82750000D03*
X167604000Y-107250000D03*
X185104000Y-103750000D03*
X181604000Y-121250000D03*
X160604000Y-96750000D03*
X185104000Y-96750000D03*
X199104000Y-114250000D03*
X188604000Y-96750000D03*
X157104000Y-138750000D03*
X195604000Y-138750000D03*
X164104000Y-124750000D03*
X185104000Y-128250000D03*
X188604000Y-121250000D03*
X160604000Y-145750000D03*
X181604000Y-93250000D03*
X181604000Y-131750000D03*
X192104000Y-138750000D03*
X192104000Y-110750000D03*
X160604000Y-124750000D03*
X192629000Y-87420000D03*
X185104000Y-124750000D03*
X195604000Y-131750000D03*
X178104000Y-86250000D03*
X181604000Y-124750000D03*
X178104000Y-131750000D03*
X181604000Y-128250000D03*
X182639000Y-141795000D03*
X167604000Y-128250000D03*
X164104000Y-86250000D03*
X171104000Y-149250000D03*
X160604000Y-82750000D03*
X157104000Y-96750000D03*
X160604000Y-110750000D03*
X199104000Y-128250000D03*
X167604000Y-89750000D03*
X198966000Y-98302500D03*
X181604000Y-152750000D03*
X192104000Y-131750000D03*
X178104000Y-124750000D03*
X171104000Y-93250000D03*
X192104000Y-114250000D03*
X167604000Y-135250000D03*
X202604000Y-110750000D03*
X167604000Y-149250000D03*
X188604000Y-149250000D03*
X192104000Y-117750000D03*
X174604000Y-152750000D03*
X164104000Y-82750000D03*
X204709000Y-90945000D03*
X160604000Y-114250000D03*
X195604000Y-142250000D03*
X164104000Y-131750000D03*
X178104000Y-89750000D03*
X199649000Y-125695000D03*
X202604000Y-124750000D03*
X185104000Y-159750000D03*
X202604000Y-145750000D03*
X202604000Y-131750000D03*
X171104000Y-124750000D03*
X174604000Y-110750000D03*
X171104000Y-128250000D03*
X160604000Y-135250000D03*
X201798000Y-134435000D03*
X164104000Y-138750000D03*
X199104000Y-138750000D03*
X185104000Y-107250000D03*
X164104000Y-135250000D03*
X178104000Y-107250000D03*
X188604000Y-100250000D03*
X174604000Y-82750000D03*
X195604000Y-117750000D03*
X194754000Y-93535000D03*
X178104000Y-117750000D03*
X202349000Y-122995000D03*
X160604000Y-103750000D03*
X192104000Y-135250000D03*
X174604000Y-89750000D03*
X195604000Y-156250000D03*
X188604000Y-117750000D03*
X178104000Y-149250000D03*
X188604000Y-82750000D03*
X171104000Y-82750000D03*
X181604000Y-156250000D03*
X185104000Y-114250000D03*
X202604000Y-114250000D03*
X204519000Y-151145000D03*
X174604000Y-135250000D03*
X202604000Y-117750000D03*
X185104000Y-156250000D03*
X167604000Y-86250000D03*
X174604000Y-114250000D03*
X157104000Y-103750000D03*
X171104000Y-138750000D03*
X164199000Y-144490000D03*
X195604000Y-145750000D03*
X195604000Y-128250000D03*
X185104000Y-86250000D03*
X188604000Y-107250000D03*
X160604000Y-117750000D03*
X195604000Y-152750000D03*
X195604000Y-82750000D03*
X157104000Y-114250000D03*
X202604000Y-138750000D03*
X188604000Y-152750000D03*
X167604000Y-117750000D03*
X192104000Y-156250000D03*
X160604000Y-152750000D03*
X167604000Y-138750000D03*
X202604000Y-156250000D03*
X199104000Y-117750000D03*
X181604000Y-159750000D03*
X157104000Y-86250000D03*
X202604000Y-135250000D03*
X157104000Y-89750000D03*
X192104000Y-82750000D03*
X192104000Y-159750000D03*
X184504000Y-102470000D03*
X188604000Y-159750000D03*
X185104000Y-82750000D03*
X167604000Y-103750000D03*
X188604000Y-89750000D03*
X176139000Y-141795000D03*
X160604000Y-121250000D03*
X178104000Y-103750000D03*
X202604000Y-142250000D03*
X157104000Y-128250000D03*
X160604000Y-156250000D03*
X174604000Y-93250000D03*
X171104000Y-152750000D03*
X195604000Y-86250000D03*
X178104000Y-128250000D03*
X157104000Y-121250000D03*
%TO.N,+3V3*%
X194627500Y-96281500D03*
X194290800Y-102238700D03*
D38*
%TO.N,EN*%
X163502000Y-104779000D03*
%TO.N,FLOAT_LOW*%
X169731500Y-106438700D03*
%TO.N,FLOAT_HIGH*%
X163525600Y-112421900D03*
%TO.N,MOTOR_RELAY*%
X163502000Y-115181200D03*
%TO.N,LED_PIN*%
X179145500Y-118228000D03*
%TO.N,LED_PIN_A*%
X202281400Y-101436700D03*
%TO.N,MOTOR_RELAY_COIL*%
X193053900Y-92423800D03*
X190802000Y-124864100D03*
%TD*%
%TO.N,+5V*%
D39*
X179544000Y-150990000D02*
X164199000Y-150990000D01*
X181479000Y-149055000D02*
X179544000Y-150990000D01*
%TO.N,BTN_PIN*%
D40*
X180239000Y-137295000D02*
X173739000Y-137295000D01*
%TO.N,+3V3*%
D39*
X193475500Y-96281500D02*
X192629000Y-95435000D01*
X164199000Y-148690000D02*
X165391800Y-148690000D01*
X192415900Y-95435000D02*
X191147800Y-94166900D01*
X192629000Y-95435000D02*
X192415900Y-95435000D01*
X202296500Y-102825000D02*
X202296500Y-105200000D01*
X157899000Y-148690000D02*
X164199000Y-148690000D01*
X194627500Y-96281500D02*
X193475500Y-96281500D01*
X192854600Y-104317500D02*
X194290800Y-102881300D01*
X191147800Y-92426200D02*
X192629000Y-90945000D01*
X202296500Y-105200000D02*
X201681500Y-105815000D01*
X166296800Y-147785000D02*
X174387800Y-147785000D01*
X165391800Y-148690000D02*
X166296800Y-147785000D01*
X191147800Y-94166900D02*
X191147800Y-92426200D01*
X194290800Y-102881300D02*
X194290800Y-102238700D01*
X192599000Y-104317500D02*
X192854600Y-104317500D01*
%TO.N,EN*%
D40*
X190312500Y-104779000D02*
X163502000Y-104779000D01*
X192599000Y-102492500D02*
X190312500Y-104779000D01*
%TO.N,FLOAT_LOW*%
X194634700Y-105361800D02*
X195406500Y-104590000D01*
X169731500Y-106438700D02*
X170808400Y-105361800D01*
X170808400Y-105361800D02*
X194634700Y-105361800D01*
%TO.N,FLOAT_HIGH*%
X181505400Y-105815000D02*
X174898500Y-112421900D01*
X174898500Y-112421900D02*
X163525600Y-112421900D01*
X199856500Y-105815000D02*
X181505400Y-105815000D01*
%TO.N,MOTOR_RELAY*%
X162822100Y-104561500D02*
X162822100Y-114501300D01*
X164907900Y-102475700D02*
X162822100Y-104561500D01*
X162822100Y-114501300D02*
X163502000Y-115181200D01*
X191265800Y-101200700D02*
X184588500Y-101200700D01*
X184588500Y-101200700D02*
X183313500Y-102475700D01*
X183313500Y-102475700D02*
X164907900Y-102475700D01*
X192599000Y-99867500D02*
X191265800Y-101200700D01*
%TO.N,LED_PIN*%
X201086400Y-108081700D02*
X203249800Y-105918300D01*
X179145500Y-118228000D02*
X189291800Y-108081700D01*
X203249800Y-100788300D02*
X202296500Y-99835000D01*
X203249800Y-105918300D02*
X203249800Y-100788300D01*
X189291800Y-108081700D02*
X201086400Y-108081700D01*
%TO.N,AC_L_FUSED*%
D41*
X109195000Y-97545000D02*
X120485000Y-97545000D01*
%TO.N,LED_PIN_A*%
D40*
X200471500Y-99835000D02*
X202073200Y-101436700D01*
X202073200Y-101436700D02*
X202281400Y-101436700D01*
%TO.N,MOTOR_RELAY_COIL*%
X193123800Y-92353900D02*
X193053900Y-92423800D01*
X196641000Y-93068400D02*
X195926500Y-92353900D01*
X134875200Y-130501200D02*
X133059000Y-128685000D01*
X200696500Y-89995000D02*
X200696500Y-90432000D01*
X198060100Y-93068400D02*
X196641000Y-93068400D01*
X188631100Y-127035000D02*
X151017100Y-127035000D01*
X200696500Y-90432000D02*
X198060100Y-93068400D01*
X190802000Y-124864100D02*
X188631100Y-127035000D01*
X151017100Y-127035000D02*
X147550900Y-130501200D01*
X195926500Y-92353900D02*
X193123800Y-92353900D01*
X147550900Y-130501200D02*
X134875200Y-130501200D01*
%TO.N,MOTOR_RELAY_B*%
X200595300Y-95358700D02*
X200109400Y-95358700D01*
X199096800Y-96915500D02*
X197969800Y-98042500D01*
X202571500Y-89045000D02*
X203745400Y-90218900D01*
X202883900Y-92205400D02*
X202143900Y-92205400D01*
X201404000Y-94550000D02*
X200595300Y-95358700D01*
X203745400Y-91343900D02*
X202883900Y-92205400D01*
X200109400Y-95358700D02*
X199096800Y-96371300D01*
X199096800Y-96371300D02*
X199096800Y-96915500D01*
X203745400Y-90218900D02*
X203745400Y-91343900D01*
X201404000Y-92945300D02*
X201404000Y-94550000D01*
X197969800Y-98042500D02*
X192599000Y-98042500D01*
X202143900Y-92205400D02*
X201404000Y-92945300D01*
%TD*%
%TA.AperFunction,Conductor*%
%TO.N,GND*%
G36*
X169635593Y-105424185D02*
G01*
X169681348Y-105476989D01*
X169691292Y-105546147D01*
X169662267Y-105609703D01*
X169603489Y-105647477D01*
X169592745Y-105650117D01*
X169498010Y-105668961D01*
X169497998Y-105668964D01*
X169352327Y-105729302D01*
X169352314Y-105729309D01*
X169221211Y-105816910D01*
X169221207Y-105816913D01*
X169109713Y-105928407D01*
X169109710Y-105928411D01*
X169022109Y-106059514D01*
X169022102Y-106059527D01*
X168961764Y-106205198D01*
X168961761Y-106205210D01*
X168931000Y-106359853D01*
X168931000Y-106517546D01*
X168961761Y-106672189D01*
X168961764Y-106672201D01*
X169022102Y-106817872D01*
X169022109Y-106817885D01*
X169109710Y-106948988D01*
X169109713Y-106948992D01*
X169221207Y-107060486D01*
X169221211Y-107060489D01*
X169352314Y-107148090D01*
X169352327Y-107148097D01*
X169497998Y-107208435D01*
X169498003Y-107208437D01*
X169652653Y-107239199D01*
X169652656Y-107239200D01*
X169652658Y-107239200D01*
X169810344Y-107239200D01*
X169810345Y-107239199D01*
X169964997Y-107208437D01*
X170110679Y-107148094D01*
X170241789Y-107060489D01*
X170353289Y-106948989D01*
X170440894Y-106817879D01*
X170501237Y-106672197D01*
X170523358Y-106560982D01*
X170555740Y-106499075D01*
X170557176Y-106497612D01*
X171031173Y-106023616D01*
X171092495Y-105990134D01*
X171118853Y-105987300D01*
X180149147Y-105987300D01*
X180216186Y-106006985D01*
X180261941Y-106059789D01*
X180271885Y-106128947D01*
X180242860Y-106192503D01*
X180236828Y-106198981D01*
X174675729Y-111760081D01*
X174614406Y-111793566D01*
X174588048Y-111796400D01*
X164067950Y-111796400D01*
X164000911Y-111776715D01*
X163999059Y-111775502D01*
X163904784Y-111712509D01*
X163904772Y-111712502D01*
X163759101Y-111652164D01*
X163759089Y-111652161D01*
X163604445Y-111621400D01*
X163604442Y-111621400D01*
X163571600Y-111621400D01*
X163504561Y-111601715D01*
X163458806Y-111548911D01*
X163447600Y-111497400D01*
X163447600Y-105703500D01*
X163467285Y-105636461D01*
X163520089Y-105590706D01*
X163571600Y-105579500D01*
X163580844Y-105579500D01*
X163580845Y-105579499D01*
X163735497Y-105548737D01*
X163881179Y-105488394D01*
X163975459Y-105425398D01*
X164042136Y-105404520D01*
X164044350Y-105404500D01*
X169568554Y-105404500D01*
X169635593Y-105424185D01*
G37*
%TD.AperFunction*%
%TA.AperFunction,Conductor*%
G36*
X191387494Y-101845885D02*
G01*
X191433249Y-101898689D01*
X191443193Y-101967847D01*
X191438161Y-101989204D01*
X191409001Y-102077203D01*
X191409000Y-102077204D01*
X191398500Y-102179983D01*
X191398500Y-102757046D01*
X191378815Y-102824085D01*
X191362181Y-102844727D01*
X190089729Y-104117181D01*
X190028406Y-104150666D01*
X190002048Y-104153500D01*
X164414052Y-104153500D01*
X164347013Y-104133815D01*
X164301258Y-104081011D01*
X164291314Y-104011853D01*
X164320339Y-103948297D01*
X164326371Y-103941819D01*
X164673855Y-103594336D01*
X165130672Y-103137519D01*
X165191995Y-103104034D01*
X165218353Y-103101200D01*
X183375107Y-103101200D01*
X183435529Y-103089181D01*
X183495952Y-103077163D01*
X183495955Y-103077161D01*
X183495958Y-103077161D01*
X183529287Y-103063354D01*
X183529286Y-103063354D01*
X183529292Y-103063352D01*
X183609786Y-103030012D01*
X183661009Y-102995784D01*
X183712233Y-102961558D01*
X183799358Y-102874433D01*
X183799359Y-102874431D01*
X183806425Y-102867365D01*
X183806427Y-102867361D01*
X184811271Y-101862519D01*
X184872594Y-101829034D01*
X184898952Y-101826200D01*
X191320455Y-101826200D01*
X191387494Y-101845885D01*
G37*
%TD.AperFunction*%
%TA.AperFunction,Conductor*%
G36*
X202503087Y-89865185D02*
G01*
X202523729Y-89881819D01*
X202785181Y-90143271D01*
X202818666Y-90204594D01*
X202821500Y-90230952D01*
X202821500Y-90821000D01*
X202801815Y-90888039D01*
X202749011Y-90933794D01*
X202697500Y-90945000D01*
X202571500Y-90945000D01*
X202571500Y-91071000D01*
X202551815Y-91138039D01*
X202499011Y-91183794D01*
X202447500Y-91195000D01*
X201336705Y-91195000D01*
X201336704Y-91195001D01*
X201336899Y-91197486D01*
X201382718Y-91355198D01*
X201466314Y-91496552D01*
X201466321Y-91496561D01*
X201582438Y-91612678D01*
X201582444Y-91612682D01*
X201614245Y-91631490D01*
X201661928Y-91682560D01*
X201674431Y-91751302D01*
X201647785Y-91815891D01*
X201638804Y-91825903D01*
X201127206Y-92337503D01*
X201005269Y-92459440D01*
X201005267Y-92459442D01*
X200977906Y-92486802D01*
X200950547Y-92514161D01*
X200889223Y-92547645D01*
X200850265Y-92549836D01*
X200753988Y-92540000D01*
X200704000Y-92540000D01*
X200704000Y-93641000D01*
X200684315Y-93708039D01*
X200631511Y-93753794D01*
X200580000Y-93765000D01*
X200454000Y-93765000D01*
X200454000Y-93891000D01*
X200434315Y-93958039D01*
X200381511Y-94003794D01*
X200330000Y-94015000D01*
X199454001Y-94015000D01*
X199454001Y-94289986D01*
X199464494Y-94392697D01*
X199519641Y-94559119D01*
X199519643Y-94559124D01*
X199611684Y-94708345D01*
X199655743Y-94752405D01*
X199689227Y-94813728D01*
X199684242Y-94883420D01*
X199655742Y-94927766D01*
X199131548Y-95451959D01*
X199070225Y-95485444D01*
X199000533Y-95480460D01*
X198944600Y-95438588D01*
X198936487Y-95426289D01*
X198859273Y-95292550D01*
X198715592Y-95105301D01*
X198715587Y-95105295D01*
X198548704Y-94938412D01*
X198548697Y-94938406D01*
X198361454Y-94794730D01*
X198361453Y-94794729D01*
X198361450Y-94794727D01*
X198268281Y-94740936D01*
X198157056Y-94676719D01*
X198157045Y-94676714D01*
X197938993Y-94586394D01*
X197711014Y-94525307D01*
X197711013Y-94525306D01*
X197711010Y-94525306D01*
X197477020Y-94494501D01*
X197477017Y-94494500D01*
X197477011Y-94494500D01*
X197240989Y-94494500D01*
X197240983Y-94494500D01*
X197240979Y-94494501D01*
X197006989Y-94525306D01*
X196779006Y-94586394D01*
X196560954Y-94676714D01*
X196560943Y-94676719D01*
X196356545Y-94794730D01*
X196169302Y-94938406D01*
X196169295Y-94938412D01*
X196002412Y-95105295D01*
X196002406Y-95105302D01*
X195858730Y-95292545D01*
X195740719Y-95496943D01*
X195740714Y-95496954D01*
X195650394Y-95715006D01*
X195630093Y-95790772D01*
X195593728Y-95850432D01*
X195530881Y-95880961D01*
X195461505Y-95872666D01*
X195407627Y-95828181D01*
X195407216Y-95827569D01*
X195326964Y-95707465D01*
X195326961Y-95707461D01*
X195201538Y-95582038D01*
X195201534Y-95582035D01*
X195054053Y-95483490D01*
X195054040Y-95483483D01*
X194890167Y-95415606D01*
X194890158Y-95415603D01*
X194716194Y-95381000D01*
X194716191Y-95381000D01*
X193978499Y-95381000D01*
X193911460Y-95361315D01*
X193865705Y-95308511D01*
X193854499Y-95257000D01*
X193854499Y-95134998D01*
X193854498Y-95134981D01*
X193843999Y-95032203D01*
X193843998Y-95032200D01*
X193830180Y-94990500D01*
X193788814Y-94865666D01*
X193696712Y-94716344D01*
X193572656Y-94592288D01*
X193569342Y-94590243D01*
X193567546Y-94588248D01*
X193566989Y-94587807D01*
X193567064Y-94587711D01*
X193522618Y-94538297D01*
X193511397Y-94469334D01*
X193539240Y-94405252D01*
X193569348Y-94379165D01*
X193572342Y-94377318D01*
X193696315Y-94253345D01*
X193788356Y-94104124D01*
X193788358Y-94104119D01*
X193843505Y-93937697D01*
X193843506Y-93937690D01*
X193853999Y-93834986D01*
X193854000Y-93834973D01*
X193854000Y-93785000D01*
X192753000Y-93785000D01*
X192685961Y-93765315D01*
X192640206Y-93712511D01*
X192629000Y-93661000D01*
X192629000Y-93409000D01*
X192648685Y-93341961D01*
X192701489Y-93296206D01*
X192753000Y-93285000D01*
X193853999Y-93285000D01*
X193853999Y-93235028D01*
X193853998Y-93235013D01*
X193843506Y-93132305D01*
X193842875Y-93129357D01*
X193843014Y-93127492D01*
X193842818Y-93125569D01*
X193843161Y-93125533D01*
X193848090Y-93059682D01*
X193890147Y-93003887D01*
X193955692Y-92979687D01*
X193964128Y-92979400D01*
X195616048Y-92979400D01*
X195683087Y-92999085D01*
X195703729Y-93015719D01*
X196242263Y-93554255D01*
X196242267Y-93554258D01*
X196344710Y-93622709D01*
X196344711Y-93622709D01*
X196344715Y-93622712D01*
X196411396Y-93650331D01*
X196411398Y-93650333D01*
X196437151Y-93661000D01*
X196458548Y-93669863D01*
X196478597Y-93673851D01*
X196512196Y-93680534D01*
X196579392Y-93693901D01*
X196579394Y-93693901D01*
X196708721Y-93693901D01*
X196708741Y-93693900D01*
X198121707Y-93693900D01*
X198182129Y-93681881D01*
X198242552Y-93669863D01*
X198242555Y-93669861D01*
X198242558Y-93669861D01*
X198275887Y-93656054D01*
X198275886Y-93656054D01*
X198275892Y-93656052D01*
X198356386Y-93622712D01*
X198407609Y-93588484D01*
X198458833Y-93554258D01*
X198545958Y-93467133D01*
X198545958Y-93467131D01*
X198556166Y-93456924D01*
X198556167Y-93456921D01*
X198773075Y-93240013D01*
X199454000Y-93240013D01*
X199454000Y-93515000D01*
X200204000Y-93515000D01*
X200204000Y-92540000D01*
X200203999Y-92539999D01*
X200154029Y-92540000D01*
X200154011Y-92540001D01*
X200051302Y-92550494D01*
X199884880Y-92605641D01*
X199884875Y-92605643D01*
X199735654Y-92697684D01*
X199611684Y-92821654D01*
X199519643Y-92970875D01*
X199519641Y-92970880D01*
X199464494Y-93137302D01*
X199464493Y-93137309D01*
X199454000Y-93240013D01*
X198773075Y-93240013D01*
X200304375Y-91708715D01*
X201181273Y-90831819D01*
X201242596Y-90798334D01*
X201268954Y-90795500D01*
X201349686Y-90795500D01*
X201349694Y-90795500D01*
X201386569Y-90792598D01*
X201386571Y-90792597D01*
X201386573Y-90792597D01*
X201428191Y-90780505D01*
X201544398Y-90746744D01*
X201602694Y-90712268D01*
X201665815Y-90695000D01*
X202321500Y-90695000D01*
X202321500Y-90145000D01*
X202058500Y-90145000D01*
X201991461Y-90125315D01*
X201945706Y-90072511D01*
X201934500Y-90021000D01*
X201934500Y-89969500D01*
X201954185Y-89902461D01*
X202006989Y-89856706D01*
X202058500Y-89845500D01*
X202436048Y-89845500D01*
X202503087Y-89865185D01*
G37*
%TD.AperFunction*%
%TA.AperFunction,Conductor*%
G36*
X206316943Y-81019685D02*
G01*
X206326377Y-81026389D01*
X206451573Y-81124474D01*
X206462781Y-81134404D01*
X206665596Y-81337219D01*
X206675525Y-81348426D01*
X206773611Y-81473623D01*
X206799460Y-81538532D01*
X206800000Y-81550094D01*
X206800000Y-161649903D01*
X206780315Y-161716942D01*
X206773611Y-161726376D01*
X206675525Y-161851573D01*
X206665595Y-161862781D01*
X206462781Y-162065595D01*
X206451574Y-162075524D01*
X206326378Y-162173610D01*
X206261466Y-162199460D01*
X206249904Y-162200000D01*
X155478000Y-162200000D01*
X155410961Y-162180315D01*
X155365206Y-162127511D01*
X155354000Y-162076000D01*
X155354000Y-159081995D01*
X201998200Y-159081995D01*
X201998200Y-159318004D01*
X201998201Y-159318020D01*
X202029006Y-159552010D01*
X202090094Y-159779993D01*
X202180414Y-159998045D01*
X202180419Y-159998056D01*
X202251377Y-160120957D01*
X202298427Y-160202450D01*
X202298429Y-160202453D01*
X202298430Y-160202454D01*
X202442106Y-160389697D01*
X202442112Y-160389704D01*
X202608995Y-160556587D01*
X202609001Y-160556592D01*
X202796250Y-160700273D01*
X202927618Y-160776118D01*
X203000643Y-160818280D01*
X203000648Y-160818282D01*
X203000651Y-160818284D01*
X203218707Y-160908606D01*
X203446686Y-160969693D01*
X203680689Y-161000500D01*
X203680696Y-161000500D01*
X203916704Y-161000500D01*
X203916711Y-161000500D01*
X204150714Y-160969693D01*
X204378693Y-160908606D01*
X204596749Y-160818284D01*
X204801150Y-160700273D01*
X204988399Y-160556592D01*
X205155292Y-160389699D01*
X205298973Y-160202450D01*
X205416984Y-159998049D01*
X205507306Y-159779993D01*
X205568393Y-159552014D01*
X205599200Y-159318011D01*
X205599200Y-159081989D01*
X205568393Y-158847986D01*
X205507306Y-158620007D01*
X205416984Y-158401951D01*
X205416982Y-158401948D01*
X205416980Y-158401943D01*
X205374818Y-158328918D01*
X205298973Y-158197550D01*
X205155292Y-158010301D01*
X205155287Y-158010295D01*
X204988404Y-157843412D01*
X204988397Y-157843406D01*
X204801154Y-157699730D01*
X204801153Y-157699729D01*
X204801150Y-157699727D01*
X204719657Y-157652677D01*
X204596756Y-157581719D01*
X204596745Y-157581714D01*
X204378693Y-157491394D01*
X204150710Y-157430306D01*
X203916720Y-157399501D01*
X203916717Y-157399500D01*
X203916711Y-157399500D01*
X203680689Y-157399500D01*
X203680683Y-157399500D01*
X203680679Y-157399501D01*
X203446689Y-157430306D01*
X203218706Y-157491394D01*
X203000654Y-157581714D01*
X203000643Y-157581719D01*
X202796245Y-157699730D01*
X202609002Y-157843406D01*
X202608995Y-157843412D01*
X202442112Y-158010295D01*
X202442106Y-158010302D01*
X202298430Y-158197545D01*
X202180419Y-158401943D01*
X202180414Y-158401954D01*
X202090094Y-158620006D01*
X202029006Y-158847989D01*
X201998201Y-159081979D01*
X201998200Y-159081995D01*
X155354000Y-159081995D01*
X155354000Y-147231966D01*
X156398500Y-147231966D01*
X156398500Y-150148028D01*
X156398501Y-150148034D01*
X156409113Y-150267415D01*
X156465089Y-150463045D01*
X156465090Y-150463048D01*
X156465091Y-150463049D01*
X156559302Y-150643407D01*
X156583010Y-150672483D01*
X156687890Y-150801109D01*
X156763564Y-150862812D01*
X156845593Y-150929698D01*
X157025951Y-151023909D01*
X157221582Y-151079886D01*
X157340963Y-151090500D01*
X158457036Y-151090499D01*
X158576418Y-151079886D01*
X158772049Y-151023909D01*
X158952407Y-150929698D01*
X159110109Y-150801109D01*
X159238698Y-150643407D01*
X159332909Y-150463049D01*
X159388886Y-150267418D01*
X159399500Y-150148037D01*
X159399500Y-149714500D01*
X159419185Y-149647461D01*
X159471989Y-149601706D01*
X159523500Y-149590500D01*
X162813709Y-149590500D01*
X162880748Y-149610185D01*
X162910356Y-149636813D01*
X162951277Y-149687721D01*
X162951278Y-149687722D01*
X163020486Y-149743353D01*
X163060405Y-149800696D01*
X163062985Y-149870518D01*
X163027406Y-149930651D01*
X163020486Y-149936647D01*
X162951278Y-149992277D01*
X162951277Y-149992278D01*
X162831969Y-150140704D01*
X162831967Y-150140707D01*
X162747360Y-150311302D01*
X162701400Y-150496107D01*
X162698500Y-150538879D01*
X162698500Y-151441122D01*
X162698501Y-151441125D01*
X162701399Y-151483886D01*
X162701399Y-151483887D01*
X162747360Y-151668696D01*
X162831967Y-151839292D01*
X162831969Y-151839295D01*
X162951277Y-151987721D01*
X162951278Y-151987722D01*
X163099704Y-152107030D01*
X163099707Y-152107032D01*
X163270302Y-152191639D01*
X163270303Y-152191639D01*
X163270307Y-152191641D01*
X163455111Y-152237600D01*
X163497877Y-152240500D01*
X164900122Y-152240499D01*
X164942889Y-152237600D01*
X165127693Y-152191641D01*
X165298296Y-152107030D01*
X165446722Y-151987722D01*
X165487644Y-151936813D01*
X165544987Y-151896894D01*
X165584291Y-151890500D01*
X179632693Y-151890500D01*
X179632694Y-151890499D01*
X179806666Y-151855895D01*
X179888606Y-151821953D01*
X179970547Y-151788013D01*
X179970549Y-151788011D01*
X179970552Y-151788010D01*
X180058955Y-151728939D01*
X180058955Y-151728938D01*
X180058959Y-151728936D01*
X180118036Y-151689464D01*
X180717000Y-151090500D01*
X181115680Y-150691819D01*
X181177003Y-150658334D01*
X181203361Y-150655500D01*
X182379005Y-150655500D01*
X182379010Y-150655500D01*
X182481798Y-150644999D01*
X182648335Y-150589814D01*
X182797656Y-150497712D01*
X182921712Y-150373656D01*
X183013814Y-150224335D01*
X183068999Y-150057798D01*
X183079500Y-149955010D01*
X183079500Y-148929038D01*
X190038500Y-148929038D01*
X190038500Y-149180961D01*
X190077910Y-149429785D01*
X190155760Y-149669383D01*
X190227145Y-149809482D01*
X190258244Y-149870518D01*
X190270132Y-149893848D01*
X190418201Y-150097649D01*
X190418205Y-150097654D01*
X190596345Y-150275794D01*
X190596350Y-150275798D01*
X190765955Y-150399022D01*
X190800155Y-150423870D01*
X190941928Y-150496107D01*
X191024616Y-150538239D01*
X191024618Y-150538239D01*
X191024621Y-150538241D01*
X191264215Y-150616090D01*
X191513038Y-150655500D01*
X191513039Y-150655500D01*
X191764961Y-150655500D01*
X191764962Y-150655500D01*
X192013785Y-150616090D01*
X192253379Y-150538241D01*
X192477845Y-150423870D01*
X192681656Y-150275793D01*
X192859793Y-150097656D01*
X193007870Y-149893845D01*
X193122241Y-149669379D01*
X193200090Y-149429785D01*
X193239500Y-149180962D01*
X193239500Y-148929038D01*
X193227095Y-148850715D01*
X193208483Y-148733204D01*
X193205938Y-148717135D01*
X193828500Y-148717135D01*
X193828500Y-150612870D01*
X193828501Y-150612876D01*
X193834908Y-150672483D01*
X193885202Y-150807328D01*
X193885206Y-150807335D01*
X193971452Y-150922544D01*
X193971455Y-150922547D01*
X194086664Y-151008793D01*
X194086671Y-151008797D01*
X194221517Y-151059091D01*
X194221516Y-151059091D01*
X194228444Y-151059835D01*
X194281127Y-151065500D01*
X196176872Y-151065499D01*
X196236483Y-151059091D01*
X196371331Y-151008796D01*
X196486546Y-150922546D01*
X196572796Y-150807331D01*
X196575117Y-150801109D01*
X196602601Y-150727420D01*
X196644471Y-150671486D01*
X196709936Y-150647068D01*
X196778209Y-150661919D01*
X196806464Y-150683071D01*
X196856636Y-150733243D01*
X196856641Y-150733247D01*
X196927750Y-150784910D01*
X197034978Y-150862815D01*
X197163375Y-150928237D01*
X197231393Y-150962895D01*
X197231396Y-150962896D01*
X197336221Y-150996955D01*
X197441049Y-151031015D01*
X197658778Y-151065500D01*
X197658779Y-151065500D01*
X197879221Y-151065500D01*
X197879222Y-151065500D01*
X198096951Y-151031015D01*
X198306606Y-150962895D01*
X198503022Y-150862815D01*
X198681365Y-150733242D01*
X198837242Y-150577365D01*
X198966815Y-150399022D01*
X199066895Y-150202606D01*
X199135015Y-149992951D01*
X199169500Y-149775222D01*
X199169500Y-149554778D01*
X199135015Y-149337049D01*
X199066895Y-149127394D01*
X199066895Y-149127393D01*
X199028984Y-149052990D01*
X198966815Y-148930978D01*
X198908501Y-148850715D01*
X198837247Y-148752641D01*
X198837243Y-148752636D01*
X198681359Y-148596752D01*
X198672373Y-148590224D01*
X198541001Y-148494778D01*
X200818500Y-148494778D01*
X200818500Y-148715221D01*
X200852985Y-148932952D01*
X200921103Y-149142603D01*
X200921104Y-149142606D01*
X200989122Y-149276096D01*
X201016913Y-149330638D01*
X201021187Y-149339025D01*
X201150752Y-149517358D01*
X201150756Y-149517363D01*
X201201316Y-149567923D01*
X201234801Y-149629246D01*
X201229817Y-149698938D01*
X201187945Y-149754871D01*
X201156969Y-149771785D01*
X201076918Y-149801643D01*
X201076906Y-149801649D01*
X200961812Y-149887809D01*
X200961809Y-149887812D01*
X200875649Y-150002906D01*
X200875645Y-150002913D01*
X200825403Y-150137620D01*
X200825401Y-150137627D01*
X200819000Y-150197155D01*
X200819000Y-150895000D01*
X201843722Y-150895000D01*
X201799667Y-150971306D01*
X201769000Y-151085756D01*
X201769000Y-151204244D01*
X201799667Y-151318694D01*
X201843722Y-151395000D01*
X200819000Y-151395000D01*
X200819000Y-152092844D01*
X200825401Y-152152372D01*
X200825403Y-152152379D01*
X200875645Y-152287086D01*
X200875649Y-152287093D01*
X200961809Y-152402187D01*
X200961812Y-152402190D01*
X201076906Y-152488350D01*
X201076913Y-152488354D01*
X201211620Y-152538596D01*
X201211627Y-152538598D01*
X201271155Y-152544999D01*
X201271172Y-152545000D01*
X201969000Y-152545000D01*
X201969000Y-151520277D01*
X202045306Y-151564333D01*
X202159756Y-151595000D01*
X202278244Y-151595000D01*
X202392694Y-151564333D01*
X202469000Y-151520277D01*
X202469000Y-152545000D01*
X203166828Y-152545000D01*
X203166844Y-152544999D01*
X203226372Y-152538598D01*
X203226379Y-152538596D01*
X203361086Y-152488354D01*
X203361093Y-152488350D01*
X203476187Y-152402190D01*
X203476190Y-152402187D01*
X203562350Y-152287093D01*
X203562354Y-152287086D01*
X203612596Y-152152379D01*
X203612598Y-152152372D01*
X203618999Y-152092844D01*
X203619000Y-152092827D01*
X203619000Y-151395000D01*
X202594278Y-151395000D01*
X202638333Y-151318694D01*
X202669000Y-151204244D01*
X202669000Y-151085756D01*
X202638333Y-150971306D01*
X202594278Y-150895000D01*
X203619000Y-150895000D01*
X203619000Y-150197172D01*
X203618999Y-150197155D01*
X203612598Y-150137627D01*
X203612596Y-150137620D01*
X203562354Y-150002913D01*
X203562350Y-150002906D01*
X203476190Y-149887812D01*
X203476187Y-149887809D01*
X203361093Y-149801649D01*
X203361087Y-149801646D01*
X203281030Y-149771786D01*
X203225097Y-149729914D01*
X203200680Y-149664450D01*
X203215532Y-149596177D01*
X203236681Y-149567925D01*
X203287242Y-149517365D01*
X203416815Y-149339022D01*
X203516895Y-149142606D01*
X203585015Y-148932951D01*
X203619500Y-148715222D01*
X203619500Y-148494778D01*
X203585015Y-148277049D01*
X203516895Y-148067394D01*
X203516895Y-148067393D01*
X203451675Y-147939394D01*
X203416815Y-147870978D01*
X203392609Y-147837661D01*
X203287247Y-147692641D01*
X203287243Y-147692636D01*
X203131363Y-147536756D01*
X203131358Y-147536752D01*
X202953025Y-147407187D01*
X202953024Y-147407186D01*
X202953022Y-147407185D01*
X202890096Y-147375122D01*
X202756606Y-147307104D01*
X202756603Y-147307103D01*
X202546952Y-147238985D01*
X202438086Y-147221742D01*
X202329222Y-147204500D01*
X202108778Y-147204500D01*
X202036201Y-147215995D01*
X201891047Y-147238985D01*
X201681396Y-147307103D01*
X201681393Y-147307104D01*
X201484974Y-147407187D01*
X201306641Y-147536752D01*
X201306636Y-147536756D01*
X201150756Y-147692636D01*
X201150752Y-147692641D01*
X201021187Y-147870974D01*
X200921104Y-148067393D01*
X200921103Y-148067396D01*
X200852985Y-148277047D01*
X200818500Y-148494778D01*
X198541001Y-148494778D01*
X198503025Y-148467187D01*
X198503024Y-148467186D01*
X198503022Y-148467185D01*
X198385791Y-148407452D01*
X198306606Y-148367104D01*
X198306603Y-148367103D01*
X198096952Y-148298985D01*
X197958440Y-148277047D01*
X197879222Y-148264500D01*
X197658778Y-148264500D01*
X197586201Y-148275995D01*
X197441047Y-148298985D01*
X197231396Y-148367103D01*
X197231393Y-148367104D01*
X197034974Y-148467187D01*
X196856641Y-148596752D01*
X196856636Y-148596756D01*
X196806463Y-148646929D01*
X196745140Y-148680413D01*
X196675448Y-148675428D01*
X196619515Y-148633557D01*
X196602601Y-148602580D01*
X196572797Y-148522671D01*
X196572793Y-148522664D01*
X196486547Y-148407455D01*
X196486544Y-148407452D01*
X196371335Y-148321206D01*
X196371328Y-148321202D01*
X196236482Y-148270908D01*
X196236483Y-148270908D01*
X196176883Y-148264501D01*
X196176881Y-148264500D01*
X196176873Y-148264500D01*
X196176864Y-148264500D01*
X194281129Y-148264500D01*
X194281123Y-148264501D01*
X194221516Y-148270908D01*
X194086671Y-148321202D01*
X194086664Y-148321206D01*
X193971455Y-148407452D01*
X193971452Y-148407455D01*
X193885206Y-148522664D01*
X193885202Y-148522671D01*
X193834908Y-148657517D01*
X193828501Y-148717116D01*
X193828500Y-148717135D01*
X193205938Y-148717135D01*
X193200090Y-148680214D01*
X193130872Y-148467185D01*
X193122241Y-148440621D01*
X193122239Y-148440618D01*
X193122239Y-148440616D01*
X193050074Y-148298985D01*
X193007870Y-148216155D01*
X192951489Y-148138553D01*
X192859798Y-148012350D01*
X192859794Y-148012345D01*
X192681654Y-147834205D01*
X192681649Y-147834201D01*
X192477848Y-147686132D01*
X192477847Y-147686131D01*
X192477845Y-147686130D01*
X192368873Y-147630606D01*
X192253383Y-147571760D01*
X192013785Y-147493910D01*
X191764962Y-147454500D01*
X191513038Y-147454500D01*
X191446738Y-147465001D01*
X191264214Y-147493910D01*
X191024616Y-147571760D01*
X190800151Y-147686132D01*
X190596350Y-147834201D01*
X190596345Y-147834205D01*
X190418205Y-148012345D01*
X190418201Y-148012350D01*
X190270132Y-148216151D01*
X190155760Y-148440616D01*
X190077910Y-148680214D01*
X190038500Y-148929038D01*
X183079500Y-148929038D01*
X183079500Y-148154990D01*
X183068999Y-148052202D01*
X183013814Y-147885665D01*
X182921712Y-147736344D01*
X182797656Y-147612288D01*
X182679476Y-147539394D01*
X182648337Y-147520187D01*
X182648332Y-147520185D01*
X182588549Y-147500375D01*
X182481798Y-147465001D01*
X182481796Y-147465000D01*
X182379017Y-147454500D01*
X182379010Y-147454500D01*
X180578990Y-147454500D01*
X180578982Y-147454500D01*
X180476203Y-147465000D01*
X180476202Y-147465001D01*
X180429182Y-147480582D01*
X180309667Y-147520185D01*
X180309662Y-147520187D01*
X180160342Y-147612289D01*
X180036289Y-147736342D01*
X179944187Y-147885662D01*
X179944185Y-147885667D01*
X179926382Y-147939394D01*
X179889001Y-148052202D01*
X179889001Y-148052203D01*
X179889000Y-148052203D01*
X179878500Y-148154982D01*
X179878500Y-149330638D01*
X179858815Y-149397677D01*
X179842181Y-149418319D01*
X179207319Y-150053181D01*
X179145996Y-150086666D01*
X179119638Y-150089500D01*
X165584291Y-150089500D01*
X165517252Y-150069815D01*
X165487644Y-150043187D01*
X165446722Y-149992278D01*
X165446721Y-149992277D01*
X165377514Y-149936647D01*
X165337595Y-149879304D01*
X165335015Y-149809482D01*
X165370594Y-149749349D01*
X165377514Y-149743353D01*
X165394233Y-149729914D01*
X165446722Y-149687722D01*
X165505075Y-149615126D01*
X165562416Y-149575209D01*
X165577520Y-149571199D01*
X165654466Y-149555895D01*
X165747484Y-149517365D01*
X165818347Y-149488013D01*
X165862553Y-149458474D01*
X165906755Y-149428939D01*
X165906755Y-149428938D01*
X165906759Y-149428936D01*
X165965836Y-149389464D01*
X166633480Y-148721818D01*
X166694803Y-148688334D01*
X166721161Y-148685500D01*
X173103002Y-148685500D01*
X173170041Y-148705185D01*
X173208539Y-148744401D01*
X173245088Y-148803656D01*
X173369144Y-148927712D01*
X173518466Y-149019814D01*
X173685003Y-149074999D01*
X173787791Y-149085500D01*
X174987808Y-149085499D01*
X175090597Y-149074999D01*
X175257134Y-149019814D01*
X175406456Y-148927712D01*
X175530512Y-148803656D01*
X175622614Y-148654334D01*
X175645902Y-148584054D01*
X175649910Y-148576050D01*
X175667860Y-148556772D01*
X175682855Y-148535116D01*
X175691295Y-148531606D01*
X175697525Y-148524917D01*
X175723049Y-148518404D01*
X175747371Y-148508292D01*
X175763634Y-148508048D01*
X175765225Y-148507643D01*
X175766323Y-148508008D01*
X175770519Y-148507946D01*
X175808325Y-148510921D01*
X176487800Y-147831446D01*
X176487800Y-147837661D01*
X176515059Y-147939394D01*
X176567720Y-148030606D01*
X176642194Y-148105080D01*
X176733406Y-148157741D01*
X176835139Y-148185000D01*
X176841353Y-148185000D01*
X176161876Y-148864474D01*
X176206450Y-148896859D01*
X176388768Y-148989755D01*
X176583382Y-149052990D01*
X176785483Y-149085000D01*
X176990117Y-149085000D01*
X177192217Y-149052990D01*
X177386831Y-148989755D01*
X177569149Y-148896859D01*
X177613721Y-148864474D01*
X176934247Y-148185000D01*
X176940461Y-148185000D01*
X177042194Y-148157741D01*
X177133406Y-148105080D01*
X177207880Y-148030606D01*
X177260541Y-147939394D01*
X177287800Y-147837661D01*
X177287800Y-147831447D01*
X177967274Y-148510921D01*
X177999659Y-148466349D01*
X178092555Y-148284031D01*
X178155790Y-148089417D01*
X178187800Y-147887317D01*
X178187800Y-147682682D01*
X178155790Y-147480582D01*
X178092555Y-147285968D01*
X177999659Y-147103650D01*
X177967274Y-147059077D01*
X177967274Y-147059076D01*
X177287800Y-147738551D01*
X177287800Y-147732339D01*
X177260541Y-147630606D01*
X177207880Y-147539394D01*
X177133406Y-147464920D01*
X177042194Y-147412259D01*
X176940461Y-147385000D01*
X176934246Y-147385000D01*
X177613722Y-146705524D01*
X177613721Y-146705523D01*
X177569159Y-146673147D01*
X177569150Y-146673141D01*
X177386831Y-146580244D01*
X177192217Y-146517009D01*
X176990117Y-146485000D01*
X176785483Y-146485000D01*
X176583382Y-146517009D01*
X176388768Y-146580244D01*
X176206444Y-146673143D01*
X176161877Y-146705523D01*
X176161877Y-146705524D01*
X176841354Y-147385000D01*
X176835139Y-147385000D01*
X176733406Y-147412259D01*
X176642194Y-147464920D01*
X176567720Y-147539394D01*
X176515059Y-147630606D01*
X176487800Y-147732339D01*
X176487800Y-147738553D01*
X175808324Y-147059077D01*
X175770519Y-147062053D01*
X175702141Y-147047689D01*
X175652384Y-146998638D01*
X175649910Y-146993949D01*
X175645901Y-146985942D01*
X175622614Y-146915666D01*
X175530512Y-146766344D01*
X175406456Y-146642288D01*
X175305866Y-146580244D01*
X175257136Y-146550187D01*
X175257131Y-146550185D01*
X175255662Y-146549698D01*
X175090597Y-146495001D01*
X175090595Y-146495000D01*
X174987810Y-146484500D01*
X173787798Y-146484500D01*
X173787781Y-146484501D01*
X173685003Y-146495000D01*
X173685000Y-146495001D01*
X173518468Y-146550185D01*
X173518463Y-146550187D01*
X173369142Y-146642289D01*
X173245089Y-146766342D01*
X173208541Y-146825597D01*
X173156593Y-146872321D01*
X173103002Y-146884500D01*
X166208106Y-146884500D01*
X166051428Y-146915666D01*
X166034134Y-146919106D01*
X165986094Y-146939004D01*
X165868563Y-146987686D01*
X165799094Y-146995154D01*
X165736615Y-146963878D01*
X165700963Y-146903788D01*
X165697396Y-146864729D01*
X165699000Y-146841090D01*
X165699000Y-146640000D01*
X162699000Y-146640000D01*
X162699000Y-146841096D01*
X162701897Y-146883824D01*
X162747831Y-147068523D01*
X162832390Y-147239022D01*
X162832392Y-147239025D01*
X162951630Y-147387364D01*
X163020884Y-147443031D01*
X163060803Y-147500375D01*
X163063383Y-147570197D01*
X163027805Y-147630329D01*
X163020885Y-147636326D01*
X162958927Y-147686130D01*
X162951276Y-147692280D01*
X162910356Y-147743187D01*
X162853013Y-147783106D01*
X162813709Y-147789500D01*
X159523499Y-147789500D01*
X159456460Y-147769815D01*
X159410705Y-147717011D01*
X159399499Y-147665500D01*
X159399499Y-147231971D01*
X159399499Y-147231964D01*
X159388886Y-147112582D01*
X159332909Y-146916951D01*
X159238698Y-146736593D01*
X159186684Y-146672803D01*
X159110109Y-146578890D01*
X158952409Y-146450304D01*
X158952410Y-146450304D01*
X158952407Y-146450302D01*
X158772049Y-146356091D01*
X158772048Y-146356090D01*
X158772045Y-146356089D01*
X158654829Y-146322550D01*
X158576418Y-146300114D01*
X158576415Y-146300113D01*
X158576413Y-146300113D01*
X158510102Y-146294217D01*
X158457037Y-146289500D01*
X158457032Y-146289500D01*
X157340971Y-146289500D01*
X157340965Y-146289500D01*
X157340964Y-146289501D01*
X157329316Y-146290536D01*
X157221584Y-146300113D01*
X157025954Y-146356089D01*
X156935772Y-146403196D01*
X156845593Y-146450302D01*
X156845591Y-146450303D01*
X156845590Y-146450304D01*
X156687890Y-146578890D01*
X156584636Y-146705523D01*
X156559302Y-146736593D01*
X156519280Y-146813212D01*
X156465089Y-146916954D01*
X156409114Y-147112583D01*
X156409113Y-147112586D01*
X156398500Y-147231966D01*
X155354000Y-147231966D01*
X155354000Y-145938903D01*
X162699000Y-145938903D01*
X162699000Y-146140000D01*
X163949000Y-146140000D01*
X164449000Y-146140000D01*
X165699000Y-146140000D01*
X165699000Y-145938903D01*
X165696102Y-145896175D01*
X165650168Y-145711476D01*
X165565609Y-145540977D01*
X165565607Y-145540974D01*
X165446367Y-145392633D01*
X165446366Y-145392632D01*
X165298025Y-145273392D01*
X165298022Y-145273390D01*
X165127523Y-145188831D01*
X164942824Y-145142897D01*
X164900097Y-145140000D01*
X164449000Y-145140000D01*
X164449000Y-146140000D01*
X163949000Y-146140000D01*
X163949000Y-145140000D01*
X163497903Y-145140000D01*
X163455175Y-145142897D01*
X163270476Y-145188831D01*
X163099977Y-145273390D01*
X163099974Y-145273392D01*
X162951633Y-145392632D01*
X162951632Y-145392633D01*
X162832392Y-145540974D01*
X162832390Y-145540977D01*
X162747831Y-145711476D01*
X162701897Y-145896175D01*
X162699000Y-145938903D01*
X155354000Y-145938903D01*
X155354000Y-141997135D01*
X157399700Y-141997135D01*
X157399700Y-144092870D01*
X157399701Y-144092876D01*
X157406108Y-144152483D01*
X157456402Y-144287328D01*
X157456406Y-144287335D01*
X157542652Y-144402544D01*
X157542655Y-144402547D01*
X157657864Y-144488793D01*
X157657871Y-144488797D01*
X157792717Y-144539091D01*
X157792716Y-144539091D01*
X157799644Y-144539835D01*
X157852327Y-144545500D01*
X159948072Y-144545499D01*
X160007683Y-144539091D01*
X160142531Y-144488796D01*
X160257746Y-144402546D01*
X160343996Y-144287331D01*
X160394291Y-144152483D01*
X160400700Y-144092873D01*
X160400699Y-142926947D01*
X167400200Y-142926947D01*
X167400200Y-143163052D01*
X167437134Y-143396247D01*
X167510097Y-143620802D01*
X167617287Y-143831174D01*
X167677538Y-143914104D01*
X167677540Y-143914105D01*
X168417237Y-143174408D01*
X168434275Y-143237993D01*
X168500101Y-143352007D01*
X168593193Y-143445099D01*
X168707207Y-143510925D01*
X168770790Y-143527962D01*
X168031093Y-144267658D01*
X168114028Y-144327914D01*
X168324397Y-144435102D01*
X168548952Y-144508065D01*
X168548951Y-144508065D01*
X168782148Y-144545000D01*
X169018252Y-144545000D01*
X169251447Y-144508065D01*
X169476002Y-144435102D01*
X169686363Y-144327918D01*
X169686369Y-144327914D01*
X169769304Y-144267658D01*
X169769305Y-144267658D01*
X169029608Y-143527962D01*
X169093193Y-143510925D01*
X169207207Y-143445099D01*
X169300299Y-143352007D01*
X169366125Y-143237993D01*
X169383162Y-143174409D01*
X170122858Y-143914105D01*
X170122858Y-143914104D01*
X170183114Y-143831169D01*
X170183118Y-143831163D01*
X170261718Y-143676902D01*
X182828500Y-143676902D01*
X182828500Y-143913097D01*
X182865446Y-144146368D01*
X182938433Y-144370996D01*
X183027093Y-144545000D01*
X183045657Y-144581433D01*
X183184483Y-144772510D01*
X183351490Y-144939517D01*
X183542567Y-145078343D01*
X183641991Y-145129002D01*
X183753003Y-145185566D01*
X183753005Y-145185566D01*
X183753008Y-145185568D01*
X183873412Y-145224689D01*
X183977631Y-145258553D01*
X184210903Y-145295500D01*
X184210908Y-145295500D01*
X184447097Y-145295500D01*
X184680368Y-145258553D01*
X184904992Y-145185568D01*
X185115433Y-145078343D01*
X185306510Y-144939517D01*
X185473517Y-144772510D01*
X185612343Y-144581433D01*
X185719568Y-144370992D01*
X185792553Y-144146368D01*
X185829340Y-143914105D01*
X185829500Y-143913097D01*
X185829500Y-143676902D01*
X187328500Y-143676902D01*
X187328500Y-143913097D01*
X187365446Y-144146368D01*
X187438433Y-144370996D01*
X187527093Y-144545000D01*
X187545657Y-144581433D01*
X187684483Y-144772510D01*
X187851490Y-144939517D01*
X188042567Y-145078343D01*
X188141991Y-145129002D01*
X188253003Y-145185566D01*
X188253005Y-145185566D01*
X188253008Y-145185568D01*
X188373412Y-145224689D01*
X188477631Y-145258553D01*
X188710903Y-145295500D01*
X188710908Y-145295500D01*
X188947097Y-145295500D01*
X189180368Y-145258553D01*
X189404992Y-145185568D01*
X189615433Y-145078343D01*
X189806510Y-144939517D01*
X189973517Y-144772510D01*
X190112343Y-144581433D01*
X190219568Y-144370992D01*
X190292553Y-144146368D01*
X190329340Y-143914105D01*
X190329500Y-143913097D01*
X190329500Y-143676902D01*
X190292553Y-143443631D01*
X190244259Y-143295000D01*
X190219568Y-143219008D01*
X190219566Y-143219005D01*
X190219566Y-143219003D01*
X190130907Y-143045001D01*
X190112343Y-143008567D01*
X189973517Y-142817490D01*
X189806510Y-142650483D01*
X189615433Y-142511657D01*
X189532101Y-142469197D01*
X189404996Y-142404433D01*
X189180368Y-142331446D01*
X188947097Y-142294500D01*
X188947092Y-142294500D01*
X188710908Y-142294500D01*
X188710903Y-142294500D01*
X188477631Y-142331446D01*
X188253003Y-142404433D01*
X188042566Y-142511657D01*
X187996674Y-142545000D01*
X187851490Y-142650483D01*
X187851488Y-142650485D01*
X187851487Y-142650485D01*
X187684485Y-142817487D01*
X187684485Y-142817488D01*
X187684483Y-142817490D01*
X187659405Y-142852007D01*
X187545657Y-143008566D01*
X187438433Y-143219003D01*
X187365446Y-143443631D01*
X187328500Y-143676902D01*
X185829500Y-143676902D01*
X185792553Y-143443631D01*
X185744259Y-143295000D01*
X185719568Y-143219008D01*
X185719566Y-143219005D01*
X185719566Y-143219003D01*
X185630907Y-143045001D01*
X185612343Y-143008567D01*
X185473517Y-142817490D01*
X185306510Y-142650483D01*
X185115433Y-142511657D01*
X185032101Y-142469197D01*
X184904996Y-142404433D01*
X184680368Y-142331446D01*
X184447097Y-142294500D01*
X184447092Y-142294500D01*
X184210908Y-142294500D01*
X184210903Y-142294500D01*
X183977631Y-142331446D01*
X183753003Y-142404433D01*
X183542566Y-142511657D01*
X183496674Y-142545000D01*
X183351490Y-142650483D01*
X183351488Y-142650485D01*
X183351487Y-142650485D01*
X183184485Y-142817487D01*
X183184485Y-142817488D01*
X183184483Y-142817490D01*
X183159405Y-142852007D01*
X183045657Y-143008566D01*
X182938433Y-143219003D01*
X182865446Y-143443631D01*
X182828500Y-143676902D01*
X170261718Y-143676902D01*
X170290300Y-143620807D01*
X170290304Y-143620797D01*
X170363265Y-143396247D01*
X170400200Y-143163052D01*
X170400200Y-142926947D01*
X170363265Y-142693752D01*
X170290302Y-142469197D01*
X170183114Y-142258828D01*
X170122858Y-142175894D01*
X170122858Y-142175893D01*
X169383162Y-142915590D01*
X169366125Y-142852007D01*
X169300299Y-142737993D01*
X169207207Y-142644901D01*
X169093193Y-142579075D01*
X169029609Y-142562037D01*
X169769305Y-141822340D01*
X169769304Y-141822338D01*
X169700583Y-141772409D01*
X169700560Y-141772394D01*
X169686370Y-141762084D01*
X169519278Y-141676947D01*
X172239000Y-141676947D01*
X172239000Y-141913052D01*
X172275934Y-142146247D01*
X172348897Y-142370802D01*
X172456087Y-142581174D01*
X172516338Y-142664104D01*
X172516340Y-142664105D01*
X173215212Y-141965233D01*
X173226482Y-142007292D01*
X173298890Y-142132708D01*
X173401292Y-142235110D01*
X173526708Y-142307518D01*
X173568765Y-142318787D01*
X172869893Y-143017658D01*
X172952828Y-143077914D01*
X173163197Y-143185102D01*
X173387752Y-143258065D01*
X173387751Y-143258065D01*
X173620948Y-143295000D01*
X173857052Y-143295000D01*
X174090247Y-143258065D01*
X174314802Y-143185102D01*
X174525163Y-143077918D01*
X174525169Y-143077914D01*
X174608104Y-143017658D01*
X174608105Y-143017658D01*
X173909233Y-142318787D01*
X173951292Y-142307518D01*
X174076708Y-142235110D01*
X174179110Y-142132708D01*
X174251518Y-142007292D01*
X174262787Y-141965234D01*
X174961658Y-142664105D01*
X174961658Y-142664104D01*
X175021914Y-142581169D01*
X175021918Y-142581163D01*
X175129102Y-142370802D01*
X175202065Y-142146247D01*
X175239000Y-141913052D01*
X175239000Y-141676947D01*
X178739000Y-141676947D01*
X178739000Y-141913052D01*
X178775934Y-142146247D01*
X178848897Y-142370802D01*
X178956087Y-142581174D01*
X179016338Y-142664104D01*
X179016340Y-142664105D01*
X179715212Y-141965233D01*
X179726482Y-142007292D01*
X179798890Y-142132708D01*
X179901292Y-142235110D01*
X180026708Y-142307518D01*
X180068765Y-142318787D01*
X179369893Y-143017658D01*
X179452828Y-143077914D01*
X179663197Y-143185102D01*
X179887752Y-143258065D01*
X179887751Y-143258065D01*
X180120948Y-143295000D01*
X180357052Y-143295000D01*
X180590247Y-143258065D01*
X180814802Y-143185102D01*
X181025163Y-143077918D01*
X181025169Y-143077914D01*
X181108104Y-143017658D01*
X181108105Y-143017658D01*
X180409233Y-142318787D01*
X180451292Y-142307518D01*
X180576708Y-142235110D01*
X180679110Y-142132708D01*
X180751518Y-142007292D01*
X180762787Y-141965233D01*
X181461658Y-142664105D01*
X181461658Y-142664104D01*
X181521914Y-142581169D01*
X181521918Y-142581163D01*
X181629102Y-142370802D01*
X181702065Y-142146247D01*
X181739000Y-141913052D01*
X181739000Y-141694983D01*
X191178500Y-141694983D01*
X191178500Y-142895001D01*
X191178501Y-142895018D01*
X191189000Y-142997796D01*
X191189001Y-142997799D01*
X191226455Y-143110826D01*
X191244186Y-143164334D01*
X191336288Y-143313656D01*
X191460344Y-143437712D01*
X191609666Y-143529814D01*
X191691570Y-143556954D01*
X191749015Y-143596727D01*
X191775838Y-143661243D01*
X191763523Y-143730018D01*
X191725451Y-143774978D01*
X191631787Y-143843028D01*
X191631782Y-143843032D01*
X191487028Y-143987786D01*
X191366715Y-144153386D01*
X191273781Y-144335776D01*
X191210522Y-144530465D01*
X191202450Y-144581433D01*
X191178500Y-144732648D01*
X191178500Y-144937352D01*
X191178843Y-144939517D01*
X191210522Y-145139534D01*
X191273781Y-145334223D01*
X191366715Y-145516613D01*
X191487028Y-145682213D01*
X191631786Y-145826971D01*
X191785850Y-145938903D01*
X191797390Y-145947287D01*
X191913607Y-146006503D01*
X191979776Y-146040218D01*
X191979778Y-146040218D01*
X191979781Y-146040220D01*
X192084137Y-146074127D01*
X192174465Y-146103477D01*
X192275557Y-146119488D01*
X192376648Y-146135500D01*
X192376649Y-146135500D01*
X192581351Y-146135500D01*
X192581352Y-146135500D01*
X192783534Y-146103477D01*
X192978219Y-146040220D01*
X193160610Y-145947287D01*
X193253590Y-145879732D01*
X193326213Y-145826971D01*
X193326215Y-145826968D01*
X193326219Y-145826966D01*
X193470966Y-145682219D01*
X193470968Y-145682215D01*
X193470971Y-145682213D01*
X193573583Y-145540977D01*
X193591287Y-145516610D01*
X193684220Y-145334219D01*
X193747477Y-145139534D01*
X193779500Y-144937352D01*
X193779500Y-144732648D01*
X193747477Y-144530466D01*
X193740198Y-144508065D01*
X193716491Y-144435102D01*
X193684220Y-144335781D01*
X193684218Y-144335778D01*
X193684218Y-144335776D01*
X193649510Y-144267658D01*
X193591287Y-144153390D01*
X193583556Y-144142749D01*
X193470971Y-143987786D01*
X193326219Y-143843034D01*
X193309880Y-143831163D01*
X193232547Y-143774978D01*
X193189882Y-143719649D01*
X193183903Y-143650036D01*
X193216508Y-143588240D01*
X193266426Y-143556955D01*
X193348334Y-143529814D01*
X193497656Y-143437712D01*
X193621712Y-143313656D01*
X193713814Y-143164334D01*
X193768999Y-142997797D01*
X193779500Y-142895009D01*
X193779499Y-142192648D01*
X198798500Y-142192648D01*
X198798500Y-142397351D01*
X198830522Y-142599534D01*
X198893781Y-142794223D01*
X198986715Y-142976613D01*
X199107028Y-143142213D01*
X199251786Y-143286971D01*
X199402195Y-143396247D01*
X199417390Y-143407287D01*
X199488719Y-143443631D01*
X199510080Y-143454515D01*
X199560876Y-143502490D01*
X199577671Y-143570311D01*
X199555134Y-143636446D01*
X199510080Y-143675485D01*
X199417386Y-143722715D01*
X199251786Y-143843028D01*
X199107028Y-143987786D01*
X198986715Y-144153386D01*
X198893781Y-144335776D01*
X198830522Y-144530465D01*
X198822450Y-144581433D01*
X198798500Y-144732648D01*
X198798500Y-144937352D01*
X198798843Y-144939517D01*
X198830522Y-145139534D01*
X198893781Y-145334223D01*
X198986715Y-145516613D01*
X199107028Y-145682213D01*
X199251786Y-145826971D01*
X199405850Y-145938903D01*
X199417390Y-145947287D01*
X199533607Y-146006503D01*
X199599776Y-146040218D01*
X199599778Y-146040218D01*
X199599781Y-146040220D01*
X199704137Y-146074127D01*
X199794465Y-146103477D01*
X199895557Y-146119488D01*
X199996648Y-146135500D01*
X199996649Y-146135500D01*
X200201351Y-146135500D01*
X200201352Y-146135500D01*
X200403534Y-146103477D01*
X200598219Y-146040220D01*
X200780610Y-145947287D01*
X200873590Y-145879732D01*
X200946213Y-145826971D01*
X200946215Y-145826968D01*
X200946219Y-145826966D01*
X201090966Y-145682219D01*
X201090968Y-145682215D01*
X201090971Y-145682213D01*
X201193583Y-145540977D01*
X201211287Y-145516610D01*
X201304220Y-145334219D01*
X201367477Y-145139534D01*
X201399500Y-144937352D01*
X201399500Y-144732648D01*
X201367477Y-144530466D01*
X201360198Y-144508065D01*
X201336491Y-144435102D01*
X201304220Y-144335781D01*
X201304218Y-144335778D01*
X201304218Y-144335776D01*
X201269510Y-144267658D01*
X201211287Y-144153390D01*
X201203556Y-144142749D01*
X201090971Y-143987786D01*
X200946213Y-143843028D01*
X200780614Y-143722715D01*
X200774006Y-143719348D01*
X200687917Y-143675483D01*
X200637123Y-143627511D01*
X200620328Y-143559690D01*
X200642865Y-143493555D01*
X200687917Y-143454516D01*
X200780610Y-143407287D01*
X200909482Y-143313657D01*
X200946213Y-143286971D01*
X200946215Y-143286968D01*
X200946219Y-143286966D01*
X201090966Y-143142219D01*
X201090968Y-143142215D01*
X201090971Y-143142213D01*
X201188069Y-143008567D01*
X201211287Y-142976610D01*
X201304220Y-142794219D01*
X201367477Y-142599534D01*
X201399500Y-142397352D01*
X201399500Y-142192648D01*
X201368532Y-141997127D01*
X201367477Y-141990465D01*
X201327493Y-141867409D01*
X201304220Y-141795781D01*
X201304218Y-141795778D01*
X201304218Y-141795776D01*
X201252865Y-141694991D01*
X201211287Y-141613390D01*
X201195892Y-141592200D01*
X201090971Y-141447786D01*
X200946213Y-141303028D01*
X200780613Y-141182715D01*
X200780612Y-141182714D01*
X200780610Y-141182713D01*
X200720898Y-141152288D01*
X200598223Y-141089781D01*
X200403534Y-141026522D01*
X200228995Y-140998878D01*
X200201352Y-140994500D01*
X199996648Y-140994500D01*
X199972329Y-140998351D01*
X199794465Y-141026522D01*
X199599776Y-141089781D01*
X199417386Y-141182715D01*
X199251786Y-141303028D01*
X199107028Y-141447786D01*
X198986715Y-141613386D01*
X198893781Y-141795776D01*
X198830522Y-141990465D01*
X198798500Y-142192648D01*
X193779499Y-142192648D01*
X193779499Y-141694992D01*
X193768999Y-141592203D01*
X193713814Y-141425666D01*
X193621712Y-141276344D01*
X193497656Y-141152288D01*
X193348334Y-141060186D01*
X193181797Y-141005001D01*
X193181795Y-141005000D01*
X193079010Y-140994500D01*
X191878998Y-140994500D01*
X191878981Y-140994501D01*
X191776203Y-141005000D01*
X191776200Y-141005001D01*
X191609668Y-141060185D01*
X191609663Y-141060187D01*
X191460342Y-141152289D01*
X191336289Y-141276342D01*
X191244187Y-141425663D01*
X191244186Y-141425666D01*
X191189001Y-141592203D01*
X191189001Y-141592204D01*
X191189000Y-141592204D01*
X191178500Y-141694983D01*
X181739000Y-141694983D01*
X181739000Y-141676947D01*
X181702065Y-141443752D01*
X181629102Y-141219197D01*
X181521914Y-141008828D01*
X181461658Y-140925894D01*
X181461658Y-140925893D01*
X180762787Y-141624765D01*
X180751518Y-141582708D01*
X180679110Y-141457292D01*
X180576708Y-141354890D01*
X180451292Y-141282482D01*
X180409234Y-141271212D01*
X181108105Y-140572340D01*
X181108104Y-140572338D01*
X181025174Y-140512087D01*
X180814802Y-140404897D01*
X180590247Y-140331934D01*
X180590248Y-140331934D01*
X180357052Y-140295000D01*
X180120948Y-140295000D01*
X179887752Y-140331934D01*
X179663197Y-140404897D01*
X179452830Y-140512084D01*
X179369894Y-140572340D01*
X180068766Y-141271212D01*
X180026708Y-141282482D01*
X179901292Y-141354890D01*
X179798890Y-141457292D01*
X179726482Y-141582708D01*
X179715212Y-141624766D01*
X179016340Y-140925894D01*
X178956084Y-141008830D01*
X178848897Y-141219197D01*
X178775934Y-141443752D01*
X178739000Y-141676947D01*
X175239000Y-141676947D01*
X175202065Y-141443752D01*
X175129102Y-141219197D01*
X175021914Y-141008828D01*
X174961658Y-140925894D01*
X174961658Y-140925893D01*
X174262787Y-141624765D01*
X174251518Y-141582708D01*
X174179110Y-141457292D01*
X174076708Y-141354890D01*
X173951292Y-141282482D01*
X173909234Y-141271212D01*
X174608105Y-140572340D01*
X174608104Y-140572339D01*
X174525174Y-140512087D01*
X174314802Y-140404897D01*
X174090247Y-140331934D01*
X174090248Y-140331934D01*
X173857052Y-140295000D01*
X173620948Y-140295000D01*
X173387752Y-140331934D01*
X173163197Y-140404897D01*
X172952830Y-140512084D01*
X172869894Y-140572340D01*
X173568766Y-141271212D01*
X173526708Y-141282482D01*
X173401292Y-141354890D01*
X173298890Y-141457292D01*
X173226482Y-141582708D01*
X173215212Y-141624766D01*
X172516340Y-140925894D01*
X172456084Y-141008830D01*
X172348897Y-141219197D01*
X172275934Y-141443752D01*
X172239000Y-141676947D01*
X169519278Y-141676947D01*
X169476002Y-141654897D01*
X169251447Y-141581934D01*
X169251448Y-141581934D01*
X169018252Y-141545000D01*
X168782148Y-141545000D01*
X168548952Y-141581934D01*
X168324397Y-141654897D01*
X168114030Y-141762084D01*
X168031094Y-141822340D01*
X168770791Y-142562037D01*
X168707207Y-142579075D01*
X168593193Y-142644901D01*
X168500101Y-142737993D01*
X168434275Y-142852007D01*
X168417237Y-142915590D01*
X167677540Y-142175894D01*
X167617284Y-142258830D01*
X167510097Y-142469197D01*
X167437134Y-142693752D01*
X167400200Y-142926947D01*
X160400699Y-142926947D01*
X160400699Y-141997128D01*
X160394291Y-141937517D01*
X160394290Y-141937514D01*
X160385122Y-141912931D01*
X160343997Y-141802671D01*
X160343993Y-141802664D01*
X160257747Y-141687455D01*
X160257744Y-141687452D01*
X160142535Y-141601206D01*
X160142528Y-141601202D01*
X160007682Y-141550908D01*
X160007683Y-141550908D01*
X159948083Y-141544501D01*
X159948081Y-141544500D01*
X159948073Y-141544500D01*
X159948064Y-141544500D01*
X157852329Y-141544500D01*
X157852323Y-141544501D01*
X157792716Y-141550908D01*
X157657871Y-141601202D01*
X157657864Y-141601206D01*
X157542655Y-141687452D01*
X157542652Y-141687455D01*
X157456406Y-141802664D01*
X157456402Y-141802671D01*
X157406108Y-141937517D01*
X157400416Y-141990465D01*
X157399701Y-141997123D01*
X157399700Y-141997135D01*
X155354000Y-141997135D01*
X155354000Y-137176902D01*
X172238500Y-137176902D01*
X172238500Y-137413097D01*
X172275446Y-137646368D01*
X172348433Y-137870996D01*
X172408155Y-137988205D01*
X172455657Y-138081433D01*
X172594483Y-138272510D01*
X172761490Y-138439517D01*
X172952567Y-138578343D01*
X173051991Y-138629002D01*
X173163003Y-138685566D01*
X173163005Y-138685566D01*
X173163008Y-138685568D01*
X173283412Y-138724689D01*
X173387631Y-138758553D01*
X173620903Y-138795500D01*
X173620908Y-138795500D01*
X173857097Y-138795500D01*
X174090368Y-138758553D01*
X174314992Y-138685568D01*
X174525433Y-138578343D01*
X174716510Y-138439517D01*
X174883517Y-138272510D01*
X175022343Y-138081433D01*
X175069845Y-137988205D01*
X175117820Y-137937409D01*
X175180330Y-137920500D01*
X178797670Y-137920500D01*
X178864709Y-137940185D01*
X178908155Y-137988205D01*
X178955657Y-138081433D01*
X179094483Y-138272510D01*
X179261490Y-138439517D01*
X179452567Y-138578343D01*
X179551991Y-138629002D01*
X179663003Y-138685566D01*
X179663005Y-138685566D01*
X179663008Y-138685568D01*
X179783412Y-138724689D01*
X179887631Y-138758553D01*
X180120903Y-138795500D01*
X180120908Y-138795500D01*
X180357097Y-138795500D01*
X180590368Y-138758553D01*
X180814992Y-138685568D01*
X181025433Y-138578343D01*
X181216510Y-138439517D01*
X181383517Y-138272510D01*
X181522343Y-138081433D01*
X181629568Y-137870992D01*
X181702553Y-137646368D01*
X181739500Y-137413097D01*
X181739500Y-137176902D01*
X182828500Y-137176902D01*
X182828500Y-137413097D01*
X182865446Y-137646368D01*
X182938433Y-137870996D01*
X182998155Y-137988205D01*
X183045657Y-138081433D01*
X183184483Y-138272510D01*
X183351490Y-138439517D01*
X183542567Y-138578343D01*
X183641991Y-138629002D01*
X183753003Y-138685566D01*
X183753005Y-138685566D01*
X183753008Y-138685568D01*
X183873412Y-138724689D01*
X183977631Y-138758553D01*
X184210903Y-138795500D01*
X184210908Y-138795500D01*
X184447097Y-138795500D01*
X184680368Y-138758553D01*
X184904992Y-138685568D01*
X185115433Y-138578343D01*
X185306510Y-138439517D01*
X185473517Y-138272510D01*
X185612343Y-138081433D01*
X185719568Y-137870992D01*
X185792553Y-137646368D01*
X185829500Y-137413097D01*
X185829500Y-137176902D01*
X187328500Y-137176902D01*
X187328500Y-137413097D01*
X187365446Y-137646368D01*
X187438433Y-137870996D01*
X187498155Y-137988205D01*
X187545657Y-138081433D01*
X187684483Y-138272510D01*
X187851490Y-138439517D01*
X188042567Y-138578343D01*
X188141991Y-138629002D01*
X188253003Y-138685566D01*
X188253005Y-138685566D01*
X188253008Y-138685568D01*
X188373412Y-138724689D01*
X188477631Y-138758553D01*
X188710903Y-138795500D01*
X188710908Y-138795500D01*
X188947097Y-138795500D01*
X189180368Y-138758553D01*
X189404992Y-138685568D01*
X189615433Y-138578343D01*
X189806510Y-138439517D01*
X189973517Y-138272510D01*
X190112343Y-138081433D01*
X190219568Y-137870992D01*
X190292553Y-137646368D01*
X190329500Y-137413097D01*
X190329500Y-137176902D01*
X190292553Y-136943631D01*
X190219566Y-136719003D01*
X190112342Y-136508566D01*
X189973517Y-136317490D01*
X189806510Y-136150483D01*
X189615433Y-136011657D01*
X189404996Y-135904433D01*
X189180368Y-135831446D01*
X188947097Y-135794500D01*
X188947092Y-135794500D01*
X188710908Y-135794500D01*
X188710903Y-135794500D01*
X188477631Y-135831446D01*
X188253003Y-135904433D01*
X188042566Y-136011657D01*
X187933550Y-136090862D01*
X187851490Y-136150483D01*
X187851488Y-136150485D01*
X187851487Y-136150485D01*
X187684485Y-136317487D01*
X187684485Y-136317488D01*
X187684483Y-136317490D01*
X187661115Y-136349653D01*
X187545657Y-136508566D01*
X187438433Y-136719003D01*
X187365446Y-136943631D01*
X187328500Y-137176902D01*
X185829500Y-137176902D01*
X185792553Y-136943631D01*
X185719566Y-136719003D01*
X185612342Y-136508566D01*
X185473517Y-136317490D01*
X185306510Y-136150483D01*
X185115433Y-136011657D01*
X184904996Y-135904433D01*
X184680368Y-135831446D01*
X184447097Y-135794500D01*
X184447092Y-135794500D01*
X184210908Y-135794500D01*
X184210903Y-135794500D01*
X183977631Y-135831446D01*
X183753003Y-135904433D01*
X183542566Y-136011657D01*
X183433550Y-136090862D01*
X183351490Y-136150483D01*
X183351488Y-136150485D01*
X183351487Y-136150485D01*
X183184485Y-136317487D01*
X183184485Y-136317488D01*
X183184483Y-136317490D01*
X183161115Y-136349653D01*
X183045657Y-136508566D01*
X182938433Y-136719003D01*
X182865446Y-136943631D01*
X182828500Y-137176902D01*
X181739500Y-137176902D01*
X181702553Y-136943631D01*
X181629566Y-136719003D01*
X181522342Y-136508566D01*
X181383517Y-136317490D01*
X181216510Y-136150483D01*
X181025433Y-136011657D01*
X180814996Y-135904433D01*
X180590368Y-135831446D01*
X180357097Y-135794500D01*
X180357092Y-135794500D01*
X180120908Y-135794500D01*
X180120903Y-135794500D01*
X179887631Y-135831446D01*
X179663003Y-135904433D01*
X179452566Y-136011657D01*
X179343550Y-136090862D01*
X179261490Y-136150483D01*
X179261488Y-136150485D01*
X179261487Y-136150485D01*
X179094485Y-136317487D01*
X179094485Y-136317488D01*
X179094483Y-136317490D01*
X179071115Y-136349653D01*
X178955657Y-136508566D01*
X178908155Y-136601795D01*
X178860180Y-136652591D01*
X178797670Y-136669500D01*
X175180330Y-136669500D01*
X175113291Y-136649815D01*
X175069845Y-136601795D01*
X175022342Y-136508566D01*
X174883517Y-136317490D01*
X174716510Y-136150483D01*
X174525433Y-136011657D01*
X174314996Y-135904433D01*
X174090368Y-135831446D01*
X173857097Y-135794500D01*
X173857092Y-135794500D01*
X173620908Y-135794500D01*
X173620903Y-135794500D01*
X173387631Y-135831446D01*
X173163003Y-135904433D01*
X172952566Y-136011657D01*
X172843550Y-136090862D01*
X172761490Y-136150483D01*
X172761488Y-136150485D01*
X172761487Y-136150485D01*
X172594485Y-136317487D01*
X172594485Y-136317488D01*
X172594483Y-136317490D01*
X172571115Y-136349653D01*
X172455657Y-136508566D01*
X172348433Y-136719003D01*
X172275446Y-136943631D01*
X172238500Y-137176902D01*
X155354000Y-137176902D01*
X155354000Y-133839607D01*
X155354344Y-133830382D01*
X155354518Y-133828046D01*
X155369500Y-133695081D01*
X155369500Y-133634983D01*
X192897300Y-133634983D01*
X192897300Y-135235001D01*
X192897301Y-135235018D01*
X192907800Y-135337796D01*
X192907801Y-135337799D01*
X192962985Y-135504331D01*
X192962986Y-135504334D01*
X193055088Y-135653656D01*
X193179144Y-135777712D01*
X193328466Y-135869814D01*
X193495003Y-135924999D01*
X193597791Y-135935500D01*
X195197808Y-135935499D01*
X195300597Y-135924999D01*
X195467134Y-135869814D01*
X195616456Y-135777712D01*
X195740512Y-135653656D01*
X195832614Y-135504334D01*
X195887799Y-135337797D01*
X195898300Y-135235009D01*
X195898299Y-134316947D01*
X197897800Y-134316947D01*
X197897800Y-134553052D01*
X197934734Y-134786247D01*
X198007697Y-135010802D01*
X198114887Y-135221174D01*
X198175138Y-135304104D01*
X198175140Y-135304105D01*
X198914837Y-134564408D01*
X198931875Y-134627993D01*
X198997701Y-134742007D01*
X199090793Y-134835099D01*
X199204807Y-134900925D01*
X199268390Y-134917962D01*
X198528693Y-135657658D01*
X198611628Y-135717914D01*
X198821997Y-135825102D01*
X199046552Y-135898065D01*
X199046551Y-135898065D01*
X199279748Y-135935000D01*
X199515852Y-135935000D01*
X199749047Y-135898065D01*
X199973602Y-135825102D01*
X200183963Y-135717918D01*
X200183969Y-135717914D01*
X200266904Y-135657658D01*
X200266905Y-135657658D01*
X199527208Y-134917962D01*
X199590793Y-134900925D01*
X199704807Y-134835099D01*
X199797899Y-134742007D01*
X199863725Y-134627993D01*
X199880762Y-134564409D01*
X200620458Y-135304105D01*
X200620458Y-135304104D01*
X200680714Y-135221169D01*
X200680718Y-135221163D01*
X200787902Y-135010802D01*
X200860865Y-134786247D01*
X200897800Y-134553052D01*
X200897800Y-134316947D01*
X200860865Y-134083752D01*
X200787902Y-133859197D01*
X200680714Y-133648828D01*
X200620458Y-133565894D01*
X200620458Y-133565893D01*
X199880762Y-134305590D01*
X199863725Y-134242007D01*
X199797899Y-134127993D01*
X199704807Y-134034901D01*
X199590793Y-133969075D01*
X199527209Y-133952037D01*
X200266905Y-133212340D01*
X200266904Y-133212338D01*
X200183974Y-133152087D01*
X199973602Y-133044897D01*
X199749047Y-132971934D01*
X199749048Y-132971934D01*
X199515852Y-132935000D01*
X199279748Y-132935000D01*
X199046552Y-132971934D01*
X198821997Y-133044897D01*
X198611630Y-133152084D01*
X198528694Y-133212340D01*
X199268391Y-133952037D01*
X199204807Y-133969075D01*
X199090793Y-134034901D01*
X198997701Y-134127993D01*
X198931875Y-134242007D01*
X198914837Y-134305590D01*
X198175140Y-133565894D01*
X198114884Y-133648830D01*
X198007697Y-133859197D01*
X197934734Y-134083752D01*
X197897800Y-134316947D01*
X195898299Y-134316947D01*
X195898299Y-133634992D01*
X195891240Y-133565893D01*
X195887799Y-133532203D01*
X195887798Y-133532200D01*
X195835678Y-133374914D01*
X195832614Y-133365666D01*
X195740512Y-133216344D01*
X195616456Y-133092288D01*
X195467134Y-133000186D01*
X195300597Y-132945001D01*
X195300595Y-132945000D01*
X195197810Y-132934500D01*
X193597798Y-132934500D01*
X193597781Y-132934501D01*
X193495003Y-132945000D01*
X193495000Y-132945001D01*
X193328468Y-133000185D01*
X193328463Y-133000187D01*
X193179142Y-133092289D01*
X193055089Y-133216342D01*
X192962987Y-133365663D01*
X192962985Y-133365668D01*
X192959921Y-133374916D01*
X192907801Y-133532203D01*
X192907801Y-133532204D01*
X192907800Y-133532204D01*
X192897300Y-133634983D01*
X155369500Y-133634983D01*
X155369500Y-133374919D01*
X155354780Y-133244275D01*
X155354000Y-133230391D01*
X155354000Y-131299607D01*
X155354780Y-131285723D01*
X155369500Y-131155081D01*
X155369500Y-130834919D01*
X155354780Y-130704275D01*
X155354000Y-130690391D01*
X155354000Y-127784500D01*
X155373685Y-127717461D01*
X155426489Y-127671706D01*
X155478000Y-127660500D01*
X188692707Y-127660500D01*
X188753129Y-127648481D01*
X188813552Y-127636463D01*
X188813555Y-127636461D01*
X188813558Y-127636461D01*
X188846887Y-127622654D01*
X188846886Y-127622654D01*
X188846892Y-127622652D01*
X188927386Y-127589312D01*
X188978609Y-127555084D01*
X189029833Y-127520858D01*
X189116958Y-127433733D01*
X189116959Y-127433731D01*
X189124025Y-127426665D01*
X189124028Y-127426661D01*
X190860797Y-125689891D01*
X190922118Y-125656408D01*
X190924128Y-125655989D01*
X191035497Y-125633837D01*
X191181179Y-125573494D01*
X191312289Y-125485889D01*
X191423789Y-125374389D01*
X191511394Y-125243279D01*
X191571737Y-125097597D01*
X191602500Y-124942942D01*
X191602500Y-124785258D01*
X191602500Y-124785255D01*
X191602499Y-124785253D01*
X191573151Y-124637712D01*
X191571737Y-124630603D01*
X191523297Y-124513657D01*
X191511397Y-124484927D01*
X191511390Y-124484914D01*
X191423789Y-124353811D01*
X191423786Y-124353807D01*
X191312292Y-124242313D01*
X191312288Y-124242310D01*
X191181185Y-124154709D01*
X191181172Y-124154702D01*
X191035501Y-124094364D01*
X191035489Y-124094361D01*
X190880845Y-124063600D01*
X190880842Y-124063600D01*
X190723158Y-124063600D01*
X190723155Y-124063600D01*
X190568510Y-124094361D01*
X190568498Y-124094364D01*
X190422827Y-124154702D01*
X190422814Y-124154709D01*
X190291711Y-124242310D01*
X190291707Y-124242313D01*
X190180213Y-124353807D01*
X190180210Y-124353811D01*
X190092609Y-124484914D01*
X190092602Y-124484927D01*
X190032264Y-124630598D01*
X190032261Y-124630608D01*
X190010141Y-124741814D01*
X189977756Y-124803725D01*
X189976205Y-124805303D01*
X188408329Y-126373181D01*
X188347006Y-126406666D01*
X188320648Y-126409500D01*
X155478000Y-126409500D01*
X155410961Y-126389815D01*
X155365206Y-126337011D01*
X155354000Y-126285500D01*
X155354000Y-121894983D01*
X192848500Y-121894983D01*
X192848500Y-124095001D01*
X192848501Y-124095018D01*
X192859000Y-124197796D01*
X192859001Y-124197799D01*
X192873752Y-124242313D01*
X192914186Y-124364334D01*
X193006288Y-124513656D01*
X193130344Y-124637712D01*
X193279666Y-124729814D01*
X193446203Y-124784999D01*
X193548991Y-124795500D01*
X195749008Y-124795499D01*
X195851797Y-124784999D01*
X196018334Y-124729814D01*
X196167656Y-124637712D01*
X196291712Y-124513656D01*
X196383814Y-124364334D01*
X196438999Y-124197797D01*
X196449500Y-124095009D01*
X196449499Y-122877014D01*
X197849000Y-122877014D01*
X197849000Y-123112985D01*
X197879799Y-123346914D01*
X197940870Y-123574837D01*
X198031160Y-123792819D01*
X198031165Y-123792828D01*
X198149144Y-123997171D01*
X198149145Y-123997172D01*
X198211721Y-124078723D01*
X199047958Y-123242487D01*
X199072978Y-123302890D01*
X199144112Y-123409351D01*
X199234649Y-123499888D01*
X199341110Y-123571022D01*
X199401511Y-123596041D01*
X198565275Y-124432277D01*
X198646827Y-124494854D01*
X198646828Y-124494855D01*
X198851171Y-124612834D01*
X198851180Y-124612839D01*
X199069163Y-124703129D01*
X199069161Y-124703129D01*
X199297085Y-124764200D01*
X199531014Y-124794999D01*
X199531029Y-124795000D01*
X199766971Y-124795000D01*
X199766985Y-124794999D01*
X200000914Y-124764200D01*
X200228837Y-124703129D01*
X200446819Y-124612839D01*
X200446828Y-124612834D01*
X200651181Y-124494850D01*
X200732723Y-124432279D01*
X200732723Y-124432276D01*
X199896487Y-123596041D01*
X199956890Y-123571022D01*
X200063351Y-123499888D01*
X200153888Y-123409351D01*
X200225022Y-123302890D01*
X200250041Y-123242488D01*
X201086276Y-124078723D01*
X201086279Y-124078723D01*
X201148850Y-123997181D01*
X201266834Y-123792828D01*
X201266839Y-123792819D01*
X201357129Y-123574837D01*
X201418200Y-123346914D01*
X201448999Y-123112985D01*
X201449000Y-123112971D01*
X201449000Y-122877028D01*
X201448999Y-122877014D01*
X201418200Y-122643085D01*
X201357129Y-122415162D01*
X201266839Y-122197180D01*
X201266834Y-122197171D01*
X201148855Y-121992828D01*
X201148854Y-121992827D01*
X201086277Y-121911275D01*
X200250041Y-122747511D01*
X200225022Y-122687110D01*
X200153888Y-122580649D01*
X200063351Y-122490112D01*
X199956890Y-122418978D01*
X199896488Y-122393958D01*
X200732723Y-121557721D01*
X200651172Y-121495145D01*
X200651171Y-121495144D01*
X200446828Y-121377165D01*
X200446819Y-121377160D01*
X200228836Y-121286870D01*
X200228838Y-121286870D01*
X200000914Y-121225799D01*
X199766985Y-121195000D01*
X199531014Y-121195000D01*
X199297085Y-121225799D01*
X199069162Y-121286870D01*
X198851180Y-121377160D01*
X198851171Y-121377165D01*
X198646828Y-121495144D01*
X198646818Y-121495150D01*
X198565275Y-121557720D01*
X198565275Y-121557721D01*
X199401512Y-122393958D01*
X199341110Y-122418978D01*
X199234649Y-122490112D01*
X199144112Y-122580649D01*
X199072978Y-122687110D01*
X199047958Y-122747512D01*
X198211721Y-121911275D01*
X198211720Y-121911275D01*
X198149150Y-121992818D01*
X198149144Y-121992828D01*
X198031165Y-122197171D01*
X198031160Y-122197180D01*
X197940870Y-122415162D01*
X197879799Y-122643085D01*
X197849000Y-122877014D01*
X196449499Y-122877014D01*
X196449499Y-121894992D01*
X196438999Y-121792203D01*
X196383814Y-121625666D01*
X196291712Y-121476344D01*
X196167656Y-121352288D01*
X196018334Y-121260186D01*
X195851797Y-121205001D01*
X195851795Y-121205000D01*
X195749010Y-121194500D01*
X193548998Y-121194500D01*
X193548981Y-121194501D01*
X193446203Y-121205000D01*
X193446200Y-121205001D01*
X193279668Y-121260185D01*
X193279663Y-121260187D01*
X193130342Y-121352289D01*
X193006289Y-121476342D01*
X192914187Y-121625663D01*
X192914185Y-121625668D01*
X192907886Y-121644678D01*
X192859001Y-121792203D01*
X192859001Y-121792204D01*
X192859000Y-121792204D01*
X192848500Y-121894983D01*
X155354000Y-121894983D01*
X155354000Y-104499889D01*
X162196600Y-104499889D01*
X162196600Y-114562911D01*
X162220635Y-114683744D01*
X162220640Y-114683761D01*
X162267785Y-114797580D01*
X162267790Y-114797589D01*
X162302014Y-114848807D01*
X162302015Y-114848809D01*
X162336241Y-114900033D01*
X162427686Y-114991478D01*
X162427708Y-114991498D01*
X162676205Y-115239995D01*
X162709690Y-115301318D01*
X162710141Y-115303485D01*
X162732261Y-115414689D01*
X162732264Y-115414701D01*
X162792602Y-115560372D01*
X162792609Y-115560385D01*
X162880210Y-115691488D01*
X162880213Y-115691492D01*
X162991707Y-115802986D01*
X162991711Y-115802989D01*
X163122814Y-115890590D01*
X163122827Y-115890597D01*
X163268498Y-115950935D01*
X163268503Y-115950937D01*
X163423153Y-115981699D01*
X163423156Y-115981700D01*
X163423158Y-115981700D01*
X163580844Y-115981700D01*
X163580845Y-115981699D01*
X163735497Y-115950937D01*
X163881179Y-115890594D01*
X164012289Y-115802989D01*
X164123789Y-115691489D01*
X164211394Y-115560379D01*
X164271737Y-115414697D01*
X164302500Y-115260042D01*
X164302500Y-115102358D01*
X164302500Y-115102355D01*
X164302499Y-115102353D01*
X164280444Y-114991478D01*
X164271737Y-114947703D01*
X164230774Y-114848809D01*
X164211397Y-114802027D01*
X164211390Y-114802014D01*
X164123789Y-114670911D01*
X164123786Y-114670907D01*
X164012292Y-114559413D01*
X164012288Y-114559410D01*
X163881185Y-114471809D01*
X163881172Y-114471802D01*
X163735501Y-114411464D01*
X163735489Y-114411461D01*
X163624285Y-114389341D01*
X163562374Y-114356956D01*
X163560795Y-114355405D01*
X163483919Y-114278529D01*
X163450434Y-114217206D01*
X163447600Y-114190848D01*
X163447600Y-113346400D01*
X163467285Y-113279361D01*
X163520089Y-113233606D01*
X163571600Y-113222400D01*
X163604444Y-113222400D01*
X163604445Y-113222399D01*
X163759097Y-113191637D01*
X163904779Y-113131294D01*
X163999059Y-113068298D01*
X164065736Y-113047420D01*
X164067950Y-113047400D01*
X174960107Y-113047400D01*
X175020529Y-113035381D01*
X175080952Y-113023363D01*
X175080955Y-113023361D01*
X175080958Y-113023361D01*
X175114287Y-113009554D01*
X175114286Y-113009554D01*
X175114292Y-113009552D01*
X175194786Y-112976212D01*
X175260669Y-112932189D01*
X175297233Y-112907758D01*
X175384358Y-112820633D01*
X175384358Y-112820631D01*
X175394566Y-112810424D01*
X175394567Y-112810421D01*
X181728172Y-106476819D01*
X181789495Y-106443334D01*
X181815853Y-106440500D01*
X198771983Y-106440500D01*
X198839022Y-106460185D01*
X198884777Y-106512989D01*
X198889686Y-106525489D01*
X198909186Y-106584334D01*
X199001288Y-106733656D01*
X199125344Y-106857712D01*
X199274666Y-106949814D01*
X199441203Y-107004999D01*
X199543991Y-107015500D01*
X200169008Y-107015499D01*
X200169016Y-107015498D01*
X200169019Y-107015498D01*
X200225302Y-107009748D01*
X200271797Y-107004999D01*
X200438334Y-106949814D01*
X200587656Y-106857712D01*
X200681319Y-106764049D01*
X200742642Y-106730564D01*
X200812334Y-106735548D01*
X200856681Y-106764049D01*
X200950344Y-106857712D01*
X201099666Y-106949814D01*
X201099667Y-106949814D01*
X201105813Y-106953605D01*
X201105016Y-106954896D01*
X201151210Y-106995568D01*
X201170363Y-107062761D01*
X201150148Y-107129642D01*
X201134050Y-107149458D01*
X200863627Y-107419882D01*
X200802307Y-107453366D01*
X200775948Y-107456200D01*
X189230189Y-107456200D01*
X189169771Y-107468218D01*
X189132059Y-107475719D01*
X189109350Y-107480236D01*
X189109348Y-107480237D01*
X189076007Y-107494047D01*
X188995519Y-107527384D01*
X188995505Y-107527392D01*
X188893072Y-107595838D01*
X188893064Y-107595844D01*
X188805939Y-107682970D01*
X179086703Y-117402205D01*
X179025380Y-117435690D01*
X179023214Y-117436141D01*
X178912008Y-117458261D01*
X178911998Y-117458264D01*
X178766327Y-117518602D01*
X178766314Y-117518609D01*
X178635211Y-117606210D01*
X178635207Y-117606213D01*
X178523713Y-117717707D01*
X178523710Y-117717711D01*
X178436109Y-117848814D01*
X178436102Y-117848827D01*
X178375764Y-117994498D01*
X178375761Y-117994510D01*
X178345000Y-118149153D01*
X178345000Y-118306846D01*
X178375761Y-118461489D01*
X178375764Y-118461501D01*
X178436102Y-118607172D01*
X178436109Y-118607185D01*
X178523710Y-118738288D01*
X178523713Y-118738292D01*
X178635207Y-118849786D01*
X178635211Y-118849789D01*
X178766314Y-118937390D01*
X178766327Y-118937397D01*
X178911998Y-118997735D01*
X178912003Y-118997737D01*
X179066653Y-119028499D01*
X179066656Y-119028500D01*
X179066658Y-119028500D01*
X179224344Y-119028500D01*
X179224345Y-119028499D01*
X179378997Y-118997737D01*
X179524679Y-118937394D01*
X179655789Y-118849789D01*
X179767289Y-118738289D01*
X179854894Y-118607179D01*
X179915237Y-118461497D01*
X179937358Y-118350282D01*
X179969740Y-118288375D01*
X179971235Y-118286853D01*
X188263107Y-109994983D01*
X192848500Y-109994983D01*
X192848500Y-112195001D01*
X192848501Y-112195018D01*
X192859000Y-112297796D01*
X192859001Y-112297799D01*
X192907885Y-112445319D01*
X192914186Y-112464334D01*
X193006288Y-112613656D01*
X193130344Y-112737712D01*
X193279666Y-112829814D01*
X193446203Y-112884999D01*
X193548991Y-112895500D01*
X195749008Y-112895499D01*
X195851797Y-112884999D01*
X196018334Y-112829814D01*
X196167656Y-112737712D01*
X196291712Y-112613656D01*
X196383814Y-112464334D01*
X196438999Y-112297797D01*
X196449500Y-112195009D01*
X196449499Y-110977014D01*
X197849000Y-110977014D01*
X197849000Y-111212985D01*
X197879799Y-111446914D01*
X197940870Y-111674837D01*
X198031160Y-111892819D01*
X198031165Y-111892828D01*
X198149144Y-112097171D01*
X198149145Y-112097172D01*
X198211721Y-112178723D01*
X199047958Y-111342487D01*
X199072978Y-111402890D01*
X199144112Y-111509351D01*
X199234649Y-111599888D01*
X199341110Y-111671022D01*
X199401511Y-111696041D01*
X198565275Y-112532277D01*
X198646827Y-112594854D01*
X198646828Y-112594855D01*
X198851171Y-112712834D01*
X198851180Y-112712839D01*
X199069163Y-112803129D01*
X199069161Y-112803129D01*
X199297085Y-112864200D01*
X199531014Y-112894999D01*
X199531029Y-112895000D01*
X199766971Y-112895000D01*
X199766985Y-112894999D01*
X200000914Y-112864200D01*
X200228837Y-112803129D01*
X200446819Y-112712839D01*
X200446828Y-112712834D01*
X200651181Y-112594850D01*
X200732723Y-112532279D01*
X200732723Y-112532276D01*
X199896487Y-111696041D01*
X199956890Y-111671022D01*
X200063351Y-111599888D01*
X200153888Y-111509351D01*
X200225022Y-111402890D01*
X200250041Y-111342488D01*
X201086276Y-112178723D01*
X201086279Y-112178723D01*
X201148850Y-112097181D01*
X201266834Y-111892828D01*
X201266839Y-111892819D01*
X201357129Y-111674837D01*
X201418200Y-111446914D01*
X201448999Y-111212985D01*
X201449000Y-111212971D01*
X201449000Y-110977028D01*
X201448999Y-110977014D01*
X201418200Y-110743085D01*
X201357129Y-110515162D01*
X201266839Y-110297180D01*
X201266834Y-110297171D01*
X201148855Y-110092828D01*
X201148854Y-110092827D01*
X201086277Y-110011275D01*
X200250041Y-110847511D01*
X200225022Y-110787110D01*
X200153888Y-110680649D01*
X200063351Y-110590112D01*
X199956890Y-110518978D01*
X199896488Y-110493958D01*
X200732723Y-109657721D01*
X200651172Y-109595145D01*
X200651171Y-109595144D01*
X200446828Y-109477165D01*
X200446819Y-109477160D01*
X200228836Y-109386870D01*
X200228838Y-109386870D01*
X200000914Y-109325799D01*
X199766985Y-109295000D01*
X199531014Y-109295000D01*
X199297085Y-109325799D01*
X199069162Y-109386870D01*
X198851180Y-109477160D01*
X198851171Y-109477165D01*
X198646828Y-109595144D01*
X198646818Y-109595150D01*
X198565275Y-109657720D01*
X198565275Y-109657721D01*
X199401512Y-110493958D01*
X199341110Y-110518978D01*
X199234649Y-110590112D01*
X199144112Y-110680649D01*
X199072978Y-110787110D01*
X199047958Y-110847512D01*
X198211721Y-110011275D01*
X198211720Y-110011275D01*
X198149150Y-110092818D01*
X198149144Y-110092828D01*
X198031165Y-110297171D01*
X198031160Y-110297180D01*
X197940870Y-110515162D01*
X197879799Y-110743085D01*
X197849000Y-110977014D01*
X196449499Y-110977014D01*
X196449499Y-109994992D01*
X196438999Y-109892203D01*
X196383814Y-109725666D01*
X196291712Y-109576344D01*
X196167656Y-109452288D01*
X196018334Y-109360186D01*
X195851797Y-109305001D01*
X195851795Y-109305000D01*
X195749010Y-109294500D01*
X193548998Y-109294500D01*
X193548981Y-109294501D01*
X193446203Y-109305000D01*
X193446200Y-109305001D01*
X193279668Y-109360185D01*
X193279663Y-109360187D01*
X193130342Y-109452289D01*
X193006289Y-109576342D01*
X192914187Y-109725663D01*
X192914185Y-109725668D01*
X192907886Y-109744678D01*
X192859001Y-109892203D01*
X192859001Y-109892204D01*
X192859000Y-109892204D01*
X192848500Y-109994983D01*
X188263107Y-109994983D01*
X189514571Y-108743519D01*
X189575894Y-108710034D01*
X189602252Y-108707200D01*
X201148007Y-108707200D01*
X201208429Y-108695181D01*
X201268852Y-108683163D01*
X201268855Y-108683161D01*
X201268858Y-108683161D01*
X201302187Y-108669354D01*
X201302186Y-108669354D01*
X201302192Y-108669352D01*
X201382686Y-108636012D01*
X201433909Y-108601784D01*
X201485133Y-108567558D01*
X201572258Y-108480433D01*
X201572258Y-108480431D01*
X201582466Y-108470224D01*
X201582467Y-108470221D01*
X203735658Y-106317033D01*
X203804112Y-106214585D01*
X203808000Y-106205198D01*
X203834006Y-106142415D01*
X203851261Y-106100756D01*
X203851263Y-106100752D01*
X203855855Y-106077666D01*
X203869915Y-106006985D01*
X203875301Y-105979908D01*
X203875301Y-105851583D01*
X203875300Y-105851557D01*
X203875300Y-100726696D01*
X203874508Y-100722712D01*
X203851263Y-100605848D01*
X203848284Y-100598656D01*
X203831762Y-100558768D01*
X203831747Y-100558735D01*
X203831732Y-100558697D01*
X203804112Y-100492015D01*
X203795270Y-100478783D01*
X203767885Y-100437797D01*
X203767882Y-100437794D01*
X203735659Y-100389568D01*
X203735655Y-100389563D01*
X203645437Y-100299345D01*
X203645406Y-100299316D01*
X203345818Y-99999728D01*
X203312333Y-99938405D01*
X203309499Y-99912047D01*
X203309499Y-99334998D01*
X203309498Y-99334981D01*
X203298999Y-99232203D01*
X203298998Y-99232200D01*
X203267234Y-99136344D01*
X203243814Y-99065666D01*
X203151712Y-98916344D01*
X203027656Y-98792288D01*
X202878334Y-98700186D01*
X202711797Y-98645001D01*
X202711795Y-98645000D01*
X202609010Y-98634500D01*
X201983998Y-98634500D01*
X201983980Y-98634501D01*
X201881203Y-98645000D01*
X201881200Y-98645001D01*
X201714668Y-98700185D01*
X201714663Y-98700187D01*
X201565342Y-98792289D01*
X201471681Y-98885951D01*
X201410358Y-98919436D01*
X201340666Y-98914452D01*
X201296319Y-98885951D01*
X201202657Y-98792289D01*
X201202656Y-98792288D01*
X201053334Y-98700186D01*
X200886797Y-98645001D01*
X200886795Y-98645000D01*
X200784010Y-98634500D01*
X200158998Y-98634500D01*
X200158980Y-98634501D01*
X200056203Y-98645000D01*
X200056200Y-98645001D01*
X199889668Y-98700185D01*
X199889663Y-98700187D01*
X199740342Y-98792289D01*
X199616289Y-98916342D01*
X199524187Y-99065663D01*
X199524186Y-99065666D01*
X199469001Y-99232203D01*
X199469001Y-99232204D01*
X199469000Y-99232204D01*
X199458500Y-99334983D01*
X199458500Y-100335001D01*
X199458501Y-100335019D01*
X199469001Y-100437795D01*
X199469001Y-100437799D01*
X199486967Y-100492015D01*
X199524186Y-100604334D01*
X199616288Y-100753656D01*
X199740344Y-100877712D01*
X199889666Y-100969814D01*
X200056203Y-101024999D01*
X200158991Y-101035500D01*
X200736047Y-101035499D01*
X200803086Y-101055183D01*
X200823728Y-101071818D01*
X201317710Y-101565800D01*
X201351195Y-101627123D01*
X201346211Y-101696815D01*
X201304339Y-101752748D01*
X201238875Y-101777165D01*
X201170602Y-101762313D01*
X201164933Y-101759020D01*
X201053340Y-101690189D01*
X201053335Y-101690187D01*
X201053334Y-101690186D01*
X200886797Y-101635001D01*
X200886795Y-101635000D01*
X200784010Y-101624500D01*
X200158998Y-101624500D01*
X200158980Y-101624501D01*
X200056203Y-101635000D01*
X200056200Y-101635001D01*
X199889668Y-101690185D01*
X199889663Y-101690187D01*
X199740342Y-101782289D01*
X199616289Y-101906342D01*
X199524187Y-102055663D01*
X199524186Y-102055666D01*
X199469001Y-102222203D01*
X199469001Y-102222204D01*
X199469000Y-102222204D01*
X199458500Y-102324983D01*
X199458500Y-103325001D01*
X199458501Y-103325019D01*
X199469000Y-103427796D01*
X199469001Y-103427799D01*
X199478077Y-103455187D01*
X199524186Y-103594334D01*
X199616288Y-103743656D01*
X199740344Y-103867712D01*
X199889666Y-103959814D01*
X200056203Y-104014999D01*
X200158991Y-104025500D01*
X200784008Y-104025499D01*
X200784016Y-104025498D01*
X200784019Y-104025498D01*
X200840302Y-104019748D01*
X200886797Y-104014999D01*
X201053334Y-103959814D01*
X201202656Y-103867712D01*
X201202659Y-103867708D01*
X201206903Y-103865091D01*
X201274295Y-103846651D01*
X201340959Y-103867573D01*
X201385729Y-103921215D01*
X201396000Y-103970630D01*
X201396000Y-104499763D01*
X201376315Y-104566802D01*
X201323511Y-104612557D01*
X201284604Y-104623121D01*
X201266202Y-104625001D01*
X201266200Y-104625001D01*
X201099668Y-104680185D01*
X201099663Y-104680187D01*
X200950342Y-104772289D01*
X200856681Y-104865951D01*
X200795358Y-104899436D01*
X200725666Y-104894452D01*
X200681319Y-104865951D01*
X200587657Y-104772289D01*
X200587656Y-104772288D01*
X200438334Y-104680186D01*
X200271797Y-104625001D01*
X200271795Y-104625000D01*
X200169010Y-104614500D01*
X199543998Y-104614500D01*
X199543980Y-104614501D01*
X199441203Y-104625000D01*
X199441200Y-104625001D01*
X199274668Y-104680185D01*
X199274663Y-104680187D01*
X199125342Y-104772289D01*
X199001289Y-104896342D01*
X198909187Y-105045663D01*
X198909186Y-105045666D01*
X198889689Y-105104505D01*
X198849916Y-105161949D01*
X198785400Y-105188772D01*
X198771983Y-105189500D01*
X198368500Y-105189500D01*
X198301461Y-105169815D01*
X198255706Y-105117011D01*
X198244500Y-105065500D01*
X198244499Y-104089998D01*
X198244498Y-104089980D01*
X198233999Y-103987203D01*
X198233998Y-103987200D01*
X198224923Y-103959814D01*
X198178814Y-103820666D01*
X198086712Y-103671344D01*
X197962656Y-103547288D01*
X197813334Y-103455186D01*
X197646797Y-103400001D01*
X197646795Y-103400000D01*
X197544010Y-103389500D01*
X196918998Y-103389500D01*
X196918980Y-103389501D01*
X196816203Y-103400000D01*
X196816200Y-103400001D01*
X196649668Y-103455185D01*
X196649663Y-103455187D01*
X196500342Y-103547289D01*
X196406681Y-103640951D01*
X196345358Y-103674436D01*
X196275666Y-103669452D01*
X196231319Y-103640951D01*
X196137657Y-103547289D01*
X196137656Y-103547288D01*
X195988334Y-103455186D01*
X195821797Y-103400001D01*
X195821795Y-103400000D01*
X195719016Y-103389500D01*
X195240570Y-103389500D01*
X195173531Y-103369815D01*
X195127776Y-103317011D01*
X195117832Y-103247853D01*
X195126009Y-103218047D01*
X195156695Y-103143966D01*
X195191300Y-102969991D01*
X195191300Y-102792608D01*
X195191300Y-102150009D01*
X195191300Y-102150006D01*
X195191299Y-102150004D01*
X195156696Y-101976041D01*
X195156693Y-101976032D01*
X195088816Y-101812159D01*
X195088809Y-101812146D01*
X194990264Y-101664665D01*
X194990261Y-101664661D01*
X194864838Y-101539238D01*
X194864834Y-101539235D01*
X194717353Y-101440690D01*
X194717340Y-101440683D01*
X194553467Y-101372806D01*
X194553458Y-101372803D01*
X194379494Y-101338200D01*
X194379491Y-101338200D01*
X194202109Y-101338200D01*
X194202106Y-101338200D01*
X194028141Y-101372803D01*
X194028132Y-101372806D01*
X193864259Y-101440683D01*
X193864246Y-101440690D01*
X193716765Y-101539235D01*
X193649488Y-101606512D01*
X193588164Y-101639996D01*
X193518473Y-101635011D01*
X193496714Y-101624370D01*
X193368334Y-101545186D01*
X193201797Y-101490001D01*
X193201795Y-101490000D01*
X193099016Y-101479500D01*
X192170950Y-101479500D01*
X192103911Y-101459815D01*
X192058156Y-101407011D01*
X192048212Y-101337853D01*
X192077237Y-101274297D01*
X192083255Y-101267833D01*
X192434271Y-100916818D01*
X192495594Y-100883333D01*
X192521952Y-100880499D01*
X193099002Y-100880499D01*
X193099008Y-100880499D01*
X193201797Y-100869999D01*
X193368334Y-100814814D01*
X193517656Y-100722712D01*
X193641712Y-100598656D01*
X193733814Y-100449334D01*
X193788999Y-100282797D01*
X193797970Y-100194983D01*
X195558500Y-100194983D01*
X195558500Y-102395001D01*
X195558501Y-102395018D01*
X195569000Y-102497796D01*
X195569001Y-102497799D01*
X195624185Y-102664331D01*
X195624186Y-102664334D01*
X195716288Y-102813656D01*
X195840344Y-102937712D01*
X195989666Y-103029814D01*
X196156203Y-103084999D01*
X196258991Y-103095500D01*
X198459008Y-103095499D01*
X198561797Y-103084999D01*
X198728334Y-103029814D01*
X198877656Y-102937712D01*
X199001712Y-102813656D01*
X199093814Y-102664334D01*
X199148999Y-102497797D01*
X199159500Y-102395009D01*
X199159499Y-100194992D01*
X199157968Y-100180009D01*
X199148999Y-100092203D01*
X199148998Y-100092200D01*
X199093814Y-99925666D01*
X199001712Y-99776344D01*
X198877656Y-99652288D01*
X198728334Y-99560186D01*
X198561797Y-99505001D01*
X198561795Y-99505000D01*
X198459010Y-99494500D01*
X196258998Y-99494500D01*
X196258981Y-99494501D01*
X196156203Y-99505000D01*
X196156200Y-99505001D01*
X195989668Y-99560185D01*
X195989663Y-99560187D01*
X195840342Y-99652289D01*
X195716289Y-99776342D01*
X195624187Y-99925663D01*
X195624185Y-99925668D01*
X195611679Y-99963409D01*
X195569001Y-100092203D01*
X195569001Y-100092204D01*
X195569000Y-100092204D01*
X195558500Y-100194983D01*
X193797970Y-100194983D01*
X193799500Y-100180009D01*
X193799499Y-99554992D01*
X193788999Y-99452203D01*
X193733814Y-99285666D01*
X193641712Y-99136344D01*
X193548049Y-99042681D01*
X193514564Y-98981358D01*
X193519548Y-98911666D01*
X193548049Y-98867319D01*
X193641712Y-98773656D01*
X193670549Y-98726902D01*
X193722497Y-98680179D01*
X193776088Y-98668000D01*
X198031408Y-98668000D01*
X198031408Y-98667999D01*
X198147033Y-98645001D01*
X198152252Y-98643963D01*
X198185592Y-98630152D01*
X198266086Y-98596812D01*
X198317309Y-98562584D01*
X198368533Y-98528358D01*
X198455658Y-98441233D01*
X198455658Y-98441231D01*
X198465866Y-98431024D01*
X198465867Y-98431021D01*
X199320685Y-97576204D01*
X199382003Y-97542723D01*
X199451695Y-97547707D01*
X199507628Y-97589579D01*
X199515703Y-97603065D01*
X199515851Y-97602975D01*
X199611684Y-97758345D01*
X199735654Y-97882315D01*
X199884875Y-97974356D01*
X199884880Y-97974358D01*
X200051302Y-98029505D01*
X200051309Y-98029506D01*
X200154019Y-98039999D01*
X200203999Y-98039998D01*
X200204000Y-98039998D01*
X200204000Y-96939000D01*
X200223685Y-96871961D01*
X200276489Y-96826206D01*
X200328000Y-96815000D01*
X200580000Y-96815000D01*
X200647039Y-96834685D01*
X200692794Y-96887489D01*
X200704000Y-96939000D01*
X200704000Y-98039999D01*
X200753972Y-98039999D01*
X200753986Y-98039998D01*
X200856697Y-98029505D01*
X201023119Y-97974358D01*
X201023124Y-97974356D01*
X201172345Y-97882315D01*
X201296318Y-97758342D01*
X201298165Y-97755348D01*
X201299969Y-97753724D01*
X201300798Y-97752677D01*
X201300976Y-97752818D01*
X201350110Y-97708621D01*
X201419073Y-97697396D01*
X201483156Y-97725236D01*
X201509243Y-97755341D01*
X201511288Y-97758656D01*
X201635344Y-97882712D01*
X201784666Y-97974814D01*
X201951203Y-98029999D01*
X202053991Y-98040500D01*
X202654008Y-98040499D01*
X202654016Y-98040498D01*
X202654019Y-98040498D01*
X202710302Y-98034748D01*
X202756797Y-98029999D01*
X202923334Y-97974814D01*
X203072656Y-97882712D01*
X203196712Y-97758656D01*
X203288814Y-97609334D01*
X203343999Y-97442797D01*
X203354500Y-97340009D01*
X203354499Y-96289992D01*
X203353244Y-96277710D01*
X203343999Y-96187203D01*
X203343998Y-96187200D01*
X203332883Y-96153657D01*
X203288814Y-96020666D01*
X203196712Y-95871344D01*
X203072656Y-95747288D01*
X202979888Y-95690069D01*
X202923336Y-95655187D01*
X202923331Y-95655185D01*
X202921862Y-95654698D01*
X202756797Y-95600001D01*
X202756795Y-95600000D01*
X202654010Y-95589500D01*
X202053998Y-95589500D01*
X202053980Y-95589501D01*
X201951203Y-95600000D01*
X201951200Y-95600001D01*
X201784668Y-95655185D01*
X201784663Y-95655187D01*
X201635342Y-95747289D01*
X201511288Y-95871343D01*
X201511283Y-95871349D01*
X201509241Y-95874661D01*
X201507247Y-95876453D01*
X201506807Y-95877011D01*
X201506711Y-95876935D01*
X201457291Y-95921383D01*
X201388328Y-95932602D01*
X201324247Y-95904755D01*
X201298168Y-95874656D01*
X201296319Y-95871659D01*
X201296316Y-95871655D01*
X201219305Y-95794644D01*
X201185820Y-95733321D01*
X201190804Y-95663629D01*
X201219301Y-95619288D01*
X201827560Y-95011029D01*
X201888881Y-94977546D01*
X201944182Y-94980473D01*
X201944588Y-94978582D01*
X201951193Y-94979995D01*
X201951203Y-94979999D01*
X202053991Y-94990500D01*
X202654008Y-94990499D01*
X202654016Y-94990498D01*
X202654019Y-94990498D01*
X202710302Y-94984748D01*
X202756797Y-94979999D01*
X202923334Y-94924814D01*
X203072656Y-94832712D01*
X203196712Y-94708656D01*
X203288814Y-94559334D01*
X203343999Y-94392797D01*
X203354500Y-94290009D01*
X203354499Y-93239992D01*
X203353990Y-93235013D01*
X203343999Y-93137203D01*
X203343998Y-93137200D01*
X203291708Y-92979400D01*
X203288814Y-92970666D01*
X203227738Y-92871646D01*
X203209299Y-92804255D01*
X203230222Y-92737592D01*
X203264388Y-92703448D01*
X203282633Y-92691258D01*
X203369758Y-92604133D01*
X203369759Y-92604131D01*
X203376825Y-92597065D01*
X203376828Y-92597061D01*
X204144129Y-91829760D01*
X204144133Y-91829758D01*
X204231258Y-91742633D01*
X204290437Y-91654066D01*
X204290439Y-91654064D01*
X204299708Y-91640192D01*
X204299708Y-91640191D01*
X204299712Y-91640186D01*
X204346863Y-91526351D01*
X204346993Y-91525700D01*
X204370900Y-91405506D01*
X204370900Y-90157294D01*
X204346863Y-90036448D01*
X204299711Y-89922614D01*
X204299710Y-89922613D01*
X204299707Y-89922607D01*
X204231258Y-89820167D01*
X204231255Y-89820163D01*
X204141037Y-89729945D01*
X204141006Y-89729916D01*
X203836404Y-89425314D01*
X203802919Y-89363991D01*
X203805011Y-89303030D01*
X203806598Y-89297568D01*
X203809499Y-89260701D01*
X203809500Y-89260694D01*
X203809500Y-88829306D01*
X203806598Y-88792431D01*
X203760744Y-88634602D01*
X203677081Y-88493135D01*
X203677079Y-88493133D01*
X203677076Y-88493129D01*
X203560870Y-88376923D01*
X203560862Y-88376917D01*
X203419396Y-88293255D01*
X203419393Y-88293254D01*
X203261573Y-88247402D01*
X203261567Y-88247401D01*
X203224701Y-88244500D01*
X203224694Y-88244500D01*
X201918306Y-88244500D01*
X201918298Y-88244500D01*
X201881432Y-88247401D01*
X201881426Y-88247402D01*
X201723606Y-88293254D01*
X201723603Y-88293255D01*
X201582137Y-88376917D01*
X201582129Y-88376923D01*
X201465923Y-88493129D01*
X201465917Y-88493137D01*
X201382255Y-88634603D01*
X201382254Y-88634606D01*
X201336402Y-88792426D01*
X201336401Y-88792432D01*
X201333500Y-88829298D01*
X201333500Y-89070500D01*
X201313815Y-89137539D01*
X201261011Y-89183294D01*
X201209500Y-89194500D01*
X200043298Y-89194500D01*
X200006432Y-89197401D01*
X200006426Y-89197402D01*
X199848606Y-89243254D01*
X199848603Y-89243255D01*
X199707137Y-89326917D01*
X199707129Y-89326923D01*
X199590923Y-89443129D01*
X199590917Y-89443137D01*
X199507255Y-89584603D01*
X199507254Y-89584606D01*
X199461402Y-89742426D01*
X199461401Y-89742432D01*
X199458500Y-89779298D01*
X199458500Y-90210701D01*
X199461401Y-90247567D01*
X199461402Y-90247573D01*
X199507254Y-90405393D01*
X199507255Y-90405396D01*
X199581395Y-90530761D01*
X199598578Y-90598485D01*
X199576418Y-90664748D01*
X199562344Y-90681563D01*
X199316548Y-90927358D01*
X199255225Y-90960843D01*
X199185533Y-90955859D01*
X199129600Y-90913987D01*
X199109092Y-90871770D01*
X199067129Y-90715162D01*
X198976839Y-90497180D01*
X198976834Y-90497171D01*
X198858855Y-90292828D01*
X198858854Y-90292827D01*
X198796277Y-90211275D01*
X197960041Y-91047510D01*
X197935022Y-90987110D01*
X197863888Y-90880649D01*
X197773351Y-90790112D01*
X197666890Y-90718978D01*
X197606488Y-90693958D01*
X198442723Y-89857721D01*
X198361172Y-89795145D01*
X198361171Y-89795144D01*
X198156828Y-89677165D01*
X198156819Y-89677160D01*
X197938836Y-89586870D01*
X197938838Y-89586870D01*
X197710914Y-89525799D01*
X197476985Y-89495000D01*
X197241014Y-89495000D01*
X197007085Y-89525799D01*
X196779162Y-89586870D01*
X196561180Y-89677160D01*
X196561171Y-89677165D01*
X196356828Y-89795144D01*
X196356818Y-89795150D01*
X196275275Y-89857720D01*
X196275275Y-89857721D01*
X197111512Y-90693958D01*
X197051110Y-90718978D01*
X196944649Y-90790112D01*
X196854112Y-90880649D01*
X196782978Y-90987110D01*
X196757958Y-91047512D01*
X195921721Y-90211275D01*
X195921720Y-90211275D01*
X195859150Y-90292818D01*
X195859144Y-90292828D01*
X195741165Y-90497171D01*
X195741160Y-90497180D01*
X195650870Y-90715162D01*
X195589799Y-90943085D01*
X195559000Y-91177014D01*
X195559000Y-91412985D01*
X195582071Y-91588214D01*
X195571306Y-91657250D01*
X195524926Y-91709505D01*
X195459132Y-91728400D01*
X193878952Y-91728400D01*
X193811913Y-91708715D01*
X193766158Y-91655911D01*
X193756214Y-91586753D01*
X193773413Y-91539304D01*
X193781401Y-91526352D01*
X193788814Y-91514334D01*
X193843999Y-91347797D01*
X193854500Y-91245009D01*
X193854499Y-90644992D01*
X193843999Y-90542203D01*
X193788814Y-90375666D01*
X193696712Y-90226344D01*
X193572656Y-90102288D01*
X193569342Y-90100243D01*
X193567546Y-90098248D01*
X193566989Y-90097807D01*
X193567064Y-90097711D01*
X193522618Y-90048297D01*
X193511397Y-89979334D01*
X193539240Y-89915252D01*
X193549604Y-89904269D01*
X193643075Y-89816585D01*
X193696315Y-89763345D01*
X193788356Y-89614124D01*
X193788358Y-89614119D01*
X193843505Y-89447697D01*
X193843506Y-89447690D01*
X193853999Y-89344986D01*
X193854000Y-89344973D01*
X193854000Y-89295000D01*
X191404001Y-89295000D01*
X191404001Y-89344986D01*
X191414494Y-89447697D01*
X191469641Y-89614119D01*
X191469643Y-89614124D01*
X191561684Y-89763345D01*
X191685655Y-89887316D01*
X191685659Y-89887319D01*
X191688656Y-89889168D01*
X191690279Y-89890972D01*
X191691323Y-89891798D01*
X191691181Y-89891976D01*
X191735381Y-89941116D01*
X191746602Y-90010079D01*
X191718759Y-90074161D01*
X191688661Y-90100241D01*
X191685349Y-90102283D01*
X191685343Y-90102288D01*
X191561289Y-90226342D01*
X191469187Y-90375663D01*
X191469186Y-90375666D01*
X191414001Y-90542203D01*
X191414001Y-90542204D01*
X191414000Y-90542204D01*
X191403500Y-90644983D01*
X191403500Y-90845637D01*
X191383815Y-90912676D01*
X191367181Y-90933318D01*
X190448338Y-91852160D01*
X190448337Y-91852161D01*
X190429862Y-91879813D01*
X190429861Y-91879814D01*
X190349788Y-91999650D01*
X190349787Y-91999652D01*
X190331161Y-92044620D01*
X190331161Y-92044621D01*
X190281905Y-92163533D01*
X190281903Y-92163541D01*
X190247300Y-92337503D01*
X190247300Y-94255596D01*
X190281903Y-94429558D01*
X190281905Y-94429566D01*
X190308802Y-94494500D01*
X190308802Y-94494501D01*
X190349784Y-94593442D01*
X190349785Y-94593443D01*
X190349787Y-94593447D01*
X190405425Y-94676714D01*
X190405425Y-94676715D01*
X190448337Y-94740938D01*
X190448340Y-94740941D01*
X191367880Y-95660480D01*
X191401365Y-95721803D01*
X191403557Y-95735559D01*
X191414001Y-95837797D01*
X191414001Y-95837799D01*
X191469185Y-96004331D01*
X191469187Y-96004336D01*
X191479261Y-96020668D01*
X191561288Y-96153656D01*
X191685344Y-96277712D01*
X191834666Y-96369814D01*
X192001203Y-96424999D01*
X192103991Y-96435500D01*
X192304637Y-96435499D01*
X192371677Y-96455183D01*
X192392319Y-96471818D01*
X192738320Y-96817819D01*
X192771805Y-96879142D01*
X192766821Y-96948834D01*
X192724949Y-97004767D01*
X192659485Y-97029184D01*
X192650639Y-97029500D01*
X192098998Y-97029500D01*
X192098980Y-97029501D01*
X191996203Y-97040000D01*
X191996200Y-97040001D01*
X191829668Y-97095185D01*
X191829663Y-97095187D01*
X191680342Y-97187289D01*
X191556289Y-97311342D01*
X191464187Y-97460663D01*
X191464186Y-97460666D01*
X191409001Y-97627203D01*
X191409001Y-97627204D01*
X191409000Y-97627204D01*
X191398500Y-97729983D01*
X191398500Y-98355001D01*
X191398501Y-98355019D01*
X191409000Y-98457796D01*
X191409001Y-98457799D01*
X191464185Y-98624331D01*
X191464187Y-98624336D01*
X191556289Y-98773657D01*
X191649951Y-98867319D01*
X191683436Y-98928642D01*
X191678452Y-98998334D01*
X191649951Y-99042681D01*
X191556289Y-99136342D01*
X191464187Y-99285663D01*
X191464185Y-99285668D01*
X191447844Y-99334983D01*
X191409001Y-99452203D01*
X191409001Y-99452204D01*
X191409000Y-99452204D01*
X191398500Y-99554983D01*
X191398500Y-100132046D01*
X191378815Y-100199085D01*
X191362181Y-100219727D01*
X191043027Y-100538882D01*
X190981706Y-100572366D01*
X190955348Y-100575200D01*
X184526889Y-100575200D01*
X184466471Y-100587218D01*
X184423243Y-100595816D01*
X184406046Y-100599237D01*
X184292216Y-100646387D01*
X184292207Y-100646392D01*
X184189768Y-100714840D01*
X184150953Y-100753656D01*
X184102642Y-100801967D01*
X184102639Y-100801970D01*
X183090729Y-101813881D01*
X183029406Y-101847366D01*
X183003048Y-101850200D01*
X164975641Y-101850200D01*
X164975621Y-101850199D01*
X164969507Y-101850199D01*
X164846294Y-101850199D01*
X164745497Y-101870248D01*
X164745492Y-101870248D01*
X164725453Y-101874235D01*
X164725445Y-101874237D01*
X164684888Y-101891036D01*
X164684889Y-101891037D01*
X164611611Y-101921389D01*
X164509167Y-101989841D01*
X164509163Y-101989844D01*
X162904678Y-103594331D01*
X162423369Y-104075640D01*
X162423367Y-104075642D01*
X162381828Y-104117181D01*
X162336240Y-104162768D01*
X162317201Y-104191264D01*
X162317199Y-104191267D01*
X162267788Y-104265214D01*
X162253587Y-104299500D01*
X162220638Y-104379045D01*
X162220635Y-104379055D01*
X162196600Y-104499889D01*
X155354000Y-104499889D01*
X155354000Y-88745013D01*
X191404000Y-88745013D01*
X191404000Y-88795000D01*
X192379000Y-88795000D01*
X192879000Y-88795000D01*
X193853999Y-88795000D01*
X193853999Y-88745028D01*
X193853998Y-88745013D01*
X193843505Y-88642302D01*
X193788358Y-88475880D01*
X193788356Y-88475875D01*
X193696315Y-88326654D01*
X193572345Y-88202684D01*
X193423124Y-88110643D01*
X193423119Y-88110641D01*
X193256697Y-88055494D01*
X193256690Y-88055493D01*
X193153986Y-88045000D01*
X192879000Y-88045000D01*
X192879000Y-88795000D01*
X192379000Y-88795000D01*
X192379000Y-88045000D01*
X192104029Y-88045000D01*
X192104012Y-88045001D01*
X192001302Y-88055494D01*
X191834880Y-88110641D01*
X191834875Y-88110643D01*
X191685654Y-88202684D01*
X191561684Y-88326654D01*
X191469643Y-88475875D01*
X191469641Y-88475880D01*
X191414494Y-88642302D01*
X191414493Y-88642309D01*
X191404000Y-88745013D01*
X155354000Y-88745013D01*
X155354000Y-83881995D01*
X201998200Y-83881995D01*
X201998200Y-84118004D01*
X201998201Y-84118020D01*
X202029006Y-84352010D01*
X202090094Y-84579993D01*
X202180414Y-84798045D01*
X202180419Y-84798056D01*
X202251377Y-84920957D01*
X202298427Y-85002450D01*
X202298429Y-85002453D01*
X202298430Y-85002454D01*
X202442106Y-85189697D01*
X202442112Y-85189704D01*
X202608995Y-85356587D01*
X202609001Y-85356592D01*
X202796250Y-85500273D01*
X202927618Y-85576118D01*
X203000643Y-85618280D01*
X203000648Y-85618282D01*
X203000651Y-85618284D01*
X203218707Y-85708606D01*
X203446686Y-85769693D01*
X203680689Y-85800500D01*
X203680696Y-85800500D01*
X203916704Y-85800500D01*
X203916711Y-85800500D01*
X204150714Y-85769693D01*
X204378693Y-85708606D01*
X204596749Y-85618284D01*
X204801150Y-85500273D01*
X204988399Y-85356592D01*
X205155292Y-85189699D01*
X205298973Y-85002450D01*
X205416984Y-84798049D01*
X205507306Y-84579993D01*
X205568393Y-84352014D01*
X205599200Y-84118011D01*
X205599200Y-83881989D01*
X205568393Y-83647986D01*
X205507306Y-83420007D01*
X205416984Y-83201951D01*
X205416982Y-83201948D01*
X205416980Y-83201943D01*
X205374818Y-83128918D01*
X205298973Y-82997550D01*
X205155292Y-82810301D01*
X205155287Y-82810295D01*
X204988404Y-82643412D01*
X204988397Y-82643406D01*
X204801154Y-82499730D01*
X204801153Y-82499729D01*
X204801150Y-82499727D01*
X204719657Y-82452677D01*
X204596756Y-82381719D01*
X204596745Y-82381714D01*
X204378693Y-82291394D01*
X204150710Y-82230306D01*
X203916720Y-82199501D01*
X203916717Y-82199500D01*
X203916711Y-82199500D01*
X203680689Y-82199500D01*
X203680683Y-82199500D01*
X203680679Y-82199501D01*
X203446689Y-82230306D01*
X203218706Y-82291394D01*
X203000654Y-82381714D01*
X203000643Y-82381719D01*
X202796245Y-82499730D01*
X202609002Y-82643406D01*
X202608995Y-82643412D01*
X202442112Y-82810295D01*
X202442106Y-82810302D01*
X202298430Y-82997545D01*
X202298427Y-82997549D01*
X202298427Y-82997550D01*
X202290714Y-83010909D01*
X202180419Y-83201943D01*
X202180414Y-83201954D01*
X202090094Y-83420006D01*
X202029006Y-83647989D01*
X201998201Y-83881979D01*
X201998200Y-83881995D01*
X155354000Y-83881995D01*
X155354000Y-81124000D01*
X155373685Y-81056961D01*
X155426489Y-81011206D01*
X155478000Y-81000000D01*
X206249904Y-81000000D01*
X206316943Y-81019685D01*
G37*
%TD.AperFunction*%
%TD*%
M02*
