%TF.GenerationSoftware,KiCad,Pcbnew,10.0.5*%
%TF.CreationDate,2026-07-29T14:16:02-07:00*%
%TF.ProjectId,aquaguard,61717561-6775-4617-9264-2e6b69636164,rev?*%
%TF.SameCoordinates,Original*%
%TF.FileFunction,Drillmap*%
%TF.FilePolarity,Positive*%
%FSLAX45Y45*%
G04 Gerber Fmt 4.5, Leading zero omitted, Abs format (unit mm)*
G04 Created by KiCad (PCBNEW 10.0.5) date 2026-07-29 14:16:02*
%MOMM*%
%LPD*%
G01*
G04 APERTURE LIST*
%ADD10C,0.100000*%
%ADD11C,0.200000*%
%ADD12C,0.105000*%
%ADD13C,0.110000*%
%ADD14C,0.130000*%
G04 APERTURE END LIST*
D10*
X10000000Y-8300000D02*
G75*
G02*
X10300000Y-8000000I300000J0D01*
G01*
X10000000Y-16020000D02*
X10000000Y-8300000D01*
X10300000Y-8000000D02*
X20480000Y-8000000D01*
X10300000Y-16320000D02*
G75*
G02*
X10000000Y-16020000I0J300000D01*
G01*
X14125900Y-15248500D02*
X14285900Y-15248500D01*
X14125900Y-15620000D02*
X14125900Y-15248500D01*
X14285900Y-15248500D02*
X14285900Y-15620000D01*
X14285900Y-15620000D02*
X14125900Y-15620000D01*
X20480000Y-8000000D02*
G75*
G02*
X20780000Y-8300000I0J-300000D01*
G01*
X20480000Y-16320000D02*
X10300000Y-16320000D01*
X20780000Y-8300000D02*
X20780000Y-16020000D01*
X20780000Y-16020000D02*
G75*
G02*
X20480000Y-16320000I-300000J0D01*
G01*
D11*
D10*
X17060400Y-10939000D02*
X17080400Y-10959000D01*
X17080400Y-10939000D02*
X17060400Y-10959000D01*
X17060400Y-11079000D02*
X17080400Y-11099000D01*
X17080400Y-11079000D02*
X17060400Y-11099000D01*
X17130400Y-10869000D02*
X17150400Y-10889000D01*
X17150400Y-10869000D02*
X17130400Y-10889000D01*
X17130400Y-11009000D02*
X17150400Y-11029000D01*
X17150400Y-11009000D02*
X17130400Y-11029000D01*
X17130400Y-11149000D02*
X17150400Y-11169000D01*
X17150400Y-11149000D02*
X17130400Y-11169000D01*
X17200400Y-10939000D02*
X17220400Y-10959000D01*
X17220400Y-10939000D02*
X17200400Y-10959000D01*
X17200400Y-11079000D02*
X17220400Y-11099000D01*
X17220400Y-11079000D02*
X17200400Y-11099000D01*
X17270400Y-10869000D02*
X17290400Y-10889000D01*
X17290400Y-10869000D02*
X17270400Y-10889000D01*
X17270400Y-11009000D02*
X17290400Y-11029000D01*
X17290400Y-11009000D02*
X17270400Y-11029000D01*
X17270400Y-11149000D02*
X17290400Y-11169000D01*
X17290400Y-11149000D02*
X17270400Y-11169000D01*
X17340400Y-10939000D02*
X17360400Y-10959000D01*
X17360400Y-10939000D02*
X17340400Y-10959000D01*
X17340400Y-11079000D02*
X17360400Y-11099000D01*
X17360400Y-11079000D02*
X17340400Y-11099000D01*
X16365200Y-10477900D02*
G75*
G02*
X16335200Y-10477900I-15000J0D01*
G01*
X16335200Y-10477900D02*
G75*
G02*
X16365200Y-10477900I15000J0D01*
G01*
X16365200Y-11518120D02*
G75*
G02*
X16335200Y-11518120I-15000J0D01*
G01*
X16335200Y-11518120D02*
G75*
G02*
X16365200Y-11518120I15000J0D01*
G01*
X16367560Y-11242190D02*
G75*
G02*
X16337560Y-11242190I-15000J0D01*
G01*
X16337560Y-11242190D02*
G75*
G02*
X16367560Y-11242190I15000J0D01*
G01*
X16988150Y-10643870D02*
G75*
G02*
X16958150Y-10643870I-15000J0D01*
G01*
X16958150Y-10643870D02*
G75*
G02*
X16988150Y-10643870I15000J0D01*
G01*
X17929550Y-11822800D02*
G75*
G02*
X17899550Y-11822800I-15000J0D01*
G01*
X17899550Y-11822800D02*
G75*
G02*
X17929550Y-11822800I15000J0D01*
G01*
X19095200Y-12486410D02*
G75*
G02*
X19065200Y-12486410I-15000J0D01*
G01*
X19065200Y-12486410D02*
G75*
G02*
X19095200Y-12486410I15000J0D01*
G01*
X19320390Y-9242380D02*
G75*
G02*
X19290390Y-9242380I-15000J0D01*
G01*
X19290390Y-9242380D02*
G75*
G02*
X19320390Y-9242380I15000J0D01*
G01*
X20243140Y-10143670D02*
G75*
G02*
X20213140Y-10143670I-15000J0D01*
G01*
X20213140Y-10143670D02*
G75*
G02*
X20243140Y-10143670I15000J0D01*
G01*
X15710400Y-8255000D02*
X15710400Y-8295000D01*
X15690400Y-8275000D02*
X15730400Y-8275000D01*
X15710400Y-8605000D02*
X15710400Y-8645000D01*
X15690400Y-8625000D02*
X15730400Y-8625000D01*
X15710400Y-8955000D02*
X15710400Y-8995000D01*
X15690400Y-8975000D02*
X15730400Y-8975000D01*
X15710400Y-9305000D02*
X15710400Y-9345000D01*
X15690400Y-9325000D02*
X15730400Y-9325000D01*
X15710400Y-9655000D02*
X15710400Y-9695000D01*
X15690400Y-9675000D02*
X15730400Y-9675000D01*
X15710400Y-10005000D02*
X15710400Y-10045000D01*
X15690400Y-10025000D02*
X15730400Y-10025000D01*
X15710400Y-10355000D02*
X15710400Y-10395000D01*
X15690400Y-10375000D02*
X15730400Y-10375000D01*
X15710400Y-10705000D02*
X15710400Y-10745000D01*
X15690400Y-10725000D02*
X15730400Y-10725000D01*
X15710400Y-11055000D02*
X15710400Y-11095000D01*
X15690400Y-11075000D02*
X15730400Y-11075000D01*
X15710400Y-11405000D02*
X15710400Y-11445000D01*
X15690400Y-11425000D02*
X15730400Y-11425000D01*
X15710400Y-11755000D02*
X15710400Y-11795000D01*
X15690400Y-11775000D02*
X15730400Y-11775000D01*
X15710400Y-12105000D02*
X15710400Y-12145000D01*
X15690400Y-12125000D02*
X15730400Y-12125000D01*
X15710400Y-12455000D02*
X15710400Y-12495000D01*
X15690400Y-12475000D02*
X15730400Y-12475000D01*
X15710400Y-12805000D02*
X15710400Y-12845000D01*
X15690400Y-12825000D02*
X15730400Y-12825000D01*
X15710400Y-13155000D02*
X15710400Y-13195000D01*
X15690400Y-13175000D02*
X15730400Y-13175000D01*
X15710400Y-13505000D02*
X15710400Y-13545000D01*
X15690400Y-13525000D02*
X15730400Y-13525000D01*
X15710400Y-13855000D02*
X15710400Y-13895000D01*
X15690400Y-13875000D02*
X15730400Y-13875000D01*
X15710400Y-15255000D02*
X15710400Y-15295000D01*
X15690400Y-15275000D02*
X15730400Y-15275000D01*
X15710400Y-15605000D02*
X15710400Y-15645000D01*
X15690400Y-15625000D02*
X15730400Y-15625000D01*
X16060400Y-8255000D02*
X16060400Y-8295000D01*
X16040400Y-8275000D02*
X16080400Y-8275000D01*
X16060400Y-8605000D02*
X16060400Y-8645000D01*
X16040400Y-8625000D02*
X16080400Y-8625000D01*
X16060400Y-8955000D02*
X16060400Y-8995000D01*
X16040400Y-8975000D02*
X16080400Y-8975000D01*
X16060400Y-9305000D02*
X16060400Y-9345000D01*
X16040400Y-9325000D02*
X16080400Y-9325000D01*
X16060400Y-9655000D02*
X16060400Y-9695000D01*
X16040400Y-9675000D02*
X16080400Y-9675000D01*
X16060400Y-10005000D02*
X16060400Y-10045000D01*
X16040400Y-10025000D02*
X16080400Y-10025000D01*
X16060400Y-10355000D02*
X16060400Y-10395000D01*
X16040400Y-10375000D02*
X16080400Y-10375000D01*
X16060400Y-10705000D02*
X16060400Y-10745000D01*
X16040400Y-10725000D02*
X16080400Y-10725000D01*
X16060400Y-11055000D02*
X16060400Y-11095000D01*
X16040400Y-11075000D02*
X16080400Y-11075000D01*
X16060400Y-11405000D02*
X16060400Y-11445000D01*
X16040400Y-11425000D02*
X16080400Y-11425000D01*
X16060400Y-11755000D02*
X16060400Y-11795000D01*
X16040400Y-11775000D02*
X16080400Y-11775000D01*
X16060400Y-12105000D02*
X16060400Y-12145000D01*
X16040400Y-12125000D02*
X16080400Y-12125000D01*
X16060400Y-12455000D02*
X16060400Y-12495000D01*
X16040400Y-12475000D02*
X16080400Y-12475000D01*
X16060400Y-12805000D02*
X16060400Y-12845000D01*
X16040400Y-12825000D02*
X16080400Y-12825000D01*
X16060400Y-13155000D02*
X16060400Y-13195000D01*
X16040400Y-13175000D02*
X16080400Y-13175000D01*
X16060400Y-13505000D02*
X16060400Y-13545000D01*
X16040400Y-13525000D02*
X16080400Y-13525000D01*
X16060400Y-13855000D02*
X16060400Y-13895000D01*
X16040400Y-13875000D02*
X16080400Y-13875000D01*
X16060400Y-14555000D02*
X16060400Y-14595000D01*
X16040400Y-14575000D02*
X16080400Y-14575000D01*
X16060400Y-15255000D02*
X16060400Y-15295000D01*
X16040400Y-15275000D02*
X16080400Y-15275000D01*
X16060400Y-15605000D02*
X16060400Y-15645000D01*
X16040400Y-15625000D02*
X16080400Y-15625000D01*
X16060400Y-15955000D02*
X16060400Y-15995000D01*
X16040400Y-15975000D02*
X16080400Y-15975000D01*
X16270400Y-10227000D02*
X16270400Y-10267000D01*
X16250400Y-10247000D02*
X16290400Y-10247000D01*
X16410400Y-8255000D02*
X16410400Y-8295000D01*
X16390400Y-8275000D02*
X16430400Y-8275000D01*
X16410400Y-8605000D02*
X16410400Y-8645000D01*
X16390400Y-8625000D02*
X16430400Y-8625000D01*
X16410400Y-8955000D02*
X16410400Y-8995000D01*
X16390400Y-8975000D02*
X16430400Y-8975000D01*
X16410400Y-9305000D02*
X16410400Y-9345000D01*
X16390400Y-9325000D02*
X16430400Y-9325000D01*
X16410400Y-12105000D02*
X16410400Y-12145000D01*
X16390400Y-12125000D02*
X16430400Y-12125000D01*
X16410400Y-12455000D02*
X16410400Y-12495000D01*
X16390400Y-12475000D02*
X16430400Y-12475000D01*
X16410400Y-12805000D02*
X16410400Y-12845000D01*
X16390400Y-12825000D02*
X16430400Y-12825000D01*
X16410400Y-13155000D02*
X16410400Y-13195000D01*
X16390400Y-13175000D02*
X16430400Y-13175000D01*
X16410400Y-13505000D02*
X16410400Y-13545000D01*
X16390400Y-13525000D02*
X16430400Y-13525000D01*
X16410400Y-13855000D02*
X16410400Y-13895000D01*
X16390400Y-13875000D02*
X16430400Y-13875000D01*
X16410400Y-14205000D02*
X16410400Y-14245000D01*
X16390400Y-14225000D02*
X16430400Y-14225000D01*
X16410400Y-15605000D02*
X16410400Y-15645000D01*
X16390400Y-15625000D02*
X16430400Y-15625000D01*
X16410400Y-15955000D02*
X16410400Y-15995000D01*
X16390400Y-15975000D02*
X16430400Y-15975000D01*
X16419900Y-14429000D02*
X16419900Y-14469000D01*
X16399900Y-14449000D02*
X16439900Y-14449000D01*
X16760400Y-8255000D02*
X16760400Y-8295000D01*
X16740400Y-8275000D02*
X16780400Y-8275000D01*
X16760400Y-8605000D02*
X16760400Y-8645000D01*
X16740400Y-8625000D02*
X16780400Y-8625000D01*
X16760400Y-8955000D02*
X16760400Y-8995000D01*
X16740400Y-8975000D02*
X16780400Y-8975000D01*
X16760400Y-9305000D02*
X16760400Y-9345000D01*
X16740400Y-9325000D02*
X16780400Y-9325000D01*
X16760400Y-10355000D02*
X16760400Y-10395000D01*
X16740400Y-10375000D02*
X16780400Y-10375000D01*
X16760400Y-10705000D02*
X16760400Y-10745000D01*
X16740400Y-10725000D02*
X16780400Y-10725000D01*
X16760400Y-11055000D02*
X16760400Y-11095000D01*
X16740400Y-11075000D02*
X16780400Y-11075000D01*
X16760400Y-11405000D02*
X16760400Y-11445000D01*
X16740400Y-11425000D02*
X16780400Y-11425000D01*
X16760400Y-11755000D02*
X16760400Y-11795000D01*
X16740400Y-11775000D02*
X16780400Y-11775000D01*
X16760400Y-12455000D02*
X16760400Y-12495000D01*
X16740400Y-12475000D02*
X16780400Y-12475000D01*
X16760400Y-12805000D02*
X16760400Y-12845000D01*
X16740400Y-12825000D02*
X16780400Y-12825000D01*
X16760400Y-13155000D02*
X16760400Y-13195000D01*
X16740400Y-13175000D02*
X16780400Y-13175000D01*
X16760400Y-13505000D02*
X16760400Y-13545000D01*
X16740400Y-13525000D02*
X16780400Y-13525000D01*
X16760400Y-13855000D02*
X16760400Y-13895000D01*
X16740400Y-13875000D02*
X16780400Y-13875000D01*
X16760400Y-14555000D02*
X16760400Y-14595000D01*
X16740400Y-14575000D02*
X16780400Y-14575000D01*
X16760400Y-14905000D02*
X16760400Y-14945000D01*
X16740400Y-14925000D02*
X16780400Y-14925000D01*
X16760400Y-15255000D02*
X16760400Y-15295000D01*
X16740400Y-15275000D02*
X16780400Y-15275000D01*
X16760400Y-15605000D02*
X16760400Y-15645000D01*
X16740400Y-15625000D02*
X16780400Y-15625000D01*
X16760400Y-15955000D02*
X16760400Y-15995000D01*
X16740400Y-15975000D02*
X16780400Y-15975000D01*
X17110400Y-8255000D02*
X17110400Y-8295000D01*
X17090400Y-8275000D02*
X17130400Y-8275000D01*
X17110400Y-8605000D02*
X17110400Y-8645000D01*
X17090400Y-8625000D02*
X17130400Y-8625000D01*
X17110400Y-8955000D02*
X17110400Y-8995000D01*
X17090400Y-8975000D02*
X17130400Y-8975000D01*
X17110400Y-9305000D02*
X17110400Y-9345000D01*
X17090400Y-9325000D02*
X17130400Y-9325000D01*
X17110400Y-10355000D02*
X17110400Y-10395000D01*
X17090400Y-10375000D02*
X17130400Y-10375000D01*
X17110400Y-10705000D02*
X17110400Y-10745000D01*
X17090400Y-10725000D02*
X17130400Y-10725000D01*
X17110400Y-11405000D02*
X17110400Y-11445000D01*
X17090400Y-11425000D02*
X17130400Y-11425000D01*
X17110400Y-11755000D02*
X17110400Y-11795000D01*
X17090400Y-11775000D02*
X17130400Y-11775000D01*
X17110400Y-12455000D02*
X17110400Y-12495000D01*
X17090400Y-12475000D02*
X17130400Y-12475000D01*
X17110400Y-12805000D02*
X17110400Y-12845000D01*
X17090400Y-12825000D02*
X17130400Y-12825000D01*
X17110400Y-13155000D02*
X17110400Y-13195000D01*
X17090400Y-13175000D02*
X17130400Y-13175000D01*
X17110400Y-13505000D02*
X17110400Y-13545000D01*
X17090400Y-13525000D02*
X17130400Y-13525000D01*
X17110400Y-13855000D02*
X17110400Y-13895000D01*
X17090400Y-13875000D02*
X17130400Y-13875000D01*
X17110400Y-14205000D02*
X17110400Y-14245000D01*
X17090400Y-14225000D02*
X17130400Y-14225000D01*
X17110400Y-14555000D02*
X17110400Y-14595000D01*
X17090400Y-14575000D02*
X17130400Y-14575000D01*
X17110400Y-14905000D02*
X17110400Y-14945000D01*
X17090400Y-14925000D02*
X17130400Y-14925000D01*
X17110400Y-15255000D02*
X17110400Y-15295000D01*
X17090400Y-15275000D02*
X17130400Y-15275000D01*
X17110400Y-15605000D02*
X17110400Y-15645000D01*
X17090400Y-15625000D02*
X17130400Y-15625000D01*
X17110400Y-15955000D02*
X17110400Y-15995000D01*
X17090400Y-15975000D02*
X17130400Y-15975000D01*
X17460400Y-8255000D02*
X17460400Y-8295000D01*
X17440400Y-8275000D02*
X17480400Y-8275000D01*
X17460400Y-8605000D02*
X17460400Y-8645000D01*
X17440400Y-8625000D02*
X17480400Y-8625000D01*
X17460400Y-8955000D02*
X17460400Y-8995000D01*
X17440400Y-8975000D02*
X17480400Y-8975000D01*
X17460400Y-9305000D02*
X17460400Y-9345000D01*
X17440400Y-9325000D02*
X17480400Y-9325000D01*
X17460400Y-10355000D02*
X17460400Y-10395000D01*
X17440400Y-10375000D02*
X17480400Y-10375000D01*
X17460400Y-10705000D02*
X17460400Y-10745000D01*
X17440400Y-10725000D02*
X17480400Y-10725000D01*
X17460400Y-11055000D02*
X17460400Y-11095000D01*
X17440400Y-11075000D02*
X17480400Y-11075000D01*
X17460400Y-11405000D02*
X17460400Y-11445000D01*
X17440400Y-11425000D02*
X17480400Y-11425000D01*
X17460400Y-11755000D02*
X17460400Y-11795000D01*
X17440400Y-11775000D02*
X17480400Y-11775000D01*
X17460400Y-12455000D02*
X17460400Y-12495000D01*
X17440400Y-12475000D02*
X17480400Y-12475000D01*
X17460400Y-12805000D02*
X17460400Y-12845000D01*
X17440400Y-12825000D02*
X17480400Y-12825000D01*
X17460400Y-13155000D02*
X17460400Y-13195000D01*
X17440400Y-13175000D02*
X17480400Y-13175000D01*
X17460400Y-13505000D02*
X17460400Y-13545000D01*
X17440400Y-13525000D02*
X17480400Y-13525000D01*
X17460400Y-15255000D02*
X17460400Y-15295000D01*
X17440400Y-15275000D02*
X17480400Y-15275000D01*
X17460400Y-15605000D02*
X17460400Y-15645000D01*
X17440400Y-15625000D02*
X17480400Y-15625000D01*
X17460400Y-15955000D02*
X17460400Y-15995000D01*
X17440400Y-15975000D02*
X17480400Y-15975000D01*
X17613900Y-14159500D02*
X17613900Y-14199500D01*
X17593900Y-14179500D02*
X17633900Y-14179500D01*
X17810400Y-8255000D02*
X17810400Y-8295000D01*
X17790400Y-8275000D02*
X17830400Y-8275000D01*
X17810400Y-8605000D02*
X17810400Y-8645000D01*
X17790400Y-8625000D02*
X17830400Y-8625000D01*
X17810400Y-8955000D02*
X17810400Y-8995000D01*
X17790400Y-8975000D02*
X17830400Y-8975000D01*
X17810400Y-9305000D02*
X17810400Y-9345000D01*
X17790400Y-9325000D02*
X17830400Y-9325000D01*
X17810400Y-10355000D02*
X17810400Y-10395000D01*
X17790400Y-10375000D02*
X17830400Y-10375000D01*
X17810400Y-10705000D02*
X17810400Y-10745000D01*
X17790400Y-10725000D02*
X17830400Y-10725000D01*
X17810400Y-11055000D02*
X17810400Y-11095000D01*
X17790400Y-11075000D02*
X17830400Y-11075000D01*
X17810400Y-11405000D02*
X17810400Y-11445000D01*
X17790400Y-11425000D02*
X17830400Y-11425000D01*
X17810400Y-11755000D02*
X17810400Y-11795000D01*
X17790400Y-11775000D02*
X17830400Y-11775000D01*
X17810400Y-12455000D02*
X17810400Y-12495000D01*
X17790400Y-12475000D02*
X17830400Y-12475000D01*
X17810400Y-12805000D02*
X17810400Y-12845000D01*
X17790400Y-12825000D02*
X17830400Y-12825000D01*
X17810400Y-13155000D02*
X17810400Y-13195000D01*
X17790400Y-13175000D02*
X17830400Y-13175000D01*
X17810400Y-13505000D02*
X17810400Y-13545000D01*
X17790400Y-13525000D02*
X17830400Y-13525000D01*
X17810400Y-13855000D02*
X17810400Y-13895000D01*
X17790400Y-13875000D02*
X17830400Y-13875000D01*
X17810400Y-14555000D02*
X17810400Y-14595000D01*
X17790400Y-14575000D02*
X17830400Y-14575000D01*
X17810400Y-14905000D02*
X17810400Y-14945000D01*
X17790400Y-14925000D02*
X17830400Y-14925000D01*
X17810400Y-15255000D02*
X17810400Y-15295000D01*
X17790400Y-15275000D02*
X17830400Y-15275000D01*
X17810400Y-15605000D02*
X17810400Y-15645000D01*
X17790400Y-15625000D02*
X17830400Y-15625000D01*
X17810400Y-15955000D02*
X17810400Y-15995000D01*
X17790400Y-15975000D02*
X17830400Y-15975000D01*
X18160400Y-8255000D02*
X18160400Y-8295000D01*
X18140400Y-8275000D02*
X18180400Y-8275000D01*
X18160400Y-8605000D02*
X18160400Y-8645000D01*
X18140400Y-8625000D02*
X18180400Y-8625000D01*
X18160400Y-8955000D02*
X18160400Y-8995000D01*
X18140400Y-8975000D02*
X18180400Y-8975000D01*
X18160400Y-9305000D02*
X18160400Y-9345000D01*
X18140400Y-9325000D02*
X18180400Y-9325000D01*
X18160400Y-12105000D02*
X18160400Y-12145000D01*
X18140400Y-12125000D02*
X18180400Y-12125000D01*
X18160400Y-12455000D02*
X18160400Y-12495000D01*
X18140400Y-12475000D02*
X18180400Y-12475000D01*
X18160400Y-12805000D02*
X18160400Y-12845000D01*
X18140400Y-12825000D02*
X18180400Y-12825000D01*
X18160400Y-13155000D02*
X18160400Y-13195000D01*
X18140400Y-13175000D02*
X18180400Y-13175000D01*
X18160400Y-13505000D02*
X18160400Y-13545000D01*
X18140400Y-13525000D02*
X18180400Y-13525000D01*
X18160400Y-14555000D02*
X18160400Y-14595000D01*
X18140400Y-14575000D02*
X18180400Y-14575000D01*
X18160400Y-15255000D02*
X18160400Y-15295000D01*
X18140400Y-15275000D02*
X18180400Y-15275000D01*
X18160400Y-15605000D02*
X18160400Y-15645000D01*
X18140400Y-15625000D02*
X18180400Y-15625000D01*
X18160400Y-15955000D02*
X18160400Y-15995000D01*
X18140400Y-15975000D02*
X18180400Y-15975000D01*
X18263900Y-14159500D02*
X18263900Y-14199500D01*
X18243900Y-14179500D02*
X18283900Y-14179500D01*
X18450400Y-10227000D02*
X18450400Y-10267000D01*
X18430400Y-10247000D02*
X18470400Y-10247000D01*
X18510400Y-8255000D02*
X18510400Y-8295000D01*
X18490400Y-8275000D02*
X18530400Y-8275000D01*
X18510400Y-8605000D02*
X18510400Y-8645000D01*
X18490400Y-8625000D02*
X18530400Y-8625000D01*
X18510400Y-8955000D02*
X18510400Y-8995000D01*
X18490400Y-8975000D02*
X18530400Y-8975000D01*
X18510400Y-9305000D02*
X18510400Y-9345000D01*
X18490400Y-9325000D02*
X18530400Y-9325000D01*
X18510400Y-9655000D02*
X18510400Y-9695000D01*
X18490400Y-9675000D02*
X18530400Y-9675000D01*
X18510400Y-10005000D02*
X18510400Y-10045000D01*
X18490400Y-10025000D02*
X18530400Y-10025000D01*
X18510400Y-10355000D02*
X18510400Y-10395000D01*
X18490400Y-10375000D02*
X18530400Y-10375000D01*
X18510400Y-10705000D02*
X18510400Y-10745000D01*
X18490400Y-10725000D02*
X18530400Y-10725000D01*
X18510400Y-11055000D02*
X18510400Y-11095000D01*
X18490400Y-11075000D02*
X18530400Y-11075000D01*
X18510400Y-11405000D02*
X18510400Y-11445000D01*
X18490400Y-11425000D02*
X18530400Y-11425000D01*
X18510400Y-11755000D02*
X18510400Y-11795000D01*
X18490400Y-11775000D02*
X18530400Y-11775000D01*
X18510400Y-12105000D02*
X18510400Y-12145000D01*
X18490400Y-12125000D02*
X18530400Y-12125000D01*
X18510400Y-12455000D02*
X18510400Y-12495000D01*
X18490400Y-12475000D02*
X18530400Y-12475000D01*
X18510400Y-12805000D02*
X18510400Y-12845000D01*
X18490400Y-12825000D02*
X18530400Y-12825000D01*
X18510400Y-13155000D02*
X18510400Y-13195000D01*
X18490400Y-13175000D02*
X18530400Y-13175000D01*
X18510400Y-13505000D02*
X18510400Y-13545000D01*
X18490400Y-13525000D02*
X18530400Y-13525000D01*
X18510400Y-14905000D02*
X18510400Y-14945000D01*
X18490400Y-14925000D02*
X18530400Y-14925000D01*
X18510400Y-15255000D02*
X18510400Y-15295000D01*
X18490400Y-15275000D02*
X18530400Y-15275000D01*
X18510400Y-15605000D02*
X18510400Y-15645000D01*
X18490400Y-15625000D02*
X18530400Y-15625000D01*
X18510400Y-15955000D02*
X18510400Y-15995000D01*
X18490400Y-15975000D02*
X18530400Y-15975000D01*
X18860400Y-8255000D02*
X18860400Y-8295000D01*
X18840400Y-8275000D02*
X18880400Y-8275000D01*
X18860400Y-8605000D02*
X18860400Y-8645000D01*
X18840400Y-8625000D02*
X18880400Y-8625000D01*
X18860400Y-8955000D02*
X18860400Y-8995000D01*
X18840400Y-8975000D02*
X18880400Y-8975000D01*
X18860400Y-9305000D02*
X18860400Y-9345000D01*
X18840400Y-9325000D02*
X18880400Y-9325000D01*
X18860400Y-9655000D02*
X18860400Y-9695000D01*
X18840400Y-9675000D02*
X18880400Y-9675000D01*
X18860400Y-10005000D02*
X18860400Y-10045000D01*
X18840400Y-10025000D02*
X18880400Y-10025000D01*
X18860400Y-10355000D02*
X18860400Y-10395000D01*
X18840400Y-10375000D02*
X18880400Y-10375000D01*
X18860400Y-10705000D02*
X18860400Y-10745000D01*
X18840400Y-10725000D02*
X18880400Y-10725000D01*
X18860400Y-11055000D02*
X18860400Y-11095000D01*
X18840400Y-11075000D02*
X18880400Y-11075000D01*
X18860400Y-11405000D02*
X18860400Y-11445000D01*
X18840400Y-11425000D02*
X18880400Y-11425000D01*
X18860400Y-11755000D02*
X18860400Y-11795000D01*
X18840400Y-11775000D02*
X18880400Y-11775000D01*
X18860400Y-12105000D02*
X18860400Y-12145000D01*
X18840400Y-12125000D02*
X18880400Y-12125000D01*
X18860400Y-12455000D02*
X18860400Y-12495000D01*
X18840400Y-12475000D02*
X18880400Y-12475000D01*
X18860400Y-12805000D02*
X18860400Y-12845000D01*
X18840400Y-12825000D02*
X18880400Y-12825000D01*
X18860400Y-13155000D02*
X18860400Y-13195000D01*
X18840400Y-13175000D02*
X18880400Y-13175000D01*
X18860400Y-14905000D02*
X18860400Y-14945000D01*
X18840400Y-14925000D02*
X18880400Y-14925000D01*
X18860400Y-15255000D02*
X18860400Y-15295000D01*
X18840400Y-15275000D02*
X18880400Y-15275000D01*
X18860400Y-15605000D02*
X18860400Y-15645000D01*
X18840400Y-15625000D02*
X18880400Y-15625000D01*
X18860400Y-15955000D02*
X18860400Y-15995000D01*
X18840400Y-15975000D02*
X18880400Y-15975000D01*
X19210400Y-8255000D02*
X19210400Y-8295000D01*
X19190400Y-8275000D02*
X19230400Y-8275000D01*
X19210400Y-8605000D02*
X19210400Y-8645000D01*
X19190400Y-8625000D02*
X19230400Y-8625000D01*
X19210400Y-10705000D02*
X19210400Y-10745000D01*
X19190400Y-10725000D02*
X19230400Y-10725000D01*
X19210400Y-11055000D02*
X19210400Y-11095000D01*
X19190400Y-11075000D02*
X19230400Y-11075000D01*
X19210400Y-11405000D02*
X19210400Y-11445000D01*
X19190400Y-11425000D02*
X19230400Y-11425000D01*
X19210400Y-11755000D02*
X19210400Y-11795000D01*
X19190400Y-11775000D02*
X19230400Y-11775000D01*
X19210400Y-12105000D02*
X19210400Y-12145000D01*
X19190400Y-12125000D02*
X19230400Y-12125000D01*
X19210400Y-12455000D02*
X19210400Y-12495000D01*
X19190400Y-12475000D02*
X19230400Y-12475000D01*
X19210400Y-12805000D02*
X19210400Y-12845000D01*
X19190400Y-12825000D02*
X19230400Y-12825000D01*
X19210400Y-13155000D02*
X19210400Y-13195000D01*
X19190400Y-13175000D02*
X19230400Y-13175000D01*
X19210400Y-13505000D02*
X19210400Y-13545000D01*
X19190400Y-13525000D02*
X19230400Y-13525000D01*
X19210400Y-13855000D02*
X19210400Y-13895000D01*
X19190400Y-13875000D02*
X19230400Y-13875000D01*
X19210400Y-15255000D02*
X19210400Y-15295000D01*
X19190400Y-15275000D02*
X19230400Y-15275000D01*
X19210400Y-15605000D02*
X19210400Y-15645000D01*
X19190400Y-15625000D02*
X19230400Y-15625000D01*
X19210400Y-15955000D02*
X19210400Y-15995000D01*
X19190400Y-15975000D02*
X19230400Y-15975000D01*
X19262900Y-8722000D02*
X19262900Y-8762000D01*
X19242900Y-8742000D02*
X19282900Y-8742000D01*
X19429080Y-10203870D02*
X19429080Y-10243870D01*
X19409080Y-10223870D02*
X19449080Y-10223870D01*
X19462750Y-9608150D02*
X19462750Y-9648150D01*
X19442750Y-9628150D02*
X19482750Y-9628150D01*
X19475400Y-9333500D02*
X19475400Y-9373500D01*
X19455400Y-9353500D02*
X19495400Y-9353500D01*
X19560400Y-8255000D02*
X19560400Y-8295000D01*
X19540400Y-8275000D02*
X19580400Y-8275000D01*
X19560400Y-8605000D02*
X19560400Y-8645000D01*
X19540400Y-8625000D02*
X19580400Y-8625000D01*
X19560400Y-8955000D02*
X19560400Y-8995000D01*
X19540400Y-8975000D02*
X19580400Y-8975000D01*
X19560400Y-9305000D02*
X19560400Y-9345000D01*
X19540400Y-9325000D02*
X19580400Y-9325000D01*
X19560400Y-10705000D02*
X19560400Y-10745000D01*
X19540400Y-10725000D02*
X19580400Y-10725000D01*
X19560400Y-11405000D02*
X19560400Y-11445000D01*
X19540400Y-11425000D02*
X19580400Y-11425000D01*
X19560400Y-11755000D02*
X19560400Y-11795000D01*
X19540400Y-11775000D02*
X19580400Y-11775000D01*
X19560400Y-12805000D02*
X19560400Y-12845000D01*
X19540400Y-12825000D02*
X19580400Y-12825000D01*
X19560400Y-13155000D02*
X19560400Y-13195000D01*
X19540400Y-13175000D02*
X19580400Y-13175000D01*
X19560400Y-13855000D02*
X19560400Y-13895000D01*
X19540400Y-13875000D02*
X19580400Y-13875000D01*
X19560400Y-14205000D02*
X19560400Y-14245000D01*
X19540400Y-14225000D02*
X19580400Y-14225000D01*
X19560400Y-14555000D02*
X19560400Y-14595000D01*
X19540400Y-14575000D02*
X19580400Y-14575000D01*
X19560400Y-15255000D02*
X19560400Y-15295000D01*
X19540400Y-15275000D02*
X19580400Y-15275000D01*
X19560400Y-15605000D02*
X19560400Y-15645000D01*
X19540400Y-15625000D02*
X19580400Y-15625000D01*
X19882900Y-9356500D02*
X19882900Y-9396500D01*
X19862900Y-9376500D02*
X19902900Y-9376500D01*
X19896600Y-9810250D02*
X19896600Y-9850250D01*
X19876600Y-9830250D02*
X19916600Y-9830250D01*
X19910400Y-8255000D02*
X19910400Y-8295000D01*
X19890400Y-8275000D02*
X19930400Y-8275000D01*
X19910400Y-8605000D02*
X19910400Y-8645000D01*
X19890400Y-8625000D02*
X19930400Y-8625000D01*
X19910400Y-11405000D02*
X19910400Y-11445000D01*
X19890400Y-11425000D02*
X19930400Y-11425000D01*
X19910400Y-11755000D02*
X19910400Y-11795000D01*
X19890400Y-11775000D02*
X19930400Y-11775000D01*
X19910400Y-12805000D02*
X19910400Y-12845000D01*
X19890400Y-12825000D02*
X19930400Y-12825000D01*
X19910400Y-13155000D02*
X19910400Y-13195000D01*
X19890400Y-13175000D02*
X19930400Y-13175000D01*
X19910400Y-13855000D02*
X19910400Y-13895000D01*
X19890400Y-13875000D02*
X19930400Y-13875000D01*
X19910400Y-15255000D02*
X19910400Y-15295000D01*
X19890400Y-15275000D02*
X19930400Y-15275000D01*
X19910400Y-15605000D02*
X19910400Y-15645000D01*
X19890400Y-15625000D02*
X19930400Y-15625000D01*
X19910400Y-15955000D02*
X19910400Y-15995000D01*
X19890400Y-15975000D02*
X19930400Y-15975000D01*
X19964900Y-11359500D02*
X19964900Y-11399500D01*
X19944900Y-11379500D02*
X19984900Y-11379500D01*
X19964900Y-12549500D02*
X19964900Y-12589500D01*
X19944900Y-12569500D02*
X19984900Y-12569500D01*
X20153900Y-11278500D02*
X20153900Y-11318500D01*
X20133900Y-11298500D02*
X20173900Y-11298500D01*
X20179800Y-13423500D02*
X20179800Y-13463500D01*
X20159800Y-13443500D02*
X20199800Y-13443500D01*
X20234900Y-12279500D02*
X20234900Y-12319500D01*
X20214900Y-12299500D02*
X20254900Y-12299500D01*
X20260400Y-8605000D02*
X20260400Y-8645000D01*
X20240400Y-8625000D02*
X20280400Y-8625000D01*
X20260400Y-11055000D02*
X20260400Y-11095000D01*
X20240400Y-11075000D02*
X20280400Y-11075000D01*
X20260400Y-11405000D02*
X20260400Y-11445000D01*
X20240400Y-11425000D02*
X20280400Y-11425000D01*
X20260400Y-11755000D02*
X20260400Y-11795000D01*
X20240400Y-11775000D02*
X20280400Y-11775000D01*
X20260400Y-12105000D02*
X20260400Y-12145000D01*
X20240400Y-12125000D02*
X20280400Y-12125000D01*
X20260400Y-12455000D02*
X20260400Y-12495000D01*
X20240400Y-12475000D02*
X20280400Y-12475000D01*
X20260400Y-12805000D02*
X20260400Y-12845000D01*
X20240400Y-12825000D02*
X20280400Y-12825000D01*
X20260400Y-13155000D02*
X20260400Y-13195000D01*
X20240400Y-13175000D02*
X20280400Y-13175000D01*
X20260400Y-13505000D02*
X20260400Y-13545000D01*
X20240400Y-13525000D02*
X20280400Y-13525000D01*
X20260400Y-13855000D02*
X20260400Y-13895000D01*
X20240400Y-13875000D02*
X20280400Y-13875000D01*
X20260400Y-14205000D02*
X20260400Y-14245000D01*
X20240400Y-14225000D02*
X20280400Y-14225000D01*
X20260400Y-14555000D02*
X20260400Y-14595000D01*
X20240400Y-14575000D02*
X20280400Y-14575000D01*
X20260400Y-15605000D02*
X20260400Y-15645000D01*
X20240400Y-15625000D02*
X20280400Y-15625000D01*
X20451900Y-15094500D02*
X20451900Y-15134500D01*
X20431900Y-15114500D02*
X20471900Y-15114500D01*
X20470900Y-9074500D02*
X20470900Y-9114500D01*
X20450900Y-9094500D02*
X20490900Y-9094500D01*
X12069713Y-9775713D02*
X12069713Y-9733287D01*
X12027287Y-9733287D01*
X12027287Y-9775713D01*
X12069713Y-9775713D01*
X12199713Y-9275713D02*
X12199713Y-9233287D01*
X12157287Y-9233287D01*
X12157287Y-9275713D01*
X12199713Y-9275713D01*
X17438780Y-14818500D02*
X17478780Y-14778500D01*
X17438780Y-14738500D01*
X17398780Y-14778500D01*
X17438780Y-14818500D01*
X17688780Y-14818500D02*
X17728780Y-14778500D01*
X17688780Y-14738500D01*
X17648780Y-14778500D01*
X17688780Y-14818500D01*
X19247900Y-14269500D02*
X19287900Y-14229500D01*
X19247900Y-14189500D01*
X19207900Y-14229500D01*
X19247900Y-14269500D01*
X19247900Y-14523500D02*
X19287900Y-14483500D01*
X19247900Y-14443500D01*
X19207900Y-14483500D01*
X19247900Y-14523500D01*
X20009900Y-14269500D02*
X20049900Y-14229500D01*
X20009900Y-14189500D01*
X19969900Y-14229500D01*
X20009900Y-14269500D01*
X20009900Y-14523500D02*
X20049900Y-14483500D01*
X20009900Y-14443500D01*
X19969900Y-14483500D01*
X20009900Y-14523500D01*
X19477900Y-14921500D02*
X19567900Y-15011500D01*
X19567900Y-14921500D02*
X19477900Y-15011500D01*
X19567900Y-14966500D02*
G75*
G02*
X19477900Y-14966500I-45000J0D01*
G01*
X19477900Y-14966500D02*
G75*
G02*
X19567900Y-14966500I45000J0D01*
G01*
X19731900Y-14921500D02*
X19821900Y-15011500D01*
X19821900Y-14921500D02*
X19731900Y-15011500D01*
X19821900Y-14966500D02*
G75*
G02*
X19731900Y-14966500I-45000J0D01*
G01*
X19731900Y-14966500D02*
G75*
G02*
X19821900Y-14966500I45000J0D01*
G01*
X20176900Y-14815500D02*
X20266900Y-14905500D01*
X20266900Y-14815500D02*
X20176900Y-14905500D01*
X20266900Y-14860500D02*
G75*
G02*
X20176900Y-14860500I-45000J0D01*
G01*
X20176900Y-14860500D02*
G75*
G02*
X20266900Y-14860500I45000J0D01*
G01*
X20176900Y-15069500D02*
X20266900Y-15159500D01*
X20266900Y-15069500D02*
X20176900Y-15159500D01*
X20266900Y-15114500D02*
G75*
G02*
X20176900Y-15114500I-45000J0D01*
G01*
X20176900Y-15114500D02*
G75*
G02*
X20266900Y-15114500I45000J0D01*
G01*
X13255900Y-12818500D02*
X13355900Y-12918500D01*
X13355900Y-12818500D02*
X13255900Y-12918500D01*
X13305900Y-12818500D02*
X13305900Y-12918500D01*
X13255900Y-12868500D02*
X13355900Y-12868500D01*
X13255900Y-14018500D02*
X13355900Y-14118500D01*
X13355900Y-14018500D02*
X13255900Y-14118500D01*
X13305900Y-14018500D02*
X13305900Y-14118500D01*
X13255900Y-14068500D02*
X13355900Y-14068500D01*
X13305900Y-9190500D02*
X13405900Y-9290500D01*
X13405900Y-9190500D02*
X13305900Y-9290500D01*
X13355900Y-9190500D02*
X13355900Y-9290500D01*
X13305900Y-9240500D02*
X13405900Y-9240500D01*
X13805900Y-12098500D02*
X13905900Y-12198500D01*
X13905900Y-12098500D02*
X13805900Y-12198500D01*
X13855900Y-12098500D02*
X13855900Y-12198500D01*
X13805900Y-12148500D02*
X13905900Y-12148500D01*
X14305900Y-12098500D02*
X14405900Y-12198500D01*
X14405900Y-12098500D02*
X14305900Y-12198500D01*
X14355900Y-12098500D02*
X14355900Y-12198500D01*
X14305900Y-12148500D02*
X14405900Y-12148500D01*
X14805900Y-9190500D02*
X14905900Y-9290500D01*
X14905900Y-9190500D02*
X14805900Y-9290500D01*
X14855900Y-9190500D02*
X14855900Y-9290500D01*
X14805900Y-9240500D02*
X14905900Y-9240500D01*
X15201900Y-12795500D02*
X15301900Y-12895500D01*
X15301900Y-12795500D02*
X15201900Y-12895500D01*
X15251900Y-12795500D02*
X15251900Y-12895500D01*
X15201900Y-12845500D02*
X15301900Y-12845500D01*
X15201900Y-13049500D02*
X15301900Y-13149500D01*
X15301900Y-13049500D02*
X15201900Y-13149500D01*
X15251900Y-13049500D02*
X15251900Y-13149500D01*
X15201900Y-13099500D02*
X15301900Y-13099500D01*
X15201900Y-13303500D02*
X15301900Y-13403500D01*
X15301900Y-13303500D02*
X15201900Y-13403500D01*
X15251900Y-13303500D02*
X15251900Y-13403500D01*
X15201900Y-13353500D02*
X15301900Y-13353500D01*
X15840020Y-14254500D02*
X15940020Y-14354500D01*
X15940020Y-14254500D02*
X15840020Y-14354500D01*
X15890020Y-14254500D02*
X15890020Y-14354500D01*
X15840020Y-14304500D02*
X15940020Y-14304500D01*
X16840020Y-14254500D02*
X16940020Y-14354500D01*
X16940020Y-14254500D02*
X16840020Y-14354500D01*
X16890020Y-14254500D02*
X16890020Y-14354500D01*
X16840020Y-14304500D02*
X16940020Y-14304500D01*
X19389780Y-13393500D02*
X19489780Y-13493500D01*
X19489780Y-13393500D02*
X19389780Y-13493500D01*
X19439780Y-13393500D02*
X19439780Y-13493500D01*
X19389780Y-13443500D02*
X19489780Y-13443500D01*
X19889780Y-13393500D02*
X19989780Y-13493500D01*
X19989780Y-13393500D02*
X19889780Y-13493500D01*
X19939780Y-13393500D02*
X19939780Y-13493500D01*
X19889780Y-13443500D02*
X19989780Y-13443500D01*
D12*
X10867000Y-9202000D02*
X10972000Y-9307000D01*
X10972000Y-9202000D02*
X10867000Y-9307000D01*
X10956624Y-9291624D02*
X10956624Y-9217377D01*
X10882377Y-9217377D01*
X10882377Y-9291624D01*
X10956624Y-9291624D01*
X10867000Y-9702000D02*
X10972000Y-9807000D01*
X10972000Y-9702000D02*
X10867000Y-9807000D01*
X10956624Y-9791624D02*
X10956624Y-9717377D01*
X10882377Y-9717377D01*
X10882377Y-9791624D01*
X10956624Y-9791624D01*
X10867000Y-10702000D02*
X10972000Y-10807000D01*
X10972000Y-10702000D02*
X10867000Y-10807000D01*
X10956624Y-10791624D02*
X10956624Y-10717377D01*
X10882377Y-10717377D01*
X10882377Y-10791624D01*
X10956624Y-10791624D01*
X10867000Y-11202000D02*
X10972000Y-11307000D01*
X10972000Y-11202000D02*
X10867000Y-11307000D01*
X10956624Y-11291623D02*
X10956624Y-11217376D01*
X10882377Y-11217376D01*
X10882377Y-11291623D01*
X10956624Y-11291623D01*
D13*
X17318900Y-13674500D02*
X17428900Y-13784500D01*
X17428900Y-13674500D02*
X17318900Y-13784500D01*
X17373900Y-13784500D02*
X17428900Y-13729500D01*
X17373900Y-13674500D01*
X17318900Y-13729500D01*
X17373900Y-13784500D01*
X17318900Y-14124500D02*
X17428900Y-14234500D01*
X17428900Y-14124500D02*
X17318900Y-14234500D01*
X17373900Y-14234500D02*
X17428900Y-14179500D01*
X17373900Y-14124500D01*
X17318900Y-14179500D01*
X17373900Y-14234500D01*
X17968900Y-13674500D02*
X18078900Y-13784500D01*
X18078900Y-13674500D02*
X17968900Y-13784500D01*
X18023900Y-13784500D02*
X18078900Y-13729500D01*
X18023900Y-13674500D01*
X17968900Y-13729500D01*
X18023900Y-13784500D01*
X17968900Y-14124500D02*
X18078900Y-14234500D01*
X18078900Y-14124500D02*
X17968900Y-14234500D01*
X18023900Y-14234500D02*
X18078900Y-14179500D01*
X18023900Y-14124500D01*
X17968900Y-14179500D01*
X18023900Y-14234500D01*
X18092900Y-14850500D02*
X18202900Y-14960500D01*
X18202900Y-14850500D02*
X18092900Y-14960500D01*
X18147900Y-14960500D02*
X18202900Y-14905500D01*
X18147900Y-14850500D01*
X18092900Y-14905500D01*
X18147900Y-14960500D01*
X18377900Y-13674500D02*
X18487900Y-13784500D01*
X18487900Y-13674500D02*
X18377900Y-13784500D01*
X18432900Y-13784500D02*
X18487900Y-13729500D01*
X18432900Y-13674500D01*
X18377900Y-13729500D01*
X18432900Y-13784500D01*
X18377900Y-14324500D02*
X18487900Y-14434500D01*
X18487900Y-14324500D02*
X18377900Y-14434500D01*
X18432900Y-14434500D02*
X18487900Y-14379500D01*
X18432900Y-14324500D01*
X18377900Y-14379500D01*
X18432900Y-14434500D01*
X18827900Y-13674500D02*
X18937900Y-13784500D01*
X18937900Y-13674500D02*
X18827900Y-13784500D01*
X18882900Y-13784500D02*
X18937900Y-13729500D01*
X18882900Y-13674500D01*
X18827900Y-13729500D01*
X18882900Y-13784500D01*
X18827900Y-14324500D02*
X18937900Y-14434500D01*
X18937900Y-14324500D02*
X18827900Y-14434500D01*
X18882900Y-14434500D02*
X18937900Y-14379500D01*
X18882900Y-14324500D01*
X18827900Y-14379500D01*
X18882900Y-14434500D01*
X19108900Y-14850500D02*
X19218900Y-14960500D01*
X19218900Y-14850500D02*
X19108900Y-14960500D01*
X19163900Y-14960500D02*
X19218900Y-14905500D01*
X19163900Y-14850500D01*
X19108900Y-14905500D01*
X19163900Y-14960500D01*
D14*
X13110900Y-13398500D02*
X13110900Y-13528500D01*
X13045900Y-13463500D02*
X13175900Y-13463500D01*
X13175900Y-13463500D02*
G75*
G02*
X13045900Y-13463500I-65000J0D01*
G01*
X13045900Y-13463500D02*
G75*
G02*
X13175900Y-13463500I65000J0D01*
G01*
X13255900Y-14873500D02*
X13255900Y-15003500D01*
X13190900Y-14938500D02*
X13320900Y-14938500D01*
X13320900Y-14938500D02*
G75*
G02*
X13190900Y-14938500I-65000J0D01*
G01*
X13190900Y-14938500D02*
G75*
G02*
X13320900Y-14938500I65000J0D01*
G01*
X13755900Y-14873500D02*
X13755900Y-15003500D01*
X13690900Y-14938500D02*
X13820900Y-14938500D01*
X13820900Y-14938500D02*
G75*
G02*
X13690900Y-14938500I-65000J0D01*
G01*
X13690900Y-14938500D02*
G75*
G02*
X13820900Y-14938500I65000J0D01*
G01*
X14255900Y-14873500D02*
X14255900Y-15003500D01*
X14190900Y-14938500D02*
X14320900Y-14938500D01*
X14320900Y-14938500D02*
G75*
G02*
X14190900Y-14938500I-65000J0D01*
G01*
X14190900Y-14938500D02*
G75*
G02*
X14320900Y-14938500I65000J0D01*
G01*
X14525900Y-14003500D02*
X14525900Y-14133500D01*
X14460900Y-14068500D02*
X14590900Y-14068500D01*
X14590900Y-14068500D02*
G75*
G02*
X14460900Y-14068500I-65000J0D01*
G01*
X14460900Y-14068500D02*
G75*
G02*
X14590900Y-14068500I65000J0D01*
G01*
X14530900Y-12798500D02*
X14530900Y-12928500D01*
X14465900Y-12863500D02*
X14595900Y-12863500D01*
X14595900Y-12863500D02*
G75*
G02*
X14465900Y-12863500I-65000J0D01*
G01*
X14465900Y-12863500D02*
G75*
G02*
X14595900Y-12863500I65000J0D01*
G01*
X19464900Y-11044500D02*
X19464900Y-11174500D01*
X19399900Y-11109500D02*
X19529900Y-11109500D01*
X19529900Y-11109500D02*
G75*
G02*
X19399900Y-11109500I-65000J0D01*
G01*
X19399900Y-11109500D02*
G75*
G02*
X19529900Y-11109500I65000J0D01*
G01*
X19464900Y-12234500D02*
X19464900Y-12364500D01*
X19399900Y-12299500D02*
X19529900Y-12299500D01*
X19529900Y-12299500D02*
G75*
G02*
X19399900Y-12299500I-65000J0D01*
G01*
X19399900Y-12299500D02*
G75*
G02*
X19529900Y-12299500I65000J0D01*
G01*
X19735900Y-9064500D02*
X19735900Y-9194500D01*
X19670900Y-9129500D02*
X19800900Y-9129500D01*
X19800900Y-9129500D02*
G75*
G02*
X19670900Y-9129500I-65000J0D01*
G01*
X19670900Y-9129500D02*
G75*
G02*
X19800900Y-9129500I65000J0D01*
G01*
X19735900Y-9564500D02*
X19735900Y-9694500D01*
X19670900Y-9629500D02*
X19800900Y-9629500D01*
X19800900Y-9629500D02*
G75*
G02*
X19670900Y-9629500I-65000J0D01*
G01*
X19670900Y-9629500D02*
G75*
G02*
X19800900Y-9629500I65000J0D01*
G01*
X19735900Y-10064500D02*
X19735900Y-10194500D01*
X19670900Y-10129500D02*
X19800900Y-10129500D01*
X19800900Y-10129500D02*
G75*
G02*
X19670900Y-10129500I-65000J0D01*
G01*
X19670900Y-10129500D02*
G75*
G02*
X19800900Y-10129500I65000J0D01*
G01*
X19964900Y-11044500D02*
X19964900Y-11174500D01*
X19899900Y-11109500D02*
X20029900Y-11109500D01*
X20029900Y-11109500D02*
G75*
G02*
X19899900Y-11109500I-65000J0D01*
G01*
X19899900Y-11109500D02*
G75*
G02*
X20029900Y-11109500I65000J0D01*
G01*
X19964900Y-12234500D02*
X19964900Y-12364500D01*
X19899900Y-12299500D02*
X20029900Y-12299500D01*
X20029900Y-12299500D02*
G75*
G02*
X19899900Y-12299500I-65000J0D01*
G01*
X19899900Y-12299500D02*
G75*
G02*
X20029900Y-12299500I65000J0D01*
G01*
D11*
X10255777Y-16636484D02*
X10255777Y-16436484D01*
X10255777Y-16436484D02*
X10303396Y-16436484D01*
X10303396Y-16436484D02*
X10331967Y-16446008D01*
X10331967Y-16446008D02*
X10351015Y-16465055D01*
X10351015Y-16465055D02*
X10360539Y-16484103D01*
X10360539Y-16484103D02*
X10370063Y-16522198D01*
X10370063Y-16522198D02*
X10370063Y-16550769D01*
X10370063Y-16550769D02*
X10360539Y-16588865D01*
X10360539Y-16588865D02*
X10351015Y-16607912D01*
X10351015Y-16607912D02*
X10331967Y-16626960D01*
X10331967Y-16626960D02*
X10303396Y-16636484D01*
X10303396Y-16636484D02*
X10255777Y-16636484D01*
X10455777Y-16636484D02*
X10455777Y-16503150D01*
X10455777Y-16541246D02*
X10465301Y-16522198D01*
X10465301Y-16522198D02*
X10474824Y-16512674D01*
X10474824Y-16512674D02*
X10493872Y-16503150D01*
X10493872Y-16503150D02*
X10512920Y-16503150D01*
X10579586Y-16636484D02*
X10579586Y-16503150D01*
X10579586Y-16436484D02*
X10570063Y-16446008D01*
X10570063Y-16446008D02*
X10579586Y-16455531D01*
X10579586Y-16455531D02*
X10589110Y-16446008D01*
X10589110Y-16446008D02*
X10579586Y-16436484D01*
X10579586Y-16436484D02*
X10579586Y-16455531D01*
X10703396Y-16636484D02*
X10684348Y-16626960D01*
X10684348Y-16626960D02*
X10674824Y-16607912D01*
X10674824Y-16607912D02*
X10674824Y-16436484D01*
X10808158Y-16636484D02*
X10789110Y-16626960D01*
X10789110Y-16626960D02*
X10779586Y-16607912D01*
X10779586Y-16607912D02*
X10779586Y-16436484D01*
X11036729Y-16636484D02*
X11036729Y-16436484D01*
X11036729Y-16436484D02*
X11103396Y-16579341D01*
X11103396Y-16579341D02*
X11170063Y-16436484D01*
X11170063Y-16436484D02*
X11170063Y-16636484D01*
X11351015Y-16636484D02*
X11351015Y-16531722D01*
X11351015Y-16531722D02*
X11341491Y-16512674D01*
X11341491Y-16512674D02*
X11322443Y-16503150D01*
X11322443Y-16503150D02*
X11284348Y-16503150D01*
X11284348Y-16503150D02*
X11265301Y-16512674D01*
X11351015Y-16626960D02*
X11331967Y-16636484D01*
X11331967Y-16636484D02*
X11284348Y-16636484D01*
X11284348Y-16636484D02*
X11265301Y-16626960D01*
X11265301Y-16626960D02*
X11255777Y-16607912D01*
X11255777Y-16607912D02*
X11255777Y-16588865D01*
X11255777Y-16588865D02*
X11265301Y-16569817D01*
X11265301Y-16569817D02*
X11284348Y-16560293D01*
X11284348Y-16560293D02*
X11331967Y-16560293D01*
X11331967Y-16560293D02*
X11351015Y-16550769D01*
X11446253Y-16503150D02*
X11446253Y-16703150D01*
X11446253Y-16512674D02*
X11465301Y-16503150D01*
X11465301Y-16503150D02*
X11503396Y-16503150D01*
X11503396Y-16503150D02*
X11522443Y-16512674D01*
X11522443Y-16512674D02*
X11531967Y-16522198D01*
X11531967Y-16522198D02*
X11541491Y-16541246D01*
X11541491Y-16541246D02*
X11541491Y-16598388D01*
X11541491Y-16598388D02*
X11531967Y-16617436D01*
X11531967Y-16617436D02*
X11522443Y-16626960D01*
X11522443Y-16626960D02*
X11503396Y-16636484D01*
X11503396Y-16636484D02*
X11465301Y-16636484D01*
X11465301Y-16636484D02*
X11446253Y-16626960D01*
X11627205Y-16617436D02*
X11636729Y-16626960D01*
X11636729Y-16626960D02*
X11627205Y-16636484D01*
X11627205Y-16636484D02*
X11617682Y-16626960D01*
X11617682Y-16626960D02*
X11627205Y-16617436D01*
X11627205Y-16617436D02*
X11627205Y-16636484D01*
X11627205Y-16512674D02*
X11636729Y-16522198D01*
X11636729Y-16522198D02*
X11627205Y-16531722D01*
X11627205Y-16531722D02*
X11617682Y-16522198D01*
X11617682Y-16522198D02*
X11627205Y-16512674D01*
X11627205Y-16512674D02*
X11627205Y-16531722D01*
D10*
X9975000Y-16955000D02*
X9995000Y-16975000D01*
X9995000Y-16955000D02*
X9975000Y-16975000D01*
D11*
X10293872Y-16856484D02*
X10312920Y-16856484D01*
X10312920Y-16856484D02*
X10331967Y-16866008D01*
X10331967Y-16866008D02*
X10341491Y-16875531D01*
X10341491Y-16875531D02*
X10351015Y-16894579D01*
X10351015Y-16894579D02*
X10360539Y-16932674D01*
X10360539Y-16932674D02*
X10360539Y-16980293D01*
X10360539Y-16980293D02*
X10351015Y-17018389D01*
X10351015Y-17018389D02*
X10341491Y-17037436D01*
X10341491Y-17037436D02*
X10331967Y-17046960D01*
X10331967Y-17046960D02*
X10312920Y-17056484D01*
X10312920Y-17056484D02*
X10293872Y-17056484D01*
X10293872Y-17056484D02*
X10274824Y-17046960D01*
X10274824Y-17046960D02*
X10265301Y-17037436D01*
X10265301Y-17037436D02*
X10255777Y-17018389D01*
X10255777Y-17018389D02*
X10246253Y-16980293D01*
X10246253Y-16980293D02*
X10246253Y-16932674D01*
X10246253Y-16932674D02*
X10255777Y-16894579D01*
X10255777Y-16894579D02*
X10265301Y-16875531D01*
X10265301Y-16875531D02*
X10274824Y-16866008D01*
X10274824Y-16866008D02*
X10293872Y-16856484D01*
X10446253Y-17037436D02*
X10455777Y-17046960D01*
X10455777Y-17046960D02*
X10446253Y-17056484D01*
X10446253Y-17056484D02*
X10436729Y-17046960D01*
X10436729Y-17046960D02*
X10446253Y-17037436D01*
X10446253Y-17037436D02*
X10446253Y-17056484D01*
X10531967Y-16875531D02*
X10541491Y-16866008D01*
X10541491Y-16866008D02*
X10560539Y-16856484D01*
X10560539Y-16856484D02*
X10608158Y-16856484D01*
X10608158Y-16856484D02*
X10627205Y-16866008D01*
X10627205Y-16866008D02*
X10636729Y-16875531D01*
X10636729Y-16875531D02*
X10646253Y-16894579D01*
X10646253Y-16894579D02*
X10646253Y-16913627D01*
X10646253Y-16913627D02*
X10636729Y-16942198D01*
X10636729Y-16942198D02*
X10522444Y-17056484D01*
X10522444Y-17056484D02*
X10646253Y-17056484D01*
X10770063Y-16856484D02*
X10789110Y-16856484D01*
X10789110Y-16856484D02*
X10808158Y-16866008D01*
X10808158Y-16866008D02*
X10817682Y-16875531D01*
X10817682Y-16875531D02*
X10827205Y-16894579D01*
X10827205Y-16894579D02*
X10836729Y-16932674D01*
X10836729Y-16932674D02*
X10836729Y-16980293D01*
X10836729Y-16980293D02*
X10827205Y-17018389D01*
X10827205Y-17018389D02*
X10817682Y-17037436D01*
X10817682Y-17037436D02*
X10808158Y-17046960D01*
X10808158Y-17046960D02*
X10789110Y-17056484D01*
X10789110Y-17056484D02*
X10770063Y-17056484D01*
X10770063Y-17056484D02*
X10751015Y-17046960D01*
X10751015Y-17046960D02*
X10741491Y-17037436D01*
X10741491Y-17037436D02*
X10731967Y-17018389D01*
X10731967Y-17018389D02*
X10722444Y-16980293D01*
X10722444Y-16980293D02*
X10722444Y-16932674D01*
X10722444Y-16932674D02*
X10731967Y-16894579D01*
X10731967Y-16894579D02*
X10741491Y-16875531D01*
X10741491Y-16875531D02*
X10751015Y-16866008D01*
X10751015Y-16866008D02*
X10770063Y-16856484D01*
X10960539Y-16856484D02*
X10979586Y-16856484D01*
X10979586Y-16856484D02*
X10998634Y-16866008D01*
X10998634Y-16866008D02*
X11008158Y-16875531D01*
X11008158Y-16875531D02*
X11017682Y-16894579D01*
X11017682Y-16894579D02*
X11027205Y-16932674D01*
X11027205Y-16932674D02*
X11027205Y-16980293D01*
X11027205Y-16980293D02*
X11017682Y-17018389D01*
X11017682Y-17018389D02*
X11008158Y-17037436D01*
X11008158Y-17037436D02*
X10998634Y-17046960D01*
X10998634Y-17046960D02*
X10979586Y-17056484D01*
X10979586Y-17056484D02*
X10960539Y-17056484D01*
X10960539Y-17056484D02*
X10941491Y-17046960D01*
X10941491Y-17046960D02*
X10931967Y-17037436D01*
X10931967Y-17037436D02*
X10922444Y-17018389D01*
X10922444Y-17018389D02*
X10912920Y-16980293D01*
X10912920Y-16980293D02*
X10912920Y-16932674D01*
X10912920Y-16932674D02*
X10922444Y-16894579D01*
X10922444Y-16894579D02*
X10931967Y-16875531D01*
X10931967Y-16875531D02*
X10941491Y-16866008D01*
X10941491Y-16866008D02*
X10960539Y-16856484D01*
X11112920Y-17056484D02*
X11112920Y-16923150D01*
X11112920Y-16942198D02*
X11122444Y-16932674D01*
X11122444Y-16932674D02*
X11141491Y-16923150D01*
X11141491Y-16923150D02*
X11170063Y-16923150D01*
X11170063Y-16923150D02*
X11189110Y-16932674D01*
X11189110Y-16932674D02*
X11198634Y-16951722D01*
X11198634Y-16951722D02*
X11198634Y-17056484D01*
X11198634Y-16951722D02*
X11208158Y-16932674D01*
X11208158Y-16932674D02*
X11227205Y-16923150D01*
X11227205Y-16923150D02*
X11255777Y-16923150D01*
X11255777Y-16923150D02*
X11274824Y-16932674D01*
X11274824Y-16932674D02*
X11284348Y-16951722D01*
X11284348Y-16951722D02*
X11284348Y-17056484D01*
X11379586Y-17056484D02*
X11379586Y-16923150D01*
X11379586Y-16942198D02*
X11389110Y-16932674D01*
X11389110Y-16932674D02*
X11408158Y-16923150D01*
X11408158Y-16923150D02*
X11436729Y-16923150D01*
X11436729Y-16923150D02*
X11455777Y-16932674D01*
X11455777Y-16932674D02*
X11465301Y-16951722D01*
X11465301Y-16951722D02*
X11465301Y-17056484D01*
X11465301Y-16951722D02*
X11474824Y-16932674D01*
X11474824Y-16932674D02*
X11493872Y-16923150D01*
X11493872Y-16923150D02*
X11522443Y-16923150D01*
X11522443Y-16923150D02*
X11541491Y-16932674D01*
X11541491Y-16932674D02*
X11551015Y-16951722D01*
X11551015Y-16951722D02*
X11551015Y-17056484D01*
X11941491Y-16846960D02*
X11770063Y-17104103D01*
X12198634Y-16856484D02*
X12217682Y-16856484D01*
X12217682Y-16856484D02*
X12236729Y-16866008D01*
X12236729Y-16866008D02*
X12246253Y-16875531D01*
X12246253Y-16875531D02*
X12255777Y-16894579D01*
X12255777Y-16894579D02*
X12265301Y-16932674D01*
X12265301Y-16932674D02*
X12265301Y-16980293D01*
X12265301Y-16980293D02*
X12255777Y-17018389D01*
X12255777Y-17018389D02*
X12246253Y-17037436D01*
X12246253Y-17037436D02*
X12236729Y-17046960D01*
X12236729Y-17046960D02*
X12217682Y-17056484D01*
X12217682Y-17056484D02*
X12198634Y-17056484D01*
X12198634Y-17056484D02*
X12179586Y-17046960D01*
X12179586Y-17046960D02*
X12170063Y-17037436D01*
X12170063Y-17037436D02*
X12160539Y-17018389D01*
X12160539Y-17018389D02*
X12151015Y-16980293D01*
X12151015Y-16980293D02*
X12151015Y-16932674D01*
X12151015Y-16932674D02*
X12160539Y-16894579D01*
X12160539Y-16894579D02*
X12170063Y-16875531D01*
X12170063Y-16875531D02*
X12179586Y-16866008D01*
X12179586Y-16866008D02*
X12198634Y-16856484D01*
X12351015Y-17037436D02*
X12360539Y-17046960D01*
X12360539Y-17046960D02*
X12351015Y-17056484D01*
X12351015Y-17056484D02*
X12341491Y-17046960D01*
X12341491Y-17046960D02*
X12351015Y-17037436D01*
X12351015Y-17037436D02*
X12351015Y-17056484D01*
X12484348Y-16856484D02*
X12503396Y-16856484D01*
X12503396Y-16856484D02*
X12522444Y-16866008D01*
X12522444Y-16866008D02*
X12531967Y-16875531D01*
X12531967Y-16875531D02*
X12541491Y-16894579D01*
X12541491Y-16894579D02*
X12551015Y-16932674D01*
X12551015Y-16932674D02*
X12551015Y-16980293D01*
X12551015Y-16980293D02*
X12541491Y-17018389D01*
X12541491Y-17018389D02*
X12531967Y-17037436D01*
X12531967Y-17037436D02*
X12522444Y-17046960D01*
X12522444Y-17046960D02*
X12503396Y-17056484D01*
X12503396Y-17056484D02*
X12484348Y-17056484D01*
X12484348Y-17056484D02*
X12465301Y-17046960D01*
X12465301Y-17046960D02*
X12455777Y-17037436D01*
X12455777Y-17037436D02*
X12446253Y-17018389D01*
X12446253Y-17018389D02*
X12436729Y-16980293D01*
X12436729Y-16980293D02*
X12436729Y-16932674D01*
X12436729Y-16932674D02*
X12446253Y-16894579D01*
X12446253Y-16894579D02*
X12455777Y-16875531D01*
X12455777Y-16875531D02*
X12465301Y-16866008D01*
X12465301Y-16866008D02*
X12484348Y-16856484D01*
X12674825Y-16856484D02*
X12693872Y-16856484D01*
X12693872Y-16856484D02*
X12712920Y-16866008D01*
X12712920Y-16866008D02*
X12722444Y-16875531D01*
X12722444Y-16875531D02*
X12731967Y-16894579D01*
X12731967Y-16894579D02*
X12741491Y-16932674D01*
X12741491Y-16932674D02*
X12741491Y-16980293D01*
X12741491Y-16980293D02*
X12731967Y-17018389D01*
X12731967Y-17018389D02*
X12722444Y-17037436D01*
X12722444Y-17037436D02*
X12712920Y-17046960D01*
X12712920Y-17046960D02*
X12693872Y-17056484D01*
X12693872Y-17056484D02*
X12674825Y-17056484D01*
X12674825Y-17056484D02*
X12655777Y-17046960D01*
X12655777Y-17046960D02*
X12646253Y-17037436D01*
X12646253Y-17037436D02*
X12636729Y-17018389D01*
X12636729Y-17018389D02*
X12627206Y-16980293D01*
X12627206Y-16980293D02*
X12627206Y-16932674D01*
X12627206Y-16932674D02*
X12636729Y-16894579D01*
X12636729Y-16894579D02*
X12646253Y-16875531D01*
X12646253Y-16875531D02*
X12655777Y-16866008D01*
X12655777Y-16866008D02*
X12674825Y-16856484D01*
X12808158Y-16856484D02*
X12941491Y-16856484D01*
X12941491Y-16856484D02*
X12855777Y-17056484D01*
X13027206Y-17056484D02*
X13065301Y-17056484D01*
X13065301Y-17056484D02*
X13084348Y-17046960D01*
X13084348Y-17046960D02*
X13093872Y-17037436D01*
X13093872Y-17037436D02*
X13112920Y-17008865D01*
X13112920Y-17008865D02*
X13122444Y-16970770D01*
X13122444Y-16970770D02*
X13122444Y-16894579D01*
X13122444Y-16894579D02*
X13112920Y-16875531D01*
X13112920Y-16875531D02*
X13103396Y-16866008D01*
X13103396Y-16866008D02*
X13084348Y-16856484D01*
X13084348Y-16856484D02*
X13046253Y-16856484D01*
X13046253Y-16856484D02*
X13027206Y-16866008D01*
X13027206Y-16866008D02*
X13017682Y-16875531D01*
X13017682Y-16875531D02*
X13008158Y-16894579D01*
X13008158Y-16894579D02*
X13008158Y-16942198D01*
X13008158Y-16942198D02*
X13017682Y-16961246D01*
X13017682Y-16961246D02*
X13027206Y-16970770D01*
X13027206Y-16970770D02*
X13046253Y-16980293D01*
X13046253Y-16980293D02*
X13084348Y-16980293D01*
X13084348Y-16980293D02*
X13103396Y-16970770D01*
X13103396Y-16970770D02*
X13112920Y-16961246D01*
X13112920Y-16961246D02*
X13122444Y-16942198D01*
X13198634Y-16856484D02*
X13198634Y-16894579D01*
X13274825Y-16856484D02*
X13274825Y-16894579D01*
X13570063Y-17132674D02*
X13560539Y-17123150D01*
X13560539Y-17123150D02*
X13541491Y-17094579D01*
X13541491Y-17094579D02*
X13531968Y-17075531D01*
X13531968Y-17075531D02*
X13522444Y-17046960D01*
X13522444Y-17046960D02*
X13512920Y-16999341D01*
X13512920Y-16999341D02*
X13512920Y-16961246D01*
X13512920Y-16961246D02*
X13522444Y-16913627D01*
X13522444Y-16913627D02*
X13531968Y-16885055D01*
X13531968Y-16885055D02*
X13541491Y-16866008D01*
X13541491Y-16866008D02*
X13560539Y-16837436D01*
X13560539Y-16837436D02*
X13570063Y-16827912D01*
X13751015Y-17056484D02*
X13636729Y-17056484D01*
X13693872Y-17056484D02*
X13693872Y-16856484D01*
X13693872Y-16856484D02*
X13674825Y-16885055D01*
X13674825Y-16885055D02*
X13655777Y-16904103D01*
X13655777Y-16904103D02*
X13636729Y-16913627D01*
X13827206Y-16875531D02*
X13836729Y-16866008D01*
X13836729Y-16866008D02*
X13855777Y-16856484D01*
X13855777Y-16856484D02*
X13903396Y-16856484D01*
X13903396Y-16856484D02*
X13922444Y-16866008D01*
X13922444Y-16866008D02*
X13931968Y-16875531D01*
X13931968Y-16875531D02*
X13941491Y-16894579D01*
X13941491Y-16894579D02*
X13941491Y-16913627D01*
X13941491Y-16913627D02*
X13931968Y-16942198D01*
X13931968Y-16942198D02*
X13817682Y-17056484D01*
X13817682Y-17056484D02*
X13941491Y-17056484D01*
X14179587Y-17056484D02*
X14179587Y-16856484D01*
X14265301Y-17056484D02*
X14265301Y-16951722D01*
X14265301Y-16951722D02*
X14255777Y-16932674D01*
X14255777Y-16932674D02*
X14236730Y-16923150D01*
X14236730Y-16923150D02*
X14208158Y-16923150D01*
X14208158Y-16923150D02*
X14189110Y-16932674D01*
X14189110Y-16932674D02*
X14179587Y-16942198D01*
X14389110Y-17056484D02*
X14370063Y-17046960D01*
X14370063Y-17046960D02*
X14360539Y-17037436D01*
X14360539Y-17037436D02*
X14351015Y-17018389D01*
X14351015Y-17018389D02*
X14351015Y-16961246D01*
X14351015Y-16961246D02*
X14360539Y-16942198D01*
X14360539Y-16942198D02*
X14370063Y-16932674D01*
X14370063Y-16932674D02*
X14389110Y-16923150D01*
X14389110Y-16923150D02*
X14417682Y-16923150D01*
X14417682Y-16923150D02*
X14436730Y-16932674D01*
X14436730Y-16932674D02*
X14446253Y-16942198D01*
X14446253Y-16942198D02*
X14455777Y-16961246D01*
X14455777Y-16961246D02*
X14455777Y-17018389D01*
X14455777Y-17018389D02*
X14446253Y-17037436D01*
X14446253Y-17037436D02*
X14436730Y-17046960D01*
X14436730Y-17046960D02*
X14417682Y-17056484D01*
X14417682Y-17056484D02*
X14389110Y-17056484D01*
X14570063Y-17056484D02*
X14551015Y-17046960D01*
X14551015Y-17046960D02*
X14541491Y-17027912D01*
X14541491Y-17027912D02*
X14541491Y-16856484D01*
X14722444Y-17046960D02*
X14703396Y-17056484D01*
X14703396Y-17056484D02*
X14665301Y-17056484D01*
X14665301Y-17056484D02*
X14646253Y-17046960D01*
X14646253Y-17046960D02*
X14636730Y-17027912D01*
X14636730Y-17027912D02*
X14636730Y-16951722D01*
X14636730Y-16951722D02*
X14646253Y-16932674D01*
X14646253Y-16932674D02*
X14665301Y-16923150D01*
X14665301Y-16923150D02*
X14703396Y-16923150D01*
X14703396Y-16923150D02*
X14722444Y-16932674D01*
X14722444Y-16932674D02*
X14731968Y-16951722D01*
X14731968Y-16951722D02*
X14731968Y-16970770D01*
X14731968Y-16970770D02*
X14636730Y-16989817D01*
X14808158Y-17046960D02*
X14827206Y-17056484D01*
X14827206Y-17056484D02*
X14865301Y-17056484D01*
X14865301Y-17056484D02*
X14884349Y-17046960D01*
X14884349Y-17046960D02*
X14893872Y-17027912D01*
X14893872Y-17027912D02*
X14893872Y-17018389D01*
X14893872Y-17018389D02*
X14884349Y-16999341D01*
X14884349Y-16999341D02*
X14865301Y-16989817D01*
X14865301Y-16989817D02*
X14836730Y-16989817D01*
X14836730Y-16989817D02*
X14817682Y-16980293D01*
X14817682Y-16980293D02*
X14808158Y-16961246D01*
X14808158Y-16961246D02*
X14808158Y-16951722D01*
X14808158Y-16951722D02*
X14817682Y-16932674D01*
X14817682Y-16932674D02*
X14836730Y-16923150D01*
X14836730Y-16923150D02*
X14865301Y-16923150D01*
X14865301Y-16923150D02*
X14884349Y-16932674D01*
X14960539Y-17132674D02*
X14970063Y-17123150D01*
X14970063Y-17123150D02*
X14989111Y-17094579D01*
X14989111Y-17094579D02*
X14998634Y-17075531D01*
X14998634Y-17075531D02*
X15008158Y-17046960D01*
X15008158Y-17046960D02*
X15017682Y-16999341D01*
X15017682Y-16999341D02*
X15017682Y-16961246D01*
X15017682Y-16961246D02*
X15008158Y-16913627D01*
X15008158Y-16913627D02*
X14998634Y-16885055D01*
X14998634Y-16885055D02*
X14989111Y-16866008D01*
X14989111Y-16866008D02*
X14970063Y-16837436D01*
X14970063Y-16837436D02*
X14960539Y-16827912D01*
D10*
X9995000Y-17229000D02*
G75*
G02*
X9965000Y-17229000I-15000J0D01*
G01*
X9965000Y-17229000D02*
G75*
G02*
X9995000Y-17229000I15000J0D01*
G01*
D11*
X10293872Y-17120484D02*
X10312920Y-17120484D01*
X10312920Y-17120484D02*
X10331967Y-17130008D01*
X10331967Y-17130008D02*
X10341491Y-17139531D01*
X10341491Y-17139531D02*
X10351015Y-17158579D01*
X10351015Y-17158579D02*
X10360539Y-17196674D01*
X10360539Y-17196674D02*
X10360539Y-17244293D01*
X10360539Y-17244293D02*
X10351015Y-17282389D01*
X10351015Y-17282389D02*
X10341491Y-17301436D01*
X10341491Y-17301436D02*
X10331967Y-17310960D01*
X10331967Y-17310960D02*
X10312920Y-17320484D01*
X10312920Y-17320484D02*
X10293872Y-17320484D01*
X10293872Y-17320484D02*
X10274824Y-17310960D01*
X10274824Y-17310960D02*
X10265301Y-17301436D01*
X10265301Y-17301436D02*
X10255777Y-17282389D01*
X10255777Y-17282389D02*
X10246253Y-17244293D01*
X10246253Y-17244293D02*
X10246253Y-17196674D01*
X10246253Y-17196674D02*
X10255777Y-17158579D01*
X10255777Y-17158579D02*
X10265301Y-17139531D01*
X10265301Y-17139531D02*
X10274824Y-17130008D01*
X10274824Y-17130008D02*
X10293872Y-17120484D01*
X10446253Y-17301436D02*
X10455777Y-17310960D01*
X10455777Y-17310960D02*
X10446253Y-17320484D01*
X10446253Y-17320484D02*
X10436729Y-17310960D01*
X10436729Y-17310960D02*
X10446253Y-17301436D01*
X10446253Y-17301436D02*
X10446253Y-17320484D01*
X10522444Y-17120484D02*
X10646253Y-17120484D01*
X10646253Y-17120484D02*
X10579586Y-17196674D01*
X10579586Y-17196674D02*
X10608158Y-17196674D01*
X10608158Y-17196674D02*
X10627205Y-17206198D01*
X10627205Y-17206198D02*
X10636729Y-17215722D01*
X10636729Y-17215722D02*
X10646253Y-17234770D01*
X10646253Y-17234770D02*
X10646253Y-17282389D01*
X10646253Y-17282389D02*
X10636729Y-17301436D01*
X10636729Y-17301436D02*
X10627205Y-17310960D01*
X10627205Y-17310960D02*
X10608158Y-17320484D01*
X10608158Y-17320484D02*
X10551015Y-17320484D01*
X10551015Y-17320484D02*
X10531967Y-17310960D01*
X10531967Y-17310960D02*
X10522444Y-17301436D01*
X10770063Y-17120484D02*
X10789110Y-17120484D01*
X10789110Y-17120484D02*
X10808158Y-17130008D01*
X10808158Y-17130008D02*
X10817682Y-17139531D01*
X10817682Y-17139531D02*
X10827205Y-17158579D01*
X10827205Y-17158579D02*
X10836729Y-17196674D01*
X10836729Y-17196674D02*
X10836729Y-17244293D01*
X10836729Y-17244293D02*
X10827205Y-17282389D01*
X10827205Y-17282389D02*
X10817682Y-17301436D01*
X10817682Y-17301436D02*
X10808158Y-17310960D01*
X10808158Y-17310960D02*
X10789110Y-17320484D01*
X10789110Y-17320484D02*
X10770063Y-17320484D01*
X10770063Y-17320484D02*
X10751015Y-17310960D01*
X10751015Y-17310960D02*
X10741491Y-17301436D01*
X10741491Y-17301436D02*
X10731967Y-17282389D01*
X10731967Y-17282389D02*
X10722444Y-17244293D01*
X10722444Y-17244293D02*
X10722444Y-17196674D01*
X10722444Y-17196674D02*
X10731967Y-17158579D01*
X10731967Y-17158579D02*
X10741491Y-17139531D01*
X10741491Y-17139531D02*
X10751015Y-17130008D01*
X10751015Y-17130008D02*
X10770063Y-17120484D01*
X10960539Y-17120484D02*
X10979586Y-17120484D01*
X10979586Y-17120484D02*
X10998634Y-17130008D01*
X10998634Y-17130008D02*
X11008158Y-17139531D01*
X11008158Y-17139531D02*
X11017682Y-17158579D01*
X11017682Y-17158579D02*
X11027205Y-17196674D01*
X11027205Y-17196674D02*
X11027205Y-17244293D01*
X11027205Y-17244293D02*
X11017682Y-17282389D01*
X11017682Y-17282389D02*
X11008158Y-17301436D01*
X11008158Y-17301436D02*
X10998634Y-17310960D01*
X10998634Y-17310960D02*
X10979586Y-17320484D01*
X10979586Y-17320484D02*
X10960539Y-17320484D01*
X10960539Y-17320484D02*
X10941491Y-17310960D01*
X10941491Y-17310960D02*
X10931967Y-17301436D01*
X10931967Y-17301436D02*
X10922444Y-17282389D01*
X10922444Y-17282389D02*
X10912920Y-17244293D01*
X10912920Y-17244293D02*
X10912920Y-17196674D01*
X10912920Y-17196674D02*
X10922444Y-17158579D01*
X10922444Y-17158579D02*
X10931967Y-17139531D01*
X10931967Y-17139531D02*
X10941491Y-17130008D01*
X10941491Y-17130008D02*
X10960539Y-17120484D01*
X11112920Y-17320484D02*
X11112920Y-17187150D01*
X11112920Y-17206198D02*
X11122444Y-17196674D01*
X11122444Y-17196674D02*
X11141491Y-17187150D01*
X11141491Y-17187150D02*
X11170063Y-17187150D01*
X11170063Y-17187150D02*
X11189110Y-17196674D01*
X11189110Y-17196674D02*
X11198634Y-17215722D01*
X11198634Y-17215722D02*
X11198634Y-17320484D01*
X11198634Y-17215722D02*
X11208158Y-17196674D01*
X11208158Y-17196674D02*
X11227205Y-17187150D01*
X11227205Y-17187150D02*
X11255777Y-17187150D01*
X11255777Y-17187150D02*
X11274824Y-17196674D01*
X11274824Y-17196674D02*
X11284348Y-17215722D01*
X11284348Y-17215722D02*
X11284348Y-17320484D01*
X11379586Y-17320484D02*
X11379586Y-17187150D01*
X11379586Y-17206198D02*
X11389110Y-17196674D01*
X11389110Y-17196674D02*
X11408158Y-17187150D01*
X11408158Y-17187150D02*
X11436729Y-17187150D01*
X11436729Y-17187150D02*
X11455777Y-17196674D01*
X11455777Y-17196674D02*
X11465301Y-17215722D01*
X11465301Y-17215722D02*
X11465301Y-17320484D01*
X11465301Y-17215722D02*
X11474824Y-17196674D01*
X11474824Y-17196674D02*
X11493872Y-17187150D01*
X11493872Y-17187150D02*
X11522443Y-17187150D01*
X11522443Y-17187150D02*
X11541491Y-17196674D01*
X11541491Y-17196674D02*
X11551015Y-17215722D01*
X11551015Y-17215722D02*
X11551015Y-17320484D01*
X11941491Y-17110960D02*
X11770063Y-17368103D01*
X12198634Y-17120484D02*
X12217682Y-17120484D01*
X12217682Y-17120484D02*
X12236729Y-17130008D01*
X12236729Y-17130008D02*
X12246253Y-17139531D01*
X12246253Y-17139531D02*
X12255777Y-17158579D01*
X12255777Y-17158579D02*
X12265301Y-17196674D01*
X12265301Y-17196674D02*
X12265301Y-17244293D01*
X12265301Y-17244293D02*
X12255777Y-17282389D01*
X12255777Y-17282389D02*
X12246253Y-17301436D01*
X12246253Y-17301436D02*
X12236729Y-17310960D01*
X12236729Y-17310960D02*
X12217682Y-17320484D01*
X12217682Y-17320484D02*
X12198634Y-17320484D01*
X12198634Y-17320484D02*
X12179586Y-17310960D01*
X12179586Y-17310960D02*
X12170063Y-17301436D01*
X12170063Y-17301436D02*
X12160539Y-17282389D01*
X12160539Y-17282389D02*
X12151015Y-17244293D01*
X12151015Y-17244293D02*
X12151015Y-17196674D01*
X12151015Y-17196674D02*
X12160539Y-17158579D01*
X12160539Y-17158579D02*
X12170063Y-17139531D01*
X12170063Y-17139531D02*
X12179586Y-17130008D01*
X12179586Y-17130008D02*
X12198634Y-17120484D01*
X12351015Y-17301436D02*
X12360539Y-17310960D01*
X12360539Y-17310960D02*
X12351015Y-17320484D01*
X12351015Y-17320484D02*
X12341491Y-17310960D01*
X12341491Y-17310960D02*
X12351015Y-17301436D01*
X12351015Y-17301436D02*
X12351015Y-17320484D01*
X12484348Y-17120484D02*
X12503396Y-17120484D01*
X12503396Y-17120484D02*
X12522444Y-17130008D01*
X12522444Y-17130008D02*
X12531967Y-17139531D01*
X12531967Y-17139531D02*
X12541491Y-17158579D01*
X12541491Y-17158579D02*
X12551015Y-17196674D01*
X12551015Y-17196674D02*
X12551015Y-17244293D01*
X12551015Y-17244293D02*
X12541491Y-17282389D01*
X12541491Y-17282389D02*
X12531967Y-17301436D01*
X12531967Y-17301436D02*
X12522444Y-17310960D01*
X12522444Y-17310960D02*
X12503396Y-17320484D01*
X12503396Y-17320484D02*
X12484348Y-17320484D01*
X12484348Y-17320484D02*
X12465301Y-17310960D01*
X12465301Y-17310960D02*
X12455777Y-17301436D01*
X12455777Y-17301436D02*
X12446253Y-17282389D01*
X12446253Y-17282389D02*
X12436729Y-17244293D01*
X12436729Y-17244293D02*
X12436729Y-17196674D01*
X12436729Y-17196674D02*
X12446253Y-17158579D01*
X12446253Y-17158579D02*
X12455777Y-17139531D01*
X12455777Y-17139531D02*
X12465301Y-17130008D01*
X12465301Y-17130008D02*
X12484348Y-17120484D01*
X12741491Y-17320484D02*
X12627206Y-17320484D01*
X12684348Y-17320484D02*
X12684348Y-17120484D01*
X12684348Y-17120484D02*
X12665301Y-17149055D01*
X12665301Y-17149055D02*
X12646253Y-17168103D01*
X12646253Y-17168103D02*
X12627206Y-17177627D01*
X12931967Y-17320484D02*
X12817682Y-17320484D01*
X12874825Y-17320484D02*
X12874825Y-17120484D01*
X12874825Y-17120484D02*
X12855777Y-17149055D01*
X12855777Y-17149055D02*
X12836729Y-17168103D01*
X12836729Y-17168103D02*
X12817682Y-17177627D01*
X13046253Y-17206198D02*
X13027206Y-17196674D01*
X13027206Y-17196674D02*
X13017682Y-17187150D01*
X13017682Y-17187150D02*
X13008158Y-17168103D01*
X13008158Y-17168103D02*
X13008158Y-17158579D01*
X13008158Y-17158579D02*
X13017682Y-17139531D01*
X13017682Y-17139531D02*
X13027206Y-17130008D01*
X13027206Y-17130008D02*
X13046253Y-17120484D01*
X13046253Y-17120484D02*
X13084348Y-17120484D01*
X13084348Y-17120484D02*
X13103396Y-17130008D01*
X13103396Y-17130008D02*
X13112920Y-17139531D01*
X13112920Y-17139531D02*
X13122444Y-17158579D01*
X13122444Y-17158579D02*
X13122444Y-17168103D01*
X13122444Y-17168103D02*
X13112920Y-17187150D01*
X13112920Y-17187150D02*
X13103396Y-17196674D01*
X13103396Y-17196674D02*
X13084348Y-17206198D01*
X13084348Y-17206198D02*
X13046253Y-17206198D01*
X13046253Y-17206198D02*
X13027206Y-17215722D01*
X13027206Y-17215722D02*
X13017682Y-17225246D01*
X13017682Y-17225246D02*
X13008158Y-17244293D01*
X13008158Y-17244293D02*
X13008158Y-17282389D01*
X13008158Y-17282389D02*
X13017682Y-17301436D01*
X13017682Y-17301436D02*
X13027206Y-17310960D01*
X13027206Y-17310960D02*
X13046253Y-17320484D01*
X13046253Y-17320484D02*
X13084348Y-17320484D01*
X13084348Y-17320484D02*
X13103396Y-17310960D01*
X13103396Y-17310960D02*
X13112920Y-17301436D01*
X13112920Y-17301436D02*
X13122444Y-17282389D01*
X13122444Y-17282389D02*
X13122444Y-17244293D01*
X13122444Y-17244293D02*
X13112920Y-17225246D01*
X13112920Y-17225246D02*
X13103396Y-17215722D01*
X13103396Y-17215722D02*
X13084348Y-17206198D01*
X13198634Y-17120484D02*
X13198634Y-17158579D01*
X13274825Y-17120484D02*
X13274825Y-17158579D01*
X13570063Y-17396674D02*
X13560539Y-17387150D01*
X13560539Y-17387150D02*
X13541491Y-17358579D01*
X13541491Y-17358579D02*
X13531968Y-17339531D01*
X13531968Y-17339531D02*
X13522444Y-17310960D01*
X13522444Y-17310960D02*
X13512920Y-17263341D01*
X13512920Y-17263341D02*
X13512920Y-17225246D01*
X13512920Y-17225246D02*
X13522444Y-17177627D01*
X13522444Y-17177627D02*
X13531968Y-17149055D01*
X13531968Y-17149055D02*
X13541491Y-17130008D01*
X13541491Y-17130008D02*
X13560539Y-17101436D01*
X13560539Y-17101436D02*
X13570063Y-17091912D01*
X13674825Y-17206198D02*
X13655777Y-17196674D01*
X13655777Y-17196674D02*
X13646253Y-17187150D01*
X13646253Y-17187150D02*
X13636729Y-17168103D01*
X13636729Y-17168103D02*
X13636729Y-17158579D01*
X13636729Y-17158579D02*
X13646253Y-17139531D01*
X13646253Y-17139531D02*
X13655777Y-17130008D01*
X13655777Y-17130008D02*
X13674825Y-17120484D01*
X13674825Y-17120484D02*
X13712920Y-17120484D01*
X13712920Y-17120484D02*
X13731968Y-17130008D01*
X13731968Y-17130008D02*
X13741491Y-17139531D01*
X13741491Y-17139531D02*
X13751015Y-17158579D01*
X13751015Y-17158579D02*
X13751015Y-17168103D01*
X13751015Y-17168103D02*
X13741491Y-17187150D01*
X13741491Y-17187150D02*
X13731968Y-17196674D01*
X13731968Y-17196674D02*
X13712920Y-17206198D01*
X13712920Y-17206198D02*
X13674825Y-17206198D01*
X13674825Y-17206198D02*
X13655777Y-17215722D01*
X13655777Y-17215722D02*
X13646253Y-17225246D01*
X13646253Y-17225246D02*
X13636729Y-17244293D01*
X13636729Y-17244293D02*
X13636729Y-17282389D01*
X13636729Y-17282389D02*
X13646253Y-17301436D01*
X13646253Y-17301436D02*
X13655777Y-17310960D01*
X13655777Y-17310960D02*
X13674825Y-17320484D01*
X13674825Y-17320484D02*
X13712920Y-17320484D01*
X13712920Y-17320484D02*
X13731968Y-17310960D01*
X13731968Y-17310960D02*
X13741491Y-17301436D01*
X13741491Y-17301436D02*
X13751015Y-17282389D01*
X13751015Y-17282389D02*
X13751015Y-17244293D01*
X13751015Y-17244293D02*
X13741491Y-17225246D01*
X13741491Y-17225246D02*
X13731968Y-17215722D01*
X13731968Y-17215722D02*
X13712920Y-17206198D01*
X13989110Y-17320484D02*
X13989110Y-17120484D01*
X14074825Y-17320484D02*
X14074825Y-17215722D01*
X14074825Y-17215722D02*
X14065301Y-17196674D01*
X14065301Y-17196674D02*
X14046253Y-17187150D01*
X14046253Y-17187150D02*
X14017682Y-17187150D01*
X14017682Y-17187150D02*
X13998634Y-17196674D01*
X13998634Y-17196674D02*
X13989110Y-17206198D01*
X14198634Y-17320484D02*
X14179587Y-17310960D01*
X14179587Y-17310960D02*
X14170063Y-17301436D01*
X14170063Y-17301436D02*
X14160539Y-17282389D01*
X14160539Y-17282389D02*
X14160539Y-17225246D01*
X14160539Y-17225246D02*
X14170063Y-17206198D01*
X14170063Y-17206198D02*
X14179587Y-17196674D01*
X14179587Y-17196674D02*
X14198634Y-17187150D01*
X14198634Y-17187150D02*
X14227206Y-17187150D01*
X14227206Y-17187150D02*
X14246253Y-17196674D01*
X14246253Y-17196674D02*
X14255777Y-17206198D01*
X14255777Y-17206198D02*
X14265301Y-17225246D01*
X14265301Y-17225246D02*
X14265301Y-17282389D01*
X14265301Y-17282389D02*
X14255777Y-17301436D01*
X14255777Y-17301436D02*
X14246253Y-17310960D01*
X14246253Y-17310960D02*
X14227206Y-17320484D01*
X14227206Y-17320484D02*
X14198634Y-17320484D01*
X14379587Y-17320484D02*
X14360539Y-17310960D01*
X14360539Y-17310960D02*
X14351015Y-17291912D01*
X14351015Y-17291912D02*
X14351015Y-17120484D01*
X14531968Y-17310960D02*
X14512920Y-17320484D01*
X14512920Y-17320484D02*
X14474825Y-17320484D01*
X14474825Y-17320484D02*
X14455777Y-17310960D01*
X14455777Y-17310960D02*
X14446253Y-17291912D01*
X14446253Y-17291912D02*
X14446253Y-17215722D01*
X14446253Y-17215722D02*
X14455777Y-17196674D01*
X14455777Y-17196674D02*
X14474825Y-17187150D01*
X14474825Y-17187150D02*
X14512920Y-17187150D01*
X14512920Y-17187150D02*
X14531968Y-17196674D01*
X14531968Y-17196674D02*
X14541491Y-17215722D01*
X14541491Y-17215722D02*
X14541491Y-17234770D01*
X14541491Y-17234770D02*
X14446253Y-17253817D01*
X14617682Y-17310960D02*
X14636730Y-17320484D01*
X14636730Y-17320484D02*
X14674825Y-17320484D01*
X14674825Y-17320484D02*
X14693872Y-17310960D01*
X14693872Y-17310960D02*
X14703396Y-17291912D01*
X14703396Y-17291912D02*
X14703396Y-17282389D01*
X14703396Y-17282389D02*
X14693872Y-17263341D01*
X14693872Y-17263341D02*
X14674825Y-17253817D01*
X14674825Y-17253817D02*
X14646253Y-17253817D01*
X14646253Y-17253817D02*
X14627206Y-17244293D01*
X14627206Y-17244293D02*
X14617682Y-17225246D01*
X14617682Y-17225246D02*
X14617682Y-17215722D01*
X14617682Y-17215722D02*
X14627206Y-17196674D01*
X14627206Y-17196674D02*
X14646253Y-17187150D01*
X14646253Y-17187150D02*
X14674825Y-17187150D01*
X14674825Y-17187150D02*
X14693872Y-17196674D01*
X14770063Y-17396674D02*
X14779587Y-17387150D01*
X14779587Y-17387150D02*
X14798634Y-17358579D01*
X14798634Y-17358579D02*
X14808158Y-17339531D01*
X14808158Y-17339531D02*
X14817682Y-17310960D01*
X14817682Y-17310960D02*
X14827206Y-17263341D01*
X14827206Y-17263341D02*
X14827206Y-17225246D01*
X14827206Y-17225246D02*
X14817682Y-17177627D01*
X14817682Y-17177627D02*
X14808158Y-17149055D01*
X14808158Y-17149055D02*
X14798634Y-17130008D01*
X14798634Y-17130008D02*
X14779587Y-17101436D01*
X14779587Y-17101436D02*
X14770063Y-17091912D01*
D10*
X9975000Y-17473000D02*
X9975000Y-17513000D01*
X9955000Y-17493000D02*
X9995000Y-17493000D01*
D11*
X10293872Y-17384484D02*
X10312920Y-17384484D01*
X10312920Y-17384484D02*
X10331967Y-17394008D01*
X10331967Y-17394008D02*
X10341491Y-17403531D01*
X10341491Y-17403531D02*
X10351015Y-17422579D01*
X10351015Y-17422579D02*
X10360539Y-17460674D01*
X10360539Y-17460674D02*
X10360539Y-17508293D01*
X10360539Y-17508293D02*
X10351015Y-17546389D01*
X10351015Y-17546389D02*
X10341491Y-17565436D01*
X10341491Y-17565436D02*
X10331967Y-17574960D01*
X10331967Y-17574960D02*
X10312920Y-17584484D01*
X10312920Y-17584484D02*
X10293872Y-17584484D01*
X10293872Y-17584484D02*
X10274824Y-17574960D01*
X10274824Y-17574960D02*
X10265301Y-17565436D01*
X10265301Y-17565436D02*
X10255777Y-17546389D01*
X10255777Y-17546389D02*
X10246253Y-17508293D01*
X10246253Y-17508293D02*
X10246253Y-17460674D01*
X10246253Y-17460674D02*
X10255777Y-17422579D01*
X10255777Y-17422579D02*
X10265301Y-17403531D01*
X10265301Y-17403531D02*
X10274824Y-17394008D01*
X10274824Y-17394008D02*
X10293872Y-17384484D01*
X10446253Y-17565436D02*
X10455777Y-17574960D01*
X10455777Y-17574960D02*
X10446253Y-17584484D01*
X10446253Y-17584484D02*
X10436729Y-17574960D01*
X10436729Y-17574960D02*
X10446253Y-17565436D01*
X10446253Y-17565436D02*
X10446253Y-17584484D01*
X10627205Y-17451150D02*
X10627205Y-17584484D01*
X10579586Y-17374960D02*
X10531967Y-17517817D01*
X10531967Y-17517817D02*
X10655777Y-17517817D01*
X10770063Y-17384484D02*
X10789110Y-17384484D01*
X10789110Y-17384484D02*
X10808158Y-17394008D01*
X10808158Y-17394008D02*
X10817682Y-17403531D01*
X10817682Y-17403531D02*
X10827205Y-17422579D01*
X10827205Y-17422579D02*
X10836729Y-17460674D01*
X10836729Y-17460674D02*
X10836729Y-17508293D01*
X10836729Y-17508293D02*
X10827205Y-17546389D01*
X10827205Y-17546389D02*
X10817682Y-17565436D01*
X10817682Y-17565436D02*
X10808158Y-17574960D01*
X10808158Y-17574960D02*
X10789110Y-17584484D01*
X10789110Y-17584484D02*
X10770063Y-17584484D01*
X10770063Y-17584484D02*
X10751015Y-17574960D01*
X10751015Y-17574960D02*
X10741491Y-17565436D01*
X10741491Y-17565436D02*
X10731967Y-17546389D01*
X10731967Y-17546389D02*
X10722444Y-17508293D01*
X10722444Y-17508293D02*
X10722444Y-17460674D01*
X10722444Y-17460674D02*
X10731967Y-17422579D01*
X10731967Y-17422579D02*
X10741491Y-17403531D01*
X10741491Y-17403531D02*
X10751015Y-17394008D01*
X10751015Y-17394008D02*
X10770063Y-17384484D01*
X10960539Y-17384484D02*
X10979586Y-17384484D01*
X10979586Y-17384484D02*
X10998634Y-17394008D01*
X10998634Y-17394008D02*
X11008158Y-17403531D01*
X11008158Y-17403531D02*
X11017682Y-17422579D01*
X11017682Y-17422579D02*
X11027205Y-17460674D01*
X11027205Y-17460674D02*
X11027205Y-17508293D01*
X11027205Y-17508293D02*
X11017682Y-17546389D01*
X11017682Y-17546389D02*
X11008158Y-17565436D01*
X11008158Y-17565436D02*
X10998634Y-17574960D01*
X10998634Y-17574960D02*
X10979586Y-17584484D01*
X10979586Y-17584484D02*
X10960539Y-17584484D01*
X10960539Y-17584484D02*
X10941491Y-17574960D01*
X10941491Y-17574960D02*
X10931967Y-17565436D01*
X10931967Y-17565436D02*
X10922444Y-17546389D01*
X10922444Y-17546389D02*
X10912920Y-17508293D01*
X10912920Y-17508293D02*
X10912920Y-17460674D01*
X10912920Y-17460674D02*
X10922444Y-17422579D01*
X10922444Y-17422579D02*
X10931967Y-17403531D01*
X10931967Y-17403531D02*
X10941491Y-17394008D01*
X10941491Y-17394008D02*
X10960539Y-17384484D01*
X11112920Y-17584484D02*
X11112920Y-17451150D01*
X11112920Y-17470198D02*
X11122444Y-17460674D01*
X11122444Y-17460674D02*
X11141491Y-17451150D01*
X11141491Y-17451150D02*
X11170063Y-17451150D01*
X11170063Y-17451150D02*
X11189110Y-17460674D01*
X11189110Y-17460674D02*
X11198634Y-17479722D01*
X11198634Y-17479722D02*
X11198634Y-17584484D01*
X11198634Y-17479722D02*
X11208158Y-17460674D01*
X11208158Y-17460674D02*
X11227205Y-17451150D01*
X11227205Y-17451150D02*
X11255777Y-17451150D01*
X11255777Y-17451150D02*
X11274824Y-17460674D01*
X11274824Y-17460674D02*
X11284348Y-17479722D01*
X11284348Y-17479722D02*
X11284348Y-17584484D01*
X11379586Y-17584484D02*
X11379586Y-17451150D01*
X11379586Y-17470198D02*
X11389110Y-17460674D01*
X11389110Y-17460674D02*
X11408158Y-17451150D01*
X11408158Y-17451150D02*
X11436729Y-17451150D01*
X11436729Y-17451150D02*
X11455777Y-17460674D01*
X11455777Y-17460674D02*
X11465301Y-17479722D01*
X11465301Y-17479722D02*
X11465301Y-17584484D01*
X11465301Y-17479722D02*
X11474824Y-17460674D01*
X11474824Y-17460674D02*
X11493872Y-17451150D01*
X11493872Y-17451150D02*
X11522443Y-17451150D01*
X11522443Y-17451150D02*
X11541491Y-17460674D01*
X11541491Y-17460674D02*
X11551015Y-17479722D01*
X11551015Y-17479722D02*
X11551015Y-17584484D01*
X11941491Y-17374960D02*
X11770063Y-17632103D01*
X12198634Y-17384484D02*
X12217682Y-17384484D01*
X12217682Y-17384484D02*
X12236729Y-17394008D01*
X12236729Y-17394008D02*
X12246253Y-17403531D01*
X12246253Y-17403531D02*
X12255777Y-17422579D01*
X12255777Y-17422579D02*
X12265301Y-17460674D01*
X12265301Y-17460674D02*
X12265301Y-17508293D01*
X12265301Y-17508293D02*
X12255777Y-17546389D01*
X12255777Y-17546389D02*
X12246253Y-17565436D01*
X12246253Y-17565436D02*
X12236729Y-17574960D01*
X12236729Y-17574960D02*
X12217682Y-17584484D01*
X12217682Y-17584484D02*
X12198634Y-17584484D01*
X12198634Y-17584484D02*
X12179586Y-17574960D01*
X12179586Y-17574960D02*
X12170063Y-17565436D01*
X12170063Y-17565436D02*
X12160539Y-17546389D01*
X12160539Y-17546389D02*
X12151015Y-17508293D01*
X12151015Y-17508293D02*
X12151015Y-17460674D01*
X12151015Y-17460674D02*
X12160539Y-17422579D01*
X12160539Y-17422579D02*
X12170063Y-17403531D01*
X12170063Y-17403531D02*
X12179586Y-17394008D01*
X12179586Y-17394008D02*
X12198634Y-17384484D01*
X12351015Y-17565436D02*
X12360539Y-17574960D01*
X12360539Y-17574960D02*
X12351015Y-17584484D01*
X12351015Y-17584484D02*
X12341491Y-17574960D01*
X12341491Y-17574960D02*
X12351015Y-17565436D01*
X12351015Y-17565436D02*
X12351015Y-17584484D01*
X12484348Y-17384484D02*
X12503396Y-17384484D01*
X12503396Y-17384484D02*
X12522444Y-17394008D01*
X12522444Y-17394008D02*
X12531967Y-17403531D01*
X12531967Y-17403531D02*
X12541491Y-17422579D01*
X12541491Y-17422579D02*
X12551015Y-17460674D01*
X12551015Y-17460674D02*
X12551015Y-17508293D01*
X12551015Y-17508293D02*
X12541491Y-17546389D01*
X12541491Y-17546389D02*
X12531967Y-17565436D01*
X12531967Y-17565436D02*
X12522444Y-17574960D01*
X12522444Y-17574960D02*
X12503396Y-17584484D01*
X12503396Y-17584484D02*
X12484348Y-17584484D01*
X12484348Y-17584484D02*
X12465301Y-17574960D01*
X12465301Y-17574960D02*
X12455777Y-17565436D01*
X12455777Y-17565436D02*
X12446253Y-17546389D01*
X12446253Y-17546389D02*
X12436729Y-17508293D01*
X12436729Y-17508293D02*
X12436729Y-17460674D01*
X12436729Y-17460674D02*
X12446253Y-17422579D01*
X12446253Y-17422579D02*
X12455777Y-17403531D01*
X12455777Y-17403531D02*
X12465301Y-17394008D01*
X12465301Y-17394008D02*
X12484348Y-17384484D01*
X12741491Y-17584484D02*
X12627206Y-17584484D01*
X12684348Y-17584484D02*
X12684348Y-17384484D01*
X12684348Y-17384484D02*
X12665301Y-17413055D01*
X12665301Y-17413055D02*
X12646253Y-17432103D01*
X12646253Y-17432103D02*
X12627206Y-17441627D01*
X12922444Y-17384484D02*
X12827206Y-17384484D01*
X12827206Y-17384484D02*
X12817682Y-17479722D01*
X12817682Y-17479722D02*
X12827206Y-17470198D01*
X12827206Y-17470198D02*
X12846253Y-17460674D01*
X12846253Y-17460674D02*
X12893872Y-17460674D01*
X12893872Y-17460674D02*
X12912920Y-17470198D01*
X12912920Y-17470198D02*
X12922444Y-17479722D01*
X12922444Y-17479722D02*
X12931967Y-17498770D01*
X12931967Y-17498770D02*
X12931967Y-17546389D01*
X12931967Y-17546389D02*
X12922444Y-17565436D01*
X12922444Y-17565436D02*
X12912920Y-17574960D01*
X12912920Y-17574960D02*
X12893872Y-17584484D01*
X12893872Y-17584484D02*
X12846253Y-17584484D01*
X12846253Y-17584484D02*
X12827206Y-17574960D01*
X12827206Y-17574960D02*
X12817682Y-17565436D01*
X12998634Y-17384484D02*
X13131967Y-17384484D01*
X13131967Y-17384484D02*
X13046253Y-17584484D01*
X13198634Y-17384484D02*
X13198634Y-17422579D01*
X13274825Y-17384484D02*
X13274825Y-17422579D01*
X13570063Y-17660674D02*
X13560539Y-17651150D01*
X13560539Y-17651150D02*
X13541491Y-17622579D01*
X13541491Y-17622579D02*
X13531968Y-17603531D01*
X13531968Y-17603531D02*
X13522444Y-17574960D01*
X13522444Y-17574960D02*
X13512920Y-17527341D01*
X13512920Y-17527341D02*
X13512920Y-17489246D01*
X13512920Y-17489246D02*
X13522444Y-17441627D01*
X13522444Y-17441627D02*
X13531968Y-17413055D01*
X13531968Y-17413055D02*
X13541491Y-17394008D01*
X13541491Y-17394008D02*
X13560539Y-17365436D01*
X13560539Y-17365436D02*
X13570063Y-17355912D01*
X13636729Y-17403531D02*
X13646253Y-17394008D01*
X13646253Y-17394008D02*
X13665301Y-17384484D01*
X13665301Y-17384484D02*
X13712920Y-17384484D01*
X13712920Y-17384484D02*
X13731968Y-17394008D01*
X13731968Y-17394008D02*
X13741491Y-17403531D01*
X13741491Y-17403531D02*
X13751015Y-17422579D01*
X13751015Y-17422579D02*
X13751015Y-17441627D01*
X13751015Y-17441627D02*
X13741491Y-17470198D01*
X13741491Y-17470198D02*
X13627206Y-17584484D01*
X13627206Y-17584484D02*
X13751015Y-17584484D01*
X13922444Y-17451150D02*
X13922444Y-17584484D01*
X13874825Y-17374960D02*
X13827206Y-17517817D01*
X13827206Y-17517817D02*
X13951015Y-17517817D01*
X14055777Y-17470198D02*
X14036729Y-17460674D01*
X14036729Y-17460674D02*
X14027206Y-17451150D01*
X14027206Y-17451150D02*
X14017682Y-17432103D01*
X14017682Y-17432103D02*
X14017682Y-17422579D01*
X14017682Y-17422579D02*
X14027206Y-17403531D01*
X14027206Y-17403531D02*
X14036729Y-17394008D01*
X14036729Y-17394008D02*
X14055777Y-17384484D01*
X14055777Y-17384484D02*
X14093872Y-17384484D01*
X14093872Y-17384484D02*
X14112920Y-17394008D01*
X14112920Y-17394008D02*
X14122444Y-17403531D01*
X14122444Y-17403531D02*
X14131968Y-17422579D01*
X14131968Y-17422579D02*
X14131968Y-17432103D01*
X14131968Y-17432103D02*
X14122444Y-17451150D01*
X14122444Y-17451150D02*
X14112920Y-17460674D01*
X14112920Y-17460674D02*
X14093872Y-17470198D01*
X14093872Y-17470198D02*
X14055777Y-17470198D01*
X14055777Y-17470198D02*
X14036729Y-17479722D01*
X14036729Y-17479722D02*
X14027206Y-17489246D01*
X14027206Y-17489246D02*
X14017682Y-17508293D01*
X14017682Y-17508293D02*
X14017682Y-17546389D01*
X14017682Y-17546389D02*
X14027206Y-17565436D01*
X14027206Y-17565436D02*
X14036729Y-17574960D01*
X14036729Y-17574960D02*
X14055777Y-17584484D01*
X14055777Y-17584484D02*
X14093872Y-17584484D01*
X14093872Y-17584484D02*
X14112920Y-17574960D01*
X14112920Y-17574960D02*
X14122444Y-17565436D01*
X14122444Y-17565436D02*
X14131968Y-17546389D01*
X14131968Y-17546389D02*
X14131968Y-17508293D01*
X14131968Y-17508293D02*
X14122444Y-17489246D01*
X14122444Y-17489246D02*
X14112920Y-17479722D01*
X14112920Y-17479722D02*
X14093872Y-17470198D01*
X14370063Y-17584484D02*
X14370063Y-17384484D01*
X14455777Y-17584484D02*
X14455777Y-17479722D01*
X14455777Y-17479722D02*
X14446253Y-17460674D01*
X14446253Y-17460674D02*
X14427206Y-17451150D01*
X14427206Y-17451150D02*
X14398634Y-17451150D01*
X14398634Y-17451150D02*
X14379587Y-17460674D01*
X14379587Y-17460674D02*
X14370063Y-17470198D01*
X14579587Y-17584484D02*
X14560539Y-17574960D01*
X14560539Y-17574960D02*
X14551015Y-17565436D01*
X14551015Y-17565436D02*
X14541491Y-17546389D01*
X14541491Y-17546389D02*
X14541491Y-17489246D01*
X14541491Y-17489246D02*
X14551015Y-17470198D01*
X14551015Y-17470198D02*
X14560539Y-17460674D01*
X14560539Y-17460674D02*
X14579587Y-17451150D01*
X14579587Y-17451150D02*
X14608158Y-17451150D01*
X14608158Y-17451150D02*
X14627206Y-17460674D01*
X14627206Y-17460674D02*
X14636730Y-17470198D01*
X14636730Y-17470198D02*
X14646253Y-17489246D01*
X14646253Y-17489246D02*
X14646253Y-17546389D01*
X14646253Y-17546389D02*
X14636730Y-17565436D01*
X14636730Y-17565436D02*
X14627206Y-17574960D01*
X14627206Y-17574960D02*
X14608158Y-17584484D01*
X14608158Y-17584484D02*
X14579587Y-17584484D01*
X14760539Y-17584484D02*
X14741491Y-17574960D01*
X14741491Y-17574960D02*
X14731968Y-17555912D01*
X14731968Y-17555912D02*
X14731968Y-17384484D01*
X14912920Y-17574960D02*
X14893872Y-17584484D01*
X14893872Y-17584484D02*
X14855777Y-17584484D01*
X14855777Y-17584484D02*
X14836730Y-17574960D01*
X14836730Y-17574960D02*
X14827206Y-17555912D01*
X14827206Y-17555912D02*
X14827206Y-17479722D01*
X14827206Y-17479722D02*
X14836730Y-17460674D01*
X14836730Y-17460674D02*
X14855777Y-17451150D01*
X14855777Y-17451150D02*
X14893872Y-17451150D01*
X14893872Y-17451150D02*
X14912920Y-17460674D01*
X14912920Y-17460674D02*
X14922444Y-17479722D01*
X14922444Y-17479722D02*
X14922444Y-17498770D01*
X14922444Y-17498770D02*
X14827206Y-17517817D01*
X14998634Y-17574960D02*
X15017682Y-17584484D01*
X15017682Y-17584484D02*
X15055777Y-17584484D01*
X15055777Y-17584484D02*
X15074825Y-17574960D01*
X15074825Y-17574960D02*
X15084349Y-17555912D01*
X15084349Y-17555912D02*
X15084349Y-17546389D01*
X15084349Y-17546389D02*
X15074825Y-17527341D01*
X15074825Y-17527341D02*
X15055777Y-17517817D01*
X15055777Y-17517817D02*
X15027206Y-17517817D01*
X15027206Y-17517817D02*
X15008158Y-17508293D01*
X15008158Y-17508293D02*
X14998634Y-17489246D01*
X14998634Y-17489246D02*
X14998634Y-17479722D01*
X14998634Y-17479722D02*
X15008158Y-17460674D01*
X15008158Y-17460674D02*
X15027206Y-17451150D01*
X15027206Y-17451150D02*
X15055777Y-17451150D01*
X15055777Y-17451150D02*
X15074825Y-17460674D01*
X15151015Y-17660674D02*
X15160539Y-17651150D01*
X15160539Y-17651150D02*
X15179587Y-17622579D01*
X15179587Y-17622579D02*
X15189111Y-17603531D01*
X15189111Y-17603531D02*
X15198634Y-17574960D01*
X15198634Y-17574960D02*
X15208158Y-17527341D01*
X15208158Y-17527341D02*
X15208158Y-17489246D01*
X15208158Y-17489246D02*
X15198634Y-17441627D01*
X15198634Y-17441627D02*
X15189111Y-17413055D01*
X15189111Y-17413055D02*
X15179587Y-17394008D01*
X15179587Y-17394008D02*
X15160539Y-17365436D01*
X15160539Y-17365436D02*
X15151015Y-17355912D01*
D10*
X9986213Y-17778213D02*
X9986213Y-17735787D01*
X9943787Y-17735787D01*
X9943787Y-17778213D01*
X9986213Y-17778213D01*
D11*
X10293872Y-17648484D02*
X10312920Y-17648484D01*
X10312920Y-17648484D02*
X10331967Y-17658008D01*
X10331967Y-17658008D02*
X10341491Y-17667531D01*
X10341491Y-17667531D02*
X10351015Y-17686579D01*
X10351015Y-17686579D02*
X10360539Y-17724674D01*
X10360539Y-17724674D02*
X10360539Y-17772293D01*
X10360539Y-17772293D02*
X10351015Y-17810389D01*
X10351015Y-17810389D02*
X10341491Y-17829436D01*
X10341491Y-17829436D02*
X10331967Y-17838960D01*
X10331967Y-17838960D02*
X10312920Y-17848484D01*
X10312920Y-17848484D02*
X10293872Y-17848484D01*
X10293872Y-17848484D02*
X10274824Y-17838960D01*
X10274824Y-17838960D02*
X10265301Y-17829436D01*
X10265301Y-17829436D02*
X10255777Y-17810389D01*
X10255777Y-17810389D02*
X10246253Y-17772293D01*
X10246253Y-17772293D02*
X10246253Y-17724674D01*
X10246253Y-17724674D02*
X10255777Y-17686579D01*
X10255777Y-17686579D02*
X10265301Y-17667531D01*
X10265301Y-17667531D02*
X10274824Y-17658008D01*
X10274824Y-17658008D02*
X10293872Y-17648484D01*
X10446253Y-17829436D02*
X10455777Y-17838960D01*
X10455777Y-17838960D02*
X10446253Y-17848484D01*
X10446253Y-17848484D02*
X10436729Y-17838960D01*
X10436729Y-17838960D02*
X10446253Y-17829436D01*
X10446253Y-17829436D02*
X10446253Y-17848484D01*
X10627205Y-17648484D02*
X10589110Y-17648484D01*
X10589110Y-17648484D02*
X10570063Y-17658008D01*
X10570063Y-17658008D02*
X10560539Y-17667531D01*
X10560539Y-17667531D02*
X10541491Y-17696103D01*
X10541491Y-17696103D02*
X10531967Y-17734198D01*
X10531967Y-17734198D02*
X10531967Y-17810389D01*
X10531967Y-17810389D02*
X10541491Y-17829436D01*
X10541491Y-17829436D02*
X10551015Y-17838960D01*
X10551015Y-17838960D02*
X10570063Y-17848484D01*
X10570063Y-17848484D02*
X10608158Y-17848484D01*
X10608158Y-17848484D02*
X10627205Y-17838960D01*
X10627205Y-17838960D02*
X10636729Y-17829436D01*
X10636729Y-17829436D02*
X10646253Y-17810389D01*
X10646253Y-17810389D02*
X10646253Y-17762770D01*
X10646253Y-17762770D02*
X10636729Y-17743722D01*
X10636729Y-17743722D02*
X10627205Y-17734198D01*
X10627205Y-17734198D02*
X10608158Y-17724674D01*
X10608158Y-17724674D02*
X10570063Y-17724674D01*
X10570063Y-17724674D02*
X10551015Y-17734198D01*
X10551015Y-17734198D02*
X10541491Y-17743722D01*
X10541491Y-17743722D02*
X10531967Y-17762770D01*
X10770063Y-17648484D02*
X10789110Y-17648484D01*
X10789110Y-17648484D02*
X10808158Y-17658008D01*
X10808158Y-17658008D02*
X10817682Y-17667531D01*
X10817682Y-17667531D02*
X10827205Y-17686579D01*
X10827205Y-17686579D02*
X10836729Y-17724674D01*
X10836729Y-17724674D02*
X10836729Y-17772293D01*
X10836729Y-17772293D02*
X10827205Y-17810389D01*
X10827205Y-17810389D02*
X10817682Y-17829436D01*
X10817682Y-17829436D02*
X10808158Y-17838960D01*
X10808158Y-17838960D02*
X10789110Y-17848484D01*
X10789110Y-17848484D02*
X10770063Y-17848484D01*
X10770063Y-17848484D02*
X10751015Y-17838960D01*
X10751015Y-17838960D02*
X10741491Y-17829436D01*
X10741491Y-17829436D02*
X10731967Y-17810389D01*
X10731967Y-17810389D02*
X10722444Y-17772293D01*
X10722444Y-17772293D02*
X10722444Y-17724674D01*
X10722444Y-17724674D02*
X10731967Y-17686579D01*
X10731967Y-17686579D02*
X10741491Y-17667531D01*
X10741491Y-17667531D02*
X10751015Y-17658008D01*
X10751015Y-17658008D02*
X10770063Y-17648484D01*
X10960539Y-17648484D02*
X10979586Y-17648484D01*
X10979586Y-17648484D02*
X10998634Y-17658008D01*
X10998634Y-17658008D02*
X11008158Y-17667531D01*
X11008158Y-17667531D02*
X11017682Y-17686579D01*
X11017682Y-17686579D02*
X11027205Y-17724674D01*
X11027205Y-17724674D02*
X11027205Y-17772293D01*
X11027205Y-17772293D02*
X11017682Y-17810389D01*
X11017682Y-17810389D02*
X11008158Y-17829436D01*
X11008158Y-17829436D02*
X10998634Y-17838960D01*
X10998634Y-17838960D02*
X10979586Y-17848484D01*
X10979586Y-17848484D02*
X10960539Y-17848484D01*
X10960539Y-17848484D02*
X10941491Y-17838960D01*
X10941491Y-17838960D02*
X10931967Y-17829436D01*
X10931967Y-17829436D02*
X10922444Y-17810389D01*
X10922444Y-17810389D02*
X10912920Y-17772293D01*
X10912920Y-17772293D02*
X10912920Y-17724674D01*
X10912920Y-17724674D02*
X10922444Y-17686579D01*
X10922444Y-17686579D02*
X10931967Y-17667531D01*
X10931967Y-17667531D02*
X10941491Y-17658008D01*
X10941491Y-17658008D02*
X10960539Y-17648484D01*
X11112920Y-17848484D02*
X11112920Y-17715150D01*
X11112920Y-17734198D02*
X11122444Y-17724674D01*
X11122444Y-17724674D02*
X11141491Y-17715150D01*
X11141491Y-17715150D02*
X11170063Y-17715150D01*
X11170063Y-17715150D02*
X11189110Y-17724674D01*
X11189110Y-17724674D02*
X11198634Y-17743722D01*
X11198634Y-17743722D02*
X11198634Y-17848484D01*
X11198634Y-17743722D02*
X11208158Y-17724674D01*
X11208158Y-17724674D02*
X11227205Y-17715150D01*
X11227205Y-17715150D02*
X11255777Y-17715150D01*
X11255777Y-17715150D02*
X11274824Y-17724674D01*
X11274824Y-17724674D02*
X11284348Y-17743722D01*
X11284348Y-17743722D02*
X11284348Y-17848484D01*
X11379586Y-17848484D02*
X11379586Y-17715150D01*
X11379586Y-17734198D02*
X11389110Y-17724674D01*
X11389110Y-17724674D02*
X11408158Y-17715150D01*
X11408158Y-17715150D02*
X11436729Y-17715150D01*
X11436729Y-17715150D02*
X11455777Y-17724674D01*
X11455777Y-17724674D02*
X11465301Y-17743722D01*
X11465301Y-17743722D02*
X11465301Y-17848484D01*
X11465301Y-17743722D02*
X11474824Y-17724674D01*
X11474824Y-17724674D02*
X11493872Y-17715150D01*
X11493872Y-17715150D02*
X11522443Y-17715150D01*
X11522443Y-17715150D02*
X11541491Y-17724674D01*
X11541491Y-17724674D02*
X11551015Y-17743722D01*
X11551015Y-17743722D02*
X11551015Y-17848484D01*
X11941491Y-17638960D02*
X11770063Y-17896103D01*
X12198634Y-17648484D02*
X12217682Y-17648484D01*
X12217682Y-17648484D02*
X12236729Y-17658008D01*
X12236729Y-17658008D02*
X12246253Y-17667531D01*
X12246253Y-17667531D02*
X12255777Y-17686579D01*
X12255777Y-17686579D02*
X12265301Y-17724674D01*
X12265301Y-17724674D02*
X12265301Y-17772293D01*
X12265301Y-17772293D02*
X12255777Y-17810389D01*
X12255777Y-17810389D02*
X12246253Y-17829436D01*
X12246253Y-17829436D02*
X12236729Y-17838960D01*
X12236729Y-17838960D02*
X12217682Y-17848484D01*
X12217682Y-17848484D02*
X12198634Y-17848484D01*
X12198634Y-17848484D02*
X12179586Y-17838960D01*
X12179586Y-17838960D02*
X12170063Y-17829436D01*
X12170063Y-17829436D02*
X12160539Y-17810389D01*
X12160539Y-17810389D02*
X12151015Y-17772293D01*
X12151015Y-17772293D02*
X12151015Y-17724674D01*
X12151015Y-17724674D02*
X12160539Y-17686579D01*
X12160539Y-17686579D02*
X12170063Y-17667531D01*
X12170063Y-17667531D02*
X12179586Y-17658008D01*
X12179586Y-17658008D02*
X12198634Y-17648484D01*
X12351015Y-17829436D02*
X12360539Y-17838960D01*
X12360539Y-17838960D02*
X12351015Y-17848484D01*
X12351015Y-17848484D02*
X12341491Y-17838960D01*
X12341491Y-17838960D02*
X12351015Y-17829436D01*
X12351015Y-17829436D02*
X12351015Y-17848484D01*
X12484348Y-17648484D02*
X12503396Y-17648484D01*
X12503396Y-17648484D02*
X12522444Y-17658008D01*
X12522444Y-17658008D02*
X12531967Y-17667531D01*
X12531967Y-17667531D02*
X12541491Y-17686579D01*
X12541491Y-17686579D02*
X12551015Y-17724674D01*
X12551015Y-17724674D02*
X12551015Y-17772293D01*
X12551015Y-17772293D02*
X12541491Y-17810389D01*
X12541491Y-17810389D02*
X12531967Y-17829436D01*
X12531967Y-17829436D02*
X12522444Y-17838960D01*
X12522444Y-17838960D02*
X12503396Y-17848484D01*
X12503396Y-17848484D02*
X12484348Y-17848484D01*
X12484348Y-17848484D02*
X12465301Y-17838960D01*
X12465301Y-17838960D02*
X12455777Y-17829436D01*
X12455777Y-17829436D02*
X12446253Y-17810389D01*
X12446253Y-17810389D02*
X12436729Y-17772293D01*
X12436729Y-17772293D02*
X12436729Y-17724674D01*
X12436729Y-17724674D02*
X12446253Y-17686579D01*
X12446253Y-17686579D02*
X12455777Y-17667531D01*
X12455777Y-17667531D02*
X12465301Y-17658008D01*
X12465301Y-17658008D02*
X12484348Y-17648484D01*
X12627206Y-17667531D02*
X12636729Y-17658008D01*
X12636729Y-17658008D02*
X12655777Y-17648484D01*
X12655777Y-17648484D02*
X12703396Y-17648484D01*
X12703396Y-17648484D02*
X12722444Y-17658008D01*
X12722444Y-17658008D02*
X12731967Y-17667531D01*
X12731967Y-17667531D02*
X12741491Y-17686579D01*
X12741491Y-17686579D02*
X12741491Y-17705627D01*
X12741491Y-17705627D02*
X12731967Y-17734198D01*
X12731967Y-17734198D02*
X12617682Y-17848484D01*
X12617682Y-17848484D02*
X12741491Y-17848484D01*
X12808158Y-17648484D02*
X12931967Y-17648484D01*
X12931967Y-17648484D02*
X12865301Y-17724674D01*
X12865301Y-17724674D02*
X12893872Y-17724674D01*
X12893872Y-17724674D02*
X12912920Y-17734198D01*
X12912920Y-17734198D02*
X12922444Y-17743722D01*
X12922444Y-17743722D02*
X12931967Y-17762770D01*
X12931967Y-17762770D02*
X12931967Y-17810389D01*
X12931967Y-17810389D02*
X12922444Y-17829436D01*
X12922444Y-17829436D02*
X12912920Y-17838960D01*
X12912920Y-17838960D02*
X12893872Y-17848484D01*
X12893872Y-17848484D02*
X12836729Y-17848484D01*
X12836729Y-17848484D02*
X12817682Y-17838960D01*
X12817682Y-17838960D02*
X12808158Y-17829436D01*
X13103396Y-17648484D02*
X13065301Y-17648484D01*
X13065301Y-17648484D02*
X13046253Y-17658008D01*
X13046253Y-17658008D02*
X13036729Y-17667531D01*
X13036729Y-17667531D02*
X13017682Y-17696103D01*
X13017682Y-17696103D02*
X13008158Y-17734198D01*
X13008158Y-17734198D02*
X13008158Y-17810389D01*
X13008158Y-17810389D02*
X13017682Y-17829436D01*
X13017682Y-17829436D02*
X13027206Y-17838960D01*
X13027206Y-17838960D02*
X13046253Y-17848484D01*
X13046253Y-17848484D02*
X13084348Y-17848484D01*
X13084348Y-17848484D02*
X13103396Y-17838960D01*
X13103396Y-17838960D02*
X13112920Y-17829436D01*
X13112920Y-17829436D02*
X13122444Y-17810389D01*
X13122444Y-17810389D02*
X13122444Y-17762770D01*
X13122444Y-17762770D02*
X13112920Y-17743722D01*
X13112920Y-17743722D02*
X13103396Y-17734198D01*
X13103396Y-17734198D02*
X13084348Y-17724674D01*
X13084348Y-17724674D02*
X13046253Y-17724674D01*
X13046253Y-17724674D02*
X13027206Y-17734198D01*
X13027206Y-17734198D02*
X13017682Y-17743722D01*
X13017682Y-17743722D02*
X13008158Y-17762770D01*
X13198634Y-17648484D02*
X13198634Y-17686579D01*
X13274825Y-17648484D02*
X13274825Y-17686579D01*
X13570063Y-17924674D02*
X13560539Y-17915150D01*
X13560539Y-17915150D02*
X13541491Y-17886579D01*
X13541491Y-17886579D02*
X13531968Y-17867531D01*
X13531968Y-17867531D02*
X13522444Y-17838960D01*
X13522444Y-17838960D02*
X13512920Y-17791341D01*
X13512920Y-17791341D02*
X13512920Y-17753246D01*
X13512920Y-17753246D02*
X13522444Y-17705627D01*
X13522444Y-17705627D02*
X13531968Y-17677055D01*
X13531968Y-17677055D02*
X13541491Y-17658008D01*
X13541491Y-17658008D02*
X13560539Y-17629436D01*
X13560539Y-17629436D02*
X13570063Y-17619912D01*
X13636729Y-17667531D02*
X13646253Y-17658008D01*
X13646253Y-17658008D02*
X13665301Y-17648484D01*
X13665301Y-17648484D02*
X13712920Y-17648484D01*
X13712920Y-17648484D02*
X13731968Y-17658008D01*
X13731968Y-17658008D02*
X13741491Y-17667531D01*
X13741491Y-17667531D02*
X13751015Y-17686579D01*
X13751015Y-17686579D02*
X13751015Y-17705627D01*
X13751015Y-17705627D02*
X13741491Y-17734198D01*
X13741491Y-17734198D02*
X13627206Y-17848484D01*
X13627206Y-17848484D02*
X13751015Y-17848484D01*
X13989110Y-17848484D02*
X13989110Y-17648484D01*
X14074825Y-17848484D02*
X14074825Y-17743722D01*
X14074825Y-17743722D02*
X14065301Y-17724674D01*
X14065301Y-17724674D02*
X14046253Y-17715150D01*
X14046253Y-17715150D02*
X14017682Y-17715150D01*
X14017682Y-17715150D02*
X13998634Y-17724674D01*
X13998634Y-17724674D02*
X13989110Y-17734198D01*
X14198634Y-17848484D02*
X14179587Y-17838960D01*
X14179587Y-17838960D02*
X14170063Y-17829436D01*
X14170063Y-17829436D02*
X14160539Y-17810389D01*
X14160539Y-17810389D02*
X14160539Y-17753246D01*
X14160539Y-17753246D02*
X14170063Y-17734198D01*
X14170063Y-17734198D02*
X14179587Y-17724674D01*
X14179587Y-17724674D02*
X14198634Y-17715150D01*
X14198634Y-17715150D02*
X14227206Y-17715150D01*
X14227206Y-17715150D02*
X14246253Y-17724674D01*
X14246253Y-17724674D02*
X14255777Y-17734198D01*
X14255777Y-17734198D02*
X14265301Y-17753246D01*
X14265301Y-17753246D02*
X14265301Y-17810389D01*
X14265301Y-17810389D02*
X14255777Y-17829436D01*
X14255777Y-17829436D02*
X14246253Y-17838960D01*
X14246253Y-17838960D02*
X14227206Y-17848484D01*
X14227206Y-17848484D02*
X14198634Y-17848484D01*
X14379587Y-17848484D02*
X14360539Y-17838960D01*
X14360539Y-17838960D02*
X14351015Y-17819912D01*
X14351015Y-17819912D02*
X14351015Y-17648484D01*
X14531968Y-17838960D02*
X14512920Y-17848484D01*
X14512920Y-17848484D02*
X14474825Y-17848484D01*
X14474825Y-17848484D02*
X14455777Y-17838960D01*
X14455777Y-17838960D02*
X14446253Y-17819912D01*
X14446253Y-17819912D02*
X14446253Y-17743722D01*
X14446253Y-17743722D02*
X14455777Y-17724674D01*
X14455777Y-17724674D02*
X14474825Y-17715150D01*
X14474825Y-17715150D02*
X14512920Y-17715150D01*
X14512920Y-17715150D02*
X14531968Y-17724674D01*
X14531968Y-17724674D02*
X14541491Y-17743722D01*
X14541491Y-17743722D02*
X14541491Y-17762770D01*
X14541491Y-17762770D02*
X14446253Y-17781817D01*
X14617682Y-17838960D02*
X14636730Y-17848484D01*
X14636730Y-17848484D02*
X14674825Y-17848484D01*
X14674825Y-17848484D02*
X14693872Y-17838960D01*
X14693872Y-17838960D02*
X14703396Y-17819912D01*
X14703396Y-17819912D02*
X14703396Y-17810389D01*
X14703396Y-17810389D02*
X14693872Y-17791341D01*
X14693872Y-17791341D02*
X14674825Y-17781817D01*
X14674825Y-17781817D02*
X14646253Y-17781817D01*
X14646253Y-17781817D02*
X14627206Y-17772293D01*
X14627206Y-17772293D02*
X14617682Y-17753246D01*
X14617682Y-17753246D02*
X14617682Y-17743722D01*
X14617682Y-17743722D02*
X14627206Y-17724674D01*
X14627206Y-17724674D02*
X14646253Y-17715150D01*
X14646253Y-17715150D02*
X14674825Y-17715150D01*
X14674825Y-17715150D02*
X14693872Y-17724674D01*
X14770063Y-17924674D02*
X14779587Y-17915150D01*
X14779587Y-17915150D02*
X14798634Y-17886579D01*
X14798634Y-17886579D02*
X14808158Y-17867531D01*
X14808158Y-17867531D02*
X14817682Y-17838960D01*
X14817682Y-17838960D02*
X14827206Y-17791341D01*
X14827206Y-17791341D02*
X14827206Y-17753246D01*
X14827206Y-17753246D02*
X14817682Y-17705627D01*
X14817682Y-17705627D02*
X14808158Y-17677055D01*
X14808158Y-17677055D02*
X14798634Y-17658008D01*
X14798634Y-17658008D02*
X14779587Y-17629436D01*
X14779587Y-17629436D02*
X14770063Y-17619912D01*
D10*
X9955000Y-18061000D02*
X9995000Y-18021000D01*
X9955000Y-17981000D01*
X9915000Y-18021000D01*
X9955000Y-18061000D01*
D11*
X10293872Y-17912484D02*
X10312920Y-17912484D01*
X10312920Y-17912484D02*
X10331967Y-17922008D01*
X10331967Y-17922008D02*
X10341491Y-17931531D01*
X10341491Y-17931531D02*
X10351015Y-17950579D01*
X10351015Y-17950579D02*
X10360539Y-17988674D01*
X10360539Y-17988674D02*
X10360539Y-18036293D01*
X10360539Y-18036293D02*
X10351015Y-18074389D01*
X10351015Y-18074389D02*
X10341491Y-18093436D01*
X10341491Y-18093436D02*
X10331967Y-18102960D01*
X10331967Y-18102960D02*
X10312920Y-18112484D01*
X10312920Y-18112484D02*
X10293872Y-18112484D01*
X10293872Y-18112484D02*
X10274824Y-18102960D01*
X10274824Y-18102960D02*
X10265301Y-18093436D01*
X10265301Y-18093436D02*
X10255777Y-18074389D01*
X10255777Y-18074389D02*
X10246253Y-18036293D01*
X10246253Y-18036293D02*
X10246253Y-17988674D01*
X10246253Y-17988674D02*
X10255777Y-17950579D01*
X10255777Y-17950579D02*
X10265301Y-17931531D01*
X10265301Y-17931531D02*
X10274824Y-17922008D01*
X10274824Y-17922008D02*
X10293872Y-17912484D01*
X10446253Y-18093436D02*
X10455777Y-18102960D01*
X10455777Y-18102960D02*
X10446253Y-18112484D01*
X10446253Y-18112484D02*
X10436729Y-18102960D01*
X10436729Y-18102960D02*
X10446253Y-18093436D01*
X10446253Y-18093436D02*
X10446253Y-18112484D01*
X10570063Y-17998198D02*
X10551015Y-17988674D01*
X10551015Y-17988674D02*
X10541491Y-17979150D01*
X10541491Y-17979150D02*
X10531967Y-17960103D01*
X10531967Y-17960103D02*
X10531967Y-17950579D01*
X10531967Y-17950579D02*
X10541491Y-17931531D01*
X10541491Y-17931531D02*
X10551015Y-17922008D01*
X10551015Y-17922008D02*
X10570063Y-17912484D01*
X10570063Y-17912484D02*
X10608158Y-17912484D01*
X10608158Y-17912484D02*
X10627205Y-17922008D01*
X10627205Y-17922008D02*
X10636729Y-17931531D01*
X10636729Y-17931531D02*
X10646253Y-17950579D01*
X10646253Y-17950579D02*
X10646253Y-17960103D01*
X10646253Y-17960103D02*
X10636729Y-17979150D01*
X10636729Y-17979150D02*
X10627205Y-17988674D01*
X10627205Y-17988674D02*
X10608158Y-17998198D01*
X10608158Y-17998198D02*
X10570063Y-17998198D01*
X10570063Y-17998198D02*
X10551015Y-18007722D01*
X10551015Y-18007722D02*
X10541491Y-18017246D01*
X10541491Y-18017246D02*
X10531967Y-18036293D01*
X10531967Y-18036293D02*
X10531967Y-18074389D01*
X10531967Y-18074389D02*
X10541491Y-18093436D01*
X10541491Y-18093436D02*
X10551015Y-18102960D01*
X10551015Y-18102960D02*
X10570063Y-18112484D01*
X10570063Y-18112484D02*
X10608158Y-18112484D01*
X10608158Y-18112484D02*
X10627205Y-18102960D01*
X10627205Y-18102960D02*
X10636729Y-18093436D01*
X10636729Y-18093436D02*
X10646253Y-18074389D01*
X10646253Y-18074389D02*
X10646253Y-18036293D01*
X10646253Y-18036293D02*
X10636729Y-18017246D01*
X10636729Y-18017246D02*
X10627205Y-18007722D01*
X10627205Y-18007722D02*
X10608158Y-17998198D01*
X10770063Y-17912484D02*
X10789110Y-17912484D01*
X10789110Y-17912484D02*
X10808158Y-17922008D01*
X10808158Y-17922008D02*
X10817682Y-17931531D01*
X10817682Y-17931531D02*
X10827205Y-17950579D01*
X10827205Y-17950579D02*
X10836729Y-17988674D01*
X10836729Y-17988674D02*
X10836729Y-18036293D01*
X10836729Y-18036293D02*
X10827205Y-18074389D01*
X10827205Y-18074389D02*
X10817682Y-18093436D01*
X10817682Y-18093436D02*
X10808158Y-18102960D01*
X10808158Y-18102960D02*
X10789110Y-18112484D01*
X10789110Y-18112484D02*
X10770063Y-18112484D01*
X10770063Y-18112484D02*
X10751015Y-18102960D01*
X10751015Y-18102960D02*
X10741491Y-18093436D01*
X10741491Y-18093436D02*
X10731967Y-18074389D01*
X10731967Y-18074389D02*
X10722444Y-18036293D01*
X10722444Y-18036293D02*
X10722444Y-17988674D01*
X10722444Y-17988674D02*
X10731967Y-17950579D01*
X10731967Y-17950579D02*
X10741491Y-17931531D01*
X10741491Y-17931531D02*
X10751015Y-17922008D01*
X10751015Y-17922008D02*
X10770063Y-17912484D01*
X10960539Y-17912484D02*
X10979586Y-17912484D01*
X10979586Y-17912484D02*
X10998634Y-17922008D01*
X10998634Y-17922008D02*
X11008158Y-17931531D01*
X11008158Y-17931531D02*
X11017682Y-17950579D01*
X11017682Y-17950579D02*
X11027205Y-17988674D01*
X11027205Y-17988674D02*
X11027205Y-18036293D01*
X11027205Y-18036293D02*
X11017682Y-18074389D01*
X11017682Y-18074389D02*
X11008158Y-18093436D01*
X11008158Y-18093436D02*
X10998634Y-18102960D01*
X10998634Y-18102960D02*
X10979586Y-18112484D01*
X10979586Y-18112484D02*
X10960539Y-18112484D01*
X10960539Y-18112484D02*
X10941491Y-18102960D01*
X10941491Y-18102960D02*
X10931967Y-18093436D01*
X10931967Y-18093436D02*
X10922444Y-18074389D01*
X10922444Y-18074389D02*
X10912920Y-18036293D01*
X10912920Y-18036293D02*
X10912920Y-17988674D01*
X10912920Y-17988674D02*
X10922444Y-17950579D01*
X10922444Y-17950579D02*
X10931967Y-17931531D01*
X10931967Y-17931531D02*
X10941491Y-17922008D01*
X10941491Y-17922008D02*
X10960539Y-17912484D01*
X11112920Y-18112484D02*
X11112920Y-17979150D01*
X11112920Y-17998198D02*
X11122444Y-17988674D01*
X11122444Y-17988674D02*
X11141491Y-17979150D01*
X11141491Y-17979150D02*
X11170063Y-17979150D01*
X11170063Y-17979150D02*
X11189110Y-17988674D01*
X11189110Y-17988674D02*
X11198634Y-18007722D01*
X11198634Y-18007722D02*
X11198634Y-18112484D01*
X11198634Y-18007722D02*
X11208158Y-17988674D01*
X11208158Y-17988674D02*
X11227205Y-17979150D01*
X11227205Y-17979150D02*
X11255777Y-17979150D01*
X11255777Y-17979150D02*
X11274824Y-17988674D01*
X11274824Y-17988674D02*
X11284348Y-18007722D01*
X11284348Y-18007722D02*
X11284348Y-18112484D01*
X11379586Y-18112484D02*
X11379586Y-17979150D01*
X11379586Y-17998198D02*
X11389110Y-17988674D01*
X11389110Y-17988674D02*
X11408158Y-17979150D01*
X11408158Y-17979150D02*
X11436729Y-17979150D01*
X11436729Y-17979150D02*
X11455777Y-17988674D01*
X11455777Y-17988674D02*
X11465301Y-18007722D01*
X11465301Y-18007722D02*
X11465301Y-18112484D01*
X11465301Y-18007722D02*
X11474824Y-17988674D01*
X11474824Y-17988674D02*
X11493872Y-17979150D01*
X11493872Y-17979150D02*
X11522443Y-17979150D01*
X11522443Y-17979150D02*
X11541491Y-17988674D01*
X11541491Y-17988674D02*
X11551015Y-18007722D01*
X11551015Y-18007722D02*
X11551015Y-18112484D01*
X11941491Y-17902960D02*
X11770063Y-18160103D01*
X12198634Y-17912484D02*
X12217682Y-17912484D01*
X12217682Y-17912484D02*
X12236729Y-17922008D01*
X12236729Y-17922008D02*
X12246253Y-17931531D01*
X12246253Y-17931531D02*
X12255777Y-17950579D01*
X12255777Y-17950579D02*
X12265301Y-17988674D01*
X12265301Y-17988674D02*
X12265301Y-18036293D01*
X12265301Y-18036293D02*
X12255777Y-18074389D01*
X12255777Y-18074389D02*
X12246253Y-18093436D01*
X12246253Y-18093436D02*
X12236729Y-18102960D01*
X12236729Y-18102960D02*
X12217682Y-18112484D01*
X12217682Y-18112484D02*
X12198634Y-18112484D01*
X12198634Y-18112484D02*
X12179586Y-18102960D01*
X12179586Y-18102960D02*
X12170063Y-18093436D01*
X12170063Y-18093436D02*
X12160539Y-18074389D01*
X12160539Y-18074389D02*
X12151015Y-18036293D01*
X12151015Y-18036293D02*
X12151015Y-17988674D01*
X12151015Y-17988674D02*
X12160539Y-17950579D01*
X12160539Y-17950579D02*
X12170063Y-17931531D01*
X12170063Y-17931531D02*
X12179586Y-17922008D01*
X12179586Y-17922008D02*
X12198634Y-17912484D01*
X12351015Y-18093436D02*
X12360539Y-18102960D01*
X12360539Y-18102960D02*
X12351015Y-18112484D01*
X12351015Y-18112484D02*
X12341491Y-18102960D01*
X12341491Y-18102960D02*
X12351015Y-18093436D01*
X12351015Y-18093436D02*
X12351015Y-18112484D01*
X12484348Y-17912484D02*
X12503396Y-17912484D01*
X12503396Y-17912484D02*
X12522444Y-17922008D01*
X12522444Y-17922008D02*
X12531967Y-17931531D01*
X12531967Y-17931531D02*
X12541491Y-17950579D01*
X12541491Y-17950579D02*
X12551015Y-17988674D01*
X12551015Y-17988674D02*
X12551015Y-18036293D01*
X12551015Y-18036293D02*
X12541491Y-18074389D01*
X12541491Y-18074389D02*
X12531967Y-18093436D01*
X12531967Y-18093436D02*
X12522444Y-18102960D01*
X12522444Y-18102960D02*
X12503396Y-18112484D01*
X12503396Y-18112484D02*
X12484348Y-18112484D01*
X12484348Y-18112484D02*
X12465301Y-18102960D01*
X12465301Y-18102960D02*
X12455777Y-18093436D01*
X12455777Y-18093436D02*
X12446253Y-18074389D01*
X12446253Y-18074389D02*
X12436729Y-18036293D01*
X12436729Y-18036293D02*
X12436729Y-17988674D01*
X12436729Y-17988674D02*
X12446253Y-17950579D01*
X12446253Y-17950579D02*
X12455777Y-17931531D01*
X12455777Y-17931531D02*
X12465301Y-17922008D01*
X12465301Y-17922008D02*
X12484348Y-17912484D01*
X12617682Y-17912484D02*
X12741491Y-17912484D01*
X12741491Y-17912484D02*
X12674825Y-17988674D01*
X12674825Y-17988674D02*
X12703396Y-17988674D01*
X12703396Y-17988674D02*
X12722444Y-17998198D01*
X12722444Y-17998198D02*
X12731967Y-18007722D01*
X12731967Y-18007722D02*
X12741491Y-18026770D01*
X12741491Y-18026770D02*
X12741491Y-18074389D01*
X12741491Y-18074389D02*
X12731967Y-18093436D01*
X12731967Y-18093436D02*
X12722444Y-18102960D01*
X12722444Y-18102960D02*
X12703396Y-18112484D01*
X12703396Y-18112484D02*
X12646253Y-18112484D01*
X12646253Y-18112484D02*
X12627206Y-18102960D01*
X12627206Y-18102960D02*
X12617682Y-18093436D01*
X12931967Y-18112484D02*
X12817682Y-18112484D01*
X12874825Y-18112484D02*
X12874825Y-17912484D01*
X12874825Y-17912484D02*
X12855777Y-17941055D01*
X12855777Y-17941055D02*
X12836729Y-17960103D01*
X12836729Y-17960103D02*
X12817682Y-17969627D01*
X13112920Y-17912484D02*
X13017682Y-17912484D01*
X13017682Y-17912484D02*
X13008158Y-18007722D01*
X13008158Y-18007722D02*
X13017682Y-17998198D01*
X13017682Y-17998198D02*
X13036729Y-17988674D01*
X13036729Y-17988674D02*
X13084348Y-17988674D01*
X13084348Y-17988674D02*
X13103396Y-17998198D01*
X13103396Y-17998198D02*
X13112920Y-18007722D01*
X13112920Y-18007722D02*
X13122444Y-18026770D01*
X13122444Y-18026770D02*
X13122444Y-18074389D01*
X13122444Y-18074389D02*
X13112920Y-18093436D01*
X13112920Y-18093436D02*
X13103396Y-18102960D01*
X13103396Y-18102960D02*
X13084348Y-18112484D01*
X13084348Y-18112484D02*
X13036729Y-18112484D01*
X13036729Y-18112484D02*
X13017682Y-18102960D01*
X13017682Y-18102960D02*
X13008158Y-18093436D01*
X13198634Y-17912484D02*
X13198634Y-17950579D01*
X13274825Y-17912484D02*
X13274825Y-17950579D01*
X13570063Y-18188674D02*
X13560539Y-18179150D01*
X13560539Y-18179150D02*
X13541491Y-18150579D01*
X13541491Y-18150579D02*
X13531968Y-18131531D01*
X13531968Y-18131531D02*
X13522444Y-18102960D01*
X13522444Y-18102960D02*
X13512920Y-18055341D01*
X13512920Y-18055341D02*
X13512920Y-18017246D01*
X13512920Y-18017246D02*
X13522444Y-17969627D01*
X13522444Y-17969627D02*
X13531968Y-17941055D01*
X13531968Y-17941055D02*
X13541491Y-17922008D01*
X13541491Y-17922008D02*
X13560539Y-17893436D01*
X13560539Y-17893436D02*
X13570063Y-17883912D01*
X13731968Y-17912484D02*
X13693872Y-17912484D01*
X13693872Y-17912484D02*
X13674825Y-17922008D01*
X13674825Y-17922008D02*
X13665301Y-17931531D01*
X13665301Y-17931531D02*
X13646253Y-17960103D01*
X13646253Y-17960103D02*
X13636729Y-17998198D01*
X13636729Y-17998198D02*
X13636729Y-18074389D01*
X13636729Y-18074389D02*
X13646253Y-18093436D01*
X13646253Y-18093436D02*
X13655777Y-18102960D01*
X13655777Y-18102960D02*
X13674825Y-18112484D01*
X13674825Y-18112484D02*
X13712920Y-18112484D01*
X13712920Y-18112484D02*
X13731968Y-18102960D01*
X13731968Y-18102960D02*
X13741491Y-18093436D01*
X13741491Y-18093436D02*
X13751015Y-18074389D01*
X13751015Y-18074389D02*
X13751015Y-18026770D01*
X13751015Y-18026770D02*
X13741491Y-18007722D01*
X13741491Y-18007722D02*
X13731968Y-17998198D01*
X13731968Y-17998198D02*
X13712920Y-17988674D01*
X13712920Y-17988674D02*
X13674825Y-17988674D01*
X13674825Y-17988674D02*
X13655777Y-17998198D01*
X13655777Y-17998198D02*
X13646253Y-18007722D01*
X13646253Y-18007722D02*
X13636729Y-18026770D01*
X13989110Y-18112484D02*
X13989110Y-17912484D01*
X14074825Y-18112484D02*
X14074825Y-18007722D01*
X14074825Y-18007722D02*
X14065301Y-17988674D01*
X14065301Y-17988674D02*
X14046253Y-17979150D01*
X14046253Y-17979150D02*
X14017682Y-17979150D01*
X14017682Y-17979150D02*
X13998634Y-17988674D01*
X13998634Y-17988674D02*
X13989110Y-17998198D01*
X14198634Y-18112484D02*
X14179587Y-18102960D01*
X14179587Y-18102960D02*
X14170063Y-18093436D01*
X14170063Y-18093436D02*
X14160539Y-18074389D01*
X14160539Y-18074389D02*
X14160539Y-18017246D01*
X14160539Y-18017246D02*
X14170063Y-17998198D01*
X14170063Y-17998198D02*
X14179587Y-17988674D01*
X14179587Y-17988674D02*
X14198634Y-17979150D01*
X14198634Y-17979150D02*
X14227206Y-17979150D01*
X14227206Y-17979150D02*
X14246253Y-17988674D01*
X14246253Y-17988674D02*
X14255777Y-17998198D01*
X14255777Y-17998198D02*
X14265301Y-18017246D01*
X14265301Y-18017246D02*
X14265301Y-18074389D01*
X14265301Y-18074389D02*
X14255777Y-18093436D01*
X14255777Y-18093436D02*
X14246253Y-18102960D01*
X14246253Y-18102960D02*
X14227206Y-18112484D01*
X14227206Y-18112484D02*
X14198634Y-18112484D01*
X14379587Y-18112484D02*
X14360539Y-18102960D01*
X14360539Y-18102960D02*
X14351015Y-18083912D01*
X14351015Y-18083912D02*
X14351015Y-17912484D01*
X14531968Y-18102960D02*
X14512920Y-18112484D01*
X14512920Y-18112484D02*
X14474825Y-18112484D01*
X14474825Y-18112484D02*
X14455777Y-18102960D01*
X14455777Y-18102960D02*
X14446253Y-18083912D01*
X14446253Y-18083912D02*
X14446253Y-18007722D01*
X14446253Y-18007722D02*
X14455777Y-17988674D01*
X14455777Y-17988674D02*
X14474825Y-17979150D01*
X14474825Y-17979150D02*
X14512920Y-17979150D01*
X14512920Y-17979150D02*
X14531968Y-17988674D01*
X14531968Y-17988674D02*
X14541491Y-18007722D01*
X14541491Y-18007722D02*
X14541491Y-18026770D01*
X14541491Y-18026770D02*
X14446253Y-18045817D01*
X14617682Y-18102960D02*
X14636730Y-18112484D01*
X14636730Y-18112484D02*
X14674825Y-18112484D01*
X14674825Y-18112484D02*
X14693872Y-18102960D01*
X14693872Y-18102960D02*
X14703396Y-18083912D01*
X14703396Y-18083912D02*
X14703396Y-18074389D01*
X14703396Y-18074389D02*
X14693872Y-18055341D01*
X14693872Y-18055341D02*
X14674825Y-18045817D01*
X14674825Y-18045817D02*
X14646253Y-18045817D01*
X14646253Y-18045817D02*
X14627206Y-18036293D01*
X14627206Y-18036293D02*
X14617682Y-18017246D01*
X14617682Y-18017246D02*
X14617682Y-18007722D01*
X14617682Y-18007722D02*
X14627206Y-17988674D01*
X14627206Y-17988674D02*
X14646253Y-17979150D01*
X14646253Y-17979150D02*
X14674825Y-17979150D01*
X14674825Y-17979150D02*
X14693872Y-17988674D01*
X14770063Y-18188674D02*
X14779587Y-18179150D01*
X14779587Y-18179150D02*
X14798634Y-18150579D01*
X14798634Y-18150579D02*
X14808158Y-18131531D01*
X14808158Y-18131531D02*
X14817682Y-18102960D01*
X14817682Y-18102960D02*
X14827206Y-18055341D01*
X14827206Y-18055341D02*
X14827206Y-18017246D01*
X14827206Y-18017246D02*
X14817682Y-17969627D01*
X14817682Y-17969627D02*
X14808158Y-17941055D01*
X14808158Y-17941055D02*
X14798634Y-17922008D01*
X14798634Y-17922008D02*
X14779587Y-17893436D01*
X14779587Y-17893436D02*
X14770063Y-17883912D01*
D10*
X9905000Y-18240000D02*
X9995000Y-18330000D01*
X9995000Y-18240000D02*
X9905000Y-18330000D01*
X9995000Y-18285000D02*
G75*
G02*
X9905000Y-18285000I-45000J0D01*
G01*
X9905000Y-18285000D02*
G75*
G02*
X9995000Y-18285000I45000J0D01*
G01*
D11*
X10293872Y-18176484D02*
X10312920Y-18176484D01*
X10312920Y-18176484D02*
X10331967Y-18186008D01*
X10331967Y-18186008D02*
X10341491Y-18195531D01*
X10341491Y-18195531D02*
X10351015Y-18214579D01*
X10351015Y-18214579D02*
X10360539Y-18252674D01*
X10360539Y-18252674D02*
X10360539Y-18300293D01*
X10360539Y-18300293D02*
X10351015Y-18338389D01*
X10351015Y-18338389D02*
X10341491Y-18357436D01*
X10341491Y-18357436D02*
X10331967Y-18366960D01*
X10331967Y-18366960D02*
X10312920Y-18376484D01*
X10312920Y-18376484D02*
X10293872Y-18376484D01*
X10293872Y-18376484D02*
X10274824Y-18366960D01*
X10274824Y-18366960D02*
X10265301Y-18357436D01*
X10265301Y-18357436D02*
X10255777Y-18338389D01*
X10255777Y-18338389D02*
X10246253Y-18300293D01*
X10246253Y-18300293D02*
X10246253Y-18252674D01*
X10246253Y-18252674D02*
X10255777Y-18214579D01*
X10255777Y-18214579D02*
X10265301Y-18195531D01*
X10265301Y-18195531D02*
X10274824Y-18186008D01*
X10274824Y-18186008D02*
X10293872Y-18176484D01*
X10446253Y-18357436D02*
X10455777Y-18366960D01*
X10455777Y-18366960D02*
X10446253Y-18376484D01*
X10446253Y-18376484D02*
X10436729Y-18366960D01*
X10436729Y-18366960D02*
X10446253Y-18357436D01*
X10446253Y-18357436D02*
X10446253Y-18376484D01*
X10551015Y-18376484D02*
X10589110Y-18376484D01*
X10589110Y-18376484D02*
X10608158Y-18366960D01*
X10608158Y-18366960D02*
X10617682Y-18357436D01*
X10617682Y-18357436D02*
X10636729Y-18328865D01*
X10636729Y-18328865D02*
X10646253Y-18290770D01*
X10646253Y-18290770D02*
X10646253Y-18214579D01*
X10646253Y-18214579D02*
X10636729Y-18195531D01*
X10636729Y-18195531D02*
X10627205Y-18186008D01*
X10627205Y-18186008D02*
X10608158Y-18176484D01*
X10608158Y-18176484D02*
X10570063Y-18176484D01*
X10570063Y-18176484D02*
X10551015Y-18186008D01*
X10551015Y-18186008D02*
X10541491Y-18195531D01*
X10541491Y-18195531D02*
X10531967Y-18214579D01*
X10531967Y-18214579D02*
X10531967Y-18262198D01*
X10531967Y-18262198D02*
X10541491Y-18281246D01*
X10541491Y-18281246D02*
X10551015Y-18290770D01*
X10551015Y-18290770D02*
X10570063Y-18300293D01*
X10570063Y-18300293D02*
X10608158Y-18300293D01*
X10608158Y-18300293D02*
X10627205Y-18290770D01*
X10627205Y-18290770D02*
X10636729Y-18281246D01*
X10636729Y-18281246D02*
X10646253Y-18262198D01*
X10770063Y-18176484D02*
X10789110Y-18176484D01*
X10789110Y-18176484D02*
X10808158Y-18186008D01*
X10808158Y-18186008D02*
X10817682Y-18195531D01*
X10817682Y-18195531D02*
X10827205Y-18214579D01*
X10827205Y-18214579D02*
X10836729Y-18252674D01*
X10836729Y-18252674D02*
X10836729Y-18300293D01*
X10836729Y-18300293D02*
X10827205Y-18338389D01*
X10827205Y-18338389D02*
X10817682Y-18357436D01*
X10817682Y-18357436D02*
X10808158Y-18366960D01*
X10808158Y-18366960D02*
X10789110Y-18376484D01*
X10789110Y-18376484D02*
X10770063Y-18376484D01*
X10770063Y-18376484D02*
X10751015Y-18366960D01*
X10751015Y-18366960D02*
X10741491Y-18357436D01*
X10741491Y-18357436D02*
X10731967Y-18338389D01*
X10731967Y-18338389D02*
X10722444Y-18300293D01*
X10722444Y-18300293D02*
X10722444Y-18252674D01*
X10722444Y-18252674D02*
X10731967Y-18214579D01*
X10731967Y-18214579D02*
X10741491Y-18195531D01*
X10741491Y-18195531D02*
X10751015Y-18186008D01*
X10751015Y-18186008D02*
X10770063Y-18176484D01*
X10960539Y-18176484D02*
X10979586Y-18176484D01*
X10979586Y-18176484D02*
X10998634Y-18186008D01*
X10998634Y-18186008D02*
X11008158Y-18195531D01*
X11008158Y-18195531D02*
X11017682Y-18214579D01*
X11017682Y-18214579D02*
X11027205Y-18252674D01*
X11027205Y-18252674D02*
X11027205Y-18300293D01*
X11027205Y-18300293D02*
X11017682Y-18338389D01*
X11017682Y-18338389D02*
X11008158Y-18357436D01*
X11008158Y-18357436D02*
X10998634Y-18366960D01*
X10998634Y-18366960D02*
X10979586Y-18376484D01*
X10979586Y-18376484D02*
X10960539Y-18376484D01*
X10960539Y-18376484D02*
X10941491Y-18366960D01*
X10941491Y-18366960D02*
X10931967Y-18357436D01*
X10931967Y-18357436D02*
X10922444Y-18338389D01*
X10922444Y-18338389D02*
X10912920Y-18300293D01*
X10912920Y-18300293D02*
X10912920Y-18252674D01*
X10912920Y-18252674D02*
X10922444Y-18214579D01*
X10922444Y-18214579D02*
X10931967Y-18195531D01*
X10931967Y-18195531D02*
X10941491Y-18186008D01*
X10941491Y-18186008D02*
X10960539Y-18176484D01*
X11112920Y-18376484D02*
X11112920Y-18243150D01*
X11112920Y-18262198D02*
X11122444Y-18252674D01*
X11122444Y-18252674D02*
X11141491Y-18243150D01*
X11141491Y-18243150D02*
X11170063Y-18243150D01*
X11170063Y-18243150D02*
X11189110Y-18252674D01*
X11189110Y-18252674D02*
X11198634Y-18271722D01*
X11198634Y-18271722D02*
X11198634Y-18376484D01*
X11198634Y-18271722D02*
X11208158Y-18252674D01*
X11208158Y-18252674D02*
X11227205Y-18243150D01*
X11227205Y-18243150D02*
X11255777Y-18243150D01*
X11255777Y-18243150D02*
X11274824Y-18252674D01*
X11274824Y-18252674D02*
X11284348Y-18271722D01*
X11284348Y-18271722D02*
X11284348Y-18376484D01*
X11379586Y-18376484D02*
X11379586Y-18243150D01*
X11379586Y-18262198D02*
X11389110Y-18252674D01*
X11389110Y-18252674D02*
X11408158Y-18243150D01*
X11408158Y-18243150D02*
X11436729Y-18243150D01*
X11436729Y-18243150D02*
X11455777Y-18252674D01*
X11455777Y-18252674D02*
X11465301Y-18271722D01*
X11465301Y-18271722D02*
X11465301Y-18376484D01*
X11465301Y-18271722D02*
X11474824Y-18252674D01*
X11474824Y-18252674D02*
X11493872Y-18243150D01*
X11493872Y-18243150D02*
X11522443Y-18243150D01*
X11522443Y-18243150D02*
X11541491Y-18252674D01*
X11541491Y-18252674D02*
X11551015Y-18271722D01*
X11551015Y-18271722D02*
X11551015Y-18376484D01*
X11941491Y-18166960D02*
X11770063Y-18424103D01*
X12198634Y-18176484D02*
X12217682Y-18176484D01*
X12217682Y-18176484D02*
X12236729Y-18186008D01*
X12236729Y-18186008D02*
X12246253Y-18195531D01*
X12246253Y-18195531D02*
X12255777Y-18214579D01*
X12255777Y-18214579D02*
X12265301Y-18252674D01*
X12265301Y-18252674D02*
X12265301Y-18300293D01*
X12265301Y-18300293D02*
X12255777Y-18338389D01*
X12255777Y-18338389D02*
X12246253Y-18357436D01*
X12246253Y-18357436D02*
X12236729Y-18366960D01*
X12236729Y-18366960D02*
X12217682Y-18376484D01*
X12217682Y-18376484D02*
X12198634Y-18376484D01*
X12198634Y-18376484D02*
X12179586Y-18366960D01*
X12179586Y-18366960D02*
X12170063Y-18357436D01*
X12170063Y-18357436D02*
X12160539Y-18338389D01*
X12160539Y-18338389D02*
X12151015Y-18300293D01*
X12151015Y-18300293D02*
X12151015Y-18252674D01*
X12151015Y-18252674D02*
X12160539Y-18214579D01*
X12160539Y-18214579D02*
X12170063Y-18195531D01*
X12170063Y-18195531D02*
X12179586Y-18186008D01*
X12179586Y-18186008D02*
X12198634Y-18176484D01*
X12351015Y-18357436D02*
X12360539Y-18366960D01*
X12360539Y-18366960D02*
X12351015Y-18376484D01*
X12351015Y-18376484D02*
X12341491Y-18366960D01*
X12341491Y-18366960D02*
X12351015Y-18357436D01*
X12351015Y-18357436D02*
X12351015Y-18376484D01*
X12484348Y-18176484D02*
X12503396Y-18176484D01*
X12503396Y-18176484D02*
X12522444Y-18186008D01*
X12522444Y-18186008D02*
X12531967Y-18195531D01*
X12531967Y-18195531D02*
X12541491Y-18214579D01*
X12541491Y-18214579D02*
X12551015Y-18252674D01*
X12551015Y-18252674D02*
X12551015Y-18300293D01*
X12551015Y-18300293D02*
X12541491Y-18338389D01*
X12541491Y-18338389D02*
X12531967Y-18357436D01*
X12531967Y-18357436D02*
X12522444Y-18366960D01*
X12522444Y-18366960D02*
X12503396Y-18376484D01*
X12503396Y-18376484D02*
X12484348Y-18376484D01*
X12484348Y-18376484D02*
X12465301Y-18366960D01*
X12465301Y-18366960D02*
X12455777Y-18357436D01*
X12455777Y-18357436D02*
X12446253Y-18338389D01*
X12446253Y-18338389D02*
X12436729Y-18300293D01*
X12436729Y-18300293D02*
X12436729Y-18252674D01*
X12436729Y-18252674D02*
X12446253Y-18214579D01*
X12446253Y-18214579D02*
X12455777Y-18195531D01*
X12455777Y-18195531D02*
X12465301Y-18186008D01*
X12465301Y-18186008D02*
X12484348Y-18176484D01*
X12617682Y-18176484D02*
X12741491Y-18176484D01*
X12741491Y-18176484D02*
X12674825Y-18252674D01*
X12674825Y-18252674D02*
X12703396Y-18252674D01*
X12703396Y-18252674D02*
X12722444Y-18262198D01*
X12722444Y-18262198D02*
X12731967Y-18271722D01*
X12731967Y-18271722D02*
X12741491Y-18290770D01*
X12741491Y-18290770D02*
X12741491Y-18338389D01*
X12741491Y-18338389D02*
X12731967Y-18357436D01*
X12731967Y-18357436D02*
X12722444Y-18366960D01*
X12722444Y-18366960D02*
X12703396Y-18376484D01*
X12703396Y-18376484D02*
X12646253Y-18376484D01*
X12646253Y-18376484D02*
X12627206Y-18366960D01*
X12627206Y-18366960D02*
X12617682Y-18357436D01*
X12922444Y-18176484D02*
X12827206Y-18176484D01*
X12827206Y-18176484D02*
X12817682Y-18271722D01*
X12817682Y-18271722D02*
X12827206Y-18262198D01*
X12827206Y-18262198D02*
X12846253Y-18252674D01*
X12846253Y-18252674D02*
X12893872Y-18252674D01*
X12893872Y-18252674D02*
X12912920Y-18262198D01*
X12912920Y-18262198D02*
X12922444Y-18271722D01*
X12922444Y-18271722D02*
X12931967Y-18290770D01*
X12931967Y-18290770D02*
X12931967Y-18338389D01*
X12931967Y-18338389D02*
X12922444Y-18357436D01*
X12922444Y-18357436D02*
X12912920Y-18366960D01*
X12912920Y-18366960D02*
X12893872Y-18376484D01*
X12893872Y-18376484D02*
X12846253Y-18376484D01*
X12846253Y-18376484D02*
X12827206Y-18366960D01*
X12827206Y-18366960D02*
X12817682Y-18357436D01*
X13103396Y-18243150D02*
X13103396Y-18376484D01*
X13055777Y-18166960D02*
X13008158Y-18309817D01*
X13008158Y-18309817D02*
X13131967Y-18309817D01*
X13198634Y-18176484D02*
X13198634Y-18214579D01*
X13274825Y-18176484D02*
X13274825Y-18214579D01*
X13570063Y-18452674D02*
X13560539Y-18443150D01*
X13560539Y-18443150D02*
X13541491Y-18414579D01*
X13541491Y-18414579D02*
X13531968Y-18395531D01*
X13531968Y-18395531D02*
X13522444Y-18366960D01*
X13522444Y-18366960D02*
X13512920Y-18319341D01*
X13512920Y-18319341D02*
X13512920Y-18281246D01*
X13512920Y-18281246D02*
X13522444Y-18233627D01*
X13522444Y-18233627D02*
X13531968Y-18205055D01*
X13531968Y-18205055D02*
X13541491Y-18186008D01*
X13541491Y-18186008D02*
X13560539Y-18157436D01*
X13560539Y-18157436D02*
X13570063Y-18147912D01*
X13731968Y-18243150D02*
X13731968Y-18376484D01*
X13684348Y-18166960D02*
X13636729Y-18309817D01*
X13636729Y-18309817D02*
X13760539Y-18309817D01*
X13989110Y-18376484D02*
X13989110Y-18176484D01*
X14074825Y-18376484D02*
X14074825Y-18271722D01*
X14074825Y-18271722D02*
X14065301Y-18252674D01*
X14065301Y-18252674D02*
X14046253Y-18243150D01*
X14046253Y-18243150D02*
X14017682Y-18243150D01*
X14017682Y-18243150D02*
X13998634Y-18252674D01*
X13998634Y-18252674D02*
X13989110Y-18262198D01*
X14198634Y-18376484D02*
X14179587Y-18366960D01*
X14179587Y-18366960D02*
X14170063Y-18357436D01*
X14170063Y-18357436D02*
X14160539Y-18338389D01*
X14160539Y-18338389D02*
X14160539Y-18281246D01*
X14160539Y-18281246D02*
X14170063Y-18262198D01*
X14170063Y-18262198D02*
X14179587Y-18252674D01*
X14179587Y-18252674D02*
X14198634Y-18243150D01*
X14198634Y-18243150D02*
X14227206Y-18243150D01*
X14227206Y-18243150D02*
X14246253Y-18252674D01*
X14246253Y-18252674D02*
X14255777Y-18262198D01*
X14255777Y-18262198D02*
X14265301Y-18281246D01*
X14265301Y-18281246D02*
X14265301Y-18338389D01*
X14265301Y-18338389D02*
X14255777Y-18357436D01*
X14255777Y-18357436D02*
X14246253Y-18366960D01*
X14246253Y-18366960D02*
X14227206Y-18376484D01*
X14227206Y-18376484D02*
X14198634Y-18376484D01*
X14379587Y-18376484D02*
X14360539Y-18366960D01*
X14360539Y-18366960D02*
X14351015Y-18347912D01*
X14351015Y-18347912D02*
X14351015Y-18176484D01*
X14531968Y-18366960D02*
X14512920Y-18376484D01*
X14512920Y-18376484D02*
X14474825Y-18376484D01*
X14474825Y-18376484D02*
X14455777Y-18366960D01*
X14455777Y-18366960D02*
X14446253Y-18347912D01*
X14446253Y-18347912D02*
X14446253Y-18271722D01*
X14446253Y-18271722D02*
X14455777Y-18252674D01*
X14455777Y-18252674D02*
X14474825Y-18243150D01*
X14474825Y-18243150D02*
X14512920Y-18243150D01*
X14512920Y-18243150D02*
X14531968Y-18252674D01*
X14531968Y-18252674D02*
X14541491Y-18271722D01*
X14541491Y-18271722D02*
X14541491Y-18290770D01*
X14541491Y-18290770D02*
X14446253Y-18309817D01*
X14617682Y-18366960D02*
X14636730Y-18376484D01*
X14636730Y-18376484D02*
X14674825Y-18376484D01*
X14674825Y-18376484D02*
X14693872Y-18366960D01*
X14693872Y-18366960D02*
X14703396Y-18347912D01*
X14703396Y-18347912D02*
X14703396Y-18338389D01*
X14703396Y-18338389D02*
X14693872Y-18319341D01*
X14693872Y-18319341D02*
X14674825Y-18309817D01*
X14674825Y-18309817D02*
X14646253Y-18309817D01*
X14646253Y-18309817D02*
X14627206Y-18300293D01*
X14627206Y-18300293D02*
X14617682Y-18281246D01*
X14617682Y-18281246D02*
X14617682Y-18271722D01*
X14617682Y-18271722D02*
X14627206Y-18252674D01*
X14627206Y-18252674D02*
X14646253Y-18243150D01*
X14646253Y-18243150D02*
X14674825Y-18243150D01*
X14674825Y-18243150D02*
X14693872Y-18252674D01*
X14770063Y-18452674D02*
X14779587Y-18443150D01*
X14779587Y-18443150D02*
X14798634Y-18414579D01*
X14798634Y-18414579D02*
X14808158Y-18395531D01*
X14808158Y-18395531D02*
X14817682Y-18366960D01*
X14817682Y-18366960D02*
X14827206Y-18319341D01*
X14827206Y-18319341D02*
X14827206Y-18281246D01*
X14827206Y-18281246D02*
X14817682Y-18233627D01*
X14817682Y-18233627D02*
X14808158Y-18205055D01*
X14808158Y-18205055D02*
X14798634Y-18186008D01*
X14798634Y-18186008D02*
X14779587Y-18157436D01*
X14779587Y-18157436D02*
X14770063Y-18147912D01*
D10*
X9895000Y-18499000D02*
X9995000Y-18599000D01*
X9995000Y-18499000D02*
X9895000Y-18599000D01*
X9945000Y-18499000D02*
X9945000Y-18599000D01*
X9895000Y-18549000D02*
X9995000Y-18549000D01*
D11*
X10360539Y-18640484D02*
X10246253Y-18640484D01*
X10303396Y-18640484D02*
X10303396Y-18440484D01*
X10303396Y-18440484D02*
X10284348Y-18469055D01*
X10284348Y-18469055D02*
X10265301Y-18488103D01*
X10265301Y-18488103D02*
X10246253Y-18497627D01*
X10446253Y-18621436D02*
X10455777Y-18630960D01*
X10455777Y-18630960D02*
X10446253Y-18640484D01*
X10446253Y-18640484D02*
X10436729Y-18630960D01*
X10436729Y-18630960D02*
X10446253Y-18621436D01*
X10446253Y-18621436D02*
X10446253Y-18640484D01*
X10579586Y-18440484D02*
X10598634Y-18440484D01*
X10598634Y-18440484D02*
X10617682Y-18450008D01*
X10617682Y-18450008D02*
X10627205Y-18459531D01*
X10627205Y-18459531D02*
X10636729Y-18478579D01*
X10636729Y-18478579D02*
X10646253Y-18516674D01*
X10646253Y-18516674D02*
X10646253Y-18564293D01*
X10646253Y-18564293D02*
X10636729Y-18602389D01*
X10636729Y-18602389D02*
X10627205Y-18621436D01*
X10627205Y-18621436D02*
X10617682Y-18630960D01*
X10617682Y-18630960D02*
X10598634Y-18640484D01*
X10598634Y-18640484D02*
X10579586Y-18640484D01*
X10579586Y-18640484D02*
X10560539Y-18630960D01*
X10560539Y-18630960D02*
X10551015Y-18621436D01*
X10551015Y-18621436D02*
X10541491Y-18602389D01*
X10541491Y-18602389D02*
X10531967Y-18564293D01*
X10531967Y-18564293D02*
X10531967Y-18516674D01*
X10531967Y-18516674D02*
X10541491Y-18478579D01*
X10541491Y-18478579D02*
X10551015Y-18459531D01*
X10551015Y-18459531D02*
X10560539Y-18450008D01*
X10560539Y-18450008D02*
X10579586Y-18440484D01*
X10770063Y-18440484D02*
X10789110Y-18440484D01*
X10789110Y-18440484D02*
X10808158Y-18450008D01*
X10808158Y-18450008D02*
X10817682Y-18459531D01*
X10817682Y-18459531D02*
X10827205Y-18478579D01*
X10827205Y-18478579D02*
X10836729Y-18516674D01*
X10836729Y-18516674D02*
X10836729Y-18564293D01*
X10836729Y-18564293D02*
X10827205Y-18602389D01*
X10827205Y-18602389D02*
X10817682Y-18621436D01*
X10817682Y-18621436D02*
X10808158Y-18630960D01*
X10808158Y-18630960D02*
X10789110Y-18640484D01*
X10789110Y-18640484D02*
X10770063Y-18640484D01*
X10770063Y-18640484D02*
X10751015Y-18630960D01*
X10751015Y-18630960D02*
X10741491Y-18621436D01*
X10741491Y-18621436D02*
X10731967Y-18602389D01*
X10731967Y-18602389D02*
X10722444Y-18564293D01*
X10722444Y-18564293D02*
X10722444Y-18516674D01*
X10722444Y-18516674D02*
X10731967Y-18478579D01*
X10731967Y-18478579D02*
X10741491Y-18459531D01*
X10741491Y-18459531D02*
X10751015Y-18450008D01*
X10751015Y-18450008D02*
X10770063Y-18440484D01*
X10960539Y-18440484D02*
X10979586Y-18440484D01*
X10979586Y-18440484D02*
X10998634Y-18450008D01*
X10998634Y-18450008D02*
X11008158Y-18459531D01*
X11008158Y-18459531D02*
X11017682Y-18478579D01*
X11017682Y-18478579D02*
X11027205Y-18516674D01*
X11027205Y-18516674D02*
X11027205Y-18564293D01*
X11027205Y-18564293D02*
X11017682Y-18602389D01*
X11017682Y-18602389D02*
X11008158Y-18621436D01*
X11008158Y-18621436D02*
X10998634Y-18630960D01*
X10998634Y-18630960D02*
X10979586Y-18640484D01*
X10979586Y-18640484D02*
X10960539Y-18640484D01*
X10960539Y-18640484D02*
X10941491Y-18630960D01*
X10941491Y-18630960D02*
X10931967Y-18621436D01*
X10931967Y-18621436D02*
X10922444Y-18602389D01*
X10922444Y-18602389D02*
X10912920Y-18564293D01*
X10912920Y-18564293D02*
X10912920Y-18516674D01*
X10912920Y-18516674D02*
X10922444Y-18478579D01*
X10922444Y-18478579D02*
X10931967Y-18459531D01*
X10931967Y-18459531D02*
X10941491Y-18450008D01*
X10941491Y-18450008D02*
X10960539Y-18440484D01*
X11112920Y-18640484D02*
X11112920Y-18507150D01*
X11112920Y-18526198D02*
X11122444Y-18516674D01*
X11122444Y-18516674D02*
X11141491Y-18507150D01*
X11141491Y-18507150D02*
X11170063Y-18507150D01*
X11170063Y-18507150D02*
X11189110Y-18516674D01*
X11189110Y-18516674D02*
X11198634Y-18535722D01*
X11198634Y-18535722D02*
X11198634Y-18640484D01*
X11198634Y-18535722D02*
X11208158Y-18516674D01*
X11208158Y-18516674D02*
X11227205Y-18507150D01*
X11227205Y-18507150D02*
X11255777Y-18507150D01*
X11255777Y-18507150D02*
X11274824Y-18516674D01*
X11274824Y-18516674D02*
X11284348Y-18535722D01*
X11284348Y-18535722D02*
X11284348Y-18640484D01*
X11379586Y-18640484D02*
X11379586Y-18507150D01*
X11379586Y-18526198D02*
X11389110Y-18516674D01*
X11389110Y-18516674D02*
X11408158Y-18507150D01*
X11408158Y-18507150D02*
X11436729Y-18507150D01*
X11436729Y-18507150D02*
X11455777Y-18516674D01*
X11455777Y-18516674D02*
X11465301Y-18535722D01*
X11465301Y-18535722D02*
X11465301Y-18640484D01*
X11465301Y-18535722D02*
X11474824Y-18516674D01*
X11474824Y-18516674D02*
X11493872Y-18507150D01*
X11493872Y-18507150D02*
X11522443Y-18507150D01*
X11522443Y-18507150D02*
X11541491Y-18516674D01*
X11541491Y-18516674D02*
X11551015Y-18535722D01*
X11551015Y-18535722D02*
X11551015Y-18640484D01*
X11941491Y-18430960D02*
X11770063Y-18688103D01*
X12198634Y-18440484D02*
X12217682Y-18440484D01*
X12217682Y-18440484D02*
X12236729Y-18450008D01*
X12236729Y-18450008D02*
X12246253Y-18459531D01*
X12246253Y-18459531D02*
X12255777Y-18478579D01*
X12255777Y-18478579D02*
X12265301Y-18516674D01*
X12265301Y-18516674D02*
X12265301Y-18564293D01*
X12265301Y-18564293D02*
X12255777Y-18602389D01*
X12255777Y-18602389D02*
X12246253Y-18621436D01*
X12246253Y-18621436D02*
X12236729Y-18630960D01*
X12236729Y-18630960D02*
X12217682Y-18640484D01*
X12217682Y-18640484D02*
X12198634Y-18640484D01*
X12198634Y-18640484D02*
X12179586Y-18630960D01*
X12179586Y-18630960D02*
X12170063Y-18621436D01*
X12170063Y-18621436D02*
X12160539Y-18602389D01*
X12160539Y-18602389D02*
X12151015Y-18564293D01*
X12151015Y-18564293D02*
X12151015Y-18516674D01*
X12151015Y-18516674D02*
X12160539Y-18478579D01*
X12160539Y-18478579D02*
X12170063Y-18459531D01*
X12170063Y-18459531D02*
X12179586Y-18450008D01*
X12179586Y-18450008D02*
X12198634Y-18440484D01*
X12351015Y-18621436D02*
X12360539Y-18630960D01*
X12360539Y-18630960D02*
X12351015Y-18640484D01*
X12351015Y-18640484D02*
X12341491Y-18630960D01*
X12341491Y-18630960D02*
X12351015Y-18621436D01*
X12351015Y-18621436D02*
X12351015Y-18640484D01*
X12484348Y-18440484D02*
X12503396Y-18440484D01*
X12503396Y-18440484D02*
X12522444Y-18450008D01*
X12522444Y-18450008D02*
X12531967Y-18459531D01*
X12531967Y-18459531D02*
X12541491Y-18478579D01*
X12541491Y-18478579D02*
X12551015Y-18516674D01*
X12551015Y-18516674D02*
X12551015Y-18564293D01*
X12551015Y-18564293D02*
X12541491Y-18602389D01*
X12541491Y-18602389D02*
X12531967Y-18621436D01*
X12531967Y-18621436D02*
X12522444Y-18630960D01*
X12522444Y-18630960D02*
X12503396Y-18640484D01*
X12503396Y-18640484D02*
X12484348Y-18640484D01*
X12484348Y-18640484D02*
X12465301Y-18630960D01*
X12465301Y-18630960D02*
X12455777Y-18621436D01*
X12455777Y-18621436D02*
X12446253Y-18602389D01*
X12446253Y-18602389D02*
X12436729Y-18564293D01*
X12436729Y-18564293D02*
X12436729Y-18516674D01*
X12436729Y-18516674D02*
X12446253Y-18478579D01*
X12446253Y-18478579D02*
X12455777Y-18459531D01*
X12455777Y-18459531D02*
X12465301Y-18450008D01*
X12465301Y-18450008D02*
X12484348Y-18440484D01*
X12617682Y-18440484D02*
X12741491Y-18440484D01*
X12741491Y-18440484D02*
X12674825Y-18516674D01*
X12674825Y-18516674D02*
X12703396Y-18516674D01*
X12703396Y-18516674D02*
X12722444Y-18526198D01*
X12722444Y-18526198D02*
X12731967Y-18535722D01*
X12731967Y-18535722D02*
X12741491Y-18554770D01*
X12741491Y-18554770D02*
X12741491Y-18602389D01*
X12741491Y-18602389D02*
X12731967Y-18621436D01*
X12731967Y-18621436D02*
X12722444Y-18630960D01*
X12722444Y-18630960D02*
X12703396Y-18640484D01*
X12703396Y-18640484D02*
X12646253Y-18640484D01*
X12646253Y-18640484D02*
X12627206Y-18630960D01*
X12627206Y-18630960D02*
X12617682Y-18621436D01*
X12836729Y-18640484D02*
X12874825Y-18640484D01*
X12874825Y-18640484D02*
X12893872Y-18630960D01*
X12893872Y-18630960D02*
X12903396Y-18621436D01*
X12903396Y-18621436D02*
X12922444Y-18592865D01*
X12922444Y-18592865D02*
X12931967Y-18554770D01*
X12931967Y-18554770D02*
X12931967Y-18478579D01*
X12931967Y-18478579D02*
X12922444Y-18459531D01*
X12922444Y-18459531D02*
X12912920Y-18450008D01*
X12912920Y-18450008D02*
X12893872Y-18440484D01*
X12893872Y-18440484D02*
X12855777Y-18440484D01*
X12855777Y-18440484D02*
X12836729Y-18450008D01*
X12836729Y-18450008D02*
X12827206Y-18459531D01*
X12827206Y-18459531D02*
X12817682Y-18478579D01*
X12817682Y-18478579D02*
X12817682Y-18526198D01*
X12817682Y-18526198D02*
X12827206Y-18545246D01*
X12827206Y-18545246D02*
X12836729Y-18554770D01*
X12836729Y-18554770D02*
X12855777Y-18564293D01*
X12855777Y-18564293D02*
X12893872Y-18564293D01*
X12893872Y-18564293D02*
X12912920Y-18554770D01*
X12912920Y-18554770D02*
X12922444Y-18545246D01*
X12922444Y-18545246D02*
X12931967Y-18526198D01*
X13103396Y-18507150D02*
X13103396Y-18640484D01*
X13055777Y-18430960D02*
X13008158Y-18573817D01*
X13008158Y-18573817D02*
X13131967Y-18573817D01*
X13198634Y-18440484D02*
X13198634Y-18478579D01*
X13274825Y-18440484D02*
X13274825Y-18478579D01*
X13570063Y-18716674D02*
X13560539Y-18707150D01*
X13560539Y-18707150D02*
X13541491Y-18678579D01*
X13541491Y-18678579D02*
X13531968Y-18659531D01*
X13531968Y-18659531D02*
X13522444Y-18630960D01*
X13522444Y-18630960D02*
X13512920Y-18583341D01*
X13512920Y-18583341D02*
X13512920Y-18545246D01*
X13512920Y-18545246D02*
X13522444Y-18497627D01*
X13522444Y-18497627D02*
X13531968Y-18469055D01*
X13531968Y-18469055D02*
X13541491Y-18450008D01*
X13541491Y-18450008D02*
X13560539Y-18421436D01*
X13560539Y-18421436D02*
X13570063Y-18411912D01*
X13751015Y-18640484D02*
X13636729Y-18640484D01*
X13693872Y-18640484D02*
X13693872Y-18440484D01*
X13693872Y-18440484D02*
X13674825Y-18469055D01*
X13674825Y-18469055D02*
X13655777Y-18488103D01*
X13655777Y-18488103D02*
X13636729Y-18497627D01*
X13817682Y-18440484D02*
X13941491Y-18440484D01*
X13941491Y-18440484D02*
X13874825Y-18516674D01*
X13874825Y-18516674D02*
X13903396Y-18516674D01*
X13903396Y-18516674D02*
X13922444Y-18526198D01*
X13922444Y-18526198D02*
X13931968Y-18535722D01*
X13931968Y-18535722D02*
X13941491Y-18554770D01*
X13941491Y-18554770D02*
X13941491Y-18602389D01*
X13941491Y-18602389D02*
X13931968Y-18621436D01*
X13931968Y-18621436D02*
X13922444Y-18630960D01*
X13922444Y-18630960D02*
X13903396Y-18640484D01*
X13903396Y-18640484D02*
X13846253Y-18640484D01*
X13846253Y-18640484D02*
X13827206Y-18630960D01*
X13827206Y-18630960D02*
X13817682Y-18621436D01*
X14179587Y-18640484D02*
X14179587Y-18440484D01*
X14265301Y-18640484D02*
X14265301Y-18535722D01*
X14265301Y-18535722D02*
X14255777Y-18516674D01*
X14255777Y-18516674D02*
X14236730Y-18507150D01*
X14236730Y-18507150D02*
X14208158Y-18507150D01*
X14208158Y-18507150D02*
X14189110Y-18516674D01*
X14189110Y-18516674D02*
X14179587Y-18526198D01*
X14389110Y-18640484D02*
X14370063Y-18630960D01*
X14370063Y-18630960D02*
X14360539Y-18621436D01*
X14360539Y-18621436D02*
X14351015Y-18602389D01*
X14351015Y-18602389D02*
X14351015Y-18545246D01*
X14351015Y-18545246D02*
X14360539Y-18526198D01*
X14360539Y-18526198D02*
X14370063Y-18516674D01*
X14370063Y-18516674D02*
X14389110Y-18507150D01*
X14389110Y-18507150D02*
X14417682Y-18507150D01*
X14417682Y-18507150D02*
X14436730Y-18516674D01*
X14436730Y-18516674D02*
X14446253Y-18526198D01*
X14446253Y-18526198D02*
X14455777Y-18545246D01*
X14455777Y-18545246D02*
X14455777Y-18602389D01*
X14455777Y-18602389D02*
X14446253Y-18621436D01*
X14446253Y-18621436D02*
X14436730Y-18630960D01*
X14436730Y-18630960D02*
X14417682Y-18640484D01*
X14417682Y-18640484D02*
X14389110Y-18640484D01*
X14570063Y-18640484D02*
X14551015Y-18630960D01*
X14551015Y-18630960D02*
X14541491Y-18611912D01*
X14541491Y-18611912D02*
X14541491Y-18440484D01*
X14722444Y-18630960D02*
X14703396Y-18640484D01*
X14703396Y-18640484D02*
X14665301Y-18640484D01*
X14665301Y-18640484D02*
X14646253Y-18630960D01*
X14646253Y-18630960D02*
X14636730Y-18611912D01*
X14636730Y-18611912D02*
X14636730Y-18535722D01*
X14636730Y-18535722D02*
X14646253Y-18516674D01*
X14646253Y-18516674D02*
X14665301Y-18507150D01*
X14665301Y-18507150D02*
X14703396Y-18507150D01*
X14703396Y-18507150D02*
X14722444Y-18516674D01*
X14722444Y-18516674D02*
X14731968Y-18535722D01*
X14731968Y-18535722D02*
X14731968Y-18554770D01*
X14731968Y-18554770D02*
X14636730Y-18573817D01*
X14808158Y-18630960D02*
X14827206Y-18640484D01*
X14827206Y-18640484D02*
X14865301Y-18640484D01*
X14865301Y-18640484D02*
X14884349Y-18630960D01*
X14884349Y-18630960D02*
X14893872Y-18611912D01*
X14893872Y-18611912D02*
X14893872Y-18602389D01*
X14893872Y-18602389D02*
X14884349Y-18583341D01*
X14884349Y-18583341D02*
X14865301Y-18573817D01*
X14865301Y-18573817D02*
X14836730Y-18573817D01*
X14836730Y-18573817D02*
X14817682Y-18564293D01*
X14817682Y-18564293D02*
X14808158Y-18545246D01*
X14808158Y-18545246D02*
X14808158Y-18535722D01*
X14808158Y-18535722D02*
X14817682Y-18516674D01*
X14817682Y-18516674D02*
X14836730Y-18507150D01*
X14836730Y-18507150D02*
X14865301Y-18507150D01*
X14865301Y-18507150D02*
X14884349Y-18516674D01*
X14960539Y-18716674D02*
X14970063Y-18707150D01*
X14970063Y-18707150D02*
X14989111Y-18678579D01*
X14989111Y-18678579D02*
X14998634Y-18659531D01*
X14998634Y-18659531D02*
X15008158Y-18630960D01*
X15008158Y-18630960D02*
X15017682Y-18583341D01*
X15017682Y-18583341D02*
X15017682Y-18545246D01*
X15017682Y-18545246D02*
X15008158Y-18497627D01*
X15008158Y-18497627D02*
X14998634Y-18469055D01*
X14998634Y-18469055D02*
X14989111Y-18450008D01*
X14989111Y-18450008D02*
X14970063Y-18421436D01*
X14970063Y-18421436D02*
X14960539Y-18411912D01*
D12*
X9890000Y-18760500D02*
X9995000Y-18865500D01*
X9995000Y-18760500D02*
X9890000Y-18865500D01*
X9979624Y-18850124D02*
X9979624Y-18775877D01*
X9905377Y-18775877D01*
X9905377Y-18850124D01*
X9979624Y-18850124D01*
D11*
X10360539Y-18904484D02*
X10246253Y-18904484D01*
X10303396Y-18904484D02*
X10303396Y-18704484D01*
X10303396Y-18704484D02*
X10284348Y-18733055D01*
X10284348Y-18733055D02*
X10265301Y-18752103D01*
X10265301Y-18752103D02*
X10246253Y-18761627D01*
X10446253Y-18885436D02*
X10455777Y-18894960D01*
X10455777Y-18894960D02*
X10446253Y-18904484D01*
X10446253Y-18904484D02*
X10436729Y-18894960D01*
X10436729Y-18894960D02*
X10446253Y-18885436D01*
X10446253Y-18885436D02*
X10446253Y-18904484D01*
X10579586Y-18704484D02*
X10598634Y-18704484D01*
X10598634Y-18704484D02*
X10617682Y-18714008D01*
X10617682Y-18714008D02*
X10627205Y-18723531D01*
X10627205Y-18723531D02*
X10636729Y-18742579D01*
X10636729Y-18742579D02*
X10646253Y-18780674D01*
X10646253Y-18780674D02*
X10646253Y-18828293D01*
X10646253Y-18828293D02*
X10636729Y-18866389D01*
X10636729Y-18866389D02*
X10627205Y-18885436D01*
X10627205Y-18885436D02*
X10617682Y-18894960D01*
X10617682Y-18894960D02*
X10598634Y-18904484D01*
X10598634Y-18904484D02*
X10579586Y-18904484D01*
X10579586Y-18904484D02*
X10560539Y-18894960D01*
X10560539Y-18894960D02*
X10551015Y-18885436D01*
X10551015Y-18885436D02*
X10541491Y-18866389D01*
X10541491Y-18866389D02*
X10531967Y-18828293D01*
X10531967Y-18828293D02*
X10531967Y-18780674D01*
X10531967Y-18780674D02*
X10541491Y-18742579D01*
X10541491Y-18742579D02*
X10551015Y-18723531D01*
X10551015Y-18723531D02*
X10560539Y-18714008D01*
X10560539Y-18714008D02*
X10579586Y-18704484D01*
X10827205Y-18704484D02*
X10731967Y-18704484D01*
X10731967Y-18704484D02*
X10722444Y-18799722D01*
X10722444Y-18799722D02*
X10731967Y-18790198D01*
X10731967Y-18790198D02*
X10751015Y-18780674D01*
X10751015Y-18780674D02*
X10798634Y-18780674D01*
X10798634Y-18780674D02*
X10817682Y-18790198D01*
X10817682Y-18790198D02*
X10827205Y-18799722D01*
X10827205Y-18799722D02*
X10836729Y-18818770D01*
X10836729Y-18818770D02*
X10836729Y-18866389D01*
X10836729Y-18866389D02*
X10827205Y-18885436D01*
X10827205Y-18885436D02*
X10817682Y-18894960D01*
X10817682Y-18894960D02*
X10798634Y-18904484D01*
X10798634Y-18904484D02*
X10751015Y-18904484D01*
X10751015Y-18904484D02*
X10731967Y-18894960D01*
X10731967Y-18894960D02*
X10722444Y-18885436D01*
X10960539Y-18704484D02*
X10979586Y-18704484D01*
X10979586Y-18704484D02*
X10998634Y-18714008D01*
X10998634Y-18714008D02*
X11008158Y-18723531D01*
X11008158Y-18723531D02*
X11017682Y-18742579D01*
X11017682Y-18742579D02*
X11027205Y-18780674D01*
X11027205Y-18780674D02*
X11027205Y-18828293D01*
X11027205Y-18828293D02*
X11017682Y-18866389D01*
X11017682Y-18866389D02*
X11008158Y-18885436D01*
X11008158Y-18885436D02*
X10998634Y-18894960D01*
X10998634Y-18894960D02*
X10979586Y-18904484D01*
X10979586Y-18904484D02*
X10960539Y-18904484D01*
X10960539Y-18904484D02*
X10941491Y-18894960D01*
X10941491Y-18894960D02*
X10931967Y-18885436D01*
X10931967Y-18885436D02*
X10922444Y-18866389D01*
X10922444Y-18866389D02*
X10912920Y-18828293D01*
X10912920Y-18828293D02*
X10912920Y-18780674D01*
X10912920Y-18780674D02*
X10922444Y-18742579D01*
X10922444Y-18742579D02*
X10931967Y-18723531D01*
X10931967Y-18723531D02*
X10941491Y-18714008D01*
X10941491Y-18714008D02*
X10960539Y-18704484D01*
X11112920Y-18904484D02*
X11112920Y-18771150D01*
X11112920Y-18790198D02*
X11122444Y-18780674D01*
X11122444Y-18780674D02*
X11141491Y-18771150D01*
X11141491Y-18771150D02*
X11170063Y-18771150D01*
X11170063Y-18771150D02*
X11189110Y-18780674D01*
X11189110Y-18780674D02*
X11198634Y-18799722D01*
X11198634Y-18799722D02*
X11198634Y-18904484D01*
X11198634Y-18799722D02*
X11208158Y-18780674D01*
X11208158Y-18780674D02*
X11227205Y-18771150D01*
X11227205Y-18771150D02*
X11255777Y-18771150D01*
X11255777Y-18771150D02*
X11274824Y-18780674D01*
X11274824Y-18780674D02*
X11284348Y-18799722D01*
X11284348Y-18799722D02*
X11284348Y-18904484D01*
X11379586Y-18904484D02*
X11379586Y-18771150D01*
X11379586Y-18790198D02*
X11389110Y-18780674D01*
X11389110Y-18780674D02*
X11408158Y-18771150D01*
X11408158Y-18771150D02*
X11436729Y-18771150D01*
X11436729Y-18771150D02*
X11455777Y-18780674D01*
X11455777Y-18780674D02*
X11465301Y-18799722D01*
X11465301Y-18799722D02*
X11465301Y-18904484D01*
X11465301Y-18799722D02*
X11474824Y-18780674D01*
X11474824Y-18780674D02*
X11493872Y-18771150D01*
X11493872Y-18771150D02*
X11522443Y-18771150D01*
X11522443Y-18771150D02*
X11541491Y-18780674D01*
X11541491Y-18780674D02*
X11551015Y-18799722D01*
X11551015Y-18799722D02*
X11551015Y-18904484D01*
X11941491Y-18694960D02*
X11770063Y-18952103D01*
X12198634Y-18704484D02*
X12217682Y-18704484D01*
X12217682Y-18704484D02*
X12236729Y-18714008D01*
X12236729Y-18714008D02*
X12246253Y-18723531D01*
X12246253Y-18723531D02*
X12255777Y-18742579D01*
X12255777Y-18742579D02*
X12265301Y-18780674D01*
X12265301Y-18780674D02*
X12265301Y-18828293D01*
X12265301Y-18828293D02*
X12255777Y-18866389D01*
X12255777Y-18866389D02*
X12246253Y-18885436D01*
X12246253Y-18885436D02*
X12236729Y-18894960D01*
X12236729Y-18894960D02*
X12217682Y-18904484D01*
X12217682Y-18904484D02*
X12198634Y-18904484D01*
X12198634Y-18904484D02*
X12179586Y-18894960D01*
X12179586Y-18894960D02*
X12170063Y-18885436D01*
X12170063Y-18885436D02*
X12160539Y-18866389D01*
X12160539Y-18866389D02*
X12151015Y-18828293D01*
X12151015Y-18828293D02*
X12151015Y-18780674D01*
X12151015Y-18780674D02*
X12160539Y-18742579D01*
X12160539Y-18742579D02*
X12170063Y-18723531D01*
X12170063Y-18723531D02*
X12179586Y-18714008D01*
X12179586Y-18714008D02*
X12198634Y-18704484D01*
X12351015Y-18885436D02*
X12360539Y-18894960D01*
X12360539Y-18894960D02*
X12351015Y-18904484D01*
X12351015Y-18904484D02*
X12341491Y-18894960D01*
X12341491Y-18894960D02*
X12351015Y-18885436D01*
X12351015Y-18885436D02*
X12351015Y-18904484D01*
X12484348Y-18704484D02*
X12503396Y-18704484D01*
X12503396Y-18704484D02*
X12522444Y-18714008D01*
X12522444Y-18714008D02*
X12531967Y-18723531D01*
X12531967Y-18723531D02*
X12541491Y-18742579D01*
X12541491Y-18742579D02*
X12551015Y-18780674D01*
X12551015Y-18780674D02*
X12551015Y-18828293D01*
X12551015Y-18828293D02*
X12541491Y-18866389D01*
X12541491Y-18866389D02*
X12531967Y-18885436D01*
X12531967Y-18885436D02*
X12522444Y-18894960D01*
X12522444Y-18894960D02*
X12503396Y-18904484D01*
X12503396Y-18904484D02*
X12484348Y-18904484D01*
X12484348Y-18904484D02*
X12465301Y-18894960D01*
X12465301Y-18894960D02*
X12455777Y-18885436D01*
X12455777Y-18885436D02*
X12446253Y-18866389D01*
X12446253Y-18866389D02*
X12436729Y-18828293D01*
X12436729Y-18828293D02*
X12436729Y-18780674D01*
X12436729Y-18780674D02*
X12446253Y-18742579D01*
X12446253Y-18742579D02*
X12455777Y-18723531D01*
X12455777Y-18723531D02*
X12465301Y-18714008D01*
X12465301Y-18714008D02*
X12484348Y-18704484D01*
X12722444Y-18771150D02*
X12722444Y-18904484D01*
X12674825Y-18694960D02*
X12627206Y-18837817D01*
X12627206Y-18837817D02*
X12751015Y-18837817D01*
X12931967Y-18904484D02*
X12817682Y-18904484D01*
X12874825Y-18904484D02*
X12874825Y-18704484D01*
X12874825Y-18704484D02*
X12855777Y-18733055D01*
X12855777Y-18733055D02*
X12836729Y-18752103D01*
X12836729Y-18752103D02*
X12817682Y-18761627D01*
X12998634Y-18704484D02*
X13122444Y-18704484D01*
X13122444Y-18704484D02*
X13055777Y-18780674D01*
X13055777Y-18780674D02*
X13084348Y-18780674D01*
X13084348Y-18780674D02*
X13103396Y-18790198D01*
X13103396Y-18790198D02*
X13112920Y-18799722D01*
X13112920Y-18799722D02*
X13122444Y-18818770D01*
X13122444Y-18818770D02*
X13122444Y-18866389D01*
X13122444Y-18866389D02*
X13112920Y-18885436D01*
X13112920Y-18885436D02*
X13103396Y-18894960D01*
X13103396Y-18894960D02*
X13084348Y-18904484D01*
X13084348Y-18904484D02*
X13027206Y-18904484D01*
X13027206Y-18904484D02*
X13008158Y-18894960D01*
X13008158Y-18894960D02*
X12998634Y-18885436D01*
X13198634Y-18704484D02*
X13198634Y-18742579D01*
X13274825Y-18704484D02*
X13274825Y-18742579D01*
X13570063Y-18980674D02*
X13560539Y-18971150D01*
X13560539Y-18971150D02*
X13541491Y-18942579D01*
X13541491Y-18942579D02*
X13531968Y-18923531D01*
X13531968Y-18923531D02*
X13522444Y-18894960D01*
X13522444Y-18894960D02*
X13512920Y-18847341D01*
X13512920Y-18847341D02*
X13512920Y-18809246D01*
X13512920Y-18809246D02*
X13522444Y-18761627D01*
X13522444Y-18761627D02*
X13531968Y-18733055D01*
X13531968Y-18733055D02*
X13541491Y-18714008D01*
X13541491Y-18714008D02*
X13560539Y-18685436D01*
X13560539Y-18685436D02*
X13570063Y-18675912D01*
X13731968Y-18771150D02*
X13731968Y-18904484D01*
X13684348Y-18694960D02*
X13636729Y-18837817D01*
X13636729Y-18837817D02*
X13760539Y-18837817D01*
X13989110Y-18904484D02*
X13989110Y-18704484D01*
X14074825Y-18904484D02*
X14074825Y-18799722D01*
X14074825Y-18799722D02*
X14065301Y-18780674D01*
X14065301Y-18780674D02*
X14046253Y-18771150D01*
X14046253Y-18771150D02*
X14017682Y-18771150D01*
X14017682Y-18771150D02*
X13998634Y-18780674D01*
X13998634Y-18780674D02*
X13989110Y-18790198D01*
X14198634Y-18904484D02*
X14179587Y-18894960D01*
X14179587Y-18894960D02*
X14170063Y-18885436D01*
X14170063Y-18885436D02*
X14160539Y-18866389D01*
X14160539Y-18866389D02*
X14160539Y-18809246D01*
X14160539Y-18809246D02*
X14170063Y-18790198D01*
X14170063Y-18790198D02*
X14179587Y-18780674D01*
X14179587Y-18780674D02*
X14198634Y-18771150D01*
X14198634Y-18771150D02*
X14227206Y-18771150D01*
X14227206Y-18771150D02*
X14246253Y-18780674D01*
X14246253Y-18780674D02*
X14255777Y-18790198D01*
X14255777Y-18790198D02*
X14265301Y-18809246D01*
X14265301Y-18809246D02*
X14265301Y-18866389D01*
X14265301Y-18866389D02*
X14255777Y-18885436D01*
X14255777Y-18885436D02*
X14246253Y-18894960D01*
X14246253Y-18894960D02*
X14227206Y-18904484D01*
X14227206Y-18904484D02*
X14198634Y-18904484D01*
X14379587Y-18904484D02*
X14360539Y-18894960D01*
X14360539Y-18894960D02*
X14351015Y-18875912D01*
X14351015Y-18875912D02*
X14351015Y-18704484D01*
X14531968Y-18894960D02*
X14512920Y-18904484D01*
X14512920Y-18904484D02*
X14474825Y-18904484D01*
X14474825Y-18904484D02*
X14455777Y-18894960D01*
X14455777Y-18894960D02*
X14446253Y-18875912D01*
X14446253Y-18875912D02*
X14446253Y-18799722D01*
X14446253Y-18799722D02*
X14455777Y-18780674D01*
X14455777Y-18780674D02*
X14474825Y-18771150D01*
X14474825Y-18771150D02*
X14512920Y-18771150D01*
X14512920Y-18771150D02*
X14531968Y-18780674D01*
X14531968Y-18780674D02*
X14541491Y-18799722D01*
X14541491Y-18799722D02*
X14541491Y-18818770D01*
X14541491Y-18818770D02*
X14446253Y-18837817D01*
X14617682Y-18894960D02*
X14636730Y-18904484D01*
X14636730Y-18904484D02*
X14674825Y-18904484D01*
X14674825Y-18904484D02*
X14693872Y-18894960D01*
X14693872Y-18894960D02*
X14703396Y-18875912D01*
X14703396Y-18875912D02*
X14703396Y-18866389D01*
X14703396Y-18866389D02*
X14693872Y-18847341D01*
X14693872Y-18847341D02*
X14674825Y-18837817D01*
X14674825Y-18837817D02*
X14646253Y-18837817D01*
X14646253Y-18837817D02*
X14627206Y-18828293D01*
X14627206Y-18828293D02*
X14617682Y-18809246D01*
X14617682Y-18809246D02*
X14617682Y-18799722D01*
X14617682Y-18799722D02*
X14627206Y-18780674D01*
X14627206Y-18780674D02*
X14646253Y-18771150D01*
X14646253Y-18771150D02*
X14674825Y-18771150D01*
X14674825Y-18771150D02*
X14693872Y-18780674D01*
X14770063Y-18980674D02*
X14779587Y-18971150D01*
X14779587Y-18971150D02*
X14798634Y-18942579D01*
X14798634Y-18942579D02*
X14808158Y-18923531D01*
X14808158Y-18923531D02*
X14817682Y-18894960D01*
X14817682Y-18894960D02*
X14827206Y-18847341D01*
X14827206Y-18847341D02*
X14827206Y-18809246D01*
X14827206Y-18809246D02*
X14817682Y-18761627D01*
X14817682Y-18761627D02*
X14808158Y-18733055D01*
X14808158Y-18733055D02*
X14798634Y-18714008D01*
X14798634Y-18714008D02*
X14779587Y-18685436D01*
X14779587Y-18685436D02*
X14770063Y-18675912D01*
D13*
X9885000Y-19022000D02*
X9995000Y-19132000D01*
X9995000Y-19022000D02*
X9885000Y-19132000D01*
X9940000Y-19132000D02*
X9995000Y-19077000D01*
X9940000Y-19022000D01*
X9885000Y-19077000D01*
X9940000Y-19132000D01*
D11*
X10360539Y-19168484D02*
X10246253Y-19168484D01*
X10303396Y-19168484D02*
X10303396Y-18968484D01*
X10303396Y-18968484D02*
X10284348Y-18997055D01*
X10284348Y-18997055D02*
X10265301Y-19016103D01*
X10265301Y-19016103D02*
X10246253Y-19025627D01*
X10446253Y-19149436D02*
X10455777Y-19158960D01*
X10455777Y-19158960D02*
X10446253Y-19168484D01*
X10446253Y-19168484D02*
X10436729Y-19158960D01*
X10436729Y-19158960D02*
X10446253Y-19149436D01*
X10446253Y-19149436D02*
X10446253Y-19168484D01*
X10646253Y-19168484D02*
X10531967Y-19168484D01*
X10589110Y-19168484D02*
X10589110Y-18968484D01*
X10589110Y-18968484D02*
X10570063Y-18997055D01*
X10570063Y-18997055D02*
X10551015Y-19016103D01*
X10551015Y-19016103D02*
X10531967Y-19025627D01*
X10770063Y-18968484D02*
X10789110Y-18968484D01*
X10789110Y-18968484D02*
X10808158Y-18978008D01*
X10808158Y-18978008D02*
X10817682Y-18987531D01*
X10817682Y-18987531D02*
X10827205Y-19006579D01*
X10827205Y-19006579D02*
X10836729Y-19044674D01*
X10836729Y-19044674D02*
X10836729Y-19092293D01*
X10836729Y-19092293D02*
X10827205Y-19130389D01*
X10827205Y-19130389D02*
X10817682Y-19149436D01*
X10817682Y-19149436D02*
X10808158Y-19158960D01*
X10808158Y-19158960D02*
X10789110Y-19168484D01*
X10789110Y-19168484D02*
X10770063Y-19168484D01*
X10770063Y-19168484D02*
X10751015Y-19158960D01*
X10751015Y-19158960D02*
X10741491Y-19149436D01*
X10741491Y-19149436D02*
X10731967Y-19130389D01*
X10731967Y-19130389D02*
X10722444Y-19092293D01*
X10722444Y-19092293D02*
X10722444Y-19044674D01*
X10722444Y-19044674D02*
X10731967Y-19006579D01*
X10731967Y-19006579D02*
X10741491Y-18987531D01*
X10741491Y-18987531D02*
X10751015Y-18978008D01*
X10751015Y-18978008D02*
X10770063Y-18968484D01*
X10960539Y-18968484D02*
X10979586Y-18968484D01*
X10979586Y-18968484D02*
X10998634Y-18978008D01*
X10998634Y-18978008D02*
X11008158Y-18987531D01*
X11008158Y-18987531D02*
X11017682Y-19006579D01*
X11017682Y-19006579D02*
X11027205Y-19044674D01*
X11027205Y-19044674D02*
X11027205Y-19092293D01*
X11027205Y-19092293D02*
X11017682Y-19130389D01*
X11017682Y-19130389D02*
X11008158Y-19149436D01*
X11008158Y-19149436D02*
X10998634Y-19158960D01*
X10998634Y-19158960D02*
X10979586Y-19168484D01*
X10979586Y-19168484D02*
X10960539Y-19168484D01*
X10960539Y-19168484D02*
X10941491Y-19158960D01*
X10941491Y-19158960D02*
X10931967Y-19149436D01*
X10931967Y-19149436D02*
X10922444Y-19130389D01*
X10922444Y-19130389D02*
X10912920Y-19092293D01*
X10912920Y-19092293D02*
X10912920Y-19044674D01*
X10912920Y-19044674D02*
X10922444Y-19006579D01*
X10922444Y-19006579D02*
X10931967Y-18987531D01*
X10931967Y-18987531D02*
X10941491Y-18978008D01*
X10941491Y-18978008D02*
X10960539Y-18968484D01*
X11112920Y-19168484D02*
X11112920Y-19035150D01*
X11112920Y-19054198D02*
X11122444Y-19044674D01*
X11122444Y-19044674D02*
X11141491Y-19035150D01*
X11141491Y-19035150D02*
X11170063Y-19035150D01*
X11170063Y-19035150D02*
X11189110Y-19044674D01*
X11189110Y-19044674D02*
X11198634Y-19063722D01*
X11198634Y-19063722D02*
X11198634Y-19168484D01*
X11198634Y-19063722D02*
X11208158Y-19044674D01*
X11208158Y-19044674D02*
X11227205Y-19035150D01*
X11227205Y-19035150D02*
X11255777Y-19035150D01*
X11255777Y-19035150D02*
X11274824Y-19044674D01*
X11274824Y-19044674D02*
X11284348Y-19063722D01*
X11284348Y-19063722D02*
X11284348Y-19168484D01*
X11379586Y-19168484D02*
X11379586Y-19035150D01*
X11379586Y-19054198D02*
X11389110Y-19044674D01*
X11389110Y-19044674D02*
X11408158Y-19035150D01*
X11408158Y-19035150D02*
X11436729Y-19035150D01*
X11436729Y-19035150D02*
X11455777Y-19044674D01*
X11455777Y-19044674D02*
X11465301Y-19063722D01*
X11465301Y-19063722D02*
X11465301Y-19168484D01*
X11465301Y-19063722D02*
X11474824Y-19044674D01*
X11474824Y-19044674D02*
X11493872Y-19035150D01*
X11493872Y-19035150D02*
X11522443Y-19035150D01*
X11522443Y-19035150D02*
X11541491Y-19044674D01*
X11541491Y-19044674D02*
X11551015Y-19063722D01*
X11551015Y-19063722D02*
X11551015Y-19168484D01*
X11941491Y-18958960D02*
X11770063Y-19216103D01*
X12198634Y-18968484D02*
X12217682Y-18968484D01*
X12217682Y-18968484D02*
X12236729Y-18978008D01*
X12236729Y-18978008D02*
X12246253Y-18987531D01*
X12246253Y-18987531D02*
X12255777Y-19006579D01*
X12255777Y-19006579D02*
X12265301Y-19044674D01*
X12265301Y-19044674D02*
X12265301Y-19092293D01*
X12265301Y-19092293D02*
X12255777Y-19130389D01*
X12255777Y-19130389D02*
X12246253Y-19149436D01*
X12246253Y-19149436D02*
X12236729Y-19158960D01*
X12236729Y-19158960D02*
X12217682Y-19168484D01*
X12217682Y-19168484D02*
X12198634Y-19168484D01*
X12198634Y-19168484D02*
X12179586Y-19158960D01*
X12179586Y-19158960D02*
X12170063Y-19149436D01*
X12170063Y-19149436D02*
X12160539Y-19130389D01*
X12160539Y-19130389D02*
X12151015Y-19092293D01*
X12151015Y-19092293D02*
X12151015Y-19044674D01*
X12151015Y-19044674D02*
X12160539Y-19006579D01*
X12160539Y-19006579D02*
X12170063Y-18987531D01*
X12170063Y-18987531D02*
X12179586Y-18978008D01*
X12179586Y-18978008D02*
X12198634Y-18968484D01*
X12351015Y-19149436D02*
X12360539Y-19158960D01*
X12360539Y-19158960D02*
X12351015Y-19168484D01*
X12351015Y-19168484D02*
X12341491Y-19158960D01*
X12341491Y-19158960D02*
X12351015Y-19149436D01*
X12351015Y-19149436D02*
X12351015Y-19168484D01*
X12484348Y-18968484D02*
X12503396Y-18968484D01*
X12503396Y-18968484D02*
X12522444Y-18978008D01*
X12522444Y-18978008D02*
X12531967Y-18987531D01*
X12531967Y-18987531D02*
X12541491Y-19006579D01*
X12541491Y-19006579D02*
X12551015Y-19044674D01*
X12551015Y-19044674D02*
X12551015Y-19092293D01*
X12551015Y-19092293D02*
X12541491Y-19130389D01*
X12541491Y-19130389D02*
X12531967Y-19149436D01*
X12531967Y-19149436D02*
X12522444Y-19158960D01*
X12522444Y-19158960D02*
X12503396Y-19168484D01*
X12503396Y-19168484D02*
X12484348Y-19168484D01*
X12484348Y-19168484D02*
X12465301Y-19158960D01*
X12465301Y-19158960D02*
X12455777Y-19149436D01*
X12455777Y-19149436D02*
X12446253Y-19130389D01*
X12446253Y-19130389D02*
X12436729Y-19092293D01*
X12436729Y-19092293D02*
X12436729Y-19044674D01*
X12436729Y-19044674D02*
X12446253Y-19006579D01*
X12446253Y-19006579D02*
X12455777Y-18987531D01*
X12455777Y-18987531D02*
X12465301Y-18978008D01*
X12465301Y-18978008D02*
X12484348Y-18968484D01*
X12722444Y-19035150D02*
X12722444Y-19168484D01*
X12674825Y-18958960D02*
X12627206Y-19101817D01*
X12627206Y-19101817D02*
X12751015Y-19101817D01*
X12808158Y-18968484D02*
X12931967Y-18968484D01*
X12931967Y-18968484D02*
X12865301Y-19044674D01*
X12865301Y-19044674D02*
X12893872Y-19044674D01*
X12893872Y-19044674D02*
X12912920Y-19054198D01*
X12912920Y-19054198D02*
X12922444Y-19063722D01*
X12922444Y-19063722D02*
X12931967Y-19082770D01*
X12931967Y-19082770D02*
X12931967Y-19130389D01*
X12931967Y-19130389D02*
X12922444Y-19149436D01*
X12922444Y-19149436D02*
X12912920Y-19158960D01*
X12912920Y-19158960D02*
X12893872Y-19168484D01*
X12893872Y-19168484D02*
X12836729Y-19168484D01*
X12836729Y-19168484D02*
X12817682Y-19158960D01*
X12817682Y-19158960D02*
X12808158Y-19149436D01*
X12998634Y-18968484D02*
X13122444Y-18968484D01*
X13122444Y-18968484D02*
X13055777Y-19044674D01*
X13055777Y-19044674D02*
X13084348Y-19044674D01*
X13084348Y-19044674D02*
X13103396Y-19054198D01*
X13103396Y-19054198D02*
X13112920Y-19063722D01*
X13112920Y-19063722D02*
X13122444Y-19082770D01*
X13122444Y-19082770D02*
X13122444Y-19130389D01*
X13122444Y-19130389D02*
X13112920Y-19149436D01*
X13112920Y-19149436D02*
X13103396Y-19158960D01*
X13103396Y-19158960D02*
X13084348Y-19168484D01*
X13084348Y-19168484D02*
X13027206Y-19168484D01*
X13027206Y-19168484D02*
X13008158Y-19158960D01*
X13008158Y-19158960D02*
X12998634Y-19149436D01*
X13198634Y-18968484D02*
X13198634Y-19006579D01*
X13274825Y-18968484D02*
X13274825Y-19006579D01*
X13570063Y-19244674D02*
X13560539Y-19235150D01*
X13560539Y-19235150D02*
X13541491Y-19206579D01*
X13541491Y-19206579D02*
X13531968Y-19187531D01*
X13531968Y-19187531D02*
X13522444Y-19158960D01*
X13522444Y-19158960D02*
X13512920Y-19111341D01*
X13512920Y-19111341D02*
X13512920Y-19073246D01*
X13512920Y-19073246D02*
X13522444Y-19025627D01*
X13522444Y-19025627D02*
X13531968Y-18997055D01*
X13531968Y-18997055D02*
X13541491Y-18978008D01*
X13541491Y-18978008D02*
X13560539Y-18949436D01*
X13560539Y-18949436D02*
X13570063Y-18939912D01*
X13751015Y-19168484D02*
X13636729Y-19168484D01*
X13693872Y-19168484D02*
X13693872Y-18968484D01*
X13693872Y-18968484D02*
X13674825Y-18997055D01*
X13674825Y-18997055D02*
X13655777Y-19016103D01*
X13655777Y-19016103D02*
X13636729Y-19025627D01*
X13874825Y-18968484D02*
X13893872Y-18968484D01*
X13893872Y-18968484D02*
X13912920Y-18978008D01*
X13912920Y-18978008D02*
X13922444Y-18987531D01*
X13922444Y-18987531D02*
X13931968Y-19006579D01*
X13931968Y-19006579D02*
X13941491Y-19044674D01*
X13941491Y-19044674D02*
X13941491Y-19092293D01*
X13941491Y-19092293D02*
X13931968Y-19130389D01*
X13931968Y-19130389D02*
X13922444Y-19149436D01*
X13922444Y-19149436D02*
X13912920Y-19158960D01*
X13912920Y-19158960D02*
X13893872Y-19168484D01*
X13893872Y-19168484D02*
X13874825Y-19168484D01*
X13874825Y-19168484D02*
X13855777Y-19158960D01*
X13855777Y-19158960D02*
X13846253Y-19149436D01*
X13846253Y-19149436D02*
X13836729Y-19130389D01*
X13836729Y-19130389D02*
X13827206Y-19092293D01*
X13827206Y-19092293D02*
X13827206Y-19044674D01*
X13827206Y-19044674D02*
X13836729Y-19006579D01*
X13836729Y-19006579D02*
X13846253Y-18987531D01*
X13846253Y-18987531D02*
X13855777Y-18978008D01*
X13855777Y-18978008D02*
X13874825Y-18968484D01*
X14179587Y-19168484D02*
X14179587Y-18968484D01*
X14265301Y-19168484D02*
X14265301Y-19063722D01*
X14265301Y-19063722D02*
X14255777Y-19044674D01*
X14255777Y-19044674D02*
X14236730Y-19035150D01*
X14236730Y-19035150D02*
X14208158Y-19035150D01*
X14208158Y-19035150D02*
X14189110Y-19044674D01*
X14189110Y-19044674D02*
X14179587Y-19054198D01*
X14389110Y-19168484D02*
X14370063Y-19158960D01*
X14370063Y-19158960D02*
X14360539Y-19149436D01*
X14360539Y-19149436D02*
X14351015Y-19130389D01*
X14351015Y-19130389D02*
X14351015Y-19073246D01*
X14351015Y-19073246D02*
X14360539Y-19054198D01*
X14360539Y-19054198D02*
X14370063Y-19044674D01*
X14370063Y-19044674D02*
X14389110Y-19035150D01*
X14389110Y-19035150D02*
X14417682Y-19035150D01*
X14417682Y-19035150D02*
X14436730Y-19044674D01*
X14436730Y-19044674D02*
X14446253Y-19054198D01*
X14446253Y-19054198D02*
X14455777Y-19073246D01*
X14455777Y-19073246D02*
X14455777Y-19130389D01*
X14455777Y-19130389D02*
X14446253Y-19149436D01*
X14446253Y-19149436D02*
X14436730Y-19158960D01*
X14436730Y-19158960D02*
X14417682Y-19168484D01*
X14417682Y-19168484D02*
X14389110Y-19168484D01*
X14570063Y-19168484D02*
X14551015Y-19158960D01*
X14551015Y-19158960D02*
X14541491Y-19139912D01*
X14541491Y-19139912D02*
X14541491Y-18968484D01*
X14722444Y-19158960D02*
X14703396Y-19168484D01*
X14703396Y-19168484D02*
X14665301Y-19168484D01*
X14665301Y-19168484D02*
X14646253Y-19158960D01*
X14646253Y-19158960D02*
X14636730Y-19139912D01*
X14636730Y-19139912D02*
X14636730Y-19063722D01*
X14636730Y-19063722D02*
X14646253Y-19044674D01*
X14646253Y-19044674D02*
X14665301Y-19035150D01*
X14665301Y-19035150D02*
X14703396Y-19035150D01*
X14703396Y-19035150D02*
X14722444Y-19044674D01*
X14722444Y-19044674D02*
X14731968Y-19063722D01*
X14731968Y-19063722D02*
X14731968Y-19082770D01*
X14731968Y-19082770D02*
X14636730Y-19101817D01*
X14808158Y-19158960D02*
X14827206Y-19168484D01*
X14827206Y-19168484D02*
X14865301Y-19168484D01*
X14865301Y-19168484D02*
X14884349Y-19158960D01*
X14884349Y-19158960D02*
X14893872Y-19139912D01*
X14893872Y-19139912D02*
X14893872Y-19130389D01*
X14893872Y-19130389D02*
X14884349Y-19111341D01*
X14884349Y-19111341D02*
X14865301Y-19101817D01*
X14865301Y-19101817D02*
X14836730Y-19101817D01*
X14836730Y-19101817D02*
X14817682Y-19092293D01*
X14817682Y-19092293D02*
X14808158Y-19073246D01*
X14808158Y-19073246D02*
X14808158Y-19063722D01*
X14808158Y-19063722D02*
X14817682Y-19044674D01*
X14817682Y-19044674D02*
X14836730Y-19035150D01*
X14836730Y-19035150D02*
X14865301Y-19035150D01*
X14865301Y-19035150D02*
X14884349Y-19044674D01*
X14960539Y-19244674D02*
X14970063Y-19235150D01*
X14970063Y-19235150D02*
X14989111Y-19206579D01*
X14989111Y-19206579D02*
X14998634Y-19187531D01*
X14998634Y-19187531D02*
X15008158Y-19158960D01*
X15008158Y-19158960D02*
X15017682Y-19111341D01*
X15017682Y-19111341D02*
X15017682Y-19073246D01*
X15017682Y-19073246D02*
X15008158Y-19025627D01*
X15008158Y-19025627D02*
X14998634Y-18997055D01*
X14998634Y-18997055D02*
X14989111Y-18978008D01*
X14989111Y-18978008D02*
X14970063Y-18949436D01*
X14970063Y-18949436D02*
X14960539Y-18939912D01*
D14*
X9930000Y-19276000D02*
X9930000Y-19406000D01*
X9865000Y-19341000D02*
X9995000Y-19341000D01*
X9995000Y-19341000D02*
G75*
G02*
X9865000Y-19341000I-65000J0D01*
G01*
X9865000Y-19341000D02*
G75*
G02*
X9995000Y-19341000I65000J0D01*
G01*
D11*
X10360539Y-19432484D02*
X10246253Y-19432484D01*
X10303396Y-19432484D02*
X10303396Y-19232484D01*
X10303396Y-19232484D02*
X10284348Y-19261055D01*
X10284348Y-19261055D02*
X10265301Y-19280103D01*
X10265301Y-19280103D02*
X10246253Y-19289627D01*
X10446253Y-19413436D02*
X10455777Y-19422960D01*
X10455777Y-19422960D02*
X10446253Y-19432484D01*
X10446253Y-19432484D02*
X10436729Y-19422960D01*
X10436729Y-19422960D02*
X10446253Y-19413436D01*
X10446253Y-19413436D02*
X10446253Y-19432484D01*
X10522444Y-19232484D02*
X10646253Y-19232484D01*
X10646253Y-19232484D02*
X10579586Y-19308674D01*
X10579586Y-19308674D02*
X10608158Y-19308674D01*
X10608158Y-19308674D02*
X10627205Y-19318198D01*
X10627205Y-19318198D02*
X10636729Y-19327722D01*
X10636729Y-19327722D02*
X10646253Y-19346770D01*
X10646253Y-19346770D02*
X10646253Y-19394389D01*
X10646253Y-19394389D02*
X10636729Y-19413436D01*
X10636729Y-19413436D02*
X10627205Y-19422960D01*
X10627205Y-19422960D02*
X10608158Y-19432484D01*
X10608158Y-19432484D02*
X10551015Y-19432484D01*
X10551015Y-19432484D02*
X10531967Y-19422960D01*
X10531967Y-19422960D02*
X10522444Y-19413436D01*
X10770063Y-19232484D02*
X10789110Y-19232484D01*
X10789110Y-19232484D02*
X10808158Y-19242008D01*
X10808158Y-19242008D02*
X10817682Y-19251531D01*
X10817682Y-19251531D02*
X10827205Y-19270579D01*
X10827205Y-19270579D02*
X10836729Y-19308674D01*
X10836729Y-19308674D02*
X10836729Y-19356293D01*
X10836729Y-19356293D02*
X10827205Y-19394389D01*
X10827205Y-19394389D02*
X10817682Y-19413436D01*
X10817682Y-19413436D02*
X10808158Y-19422960D01*
X10808158Y-19422960D02*
X10789110Y-19432484D01*
X10789110Y-19432484D02*
X10770063Y-19432484D01*
X10770063Y-19432484D02*
X10751015Y-19422960D01*
X10751015Y-19422960D02*
X10741491Y-19413436D01*
X10741491Y-19413436D02*
X10731967Y-19394389D01*
X10731967Y-19394389D02*
X10722444Y-19356293D01*
X10722444Y-19356293D02*
X10722444Y-19308674D01*
X10722444Y-19308674D02*
X10731967Y-19270579D01*
X10731967Y-19270579D02*
X10741491Y-19251531D01*
X10741491Y-19251531D02*
X10751015Y-19242008D01*
X10751015Y-19242008D02*
X10770063Y-19232484D01*
X10960539Y-19232484D02*
X10979586Y-19232484D01*
X10979586Y-19232484D02*
X10998634Y-19242008D01*
X10998634Y-19242008D02*
X11008158Y-19251531D01*
X11008158Y-19251531D02*
X11017682Y-19270579D01*
X11017682Y-19270579D02*
X11027205Y-19308674D01*
X11027205Y-19308674D02*
X11027205Y-19356293D01*
X11027205Y-19356293D02*
X11017682Y-19394389D01*
X11017682Y-19394389D02*
X11008158Y-19413436D01*
X11008158Y-19413436D02*
X10998634Y-19422960D01*
X10998634Y-19422960D02*
X10979586Y-19432484D01*
X10979586Y-19432484D02*
X10960539Y-19432484D01*
X10960539Y-19432484D02*
X10941491Y-19422960D01*
X10941491Y-19422960D02*
X10931967Y-19413436D01*
X10931967Y-19413436D02*
X10922444Y-19394389D01*
X10922444Y-19394389D02*
X10912920Y-19356293D01*
X10912920Y-19356293D02*
X10912920Y-19308674D01*
X10912920Y-19308674D02*
X10922444Y-19270579D01*
X10922444Y-19270579D02*
X10931967Y-19251531D01*
X10931967Y-19251531D02*
X10941491Y-19242008D01*
X10941491Y-19242008D02*
X10960539Y-19232484D01*
X11112920Y-19432484D02*
X11112920Y-19299150D01*
X11112920Y-19318198D02*
X11122444Y-19308674D01*
X11122444Y-19308674D02*
X11141491Y-19299150D01*
X11141491Y-19299150D02*
X11170063Y-19299150D01*
X11170063Y-19299150D02*
X11189110Y-19308674D01*
X11189110Y-19308674D02*
X11198634Y-19327722D01*
X11198634Y-19327722D02*
X11198634Y-19432484D01*
X11198634Y-19327722D02*
X11208158Y-19308674D01*
X11208158Y-19308674D02*
X11227205Y-19299150D01*
X11227205Y-19299150D02*
X11255777Y-19299150D01*
X11255777Y-19299150D02*
X11274824Y-19308674D01*
X11274824Y-19308674D02*
X11284348Y-19327722D01*
X11284348Y-19327722D02*
X11284348Y-19432484D01*
X11379586Y-19432484D02*
X11379586Y-19299150D01*
X11379586Y-19318198D02*
X11389110Y-19308674D01*
X11389110Y-19308674D02*
X11408158Y-19299150D01*
X11408158Y-19299150D02*
X11436729Y-19299150D01*
X11436729Y-19299150D02*
X11455777Y-19308674D01*
X11455777Y-19308674D02*
X11465301Y-19327722D01*
X11465301Y-19327722D02*
X11465301Y-19432484D01*
X11465301Y-19327722D02*
X11474824Y-19308674D01*
X11474824Y-19308674D02*
X11493872Y-19299150D01*
X11493872Y-19299150D02*
X11522443Y-19299150D01*
X11522443Y-19299150D02*
X11541491Y-19308674D01*
X11541491Y-19308674D02*
X11551015Y-19327722D01*
X11551015Y-19327722D02*
X11551015Y-19432484D01*
X11941491Y-19222960D02*
X11770063Y-19480103D01*
X12198634Y-19232484D02*
X12217682Y-19232484D01*
X12217682Y-19232484D02*
X12236729Y-19242008D01*
X12236729Y-19242008D02*
X12246253Y-19251531D01*
X12246253Y-19251531D02*
X12255777Y-19270579D01*
X12255777Y-19270579D02*
X12265301Y-19308674D01*
X12265301Y-19308674D02*
X12265301Y-19356293D01*
X12265301Y-19356293D02*
X12255777Y-19394389D01*
X12255777Y-19394389D02*
X12246253Y-19413436D01*
X12246253Y-19413436D02*
X12236729Y-19422960D01*
X12236729Y-19422960D02*
X12217682Y-19432484D01*
X12217682Y-19432484D02*
X12198634Y-19432484D01*
X12198634Y-19432484D02*
X12179586Y-19422960D01*
X12179586Y-19422960D02*
X12170063Y-19413436D01*
X12170063Y-19413436D02*
X12160539Y-19394389D01*
X12160539Y-19394389D02*
X12151015Y-19356293D01*
X12151015Y-19356293D02*
X12151015Y-19308674D01*
X12151015Y-19308674D02*
X12160539Y-19270579D01*
X12160539Y-19270579D02*
X12170063Y-19251531D01*
X12170063Y-19251531D02*
X12179586Y-19242008D01*
X12179586Y-19242008D02*
X12198634Y-19232484D01*
X12351015Y-19413436D02*
X12360539Y-19422960D01*
X12360539Y-19422960D02*
X12351015Y-19432484D01*
X12351015Y-19432484D02*
X12341491Y-19422960D01*
X12341491Y-19422960D02*
X12351015Y-19413436D01*
X12351015Y-19413436D02*
X12351015Y-19432484D01*
X12484348Y-19232484D02*
X12503396Y-19232484D01*
X12503396Y-19232484D02*
X12522444Y-19242008D01*
X12522444Y-19242008D02*
X12531967Y-19251531D01*
X12531967Y-19251531D02*
X12541491Y-19270579D01*
X12541491Y-19270579D02*
X12551015Y-19308674D01*
X12551015Y-19308674D02*
X12551015Y-19356293D01*
X12551015Y-19356293D02*
X12541491Y-19394389D01*
X12541491Y-19394389D02*
X12531967Y-19413436D01*
X12531967Y-19413436D02*
X12522444Y-19422960D01*
X12522444Y-19422960D02*
X12503396Y-19432484D01*
X12503396Y-19432484D02*
X12484348Y-19432484D01*
X12484348Y-19432484D02*
X12465301Y-19422960D01*
X12465301Y-19422960D02*
X12455777Y-19413436D01*
X12455777Y-19413436D02*
X12446253Y-19394389D01*
X12446253Y-19394389D02*
X12436729Y-19356293D01*
X12436729Y-19356293D02*
X12436729Y-19308674D01*
X12436729Y-19308674D02*
X12446253Y-19270579D01*
X12446253Y-19270579D02*
X12455777Y-19251531D01*
X12455777Y-19251531D02*
X12465301Y-19242008D01*
X12465301Y-19242008D02*
X12484348Y-19232484D01*
X12731967Y-19232484D02*
X12636729Y-19232484D01*
X12636729Y-19232484D02*
X12627206Y-19327722D01*
X12627206Y-19327722D02*
X12636729Y-19318198D01*
X12636729Y-19318198D02*
X12655777Y-19308674D01*
X12655777Y-19308674D02*
X12703396Y-19308674D01*
X12703396Y-19308674D02*
X12722444Y-19318198D01*
X12722444Y-19318198D02*
X12731967Y-19327722D01*
X12731967Y-19327722D02*
X12741491Y-19346770D01*
X12741491Y-19346770D02*
X12741491Y-19394389D01*
X12741491Y-19394389D02*
X12731967Y-19413436D01*
X12731967Y-19413436D02*
X12722444Y-19422960D01*
X12722444Y-19422960D02*
X12703396Y-19432484D01*
X12703396Y-19432484D02*
X12655777Y-19432484D01*
X12655777Y-19432484D02*
X12636729Y-19422960D01*
X12636729Y-19422960D02*
X12627206Y-19413436D01*
X12931967Y-19432484D02*
X12817682Y-19432484D01*
X12874825Y-19432484D02*
X12874825Y-19232484D01*
X12874825Y-19232484D02*
X12855777Y-19261055D01*
X12855777Y-19261055D02*
X12836729Y-19280103D01*
X12836729Y-19280103D02*
X12817682Y-19289627D01*
X13008158Y-19251531D02*
X13017682Y-19242008D01*
X13017682Y-19242008D02*
X13036729Y-19232484D01*
X13036729Y-19232484D02*
X13084348Y-19232484D01*
X13084348Y-19232484D02*
X13103396Y-19242008D01*
X13103396Y-19242008D02*
X13112920Y-19251531D01*
X13112920Y-19251531D02*
X13122444Y-19270579D01*
X13122444Y-19270579D02*
X13122444Y-19289627D01*
X13122444Y-19289627D02*
X13112920Y-19318198D01*
X13112920Y-19318198D02*
X12998634Y-19432484D01*
X12998634Y-19432484D02*
X13122444Y-19432484D01*
X13198634Y-19232484D02*
X13198634Y-19270579D01*
X13274825Y-19232484D02*
X13274825Y-19270579D01*
X13570063Y-19508674D02*
X13560539Y-19499150D01*
X13560539Y-19499150D02*
X13541491Y-19470579D01*
X13541491Y-19470579D02*
X13531968Y-19451531D01*
X13531968Y-19451531D02*
X13522444Y-19422960D01*
X13522444Y-19422960D02*
X13512920Y-19375341D01*
X13512920Y-19375341D02*
X13512920Y-19337246D01*
X13512920Y-19337246D02*
X13522444Y-19289627D01*
X13522444Y-19289627D02*
X13531968Y-19261055D01*
X13531968Y-19261055D02*
X13541491Y-19242008D01*
X13541491Y-19242008D02*
X13560539Y-19213436D01*
X13560539Y-19213436D02*
X13570063Y-19203912D01*
X13751015Y-19432484D02*
X13636729Y-19432484D01*
X13693872Y-19432484D02*
X13693872Y-19232484D01*
X13693872Y-19232484D02*
X13674825Y-19261055D01*
X13674825Y-19261055D02*
X13655777Y-19280103D01*
X13655777Y-19280103D02*
X13636729Y-19289627D01*
X13817682Y-19232484D02*
X13941491Y-19232484D01*
X13941491Y-19232484D02*
X13874825Y-19308674D01*
X13874825Y-19308674D02*
X13903396Y-19308674D01*
X13903396Y-19308674D02*
X13922444Y-19318198D01*
X13922444Y-19318198D02*
X13931968Y-19327722D01*
X13931968Y-19327722D02*
X13941491Y-19346770D01*
X13941491Y-19346770D02*
X13941491Y-19394389D01*
X13941491Y-19394389D02*
X13931968Y-19413436D01*
X13931968Y-19413436D02*
X13922444Y-19422960D01*
X13922444Y-19422960D02*
X13903396Y-19432484D01*
X13903396Y-19432484D02*
X13846253Y-19432484D01*
X13846253Y-19432484D02*
X13827206Y-19422960D01*
X13827206Y-19422960D02*
X13817682Y-19413436D01*
X14179587Y-19432484D02*
X14179587Y-19232484D01*
X14265301Y-19432484D02*
X14265301Y-19327722D01*
X14265301Y-19327722D02*
X14255777Y-19308674D01*
X14255777Y-19308674D02*
X14236730Y-19299150D01*
X14236730Y-19299150D02*
X14208158Y-19299150D01*
X14208158Y-19299150D02*
X14189110Y-19308674D01*
X14189110Y-19308674D02*
X14179587Y-19318198D01*
X14389110Y-19432484D02*
X14370063Y-19422960D01*
X14370063Y-19422960D02*
X14360539Y-19413436D01*
X14360539Y-19413436D02*
X14351015Y-19394389D01*
X14351015Y-19394389D02*
X14351015Y-19337246D01*
X14351015Y-19337246D02*
X14360539Y-19318198D01*
X14360539Y-19318198D02*
X14370063Y-19308674D01*
X14370063Y-19308674D02*
X14389110Y-19299150D01*
X14389110Y-19299150D02*
X14417682Y-19299150D01*
X14417682Y-19299150D02*
X14436730Y-19308674D01*
X14436730Y-19308674D02*
X14446253Y-19318198D01*
X14446253Y-19318198D02*
X14455777Y-19337246D01*
X14455777Y-19337246D02*
X14455777Y-19394389D01*
X14455777Y-19394389D02*
X14446253Y-19413436D01*
X14446253Y-19413436D02*
X14436730Y-19422960D01*
X14436730Y-19422960D02*
X14417682Y-19432484D01*
X14417682Y-19432484D02*
X14389110Y-19432484D01*
X14570063Y-19432484D02*
X14551015Y-19422960D01*
X14551015Y-19422960D02*
X14541491Y-19403912D01*
X14541491Y-19403912D02*
X14541491Y-19232484D01*
X14722444Y-19422960D02*
X14703396Y-19432484D01*
X14703396Y-19432484D02*
X14665301Y-19432484D01*
X14665301Y-19432484D02*
X14646253Y-19422960D01*
X14646253Y-19422960D02*
X14636730Y-19403912D01*
X14636730Y-19403912D02*
X14636730Y-19327722D01*
X14636730Y-19327722D02*
X14646253Y-19308674D01*
X14646253Y-19308674D02*
X14665301Y-19299150D01*
X14665301Y-19299150D02*
X14703396Y-19299150D01*
X14703396Y-19299150D02*
X14722444Y-19308674D01*
X14722444Y-19308674D02*
X14731968Y-19327722D01*
X14731968Y-19327722D02*
X14731968Y-19346770D01*
X14731968Y-19346770D02*
X14636730Y-19365817D01*
X14808158Y-19422960D02*
X14827206Y-19432484D01*
X14827206Y-19432484D02*
X14865301Y-19432484D01*
X14865301Y-19432484D02*
X14884349Y-19422960D01*
X14884349Y-19422960D02*
X14893872Y-19403912D01*
X14893872Y-19403912D02*
X14893872Y-19394389D01*
X14893872Y-19394389D02*
X14884349Y-19375341D01*
X14884349Y-19375341D02*
X14865301Y-19365817D01*
X14865301Y-19365817D02*
X14836730Y-19365817D01*
X14836730Y-19365817D02*
X14817682Y-19356293D01*
X14817682Y-19356293D02*
X14808158Y-19337246D01*
X14808158Y-19337246D02*
X14808158Y-19327722D01*
X14808158Y-19327722D02*
X14817682Y-19308674D01*
X14817682Y-19308674D02*
X14836730Y-19299150D01*
X14836730Y-19299150D02*
X14865301Y-19299150D01*
X14865301Y-19299150D02*
X14884349Y-19308674D01*
X14960539Y-19508674D02*
X14970063Y-19499150D01*
X14970063Y-19499150D02*
X14989111Y-19470579D01*
X14989111Y-19470579D02*
X14998634Y-19451531D01*
X14998634Y-19451531D02*
X15008158Y-19422960D01*
X15008158Y-19422960D02*
X15017682Y-19375341D01*
X15017682Y-19375341D02*
X15017682Y-19337246D01*
X15017682Y-19337246D02*
X15008158Y-19289627D01*
X15008158Y-19289627D02*
X14998634Y-19261055D01*
X14998634Y-19261055D02*
X14989111Y-19242008D01*
X14989111Y-19242008D02*
X14970063Y-19213436D01*
X14970063Y-19213436D02*
X14960539Y-19203912D01*
M02*
