%TF.GenerationSoftware,KiCad,Pcbnew,10.0.5*%
%TF.CreationDate,2026-08-03T03:12:13-07:00*%
%TF.ProjectId,aquaguard,61717561-6775-4617-9264-2e6b69636164,rev?*%
%TF.SameCoordinates,Original*%
%TF.FileFunction,Copper,L2,Bot*%
%TF.FilePolarity,Positive*%
%FSLAX46Y46*%
G04 Gerber Fmt 4.6, Leading zero omitted, Abs format (unit mm)*
G04 Created by KiCad (PCBNEW 10.0.5) date 2026-08-03 03:12:13*
%MOMM*%
%LPD*%
G01*
G04 APERTURE LIST*
G04 Aperture macros list*
%AMRoundRect*
0 Rectangle with rounded corners*
0 $1 Rounding radius*
0 $2 $3 $4 $5 $6 $7 $8 $9 X,Y pos of 4 corners*
0 Add a 4 corners polygon primitive as box body*
4,1,4,$2,$3,$4,$5,$6,$7,$8,$9,$2,$3,0*
0 Add four circle primitives for the rounded corners*
1,1,$1+$1,$2,$3*
1,1,$1+$1,$4,$5*
1,1,$1+$1,$6,$7*
1,1,$1+$1,$8,$9*
0 Add four rect primitives between the rounded corners*
20,1,$1+$1,$2,$3,$4,$5,0*
20,1,$1+$1,$4,$5,$6,$7,0*
20,1,$1+$1,$6,$7,$8,$9,0*
20,1,$1+$1,$8,$9,$2,$3,0*%
G04 Aperture macros list end*
%TA.AperFunction,ComponentPad*%
%ADD10RoundRect,0.250000X0.750000X-0.600000X0.750000X0.600000X-0.750000X0.600000X-0.750000X-0.600000X0*%
%TD*%
%TA.AperFunction,ComponentPad*%
%ADD11O,2.000000X1.700000*%
%TD*%
%TA.AperFunction,ComponentPad*%
%ADD12RoundRect,0.250000X0.550000X-0.550000X0.550000X0.550000X-0.550000X0.550000X-0.550000X-0.550000X0*%
%TD*%
%TA.AperFunction,ComponentPad*%
%ADD13C,1.600000*%
%TD*%
%TA.AperFunction,ComponentPad*%
%ADD14R,2.000000X2.000000*%
%TD*%
%TA.AperFunction,ComponentPad*%
%ADD15C,2.000000*%
%TD*%
%TA.AperFunction,HeatsinkPad*%
%ADD16C,0.600000*%
%TD*%
%TA.AperFunction,ComponentPad*%
%ADD17R,1.800000X1.800000*%
%TD*%
%TA.AperFunction,ComponentPad*%
%ADD18C,1.800000*%
%TD*%
%TA.AperFunction,ComponentPad*%
%ADD19R,1.700000X1.700000*%
%TD*%
%TA.AperFunction,ComponentPad*%
%ADD20C,1.700000*%
%TD*%
%TA.AperFunction,ComponentPad*%
%ADD21RoundRect,0.249999X0.850001X-0.850001X0.850001X0.850001X-0.850001X0.850001X-0.850001X-0.850001X0*%
%TD*%
%TA.AperFunction,ComponentPad*%
%ADD22C,2.200000*%
%TD*%
%TA.AperFunction,ComponentPad*%
%ADD23RoundRect,0.250000X-0.550000X-0.550000X0.550000X-0.550000X0.550000X0.550000X-0.550000X0.550000X0*%
%TD*%
%TA.AperFunction,ComponentPad*%
%ADD24RoundRect,0.250000X1.050000X-1.050000X1.050000X1.050000X-1.050000X1.050000X-1.050000X-1.050000X0*%
%TD*%
%TA.AperFunction,ComponentPad*%
%ADD25C,2.600000*%
%TD*%
%TA.AperFunction,ComponentPad*%
%ADD26RoundRect,0.250000X-1.050000X-1.050000X1.050000X-1.050000X1.050000X1.050000X-1.050000X1.050000X0*%
%TD*%
%TA.AperFunction,ComponentPad*%
%ADD27RoundRect,0.500000X0.500000X-0.500000X0.500000X0.500000X-0.500000X0.500000X-0.500000X-0.500000X0*%
%TD*%
%TA.AperFunction,ComponentPad*%
%ADD28C,3.000000*%
%TD*%
%TA.AperFunction,ComponentPad*%
%ADD29C,2.500000*%
%TD*%
%TA.AperFunction,ComponentPad*%
%ADD30RoundRect,0.250000X-0.750000X-0.750000X0.750000X-0.750000X0.750000X0.750000X-0.750000X0.750000X0*%
%TD*%
%TA.AperFunction,SMDPad,CuDef*%
%ADD31RoundRect,0.250000X0.450000X-0.262500X0.450000X0.262500X-0.450000X0.262500X-0.450000X-0.262500X0*%
%TD*%
%TA.AperFunction,SMDPad,CuDef*%
%ADD32RoundRect,0.375000X0.625000X0.375000X-0.625000X0.375000X-0.625000X-0.375000X0.625000X-0.375000X0*%
%TD*%
%TA.AperFunction,SMDPad,CuDef*%
%ADD33RoundRect,0.500000X0.500000X1.400000X-0.500000X1.400000X-0.500000X-1.400000X0.500000X-1.400000X0*%
%TD*%
%TA.AperFunction,SMDPad,CuDef*%
%ADD34RoundRect,0.150000X0.587500X0.150000X-0.587500X0.150000X-0.587500X-0.150000X0.587500X-0.150000X0*%
%TD*%
%TA.AperFunction,SMDPad,CuDef*%
%ADD35RoundRect,0.250000X0.262500X0.450000X-0.262500X0.450000X-0.262500X-0.450000X0.262500X-0.450000X0*%
%TD*%
%TA.AperFunction,SMDPad,CuDef*%
%ADD36RoundRect,0.250000X0.475000X-0.250000X0.475000X0.250000X-0.475000X0.250000X-0.475000X-0.250000X0*%
%TD*%
%TA.AperFunction,ViaPad*%
%ADD37C,0.800000*%
%TD*%
%TA.AperFunction,ViaPad*%
%ADD38C,0.600000*%
%TD*%
%TA.AperFunction,Conductor*%
%ADD39C,1.500000*%
%TD*%
%TA.AperFunction,Conductor*%
%ADD40C,0.800000*%
%TD*%
%TA.AperFunction,Conductor*%
%ADD41C,0.250000*%
%TD*%
G04 APERTURE END LIST*
D10*
%TO.P,PS1,1*%
%TO.N,AC_L_FUSED*%
X137803000Y-121485000D03*
D11*
%TO.P,PS1,2*%
%TO.N,AC_N*%
X142803000Y-121485000D03*
%TO.P,PS1,3*%
%TO.N,GND*%
X132803000Y-92405000D03*
%TO.P,PS1,4*%
%TO.N,+5V*%
X147803000Y-92405000D03*
%TD*%
D12*
%TO.P,U3,1*%
%TO.N,N$U3.1*%
X183593000Y-144465000D03*
D13*
%TO.P,U3,2*%
%TO.N,N$U3.2*%
X186133000Y-144465000D03*
%TO.P,U3,3*%
%TO.N,N$U3.3*%
X186133000Y-136845000D03*
%TO.P,U3,4*%
%TO.N,N$U3.4*%
X183593000Y-136845000D03*
%TD*%
D14*
%TO.P,FB1,1*%
%TO.N,BUZZER_PIN*%
X158144200Y-143045000D03*
D15*
%TO.P,FB1,2*%
%TO.N,GND*%
X168144200Y-143045000D03*
%TD*%
D16*
%TO.P,U1,39*%
%TO.N,GND*%
X169948000Y-109490000D03*
X169948000Y-110890000D03*
X170648000Y-108790000D03*
X170648000Y-110190000D03*
X170648000Y-111590000D03*
X171348000Y-109490000D03*
X171348000Y-110890000D03*
X172048000Y-108790000D03*
X172048000Y-110190000D03*
X172048000Y-111590000D03*
X172748000Y-109490000D03*
X172748000Y-110890000D03*
%TD*%
D17*
%TO.P,LED2,1*%
%TO.N,GND*%
X182343000Y-148825000D03*
D18*
%TO.P,LED2,2*%
%TO.N,LED_PIN_A*%
X184883000Y-148825000D03*
%TD*%
D19*
%TO.P,J5,1*%
%TO.N,+5V*%
X173253000Y-146155000D03*
D20*
%TO.P,J5,2*%
%TO.N,US_ECHO*%
X175793000Y-146155000D03*
%TO.P,J5,3*%
%TO.N,GND*%
X178333000Y-146155000D03*
%TD*%
D21*
%TO.P,D1,1*%
%TO.N,+5V*%
X198243000Y-149165000D03*
D22*
%TO.P,D1,2*%
%TO.N,MOTOR_RELAY_COIL*%
X198243000Y-139005000D03*
%TD*%
D17*
%TO.P,LED1,1*%
%TO.N,GND*%
X189903000Y-147755000D03*
D18*
%TO.P,LED1,2*%
%TO.N,LED1_A*%
X192443000Y-147755000D03*
%TD*%
D15*
%TO.P,SW2,1*%
%TO.N,N$SW2.1*%
X172983000Y-137295000D03*
X179483000Y-137295000D03*
%TO.P,SW2,2*%
%TO.N,N$SW2.2*%
X172983000Y-141795000D03*
X179483000Y-141795000D03*
%TD*%
D23*
%TO.P,C2,1*%
%TO.N,+3V3*%
X190901800Y-141055000D03*
D13*
%TO.P,C2,2*%
%TO.N,GND*%
X193401800Y-141055000D03*
%TD*%
D24*
%TO.P,J4,1*%
%TO.N,FLOAT_LOW*%
X196603000Y-101295000D03*
D25*
%TO.P,J4,2*%
%TO.N,FLOAT_HIGH*%
X196603000Y-96295000D03*
%TO.P,J4,3*%
%TO.N,GND*%
X196603000Y-91295000D03*
%TD*%
D13*
%TO.P,RV1,1*%
%TO.N,AC_L_FUSED*%
X120485000Y-115445000D03*
%TO.P,RV1,2*%
%TO.N,AC_N*%
X121785000Y-110445000D03*
%TD*%
D26*
%TO.P,J1,1*%
%TO.N,AC_L*%
X109295000Y-97005000D03*
D25*
%TO.P,J1,2*%
%TO.N,AC_N*%
X114295000Y-97005000D03*
%TO.P,J1,3*%
%TO.N,PE*%
X119295000Y-97005000D03*
%TD*%
D27*
%TO.P,F1,1*%
%TO.N,AC_L*%
X109195000Y-130445000D03*
X109195000Y-125445000D03*
D15*
%TO.P,F1,2*%
%TO.N,AC_L_FUSED*%
X109195000Y-115445000D03*
X109195000Y-110445000D03*
%TD*%
D24*
%TO.P,J3,1*%
%TO.N,US_TRIG*%
X196603000Y-113385000D03*
D25*
%TO.P,J3,2*%
%TO.N,GND*%
X196603000Y-108385000D03*
%TD*%
D15*
%TO.P,SW1,1*%
%TO.N,BTN_PIN*%
X192393000Y-130565000D03*
X198893000Y-130565000D03*
%TO.P,SW1,2*%
%TO.N,GND*%
X192393000Y-135065000D03*
X198893000Y-135065000D03*
%TD*%
D26*
%TO.P,J2,1*%
%TO.N,MOTOR_RELAY_SW*%
X109295000Y-144495000D03*
D25*
%TO.P,J2,2*%
%TO.N,AC_N*%
X114295000Y-144495000D03*
%TD*%
D28*
%TO.P,K1,1*%
%TO.N,AC_L_FUSED*%
X130353000Y-134635000D03*
D29*
%TO.P,K1,2*%
%TO.N,+5V*%
X132303000Y-140685000D03*
D28*
%TO.P,K1,3*%
%TO.N,MOTOR_RELAY_SW*%
X144503000Y-140685000D03*
%TO.P,K1,4*%
%TO.N,N$K1.4*%
X144553000Y-128635000D03*
D29*
%TO.P,K1,5*%
%TO.N,MOTOR_RELAY_COIL*%
X132303000Y-128685000D03*
%TD*%
D30*
%TO.P,C1,1*%
%TO.N,+5V*%
X193641800Y-122725000D03*
D15*
%TO.P,C1,2*%
%TO.N,GND*%
X198641800Y-122725000D03*
%TD*%
D31*
%TO.P,R6,1*%
%TO.N,+3V3*%
X191843000Y-108767500D03*
%TO.P,R6,2*%
%TO.N,FLOAT_LOW*%
X191843000Y-106942500D03*
%TD*%
D32*
%TO.P,U2,1*%
%TO.N,GND*%
X163443000Y-146390000D03*
%TO.P,U2,2*%
%TO.N,+3V3*%
X163443000Y-148690000D03*
D33*
X157143000Y-148690000D03*
D32*
%TO.P,U2,3*%
%TO.N,+5V*%
X163443000Y-150990000D03*
%TD*%
D31*
%TO.P,R3,1*%
%TO.N,+3V3*%
X191843000Y-104317500D03*
%TO.P,R3,2*%
%TO.N,EN*%
X191843000Y-102492500D03*
%TD*%
D34*
%TO.P,Q1,1*%
%TO.N,MOTOR_RELAY_B*%
X193760500Y-116480000D03*
%TO.P,Q1,2*%
%TO.N,GND*%
X193760500Y-118380000D03*
%TO.P,Q1,3*%
%TO.N,MOTOR_RELAY_COIL*%
X191885500Y-117430000D03*
%TD*%
D35*
%TO.P,R5,1*%
%TO.N,+3V3*%
X196475500Y-104590000D03*
%TO.P,R5,2*%
%TO.N,US_ECHO*%
X194650500Y-104590000D03*
%TD*%
D31*
%TO.P,R4,1*%
%TO.N,+3V3*%
X199898000Y-104317500D03*
%TO.P,R4,2*%
%TO.N,LED1_A*%
X199898000Y-102492500D03*
%TD*%
%TO.P,R2,1*%
%TO.N,LED_PIN*%
X199898000Y-99867500D03*
%TO.P,R2,2*%
%TO.N,LED_PIN_A*%
X199898000Y-98042500D03*
%TD*%
D36*
%TO.P,C4,1*%
%TO.N,+3V3*%
X199928000Y-90945000D03*
%TO.P,C4,2*%
%TO.N,GND*%
X199928000Y-89045000D03*
%TD*%
D31*
%TO.P,R1,1*%
%TO.N,MOTOR_RELAY*%
X191843000Y-99867500D03*
%TO.P,R1,2*%
%TO.N,MOTOR_RELAY_B*%
X191843000Y-98042500D03*
%TD*%
D36*
%TO.P,C5,1*%
%TO.N,+3V3*%
X191873000Y-95435000D03*
%TO.P,C5,2*%
%TO.N,GND*%
X191873000Y-93535000D03*
%TD*%
%TO.P,C6,1*%
%TO.N,+3V3*%
X199928000Y-95435000D03*
%TO.P,C6,2*%
%TO.N,GND*%
X199928000Y-93535000D03*
%TD*%
%TO.P,C3,1*%
%TO.N,+3V3*%
X191873000Y-90945000D03*
%TO.P,C3,2*%
%TO.N,GND*%
X191873000Y-89045000D03*
%TD*%
D37*
%TO.N,GND*%
X177348000Y-152750000D03*
X166848000Y-86250000D03*
X163348000Y-93250000D03*
X156348000Y-152750000D03*
X187848000Y-142250000D03*
X166848000Y-135250000D03*
X170348000Y-93250000D03*
X173848000Y-89750000D03*
X180848000Y-131750000D03*
X201848000Y-110750000D03*
X173848000Y-131750000D03*
X194848000Y-89750000D03*
X187848000Y-103750000D03*
X159848000Y-100250000D03*
X198348000Y-117750000D03*
X187848000Y-121250000D03*
X170348000Y-117750000D03*
X187848000Y-145750000D03*
X170348000Y-124750000D03*
X187848000Y-82750000D03*
X194848000Y-145750000D03*
X201848000Y-131750000D03*
X177348000Y-138750000D03*
X201848000Y-96750000D03*
X201848000Y-103750000D03*
X198348000Y-152750000D03*
X194848000Y-152750000D03*
X159848000Y-89750000D03*
X159848000Y-86250000D03*
X166848000Y-149250000D03*
X191348000Y-156250000D03*
X191348000Y-138750000D03*
X159848000Y-107250000D03*
X159848000Y-145750000D03*
X187848000Y-149250000D03*
X201848000Y-128250000D03*
X191348000Y-124750000D03*
X177348000Y-82750000D03*
X201848000Y-135250000D03*
X187848000Y-135250000D03*
X159848000Y-103750000D03*
X180848000Y-82750000D03*
X167749000Y-156600000D03*
X193903000Y-108385000D03*
X187848000Y-114250000D03*
X170348000Y-114250000D03*
X156348000Y-131750000D03*
X198348000Y-145750000D03*
X177348000Y-149250000D03*
X201848000Y-107250000D03*
X193760000Y-120018000D03*
X170348000Y-128250000D03*
X184348000Y-100250000D03*
X191873000Y-87420000D03*
X161948000Y-102470000D03*
X166848000Y-107250000D03*
X184348000Y-131750000D03*
X187848000Y-117750000D03*
X194848000Y-110750000D03*
X173848000Y-114250000D03*
X166848000Y-110750000D03*
X177348000Y-128250000D03*
X177348000Y-156250000D03*
X187848000Y-93250000D03*
X184348000Y-121250000D03*
X184348000Y-110750000D03*
X170348000Y-156250000D03*
X191348000Y-128250000D03*
X173848000Y-117750000D03*
X194848000Y-156250000D03*
X201848000Y-121250000D03*
X159848000Y-152750000D03*
X180848000Y-156250000D03*
X184348000Y-142250000D03*
X159848000Y-131750000D03*
X170348000Y-142250000D03*
X177348000Y-89750000D03*
X198348000Y-82750000D03*
X180848000Y-121250000D03*
X194848000Y-149250000D03*
X166848000Y-138750000D03*
X177348000Y-135250000D03*
X170348000Y-145750000D03*
X170348000Y-89750000D03*
X159848000Y-138750000D03*
X180848000Y-135250000D03*
X187848000Y-96750000D03*
X180848000Y-152750000D03*
X194848000Y-86250000D03*
X159848000Y-117750000D03*
X201848000Y-152750000D03*
X159848000Y-114250000D03*
X201848000Y-117750000D03*
X170348000Y-107250000D03*
X177348000Y-131750000D03*
X194848000Y-131750000D03*
X156348000Y-124750000D03*
X184348000Y-124750000D03*
X194848000Y-128250000D03*
X193998000Y-93535000D03*
X159848000Y-93250000D03*
X177348000Y-124750000D03*
X173848000Y-135250000D03*
X166848000Y-93250000D03*
X166848000Y-114250000D03*
X163348000Y-131750000D03*
X163348000Y-142250000D03*
X173848000Y-156250000D03*
X156348000Y-128250000D03*
X194848000Y-135250000D03*
X177348000Y-107250000D03*
X201848000Y-145750000D03*
X201042000Y-122725000D03*
X201848000Y-138750000D03*
X201848000Y-100250000D03*
X187848000Y-89750000D03*
X191348000Y-114250000D03*
X170348000Y-103750000D03*
X201848000Y-89750000D03*
X156348000Y-100250000D03*
X201848000Y-124750000D03*
X170348000Y-138750000D03*
X180848000Y-124750000D03*
X159848000Y-124750000D03*
X201848000Y-149250000D03*
X159848000Y-82750000D03*
X184348000Y-103750000D03*
X156348000Y-86250000D03*
X191348000Y-145750000D03*
X187848000Y-128250000D03*
X184348000Y-138750000D03*
X177348000Y-117750000D03*
X184348000Y-117750000D03*
X156348000Y-89750000D03*
X184348000Y-82750000D03*
X180848000Y-128250000D03*
X163348000Y-135250000D03*
X182343000Y-151125000D03*
X156348000Y-82750000D03*
X159848000Y-128250000D03*
X201848000Y-142250000D03*
X198348000Y-110750000D03*
X173848000Y-103750000D03*
X170348000Y-152750000D03*
X156348000Y-103750000D03*
X173848000Y-149250000D03*
X177348000Y-86250000D03*
X180848000Y-89750000D03*
X159848000Y-110750000D03*
X170348000Y-131750000D03*
X163348000Y-86250000D03*
X187848000Y-152750000D03*
X173848000Y-128250000D03*
X194848000Y-93250000D03*
X156348000Y-93250000D03*
X180848000Y-86250000D03*
X163348000Y-89750000D03*
X163348000Y-128250000D03*
X184348000Y-152750000D03*
X173848000Y-93250000D03*
X194848000Y-142250000D03*
X166848000Y-152750000D03*
X156348000Y-110750000D03*
X187848000Y-110750000D03*
X170348000Y-82750000D03*
X173848000Y-124750000D03*
X184348000Y-86250000D03*
X187848000Y-138750000D03*
X166848000Y-103750000D03*
X184348000Y-89750000D03*
X156348000Y-114250000D03*
X163348000Y-121250000D03*
X173848000Y-86250000D03*
X170348000Y-86250000D03*
X187848000Y-86250000D03*
X166848000Y-131750000D03*
X166848000Y-89750000D03*
X191348000Y-82750000D03*
X194848000Y-138750000D03*
X173848000Y-82750000D03*
X163348000Y-124750000D03*
X173848000Y-110750000D03*
X184348000Y-114250000D03*
X170348000Y-135250000D03*
X180848000Y-93250000D03*
X198348000Y-86250000D03*
X187848000Y-156250000D03*
X191348000Y-86250000D03*
X166848000Y-124750000D03*
X194848000Y-82750000D03*
X196493000Y-135065000D03*
X187848000Y-100250000D03*
X170348000Y-149250000D03*
X191348000Y-110750000D03*
X183748000Y-102470000D03*
X173848000Y-107250000D03*
X166848000Y-145750000D03*
X177348000Y-93250000D03*
X156348000Y-117750000D03*
X191348000Y-152750000D03*
X173848000Y-152750000D03*
X166848000Y-82750000D03*
X202053000Y-93535000D03*
X166848000Y-128250000D03*
X198348000Y-142250000D03*
X187848000Y-124750000D03*
X177348000Y-103750000D03*
X180848000Y-145750000D03*
X159848000Y-121250000D03*
X156348000Y-107250000D03*
X198348000Y-156250000D03*
X198348000Y-128250000D03*
X184348000Y-156250000D03*
X163348000Y-138750000D03*
X177348000Y-114250000D03*
X163348000Y-82750000D03*
X156348000Y-121250000D03*
X177348000Y-110750000D03*
X156348000Y-135250000D03*
X187848000Y-131750000D03*
X199303000Y-108385000D03*
X159848000Y-135250000D03*
X163443000Y-144490000D03*
X191348000Y-121250000D03*
X187848000Y-107250000D03*
X201848000Y-114250000D03*
X159848000Y-96750000D03*
X184348000Y-107250000D03*
X166848000Y-117750000D03*
X184348000Y-96750000D03*
X156348000Y-138750000D03*
X184348000Y-93250000D03*
X156348000Y-96750000D03*
X184348000Y-128250000D03*
D38*
%TO.N,BUZZER_PIN*%
X174950200Y-139345800D03*
D37*
%TO.N,+3V3*%
X198266900Y-95000300D03*
X198212600Y-104729200D03*
X160698600Y-112951700D03*
X200501500Y-92280600D03*
X162787500Y-154032000D03*
X192068500Y-105556400D03*
D38*
%TO.N,EN*%
X165735900Y-104902100D03*
%TO.N,FLOAT_LOW*%
X168598000Y-107201600D03*
%TO.N,FLOAT_HIGH*%
X167938200Y-111650600D03*
X189544700Y-103590400D03*
%TO.N,US_TRIG*%
X165648000Y-114434600D03*
%TO.N,MOTOR_RELAY*%
X179861500Y-103962500D03*
%TO.N,US_ECHO*%
X193884800Y-105655100D03*
%TO.N,LED_PIN*%
X179618800Y-117675100D03*
%TO.N,BTN_PIN*%
X188813100Y-128702500D03*
%TO.N,LED_PIN_A*%
X194401000Y-101702400D03*
%TO.N,LED1_A*%
X194366600Y-113296700D03*
%TO.N,MOTOR_RELAY_B*%
X190579800Y-98542000D03*
X188513700Y-116291700D03*
%TD*%
%TO.N,AC_L_FUSED*%
D39*
X109195000Y-115445000D02*
X120485000Y-115445000D01*
%TO.N,GND*%
D40*
X156252600Y-93956700D02*
X132803000Y-93956700D01*
X156938100Y-93271200D02*
X156252600Y-93956700D01*
X132803000Y-92405000D02*
X132803000Y-93956700D01*
%TO.N,+5V*%
X184510400Y-150515700D02*
X182799400Y-152226700D01*
X173253000Y-146155000D02*
X173253000Y-147706700D01*
X173253000Y-147706700D02*
X173275500Y-147729200D01*
X173275500Y-147955900D02*
X170241400Y-150990000D01*
X173275500Y-147729200D02*
X173275500Y-147955900D01*
X196892300Y-150515700D02*
X184510400Y-150515700D01*
X177615900Y-147955900D02*
X173275500Y-147955900D01*
X181886700Y-152226700D02*
X177615900Y-147955900D01*
X182799400Y-152226700D02*
X181886700Y-152226700D01*
X198243000Y-149165000D02*
X196892300Y-150515700D01*
X170241400Y-150990000D02*
X163443000Y-150990000D01*
%TO.N,BUZZER_PIN*%
D41*
X170733000Y-140500000D02*
X162015900Y-140500000D01*
X162015900Y-140500000D02*
X159470900Y-143045000D01*
X174950200Y-139345800D02*
X171887200Y-139345800D01*
X158144200Y-143045000D02*
X159470900Y-143045000D01*
X171887200Y-139345800D02*
X170733000Y-140500000D01*
%TO.N,+3V3*%
D40*
X170335000Y-143859000D02*
X181098400Y-143859000D01*
X190431700Y-107646300D02*
X190431700Y-106231800D01*
X198701600Y-95435000D02*
X198266900Y-95000300D01*
X196475500Y-104590000D02*
X198212600Y-104590000D01*
X190391800Y-94166900D02*
X190391800Y-92426200D01*
X161344800Y-148690000D02*
X163443000Y-148690000D01*
X198212600Y-104729200D02*
X198212600Y-104590000D01*
X191843000Y-104820500D02*
X191843000Y-104317500D01*
X200501500Y-91518500D02*
X199928000Y-90945000D01*
X163443000Y-148690000D02*
X165504000Y-148690000D01*
X160850900Y-113104000D02*
X187076200Y-113104000D01*
X165504000Y-148690000D02*
X170335000Y-143859000D01*
X160698600Y-112951700D02*
X160850900Y-113104000D01*
X181098400Y-143859000D02*
X183902400Y-141055000D01*
X191843000Y-108767500D02*
X191552900Y-108767500D01*
X200501500Y-92280600D02*
X200501500Y-91518500D01*
X194382200Y-88648100D02*
X197458900Y-88648100D01*
X190431700Y-106231800D02*
X191587800Y-105075700D01*
X190391800Y-92426200D02*
X191873000Y-90945000D01*
X191587800Y-105075700D02*
X191843000Y-104820500D01*
X183902400Y-141055000D02*
X190901800Y-141055000D01*
X199625500Y-104590000D02*
X199898000Y-104317500D01*
X191873000Y-95435000D02*
X191659900Y-95435000D01*
X191873000Y-90945000D02*
X192085300Y-90945000D01*
X192068500Y-105556400D02*
X191587800Y-105075700D01*
X197458900Y-88648100D02*
X199755800Y-90945000D01*
X199928000Y-95435000D02*
X198701600Y-95435000D01*
X157143000Y-148690000D02*
X161344800Y-148690000D01*
X198212600Y-104590000D02*
X199625500Y-104590000D01*
X191659900Y-95435000D02*
X190391800Y-94166900D01*
X161344800Y-152589300D02*
X162787500Y-154032000D01*
X191482800Y-108697400D02*
X190431700Y-107646300D01*
X191552900Y-108767500D02*
X191482800Y-108697400D01*
X192085300Y-90945000D02*
X194382200Y-88648100D01*
X199755800Y-90945000D02*
X199928000Y-90945000D01*
X187076200Y-113104000D02*
X191482800Y-108697400D01*
X161344800Y-148690000D02*
X161344800Y-152589300D01*
%TO.N,EN*%
D41*
X185200900Y-104589200D02*
X172356400Y-104589200D01*
X168654300Y-104902100D02*
X165735900Y-104902100D01*
X172356400Y-104589200D02*
X170690500Y-102923300D01*
X168842900Y-104713500D02*
X168654300Y-104902100D01*
X191822100Y-102471600D02*
X187318500Y-102471600D01*
X187318500Y-102471600D02*
X185200900Y-104589200D01*
X169463900Y-103465000D02*
X169463900Y-104092600D01*
X169463800Y-104092600D02*
X168842900Y-104713500D01*
X170005600Y-102923300D02*
X169463900Y-103465000D01*
X170690500Y-102923300D02*
X170005600Y-102923300D01*
X191843000Y-102492500D02*
X191822100Y-102471600D01*
%TO.N,FLOAT_LOW*%
X168197800Y-112277300D02*
X168598000Y-111877100D01*
X166021300Y-111092400D02*
X166718100Y-111789200D01*
X169294600Y-104900600D02*
X167532900Y-106662300D01*
X187021300Y-103520400D02*
X185500700Y-105041000D01*
X195513000Y-105357400D02*
X195513000Y-103355000D01*
X195513000Y-103355000D02*
X195513000Y-102385000D01*
X195513000Y-103355000D02*
X190195600Y-103355000D01*
X187021300Y-103407600D02*
X187021300Y-103520400D01*
X170175800Y-105041000D02*
X170035400Y-104900600D01*
X166505600Y-106423300D02*
X166021300Y-106907600D01*
X195513000Y-102385000D02*
X196603000Y-101295000D01*
X167429500Y-106662300D02*
X167190500Y-106423300D01*
X166021300Y-106907600D02*
X166021300Y-111092400D01*
X191843000Y-106942500D02*
X193927900Y-106942500D01*
X187505600Y-102923300D02*
X187021300Y-103407600D01*
X170035400Y-104900600D02*
X169294600Y-104900600D01*
X189763900Y-102923300D02*
X187505600Y-102923300D01*
X167190500Y-106423300D02*
X166505600Y-106423300D01*
X193927900Y-106942500D02*
X195513000Y-105357400D01*
X167532900Y-106662300D02*
X167429500Y-106662300D01*
X168598000Y-111877100D02*
X168598000Y-107201600D01*
X185500700Y-105041000D02*
X170175800Y-105041000D01*
X167678700Y-112277300D02*
X168197800Y-112277300D01*
X166718100Y-111789200D02*
X167190700Y-111789200D01*
X167190700Y-111789300D02*
X167678700Y-112277300D01*
X190195600Y-103355000D02*
X189763900Y-102923300D01*
%TO.N,FLOAT_HIGH*%
X169848300Y-105352300D02*
X169988700Y-105492700D01*
X187642400Y-105492700D02*
X189544700Y-103590400D01*
X167938200Y-111650600D02*
X167674700Y-111387100D01*
X169481700Y-105352300D02*
X169848300Y-105352300D01*
X167674700Y-107159300D02*
X169481700Y-105352300D01*
X167674700Y-111387100D02*
X167674700Y-107159300D01*
X169988700Y-105492700D02*
X187642400Y-105492700D01*
%TO.N,US_TRIG*%
X166317800Y-115104400D02*
X165648000Y-114434600D01*
X196603000Y-113385000D02*
X194883600Y-115104400D01*
X194883600Y-115104400D02*
X166317800Y-115104400D01*
%TO.N,MOTOR_RELAY*%
X179861500Y-103962500D02*
X181086400Y-103962500D01*
X181086400Y-103962500D02*
X183422300Y-101626600D01*
X183422300Y-101626600D02*
X190083900Y-101626600D01*
X190083900Y-101626600D02*
X191843000Y-99867500D01*
%TO.N,US_ECHO*%
X194650500Y-104889400D02*
X193884800Y-105655100D01*
X194650500Y-104590000D02*
X194650500Y-104889400D01*
%TO.N,LED_PIN*%
X200850900Y-106596400D02*
X203150400Y-104296900D01*
X200850900Y-112065000D02*
X200850900Y-106596400D01*
X197254500Y-115661400D02*
X200850900Y-112065000D01*
X203150400Y-104296900D02*
X203150400Y-103119900D01*
X203150400Y-103119900D02*
X199898000Y-99867500D01*
X181632500Y-115661400D02*
X197254500Y-115661400D01*
X179618800Y-117675100D02*
X181632500Y-115661400D01*
%TO.N,BTN_PIN*%
X192393000Y-130565000D02*
X190675600Y-130565000D01*
X198893000Y-130565000D02*
X192393000Y-130565000D01*
X190675600Y-130565000D02*
X188813100Y-128702500D01*
%TO.N,LED_PIN_A*%
X196905300Y-98042500D02*
X194401000Y-100546800D01*
X199898000Y-98042500D02*
X196905300Y-98042500D01*
X194401000Y-100546800D02*
X194401000Y-101702400D01*
%TO.N,MOTOR_RELAY_COIL*%
X134132500Y-130514500D02*
X132303000Y-128685000D01*
X191885500Y-117430000D02*
X190481500Y-117430000D01*
X193952300Y-135586600D02*
X197370700Y-139005000D01*
X187011500Y-128598400D02*
X190303300Y-131890200D01*
X190481500Y-117430000D02*
X187011500Y-120900000D01*
X193952300Y-134488600D02*
X193952300Y-135586600D01*
X187011500Y-120900000D02*
X187011500Y-128598400D01*
X185095400Y-130514500D02*
X134132500Y-130514500D01*
X197370700Y-139005000D02*
X198243000Y-139005000D01*
X187011500Y-128598400D02*
X185095400Y-130514500D01*
X190303300Y-131890200D02*
X191353900Y-131890200D01*
X191353900Y-131890200D02*
X193952300Y-134488600D01*
%TO.N,LED1_A*%
X200399200Y-106386400D02*
X200098100Y-106386400D01*
X198461400Y-108970800D02*
X195857000Y-111575200D01*
X198461400Y-108023100D02*
X198461400Y-108970800D01*
X202674900Y-104110700D02*
X200399200Y-106386400D01*
X200098100Y-106386400D02*
X198461400Y-108023100D01*
X195416900Y-111575200D02*
X194366600Y-112625500D01*
X194366600Y-112625500D02*
X194366600Y-113296700D01*
X202674900Y-103405300D02*
X202674900Y-104110700D01*
X201762100Y-102492500D02*
X202674900Y-103405300D01*
X195857000Y-111575200D02*
X195416900Y-111575200D01*
X199898000Y-102492500D02*
X201762100Y-102492500D01*
%TO.N,N$SW2.1*%
X172983000Y-137295000D02*
X179483000Y-137295000D01*
%TO.N,N$SW2.2*%
X172983000Y-141795000D02*
X179483000Y-141795000D01*
%TO.N,AC_L*%
D39*
X125410500Y-115616700D02*
X115582200Y-125445000D01*
X125410500Y-109026600D02*
X125410500Y-115616700D01*
X114766300Y-103258000D02*
X119641900Y-103258000D01*
X115582200Y-125445000D02*
X109195000Y-125445000D01*
X119641900Y-103258000D02*
X125410500Y-109026600D01*
X109295000Y-97005000D02*
X109295000Y-97786700D01*
X109295000Y-97786700D02*
X114766300Y-103258000D01*
%TO.N,MOTOR_RELAY_B*%
D41*
X188513700Y-116291700D02*
X193572200Y-116291700D01*
X191343500Y-98542000D02*
X190579800Y-98542000D01*
X191843000Y-98042500D02*
X191343500Y-98542000D01*
X193572200Y-116291700D02*
X193760500Y-116480000D01*
%TD*%
%TA.AperFunction,Conductor*%
%TO.N,GND*%
G36*
X182593000Y-150225000D02*
G01*
X183228237Y-150225000D01*
X183295276Y-150244685D01*
X183341031Y-150297489D01*
X183350975Y-150366647D01*
X183321950Y-150430203D01*
X183315918Y-150436681D01*
X182462719Y-151289881D01*
X182401396Y-151323366D01*
X182375038Y-151326200D01*
X182311061Y-151326200D01*
X182244022Y-151306515D01*
X182223380Y-151289881D01*
X181370180Y-150436681D01*
X181336695Y-150375358D01*
X181341679Y-150305666D01*
X181383551Y-150249733D01*
X181449015Y-150225316D01*
X181457861Y-150225000D01*
X182093000Y-150225000D01*
X182093000Y-149200277D01*
X182169306Y-149244333D01*
X182283756Y-149275000D01*
X182402244Y-149275000D01*
X182516694Y-149244333D01*
X182593000Y-149200277D01*
X182593000Y-150225000D01*
G37*
%TD.AperFunction*%
%TA.AperFunction,Conductor*%
G36*
X172005473Y-144779185D02*
G01*
X172051228Y-144831989D01*
X172061172Y-144901147D01*
X172037701Y-144957810D01*
X172021761Y-144979102D01*
X171959203Y-145062669D01*
X171959202Y-145062671D01*
X171908908Y-145197517D01*
X171902501Y-145257116D01*
X171902500Y-145257135D01*
X171902500Y-147052870D01*
X171902501Y-147052876D01*
X171908908Y-147112483D01*
X171959202Y-147247328D01*
X171959206Y-147247335D01*
X172045452Y-147362544D01*
X172045455Y-147362547D01*
X172160664Y-147448793D01*
X172160673Y-147448798D01*
X172233665Y-147476022D01*
X172289599Y-147517893D01*
X172314017Y-147583357D01*
X172299166Y-147651630D01*
X172278014Y-147679885D01*
X169904719Y-150053181D01*
X169843396Y-150086666D01*
X169817038Y-150089500D01*
X164828291Y-150089500D01*
X164761252Y-150069815D01*
X164731644Y-150043187D01*
X164690722Y-149992278D01*
X164690721Y-149992277D01*
X164621514Y-149936647D01*
X164581595Y-149879304D01*
X164579015Y-149809482D01*
X164614594Y-149749349D01*
X164621514Y-149743353D01*
X164640701Y-149727930D01*
X164690722Y-149687722D01*
X164731644Y-149636813D01*
X164788987Y-149596894D01*
X164828291Y-149590500D01*
X165592693Y-149590500D01*
X165592694Y-149590499D01*
X165766666Y-149555895D01*
X165848606Y-149521953D01*
X165930547Y-149488013D01*
X166020862Y-149427666D01*
X166078036Y-149389464D01*
X170671680Y-144795818D01*
X170733003Y-144762334D01*
X170759361Y-144759500D01*
X171938434Y-144759500D01*
X172005473Y-144779185D01*
G37*
%TD.AperFunction*%
%TA.AperFunction,Conductor*%
G36*
X177648736Y-144779185D02*
G01*
X177694491Y-144831989D01*
X177704435Y-144901147D01*
X177675410Y-144964703D01*
X177637993Y-144993984D01*
X177625443Y-145000378D01*
X177625440Y-145000380D01*
X177571282Y-145039727D01*
X177571282Y-145039728D01*
X178203591Y-145672037D01*
X178140007Y-145689075D01*
X178025993Y-145754901D01*
X177932901Y-145847993D01*
X177867075Y-145962007D01*
X177850037Y-146025591D01*
X177217728Y-145393282D01*
X177217727Y-145393282D01*
X177178380Y-145447440D01*
X177178376Y-145447446D01*
X177173760Y-145456505D01*
X177125781Y-145507297D01*
X177057959Y-145524087D01*
X176991826Y-145501543D01*
X176952794Y-145456493D01*
X176948051Y-145447184D01*
X176948049Y-145447181D01*
X176948048Y-145447179D01*
X176823109Y-145275213D01*
X176672786Y-145124890D01*
X176500817Y-144999949D01*
X176489110Y-144993984D01*
X176438315Y-144946010D01*
X176421520Y-144878189D01*
X176444058Y-144812054D01*
X176498773Y-144768603D01*
X176545406Y-144759500D01*
X177581697Y-144759500D01*
X177648736Y-144779185D01*
G37*
%TD.AperFunction*%
%TA.AperFunction,Conductor*%
G36*
X203616943Y-81019685D02*
G01*
X203626377Y-81026389D01*
X203751573Y-81124474D01*
X203762781Y-81134404D01*
X203965596Y-81337219D01*
X203975525Y-81348426D01*
X204073611Y-81473623D01*
X204099460Y-81538532D01*
X204100000Y-81550094D01*
X204100000Y-159649903D01*
X204080315Y-159716942D01*
X204073611Y-159726376D01*
X203975525Y-159851573D01*
X203965595Y-159862781D01*
X203762781Y-160065595D01*
X203751574Y-160075524D01*
X203626378Y-160173610D01*
X203561466Y-160199460D01*
X203549904Y-160200000D01*
X154722000Y-160200000D01*
X154654961Y-160180315D01*
X154609206Y-160127511D01*
X154598000Y-160076000D01*
X154598000Y-157081995D01*
X199298200Y-157081995D01*
X199298200Y-157318004D01*
X199298201Y-157318020D01*
X199329006Y-157552010D01*
X199390094Y-157779993D01*
X199480414Y-157998045D01*
X199480419Y-157998056D01*
X199551377Y-158120957D01*
X199598427Y-158202450D01*
X199598429Y-158202453D01*
X199598430Y-158202454D01*
X199742106Y-158389697D01*
X199742112Y-158389704D01*
X199908995Y-158556587D01*
X199909001Y-158556592D01*
X200096250Y-158700273D01*
X200227618Y-158776118D01*
X200300643Y-158818280D01*
X200300648Y-158818282D01*
X200300651Y-158818284D01*
X200518707Y-158908606D01*
X200746686Y-158969693D01*
X200980689Y-159000500D01*
X200980696Y-159000500D01*
X201216704Y-159000500D01*
X201216711Y-159000500D01*
X201450714Y-158969693D01*
X201678693Y-158908606D01*
X201896749Y-158818284D01*
X202101150Y-158700273D01*
X202288399Y-158556592D01*
X202455292Y-158389699D01*
X202598973Y-158202450D01*
X202716984Y-157998049D01*
X202807306Y-157779993D01*
X202868393Y-157552014D01*
X202899200Y-157318011D01*
X202899200Y-157081989D01*
X202868393Y-156847986D01*
X202807306Y-156620007D01*
X202716984Y-156401951D01*
X202716982Y-156401948D01*
X202716980Y-156401943D01*
X202674818Y-156328918D01*
X202598973Y-156197550D01*
X202455292Y-156010301D01*
X202455287Y-156010295D01*
X202288404Y-155843412D01*
X202288397Y-155843406D01*
X202101154Y-155699730D01*
X202101153Y-155699729D01*
X202101150Y-155699727D01*
X202019657Y-155652677D01*
X201896756Y-155581719D01*
X201896745Y-155581714D01*
X201678693Y-155491394D01*
X201450710Y-155430306D01*
X201216720Y-155399501D01*
X201216717Y-155399500D01*
X201216711Y-155399500D01*
X200980689Y-155399500D01*
X200980683Y-155399500D01*
X200980679Y-155399501D01*
X200746689Y-155430306D01*
X200518706Y-155491394D01*
X200300654Y-155581714D01*
X200300643Y-155581719D01*
X200096245Y-155699730D01*
X199909002Y-155843406D01*
X199908995Y-155843412D01*
X199742112Y-156010295D01*
X199742106Y-156010302D01*
X199598430Y-156197545D01*
X199480419Y-156401943D01*
X199480414Y-156401954D01*
X199390094Y-156620006D01*
X199329006Y-156847989D01*
X199298201Y-157081979D01*
X199298200Y-157081995D01*
X154598000Y-157081995D01*
X154598000Y-147231966D01*
X155642500Y-147231966D01*
X155642500Y-150148028D01*
X155642501Y-150148034D01*
X155653113Y-150267415D01*
X155709089Y-150463045D01*
X155709090Y-150463048D01*
X155709091Y-150463049D01*
X155803302Y-150643407D01*
X155803304Y-150643409D01*
X155931890Y-150801109D01*
X156025803Y-150877684D01*
X156089593Y-150929698D01*
X156269951Y-151023909D01*
X156465582Y-151079886D01*
X156584963Y-151090500D01*
X157701036Y-151090499D01*
X157820418Y-151079886D01*
X158016049Y-151023909D01*
X158196407Y-150929698D01*
X158354109Y-150801109D01*
X158482698Y-150643407D01*
X158576909Y-150463049D01*
X158632886Y-150267418D01*
X158643500Y-150148037D01*
X158643500Y-149714500D01*
X158663185Y-149647461D01*
X158715989Y-149601706D01*
X158767500Y-149590500D01*
X160320300Y-149590500D01*
X160387339Y-149610185D01*
X160433094Y-149662989D01*
X160444300Y-149714500D01*
X160444300Y-152677996D01*
X160478903Y-152851958D01*
X160478905Y-152851966D01*
X160509639Y-152926164D01*
X160546783Y-153015840D01*
X160546787Y-153015847D01*
X160598068Y-153092594D01*
X160613824Y-153116174D01*
X160645334Y-153163334D01*
X160645338Y-153163339D01*
X162213464Y-154731464D01*
X162213466Y-154731466D01*
X162272536Y-154770933D01*
X162272539Y-154770936D01*
X162360949Y-154830010D01*
X162360953Y-154830013D01*
X162442893Y-154863953D01*
X162524834Y-154897895D01*
X162698803Y-154932499D01*
X162698807Y-154932500D01*
X162698808Y-154932500D01*
X162876193Y-154932500D01*
X162876194Y-154932499D01*
X163050166Y-154897895D01*
X163132106Y-154863953D01*
X163214047Y-154830013D01*
X163214049Y-154830011D01*
X163214052Y-154830010D01*
X163302455Y-154770939D01*
X163302455Y-154770938D01*
X163302459Y-154770936D01*
X163361536Y-154731464D01*
X163486964Y-154606036D01*
X163526436Y-154546959D01*
X163585513Y-154458547D01*
X163624754Y-154363811D01*
X163653395Y-154294666D01*
X163688000Y-154120692D01*
X163688000Y-153943308D01*
X163653395Y-153769334D01*
X163619453Y-153687393D01*
X163585513Y-153605453D01*
X163506957Y-153487886D01*
X163486964Y-153457964D01*
X163486962Y-153457961D01*
X163486959Y-153457958D01*
X162439234Y-152410234D01*
X162405749Y-152348911D01*
X162410733Y-152279219D01*
X162452605Y-152223286D01*
X162518069Y-152198869D01*
X162556842Y-152202219D01*
X162699102Y-152237598D01*
X162699103Y-152237598D01*
X162699111Y-152237600D01*
X162741877Y-152240500D01*
X164144122Y-152240499D01*
X164186889Y-152237600D01*
X164371693Y-152191641D01*
X164542296Y-152107030D01*
X164690722Y-151987722D01*
X164731644Y-151936813D01*
X164788987Y-151896894D01*
X164828291Y-151890500D01*
X170330093Y-151890500D01*
X170330094Y-151890499D01*
X170504066Y-151855895D01*
X170586006Y-151821953D01*
X170667947Y-151788013D01*
X170764639Y-151723405D01*
X170815436Y-151689464D01*
X173612180Y-148892718D01*
X173673503Y-148859234D01*
X173699861Y-148856400D01*
X177191538Y-148856400D01*
X177258577Y-148876085D01*
X177279219Y-148892719D01*
X181187236Y-152800735D01*
X181312662Y-152926161D01*
X181312665Y-152926164D01*
X181460146Y-153024709D01*
X181460159Y-153024716D01*
X181583063Y-153075623D01*
X181624034Y-153092594D01*
X181666635Y-153101068D01*
X181798005Y-153127200D01*
X181798008Y-153127200D01*
X182888093Y-153127200D01*
X182888094Y-153127199D01*
X183062066Y-153092595D01*
X183144006Y-153058653D01*
X183225947Y-153024713D01*
X183225949Y-153024711D01*
X183225952Y-153024710D01*
X183314355Y-152965639D01*
X183314355Y-152965638D01*
X183314359Y-152965636D01*
X183373436Y-152926164D01*
X184847080Y-151452518D01*
X184908403Y-151419034D01*
X184934761Y-151416200D01*
X196980993Y-151416200D01*
X196980994Y-151416199D01*
X197154966Y-151381595D01*
X197236906Y-151347653D01*
X197318847Y-151313713D01*
X197410210Y-151252666D01*
X197466336Y-151215164D01*
X197879681Y-150801819D01*
X197941004Y-150768334D01*
X197967362Y-150765500D01*
X199143005Y-150765500D01*
X199143010Y-150765500D01*
X199245798Y-150754999D01*
X199412335Y-150699814D01*
X199561656Y-150607712D01*
X199685712Y-150483656D01*
X199777814Y-150334335D01*
X199832999Y-150167798D01*
X199843500Y-150065010D01*
X199843500Y-148264990D01*
X199832999Y-148162202D01*
X199777814Y-147995665D01*
X199685712Y-147846344D01*
X199561656Y-147722288D01*
X199447101Y-147651630D01*
X199412337Y-147630187D01*
X199412332Y-147630185D01*
X199403279Y-147627185D01*
X199245798Y-147575001D01*
X199245796Y-147575000D01*
X199143017Y-147564500D01*
X199143010Y-147564500D01*
X197342990Y-147564500D01*
X197342982Y-147564500D01*
X197240203Y-147575000D01*
X197240202Y-147575001D01*
X197157669Y-147602349D01*
X197073667Y-147630185D01*
X197073662Y-147630187D01*
X196924342Y-147722289D01*
X196800289Y-147846342D01*
X196708187Y-147995662D01*
X196708185Y-147995667D01*
X196696376Y-148031306D01*
X196653001Y-148162202D01*
X196653001Y-148162203D01*
X196653000Y-148162203D01*
X196642500Y-148264982D01*
X196642500Y-149440638D01*
X196622815Y-149507677D01*
X196606181Y-149528319D01*
X196555619Y-149578881D01*
X196494296Y-149612366D01*
X196467938Y-149615200D01*
X186254541Y-149615200D01*
X186187502Y-149595515D01*
X186141747Y-149542711D01*
X186131803Y-149473553D01*
X186144057Y-149434904D01*
X186180893Y-149362610D01*
X186180896Y-149362603D01*
X186209359Y-149275000D01*
X186249015Y-149152951D01*
X186283500Y-148935222D01*
X186283500Y-148714778D01*
X186249015Y-148497049D01*
X186214955Y-148392221D01*
X186180896Y-148287396D01*
X186180895Y-148287393D01*
X186080815Y-148090978D01*
X186033986Y-148026523D01*
X186033985Y-148026520D01*
X185951247Y-147912641D01*
X185951243Y-147912636D01*
X185795363Y-147756756D01*
X185795358Y-147756752D01*
X185617025Y-147627187D01*
X185617024Y-147627186D01*
X185617022Y-147627185D01*
X185531006Y-147583357D01*
X185420606Y-147527104D01*
X185420603Y-147527103D01*
X185210952Y-147458985D01*
X185087928Y-147439500D01*
X184993222Y-147424500D01*
X184772778Y-147424500D01*
X184700201Y-147435995D01*
X184555047Y-147458985D01*
X184345396Y-147527103D01*
X184345393Y-147527104D01*
X184148974Y-147627187D01*
X183970641Y-147756752D01*
X183970636Y-147756756D01*
X183920075Y-147807317D01*
X183858752Y-147840801D01*
X183789060Y-147835816D01*
X183733127Y-147793945D01*
X183716213Y-147762968D01*
X183686354Y-147682913D01*
X183686350Y-147682906D01*
X183600190Y-147567812D01*
X183600187Y-147567809D01*
X183485093Y-147481649D01*
X183485086Y-147481645D01*
X183350379Y-147431403D01*
X183350372Y-147431401D01*
X183290844Y-147425000D01*
X182593000Y-147425000D01*
X182593000Y-148449722D01*
X182516694Y-148405667D01*
X182402244Y-148375000D01*
X182283756Y-148375000D01*
X182169306Y-148405667D01*
X182093000Y-148449722D01*
X182093000Y-147425000D01*
X181395155Y-147425000D01*
X181335627Y-147431401D01*
X181335620Y-147431403D01*
X181200913Y-147481645D01*
X181200906Y-147481649D01*
X181085812Y-147567809D01*
X181085809Y-147567812D01*
X180999649Y-147682906D01*
X180999645Y-147682913D01*
X180949403Y-147817620D01*
X180949401Y-147817627D01*
X180943000Y-147877155D01*
X180943000Y-148575000D01*
X181967722Y-148575000D01*
X181923667Y-148651306D01*
X181893000Y-148765756D01*
X181893000Y-148884244D01*
X181923667Y-148998694D01*
X181967722Y-149075000D01*
X180943000Y-149075000D01*
X180943000Y-149710138D01*
X180923315Y-149777177D01*
X180870511Y-149822932D01*
X180801353Y-149832876D01*
X180737797Y-149803851D01*
X180731319Y-149797819D01*
X178608146Y-147674646D01*
X178574661Y-147613323D01*
X178579645Y-147543631D01*
X178621517Y-147487698D01*
X178657510Y-147469034D01*
X178851215Y-147406096D01*
X179040554Y-147309622D01*
X179094716Y-147270270D01*
X179094717Y-147270270D01*
X178462408Y-146637962D01*
X178525993Y-146620925D01*
X178640007Y-146555099D01*
X178733099Y-146462007D01*
X178798925Y-146347993D01*
X178815962Y-146284408D01*
X179448270Y-146916717D01*
X179448270Y-146916716D01*
X179487622Y-146862554D01*
X179515850Y-146807155D01*
X188503000Y-146807155D01*
X188503000Y-147505000D01*
X189527722Y-147505000D01*
X189483667Y-147581306D01*
X189453000Y-147695756D01*
X189453000Y-147814244D01*
X189483667Y-147928694D01*
X189527722Y-148005000D01*
X188503000Y-148005000D01*
X188503000Y-148702844D01*
X188509401Y-148762372D01*
X188509403Y-148762379D01*
X188559645Y-148897086D01*
X188559649Y-148897093D01*
X188645809Y-149012187D01*
X188645812Y-149012190D01*
X188760906Y-149098350D01*
X188760913Y-149098354D01*
X188895620Y-149148596D01*
X188895627Y-149148598D01*
X188955155Y-149154999D01*
X188955172Y-149155000D01*
X189653000Y-149155000D01*
X189653000Y-148130277D01*
X189729306Y-148174333D01*
X189843756Y-148205000D01*
X189962244Y-148205000D01*
X190076694Y-148174333D01*
X190153000Y-148130277D01*
X190153000Y-149155000D01*
X190850828Y-149155000D01*
X190850844Y-149154999D01*
X190910372Y-149148598D01*
X190910379Y-149148596D01*
X191045086Y-149098354D01*
X191045093Y-149098350D01*
X191160187Y-149012190D01*
X191160190Y-149012187D01*
X191246350Y-148897093D01*
X191246354Y-148897086D01*
X191276213Y-148817031D01*
X191318084Y-148761097D01*
X191383548Y-148736680D01*
X191451821Y-148751531D01*
X191480076Y-148772683D01*
X191530636Y-148823243D01*
X191530641Y-148823247D01*
X191684762Y-148935221D01*
X191708978Y-148952815D01*
X191799020Y-148998694D01*
X191905393Y-149052895D01*
X191905396Y-149052896D01*
X191973427Y-149075000D01*
X192115049Y-149121015D01*
X192332778Y-149155500D01*
X192332779Y-149155500D01*
X192553221Y-149155500D01*
X192553222Y-149155500D01*
X192770951Y-149121015D01*
X192980606Y-149052895D01*
X193177022Y-148952815D01*
X193355365Y-148823242D01*
X193511242Y-148667365D01*
X193640815Y-148489022D01*
X193740895Y-148292606D01*
X193809015Y-148082951D01*
X193843500Y-147865222D01*
X193843500Y-147644778D01*
X193809015Y-147427049D01*
X193770861Y-147309622D01*
X193740896Y-147217396D01*
X193740895Y-147217393D01*
X193687491Y-147112584D01*
X193640815Y-147020978D01*
X193565238Y-146916954D01*
X193511247Y-146842641D01*
X193511243Y-146842636D01*
X193355363Y-146686756D01*
X193355358Y-146686752D01*
X193177025Y-146557187D01*
X193177024Y-146557186D01*
X193177022Y-146557185D01*
X193114096Y-146525122D01*
X192980606Y-146457104D01*
X192980603Y-146457103D01*
X192770952Y-146388985D01*
X192662086Y-146371742D01*
X192553222Y-146354500D01*
X192332778Y-146354500D01*
X192260201Y-146365995D01*
X192115047Y-146388985D01*
X191905396Y-146457103D01*
X191905393Y-146457104D01*
X191708974Y-146557187D01*
X191530641Y-146686752D01*
X191530636Y-146686756D01*
X191480075Y-146737317D01*
X191418752Y-146770801D01*
X191349060Y-146765816D01*
X191293127Y-146723945D01*
X191276213Y-146692968D01*
X191246354Y-146612913D01*
X191246350Y-146612906D01*
X191160190Y-146497812D01*
X191160187Y-146497809D01*
X191045093Y-146411649D01*
X191045086Y-146411645D01*
X190910379Y-146361403D01*
X190910372Y-146361401D01*
X190850844Y-146355000D01*
X190153000Y-146355000D01*
X190153000Y-147379722D01*
X190076694Y-147335667D01*
X189962244Y-147305000D01*
X189843756Y-147305000D01*
X189729306Y-147335667D01*
X189653000Y-147379722D01*
X189653000Y-146355000D01*
X188955155Y-146355000D01*
X188895627Y-146361401D01*
X188895620Y-146361403D01*
X188760913Y-146411645D01*
X188760906Y-146411649D01*
X188645812Y-146497809D01*
X188645809Y-146497812D01*
X188559649Y-146612906D01*
X188559645Y-146612913D01*
X188509403Y-146747620D01*
X188509401Y-146747627D01*
X188503000Y-146807155D01*
X179515850Y-146807155D01*
X179546218Y-146747556D01*
X179584095Y-146673217D01*
X179649757Y-146471130D01*
X179649757Y-146471127D01*
X179683000Y-146261246D01*
X179683000Y-146048753D01*
X179649757Y-145838872D01*
X179649757Y-145838869D01*
X179584095Y-145636782D01*
X179487624Y-145447449D01*
X179448270Y-145393282D01*
X179448269Y-145393282D01*
X178815962Y-146025590D01*
X178798925Y-145962007D01*
X178733099Y-145847993D01*
X178640007Y-145754901D01*
X178525993Y-145689075D01*
X178462409Y-145672037D01*
X179094716Y-145039728D01*
X179040547Y-145000373D01*
X179028008Y-144993984D01*
X178977213Y-144946010D01*
X178960418Y-144878189D01*
X178982956Y-144812054D01*
X179037671Y-144768603D01*
X179084304Y-144759500D01*
X181187093Y-144759500D01*
X181187094Y-144759499D01*
X181361066Y-144724895D01*
X181443006Y-144690953D01*
X181524947Y-144657013D01*
X181524949Y-144657011D01*
X181524952Y-144657010D01*
X181613355Y-144597939D01*
X181613355Y-144597938D01*
X181613359Y-144597936D01*
X181672436Y-144558464D01*
X182080819Y-144150079D01*
X182142142Y-144116595D01*
X182211833Y-144121579D01*
X182267767Y-144163450D01*
X182292184Y-144228915D01*
X182292500Y-144237761D01*
X182292500Y-145065001D01*
X182292501Y-145065018D01*
X182303000Y-145167796D01*
X182303001Y-145167799D01*
X182338595Y-145275213D01*
X182358186Y-145334334D01*
X182450288Y-145483656D01*
X182574344Y-145607712D01*
X182723666Y-145699814D01*
X182890203Y-145754999D01*
X182992991Y-145765500D01*
X184193008Y-145765499D01*
X184295797Y-145754999D01*
X184462334Y-145699814D01*
X184611656Y-145607712D01*
X184735712Y-145483656D01*
X184827814Y-145334334D01*
X184854955Y-145252427D01*
X184894726Y-145194984D01*
X184959242Y-145168161D01*
X185028018Y-145180476D01*
X185072977Y-145218547D01*
X185108131Y-145266931D01*
X185141034Y-145312219D01*
X185285786Y-145456971D01*
X185401409Y-145540974D01*
X185451390Y-145577287D01*
X185567607Y-145636503D01*
X185633776Y-145670218D01*
X185633778Y-145670218D01*
X185633781Y-145670220D01*
X185691811Y-145689075D01*
X185828465Y-145733477D01*
X185929557Y-145749488D01*
X186030648Y-145765500D01*
X186030649Y-145765500D01*
X186235351Y-145765500D01*
X186235352Y-145765500D01*
X186437534Y-145733477D01*
X186632219Y-145670220D01*
X186814610Y-145577287D01*
X186943482Y-145483657D01*
X186980213Y-145456971D01*
X186980215Y-145456968D01*
X186980219Y-145456966D01*
X187124966Y-145312219D01*
X187124968Y-145312215D01*
X187124971Y-145312213D01*
X187208301Y-145197517D01*
X187245287Y-145146610D01*
X187338220Y-144964219D01*
X187401477Y-144769534D01*
X187433500Y-144567352D01*
X187433500Y-144362648D01*
X187413720Y-144237761D01*
X187401477Y-144160465D01*
X187338218Y-143965776D01*
X187269634Y-143831174D01*
X187245287Y-143783390D01*
X187224019Y-143754117D01*
X187124971Y-143617786D01*
X186980213Y-143473028D01*
X186814613Y-143352715D01*
X186814612Y-143352714D01*
X186814610Y-143352713D01*
X186754898Y-143322288D01*
X186632223Y-143259781D01*
X186437534Y-143196522D01*
X186262995Y-143168878D01*
X186235352Y-143164500D01*
X186030648Y-143164500D01*
X186006329Y-143168351D01*
X185828465Y-143196522D01*
X185633776Y-143259781D01*
X185451386Y-143352715D01*
X185285786Y-143473028D01*
X185141032Y-143617782D01*
X185141028Y-143617787D01*
X185072978Y-143711451D01*
X185017648Y-143754117D01*
X184948035Y-143760096D01*
X184886240Y-143727490D01*
X184854954Y-143677570D01*
X184844646Y-143646463D01*
X184827814Y-143595666D01*
X184735712Y-143446344D01*
X184611656Y-143322288D01*
X184510314Y-143259780D01*
X184462336Y-143230187D01*
X184462331Y-143230185D01*
X184436957Y-143221777D01*
X184295797Y-143175001D01*
X184295795Y-143175000D01*
X184193016Y-143164500D01*
X184193009Y-143164500D01*
X183365761Y-143164500D01*
X183298722Y-143144815D01*
X183252967Y-143092011D01*
X183243023Y-143022853D01*
X183272048Y-142959297D01*
X183278080Y-142952819D01*
X183685900Y-142545000D01*
X184239081Y-141991819D01*
X184300404Y-141958334D01*
X184326762Y-141955500D01*
X189617002Y-141955500D01*
X189684041Y-141975185D01*
X189722539Y-142014401D01*
X189759088Y-142073656D01*
X189883144Y-142197712D01*
X190032466Y-142289814D01*
X190199003Y-142344999D01*
X190301791Y-142355500D01*
X191501808Y-142355499D01*
X191604597Y-142344999D01*
X191771134Y-142289814D01*
X191920456Y-142197712D01*
X192044512Y-142073656D01*
X192136614Y-141924334D01*
X192159902Y-141854054D01*
X192163910Y-141846050D01*
X192181860Y-141826772D01*
X192196855Y-141805116D01*
X192205295Y-141801606D01*
X192211525Y-141794917D01*
X192237049Y-141788404D01*
X192261371Y-141778292D01*
X192277634Y-141778048D01*
X192279225Y-141777643D01*
X192280323Y-141778008D01*
X192284519Y-141777946D01*
X192322325Y-141780921D01*
X193001800Y-141101446D01*
X193001800Y-141107661D01*
X193029059Y-141209394D01*
X193081720Y-141300606D01*
X193156194Y-141375080D01*
X193247406Y-141427741D01*
X193349139Y-141455000D01*
X193355353Y-141455000D01*
X192675876Y-142134474D01*
X192720450Y-142166859D01*
X192902768Y-142259755D01*
X193097382Y-142322990D01*
X193299483Y-142355000D01*
X193504117Y-142355000D01*
X193706217Y-142322990D01*
X193900831Y-142259755D01*
X194083149Y-142166859D01*
X194127721Y-142134474D01*
X193448247Y-141455000D01*
X193454461Y-141455000D01*
X193556194Y-141427741D01*
X193647406Y-141375080D01*
X193721880Y-141300606D01*
X193774541Y-141209394D01*
X193801800Y-141107661D01*
X193801800Y-141101447D01*
X194481274Y-141780921D01*
X194513659Y-141736349D01*
X194606555Y-141554031D01*
X194669790Y-141359417D01*
X194701800Y-141157317D01*
X194701800Y-140952682D01*
X194669790Y-140750582D01*
X194606555Y-140555968D01*
X194513659Y-140373650D01*
X194481274Y-140329077D01*
X194481274Y-140329076D01*
X193801800Y-141008551D01*
X193801800Y-141002339D01*
X193774541Y-140900606D01*
X193721880Y-140809394D01*
X193647406Y-140734920D01*
X193556194Y-140682259D01*
X193454461Y-140655000D01*
X193448246Y-140655000D01*
X194127722Y-139975524D01*
X194127721Y-139975523D01*
X194083159Y-139943147D01*
X194083150Y-139943141D01*
X193900831Y-139850244D01*
X193706217Y-139787009D01*
X193504117Y-139755000D01*
X193299483Y-139755000D01*
X193097382Y-139787009D01*
X192902768Y-139850244D01*
X192720444Y-139943143D01*
X192675877Y-139975523D01*
X192675877Y-139975524D01*
X193355354Y-140655000D01*
X193349139Y-140655000D01*
X193247406Y-140682259D01*
X193156194Y-140734920D01*
X193081720Y-140809394D01*
X193029059Y-140900606D01*
X193001800Y-141002339D01*
X193001800Y-141008553D01*
X192322324Y-140329077D01*
X192284519Y-140332053D01*
X192216141Y-140317689D01*
X192166384Y-140268638D01*
X192163910Y-140263949D01*
X192159901Y-140255942D01*
X192136614Y-140185666D01*
X192044512Y-140036344D01*
X191920456Y-139912288D01*
X191819866Y-139850244D01*
X191771136Y-139820187D01*
X191771131Y-139820185D01*
X191769662Y-139819698D01*
X191604597Y-139765001D01*
X191604595Y-139765000D01*
X191501810Y-139754500D01*
X190301798Y-139754500D01*
X190301781Y-139754501D01*
X190199003Y-139765000D01*
X190199000Y-139765001D01*
X190032468Y-139820185D01*
X190032463Y-139820187D01*
X189883142Y-139912289D01*
X189759089Y-140036342D01*
X189722541Y-140095597D01*
X189670593Y-140142321D01*
X189617002Y-140154500D01*
X183813703Y-140154500D01*
X183639739Y-140189103D01*
X183639723Y-140189108D01*
X183523853Y-140237102D01*
X183523854Y-140237103D01*
X183475851Y-140256987D01*
X183419710Y-140294500D01*
X183328368Y-140355532D01*
X183328360Y-140355538D01*
X180970760Y-142713139D01*
X180909437Y-142746624D01*
X180839745Y-142741640D01*
X180783812Y-142699768D01*
X180759395Y-142634304D01*
X180772593Y-142569165D01*
X180873568Y-142370992D01*
X180946553Y-142146368D01*
X180958069Y-142073657D01*
X180983500Y-141913097D01*
X180983500Y-141676902D01*
X180946553Y-141443631D01*
X180873566Y-141219003D01*
X180789651Y-141054312D01*
X180766343Y-141008567D01*
X180627517Y-140817490D01*
X180460510Y-140650483D01*
X180269433Y-140511657D01*
X180058996Y-140404433D01*
X179834368Y-140331446D01*
X179601097Y-140294500D01*
X179601092Y-140294500D01*
X179364908Y-140294500D01*
X179364903Y-140294500D01*
X179131631Y-140331446D01*
X178907003Y-140404433D01*
X178696566Y-140511657D01*
X178587550Y-140590862D01*
X178505490Y-140650483D01*
X178505488Y-140650485D01*
X178505487Y-140650485D01*
X178338485Y-140817487D01*
X178338485Y-140817488D01*
X178338483Y-140817490D01*
X178284597Y-140891657D01*
X178199657Y-141008566D01*
X178152155Y-141101795D01*
X178104180Y-141152591D01*
X178041670Y-141169500D01*
X174424330Y-141169500D01*
X174357291Y-141149815D01*
X174313845Y-141101795D01*
X174289651Y-141054312D01*
X174266343Y-141008567D01*
X174127517Y-140817490D01*
X173960510Y-140650483D01*
X173769433Y-140511657D01*
X173558996Y-140404433D01*
X173334368Y-140331446D01*
X173101097Y-140294500D01*
X173101092Y-140294500D01*
X172864908Y-140294500D01*
X172864903Y-140294500D01*
X172631631Y-140331446D01*
X172407003Y-140404433D01*
X172196566Y-140511657D01*
X172087550Y-140590862D01*
X172005490Y-140650483D01*
X172005488Y-140650485D01*
X172005487Y-140650485D01*
X171838485Y-140817487D01*
X171838485Y-140817488D01*
X171838483Y-140817490D01*
X171784597Y-140891657D01*
X171699657Y-141008566D01*
X171592433Y-141219003D01*
X171519446Y-141443631D01*
X171482500Y-141676902D01*
X171482500Y-141913097D01*
X171519446Y-142146368D01*
X171592433Y-142370996D01*
X171652155Y-142488205D01*
X171699657Y-142581433D01*
X171795347Y-142713139D01*
X171830567Y-142761614D01*
X171854047Y-142827421D01*
X171838222Y-142895475D01*
X171788116Y-142944170D01*
X171730249Y-142958500D01*
X170246304Y-142958500D01*
X170072339Y-142993103D01*
X170072323Y-142993108D01*
X169956453Y-143041102D01*
X169956454Y-143041103D01*
X169908454Y-143060986D01*
X169837091Y-143108670D01*
X169770413Y-143129548D01*
X169703033Y-143111063D01*
X169656343Y-143059085D01*
X169644200Y-143005568D01*
X169644200Y-142926947D01*
X169607265Y-142693752D01*
X169534302Y-142469197D01*
X169427114Y-142258828D01*
X169366858Y-142175894D01*
X169366858Y-142175893D01*
X168627162Y-142915590D01*
X168610125Y-142852007D01*
X168544299Y-142737993D01*
X168451207Y-142644901D01*
X168337193Y-142579075D01*
X168273609Y-142562037D01*
X169013305Y-141822340D01*
X169013304Y-141822338D01*
X168930374Y-141762087D01*
X168720002Y-141654897D01*
X168495447Y-141581934D01*
X168495448Y-141581934D01*
X168262252Y-141545000D01*
X168026148Y-141545000D01*
X167792952Y-141581934D01*
X167568397Y-141654897D01*
X167358030Y-141762084D01*
X167275094Y-141822340D01*
X168014791Y-142562037D01*
X167951207Y-142579075D01*
X167837193Y-142644901D01*
X167744101Y-142737993D01*
X167678275Y-142852007D01*
X167661237Y-142915590D01*
X166921540Y-142175894D01*
X166861284Y-142258830D01*
X166754097Y-142469197D01*
X166681134Y-142693752D01*
X166644200Y-142926947D01*
X166644200Y-143163052D01*
X166681134Y-143396247D01*
X166754097Y-143620802D01*
X166861287Y-143831174D01*
X166921538Y-143914104D01*
X166921540Y-143914105D01*
X167661237Y-143174408D01*
X167678275Y-143237993D01*
X167744101Y-143352007D01*
X167837193Y-143445099D01*
X167951207Y-143510925D01*
X168014790Y-143527962D01*
X167275093Y-144267658D01*
X167358028Y-144327914D01*
X167568397Y-144435102D01*
X167792952Y-144508065D01*
X167792951Y-144508065D01*
X168026148Y-144545000D01*
X168076137Y-144545000D01*
X168143176Y-144564685D01*
X168188931Y-144617489D01*
X168198875Y-144686647D01*
X168169850Y-144750203D01*
X168163818Y-144756681D01*
X165167319Y-147753181D01*
X165105996Y-147786666D01*
X165079638Y-147789500D01*
X164828291Y-147789500D01*
X164761252Y-147769815D01*
X164731644Y-147743187D01*
X164690724Y-147692280D01*
X164679071Y-147682913D01*
X164621112Y-147636324D01*
X164581196Y-147578985D01*
X164578616Y-147509163D01*
X164614194Y-147449030D01*
X164621115Y-147443033D01*
X164690366Y-147387367D01*
X164690367Y-147387366D01*
X164809607Y-147239025D01*
X164809609Y-147239022D01*
X164894168Y-147068523D01*
X164940102Y-146883824D01*
X164943000Y-146841096D01*
X164943000Y-146640000D01*
X161943000Y-146640000D01*
X161943000Y-146841096D01*
X161945897Y-146883824D01*
X161991831Y-147068523D01*
X162076390Y-147239022D01*
X162076392Y-147239025D01*
X162195630Y-147387364D01*
X162264884Y-147443031D01*
X162304803Y-147500375D01*
X162307383Y-147570197D01*
X162271805Y-147630329D01*
X162264885Y-147636326D01*
X162245846Y-147651630D01*
X162206938Y-147682906D01*
X162195276Y-147692280D01*
X162154356Y-147743187D01*
X162097013Y-147783106D01*
X162057709Y-147789500D01*
X158767499Y-147789500D01*
X158700460Y-147769815D01*
X158654705Y-147717011D01*
X158643499Y-147665500D01*
X158643499Y-147231971D01*
X158643499Y-147231964D01*
X158632886Y-147112582D01*
X158576909Y-146916951D01*
X158482698Y-146736593D01*
X158403937Y-146640000D01*
X158354109Y-146578890D01*
X158222089Y-146471243D01*
X158196407Y-146450302D01*
X158016049Y-146356091D01*
X158016048Y-146356090D01*
X158016045Y-146356089D01*
X157898829Y-146322550D01*
X157820418Y-146300114D01*
X157820415Y-146300113D01*
X157820413Y-146300113D01*
X157754102Y-146294217D01*
X157701037Y-146289500D01*
X157701032Y-146289500D01*
X156584971Y-146289500D01*
X156584965Y-146289500D01*
X156584964Y-146289501D01*
X156573316Y-146290536D01*
X156465584Y-146300113D01*
X156269954Y-146356089D01*
X156179772Y-146403196D01*
X156089593Y-146450302D01*
X156089591Y-146450303D01*
X156089590Y-146450304D01*
X155931890Y-146578890D01*
X155838873Y-146692968D01*
X155803302Y-146736593D01*
X155772686Y-146795205D01*
X155709089Y-146916954D01*
X155679326Y-147020974D01*
X155653143Y-147112483D01*
X155653114Y-147112583D01*
X155653113Y-147112586D01*
X155649086Y-147157887D01*
X155643796Y-147217393D01*
X155642500Y-147231966D01*
X154598000Y-147231966D01*
X154598000Y-145938903D01*
X161943000Y-145938903D01*
X161943000Y-146140000D01*
X163193000Y-146140000D01*
X163693000Y-146140000D01*
X164943000Y-146140000D01*
X164943000Y-145938903D01*
X164940102Y-145896175D01*
X164894168Y-145711476D01*
X164809609Y-145540977D01*
X164809607Y-145540974D01*
X164690367Y-145392633D01*
X164690366Y-145392632D01*
X164542025Y-145273392D01*
X164542022Y-145273390D01*
X164371523Y-145188831D01*
X164186824Y-145142897D01*
X164144097Y-145140000D01*
X163693000Y-145140000D01*
X163693000Y-146140000D01*
X163193000Y-146140000D01*
X163193000Y-145140000D01*
X162741903Y-145140000D01*
X162699175Y-145142897D01*
X162514476Y-145188831D01*
X162343977Y-145273390D01*
X162343974Y-145273392D01*
X162195633Y-145392632D01*
X162195632Y-145392633D01*
X162076392Y-145540974D01*
X162076390Y-145540977D01*
X161991831Y-145711476D01*
X161945897Y-145896175D01*
X161943000Y-145938903D01*
X154598000Y-145938903D01*
X154598000Y-141997135D01*
X156643700Y-141997135D01*
X156643700Y-144092870D01*
X156643701Y-144092876D01*
X156650108Y-144152483D01*
X156700402Y-144287328D01*
X156700406Y-144287335D01*
X156786652Y-144402544D01*
X156786655Y-144402547D01*
X156901864Y-144488793D01*
X156901871Y-144488797D01*
X157036717Y-144539091D01*
X157036716Y-144539091D01*
X157043644Y-144539835D01*
X157096327Y-144545500D01*
X159192072Y-144545499D01*
X159251683Y-144539091D01*
X159386531Y-144488796D01*
X159501746Y-144402546D01*
X159587996Y-144287331D01*
X159638291Y-144152483D01*
X159644700Y-144092873D01*
X159644699Y-143732899D01*
X159664383Y-143665861D01*
X159717187Y-143620106D01*
X159721233Y-143618345D01*
X159767186Y-143599312D01*
X159819284Y-143564500D01*
X159869633Y-143530858D01*
X159956758Y-143443733D01*
X159956758Y-143443731D01*
X159966966Y-143433524D01*
X159966967Y-143433521D01*
X162238672Y-141161819D01*
X162299995Y-141128334D01*
X162326353Y-141125500D01*
X170794607Y-141125500D01*
X170855029Y-141113481D01*
X170915452Y-141101463D01*
X170915455Y-141101461D01*
X170915458Y-141101461D01*
X170948787Y-141087654D01*
X170948786Y-141087654D01*
X170948792Y-141087652D01*
X171029286Y-141054312D01*
X171080509Y-141020084D01*
X171131733Y-140985858D01*
X171218858Y-140898733D01*
X171218859Y-140898731D01*
X171225925Y-140891665D01*
X171225927Y-140891661D01*
X172109971Y-140007619D01*
X172171294Y-139974134D01*
X172197652Y-139971300D01*
X174407850Y-139971300D01*
X174474889Y-139990985D01*
X174476741Y-139992198D01*
X174571021Y-140055194D01*
X174571023Y-140055195D01*
X174571027Y-140055197D01*
X174668563Y-140095597D01*
X174716703Y-140115537D01*
X174871353Y-140146299D01*
X174871356Y-140146300D01*
X174871358Y-140146300D01*
X175029044Y-140146300D01*
X175029045Y-140146299D01*
X175183697Y-140115537D01*
X175329379Y-140055194D01*
X175460489Y-139967589D01*
X175571989Y-139856089D01*
X175659594Y-139724979D01*
X175719937Y-139579297D01*
X175750700Y-139424642D01*
X175750700Y-139266958D01*
X175750700Y-139266955D01*
X175750699Y-139266953D01*
X175725173Y-139138627D01*
X175719937Y-139112303D01*
X175719935Y-139112298D01*
X175659597Y-138966627D01*
X175659590Y-138966614D01*
X175571989Y-138835511D01*
X175571986Y-138835507D01*
X175460492Y-138724013D01*
X175460488Y-138724010D01*
X175329385Y-138636409D01*
X175329372Y-138636402D01*
X175183701Y-138576064D01*
X175183689Y-138576061D01*
X175029045Y-138545300D01*
X175029042Y-138545300D01*
X174871358Y-138545300D01*
X174871355Y-138545300D01*
X174716710Y-138576061D01*
X174716698Y-138576064D01*
X174571027Y-138636402D01*
X174571015Y-138636409D01*
X174476741Y-138699402D01*
X174410064Y-138720280D01*
X174407850Y-138720300D01*
X173955678Y-138720300D01*
X173888639Y-138700615D01*
X173842884Y-138647811D01*
X173832940Y-138578653D01*
X173861965Y-138515097D01*
X173882788Y-138495984D01*
X173960510Y-138439517D01*
X174127517Y-138272510D01*
X174266343Y-138081433D01*
X174313845Y-137988205D01*
X174361820Y-137937409D01*
X174424330Y-137920500D01*
X178041670Y-137920500D01*
X178108709Y-137940185D01*
X178152155Y-137988205D01*
X178199657Y-138081433D01*
X178338483Y-138272510D01*
X178505490Y-138439517D01*
X178696567Y-138578343D01*
X178780139Y-138620925D01*
X178907003Y-138685566D01*
X178907005Y-138685566D01*
X178907008Y-138685568D01*
X179013840Y-138720280D01*
X179131631Y-138758553D01*
X179364903Y-138795500D01*
X179364908Y-138795500D01*
X179601097Y-138795500D01*
X179834368Y-138758553D01*
X179878120Y-138744337D01*
X180058992Y-138685568D01*
X180269433Y-138578343D01*
X180460510Y-138439517D01*
X180627517Y-138272510D01*
X180766343Y-138081433D01*
X180873568Y-137870992D01*
X180946553Y-137646368D01*
X180965520Y-137526614D01*
X180983500Y-137413097D01*
X180983500Y-137176902D01*
X180946553Y-136943631D01*
X180930116Y-136893046D01*
X180881249Y-136742648D01*
X182292500Y-136742648D01*
X182292500Y-136947351D01*
X182324522Y-137149534D01*
X182387781Y-137344223D01*
X182438575Y-137443910D01*
X182478241Y-137521759D01*
X182480715Y-137526613D01*
X182601028Y-137692213D01*
X182745786Y-137836971D01*
X182884030Y-137937409D01*
X182911390Y-137957287D01*
X183027607Y-138016503D01*
X183093776Y-138050218D01*
X183093778Y-138050218D01*
X183093781Y-138050220D01*
X183189845Y-138081433D01*
X183288465Y-138113477D01*
X183389557Y-138129488D01*
X183490648Y-138145500D01*
X183490649Y-138145500D01*
X183695351Y-138145500D01*
X183695352Y-138145500D01*
X183897534Y-138113477D01*
X184092219Y-138050220D01*
X184274610Y-137957287D01*
X184367590Y-137889732D01*
X184440213Y-137836971D01*
X184440215Y-137836968D01*
X184440219Y-137836966D01*
X184584966Y-137692219D01*
X184584968Y-137692215D01*
X184584971Y-137692213D01*
X184705284Y-137526614D01*
X184705285Y-137526613D01*
X184705287Y-137526610D01*
X184752516Y-137433917D01*
X184800489Y-137383123D01*
X184868310Y-137366328D01*
X184934445Y-137388865D01*
X184973483Y-137433917D01*
X185017348Y-137520006D01*
X185020715Y-137526614D01*
X185141028Y-137692213D01*
X185285786Y-137836971D01*
X185424030Y-137937409D01*
X185451390Y-137957287D01*
X185567607Y-138016503D01*
X185633776Y-138050218D01*
X185633778Y-138050218D01*
X185633781Y-138050220D01*
X185729845Y-138081433D01*
X185828465Y-138113477D01*
X185929557Y-138129488D01*
X186030648Y-138145500D01*
X186030649Y-138145500D01*
X186235351Y-138145500D01*
X186235352Y-138145500D01*
X186437534Y-138113477D01*
X186632219Y-138050220D01*
X186814610Y-137957287D01*
X186907590Y-137889732D01*
X186980213Y-137836971D01*
X186980215Y-137836968D01*
X186980219Y-137836966D01*
X187124966Y-137692219D01*
X187124968Y-137692215D01*
X187124971Y-137692213D01*
X187177732Y-137619590D01*
X187245287Y-137526610D01*
X187338220Y-137344219D01*
X187401477Y-137149534D01*
X187433500Y-136947352D01*
X187433500Y-136742648D01*
X187419236Y-136652591D01*
X187401477Y-136540465D01*
X187338218Y-136345776D01*
X187313209Y-136296694D01*
X187292515Y-136256080D01*
X187245287Y-136163390D01*
X187235910Y-136150483D01*
X187124971Y-135997786D01*
X186980213Y-135853028D01*
X186814613Y-135732715D01*
X186814612Y-135732714D01*
X186814610Y-135732713D01*
X186709654Y-135679235D01*
X186632223Y-135639781D01*
X186437534Y-135576522D01*
X186262995Y-135548878D01*
X186235352Y-135544500D01*
X186030648Y-135544500D01*
X186006329Y-135548351D01*
X185828465Y-135576522D01*
X185633776Y-135639781D01*
X185451386Y-135732715D01*
X185285786Y-135853028D01*
X185141028Y-135997786D01*
X185020715Y-136163386D01*
X184973485Y-136256080D01*
X184925510Y-136306876D01*
X184857689Y-136323671D01*
X184791554Y-136301134D01*
X184752515Y-136256080D01*
X184751883Y-136254840D01*
X184705287Y-136163390D01*
X184695910Y-136150483D01*
X184584971Y-135997786D01*
X184440213Y-135853028D01*
X184274613Y-135732715D01*
X184274612Y-135732714D01*
X184274610Y-135732713D01*
X184169654Y-135679235D01*
X184092223Y-135639781D01*
X183897534Y-135576522D01*
X183722995Y-135548878D01*
X183695352Y-135544500D01*
X183490648Y-135544500D01*
X183466329Y-135548351D01*
X183288465Y-135576522D01*
X183093776Y-135639781D01*
X182911386Y-135732715D01*
X182745786Y-135853028D01*
X182601028Y-135997786D01*
X182480715Y-136163386D01*
X182387781Y-136345776D01*
X182324522Y-136540465D01*
X182292500Y-136742648D01*
X180881249Y-136742648D01*
X180873568Y-136719008D01*
X180766343Y-136508567D01*
X180627517Y-136317490D01*
X180460510Y-136150483D01*
X180269433Y-136011657D01*
X180242200Y-135997781D01*
X180058996Y-135904433D01*
X179834368Y-135831446D01*
X179601097Y-135794500D01*
X179601092Y-135794500D01*
X179364908Y-135794500D01*
X179364903Y-135794500D01*
X179131631Y-135831446D01*
X178907003Y-135904433D01*
X178696566Y-136011657D01*
X178612882Y-136072458D01*
X178505490Y-136150483D01*
X178505488Y-136150485D01*
X178505487Y-136150485D01*
X178338485Y-136317487D01*
X178338485Y-136317488D01*
X178338483Y-136317490D01*
X178316379Y-136347914D01*
X178199657Y-136508566D01*
X178152155Y-136601795D01*
X178104180Y-136652591D01*
X178041670Y-136669500D01*
X174424330Y-136669500D01*
X174357291Y-136649815D01*
X174313845Y-136601795D01*
X174282596Y-136540465D01*
X174266343Y-136508567D01*
X174127517Y-136317490D01*
X173960510Y-136150483D01*
X173769433Y-136011657D01*
X173742200Y-135997781D01*
X173558996Y-135904433D01*
X173334368Y-135831446D01*
X173101097Y-135794500D01*
X173101092Y-135794500D01*
X172864908Y-135794500D01*
X172864903Y-135794500D01*
X172631631Y-135831446D01*
X172407003Y-135904433D01*
X172196566Y-136011657D01*
X172112882Y-136072458D01*
X172005490Y-136150483D01*
X172005488Y-136150485D01*
X172005487Y-136150485D01*
X171838485Y-136317487D01*
X171838485Y-136317488D01*
X171838483Y-136317490D01*
X171816379Y-136347914D01*
X171699657Y-136508566D01*
X171592433Y-136719003D01*
X171519446Y-136943631D01*
X171482500Y-137176902D01*
X171482500Y-137413097D01*
X171519446Y-137646368D01*
X171592433Y-137870996D01*
X171638981Y-137962350D01*
X171699657Y-138081433D01*
X171838483Y-138272510D01*
X172005490Y-138439517D01*
X172083209Y-138495983D01*
X172125873Y-138551312D01*
X172131852Y-138620925D01*
X172099246Y-138682720D01*
X172038407Y-138717078D01*
X172010322Y-138720300D01*
X171825589Y-138720300D01*
X171765171Y-138732318D01*
X171721943Y-138740916D01*
X171704746Y-138744337D01*
X171590916Y-138791487D01*
X171590907Y-138791492D01*
X171488468Y-138859940D01*
X171444905Y-138903503D01*
X171401342Y-138947067D01*
X171401339Y-138947070D01*
X170510229Y-139838181D01*
X170448906Y-139871666D01*
X170422548Y-139874500D01*
X162083641Y-139874500D01*
X162083621Y-139874499D01*
X162077507Y-139874499D01*
X161954294Y-139874499D01*
X161853497Y-139894548D01*
X161853492Y-139894548D01*
X161833449Y-139898536D01*
X161833447Y-139898536D01*
X161786297Y-139918067D01*
X161719619Y-139945685D01*
X161719617Y-139945686D01*
X161617166Y-140014141D01*
X161617163Y-140014144D01*
X159789803Y-141841505D01*
X159728480Y-141874990D01*
X159658788Y-141870006D01*
X159602855Y-141828134D01*
X159592983Y-141810051D01*
X159592247Y-141810454D01*
X159587993Y-141802664D01*
X159501747Y-141687455D01*
X159501744Y-141687452D01*
X159386535Y-141601206D01*
X159386528Y-141601202D01*
X159251682Y-141550908D01*
X159251683Y-141550908D01*
X159192083Y-141544501D01*
X159192081Y-141544500D01*
X159192073Y-141544500D01*
X159192064Y-141544500D01*
X157096329Y-141544500D01*
X157096323Y-141544501D01*
X157036716Y-141550908D01*
X156901871Y-141601202D01*
X156901864Y-141601206D01*
X156786655Y-141687452D01*
X156786652Y-141687455D01*
X156700406Y-141802664D01*
X156700402Y-141802671D01*
X156650108Y-141937517D01*
X156643701Y-141997116D01*
X156643700Y-141997135D01*
X154598000Y-141997135D01*
X154598000Y-131264000D01*
X154617685Y-131196961D01*
X154670489Y-131151206D01*
X154722000Y-131140000D01*
X185157007Y-131140000D01*
X185217429Y-131127981D01*
X185277852Y-131115963D01*
X185277855Y-131115961D01*
X185277858Y-131115961D01*
X185311187Y-131102154D01*
X185311186Y-131102154D01*
X185311192Y-131102152D01*
X185391686Y-131068812D01*
X185442909Y-131034584D01*
X185494133Y-131000358D01*
X185581258Y-130913233D01*
X185581258Y-130913231D01*
X185591466Y-130903024D01*
X185591467Y-130903021D01*
X186923822Y-129570667D01*
X186985141Y-129537185D01*
X187054833Y-129542169D01*
X187099180Y-129570670D01*
X189814316Y-132285806D01*
X189814345Y-132285837D01*
X189904563Y-132376055D01*
X189904567Y-132376058D01*
X190007007Y-132444507D01*
X190007013Y-132444510D01*
X190007014Y-132444511D01*
X190120848Y-132491663D01*
X190181271Y-132503681D01*
X190241693Y-132515700D01*
X190241694Y-132515700D01*
X191043448Y-132515700D01*
X191110487Y-132535385D01*
X191131129Y-132552019D01*
X192003802Y-133424692D01*
X192037287Y-133486015D01*
X192032303Y-133555707D01*
X191990431Y-133611640D01*
X191954440Y-133630304D01*
X191817195Y-133674897D01*
X191606830Y-133782084D01*
X191523894Y-133842340D01*
X192222766Y-134541212D01*
X192180708Y-134552482D01*
X192055292Y-134624890D01*
X191952890Y-134727292D01*
X191880482Y-134852708D01*
X191869212Y-134894766D01*
X191170340Y-134195894D01*
X191110084Y-134278830D01*
X191002897Y-134489197D01*
X190929934Y-134713752D01*
X190893000Y-134946947D01*
X190893000Y-135183052D01*
X190929934Y-135416247D01*
X191002897Y-135640802D01*
X191110087Y-135851174D01*
X191170338Y-135934104D01*
X191170340Y-135934105D01*
X191869212Y-135235233D01*
X191880482Y-135277292D01*
X191952890Y-135402708D01*
X192055292Y-135505110D01*
X192180708Y-135577518D01*
X192222765Y-135588787D01*
X191523893Y-136287658D01*
X191606828Y-136347914D01*
X191817197Y-136455102D01*
X192041752Y-136528065D01*
X192041751Y-136528065D01*
X192274948Y-136565000D01*
X192511052Y-136565000D01*
X192744247Y-136528065D01*
X192968802Y-136455102D01*
X193179163Y-136347918D01*
X193179169Y-136347914D01*
X193262104Y-136287658D01*
X193262105Y-136287658D01*
X192563233Y-135588787D01*
X192605292Y-135577518D01*
X192730708Y-135505110D01*
X192833110Y-135402708D01*
X192905518Y-135277292D01*
X192916787Y-135235233D01*
X193299466Y-135617912D01*
X193332951Y-135679235D01*
X193333402Y-135681402D01*
X193350835Y-135769044D01*
X193350840Y-135769061D01*
X193397985Y-135882880D01*
X193397987Y-135882883D01*
X193397988Y-135882886D01*
X193432212Y-135934105D01*
X193432214Y-135934107D01*
X193432215Y-135934109D01*
X193466440Y-135985331D01*
X193466441Y-135985332D01*
X193466442Y-135985333D01*
X193553567Y-136072458D01*
X193553568Y-136072458D01*
X193560635Y-136079525D01*
X193560634Y-136079525D01*
X193560638Y-136079528D01*
X196619736Y-139138627D01*
X196653221Y-139199950D01*
X196654528Y-139206909D01*
X196681909Y-139379782D01*
X196681910Y-139379785D01*
X196759759Y-139619379D01*
X196871244Y-139838181D01*
X196874132Y-139843848D01*
X197022201Y-140047649D01*
X197022205Y-140047654D01*
X197200345Y-140225794D01*
X197200350Y-140225798D01*
X197346599Y-140332053D01*
X197404155Y-140373870D01*
X197547184Y-140446747D01*
X197628616Y-140488239D01*
X197628618Y-140488239D01*
X197628621Y-140488241D01*
X197868215Y-140566090D01*
X198117038Y-140605500D01*
X198117039Y-140605500D01*
X198368961Y-140605500D01*
X198368962Y-140605500D01*
X198617785Y-140566090D01*
X198857379Y-140488241D01*
X199081845Y-140373870D01*
X199285656Y-140225793D01*
X199463793Y-140047656D01*
X199611870Y-139843845D01*
X199726241Y-139619379D01*
X199804090Y-139379785D01*
X199843500Y-139130962D01*
X199843500Y-138879038D01*
X199804090Y-138630215D01*
X199726241Y-138390621D01*
X199726239Y-138390618D01*
X199726239Y-138390616D01*
X199684747Y-138309184D01*
X199611870Y-138166155D01*
X199550316Y-138081433D01*
X199463798Y-137962350D01*
X199463794Y-137962345D01*
X199285654Y-137784205D01*
X199285649Y-137784201D01*
X199081848Y-137636132D01*
X199081847Y-137636131D01*
X199081845Y-137636130D01*
X199011747Y-137600413D01*
X198857383Y-137521760D01*
X198617785Y-137443910D01*
X198554705Y-137433919D01*
X198368962Y-137404500D01*
X198117038Y-137404500D01*
X197992626Y-137424205D01*
X197868214Y-137443910D01*
X197628616Y-137521760D01*
X197404151Y-137636132D01*
X197200342Y-137784207D01*
X197198051Y-137786164D01*
X197197002Y-137786633D01*
X197196402Y-137787070D01*
X197196310Y-137786943D01*
X197134289Y-137814732D01*
X197065204Y-137804293D01*
X197029842Y-137779552D01*
X195578371Y-136328080D01*
X194614119Y-135363828D01*
X194580634Y-135302505D01*
X194577800Y-135276147D01*
X194577800Y-134946947D01*
X197393000Y-134946947D01*
X197393000Y-135183052D01*
X197429934Y-135416247D01*
X197502897Y-135640802D01*
X197610087Y-135851174D01*
X197670338Y-135934104D01*
X197670340Y-135934105D01*
X198369212Y-135235233D01*
X198380482Y-135277292D01*
X198452890Y-135402708D01*
X198555292Y-135505110D01*
X198680708Y-135577518D01*
X198722765Y-135588787D01*
X198023893Y-136287658D01*
X198106828Y-136347914D01*
X198317197Y-136455102D01*
X198541752Y-136528065D01*
X198541751Y-136528065D01*
X198774948Y-136565000D01*
X199011052Y-136565000D01*
X199244247Y-136528065D01*
X199468802Y-136455102D01*
X199679163Y-136347918D01*
X199679169Y-136347914D01*
X199762104Y-136287658D01*
X199762105Y-136287658D01*
X199063233Y-135588787D01*
X199105292Y-135577518D01*
X199230708Y-135505110D01*
X199333110Y-135402708D01*
X199405518Y-135277292D01*
X199416787Y-135235233D01*
X200115658Y-135934105D01*
X200115658Y-135934104D01*
X200175914Y-135851169D01*
X200175918Y-135851163D01*
X200283102Y-135640802D01*
X200356065Y-135416247D01*
X200393000Y-135183052D01*
X200393000Y-134946947D01*
X200356065Y-134713752D01*
X200283102Y-134489197D01*
X200175914Y-134278828D01*
X200115658Y-134195894D01*
X200115658Y-134195893D01*
X199416787Y-134894765D01*
X199405518Y-134852708D01*
X199333110Y-134727292D01*
X199230708Y-134624890D01*
X199105292Y-134552482D01*
X199063234Y-134541212D01*
X199762105Y-133842340D01*
X199762104Y-133842338D01*
X199679174Y-133782087D01*
X199468802Y-133674897D01*
X199244247Y-133601934D01*
X199244248Y-133601934D01*
X199011052Y-133565000D01*
X198774948Y-133565000D01*
X198541752Y-133601934D01*
X198317197Y-133674897D01*
X198106830Y-133782084D01*
X198023894Y-133842340D01*
X198722766Y-134541212D01*
X198680708Y-134552482D01*
X198555292Y-134624890D01*
X198452890Y-134727292D01*
X198380482Y-134852708D01*
X198369212Y-134894765D01*
X197670340Y-134195894D01*
X197610084Y-134278830D01*
X197502897Y-134489197D01*
X197429934Y-134713752D01*
X197393000Y-134946947D01*
X194577800Y-134946947D01*
X194577800Y-134556341D01*
X194577801Y-134556320D01*
X194577801Y-134426991D01*
X194553764Y-134306155D01*
X194553763Y-134306149D01*
X194506612Y-134192315D01*
X194438158Y-134089867D01*
X194438155Y-134089863D01*
X194325572Y-133977280D01*
X192599178Y-132250888D01*
X192565693Y-132189565D01*
X192570677Y-132119874D01*
X192612549Y-132063940D01*
X192667461Y-132040734D01*
X192681485Y-132038512D01*
X192744368Y-132028553D01*
X192968992Y-131955568D01*
X193179433Y-131848343D01*
X193370510Y-131709517D01*
X193537517Y-131542510D01*
X193676343Y-131351433D01*
X193715044Y-131275476D01*
X193723845Y-131258205D01*
X193771820Y-131207409D01*
X193834330Y-131190500D01*
X197451670Y-131190500D01*
X197518709Y-131210185D01*
X197562155Y-131258205D01*
X197609657Y-131351433D01*
X197748483Y-131542510D01*
X197915490Y-131709517D01*
X198106567Y-131848343D01*
X198205991Y-131899002D01*
X198317003Y-131955566D01*
X198317005Y-131955566D01*
X198317008Y-131955568D01*
X198437412Y-131994689D01*
X198541631Y-132028553D01*
X198774903Y-132065500D01*
X198774908Y-132065500D01*
X199011097Y-132065500D01*
X199244368Y-132028553D01*
X199244371Y-132028552D01*
X199468992Y-131955568D01*
X199679433Y-131848343D01*
X199870510Y-131709517D01*
X200037517Y-131542510D01*
X200176343Y-131351433D01*
X200283568Y-131140992D01*
X200356553Y-130916368D01*
X200357050Y-130913230D01*
X200393500Y-130683097D01*
X200393500Y-130446902D01*
X200356553Y-130213631D01*
X200283566Y-129989003D01*
X200214106Y-129852681D01*
X200176343Y-129778567D01*
X200037517Y-129587490D01*
X199870510Y-129420483D01*
X199679433Y-129281657D01*
X199468996Y-129174433D01*
X199244368Y-129101446D01*
X199011097Y-129064500D01*
X199011092Y-129064500D01*
X198774908Y-129064500D01*
X198774903Y-129064500D01*
X198541631Y-129101446D01*
X198317003Y-129174433D01*
X198106566Y-129281657D01*
X197997550Y-129360862D01*
X197915490Y-129420483D01*
X197915488Y-129420485D01*
X197915487Y-129420485D01*
X197748485Y-129587487D01*
X197748485Y-129587488D01*
X197748483Y-129587490D01*
X197688862Y-129669550D01*
X197609657Y-129778566D01*
X197562155Y-129871795D01*
X197514180Y-129922591D01*
X197451670Y-129939500D01*
X193834330Y-129939500D01*
X193767291Y-129919815D01*
X193723845Y-129871795D01*
X193676342Y-129778566D01*
X193666486Y-129765000D01*
X193537517Y-129587490D01*
X193370510Y-129420483D01*
X193179433Y-129281657D01*
X192968996Y-129174433D01*
X192744368Y-129101446D01*
X192511097Y-129064500D01*
X192511092Y-129064500D01*
X192274908Y-129064500D01*
X192274903Y-129064500D01*
X192041631Y-129101446D01*
X191817003Y-129174433D01*
X191606566Y-129281657D01*
X191497550Y-129360862D01*
X191415490Y-129420483D01*
X191415488Y-129420485D01*
X191415487Y-129420485D01*
X191248485Y-129587487D01*
X191248485Y-129587488D01*
X191248483Y-129587490D01*
X191202207Y-129651182D01*
X191109653Y-129778571D01*
X191073759Y-129849018D01*
X191025785Y-129899814D01*
X190957964Y-129916609D01*
X190891829Y-129894071D01*
X190875594Y-129880404D01*
X189638893Y-128643703D01*
X189605408Y-128582380D01*
X189604987Y-128580364D01*
X189582837Y-128469003D01*
X189529117Y-128339310D01*
X189522497Y-128323327D01*
X189522490Y-128323314D01*
X189434889Y-128192211D01*
X189434886Y-128192207D01*
X189323392Y-128080713D01*
X189323388Y-128080710D01*
X189192285Y-127993109D01*
X189192272Y-127993102D01*
X189046601Y-127932764D01*
X189046589Y-127932761D01*
X188891945Y-127902000D01*
X188891942Y-127902000D01*
X188734258Y-127902000D01*
X188734255Y-127902000D01*
X188579610Y-127932761D01*
X188579598Y-127932764D01*
X188433927Y-127993102D01*
X188433914Y-127993109D01*
X188302811Y-128080710D01*
X188302807Y-128080713D01*
X188191313Y-128192207D01*
X188191310Y-128192211D01*
X188103709Y-128323314D01*
X188103702Y-128323327D01*
X188043364Y-128468998D01*
X188043361Y-128469008D01*
X188042717Y-128472248D01*
X188041912Y-128473786D01*
X188041594Y-128474835D01*
X188041395Y-128474774D01*
X188010328Y-128534157D01*
X187949610Y-128568727D01*
X187879841Y-128564983D01*
X187833420Y-128535730D01*
X187673319Y-128375629D01*
X187639834Y-128314306D01*
X187637000Y-128287948D01*
X187637000Y-121924983D01*
X192141300Y-121924983D01*
X192141300Y-123525001D01*
X192141301Y-123525018D01*
X192151800Y-123627796D01*
X192151801Y-123627799D01*
X192206985Y-123794331D01*
X192206986Y-123794334D01*
X192299088Y-123943656D01*
X192423144Y-124067712D01*
X192572466Y-124159814D01*
X192739003Y-124214999D01*
X192841791Y-124225500D01*
X194441808Y-124225499D01*
X194544597Y-124214999D01*
X194711134Y-124159814D01*
X194860456Y-124067712D01*
X194984512Y-123943656D01*
X195076614Y-123794334D01*
X195131799Y-123627797D01*
X195142300Y-123525009D01*
X195142299Y-122606947D01*
X197141800Y-122606947D01*
X197141800Y-122843052D01*
X197178734Y-123076247D01*
X197251697Y-123300802D01*
X197358887Y-123511174D01*
X197419138Y-123594104D01*
X197419140Y-123594105D01*
X198158837Y-122854408D01*
X198175875Y-122917993D01*
X198241701Y-123032007D01*
X198334793Y-123125099D01*
X198448807Y-123190925D01*
X198512390Y-123207962D01*
X197772693Y-123947658D01*
X197855628Y-124007914D01*
X198065997Y-124115102D01*
X198290552Y-124188065D01*
X198290551Y-124188065D01*
X198523748Y-124225000D01*
X198759852Y-124225000D01*
X198993047Y-124188065D01*
X199217602Y-124115102D01*
X199427963Y-124007918D01*
X199427969Y-124007914D01*
X199510904Y-123947658D01*
X199510905Y-123947658D01*
X198771208Y-123207962D01*
X198834793Y-123190925D01*
X198948807Y-123125099D01*
X199041899Y-123032007D01*
X199107725Y-122917993D01*
X199124762Y-122854409D01*
X199864458Y-123594105D01*
X199864458Y-123594104D01*
X199924714Y-123511169D01*
X199924718Y-123511163D01*
X200031902Y-123300802D01*
X200104865Y-123076247D01*
X200141800Y-122843052D01*
X200141800Y-122606947D01*
X200104865Y-122373752D01*
X200031902Y-122149197D01*
X199924714Y-121938828D01*
X199864458Y-121855894D01*
X199864458Y-121855893D01*
X199124762Y-122595590D01*
X199107725Y-122532007D01*
X199041899Y-122417993D01*
X198948807Y-122324901D01*
X198834793Y-122259075D01*
X198771209Y-122242037D01*
X199510905Y-121502340D01*
X199510904Y-121502338D01*
X199427974Y-121442087D01*
X199217602Y-121334897D01*
X198993047Y-121261934D01*
X198993048Y-121261934D01*
X198759852Y-121225000D01*
X198523748Y-121225000D01*
X198290552Y-121261934D01*
X198065997Y-121334897D01*
X197855630Y-121442084D01*
X197772694Y-121502340D01*
X198512391Y-122242037D01*
X198448807Y-122259075D01*
X198334793Y-122324901D01*
X198241701Y-122417993D01*
X198175875Y-122532007D01*
X198158837Y-122595590D01*
X197419140Y-121855894D01*
X197358884Y-121938830D01*
X197251697Y-122149197D01*
X197178734Y-122373752D01*
X197141800Y-122606947D01*
X195142299Y-122606947D01*
X195142299Y-121924992D01*
X195135240Y-121855893D01*
X195131799Y-121822203D01*
X195131798Y-121822200D01*
X195076614Y-121655666D01*
X194984512Y-121506344D01*
X194860456Y-121382288D01*
X194711134Y-121290186D01*
X194544597Y-121235001D01*
X194544595Y-121235000D01*
X194441810Y-121224500D01*
X192841798Y-121224500D01*
X192841781Y-121224501D01*
X192739003Y-121235000D01*
X192739000Y-121235001D01*
X192572468Y-121290185D01*
X192572463Y-121290187D01*
X192423142Y-121382289D01*
X192299089Y-121506342D01*
X192206987Y-121655663D01*
X192206986Y-121655666D01*
X192151801Y-121822203D01*
X192151801Y-121822204D01*
X192151800Y-121822204D01*
X192141300Y-121924983D01*
X187637000Y-121924983D01*
X187637000Y-121210452D01*
X187656685Y-121143413D01*
X187673319Y-121122771D01*
X190166089Y-118630001D01*
X192525704Y-118630001D01*
X192525899Y-118632486D01*
X192571718Y-118790198D01*
X192655314Y-118931552D01*
X192655321Y-118931561D01*
X192771438Y-119047678D01*
X192771447Y-119047685D01*
X192912803Y-119131282D01*
X192912806Y-119131283D01*
X193070504Y-119177099D01*
X193070510Y-119177100D01*
X193107350Y-119179999D01*
X193107366Y-119180000D01*
X193510500Y-119180000D01*
X194010500Y-119180000D01*
X194413634Y-119180000D01*
X194413649Y-119179999D01*
X194450489Y-119177100D01*
X194450495Y-119177099D01*
X194608193Y-119131283D01*
X194608196Y-119131282D01*
X194749552Y-119047685D01*
X194749561Y-119047678D01*
X194865678Y-118931561D01*
X194865685Y-118931552D01*
X194949281Y-118790198D01*
X194995100Y-118632486D01*
X194995295Y-118630001D01*
X194995295Y-118630000D01*
X194010500Y-118630000D01*
X194010500Y-119180000D01*
X193510500Y-119180000D01*
X193510500Y-118630000D01*
X192525705Y-118630000D01*
X192525704Y-118630001D01*
X190166089Y-118630001D01*
X190704271Y-118091819D01*
X190765594Y-118058334D01*
X190791952Y-118055500D01*
X190802191Y-118055500D01*
X190869230Y-118075185D01*
X190889872Y-118091819D01*
X190896129Y-118098076D01*
X190896133Y-118098079D01*
X190896135Y-118098081D01*
X191037602Y-118181744D01*
X191079224Y-118193836D01*
X191195426Y-118227597D01*
X191195429Y-118227597D01*
X191195431Y-118227598D01*
X191232306Y-118230500D01*
X191232314Y-118230500D01*
X192538686Y-118230500D01*
X192538694Y-118230500D01*
X192575569Y-118227598D01*
X192575571Y-118227597D01*
X192575573Y-118227597D01*
X192617191Y-118215505D01*
X192733398Y-118181744D01*
X192791694Y-118147268D01*
X192854815Y-118130000D01*
X193510500Y-118130000D01*
X194010500Y-118130000D01*
X194995295Y-118130000D01*
X194995295Y-118129998D01*
X194995100Y-118127513D01*
X194949281Y-117969801D01*
X194865685Y-117828447D01*
X194865678Y-117828438D01*
X194749561Y-117712321D01*
X194749552Y-117712314D01*
X194608196Y-117628717D01*
X194608193Y-117628716D01*
X194450495Y-117582900D01*
X194450489Y-117582899D01*
X194413649Y-117580000D01*
X194010500Y-117580000D01*
X194010500Y-118130000D01*
X193510500Y-118130000D01*
X193510500Y-117580000D01*
X193247500Y-117580000D01*
X193180461Y-117560315D01*
X193134706Y-117507511D01*
X193123500Y-117456000D01*
X193123500Y-117404500D01*
X193143185Y-117337461D01*
X193195989Y-117291706D01*
X193247500Y-117280500D01*
X194413686Y-117280500D01*
X194413694Y-117280500D01*
X194450569Y-117277598D01*
X194450571Y-117277597D01*
X194450573Y-117277597D01*
X194492191Y-117265505D01*
X194608398Y-117231744D01*
X194749865Y-117148081D01*
X194866081Y-117031865D01*
X194949744Y-116890398D01*
X194995598Y-116732569D01*
X194998500Y-116695694D01*
X194998500Y-116410900D01*
X195018185Y-116343861D01*
X195070989Y-116298106D01*
X195122500Y-116286900D01*
X197316107Y-116286900D01*
X197376529Y-116274881D01*
X197436952Y-116262863D01*
X197436955Y-116262861D01*
X197436958Y-116262861D01*
X197470287Y-116249054D01*
X197470286Y-116249054D01*
X197470292Y-116249052D01*
X197550786Y-116215712D01*
X197602009Y-116181484D01*
X197653233Y-116147258D01*
X197740358Y-116060133D01*
X197740358Y-116060131D01*
X197750566Y-116049924D01*
X197750567Y-116049921D01*
X201336758Y-112463733D01*
X201405212Y-112361285D01*
X201436811Y-112284998D01*
X201440496Y-112276102D01*
X201440496Y-112276101D01*
X201452363Y-112247452D01*
X201460825Y-112204911D01*
X201468330Y-112167181D01*
X201476401Y-112126608D01*
X201476401Y-111998283D01*
X201476400Y-111998257D01*
X201476400Y-106906851D01*
X201496085Y-106839812D01*
X201512714Y-106819175D01*
X203549129Y-104782760D01*
X203549133Y-104782758D01*
X203636258Y-104695633D01*
X203680107Y-104630009D01*
X203704712Y-104593186D01*
X203733814Y-104522927D01*
X203739403Y-104509434D01*
X203744957Y-104496022D01*
X203751863Y-104479352D01*
X203764426Y-104416193D01*
X203768849Y-104393957D01*
X203768849Y-104393954D01*
X203775900Y-104358507D01*
X203775900Y-104235293D01*
X203775900Y-103058294D01*
X203770234Y-103029812D01*
X203766393Y-103010501D01*
X203766392Y-103010495D01*
X203760000Y-102978354D01*
X203760000Y-102978353D01*
X203753455Y-102945452D01*
X203751863Y-102937448D01*
X203704711Y-102823614D01*
X203704710Y-102823613D01*
X203704707Y-102823607D01*
X203636258Y-102721167D01*
X203636255Y-102721163D01*
X203546037Y-102630945D01*
X203546006Y-102630916D01*
X201134818Y-100219728D01*
X201101333Y-100158405D01*
X201098499Y-100132055D01*
X201098499Y-99554992D01*
X201087999Y-99452203D01*
X201032814Y-99285666D01*
X200940712Y-99136344D01*
X200847049Y-99042681D01*
X200813564Y-98981358D01*
X200818548Y-98911666D01*
X200847049Y-98867319D01*
X200940712Y-98773656D01*
X201032814Y-98624334D01*
X201087999Y-98457797D01*
X201098500Y-98355009D01*
X201098499Y-97729992D01*
X201090490Y-97651593D01*
X201087999Y-97627203D01*
X201087998Y-97627200D01*
X201040779Y-97484704D01*
X201032814Y-97460666D01*
X200940712Y-97311344D01*
X200816656Y-97187288D01*
X200667334Y-97095186D01*
X200500797Y-97040001D01*
X200500795Y-97040000D01*
X200398010Y-97029500D01*
X199397998Y-97029500D01*
X199397980Y-97029501D01*
X199295203Y-97040000D01*
X199295200Y-97040001D01*
X199128668Y-97095185D01*
X199128663Y-97095187D01*
X198979342Y-97187289D01*
X198855289Y-97311342D01*
X198855288Y-97311344D01*
X198834831Y-97344511D01*
X198826451Y-97358097D01*
X198774503Y-97404821D01*
X198720912Y-97417000D01*
X198249025Y-97417000D01*
X198181986Y-97397315D01*
X198136231Y-97344511D01*
X198126287Y-97275353D01*
X198141638Y-97231000D01*
X198221280Y-97093056D01*
X198221280Y-97093055D01*
X198221284Y-97093049D01*
X198311606Y-96874993D01*
X198372693Y-96647014D01*
X198401507Y-96428147D01*
X198429773Y-96364251D01*
X198488098Y-96325780D01*
X198548637Y-96322716D01*
X198564042Y-96325780D01*
X198612906Y-96335499D01*
X198612908Y-96335500D01*
X198612909Y-96335500D01*
X199042868Y-96335500D01*
X199107963Y-96353960D01*
X199133666Y-96369814D01*
X199300203Y-96424999D01*
X199402991Y-96435500D01*
X200453008Y-96435499D01*
X200453016Y-96435498D01*
X200453019Y-96435498D01*
X200524970Y-96428148D01*
X200555797Y-96424999D01*
X200722334Y-96369814D01*
X200871656Y-96277712D01*
X200995712Y-96153656D01*
X201087814Y-96004334D01*
X201142999Y-95837797D01*
X201153500Y-95735009D01*
X201153499Y-95134992D01*
X201150465Y-95105295D01*
X201142999Y-95032203D01*
X201142998Y-95032200D01*
X201087814Y-94865666D01*
X200995712Y-94716344D01*
X200871656Y-94592288D01*
X200868342Y-94590243D01*
X200866546Y-94588248D01*
X200865989Y-94587807D01*
X200866064Y-94587711D01*
X200821618Y-94538297D01*
X200810397Y-94469334D01*
X200838240Y-94405252D01*
X200868348Y-94379165D01*
X200871342Y-94377318D01*
X200995315Y-94253345D01*
X201087356Y-94104124D01*
X201087358Y-94104119D01*
X201142505Y-93937697D01*
X201142506Y-93937690D01*
X201152999Y-93834986D01*
X201153000Y-93834973D01*
X201153000Y-93785000D01*
X198703001Y-93785000D01*
X198703001Y-93834986D01*
X198713494Y-93937697D01*
X198733051Y-93996715D01*
X198735453Y-94066543D01*
X198699721Y-94126585D01*
X198637201Y-94157778D01*
X198567893Y-94150280D01*
X198529570Y-94134406D01*
X198529558Y-94134403D01*
X198355596Y-94099800D01*
X198355592Y-94099800D01*
X198178208Y-94099800D01*
X198178203Y-94099800D01*
X198004241Y-94134403D01*
X198004229Y-94134406D01*
X197922292Y-94168345D01*
X197922293Y-94168346D01*
X197840355Y-94202285D01*
X197760577Y-94255592D01*
X197760576Y-94255593D01*
X197692861Y-94300837D01*
X197567437Y-94426261D01*
X197547443Y-94456186D01*
X197468887Y-94573752D01*
X197466014Y-94579128D01*
X197464264Y-94578192D01*
X197426127Y-94625486D01*
X197359826Y-94647529D01*
X197307988Y-94638168D01*
X197182996Y-94586395D01*
X197182994Y-94586394D01*
X197182993Y-94586394D01*
X196955014Y-94525307D01*
X196955013Y-94525306D01*
X196955010Y-94525306D01*
X196721020Y-94494501D01*
X196721017Y-94494500D01*
X196721011Y-94494500D01*
X196484989Y-94494500D01*
X196484983Y-94494500D01*
X196484979Y-94494501D01*
X196250989Y-94525306D01*
X196023006Y-94586394D01*
X195804954Y-94676714D01*
X195804943Y-94676719D01*
X195600545Y-94794730D01*
X195413302Y-94938406D01*
X195413295Y-94938412D01*
X195246412Y-95105295D01*
X195246406Y-95105302D01*
X195102730Y-95292545D01*
X194984719Y-95496943D01*
X194984714Y-95496954D01*
X194894394Y-95715006D01*
X194833306Y-95942989D01*
X194802501Y-96176979D01*
X194802500Y-96176995D01*
X194802500Y-96413004D01*
X194802501Y-96413020D01*
X194833306Y-96647010D01*
X194894394Y-96874993D01*
X194984714Y-97093045D01*
X194984719Y-97093056D01*
X195055677Y-97215957D01*
X195102727Y-97297450D01*
X195102729Y-97297453D01*
X195102730Y-97297454D01*
X195246406Y-97484697D01*
X195246412Y-97484704D01*
X195413295Y-97651587D01*
X195413301Y-97651592D01*
X195600550Y-97795273D01*
X195731918Y-97871118D01*
X195804943Y-97913280D01*
X195804945Y-97913280D01*
X195804951Y-97913284D01*
X195877434Y-97943307D01*
X195931834Y-97987146D01*
X195953900Y-98053440D01*
X195936621Y-98121139D01*
X195917660Y-98145548D01*
X194002270Y-100060939D01*
X193915141Y-100148067D01*
X193905172Y-100162988D01*
X193898597Y-100172829D01*
X193846690Y-100250510D01*
X193846685Y-100250519D01*
X193821633Y-100311003D01*
X193821633Y-100311004D01*
X193799538Y-100364345D01*
X193799535Y-100364355D01*
X193775500Y-100485189D01*
X193775500Y-101160050D01*
X193755815Y-101227089D01*
X193754602Y-101228941D01*
X193691609Y-101323215D01*
X193691602Y-101323228D01*
X193631264Y-101468898D01*
X193631261Y-101468910D01*
X193600500Y-101623553D01*
X193600500Y-101781246D01*
X193631261Y-101935889D01*
X193631264Y-101935901D01*
X193691602Y-102081572D01*
X193691609Y-102081585D01*
X193779210Y-102212688D01*
X193779213Y-102212692D01*
X193890707Y-102324186D01*
X193890711Y-102324189D01*
X194021814Y-102411790D01*
X194021827Y-102411797D01*
X194167498Y-102472135D01*
X194167503Y-102472137D01*
X194192272Y-102477064D01*
X194226551Y-102483883D01*
X194288462Y-102516268D01*
X194323036Y-102576984D01*
X194319297Y-102646753D01*
X194278430Y-102703425D01*
X194213412Y-102729006D01*
X194202360Y-102729500D01*
X193167500Y-102729500D01*
X193100461Y-102709815D01*
X193054706Y-102657011D01*
X193043500Y-102605500D01*
X193043499Y-102179998D01*
X193043498Y-102179980D01*
X193032999Y-102077203D01*
X193032998Y-102077200D01*
X192986176Y-101935901D01*
X192977814Y-101910666D01*
X192885712Y-101761344D01*
X192761656Y-101637288D01*
X192612334Y-101545186D01*
X192445797Y-101490001D01*
X192445795Y-101490000D01*
X192343016Y-101479500D01*
X191414950Y-101479500D01*
X191347911Y-101459815D01*
X191302156Y-101407011D01*
X191292212Y-101337853D01*
X191321237Y-101274297D01*
X191327255Y-101267833D01*
X191678271Y-100916818D01*
X191739594Y-100883333D01*
X191765952Y-100880499D01*
X192343002Y-100880499D01*
X192343008Y-100880499D01*
X192445797Y-100869999D01*
X192612334Y-100814814D01*
X192761656Y-100722712D01*
X192885712Y-100598656D01*
X192977814Y-100449334D01*
X193032999Y-100282797D01*
X193043500Y-100180009D01*
X193043499Y-99554992D01*
X193032999Y-99452203D01*
X192977814Y-99285666D01*
X192885712Y-99136344D01*
X192792049Y-99042681D01*
X192758564Y-98981358D01*
X192763548Y-98911666D01*
X192792049Y-98867319D01*
X192885712Y-98773656D01*
X192977814Y-98624334D01*
X193032999Y-98457797D01*
X193043500Y-98355009D01*
X193043499Y-97729992D01*
X193035490Y-97651593D01*
X193032999Y-97627203D01*
X193032998Y-97627200D01*
X192985779Y-97484704D01*
X192977814Y-97460666D01*
X192885712Y-97311344D01*
X192761656Y-97187288D01*
X192612334Y-97095186D01*
X192445797Y-97040001D01*
X192445795Y-97040000D01*
X192343010Y-97029500D01*
X191342998Y-97029500D01*
X191342980Y-97029501D01*
X191240203Y-97040000D01*
X191240200Y-97040001D01*
X191073668Y-97095185D01*
X191073663Y-97095187D01*
X190924342Y-97187289D01*
X190800289Y-97311342D01*
X190708187Y-97460663D01*
X190708185Y-97460668D01*
X190653001Y-97627204D01*
X190653000Y-97627206D01*
X190652705Y-97630100D01*
X190652023Y-97631771D01*
X190651583Y-97633827D01*
X190651216Y-97633748D01*
X190626311Y-97694792D01*
X190569131Y-97734945D01*
X190529347Y-97741500D01*
X190500955Y-97741500D01*
X190346310Y-97772261D01*
X190346298Y-97772264D01*
X190200627Y-97832602D01*
X190200614Y-97832609D01*
X190069511Y-97920210D01*
X190069507Y-97920213D01*
X189958013Y-98031707D01*
X189958010Y-98031711D01*
X189870409Y-98162814D01*
X189870402Y-98162827D01*
X189810064Y-98308498D01*
X189810061Y-98308510D01*
X189779300Y-98463153D01*
X189779300Y-98620846D01*
X189810061Y-98775489D01*
X189810064Y-98775501D01*
X189870402Y-98921172D01*
X189870409Y-98921185D01*
X189958010Y-99052288D01*
X189958013Y-99052292D01*
X190069507Y-99163786D01*
X190069511Y-99163789D01*
X190200614Y-99251390D01*
X190200627Y-99251397D01*
X190346298Y-99311735D01*
X190346303Y-99311737D01*
X190500953Y-99342499D01*
X190500956Y-99342500D01*
X190526895Y-99342500D01*
X190593934Y-99362185D01*
X190639689Y-99414989D01*
X190650253Y-99479103D01*
X190642500Y-99554983D01*
X190642500Y-100132046D01*
X190622815Y-100199085D01*
X190606181Y-100219727D01*
X189861129Y-100964781D01*
X189799806Y-100998266D01*
X189773448Y-101001100D01*
X183360688Y-101001100D01*
X183239855Y-101025135D01*
X183239847Y-101025137D01*
X183126016Y-101072287D01*
X183045729Y-101125934D01*
X183023566Y-101140742D01*
X183023560Y-101140747D01*
X180863629Y-103300681D01*
X180802306Y-103334166D01*
X180775948Y-103337000D01*
X180403850Y-103337000D01*
X180336811Y-103317315D01*
X180334959Y-103316102D01*
X180240684Y-103253109D01*
X180240672Y-103253102D01*
X180095001Y-103192764D01*
X180094989Y-103192761D01*
X179940345Y-103162000D01*
X179940342Y-103162000D01*
X179782658Y-103162000D01*
X179782655Y-103162000D01*
X179628010Y-103192761D01*
X179627998Y-103192764D01*
X179482327Y-103253102D01*
X179482314Y-103253109D01*
X179351211Y-103340710D01*
X179351207Y-103340713D01*
X179239713Y-103452207D01*
X179239710Y-103452211D01*
X179152109Y-103583314D01*
X179152102Y-103583327D01*
X179091764Y-103728998D01*
X179091761Y-103729008D01*
X179064931Y-103863892D01*
X179032546Y-103925803D01*
X178971830Y-103960377D01*
X178943314Y-103963700D01*
X172666853Y-103963700D01*
X172599814Y-103944015D01*
X172579172Y-103927381D01*
X171183428Y-102531638D01*
X171183425Y-102531634D01*
X171183425Y-102531635D01*
X171176358Y-102524568D01*
X171176358Y-102524567D01*
X171089233Y-102437442D01*
X171025726Y-102395008D01*
X171023839Y-102393747D01*
X170986785Y-102368987D01*
X170946539Y-102352317D01*
X170906292Y-102335647D01*
X170872952Y-102321837D01*
X170872948Y-102321836D01*
X170872944Y-102321835D01*
X170782597Y-102303863D01*
X170782588Y-102303863D01*
X170752107Y-102297800D01*
X170752106Y-102297800D01*
X170067206Y-102297800D01*
X169943993Y-102297800D01*
X169913510Y-102303863D01*
X169913509Y-102303862D01*
X169823155Y-102321835D01*
X169823145Y-102321838D01*
X169709316Y-102368987D01*
X169616671Y-102430890D01*
X169616672Y-102430891D01*
X169606865Y-102437443D01*
X169606863Y-102437445D01*
X169334494Y-102709815D01*
X169065169Y-102979140D01*
X169065167Y-102979142D01*
X169033814Y-103010495D01*
X168978040Y-103066268D01*
X168957440Y-103097099D01*
X168909586Y-103168716D01*
X168909585Y-103168718D01*
X168888552Y-103219499D01*
X168876247Y-103249207D01*
X168874631Y-103253109D01*
X168862437Y-103282545D01*
X168862436Y-103282552D01*
X168856578Y-103311999D01*
X168856579Y-103312000D01*
X168838945Y-103400656D01*
X168838943Y-103400666D01*
X168838400Y-103403394D01*
X168838400Y-103782047D01*
X168818715Y-103849086D01*
X168802081Y-103869728D01*
X168431528Y-104240281D01*
X168370205Y-104273766D01*
X168343847Y-104276600D01*
X166278250Y-104276600D01*
X166211211Y-104256915D01*
X166209359Y-104255702D01*
X166115084Y-104192709D01*
X166115072Y-104192702D01*
X165969401Y-104132364D01*
X165969389Y-104132361D01*
X165814745Y-104101600D01*
X165814742Y-104101600D01*
X165657058Y-104101600D01*
X165657055Y-104101600D01*
X165502410Y-104132361D01*
X165502398Y-104132364D01*
X165356727Y-104192702D01*
X165356714Y-104192709D01*
X165225611Y-104280310D01*
X165225607Y-104280313D01*
X165114113Y-104391807D01*
X165114110Y-104391811D01*
X165026509Y-104522914D01*
X165026502Y-104522927D01*
X164966164Y-104668598D01*
X164966161Y-104668610D01*
X164935400Y-104823253D01*
X164935400Y-104980946D01*
X164966161Y-105135589D01*
X164966164Y-105135601D01*
X165026502Y-105281272D01*
X165026509Y-105281285D01*
X165114110Y-105412388D01*
X165114113Y-105412392D01*
X165225607Y-105523886D01*
X165225611Y-105523889D01*
X165356714Y-105611490D01*
X165356727Y-105611497D01*
X165496150Y-105669247D01*
X165502403Y-105671837D01*
X165657053Y-105702599D01*
X165657056Y-105702600D01*
X165657058Y-105702600D01*
X165814744Y-105702600D01*
X165814745Y-105702599D01*
X165969397Y-105671837D01*
X166115079Y-105611494D01*
X166209359Y-105548498D01*
X166276036Y-105527620D01*
X166278250Y-105527600D01*
X167483647Y-105527600D01*
X167550686Y-105547285D01*
X167596441Y-105600089D01*
X167606385Y-105669247D01*
X167577360Y-105732803D01*
X167571328Y-105739281D01*
X167513436Y-105797173D01*
X167452113Y-105830658D01*
X167382421Y-105825674D01*
X167378304Y-105824054D01*
X167372952Y-105821837D01*
X167372944Y-105821835D01*
X167289575Y-105805252D01*
X167289574Y-105805252D01*
X167252111Y-105797800D01*
X167252107Y-105797800D01*
X167252106Y-105797800D01*
X166573341Y-105797800D01*
X166573321Y-105797799D01*
X166567207Y-105797799D01*
X166443994Y-105797799D01*
X166343197Y-105817848D01*
X166343192Y-105817848D01*
X166323150Y-105821836D01*
X166323148Y-105821837D01*
X166283746Y-105838158D01*
X166283745Y-105838158D01*
X166209321Y-105868984D01*
X166209308Y-105868991D01*
X166106867Y-105937441D01*
X166106863Y-105937444D01*
X165727309Y-106317000D01*
X165622569Y-106421740D01*
X165622567Y-106421742D01*
X165579004Y-106465304D01*
X165535442Y-106508866D01*
X165512122Y-106543768D01*
X165512121Y-106543769D01*
X165466990Y-106611309D01*
X165466990Y-106611310D01*
X165466988Y-106611312D01*
X165466988Y-106611314D01*
X165437425Y-106682686D01*
X165423821Y-106715527D01*
X165419838Y-106725145D01*
X165419835Y-106725153D01*
X165395800Y-106845989D01*
X165395800Y-111154010D01*
X165419836Y-111274849D01*
X165419836Y-111274850D01*
X165419837Y-111274852D01*
X165421514Y-111278900D01*
X165421517Y-111278915D01*
X165421520Y-111278914D01*
X165466985Y-111388680D01*
X165466990Y-111388689D01*
X165500940Y-111439497D01*
X165500941Y-111439499D01*
X165535441Y-111491133D01*
X165626886Y-111582578D01*
X165626908Y-111582598D01*
X166036129Y-111991819D01*
X166069614Y-112053142D01*
X166064630Y-112122834D01*
X166022758Y-112178767D01*
X165957294Y-112203184D01*
X165948448Y-112203500D01*
X161237312Y-112203500D01*
X161170273Y-112183815D01*
X161168420Y-112182601D01*
X161125155Y-112153691D01*
X161125140Y-112153683D01*
X161043207Y-112119746D01*
X161043206Y-112119746D01*
X160961266Y-112085805D01*
X160961258Y-112085803D01*
X160787296Y-112051200D01*
X160787292Y-112051200D01*
X160609908Y-112051200D01*
X160609903Y-112051200D01*
X160435941Y-112085803D01*
X160435929Y-112085806D01*
X160353992Y-112119745D01*
X160353993Y-112119746D01*
X160272055Y-112153685D01*
X160183640Y-112212763D01*
X160183639Y-112212764D01*
X160124561Y-112252237D01*
X159999137Y-112377661D01*
X159983541Y-112401004D01*
X159900590Y-112525147D01*
X159900583Y-112525159D01*
X159880526Y-112573584D01*
X159880526Y-112573585D01*
X159832705Y-112689033D01*
X159832703Y-112689041D01*
X159798100Y-112863003D01*
X159798100Y-113040396D01*
X159832703Y-113214359D01*
X159832706Y-113214369D01*
X159847880Y-113251000D01*
X159847881Y-113251003D01*
X159900583Y-113378240D01*
X159900587Y-113378247D01*
X159946264Y-113446607D01*
X159999136Y-113525736D01*
X160151436Y-113678035D01*
X160276862Y-113803461D01*
X160276866Y-113803465D01*
X160424346Y-113902009D01*
X160424350Y-113902011D01*
X160424353Y-113902013D01*
X160464128Y-113918488D01*
X160464129Y-113918489D01*
X160464130Y-113918489D01*
X160588234Y-113969895D01*
X160762203Y-114004499D01*
X160762207Y-114004500D01*
X160762208Y-114004500D01*
X160762209Y-114004500D01*
X164774120Y-114004500D01*
X164841159Y-114024185D01*
X164886914Y-114076989D01*
X164896858Y-114146147D01*
X164888683Y-114175946D01*
X164878263Y-114201103D01*
X164878262Y-114201106D01*
X164878261Y-114201110D01*
X164847500Y-114355753D01*
X164847500Y-114513446D01*
X164878261Y-114668089D01*
X164878264Y-114668101D01*
X164938602Y-114813772D01*
X164938609Y-114813785D01*
X165026210Y-114944888D01*
X165026213Y-114944892D01*
X165137707Y-115056386D01*
X165137711Y-115056389D01*
X165268814Y-115143990D01*
X165268827Y-115143997D01*
X165356230Y-115180199D01*
X165414503Y-115204337D01*
X165525716Y-115226458D01*
X165587623Y-115258841D01*
X165589203Y-115260393D01*
X165828816Y-115500006D01*
X165828845Y-115500037D01*
X165919063Y-115590255D01*
X165919067Y-115590258D01*
X166021507Y-115658707D01*
X166021513Y-115658710D01*
X166021514Y-115658711D01*
X166135348Y-115705863D01*
X166182466Y-115715235D01*
X166256191Y-115729899D01*
X166256192Y-115729900D01*
X166256193Y-115729900D01*
X166256194Y-115729900D01*
X180380048Y-115729900D01*
X180447087Y-115749585D01*
X180492842Y-115802389D01*
X180502786Y-115871547D01*
X180473761Y-115935103D01*
X180467729Y-115941581D01*
X179560003Y-116849305D01*
X179498680Y-116882790D01*
X179496514Y-116883241D01*
X179385308Y-116905361D01*
X179385298Y-116905364D01*
X179239627Y-116965702D01*
X179239614Y-116965709D01*
X179108511Y-117053310D01*
X179108507Y-117053313D01*
X178997013Y-117164807D01*
X178997010Y-117164811D01*
X178909409Y-117295914D01*
X178909402Y-117295927D01*
X178849064Y-117441598D01*
X178849061Y-117441610D01*
X178818300Y-117596253D01*
X178818300Y-117753946D01*
X178849061Y-117908589D01*
X178849064Y-117908601D01*
X178909402Y-118054272D01*
X178909409Y-118054285D01*
X178997010Y-118185388D01*
X178997013Y-118185392D01*
X179108507Y-118296886D01*
X179108511Y-118296889D01*
X179239614Y-118384490D01*
X179239627Y-118384497D01*
X179385298Y-118444835D01*
X179385303Y-118444837D01*
X179539953Y-118475599D01*
X179539956Y-118475600D01*
X179539958Y-118475600D01*
X179697644Y-118475600D01*
X179697645Y-118475599D01*
X179852297Y-118444837D01*
X179997979Y-118384494D01*
X180129089Y-118296889D01*
X180240589Y-118185389D01*
X180328194Y-118054279D01*
X180388537Y-117908597D01*
X180410658Y-117797382D01*
X180443040Y-117735475D01*
X180444534Y-117733954D01*
X181855271Y-116323219D01*
X181916594Y-116289734D01*
X181942952Y-116286900D01*
X187594798Y-116286900D01*
X187661837Y-116306585D01*
X187707592Y-116359389D01*
X187716415Y-116386708D01*
X187743961Y-116525191D01*
X187743964Y-116525201D01*
X187804302Y-116670872D01*
X187804309Y-116670885D01*
X187891910Y-116801988D01*
X187891913Y-116801992D01*
X188003407Y-116913486D01*
X188003411Y-116913489D01*
X188134514Y-117001090D01*
X188134527Y-117001097D01*
X188273950Y-117058847D01*
X188280203Y-117061437D01*
X188434853Y-117092199D01*
X188434856Y-117092200D01*
X188434858Y-117092200D01*
X188592544Y-117092200D01*
X188592545Y-117092199D01*
X188747197Y-117061437D01*
X188892879Y-117001094D01*
X188987159Y-116938098D01*
X189053836Y-116917220D01*
X189056050Y-116917200D01*
X189810347Y-116917200D01*
X189877386Y-116936885D01*
X189923141Y-116989689D01*
X189933085Y-117058847D01*
X189904060Y-117122403D01*
X189898028Y-117128881D01*
X186525644Y-120501264D01*
X186525638Y-120501272D01*
X186457192Y-120603705D01*
X186457184Y-120603719D01*
X186423847Y-120684207D01*
X186418323Y-120697543D01*
X186410037Y-120717545D01*
X186410035Y-120717553D01*
X186386000Y-120838389D01*
X186386000Y-128287947D01*
X186366315Y-128354986D01*
X186349681Y-128375628D01*
X184872629Y-129852681D01*
X184811306Y-129886166D01*
X184784948Y-129889000D01*
X154722000Y-129889000D01*
X154654961Y-129869315D01*
X154609206Y-129816511D01*
X154598000Y-129765000D01*
X154598000Y-92337503D01*
X189491300Y-92337503D01*
X189491300Y-94255593D01*
X189525902Y-94429556D01*
X189525905Y-94429566D01*
X189532297Y-94444995D01*
X189532298Y-94445002D01*
X189532299Y-94445002D01*
X189593784Y-94593442D01*
X189622878Y-94636984D01*
X189622881Y-94636988D01*
X189692337Y-94740938D01*
X189692338Y-94740939D01*
X190611880Y-95660480D01*
X190645365Y-95721803D01*
X190647557Y-95735559D01*
X190658001Y-95837797D01*
X190658001Y-95837799D01*
X190692857Y-95942986D01*
X190713186Y-96004334D01*
X190805288Y-96153656D01*
X190929344Y-96277712D01*
X191078666Y-96369814D01*
X191245203Y-96424999D01*
X191347991Y-96435500D01*
X192398008Y-96435499D01*
X192398016Y-96435498D01*
X192398019Y-96435498D01*
X192469970Y-96428148D01*
X192500797Y-96424999D01*
X192667334Y-96369814D01*
X192816656Y-96277712D01*
X192940712Y-96153656D01*
X193032814Y-96004334D01*
X193087999Y-95837797D01*
X193098500Y-95735009D01*
X193098499Y-95134992D01*
X193095465Y-95105295D01*
X193087999Y-95032203D01*
X193087998Y-95032200D01*
X193032814Y-94865666D01*
X192940712Y-94716344D01*
X192816656Y-94592288D01*
X192813342Y-94590243D01*
X192811546Y-94588248D01*
X192810989Y-94587807D01*
X192811064Y-94587711D01*
X192766618Y-94538297D01*
X192755397Y-94469334D01*
X192783240Y-94405252D01*
X192813348Y-94379165D01*
X192816342Y-94377318D01*
X192940315Y-94253345D01*
X193032356Y-94104124D01*
X193032358Y-94104119D01*
X193087505Y-93937697D01*
X193087506Y-93937690D01*
X193097999Y-93834986D01*
X193098000Y-93834973D01*
X193098000Y-93785000D01*
X191997000Y-93785000D01*
X191929961Y-93765315D01*
X191884206Y-93712511D01*
X191873000Y-93661000D01*
X191873000Y-93535000D01*
X191747000Y-93535000D01*
X191679961Y-93515315D01*
X191634206Y-93462511D01*
X191623000Y-93411000D01*
X191623000Y-93285000D01*
X192123000Y-93285000D01*
X193097999Y-93285000D01*
X193097999Y-93235028D01*
X193097998Y-93235013D01*
X193087505Y-93132302D01*
X193032358Y-92965880D01*
X193032356Y-92965875D01*
X192940315Y-92816654D01*
X192816345Y-92692684D01*
X192667124Y-92600643D01*
X192667119Y-92600641D01*
X192500697Y-92545494D01*
X192500690Y-92545493D01*
X192397986Y-92535000D01*
X192123000Y-92535000D01*
X192123000Y-93285000D01*
X191623000Y-93285000D01*
X191623000Y-92519860D01*
X191631644Y-92490419D01*
X191638168Y-92460433D01*
X191641922Y-92455417D01*
X191642685Y-92452821D01*
X191659312Y-92432187D01*
X192109681Y-91981817D01*
X192171004Y-91948333D01*
X192197362Y-91945499D01*
X192398002Y-91945499D01*
X192398008Y-91945499D01*
X192500797Y-91934999D01*
X192667334Y-91879814D01*
X192816656Y-91787712D01*
X192940712Y-91663656D01*
X193032814Y-91514334D01*
X193087999Y-91347797D01*
X193098500Y-91245009D01*
X193098499Y-91245007D01*
X193098535Y-91244665D01*
X193124931Y-91179973D01*
X193134203Y-91169595D01*
X194718881Y-89584919D01*
X194780204Y-89551434D01*
X194806562Y-89548600D01*
X195565080Y-89548600D01*
X195632119Y-89568285D01*
X195677874Y-89621089D01*
X195687818Y-89690247D01*
X195658793Y-89753803D01*
X195627081Y-89779986D01*
X195600840Y-89795136D01*
X195600818Y-89795150D01*
X195519275Y-89857720D01*
X195519275Y-89857721D01*
X196355512Y-90693958D01*
X196295110Y-90718978D01*
X196188649Y-90790112D01*
X196098112Y-90880649D01*
X196026978Y-90987110D01*
X196001958Y-91047511D01*
X195165721Y-90211275D01*
X195165720Y-90211275D01*
X195103150Y-90292818D01*
X195103144Y-90292828D01*
X194985165Y-90497171D01*
X194985160Y-90497180D01*
X194894870Y-90715162D01*
X194833799Y-90943085D01*
X194803000Y-91177014D01*
X194803000Y-91412985D01*
X194833799Y-91646914D01*
X194894870Y-91874837D01*
X194985160Y-92092819D01*
X194985165Y-92092828D01*
X195103144Y-92297171D01*
X195103145Y-92297172D01*
X195165721Y-92378723D01*
X196001958Y-91542487D01*
X196026978Y-91602890D01*
X196098112Y-91709351D01*
X196188649Y-91799888D01*
X196295110Y-91871022D01*
X196355511Y-91896041D01*
X195519275Y-92732277D01*
X195600827Y-92794854D01*
X195600828Y-92794855D01*
X195805171Y-92912834D01*
X195805180Y-92912839D01*
X196023163Y-93003129D01*
X196023161Y-93003129D01*
X196251085Y-93064200D01*
X196485014Y-93094999D01*
X196485029Y-93095000D01*
X196720971Y-93095000D01*
X196720985Y-93094999D01*
X196954914Y-93064200D01*
X197182837Y-93003129D01*
X197400819Y-92912839D01*
X197400828Y-92912834D01*
X197605181Y-92794850D01*
X197686723Y-92732279D01*
X197686723Y-92732276D01*
X196850487Y-91896041D01*
X196910890Y-91871022D01*
X197017351Y-91799888D01*
X197107888Y-91709351D01*
X197179022Y-91602890D01*
X197204041Y-91542488D01*
X198040276Y-92378723D01*
X198040279Y-92378723D01*
X198102850Y-92297181D01*
X198220834Y-92092828D01*
X198220839Y-92092819D01*
X198311129Y-91874837D01*
X198372200Y-91646914D01*
X198402999Y-91412985D01*
X198403000Y-91412971D01*
X198403000Y-91177028D01*
X198402734Y-91172970D01*
X198404758Y-91172837D01*
X198414130Y-91111873D01*
X198460397Y-91059517D01*
X198527625Y-91040486D01*
X198594470Y-91060822D01*
X198614099Y-91076799D01*
X198666181Y-91128881D01*
X198699666Y-91190204D01*
X198702500Y-91216558D01*
X198702500Y-91244998D01*
X198702501Y-91245019D01*
X198713000Y-91347796D01*
X198713001Y-91347799D01*
X198734602Y-91412985D01*
X198768186Y-91514334D01*
X198860288Y-91663656D01*
X198984344Y-91787712D01*
X199133666Y-91879814D01*
X199300203Y-91934999D01*
X199402991Y-91945500D01*
X199477000Y-91945499D01*
X199544038Y-91965183D01*
X199589794Y-92017986D01*
X199601000Y-92069499D01*
X199601000Y-92369295D01*
X199604484Y-92386809D01*
X199598257Y-92456401D01*
X199555394Y-92511578D01*
X199489504Y-92534822D01*
X199482868Y-92535000D01*
X199403029Y-92535000D01*
X199403012Y-92535001D01*
X199300302Y-92545494D01*
X199133880Y-92600641D01*
X199133875Y-92600643D01*
X198984654Y-92692684D01*
X198860684Y-92816654D01*
X198768643Y-92965875D01*
X198768641Y-92965880D01*
X198713494Y-93132302D01*
X198713493Y-93132309D01*
X198703000Y-93235013D01*
X198703000Y-93285000D01*
X201152999Y-93285000D01*
X201152999Y-93235028D01*
X201152998Y-93235013D01*
X201142505Y-93132302D01*
X201112004Y-93040254D01*
X201109602Y-92970425D01*
X201142026Y-92913572D01*
X201200964Y-92854635D01*
X201299513Y-92707147D01*
X201367394Y-92543266D01*
X201369039Y-92535000D01*
X201401999Y-92369295D01*
X201402000Y-92369293D01*
X201402000Y-91429806D01*
X201401999Y-91429804D01*
X201367396Y-91255841D01*
X201367393Y-91255832D01*
X201299516Y-91091959D01*
X201299509Y-91091946D01*
X201200964Y-90944465D01*
X201200961Y-90944461D01*
X201189818Y-90933318D01*
X201156333Y-90871995D01*
X201153499Y-90845637D01*
X201153499Y-90644998D01*
X201153498Y-90644981D01*
X201142999Y-90542203D01*
X201142998Y-90542200D01*
X201128077Y-90497171D01*
X201087814Y-90375666D01*
X200995712Y-90226344D01*
X200871656Y-90102288D01*
X200868342Y-90100243D01*
X200866546Y-90098248D01*
X200865989Y-90097807D01*
X200866064Y-90097711D01*
X200821618Y-90048297D01*
X200810397Y-89979334D01*
X200838240Y-89915252D01*
X200868348Y-89889165D01*
X200871342Y-89887318D01*
X200995315Y-89763345D01*
X201087356Y-89614124D01*
X201087358Y-89614119D01*
X201142505Y-89447697D01*
X201142506Y-89447690D01*
X201152999Y-89344986D01*
X201153000Y-89344973D01*
X201153000Y-89295000D01*
X200052000Y-89295000D01*
X199984961Y-89275315D01*
X199939206Y-89222511D01*
X199928000Y-89171000D01*
X199928000Y-89045000D01*
X199802000Y-89045000D01*
X199734961Y-89025315D01*
X199689206Y-88972511D01*
X199678000Y-88921000D01*
X199678000Y-88795000D01*
X200178000Y-88795000D01*
X201152999Y-88795000D01*
X201152999Y-88745028D01*
X201152998Y-88745013D01*
X201142505Y-88642302D01*
X201087358Y-88475880D01*
X201087356Y-88475875D01*
X200995315Y-88326654D01*
X200871345Y-88202684D01*
X200722124Y-88110643D01*
X200722119Y-88110641D01*
X200555697Y-88055494D01*
X200555690Y-88055493D01*
X200452986Y-88045000D01*
X200178000Y-88045000D01*
X200178000Y-88795000D01*
X199678000Y-88795000D01*
X199678000Y-88045000D01*
X199403029Y-88045000D01*
X199403012Y-88045001D01*
X199300302Y-88055494D01*
X199133880Y-88110641D01*
X199133875Y-88110643D01*
X198984654Y-88202684D01*
X198860683Y-88326655D01*
X198860680Y-88326659D01*
X198771441Y-88471338D01*
X198719493Y-88518063D01*
X198650531Y-88529284D01*
X198586449Y-88501441D01*
X198578222Y-88493922D01*
X198032935Y-87948635D01*
X198032930Y-87948631D01*
X197973861Y-87909164D01*
X197973860Y-87909163D01*
X197885444Y-87850085D01*
X197885442Y-87850084D01*
X197803507Y-87816146D01*
X197803506Y-87816146D01*
X197721566Y-87782205D01*
X197721558Y-87782203D01*
X197547596Y-87747600D01*
X197547592Y-87747600D01*
X197547591Y-87747600D01*
X194470892Y-87747600D01*
X194293508Y-87747600D01*
X194293503Y-87747600D01*
X194119541Y-87782203D01*
X194119529Y-87782206D01*
X194037592Y-87816145D01*
X194037593Y-87816146D01*
X193955655Y-87850085D01*
X193867240Y-87909163D01*
X193867239Y-87909164D01*
X193808161Y-87948637D01*
X193236375Y-88520423D01*
X193175052Y-88553908D01*
X193105360Y-88548924D01*
X193049427Y-88507052D01*
X193036338Y-88481987D01*
X193035408Y-88482421D01*
X193032356Y-88475875D01*
X192940315Y-88326654D01*
X192816345Y-88202684D01*
X192667124Y-88110643D01*
X192667119Y-88110641D01*
X192500697Y-88055494D01*
X192500690Y-88055493D01*
X192397986Y-88045000D01*
X192123000Y-88045000D01*
X192123000Y-88921000D01*
X192103315Y-88988039D01*
X192050511Y-89033794D01*
X191999000Y-89045000D01*
X191873000Y-89045000D01*
X191873000Y-89171000D01*
X191853315Y-89238039D01*
X191800511Y-89283794D01*
X191749000Y-89295000D01*
X190648001Y-89295000D01*
X190648001Y-89344986D01*
X190658494Y-89447697D01*
X190713641Y-89614119D01*
X190713643Y-89614124D01*
X190805684Y-89763345D01*
X190929655Y-89887316D01*
X190929659Y-89887319D01*
X190932656Y-89889168D01*
X190934279Y-89890972D01*
X190935323Y-89891798D01*
X190935181Y-89891976D01*
X190979381Y-89941116D01*
X190990602Y-90010079D01*
X190962759Y-90074161D01*
X190932661Y-90100241D01*
X190929349Y-90102283D01*
X190929343Y-90102288D01*
X190805289Y-90226342D01*
X190713187Y-90375663D01*
X190713186Y-90375666D01*
X190658001Y-90542203D01*
X190658001Y-90542204D01*
X190658000Y-90542204D01*
X190647500Y-90644983D01*
X190647500Y-90845637D01*
X190627815Y-90912676D01*
X190611181Y-90933318D01*
X189692335Y-91852164D01*
X189691082Y-91854041D01*
X189691074Y-91854053D01*
X189593788Y-91999649D01*
X189562051Y-92076271D01*
X189525905Y-92163533D01*
X189525903Y-92163541D01*
X189491300Y-92337503D01*
X154598000Y-92337503D01*
X154598000Y-88745013D01*
X190648000Y-88745013D01*
X190648000Y-88795000D01*
X191623000Y-88795000D01*
X191623000Y-88045000D01*
X191348029Y-88045000D01*
X191348012Y-88045001D01*
X191245302Y-88055494D01*
X191078880Y-88110641D01*
X191078875Y-88110643D01*
X190929654Y-88202684D01*
X190805684Y-88326654D01*
X190713643Y-88475875D01*
X190713641Y-88475880D01*
X190658494Y-88642302D01*
X190658493Y-88642309D01*
X190648000Y-88745013D01*
X154598000Y-88745013D01*
X154598000Y-83881995D01*
X199298200Y-83881995D01*
X199298200Y-84118004D01*
X199298201Y-84118020D01*
X199329006Y-84352010D01*
X199390094Y-84579993D01*
X199480414Y-84798045D01*
X199480419Y-84798056D01*
X199551377Y-84920957D01*
X199598427Y-85002450D01*
X199598429Y-85002453D01*
X199598430Y-85002454D01*
X199742106Y-85189697D01*
X199742112Y-85189704D01*
X199908995Y-85356587D01*
X199909001Y-85356592D01*
X200096250Y-85500273D01*
X200227618Y-85576118D01*
X200300643Y-85618280D01*
X200300648Y-85618282D01*
X200300651Y-85618284D01*
X200518707Y-85708606D01*
X200746686Y-85769693D01*
X200980689Y-85800500D01*
X200980696Y-85800500D01*
X201216704Y-85800500D01*
X201216711Y-85800500D01*
X201450714Y-85769693D01*
X201678693Y-85708606D01*
X201896749Y-85618284D01*
X202101150Y-85500273D01*
X202288399Y-85356592D01*
X202455292Y-85189699D01*
X202598973Y-85002450D01*
X202716984Y-84798049D01*
X202807306Y-84579993D01*
X202868393Y-84352014D01*
X202899200Y-84118011D01*
X202899200Y-83881989D01*
X202868393Y-83647986D01*
X202807306Y-83420007D01*
X202716984Y-83201951D01*
X202716982Y-83201948D01*
X202716980Y-83201943D01*
X202674818Y-83128918D01*
X202598973Y-82997550D01*
X202455292Y-82810301D01*
X202455287Y-82810295D01*
X202288404Y-82643412D01*
X202288397Y-82643406D01*
X202101154Y-82499730D01*
X202101153Y-82499729D01*
X202101150Y-82499727D01*
X202019657Y-82452677D01*
X201896756Y-82381719D01*
X201896745Y-82381714D01*
X201678693Y-82291394D01*
X201450710Y-82230306D01*
X201216720Y-82199501D01*
X201216717Y-82199500D01*
X201216711Y-82199500D01*
X200980689Y-82199500D01*
X200980683Y-82199500D01*
X200980679Y-82199501D01*
X200746689Y-82230306D01*
X200518706Y-82291394D01*
X200300654Y-82381714D01*
X200300643Y-82381719D01*
X200096245Y-82499730D01*
X199909002Y-82643406D01*
X199908995Y-82643412D01*
X199742112Y-82810295D01*
X199742106Y-82810302D01*
X199598430Y-82997545D01*
X199598427Y-82997549D01*
X199598427Y-82997550D01*
X199590714Y-83010909D01*
X199480419Y-83201943D01*
X199480414Y-83201954D01*
X199390094Y-83420006D01*
X199329006Y-83647989D01*
X199298201Y-83881979D01*
X199298200Y-83881995D01*
X154598000Y-83881995D01*
X154598000Y-81124000D01*
X154617685Y-81056961D01*
X154670489Y-81011206D01*
X154722000Y-81000000D01*
X203549904Y-81000000D01*
X203616943Y-81019685D01*
G37*
%TD.AperFunction*%
%TA.AperFunction,Conductor*%
G36*
X200338188Y-105350184D02*
G01*
X200383943Y-105402988D01*
X200393887Y-105472146D01*
X200364862Y-105535702D01*
X200358830Y-105542180D01*
X200176429Y-105724581D01*
X200163713Y-105731524D01*
X200154046Y-105742314D01*
X200133662Y-105747933D01*
X200115106Y-105758066D01*
X200088748Y-105760900D01*
X200036489Y-105760900D01*
X199976078Y-105772916D01*
X199976075Y-105772917D01*
X199976071Y-105772918D01*
X199932843Y-105781516D01*
X199915646Y-105784937D01*
X199801816Y-105832087D01*
X199746597Y-105868984D01*
X199746590Y-105868989D01*
X199734862Y-105876825D01*
X199699363Y-105900544D01*
X198252430Y-107347477D01*
X198191107Y-107380962D01*
X198121415Y-107375978D01*
X198066374Y-107335283D01*
X198040278Y-107301275D01*
X198040277Y-107301275D01*
X197204041Y-108137511D01*
X197179022Y-108077110D01*
X197107888Y-107970649D01*
X197017351Y-107880112D01*
X196910890Y-107808978D01*
X196850488Y-107783958D01*
X197686723Y-106947721D01*
X197605172Y-106885145D01*
X197605171Y-106885144D01*
X197400828Y-106767165D01*
X197400819Y-106767160D01*
X197182836Y-106676870D01*
X197182838Y-106676870D01*
X196954914Y-106615799D01*
X196720985Y-106585000D01*
X196485014Y-106585000D01*
X196251085Y-106615799D01*
X196023162Y-106676870D01*
X195805180Y-106767160D01*
X195805171Y-106767165D01*
X195600828Y-106885144D01*
X195600818Y-106885150D01*
X195519275Y-106947720D01*
X195519275Y-106947721D01*
X196355512Y-107783958D01*
X196295110Y-107808978D01*
X196188649Y-107880112D01*
X196098112Y-107970649D01*
X196026978Y-108077110D01*
X196001958Y-108137511D01*
X195165721Y-107301275D01*
X195165720Y-107301275D01*
X195103150Y-107382818D01*
X195103144Y-107382828D01*
X194985165Y-107587171D01*
X194985160Y-107587180D01*
X194894870Y-107805162D01*
X194833799Y-108033085D01*
X194803000Y-108267014D01*
X194803000Y-108502985D01*
X194833799Y-108736914D01*
X194894870Y-108964837D01*
X194985160Y-109182819D01*
X194985165Y-109182828D01*
X195103144Y-109387171D01*
X195103145Y-109387172D01*
X195165721Y-109468723D01*
X196001958Y-108632487D01*
X196026978Y-108692890D01*
X196098112Y-108799351D01*
X196188649Y-108889888D01*
X196295110Y-108961022D01*
X196355511Y-108986041D01*
X195519275Y-109822277D01*
X195600827Y-109884854D01*
X195600828Y-109884855D01*
X195805171Y-110002834D01*
X195805180Y-110002839D01*
X196023163Y-110093129D01*
X196023161Y-110093129D01*
X196155875Y-110128689D01*
X196215536Y-110165054D01*
X196246065Y-110227901D01*
X196237770Y-110297276D01*
X196211463Y-110336145D01*
X195634229Y-110913381D01*
X195572906Y-110946866D01*
X195546548Y-110949700D01*
X195484641Y-110949700D01*
X195484621Y-110949699D01*
X195478507Y-110949699D01*
X195355294Y-110949699D01*
X195254497Y-110969748D01*
X195254492Y-110969748D01*
X195234449Y-110973736D01*
X195234447Y-110973736D01*
X195187297Y-110993267D01*
X195120619Y-111020885D01*
X195120617Y-111020886D01*
X195018166Y-111089341D01*
X195018163Y-111089344D01*
X194168803Y-111938706D01*
X193967869Y-112139640D01*
X193967867Y-112139642D01*
X193940328Y-112167181D01*
X193880742Y-112226766D01*
X193856646Y-112262829D01*
X193856645Y-112262828D01*
X193812289Y-112329212D01*
X193812285Y-112329219D01*
X193786836Y-112390661D01*
X193765138Y-112443043D01*
X193765138Y-112443045D01*
X193741100Y-112563896D01*
X193741100Y-112754350D01*
X193721415Y-112821389D01*
X193720202Y-112823241D01*
X193657209Y-112917515D01*
X193657202Y-112917528D01*
X193596864Y-113063198D01*
X193596861Y-113063210D01*
X193566100Y-113217853D01*
X193566100Y-113375546D01*
X193596861Y-113530189D01*
X193596864Y-113530201D01*
X193657202Y-113675872D01*
X193657209Y-113675885D01*
X193744810Y-113806988D01*
X193744813Y-113806992D01*
X193856307Y-113918486D01*
X193856311Y-113918489D01*
X193987414Y-114006090D01*
X193987427Y-114006097D01*
X194133098Y-114066435D01*
X194133103Y-114066437D01*
X194287753Y-114097199D01*
X194287756Y-114097200D01*
X194287758Y-114097200D01*
X194445444Y-114097200D01*
X194445445Y-114097199D01*
X194600097Y-114066437D01*
X194618753Y-114058709D01*
X194631048Y-114053617D01*
X194700517Y-114046148D01*
X194762996Y-114077423D01*
X194798648Y-114137512D01*
X194802500Y-114168178D01*
X194802500Y-114249547D01*
X194782815Y-114316586D01*
X194766185Y-114337223D01*
X194660827Y-114442582D01*
X194599507Y-114476066D01*
X194573148Y-114478900D01*
X166628252Y-114478900D01*
X166561213Y-114459215D01*
X166540571Y-114442581D01*
X166473793Y-114375803D01*
X166440308Y-114314480D01*
X166439887Y-114312464D01*
X166417737Y-114201103D01*
X166407318Y-114175951D01*
X166399850Y-114106483D01*
X166431125Y-114044004D01*
X166491214Y-114008352D01*
X166521880Y-114004500D01*
X187164893Y-114004500D01*
X187164894Y-114004499D01*
X187338866Y-113969895D01*
X187420806Y-113935953D01*
X187502747Y-113902013D01*
X187605827Y-113833137D01*
X187650236Y-113803464D01*
X191636880Y-109816817D01*
X191698203Y-109783333D01*
X191724561Y-109780499D01*
X192343002Y-109780499D01*
X192343008Y-109780499D01*
X192445797Y-109769999D01*
X192612334Y-109714814D01*
X192761656Y-109622712D01*
X192885712Y-109498656D01*
X192977814Y-109349334D01*
X193032999Y-109182797D01*
X193043500Y-109080009D01*
X193043499Y-108454992D01*
X193032999Y-108352203D01*
X192977814Y-108185666D01*
X192885712Y-108036344D01*
X192792049Y-107942681D01*
X192758564Y-107881358D01*
X192763548Y-107811666D01*
X192792049Y-107767319D01*
X192832554Y-107726814D01*
X192885712Y-107673656D01*
X192914549Y-107626902D01*
X192966497Y-107580179D01*
X193020088Y-107568000D01*
X193989507Y-107568000D01*
X194049929Y-107555981D01*
X194110352Y-107543963D01*
X194110355Y-107543961D01*
X194110358Y-107543961D01*
X194143687Y-107530154D01*
X194143686Y-107530154D01*
X194143692Y-107530152D01*
X194224186Y-107496812D01*
X194285883Y-107455586D01*
X194326633Y-107428358D01*
X194413758Y-107341233D01*
X194413759Y-107341231D01*
X194420825Y-107334165D01*
X194420828Y-107334161D01*
X195904661Y-105850327D01*
X195904675Y-105850316D01*
X195942327Y-105812664D01*
X196003649Y-105779178D01*
X196055977Y-105779094D01*
X196060202Y-105779999D01*
X196071897Y-105781193D01*
X196162991Y-105790500D01*
X196788008Y-105790499D01*
X196788016Y-105790498D01*
X196788019Y-105790498D01*
X196844302Y-105784748D01*
X196890797Y-105779999D01*
X197057334Y-105724814D01*
X197206656Y-105632712D01*
X197312550Y-105526818D01*
X197373873Y-105493334D01*
X197400231Y-105490500D01*
X197693493Y-105490500D01*
X197760532Y-105510185D01*
X197762383Y-105511398D01*
X197786042Y-105527206D01*
X197786045Y-105527207D01*
X197786053Y-105527213D01*
X197786059Y-105527215D01*
X197786060Y-105527216D01*
X197806547Y-105535702D01*
X197949934Y-105595094D01*
X197949936Y-105595094D01*
X197949941Y-105595096D01*
X198123904Y-105629699D01*
X198123907Y-105629700D01*
X198123909Y-105629700D01*
X198301293Y-105629700D01*
X198301294Y-105629699D01*
X198359282Y-105618164D01*
X198475258Y-105595096D01*
X198475261Y-105595094D01*
X198475266Y-105595094D01*
X198639147Y-105527213D01*
X198646166Y-105522522D01*
X198662817Y-105511398D01*
X198729494Y-105490520D01*
X198731707Y-105490500D01*
X199714193Y-105490500D01*
X199714194Y-105490499D01*
X199888166Y-105455895D01*
X199977222Y-105419006D01*
X200052047Y-105388013D01*
X200106846Y-105351397D01*
X200108960Y-105350734D01*
X200110439Y-105349085D01*
X200152111Y-105337223D01*
X200173524Y-105330519D01*
X200174615Y-105330818D01*
X200175737Y-105330499D01*
X200271149Y-105330499D01*
X200338188Y-105350184D01*
G37*
%TD.AperFunction*%
%TA.AperFunction,Conductor*%
G36*
X200144734Y-107326870D02*
G01*
X200200667Y-107368742D01*
X200225084Y-107434206D01*
X200225400Y-107443052D01*
X200225400Y-111754546D01*
X200205715Y-111821585D01*
X200189081Y-111842227D01*
X198615180Y-113416128D01*
X198553857Y-113449613D01*
X198484165Y-113444629D01*
X198428232Y-113402757D01*
X198403815Y-113337293D01*
X198403499Y-113328447D01*
X198403499Y-112284998D01*
X198403498Y-112284981D01*
X198392999Y-112182203D01*
X198392998Y-112182200D01*
X198378896Y-112139643D01*
X198337814Y-112015666D01*
X198245712Y-111866344D01*
X198121656Y-111742288D01*
X197972334Y-111650186D01*
X197805797Y-111595001D01*
X197805795Y-111595000D01*
X197703016Y-111584500D01*
X197703009Y-111584500D01*
X197031651Y-111584500D01*
X196964612Y-111564815D01*
X196918857Y-111512011D01*
X196908913Y-111442853D01*
X196937938Y-111379297D01*
X196943970Y-111372819D01*
X197403408Y-110913381D01*
X198860129Y-109456660D01*
X198860133Y-109456658D01*
X198947258Y-109369533D01*
X198998656Y-109292609D01*
X199015712Y-109267085D01*
X199062863Y-109153251D01*
X199086900Y-109032407D01*
X199086900Y-108909193D01*
X199086900Y-108333552D01*
X199106585Y-108266513D01*
X199123219Y-108245871D01*
X200013719Y-107355371D01*
X200075042Y-107321886D01*
X200144734Y-107326870D01*
G37*
%TD.AperFunction*%
%TA.AperFunction,Conductor*%
G36*
X190585539Y-104000185D02*
G01*
X190631294Y-104052989D01*
X190642500Y-104104500D01*
X190642500Y-104630001D01*
X190642501Y-104630009D01*
X190647402Y-104677993D01*
X190634632Y-104746685D01*
X190611725Y-104778274D01*
X189732240Y-105657758D01*
X189732237Y-105657761D01*
X189702278Y-105702600D01*
X189633690Y-105805247D01*
X189633683Y-105805259D01*
X189607287Y-105868988D01*
X189607287Y-105868989D01*
X189578932Y-105937444D01*
X189565805Y-105969134D01*
X189533721Y-106130435D01*
X189531200Y-106143109D01*
X189531200Y-106143110D01*
X189531200Y-107734996D01*
X189565803Y-107908958D01*
X189565805Y-107908966D01*
X189599746Y-107990906D01*
X189599746Y-107990907D01*
X189633684Y-108072842D01*
X189633685Y-108072844D01*
X189692763Y-108161260D01*
X189692764Y-108161261D01*
X189732234Y-108220334D01*
X190121619Y-108609719D01*
X190155104Y-108671042D01*
X190150120Y-108740734D01*
X190121619Y-108785081D01*
X186739519Y-112167181D01*
X186678196Y-112200666D01*
X186651838Y-112203500D01*
X169321924Y-112203500D01*
X169254885Y-112183815D01*
X169209130Y-112131011D01*
X169199186Y-112061853D01*
X169200307Y-112055309D01*
X169210633Y-112003393D01*
X169223500Y-111938706D01*
X169223500Y-107743950D01*
X169243185Y-107676911D01*
X169244398Y-107675059D01*
X169278269Y-107624367D01*
X169307394Y-107580779D01*
X169367737Y-107435097D01*
X169398500Y-107280442D01*
X169398500Y-107122758D01*
X169398500Y-107122755D01*
X169398499Y-107122753D01*
X169367738Y-106968110D01*
X169367737Y-106968103D01*
X169321092Y-106855490D01*
X169307397Y-106822427D01*
X169307390Y-106822414D01*
X169219789Y-106691311D01*
X169219786Y-106691307D01*
X169211215Y-106682736D01*
X169177730Y-106621413D01*
X169182714Y-106551721D01*
X169211213Y-106507376D01*
X169619095Y-106099493D01*
X169680416Y-106066010D01*
X169750107Y-106070994D01*
X169754223Y-106072613D01*
X169806248Y-106094163D01*
X169826297Y-106098151D01*
X169859896Y-106104834D01*
X169927092Y-106118201D01*
X169927094Y-106118201D01*
X170056421Y-106118201D01*
X170056441Y-106118200D01*
X187704008Y-106118200D01*
X187704008Y-106118199D01*
X187792922Y-106100514D01*
X187792923Y-106100514D01*
X187804807Y-106098150D01*
X187824852Y-106094163D01*
X187824857Y-106094160D01*
X187824860Y-106094160D01*
X187858187Y-106080354D01*
X187858186Y-106080354D01*
X187858192Y-106080352D01*
X187938686Y-106047012D01*
X187989909Y-106012784D01*
X188041133Y-105978558D01*
X188128258Y-105891433D01*
X188128258Y-105891431D01*
X188138466Y-105881224D01*
X188138467Y-105881221D01*
X189603498Y-104416191D01*
X189664819Y-104382708D01*
X189666814Y-104382292D01*
X189778197Y-104360137D01*
X189923879Y-104299794D01*
X190054989Y-104212189D01*
X190166489Y-104100689D01*
X190209974Y-104035610D01*
X190263586Y-103990804D01*
X190313076Y-103980500D01*
X190518500Y-103980500D01*
X190585539Y-104000185D01*
G37*
%TD.AperFunction*%
%TA.AperFunction,Conductor*%
G36*
X166947085Y-107068485D02*
G01*
X166967726Y-107085118D01*
X167012880Y-107130271D01*
X167046366Y-107191594D01*
X167049200Y-107217953D01*
X167049200Y-110936348D01*
X167029515Y-111003387D01*
X166976711Y-111049142D01*
X166907553Y-111059086D01*
X166843997Y-111030061D01*
X166837519Y-111024029D01*
X166683119Y-110869629D01*
X166649634Y-110808306D01*
X166646800Y-110781948D01*
X166646800Y-107218053D01*
X166666485Y-107151014D01*
X166683120Y-107130371D01*
X166728374Y-107085118D01*
X166789697Y-107051633D01*
X166816054Y-107048800D01*
X166880046Y-107048800D01*
X166947085Y-107068485D01*
G37*
%TD.AperFunction*%
%TA.AperFunction,Conductor*%
G36*
X188469386Y-103568485D02*
G01*
X188515141Y-103621289D01*
X188525085Y-103690447D01*
X188496060Y-103754003D01*
X188490028Y-103760481D01*
X187419629Y-104830881D01*
X187358306Y-104864366D01*
X187331948Y-104867200D01*
X186858452Y-104867200D01*
X186791413Y-104847515D01*
X186745658Y-104794711D01*
X186735714Y-104725553D01*
X186764739Y-104661997D01*
X186770771Y-104655519D01*
X186923143Y-104503147D01*
X187420029Y-104006260D01*
X187420033Y-104006258D01*
X187507158Y-103919133D01*
X187525815Y-103891211D01*
X187544174Y-103863735D01*
X187544175Y-103863734D01*
X187575609Y-103816690D01*
X187575612Y-103816686D01*
X187592691Y-103775452D01*
X187618985Y-103711973D01*
X187618986Y-103711969D01*
X187621899Y-103704937D01*
X187648778Y-103664711D01*
X187660307Y-103653182D01*
X187728373Y-103585117D01*
X187789696Y-103551634D01*
X187816053Y-103548800D01*
X188402347Y-103548800D01*
X188469386Y-103568485D01*
G37*
%TD.AperFunction*%
%TA.AperFunction,Conductor*%
G36*
X201518687Y-103137685D02*
G01*
X201539329Y-103154319D01*
X202013081Y-103628071D01*
X202046566Y-103689394D01*
X202049400Y-103715752D01*
X202049400Y-103800247D01*
X202029715Y-103867286D01*
X202013081Y-103887928D01*
X201310180Y-104590828D01*
X201248857Y-104624313D01*
X201179165Y-104619329D01*
X201123232Y-104577457D01*
X201098815Y-104511993D01*
X201098499Y-104503169D01*
X201098499Y-104004992D01*
X201093991Y-103960866D01*
X201087999Y-103902203D01*
X201087998Y-103902200D01*
X201077238Y-103869728D01*
X201032814Y-103735666D01*
X200940712Y-103586344D01*
X200847049Y-103492681D01*
X200813564Y-103431358D01*
X200818548Y-103361666D01*
X200847049Y-103317319D01*
X200881823Y-103282545D01*
X200940712Y-103223656D01*
X200969549Y-103176902D01*
X201021497Y-103130179D01*
X201075088Y-103118000D01*
X201451648Y-103118000D01*
X201518687Y-103137685D01*
G37*
%TD.AperFunction*%
%TA.AperFunction,Conductor*%
G36*
X170447087Y-103568485D02*
G01*
X170467729Y-103585119D01*
X171086428Y-104203819D01*
X171119913Y-104265142D01*
X171114929Y-104334834D01*
X171073057Y-104390767D01*
X171007593Y-104415184D01*
X170998747Y-104415500D01*
X170472883Y-104415500D01*
X170405844Y-104395815D01*
X170403993Y-104394603D01*
X170403013Y-104393948D01*
X170376505Y-104376236D01*
X170376504Y-104376235D01*
X170331690Y-104346290D01*
X170331686Y-104346288D01*
X170304033Y-104334834D01*
X170226341Y-104302653D01*
X170226338Y-104302651D01*
X170226338Y-104302652D01*
X170217856Y-104299138D01*
X170217848Y-104299136D01*
X170188093Y-104293217D01*
X170126183Y-104260831D01*
X170091609Y-104200115D01*
X170088884Y-104159437D01*
X170089400Y-104154201D01*
X170089400Y-103775452D01*
X170109085Y-103708413D01*
X170125713Y-103687776D01*
X170228373Y-103585117D01*
X170289695Y-103551634D01*
X170316053Y-103548800D01*
X170380048Y-103548800D01*
X170447087Y-103568485D01*
G37*
%TD.AperFunction*%
%TA.AperFunction,Conductor*%
G36*
X186421086Y-102271785D02*
G01*
X186466841Y-102324589D01*
X186476785Y-102393747D01*
X186447760Y-102457303D01*
X186441728Y-102463781D01*
X184978129Y-103927381D01*
X184916806Y-103960866D01*
X184890448Y-103963700D01*
X182269152Y-103963700D01*
X182202113Y-103944015D01*
X182156358Y-103891211D01*
X182146414Y-103822053D01*
X182175439Y-103758497D01*
X182181471Y-103752019D01*
X182826786Y-103106705D01*
X183645072Y-102288419D01*
X183706395Y-102254934D01*
X183732753Y-102252100D01*
X186354047Y-102252100D01*
X186421086Y-102271785D01*
G37*
%TD.AperFunction*%
%TD*%
M02*
