%TF.GenerationSoftware,KiCad,Pcbnew,10.0.5*%
%TF.CreationDate,2026-07-29T14:16:02-07:00*%
%TF.ProjectId,aquaguard,61717561-6775-4617-9264-2e6b69636164,rev?*%
%TF.SameCoordinates,Original*%
%TF.FileFunction,Legend,Bot*%
%TF.FilePolarity,Positive*%
%FSLAX46Y46*%
G04 Gerber Fmt 4.6, Leading zero omitted, Abs format (unit mm)*
G04 Created by KiCad (PCBNEW 10.0.5) date 2026-07-29 14:16:02*
%MOMM*%
%LPD*%
G01*
G04 APERTURE LIST*
%ADD10C,0.150000*%
%ADD11C,0.120000*%
G04 APERTURE END LIST*
D10*
X163211142Y-122007200D02*
X163068285Y-122054819D01*
X163068285Y-122054819D02*
X162830190Y-122054819D01*
X162830190Y-122054819D02*
X162734952Y-122007200D01*
X162734952Y-122007200D02*
X162687333Y-121959580D01*
X162687333Y-121959580D02*
X162639714Y-121864342D01*
X162639714Y-121864342D02*
X162639714Y-121769104D01*
X162639714Y-121769104D02*
X162687333Y-121673866D01*
X162687333Y-121673866D02*
X162734952Y-121626247D01*
X162734952Y-121626247D02*
X162830190Y-121578628D01*
X162830190Y-121578628D02*
X163020666Y-121531009D01*
X163020666Y-121531009D02*
X163115904Y-121483390D01*
X163115904Y-121483390D02*
X163163523Y-121435771D01*
X163163523Y-121435771D02*
X163211142Y-121340533D01*
X163211142Y-121340533D02*
X163211142Y-121245295D01*
X163211142Y-121245295D02*
X163163523Y-121150057D01*
X163163523Y-121150057D02*
X163115904Y-121102438D01*
X163115904Y-121102438D02*
X163020666Y-121054819D01*
X163020666Y-121054819D02*
X162782571Y-121054819D01*
X162782571Y-121054819D02*
X162639714Y-121102438D01*
X162211142Y-122054819D02*
X162211142Y-121054819D01*
X162211142Y-121054819D02*
X161639714Y-122054819D01*
X161639714Y-122054819D02*
X161639714Y-121054819D01*
X160449238Y-121007200D02*
X161306380Y-122292914D01*
X159449238Y-122150057D02*
X159544476Y-122102438D01*
X159544476Y-122102438D02*
X159639714Y-122007200D01*
X159639714Y-122007200D02*
X159782571Y-121864342D01*
X159782571Y-121864342D02*
X159877809Y-121816723D01*
X159877809Y-121816723D02*
X159973047Y-121816723D01*
X159925428Y-122054819D02*
X160020666Y-122007200D01*
X160020666Y-122007200D02*
X160115904Y-121911961D01*
X160115904Y-121911961D02*
X160163523Y-121721485D01*
X160163523Y-121721485D02*
X160163523Y-121388152D01*
X160163523Y-121388152D02*
X160115904Y-121197676D01*
X160115904Y-121197676D02*
X160020666Y-121102438D01*
X160020666Y-121102438D02*
X159925428Y-121054819D01*
X159925428Y-121054819D02*
X159734952Y-121054819D01*
X159734952Y-121054819D02*
X159639714Y-121102438D01*
X159639714Y-121102438D02*
X159544476Y-121197676D01*
X159544476Y-121197676D02*
X159496857Y-121388152D01*
X159496857Y-121388152D02*
X159496857Y-121721485D01*
X159496857Y-121721485D02*
X159544476Y-121911961D01*
X159544476Y-121911961D02*
X159639714Y-122007200D01*
X159639714Y-122007200D02*
X159734952Y-122054819D01*
X159734952Y-122054819D02*
X159925428Y-122054819D01*
X158496857Y-122054819D02*
X158830190Y-121578628D01*
X159068285Y-122054819D02*
X159068285Y-121054819D01*
X159068285Y-121054819D02*
X158687333Y-121054819D01*
X158687333Y-121054819D02*
X158592095Y-121102438D01*
X158592095Y-121102438D02*
X158544476Y-121150057D01*
X158544476Y-121150057D02*
X158496857Y-121245295D01*
X158496857Y-121245295D02*
X158496857Y-121388152D01*
X158496857Y-121388152D02*
X158544476Y-121483390D01*
X158544476Y-121483390D02*
X158592095Y-121531009D01*
X158592095Y-121531009D02*
X158687333Y-121578628D01*
X158687333Y-121578628D02*
X159068285Y-121578628D01*
%TO.C,R2*%
D11*
X201611064Y-99100000D02*
X201156936Y-99100000D01*
X201611064Y-100570000D02*
X201156936Y-100570000D01*
%TO.C,C6*%
X201665252Y-96080000D02*
X201142748Y-96080000D01*
X201665252Y-97550000D02*
X201142748Y-97550000D01*
%TO.C,R5*%
X196546064Y-103855000D02*
X196091936Y-103855000D01*
X196546064Y-105325000D02*
X196091936Y-105325000D01*
%TO.C,R3*%
X191864000Y-103632064D02*
X191864000Y-103177936D01*
X193334000Y-103632064D02*
X193334000Y-103177936D01*
%TO.C,U2*%
X159139000Y-145280000D02*
X159139000Y-146540000D01*
X159139000Y-152100000D02*
X159139000Y-150840000D01*
X162899000Y-145280000D02*
X159139000Y-145280000D01*
X162899000Y-152100000D02*
X159139000Y-152100000D01*
X164179000Y-145380000D02*
X164419000Y-145050000D01*
X163939000Y-145050000D01*
X164179000Y-145380000D01*
G36*
X164179000Y-145380000D02*
G01*
X163939000Y-145050000D01*
X164419000Y-145050000D01*
X164179000Y-145380000D01*
G37*
%TO.C,Q1*%
X200874000Y-88435000D02*
X200874000Y-89435000D01*
X200874000Y-90555000D02*
X200874000Y-91555000D01*
X200874000Y-91555000D02*
X202394000Y-91555000D01*
X202394000Y-88435000D02*
X200874000Y-88435000D01*
X202394000Y-88485000D02*
X202394000Y-88435000D01*
X202394000Y-90385000D02*
X202394000Y-89605000D01*
X202394000Y-91555000D02*
X202394000Y-91505000D01*
X202934000Y-89615000D02*
X202694000Y-89945000D01*
X203174000Y-89945000D01*
X202934000Y-89615000D01*
G36*
X203174000Y-89945000D02*
G01*
X202694000Y-89945000D01*
X202934000Y-89615000D01*
X203174000Y-89945000D01*
G37*
%TO.C,R4*%
X201611064Y-102090000D02*
X201156936Y-102090000D01*
X201611064Y-103560000D02*
X201156936Y-103560000D01*
%TO.C,R1*%
X191864000Y-99182064D02*
X191864000Y-98727936D01*
X193334000Y-99182064D02*
X193334000Y-98727936D01*
%TO.C,C3*%
X191894000Y-90256252D02*
X191894000Y-89733748D01*
X193364000Y-90256252D02*
X193364000Y-89733748D01*
%TO.C,R6*%
X200996064Y-105080000D02*
X200541936Y-105080000D01*
X200996064Y-106550000D02*
X200541936Y-106550000D01*
%TO.C,C5*%
X201665252Y-93030000D02*
X201142748Y-93030000D01*
X201665252Y-94500000D02*
X201142748Y-94500000D01*
%TO.C,C4*%
X191894000Y-94746252D02*
X191894000Y-94223748D01*
X193364000Y-94746252D02*
X193364000Y-94223748D01*
%TD*%
M02*
