M48
; DRILL file KiCad 10.0.5 date 2026-07-29T14:16:02
; FORMAT={-:-/ absolute / metric / decimal}
; #@! TF.CreationDate,2026-07-29T14:16:02-07:00
; #@! TF.GenerationSoftware,Kicad,Pcbnew,10.0.5
; #@! TF.FileFunction,Plated,1,2,PTH
FMAT,2
METRIC
; #@! TA.AperFunction,Plated,PTH,ComponentDrill
T1C0.200
; #@! TA.AperFunction,Plated,PTH,ViaDrill
T2C0.300
; #@! TA.AperFunction,Plated,PTH,ViaDrill
T3C0.400
; #@! TA.AperFunction,Plated,PTH,ComponentDrill
T4C0.600
; #@! TA.AperFunction,Plated,PTH,ComponentDrill
T5C0.800
; #@! TA.AperFunction,Plated,PTH,ComponentDrill
T6C0.900
; #@! TA.AperFunction,Plated,PTH,ComponentDrill
T7C1.000
; #@! TA.AperFunction,Plated,PTH,ComponentDrill
T8C1.050
; #@! TA.AperFunction,Plated,PTH,ComponentDrill
T9C1.100
; #@! TA.AperFunction,Plated,PTH,ComponentDrill
T10C1.300
%
G90
G05
T1
X170.704Y-109.49
X170.704Y-110.89
X171.404Y-108.79
X171.404Y-110.19
X171.404Y-111.59
X172.104Y-109.49
X172.104Y-110.89
X172.804Y-108.79
X172.804Y-110.19
X172.804Y-111.59
X173.504Y-109.49
X173.504Y-110.89
T2
X163.502Y-104.779
X163.502Y-115.181
X163.526Y-112.422
X169.731Y-106.439
X179.145Y-118.228
X190.802Y-124.864
X193.054Y-92.424
X202.281Y-101.437
T3
X157.104Y-82.75
X157.104Y-86.25
X157.104Y-89.75
X157.104Y-93.25
X157.104Y-96.75
X157.104Y-100.25
X157.104Y-103.75
X157.104Y-107.25
X157.104Y-110.75
X157.104Y-114.25
X157.104Y-117.75
X157.104Y-121.25
X157.104Y-124.75
X157.104Y-128.25
X157.104Y-131.75
X157.104Y-135.25
X157.104Y-138.75
X157.104Y-152.75
X157.104Y-156.25
X160.604Y-82.75
X160.604Y-86.25
X160.604Y-89.75
X160.604Y-93.25
X160.604Y-96.75
X160.604Y-100.25
X160.604Y-103.75
X160.604Y-107.25
X160.604Y-110.75
X160.604Y-114.25
X160.604Y-117.75
X160.604Y-121.25
X160.604Y-124.75
X160.604Y-128.25
X160.604Y-131.75
X160.604Y-135.25
X160.604Y-138.75
X160.604Y-145.75
X160.604Y-152.75
X160.604Y-156.25
X160.604Y-159.75
X162.704Y-102.47
X164.104Y-82.75
X164.104Y-86.25
X164.104Y-89.75
X164.104Y-93.25
X164.104Y-121.25
X164.104Y-124.75
X164.104Y-128.25
X164.104Y-131.75
X164.104Y-135.25
X164.104Y-138.75
X164.104Y-142.25
X164.104Y-156.25
X164.104Y-159.75
X164.199Y-144.49
X167.604Y-82.75
X167.604Y-86.25
X167.604Y-89.75
X167.604Y-93.25
X167.604Y-103.75
X167.604Y-107.25
X167.604Y-110.75
X167.604Y-114.25
X167.604Y-117.75
X167.604Y-124.75
X167.604Y-128.25
X167.604Y-131.75
X167.604Y-135.25
X167.604Y-138.75
X167.604Y-145.75
X167.604Y-149.25
X167.604Y-152.75
X167.604Y-156.25
X167.604Y-159.75
X171.104Y-82.75
X171.104Y-86.25
X171.104Y-89.75
X171.104Y-93.25
X171.104Y-103.75
X171.104Y-107.25
X171.104Y-114.25
X171.104Y-117.75
X171.104Y-124.75
X171.104Y-128.25
X171.104Y-131.75
X171.104Y-135.25
X171.104Y-138.75
X171.104Y-142.25
X171.104Y-145.75
X171.104Y-149.25
X171.104Y-152.75
X171.104Y-156.25
X171.104Y-159.75
X174.604Y-82.75
X174.604Y-86.25
X174.604Y-89.75
X174.604Y-93.25
X174.604Y-103.75
X174.604Y-107.25
X174.604Y-110.75
X174.604Y-114.25
X174.604Y-117.75
X174.604Y-124.75
X174.604Y-128.25
X174.604Y-131.75
X174.604Y-135.25
X174.604Y-152.75
X174.604Y-156.25
X174.604Y-159.75
X176.139Y-141.795
X178.104Y-82.75
X178.104Y-86.25
X178.104Y-89.75
X178.104Y-93.25
X178.104Y-103.75
X178.104Y-107.25
X178.104Y-110.75
X178.104Y-114.25
X178.104Y-117.75
X178.104Y-124.75
X178.104Y-128.25
X178.104Y-131.75
X178.104Y-135.25
X178.104Y-138.75
X178.104Y-145.75
X178.104Y-149.25
X178.104Y-152.75
X178.104Y-156.25
X178.104Y-159.75
X181.604Y-82.75
X181.604Y-86.25
X181.604Y-89.75
X181.604Y-93.25
X181.604Y-121.25
X181.604Y-124.75
X181.604Y-128.25
X181.604Y-131.75
X181.604Y-135.25
X181.604Y-145.75
X181.604Y-152.75
X181.604Y-156.25
X181.604Y-159.75
X182.639Y-141.795
X184.504Y-102.47
X185.104Y-82.75
X185.104Y-86.25
X185.104Y-89.75
X185.104Y-93.25
X185.104Y-96.75
X185.104Y-100.25
X185.104Y-103.75
X185.104Y-107.25
X185.104Y-110.75
X185.104Y-114.25
X185.104Y-117.75
X185.104Y-121.25
X185.104Y-124.75
X185.104Y-128.25
X185.104Y-131.75
X185.104Y-135.25
X185.104Y-149.25
X185.104Y-152.75
X185.104Y-156.25
X185.104Y-159.75
X188.604Y-82.75
X188.604Y-86.25
X188.604Y-89.75
X188.604Y-93.25
X188.604Y-96.75
X188.604Y-100.25
X188.604Y-103.75
X188.604Y-107.25
X188.604Y-110.75
X188.604Y-114.25
X188.604Y-117.75
X188.604Y-121.25
X188.604Y-124.75
X188.604Y-128.25
X188.604Y-131.75
X188.604Y-149.25
X188.604Y-152.75
X188.604Y-156.25
X188.604Y-159.75
X192.104Y-82.75
X192.104Y-86.25
X192.104Y-107.25
X192.104Y-110.75
X192.104Y-114.25
X192.104Y-117.75
X192.104Y-121.25
X192.104Y-124.75
X192.104Y-128.25
X192.104Y-131.75
X192.104Y-135.25
X192.104Y-138.75
X192.104Y-152.75
X192.104Y-156.25
X192.104Y-159.75
X192.629Y-87.42
X194.291Y-102.239
X194.627Y-96.281
X194.754Y-93.535
X195.604Y-82.75
X195.604Y-86.25
X195.604Y-89.75
X195.604Y-93.25
X195.604Y-107.25
X195.604Y-114.25
X195.604Y-117.75
X195.604Y-128.25
X195.604Y-131.75
X195.604Y-138.75
X195.604Y-142.25
X195.604Y-145.75
X195.604Y-152.75
X195.604Y-156.25
X198.829Y-93.765
X198.966Y-98.302
X199.104Y-82.75
X199.104Y-86.25
X199.104Y-114.25
X199.104Y-117.75
X199.104Y-128.25
X199.104Y-131.75
X199.104Y-138.75
X199.104Y-152.75
X199.104Y-156.25
X199.104Y-159.75
X199.649Y-113.795
X199.649Y-125.695
X201.539Y-112.985
X201.798Y-134.435
X202.349Y-122.995
X202.604Y-86.25
X202.604Y-110.75
X202.604Y-114.25
X202.604Y-117.75
X202.604Y-121.25
X202.604Y-124.75
X202.604Y-128.25
X202.604Y-131.75
X202.604Y-135.25
X202.604Y-138.75
X202.604Y-142.25
X202.604Y-145.75
X202.604Y-156.25
X204.519Y-151.145
X204.709Y-90.945
T4
X120.485Y-97.545
X121.785Y-92.545
T5
X174.388Y-147.785
X176.888Y-147.785
X192.479Y-142.295
X192.479Y-144.835
X200.099Y-142.295
X200.099Y-144.835
T6
X195.229Y-149.665
X197.769Y-149.665
X202.219Y-148.605
X202.219Y-151.145
T7
X133.059Y-128.685
X133.059Y-140.685
X133.559Y-92.405
X138.559Y-121.485
X143.559Y-121.485
X148.559Y-92.405
X152.519Y-128.455
X152.519Y-130.995
X152.519Y-133.535
X158.9Y-143.045
X168.9Y-143.045
X194.398Y-134.435
X199.398Y-134.435
T8
X109.195Y-92.545
X109.195Y-97.545
X109.195Y-107.545
X109.195Y-112.545
T9
X173.739Y-137.295
X173.739Y-141.795
X180.239Y-137.295
X180.239Y-141.795
X181.479Y-149.055
X184.329Y-137.295
X184.329Y-143.795
X188.829Y-137.295
X188.829Y-143.795
X191.639Y-149.055
T10
X131.109Y-134.635
X132.559Y-149.385
X137.559Y-149.385
X142.559Y-149.385
X145.259Y-140.685
X145.309Y-128.635
X194.649Y-111.095
X194.649Y-122.995
X197.359Y-91.295
X197.359Y-96.295
X197.359Y-101.295
X199.649Y-111.095
X199.649Y-122.995
M30
