M48
; DRILL file KiCad 10.0.5 date 2026-08-03T03:12:14
; FORMAT={-:-/ absolute / metric / decimal}
; #@! TF.CreationDate,2026-08-03T03:12:14-07:00
; #@! TF.GenerationSoftware,Kicad,Pcbnew,10.0.5
; #@! TF.FileFunction,Plated,1,2,PTH
FMAT,2
METRIC
; #@! TA.AperFunction,Plated,PTH,ComponentDrill
T1C0.200
; #@! TA.AperFunction,Plated,PTH,ViaDrill
T2C0.300
; #@! TA.AperFunction,Plated,PTH,ViaDrill
T3C0.400
; #@! TA.AperFunction,Plated,PTH,ComponentDrill
T4C0.600
; #@! TA.AperFunction,Plated,PTH,ComponentDrill
T5C0.800
; #@! TA.AperFunction,Plated,PTH,ComponentDrill
T6C0.900
; #@! TA.AperFunction,Plated,PTH,ComponentDrill
T7C1.000
; #@! TA.AperFunction,Plated,PTH,ComponentDrill
T8C1.050
; #@! TA.AperFunction,Plated,PTH,ComponentDrill
T9C1.100
; #@! TA.AperFunction,Plated,PTH,ComponentDrill
T10C1.300
%
G90
G05
T1
X169.948Y-109.49
X169.948Y-110.89
X170.648Y-108.79
X170.648Y-110.19
X170.648Y-111.59
X171.348Y-109.49
X171.348Y-110.89
X172.048Y-108.79
X172.048Y-110.19
X172.048Y-111.59
X172.748Y-109.49
X172.748Y-110.89
T2
X165.648Y-114.435
X165.736Y-104.902
X167.938Y-111.651
X168.598Y-107.202
X174.95Y-139.346
X179.619Y-117.675
X179.861Y-103.962
X188.514Y-116.292
X188.813Y-128.702
X189.545Y-103.59
X190.58Y-98.542
X193.885Y-105.655
X194.367Y-113.297
X194.401Y-101.702
T3
X156.348Y-82.75
X156.348Y-86.25
X156.348Y-89.75
X156.348Y-93.25
X156.348Y-96.75
X156.348Y-100.25
X156.348Y-103.75
X156.348Y-107.25
X156.348Y-110.75
X156.348Y-114.25
X156.348Y-117.75
X156.348Y-121.25
X156.348Y-124.75
X156.348Y-128.25
X156.348Y-131.75
X156.348Y-135.25
X156.348Y-138.75
X156.348Y-152.75
X159.848Y-82.75
X159.848Y-86.25
X159.848Y-89.75
X159.848Y-93.25
X159.848Y-96.75
X159.848Y-100.25
X159.848Y-103.75
X159.848Y-107.25
X159.848Y-110.75
X159.848Y-114.25
X159.848Y-117.75
X159.848Y-121.25
X159.848Y-124.75
X159.848Y-128.25
X159.848Y-131.75
X159.848Y-135.25
X159.848Y-138.75
X159.848Y-145.75
X159.848Y-152.75
X160.699Y-112.952
X161.948Y-102.47
X162.787Y-154.032
X163.348Y-82.75
X163.348Y-86.25
X163.348Y-89.75
X163.348Y-93.25
X163.348Y-121.25
X163.348Y-124.75
X163.348Y-128.25
X163.348Y-131.75
X163.348Y-135.25
X163.348Y-138.75
X163.348Y-142.25
X163.443Y-144.49
X166.848Y-82.75
X166.848Y-86.25
X166.848Y-89.75
X166.848Y-93.25
X166.848Y-103.75
X166.848Y-107.25
X166.848Y-110.75
X166.848Y-114.25
X166.848Y-117.75
X166.848Y-124.75
X166.848Y-128.25
X166.848Y-131.75
X166.848Y-135.25
X166.848Y-138.75
X166.848Y-145.75
X166.848Y-149.25
X166.848Y-152.75
X167.749Y-156.6
X170.348Y-82.75
X170.348Y-86.25
X170.348Y-89.75
X170.348Y-93.25
X170.348Y-103.75
X170.348Y-107.25
X170.348Y-114.25
X170.348Y-117.75
X170.348Y-124.75
X170.348Y-128.25
X170.348Y-131.75
X170.348Y-135.25
X170.348Y-138.75
X170.348Y-142.25
X170.348Y-145.75
X170.348Y-149.25
X170.348Y-152.75
X170.348Y-156.25
X173.848Y-82.75
X173.848Y-86.25
X173.848Y-89.75
X173.848Y-93.25
X173.848Y-103.75
X173.848Y-107.25
X173.848Y-110.75
X173.848Y-114.25
X173.848Y-117.75
X173.848Y-124.75
X173.848Y-128.25
X173.848Y-131.75
X173.848Y-135.25
X173.848Y-149.25
X173.848Y-152.75
X173.848Y-156.25
X177.348Y-82.75
X177.348Y-86.25
X177.348Y-89.75
X177.348Y-93.25
X177.348Y-103.75
X177.348Y-107.25
X177.348Y-110.75
X177.348Y-114.25
X177.348Y-117.75
X177.348Y-124.75
X177.348Y-128.25
X177.348Y-131.75
X177.348Y-135.25
X177.348Y-138.75
X177.348Y-149.25
X177.348Y-152.75
X177.348Y-156.25
X180.848Y-82.75
X180.848Y-86.25
X180.848Y-89.75
X180.848Y-93.25
X180.848Y-121.25
X180.848Y-124.75
X180.848Y-128.25
X180.848Y-131.75
X180.848Y-135.25
X180.848Y-145.75
X180.848Y-152.75
X180.848Y-156.25
X182.343Y-151.125
X183.748Y-102.47
X184.348Y-82.75
X184.348Y-86.25
X184.348Y-89.75
X184.348Y-93.25
X184.348Y-96.75
X184.348Y-100.25
X184.348Y-103.75
X184.348Y-107.25
X184.348Y-110.75
X184.348Y-114.25
X184.348Y-117.75
X184.348Y-121.25
X184.348Y-124.75
X184.348Y-128.25
X184.348Y-131.75
X184.348Y-138.75
X184.348Y-142.25
X184.348Y-152.75
X184.348Y-156.25
X187.848Y-82.75
X187.848Y-86.25
X187.848Y-89.75
X187.848Y-93.25
X187.848Y-96.75
X187.848Y-100.25
X187.848Y-103.75
X187.848Y-107.25
X187.848Y-110.75
X187.848Y-114.25
X187.848Y-117.75
X187.848Y-121.25
X187.848Y-124.75
X187.848Y-128.25
X187.848Y-131.75
X187.848Y-135.25
X187.848Y-138.75
X187.848Y-142.25
X187.848Y-145.75
X187.848Y-149.25
X187.848Y-152.75
X187.848Y-156.25
X191.348Y-82.75
X191.348Y-86.25
X191.348Y-110.75
X191.348Y-114.25
X191.348Y-121.25
X191.348Y-124.75
X191.348Y-128.25
X191.348Y-138.75
X191.348Y-145.75
X191.348Y-152.75
X191.348Y-156.25
X191.873Y-87.42
X192.069Y-105.556
X193.76Y-120.018
X193.903Y-108.385
X193.998Y-93.535
X194.848Y-82.75
X194.848Y-86.25
X194.848Y-89.75
X194.848Y-93.25
X194.848Y-110.75
X194.848Y-128.25
X194.848Y-131.75
X194.848Y-135.25
X194.848Y-138.75
X194.848Y-142.25
X194.848Y-145.75
X194.848Y-149.25
X194.848Y-152.75
X194.848Y-156.25
X196.493Y-135.065
X198.213Y-104.729
X198.267Y-95.0
X198.348Y-82.75
X198.348Y-86.25
X198.348Y-110.75
X198.348Y-117.75
X198.348Y-128.25
X198.348Y-142.25
X198.348Y-145.75
X198.348Y-152.75
X198.348Y-156.25
X199.303Y-108.385
X200.501Y-92.281
X201.042Y-122.725
X201.848Y-89.75
X201.848Y-96.75
X201.848Y-100.25
X201.848Y-103.75
X201.848Y-107.25
X201.848Y-110.75
X201.848Y-114.25
X201.848Y-117.75
X201.848Y-121.25
X201.848Y-124.75
X201.848Y-128.25
X201.848Y-131.75
X201.848Y-135.25
X201.848Y-138.75
X201.848Y-142.25
X201.848Y-145.75
X201.848Y-149.25
X201.848Y-152.75
X202.053Y-93.535
T4
X120.485Y-115.445
X121.785Y-110.445
T5
X183.593Y-136.845
X183.593Y-144.465
X186.133Y-136.845
X186.133Y-144.465
X190.902Y-141.055
X193.402Y-141.055
T6
X182.343Y-148.825
X184.883Y-148.825
X189.903Y-147.755
X192.443Y-147.755
T7
X132.303Y-128.685
X132.303Y-140.685
X132.803Y-92.405
X137.803Y-121.485
X142.803Y-121.485
X147.803Y-92.405
X158.144Y-143.045
X168.144Y-143.045
X173.253Y-146.155
X175.793Y-146.155
X178.333Y-146.155
X193.642Y-122.725
X198.642Y-122.725
T8
X109.195Y-110.445
X109.195Y-115.445
X109.195Y-125.445
X109.195Y-130.445
T9
X172.983Y-137.295
X172.983Y-141.795
X179.483Y-137.295
X179.483Y-141.795
X192.393Y-130.565
X192.393Y-135.065
X198.243Y-139.005
X198.243Y-149.165
X198.893Y-130.565
X198.893Y-135.065
T10
X109.295Y-97.005
X109.295Y-144.495
X114.295Y-97.005
X114.295Y-144.495
X119.295Y-97.005
X130.353Y-134.635
X144.503Y-140.685
X144.553Y-128.635
X196.603Y-91.295
X196.603Y-96.295
X196.603Y-101.295
X196.603Y-108.385
X196.603Y-113.385
M30
