%TF.GenerationSoftware,KiCad,Pcbnew,10.0.5*%
%TF.CreationDate,2026-07-29T02:28:51-07:00*%
%TF.ProjectId,cv-sos,63762d73-6f73-42e6-9b69-6361645f7063,rev?*%
%TF.SameCoordinates,Original*%
%TF.FileFunction,Copper,L1,Top*%
%TF.FilePolarity,Positive*%
%FSLAX46Y46*%
G04 Gerber Fmt 4.6, Leading zero omitted, Abs format (unit mm)*
G04 Created by KiCad (PCBNEW 10.0.5) date 2026-07-29 02:28:51*
%MOMM*%
%LPD*%
G01*
G04 APERTURE LIST*
G04 Aperture macros list*
%AMRoundRect*
0 Rectangle with rounded corners*
0 $1 Rounding radius*
0 $2 $3 $4 $5 $6 $7 $8 $9 X,Y pos of 4 corners*
0 Add a 4 corners polygon primitive as box body*
4,1,4,$2,$3,$4,$5,$6,$7,$8,$9,$2,$3,0*
0 Add four circle primitives for the rounded corners*
1,1,$1+$1,$2,$3*
1,1,$1+$1,$4,$5*
1,1,$1+$1,$6,$7*
1,1,$1+$1,$8,$9*
0 Add four rect primitives between the rounded corners*
20,1,$1+$1,$2,$3,$4,$5,0*
20,1,$1+$1,$4,$5,$6,$7,0*
20,1,$1+$1,$6,$7,$8,$9,0*
20,1,$1+$1,$8,$9,$2,$3,0*%
G04 Aperture macros list end*
%TA.AperFunction,ComponentPad*%
%ADD10RoundRect,0.250000X-1.050000X-1.050000X1.050000X-1.050000X1.050000X1.050000X-1.050000X1.050000X0*%
%TD*%
%TA.AperFunction,ComponentPad*%
%ADD11C,2.600000*%
%TD*%
%TA.AperFunction,SMDPad,CuDef*%
%ADD12C,1.500000*%
%TD*%
%TA.AperFunction,ComponentPad*%
%ADD13R,1.700000X1.700000*%
%TD*%
%TA.AperFunction,ComponentPad*%
%ADD14C,1.700000*%
%TD*%
%TA.AperFunction,ComponentPad*%
%ADD15R,2.000000X2.000000*%
%TD*%
%TA.AperFunction,ComponentPad*%
%ADD16C,2.000000*%
%TD*%
%TA.AperFunction,SMDPad,CuDef*%
%ADD17R,5.080000X1.500000*%
%TD*%
%TA.AperFunction,ComponentPad*%
%ADD18R,1.800000X1.800000*%
%TD*%
%TA.AperFunction,ComponentPad*%
%ADD19C,1.800000*%
%TD*%
%TA.AperFunction,SMDPad,CuDef*%
%ADD20C,1.000000*%
%TD*%
%TA.AperFunction,ComponentPad*%
%ADD21RoundRect,0.250000X-0.750000X-0.750000X0.750000X-0.750000X0.750000X0.750000X-0.750000X0.750000X0*%
%TD*%
%TA.AperFunction,ComponentPad*%
%ADD22R,3.000000X3.000000*%
%TD*%
%TA.AperFunction,ComponentPad*%
%ADD23C,3.000000*%
%TD*%
%TA.AperFunction,HeatsinkPad*%
%ADD24C,0.600000*%
%TD*%
%TA.AperFunction,ViaPad*%
%ADD25C,0.800000*%
%TD*%
%TA.AperFunction,ViaPad*%
%ADD26C,0.600000*%
%TD*%
%TA.AperFunction,Conductor*%
%ADD27C,0.800000*%
%TD*%
%TA.AperFunction,Conductor*%
%ADD28C,0.250000*%
%TD*%
G04 APERTURE END LIST*
D10*
%TO.P,J1,1*%
%TO.N,+5V*%
X152375000Y-106255000D03*
D11*
%TO.P,J1,2*%
%TO.N,GND*%
X157375000Y-106255000D03*
%TD*%
D12*
%TO.P,TP2,1*%
%TO.N,+3V3*%
X156701300Y-146400000D03*
%TD*%
D13*
%TO.P,M1,1*%
%TO.N,+5V*%
X163235000Y-102315000D03*
D14*
%TO.P,M1,2*%
%TO.N,BATT_ADC*%
X163235000Y-104855000D03*
%TO.P,M1,3*%
%TO.N,SIM_RX*%
X163235000Y-107395000D03*
%TO.P,M1,4*%
%TO.N,GND*%
X163235000Y-109935000D03*
%TD*%
D13*
%TO.P,M2,1*%
%TO.N,+5V*%
X167865000Y-102315000D03*
D14*
%TO.P,M2,2*%
%TO.N,SIM_TX*%
X167865000Y-104855000D03*
%TO.P,M2,3*%
%TO.N,GPS_RX*%
X167865000Y-107395000D03*
%TO.P,M2,4*%
%TO.N,GND*%
X167865000Y-109935000D03*
%TD*%
D15*
%TO.P,FB1,1*%
%TO.N,BUZZER*%
X136036200Y-95545000D03*
D16*
%TO.P,FB1,2*%
%TO.N,GND*%
X146036200Y-95545000D03*
%TD*%
D13*
%TO.P,U3,1*%
%TO.N,N$U3.1*%
X172495000Y-102315000D03*
D14*
%TO.P,U3,2*%
%TO.N,N$U3.2*%
X172495000Y-104855000D03*
%TO.P,U3,3*%
%TO.N,N$U3.3*%
X172495000Y-107395000D03*
%TO.P,U3,4*%
%TO.N,N$U3.4*%
X172495000Y-109935000D03*
%TD*%
D13*
%TO.P,SIM1,1*%
%TO.N,N$SIM1.1*%
X177125000Y-102315000D03*
D14*
%TO.P,SIM1,2*%
%TO.N,N$SIM1.2*%
X177125000Y-104855000D03*
%TO.P,SIM1,3*%
%TO.N,N$SIM1.3*%
X177125000Y-107395000D03*
%TD*%
D12*
%TO.P,TP1,1*%
%TO.N,+5V*%
X142169300Y-146400000D03*
%TD*%
D17*
%TO.P,ANT1,1*%
%TO.N,ANT*%
X152415000Y-93875000D03*
%TO.P,ANT1,2*%
%TO.N,GND*%
X152415000Y-89625000D03*
X152415000Y-98125000D03*
%TD*%
D16*
%TO.P,SW1,1*%
%TO.N,SOS_BTN*%
X188075000Y-101385000D03*
X194575000Y-101385000D03*
%TO.P,SW1,2*%
%TO.N,GND*%
X188075000Y-105885000D03*
X194575000Y-105885000D03*
%TD*%
D18*
%TO.P,LED0,1*%
%TO.N,N$LED0.1*%
X134935000Y-106095000D03*
D19*
%TO.P,LED0,2*%
%TO.N,N$LED0.2*%
X137475000Y-106095000D03*
%TD*%
D18*
%TO.P,LED1,1*%
%TO.N,N$LED1.1*%
X140865000Y-106095000D03*
D19*
%TO.P,LED1,2*%
%TO.N,N$LED1.2*%
X143405000Y-106095000D03*
%TD*%
D13*
%TO.P,JP,1*%
%TO.N,UART_TX*%
X181755000Y-102315000D03*
D14*
%TO.P,JP,2*%
%TO.N,UART_RX*%
X181755000Y-104855000D03*
%TO.P,JP,3*%
%TO.N,GND*%
X181755000Y-107395000D03*
%TD*%
D12*
%TO.P,TP3,1*%
%TO.N,GND*%
X160701300Y-146400000D03*
%TD*%
D17*
%TO.P,ANT2,1*%
%TO.N,ANT*%
X171015000Y-93875000D03*
%TO.P,ANT2,2*%
%TO.N,GND*%
X171015000Y-89625000D03*
X171015000Y-98125000D03*
%TD*%
D20*
%TO.P,FID2,*%
%TO.N,*%
X188353300Y-147800000D03*
%TD*%
D21*
%TO.P,C1,1*%
%TO.N,+5V*%
X189323800Y-93545000D03*
D16*
%TO.P,C1,2*%
%TO.N,GND*%
X194323800Y-93545000D03*
%TD*%
D22*
%TO.P,BT1,1*%
%TO.N,+5V*%
X105745000Y-100050000D03*
D23*
%TO.P,BT1,2*%
%TO.N,GND*%
X126235000Y-100050000D03*
%TD*%
D20*
%TO.P,FID1,*%
%TO.N,*%
X112049300Y-83200000D03*
%TD*%
D24*
%TO.P,U1,39*%
%TO.N,GND*%
X127110000Y-127895000D03*
X128510000Y-127895000D03*
X126410000Y-127195000D03*
X127810000Y-127195000D03*
X129210000Y-127195000D03*
X127110000Y-126495000D03*
X128510000Y-126495000D03*
X126410000Y-125795000D03*
X127810000Y-125795000D03*
X129210000Y-125795000D03*
X127110000Y-125095000D03*
X128510000Y-125095000D03*
%TD*%
D25*
%TO.N,+5V*%
X145773700Y-105374700D03*
%TO.N,GND*%
X138750000Y-103750000D03*
X170250000Y-114250000D03*
X110750000Y-138750000D03*
X159750000Y-103750000D03*
X177250000Y-128250000D03*
X107250000Y-93250000D03*
X184250000Y-149250000D03*
X191250000Y-117750000D03*
X180750000Y-121250000D03*
X152750000Y-142250000D03*
X128250000Y-107250000D03*
X180750000Y-93250000D03*
X166750000Y-86250000D03*
X180750000Y-124750000D03*
X166750000Y-89750000D03*
X177250000Y-86250000D03*
X159750000Y-100250000D03*
X187750000Y-135250000D03*
X107250000Y-138750000D03*
X121250000Y-131750000D03*
X142250000Y-96750000D03*
X114250000Y-110750000D03*
X156250000Y-82750000D03*
X145750000Y-117750000D03*
X156250000Y-128250000D03*
X135250000Y-145750000D03*
X149250000Y-128250000D03*
X173423000Y-87217000D03*
X117750000Y-100250000D03*
X124750000Y-142250000D03*
X170250000Y-86250000D03*
X149250000Y-107250000D03*
X198250000Y-114250000D03*
X194750000Y-138750000D03*
X194750000Y-82750000D03*
X117750000Y-142250000D03*
X170250000Y-124750000D03*
X131750000Y-96750000D03*
X113025000Y-91400000D03*
X121250000Y-149250000D03*
X187750000Y-96750000D03*
X142250000Y-82750000D03*
X131750000Y-131750000D03*
X191250000Y-110750000D03*
X191250000Y-107250000D03*
X177250000Y-131750000D03*
X187750000Y-145750000D03*
X121250000Y-93250000D03*
X194750000Y-114250000D03*
X184250000Y-114250000D03*
X145750000Y-142250000D03*
X166750000Y-145750000D03*
X163250000Y-117750000D03*
X110750000Y-124750000D03*
X162851000Y-146400000D03*
X138750000Y-135250000D03*
X173750000Y-149250000D03*
X107250000Y-110750000D03*
X170250000Y-100250000D03*
X170250000Y-131750000D03*
X166750000Y-131750000D03*
X152750000Y-131750000D03*
X103750000Y-103750000D03*
X142250000Y-110750000D03*
X135250000Y-100250000D03*
X180750000Y-138750000D03*
X184250000Y-89750000D03*
X154823000Y-87217000D03*
X114250000Y-138750000D03*
X149250000Y-142250000D03*
X131750000Y-124750000D03*
X145750000Y-138750000D03*
X142250000Y-135250000D03*
X166750000Y-100250000D03*
X149250000Y-135250000D03*
X159750000Y-114250000D03*
X128250000Y-131750000D03*
X131750000Y-114250000D03*
X114250000Y-114250000D03*
X131750000Y-142250000D03*
X152750000Y-86250000D03*
X198250000Y-110750000D03*
X184250000Y-117750000D03*
X152750000Y-121250000D03*
X108535000Y-91400000D03*
X198250000Y-145750000D03*
X110750000Y-93250000D03*
X184250000Y-103750000D03*
X110750000Y-114250000D03*
X159750000Y-124750000D03*
X180750000Y-131750000D03*
X145750000Y-128250000D03*
X145750000Y-114250000D03*
X198250000Y-107250000D03*
X184250000Y-82750000D03*
X180750000Y-114250000D03*
X107250000Y-149250000D03*
X148475000Y-89625000D03*
X149250000Y-100250000D03*
X152750000Y-124750000D03*
X104045000Y-91400000D03*
X173750000Y-142250000D03*
X107250000Y-131750000D03*
X166750000Y-135250000D03*
X180750000Y-86250000D03*
X187750000Y-82750000D03*
X107250000Y-124750000D03*
X184250000Y-96750000D03*
X198250000Y-124750000D03*
X103750000Y-124750000D03*
X145750000Y-100250000D03*
X138750000Y-149250000D03*
X180750000Y-149250000D03*
X184250000Y-142250000D03*
X149250000Y-110750000D03*
X138750000Y-96750000D03*
X145750000Y-93250000D03*
X131750000Y-82750000D03*
X174954999Y-89625000D03*
X173750000Y-82750000D03*
X107250000Y-114250000D03*
X173750000Y-114250000D03*
X156250000Y-142250000D03*
X184250000Y-93250000D03*
X117750000Y-107250000D03*
X159750000Y-117750000D03*
X170250000Y-135250000D03*
X152750000Y-114250000D03*
X149250000Y-117750000D03*
X128250000Y-149250000D03*
X166750000Y-82750000D03*
X110750000Y-107250000D03*
X149250000Y-86250000D03*
X156250000Y-96750000D03*
X191250000Y-149250000D03*
X198250000Y-86250000D03*
X103750000Y-86250000D03*
X159750000Y-128250000D03*
X114250000Y-100250000D03*
X156250000Y-117750000D03*
X191250000Y-86250000D03*
X131750000Y-86250000D03*
X149250000Y-149250000D03*
X117750000Y-86250000D03*
X198250000Y-96750000D03*
X163250000Y-96750000D03*
X121250000Y-96750000D03*
X149250000Y-121250000D03*
X124750000Y-96750000D03*
X180750000Y-89750000D03*
X124750000Y-124750000D03*
X138750000Y-93250000D03*
X131750000Y-93250000D03*
X166750000Y-121250000D03*
X198250000Y-117750000D03*
X194750000Y-117750000D03*
X114250000Y-149250000D03*
X121250000Y-145750000D03*
X107250000Y-121250000D03*
X128250000Y-121250000D03*
X124750000Y-131750000D03*
X152750000Y-138750000D03*
X187750000Y-131750000D03*
X103750000Y-117750000D03*
X138750000Y-82750000D03*
X170250000Y-145750000D03*
X135250000Y-86250000D03*
X128250000Y-114250000D03*
X110750000Y-86250000D03*
X187750000Y-128250000D03*
X166750000Y-138750000D03*
X191250000Y-131750000D03*
X103750000Y-121250000D03*
X142250000Y-100250000D03*
X152750000Y-117750000D03*
X163250000Y-89750000D03*
X177250000Y-114250000D03*
X166750000Y-142250000D03*
X142250000Y-142250000D03*
X107250000Y-96750000D03*
X180750000Y-82750000D03*
X128250000Y-142250000D03*
X191250000Y-82750000D03*
X149250000Y-138750000D03*
X187750000Y-114250000D03*
X156250000Y-121250000D03*
X103750000Y-138750000D03*
X163250000Y-128250000D03*
X124750000Y-82750000D03*
X142250000Y-114250000D03*
X131750000Y-128250000D03*
X173750000Y-124750000D03*
X170250000Y-121250000D03*
X163250000Y-138750000D03*
X180750000Y-117750000D03*
X124750000Y-103750000D03*
X170250000Y-107250000D03*
X198250000Y-131750000D03*
X138750000Y-100250000D03*
X194750000Y-135250000D03*
X191250000Y-142250000D03*
X135250000Y-110750000D03*
X114250000Y-93250000D03*
X124750000Y-110750000D03*
X117750000Y-82750000D03*
X152750000Y-100250000D03*
X198250000Y-142250000D03*
X149250000Y-103750000D03*
X184250000Y-145750000D03*
X159750000Y-121250000D03*
X159750000Y-110750000D03*
X131750000Y-100250000D03*
X184250000Y-131750000D03*
X166750000Y-114250000D03*
X124750000Y-121250000D03*
X187750000Y-86250000D03*
X152750000Y-82750000D03*
X173750000Y-121250000D03*
X159750000Y-86250000D03*
X107250000Y-107250000D03*
X187750000Y-138750000D03*
X170250000Y-82750000D03*
X110750000Y-128250000D03*
X149250000Y-131750000D03*
X131750000Y-138750000D03*
X126235000Y-97149999D03*
X159750000Y-135250000D03*
X187750000Y-117750000D03*
X145750000Y-110750000D03*
X124750000Y-114250000D03*
X128250000Y-93250000D03*
X135250000Y-138750000D03*
X110750000Y-96750000D03*
X103750000Y-131750000D03*
X156250000Y-86250000D03*
X121250000Y-114250000D03*
X187750000Y-124750000D03*
X121250000Y-138750000D03*
X142250000Y-103750000D03*
X117750000Y-96750000D03*
X145750000Y-103750000D03*
X194750000Y-124750000D03*
X194750000Y-86250000D03*
X110750000Y-149250000D03*
X103750000Y-93250000D03*
X165485000Y-109935000D03*
X117750000Y-93250000D03*
X149250000Y-82750000D03*
X194750000Y-131750000D03*
X194750000Y-110750000D03*
X156250000Y-93250000D03*
X198250000Y-93250000D03*
X198250000Y-135250000D03*
X124750000Y-145750000D03*
X166750000Y-124750000D03*
X166750000Y-149250000D03*
X114250000Y-124750000D03*
X173750000Y-138750000D03*
X191250000Y-138750000D03*
X103750000Y-142250000D03*
X187750000Y-121250000D03*
X191250000Y-128250000D03*
X187750000Y-142250000D03*
X117750000Y-145750000D03*
X145750000Y-124750000D03*
X128250000Y-96750000D03*
X184250000Y-124750000D03*
X173750000Y-128250000D03*
X138750000Y-145750000D03*
X124750000Y-138750000D03*
X194750000Y-128250000D03*
X170250000Y-128250000D03*
X198250000Y-138750000D03*
X138750000Y-110750000D03*
X198250000Y-149250000D03*
X114250000Y-117750000D03*
X156250000Y-131750000D03*
X138750000Y-142250000D03*
X171015000Y-86185000D03*
X180750000Y-96750000D03*
X110750000Y-117750000D03*
X177250000Y-82750000D03*
X110750000Y-121250000D03*
X121250000Y-142250000D03*
X156250000Y-110750000D03*
X173750000Y-131750000D03*
X184250000Y-138750000D03*
X135250000Y-93250000D03*
X114250000Y-82750000D03*
X184250000Y-135250000D03*
X177250000Y-121250000D03*
X117750000Y-149250000D03*
X107250000Y-128250000D03*
X114250000Y-145750000D03*
X187750000Y-110750000D03*
X166750000Y-117750000D03*
X156250000Y-89750000D03*
X121250000Y-110750000D03*
X103750000Y-110750000D03*
X124750000Y-86250000D03*
X180750000Y-145750000D03*
X117750000Y-110750000D03*
X198250000Y-100250000D03*
X177250000Y-149250000D03*
X124750000Y-128250000D03*
X103750000Y-149250000D03*
X142250000Y-149250000D03*
X124750000Y-93250000D03*
X114250000Y-121250000D03*
X163250000Y-142250000D03*
X177250000Y-135250000D03*
X159750000Y-107250000D03*
X138750000Y-138750000D03*
X170250000Y-117750000D03*
X135250000Y-103750000D03*
X117515000Y-91400000D03*
X163250000Y-93250000D03*
X171015000Y-85085000D03*
X121250000Y-121250000D03*
X156250000Y-149250000D03*
X142250000Y-138750000D03*
X145750000Y-107250000D03*
X149250000Y-124750000D03*
X163250000Y-114250000D03*
X191250000Y-103750000D03*
X110750000Y-145750000D03*
X163250000Y-145750000D03*
X103750000Y-128250000D03*
X159750000Y-89750000D03*
X156250000Y-124750000D03*
X163250000Y-149250000D03*
X110750000Y-131750000D03*
X128250000Y-86250000D03*
X135250000Y-149250000D03*
X121250000Y-128250000D03*
X114250000Y-142250000D03*
X129135000Y-100050000D03*
X163250000Y-82750000D03*
X145750000Y-149250000D03*
X124750000Y-149250000D03*
X103750000Y-145750000D03*
X110750000Y-110750000D03*
X194750000Y-96750000D03*
X191250000Y-145750000D03*
X163250000Y-86250000D03*
X198250000Y-89750000D03*
X117750000Y-103750000D03*
X145750000Y-131750000D03*
X163250000Y-121250000D03*
X180750000Y-135250000D03*
X107250000Y-145750000D03*
X184250000Y-121250000D03*
X121250000Y-100250000D03*
X156250000Y-114250000D03*
X114250000Y-103750000D03*
X152750000Y-128250000D03*
X177250000Y-138750000D03*
X135530000Y-135895000D03*
X156250000Y-135250000D03*
X121250000Y-107250000D03*
X159750000Y-149250000D03*
X177250000Y-89750000D03*
X191250000Y-114250000D03*
X152750000Y-145750000D03*
X166750000Y-96750000D03*
X184250000Y-107250000D03*
X191250000Y-96750000D03*
X177250000Y-110750000D03*
X194750000Y-121250000D03*
X145750000Y-82750000D03*
X177250000Y-145750000D03*
X177250000Y-93250000D03*
X145750000Y-135250000D03*
X170250000Y-110750000D03*
X114250000Y-128250000D03*
X131750000Y-103750000D03*
X156250000Y-100250000D03*
X128250000Y-82750000D03*
X142250000Y-86250000D03*
X152750000Y-110750000D03*
X135250000Y-142250000D03*
X145750000Y-121250000D03*
X166750000Y-93250000D03*
X159750000Y-142250000D03*
X170250000Y-142250000D03*
X191250000Y-135250000D03*
X170250000Y-138750000D03*
X156250000Y-138750000D03*
X184250000Y-110750000D03*
X138750000Y-86250000D03*
X110750000Y-135250000D03*
X196724000Y-93545000D03*
X103750000Y-135250000D03*
X184250000Y-128250000D03*
X180750000Y-110750000D03*
X138750000Y-114250000D03*
X149250000Y-114250000D03*
X194750000Y-142250000D03*
X103750000Y-96750000D03*
X177250000Y-124750000D03*
X177250000Y-117750000D03*
X173750000Y-86250000D03*
X110750000Y-100250000D03*
X159750000Y-138750000D03*
X103750000Y-82750000D03*
X145750000Y-86250000D03*
X152750000Y-135250000D03*
X194750000Y-145750000D03*
X163250000Y-135250000D03*
X196975000Y-105885000D03*
X180750000Y-128250000D03*
X128250000Y-145750000D03*
X114250000Y-96750000D03*
X131750000Y-145750000D03*
X191250000Y-124750000D03*
X110750000Y-142250000D03*
X107250000Y-135250000D03*
X121250000Y-82750000D03*
X177250000Y-96750000D03*
X156954999Y-89625000D03*
X191250000Y-121250000D03*
X198250000Y-121250000D03*
X166750000Y-128250000D03*
X107250000Y-142250000D03*
X184250000Y-86250000D03*
X145750000Y-145750000D03*
X135250000Y-82750000D03*
X107250000Y-82750000D03*
X107250000Y-117750000D03*
X163250000Y-131750000D03*
X198250000Y-103750000D03*
X121250000Y-124750000D03*
X114250000Y-131750000D03*
X103750000Y-114250000D03*
X114250000Y-86250000D03*
X170250000Y-103750000D03*
X152750000Y-149250000D03*
X128250000Y-103750000D03*
X107250000Y-86250000D03*
X131750000Y-107250000D03*
X128250000Y-110750000D03*
X184250000Y-100250000D03*
X114250000Y-107250000D03*
X159750000Y-93250000D03*
X198250000Y-128250000D03*
X173750000Y-100250000D03*
X173750000Y-117750000D03*
X159750000Y-82750000D03*
X103750000Y-107250000D03*
X177250000Y-142250000D03*
X190475000Y-105885000D03*
X135250000Y-114250000D03*
X180750000Y-142250000D03*
X110750000Y-103750000D03*
X198250000Y-82750000D03*
X142250000Y-93250000D03*
X131750000Y-121250000D03*
X114250000Y-135250000D03*
X194750000Y-149250000D03*
X173750000Y-145750000D03*
X107250000Y-103750000D03*
X121250000Y-86250000D03*
X128250000Y-138750000D03*
X173750000Y-135250000D03*
X159750000Y-131750000D03*
X117750000Y-114250000D03*
X119920000Y-130710000D03*
X131750000Y-149250000D03*
X131750000Y-110750000D03*
X124750000Y-107250000D03*
X163250000Y-124750000D03*
X159750000Y-96750000D03*
X121250000Y-103750000D03*
X156250000Y-103750000D03*
X170250000Y-149250000D03*
X117750000Y-138750000D03*
X150007000Y-87217000D03*
%TO.N,+3V3*%
X146608300Y-98862600D03*
X148134100Y-138437900D03*
D26*
%TO.N,BATT_ADC*%
X129908400Y-102147800D03*
X128981600Y-130929400D03*
X130968500Y-90856000D03*
%TO.N,SIM_RX*%
X131583500Y-105374700D03*
X134333900Y-90856000D03*
%TO.N,GPS_RX*%
X161262400Y-103288600D03*
%TO.N,BUZZER*%
X131288100Y-126258200D03*
%TO.N,SOS_BTN*%
X118746700Y-117730600D03*
X125298800Y-89412400D03*
%TO.N,EN*%
X130737600Y-97141900D03*
X130452700Y-131697300D03*
%TD*%
%TO.N,+5V*%
D27*
X152375000Y-105977500D02*
X152375000Y-106255000D01*
X163235000Y-102315000D02*
X163206900Y-102286900D01*
X130648300Y-139206300D02*
X135442000Y-144000000D01*
X142169300Y-146400000D02*
X144308200Y-144261100D01*
X146851700Y-106452700D02*
X145773700Y-105374700D01*
X105745000Y-100050000D02*
X105745000Y-114303000D01*
X163206900Y-102286900D02*
X156065600Y-102286900D01*
X144308200Y-144261100D02*
X144308200Y-131252700D01*
X156065600Y-102286900D02*
X152375000Y-105977500D01*
X144308200Y-131252700D02*
X146851700Y-128709200D01*
X139769300Y-144000000D02*
X142169300Y-146400000D01*
X146851700Y-128709200D02*
X146851700Y-106452700D01*
X105745000Y-114303000D02*
X130648200Y-139206200D01*
X135442000Y-144000000D02*
X139769300Y-144000000D01*
%TO.N,+3V3*%
X149798500Y-137648300D02*
X148730600Y-137648300D01*
X148730600Y-137648300D02*
X148134100Y-138244800D01*
X148068600Y-100322900D02*
X148068600Y-136986300D01*
X148068600Y-136986300D02*
X148730600Y-137648300D01*
X148134100Y-138244800D02*
X148134100Y-138437900D01*
X146608300Y-98862600D02*
X148068600Y-100322900D01*
X156701300Y-144551100D02*
X149798500Y-137648300D01*
X156701300Y-146400000D02*
X156701300Y-144551100D01*
%TO.N,BATT_ADC*%
D28*
X130000100Y-91824400D02*
X130968500Y-90856000D01*
X130000100Y-129910900D02*
X128981600Y-130929400D01*
X130000100Y-102149400D02*
X130000100Y-91824400D01*
X130000100Y-102149400D02*
X130000100Y-129910900D01*
X130000100Y-102149400D02*
X129908400Y-102149400D01*
%TO.N,SIM_RX*%
X132973300Y-92216600D02*
X132973300Y-103984900D01*
X134333900Y-90856000D02*
X132973300Y-92216600D01*
X132973300Y-103984900D02*
X131583500Y-105374700D01*
%TO.N,GPS_RX*%
X166501700Y-106031700D02*
X167865000Y-107395000D01*
X161262400Y-103288600D02*
X161262400Y-104546500D01*
X162747600Y-106031700D02*
X166501700Y-106031700D01*
X161262400Y-104546500D02*
X162747600Y-106031700D01*
%TO.N,BUZZER*%
X133500000Y-99407900D02*
X133500000Y-124213400D01*
X136036200Y-96871700D02*
X133500000Y-99407900D01*
X136036200Y-95545000D02*
X136036200Y-96871700D01*
X131455200Y-126258200D02*
X131288100Y-126258200D01*
X133500000Y-124213400D02*
X131455200Y-126258200D01*
%TO.N,ANT*%
X155281700Y-93875000D02*
X155492600Y-94085900D01*
X155492600Y-94085900D02*
X167937400Y-94085900D01*
X152415000Y-93875000D02*
X155281700Y-93875000D01*
X167937400Y-94085900D02*
X168148300Y-93875000D01*
X171015000Y-93875000D02*
X168148300Y-93875000D01*
%TO.N,SOS_BTN*%
X118746700Y-107466400D02*
X118746700Y-117730600D01*
X188075000Y-101385000D02*
X194575000Y-101385000D01*
X123923300Y-102289800D02*
X118746700Y-107466400D01*
X123923300Y-90787900D02*
X123923300Y-102289800D01*
X125298800Y-89412400D02*
X123923300Y-90787900D01*
%TO.N,EN*%
X130594000Y-97285500D02*
X130594000Y-131556000D01*
X130594000Y-131556000D02*
X130452700Y-131697300D01*
X130737600Y-97141900D02*
X130594000Y-97285500D01*
%TD*%
%TA.AperFunction,Conductor*%
%TO.N,GND*%
G36*
X132793834Y-105151469D02*
G01*
X132849767Y-105193341D01*
X132874184Y-105258805D01*
X132874500Y-105267651D01*
X132874500Y-123902947D01*
X132854815Y-123969986D01*
X132838181Y-123990628D01*
X131431181Y-125397628D01*
X131369858Y-125431113D01*
X131300166Y-125426129D01*
X131244233Y-125384257D01*
X131219816Y-125318793D01*
X131219500Y-125309947D01*
X131219500Y-106269572D01*
X131239185Y-106202533D01*
X131291989Y-106156778D01*
X131361147Y-106146834D01*
X131367670Y-106147951D01*
X131449195Y-106164167D01*
X131504656Y-106175200D01*
X131504658Y-106175200D01*
X131662344Y-106175200D01*
X131662345Y-106175199D01*
X131816997Y-106144437D01*
X131962679Y-106084094D01*
X132093789Y-105996489D01*
X132205289Y-105884989D01*
X132292894Y-105753879D01*
X132353237Y-105608197D01*
X132375358Y-105496982D01*
X132407740Y-105435075D01*
X132409232Y-105433556D01*
X132662820Y-105179969D01*
X132724142Y-105146485D01*
X132793834Y-105151469D01*
G37*
%TD.AperFunction*%
%TA.AperFunction,Conductor*%
G36*
X198916943Y-81019685D02*
G01*
X198926377Y-81026389D01*
X199051573Y-81124474D01*
X199062781Y-81134404D01*
X199265596Y-81337219D01*
X199275525Y-81348426D01*
X199373611Y-81473623D01*
X199399460Y-81538532D01*
X199400000Y-81550094D01*
X199400000Y-149449903D01*
X199380315Y-149516942D01*
X199373611Y-149526376D01*
X199275525Y-149651573D01*
X199265595Y-149662781D01*
X199062781Y-149865595D01*
X199051574Y-149875524D01*
X198926378Y-149973610D01*
X198861466Y-149999460D01*
X198849904Y-150000000D01*
X102124000Y-150000000D01*
X102056961Y-149980315D01*
X102011206Y-149927511D01*
X102000000Y-149876000D01*
X102000000Y-98502135D01*
X103744500Y-98502135D01*
X103744500Y-101597870D01*
X103744501Y-101597876D01*
X103750908Y-101657483D01*
X103801202Y-101792328D01*
X103801206Y-101792335D01*
X103887452Y-101907544D01*
X103887455Y-101907547D01*
X104002664Y-101993793D01*
X104002671Y-101993797D01*
X104047455Y-102010500D01*
X104137517Y-102044091D01*
X104197127Y-102050500D01*
X104720500Y-102050499D01*
X104787539Y-102070183D01*
X104833294Y-102122987D01*
X104844500Y-102174499D01*
X104844500Y-114391696D01*
X104879103Y-114565658D01*
X104879105Y-114565666D01*
X104913046Y-114647606D01*
X104913046Y-114647607D01*
X104946984Y-114729542D01*
X104946985Y-114729544D01*
X105006063Y-114817960D01*
X105006064Y-114817961D01*
X105045534Y-114877034D01*
X105045536Y-114877036D01*
X129948836Y-139780336D01*
X134742536Y-144574035D01*
X134856143Y-144687642D01*
X134867966Y-144699465D01*
X135015449Y-144798011D01*
X135015451Y-144798012D01*
X135015453Y-144798013D01*
X135053483Y-144813765D01*
X135053484Y-144813766D01*
X135053485Y-144813766D01*
X135179334Y-144865895D01*
X135353304Y-144900499D01*
X135353308Y-144900500D01*
X135353309Y-144900500D01*
X139344938Y-144900500D01*
X139411977Y-144920185D01*
X139432619Y-144936819D01*
X140882481Y-146386680D01*
X140915966Y-146448003D01*
X140918800Y-146474361D01*
X140918800Y-146498422D01*
X140949590Y-146692826D01*
X141010417Y-146880029D01*
X141099643Y-147055143D01*
X141099776Y-147055405D01*
X141215472Y-147214646D01*
X141354654Y-147353828D01*
X141513895Y-147469524D01*
X141572175Y-147499219D01*
X141689270Y-147558882D01*
X141689272Y-147558882D01*
X141689275Y-147558884D01*
X141786840Y-147590585D01*
X141876473Y-147619709D01*
X142070878Y-147650500D01*
X142070883Y-147650500D01*
X142267722Y-147650500D01*
X142462126Y-147619709D01*
X142463628Y-147619221D01*
X142649325Y-147558884D01*
X142824705Y-147469524D01*
X142983946Y-147353828D01*
X143123128Y-147214646D01*
X143238824Y-147055405D01*
X143319205Y-146897648D01*
X148900800Y-146897648D01*
X148900800Y-147102351D01*
X148932822Y-147304534D01*
X148996081Y-147499223D01*
X149089015Y-147681613D01*
X149209328Y-147847213D01*
X149354086Y-147991971D01*
X149509049Y-148104556D01*
X149519690Y-148112287D01*
X149635907Y-148171503D01*
X149702076Y-148205218D01*
X149702078Y-148205218D01*
X149702081Y-148205220D01*
X149806437Y-148239127D01*
X149896765Y-148268477D01*
X149997857Y-148284488D01*
X150098948Y-148300500D01*
X150098949Y-148300500D01*
X150303651Y-148300500D01*
X150303652Y-148300500D01*
X150505834Y-148268477D01*
X150700519Y-148205220D01*
X150882910Y-148112287D01*
X150975890Y-148044732D01*
X151048513Y-147991971D01*
X151048515Y-147991968D01*
X151048519Y-147991966D01*
X151193266Y-147847219D01*
X151193268Y-147847215D01*
X151193271Y-147847213D01*
X151290498Y-147713389D01*
X187252800Y-147713389D01*
X187252800Y-147886610D01*
X187269486Y-147991966D01*
X187279898Y-148057701D01*
X187333427Y-148222445D01*
X187412068Y-148376788D01*
X187513886Y-148516928D01*
X187636372Y-148639414D01*
X187776512Y-148741232D01*
X187930855Y-148819873D01*
X188095599Y-148873402D01*
X188266689Y-148900500D01*
X188266690Y-148900500D01*
X188439910Y-148900500D01*
X188439911Y-148900500D01*
X188611001Y-148873402D01*
X188775745Y-148819873D01*
X188930088Y-148741232D01*
X189070228Y-148639414D01*
X189192714Y-148516928D01*
X189294532Y-148376788D01*
X189373173Y-148222445D01*
X189426702Y-148057701D01*
X189453800Y-147886611D01*
X189453800Y-147713389D01*
X189426702Y-147542299D01*
X189373173Y-147377555D01*
X189294532Y-147223212D01*
X189192714Y-147083072D01*
X189070228Y-146960586D01*
X188930088Y-146858768D01*
X188775745Y-146780127D01*
X188611001Y-146726598D01*
X188610999Y-146726597D01*
X188610998Y-146726597D01*
X188479571Y-146705781D01*
X188439911Y-146699500D01*
X188266689Y-146699500D01*
X188227028Y-146705781D01*
X188095602Y-146726597D01*
X187930852Y-146780128D01*
X187776511Y-146858768D01*
X187722998Y-146897648D01*
X187636372Y-146960586D01*
X187636370Y-146960588D01*
X187636369Y-146960588D01*
X187513888Y-147083069D01*
X187513888Y-147083070D01*
X187513886Y-147083072D01*
X187470159Y-147143256D01*
X187412068Y-147223211D01*
X187333428Y-147377552D01*
X187279897Y-147542302D01*
X187252800Y-147713389D01*
X151290498Y-147713389D01*
X151313587Y-147681610D01*
X151406520Y-147499219D01*
X151469777Y-147304534D01*
X151501800Y-147102352D01*
X151501800Y-146897648D01*
X151469777Y-146695466D01*
X151468919Y-146692826D01*
X151406518Y-146500776D01*
X151355169Y-146399999D01*
X151313587Y-146318390D01*
X151301372Y-146301577D01*
X151193271Y-146152786D01*
X151048513Y-146008028D01*
X150882913Y-145887715D01*
X150882912Y-145887714D01*
X150882910Y-145887713D01*
X150825953Y-145858691D01*
X150700523Y-145794781D01*
X150505834Y-145731522D01*
X150331295Y-145703878D01*
X150303652Y-145699500D01*
X150098948Y-145699500D01*
X150074629Y-145703351D01*
X149896765Y-145731522D01*
X149702076Y-145794781D01*
X149519686Y-145887715D01*
X149354086Y-146008028D01*
X149209328Y-146152786D01*
X149089015Y-146318386D01*
X148996081Y-146500776D01*
X148932822Y-146695465D01*
X148900800Y-146897648D01*
X143319205Y-146897648D01*
X143328184Y-146880025D01*
X143389009Y-146692826D01*
X143419426Y-146500781D01*
X143419800Y-146498422D01*
X143419800Y-146474361D01*
X143439485Y-146407322D01*
X143456119Y-146386680D01*
X145007663Y-144835136D01*
X145032468Y-144798013D01*
X145032469Y-144798011D01*
X145106213Y-144687647D01*
X145174094Y-144523766D01*
X145186300Y-144462406D01*
X145208699Y-144349795D01*
X145208700Y-144349793D01*
X145208700Y-131677062D01*
X145228385Y-131610023D01*
X145245019Y-131589381D01*
X146956419Y-129877981D01*
X147017742Y-129844496D01*
X147087434Y-129849480D01*
X147143367Y-129891352D01*
X147167784Y-129956816D01*
X147168100Y-129965662D01*
X147168100Y-137074996D01*
X147202703Y-137248958D01*
X147202705Y-137248966D01*
X147236646Y-137330906D01*
X147236646Y-137330907D01*
X147270584Y-137412842D01*
X147270585Y-137412844D01*
X147329663Y-137501260D01*
X147369137Y-137560338D01*
X147380673Y-137571874D01*
X147414158Y-137633197D01*
X147409174Y-137702889D01*
X147396109Y-137728423D01*
X147395178Y-137729817D01*
X147395163Y-137729840D01*
X147336090Y-137818247D01*
X147336083Y-137818259D01*
X147307694Y-137886799D01*
X147307694Y-137886800D01*
X147268205Y-137982133D01*
X147268203Y-137982141D01*
X147233600Y-138156103D01*
X147233600Y-138526595D01*
X147268203Y-138700558D01*
X147268206Y-138700567D01*
X147336083Y-138864440D01*
X147336090Y-138864453D01*
X147434635Y-139011934D01*
X147434638Y-139011938D01*
X147560061Y-139137361D01*
X147560065Y-139137364D01*
X147707546Y-139235909D01*
X147707559Y-139235916D01*
X147830463Y-139286823D01*
X147871434Y-139303794D01*
X147871436Y-139303794D01*
X147871441Y-139303796D01*
X148045404Y-139338399D01*
X148045407Y-139338400D01*
X148045409Y-139338400D01*
X148222793Y-139338400D01*
X148222794Y-139338399D01*
X148280782Y-139326864D01*
X148396758Y-139303796D01*
X148396761Y-139303794D01*
X148396766Y-139303794D01*
X148560647Y-139235913D01*
X148708135Y-139137364D01*
X148833564Y-139011935D01*
X148932113Y-138864447D01*
X148999994Y-138700566D01*
X149004614Y-138677337D01*
X149016136Y-138655309D01*
X149023793Y-138631654D01*
X149036582Y-138616221D01*
X149036997Y-138615429D01*
X149037455Y-138615167D01*
X149038541Y-138613857D01*
X149067283Y-138585115D01*
X149128605Y-138551633D01*
X149154961Y-138548800D01*
X149374138Y-138548800D01*
X149401063Y-138556706D01*
X149428723Y-138561461D01*
X149434135Y-138566417D01*
X149441177Y-138568485D01*
X149461819Y-138585119D01*
X155764481Y-144887780D01*
X155797966Y-144949103D01*
X155800800Y-144975461D01*
X155800800Y-145480664D01*
X155781115Y-145547703D01*
X155764481Y-145568345D01*
X155747474Y-145585351D01*
X155747474Y-145585352D01*
X155747472Y-145585354D01*
X155697785Y-145653741D01*
X155631776Y-145744594D01*
X155542417Y-145919970D01*
X155481590Y-146107173D01*
X155450800Y-146301577D01*
X155450800Y-146498422D01*
X155481590Y-146692826D01*
X155542417Y-146880029D01*
X155631643Y-147055143D01*
X155631776Y-147055405D01*
X155747472Y-147214646D01*
X155886654Y-147353828D01*
X156045895Y-147469524D01*
X156104175Y-147499219D01*
X156221270Y-147558882D01*
X156221272Y-147558882D01*
X156221275Y-147558884D01*
X156318840Y-147590585D01*
X156408473Y-147619709D01*
X156602878Y-147650500D01*
X156602883Y-147650500D01*
X156799722Y-147650500D01*
X156994126Y-147619709D01*
X156995628Y-147619221D01*
X157181325Y-147558884D01*
X157356705Y-147469524D01*
X157392280Y-147443677D01*
X160011173Y-147443677D01*
X160011173Y-147443678D01*
X160046158Y-147469096D01*
X160221464Y-147558418D01*
X160408594Y-147619221D01*
X160602918Y-147650000D01*
X160799682Y-147650000D01*
X160994003Y-147619221D01*
X161082135Y-147590586D01*
X161082136Y-147590585D01*
X161181135Y-147558418D01*
X161356443Y-147469095D01*
X161391425Y-147443678D01*
X161391426Y-147443678D01*
X160701301Y-146753553D01*
X160701300Y-146753553D01*
X160011173Y-147443677D01*
X157392280Y-147443677D01*
X157515946Y-147353828D01*
X157655128Y-147214646D01*
X157770824Y-147055405D01*
X157860184Y-146880025D01*
X157921009Y-146692826D01*
X157951426Y-146500781D01*
X157951800Y-146498422D01*
X157951800Y-146301617D01*
X159451300Y-146301617D01*
X159451300Y-146498382D01*
X159482078Y-146692705D01*
X159542881Y-146879835D01*
X159632205Y-147055145D01*
X159657619Y-147090125D01*
X159657620Y-147090125D01*
X160347746Y-146400000D01*
X160347746Y-146399999D01*
X161054853Y-146399999D01*
X161054853Y-146400001D01*
X161744978Y-147090126D01*
X161744978Y-147090125D01*
X161770395Y-147055143D01*
X161859718Y-146879835D01*
X161920521Y-146692705D01*
X161951300Y-146498382D01*
X161951300Y-146301617D01*
X161920521Y-146107294D01*
X161859718Y-145920164D01*
X161770396Y-145744858D01*
X161744978Y-145709873D01*
X161744977Y-145709873D01*
X161054853Y-146399999D01*
X160347746Y-146399999D01*
X159657620Y-145709872D01*
X159657620Y-145709873D01*
X159632202Y-145744859D01*
X159632199Y-145744863D01*
X159542882Y-145920161D01*
X159482078Y-146107294D01*
X159451300Y-146301617D01*
X157951800Y-146301617D01*
X157951800Y-146301577D01*
X157921009Y-146107173D01*
X157860182Y-145919970D01*
X157796394Y-145794780D01*
X157770824Y-145744595D01*
X157655128Y-145585354D01*
X157638119Y-145568345D01*
X157623415Y-145541417D01*
X157606823Y-145515599D01*
X157605931Y-145509398D01*
X157604634Y-145507022D01*
X157601800Y-145480664D01*
X157601800Y-145356320D01*
X160011172Y-145356320D01*
X160701300Y-146046446D01*
X160701301Y-146046446D01*
X161391425Y-145356320D01*
X161391425Y-145356319D01*
X161356445Y-145330905D01*
X161181135Y-145241581D01*
X160994005Y-145180778D01*
X160799682Y-145150000D01*
X160602918Y-145150000D01*
X160408594Y-145180778D01*
X160221461Y-145241582D01*
X160046163Y-145330899D01*
X160046159Y-145330902D01*
X160011173Y-145356320D01*
X160011172Y-145356320D01*
X157601800Y-145356320D01*
X157601800Y-144462406D01*
X157601799Y-144462404D01*
X157567196Y-144288441D01*
X157567193Y-144288432D01*
X157499316Y-144124559D01*
X157499309Y-144124546D01*
X157400765Y-143977066D01*
X157348117Y-143924418D01*
X157275335Y-143851636D01*
X152101040Y-138677340D01*
X150372541Y-136948840D01*
X150372538Y-136948837D01*
X150295866Y-136897607D01*
X150225044Y-136850285D01*
X150225042Y-136850284D01*
X150143107Y-136816346D01*
X150143106Y-136816346D01*
X150061166Y-136782405D01*
X150061158Y-136782403D01*
X149887196Y-136747800D01*
X149887192Y-136747800D01*
X149887191Y-136747800D01*
X149154962Y-136747800D01*
X149087923Y-136728115D01*
X149067280Y-136711481D01*
X149005418Y-136649618D01*
X148971934Y-136588294D01*
X148969100Y-136561937D01*
X148969100Y-105154983D01*
X150574500Y-105154983D01*
X150574500Y-107355001D01*
X150574501Y-107355018D01*
X150585000Y-107457796D01*
X150585001Y-107457799D01*
X150616369Y-107552460D01*
X150640186Y-107624334D01*
X150732288Y-107773656D01*
X150856344Y-107897712D01*
X151005666Y-107989814D01*
X151172203Y-108044999D01*
X151274991Y-108055500D01*
X153475008Y-108055499D01*
X153577797Y-108044999D01*
X153744334Y-107989814D01*
X153893656Y-107897712D01*
X154017712Y-107773656D01*
X154109814Y-107624334D01*
X154164999Y-107457797D01*
X154175500Y-107355009D01*
X154175499Y-106137014D01*
X155575000Y-106137014D01*
X155575000Y-106372985D01*
X155605799Y-106606914D01*
X155666870Y-106834837D01*
X155757160Y-107052819D01*
X155757163Y-107052824D01*
X155875144Y-107257171D01*
X155875145Y-107257172D01*
X155937721Y-107338723D01*
X156773958Y-106502487D01*
X156798978Y-106562890D01*
X156870112Y-106669351D01*
X156960649Y-106759888D01*
X157067110Y-106831022D01*
X157127511Y-106856041D01*
X156291275Y-107692277D01*
X156372827Y-107754854D01*
X156372828Y-107754855D01*
X156577171Y-107872834D01*
X156577180Y-107872839D01*
X156795163Y-107963129D01*
X156795161Y-107963129D01*
X157023085Y-108024200D01*
X157257014Y-108054999D01*
X157257029Y-108055000D01*
X157492971Y-108055000D01*
X157492985Y-108054999D01*
X157726914Y-108024200D01*
X157954837Y-107963129D01*
X158172819Y-107872839D01*
X158172828Y-107872834D01*
X158377181Y-107754850D01*
X158458723Y-107692279D01*
X158458723Y-107692276D01*
X157622487Y-106856041D01*
X157682890Y-106831022D01*
X157789351Y-106759888D01*
X157879888Y-106669351D01*
X157951022Y-106562890D01*
X157976041Y-106502488D01*
X158812276Y-107338723D01*
X158812279Y-107338723D01*
X158874850Y-107257181D01*
X158992837Y-107052824D01*
X158992839Y-107052819D01*
X159083129Y-106834837D01*
X159144200Y-106606914D01*
X159174999Y-106372985D01*
X159175000Y-106372971D01*
X159175000Y-106137028D01*
X159174999Y-106137014D01*
X159144200Y-105903085D01*
X159083129Y-105675162D01*
X158992839Y-105457180D01*
X158992834Y-105457171D01*
X158874855Y-105252828D01*
X158874854Y-105252827D01*
X158812277Y-105171275D01*
X157976041Y-106007511D01*
X157951022Y-105947110D01*
X157879888Y-105840649D01*
X157789351Y-105750112D01*
X157682890Y-105678978D01*
X157622488Y-105653958D01*
X158458723Y-104817721D01*
X158377172Y-104755145D01*
X158377171Y-104755144D01*
X158172828Y-104637165D01*
X158172819Y-104637160D01*
X157954836Y-104546870D01*
X157954838Y-104546870D01*
X157726914Y-104485799D01*
X157492985Y-104455000D01*
X157257014Y-104455000D01*
X157023085Y-104485799D01*
X156795162Y-104546870D01*
X156577180Y-104637160D01*
X156577171Y-104637165D01*
X156372828Y-104755144D01*
X156372818Y-104755150D01*
X156291275Y-104817720D01*
X156291275Y-104817721D01*
X157127512Y-105653958D01*
X157067110Y-105678978D01*
X156960649Y-105750112D01*
X156870112Y-105840649D01*
X156798978Y-105947110D01*
X156773958Y-106007512D01*
X155937721Y-105171275D01*
X155937720Y-105171275D01*
X155875150Y-105252818D01*
X155875144Y-105252828D01*
X155757165Y-105457171D01*
X155757160Y-105457180D01*
X155666870Y-105675162D01*
X155605799Y-105903085D01*
X155575000Y-106137014D01*
X154175499Y-106137014D01*
X154175499Y-105501860D01*
X154195184Y-105434822D01*
X154211813Y-105414185D01*
X156402280Y-103223719D01*
X156463603Y-103190234D01*
X156489961Y-103187400D01*
X160337900Y-103187400D01*
X160404939Y-103207085D01*
X160450694Y-103259889D01*
X160461900Y-103311400D01*
X160461900Y-103367446D01*
X160492661Y-103522089D01*
X160492664Y-103522101D01*
X160553002Y-103667772D01*
X160553009Y-103667784D01*
X160616002Y-103762059D01*
X160636880Y-103828736D01*
X160636900Y-103830949D01*
X160636900Y-104608106D01*
X160654927Y-104698740D01*
X160660937Y-104728953D01*
X160669324Y-104749198D01*
X160669325Y-104749202D01*
X160708085Y-104842780D01*
X160708087Y-104842783D01*
X160708088Y-104842786D01*
X160736740Y-104885666D01*
X160742314Y-104894007D01*
X160742315Y-104894009D01*
X160776541Y-104945233D01*
X160867986Y-105036678D01*
X160868008Y-105036698D01*
X162189604Y-106358294D01*
X162223089Y-106419617D01*
X162218105Y-106489309D01*
X162202242Y-106518860D01*
X162079948Y-106687184D01*
X161983444Y-106876585D01*
X161917753Y-107078760D01*
X161884500Y-107288713D01*
X161884500Y-107501286D01*
X161917735Y-107711127D01*
X161917754Y-107711243D01*
X161970258Y-107872834D01*
X161983444Y-107913414D01*
X162079951Y-108102820D01*
X162204890Y-108274786D01*
X162355213Y-108425109D01*
X162527179Y-108550048D01*
X162527181Y-108550049D01*
X162527184Y-108550051D01*
X162536493Y-108554794D01*
X162587290Y-108602766D01*
X162604087Y-108670587D01*
X162581552Y-108736722D01*
X162536505Y-108775760D01*
X162527446Y-108780376D01*
X162527440Y-108780380D01*
X162473282Y-108819727D01*
X162473282Y-108819728D01*
X163105591Y-109452037D01*
X163042007Y-109469075D01*
X162927993Y-109534901D01*
X162834901Y-109627993D01*
X162769075Y-109742007D01*
X162752037Y-109805591D01*
X162119728Y-109173282D01*
X162119727Y-109173282D01*
X162080380Y-109227439D01*
X161983904Y-109416782D01*
X161918242Y-109618869D01*
X161918242Y-109618872D01*
X161885000Y-109828753D01*
X161885000Y-110041246D01*
X161918242Y-110251127D01*
X161918242Y-110251130D01*
X161983904Y-110453217D01*
X162080375Y-110642550D01*
X162119728Y-110696716D01*
X162752037Y-110064408D01*
X162769075Y-110127993D01*
X162834901Y-110242007D01*
X162927993Y-110335099D01*
X163042007Y-110400925D01*
X163105590Y-110417962D01*
X162473282Y-111050269D01*
X162473282Y-111050270D01*
X162527449Y-111089624D01*
X162716782Y-111186095D01*
X162918870Y-111251757D01*
X163128754Y-111285000D01*
X163341246Y-111285000D01*
X163551127Y-111251757D01*
X163551130Y-111251757D01*
X163753217Y-111186095D01*
X163942554Y-111089622D01*
X163996716Y-111050270D01*
X163996717Y-111050270D01*
X163364408Y-110417962D01*
X163427993Y-110400925D01*
X163542007Y-110335099D01*
X163635099Y-110242007D01*
X163700925Y-110127993D01*
X163717962Y-110064408D01*
X164350270Y-110696717D01*
X164350270Y-110696716D01*
X164389622Y-110642554D01*
X164486095Y-110453217D01*
X164551757Y-110251130D01*
X164551757Y-110251127D01*
X164585000Y-110041246D01*
X164585000Y-109828753D01*
X164551757Y-109618872D01*
X164551757Y-109618869D01*
X164486095Y-109416782D01*
X164389624Y-109227449D01*
X164350270Y-109173282D01*
X164350269Y-109173282D01*
X163717962Y-109805590D01*
X163700925Y-109742007D01*
X163635099Y-109627993D01*
X163542007Y-109534901D01*
X163427993Y-109469075D01*
X163364409Y-109452037D01*
X163996716Y-108819728D01*
X163942547Y-108780373D01*
X163942547Y-108780372D01*
X163933500Y-108775763D01*
X163882706Y-108727788D01*
X163865912Y-108659966D01*
X163888451Y-108593832D01*
X163933508Y-108554793D01*
X163942816Y-108550051D01*
X164022007Y-108492515D01*
X164114786Y-108425109D01*
X164114788Y-108425106D01*
X164114792Y-108425104D01*
X164265104Y-108274792D01*
X164265106Y-108274788D01*
X164265109Y-108274786D01*
X164390048Y-108102820D01*
X164390047Y-108102820D01*
X164390051Y-108102816D01*
X164486557Y-107913412D01*
X164552246Y-107711243D01*
X164585500Y-107501287D01*
X164585500Y-107288713D01*
X164552246Y-107078757D01*
X164486557Y-106876588D01*
X164466637Y-106837494D01*
X164453742Y-106768826D01*
X164480018Y-106704086D01*
X164537124Y-106663828D01*
X164577123Y-106657200D01*
X166191248Y-106657200D01*
X166258287Y-106676885D01*
X166278928Y-106693518D01*
X166522572Y-106937162D01*
X166556056Y-106998484D01*
X166552822Y-107063158D01*
X166547753Y-107078757D01*
X166514500Y-107288713D01*
X166514500Y-107501286D01*
X166547735Y-107711127D01*
X166547754Y-107711243D01*
X166600258Y-107872834D01*
X166613444Y-107913414D01*
X166709951Y-108102820D01*
X166834890Y-108274786D01*
X166985213Y-108425109D01*
X167157179Y-108550048D01*
X167157181Y-108550049D01*
X167157184Y-108550051D01*
X167166493Y-108554794D01*
X167217290Y-108602766D01*
X167234087Y-108670587D01*
X167211552Y-108736722D01*
X167166505Y-108775760D01*
X167157446Y-108780376D01*
X167157440Y-108780380D01*
X167103282Y-108819727D01*
X167103282Y-108819728D01*
X167735591Y-109452037D01*
X167672007Y-109469075D01*
X167557993Y-109534901D01*
X167464901Y-109627993D01*
X167399075Y-109742007D01*
X167382037Y-109805591D01*
X166749728Y-109173282D01*
X166749727Y-109173282D01*
X166710380Y-109227439D01*
X166613904Y-109416782D01*
X166548242Y-109618869D01*
X166548242Y-109618872D01*
X166515000Y-109828753D01*
X166515000Y-110041246D01*
X166548242Y-110251127D01*
X166548242Y-110251130D01*
X166613904Y-110453217D01*
X166710375Y-110642550D01*
X166749728Y-110696716D01*
X167382036Y-110064407D01*
X167399075Y-110127993D01*
X167464901Y-110242007D01*
X167557993Y-110335099D01*
X167672007Y-110400925D01*
X167735590Y-110417962D01*
X167103282Y-111050269D01*
X167103282Y-111050270D01*
X167157449Y-111089624D01*
X167346782Y-111186095D01*
X167548870Y-111251757D01*
X167758754Y-111285000D01*
X167971246Y-111285000D01*
X168181127Y-111251757D01*
X168181130Y-111251757D01*
X168383217Y-111186095D01*
X168572554Y-111089622D01*
X168626716Y-111050270D01*
X168626717Y-111050270D01*
X167994408Y-110417962D01*
X168057993Y-110400925D01*
X168172007Y-110335099D01*
X168265099Y-110242007D01*
X168330925Y-110127993D01*
X168347962Y-110064409D01*
X168980270Y-110696717D01*
X168980270Y-110696716D01*
X169019622Y-110642554D01*
X169116095Y-110453217D01*
X169181757Y-110251130D01*
X169181757Y-110251127D01*
X169215000Y-110041246D01*
X169215000Y-109828753D01*
X169181757Y-109618872D01*
X169181757Y-109618869D01*
X169116095Y-109416782D01*
X169019624Y-109227449D01*
X168980270Y-109173282D01*
X168980269Y-109173282D01*
X168347962Y-109805590D01*
X168330925Y-109742007D01*
X168265099Y-109627993D01*
X168172007Y-109534901D01*
X168057993Y-109469075D01*
X167994409Y-109452037D01*
X168626716Y-108819728D01*
X168572547Y-108780373D01*
X168572547Y-108780372D01*
X168563500Y-108775763D01*
X168512706Y-108727788D01*
X168495912Y-108659966D01*
X168518451Y-108593832D01*
X168563508Y-108554793D01*
X168572816Y-108550051D01*
X168652007Y-108492515D01*
X168744786Y-108425109D01*
X168744788Y-108425106D01*
X168744792Y-108425104D01*
X168895104Y-108274792D01*
X168895106Y-108274788D01*
X168895109Y-108274786D01*
X169020048Y-108102820D01*
X169020047Y-108102820D01*
X169020051Y-108102816D01*
X169116557Y-107913412D01*
X169182246Y-107711243D01*
X169215500Y-107501287D01*
X169215500Y-107288713D01*
X169182246Y-107078757D01*
X169116557Y-106876588D01*
X169020051Y-106687184D01*
X169020049Y-106687181D01*
X169020048Y-106687179D01*
X168895109Y-106515213D01*
X168744786Y-106364890D01*
X168572820Y-106239951D01*
X168564600Y-106235763D01*
X168564054Y-106235485D01*
X168513259Y-106187512D01*
X168496463Y-106119692D01*
X168518999Y-106053556D01*
X168564054Y-106014515D01*
X168572816Y-106010051D01*
X168607602Y-105984778D01*
X168744786Y-105885109D01*
X168744788Y-105885106D01*
X168744792Y-105885104D01*
X168895104Y-105734792D01*
X168895106Y-105734788D01*
X168895109Y-105734786D01*
X169020048Y-105562820D01*
X169020049Y-105562819D01*
X169020051Y-105562816D01*
X169116557Y-105373412D01*
X169182246Y-105171243D01*
X169215500Y-104961287D01*
X169215500Y-104748713D01*
X169182246Y-104538757D01*
X169116557Y-104336588D01*
X169020051Y-104147184D01*
X169020049Y-104147181D01*
X169020048Y-104147179D01*
X168895109Y-103975213D01*
X168781569Y-103861673D01*
X168748084Y-103800350D01*
X168753068Y-103730658D01*
X168794940Y-103674725D01*
X168825915Y-103657810D01*
X168957331Y-103608796D01*
X169072546Y-103522546D01*
X169158796Y-103407331D01*
X169209091Y-103272483D01*
X169215500Y-103212873D01*
X169215499Y-101417135D01*
X171144500Y-101417135D01*
X171144500Y-103212870D01*
X171144501Y-103212876D01*
X171150908Y-103272483D01*
X171201202Y-103407328D01*
X171201206Y-103407335D01*
X171287452Y-103522544D01*
X171287455Y-103522547D01*
X171402664Y-103608793D01*
X171402671Y-103608797D01*
X171534082Y-103657810D01*
X171590016Y-103699681D01*
X171614433Y-103765145D01*
X171599582Y-103833418D01*
X171578431Y-103861673D01*
X171464889Y-103975215D01*
X171339951Y-104147179D01*
X171243444Y-104336585D01*
X171177754Y-104538757D01*
X171144500Y-104748713D01*
X171144500Y-104961286D01*
X171177753Y-105171239D01*
X171177753Y-105171241D01*
X171177754Y-105171243D01*
X171230543Y-105333711D01*
X171243444Y-105373414D01*
X171339951Y-105562820D01*
X171464890Y-105734786D01*
X171615213Y-105885109D01*
X171787182Y-106010050D01*
X171795946Y-106014516D01*
X171846742Y-106062491D01*
X171863536Y-106130312D01*
X171840998Y-106196447D01*
X171795946Y-106235484D01*
X171787182Y-106239949D01*
X171615213Y-106364890D01*
X171464890Y-106515213D01*
X171339951Y-106687179D01*
X171243444Y-106876585D01*
X171177753Y-107078760D01*
X171144500Y-107288713D01*
X171144500Y-107501286D01*
X171177735Y-107711127D01*
X171177754Y-107711243D01*
X171230258Y-107872834D01*
X171243444Y-107913414D01*
X171339951Y-108102820D01*
X171464890Y-108274786D01*
X171615213Y-108425109D01*
X171787182Y-108550050D01*
X171795946Y-108554516D01*
X171846742Y-108602491D01*
X171863536Y-108670312D01*
X171840998Y-108736447D01*
X171795946Y-108775484D01*
X171787182Y-108779949D01*
X171615213Y-108904890D01*
X171464890Y-109055213D01*
X171339951Y-109227179D01*
X171243444Y-109416585D01*
X171177753Y-109618760D01*
X171144500Y-109828713D01*
X171144500Y-110041286D01*
X171177753Y-110251239D01*
X171243444Y-110453414D01*
X171339951Y-110642820D01*
X171464890Y-110814786D01*
X171615213Y-110965109D01*
X171787179Y-111090048D01*
X171787181Y-111090049D01*
X171787184Y-111090051D01*
X171976588Y-111186557D01*
X172178757Y-111252246D01*
X172388713Y-111285500D01*
X172388714Y-111285500D01*
X172601286Y-111285500D01*
X172601287Y-111285500D01*
X172811243Y-111252246D01*
X173013412Y-111186557D01*
X173202816Y-111090051D01*
X173257572Y-111050269D01*
X173374786Y-110965109D01*
X173374788Y-110965106D01*
X173374792Y-110965104D01*
X173525104Y-110814792D01*
X173525106Y-110814788D01*
X173525109Y-110814786D01*
X173650048Y-110642820D01*
X173650047Y-110642820D01*
X173650051Y-110642816D01*
X173746557Y-110453412D01*
X173812246Y-110251243D01*
X173845500Y-110041287D01*
X173845500Y-109828713D01*
X173812246Y-109618757D01*
X173746557Y-109416588D01*
X173650051Y-109227184D01*
X173650049Y-109227181D01*
X173650048Y-109227179D01*
X173525109Y-109055213D01*
X173374786Y-108904890D01*
X173202820Y-108779951D01*
X173194600Y-108775763D01*
X173194054Y-108775485D01*
X173143259Y-108727512D01*
X173126463Y-108659692D01*
X173148999Y-108593556D01*
X173194054Y-108554515D01*
X173202816Y-108550051D01*
X173257572Y-108510269D01*
X173374786Y-108425109D01*
X173374788Y-108425106D01*
X173374792Y-108425104D01*
X173525104Y-108274792D01*
X173525106Y-108274788D01*
X173525109Y-108274786D01*
X173650048Y-108102820D01*
X173650047Y-108102820D01*
X173650051Y-108102816D01*
X173746557Y-107913412D01*
X173812246Y-107711243D01*
X173845500Y-107501287D01*
X173845500Y-107288713D01*
X173812246Y-107078757D01*
X173746557Y-106876588D01*
X173650051Y-106687184D01*
X173650049Y-106687181D01*
X173650048Y-106687179D01*
X173525109Y-106515213D01*
X173374786Y-106364890D01*
X173202820Y-106239951D01*
X173194600Y-106235763D01*
X173194054Y-106235485D01*
X173143259Y-106187512D01*
X173126463Y-106119692D01*
X173148999Y-106053556D01*
X173194054Y-106014515D01*
X173202816Y-106010051D01*
X173237602Y-105984778D01*
X173374786Y-105885109D01*
X173374788Y-105885106D01*
X173374792Y-105885104D01*
X173525104Y-105734792D01*
X173525106Y-105734788D01*
X173525109Y-105734786D01*
X173650048Y-105562820D01*
X173650049Y-105562819D01*
X173650051Y-105562816D01*
X173746557Y-105373412D01*
X173812246Y-105171243D01*
X173845500Y-104961287D01*
X173845500Y-104748713D01*
X173812246Y-104538757D01*
X173746557Y-104336588D01*
X173650051Y-104147184D01*
X173650049Y-104147181D01*
X173650048Y-104147179D01*
X173525109Y-103975213D01*
X173411569Y-103861673D01*
X173378084Y-103800350D01*
X173383068Y-103730658D01*
X173424940Y-103674725D01*
X173455915Y-103657810D01*
X173587331Y-103608796D01*
X173702546Y-103522546D01*
X173788796Y-103407331D01*
X173839091Y-103272483D01*
X173845500Y-103212873D01*
X173845499Y-101417135D01*
X175774500Y-101417135D01*
X175774500Y-103212870D01*
X175774501Y-103212876D01*
X175780908Y-103272483D01*
X175831202Y-103407328D01*
X175831206Y-103407335D01*
X175917452Y-103522544D01*
X175917455Y-103522547D01*
X176032664Y-103608793D01*
X176032671Y-103608797D01*
X176164082Y-103657810D01*
X176220016Y-103699681D01*
X176244433Y-103765145D01*
X176229582Y-103833418D01*
X176208431Y-103861673D01*
X176094889Y-103975215D01*
X175969951Y-104147179D01*
X175873444Y-104336585D01*
X175807754Y-104538757D01*
X175774500Y-104748713D01*
X175774500Y-104961286D01*
X175807753Y-105171239D01*
X175807753Y-105171241D01*
X175807754Y-105171243D01*
X175860543Y-105333711D01*
X175873444Y-105373414D01*
X175969951Y-105562820D01*
X176094890Y-105734786D01*
X176245213Y-105885109D01*
X176417182Y-106010050D01*
X176425946Y-106014516D01*
X176476742Y-106062491D01*
X176493536Y-106130312D01*
X176470998Y-106196447D01*
X176425946Y-106235484D01*
X176417182Y-106239949D01*
X176245213Y-106364890D01*
X176094890Y-106515213D01*
X175969951Y-106687179D01*
X175873444Y-106876585D01*
X175807753Y-107078760D01*
X175774500Y-107288713D01*
X175774500Y-107501286D01*
X175807735Y-107711127D01*
X175807754Y-107711243D01*
X175860258Y-107872834D01*
X175873444Y-107913414D01*
X175969951Y-108102820D01*
X176094890Y-108274786D01*
X176245213Y-108425109D01*
X176417179Y-108550048D01*
X176417181Y-108550049D01*
X176417184Y-108550051D01*
X176606588Y-108646557D01*
X176808757Y-108712246D01*
X177018713Y-108745500D01*
X177018714Y-108745500D01*
X177231286Y-108745500D01*
X177231287Y-108745500D01*
X177441243Y-108712246D01*
X177643412Y-108646557D01*
X177832816Y-108550051D01*
X177887572Y-108510269D01*
X178004786Y-108425109D01*
X178004788Y-108425106D01*
X178004792Y-108425104D01*
X178155104Y-108274792D01*
X178155106Y-108274788D01*
X178155109Y-108274786D01*
X178280048Y-108102820D01*
X178280047Y-108102820D01*
X178280051Y-108102816D01*
X178376557Y-107913412D01*
X178442246Y-107711243D01*
X178475500Y-107501287D01*
X178475500Y-107288713D01*
X178442246Y-107078757D01*
X178376557Y-106876588D01*
X178280051Y-106687184D01*
X178280049Y-106687181D01*
X178280048Y-106687179D01*
X178155109Y-106515213D01*
X178004786Y-106364890D01*
X177832820Y-106239951D01*
X177824600Y-106235763D01*
X177824054Y-106235485D01*
X177773259Y-106187512D01*
X177756463Y-106119692D01*
X177778999Y-106053556D01*
X177824054Y-106014515D01*
X177832816Y-106010051D01*
X177867602Y-105984778D01*
X178004786Y-105885109D01*
X178004788Y-105885106D01*
X178004792Y-105885104D01*
X178155104Y-105734792D01*
X178155106Y-105734788D01*
X178155109Y-105734786D01*
X178280048Y-105562820D01*
X178280049Y-105562819D01*
X178280051Y-105562816D01*
X178376557Y-105373412D01*
X178442246Y-105171243D01*
X178475500Y-104961287D01*
X178475500Y-104748713D01*
X178442246Y-104538757D01*
X178376557Y-104336588D01*
X178280051Y-104147184D01*
X178280049Y-104147181D01*
X178280048Y-104147179D01*
X178155109Y-103975213D01*
X178041569Y-103861673D01*
X178008084Y-103800350D01*
X178013068Y-103730658D01*
X178054940Y-103674725D01*
X178085915Y-103657810D01*
X178217331Y-103608796D01*
X178332546Y-103522546D01*
X178418796Y-103407331D01*
X178469091Y-103272483D01*
X178475500Y-103212873D01*
X178475499Y-101417135D01*
X180404500Y-101417135D01*
X180404500Y-103212870D01*
X180404501Y-103212876D01*
X180410908Y-103272483D01*
X180461202Y-103407328D01*
X180461206Y-103407335D01*
X180547452Y-103522544D01*
X180547455Y-103522547D01*
X180662664Y-103608793D01*
X180662671Y-103608797D01*
X180794082Y-103657810D01*
X180850016Y-103699681D01*
X180874433Y-103765145D01*
X180859582Y-103833418D01*
X180838431Y-103861673D01*
X180724889Y-103975215D01*
X180599951Y-104147179D01*
X180503444Y-104336585D01*
X180437754Y-104538757D01*
X180404500Y-104748713D01*
X180404500Y-104961286D01*
X180437753Y-105171239D01*
X180437753Y-105171241D01*
X180437754Y-105171243D01*
X180490543Y-105333711D01*
X180503444Y-105373414D01*
X180599951Y-105562820D01*
X180724890Y-105734786D01*
X180875213Y-105885109D01*
X181047179Y-106010048D01*
X181047181Y-106010049D01*
X181047184Y-106010051D01*
X181056493Y-106014794D01*
X181107290Y-106062766D01*
X181124087Y-106130587D01*
X181101552Y-106196722D01*
X181056505Y-106235760D01*
X181047446Y-106240376D01*
X181047440Y-106240380D01*
X180993282Y-106279727D01*
X180993282Y-106279728D01*
X181625591Y-106912037D01*
X181562007Y-106929075D01*
X181447993Y-106994901D01*
X181354901Y-107087993D01*
X181289075Y-107202007D01*
X181272037Y-107265591D01*
X180639728Y-106633282D01*
X180639727Y-106633282D01*
X180600380Y-106687439D01*
X180503904Y-106876782D01*
X180438242Y-107078869D01*
X180438242Y-107078872D01*
X180405000Y-107288753D01*
X180405000Y-107501246D01*
X180438242Y-107711127D01*
X180438242Y-107711130D01*
X180503904Y-107913217D01*
X180600375Y-108102550D01*
X180639728Y-108156716D01*
X181272037Y-107524408D01*
X181289075Y-107587993D01*
X181354901Y-107702007D01*
X181447993Y-107795099D01*
X181562007Y-107860925D01*
X181625590Y-107877962D01*
X180993282Y-108510269D01*
X180993282Y-108510270D01*
X181047449Y-108549624D01*
X181236782Y-108646095D01*
X181438870Y-108711757D01*
X181648754Y-108745000D01*
X181861246Y-108745000D01*
X182071127Y-108711757D01*
X182071130Y-108711757D01*
X182273217Y-108646095D01*
X182462554Y-108549622D01*
X182516716Y-108510270D01*
X182516717Y-108510270D01*
X181884408Y-107877962D01*
X181947993Y-107860925D01*
X182062007Y-107795099D01*
X182155099Y-107702007D01*
X182220925Y-107587993D01*
X182237962Y-107524408D01*
X182870270Y-108156717D01*
X182870270Y-108156716D01*
X182909622Y-108102554D01*
X183006095Y-107913217D01*
X183071757Y-107711130D01*
X183071757Y-107711127D01*
X183105000Y-107501246D01*
X183105000Y-107288753D01*
X183071904Y-107079797D01*
X183071904Y-107079794D01*
X183071903Y-107079790D01*
X183071757Y-107078870D01*
X183071757Y-107078869D01*
X183006095Y-106876782D01*
X182909624Y-106687449D01*
X182870270Y-106633282D01*
X182870269Y-106633282D01*
X182237962Y-107265590D01*
X182220925Y-107202007D01*
X182155099Y-107087993D01*
X182062007Y-106994901D01*
X181947993Y-106929075D01*
X181884409Y-106912037D01*
X182516716Y-106279728D01*
X182462547Y-106240373D01*
X182462547Y-106240372D01*
X182453500Y-106235763D01*
X182402706Y-106187788D01*
X182385912Y-106119966D01*
X182408451Y-106053832D01*
X182453508Y-106014793D01*
X182462816Y-106010051D01*
X182547209Y-105948736D01*
X182634786Y-105885109D01*
X182634788Y-105885106D01*
X182634792Y-105885104D01*
X182752949Y-105766947D01*
X186575000Y-105766947D01*
X186575000Y-106003052D01*
X186611934Y-106236247D01*
X186684897Y-106460802D01*
X186792087Y-106671174D01*
X186852338Y-106754104D01*
X186852340Y-106754105D01*
X187551212Y-106055233D01*
X187562482Y-106097292D01*
X187634890Y-106222708D01*
X187737292Y-106325110D01*
X187862708Y-106397518D01*
X187904765Y-106408787D01*
X187205893Y-107107658D01*
X187288828Y-107167914D01*
X187499197Y-107275102D01*
X187723752Y-107348065D01*
X187723751Y-107348065D01*
X187956948Y-107385000D01*
X188193052Y-107385000D01*
X188426247Y-107348065D01*
X188650802Y-107275102D01*
X188861163Y-107167918D01*
X188861169Y-107167914D01*
X188944104Y-107107658D01*
X188944105Y-107107658D01*
X188245233Y-106408787D01*
X188287292Y-106397518D01*
X188412708Y-106325110D01*
X188515110Y-106222708D01*
X188587518Y-106097292D01*
X188598787Y-106055233D01*
X189297658Y-106754105D01*
X189297658Y-106754104D01*
X189357914Y-106671169D01*
X189357918Y-106671163D01*
X189465102Y-106460802D01*
X189538065Y-106236247D01*
X189575000Y-106003052D01*
X189575000Y-105766947D01*
X193075000Y-105766947D01*
X193075000Y-106003052D01*
X193111934Y-106236247D01*
X193184897Y-106460802D01*
X193292087Y-106671174D01*
X193352338Y-106754104D01*
X193352340Y-106754105D01*
X194051212Y-106055233D01*
X194062482Y-106097292D01*
X194134890Y-106222708D01*
X194237292Y-106325110D01*
X194362708Y-106397518D01*
X194404765Y-106408787D01*
X193705893Y-107107658D01*
X193788828Y-107167914D01*
X193999197Y-107275102D01*
X194223752Y-107348065D01*
X194223751Y-107348065D01*
X194456948Y-107385000D01*
X194693052Y-107385000D01*
X194926247Y-107348065D01*
X195150802Y-107275102D01*
X195361163Y-107167918D01*
X195361169Y-107167914D01*
X195444104Y-107107658D01*
X195444105Y-107107658D01*
X194745233Y-106408787D01*
X194787292Y-106397518D01*
X194912708Y-106325110D01*
X195015110Y-106222708D01*
X195087518Y-106097292D01*
X195098787Y-106055233D01*
X195797658Y-106754105D01*
X195797658Y-106754104D01*
X195857914Y-106671169D01*
X195857918Y-106671163D01*
X195965102Y-106460802D01*
X196038065Y-106236247D01*
X196075000Y-106003052D01*
X196075000Y-105766947D01*
X196038065Y-105533752D01*
X195965102Y-105309197D01*
X195857914Y-105098828D01*
X195797658Y-105015894D01*
X195797658Y-105015893D01*
X195098787Y-105714765D01*
X195087518Y-105672708D01*
X195015110Y-105547292D01*
X194912708Y-105444890D01*
X194787292Y-105372482D01*
X194745234Y-105361212D01*
X195444105Y-104662340D01*
X195444104Y-104662338D01*
X195361174Y-104602087D01*
X195150802Y-104494897D01*
X194926247Y-104421934D01*
X194926248Y-104421934D01*
X194693052Y-104385000D01*
X194456948Y-104385000D01*
X194223752Y-104421934D01*
X193999197Y-104494897D01*
X193788830Y-104602084D01*
X193705894Y-104662340D01*
X194404766Y-105361212D01*
X194362708Y-105372482D01*
X194237292Y-105444890D01*
X194134890Y-105547292D01*
X194062482Y-105672708D01*
X194051212Y-105714766D01*
X193352340Y-105015894D01*
X193292084Y-105098830D01*
X193184897Y-105309197D01*
X193111934Y-105533752D01*
X193075000Y-105766947D01*
X189575000Y-105766947D01*
X189538065Y-105533752D01*
X189465102Y-105309197D01*
X189357914Y-105098828D01*
X189297658Y-105015894D01*
X189297658Y-105015893D01*
X188598787Y-105714765D01*
X188587518Y-105672708D01*
X188515110Y-105547292D01*
X188412708Y-105444890D01*
X188287292Y-105372482D01*
X188245234Y-105361212D01*
X188944105Y-104662340D01*
X188944104Y-104662339D01*
X188861174Y-104602087D01*
X188650802Y-104494897D01*
X188426247Y-104421934D01*
X188426248Y-104421934D01*
X188193052Y-104385000D01*
X187956948Y-104385000D01*
X187723752Y-104421934D01*
X187499197Y-104494897D01*
X187288830Y-104602084D01*
X187205894Y-104662340D01*
X187904766Y-105361212D01*
X187862708Y-105372482D01*
X187737292Y-105444890D01*
X187634890Y-105547292D01*
X187562482Y-105672708D01*
X187551212Y-105714766D01*
X186852340Y-105015894D01*
X186792084Y-105098830D01*
X186684897Y-105309197D01*
X186611934Y-105533752D01*
X186575000Y-105766947D01*
X182752949Y-105766947D01*
X182785104Y-105734792D01*
X182910051Y-105562816D01*
X183006557Y-105373412D01*
X183072246Y-105171243D01*
X183105500Y-104961287D01*
X183105500Y-104748713D01*
X183072246Y-104538757D01*
X183006557Y-104336588D01*
X182910051Y-104147184D01*
X182910049Y-104147181D01*
X182910048Y-104147179D01*
X182785109Y-103975213D01*
X182671569Y-103861673D01*
X182638084Y-103800350D01*
X182643068Y-103730658D01*
X182684940Y-103674725D01*
X182715915Y-103657810D01*
X182847331Y-103608796D01*
X182962546Y-103522546D01*
X183048796Y-103407331D01*
X183099091Y-103272483D01*
X183105500Y-103212873D01*
X183105499Y-101417128D01*
X183099091Y-101357517D01*
X183065294Y-101266902D01*
X186574500Y-101266902D01*
X186574500Y-101503097D01*
X186611446Y-101736368D01*
X186684433Y-101960996D01*
X186791657Y-102171433D01*
X186930483Y-102362510D01*
X187097490Y-102529517D01*
X187288567Y-102668343D01*
X187369849Y-102709758D01*
X187499003Y-102775566D01*
X187499005Y-102775566D01*
X187499008Y-102775568D01*
X187566323Y-102797440D01*
X187723631Y-102848553D01*
X187956903Y-102885500D01*
X187956908Y-102885500D01*
X188193097Y-102885500D01*
X188426368Y-102848553D01*
X188650992Y-102775568D01*
X188861433Y-102668343D01*
X189052510Y-102529517D01*
X189219517Y-102362510D01*
X189358343Y-102171433D01*
X189405845Y-102078205D01*
X189453820Y-102027409D01*
X189516330Y-102010500D01*
X193133670Y-102010500D01*
X193200709Y-102030185D01*
X193244155Y-102078205D01*
X193291657Y-102171433D01*
X193430483Y-102362510D01*
X193597490Y-102529517D01*
X193788567Y-102668343D01*
X193869849Y-102709758D01*
X193999003Y-102775566D01*
X193999005Y-102775566D01*
X193999008Y-102775568D01*
X194066323Y-102797440D01*
X194223631Y-102848553D01*
X194456903Y-102885500D01*
X194456908Y-102885500D01*
X194693097Y-102885500D01*
X194926368Y-102848553D01*
X195150992Y-102775568D01*
X195361433Y-102668343D01*
X195552510Y-102529517D01*
X195719517Y-102362510D01*
X195858343Y-102171433D01*
X195965568Y-101960992D01*
X196038553Y-101736368D01*
X196051047Y-101657482D01*
X196075500Y-101503097D01*
X196075500Y-101266902D01*
X196038553Y-101033631D01*
X195965566Y-100809003D01*
X195889431Y-100659581D01*
X195858343Y-100598567D01*
X195719517Y-100407490D01*
X195552510Y-100240483D01*
X195361433Y-100101657D01*
X195361427Y-100101654D01*
X195150996Y-99994433D01*
X194926368Y-99921446D01*
X194693097Y-99884500D01*
X194693092Y-99884500D01*
X194456908Y-99884500D01*
X194456903Y-99884500D01*
X194223631Y-99921446D01*
X193999003Y-99994433D01*
X193788566Y-100101657D01*
X193679550Y-100180862D01*
X193597490Y-100240483D01*
X193597488Y-100240485D01*
X193597487Y-100240485D01*
X193430485Y-100407487D01*
X193430485Y-100407488D01*
X193430483Y-100407490D01*
X193406130Y-100441009D01*
X193291657Y-100598566D01*
X193244155Y-100691795D01*
X193196180Y-100742591D01*
X193133670Y-100759500D01*
X189516330Y-100759500D01*
X189449291Y-100739815D01*
X189405845Y-100691795D01*
X189358342Y-100598566D01*
X189307143Y-100528097D01*
X189219517Y-100407490D01*
X189052510Y-100240483D01*
X188861433Y-100101657D01*
X188861427Y-100101654D01*
X188650996Y-99994433D01*
X188426368Y-99921446D01*
X188193097Y-99884500D01*
X188193092Y-99884500D01*
X187956908Y-99884500D01*
X187956903Y-99884500D01*
X187723631Y-99921446D01*
X187499003Y-99994433D01*
X187288566Y-100101657D01*
X187179550Y-100180862D01*
X187097490Y-100240483D01*
X187097488Y-100240485D01*
X187097487Y-100240485D01*
X186930485Y-100407487D01*
X186930485Y-100407488D01*
X186930483Y-100407490D01*
X186906130Y-100441009D01*
X186791657Y-100598566D01*
X186684433Y-100809003D01*
X186611446Y-101033631D01*
X186574500Y-101266902D01*
X183065294Y-101266902D01*
X183048798Y-101222673D01*
X183048793Y-101222664D01*
X182962547Y-101107455D01*
X182962544Y-101107452D01*
X182847335Y-101021206D01*
X182847328Y-101021202D01*
X182712482Y-100970908D01*
X182712483Y-100970908D01*
X182652883Y-100964501D01*
X182652881Y-100964500D01*
X182652873Y-100964500D01*
X182652864Y-100964500D01*
X180857129Y-100964500D01*
X180857123Y-100964501D01*
X180797516Y-100970908D01*
X180662671Y-101021202D01*
X180662664Y-101021206D01*
X180547455Y-101107452D01*
X180547452Y-101107455D01*
X180461206Y-101222664D01*
X180461202Y-101222671D01*
X180410908Y-101357517D01*
X180404501Y-101417116D01*
X180404501Y-101417123D01*
X180404500Y-101417135D01*
X178475499Y-101417135D01*
X178475499Y-101417128D01*
X178469091Y-101357517D01*
X178449641Y-101305370D01*
X178418797Y-101222671D01*
X178418793Y-101222664D01*
X178332547Y-101107455D01*
X178332544Y-101107452D01*
X178217335Y-101021206D01*
X178217328Y-101021202D01*
X178082482Y-100970908D01*
X178082483Y-100970908D01*
X178022883Y-100964501D01*
X178022881Y-100964500D01*
X178022873Y-100964500D01*
X178022864Y-100964500D01*
X176227129Y-100964500D01*
X176227123Y-100964501D01*
X176167516Y-100970908D01*
X176032671Y-101021202D01*
X176032664Y-101021206D01*
X175917455Y-101107452D01*
X175917452Y-101107455D01*
X175831206Y-101222664D01*
X175831202Y-101222671D01*
X175780908Y-101357517D01*
X175774501Y-101417116D01*
X175774501Y-101417123D01*
X175774500Y-101417135D01*
X173845499Y-101417135D01*
X173845499Y-101417128D01*
X173839091Y-101357517D01*
X173819641Y-101305370D01*
X173788797Y-101222671D01*
X173788793Y-101222664D01*
X173702547Y-101107455D01*
X173702544Y-101107452D01*
X173587335Y-101021206D01*
X173587328Y-101021202D01*
X173452482Y-100970908D01*
X173452483Y-100970908D01*
X173392883Y-100964501D01*
X173392881Y-100964500D01*
X173392873Y-100964500D01*
X173392864Y-100964500D01*
X171597129Y-100964500D01*
X171597123Y-100964501D01*
X171537516Y-100970908D01*
X171402671Y-101021202D01*
X171402664Y-101021206D01*
X171287455Y-101107452D01*
X171287452Y-101107455D01*
X171201206Y-101222664D01*
X171201202Y-101222671D01*
X171150908Y-101357517D01*
X171144501Y-101417116D01*
X171144501Y-101417123D01*
X171144500Y-101417135D01*
X169215499Y-101417135D01*
X169215499Y-101417128D01*
X169209091Y-101357517D01*
X169189641Y-101305370D01*
X169158797Y-101222671D01*
X169158793Y-101222664D01*
X169072547Y-101107455D01*
X169072544Y-101107452D01*
X168957335Y-101021206D01*
X168957328Y-101021202D01*
X168822482Y-100970908D01*
X168822483Y-100970908D01*
X168762883Y-100964501D01*
X168762881Y-100964500D01*
X168762873Y-100964500D01*
X168762864Y-100964500D01*
X166967129Y-100964500D01*
X166967123Y-100964501D01*
X166907516Y-100970908D01*
X166772671Y-101021202D01*
X166772664Y-101021206D01*
X166657455Y-101107452D01*
X166657452Y-101107455D01*
X166571206Y-101222664D01*
X166571202Y-101222671D01*
X166520908Y-101357517D01*
X166514501Y-101417116D01*
X166514501Y-101417123D01*
X166514500Y-101417135D01*
X166514500Y-103212870D01*
X166514501Y-103212876D01*
X166520908Y-103272483D01*
X166571202Y-103407328D01*
X166571206Y-103407335D01*
X166657452Y-103522544D01*
X166657455Y-103522547D01*
X166772664Y-103608793D01*
X166772671Y-103608797D01*
X166904082Y-103657810D01*
X166960016Y-103699681D01*
X166984433Y-103765145D01*
X166969582Y-103833418D01*
X166948431Y-103861673D01*
X166834889Y-103975215D01*
X166709951Y-104147179D01*
X166613444Y-104336585D01*
X166547754Y-104538757D01*
X166514500Y-104748713D01*
X166514500Y-104961286D01*
X166547753Y-105171240D01*
X166571356Y-105243882D01*
X166573351Y-105313723D01*
X166537270Y-105373556D01*
X166474569Y-105404384D01*
X166453425Y-105406200D01*
X164646575Y-105406200D01*
X164579536Y-105386515D01*
X164533781Y-105333711D01*
X164523837Y-105264553D01*
X164528644Y-105243882D01*
X164552246Y-105171243D01*
X164585500Y-104961287D01*
X164585500Y-104748713D01*
X164552246Y-104538757D01*
X164486557Y-104336588D01*
X164390051Y-104147184D01*
X164390049Y-104147181D01*
X164390048Y-104147179D01*
X164265109Y-103975213D01*
X164151569Y-103861673D01*
X164118084Y-103800350D01*
X164123068Y-103730658D01*
X164164940Y-103674725D01*
X164195915Y-103657810D01*
X164327331Y-103608796D01*
X164442546Y-103522546D01*
X164528796Y-103407331D01*
X164579091Y-103272483D01*
X164585500Y-103212873D01*
X164585499Y-101417128D01*
X164579091Y-101357517D01*
X164559641Y-101305370D01*
X164528797Y-101222671D01*
X164528793Y-101222664D01*
X164442547Y-101107455D01*
X164442544Y-101107452D01*
X164327335Y-101021206D01*
X164327328Y-101021202D01*
X164192482Y-100970908D01*
X164192483Y-100970908D01*
X164132883Y-100964501D01*
X164132881Y-100964500D01*
X164132873Y-100964500D01*
X164132864Y-100964500D01*
X162337129Y-100964500D01*
X162337123Y-100964501D01*
X162277516Y-100970908D01*
X162142671Y-101021202D01*
X162142664Y-101021206D01*
X162027455Y-101107452D01*
X162027452Y-101107455D01*
X161941206Y-101222664D01*
X161941202Y-101222671D01*
X161910223Y-101305733D01*
X161868352Y-101361667D01*
X161802888Y-101386084D01*
X161794041Y-101386400D01*
X155976904Y-101386400D01*
X155802939Y-101421003D01*
X155802923Y-101421008D01*
X155687053Y-101469002D01*
X155687054Y-101469003D01*
X155639051Y-101488887D01*
X155565759Y-101537861D01*
X155491564Y-101587435D01*
X155491561Y-101587438D01*
X152660817Y-104418181D01*
X152599494Y-104451666D01*
X152573136Y-104454500D01*
X151274998Y-104454500D01*
X151274981Y-104454501D01*
X151172203Y-104465000D01*
X151172200Y-104465001D01*
X151005668Y-104520185D01*
X151005663Y-104520187D01*
X150856342Y-104612289D01*
X150732289Y-104736342D01*
X150640187Y-104885663D01*
X150640186Y-104885666D01*
X150585001Y-105052203D01*
X150585001Y-105052204D01*
X150585000Y-105052204D01*
X150574500Y-105154983D01*
X148969100Y-105154983D01*
X148969100Y-100234208D01*
X148969099Y-100234207D01*
X148942734Y-100101657D01*
X148942734Y-100101654D01*
X148934496Y-100060241D01*
X148934495Y-100060234D01*
X148893518Y-99961309D01*
X148866613Y-99896353D01*
X148806664Y-99806633D01*
X148806664Y-99806632D01*
X148768067Y-99748868D01*
X148768061Y-99748860D01*
X147942044Y-98922844D01*
X149375000Y-98922844D01*
X149381401Y-98982372D01*
X149381403Y-98982379D01*
X149431645Y-99117086D01*
X149431649Y-99117093D01*
X149517809Y-99232187D01*
X149517812Y-99232190D01*
X149632906Y-99318350D01*
X149632913Y-99318354D01*
X149767620Y-99368596D01*
X149767627Y-99368598D01*
X149827155Y-99374999D01*
X149827172Y-99375000D01*
X152165000Y-99375000D01*
X152665000Y-99375000D01*
X155002828Y-99375000D01*
X155002844Y-99374999D01*
X155062372Y-99368598D01*
X155062379Y-99368596D01*
X155197086Y-99318354D01*
X155197093Y-99318350D01*
X155312187Y-99232190D01*
X155312190Y-99232187D01*
X155398350Y-99117093D01*
X155398354Y-99117086D01*
X155448596Y-98982379D01*
X155448598Y-98982372D01*
X155454999Y-98922844D01*
X167975000Y-98922844D01*
X167981401Y-98982372D01*
X167981403Y-98982379D01*
X168031645Y-99117086D01*
X168031649Y-99117093D01*
X168117809Y-99232187D01*
X168117812Y-99232190D01*
X168232906Y-99318350D01*
X168232913Y-99318354D01*
X168367620Y-99368596D01*
X168367627Y-99368598D01*
X168427155Y-99374999D01*
X168427172Y-99375000D01*
X170765000Y-99375000D01*
X171265000Y-99375000D01*
X173602828Y-99375000D01*
X173602844Y-99374999D01*
X173662372Y-99368598D01*
X173662379Y-99368596D01*
X173797086Y-99318354D01*
X173797093Y-99318350D01*
X173912187Y-99232190D01*
X173912190Y-99232187D01*
X173998350Y-99117093D01*
X173998354Y-99117086D01*
X174048596Y-98982379D01*
X174048598Y-98982372D01*
X174054999Y-98922844D01*
X174055000Y-98922827D01*
X174055000Y-98375000D01*
X171265000Y-98375000D01*
X171265000Y-99375000D01*
X170765000Y-99375000D01*
X170765000Y-98375000D01*
X167975000Y-98375000D01*
X167975000Y-98922844D01*
X155454999Y-98922844D01*
X155455000Y-98922827D01*
X155455000Y-98375000D01*
X152665000Y-98375000D01*
X152665000Y-99375000D01*
X152165000Y-99375000D01*
X152165000Y-98375000D01*
X149375000Y-98375000D01*
X149375000Y-98922844D01*
X147942044Y-98922844D01*
X147430519Y-98411319D01*
X147182335Y-98163135D01*
X147182330Y-98163131D01*
X147123261Y-98123664D01*
X147123260Y-98123663D01*
X147034844Y-98064585D01*
X147034842Y-98064584D01*
X146952907Y-98030646D01*
X146952906Y-98030646D01*
X146870966Y-97996705D01*
X146870958Y-97996703D01*
X146696996Y-97962100D01*
X146696992Y-97962100D01*
X146519608Y-97962100D01*
X146519603Y-97962100D01*
X146345641Y-97996703D01*
X146345629Y-97996706D01*
X146263692Y-98030645D01*
X146263693Y-98030646D01*
X146181755Y-98064585D01*
X146152370Y-98084220D01*
X146093340Y-98123663D01*
X146073736Y-98136761D01*
X146034263Y-98163136D01*
X145908834Y-98288566D01*
X145896069Y-98307671D01*
X145810287Y-98436051D01*
X145807612Y-98442512D01*
X145807610Y-98442517D01*
X145742405Y-98599933D01*
X145742403Y-98599941D01*
X145707800Y-98773903D01*
X145707800Y-98951296D01*
X145742403Y-99125258D01*
X145742405Y-99125266D01*
X145766778Y-99184107D01*
X145810283Y-99289140D01*
X145810287Y-99289147D01*
X145848471Y-99346293D01*
X145848472Y-99346294D01*
X145908837Y-99436638D01*
X145908838Y-99436639D01*
X147131781Y-100659581D01*
X147165266Y-100720904D01*
X147168100Y-100747262D01*
X147168100Y-105196237D01*
X147148415Y-105263276D01*
X147095611Y-105309031D01*
X147026453Y-105318975D01*
X146962897Y-105289950D01*
X146956419Y-105283918D01*
X146347738Y-104675237D01*
X146290758Y-104637165D01*
X146253527Y-104612288D01*
X146253525Y-104612287D01*
X146253525Y-104612286D01*
X146200244Y-104576685D01*
X146200242Y-104576684D01*
X146108676Y-104538757D01*
X146036366Y-104508805D01*
X146036358Y-104508803D01*
X145862396Y-104474200D01*
X145862392Y-104474200D01*
X145685008Y-104474200D01*
X145685003Y-104474200D01*
X145511041Y-104508803D01*
X145511033Y-104508805D01*
X145438724Y-104538757D01*
X145347155Y-104576685D01*
X145300136Y-104608103D01*
X145293873Y-104612288D01*
X145270478Y-104627919D01*
X145199661Y-104675237D01*
X145074237Y-104800661D01*
X145054243Y-104830586D01*
X144975688Y-104948150D01*
X144975687Y-104948152D01*
X144956067Y-104995520D01*
X144956067Y-104995521D01*
X144907805Y-105112033D01*
X144907803Y-105112041D01*
X144873200Y-105286003D01*
X144873200Y-105375140D01*
X144853515Y-105442179D01*
X144800711Y-105487934D01*
X144731553Y-105497878D01*
X144667997Y-105468853D01*
X144638715Y-105431435D01*
X144633395Y-105420994D01*
X144602815Y-105360978D01*
X144583941Y-105335000D01*
X144473247Y-105182641D01*
X144473243Y-105182636D01*
X144317363Y-105026756D01*
X144317358Y-105026752D01*
X144139025Y-104897187D01*
X144139024Y-104897186D01*
X144139022Y-104897185D01*
X144076096Y-104865122D01*
X143942606Y-104797104D01*
X143942603Y-104797103D01*
X143732952Y-104728985D01*
X143624086Y-104711742D01*
X143515222Y-104694500D01*
X143294778Y-104694500D01*
X143222201Y-104705995D01*
X143077047Y-104728985D01*
X142867396Y-104797103D01*
X142867393Y-104797104D01*
X142670974Y-104897187D01*
X142492641Y-105026752D01*
X142492636Y-105026756D01*
X142442463Y-105076929D01*
X142381140Y-105110413D01*
X142311448Y-105105428D01*
X142255515Y-105063557D01*
X142238601Y-105032580D01*
X142208797Y-104952671D01*
X142208793Y-104952664D01*
X142122547Y-104837455D01*
X142122544Y-104837452D01*
X142007335Y-104751206D01*
X142007328Y-104751202D01*
X141872482Y-104700908D01*
X141872483Y-104700908D01*
X141812883Y-104694501D01*
X141812881Y-104694500D01*
X141812873Y-104694500D01*
X141812864Y-104694500D01*
X139917129Y-104694500D01*
X139917123Y-104694501D01*
X139857516Y-104700908D01*
X139722671Y-104751202D01*
X139722664Y-104751206D01*
X139607455Y-104837452D01*
X139607452Y-104837455D01*
X139521206Y-104952664D01*
X139521202Y-104952671D01*
X139470908Y-105087517D01*
X139464501Y-105147116D01*
X139464500Y-105147135D01*
X139464500Y-107042870D01*
X139464501Y-107042876D01*
X139470908Y-107102483D01*
X139521202Y-107237328D01*
X139521206Y-107237335D01*
X139607452Y-107352544D01*
X139607455Y-107352547D01*
X139722664Y-107438793D01*
X139722671Y-107438797D01*
X139857517Y-107489091D01*
X139857516Y-107489091D01*
X139864444Y-107489835D01*
X139917127Y-107495500D01*
X141812872Y-107495499D01*
X141872483Y-107489091D01*
X142007331Y-107438796D01*
X142122546Y-107352546D01*
X142208796Y-107237331D01*
X142233867Y-107170112D01*
X142238601Y-107157420D01*
X142280471Y-107101486D01*
X142345936Y-107077068D01*
X142414209Y-107091919D01*
X142442464Y-107113071D01*
X142492636Y-107163243D01*
X142492641Y-107163247D01*
X142594603Y-107237326D01*
X142670978Y-107292815D01*
X142793024Y-107355001D01*
X142867393Y-107392895D01*
X142867396Y-107392896D01*
X142972221Y-107426955D01*
X143077049Y-107461015D01*
X143294778Y-107495500D01*
X143294779Y-107495500D01*
X143515221Y-107495500D01*
X143515222Y-107495500D01*
X143732951Y-107461015D01*
X143942606Y-107392895D01*
X144139022Y-107292815D01*
X144317365Y-107163242D01*
X144473242Y-107007365D01*
X144602815Y-106829022D01*
X144702895Y-106632606D01*
X144771015Y-106422951D01*
X144805500Y-106205222D01*
X144805500Y-105984778D01*
X144802936Y-105968591D01*
X144811890Y-105899300D01*
X144856886Y-105845847D01*
X144923637Y-105825207D01*
X144990951Y-105843931D01*
X145028506Y-105880296D01*
X145031640Y-105884986D01*
X145031641Y-105884988D01*
X145074237Y-105948738D01*
X145074240Y-105948741D01*
X145914881Y-106789381D01*
X145948366Y-106850704D01*
X145951200Y-106877062D01*
X145951200Y-128284837D01*
X145931515Y-128351876D01*
X145914881Y-128372518D01*
X143608738Y-130678660D01*
X143608737Y-130678661D01*
X143569264Y-130737739D01*
X143569263Y-130737740D01*
X143510185Y-130826155D01*
X143476246Y-130908093D01*
X143442307Y-130990027D01*
X143442303Y-130990041D01*
X143409040Y-131157264D01*
X143409041Y-131157265D01*
X143407700Y-131164007D01*
X143407700Y-143836737D01*
X143388015Y-143903776D01*
X143371381Y-143924418D01*
X142256980Y-145038818D01*
X142195657Y-145072303D01*
X142125965Y-145067319D01*
X142081618Y-145038818D01*
X140343338Y-143300537D01*
X140343334Y-143300533D01*
X140284261Y-143261064D01*
X140284260Y-143261063D01*
X140195844Y-143201985D01*
X140195842Y-143201984D01*
X140113907Y-143168046D01*
X140113906Y-143168046D01*
X140031966Y-143134105D01*
X140031958Y-143134103D01*
X139857996Y-143099500D01*
X139857992Y-143099500D01*
X139857991Y-143099500D01*
X135866361Y-143099500D01*
X135799322Y-143079815D01*
X135778680Y-143063181D01*
X131222336Y-138506836D01*
X123566053Y-130850553D01*
X128181100Y-130850553D01*
X128181100Y-131008246D01*
X128211861Y-131162889D01*
X128211864Y-131162901D01*
X128272202Y-131308572D01*
X128272209Y-131308585D01*
X128359810Y-131439688D01*
X128359813Y-131439692D01*
X128471307Y-131551186D01*
X128471311Y-131551189D01*
X128602414Y-131638790D01*
X128602427Y-131638797D01*
X128748098Y-131699135D01*
X128748103Y-131699137D01*
X128902753Y-131729899D01*
X128902756Y-131729900D01*
X128902758Y-131729900D01*
X129060444Y-131729900D01*
X129060445Y-131729899D01*
X129215097Y-131699137D01*
X129360779Y-131638794D01*
X129459309Y-131572957D01*
X129525986Y-131552080D01*
X129593366Y-131570564D01*
X129640057Y-131622543D01*
X129652200Y-131676060D01*
X129652200Y-131776146D01*
X129682961Y-131930789D01*
X129682964Y-131930801D01*
X129743302Y-132076472D01*
X129743309Y-132076485D01*
X129830910Y-132207588D01*
X129830913Y-132207592D01*
X129942407Y-132319086D01*
X129942411Y-132319089D01*
X130073514Y-132406690D01*
X130073527Y-132406697D01*
X130219198Y-132467035D01*
X130219203Y-132467037D01*
X130373853Y-132497799D01*
X130373856Y-132497800D01*
X130373858Y-132497800D01*
X130531544Y-132497800D01*
X130531545Y-132497799D01*
X130686197Y-132467037D01*
X130831879Y-132406694D01*
X130962989Y-132319089D01*
X131074489Y-132207589D01*
X131162094Y-132076479D01*
X131222437Y-131930797D01*
X131253200Y-131776142D01*
X131253200Y-131618458D01*
X131253200Y-131618455D01*
X131221883Y-131461017D01*
X131219500Y-131436825D01*
X131219500Y-127182700D01*
X131239185Y-127115661D01*
X131291989Y-127069906D01*
X131343500Y-127058700D01*
X131366944Y-127058700D01*
X131366945Y-127058699D01*
X131521597Y-127027937D01*
X131667279Y-126967594D01*
X131798389Y-126879989D01*
X131909889Y-126768489D01*
X131997494Y-126637379D01*
X132014134Y-126597202D01*
X132041012Y-126556976D01*
X133898729Y-124699260D01*
X133898733Y-124699258D01*
X133985858Y-124612133D01*
X134054311Y-124509686D01*
X134054312Y-124509685D01*
X134054313Y-124509682D01*
X134054315Y-124509679D01*
X134064672Y-124484672D01*
X134101463Y-124395851D01*
X134125500Y-124275007D01*
X134125500Y-124151793D01*
X134125500Y-107619499D01*
X134145185Y-107552460D01*
X134197989Y-107506705D01*
X134249500Y-107495499D01*
X135882871Y-107495499D01*
X135882872Y-107495499D01*
X135942483Y-107489091D01*
X136077331Y-107438796D01*
X136192546Y-107352546D01*
X136278796Y-107237331D01*
X136303867Y-107170112D01*
X136308601Y-107157420D01*
X136350471Y-107101486D01*
X136415936Y-107077068D01*
X136484209Y-107091919D01*
X136512464Y-107113071D01*
X136562636Y-107163243D01*
X136562641Y-107163247D01*
X136664603Y-107237326D01*
X136740978Y-107292815D01*
X136863024Y-107355001D01*
X136937393Y-107392895D01*
X136937396Y-107392896D01*
X137042221Y-107426955D01*
X137147049Y-107461015D01*
X137364778Y-107495500D01*
X137364779Y-107495500D01*
X137585221Y-107495500D01*
X137585222Y-107495500D01*
X137802951Y-107461015D01*
X138012606Y-107392895D01*
X138209022Y-107292815D01*
X138387365Y-107163242D01*
X138543242Y-107007365D01*
X138672815Y-106829022D01*
X138772895Y-106632606D01*
X138841015Y-106422951D01*
X138875500Y-106205222D01*
X138875500Y-105984778D01*
X138841015Y-105767049D01*
X138772895Y-105557394D01*
X138772895Y-105557393D01*
X138737503Y-105487934D01*
X138672815Y-105360978D01*
X138653941Y-105335000D01*
X138543247Y-105182641D01*
X138543243Y-105182636D01*
X138387363Y-105026756D01*
X138387358Y-105026752D01*
X138209025Y-104897187D01*
X138209024Y-104897186D01*
X138209022Y-104897185D01*
X138146096Y-104865122D01*
X138012606Y-104797104D01*
X138012603Y-104797103D01*
X137802952Y-104728985D01*
X137694086Y-104711742D01*
X137585222Y-104694500D01*
X137364778Y-104694500D01*
X137292201Y-104705995D01*
X137147047Y-104728985D01*
X136937396Y-104797103D01*
X136937393Y-104797104D01*
X136740974Y-104897187D01*
X136562641Y-105026752D01*
X136562636Y-105026756D01*
X136512463Y-105076929D01*
X136451140Y-105110413D01*
X136381448Y-105105428D01*
X136325515Y-105063557D01*
X136308601Y-105032580D01*
X136278797Y-104952671D01*
X136278793Y-104952664D01*
X136192547Y-104837455D01*
X136192544Y-104837452D01*
X136077335Y-104751206D01*
X136077328Y-104751202D01*
X135942482Y-104700908D01*
X135942483Y-104700908D01*
X135882883Y-104694501D01*
X135882881Y-104694500D01*
X135882873Y-104694500D01*
X135882865Y-104694500D01*
X134249500Y-104694500D01*
X134182461Y-104674815D01*
X134136706Y-104622011D01*
X134125500Y-104570500D01*
X134125500Y-99718352D01*
X134145185Y-99651313D01*
X134161819Y-99630671D01*
X135322411Y-98470079D01*
X136465336Y-97327155D01*
X149375000Y-97327155D01*
X149375000Y-97875000D01*
X152165000Y-97875000D01*
X152665000Y-97875000D01*
X155455000Y-97875000D01*
X155455000Y-97327172D01*
X155454999Y-97327155D01*
X167975000Y-97327155D01*
X167975000Y-97875000D01*
X170765000Y-97875000D01*
X171265000Y-97875000D01*
X174055000Y-97875000D01*
X174055000Y-97327172D01*
X174054999Y-97327155D01*
X174048598Y-97267627D01*
X174048596Y-97267620D01*
X173998354Y-97132913D01*
X173998350Y-97132906D01*
X173912190Y-97017812D01*
X173912187Y-97017809D01*
X173797093Y-96931649D01*
X173797086Y-96931645D01*
X173662379Y-96881403D01*
X173662372Y-96881401D01*
X173602844Y-96875000D01*
X171265000Y-96875000D01*
X171265000Y-97875000D01*
X170765000Y-97875000D01*
X170765000Y-96875000D01*
X168427155Y-96875000D01*
X168367627Y-96881401D01*
X168367620Y-96881403D01*
X168232913Y-96931645D01*
X168232906Y-96931649D01*
X168117812Y-97017809D01*
X168117809Y-97017812D01*
X168031649Y-97132906D01*
X168031645Y-97132913D01*
X167981403Y-97267620D01*
X167981401Y-97267627D01*
X167975000Y-97327155D01*
X155454999Y-97327155D01*
X155448598Y-97267627D01*
X155448596Y-97267620D01*
X155398354Y-97132913D01*
X155398350Y-97132906D01*
X155312190Y-97017812D01*
X155312187Y-97017809D01*
X155197093Y-96931649D01*
X155197086Y-96931645D01*
X155062379Y-96881403D01*
X155062372Y-96881401D01*
X155002844Y-96875000D01*
X152665000Y-96875000D01*
X152665000Y-97875000D01*
X152165000Y-97875000D01*
X152165000Y-96875000D01*
X149827155Y-96875000D01*
X149767627Y-96881401D01*
X149767620Y-96881403D01*
X149632913Y-96931645D01*
X149632906Y-96931649D01*
X149517812Y-97017809D01*
X149517809Y-97017812D01*
X149431649Y-97132906D01*
X149431645Y-97132913D01*
X149381403Y-97267620D01*
X149381401Y-97267627D01*
X149375000Y-97327155D01*
X136465336Y-97327155D01*
X136522057Y-97270434D01*
X136555261Y-97220742D01*
X136590511Y-97167986D01*
X136612592Y-97114676D01*
X136616559Y-97107767D01*
X136636262Y-97088886D01*
X136653381Y-97067643D01*
X136661118Y-97065067D01*
X136667006Y-97059426D01*
X136693785Y-97054195D01*
X136719675Y-97045578D01*
X136724101Y-97045499D01*
X137084071Y-97045499D01*
X137084072Y-97045499D01*
X137143683Y-97039091D01*
X137278531Y-96988796D01*
X137393746Y-96902546D01*
X137479996Y-96787331D01*
X137530291Y-96652483D01*
X137536700Y-96592873D01*
X137536699Y-95426947D01*
X144536200Y-95426947D01*
X144536200Y-95663052D01*
X144573134Y-95896247D01*
X144646097Y-96120802D01*
X144753287Y-96331174D01*
X144813538Y-96414104D01*
X144813540Y-96414105D01*
X145553237Y-95674408D01*
X145570275Y-95737993D01*
X145636101Y-95852007D01*
X145729193Y-95945099D01*
X145843207Y-96010925D01*
X145906790Y-96027962D01*
X145167093Y-96767658D01*
X145250028Y-96827914D01*
X145460397Y-96935102D01*
X145684952Y-97008065D01*
X145684951Y-97008065D01*
X145918148Y-97045000D01*
X146154252Y-97045000D01*
X146387447Y-97008065D01*
X146612002Y-96935102D01*
X146822363Y-96827918D01*
X146822369Y-96827914D01*
X146905304Y-96767658D01*
X146905305Y-96767658D01*
X146165608Y-96027962D01*
X146229193Y-96010925D01*
X146343207Y-95945099D01*
X146436299Y-95852007D01*
X146502125Y-95737993D01*
X146519162Y-95674408D01*
X147258858Y-96414105D01*
X147258858Y-96414104D01*
X147319114Y-96331169D01*
X147319118Y-96331163D01*
X147426302Y-96120802D01*
X147499265Y-95896247D01*
X147536200Y-95663052D01*
X147536200Y-95426947D01*
X147499265Y-95193752D01*
X147426302Y-94969197D01*
X147319114Y-94758828D01*
X147258858Y-94675894D01*
X147258858Y-94675893D01*
X146519162Y-95415590D01*
X146502125Y-95352007D01*
X146436299Y-95237993D01*
X146343207Y-95144901D01*
X146229193Y-95079075D01*
X146165609Y-95062037D01*
X146905305Y-94322340D01*
X146905304Y-94322338D01*
X146822374Y-94262087D01*
X146612002Y-94154897D01*
X146387447Y-94081934D01*
X146387448Y-94081934D01*
X146154252Y-94045000D01*
X145918148Y-94045000D01*
X145684952Y-94081934D01*
X145460397Y-94154897D01*
X145250030Y-94262084D01*
X145167094Y-94322340D01*
X145906791Y-95062037D01*
X145843207Y-95079075D01*
X145729193Y-95144901D01*
X145636101Y-95237993D01*
X145570275Y-95352007D01*
X145553237Y-95415591D01*
X144813540Y-94675894D01*
X144753284Y-94758830D01*
X144646097Y-94969197D01*
X144573134Y-95193752D01*
X144536200Y-95426947D01*
X137536699Y-95426947D01*
X137536699Y-94497128D01*
X137530291Y-94437517D01*
X137530290Y-94437514D01*
X137521122Y-94412931D01*
X137479997Y-94302671D01*
X137479993Y-94302664D01*
X137393747Y-94187455D01*
X137393744Y-94187452D01*
X137278535Y-94101206D01*
X137278528Y-94101202D01*
X137143682Y-94050908D01*
X137143683Y-94050908D01*
X137084083Y-94044501D01*
X137084081Y-94044500D01*
X137084073Y-94044500D01*
X137084064Y-94044500D01*
X134988329Y-94044500D01*
X134988323Y-94044501D01*
X134928716Y-94050908D01*
X134793871Y-94101202D01*
X134793864Y-94101206D01*
X134678655Y-94187452D01*
X134678652Y-94187455D01*
X134592406Y-94302664D01*
X134592402Y-94302671D01*
X134542108Y-94437517D01*
X134535701Y-94497116D01*
X134535701Y-94497123D01*
X134535700Y-94497135D01*
X134535700Y-96592870D01*
X134535701Y-96592876D01*
X134542108Y-96652483D01*
X134592402Y-96787328D01*
X134592406Y-96787335D01*
X134678652Y-96902544D01*
X134678655Y-96902547D01*
X134793864Y-96988793D01*
X134801654Y-96993047D01*
X134800239Y-96995637D01*
X134844285Y-97028604D01*
X134868706Y-97094067D01*
X134853859Y-97162341D01*
X134832704Y-97190603D01*
X133810481Y-98212827D01*
X133749158Y-98246312D01*
X133679466Y-98241328D01*
X133623533Y-98199456D01*
X133599116Y-98133992D01*
X133598800Y-98125146D01*
X133598800Y-93077135D01*
X149374500Y-93077135D01*
X149374500Y-94672870D01*
X149374501Y-94672876D01*
X149380908Y-94732483D01*
X149431202Y-94867328D01*
X149431206Y-94867335D01*
X149517452Y-94982544D01*
X149517455Y-94982547D01*
X149632664Y-95068793D01*
X149632671Y-95068797D01*
X149767517Y-95119091D01*
X149767516Y-95119091D01*
X149774444Y-95119835D01*
X149827127Y-95125500D01*
X155002872Y-95125499D01*
X155062483Y-95119091D01*
X155197331Y-95068796D01*
X155312546Y-94982546D01*
X155398796Y-94867331D01*
X155426868Y-94792067D01*
X155468737Y-94736135D01*
X155534201Y-94711717D01*
X155543049Y-94711401D01*
X155560321Y-94711401D01*
X155560341Y-94711400D01*
X167875793Y-94711400D01*
X167886950Y-94711400D01*
X167953989Y-94731085D01*
X167999744Y-94783889D01*
X168003132Y-94792067D01*
X168031202Y-94867328D01*
X168031206Y-94867335D01*
X168117452Y-94982544D01*
X168117455Y-94982547D01*
X168232664Y-95068793D01*
X168232671Y-95068797D01*
X168367517Y-95119091D01*
X168367516Y-95119091D01*
X168374444Y-95119835D01*
X168427127Y-95125500D01*
X173602872Y-95125499D01*
X173662483Y-95119091D01*
X173797331Y-95068796D01*
X173912546Y-94982546D01*
X173998796Y-94867331D01*
X174049091Y-94732483D01*
X174055500Y-94672873D01*
X174055499Y-93077128D01*
X174049091Y-93017517D01*
X173998796Y-92882669D01*
X173912546Y-92767454D01*
X173912544Y-92767453D01*
X173912544Y-92767452D01*
X173882529Y-92744983D01*
X187823300Y-92744983D01*
X187823300Y-94345001D01*
X187823301Y-94345018D01*
X187833800Y-94447796D01*
X187833801Y-94447799D01*
X187850148Y-94497129D01*
X187888986Y-94614334D01*
X187981088Y-94763656D01*
X188105144Y-94887712D01*
X188254466Y-94979814D01*
X188421003Y-95034999D01*
X188523791Y-95045500D01*
X190123808Y-95045499D01*
X190226597Y-95034999D01*
X190393134Y-94979814D01*
X190542456Y-94887712D01*
X190666512Y-94763656D01*
X190758614Y-94614334D01*
X190813799Y-94447797D01*
X190824300Y-94345009D01*
X190824299Y-93426947D01*
X192823800Y-93426947D01*
X192823800Y-93663052D01*
X192860734Y-93896247D01*
X192933697Y-94120802D01*
X193040887Y-94331174D01*
X193101138Y-94414104D01*
X193101140Y-94414105D01*
X193840837Y-93674408D01*
X193857875Y-93737993D01*
X193923701Y-93852007D01*
X194016793Y-93945099D01*
X194130807Y-94010925D01*
X194194390Y-94027962D01*
X193454693Y-94767658D01*
X193537628Y-94827914D01*
X193747997Y-94935102D01*
X193972552Y-95008065D01*
X193972551Y-95008065D01*
X194205748Y-95045000D01*
X194441852Y-95045000D01*
X194675047Y-95008065D01*
X194899602Y-94935102D01*
X195109963Y-94827918D01*
X195109969Y-94827914D01*
X195192904Y-94767658D01*
X195192905Y-94767658D01*
X194453208Y-94027962D01*
X194516793Y-94010925D01*
X194630807Y-93945099D01*
X194723899Y-93852007D01*
X194789725Y-93737993D01*
X194806762Y-93674409D01*
X195546458Y-94414105D01*
X195546458Y-94414104D01*
X195606714Y-94331169D01*
X195606718Y-94331163D01*
X195713902Y-94120802D01*
X195786865Y-93896247D01*
X195823800Y-93663052D01*
X195823800Y-93426947D01*
X195786865Y-93193752D01*
X195713902Y-92969197D01*
X195606714Y-92758828D01*
X195546458Y-92675894D01*
X195546458Y-92675893D01*
X194806762Y-93415590D01*
X194789725Y-93352007D01*
X194723899Y-93237993D01*
X194630807Y-93144901D01*
X194516793Y-93079075D01*
X194453209Y-93062037D01*
X195192905Y-92322340D01*
X195192904Y-92322338D01*
X195109974Y-92262087D01*
X194899602Y-92154897D01*
X194675047Y-92081934D01*
X194675048Y-92081934D01*
X194441852Y-92045000D01*
X194205748Y-92045000D01*
X193972552Y-92081934D01*
X193747997Y-92154897D01*
X193537630Y-92262084D01*
X193454694Y-92322340D01*
X194194391Y-93062037D01*
X194130807Y-93079075D01*
X194016793Y-93144901D01*
X193923701Y-93237993D01*
X193857875Y-93352007D01*
X193840837Y-93415590D01*
X193101140Y-92675894D01*
X193040884Y-92758830D01*
X192933697Y-92969197D01*
X192860734Y-93193752D01*
X192823800Y-93426947D01*
X190824299Y-93426947D01*
X190824299Y-92744992D01*
X190817240Y-92675893D01*
X190813799Y-92642203D01*
X190813798Y-92642200D01*
X190758614Y-92475666D01*
X190666512Y-92326344D01*
X190542456Y-92202288D01*
X190393134Y-92110186D01*
X190226597Y-92055001D01*
X190226595Y-92055000D01*
X190123810Y-92044500D01*
X188523798Y-92044500D01*
X188523781Y-92044501D01*
X188421003Y-92055000D01*
X188421000Y-92055001D01*
X188254468Y-92110185D01*
X188254463Y-92110187D01*
X188105142Y-92202289D01*
X187981089Y-92326342D01*
X187888987Y-92475663D01*
X187888986Y-92475666D01*
X187833801Y-92642203D01*
X187833801Y-92642204D01*
X187833800Y-92642204D01*
X187823300Y-92744983D01*
X173882529Y-92744983D01*
X173797335Y-92681206D01*
X173797328Y-92681202D01*
X173662482Y-92630908D01*
X173662483Y-92630908D01*
X173602883Y-92624501D01*
X173602881Y-92624500D01*
X173602873Y-92624500D01*
X173602864Y-92624500D01*
X168427129Y-92624500D01*
X168427123Y-92624501D01*
X168367516Y-92630908D01*
X168232671Y-92681202D01*
X168232664Y-92681206D01*
X168117455Y-92767452D01*
X168117452Y-92767455D01*
X168031206Y-92882664D01*
X168031202Y-92882671D01*
X167980908Y-93017517D01*
X167977954Y-93045000D01*
X167974501Y-93077123D01*
X167974500Y-93077135D01*
X167974500Y-93187098D01*
X167954815Y-93254137D01*
X167902011Y-93299892D01*
X167897954Y-93301659D01*
X167852015Y-93320687D01*
X167749566Y-93389141D01*
X167749563Y-93389144D01*
X167714629Y-93424080D01*
X167653307Y-93457566D01*
X167626947Y-93460400D01*
X155803053Y-93460400D01*
X155736014Y-93440715D01*
X155715371Y-93424080D01*
X155680436Y-93389144D01*
X155680433Y-93389141D01*
X155629209Y-93354915D01*
X155577987Y-93320689D01*
X155577988Y-93320689D01*
X155577986Y-93320688D01*
X155561466Y-93313845D01*
X155532046Y-93301659D01*
X155477643Y-93257818D01*
X155455578Y-93191523D01*
X155455499Y-93187098D01*
X155455499Y-93077129D01*
X155455498Y-93077123D01*
X155455497Y-93077116D01*
X155449091Y-93017517D01*
X155398796Y-92882669D01*
X155398795Y-92882668D01*
X155398793Y-92882664D01*
X155312547Y-92767455D01*
X155312544Y-92767452D01*
X155197335Y-92681206D01*
X155197328Y-92681202D01*
X155062482Y-92630908D01*
X155062483Y-92630908D01*
X155002883Y-92624501D01*
X155002881Y-92624500D01*
X155002873Y-92624500D01*
X155002864Y-92624500D01*
X149827129Y-92624500D01*
X149827123Y-92624501D01*
X149767516Y-92630908D01*
X149632671Y-92681202D01*
X149632664Y-92681206D01*
X149517455Y-92767452D01*
X149517452Y-92767455D01*
X149431206Y-92882664D01*
X149431202Y-92882671D01*
X149380908Y-93017517D01*
X149377954Y-93045000D01*
X149374501Y-93077123D01*
X149374500Y-93077135D01*
X133598800Y-93077135D01*
X133598800Y-92527051D01*
X133618485Y-92460012D01*
X133635115Y-92439374D01*
X134392697Y-91681791D01*
X134454018Y-91648308D01*
X134456028Y-91647889D01*
X134567397Y-91625737D01*
X134713079Y-91565394D01*
X134844189Y-91477789D01*
X134955689Y-91366289D01*
X135043294Y-91235179D01*
X135103637Y-91089497D01*
X135134400Y-90934842D01*
X135134400Y-90777158D01*
X135134400Y-90777155D01*
X135134399Y-90777153D01*
X135103638Y-90622510D01*
X135103638Y-90622508D01*
X135103637Y-90622503D01*
X135096573Y-90605448D01*
X135043297Y-90476827D01*
X135043290Y-90476814D01*
X135007228Y-90422844D01*
X149375000Y-90422844D01*
X149381401Y-90482372D01*
X149381403Y-90482379D01*
X149431645Y-90617086D01*
X149431649Y-90617093D01*
X149517809Y-90732187D01*
X149517812Y-90732190D01*
X149632906Y-90818350D01*
X149632913Y-90818354D01*
X149767620Y-90868596D01*
X149767627Y-90868598D01*
X149827155Y-90874999D01*
X149827172Y-90875000D01*
X152165000Y-90875000D01*
X152665000Y-90875000D01*
X155002828Y-90875000D01*
X155002844Y-90874999D01*
X155062372Y-90868598D01*
X155062379Y-90868596D01*
X155197086Y-90818354D01*
X155197093Y-90818350D01*
X155312187Y-90732190D01*
X155312190Y-90732187D01*
X155398350Y-90617093D01*
X155398354Y-90617086D01*
X155448596Y-90482379D01*
X155448598Y-90482372D01*
X155454999Y-90422844D01*
X167975000Y-90422844D01*
X167981401Y-90482372D01*
X167981403Y-90482379D01*
X168031645Y-90617086D01*
X168031649Y-90617093D01*
X168117809Y-90732187D01*
X168117812Y-90732190D01*
X168232906Y-90818350D01*
X168232913Y-90818354D01*
X168367620Y-90868596D01*
X168367627Y-90868598D01*
X168427155Y-90874999D01*
X168427172Y-90875000D01*
X170765000Y-90875000D01*
X171265000Y-90875000D01*
X173602828Y-90875000D01*
X173602844Y-90874999D01*
X173662372Y-90868598D01*
X173662379Y-90868596D01*
X173797086Y-90818354D01*
X173797093Y-90818350D01*
X173912187Y-90732190D01*
X173912190Y-90732187D01*
X173998350Y-90617093D01*
X173998354Y-90617086D01*
X174048596Y-90482379D01*
X174048598Y-90482372D01*
X174054999Y-90422844D01*
X174055000Y-90422827D01*
X174055000Y-89875000D01*
X171265000Y-89875000D01*
X171265000Y-90875000D01*
X170765000Y-90875000D01*
X170765000Y-89875000D01*
X167975000Y-89875000D01*
X167975000Y-90422844D01*
X155454999Y-90422844D01*
X155455000Y-90422827D01*
X155455000Y-89875000D01*
X152665000Y-89875000D01*
X152665000Y-90875000D01*
X152165000Y-90875000D01*
X152165000Y-89875000D01*
X149375000Y-89875000D01*
X149375000Y-90422844D01*
X135007228Y-90422844D01*
X134955689Y-90345711D01*
X134955686Y-90345707D01*
X134844192Y-90234213D01*
X134844188Y-90234210D01*
X134713085Y-90146609D01*
X134713072Y-90146602D01*
X134567401Y-90086264D01*
X134567389Y-90086261D01*
X134412745Y-90055500D01*
X134412742Y-90055500D01*
X134255058Y-90055500D01*
X134255055Y-90055500D01*
X134100410Y-90086261D01*
X134100398Y-90086264D01*
X133954727Y-90146602D01*
X133954714Y-90146609D01*
X133823611Y-90234210D01*
X133823607Y-90234213D01*
X133712113Y-90345707D01*
X133712110Y-90345711D01*
X133624509Y-90476814D01*
X133624502Y-90476827D01*
X133564164Y-90622498D01*
X133564161Y-90622508D01*
X133542041Y-90733714D01*
X133509656Y-90795625D01*
X133508105Y-90797203D01*
X132574570Y-91730739D01*
X132487444Y-91817864D01*
X132487438Y-91817872D01*
X132418992Y-91920305D01*
X132418984Y-91920319D01*
X132385647Y-92000807D01*
X132380123Y-92014143D01*
X132371837Y-92034145D01*
X132371835Y-92034153D01*
X132347800Y-92154989D01*
X132347800Y-103674447D01*
X132328115Y-103741486D01*
X132311481Y-103762128D01*
X131524703Y-104548905D01*
X131463380Y-104582390D01*
X131461214Y-104582841D01*
X131367692Y-104601444D01*
X131298100Y-104595217D01*
X131242923Y-104552354D01*
X131219678Y-104486464D01*
X131219500Y-104479827D01*
X131219500Y-97843440D01*
X131239185Y-97776401D01*
X131255814Y-97755763D01*
X131359389Y-97652189D01*
X131446994Y-97521079D01*
X131507337Y-97375397D01*
X131538100Y-97220742D01*
X131538100Y-97063058D01*
X131538100Y-97063055D01*
X131538099Y-97063053D01*
X131523328Y-96988796D01*
X131507337Y-96908403D01*
X131496153Y-96881403D01*
X131446997Y-96762727D01*
X131446990Y-96762714D01*
X131359389Y-96631611D01*
X131359386Y-96631607D01*
X131247892Y-96520113D01*
X131247888Y-96520110D01*
X131116785Y-96432509D01*
X131116772Y-96432502D01*
X130971101Y-96372164D01*
X130971089Y-96372161D01*
X130816445Y-96341400D01*
X130816442Y-96341400D01*
X130749600Y-96341400D01*
X130682561Y-96321715D01*
X130636806Y-96268911D01*
X130625600Y-96217400D01*
X130625600Y-92134851D01*
X130645285Y-92067812D01*
X130661915Y-92047174D01*
X131027297Y-91681791D01*
X131088618Y-91648308D01*
X131090628Y-91647889D01*
X131201997Y-91625737D01*
X131347679Y-91565394D01*
X131478789Y-91477789D01*
X131590289Y-91366289D01*
X131677894Y-91235179D01*
X131738237Y-91089497D01*
X131769000Y-90934842D01*
X131769000Y-90777158D01*
X131769000Y-90777155D01*
X131768999Y-90777153D01*
X131738238Y-90622510D01*
X131738238Y-90622508D01*
X131738237Y-90622503D01*
X131731173Y-90605448D01*
X131677897Y-90476827D01*
X131677890Y-90476814D01*
X131590289Y-90345711D01*
X131590286Y-90345707D01*
X131478792Y-90234213D01*
X131478788Y-90234210D01*
X131347685Y-90146609D01*
X131347672Y-90146602D01*
X131202001Y-90086264D01*
X131201989Y-90086261D01*
X131047345Y-90055500D01*
X131047342Y-90055500D01*
X130889658Y-90055500D01*
X130889655Y-90055500D01*
X130735010Y-90086261D01*
X130734998Y-90086264D01*
X130589327Y-90146602D01*
X130589314Y-90146609D01*
X130458211Y-90234210D01*
X130458207Y-90234213D01*
X130346713Y-90345707D01*
X130346710Y-90345711D01*
X130259109Y-90476814D01*
X130259102Y-90476827D01*
X130198764Y-90622498D01*
X130198761Y-90622508D01*
X130176641Y-90733714D01*
X130144256Y-90795625D01*
X130142705Y-90797203D01*
X129601369Y-91338540D01*
X129514244Y-91425664D01*
X129514238Y-91425672D01*
X129445790Y-91528108D01*
X129445788Y-91528113D01*
X129419699Y-91591099D01*
X129419699Y-91591100D01*
X129398638Y-91641945D01*
X129398635Y-91641955D01*
X129374600Y-91762789D01*
X129374600Y-101498159D01*
X129354915Y-101565198D01*
X129338281Y-101585840D01*
X129286613Y-101637507D01*
X129286610Y-101637511D01*
X129199009Y-101768614D01*
X129199002Y-101768627D01*
X129138664Y-101914298D01*
X129138661Y-101914310D01*
X129107900Y-102068953D01*
X129107900Y-102226646D01*
X129138661Y-102381289D01*
X129138664Y-102381301D01*
X129199002Y-102526972D01*
X129199009Y-102526985D01*
X129286610Y-102658088D01*
X129286613Y-102658092D01*
X129338280Y-102709758D01*
X129371766Y-102771081D01*
X129374600Y-102797440D01*
X129374600Y-129600447D01*
X129354915Y-129667486D01*
X129338281Y-129688128D01*
X128922803Y-130103605D01*
X128861480Y-130137090D01*
X128859314Y-130137541D01*
X128748108Y-130159661D01*
X128748098Y-130159664D01*
X128602427Y-130220002D01*
X128602414Y-130220009D01*
X128471311Y-130307610D01*
X128471307Y-130307613D01*
X128359813Y-130419107D01*
X128359810Y-130419111D01*
X128272209Y-130550214D01*
X128272202Y-130550227D01*
X128211864Y-130695898D01*
X128211861Y-130695910D01*
X128181100Y-130850553D01*
X123566053Y-130850553D01*
X110367253Y-117651753D01*
X117946200Y-117651753D01*
X117946200Y-117809446D01*
X117976961Y-117964089D01*
X117976964Y-117964101D01*
X118037302Y-118109772D01*
X118037309Y-118109785D01*
X118124910Y-118240888D01*
X118124913Y-118240892D01*
X118236407Y-118352386D01*
X118236411Y-118352389D01*
X118367514Y-118439990D01*
X118367527Y-118439997D01*
X118513198Y-118500335D01*
X118513203Y-118500337D01*
X118667853Y-118531099D01*
X118667856Y-118531100D01*
X118667858Y-118531100D01*
X118825544Y-118531100D01*
X118825545Y-118531099D01*
X118980197Y-118500337D01*
X119125879Y-118439994D01*
X119256989Y-118352389D01*
X119368489Y-118240889D01*
X119456094Y-118109779D01*
X119516437Y-117964097D01*
X119547200Y-117809442D01*
X119547200Y-117651758D01*
X119547200Y-117651755D01*
X119547199Y-117651753D01*
X119516438Y-117497110D01*
X119516437Y-117497103D01*
X119456094Y-117351421D01*
X119393097Y-117257139D01*
X119372220Y-117190463D01*
X119372200Y-117188250D01*
X119372200Y-107776851D01*
X119391885Y-107709812D01*
X119408514Y-107689175D01*
X124322029Y-102775660D01*
X124322033Y-102775658D01*
X124409158Y-102688533D01*
X124477611Y-102586086D01*
X124477612Y-102586085D01*
X124477613Y-102586082D01*
X124477615Y-102586079D01*
X124487972Y-102561072D01*
X124524763Y-102472251D01*
X124548800Y-102351407D01*
X124548800Y-102228193D01*
X124548800Y-101401793D01*
X124568485Y-101334754D01*
X124621289Y-101288999D01*
X124647201Y-101284244D01*
X125557421Y-100374024D01*
X125570359Y-100405258D01*
X125652437Y-100528097D01*
X125756903Y-100632563D01*
X125879742Y-100714641D01*
X125910974Y-100727577D01*
X125008633Y-101629917D01*
X125008633Y-101629918D01*
X125121475Y-101716505D01*
X125121483Y-101716511D01*
X125348517Y-101847590D01*
X125348528Y-101847595D01*
X125590744Y-101947924D01*
X125843979Y-102015777D01*
X125843990Y-102015779D01*
X126103905Y-102049999D01*
X126103920Y-102050000D01*
X126366080Y-102050000D01*
X126366094Y-102049999D01*
X126626009Y-102015779D01*
X126626020Y-102015777D01*
X126879255Y-101947924D01*
X127121471Y-101847595D01*
X127121482Y-101847590D01*
X127348516Y-101716511D01*
X127348534Y-101716499D01*
X127461365Y-101629919D01*
X127461365Y-101629917D01*
X126559025Y-100727578D01*
X126590258Y-100714641D01*
X126713097Y-100632563D01*
X126817563Y-100528097D01*
X126899641Y-100405258D01*
X126912577Y-100374025D01*
X127814917Y-101276365D01*
X127814919Y-101276365D01*
X127901499Y-101163534D01*
X127901511Y-101163516D01*
X128032590Y-100936482D01*
X128032595Y-100936471D01*
X128132924Y-100694255D01*
X128200777Y-100441020D01*
X128200779Y-100441009D01*
X128234999Y-100181094D01*
X128235000Y-100181080D01*
X128235000Y-99918919D01*
X128234999Y-99918905D01*
X128200779Y-99658990D01*
X128200777Y-99658979D01*
X128132924Y-99405744D01*
X128032595Y-99163528D01*
X128032590Y-99163517D01*
X127901511Y-98936483D01*
X127901505Y-98936475D01*
X127814918Y-98823633D01*
X127814917Y-98823633D01*
X126912577Y-99725973D01*
X126899641Y-99694742D01*
X126817563Y-99571903D01*
X126713097Y-99467437D01*
X126590258Y-99385359D01*
X126559023Y-99372421D01*
X127461365Y-98470080D01*
X127348524Y-98383494D01*
X127348516Y-98383488D01*
X127121482Y-98252409D01*
X127121471Y-98252404D01*
X126879255Y-98152075D01*
X126626020Y-98084222D01*
X126626009Y-98084220D01*
X126366094Y-98050000D01*
X126103905Y-98050000D01*
X125843990Y-98084220D01*
X125843979Y-98084222D01*
X125590744Y-98152075D01*
X125348528Y-98252404D01*
X125348517Y-98252409D01*
X125121471Y-98383496D01*
X125008633Y-98470079D01*
X125008633Y-98470080D01*
X125910974Y-99372421D01*
X125879742Y-99385359D01*
X125756903Y-99467437D01*
X125652437Y-99571903D01*
X125570359Y-99694742D01*
X125557421Y-99725974D01*
X124650067Y-98818620D01*
X124634684Y-98811595D01*
X124612725Y-98806681D01*
X124603515Y-98797361D01*
X124591597Y-98791918D01*
X124579430Y-98772986D01*
X124563615Y-98756981D01*
X124560046Y-98742824D01*
X124553823Y-98733140D01*
X124548800Y-98698205D01*
X124548800Y-91098351D01*
X124568485Y-91031312D01*
X124585115Y-91010674D01*
X125357597Y-90238191D01*
X125418918Y-90204708D01*
X125420928Y-90204289D01*
X125532297Y-90182137D01*
X125677979Y-90121794D01*
X125809089Y-90034189D01*
X125920589Y-89922689D01*
X126008194Y-89791579D01*
X126068537Y-89645897D01*
X126099300Y-89491242D01*
X126099300Y-89333558D01*
X126099300Y-89333555D01*
X126099299Y-89333553D01*
X126068538Y-89178910D01*
X126068538Y-89178908D01*
X126068537Y-89178903D01*
X126068535Y-89178898D01*
X126008197Y-89033227D01*
X126008190Y-89033214D01*
X125920588Y-88902109D01*
X125845634Y-88827155D01*
X149375000Y-88827155D01*
X149375000Y-89375000D01*
X152165000Y-89375000D01*
X152665000Y-89375000D01*
X155455000Y-89375000D01*
X155455000Y-88827172D01*
X155454999Y-88827155D01*
X167975000Y-88827155D01*
X167975000Y-89375000D01*
X170765000Y-89375000D01*
X171265000Y-89375000D01*
X174055000Y-89375000D01*
X174055000Y-88827172D01*
X174054999Y-88827155D01*
X174048598Y-88767627D01*
X174048596Y-88767620D01*
X173998354Y-88632913D01*
X173998350Y-88632906D01*
X173912190Y-88517812D01*
X173912187Y-88517809D01*
X173797093Y-88431649D01*
X173797086Y-88431645D01*
X173662379Y-88381403D01*
X173662372Y-88381401D01*
X173602844Y-88375000D01*
X171265000Y-88375000D01*
X171265000Y-89375000D01*
X170765000Y-89375000D01*
X170765000Y-88375000D01*
X168427155Y-88375000D01*
X168367627Y-88381401D01*
X168367620Y-88381403D01*
X168232913Y-88431645D01*
X168232906Y-88431649D01*
X168117812Y-88517809D01*
X168117809Y-88517812D01*
X168031649Y-88632906D01*
X168031645Y-88632913D01*
X167981403Y-88767620D01*
X167981401Y-88767627D01*
X167975000Y-88827155D01*
X155454999Y-88827155D01*
X155448598Y-88767627D01*
X155448596Y-88767620D01*
X155398354Y-88632913D01*
X155398350Y-88632906D01*
X155312190Y-88517812D01*
X155312187Y-88517809D01*
X155197093Y-88431649D01*
X155197086Y-88431645D01*
X155062379Y-88381403D01*
X155062372Y-88381401D01*
X155002844Y-88375000D01*
X152665000Y-88375000D01*
X152665000Y-89375000D01*
X152165000Y-89375000D01*
X152165000Y-88375000D01*
X149827155Y-88375000D01*
X149767627Y-88381401D01*
X149767620Y-88381403D01*
X149632913Y-88431645D01*
X149632906Y-88431649D01*
X149517812Y-88517809D01*
X149517809Y-88517812D01*
X149431649Y-88632906D01*
X149431645Y-88632913D01*
X149381403Y-88767620D01*
X149381401Y-88767627D01*
X149375000Y-88827155D01*
X125845634Y-88827155D01*
X125809092Y-88790613D01*
X125809088Y-88790610D01*
X125677985Y-88703009D01*
X125677972Y-88703002D01*
X125532301Y-88642664D01*
X125532289Y-88642661D01*
X125377645Y-88611900D01*
X125377642Y-88611900D01*
X125219958Y-88611900D01*
X125219955Y-88611900D01*
X125065310Y-88642661D01*
X125065298Y-88642664D01*
X124919627Y-88703002D01*
X124919614Y-88703009D01*
X124788511Y-88790610D01*
X124788507Y-88790613D01*
X124677013Y-88902107D01*
X124677010Y-88902111D01*
X124589409Y-89033214D01*
X124589402Y-89033227D01*
X124529064Y-89178898D01*
X124529061Y-89178908D01*
X124506941Y-89290114D01*
X124474556Y-89352025D01*
X124473005Y-89353603D01*
X123524570Y-90302039D01*
X123437444Y-90389164D01*
X123437438Y-90389172D01*
X123368990Y-90491608D01*
X123368988Y-90491613D01*
X123340781Y-90559712D01*
X123321838Y-90605443D01*
X123321838Y-90605445D01*
X123321837Y-90605448D01*
X123297800Y-90726294D01*
X123297800Y-90726296D01*
X123297800Y-101979347D01*
X123278115Y-102046386D01*
X123261481Y-102067028D01*
X120819706Y-104508803D01*
X118347970Y-106980539D01*
X118347967Y-106980542D01*
X118321151Y-107007358D01*
X118260842Y-107067666D01*
X118240097Y-107098714D01*
X118240096Y-107098713D01*
X118192389Y-107170112D01*
X118192387Y-107170116D01*
X118163856Y-107238997D01*
X118145239Y-107283940D01*
X118145235Y-107283955D01*
X118121200Y-107404789D01*
X118121200Y-117188250D01*
X118101515Y-117255289D01*
X118100302Y-117257141D01*
X118037309Y-117351415D01*
X118037302Y-117351428D01*
X117976964Y-117497098D01*
X117976961Y-117497110D01*
X117946200Y-117651753D01*
X110367253Y-117651753D01*
X106681819Y-113966319D01*
X106648334Y-113904996D01*
X106645500Y-113878638D01*
X106645500Y-102174499D01*
X106665185Y-102107460D01*
X106717989Y-102061705D01*
X106769500Y-102050499D01*
X107292871Y-102050499D01*
X107292872Y-102050499D01*
X107352483Y-102044091D01*
X107487331Y-101993796D01*
X107602546Y-101907546D01*
X107688796Y-101792331D01*
X107739091Y-101657483D01*
X107745500Y-101597873D01*
X107745499Y-98502128D01*
X107739091Y-98442517D01*
X107739089Y-98442512D01*
X107688797Y-98307671D01*
X107688793Y-98307664D01*
X107602547Y-98192455D01*
X107602544Y-98192452D01*
X107487335Y-98106206D01*
X107487328Y-98106202D01*
X107352482Y-98055908D01*
X107352483Y-98055908D01*
X107292883Y-98049501D01*
X107292881Y-98049500D01*
X107292873Y-98049500D01*
X107292864Y-98049500D01*
X104197129Y-98049500D01*
X104197123Y-98049501D01*
X104137516Y-98055908D01*
X104002671Y-98106202D01*
X104002664Y-98106206D01*
X103887455Y-98192452D01*
X103887452Y-98192455D01*
X103801206Y-98307664D01*
X103801202Y-98307671D01*
X103750908Y-98442517D01*
X103744501Y-98502116D01*
X103744501Y-98502123D01*
X103744500Y-98502135D01*
X102000000Y-98502135D01*
X102000000Y-83113389D01*
X110948800Y-83113389D01*
X110948800Y-83286611D01*
X110975898Y-83457701D01*
X111029427Y-83622445D01*
X111108068Y-83776788D01*
X111209886Y-83916928D01*
X111332372Y-84039414D01*
X111472512Y-84141232D01*
X111626855Y-84219873D01*
X111791599Y-84273402D01*
X111962689Y-84300500D01*
X111962690Y-84300500D01*
X112135910Y-84300500D01*
X112135911Y-84300500D01*
X112307001Y-84273402D01*
X112471745Y-84219873D01*
X112626088Y-84141232D01*
X112766228Y-84039414D01*
X112888714Y-83916928D01*
X112990532Y-83776788D01*
X113069173Y-83622445D01*
X113122702Y-83457701D01*
X113149800Y-83286611D01*
X113149800Y-83113389D01*
X113122702Y-82942299D01*
X113069173Y-82777555D01*
X112990532Y-82623212D01*
X112888714Y-82483072D01*
X112766228Y-82360586D01*
X112626088Y-82258768D01*
X112471745Y-82180127D01*
X112307001Y-82126598D01*
X112306999Y-82126597D01*
X112306998Y-82126597D01*
X112175571Y-82105781D01*
X112135911Y-82099500D01*
X111962689Y-82099500D01*
X111923028Y-82105781D01*
X111791602Y-82126597D01*
X111626852Y-82180128D01*
X111472511Y-82258768D01*
X111392556Y-82316859D01*
X111332372Y-82360586D01*
X111332370Y-82360588D01*
X111332369Y-82360588D01*
X111209888Y-82483069D01*
X111209888Y-82483070D01*
X111209886Y-82483072D01*
X111166159Y-82543256D01*
X111108068Y-82623211D01*
X111029428Y-82777552D01*
X110975897Y-82942302D01*
X110966759Y-83000000D01*
X110948800Y-83113389D01*
X102000000Y-83113389D01*
X102000000Y-81124000D01*
X102019685Y-81056961D01*
X102072489Y-81011206D01*
X102124000Y-81000000D01*
X198849904Y-81000000D01*
X198916943Y-81019685D01*
G37*
%TD.AperFunction*%
%TD*%
M02*
