M48
; DRILL file KiCad 10.0.5 date 2026-07-29T02:28:51
; FORMAT={-:-/ absolute / metric / decimal}
; #@! TF.CreationDate,2026-07-29T02:28:51-07:00
; #@! TF.GenerationSoftware,Kicad,Pcbnew,10.0.5
; #@! TF.FileFunction,Plated,1,2,PTH
FMAT,2
METRIC
; #@! TA.AperFunction,Plated,PTH,ComponentDrill
T1C0.200
; #@! TA.AperFunction,Plated,PTH,ViaDrill
T2C0.300
; #@! TA.AperFunction,Plated,PTH,ViaDrill
T3C0.400
; #@! TA.AperFunction,Plated,PTH,ComponentDrill
T4C0.900
; #@! TA.AperFunction,Plated,PTH,ComponentDrill
T5C1.000
; #@! TA.AperFunction,Plated,PTH,ComponentDrill
T6C1.100
; #@! TA.AperFunction,Plated,PTH,ComponentDrill
T7C1.300
; #@! TA.AperFunction,Plated,PTH,ComponentDrill
T8C1.500
%
G90
G05
T1
X126.41Y-125.795
X126.41Y-127.195
X127.11Y-125.095
X127.11Y-126.495
X127.11Y-127.895
X127.81Y-125.795
X127.81Y-127.195
X128.51Y-125.095
X128.51Y-126.495
X128.51Y-127.895
X129.21Y-125.795
X129.21Y-127.195
T2
X118.747Y-117.731
X125.299Y-89.412
X128.982Y-130.929
X129.908Y-102.148
X130.453Y-131.697
X130.738Y-97.142
X130.969Y-90.856
X131.288Y-126.258
X131.583Y-105.375
X134.334Y-90.856
X161.262Y-103.289
T3
X103.75Y-82.75
X103.75Y-86.25
X103.75Y-93.25
X103.75Y-96.75
X103.75Y-103.75
X103.75Y-107.25
X103.75Y-110.75
X103.75Y-114.25
X103.75Y-117.75
X103.75Y-121.25
X103.75Y-124.75
X103.75Y-128.25
X103.75Y-131.75
X103.75Y-135.25
X103.75Y-138.75
X103.75Y-142.25
X103.75Y-145.75
X103.75Y-149.25
X104.045Y-91.4
X107.25Y-82.75
X107.25Y-86.25
X107.25Y-93.25
X107.25Y-96.75
X107.25Y-103.75
X107.25Y-107.25
X107.25Y-110.75
X107.25Y-114.25
X107.25Y-117.75
X107.25Y-121.25
X107.25Y-124.75
X107.25Y-128.25
X107.25Y-131.75
X107.25Y-135.25
X107.25Y-138.75
X107.25Y-142.25
X107.25Y-145.75
X107.25Y-149.25
X108.535Y-91.4
X110.75Y-86.25
X110.75Y-93.25
X110.75Y-96.75
X110.75Y-100.25
X110.75Y-103.75
X110.75Y-107.25
X110.75Y-110.75
X110.75Y-114.25
X110.75Y-117.75
X110.75Y-121.25
X110.75Y-124.75
X110.75Y-128.25
X110.75Y-131.75
X110.75Y-135.25
X110.75Y-138.75
X110.75Y-142.25
X110.75Y-145.75
X110.75Y-149.25
X113.025Y-91.4
X114.25Y-82.75
X114.25Y-86.25
X114.25Y-93.25
X114.25Y-96.75
X114.25Y-100.25
X114.25Y-103.75
X114.25Y-107.25
X114.25Y-110.75
X114.25Y-114.25
X114.25Y-117.75
X114.25Y-121.25
X114.25Y-124.75
X114.25Y-128.25
X114.25Y-131.75
X114.25Y-135.25
X114.25Y-138.75
X114.25Y-142.25
X114.25Y-145.75
X114.25Y-149.25
X117.515Y-91.4
X117.75Y-82.75
X117.75Y-86.25
X117.75Y-93.25
X117.75Y-96.75
X117.75Y-100.25
X117.75Y-103.75
X117.75Y-107.25
X117.75Y-110.75
X117.75Y-114.25
X117.75Y-138.75
X117.75Y-142.25
X117.75Y-145.75
X117.75Y-149.25
X119.92Y-130.71
X121.25Y-82.75
X121.25Y-86.25
X121.25Y-93.25
X121.25Y-96.75
X121.25Y-100.25
X121.25Y-103.75
X121.25Y-107.25
X121.25Y-110.75
X121.25Y-114.25
X121.25Y-121.25
X121.25Y-124.75
X121.25Y-128.25
X121.25Y-131.75
X121.25Y-138.75
X121.25Y-142.25
X121.25Y-145.75
X121.25Y-149.25
X124.75Y-82.75
X124.75Y-86.25
X124.75Y-93.25
X124.75Y-96.75
X124.75Y-103.75
X124.75Y-107.25
X124.75Y-110.75
X124.75Y-114.25
X124.75Y-121.25
X124.75Y-124.75
X124.75Y-128.25
X124.75Y-131.75
X124.75Y-138.75
X124.75Y-142.25
X124.75Y-145.75
X124.75Y-149.25
X126.235Y-97.15
X128.25Y-82.75
X128.25Y-86.25
X128.25Y-93.25
X128.25Y-96.75
X128.25Y-103.75
X128.25Y-107.25
X128.25Y-110.75
X128.25Y-114.25
X128.25Y-121.25
X128.25Y-131.75
X128.25Y-138.75
X128.25Y-142.25
X128.25Y-145.75
X128.25Y-149.25
X129.135Y-100.05
X131.75Y-82.75
X131.75Y-86.25
X131.75Y-93.25
X131.75Y-96.75
X131.75Y-100.25
X131.75Y-103.75
X131.75Y-107.25
X131.75Y-110.75
X131.75Y-114.25
X131.75Y-121.25
X131.75Y-124.75
X131.75Y-128.25
X131.75Y-131.75
X131.75Y-138.75
X131.75Y-142.25
X131.75Y-145.75
X131.75Y-149.25
X135.25Y-82.75
X135.25Y-86.25
X135.25Y-93.25
X135.25Y-100.25
X135.25Y-103.75
X135.25Y-110.75
X135.25Y-114.25
X135.25Y-138.75
X135.25Y-142.25
X135.25Y-145.75
X135.25Y-149.25
X135.53Y-135.895
X138.75Y-82.75
X138.75Y-86.25
X138.75Y-93.25
X138.75Y-96.75
X138.75Y-100.25
X138.75Y-103.75
X138.75Y-110.75
X138.75Y-114.25
X138.75Y-135.25
X138.75Y-138.75
X138.75Y-142.25
X138.75Y-145.75
X138.75Y-149.25
X142.25Y-82.75
X142.25Y-86.25
X142.25Y-93.25
X142.25Y-96.75
X142.25Y-100.25
X142.25Y-103.75
X142.25Y-110.75
X142.25Y-114.25
X142.25Y-135.25
X142.25Y-138.75
X142.25Y-142.25
X142.25Y-149.25
X145.75Y-82.75
X145.75Y-86.25
X145.75Y-93.25
X145.75Y-100.25
X145.75Y-103.75
X145.75Y-107.25
X145.75Y-110.75
X145.75Y-114.25
X145.75Y-117.75
X145.75Y-121.25
X145.75Y-124.75
X145.75Y-128.25
X145.75Y-131.75
X145.75Y-135.25
X145.75Y-138.75
X145.75Y-142.25
X145.75Y-145.75
X145.75Y-149.25
X145.774Y-105.375
X146.608Y-98.863
X148.134Y-138.438
X148.475Y-89.625
X149.25Y-82.75
X149.25Y-86.25
X149.25Y-100.25
X149.25Y-103.75
X149.25Y-107.25
X149.25Y-110.75
X149.25Y-114.25
X149.25Y-117.75
X149.25Y-121.25
X149.25Y-124.75
X149.25Y-128.25
X149.25Y-131.75
X149.25Y-135.25
X149.25Y-138.75
X149.25Y-142.25
X149.25Y-149.25
X150.007Y-87.217
X152.75Y-82.75
X152.75Y-86.25
X152.75Y-100.25
X152.75Y-110.75
X152.75Y-114.25
X152.75Y-117.75
X152.75Y-121.25
X152.75Y-124.75
X152.75Y-128.25
X152.75Y-131.75
X152.75Y-135.25
X152.75Y-138.75
X152.75Y-142.25
X152.75Y-145.75
X152.75Y-149.25
X154.823Y-87.217
X156.25Y-82.75
X156.25Y-86.25
X156.25Y-89.75
X156.25Y-93.25
X156.25Y-96.75
X156.25Y-100.25
X156.25Y-103.75
X156.25Y-110.75
X156.25Y-114.25
X156.25Y-117.75
X156.25Y-121.25
X156.25Y-124.75
X156.25Y-128.25
X156.25Y-131.75
X156.25Y-135.25
X156.25Y-138.75
X156.25Y-142.25
X156.25Y-149.25
X156.955Y-89.625
X159.75Y-82.75
X159.75Y-86.25
X159.75Y-89.75
X159.75Y-93.25
X159.75Y-96.75
X159.75Y-100.25
X159.75Y-103.75
X159.75Y-107.25
X159.75Y-110.75
X159.75Y-114.25
X159.75Y-117.75
X159.75Y-121.25
X159.75Y-124.75
X159.75Y-128.25
X159.75Y-131.75
X159.75Y-135.25
X159.75Y-138.75
X159.75Y-142.25
X159.75Y-149.25
X162.851Y-146.4
X163.25Y-82.75
X163.25Y-86.25
X163.25Y-89.75
X163.25Y-93.25
X163.25Y-96.75
X163.25Y-114.25
X163.25Y-117.75
X163.25Y-121.25
X163.25Y-124.75
X163.25Y-128.25
X163.25Y-131.75
X163.25Y-135.25
X163.25Y-138.75
X163.25Y-142.25
X163.25Y-145.75
X163.25Y-149.25
X165.485Y-109.935
X166.75Y-82.75
X166.75Y-86.25
X166.75Y-89.75
X166.75Y-93.25
X166.75Y-96.75
X166.75Y-100.25
X166.75Y-114.25
X166.75Y-117.75
X166.75Y-121.25
X166.75Y-124.75
X166.75Y-128.25
X166.75Y-131.75
X166.75Y-135.25
X166.75Y-138.75
X166.75Y-142.25
X166.75Y-145.75
X166.75Y-149.25
X170.25Y-82.75
X170.25Y-86.25
X170.25Y-100.25
X170.25Y-103.75
X170.25Y-107.25
X170.25Y-110.75
X170.25Y-114.25
X170.25Y-117.75
X170.25Y-121.25
X170.25Y-124.75
X170.25Y-128.25
X170.25Y-131.75
X170.25Y-135.25
X170.25Y-138.75
X170.25Y-142.25
X170.25Y-145.75
X170.25Y-149.25
X171.015Y-85.085
X171.015Y-86.185
X173.423Y-87.217
X173.75Y-82.75
X173.75Y-86.25
X173.75Y-100.25
X173.75Y-114.25
X173.75Y-117.75
X173.75Y-121.25
X173.75Y-124.75
X173.75Y-128.25
X173.75Y-131.75
X173.75Y-135.25
X173.75Y-138.75
X173.75Y-142.25
X173.75Y-145.75
X173.75Y-149.25
X174.955Y-89.625
X177.25Y-82.75
X177.25Y-86.25
X177.25Y-89.75
X177.25Y-93.25
X177.25Y-96.75
X177.25Y-110.75
X177.25Y-114.25
X177.25Y-117.75
X177.25Y-121.25
X177.25Y-124.75
X177.25Y-128.25
X177.25Y-131.75
X177.25Y-135.25
X177.25Y-138.75
X177.25Y-142.25
X177.25Y-145.75
X177.25Y-149.25
X180.75Y-82.75
X180.75Y-86.25
X180.75Y-89.75
X180.75Y-93.25
X180.75Y-96.75
X180.75Y-110.75
X180.75Y-114.25
X180.75Y-117.75
X180.75Y-121.25
X180.75Y-124.75
X180.75Y-128.25
X180.75Y-131.75
X180.75Y-135.25
X180.75Y-138.75
X180.75Y-142.25
X180.75Y-145.75
X180.75Y-149.25
X184.25Y-82.75
X184.25Y-86.25
X184.25Y-89.75
X184.25Y-93.25
X184.25Y-96.75
X184.25Y-100.25
X184.25Y-103.75
X184.25Y-107.25
X184.25Y-110.75
X184.25Y-114.25
X184.25Y-117.75
X184.25Y-121.25
X184.25Y-124.75
X184.25Y-128.25
X184.25Y-131.75
X184.25Y-135.25
X184.25Y-138.75
X184.25Y-142.25
X184.25Y-145.75
X184.25Y-149.25
X187.75Y-82.75
X187.75Y-86.25
X187.75Y-96.75
X187.75Y-110.75
X187.75Y-114.25
X187.75Y-117.75
X187.75Y-121.25
X187.75Y-124.75
X187.75Y-128.25
X187.75Y-131.75
X187.75Y-135.25
X187.75Y-138.75
X187.75Y-142.25
X187.75Y-145.75
X190.475Y-105.885
X191.25Y-82.75
X191.25Y-86.25
X191.25Y-96.75
X191.25Y-103.75
X191.25Y-107.25
X191.25Y-110.75
X191.25Y-114.25
X191.25Y-117.75
X191.25Y-121.25
X191.25Y-124.75
X191.25Y-128.25
X191.25Y-131.75
X191.25Y-135.25
X191.25Y-138.75
X191.25Y-142.25
X191.25Y-145.75
X191.25Y-149.25
X194.75Y-82.75
X194.75Y-86.25
X194.75Y-96.75
X194.75Y-110.75
X194.75Y-114.25
X194.75Y-117.75
X194.75Y-121.25
X194.75Y-124.75
X194.75Y-128.25
X194.75Y-131.75
X194.75Y-135.25
X194.75Y-138.75
X194.75Y-142.25
X194.75Y-145.75
X194.75Y-149.25
X196.724Y-93.545
X196.975Y-105.885
X198.25Y-82.75
X198.25Y-86.25
X198.25Y-89.75
X198.25Y-93.25
X198.25Y-96.75
X198.25Y-100.25
X198.25Y-103.75
X198.25Y-107.25
X198.25Y-110.75
X198.25Y-114.25
X198.25Y-117.75
X198.25Y-121.25
X198.25Y-124.75
X198.25Y-128.25
X198.25Y-131.75
X198.25Y-135.25
X198.25Y-138.75
X198.25Y-142.25
X198.25Y-145.75
X198.25Y-149.25
T4
X134.935Y-106.095
X137.475Y-106.095
X140.865Y-106.095
X143.405Y-106.095
T5
X136.036Y-95.545
X146.036Y-95.545
X163.235Y-102.315
X163.235Y-104.855
X163.235Y-107.395
X163.235Y-109.935
X167.865Y-102.315
X167.865Y-104.855
X167.865Y-107.395
X167.865Y-109.935
X172.495Y-102.315
X172.495Y-104.855
X172.495Y-107.395
X172.495Y-109.935
X177.125Y-102.315
X177.125Y-104.855
X177.125Y-107.395
X181.755Y-102.315
X181.755Y-104.855
X181.755Y-107.395
X189.324Y-93.545
X194.324Y-93.545
T6
X188.075Y-101.385
X188.075Y-105.885
X194.575Y-101.385
X194.575Y-105.885
T7
X152.375Y-106.255
X157.375Y-106.255
T8
X105.745Y-100.05
X126.235Y-100.05
M30
