%TF.GenerationSoftware,KiCad,Pcbnew,10.0.5*%
%TF.CreationDate,2026-07-29T02:28:51-07:00*%
%TF.ProjectId,cv-sos,63762d73-6f73-42e6-9b69-6361645f7063,rev?*%
%TF.SameCoordinates,Original*%
%TF.FileFunction,Paste,Bot*%
%TF.FilePolarity,Positive*%
%FSLAX46Y46*%
G04 Gerber Fmt 4.6, Leading zero omitted, Abs format (unit mm)*
G04 Created by KiCad (PCBNEW 10.0.5) date 2026-07-29 02:28:51*
%MOMM*%
%LPD*%
G01*
G04 APERTURE LIST*
G04 Aperture macros list*
%AMRoundRect*
0 Rectangle with rounded corners*
0 $1 Rounding radius*
0 $2 $3 $4 $5 $6 $7 $8 $9 X,Y pos of 4 corners*
0 Add a 4 corners polygon primitive as box body*
4,1,4,$2,$3,$4,$5,$6,$7,$8,$9,$2,$3,0*
0 Add four circle primitives for the rounded corners*
1,1,$1+$1,$2,$3*
1,1,$1+$1,$4,$5*
1,1,$1+$1,$6,$7*
1,1,$1+$1,$8,$9*
0 Add four rect primitives between the rounded corners*
20,1,$1+$1,$2,$3,$4,$5,0*
20,1,$1+$1,$4,$5,$6,$7,0*
20,1,$1+$1,$6,$7,$8,$9,0*
20,1,$1+$1,$8,$9,$2,$3,0*%
G04 Aperture macros list end*
%ADD10R,5.080000X1.500000*%
%ADD11RoundRect,0.250000X0.262500X0.450000X-0.262500X0.450000X-0.262500X-0.450000X0.262500X-0.450000X0*%
%ADD12R,0.900000X1.500000*%
%ADD13R,1.500000X0.900000*%
%ADD14R,0.900000X0.900000*%
%ADD15RoundRect,0.250000X0.250000X0.475000X-0.250000X0.475000X-0.250000X-0.475000X0.250000X-0.475000X0*%
G04 APERTURE END LIST*
D10*
%TO.C,ANT1*%
X152415000Y-89625000D03*
X152415000Y-98125000D03*
%TD*%
%TO.C,ANT2*%
X171015000Y-89625000D03*
X171015000Y-98125000D03*
%TD*%
D11*
%TO.C,R1*%
X123847500Y-89245000D03*
X122022500Y-89245000D03*
%TD*%
%TO.C,R7*%
X188622500Y-89245000D03*
X186797500Y-89245000D03*
%TD*%
D12*
%TO.C,U1*%
X135530000Y-133745000D03*
X134260000Y-133745000D03*
X132990000Y-133745000D03*
X131720000Y-133745000D03*
X130450000Y-133745000D03*
X129180000Y-133745000D03*
X127910000Y-133745000D03*
X126640000Y-133745000D03*
X125370000Y-133745000D03*
X124100000Y-133745000D03*
X122830000Y-133745000D03*
X121560000Y-133745000D03*
X120290000Y-133745000D03*
X119020000Y-133745000D03*
D13*
X117770000Y-130710000D03*
X117770000Y-129440000D03*
X117770000Y-128170000D03*
X117770000Y-126900000D03*
X117770000Y-125630000D03*
X117770000Y-124360000D03*
X117770000Y-123090000D03*
X117770000Y-121820000D03*
X117770000Y-120550000D03*
X117770000Y-119280000D03*
D12*
X119020000Y-116245000D03*
X120290000Y-116245000D03*
X121560000Y-116245000D03*
X122830000Y-116245000D03*
X124100000Y-116245000D03*
X125370000Y-116245000D03*
X126640000Y-116245000D03*
X127910000Y-116245000D03*
X129180000Y-116245000D03*
X130450000Y-116245000D03*
X131720000Y-116245000D03*
X132990000Y-116245000D03*
X134260000Y-116245000D03*
X135530000Y-116245000D03*
D14*
X126410000Y-127895000D03*
X127810000Y-127895000D03*
X129210000Y-127895000D03*
X126410000Y-126495000D03*
X127810000Y-126495000D03*
X129210000Y-126495000D03*
X126410000Y-125095000D03*
X127810000Y-125095000D03*
X129210000Y-125095000D03*
%TD*%
D11*
%TO.C,R5*%
X141647500Y-89245000D03*
X139822500Y-89245000D03*
%TD*%
D15*
%TO.C,C4*%
X114925000Y-89275000D03*
X113025000Y-89275000D03*
%TD*%
%TO.C,C2*%
X105945000Y-89275000D03*
X104045000Y-89275000D03*
%TD*%
D11*
%TO.C,R8*%
X193072500Y-89245000D03*
X191247500Y-89245000D03*
%TD*%
%TO.C,R2*%
X128297500Y-89245000D03*
X126472500Y-89245000D03*
%TD*%
D15*
%TO.C,C5*%
X119415000Y-89275000D03*
X117515000Y-89275000D03*
%TD*%
D11*
%TO.C,R6*%
X146097500Y-89245000D03*
X144272500Y-89245000D03*
%TD*%
%TO.C,R4*%
X137197500Y-89245000D03*
X135372500Y-89245000D03*
%TD*%
D15*
%TO.C,C3*%
X110435000Y-89275000D03*
X108535000Y-89275000D03*
%TD*%
D11*
%TO.C,R3*%
X132747500Y-89245000D03*
X130922500Y-89245000D03*
%TD*%
M02*
