%TF.GenerationSoftware,KiCad,Pcbnew,10.0.5*%
%TF.CreationDate,2026-07-29T02:28:51-07:00*%
%TF.ProjectId,cv-sos,63762d73-6f73-42e6-9b69-6361645f7063,rev?*%
%TF.SameCoordinates,Original*%
%TF.FileFunction,Legend,Top*%
%TF.FilePolarity,Positive*%
%FSLAX46Y46*%
G04 Gerber Fmt 4.6, Leading zero omitted, Abs format (unit mm)*
G04 Created by KiCad (PCBNEW 10.0.5) date 2026-07-29 02:28:51*
%MOMM*%
%LPD*%
G01*
G04 APERTURE LIST*
%ADD10C,0.150000*%
%ADD11C,0.200000*%
%ADD12C,0.120000*%
G04 APERTURE END LIST*
D10*
X140192856Y-145222842D02*
X140149999Y-145265700D01*
X140149999Y-145265700D02*
X140021427Y-145308557D01*
X140021427Y-145308557D02*
X139935713Y-145308557D01*
X139935713Y-145308557D02*
X139807142Y-145265700D01*
X139807142Y-145265700D02*
X139721427Y-145179985D01*
X139721427Y-145179985D02*
X139678570Y-145094271D01*
X139678570Y-145094271D02*
X139635713Y-144922842D01*
X139635713Y-144922842D02*
X139635713Y-144794271D01*
X139635713Y-144794271D02*
X139678570Y-144622842D01*
X139678570Y-144622842D02*
X139721427Y-144537128D01*
X139721427Y-144537128D02*
X139807142Y-144451414D01*
X139807142Y-144451414D02*
X139935713Y-144408557D01*
X139935713Y-144408557D02*
X140021427Y-144408557D01*
X140021427Y-144408557D02*
X140149999Y-144451414D01*
X140149999Y-144451414D02*
X140192856Y-144494271D01*
X140449999Y-144408557D02*
X140749999Y-145308557D01*
X140749999Y-145308557D02*
X141049999Y-144408557D01*
X141349999Y-144965700D02*
X142035714Y-144965700D01*
X142421428Y-145265700D02*
X142550000Y-145308557D01*
X142550000Y-145308557D02*
X142764285Y-145308557D01*
X142764285Y-145308557D02*
X142850000Y-145265700D01*
X142850000Y-145265700D02*
X142892857Y-145222842D01*
X142892857Y-145222842D02*
X142935714Y-145137128D01*
X142935714Y-145137128D02*
X142935714Y-145051414D01*
X142935714Y-145051414D02*
X142892857Y-144965700D01*
X142892857Y-144965700D02*
X142850000Y-144922842D01*
X142850000Y-144922842D02*
X142764285Y-144879985D01*
X142764285Y-144879985D02*
X142592857Y-144837128D01*
X142592857Y-144837128D02*
X142507142Y-144794271D01*
X142507142Y-144794271D02*
X142464285Y-144751414D01*
X142464285Y-144751414D02*
X142421428Y-144665700D01*
X142421428Y-144665700D02*
X142421428Y-144579985D01*
X142421428Y-144579985D02*
X142464285Y-144494271D01*
X142464285Y-144494271D02*
X142507142Y-144451414D01*
X142507142Y-144451414D02*
X142592857Y-144408557D01*
X142592857Y-144408557D02*
X142807142Y-144408557D01*
X142807142Y-144408557D02*
X142935714Y-144451414D01*
X143492857Y-144408557D02*
X143664285Y-144408557D01*
X143664285Y-144408557D02*
X143750000Y-144451414D01*
X143750000Y-144451414D02*
X143835714Y-144537128D01*
X143835714Y-144537128D02*
X143878571Y-144708557D01*
X143878571Y-144708557D02*
X143878571Y-145008557D01*
X143878571Y-145008557D02*
X143835714Y-145179985D01*
X143835714Y-145179985D02*
X143750000Y-145265700D01*
X143750000Y-145265700D02*
X143664285Y-145308557D01*
X143664285Y-145308557D02*
X143492857Y-145308557D01*
X143492857Y-145308557D02*
X143407143Y-145265700D01*
X143407143Y-145265700D02*
X143321428Y-145179985D01*
X143321428Y-145179985D02*
X143278571Y-145008557D01*
X143278571Y-145008557D02*
X143278571Y-144708557D01*
X143278571Y-144708557D02*
X143321428Y-144537128D01*
X143321428Y-144537128D02*
X143407143Y-144451414D01*
X143407143Y-144451414D02*
X143492857Y-144408557D01*
X144221428Y-145265700D02*
X144350000Y-145308557D01*
X144350000Y-145308557D02*
X144564285Y-145308557D01*
X144564285Y-145308557D02*
X144650000Y-145265700D01*
X144650000Y-145265700D02*
X144692857Y-145222842D01*
X144692857Y-145222842D02*
X144735714Y-145137128D01*
X144735714Y-145137128D02*
X144735714Y-145051414D01*
X144735714Y-145051414D02*
X144692857Y-144965700D01*
X144692857Y-144965700D02*
X144650000Y-144922842D01*
X144650000Y-144922842D02*
X144564285Y-144879985D01*
X144564285Y-144879985D02*
X144392857Y-144837128D01*
X144392857Y-144837128D02*
X144307142Y-144794271D01*
X144307142Y-144794271D02*
X144264285Y-144751414D01*
X144264285Y-144751414D02*
X144221428Y-144665700D01*
X144221428Y-144665700D02*
X144221428Y-144579985D01*
X144221428Y-144579985D02*
X144264285Y-144494271D01*
X144264285Y-144494271D02*
X144307142Y-144451414D01*
X144307142Y-144451414D02*
X144392857Y-144408557D01*
X144392857Y-144408557D02*
X144607142Y-144408557D01*
X144607142Y-144408557D02*
X144735714Y-144451414D01*
X147007142Y-145308557D02*
X146707142Y-144879985D01*
X146492856Y-145308557D02*
X146492856Y-144408557D01*
X146492856Y-144408557D02*
X146835713Y-144408557D01*
X146835713Y-144408557D02*
X146921428Y-144451414D01*
X146921428Y-144451414D02*
X146964285Y-144494271D01*
X146964285Y-144494271D02*
X147007142Y-144579985D01*
X147007142Y-144579985D02*
X147007142Y-144708557D01*
X147007142Y-144708557D02*
X146964285Y-144794271D01*
X146964285Y-144794271D02*
X146921428Y-144837128D01*
X146921428Y-144837128D02*
X146835713Y-144879985D01*
X146835713Y-144879985D02*
X146492856Y-144879985D01*
X147392856Y-144837128D02*
X147692856Y-144837128D01*
X147821428Y-145308557D02*
X147392856Y-145308557D01*
X147392856Y-145308557D02*
X147392856Y-144408557D01*
X147392856Y-144408557D02*
X147821428Y-144408557D01*
X148078571Y-144408557D02*
X148378571Y-145308557D01*
X148378571Y-145308557D02*
X148678571Y-144408557D01*
X149621428Y-145051414D02*
X150050000Y-145051414D01*
X149535714Y-145308557D02*
X149835714Y-144408557D01*
X149835714Y-144408557D02*
X150135714Y-145308557D01*
X152192857Y-145265700D02*
X152107142Y-145308557D01*
X152107142Y-145308557D02*
X151935714Y-145308557D01*
X151935714Y-145308557D02*
X151849999Y-145265700D01*
X151849999Y-145265700D02*
X151807142Y-145222842D01*
X151807142Y-145222842D02*
X151764285Y-145137128D01*
X151764285Y-145137128D02*
X151764285Y-144879985D01*
X151764285Y-144879985D02*
X151807142Y-144794271D01*
X151807142Y-144794271D02*
X151849999Y-144751414D01*
X151849999Y-144751414D02*
X151935714Y-144708557D01*
X151935714Y-144708557D02*
X152107142Y-144708557D01*
X152107142Y-144708557D02*
X152192857Y-144751414D01*
X152578571Y-145308557D02*
X152578571Y-144708557D01*
X152578571Y-144408557D02*
X152535714Y-144451414D01*
X152535714Y-144451414D02*
X152578571Y-144494271D01*
X152578571Y-144494271D02*
X152621428Y-144451414D01*
X152621428Y-144451414D02*
X152578571Y-144408557D01*
X152578571Y-144408557D02*
X152578571Y-144494271D01*
X153007142Y-145308557D02*
X153007142Y-144708557D01*
X153007142Y-144879985D02*
X153049999Y-144794271D01*
X153049999Y-144794271D02*
X153092857Y-144751414D01*
X153092857Y-144751414D02*
X153178571Y-144708557D01*
X153178571Y-144708557D02*
X153264285Y-144708557D01*
X153950000Y-145265700D02*
X153864285Y-145308557D01*
X153864285Y-145308557D02*
X153692857Y-145308557D01*
X153692857Y-145308557D02*
X153607142Y-145265700D01*
X153607142Y-145265700D02*
X153564285Y-145222842D01*
X153564285Y-145222842D02*
X153521428Y-145137128D01*
X153521428Y-145137128D02*
X153521428Y-144879985D01*
X153521428Y-144879985D02*
X153564285Y-144794271D01*
X153564285Y-144794271D02*
X153607142Y-144751414D01*
X153607142Y-144751414D02*
X153692857Y-144708557D01*
X153692857Y-144708557D02*
X153864285Y-144708557D01*
X153864285Y-144708557D02*
X153950000Y-144751414D01*
X154721429Y-144708557D02*
X154721429Y-145308557D01*
X154335714Y-144708557D02*
X154335714Y-145179985D01*
X154335714Y-145179985D02*
X154378571Y-145265700D01*
X154378571Y-145265700D02*
X154464286Y-145308557D01*
X154464286Y-145308557D02*
X154592857Y-145308557D01*
X154592857Y-145308557D02*
X154678571Y-145265700D01*
X154678571Y-145265700D02*
X154721429Y-145222842D01*
X155064286Y-144708557D02*
X155278572Y-145308557D01*
X155278572Y-145308557D02*
X155492857Y-144708557D01*
X156178571Y-145265700D02*
X156092857Y-145308557D01*
X156092857Y-145308557D02*
X155921429Y-145308557D01*
X155921429Y-145308557D02*
X155835714Y-145265700D01*
X155835714Y-145265700D02*
X155792857Y-145179985D01*
X155792857Y-145179985D02*
X155792857Y-144837128D01*
X155792857Y-144837128D02*
X155835714Y-144751414D01*
X155835714Y-144751414D02*
X155921429Y-144708557D01*
X155921429Y-144708557D02*
X156092857Y-144708557D01*
X156092857Y-144708557D02*
X156178571Y-144751414D01*
X156178571Y-144751414D02*
X156221429Y-144837128D01*
X156221429Y-144837128D02*
X156221429Y-144922842D01*
X156221429Y-144922842D02*
X155792857Y-145008557D01*
X156607143Y-144708557D02*
X156607143Y-145308557D01*
X156607143Y-144794271D02*
X156650000Y-144751414D01*
X156650000Y-144751414D02*
X156735715Y-144708557D01*
X156735715Y-144708557D02*
X156864286Y-144708557D01*
X156864286Y-144708557D02*
X156950000Y-144751414D01*
X156950000Y-144751414D02*
X156992858Y-144837128D01*
X156992858Y-144837128D02*
X156992858Y-145308557D01*
X157292858Y-144708557D02*
X157635715Y-144708557D01*
X157421429Y-144408557D02*
X157421429Y-145179985D01*
X157421429Y-145179985D02*
X157464286Y-145265700D01*
X157464286Y-145265700D02*
X157550001Y-145308557D01*
X157550001Y-145308557D02*
X157635715Y-145308557D01*
X157935715Y-145222842D02*
X157978572Y-145265700D01*
X157978572Y-145265700D02*
X157935715Y-145308557D01*
X157935715Y-145308557D02*
X157892858Y-145265700D01*
X157892858Y-145265700D02*
X157935715Y-145222842D01*
X157935715Y-145222842D02*
X157935715Y-145308557D01*
X158750001Y-145265700D02*
X158664286Y-145308557D01*
X158664286Y-145308557D02*
X158492858Y-145308557D01*
X158492858Y-145308557D02*
X158407143Y-145265700D01*
X158407143Y-145265700D02*
X158364286Y-145222842D01*
X158364286Y-145222842D02*
X158321429Y-145137128D01*
X158321429Y-145137128D02*
X158321429Y-144879985D01*
X158321429Y-144879985D02*
X158364286Y-144794271D01*
X158364286Y-144794271D02*
X158407143Y-144751414D01*
X158407143Y-144751414D02*
X158492858Y-144708557D01*
X158492858Y-144708557D02*
X158664286Y-144708557D01*
X158664286Y-144708557D02*
X158750001Y-144751414D01*
X159264287Y-145308557D02*
X159178572Y-145265700D01*
X159178572Y-145265700D02*
X159135715Y-145222842D01*
X159135715Y-145222842D02*
X159092858Y-145137128D01*
X159092858Y-145137128D02*
X159092858Y-144879985D01*
X159092858Y-144879985D02*
X159135715Y-144794271D01*
X159135715Y-144794271D02*
X159178572Y-144751414D01*
X159178572Y-144751414D02*
X159264287Y-144708557D01*
X159264287Y-144708557D02*
X159392858Y-144708557D01*
X159392858Y-144708557D02*
X159478572Y-144751414D01*
X159478572Y-144751414D02*
X159521430Y-144794271D01*
X159521430Y-144794271D02*
X159564287Y-144879985D01*
X159564287Y-144879985D02*
X159564287Y-145137128D01*
X159564287Y-145137128D02*
X159521430Y-145222842D01*
X159521430Y-145222842D02*
X159478572Y-145265700D01*
X159478572Y-145265700D02*
X159392858Y-145308557D01*
X159392858Y-145308557D02*
X159264287Y-145308557D01*
X159950001Y-145308557D02*
X159950001Y-144708557D01*
X159950001Y-144794271D02*
X159992858Y-144751414D01*
X159992858Y-144751414D02*
X160078573Y-144708557D01*
X160078573Y-144708557D02*
X160207144Y-144708557D01*
X160207144Y-144708557D02*
X160292858Y-144751414D01*
X160292858Y-144751414D02*
X160335716Y-144837128D01*
X160335716Y-144837128D02*
X160335716Y-145308557D01*
X160335716Y-144837128D02*
X160378573Y-144751414D01*
X160378573Y-144751414D02*
X160464287Y-144708557D01*
X160464287Y-144708557D02*
X160592858Y-144708557D01*
X160592858Y-144708557D02*
X160678573Y-144751414D01*
X160678573Y-144751414D02*
X160721430Y-144837128D01*
X160721430Y-144837128D02*
X160721430Y-145308557D01*
D11*
X140342858Y-82930457D02*
X140285715Y-82987600D01*
X140285715Y-82987600D02*
X140114287Y-83044742D01*
X140114287Y-83044742D02*
X140000001Y-83044742D01*
X140000001Y-83044742D02*
X139828572Y-82987600D01*
X139828572Y-82987600D02*
X139714287Y-82873314D01*
X139714287Y-82873314D02*
X139657144Y-82759028D01*
X139657144Y-82759028D02*
X139600001Y-82530457D01*
X139600001Y-82530457D02*
X139600001Y-82359028D01*
X139600001Y-82359028D02*
X139657144Y-82130457D01*
X139657144Y-82130457D02*
X139714287Y-82016171D01*
X139714287Y-82016171D02*
X139828572Y-81901885D01*
X139828572Y-81901885D02*
X140000001Y-81844742D01*
X140000001Y-81844742D02*
X140114287Y-81844742D01*
X140114287Y-81844742D02*
X140285715Y-81901885D01*
X140285715Y-81901885D02*
X140342858Y-81959028D01*
X140857144Y-83044742D02*
X140857144Y-82244742D01*
X140857144Y-81844742D02*
X140800001Y-81901885D01*
X140800001Y-81901885D02*
X140857144Y-81959028D01*
X140857144Y-81959028D02*
X140914287Y-81901885D01*
X140914287Y-81901885D02*
X140857144Y-81844742D01*
X140857144Y-81844742D02*
X140857144Y-81959028D01*
X141428573Y-83044742D02*
X141428573Y-82244742D01*
X141428573Y-82473314D02*
X141485716Y-82359028D01*
X141485716Y-82359028D02*
X141542859Y-82301885D01*
X141542859Y-82301885D02*
X141657144Y-82244742D01*
X141657144Y-82244742D02*
X141771430Y-82244742D01*
X142685716Y-82987600D02*
X142571430Y-83044742D01*
X142571430Y-83044742D02*
X142342858Y-83044742D01*
X142342858Y-83044742D02*
X142228573Y-82987600D01*
X142228573Y-82987600D02*
X142171430Y-82930457D01*
X142171430Y-82930457D02*
X142114287Y-82816171D01*
X142114287Y-82816171D02*
X142114287Y-82473314D01*
X142114287Y-82473314D02*
X142171430Y-82359028D01*
X142171430Y-82359028D02*
X142228573Y-82301885D01*
X142228573Y-82301885D02*
X142342858Y-82244742D01*
X142342858Y-82244742D02*
X142571430Y-82244742D01*
X142571430Y-82244742D02*
X142685716Y-82301885D01*
X143714287Y-82244742D02*
X143714287Y-83044742D01*
X143200001Y-82244742D02*
X143200001Y-82873314D01*
X143200001Y-82873314D02*
X143257144Y-82987600D01*
X143257144Y-82987600D02*
X143371429Y-83044742D01*
X143371429Y-83044742D02*
X143542858Y-83044742D01*
X143542858Y-83044742D02*
X143657144Y-82987600D01*
X143657144Y-82987600D02*
X143714287Y-82930457D01*
X144171429Y-82244742D02*
X144457143Y-83044742D01*
X144457143Y-83044742D02*
X144742858Y-82244742D01*
X145657144Y-82987600D02*
X145542858Y-83044742D01*
X145542858Y-83044742D02*
X145314287Y-83044742D01*
X145314287Y-83044742D02*
X145200001Y-82987600D01*
X145200001Y-82987600D02*
X145142858Y-82873314D01*
X145142858Y-82873314D02*
X145142858Y-82416171D01*
X145142858Y-82416171D02*
X145200001Y-82301885D01*
X145200001Y-82301885D02*
X145314287Y-82244742D01*
X145314287Y-82244742D02*
X145542858Y-82244742D01*
X145542858Y-82244742D02*
X145657144Y-82301885D01*
X145657144Y-82301885D02*
X145714287Y-82416171D01*
X145714287Y-82416171D02*
X145714287Y-82530457D01*
X145714287Y-82530457D02*
X145142858Y-82644742D01*
X146228572Y-82244742D02*
X146228572Y-83044742D01*
X146228572Y-82359028D02*
X146285715Y-82301885D01*
X146285715Y-82301885D02*
X146400000Y-82244742D01*
X146400000Y-82244742D02*
X146571429Y-82244742D01*
X146571429Y-82244742D02*
X146685715Y-82301885D01*
X146685715Y-82301885D02*
X146742858Y-82416171D01*
X146742858Y-82416171D02*
X146742858Y-83044742D01*
X147142857Y-82244742D02*
X147600000Y-82244742D01*
X147314286Y-81844742D02*
X147314286Y-82873314D01*
X147314286Y-82873314D02*
X147371429Y-82987600D01*
X147371429Y-82987600D02*
X147485714Y-83044742D01*
X147485714Y-83044742D02*
X147600000Y-83044742D01*
X149542857Y-81901885D02*
X149428572Y-81844742D01*
X149428572Y-81844742D02*
X149257143Y-81844742D01*
X149257143Y-81844742D02*
X149085714Y-81901885D01*
X149085714Y-81901885D02*
X148971429Y-82016171D01*
X148971429Y-82016171D02*
X148914286Y-82130457D01*
X148914286Y-82130457D02*
X148857143Y-82359028D01*
X148857143Y-82359028D02*
X148857143Y-82530457D01*
X148857143Y-82530457D02*
X148914286Y-82759028D01*
X148914286Y-82759028D02*
X148971429Y-82873314D01*
X148971429Y-82873314D02*
X149085714Y-82987600D01*
X149085714Y-82987600D02*
X149257143Y-83044742D01*
X149257143Y-83044742D02*
X149371429Y-83044742D01*
X149371429Y-83044742D02*
X149542857Y-82987600D01*
X149542857Y-82987600D02*
X149600000Y-82930457D01*
X149600000Y-82930457D02*
X149600000Y-82530457D01*
X149600000Y-82530457D02*
X149371429Y-82530457D01*
X150628572Y-82244742D02*
X150628572Y-83044742D01*
X150114286Y-82244742D02*
X150114286Y-82873314D01*
X150114286Y-82873314D02*
X150171429Y-82987600D01*
X150171429Y-82987600D02*
X150285714Y-83044742D01*
X150285714Y-83044742D02*
X150457143Y-83044742D01*
X150457143Y-83044742D02*
X150571429Y-82987600D01*
X150571429Y-82987600D02*
X150628572Y-82930457D01*
X151714286Y-83044742D02*
X151714286Y-82416171D01*
X151714286Y-82416171D02*
X151657143Y-82301885D01*
X151657143Y-82301885D02*
X151542857Y-82244742D01*
X151542857Y-82244742D02*
X151314286Y-82244742D01*
X151314286Y-82244742D02*
X151200000Y-82301885D01*
X151714286Y-82987600D02*
X151600000Y-83044742D01*
X151600000Y-83044742D02*
X151314286Y-83044742D01*
X151314286Y-83044742D02*
X151200000Y-82987600D01*
X151200000Y-82987600D02*
X151142857Y-82873314D01*
X151142857Y-82873314D02*
X151142857Y-82759028D01*
X151142857Y-82759028D02*
X151200000Y-82644742D01*
X151200000Y-82644742D02*
X151314286Y-82587600D01*
X151314286Y-82587600D02*
X151600000Y-82587600D01*
X151600000Y-82587600D02*
X151714286Y-82530457D01*
X152285714Y-83044742D02*
X152285714Y-82244742D01*
X152285714Y-82473314D02*
X152342857Y-82359028D01*
X152342857Y-82359028D02*
X152400000Y-82301885D01*
X152400000Y-82301885D02*
X152514285Y-82244742D01*
X152514285Y-82244742D02*
X152628571Y-82244742D01*
X153542857Y-83044742D02*
X153542857Y-81844742D01*
X153542857Y-82987600D02*
X153428571Y-83044742D01*
X153428571Y-83044742D02*
X153199999Y-83044742D01*
X153199999Y-83044742D02*
X153085714Y-82987600D01*
X153085714Y-82987600D02*
X153028571Y-82930457D01*
X153028571Y-82930457D02*
X152971428Y-82816171D01*
X152971428Y-82816171D02*
X152971428Y-82473314D01*
X152971428Y-82473314D02*
X153028571Y-82359028D01*
X153028571Y-82359028D02*
X153085714Y-82301885D01*
X153085714Y-82301885D02*
X153199999Y-82244742D01*
X153199999Y-82244742D02*
X153428571Y-82244742D01*
X153428571Y-82244742D02*
X153542857Y-82301885D01*
X154114285Y-83044742D02*
X154114285Y-82244742D01*
X154114285Y-81844742D02*
X154057142Y-81901885D01*
X154057142Y-81901885D02*
X154114285Y-81959028D01*
X154114285Y-81959028D02*
X154171428Y-81901885D01*
X154171428Y-81901885D02*
X154114285Y-81844742D01*
X154114285Y-81844742D02*
X154114285Y-81959028D01*
X155200000Y-83044742D02*
X155200000Y-82416171D01*
X155200000Y-82416171D02*
X155142857Y-82301885D01*
X155142857Y-82301885D02*
X155028571Y-82244742D01*
X155028571Y-82244742D02*
X154800000Y-82244742D01*
X154800000Y-82244742D02*
X154685714Y-82301885D01*
X155200000Y-82987600D02*
X155085714Y-83044742D01*
X155085714Y-83044742D02*
X154800000Y-83044742D01*
X154800000Y-83044742D02*
X154685714Y-82987600D01*
X154685714Y-82987600D02*
X154628571Y-82873314D01*
X154628571Y-82873314D02*
X154628571Y-82759028D01*
X154628571Y-82759028D02*
X154685714Y-82644742D01*
X154685714Y-82644742D02*
X154800000Y-82587600D01*
X154800000Y-82587600D02*
X155085714Y-82587600D01*
X155085714Y-82587600D02*
X155200000Y-82530457D01*
X155771428Y-82244742D02*
X155771428Y-83044742D01*
X155771428Y-82359028D02*
X155828571Y-82301885D01*
X155828571Y-82301885D02*
X155942856Y-82244742D01*
X155942856Y-82244742D02*
X156114285Y-82244742D01*
X156114285Y-82244742D02*
X156228571Y-82301885D01*
X156228571Y-82301885D02*
X156285714Y-82416171D01*
X156285714Y-82416171D02*
X156285714Y-83044742D01*
X157714285Y-82987600D02*
X157885714Y-83044742D01*
X157885714Y-83044742D02*
X158171428Y-83044742D01*
X158171428Y-83044742D02*
X158285714Y-82987600D01*
X158285714Y-82987600D02*
X158342856Y-82930457D01*
X158342856Y-82930457D02*
X158399999Y-82816171D01*
X158399999Y-82816171D02*
X158399999Y-82701885D01*
X158399999Y-82701885D02*
X158342856Y-82587600D01*
X158342856Y-82587600D02*
X158285714Y-82530457D01*
X158285714Y-82530457D02*
X158171428Y-82473314D01*
X158171428Y-82473314D02*
X157942856Y-82416171D01*
X157942856Y-82416171D02*
X157828571Y-82359028D01*
X157828571Y-82359028D02*
X157771428Y-82301885D01*
X157771428Y-82301885D02*
X157714285Y-82187600D01*
X157714285Y-82187600D02*
X157714285Y-82073314D01*
X157714285Y-82073314D02*
X157771428Y-81959028D01*
X157771428Y-81959028D02*
X157828571Y-81901885D01*
X157828571Y-81901885D02*
X157942856Y-81844742D01*
X157942856Y-81844742D02*
X158228571Y-81844742D01*
X158228571Y-81844742D02*
X158399999Y-81901885D01*
X159142856Y-81844742D02*
X159371428Y-81844742D01*
X159371428Y-81844742D02*
X159485713Y-81901885D01*
X159485713Y-81901885D02*
X159599999Y-82016171D01*
X159599999Y-82016171D02*
X159657142Y-82244742D01*
X159657142Y-82244742D02*
X159657142Y-82644742D01*
X159657142Y-82644742D02*
X159599999Y-82873314D01*
X159599999Y-82873314D02*
X159485713Y-82987600D01*
X159485713Y-82987600D02*
X159371428Y-83044742D01*
X159371428Y-83044742D02*
X159142856Y-83044742D01*
X159142856Y-83044742D02*
X159028571Y-82987600D01*
X159028571Y-82987600D02*
X158914285Y-82873314D01*
X158914285Y-82873314D02*
X158857142Y-82644742D01*
X158857142Y-82644742D02*
X158857142Y-82244742D01*
X158857142Y-82244742D02*
X158914285Y-82016171D01*
X158914285Y-82016171D02*
X159028571Y-81901885D01*
X159028571Y-81901885D02*
X159142856Y-81844742D01*
X160114285Y-82987600D02*
X160285714Y-83044742D01*
X160285714Y-83044742D02*
X160571428Y-83044742D01*
X160571428Y-83044742D02*
X160685714Y-82987600D01*
X160685714Y-82987600D02*
X160742856Y-82930457D01*
X160742856Y-82930457D02*
X160799999Y-82816171D01*
X160799999Y-82816171D02*
X160799999Y-82701885D01*
X160799999Y-82701885D02*
X160742856Y-82587600D01*
X160742856Y-82587600D02*
X160685714Y-82530457D01*
X160685714Y-82530457D02*
X160571428Y-82473314D01*
X160571428Y-82473314D02*
X160342856Y-82416171D01*
X160342856Y-82416171D02*
X160228571Y-82359028D01*
X160228571Y-82359028D02*
X160171428Y-82301885D01*
X160171428Y-82301885D02*
X160114285Y-82187600D01*
X160114285Y-82187600D02*
X160114285Y-82073314D01*
X160114285Y-82073314D02*
X160171428Y-81959028D01*
X160171428Y-81959028D02*
X160228571Y-81901885D01*
X160228571Y-81901885D02*
X160342856Y-81844742D01*
X160342856Y-81844742D02*
X160628571Y-81844742D01*
X160628571Y-81844742D02*
X160799999Y-81901885D01*
D10*
X135645248Y-93078866D02*
X136407153Y-93078866D01*
X136026200Y-93459819D02*
X136026200Y-92697914D01*
X107923571Y-100164700D02*
X109066429Y-100164700D01*
X108495000Y-100736128D02*
X108495000Y-99593271D01*
%TO.C,J1*%
D12*
X149755000Y-100935000D02*
X159995000Y-100935000D01*
X149755000Y-103955000D02*
X159995000Y-103955000D01*
X149755000Y-108855000D02*
X159995000Y-108855000D01*
X149755000Y-110355000D02*
X159995000Y-110355000D01*
X149755000Y-110975000D02*
X149755000Y-100935000D01*
X152075000Y-110975000D02*
X149755000Y-110975000D01*
X159995000Y-100935000D02*
X159995000Y-110975000D01*
X159995000Y-110975000D02*
X152675000Y-110975000D01*
X152375000Y-110975000D02*
X152815000Y-111585000D01*
X151935000Y-111585000D01*
X152375000Y-110975000D01*
G36*
X152815000Y-111585000D02*
G01*
X151935000Y-111585000D01*
X152375000Y-110975000D01*
X152815000Y-111585000D01*
G37*
%TO.C,TP2*%
X157651300Y-146400000D02*
G75*
G02*
X155751300Y-146400000I-950000J0D01*
G01*
X155751300Y-146400000D02*
G75*
G02*
X157651300Y-146400000I950000J0D01*
G01*
%TO.C,M1*%
X161855000Y-100935000D02*
X163235000Y-100935000D01*
X161855000Y-102315000D02*
X161855000Y-100935000D01*
X161855000Y-103585000D02*
X161855000Y-111315000D01*
X161855000Y-103585000D02*
X164615000Y-103585000D01*
X161855000Y-111315000D02*
X164615000Y-111315000D01*
X164615000Y-103585000D02*
X164615000Y-111315000D01*
%TO.C,M2*%
X166485000Y-100935000D02*
X167865000Y-100935000D01*
X166485000Y-102315000D02*
X166485000Y-100935000D01*
X166485000Y-103585000D02*
X166485000Y-111315000D01*
X166485000Y-103585000D02*
X169245000Y-103585000D01*
X166485000Y-111315000D02*
X169245000Y-111315000D01*
X169245000Y-103585000D02*
X169245000Y-111315000D01*
%TO.C,FB1*%
X148136200Y-95545000D02*
G75*
G02*
X133936200Y-95545000I-7100000J0D01*
G01*
X133936200Y-95545000D02*
G75*
G02*
X148136200Y-95545000I7100000J0D01*
G01*
%TO.C,U3*%
X171115000Y-100935000D02*
X172495000Y-100935000D01*
X171115000Y-102315000D02*
X171115000Y-100935000D01*
X171115000Y-103585000D02*
X171115000Y-111315000D01*
X171115000Y-103585000D02*
X173875000Y-103585000D01*
X171115000Y-111315000D02*
X173875000Y-111315000D01*
X173875000Y-103585000D02*
X173875000Y-111315000D01*
%TO.C,SIM1*%
X175745000Y-100935000D02*
X177125000Y-100935000D01*
X175745000Y-102315000D02*
X175745000Y-100935000D01*
X175745000Y-103585000D02*
X175745000Y-108775000D01*
X175745000Y-103585000D02*
X178505000Y-103585000D01*
X175745000Y-108775000D02*
X178505000Y-108775000D01*
X178505000Y-103585000D02*
X178505000Y-108775000D01*
%TO.C,TP1*%
X143119300Y-146400000D02*
G75*
G02*
X141219300Y-146400000I-950000J0D01*
G01*
X141219300Y-146400000D02*
G75*
G02*
X143119300Y-146400000I950000J0D01*
G01*
%TO.C,ANT1*%
X148705000Y-93625000D02*
X148705000Y-94125000D01*
X148705000Y-94125000D02*
X149205000Y-93875000D01*
X149205000Y-93875000D02*
X148705000Y-93625000D01*
%TO.C,SW1*%
X187825000Y-102885000D02*
X187825000Y-104385000D01*
X189075000Y-106885000D02*
X193575000Y-106885000D01*
X193575000Y-100385000D02*
X189075000Y-100385000D01*
X194825000Y-104385000D02*
X194825000Y-102885000D01*
%TO.C,LED0*%
X134645000Y-104859000D02*
X134645000Y-105015000D01*
X134645000Y-107175000D02*
X134645000Y-107331000D01*
X134645000Y-104859484D02*
G75*
G02*
X137876437Y-105015000I1560000J-1235516D01*
G01*
X135164039Y-105015000D02*
G75*
G02*
X137245961Y-105015000I1040961J-1080000D01*
G01*
X137245961Y-107175000D02*
G75*
G02*
X135164039Y-107175000I-1040961J1080000D01*
G01*
X137876437Y-107175000D02*
G75*
G02*
X134645000Y-107330516I-1671437J1080000D01*
G01*
%TO.C,LED1*%
X140575000Y-104859000D02*
X140575000Y-105015000D01*
X140575000Y-107175000D02*
X140575000Y-107331000D01*
X140575000Y-104859484D02*
G75*
G02*
X143806437Y-105015000I1560000J-1235516D01*
G01*
X141094039Y-105015000D02*
G75*
G02*
X143175961Y-105015000I1040961J-1080000D01*
G01*
X143175961Y-107175000D02*
G75*
G02*
X141094039Y-107175000I-1040961J1080000D01*
G01*
X143806437Y-107175000D02*
G75*
G02*
X140575000Y-107330516I-1671437J1080000D01*
G01*
%TO.C,JP*%
X180375000Y-100935000D02*
X181755000Y-100935000D01*
X180375000Y-102315000D02*
X180375000Y-100935000D01*
X180375000Y-103585000D02*
X180375000Y-108775000D01*
X180375000Y-103585000D02*
X183135000Y-103585000D01*
X180375000Y-108775000D02*
X183135000Y-108775000D01*
X183135000Y-103585000D02*
X183135000Y-108775000D01*
%TO.C,TP3*%
X161651300Y-146400000D02*
G75*
G02*
X159751300Y-146400000I-950000J0D01*
G01*
X159751300Y-146400000D02*
G75*
G02*
X161651300Y-146400000I950000J0D01*
G01*
%TO.C,ANT2*%
X167305000Y-93625000D02*
X167305000Y-94125000D01*
X167305000Y-94125000D02*
X167805000Y-93875000D01*
X167805000Y-93875000D02*
X167305000Y-93625000D01*
%TO.C,C1*%
X186344154Y-90670000D02*
X187344154Y-90670000D01*
X186844154Y-90170000D02*
X186844154Y-91170000D01*
X191823800Y-88465000D02*
X191823800Y-98625000D01*
X191863800Y-88465000D02*
X191863800Y-98625000D01*
X191903800Y-88466000D02*
X191903800Y-98624000D01*
X191943800Y-88466000D02*
X191943800Y-98624000D01*
X191983800Y-88468000D02*
X191983800Y-98622000D01*
X192023800Y-88469000D02*
X192023800Y-98621000D01*
X192063800Y-88471000D02*
X192063800Y-98619000D01*
X192103800Y-88473000D02*
X192103800Y-98617000D01*
X192143800Y-88475000D02*
X192143800Y-98615000D01*
X192183800Y-88478000D02*
X192183800Y-98612000D01*
X192223800Y-88481000D02*
X192223800Y-98609000D01*
X192263800Y-88484000D02*
X192263800Y-98606000D01*
X192303800Y-88488000D02*
X192303800Y-98602000D01*
X192343800Y-88491000D02*
X192343800Y-98599000D01*
X192383800Y-88496000D02*
X192383800Y-98594000D01*
X192423800Y-88500000D02*
X192423800Y-98590000D01*
X192463800Y-88505000D02*
X192463800Y-98585000D01*
X192503800Y-88510000D02*
X192503800Y-98580000D01*
X192543800Y-88516000D02*
X192543800Y-98574000D01*
X192583800Y-88522000D02*
X192583800Y-98568000D01*
X192623800Y-88528000D02*
X192623800Y-98562000D01*
X192663800Y-88534000D02*
X192663800Y-98556000D01*
X192703800Y-88541000D02*
X192703800Y-98549000D01*
X192743800Y-88548000D02*
X192743800Y-98542000D01*
X192783800Y-88556000D02*
X192783800Y-98534000D01*
X192823800Y-88564000D02*
X192823800Y-98526000D01*
X192863800Y-88572000D02*
X192863800Y-98518000D01*
X192903800Y-88580000D02*
X192903800Y-98510000D01*
X192943800Y-88589000D02*
X192943800Y-98501000D01*
X192983800Y-88598000D02*
X192983800Y-98492000D01*
X193023800Y-88608000D02*
X193023800Y-98482000D01*
X193063800Y-88617000D02*
X193063800Y-98473000D01*
X193103800Y-88628000D02*
X193103800Y-92305000D01*
X193103800Y-94785000D02*
X193103800Y-98462000D01*
X193143800Y-88638000D02*
X193143800Y-92305000D01*
X193143800Y-94785000D02*
X193143800Y-98452000D01*
X193183800Y-88649000D02*
X193183800Y-92305000D01*
X193183800Y-94785000D02*
X193183800Y-98441000D01*
X193223800Y-88660000D02*
X193223800Y-92305000D01*
X193223800Y-94785000D02*
X193223800Y-98430000D01*
X193263800Y-88672000D02*
X193263800Y-92305000D01*
X193263800Y-94785000D02*
X193263800Y-98418000D01*
X193303800Y-88684000D02*
X193303800Y-92305000D01*
X193303800Y-94785000D02*
X193303800Y-98406000D01*
X193343800Y-88696000D02*
X193343800Y-92305000D01*
X193343800Y-94785000D02*
X193343800Y-98394000D01*
X193383800Y-88708000D02*
X193383800Y-92305000D01*
X193383800Y-94785000D02*
X193383800Y-98382000D01*
X193423800Y-88721000D02*
X193423800Y-92305000D01*
X193423800Y-94785000D02*
X193423800Y-98369000D01*
X193463800Y-88735000D02*
X193463800Y-92305000D01*
X193463800Y-94785000D02*
X193463800Y-98355000D01*
X193503800Y-88748000D02*
X193503800Y-92305000D01*
X193503800Y-94785000D02*
X193503800Y-98342000D01*
X193543800Y-88763000D02*
X193543800Y-92305000D01*
X193543800Y-94785000D02*
X193543800Y-98327000D01*
X193583800Y-88777000D02*
X193583800Y-92305000D01*
X193583800Y-94785000D02*
X193583800Y-98313000D01*
X193623800Y-88792000D02*
X193623800Y-92305000D01*
X193623800Y-94785000D02*
X193623800Y-98298000D01*
X193663800Y-88807000D02*
X193663800Y-92305000D01*
X193663800Y-94785000D02*
X193663800Y-98283000D01*
X193703800Y-88823000D02*
X193703800Y-92305000D01*
X193703800Y-94785000D02*
X193703800Y-98267000D01*
X193743800Y-88839000D02*
X193743800Y-92305000D01*
X193743800Y-94785000D02*
X193743800Y-98251000D01*
X193783800Y-88855000D02*
X193783800Y-92305000D01*
X193783800Y-94785000D02*
X193783800Y-98235000D01*
X193823800Y-88872000D02*
X193823800Y-92305000D01*
X193823800Y-94785000D02*
X193823800Y-98218000D01*
X193863800Y-88889000D02*
X193863800Y-92305000D01*
X193863800Y-94785000D02*
X193863800Y-98201000D01*
X193903800Y-88907000D02*
X193903800Y-92305000D01*
X193903800Y-94785000D02*
X193903800Y-98183000D01*
X193943800Y-88925000D02*
X193943800Y-92305000D01*
X193943800Y-94785000D02*
X193943800Y-98165000D01*
X193983800Y-88943000D02*
X193983800Y-92305000D01*
X193983800Y-94785000D02*
X193983800Y-98147000D01*
X194023800Y-88962000D02*
X194023800Y-92305000D01*
X194023800Y-94785000D02*
X194023800Y-98128000D01*
X194063800Y-88981000D02*
X194063800Y-92305000D01*
X194063800Y-94785000D02*
X194063800Y-98109000D01*
X194103800Y-89001000D02*
X194103800Y-92305000D01*
X194103800Y-94785000D02*
X194103800Y-98089000D01*
X194143800Y-89021000D02*
X194143800Y-92305000D01*
X194143800Y-94785000D02*
X194143800Y-98069000D01*
X194183800Y-89041000D02*
X194183800Y-92305000D01*
X194183800Y-94785000D02*
X194183800Y-98049000D01*
X194223800Y-89062000D02*
X194223800Y-92305000D01*
X194223800Y-94785000D02*
X194223800Y-98028000D01*
X194263800Y-89084000D02*
X194263800Y-92305000D01*
X194263800Y-94785000D02*
X194263800Y-98006000D01*
X194303800Y-89106000D02*
X194303800Y-92305000D01*
X194303800Y-94785000D02*
X194303800Y-97984000D01*
X194343800Y-89128000D02*
X194343800Y-92305000D01*
X194343800Y-94785000D02*
X194343800Y-97962000D01*
X194383800Y-89151000D02*
X194383800Y-92305000D01*
X194383800Y-94785000D02*
X194383800Y-97939000D01*
X194423800Y-89174000D02*
X194423800Y-92305000D01*
X194423800Y-94785000D02*
X194423800Y-97916000D01*
X194463800Y-89198000D02*
X194463800Y-92305000D01*
X194463800Y-94785000D02*
X194463800Y-97892000D01*
X194503800Y-89222000D02*
X194503800Y-92305000D01*
X194503800Y-94785000D02*
X194503800Y-97868000D01*
X194543800Y-89247000D02*
X194543800Y-92305000D01*
X194543800Y-94785000D02*
X194543800Y-97843000D01*
X194583800Y-89273000D02*
X194583800Y-92305000D01*
X194583800Y-94785000D02*
X194583800Y-97817000D01*
X194623800Y-89298000D02*
X194623800Y-92305000D01*
X194623800Y-94785000D02*
X194623800Y-97792000D01*
X194663800Y-89325000D02*
X194663800Y-92305000D01*
X194663800Y-94785000D02*
X194663800Y-97765000D01*
X194703800Y-89352000D02*
X194703800Y-92305000D01*
X194703800Y-94785000D02*
X194703800Y-97738000D01*
X194743800Y-89379000D02*
X194743800Y-92305000D01*
X194743800Y-94785000D02*
X194743800Y-97711000D01*
X194783800Y-89407000D02*
X194783800Y-92305000D01*
X194783800Y-94785000D02*
X194783800Y-97683000D01*
X194823800Y-89436000D02*
X194823800Y-92305000D01*
X194823800Y-94785000D02*
X194823800Y-97654000D01*
X194863800Y-89465000D02*
X194863800Y-92305000D01*
X194863800Y-94785000D02*
X194863800Y-97625000D01*
X194903800Y-89495000D02*
X194903800Y-92305000D01*
X194903800Y-94785000D02*
X194903800Y-97595000D01*
X194943800Y-89525000D02*
X194943800Y-92305000D01*
X194943800Y-94785000D02*
X194943800Y-97565000D01*
X194983800Y-89557000D02*
X194983800Y-92305000D01*
X194983800Y-94785000D02*
X194983800Y-97533000D01*
X195023800Y-89588000D02*
X195023800Y-92305000D01*
X195023800Y-94785000D02*
X195023800Y-97502000D01*
X195063800Y-89621000D02*
X195063800Y-92305000D01*
X195063800Y-94785000D02*
X195063800Y-97469000D01*
X195103800Y-89654000D02*
X195103800Y-92305000D01*
X195103800Y-94785000D02*
X195103800Y-97436000D01*
X195143800Y-89687000D02*
X195143800Y-92305000D01*
X195143800Y-94785000D02*
X195143800Y-97403000D01*
X195183800Y-89722000D02*
X195183800Y-92305000D01*
X195183800Y-94785000D02*
X195183800Y-97368000D01*
X195223800Y-89757000D02*
X195223800Y-92305000D01*
X195223800Y-94785000D02*
X195223800Y-97333000D01*
X195263800Y-89793000D02*
X195263800Y-92305000D01*
X195263800Y-94785000D02*
X195263800Y-97297000D01*
X195303800Y-89829000D02*
X195303800Y-92305000D01*
X195303800Y-94785000D02*
X195303800Y-97261000D01*
X195343800Y-89867000D02*
X195343800Y-92305000D01*
X195343800Y-94785000D02*
X195343800Y-97223000D01*
X195383800Y-89905000D02*
X195383800Y-92305000D01*
X195383800Y-94785000D02*
X195383800Y-97185000D01*
X195423800Y-89944000D02*
X195423800Y-92305000D01*
X195423800Y-94785000D02*
X195423800Y-97146000D01*
X195463800Y-89984000D02*
X195463800Y-92305000D01*
X195463800Y-94785000D02*
X195463800Y-97106000D01*
X195503800Y-90025000D02*
X195503800Y-92305000D01*
X195503800Y-94785000D02*
X195503800Y-97065000D01*
X195543800Y-90067000D02*
X195543800Y-92305000D01*
X195543800Y-94785000D02*
X195543800Y-97023000D01*
X195583800Y-90110000D02*
X195583800Y-96980000D01*
X195623800Y-90154000D02*
X195623800Y-96936000D01*
X195663800Y-90198000D02*
X195663800Y-96892000D01*
X195703800Y-90244000D02*
X195703800Y-96846000D01*
X195743800Y-90291000D02*
X195743800Y-96799000D01*
X195783800Y-90340000D02*
X195783800Y-96750000D01*
X195823800Y-90389000D02*
X195823800Y-96701000D01*
X195863800Y-90440000D02*
X195863800Y-96650000D01*
X195903800Y-90492000D02*
X195903800Y-96598000D01*
X195943800Y-90545000D02*
X195943800Y-96545000D01*
X195983800Y-90600000D02*
X195983800Y-96490000D01*
X196023800Y-90657000D02*
X196023800Y-96433000D01*
X196063800Y-90715000D02*
X196063800Y-96375000D01*
X196103800Y-90775000D02*
X196103800Y-96315000D01*
X196143800Y-90837000D02*
X196143800Y-96253000D01*
X196183800Y-90901000D02*
X196183800Y-96189000D01*
X196223800Y-90967000D02*
X196223800Y-96123000D01*
X196263800Y-91035000D02*
X196263800Y-96055000D01*
X196303800Y-91106000D02*
X196303800Y-95984000D01*
X196343800Y-91180000D02*
X196343800Y-95910000D01*
X196383800Y-91257000D02*
X196383800Y-95833000D01*
X196423800Y-91337000D02*
X196423800Y-95753000D01*
X196463800Y-91421000D02*
X196463800Y-95669000D01*
X196503800Y-91508000D02*
X196503800Y-95582000D01*
X196543800Y-91601000D02*
X196543800Y-95489000D01*
X196583800Y-91699000D02*
X196583800Y-95391000D01*
X196623800Y-91803000D02*
X196623800Y-95287000D01*
X196663800Y-91915000D02*
X196663800Y-95175000D01*
X196703800Y-92036000D02*
X196703800Y-95054000D01*
X196743800Y-92168000D02*
X196743800Y-94922000D01*
X196783800Y-92315000D02*
X196783800Y-94775000D01*
X196823800Y-92483000D02*
X196823800Y-94607000D01*
X196863800Y-92683000D02*
X196863800Y-94407000D01*
X196903800Y-92946000D02*
X196903800Y-94144000D01*
X196943800Y-93545000D02*
G75*
G02*
X186703800Y-93545000I-5120000J0D01*
G01*
X186703800Y-93545000D02*
G75*
G02*
X196943800Y-93545000I5120000J0D01*
G01*
%TO.C,BT1*%
X103545000Y-97050000D02*
X109245000Y-97050000D01*
X103545000Y-103050000D02*
X103545000Y-97050000D01*
X103545000Y-103050000D02*
X109245000Y-103050000D01*
X109245000Y-103050000D02*
G75*
G02*
X109995000Y-103550000I0J-812500D01*
G01*
X109995000Y-96550000D02*
G75*
G02*
X109245000Y-97050000I-750000J312500D01*
G01*
X109995000Y-96550000D02*
G75*
G02*
X132440671Y-100050000I10949956J-3499989D01*
G01*
X132440671Y-100050000D02*
G75*
G02*
X109995000Y-103550000I-11495715J-11D01*
G01*
%TD*%
M02*
