%TF.GenerationSoftware,KiCad,Pcbnew,10.0.5*%
%TF.CreationDate,2026-08-03T02:51:27-07:00*%
%TF.ProjectId,cv-sos,63762d73-6f73-42e6-9b69-6361645f7063,rev?*%
%TF.SameCoordinates,Original*%
%TF.FileFunction,Copper,L2,Bot*%
%TF.FilePolarity,Positive*%
%FSLAX46Y46*%
G04 Gerber Fmt 4.6, Leading zero omitted, Abs format (unit mm)*
G04 Created by KiCad (PCBNEW 10.0.5) date 2026-08-03 02:51:27*
%MOMM*%
%LPD*%
G01*
G04 APERTURE LIST*
G04 Aperture macros list*
%AMRoundRect*
0 Rectangle with rounded corners*
0 $1 Rounding radius*
0 $2 $3 $4 $5 $6 $7 $8 $9 X,Y pos of 4 corners*
0 Add a 4 corners polygon primitive as box body*
4,1,4,$2,$3,$4,$5,$6,$7,$8,$9,$2,$3,0*
0 Add four circle primitives for the rounded corners*
1,1,$1+$1,$2,$3*
1,1,$1+$1,$4,$5*
1,1,$1+$1,$6,$7*
1,1,$1+$1,$8,$9*
0 Add four rect primitives between the rounded corners*
20,1,$1+$1,$2,$3,$4,$5,0*
20,1,$1+$1,$4,$5,$6,$7,0*
20,1,$1+$1,$6,$7,$8,$9,0*
20,1,$1+$1,$8,$9,$2,$3,0*%
G04 Aperture macros list end*
%TA.AperFunction,ComponentPad*%
%ADD10R,1.700000X1.700000*%
%TD*%
%TA.AperFunction,ComponentPad*%
%ADD11C,1.700000*%
%TD*%
%TA.AperFunction,ComponentPad*%
%ADD12R,2.000000X2.000000*%
%TD*%
%TA.AperFunction,ComponentPad*%
%ADD13C,2.000000*%
%TD*%
%TA.AperFunction,SMDPad,CuDef*%
%ADD14R,1.500000X5.080000*%
%TD*%
%TA.AperFunction,ComponentPad*%
%ADD15R,1.800000X1.800000*%
%TD*%
%TA.AperFunction,ComponentPad*%
%ADD16C,1.800000*%
%TD*%
%TA.AperFunction,ComponentPad*%
%ADD17RoundRect,0.250000X-0.750000X-0.750000X0.750000X-0.750000X0.750000X0.750000X-0.750000X0.750000X0*%
%TD*%
%TA.AperFunction,HeatsinkPad*%
%ADD18C,0.600000*%
%TD*%
%TA.AperFunction,ComponentPad*%
%ADD19R,3.000000X3.000000*%
%TD*%
%TA.AperFunction,ComponentPad*%
%ADD20C,3.000000*%
%TD*%
%TA.AperFunction,ComponentPad*%
%ADD21RoundRect,0.250000X-1.050000X-1.050000X1.050000X-1.050000X1.050000X1.050000X-1.050000X1.050000X0*%
%TD*%
%TA.AperFunction,ComponentPad*%
%ADD22C,2.600000*%
%TD*%
%TA.AperFunction,SMDPad,CuDef*%
%ADD23RoundRect,0.250000X0.250000X0.475000X-0.250000X0.475000X-0.250000X-0.475000X0.250000X-0.475000X0*%
%TD*%
%TA.AperFunction,SMDPad,CuDef*%
%ADD24RoundRect,0.250000X0.262500X0.450000X-0.262500X0.450000X-0.262500X-0.450000X0.262500X-0.450000X0*%
%TD*%
%TA.AperFunction,SMDPad,CuDef*%
%ADD25RoundRect,0.250000X0.450000X-0.262500X0.450000X0.262500X-0.450000X0.262500X-0.450000X-0.262500X0*%
%TD*%
%TA.AperFunction,ViaPad*%
%ADD26C,0.800000*%
%TD*%
%TA.AperFunction,ViaPad*%
%ADD27C,0.600000*%
%TD*%
%TA.AperFunction,Conductor*%
%ADD28C,0.800000*%
%TD*%
%TA.AperFunction,Conductor*%
%ADD29C,0.250000*%
%TD*%
G04 APERTURE END LIST*
D10*
%TO.P,M2,1*%
%TO.N,+5V*%
X139495000Y-125065000D03*
D11*
%TO.P,M2,2*%
%TO.N,SIM_TX*%
X142035000Y-125065000D03*
%TO.P,M2,3*%
%TO.N,GPS_RX*%
X144575000Y-125065000D03*
%TO.P,M2,4*%
%TO.N,GND*%
X147115000Y-125065000D03*
%TD*%
D12*
%TO.P,FB1,1*%
%TO.N,BUZZER*%
X153046200Y-120145000D03*
D13*
%TO.P,FB1,2*%
%TO.N,GND*%
X163046200Y-120145000D03*
%TD*%
D14*
%TO.P,ANT2,2*%
%TO.N,GND*%
X182615000Y-121365000D03*
X191115000Y-121365000D03*
%TD*%
D15*
%TO.P,LED0,1*%
%TO.N,GND*%
X136335000Y-130135000D03*
D16*
%TO.P,LED0,2*%
%TO.N,LED0_A*%
X138875000Y-130135000D03*
%TD*%
D10*
%TO.P,M1,1*%
%TO.N,+5V*%
X127245000Y-125065000D03*
D11*
%TO.P,M1,2*%
%TO.N,BATT_ADC*%
X129785000Y-125065000D03*
%TO.P,M1,3*%
%TO.N,SIM_RX*%
X132325000Y-125065000D03*
%TO.P,M1,4*%
%TO.N,GND*%
X134865000Y-125065000D03*
%TD*%
D14*
%TO.P,ANT1,2*%
%TO.N,GND*%
X182615000Y-102765000D03*
X191115000Y-102765000D03*
%TD*%
D10*
%TO.P,U3,1*%
%TO.N,N$U3.1*%
X168155000Y-126565000D03*
D11*
%TO.P,U3,2*%
%TO.N,N$U3.2*%
X170695000Y-126565000D03*
%TO.P,U3,3*%
%TO.N,N$U3.3*%
X173235000Y-126565000D03*
%TO.P,U3,4*%
%TO.N,N$U3.4*%
X175775000Y-126565000D03*
%TD*%
D10*
%TO.P,JP,1*%
%TO.N,UART_TX*%
X127245000Y-129695000D03*
D11*
%TO.P,JP,2*%
%TO.N,UART_RX*%
X129785000Y-129695000D03*
%TO.P,JP,3*%
%TO.N,GND*%
X132325000Y-129695000D03*
%TD*%
D15*
%TO.P,LED1,1*%
%TO.N,GND*%
X142265000Y-130135000D03*
D16*
%TO.P,LED1,2*%
%TO.N,LED1_A*%
X144805000Y-130135000D03*
%TD*%
D17*
%TO.P,C1,1*%
%TO.N,+5V*%
X106043800Y-128545000D03*
D13*
%TO.P,C1,2*%
%TO.N,GND*%
X111043800Y-128545000D03*
%TD*%
%TO.P,SW1,1*%
%TO.N,SOS_BTN*%
X116385000Y-124795000D03*
X122885000Y-124795000D03*
%TO.P,SW1,2*%
%TO.N,GND*%
X116385000Y-129295000D03*
X122885000Y-129295000D03*
%TD*%
D10*
%TO.P,SIM1,1*%
%TO.N,N$SIM1.1*%
X180405000Y-127265000D03*
D11*
%TO.P,SIM1,2*%
%TO.N,N$SIM1.2*%
X182945000Y-127265000D03*
%TO.P,SIM1,3*%
%TO.N,N$SIM1.3*%
X185485000Y-127265000D03*
%TD*%
D18*
%TO.P,U1,39*%
%TO.N,GND*%
X124490000Y-108150000D03*
X125890000Y-108150000D03*
X123790000Y-107450000D03*
X125190000Y-107450000D03*
X126590000Y-107450000D03*
X124490000Y-106750000D03*
X125890000Y-106750000D03*
X123790000Y-106050000D03*
X125190000Y-106050000D03*
X126590000Y-106050000D03*
X124490000Y-105350000D03*
X125890000Y-105350000D03*
%TD*%
D19*
%TO.P,BT1,1*%
%TO.N,+5V*%
X153245000Y-100050000D03*
D20*
%TO.P,BT1,2*%
%TO.N,GND*%
X173735000Y-100050000D03*
%TD*%
D21*
%TO.P,J1,1*%
%TO.N,+5V*%
X169385000Y-118605000D03*
D22*
%TO.P,J1,2*%
%TO.N,GND*%
X174385000Y-118605000D03*
%TD*%
D23*
%TO.P,C4,1*%
%TO.N,+3V3*%
X162425000Y-89275000D03*
%TO.P,C4,2*%
%TO.N,GND*%
X160525000Y-89275000D03*
%TD*%
%TO.P,C2,1*%
%TO.N,+3V3*%
X153445000Y-89275000D03*
%TO.P,C2,2*%
%TO.N,GND*%
X151545000Y-89275000D03*
%TD*%
D24*
%TO.P,R6,1*%
%TO.N,+3V3*%
X153387500Y-92295000D03*
%TO.P,R6,2*%
%TO.N,SIM_RX*%
X151562500Y-92295000D03*
%TD*%
D25*
%TO.P,R3,1*%
%TO.N,+3V3*%
X178605000Y-90887500D03*
%TO.P,R3,2*%
%TO.N,LED1_A*%
X178605000Y-89062500D03*
%TD*%
D24*
%TO.P,R5,1*%
%TO.N,+3V3*%
X175797500Y-92235000D03*
%TO.P,R5,2*%
%TO.N,BATT_ADC*%
X173972500Y-92235000D03*
%TD*%
%TO.P,R1,1*%
%TO.N,+3V3*%
X171347500Y-89245000D03*
%TO.P,R1,2*%
%TO.N,EN*%
X169522500Y-89245000D03*
%TD*%
%TO.P,R2,1*%
%TO.N,+3V3*%
X175797500Y-89245000D03*
%TO.P,R2,2*%
%TO.N,LED0_A*%
X173972500Y-89245000D03*
%TD*%
D23*
%TO.P,C3,1*%
%TO.N,+3V3*%
X157935000Y-89275000D03*
%TO.P,C3,2*%
%TO.N,GND*%
X156035000Y-89275000D03*
%TD*%
%TO.P,C5,1*%
%TO.N,+3V3*%
X166915000Y-89275000D03*
%TO.P,C5,2*%
%TO.N,GND*%
X165015000Y-89275000D03*
%TD*%
D24*
%TO.P,R4,1*%
%TO.N,+3V3*%
X171347500Y-92235000D03*
%TO.P,R4,2*%
%TO.N,SOS_BTN*%
X169522500Y-92235000D03*
%TD*%
%TO.P,R7,1*%
%TO.N,+3V3*%
X157837500Y-92295000D03*
%TO.P,R7,2*%
%TO.N,GPS_RX*%
X156012500Y-92295000D03*
%TD*%
%TO.P,R8,1*%
%TO.N,N$R8.1*%
X162287500Y-92295000D03*
%TO.P,R8,2*%
%TO.N,N$R8.2*%
X160462500Y-92295000D03*
%TD*%
D26*
%TO.N,GND*%
X145750000Y-100250000D03*
X166750000Y-96750000D03*
X149250000Y-96750000D03*
X103750000Y-96750000D03*
X107250000Y-117750000D03*
X117750000Y-86250000D03*
X131750000Y-121250000D03*
X103750000Y-89750000D03*
X180750000Y-117750000D03*
X156250000Y-107250000D03*
X187750000Y-86250000D03*
X117750000Y-89750000D03*
X163250000Y-86250000D03*
X131750000Y-100250000D03*
X156250000Y-138750000D03*
X137380000Y-110965000D03*
X138750000Y-117750000D03*
X135250000Y-93250000D03*
X145750000Y-86250000D03*
X180750000Y-107250000D03*
X177250000Y-117750000D03*
X173750000Y-131750000D03*
X121250000Y-93250000D03*
X170250000Y-114250000D03*
X173750000Y-110750000D03*
X131750000Y-82750000D03*
X166750000Y-138750000D03*
X159750000Y-124750000D03*
X191250000Y-110750000D03*
X187750000Y-107250000D03*
X163250000Y-135250000D03*
X184250000Y-89750000D03*
X124750000Y-110750000D03*
X110750000Y-86250000D03*
X121250000Y-117750000D03*
X159750000Y-114250000D03*
X131750000Y-131750000D03*
X103750000Y-124750000D03*
X121250000Y-82750000D03*
X152750000Y-96750000D03*
X128250000Y-110750000D03*
X191250000Y-86250000D03*
X177250000Y-100250000D03*
X103750000Y-135250000D03*
X107250000Y-114250000D03*
X191250000Y-93250000D03*
X166750000Y-135250000D03*
X131750000Y-110750000D03*
X107250000Y-138750000D03*
X135250000Y-86250000D03*
X149250000Y-107250000D03*
X128250000Y-93250000D03*
X166750000Y-131750000D03*
X124750000Y-93250000D03*
X191115000Y-116824999D03*
X152750000Y-110750000D03*
X142250000Y-114250000D03*
X135250000Y-138750000D03*
X131750000Y-103750000D03*
X187750000Y-128250000D03*
X124750000Y-89750000D03*
X152750000Y-114250000D03*
X184250000Y-82750000D03*
X103750000Y-117750000D03*
X193523000Y-105173000D03*
X152750000Y-107250000D03*
X152750000Y-86250000D03*
X124750000Y-131750000D03*
X103750000Y-107250000D03*
X180207000Y-100357000D03*
X177250000Y-138750000D03*
X145750000Y-114250000D03*
X170250000Y-107250000D03*
X110750000Y-117750000D03*
X110750000Y-135250000D03*
X121250000Y-103750000D03*
X128250000Y-86250000D03*
X138750000Y-86250000D03*
X170250000Y-135250000D03*
X156250000Y-131750000D03*
X142250000Y-117750000D03*
X180750000Y-135250000D03*
X142250000Y-89750000D03*
X117750000Y-93250000D03*
X166750000Y-121250000D03*
X121250000Y-138750000D03*
X145750000Y-103750000D03*
X180750000Y-114250000D03*
X163250000Y-82750000D03*
X184250000Y-93250000D03*
X177250000Y-124750000D03*
X180207000Y-105173000D03*
X122885000Y-131695000D03*
X114250000Y-135250000D03*
X156250000Y-128250000D03*
X149250000Y-121250000D03*
X177250000Y-110750000D03*
X114250000Y-86250000D03*
X117750000Y-135250000D03*
X110750000Y-93250000D03*
X107250000Y-124750000D03*
X114250000Y-82750000D03*
X191250000Y-89750000D03*
X180750000Y-124750000D03*
X149250000Y-89750000D03*
X159750000Y-100250000D03*
X121250000Y-110750000D03*
X165015000Y-91400000D03*
X145750000Y-82750000D03*
X191250000Y-135250000D03*
X187750000Y-93250000D03*
X184250000Y-114250000D03*
X110750000Y-124750000D03*
X191250000Y-82750000D03*
X128250000Y-103750000D03*
X156250000Y-100250000D03*
X124750000Y-103750000D03*
X124750000Y-82750000D03*
X174385000Y-115905000D03*
X128250000Y-117750000D03*
X124750000Y-117750000D03*
X131750000Y-117750000D03*
X170250000Y-103750000D03*
X117750000Y-131750000D03*
X156250000Y-121250000D03*
X182615000Y-106705000D03*
X121250000Y-135250000D03*
X184250000Y-96750000D03*
X156250000Y-82750000D03*
X145750000Y-138750000D03*
X193523000Y-118957000D03*
X103750000Y-114250000D03*
X187750000Y-96750000D03*
X166750000Y-114250000D03*
X149250000Y-124750000D03*
X184250000Y-135250000D03*
X163250000Y-110750000D03*
X142250000Y-82750000D03*
X180750000Y-110750000D03*
X177250000Y-128250000D03*
X103750000Y-82750000D03*
X107250000Y-107250000D03*
X124750000Y-100250000D03*
X142250000Y-103750000D03*
X121250000Y-86250000D03*
X138750000Y-135250000D03*
X149250000Y-103750000D03*
X159750000Y-117750000D03*
X107250000Y-96750000D03*
X187750000Y-138750000D03*
X166750000Y-86250000D03*
X138750000Y-114250000D03*
X138750000Y-110750000D03*
X103750000Y-93250000D03*
X145750000Y-117750000D03*
X103750000Y-110750000D03*
X142250000Y-86250000D03*
X117750000Y-138750000D03*
X173750000Y-86250000D03*
X107250000Y-131750000D03*
X107250000Y-135250000D03*
X149250000Y-114250000D03*
X110750000Y-121250000D03*
X113444000Y-128545000D03*
X156250000Y-96750000D03*
X152750000Y-82750000D03*
X177085000Y-118605000D03*
X103750000Y-128250000D03*
X103750000Y-138750000D03*
X156250000Y-110750000D03*
X156250000Y-86250000D03*
X159750000Y-131750000D03*
X107250000Y-103750000D03*
X173750000Y-96750000D03*
X117470000Y-94350000D03*
X159750000Y-110750000D03*
X173750000Y-138750000D03*
X163250000Y-100250000D03*
X177250000Y-96750000D03*
X121250000Y-89750000D03*
X173750000Y-135250000D03*
X135250000Y-135250000D03*
X137115000Y-125065000D03*
X163250000Y-103750000D03*
X166750000Y-117750000D03*
X117750000Y-121250000D03*
X152750000Y-131750000D03*
X159750000Y-103750000D03*
X170250000Y-86250000D03*
X173750000Y-114250000D03*
X114250000Y-131750000D03*
X180750000Y-121250000D03*
X152750000Y-117750000D03*
X121250000Y-107250000D03*
X128250000Y-135250000D03*
X177250000Y-131750000D03*
X159750000Y-107250000D03*
X180750000Y-89750000D03*
X142265000Y-132435000D03*
X149250000Y-117750000D03*
X149250000Y-86250000D03*
X191250000Y-114250000D03*
X170250000Y-131750000D03*
X138750000Y-103750000D03*
X138750000Y-121250000D03*
X173750000Y-103750000D03*
X187750000Y-110750000D03*
X166750000Y-100250000D03*
X175765000Y-102080000D03*
X166750000Y-93250000D03*
X103750000Y-86250000D03*
X131750000Y-89750000D03*
X110750000Y-89750000D03*
X145750000Y-107250000D03*
X177250000Y-114250000D03*
X107250000Y-100250000D03*
X179175000Y-102765000D03*
X152750000Y-124750000D03*
X177250000Y-82750000D03*
X163250000Y-138750000D03*
X117470000Y-116150000D03*
X191250000Y-138750000D03*
X121250000Y-131750000D03*
X180750000Y-82750000D03*
X131750000Y-93250000D03*
X173750000Y-121250000D03*
X135250000Y-89750000D03*
X131750000Y-107250000D03*
X152750000Y-138750000D03*
X156035000Y-87150000D03*
X177250000Y-107250000D03*
X142250000Y-100250000D03*
X142250000Y-135250000D03*
X107250000Y-82750000D03*
X114250000Y-93250000D03*
X163250000Y-107250000D03*
X138750000Y-82750000D03*
X149250000Y-100250000D03*
X149250000Y-82750000D03*
X159750000Y-135250000D03*
X159750000Y-96750000D03*
X180750000Y-138750000D03*
X114250000Y-121250000D03*
X191250000Y-117750000D03*
X142250000Y-107250000D03*
X159750000Y-138750000D03*
X170250000Y-100250000D03*
X149250000Y-93250000D03*
X163250000Y-124750000D03*
X145750000Y-89750000D03*
X124750000Y-86250000D03*
X177250000Y-135250000D03*
X145750000Y-110750000D03*
X117750000Y-82750000D03*
X187750000Y-82750000D03*
X117750000Y-117750000D03*
X166750000Y-82750000D03*
X114250000Y-128250000D03*
X180750000Y-86250000D03*
X121250000Y-100250000D03*
X136335000Y-132435000D03*
X187750000Y-131750000D03*
X131750000Y-135250000D03*
X128250000Y-121250000D03*
X180750000Y-131750000D03*
X149250000Y-131750000D03*
X156250000Y-124750000D03*
X184250000Y-107250000D03*
X135250000Y-121250000D03*
X142250000Y-93250000D03*
X177250000Y-86250000D03*
X131750000Y-138750000D03*
X128250000Y-89750000D03*
X159750000Y-86250000D03*
X191250000Y-128250000D03*
X107250000Y-110750000D03*
X170250000Y-138750000D03*
X184250000Y-110750000D03*
X191250000Y-96750000D03*
X163250000Y-131750000D03*
X177250000Y-103750000D03*
X124750000Y-138750000D03*
X170250000Y-96750000D03*
X173750000Y-107250000D03*
X163250000Y-96750000D03*
X156250000Y-117750000D03*
X145750000Y-121250000D03*
X142250000Y-96750000D03*
X160525000Y-87150000D03*
X149250000Y-128250000D03*
X124750000Y-121250000D03*
X145750000Y-93250000D03*
X135250000Y-117750000D03*
X110750000Y-138750000D03*
X107250000Y-121250000D03*
X156250000Y-114250000D03*
X114250000Y-138750000D03*
X145750000Y-128250000D03*
X159750000Y-82750000D03*
X166750000Y-110750000D03*
X187750000Y-114250000D03*
X191250000Y-107250000D03*
X128250000Y-82750000D03*
X156250000Y-103750000D03*
X149250000Y-135250000D03*
X170250000Y-121250000D03*
X184250000Y-131750000D03*
X187750000Y-135250000D03*
X142250000Y-138750000D03*
X177250000Y-121250000D03*
X180750000Y-96750000D03*
X149250000Y-110750000D03*
X114250000Y-117750000D03*
X184250000Y-86250000D03*
X107250000Y-93250000D03*
X152750000Y-135250000D03*
X191115000Y-125305000D03*
X103750000Y-131750000D03*
X124750000Y-135250000D03*
X138750000Y-107250000D03*
X159750000Y-128250000D03*
X107250000Y-89750000D03*
X173735000Y-102950000D03*
X193523000Y-100357000D03*
X103750000Y-103750000D03*
X166750000Y-107250000D03*
X163250000Y-128250000D03*
X131750000Y-86250000D03*
X145750000Y-96750000D03*
X152750000Y-103750000D03*
X138750000Y-96750000D03*
X138750000Y-100250000D03*
X159750000Y-121250000D03*
X193523000Y-123773000D03*
X128250000Y-107250000D03*
X152750000Y-128250000D03*
X138750000Y-89750000D03*
X191250000Y-131750000D03*
X191115000Y-98825000D03*
X180750000Y-93250000D03*
X173750000Y-82750000D03*
X121250000Y-121250000D03*
X110750000Y-131750000D03*
X103750000Y-121250000D03*
X135250000Y-82750000D03*
X103750000Y-100250000D03*
X156250000Y-135250000D03*
X128250000Y-100250000D03*
X184250000Y-117750000D03*
X170250000Y-82750000D03*
X145750000Y-135250000D03*
X166750000Y-103750000D03*
X142250000Y-121250000D03*
X142250000Y-110750000D03*
X163250000Y-117750000D03*
X107250000Y-86250000D03*
X128250000Y-138750000D03*
X187750000Y-89750000D03*
X170250000Y-110750000D03*
X163250000Y-114250000D03*
X138750000Y-93250000D03*
X114250000Y-89750000D03*
%TO.N,+5V*%
X144466500Y-135155900D03*
D27*
%TO.N,GPS_RX*%
X133289500Y-94155600D03*
X144466500Y-93588000D03*
%TO.N,BUZZER*%
X130184800Y-117042600D03*
%TO.N,LED0_A*%
X144466500Y-89653400D03*
%TO.N,BATT_ADC*%
X128553200Y-108631700D03*
%TO.N,SIM_RX*%
X132259600Y-94400700D03*
D26*
%TO.N,+3V3*%
X124653700Y-98788700D03*
D27*
%TO.N,UART_TX*%
X121741500Y-116453200D03*
X117856600Y-111099200D03*
%TO.N,UART_RX*%
X129253200Y-115726200D03*
X130186000Y-111099200D03*
X123549600Y-122961600D03*
%TO.N,LED1_A*%
X147704300Y-96273500D03*
%TO.N,SOS_BTN*%
X148181200Y-103437900D03*
X154872900Y-94025100D03*
X136320200Y-114070700D03*
%TO.N,EN*%
X125715000Y-98557900D03*
%TD*%
%TO.N,+5V*%
D28*
X169385000Y-118605000D02*
X167823600Y-118605000D01*
X137931800Y-123501800D02*
X139495000Y-125065000D01*
X142208300Y-122351700D02*
X139495000Y-125065000D01*
X126469200Y-125065000D02*
X128032400Y-123501800D01*
X126469200Y-125065000D02*
X125693300Y-125065000D01*
X128032400Y-123501800D02*
X137931800Y-123501800D01*
X141884400Y-133662500D02*
X140484800Y-132262900D01*
X142973100Y-133662500D02*
X141884400Y-133662500D01*
X127245000Y-125065000D02*
X126469200Y-125065000D01*
X124141600Y-126616700D02*
X125693300Y-125065000D01*
X164076900Y-122351700D02*
X142208300Y-122351700D01*
X140484800Y-127606500D02*
X139495000Y-126616700D01*
X167823600Y-118605000D02*
X164076900Y-122351700D01*
X106043800Y-128545000D02*
X107972100Y-126616700D01*
X144466500Y-135155900D02*
X142973100Y-133662500D01*
X140484800Y-132262900D02*
X140484800Y-127606500D01*
X107972100Y-126616700D02*
X124141600Y-126616700D01*
X139495000Y-125065000D02*
X139495000Y-126616700D01*
%TO.N,GPS_RX*%
D29*
X155716800Y-92295000D02*
X153927200Y-94084600D01*
X144466500Y-94084600D02*
X144466500Y-93588000D01*
X156012500Y-92295000D02*
X155716800Y-92295000D01*
X144466500Y-94155600D02*
X133289500Y-94155600D01*
X144466500Y-94155600D02*
X144466500Y-94084600D01*
X153927200Y-94084600D02*
X144466500Y-94084600D01*
%TO.N,BUZZER*%
X151719500Y-120145000D02*
X151719500Y-118984100D01*
X130186000Y-117042600D02*
X130184800Y-117042600D01*
X130316700Y-116911900D02*
X130186000Y-117042600D01*
X153046200Y-120145000D02*
X151719500Y-120145000D01*
X151719500Y-118984100D02*
X149647300Y-116911900D01*
X149647300Y-116911900D02*
X130316700Y-116911900D01*
%TO.N,LED0_A*%
X173972500Y-88753600D02*
X169466700Y-84247800D01*
X149872100Y-84247800D02*
X144466500Y-89653400D01*
X173972500Y-89245000D02*
X173972500Y-88753600D01*
X169466700Y-84247800D02*
X149872100Y-84247800D01*
%TO.N,BATT_ADC*%
X171004800Y-95202700D02*
X173972500Y-92235000D01*
X146651400Y-96379500D02*
X147828200Y-95202700D01*
X135038800Y-108631700D02*
X146651400Y-97019100D01*
X128553200Y-108631700D02*
X135038800Y-108631700D01*
X147828200Y-95202700D02*
X171004800Y-95202700D01*
X146651400Y-97019100D02*
X146651400Y-96379500D01*
%TO.N,SIM_RX*%
X151562500Y-92295000D02*
X134263900Y-92295000D01*
X134263900Y-92295000D02*
X132259600Y-94299300D01*
X132259600Y-94299300D02*
X132259600Y-94400700D01*
%TO.N,+3V3*%
D28*
X152846500Y-90797500D02*
X152594800Y-90545800D01*
X125768600Y-97555000D02*
X125298900Y-97555000D01*
X153387500Y-90797500D02*
X152846500Y-90797500D01*
X153445000Y-89275000D02*
X153445000Y-90797500D01*
X175797500Y-90659500D02*
X175797500Y-89245000D01*
X176585300Y-91447200D02*
X175797500Y-90659500D01*
X178084800Y-91407700D02*
X176624800Y-91407700D01*
X165588100Y-87784700D02*
X165588100Y-85845600D01*
X171347500Y-88969800D02*
X171347500Y-89245000D01*
X157935000Y-89275000D02*
X157935000Y-90716700D01*
X176624800Y-91407700D02*
X176585300Y-91447200D01*
X166915000Y-89033500D02*
X166915000Y-89275000D01*
X157935000Y-90716700D02*
X157854200Y-90797500D01*
X152594800Y-90297400D02*
X152747700Y-90144500D01*
X162425000Y-89275000D02*
X162425000Y-89504000D01*
X172762000Y-90659500D02*
X171347500Y-89245000D01*
X165588100Y-87784700D02*
X165666200Y-87784700D01*
X153445000Y-90797500D02*
X157837500Y-90797500D01*
X165588100Y-85845600D02*
X166305400Y-85128300D01*
X162425000Y-89504000D02*
X161212300Y-90716700D01*
X161212300Y-90716700D02*
X157935000Y-90716700D01*
X171347500Y-92074000D02*
X172762000Y-90659500D01*
X157837500Y-90797500D02*
X157837500Y-92295000D01*
X178605000Y-90887500D02*
X178084800Y-91407700D01*
X152747700Y-88405500D02*
X152189500Y-87847300D01*
X171347500Y-92235000D02*
X171347500Y-92074000D01*
X167506000Y-85128300D02*
X171347500Y-88969800D01*
X132429800Y-90893800D02*
X125768600Y-97555000D01*
X146548200Y-90893800D02*
X132429800Y-90893800D01*
X175797500Y-90659500D02*
X172762000Y-90659500D01*
X124653700Y-98200200D02*
X124653700Y-98788700D01*
X152189500Y-87847300D02*
X149594700Y-87847300D01*
X165666200Y-87784700D02*
X166915000Y-89033500D01*
X176585300Y-91447200D02*
X175797500Y-92235000D01*
X153387500Y-90797500D02*
X153387500Y-92295000D01*
X166305400Y-85128300D02*
X167506000Y-85128300D01*
X125298900Y-97555000D02*
X124653700Y-98200200D01*
X153387500Y-90797500D02*
X153445000Y-90797500D01*
X152747700Y-90144500D02*
X152747700Y-88405500D01*
X162425000Y-89275000D02*
X163915300Y-87784700D01*
X163915300Y-87784700D02*
X165588100Y-87784700D01*
X149594700Y-87847300D02*
X146548200Y-90893800D01*
X152594800Y-90545800D02*
X152594800Y-90297400D01*
%TO.N,UART_TX*%
D29*
X117856600Y-111099200D02*
X121741500Y-114984100D01*
X121741500Y-114984100D02*
X121741500Y-116453200D01*
%TO.N,UART_RX*%
X123549600Y-121196700D02*
X129020100Y-115726200D01*
X129253200Y-112032000D02*
X129253200Y-115726200D01*
X123549600Y-122961600D02*
X123549600Y-121196700D01*
X129020100Y-115726200D02*
X129253200Y-115726200D01*
X130186000Y-111099200D02*
X129253200Y-112032000D01*
%TO.N,LED1_A*%
X179748300Y-90205800D02*
X178605000Y-89062500D01*
X147704300Y-96273500D02*
X148255800Y-95722000D01*
X175455000Y-95722000D02*
X179748300Y-91428700D01*
X179748300Y-91428700D02*
X179748300Y-90205800D01*
X148255800Y-95722000D02*
X175455000Y-95722000D01*
%TO.N,SOS_BTN*%
X154872900Y-94025100D02*
X163710500Y-94025100D01*
X129164800Y-118515200D02*
X122885000Y-124795000D01*
X132270500Y-114070700D02*
X129164800Y-117176400D01*
X137548400Y-114070700D02*
X148181200Y-103437900D01*
X163710500Y-94025100D02*
X165500600Y-92235000D01*
X129164800Y-117176400D02*
X129164800Y-118515200D01*
X136320200Y-114070700D02*
X132270500Y-114070700D01*
X165500600Y-92235000D02*
X169522500Y-92235000D01*
X136320200Y-114070700D02*
X137548400Y-114070700D01*
X116385000Y-124795000D02*
X122885000Y-124795000D01*
%TO.N,EN*%
X146642700Y-94683400D02*
X142769400Y-98556700D01*
X169522500Y-89245000D02*
X170385000Y-90107500D01*
X170385000Y-90107500D02*
X170385000Y-92911400D01*
X142769400Y-98556700D02*
X125713800Y-98556700D01*
X168613000Y-94683400D02*
X146642700Y-94683400D01*
X170385000Y-92911400D02*
X168613000Y-94683400D01*
%TD*%
%TA.AperFunction,Conductor*%
%TO.N,GND*%
G36*
X149403887Y-117557085D02*
G01*
X149424529Y-117573719D01*
X151057681Y-119206871D01*
X151091166Y-119268194D01*
X151094000Y-119294552D01*
X151094000Y-120206610D01*
X151118035Y-120327444D01*
X151118038Y-120327454D01*
X151165187Y-120441283D01*
X151165192Y-120441292D01*
X151233641Y-120543732D01*
X151233644Y-120543736D01*
X151320763Y-120630855D01*
X151320767Y-120630858D01*
X151423207Y-120699307D01*
X151423214Y-120699311D01*
X151469153Y-120718339D01*
X151523555Y-120762179D01*
X151545621Y-120828473D01*
X151545700Y-120832900D01*
X151545700Y-121192869D01*
X151545701Y-121192876D01*
X151552109Y-121252484D01*
X151563814Y-121283868D01*
X151568798Y-121353559D01*
X151535312Y-121414882D01*
X151473989Y-121448366D01*
X151447632Y-121451200D01*
X142119604Y-121451200D01*
X141945639Y-121485803D01*
X141945623Y-121485808D01*
X141829753Y-121533802D01*
X141829754Y-121533803D01*
X141781754Y-121553686D01*
X141653938Y-121639091D01*
X141653937Y-121639092D01*
X141634262Y-121652237D01*
X139608318Y-123678181D01*
X139546995Y-123711666D01*
X139520637Y-123714500D01*
X139469362Y-123714500D01*
X139402323Y-123694815D01*
X139381681Y-123678181D01*
X138505835Y-122802335D01*
X138505830Y-122802331D01*
X138446761Y-122762864D01*
X138446760Y-122762863D01*
X138358344Y-122703785D01*
X138358342Y-122703784D01*
X138276407Y-122669846D01*
X138276406Y-122669846D01*
X138194466Y-122635905D01*
X138194458Y-122635903D01*
X138020496Y-122601300D01*
X138020492Y-122601300D01*
X138020491Y-122601300D01*
X128121092Y-122601300D01*
X127943709Y-122601300D01*
X127943704Y-122601300D01*
X127769739Y-122635903D01*
X127769723Y-122635908D01*
X127653853Y-122683902D01*
X127653854Y-122683903D01*
X127605854Y-122703786D01*
X127458365Y-122802335D01*
X127458361Y-122802338D01*
X126582517Y-123678181D01*
X126521194Y-123711666D01*
X126494837Y-123714500D01*
X126347130Y-123714500D01*
X126347123Y-123714501D01*
X126287516Y-123720908D01*
X126152671Y-123771202D01*
X126152664Y-123771206D01*
X126037455Y-123857452D01*
X126037452Y-123857455D01*
X125951206Y-123972664D01*
X125951202Y-123972671D01*
X125909742Y-124083833D01*
X125867871Y-124139767D01*
X125802407Y-124164184D01*
X125793560Y-124164500D01*
X125604603Y-124164500D01*
X125430641Y-124199103D01*
X125430629Y-124199106D01*
X125348692Y-124233045D01*
X125348693Y-124233046D01*
X125266755Y-124266985D01*
X125217626Y-124299813D01*
X125193200Y-124316133D01*
X125119261Y-124365537D01*
X125119260Y-124365538D01*
X124597181Y-124887618D01*
X124535858Y-124921103D01*
X124466166Y-124916119D01*
X124410233Y-124874247D01*
X124385816Y-124808783D01*
X124385500Y-124799937D01*
X124385500Y-124676902D01*
X124348553Y-124443631D01*
X124323493Y-124366505D01*
X124316218Y-124344118D01*
X124314224Y-124274279D01*
X124346467Y-124218122D01*
X129650657Y-118913934D01*
X129681573Y-118867666D01*
X129719111Y-118811486D01*
X129766263Y-118697652D01*
X129784692Y-118605000D01*
X129788598Y-118585366D01*
X129788598Y-118585361D01*
X129790300Y-118576807D01*
X129790300Y-118453594D01*
X129790300Y-117930691D01*
X129809985Y-117863652D01*
X129862789Y-117817897D01*
X129931947Y-117807953D01*
X129950311Y-117812035D01*
X129951294Y-117812333D01*
X129951303Y-117812337D01*
X129951312Y-117812338D01*
X129951316Y-117812340D01*
X130105953Y-117843099D01*
X130105956Y-117843100D01*
X130105958Y-117843100D01*
X130263644Y-117843100D01*
X130263645Y-117843099D01*
X130418297Y-117812337D01*
X130563979Y-117751994D01*
X130695089Y-117664389D01*
X130785760Y-117573717D01*
X130847081Y-117540234D01*
X130873440Y-117537400D01*
X149336848Y-117537400D01*
X149403887Y-117557085D01*
G37*
%TD.AperFunction*%
%TA.AperFunction,Conductor*%
G36*
X128458634Y-117274769D02*
G01*
X128514567Y-117316641D01*
X128538984Y-117382105D01*
X128539300Y-117390951D01*
X128539300Y-118204746D01*
X128519615Y-118271785D01*
X128502981Y-118292427D01*
X124386781Y-122408627D01*
X124325458Y-122442112D01*
X124255766Y-122437128D01*
X124199833Y-122395256D01*
X124175416Y-122329792D01*
X124175100Y-122320946D01*
X124175100Y-121507151D01*
X124194785Y-121440112D01*
X124211414Y-121419475D01*
X128327619Y-117303269D01*
X128388942Y-117269785D01*
X128458634Y-117274769D01*
G37*
%TD.AperFunction*%
%TA.AperFunction,Conductor*%
G36*
X133647686Y-91813985D02*
G01*
X133693441Y-91866789D01*
X133703385Y-91935947D01*
X133674360Y-91999503D01*
X133668328Y-92005981D01*
X132072817Y-93601491D01*
X132030903Y-93626636D01*
X132031730Y-93628632D01*
X131880427Y-93691302D01*
X131880414Y-93691309D01*
X131749311Y-93778910D01*
X131749307Y-93778913D01*
X131637813Y-93890407D01*
X131637810Y-93890411D01*
X131550209Y-94021514D01*
X131550202Y-94021527D01*
X131489864Y-94167198D01*
X131489861Y-94167210D01*
X131459100Y-94321853D01*
X131459100Y-94479546D01*
X131489861Y-94634189D01*
X131489864Y-94634201D01*
X131550202Y-94779872D01*
X131550209Y-94779885D01*
X131637810Y-94910988D01*
X131637813Y-94910992D01*
X131749307Y-95022486D01*
X131749311Y-95022489D01*
X131880414Y-95110090D01*
X131880427Y-95110097D01*
X132026098Y-95170435D01*
X132026103Y-95170437D01*
X132180753Y-95201199D01*
X132180756Y-95201200D01*
X132180758Y-95201200D01*
X132338444Y-95201200D01*
X132338445Y-95201199D01*
X132493097Y-95170437D01*
X132638779Y-95110094D01*
X132769889Y-95022489D01*
X132863801Y-94928576D01*
X132925122Y-94895093D01*
X132994814Y-94900077D01*
X132998914Y-94901690D01*
X133056003Y-94925337D01*
X133204389Y-94954853D01*
X133210653Y-94956099D01*
X133210656Y-94956100D01*
X133210658Y-94956100D01*
X133368344Y-94956100D01*
X133368345Y-94956099D01*
X133522997Y-94925337D01*
X133668679Y-94864994D01*
X133762959Y-94801998D01*
X133829636Y-94781120D01*
X133831850Y-94781100D01*
X144528107Y-94781100D01*
X144528108Y-94781099D01*
X144648952Y-94757063D01*
X144739542Y-94719538D01*
X144786995Y-94710100D01*
X145432047Y-94710100D01*
X145499086Y-94729785D01*
X145544841Y-94782589D01*
X145554785Y-94851747D01*
X145525760Y-94915303D01*
X145519728Y-94921781D01*
X142546629Y-97894881D01*
X142485306Y-97928366D01*
X142458948Y-97931200D01*
X126965262Y-97931200D01*
X126898223Y-97911515D01*
X126852468Y-97858711D01*
X126842524Y-97789553D01*
X126871549Y-97725997D01*
X126877581Y-97719519D01*
X132766480Y-91830619D01*
X132827803Y-91797134D01*
X132854161Y-91794300D01*
X133580647Y-91794300D01*
X133647686Y-91813985D01*
G37*
%TD.AperFunction*%
%TA.AperFunction,Conductor*%
G36*
X168505022Y-92880185D02*
G01*
X168550777Y-92932989D01*
X168555686Y-92945489D01*
X168575186Y-93004334D01*
X168642452Y-93113391D01*
X168667289Y-93153657D01*
X168791344Y-93277712D01*
X168869862Y-93326142D01*
X168916587Y-93378090D01*
X168927810Y-93447052D01*
X168899966Y-93511135D01*
X168892447Y-93519362D01*
X168390229Y-94021581D01*
X168328906Y-94055066D01*
X168302548Y-94057900D01*
X164861652Y-94057900D01*
X164794613Y-94038215D01*
X164748858Y-93985411D01*
X164738914Y-93916253D01*
X164767939Y-93852697D01*
X164773971Y-93846219D01*
X165161091Y-93459100D01*
X165723372Y-92896819D01*
X165784695Y-92863334D01*
X165811053Y-92860500D01*
X168437983Y-92860500D01*
X168505022Y-92880185D01*
G37*
%TD.AperFunction*%
%TA.AperFunction,Conductor*%
G36*
X143784807Y-92940185D02*
G01*
X143830562Y-92992989D01*
X143840506Y-93062147D01*
X143820870Y-93113391D01*
X143757109Y-93208814D01*
X143757102Y-93208827D01*
X143696764Y-93354498D01*
X143696761Y-93354508D01*
X143681687Y-93430292D01*
X143649302Y-93492203D01*
X143588586Y-93526777D01*
X143560070Y-93530100D01*
X134212752Y-93530100D01*
X134145713Y-93510415D01*
X134099958Y-93457611D01*
X134090014Y-93388453D01*
X134119039Y-93324897D01*
X134125071Y-93318419D01*
X134486671Y-92956819D01*
X134547994Y-92923334D01*
X134574352Y-92920500D01*
X143717768Y-92920500D01*
X143784807Y-92940185D01*
G37*
%TD.AperFunction*%
%TA.AperFunction,Conductor*%
G36*
X150545022Y-92940185D02*
G01*
X150590777Y-92992989D01*
X150595686Y-93005489D01*
X150615185Y-93064331D01*
X150615186Y-93064333D01*
X150615187Y-93064336D01*
X150623437Y-93077711D01*
X150705343Y-93210503D01*
X150707289Y-93213657D01*
X150741051Y-93247419D01*
X150774536Y-93308742D01*
X150769552Y-93378434D01*
X150727680Y-93434367D01*
X150662216Y-93458784D01*
X150653370Y-93459100D01*
X145358807Y-93459100D01*
X145291768Y-93439415D01*
X145246013Y-93386611D01*
X145237190Y-93359292D01*
X145236238Y-93354508D01*
X145236237Y-93354507D01*
X145236237Y-93354503D01*
X145221291Y-93318419D01*
X145175897Y-93208827D01*
X145175890Y-93208814D01*
X145112130Y-93113391D01*
X145091252Y-93046714D01*
X145109736Y-92979333D01*
X145161715Y-92932643D01*
X145215232Y-92920500D01*
X150477983Y-92920500D01*
X150545022Y-92940185D01*
G37*
%TD.AperFunction*%
%TA.AperFunction,Conductor*%
G36*
X167148677Y-86048485D02*
G01*
X167169319Y-86065119D01*
X168133604Y-87029404D01*
X169004107Y-87899906D01*
X169037592Y-87961229D01*
X169032608Y-88030921D01*
X168990736Y-88086854D01*
X168955436Y-88105291D01*
X168940671Y-88110184D01*
X168940663Y-88110187D01*
X168791342Y-88202289D01*
X168667289Y-88326342D01*
X168575187Y-88475663D01*
X168575186Y-88475666D01*
X168520001Y-88642203D01*
X168520001Y-88642204D01*
X168520000Y-88642204D01*
X168509500Y-88744983D01*
X168509500Y-89745001D01*
X168509501Y-89745019D01*
X168520000Y-89847796D01*
X168520001Y-89847799D01*
X168575185Y-90014331D01*
X168575187Y-90014336D01*
X168605006Y-90062681D01*
X168667288Y-90163656D01*
X168791344Y-90287712D01*
X168940666Y-90379814D01*
X169107203Y-90434999D01*
X169209991Y-90445500D01*
X169635500Y-90445499D01*
X169702539Y-90465183D01*
X169748294Y-90517987D01*
X169759500Y-90569499D01*
X169759500Y-90910500D01*
X169739815Y-90977539D01*
X169687011Y-91023294D01*
X169635500Y-91034500D01*
X169209998Y-91034500D01*
X169209980Y-91034501D01*
X169107203Y-91045000D01*
X169107200Y-91045001D01*
X168940668Y-91100185D01*
X168940663Y-91100187D01*
X168791342Y-91192289D01*
X168667289Y-91316342D01*
X168575187Y-91465663D01*
X168575186Y-91465666D01*
X168558934Y-91514713D01*
X168555689Y-91524505D01*
X168515916Y-91581949D01*
X168451400Y-91608772D01*
X168437983Y-91609500D01*
X165568341Y-91609500D01*
X165568321Y-91609499D01*
X165562207Y-91609499D01*
X165438994Y-91609499D01*
X165338197Y-91629548D01*
X165338192Y-91629548D01*
X165318149Y-91633536D01*
X165284552Y-91647453D01*
X165284551Y-91647453D01*
X165204321Y-91680684D01*
X165204308Y-91680691D01*
X165101867Y-91749141D01*
X165101863Y-91749144D01*
X163487729Y-93363281D01*
X163426406Y-93396766D01*
X163400048Y-93399600D01*
X163250195Y-93399600D01*
X163183156Y-93379915D01*
X163137401Y-93327111D01*
X163127457Y-93257953D01*
X163144654Y-93210506D01*
X163234814Y-93064334D01*
X163289999Y-92897797D01*
X163300500Y-92795009D01*
X163300499Y-91794992D01*
X163300428Y-91794300D01*
X163289999Y-91692203D01*
X163289998Y-91692200D01*
X163270559Y-91633537D01*
X163234814Y-91525666D01*
X163142712Y-91376344D01*
X163018656Y-91252288D01*
X162869334Y-91160186D01*
X162702797Y-91105001D01*
X162702795Y-91105000D01*
X162600016Y-91094500D01*
X162600009Y-91094500D01*
X162407360Y-91094500D01*
X162340321Y-91074815D01*
X162294566Y-91022011D01*
X162284622Y-90952853D01*
X162313647Y-90889297D01*
X162319679Y-90882819D01*
X162394039Y-90808459D01*
X162668190Y-90534308D01*
X162729511Y-90500825D01*
X162743258Y-90498634D01*
X162827797Y-90489999D01*
X162994334Y-90434814D01*
X163143656Y-90342712D01*
X163267712Y-90218656D01*
X163359814Y-90069334D01*
X163414999Y-89902797D01*
X163425500Y-89800009D01*
X163425500Y-89799986D01*
X164015001Y-89799986D01*
X164025494Y-89902697D01*
X164080641Y-90069119D01*
X164080643Y-90069124D01*
X164172684Y-90218345D01*
X164296654Y-90342315D01*
X164445875Y-90434356D01*
X164445880Y-90434358D01*
X164612302Y-90489505D01*
X164612309Y-90489506D01*
X164715019Y-90499999D01*
X164764999Y-90499998D01*
X164765000Y-90499998D01*
X164765000Y-89525000D01*
X164015001Y-89525000D01*
X164015001Y-89799986D01*
X163425500Y-89799986D01*
X163425499Y-89599360D01*
X163434144Y-89569915D01*
X163440667Y-89539933D01*
X163444419Y-89534919D01*
X163445183Y-89532321D01*
X163461813Y-89511684D01*
X163912180Y-89061318D01*
X163973502Y-89027834D01*
X163999860Y-89025000D01*
X164891000Y-89025000D01*
X164958039Y-89044685D01*
X165003794Y-89097489D01*
X165015000Y-89149000D01*
X165015000Y-89275000D01*
X165141000Y-89275000D01*
X165208039Y-89294685D01*
X165253794Y-89347489D01*
X165265000Y-89399000D01*
X165265000Y-90499999D01*
X165314972Y-90499999D01*
X165314986Y-90499998D01*
X165417697Y-90489505D01*
X165584119Y-90434358D01*
X165584124Y-90434356D01*
X165733345Y-90342315D01*
X165857318Y-90218342D01*
X165859165Y-90215348D01*
X165860969Y-90213724D01*
X165861798Y-90212677D01*
X165861976Y-90212818D01*
X165911110Y-90168621D01*
X165980073Y-90157396D01*
X166044156Y-90185236D01*
X166070243Y-90215341D01*
X166072288Y-90218656D01*
X166196344Y-90342712D01*
X166345666Y-90434814D01*
X166512203Y-90489999D01*
X166614991Y-90500500D01*
X167215008Y-90500499D01*
X167215016Y-90500498D01*
X167215019Y-90500498D01*
X167271302Y-90494748D01*
X167317797Y-90489999D01*
X167484334Y-90434814D01*
X167633656Y-90342712D01*
X167757712Y-90218656D01*
X167849814Y-90069334D01*
X167904999Y-89902797D01*
X167915500Y-89800009D01*
X167915499Y-88749992D01*
X167914987Y-88744983D01*
X167904999Y-88647203D01*
X167904998Y-88647200D01*
X167887578Y-88594630D01*
X167849814Y-88480666D01*
X167757712Y-88331344D01*
X167633656Y-88207288D01*
X167484334Y-88115186D01*
X167317797Y-88060001D01*
X167317794Y-88060000D01*
X167247188Y-88052787D01*
X167182496Y-88026390D01*
X167172110Y-88017110D01*
X166524919Y-87369919D01*
X166491434Y-87308596D01*
X166488600Y-87282238D01*
X166488600Y-86269961D01*
X166508285Y-86202922D01*
X166524919Y-86182280D01*
X166642080Y-86065119D01*
X166703403Y-86031634D01*
X166729761Y-86028800D01*
X167081638Y-86028800D01*
X167148677Y-86048485D01*
G37*
%TD.AperFunction*%
%TA.AperFunction,Conductor*%
G36*
X150488039Y-88767485D02*
G01*
X150533794Y-88820289D01*
X150545000Y-88871800D01*
X150545000Y-89025000D01*
X151421000Y-89025000D01*
X151488039Y-89044685D01*
X151533794Y-89097489D01*
X151545000Y-89149000D01*
X151545000Y-89275000D01*
X151671000Y-89275000D01*
X151738039Y-89294685D01*
X151783794Y-89347489D01*
X151795000Y-89399000D01*
X151795000Y-89850503D01*
X151785561Y-89897954D01*
X151783556Y-89902797D01*
X151774339Y-89925048D01*
X151728905Y-90034733D01*
X151723346Y-90062681D01*
X151698412Y-90188036D01*
X151695670Y-90201818D01*
X151694300Y-90208708D01*
X151694300Y-90634496D01*
X151728903Y-90808459D01*
X151728905Y-90808466D01*
X151754989Y-90871436D01*
X151776367Y-90923048D01*
X151783836Y-90992517D01*
X151752560Y-91054996D01*
X151692471Y-91090648D01*
X151661806Y-91094500D01*
X151249998Y-91094500D01*
X151249980Y-91094501D01*
X151147203Y-91105000D01*
X151147200Y-91105001D01*
X150980668Y-91160185D01*
X150980663Y-91160187D01*
X150831342Y-91252289D01*
X150707289Y-91376342D01*
X150615187Y-91525663D01*
X150615186Y-91525666D01*
X150595689Y-91584505D01*
X150555916Y-91641949D01*
X150491400Y-91668772D01*
X150477983Y-91669500D01*
X147345363Y-91669500D01*
X147278324Y-91649815D01*
X147232569Y-91597011D01*
X147222625Y-91527853D01*
X147251650Y-91464297D01*
X147257682Y-91457819D01*
X148915513Y-89799986D01*
X150545001Y-89799986D01*
X150555494Y-89902697D01*
X150610641Y-90069119D01*
X150610643Y-90069124D01*
X150702684Y-90218345D01*
X150826654Y-90342315D01*
X150975875Y-90434356D01*
X150975880Y-90434358D01*
X151142302Y-90489505D01*
X151142309Y-90489506D01*
X151245019Y-90499999D01*
X151294999Y-90499998D01*
X151295000Y-90499998D01*
X151295000Y-89525000D01*
X150545001Y-89525000D01*
X150545001Y-89799986D01*
X148915513Y-89799986D01*
X149329542Y-89385957D01*
X149931380Y-88784119D01*
X149992703Y-88750634D01*
X150019061Y-88747800D01*
X150421000Y-88747800D01*
X150488039Y-88767485D01*
G37*
%TD.AperFunction*%
%TA.AperFunction,Conductor*%
G36*
X165054576Y-84892985D02*
G01*
X165100331Y-84945789D01*
X165110275Y-85014947D01*
X165081250Y-85078503D01*
X165075218Y-85084981D01*
X164888638Y-85271560D01*
X164888637Y-85271561D01*
X164849164Y-85330639D01*
X164849163Y-85330640D01*
X164790085Y-85419055D01*
X164756146Y-85500993D01*
X164722207Y-85582927D01*
X164722205Y-85582933D01*
X164722205Y-85582934D01*
X164698455Y-85702336D01*
X164698455Y-85702337D01*
X164687600Y-85756907D01*
X164687600Y-86760200D01*
X164667915Y-86827239D01*
X164615111Y-86872994D01*
X164563600Y-86884200D01*
X163826606Y-86884200D01*
X163652641Y-86918803D01*
X163652632Y-86918806D01*
X163488757Y-86986684D01*
X163488756Y-86986685D01*
X163395065Y-87049288D01*
X163341264Y-87085236D01*
X163341260Y-87085239D01*
X162413317Y-88013181D01*
X162351994Y-88046666D01*
X162325637Y-88049500D01*
X162124999Y-88049500D01*
X162124980Y-88049501D01*
X162022203Y-88060000D01*
X162022200Y-88060001D01*
X161855668Y-88115185D01*
X161855663Y-88115187D01*
X161706342Y-88207289D01*
X161582288Y-88331343D01*
X161582283Y-88331349D01*
X161580241Y-88334661D01*
X161578247Y-88336453D01*
X161577807Y-88337011D01*
X161577711Y-88336935D01*
X161528291Y-88381383D01*
X161459328Y-88392602D01*
X161395247Y-88364755D01*
X161369168Y-88334656D01*
X161367319Y-88331659D01*
X161367316Y-88331655D01*
X161243345Y-88207684D01*
X161094124Y-88115643D01*
X161094119Y-88115641D01*
X160927697Y-88060494D01*
X160927690Y-88060493D01*
X160824986Y-88050000D01*
X160775000Y-88050000D01*
X160775000Y-89151000D01*
X160755315Y-89218039D01*
X160702511Y-89263794D01*
X160651000Y-89275000D01*
X160525000Y-89275000D01*
X160525000Y-89401000D01*
X160505315Y-89468039D01*
X160452511Y-89513794D01*
X160401000Y-89525000D01*
X159525001Y-89525000D01*
X159525001Y-89692200D01*
X159505316Y-89759239D01*
X159452512Y-89804994D01*
X159401001Y-89816200D01*
X159059500Y-89816200D01*
X158992461Y-89796515D01*
X158946706Y-89743711D01*
X158935500Y-89692200D01*
X158935499Y-88750013D01*
X159525000Y-88750013D01*
X159525000Y-89025000D01*
X160275000Y-89025000D01*
X160275000Y-88050000D01*
X160274999Y-88049999D01*
X160225029Y-88050000D01*
X160225011Y-88050001D01*
X160122302Y-88060494D01*
X159955880Y-88115641D01*
X159955875Y-88115643D01*
X159806654Y-88207684D01*
X159682684Y-88331654D01*
X159590643Y-88480875D01*
X159590641Y-88480880D01*
X159535494Y-88647302D01*
X159535493Y-88647309D01*
X159525000Y-88750013D01*
X158935499Y-88750013D01*
X158935499Y-88749998D01*
X158935498Y-88749980D01*
X158924999Y-88647203D01*
X158924998Y-88647200D01*
X158907578Y-88594630D01*
X158869814Y-88480666D01*
X158777712Y-88331344D01*
X158653656Y-88207288D01*
X158504334Y-88115186D01*
X158337797Y-88060001D01*
X158337795Y-88060000D01*
X158235010Y-88049500D01*
X157634998Y-88049500D01*
X157634980Y-88049501D01*
X157532203Y-88060000D01*
X157532200Y-88060001D01*
X157365668Y-88115185D01*
X157365663Y-88115187D01*
X157216342Y-88207289D01*
X157092288Y-88331343D01*
X157092283Y-88331349D01*
X157090241Y-88334661D01*
X157088247Y-88336453D01*
X157087807Y-88337011D01*
X157087711Y-88336935D01*
X157038291Y-88381383D01*
X156969328Y-88392602D01*
X156905247Y-88364755D01*
X156879168Y-88334656D01*
X156877319Y-88331659D01*
X156877316Y-88331655D01*
X156753345Y-88207684D01*
X156604124Y-88115643D01*
X156604119Y-88115641D01*
X156437697Y-88060494D01*
X156437690Y-88060493D01*
X156334986Y-88050000D01*
X156285000Y-88050000D01*
X156285000Y-89151000D01*
X156265315Y-89218039D01*
X156212511Y-89263794D01*
X156161000Y-89275000D01*
X156035000Y-89275000D01*
X156035000Y-89401000D01*
X156015315Y-89468039D01*
X155962511Y-89513794D01*
X155911000Y-89525000D01*
X155035001Y-89525000D01*
X155035001Y-89773000D01*
X155015316Y-89840039D01*
X154962512Y-89885794D01*
X154911001Y-89897000D01*
X154569500Y-89897000D01*
X154502461Y-89877315D01*
X154456706Y-89824511D01*
X154445500Y-89773000D01*
X154445499Y-88750013D01*
X155035000Y-88750013D01*
X155035000Y-89025000D01*
X155785000Y-89025000D01*
X155785000Y-88050000D01*
X155784999Y-88049999D01*
X155735029Y-88050000D01*
X155735011Y-88050001D01*
X155632302Y-88060494D01*
X155465880Y-88115641D01*
X155465875Y-88115643D01*
X155316654Y-88207684D01*
X155192684Y-88331654D01*
X155100643Y-88480875D01*
X155100641Y-88480880D01*
X155045494Y-88647302D01*
X155045493Y-88647309D01*
X155035000Y-88750013D01*
X154445499Y-88750013D01*
X154445499Y-88749998D01*
X154445498Y-88749980D01*
X154434999Y-88647203D01*
X154434998Y-88647200D01*
X154417578Y-88594630D01*
X154379814Y-88480666D01*
X154287712Y-88331344D01*
X154163656Y-88207288D01*
X154014334Y-88115186D01*
X153847797Y-88060001D01*
X153847795Y-88060000D01*
X153745016Y-88049500D01*
X153745009Y-88049500D01*
X153657744Y-88049500D01*
X153590705Y-88029815D01*
X153548384Y-87983949D01*
X153545717Y-87978959D01*
X153533870Y-87961229D01*
X153475178Y-87873391D01*
X153447164Y-87831464D01*
X152763536Y-87147836D01*
X152763535Y-87147835D01*
X152763530Y-87147831D01*
X152704461Y-87108364D01*
X152704460Y-87108363D01*
X152616044Y-87049285D01*
X152616042Y-87049284D01*
X152534107Y-87015346D01*
X152534106Y-87015346D01*
X152452166Y-86981405D01*
X152452158Y-86981403D01*
X152278196Y-86946800D01*
X152278192Y-86946800D01*
X152278191Y-86946800D01*
X149683392Y-86946800D01*
X149506009Y-86946800D01*
X149506004Y-86946800D01*
X149332039Y-86981403D01*
X149332023Y-86981408D01*
X149216153Y-87029402D01*
X149216154Y-87029403D01*
X149168154Y-87049286D01*
X149020665Y-87147835D01*
X149020661Y-87147838D01*
X146211519Y-89956981D01*
X146150196Y-89990466D01*
X146123838Y-89993300D01*
X145366166Y-89993300D01*
X145299127Y-89973615D01*
X145253372Y-89920811D01*
X145243428Y-89851653D01*
X145244544Y-89845130D01*
X145258358Y-89775682D01*
X145290740Y-89713775D01*
X145292235Y-89712253D01*
X150094871Y-84909619D01*
X150156194Y-84876134D01*
X150182552Y-84873300D01*
X164987537Y-84873300D01*
X165054576Y-84892985D01*
G37*
%TD.AperFunction*%
%TA.AperFunction,Conductor*%
G36*
X169223287Y-84892985D02*
G01*
X169243929Y-84909619D01*
X172928939Y-88594630D01*
X172962424Y-88655953D01*
X172964616Y-88694914D01*
X172959500Y-88744983D01*
X172959500Y-89284138D01*
X172939815Y-89351177D01*
X172887011Y-89396932D01*
X172817853Y-89406876D01*
X172754297Y-89377851D01*
X172747819Y-89371819D01*
X172396818Y-89020818D01*
X172363333Y-88959495D01*
X172360499Y-88933137D01*
X172360499Y-88744998D01*
X172360498Y-88744981D01*
X172349999Y-88642203D01*
X172349998Y-88642200D01*
X172334235Y-88594630D01*
X172294814Y-88475666D01*
X172202712Y-88326344D01*
X172078656Y-88202288D01*
X171985888Y-88145069D01*
X171929336Y-88110187D01*
X171929331Y-88110185D01*
X171914562Y-88105291D01*
X171762797Y-88055001D01*
X171762795Y-88055000D01*
X171743643Y-88053044D01*
X171678952Y-88026647D01*
X171668566Y-88017367D01*
X168736181Y-85084981D01*
X168702696Y-85023658D01*
X168707680Y-84953966D01*
X168749552Y-84898033D01*
X168815016Y-84873616D01*
X168823862Y-84873300D01*
X169156248Y-84873300D01*
X169223287Y-84892985D01*
G37*
%TD.AperFunction*%
%TA.AperFunction,Conductor*%
G36*
X194416943Y-81019685D02*
G01*
X194426377Y-81026389D01*
X194551573Y-81124474D01*
X194562781Y-81134404D01*
X194765596Y-81337219D01*
X194775525Y-81348426D01*
X194873611Y-81473623D01*
X194899460Y-81538532D01*
X194900000Y-81550094D01*
X194900000Y-140649903D01*
X194880315Y-140716942D01*
X194873611Y-140726376D01*
X194775525Y-140851573D01*
X194765595Y-140862781D01*
X194562781Y-141065595D01*
X194551574Y-141075524D01*
X194426378Y-141173610D01*
X194361466Y-141199460D01*
X194349904Y-141200000D01*
X102124000Y-141200000D01*
X102056961Y-141180315D01*
X102011206Y-141127511D01*
X102000000Y-141076000D01*
X102000000Y-138097648D01*
X146650800Y-138097648D01*
X146650800Y-138302351D01*
X146682822Y-138504534D01*
X146746081Y-138699223D01*
X146839015Y-138881613D01*
X146959328Y-139047213D01*
X147104086Y-139191971D01*
X147259049Y-139304556D01*
X147269690Y-139312287D01*
X147385907Y-139371503D01*
X147452076Y-139405218D01*
X147452078Y-139405218D01*
X147452081Y-139405220D01*
X147556437Y-139439127D01*
X147646765Y-139468477D01*
X147747857Y-139484488D01*
X147848948Y-139500500D01*
X147848949Y-139500500D01*
X148053651Y-139500500D01*
X148053652Y-139500500D01*
X148255834Y-139468477D01*
X148450519Y-139405220D01*
X148632910Y-139312287D01*
X148725890Y-139244732D01*
X148798513Y-139191971D01*
X148798515Y-139191968D01*
X148798519Y-139191966D01*
X148943266Y-139047219D01*
X148943268Y-139047215D01*
X148943271Y-139047213D01*
X148996032Y-138974590D01*
X149063587Y-138881610D01*
X149156520Y-138699219D01*
X149219777Y-138504534D01*
X149251800Y-138302352D01*
X149251800Y-138097648D01*
X149219777Y-137895466D01*
X149156520Y-137700781D01*
X149156518Y-137700778D01*
X149156518Y-137700776D01*
X149122803Y-137634607D01*
X149063587Y-137518390D01*
X149055856Y-137507749D01*
X148943271Y-137352786D01*
X148798513Y-137208028D01*
X148632913Y-137087715D01*
X148632912Y-137087714D01*
X148632910Y-137087713D01*
X148575953Y-137058691D01*
X148450523Y-136994781D01*
X148255834Y-136931522D01*
X148081295Y-136903878D01*
X148053652Y-136899500D01*
X147848948Y-136899500D01*
X147824629Y-136903351D01*
X147646765Y-136931522D01*
X147452076Y-136994781D01*
X147269686Y-137087715D01*
X147104086Y-137208028D01*
X146959328Y-137352786D01*
X146839015Y-137518386D01*
X146746081Y-137700776D01*
X146682822Y-137895465D01*
X146650800Y-138097648D01*
X102000000Y-138097648D01*
X102000000Y-127744983D01*
X104543300Y-127744983D01*
X104543300Y-129345001D01*
X104543301Y-129345018D01*
X104553800Y-129447796D01*
X104553801Y-129447799D01*
X104600496Y-129588713D01*
X104608986Y-129614334D01*
X104701088Y-129763656D01*
X104825144Y-129887712D01*
X104974466Y-129979814D01*
X105141003Y-130034999D01*
X105243791Y-130045500D01*
X106843808Y-130045499D01*
X106946597Y-130034999D01*
X107113134Y-129979814D01*
X107262456Y-129887712D01*
X107386512Y-129763656D01*
X107478614Y-129614334D01*
X107533799Y-129447797D01*
X107544300Y-129345009D01*
X107544299Y-128369360D01*
X107563983Y-128302322D01*
X107580613Y-128281685D01*
X108308781Y-127553519D01*
X108370104Y-127520034D01*
X108396462Y-127517200D01*
X109693075Y-127517200D01*
X109760114Y-127536885D01*
X109805869Y-127589689D01*
X109815813Y-127658847D01*
X109793393Y-127714086D01*
X109760885Y-127758828D01*
X109653697Y-127969197D01*
X109580734Y-128193752D01*
X109543800Y-128426947D01*
X109543800Y-128663052D01*
X109580734Y-128896247D01*
X109653697Y-129120802D01*
X109760887Y-129331174D01*
X109821138Y-129414104D01*
X109821140Y-129414105D01*
X110560837Y-128674408D01*
X110577875Y-128737993D01*
X110643701Y-128852007D01*
X110736793Y-128945099D01*
X110850807Y-129010925D01*
X110914390Y-129027962D01*
X110174693Y-129767658D01*
X110257628Y-129827914D01*
X110467997Y-129935102D01*
X110692552Y-130008065D01*
X110692551Y-130008065D01*
X110925748Y-130045000D01*
X111161852Y-130045000D01*
X111395047Y-130008065D01*
X111619602Y-129935102D01*
X111829963Y-129827918D01*
X111829969Y-129827914D01*
X111912904Y-129767658D01*
X111912905Y-129767658D01*
X111173208Y-129027962D01*
X111236793Y-129010925D01*
X111350807Y-128945099D01*
X111443899Y-128852007D01*
X111509725Y-128737993D01*
X111526762Y-128674409D01*
X112266458Y-129414105D01*
X112266458Y-129414104D01*
X112326714Y-129331169D01*
X112326718Y-129331163D01*
X112405295Y-129176947D01*
X114885000Y-129176947D01*
X114885000Y-129413052D01*
X114921934Y-129646247D01*
X114994897Y-129870802D01*
X115102087Y-130081174D01*
X115162338Y-130164104D01*
X115162340Y-130164105D01*
X115861212Y-129465233D01*
X115872482Y-129507292D01*
X115944890Y-129632708D01*
X116047292Y-129735110D01*
X116172708Y-129807518D01*
X116214765Y-129818787D01*
X115515893Y-130517658D01*
X115598828Y-130577914D01*
X115809197Y-130685102D01*
X116033752Y-130758065D01*
X116033751Y-130758065D01*
X116266948Y-130795000D01*
X116503052Y-130795000D01*
X116736247Y-130758065D01*
X116960802Y-130685102D01*
X117171163Y-130577918D01*
X117171169Y-130577914D01*
X117254104Y-130517658D01*
X117254105Y-130517658D01*
X116555233Y-129818787D01*
X116597292Y-129807518D01*
X116722708Y-129735110D01*
X116825110Y-129632708D01*
X116897518Y-129507292D01*
X116908787Y-129465234D01*
X117607658Y-130164105D01*
X117607658Y-130164104D01*
X117667914Y-130081169D01*
X117667918Y-130081163D01*
X117775102Y-129870802D01*
X117848065Y-129646247D01*
X117885000Y-129413052D01*
X117885000Y-129176947D01*
X121385000Y-129176947D01*
X121385000Y-129413052D01*
X121421934Y-129646247D01*
X121494897Y-129870802D01*
X121602087Y-130081174D01*
X121662338Y-130164104D01*
X121662340Y-130164105D01*
X122361212Y-129465233D01*
X122372482Y-129507292D01*
X122444890Y-129632708D01*
X122547292Y-129735110D01*
X122672708Y-129807518D01*
X122714765Y-129818787D01*
X122015893Y-130517658D01*
X122098828Y-130577914D01*
X122309197Y-130685102D01*
X122533752Y-130758065D01*
X122533751Y-130758065D01*
X122766948Y-130795000D01*
X123003052Y-130795000D01*
X123236247Y-130758065D01*
X123460802Y-130685102D01*
X123671163Y-130577918D01*
X123671169Y-130577914D01*
X123754104Y-130517658D01*
X123754105Y-130517658D01*
X123055233Y-129818787D01*
X123097292Y-129807518D01*
X123222708Y-129735110D01*
X123325110Y-129632708D01*
X123397518Y-129507292D01*
X123408787Y-129465234D01*
X124107658Y-130164105D01*
X124107658Y-130164104D01*
X124167914Y-130081169D01*
X124167918Y-130081163D01*
X124275102Y-129870802D01*
X124348065Y-129646247D01*
X124385000Y-129413052D01*
X124385000Y-129176947D01*
X124348065Y-128943754D01*
X124311795Y-128832125D01*
X124311794Y-128832123D01*
X124300426Y-128797135D01*
X125894500Y-128797135D01*
X125894500Y-130592870D01*
X125894501Y-130592876D01*
X125900908Y-130652483D01*
X125951202Y-130787328D01*
X125951206Y-130787335D01*
X126037452Y-130902544D01*
X126037455Y-130902547D01*
X126152664Y-130988793D01*
X126152671Y-130988797D01*
X126287517Y-131039091D01*
X126287516Y-131039091D01*
X126294444Y-131039835D01*
X126347127Y-131045500D01*
X128142872Y-131045499D01*
X128202483Y-131039091D01*
X128337331Y-130988796D01*
X128452546Y-130902546D01*
X128538796Y-130787331D01*
X128587810Y-130655916D01*
X128629681Y-130599984D01*
X128695145Y-130575566D01*
X128763418Y-130590417D01*
X128791673Y-130611569D01*
X128905213Y-130725109D01*
X129077179Y-130850048D01*
X129077181Y-130850049D01*
X129077184Y-130850051D01*
X129266588Y-130946557D01*
X129468757Y-131012246D01*
X129678713Y-131045500D01*
X129678714Y-131045500D01*
X129891286Y-131045500D01*
X129891287Y-131045500D01*
X130101243Y-131012246D01*
X130303412Y-130946557D01*
X130492816Y-130850051D01*
X130579138Y-130787335D01*
X130664786Y-130725109D01*
X130664788Y-130725106D01*
X130664792Y-130725104D01*
X130815104Y-130574792D01*
X130815106Y-130574788D01*
X130815109Y-130574786D01*
X130900890Y-130456717D01*
X130940051Y-130402816D01*
X130944793Y-130393508D01*
X130992763Y-130342711D01*
X131060583Y-130325911D01*
X131126719Y-130348445D01*
X131165763Y-130393500D01*
X131170373Y-130402547D01*
X131209728Y-130456716D01*
X131842037Y-129824408D01*
X131859075Y-129887993D01*
X131924901Y-130002007D01*
X132017993Y-130095099D01*
X132132007Y-130160925D01*
X132195590Y-130177962D01*
X131563282Y-130810269D01*
X131563282Y-130810270D01*
X131617449Y-130849624D01*
X131806782Y-130946095D01*
X132008870Y-131011757D01*
X132218754Y-131045000D01*
X132431246Y-131045000D01*
X132641127Y-131011757D01*
X132641130Y-131011757D01*
X132843217Y-130946095D01*
X133032554Y-130849622D01*
X133086716Y-130810270D01*
X133086717Y-130810270D01*
X132454408Y-130177962D01*
X132517993Y-130160925D01*
X132632007Y-130095099D01*
X132725099Y-130002007D01*
X132790925Y-129887993D01*
X132807962Y-129824409D01*
X133440270Y-130456717D01*
X133440270Y-130456716D01*
X133479626Y-130402549D01*
X133543420Y-130277348D01*
X133543422Y-130277343D01*
X133576095Y-130213217D01*
X133641757Y-130011130D01*
X133641757Y-130011127D01*
X133675000Y-129801246D01*
X133675000Y-129588753D01*
X133641757Y-129378872D01*
X133641757Y-129378869D01*
X133590842Y-129222169D01*
X133590841Y-129222167D01*
X133576096Y-129176784D01*
X133479624Y-128987449D01*
X133440270Y-128933282D01*
X133440269Y-128933282D01*
X132807962Y-129565590D01*
X132790925Y-129502007D01*
X132725099Y-129387993D01*
X132632007Y-129294901D01*
X132517993Y-129229075D01*
X132454409Y-129212037D01*
X133086716Y-128579728D01*
X133032550Y-128540375D01*
X132843217Y-128443904D01*
X132641129Y-128378242D01*
X132431246Y-128345000D01*
X132218754Y-128345000D01*
X132008872Y-128378242D01*
X132008869Y-128378242D01*
X131806782Y-128443904D01*
X131617439Y-128540380D01*
X131563282Y-128579727D01*
X131563282Y-128579728D01*
X132195591Y-129212037D01*
X132132007Y-129229075D01*
X132017993Y-129294901D01*
X131924901Y-129387993D01*
X131859075Y-129502007D01*
X131842037Y-129565591D01*
X131209728Y-128933282D01*
X131209727Y-128933282D01*
X131170380Y-128987440D01*
X131170376Y-128987446D01*
X131165760Y-128996505D01*
X131117781Y-129047297D01*
X131049959Y-129064087D01*
X130983826Y-129041543D01*
X130944794Y-128996493D01*
X130940051Y-128987184D01*
X130940049Y-128987181D01*
X130940048Y-128987179D01*
X130815109Y-128815213D01*
X130664786Y-128664890D01*
X130492820Y-128539951D01*
X130303414Y-128443444D01*
X130303413Y-128443443D01*
X130303412Y-128443443D01*
X130101243Y-128377754D01*
X130101241Y-128377753D01*
X130101240Y-128377753D01*
X129938684Y-128352007D01*
X129891287Y-128344500D01*
X129678713Y-128344500D01*
X129631316Y-128352007D01*
X129468760Y-128377753D01*
X129266585Y-128443444D01*
X129077179Y-128539951D01*
X128905215Y-128664889D01*
X128791673Y-128778431D01*
X128730350Y-128811915D01*
X128660658Y-128806931D01*
X128604725Y-128765059D01*
X128587810Y-128734082D01*
X128538797Y-128602671D01*
X128538793Y-128602664D01*
X128452547Y-128487455D01*
X128452544Y-128487452D01*
X128337335Y-128401206D01*
X128337328Y-128401202D01*
X128202482Y-128350908D01*
X128202483Y-128350908D01*
X128142883Y-128344501D01*
X128142881Y-128344500D01*
X128142873Y-128344500D01*
X128142864Y-128344500D01*
X126347129Y-128344500D01*
X126347123Y-128344501D01*
X126287516Y-128350908D01*
X126152671Y-128401202D01*
X126152664Y-128401206D01*
X126037455Y-128487452D01*
X126037452Y-128487455D01*
X125951206Y-128602664D01*
X125951202Y-128602671D01*
X125900908Y-128737517D01*
X125894501Y-128797116D01*
X125894500Y-128797135D01*
X124300426Y-128797135D01*
X124275102Y-128719197D01*
X124167914Y-128508828D01*
X124107658Y-128425894D01*
X124107658Y-128425893D01*
X123408787Y-129124765D01*
X123397518Y-129082708D01*
X123325110Y-128957292D01*
X123222708Y-128854890D01*
X123097292Y-128782482D01*
X123055234Y-128771212D01*
X123754105Y-128072340D01*
X123754104Y-128072338D01*
X123671174Y-128012087D01*
X123460802Y-127904897D01*
X123236247Y-127831934D01*
X123236248Y-127831934D01*
X123003052Y-127795000D01*
X122766948Y-127795000D01*
X122533752Y-127831934D01*
X122309197Y-127904897D01*
X122098830Y-128012084D01*
X122015894Y-128072340D01*
X122714766Y-128771212D01*
X122672708Y-128782482D01*
X122547292Y-128854890D01*
X122444890Y-128957292D01*
X122372482Y-129082708D01*
X122361212Y-129124766D01*
X121662340Y-128425894D01*
X121602084Y-128508830D01*
X121494897Y-128719197D01*
X121421934Y-128943752D01*
X121385000Y-129176947D01*
X117885000Y-129176947D01*
X117848065Y-128943752D01*
X117775102Y-128719197D01*
X117667914Y-128508828D01*
X117607658Y-128425894D01*
X117607658Y-128425893D01*
X116908787Y-129124765D01*
X116897518Y-129082708D01*
X116825110Y-128957292D01*
X116722708Y-128854890D01*
X116597292Y-128782482D01*
X116555234Y-128771212D01*
X117254105Y-128072340D01*
X117254104Y-128072339D01*
X117171174Y-128012087D01*
X116960802Y-127904897D01*
X116736247Y-127831934D01*
X116736248Y-127831934D01*
X116503052Y-127795000D01*
X116266948Y-127795000D01*
X116033752Y-127831934D01*
X115809197Y-127904897D01*
X115598830Y-128012084D01*
X115515894Y-128072340D01*
X116214766Y-128771212D01*
X116172708Y-128782482D01*
X116047292Y-128854890D01*
X115944890Y-128957292D01*
X115872482Y-129082708D01*
X115861212Y-129124766D01*
X115162340Y-128425894D01*
X115102084Y-128508830D01*
X114994897Y-128719197D01*
X114921934Y-128943752D01*
X114885000Y-129176947D01*
X112405295Y-129176947D01*
X112433902Y-129120802D01*
X112506865Y-128896247D01*
X112543800Y-128663052D01*
X112543800Y-128426947D01*
X112506865Y-128193752D01*
X112495222Y-128157917D01*
X112433902Y-127969197D01*
X112326714Y-127758828D01*
X112294207Y-127714086D01*
X112270727Y-127648279D01*
X112286552Y-127580226D01*
X112336658Y-127531531D01*
X112394525Y-127517200D01*
X124230293Y-127517200D01*
X124230294Y-127517199D01*
X124404266Y-127482595D01*
X124495529Y-127444792D01*
X124568147Y-127414713D01*
X124700400Y-127326344D01*
X124715636Y-127316164D01*
X125817165Y-126214633D01*
X125878486Y-126181150D01*
X125948177Y-126186134D01*
X126004110Y-126228005D01*
X126037452Y-126272544D01*
X126037455Y-126272547D01*
X126152664Y-126358793D01*
X126152671Y-126358797D01*
X126287517Y-126409091D01*
X126287516Y-126409091D01*
X126294444Y-126409835D01*
X126347127Y-126415500D01*
X128142872Y-126415499D01*
X128202483Y-126409091D01*
X128337331Y-126358796D01*
X128452546Y-126272546D01*
X128538796Y-126157331D01*
X128587810Y-126025916D01*
X128629681Y-125969984D01*
X128695145Y-125945566D01*
X128763418Y-125960417D01*
X128791673Y-125981569D01*
X128905213Y-126095109D01*
X129077179Y-126220048D01*
X129077181Y-126220049D01*
X129077184Y-126220051D01*
X129266588Y-126316557D01*
X129468757Y-126382246D01*
X129678713Y-126415500D01*
X129678714Y-126415500D01*
X129891286Y-126415500D01*
X129891287Y-126415500D01*
X130101243Y-126382246D01*
X130303412Y-126316557D01*
X130492816Y-126220051D01*
X130547572Y-126180269D01*
X130664786Y-126095109D01*
X130664788Y-126095106D01*
X130664792Y-126095104D01*
X130815104Y-125944792D01*
X130815106Y-125944788D01*
X130815109Y-125944786D01*
X130940048Y-125772820D01*
X130940047Y-125772820D01*
X130940051Y-125772816D01*
X130944514Y-125764054D01*
X130992488Y-125713259D01*
X131060308Y-125696463D01*
X131126444Y-125718999D01*
X131165486Y-125764056D01*
X131169951Y-125772820D01*
X131294890Y-125944786D01*
X131445213Y-126095109D01*
X131617179Y-126220048D01*
X131617181Y-126220049D01*
X131617184Y-126220051D01*
X131806588Y-126316557D01*
X132008757Y-126382246D01*
X132218713Y-126415500D01*
X132218714Y-126415500D01*
X132431286Y-126415500D01*
X132431287Y-126415500D01*
X132641243Y-126382246D01*
X132843412Y-126316557D01*
X133032816Y-126220051D01*
X133087572Y-126180269D01*
X133204786Y-126095109D01*
X133204788Y-126095106D01*
X133204792Y-126095104D01*
X133355104Y-125944792D01*
X133355106Y-125944788D01*
X133355109Y-125944786D01*
X133440890Y-125826717D01*
X133480051Y-125772816D01*
X133484793Y-125763508D01*
X133532763Y-125712711D01*
X133600583Y-125695911D01*
X133666719Y-125718445D01*
X133705763Y-125763500D01*
X133710373Y-125772547D01*
X133749728Y-125826716D01*
X134382036Y-125194407D01*
X134399075Y-125257993D01*
X134464901Y-125372007D01*
X134557993Y-125465099D01*
X134672007Y-125530925D01*
X134735590Y-125547962D01*
X134103282Y-126180269D01*
X134103282Y-126180270D01*
X134157449Y-126219624D01*
X134346782Y-126316095D01*
X134548870Y-126381757D01*
X134758754Y-126415000D01*
X134971246Y-126415000D01*
X135181127Y-126381757D01*
X135181130Y-126381757D01*
X135383217Y-126316095D01*
X135572554Y-126219622D01*
X135626716Y-126180270D01*
X135626717Y-126180270D01*
X134994408Y-125547962D01*
X135057993Y-125530925D01*
X135172007Y-125465099D01*
X135265099Y-125372007D01*
X135330925Y-125257993D01*
X135347962Y-125194409D01*
X135980270Y-125826717D01*
X135980270Y-125826716D01*
X136019622Y-125772554D01*
X136116095Y-125583217D01*
X136181757Y-125381130D01*
X136181757Y-125381127D01*
X136215000Y-125171246D01*
X136215000Y-124958753D01*
X136181757Y-124748872D01*
X136181757Y-124748869D01*
X136121890Y-124564618D01*
X136119895Y-124494777D01*
X136155975Y-124434944D01*
X136218676Y-124404116D01*
X136239821Y-124402300D01*
X137507438Y-124402300D01*
X137574477Y-124421985D01*
X137595119Y-124438619D01*
X138108181Y-124951680D01*
X138141666Y-125013003D01*
X138144500Y-125039361D01*
X138144500Y-125962870D01*
X138144501Y-125962876D01*
X138150908Y-126022483D01*
X138201202Y-126157328D01*
X138201206Y-126157335D01*
X138287452Y-126272544D01*
X138287455Y-126272547D01*
X138402664Y-126358793D01*
X138402673Y-126358798D01*
X138513832Y-126400257D01*
X138569766Y-126442127D01*
X138594184Y-126507592D01*
X138594500Y-126516439D01*
X138594500Y-126705396D01*
X138629103Y-126879360D01*
X138629107Y-126879373D01*
X138640566Y-126907034D01*
X138640568Y-126907039D01*
X138696984Y-127043242D01*
X138696986Y-127043245D01*
X138696987Y-127043247D01*
X138697825Y-127044501D01*
X138723825Y-127083413D01*
X138795535Y-127190736D01*
X138795538Y-127190739D01*
X139547981Y-127943180D01*
X139581466Y-128004503D01*
X139584300Y-128030861D01*
X139584300Y-128722643D01*
X139564615Y-128789682D01*
X139511811Y-128835437D01*
X139442653Y-128845381D01*
X139417298Y-128838426D01*
X139417239Y-128838610D01*
X139413290Y-128837327D01*
X139412860Y-128837209D01*
X139412615Y-128837107D01*
X139202952Y-128768985D01*
X139051516Y-128745000D01*
X138985222Y-128734500D01*
X138764778Y-128734500D01*
X138698484Y-128745000D01*
X138547047Y-128768985D01*
X138337396Y-128837103D01*
X138337393Y-128837104D01*
X138140974Y-128937187D01*
X137962641Y-129066752D01*
X137962636Y-129066756D01*
X137912075Y-129117317D01*
X137850752Y-129150801D01*
X137781060Y-129145816D01*
X137725127Y-129103945D01*
X137708213Y-129072968D01*
X137678354Y-128992913D01*
X137678350Y-128992906D01*
X137592190Y-128877812D01*
X137592187Y-128877809D01*
X137477093Y-128791649D01*
X137477086Y-128791645D01*
X137342379Y-128741403D01*
X137342372Y-128741401D01*
X137282844Y-128735000D01*
X136585000Y-128735000D01*
X136585000Y-129759722D01*
X136508694Y-129715667D01*
X136394244Y-129685000D01*
X136275756Y-129685000D01*
X136161306Y-129715667D01*
X136085000Y-129759722D01*
X136085000Y-128735000D01*
X135387155Y-128735000D01*
X135327627Y-128741401D01*
X135327620Y-128741403D01*
X135192913Y-128791645D01*
X135192906Y-128791649D01*
X135077812Y-128877809D01*
X135077809Y-128877812D01*
X134991649Y-128992906D01*
X134991645Y-128992913D01*
X134941403Y-129127620D01*
X134941401Y-129127627D01*
X134935000Y-129187155D01*
X134935000Y-129885000D01*
X135959722Y-129885000D01*
X135915667Y-129961306D01*
X135885000Y-130075756D01*
X135885000Y-130194244D01*
X135915667Y-130308694D01*
X135959722Y-130385000D01*
X134935000Y-130385000D01*
X134935000Y-131082844D01*
X134941401Y-131142372D01*
X134941403Y-131142379D01*
X134991645Y-131277086D01*
X134991649Y-131277093D01*
X135077809Y-131392187D01*
X135077812Y-131392190D01*
X135192906Y-131478350D01*
X135192913Y-131478354D01*
X135327620Y-131528596D01*
X135327627Y-131528598D01*
X135387155Y-131534999D01*
X135387172Y-131535000D01*
X136085000Y-131535000D01*
X136085000Y-130510277D01*
X136161306Y-130554333D01*
X136275756Y-130585000D01*
X136394244Y-130585000D01*
X136508694Y-130554333D01*
X136585000Y-130510277D01*
X136585000Y-131535000D01*
X137282828Y-131535000D01*
X137282844Y-131534999D01*
X137342372Y-131528598D01*
X137342379Y-131528596D01*
X137477086Y-131478354D01*
X137477093Y-131478350D01*
X137592187Y-131392190D01*
X137592190Y-131392187D01*
X137678350Y-131277093D01*
X137678354Y-131277086D01*
X137708213Y-131197031D01*
X137750084Y-131141097D01*
X137815548Y-131116680D01*
X137883821Y-131131531D01*
X137912076Y-131152683D01*
X137962636Y-131203243D01*
X137962641Y-131203247D01*
X138118192Y-131316260D01*
X138140978Y-131332815D01*
X138257501Y-131392187D01*
X138337393Y-131432895D01*
X138337396Y-131432896D01*
X138410287Y-131456579D01*
X138547049Y-131501015D01*
X138764778Y-131535500D01*
X138764779Y-131535500D01*
X138985221Y-131535500D01*
X138985222Y-131535500D01*
X139202951Y-131501015D01*
X139412606Y-131432895D01*
X139412615Y-131432889D01*
X139412819Y-131432806D01*
X139412911Y-131432796D01*
X139417239Y-131431390D01*
X139417533Y-131432297D01*
X139482286Y-131425320D01*
X139544773Y-131456579D01*
X139580441Y-131516659D01*
X139584300Y-131547355D01*
X139584300Y-132351596D01*
X139618903Y-132525558D01*
X139618905Y-132525566D01*
X139652846Y-132607506D01*
X139652846Y-132607507D01*
X139686784Y-132689442D01*
X139686785Y-132689443D01*
X139686787Y-132689447D01*
X139722113Y-132742315D01*
X139735265Y-132761998D01*
X139735265Y-132761999D01*
X139785337Y-132836938D01*
X139785340Y-132836941D01*
X141184936Y-134236535D01*
X141310365Y-134361964D01*
X141310366Y-134361965D01*
X141457846Y-134460509D01*
X141457859Y-134460516D01*
X141580763Y-134511423D01*
X141621734Y-134528394D01*
X141664335Y-134536868D01*
X141795705Y-134563000D01*
X141795708Y-134563000D01*
X141795709Y-134563000D01*
X142548738Y-134563000D01*
X142615777Y-134582685D01*
X142636419Y-134599319D01*
X143767036Y-135729935D01*
X143892465Y-135855364D01*
X144039953Y-135953913D01*
X144087952Y-135973795D01*
X144203834Y-136021795D01*
X144377804Y-136056399D01*
X144377808Y-136056400D01*
X144377809Y-136056400D01*
X144555193Y-136056400D01*
X144555194Y-136056399D01*
X144729166Y-136021795D01*
X144893047Y-135953913D01*
X145040536Y-135855364D01*
X145165964Y-135729936D01*
X145264513Y-135582447D01*
X145332395Y-135418566D01*
X145367000Y-135244592D01*
X145367000Y-135067209D01*
X145332395Y-134893234D01*
X145266839Y-134734971D01*
X145265195Y-134730374D01*
X145165965Y-134581866D01*
X145112492Y-134528393D01*
X145040535Y-134456436D01*
X144820634Y-134236535D01*
X143547141Y-132963040D01*
X143547140Y-132963039D01*
X143488060Y-132923564D01*
X143488058Y-132923561D01*
X143399644Y-132864485D01*
X143399642Y-132864484D01*
X143317707Y-132830546D01*
X143317706Y-132830546D01*
X143235766Y-132796605D01*
X143235758Y-132796603D01*
X143061796Y-132762000D01*
X143061792Y-132762000D01*
X143061791Y-132762000D01*
X142308761Y-132762000D01*
X142241722Y-132742315D01*
X142221080Y-132725681D01*
X141421619Y-131926219D01*
X141388134Y-131864896D01*
X141385300Y-131838538D01*
X141385300Y-131659000D01*
X141404985Y-131591961D01*
X141457789Y-131546206D01*
X141509300Y-131535000D01*
X142015000Y-131535000D01*
X142015000Y-130510277D01*
X142091306Y-130554333D01*
X142205756Y-130585000D01*
X142324244Y-130585000D01*
X142438694Y-130554333D01*
X142515000Y-130510277D01*
X142515000Y-131535000D01*
X143212828Y-131535000D01*
X143212844Y-131534999D01*
X143272372Y-131528598D01*
X143272379Y-131528596D01*
X143407086Y-131478354D01*
X143407093Y-131478350D01*
X143522187Y-131392190D01*
X143522190Y-131392187D01*
X143608350Y-131277093D01*
X143608354Y-131277086D01*
X143638213Y-131197031D01*
X143680084Y-131141097D01*
X143745548Y-131116680D01*
X143813821Y-131131531D01*
X143842076Y-131152683D01*
X143892636Y-131203243D01*
X143892641Y-131203247D01*
X144048192Y-131316260D01*
X144070978Y-131332815D01*
X144187501Y-131392187D01*
X144267393Y-131432895D01*
X144267396Y-131432896D01*
X144340287Y-131456579D01*
X144477049Y-131501015D01*
X144694778Y-131535500D01*
X144694779Y-131535500D01*
X144915221Y-131535500D01*
X144915222Y-131535500D01*
X145132951Y-131501015D01*
X145342606Y-131432895D01*
X145539022Y-131332815D01*
X145717365Y-131203242D01*
X145873242Y-131047365D01*
X146002815Y-130869022D01*
X146102895Y-130672606D01*
X146171015Y-130462951D01*
X146205500Y-130245222D01*
X146205500Y-130024778D01*
X146171015Y-129807049D01*
X146134608Y-129694999D01*
X146102896Y-129597396D01*
X146102895Y-129597393D01*
X146054292Y-129502007D01*
X146002815Y-129400978D01*
X145962158Y-129345018D01*
X145873247Y-129222641D01*
X145873243Y-129222636D01*
X145717363Y-129066756D01*
X145717358Y-129066752D01*
X145539025Y-128937187D01*
X145539024Y-128937186D01*
X145539022Y-128937185D01*
X145463205Y-128898554D01*
X145342606Y-128837104D01*
X145342603Y-128837103D01*
X145132952Y-128768985D01*
X144981516Y-128745000D01*
X144915222Y-128734500D01*
X144694778Y-128734500D01*
X144628484Y-128745000D01*
X144477047Y-128768985D01*
X144267396Y-128837103D01*
X144267393Y-128837104D01*
X144070974Y-128937187D01*
X143892641Y-129066752D01*
X143892636Y-129066756D01*
X143842075Y-129117317D01*
X143780752Y-129150801D01*
X143711060Y-129145816D01*
X143655127Y-129103945D01*
X143638213Y-129072968D01*
X143608354Y-128992913D01*
X143608350Y-128992906D01*
X143522190Y-128877812D01*
X143522187Y-128877809D01*
X143407093Y-128791649D01*
X143407086Y-128791645D01*
X143272379Y-128741403D01*
X143272372Y-128741401D01*
X143212844Y-128735000D01*
X142515000Y-128735000D01*
X142515000Y-129759722D01*
X142438694Y-129715667D01*
X142324244Y-129685000D01*
X142205756Y-129685000D01*
X142091306Y-129715667D01*
X142015000Y-129759722D01*
X142015000Y-128735000D01*
X141509300Y-128735000D01*
X141442261Y-128715315D01*
X141396506Y-128662511D01*
X141385300Y-128611000D01*
X141385300Y-127517814D01*
X141385300Y-127517809D01*
X141385179Y-127517200D01*
X141350695Y-127343834D01*
X141285139Y-127185571D01*
X141283495Y-127180974D01*
X141184265Y-127032466D01*
X141159980Y-127008181D01*
X141058835Y-126907036D01*
X140857191Y-126705392D01*
X140644636Y-126492836D01*
X140611151Y-126431513D01*
X140616135Y-126361821D01*
X140658004Y-126305889D01*
X140702546Y-126272546D01*
X140788796Y-126157331D01*
X140837810Y-126025916D01*
X140879681Y-125969984D01*
X140945145Y-125945566D01*
X141013418Y-125960417D01*
X141041673Y-125981569D01*
X141155213Y-126095109D01*
X141327179Y-126220048D01*
X141327181Y-126220049D01*
X141327184Y-126220051D01*
X141516588Y-126316557D01*
X141718757Y-126382246D01*
X141928713Y-126415500D01*
X141928714Y-126415500D01*
X142141286Y-126415500D01*
X142141287Y-126415500D01*
X142351243Y-126382246D01*
X142553412Y-126316557D01*
X142742816Y-126220051D01*
X142797572Y-126180269D01*
X142914786Y-126095109D01*
X142914788Y-126095106D01*
X142914792Y-126095104D01*
X143065104Y-125944792D01*
X143065106Y-125944788D01*
X143065109Y-125944786D01*
X143190048Y-125772820D01*
X143190047Y-125772820D01*
X143190051Y-125772816D01*
X143194514Y-125764054D01*
X143242488Y-125713259D01*
X143310308Y-125696463D01*
X143376444Y-125718999D01*
X143415486Y-125764056D01*
X143419951Y-125772820D01*
X143544890Y-125944786D01*
X143695213Y-126095109D01*
X143867179Y-126220048D01*
X143867181Y-126220049D01*
X143867184Y-126220051D01*
X144056588Y-126316557D01*
X144258757Y-126382246D01*
X144468713Y-126415500D01*
X144468714Y-126415500D01*
X144681286Y-126415500D01*
X144681287Y-126415500D01*
X144891243Y-126382246D01*
X145093412Y-126316557D01*
X145282816Y-126220051D01*
X145337572Y-126180269D01*
X145454786Y-126095109D01*
X145454788Y-126095106D01*
X145454792Y-126095104D01*
X145605104Y-125944792D01*
X145605106Y-125944788D01*
X145605109Y-125944786D01*
X145690890Y-125826717D01*
X145730051Y-125772816D01*
X145734793Y-125763508D01*
X145782763Y-125712711D01*
X145850583Y-125695911D01*
X145916719Y-125718445D01*
X145955763Y-125763500D01*
X145960373Y-125772547D01*
X145999728Y-125826716D01*
X146632037Y-125194408D01*
X146649075Y-125257993D01*
X146714901Y-125372007D01*
X146807993Y-125465099D01*
X146922007Y-125530925D01*
X146985590Y-125547962D01*
X146353282Y-126180269D01*
X146353282Y-126180270D01*
X146407449Y-126219624D01*
X146596782Y-126316095D01*
X146798870Y-126381757D01*
X147008754Y-126415000D01*
X147221246Y-126415000D01*
X147431127Y-126381757D01*
X147431130Y-126381757D01*
X147633217Y-126316095D01*
X147822554Y-126219622D01*
X147876716Y-126180270D01*
X147876717Y-126180270D01*
X147244408Y-125547962D01*
X147307993Y-125530925D01*
X147422007Y-125465099D01*
X147515099Y-125372007D01*
X147580925Y-125257993D01*
X147597962Y-125194408D01*
X148230270Y-125826717D01*
X148230270Y-125826716D01*
X148269622Y-125772554D01*
X148323337Y-125667135D01*
X166804500Y-125667135D01*
X166804500Y-127462870D01*
X166804501Y-127462876D01*
X166810908Y-127522483D01*
X166861202Y-127657328D01*
X166861206Y-127657335D01*
X166947452Y-127772544D01*
X166947455Y-127772547D01*
X167062664Y-127858793D01*
X167062671Y-127858797D01*
X167197517Y-127909091D01*
X167197516Y-127909091D01*
X167204444Y-127909835D01*
X167257127Y-127915500D01*
X169052872Y-127915499D01*
X169112483Y-127909091D01*
X169247331Y-127858796D01*
X169362546Y-127772546D01*
X169448796Y-127657331D01*
X169497810Y-127525916D01*
X169539681Y-127469984D01*
X169605145Y-127445566D01*
X169673418Y-127460417D01*
X169701673Y-127481569D01*
X169815213Y-127595109D01*
X169987179Y-127720048D01*
X169987181Y-127720049D01*
X169987184Y-127720051D01*
X170176588Y-127816557D01*
X170378757Y-127882246D01*
X170588713Y-127915500D01*
X170588714Y-127915500D01*
X170801286Y-127915500D01*
X170801287Y-127915500D01*
X171011243Y-127882246D01*
X171213412Y-127816557D01*
X171402816Y-127720051D01*
X171489138Y-127657335D01*
X171574786Y-127595109D01*
X171574788Y-127595106D01*
X171574792Y-127595104D01*
X171725104Y-127444792D01*
X171725106Y-127444788D01*
X171725109Y-127444786D01*
X171850048Y-127272820D01*
X171850047Y-127272820D01*
X171850051Y-127272816D01*
X171854514Y-127264054D01*
X171902488Y-127213259D01*
X171970308Y-127196463D01*
X172036444Y-127218999D01*
X172075486Y-127264056D01*
X172079951Y-127272820D01*
X172204890Y-127444786D01*
X172355213Y-127595109D01*
X172527179Y-127720048D01*
X172527181Y-127720049D01*
X172527184Y-127720051D01*
X172716588Y-127816557D01*
X172918757Y-127882246D01*
X173128713Y-127915500D01*
X173128714Y-127915500D01*
X173341286Y-127915500D01*
X173341287Y-127915500D01*
X173551243Y-127882246D01*
X173753412Y-127816557D01*
X173942816Y-127720051D01*
X174029138Y-127657335D01*
X174114786Y-127595109D01*
X174114788Y-127595106D01*
X174114792Y-127595104D01*
X174265104Y-127444792D01*
X174265106Y-127444788D01*
X174265109Y-127444786D01*
X174390048Y-127272820D01*
X174390047Y-127272820D01*
X174390051Y-127272816D01*
X174394514Y-127264054D01*
X174442488Y-127213259D01*
X174510308Y-127196463D01*
X174576444Y-127218999D01*
X174615486Y-127264056D01*
X174619951Y-127272820D01*
X174744890Y-127444786D01*
X174895213Y-127595109D01*
X175067179Y-127720048D01*
X175067181Y-127720049D01*
X175067184Y-127720051D01*
X175256588Y-127816557D01*
X175458757Y-127882246D01*
X175668713Y-127915500D01*
X175668714Y-127915500D01*
X175881286Y-127915500D01*
X175881287Y-127915500D01*
X176091243Y-127882246D01*
X176293412Y-127816557D01*
X176482816Y-127720051D01*
X176569138Y-127657335D01*
X176654786Y-127595109D01*
X176654788Y-127595106D01*
X176654792Y-127595104D01*
X176805104Y-127444792D01*
X176805106Y-127444788D01*
X176805109Y-127444786D01*
X176930048Y-127272820D01*
X176930047Y-127272820D01*
X176930051Y-127272816D01*
X177026557Y-127083412D01*
X177092246Y-126881243D01*
X177125500Y-126671287D01*
X177125500Y-126458713D01*
X177110996Y-126367135D01*
X179054500Y-126367135D01*
X179054500Y-128162870D01*
X179054501Y-128162876D01*
X179060908Y-128222483D01*
X179111202Y-128357328D01*
X179111206Y-128357335D01*
X179197452Y-128472544D01*
X179197455Y-128472547D01*
X179312664Y-128558793D01*
X179312671Y-128558797D01*
X179447517Y-128609091D01*
X179447516Y-128609091D01*
X179454444Y-128609835D01*
X179507127Y-128615500D01*
X181302872Y-128615499D01*
X181362483Y-128609091D01*
X181497331Y-128558796D01*
X181612546Y-128472546D01*
X181698796Y-128357331D01*
X181747810Y-128225916D01*
X181789681Y-128169984D01*
X181855145Y-128145566D01*
X181923418Y-128160417D01*
X181951673Y-128181569D01*
X182065213Y-128295109D01*
X182237179Y-128420048D01*
X182237181Y-128420049D01*
X182237184Y-128420051D01*
X182426588Y-128516557D01*
X182628757Y-128582246D01*
X182838713Y-128615500D01*
X182838714Y-128615500D01*
X183051286Y-128615500D01*
X183051287Y-128615500D01*
X183261243Y-128582246D01*
X183463412Y-128516557D01*
X183652816Y-128420051D01*
X183711035Y-128377753D01*
X183824786Y-128295109D01*
X183824788Y-128295106D01*
X183824792Y-128295104D01*
X183975104Y-128144792D01*
X183975106Y-128144788D01*
X183975109Y-128144786D01*
X184084086Y-127994789D01*
X184100051Y-127972816D01*
X184104514Y-127964054D01*
X184152488Y-127913259D01*
X184220308Y-127896463D01*
X184286444Y-127918999D01*
X184325486Y-127964056D01*
X184329951Y-127972820D01*
X184454890Y-128144786D01*
X184605213Y-128295109D01*
X184777179Y-128420048D01*
X184777181Y-128420049D01*
X184777184Y-128420051D01*
X184966588Y-128516557D01*
X185168757Y-128582246D01*
X185378713Y-128615500D01*
X185378714Y-128615500D01*
X185591286Y-128615500D01*
X185591287Y-128615500D01*
X185801243Y-128582246D01*
X186003412Y-128516557D01*
X186192816Y-128420051D01*
X186251035Y-128377753D01*
X186364786Y-128295109D01*
X186364788Y-128295106D01*
X186364792Y-128295104D01*
X186515104Y-128144792D01*
X186515106Y-128144788D01*
X186515109Y-128144786D01*
X186624086Y-127994789D01*
X186640051Y-127972816D01*
X186736557Y-127783412D01*
X186802246Y-127581243D01*
X186835500Y-127371287D01*
X186835500Y-127158713D01*
X186802246Y-126948757D01*
X186736557Y-126746588D01*
X186640051Y-126557184D01*
X186640049Y-126557181D01*
X186640048Y-126557179D01*
X186515109Y-126385213D01*
X186364786Y-126234890D01*
X186192820Y-126109951D01*
X186003414Y-126013444D01*
X186003413Y-126013443D01*
X186003412Y-126013443D01*
X185801243Y-125947754D01*
X185801241Y-125947753D01*
X185801240Y-125947753D01*
X185639957Y-125922208D01*
X185591287Y-125914500D01*
X185378713Y-125914500D01*
X185330042Y-125922208D01*
X185168760Y-125947753D01*
X184966585Y-126013444D01*
X184777179Y-126109951D01*
X184605213Y-126234890D01*
X184454890Y-126385213D01*
X184329949Y-126557182D01*
X184325484Y-126565946D01*
X184277509Y-126616742D01*
X184209688Y-126633536D01*
X184143553Y-126610998D01*
X184104516Y-126565946D01*
X184100050Y-126557182D01*
X183975109Y-126385213D01*
X183824786Y-126234890D01*
X183652820Y-126109951D01*
X183463414Y-126013444D01*
X183463413Y-126013443D01*
X183463412Y-126013443D01*
X183261243Y-125947754D01*
X183261241Y-125947753D01*
X183261240Y-125947753D01*
X183099957Y-125922208D01*
X183051287Y-125914500D01*
X182838713Y-125914500D01*
X182790042Y-125922208D01*
X182628760Y-125947753D01*
X182426585Y-126013444D01*
X182237179Y-126109951D01*
X182065215Y-126234889D01*
X181951673Y-126348431D01*
X181890350Y-126381915D01*
X181820658Y-126376931D01*
X181764725Y-126335059D01*
X181747810Y-126304082D01*
X181698797Y-126172671D01*
X181698793Y-126172664D01*
X181612547Y-126057455D01*
X181612544Y-126057452D01*
X181497335Y-125971206D01*
X181497328Y-125971202D01*
X181362482Y-125920908D01*
X181362483Y-125920908D01*
X181302883Y-125914501D01*
X181302881Y-125914500D01*
X181302873Y-125914500D01*
X181302864Y-125914500D01*
X179507129Y-125914500D01*
X179507123Y-125914501D01*
X179447516Y-125920908D01*
X179312671Y-125971202D01*
X179312664Y-125971206D01*
X179197455Y-126057452D01*
X179197452Y-126057455D01*
X179111206Y-126172664D01*
X179111202Y-126172671D01*
X179060908Y-126307517D01*
X179054501Y-126367116D01*
X179054500Y-126367135D01*
X177110996Y-126367135D01*
X177096014Y-126272544D01*
X177092247Y-126248761D01*
X177092246Y-126248760D01*
X177092246Y-126248757D01*
X177026557Y-126046588D01*
X176930051Y-125857184D01*
X176930049Y-125857181D01*
X176930048Y-125857179D01*
X176805109Y-125685213D01*
X176654786Y-125534890D01*
X176482820Y-125409951D01*
X176293414Y-125313444D01*
X176293413Y-125313443D01*
X176293412Y-125313443D01*
X176091243Y-125247754D01*
X176091241Y-125247753D01*
X176091240Y-125247753D01*
X175929957Y-125222208D01*
X175881287Y-125214500D01*
X175668713Y-125214500D01*
X175620042Y-125222208D01*
X175458760Y-125247753D01*
X175256585Y-125313444D01*
X175067179Y-125409951D01*
X174895213Y-125534890D01*
X174744890Y-125685213D01*
X174619949Y-125857182D01*
X174615484Y-125865946D01*
X174567509Y-125916742D01*
X174499688Y-125933536D01*
X174433553Y-125910998D01*
X174394516Y-125865946D01*
X174390050Y-125857182D01*
X174265109Y-125685213D01*
X174114786Y-125534890D01*
X173942820Y-125409951D01*
X173753414Y-125313444D01*
X173753413Y-125313443D01*
X173753412Y-125313443D01*
X173551243Y-125247754D01*
X173551241Y-125247753D01*
X173551240Y-125247753D01*
X173389957Y-125222208D01*
X173341287Y-125214500D01*
X173128713Y-125214500D01*
X173080042Y-125222208D01*
X172918760Y-125247753D01*
X172716585Y-125313444D01*
X172527179Y-125409951D01*
X172355213Y-125534890D01*
X172204890Y-125685213D01*
X172079949Y-125857182D01*
X172075484Y-125865946D01*
X172027509Y-125916742D01*
X171959688Y-125933536D01*
X171893553Y-125910998D01*
X171854516Y-125865946D01*
X171850050Y-125857182D01*
X171725109Y-125685213D01*
X171574786Y-125534890D01*
X171402820Y-125409951D01*
X171213414Y-125313444D01*
X171213413Y-125313443D01*
X171213412Y-125313443D01*
X171011243Y-125247754D01*
X171011241Y-125247753D01*
X171011240Y-125247753D01*
X170849957Y-125222208D01*
X170801287Y-125214500D01*
X170588713Y-125214500D01*
X170540042Y-125222208D01*
X170378760Y-125247753D01*
X170176585Y-125313444D01*
X169987179Y-125409951D01*
X169815215Y-125534889D01*
X169701673Y-125648431D01*
X169640350Y-125681915D01*
X169570658Y-125676931D01*
X169514725Y-125635059D01*
X169497810Y-125604082D01*
X169448797Y-125472671D01*
X169448793Y-125472664D01*
X169362547Y-125357455D01*
X169362544Y-125357452D01*
X169247335Y-125271206D01*
X169247328Y-125271202D01*
X169112482Y-125220908D01*
X169112483Y-125220908D01*
X169052883Y-125214501D01*
X169052881Y-125214500D01*
X169052873Y-125214500D01*
X169052864Y-125214500D01*
X167257129Y-125214500D01*
X167257123Y-125214501D01*
X167197516Y-125220908D01*
X167062671Y-125271202D01*
X167062664Y-125271206D01*
X166947455Y-125357452D01*
X166947452Y-125357455D01*
X166861206Y-125472664D01*
X166861202Y-125472671D01*
X166810908Y-125607517D01*
X166804501Y-125667116D01*
X166804500Y-125667135D01*
X148323337Y-125667135D01*
X148353717Y-125607511D01*
X148353718Y-125607509D01*
X148366094Y-125583219D01*
X148431757Y-125381130D01*
X148431757Y-125381127D01*
X148465000Y-125171246D01*
X148465000Y-124958753D01*
X148431757Y-124748872D01*
X148431757Y-124748869D01*
X148366095Y-124546782D01*
X148269624Y-124357449D01*
X148230270Y-124303282D01*
X148230269Y-124303282D01*
X147597962Y-124935590D01*
X147580925Y-124872007D01*
X147515099Y-124757993D01*
X147422007Y-124664901D01*
X147307993Y-124599075D01*
X147244409Y-124582037D01*
X147873600Y-123952844D01*
X181365000Y-123952844D01*
X181371401Y-124012372D01*
X181371403Y-124012379D01*
X181421645Y-124147086D01*
X181421649Y-124147093D01*
X181507809Y-124262187D01*
X181507812Y-124262190D01*
X181622906Y-124348350D01*
X181622913Y-124348354D01*
X181757620Y-124398596D01*
X181757627Y-124398598D01*
X181817155Y-124404999D01*
X181817172Y-124405000D01*
X182365000Y-124405000D01*
X182865000Y-124405000D01*
X183412828Y-124405000D01*
X183412844Y-124404999D01*
X183472372Y-124398598D01*
X183472379Y-124398596D01*
X183607086Y-124348354D01*
X183607093Y-124348350D01*
X183722187Y-124262190D01*
X183722190Y-124262187D01*
X183808350Y-124147093D01*
X183808354Y-124147086D01*
X183858596Y-124012379D01*
X183858598Y-124012372D01*
X183864999Y-123952844D01*
X189865000Y-123952844D01*
X189871401Y-124012372D01*
X189871403Y-124012379D01*
X189921645Y-124147086D01*
X189921649Y-124147093D01*
X190007809Y-124262187D01*
X190007812Y-124262190D01*
X190122906Y-124348350D01*
X190122913Y-124348354D01*
X190257620Y-124398596D01*
X190257627Y-124398598D01*
X190317155Y-124404999D01*
X190317172Y-124405000D01*
X190865000Y-124405000D01*
X191365000Y-124405000D01*
X191912828Y-124405000D01*
X191912844Y-124404999D01*
X191972372Y-124398598D01*
X191972379Y-124398596D01*
X192107086Y-124348354D01*
X192107093Y-124348350D01*
X192222187Y-124262190D01*
X192222190Y-124262187D01*
X192308350Y-124147093D01*
X192308354Y-124147086D01*
X192358596Y-124012379D01*
X192358598Y-124012372D01*
X192364999Y-123952844D01*
X192365000Y-123952827D01*
X192365000Y-121615000D01*
X191365000Y-121615000D01*
X191365000Y-124405000D01*
X190865000Y-124405000D01*
X190865000Y-121615000D01*
X189865000Y-121615000D01*
X189865000Y-123952844D01*
X183864999Y-123952844D01*
X183865000Y-123952827D01*
X183865000Y-121615000D01*
X182865000Y-121615000D01*
X182865000Y-124405000D01*
X182365000Y-124405000D01*
X182365000Y-121615000D01*
X181365000Y-121615000D01*
X181365000Y-123952844D01*
X147873600Y-123952844D01*
X147876716Y-123949728D01*
X147822550Y-123910375D01*
X147633217Y-123813904D01*
X147431129Y-123748242D01*
X147221246Y-123715000D01*
X147008754Y-123715000D01*
X146798872Y-123748242D01*
X146798869Y-123748242D01*
X146596782Y-123813904D01*
X146407439Y-123910380D01*
X146353282Y-123949727D01*
X146353282Y-123949728D01*
X146985591Y-124582037D01*
X146922007Y-124599075D01*
X146807993Y-124664901D01*
X146714901Y-124757993D01*
X146649075Y-124872007D01*
X146632037Y-124935591D01*
X145999728Y-124303282D01*
X145999727Y-124303282D01*
X145960380Y-124357440D01*
X145960376Y-124357446D01*
X145955760Y-124366505D01*
X145907781Y-124417297D01*
X145839959Y-124434087D01*
X145773826Y-124411543D01*
X145734794Y-124366493D01*
X145730051Y-124357184D01*
X145730049Y-124357181D01*
X145730048Y-124357179D01*
X145605109Y-124185213D01*
X145454786Y-124034890D01*
X145282820Y-123909951D01*
X145093414Y-123813444D01*
X145093413Y-123813443D01*
X145093412Y-123813443D01*
X144891243Y-123747754D01*
X144891241Y-123747753D01*
X144891240Y-123747753D01*
X144729957Y-123722208D01*
X144681287Y-123714500D01*
X144468713Y-123714500D01*
X144420042Y-123722208D01*
X144258760Y-123747753D01*
X144056585Y-123813444D01*
X143867179Y-123909951D01*
X143695213Y-124034890D01*
X143544890Y-124185213D01*
X143419949Y-124357182D01*
X143415484Y-124365946D01*
X143367509Y-124416742D01*
X143299688Y-124433536D01*
X143233553Y-124410998D01*
X143194516Y-124365946D01*
X143190050Y-124357182D01*
X143065109Y-124185213D01*
X142914786Y-124034890D01*
X142742820Y-123909951D01*
X142553414Y-123813444D01*
X142553413Y-123813443D01*
X142553412Y-123813443D01*
X142351243Y-123747754D01*
X142351240Y-123747753D01*
X142346610Y-123746249D01*
X142347033Y-123744944D01*
X142291828Y-123713225D01*
X142259682Y-123651190D01*
X142266178Y-123581623D01*
X142293709Y-123539789D01*
X142544980Y-123288519D01*
X142606303Y-123255034D01*
X142632661Y-123252200D01*
X164165593Y-123252200D01*
X164165594Y-123252199D01*
X164339566Y-123217595D01*
X164421506Y-123183653D01*
X164503447Y-123149713D01*
X164614884Y-123075253D01*
X164650936Y-123051164D01*
X167572686Y-120129412D01*
X167634007Y-120095929D01*
X167703699Y-120100913D01*
X167748046Y-120129414D01*
X167866344Y-120247712D01*
X168015666Y-120339814D01*
X168182203Y-120394999D01*
X168284991Y-120405500D01*
X170485008Y-120405499D01*
X170587797Y-120394999D01*
X170754334Y-120339814D01*
X170903656Y-120247712D01*
X171027712Y-120123656D01*
X171119814Y-119974334D01*
X171174999Y-119807797D01*
X171185500Y-119705009D01*
X171185499Y-118487014D01*
X172585000Y-118487014D01*
X172585000Y-118722985D01*
X172615799Y-118956914D01*
X172676870Y-119184837D01*
X172767160Y-119402819D01*
X172767165Y-119402828D01*
X172885144Y-119607171D01*
X172885145Y-119607172D01*
X172947721Y-119688723D01*
X173783958Y-118852487D01*
X173808978Y-118912890D01*
X173880112Y-119019351D01*
X173970649Y-119109888D01*
X174077110Y-119181022D01*
X174137511Y-119206041D01*
X173301275Y-120042277D01*
X173382827Y-120104854D01*
X173382828Y-120104855D01*
X173587171Y-120222834D01*
X173587180Y-120222839D01*
X173805163Y-120313129D01*
X173805161Y-120313129D01*
X174033085Y-120374200D01*
X174267014Y-120404999D01*
X174267029Y-120405000D01*
X174502971Y-120405000D01*
X174502985Y-120404999D01*
X174736914Y-120374200D01*
X174964837Y-120313129D01*
X175182819Y-120222839D01*
X175182828Y-120222834D01*
X175387181Y-120104850D01*
X175468723Y-120042279D01*
X175468723Y-120042276D01*
X174632487Y-119206041D01*
X174692890Y-119181022D01*
X174799351Y-119109888D01*
X174889888Y-119019351D01*
X174961022Y-118912890D01*
X174986041Y-118852488D01*
X175822276Y-119688723D01*
X175822279Y-119688723D01*
X175884850Y-119607181D01*
X176002834Y-119402828D01*
X176002839Y-119402819D01*
X176093129Y-119184837D01*
X176154201Y-118956914D01*
X176177867Y-118777155D01*
X181365000Y-118777155D01*
X181365000Y-121115000D01*
X182365000Y-121115000D01*
X182865000Y-121115000D01*
X183865000Y-121115000D01*
X183865000Y-118777172D01*
X183864999Y-118777155D01*
X189865000Y-118777155D01*
X189865000Y-121115000D01*
X190865000Y-121115000D01*
X191365000Y-121115000D01*
X192365000Y-121115000D01*
X192365000Y-118777172D01*
X192364999Y-118777155D01*
X192358598Y-118717627D01*
X192358596Y-118717620D01*
X192308354Y-118582913D01*
X192308350Y-118582906D01*
X192222190Y-118467812D01*
X192222187Y-118467809D01*
X192107093Y-118381649D01*
X192107086Y-118381645D01*
X191972379Y-118331403D01*
X191972372Y-118331401D01*
X191912844Y-118325000D01*
X191365000Y-118325000D01*
X191365000Y-121115000D01*
X190865000Y-121115000D01*
X190865000Y-118325000D01*
X190317155Y-118325000D01*
X190257627Y-118331401D01*
X190257620Y-118331403D01*
X190122913Y-118381645D01*
X190122906Y-118381649D01*
X190007812Y-118467809D01*
X190007809Y-118467812D01*
X189921649Y-118582906D01*
X189921645Y-118582913D01*
X189871403Y-118717620D01*
X189871401Y-118717627D01*
X189865000Y-118777155D01*
X183864999Y-118777155D01*
X183858598Y-118717627D01*
X183858596Y-118717620D01*
X183808354Y-118582913D01*
X183808350Y-118582906D01*
X183722190Y-118467812D01*
X183722187Y-118467809D01*
X183607093Y-118381649D01*
X183607086Y-118381645D01*
X183472379Y-118331403D01*
X183472372Y-118331401D01*
X183412844Y-118325000D01*
X182865000Y-118325000D01*
X182865000Y-121115000D01*
X182365000Y-121115000D01*
X182365000Y-118325000D01*
X181817155Y-118325000D01*
X181757627Y-118331401D01*
X181757620Y-118331403D01*
X181622913Y-118381645D01*
X181622906Y-118381649D01*
X181507812Y-118467809D01*
X181507809Y-118467812D01*
X181421649Y-118582906D01*
X181421645Y-118582913D01*
X181371403Y-118717620D01*
X181371401Y-118717627D01*
X181365000Y-118777155D01*
X176177867Y-118777155D01*
X176180433Y-118757666D01*
X176180433Y-118757664D01*
X176184999Y-118722983D01*
X176185000Y-118722971D01*
X176185000Y-118487028D01*
X176184999Y-118487014D01*
X176154200Y-118253085D01*
X176093129Y-118025162D01*
X176002839Y-117807180D01*
X176002834Y-117807171D01*
X175884855Y-117602828D01*
X175884854Y-117602827D01*
X175822277Y-117521275D01*
X174986041Y-118357511D01*
X174961022Y-118297110D01*
X174889888Y-118190649D01*
X174799351Y-118100112D01*
X174692890Y-118028978D01*
X174632488Y-118003958D01*
X175468723Y-117167721D01*
X175387172Y-117105145D01*
X175387171Y-117105144D01*
X175182828Y-116987165D01*
X175182819Y-116987160D01*
X174964836Y-116896870D01*
X174964838Y-116896870D01*
X174736914Y-116835799D01*
X174502985Y-116805000D01*
X174267014Y-116805000D01*
X174033085Y-116835799D01*
X173805162Y-116896870D01*
X173587180Y-116987160D01*
X173587171Y-116987165D01*
X173382828Y-117105144D01*
X173382818Y-117105150D01*
X173301275Y-117167720D01*
X173301275Y-117167721D01*
X174137512Y-118003958D01*
X174077110Y-118028978D01*
X173970649Y-118100112D01*
X173880112Y-118190649D01*
X173808978Y-118297110D01*
X173783958Y-118357511D01*
X172947721Y-117521275D01*
X172947720Y-117521275D01*
X172885150Y-117602818D01*
X172885144Y-117602828D01*
X172767165Y-117807171D01*
X172767160Y-117807180D01*
X172676870Y-118025162D01*
X172615799Y-118253085D01*
X172585000Y-118487014D01*
X171185499Y-118487014D01*
X171185499Y-117504992D01*
X171174999Y-117402203D01*
X171142216Y-117303270D01*
X171126114Y-117254678D01*
X171126113Y-117254676D01*
X171125789Y-117253699D01*
X171119814Y-117235666D01*
X171027712Y-117086344D01*
X170903656Y-116962288D01*
X170754334Y-116870186D01*
X170587797Y-116815001D01*
X170587795Y-116815000D01*
X170485010Y-116804500D01*
X168284998Y-116804500D01*
X168284981Y-116804501D01*
X168182203Y-116815000D01*
X168182200Y-116815001D01*
X168015668Y-116870185D01*
X168015663Y-116870187D01*
X167866342Y-116962289D01*
X167742289Y-117086342D01*
X167650187Y-117235663D01*
X167650185Y-117235668D01*
X167627784Y-117303270D01*
X167595001Y-117402203D01*
X167595001Y-117402204D01*
X167595000Y-117402204D01*
X167584500Y-117504983D01*
X167584500Y-117646489D01*
X167564815Y-117713528D01*
X167512011Y-117759283D01*
X167507954Y-117761049D01*
X167478993Y-117773046D01*
X167397055Y-117806985D01*
X167324450Y-117855499D01*
X167324449Y-117855500D01*
X167249561Y-117905537D01*
X164750969Y-120404129D01*
X164689646Y-120437614D01*
X164619954Y-120432630D01*
X164564021Y-120390758D01*
X164539604Y-120325294D01*
X164540815Y-120297049D01*
X164546200Y-120263050D01*
X164546200Y-120026947D01*
X164509265Y-119793752D01*
X164436302Y-119569197D01*
X164329114Y-119358828D01*
X164268858Y-119275894D01*
X164268858Y-119275893D01*
X163529162Y-120015590D01*
X163512125Y-119952007D01*
X163446299Y-119837993D01*
X163353207Y-119744901D01*
X163239193Y-119679075D01*
X163175609Y-119662037D01*
X163915305Y-118922340D01*
X163915304Y-118922338D01*
X163832374Y-118862087D01*
X163622002Y-118754897D01*
X163397447Y-118681934D01*
X163397448Y-118681934D01*
X163164252Y-118645000D01*
X162928148Y-118645000D01*
X162694952Y-118681934D01*
X162470397Y-118754897D01*
X162260030Y-118862084D01*
X162177094Y-118922340D01*
X162916791Y-119662037D01*
X162853207Y-119679075D01*
X162739193Y-119744901D01*
X162646101Y-119837993D01*
X162580275Y-119952007D01*
X162563237Y-120015591D01*
X161823540Y-119275894D01*
X161763284Y-119358830D01*
X161656097Y-119569197D01*
X161583134Y-119793752D01*
X161546200Y-120026947D01*
X161546200Y-120263052D01*
X161583134Y-120496247D01*
X161656097Y-120720802D01*
X161763287Y-120931174D01*
X161823538Y-121014104D01*
X161823540Y-121014105D01*
X162563237Y-120274408D01*
X162580275Y-120337993D01*
X162646101Y-120452007D01*
X162739193Y-120545099D01*
X162853207Y-120610925D01*
X162916790Y-120627962D01*
X162150239Y-121394512D01*
X162109724Y-121435607D01*
X162049526Y-121451200D01*
X154644768Y-121451200D01*
X154577729Y-121431515D01*
X154531974Y-121378711D01*
X154522030Y-121309553D01*
X154528586Y-121283868D01*
X154540290Y-121252485D01*
X154540291Y-121252484D01*
X154540291Y-121252483D01*
X154546700Y-121192873D01*
X154546699Y-119097128D01*
X154540291Y-119037517D01*
X154533516Y-119019351D01*
X154531122Y-119012931D01*
X154489997Y-118902671D01*
X154489993Y-118902664D01*
X154403747Y-118787455D01*
X154403744Y-118787452D01*
X154288535Y-118701206D01*
X154288528Y-118701202D01*
X154153682Y-118650908D01*
X154153683Y-118650908D01*
X154094083Y-118644501D01*
X154094081Y-118644500D01*
X154094073Y-118644500D01*
X154094065Y-118644500D01*
X152311148Y-118644500D01*
X152244109Y-118624815D01*
X152208048Y-118589393D01*
X152205358Y-118585367D01*
X152118233Y-118498242D01*
X152118232Y-118498241D01*
X150133159Y-116513169D01*
X150133158Y-116513167D01*
X150046033Y-116426042D01*
X149968683Y-116374358D01*
X149962803Y-116370429D01*
X149962795Y-116370422D01*
X149943590Y-116357590D01*
X149943586Y-116357588D01*
X149863092Y-116324247D01*
X149829753Y-116310437D01*
X149819727Y-116308443D01*
X149769329Y-116298418D01*
X149708910Y-116286400D01*
X149708907Y-116286400D01*
X149708906Y-116286400D01*
X131238752Y-116286400D01*
X131171713Y-116266715D01*
X131125958Y-116213911D01*
X131116014Y-116144753D01*
X131145039Y-116081197D01*
X131151071Y-116074719D01*
X132493271Y-114732519D01*
X132554594Y-114699034D01*
X132580952Y-114696200D01*
X135777850Y-114696200D01*
X135844889Y-114715885D01*
X135846741Y-114717098D01*
X135941021Y-114780094D01*
X135941023Y-114780095D01*
X135941027Y-114780097D01*
X136086698Y-114840435D01*
X136086703Y-114840437D01*
X136241353Y-114871199D01*
X136241356Y-114871200D01*
X136241358Y-114871200D01*
X136399044Y-114871200D01*
X136399045Y-114871199D01*
X136553697Y-114840437D01*
X136699379Y-114780094D01*
X136793659Y-114717098D01*
X136860336Y-114696220D01*
X136862550Y-114696200D01*
X137610007Y-114696200D01*
X137670429Y-114684181D01*
X137730852Y-114672163D01*
X137730855Y-114672161D01*
X137730858Y-114672161D01*
X137764187Y-114658354D01*
X137764186Y-114658354D01*
X137764192Y-114658352D01*
X137844686Y-114625012D01*
X137910569Y-114580989D01*
X137947133Y-114556558D01*
X138034258Y-114469433D01*
X138034259Y-114469431D01*
X138041325Y-114462365D01*
X138041328Y-114462361D01*
X147150844Y-105352844D01*
X181365000Y-105352844D01*
X181371401Y-105412372D01*
X181371403Y-105412379D01*
X181421645Y-105547086D01*
X181421649Y-105547093D01*
X181507809Y-105662187D01*
X181507812Y-105662190D01*
X181622906Y-105748350D01*
X181622913Y-105748354D01*
X181757620Y-105798596D01*
X181757627Y-105798598D01*
X181817155Y-105804999D01*
X181817172Y-105805000D01*
X182365000Y-105805000D01*
X182865000Y-105805000D01*
X183412828Y-105805000D01*
X183412844Y-105804999D01*
X183472372Y-105798598D01*
X183472379Y-105798596D01*
X183607086Y-105748354D01*
X183607093Y-105748350D01*
X183722187Y-105662190D01*
X183722190Y-105662187D01*
X183808350Y-105547093D01*
X183808354Y-105547086D01*
X183858596Y-105412379D01*
X183858598Y-105412372D01*
X183864999Y-105352844D01*
X189865000Y-105352844D01*
X189871401Y-105412372D01*
X189871403Y-105412379D01*
X189921645Y-105547086D01*
X189921649Y-105547093D01*
X190007809Y-105662187D01*
X190007812Y-105662190D01*
X190122906Y-105748350D01*
X190122913Y-105748354D01*
X190257620Y-105798596D01*
X190257627Y-105798598D01*
X190317155Y-105804999D01*
X190317172Y-105805000D01*
X190865000Y-105805000D01*
X191365000Y-105805000D01*
X191912828Y-105805000D01*
X191912844Y-105804999D01*
X191972372Y-105798598D01*
X191972379Y-105798596D01*
X192107086Y-105748354D01*
X192107093Y-105748350D01*
X192222187Y-105662190D01*
X192222190Y-105662187D01*
X192308350Y-105547093D01*
X192308354Y-105547086D01*
X192358596Y-105412379D01*
X192358598Y-105412372D01*
X192364999Y-105352844D01*
X192365000Y-105352827D01*
X192365000Y-103015000D01*
X191365000Y-103015000D01*
X191365000Y-105805000D01*
X190865000Y-105805000D01*
X190865000Y-103015000D01*
X189865000Y-103015000D01*
X189865000Y-105352844D01*
X183864999Y-105352844D01*
X183865000Y-105352827D01*
X183865000Y-103015000D01*
X182865000Y-103015000D01*
X182865000Y-105805000D01*
X182365000Y-105805000D01*
X182365000Y-103015000D01*
X181365000Y-103015000D01*
X181365000Y-105352844D01*
X147150844Y-105352844D01*
X148239997Y-104263691D01*
X148301318Y-104230208D01*
X148303328Y-104229789D01*
X148414697Y-104207637D01*
X148560379Y-104147294D01*
X148691489Y-104059689D01*
X148802989Y-103948189D01*
X148890594Y-103817079D01*
X148950937Y-103671397D01*
X148981700Y-103516742D01*
X148981700Y-103359058D01*
X148981700Y-103359055D01*
X148981699Y-103359053D01*
X148950938Y-103204410D01*
X148950938Y-103204408D01*
X148950937Y-103204403D01*
X148950935Y-103204398D01*
X148890597Y-103058727D01*
X148890591Y-103058716D01*
X148873093Y-103032528D01*
X148873092Y-103032527D01*
X148802989Y-102927611D01*
X148802986Y-102927607D01*
X148691492Y-102816113D01*
X148691488Y-102816110D01*
X148560385Y-102728509D01*
X148560372Y-102728502D01*
X148414701Y-102668164D01*
X148414689Y-102668161D01*
X148260045Y-102637400D01*
X148260042Y-102637400D01*
X148102358Y-102637400D01*
X148102355Y-102637400D01*
X147947710Y-102668161D01*
X147947698Y-102668164D01*
X147802027Y-102728502D01*
X147802014Y-102728509D01*
X147670911Y-102816110D01*
X147670907Y-102816113D01*
X147559413Y-102927607D01*
X147559410Y-102927611D01*
X147471809Y-103058714D01*
X147471802Y-103058727D01*
X147411464Y-103204398D01*
X147411461Y-103204408D01*
X147389341Y-103315614D01*
X147356956Y-103377525D01*
X147355405Y-103379103D01*
X137325629Y-113408881D01*
X137264306Y-113442366D01*
X137237948Y-113445200D01*
X136862550Y-113445200D01*
X136795511Y-113425515D01*
X136793659Y-113424302D01*
X136699384Y-113361309D01*
X136699372Y-113361302D01*
X136553701Y-113300964D01*
X136553689Y-113300961D01*
X136399045Y-113270200D01*
X136399042Y-113270200D01*
X136241358Y-113270200D01*
X136241355Y-113270200D01*
X136086710Y-113300961D01*
X136086698Y-113300964D01*
X135941027Y-113361302D01*
X135941015Y-113361309D01*
X135846741Y-113424302D01*
X135780064Y-113445180D01*
X135777850Y-113445200D01*
X132208889Y-113445200D01*
X132148471Y-113457218D01*
X132110759Y-113464719D01*
X132088050Y-113469236D01*
X132088048Y-113469237D01*
X132054707Y-113483047D01*
X131974219Y-113516384D01*
X131974205Y-113516392D01*
X131871772Y-113584838D01*
X131871764Y-113584844D01*
X131784639Y-113671970D01*
X130128311Y-115328297D01*
X130066988Y-115361782D01*
X129997296Y-115356798D01*
X129941363Y-115314926D01*
X129937528Y-115309507D01*
X129899597Y-115252739D01*
X129878720Y-115186064D01*
X129878700Y-115183850D01*
X129878700Y-112342451D01*
X129898385Y-112275412D01*
X129915015Y-112254774D01*
X130244797Y-111924991D01*
X130306118Y-111891508D01*
X130308128Y-111891089D01*
X130419497Y-111868937D01*
X130565179Y-111808594D01*
X130696289Y-111720989D01*
X130807789Y-111609489D01*
X130895394Y-111478379D01*
X130955737Y-111332697D01*
X130986500Y-111178042D01*
X130986500Y-111020358D01*
X130986500Y-111020355D01*
X130986499Y-111020353D01*
X130955738Y-110865710D01*
X130955738Y-110865708D01*
X130955737Y-110865703D01*
X130955735Y-110865698D01*
X130895397Y-110720027D01*
X130895390Y-110720014D01*
X130807789Y-110588911D01*
X130807786Y-110588907D01*
X130696292Y-110477413D01*
X130696288Y-110477410D01*
X130565185Y-110389809D01*
X130565172Y-110389802D01*
X130419501Y-110329464D01*
X130419489Y-110329461D01*
X130264845Y-110298700D01*
X130264842Y-110298700D01*
X130107158Y-110298700D01*
X130107155Y-110298700D01*
X129952510Y-110329461D01*
X129952498Y-110329464D01*
X129806827Y-110389802D01*
X129806814Y-110389809D01*
X129675711Y-110477410D01*
X129675707Y-110477413D01*
X129564213Y-110588907D01*
X129564210Y-110588911D01*
X129476609Y-110720014D01*
X129476602Y-110720027D01*
X129416264Y-110865698D01*
X129416261Y-110865708D01*
X129394141Y-110976914D01*
X129361756Y-111038825D01*
X129360205Y-111040403D01*
X129067920Y-111332689D01*
X128854469Y-111546140D01*
X128854467Y-111546142D01*
X128810904Y-111589704D01*
X128767342Y-111633266D01*
X128739014Y-111675663D01*
X128739013Y-111675664D01*
X128698890Y-111735708D01*
X128698888Y-111735713D01*
X128668700Y-111808595D01*
X128651738Y-111849543D01*
X128651738Y-111849545D01*
X128651737Y-111849548D01*
X128636731Y-111924993D01*
X128627700Y-111970396D01*
X128627700Y-115182645D01*
X128608015Y-115249684D01*
X128591382Y-115270325D01*
X128534242Y-115327466D01*
X128534239Y-115327470D01*
X123063744Y-120797964D01*
X123063738Y-120797972D01*
X122995292Y-120900405D01*
X122995284Y-120900419D01*
X122961947Y-120980907D01*
X122956423Y-120994243D01*
X122948137Y-121014245D01*
X122948135Y-121014253D01*
X122924100Y-121135089D01*
X122924100Y-122419250D01*
X122904415Y-122486289D01*
X122903202Y-122488141D01*
X122840209Y-122582415D01*
X122840202Y-122582428D01*
X122779864Y-122728098D01*
X122779861Y-122728110D01*
X122749100Y-122882753D01*
X122749100Y-123040446D01*
X122773474Y-123162985D01*
X122767247Y-123232577D01*
X122724383Y-123287754D01*
X122671255Y-123309649D01*
X122533631Y-123331446D01*
X122309003Y-123404433D01*
X122098566Y-123511657D01*
X122059849Y-123539787D01*
X121907490Y-123650483D01*
X121907488Y-123650485D01*
X121907487Y-123650485D01*
X121740485Y-123817487D01*
X121740485Y-123817488D01*
X121740483Y-123817490D01*
X121711447Y-123857455D01*
X121601657Y-124008566D01*
X121554155Y-124101795D01*
X121506180Y-124152591D01*
X121443670Y-124169500D01*
X117826330Y-124169500D01*
X117759291Y-124149815D01*
X117715845Y-124101795D01*
X117670285Y-124012379D01*
X117668343Y-124008567D01*
X117529517Y-123817490D01*
X117362510Y-123650483D01*
X117171433Y-123511657D01*
X116960996Y-123404433D01*
X116736368Y-123331446D01*
X116503097Y-123294500D01*
X116503092Y-123294500D01*
X116266908Y-123294500D01*
X116266903Y-123294500D01*
X116033631Y-123331446D01*
X115809003Y-123404433D01*
X115598566Y-123511657D01*
X115559849Y-123539787D01*
X115407490Y-123650483D01*
X115407488Y-123650485D01*
X115407487Y-123650485D01*
X115240485Y-123817487D01*
X115240485Y-123817488D01*
X115240483Y-123817490D01*
X115211447Y-123857455D01*
X115101657Y-124008566D01*
X114994433Y-124219003D01*
X114921446Y-124443631D01*
X114884500Y-124676902D01*
X114884500Y-124913097D01*
X114921446Y-125146368D01*
X114994433Y-125370996D01*
X115078459Y-125535905D01*
X115091355Y-125604575D01*
X115065079Y-125669315D01*
X115007972Y-125709572D01*
X114967974Y-125716200D01*
X107883403Y-125716200D01*
X107709441Y-125750803D01*
X107709429Y-125750806D01*
X107627492Y-125784745D01*
X107627493Y-125784746D01*
X107545555Y-125818685D01*
X107533535Y-125826717D01*
X107479215Y-125863013D01*
X107459063Y-125876478D01*
X107398061Y-125917237D01*
X106307117Y-127008181D01*
X106245794Y-127041666D01*
X106219436Y-127044500D01*
X105243798Y-127044500D01*
X105243780Y-127044501D01*
X105141003Y-127055000D01*
X105141000Y-127055001D01*
X104974468Y-127110185D01*
X104974463Y-127110187D01*
X104825142Y-127202289D01*
X104701089Y-127326342D01*
X104608987Y-127475663D01*
X104608985Y-127475668D01*
X104594284Y-127520034D01*
X104553801Y-127642203D01*
X104553801Y-127642204D01*
X104553800Y-127642204D01*
X104543300Y-127744983D01*
X102000000Y-127744983D01*
X102000000Y-111020353D01*
X117056100Y-111020353D01*
X117056100Y-111178046D01*
X117086861Y-111332689D01*
X117086864Y-111332701D01*
X117147202Y-111478372D01*
X117147209Y-111478385D01*
X117234810Y-111609488D01*
X117234813Y-111609492D01*
X117346307Y-111720986D01*
X117346311Y-111720989D01*
X117477414Y-111808590D01*
X117477427Y-111808597D01*
X117564830Y-111844799D01*
X117623103Y-111868937D01*
X117734316Y-111891058D01*
X117796223Y-111923441D01*
X117797803Y-111924993D01*
X121079681Y-115206871D01*
X121113166Y-115268194D01*
X121116000Y-115294552D01*
X121116000Y-115910850D01*
X121096315Y-115977889D01*
X121095102Y-115979741D01*
X121032109Y-116074015D01*
X121032102Y-116074028D01*
X120971764Y-116219698D01*
X120971761Y-116219710D01*
X120941000Y-116374353D01*
X120941000Y-116532046D01*
X120971761Y-116686689D01*
X120971764Y-116686701D01*
X121032102Y-116832372D01*
X121032109Y-116832385D01*
X121119710Y-116963488D01*
X121119713Y-116963492D01*
X121231207Y-117074986D01*
X121231211Y-117074989D01*
X121362314Y-117162590D01*
X121362327Y-117162597D01*
X121507998Y-117222935D01*
X121508003Y-117222937D01*
X121662653Y-117253699D01*
X121662656Y-117253700D01*
X121662658Y-117253700D01*
X121820344Y-117253700D01*
X121820345Y-117253699D01*
X121974997Y-117222937D01*
X122120679Y-117162594D01*
X122251789Y-117074989D01*
X122363289Y-116963489D01*
X122450894Y-116832379D01*
X122511237Y-116686697D01*
X122542000Y-116532042D01*
X122542000Y-116374358D01*
X122542000Y-116374355D01*
X122541999Y-116374353D01*
X122529285Y-116310437D01*
X122511237Y-116219703D01*
X122450894Y-116074021D01*
X122387897Y-115979739D01*
X122367020Y-115913063D01*
X122367000Y-115910850D01*
X122367000Y-114922493D01*
X122366999Y-114922489D01*
X122356797Y-114871199D01*
X122342963Y-114801648D01*
X122295811Y-114687814D01*
X122295810Y-114687813D01*
X122295807Y-114687807D01*
X122227358Y-114585367D01*
X122227355Y-114585363D01*
X122137137Y-114495145D01*
X122137106Y-114495116D01*
X118682393Y-111040403D01*
X118648908Y-110979080D01*
X118648487Y-110977064D01*
X118626337Y-110865703D01*
X118602199Y-110807430D01*
X118565997Y-110720027D01*
X118565990Y-110720014D01*
X118478389Y-110588911D01*
X118478386Y-110588907D01*
X118366892Y-110477413D01*
X118366888Y-110477410D01*
X118235785Y-110389809D01*
X118235772Y-110389802D01*
X118090101Y-110329464D01*
X118090089Y-110329461D01*
X117935445Y-110298700D01*
X117935442Y-110298700D01*
X117777758Y-110298700D01*
X117777755Y-110298700D01*
X117623110Y-110329461D01*
X117623098Y-110329464D01*
X117477427Y-110389802D01*
X117477414Y-110389809D01*
X117346311Y-110477410D01*
X117346307Y-110477413D01*
X117234813Y-110588907D01*
X117234810Y-110588911D01*
X117147209Y-110720014D01*
X117147202Y-110720027D01*
X117086864Y-110865698D01*
X117086861Y-110865710D01*
X117056100Y-111020353D01*
X102000000Y-111020353D01*
X102000000Y-98111509D01*
X123753200Y-98111509D01*
X123753200Y-98116379D01*
X123753200Y-98877395D01*
X123787803Y-99051358D01*
X123787806Y-99051367D01*
X123855683Y-99215240D01*
X123855690Y-99215253D01*
X123954235Y-99362734D01*
X123954238Y-99362738D01*
X124079661Y-99488161D01*
X124079665Y-99488164D01*
X124227146Y-99586709D01*
X124227159Y-99586716D01*
X124350063Y-99637623D01*
X124391034Y-99654594D01*
X124391036Y-99654594D01*
X124391041Y-99654596D01*
X124565004Y-99689199D01*
X124565007Y-99689200D01*
X124565009Y-99689200D01*
X124742393Y-99689200D01*
X124742394Y-99689199D01*
X124800382Y-99677664D01*
X124916358Y-99654596D01*
X124916361Y-99654594D01*
X124916366Y-99654594D01*
X125080247Y-99586713D01*
X125227735Y-99488164D01*
X125353164Y-99362735D01*
X125353166Y-99362731D01*
X125357408Y-99358490D01*
X125418731Y-99325005D01*
X125475362Y-99327280D01*
X125475528Y-99326449D01*
X125480805Y-99327498D01*
X125481085Y-99327510D01*
X125481495Y-99327634D01*
X125481503Y-99327637D01*
X125636153Y-99358399D01*
X125636156Y-99358400D01*
X125636158Y-99358400D01*
X125793844Y-99358400D01*
X125793845Y-99358399D01*
X125948497Y-99327637D01*
X126094179Y-99267294D01*
X126190255Y-99203098D01*
X126256932Y-99182220D01*
X126259146Y-99182200D01*
X142831007Y-99182200D01*
X142891429Y-99170181D01*
X142951852Y-99158163D01*
X142951855Y-99158161D01*
X142951858Y-99158161D01*
X142985187Y-99144354D01*
X142985186Y-99144354D01*
X142985192Y-99144352D01*
X143065686Y-99111012D01*
X143116909Y-99076784D01*
X143168133Y-99042558D01*
X143255258Y-98955433D01*
X143255258Y-98955431D01*
X143265466Y-98945224D01*
X143265467Y-98945221D01*
X145814220Y-96396468D01*
X145875542Y-96362985D01*
X145945234Y-96367969D01*
X146001167Y-96409841D01*
X146025584Y-96475305D01*
X146025900Y-96484151D01*
X146025900Y-96708647D01*
X146006215Y-96775686D01*
X145989581Y-96796328D01*
X134816029Y-107969881D01*
X134754706Y-108003366D01*
X134728348Y-108006200D01*
X129095550Y-108006200D01*
X129028511Y-107986515D01*
X129026659Y-107985302D01*
X128932384Y-107922309D01*
X128932372Y-107922302D01*
X128786701Y-107861964D01*
X128786689Y-107861961D01*
X128632045Y-107831200D01*
X128632042Y-107831200D01*
X128474358Y-107831200D01*
X128474355Y-107831200D01*
X128319710Y-107861961D01*
X128319698Y-107861964D01*
X128174027Y-107922302D01*
X128174014Y-107922309D01*
X128042911Y-108009910D01*
X128042907Y-108009913D01*
X127931413Y-108121407D01*
X127931410Y-108121411D01*
X127843809Y-108252514D01*
X127843802Y-108252527D01*
X127783464Y-108398198D01*
X127783461Y-108398210D01*
X127752700Y-108552853D01*
X127752700Y-108710546D01*
X127783461Y-108865189D01*
X127783464Y-108865201D01*
X127843802Y-109010872D01*
X127843809Y-109010885D01*
X127931410Y-109141988D01*
X127931413Y-109141992D01*
X128042907Y-109253486D01*
X128042911Y-109253489D01*
X128174014Y-109341090D01*
X128174027Y-109341097D01*
X128319698Y-109401435D01*
X128319703Y-109401437D01*
X128474353Y-109432199D01*
X128474356Y-109432200D01*
X128474358Y-109432200D01*
X128632044Y-109432200D01*
X128632045Y-109432199D01*
X128786697Y-109401437D01*
X128932379Y-109341094D01*
X129026659Y-109278098D01*
X129093336Y-109257220D01*
X129095550Y-109257200D01*
X135100407Y-109257200D01*
X135160829Y-109245181D01*
X135221252Y-109233163D01*
X135221255Y-109233161D01*
X135221258Y-109233161D01*
X135254587Y-109219354D01*
X135254586Y-109219354D01*
X135254592Y-109219352D01*
X135335086Y-109186012D01*
X135400969Y-109141989D01*
X135437533Y-109117558D01*
X135524658Y-109030433D01*
X135524658Y-109030431D01*
X135534866Y-109020224D01*
X135534867Y-109020221D01*
X142040090Y-102515000D01*
X146052957Y-98502135D01*
X151244500Y-98502135D01*
X151244500Y-101597870D01*
X151244501Y-101597876D01*
X151250908Y-101657483D01*
X151301202Y-101792328D01*
X151301206Y-101792335D01*
X151387452Y-101907544D01*
X151387455Y-101907547D01*
X151502664Y-101993793D01*
X151502671Y-101993797D01*
X151637517Y-102044091D01*
X151637516Y-102044091D01*
X151644444Y-102044835D01*
X151697127Y-102050500D01*
X154792872Y-102050499D01*
X154852483Y-102044091D01*
X154987331Y-101993796D01*
X155102546Y-101907546D01*
X155188796Y-101792331D01*
X155239091Y-101657483D01*
X155245500Y-101597873D01*
X155245499Y-99918905D01*
X171735000Y-99918905D01*
X171735000Y-100181094D01*
X171769220Y-100441009D01*
X171769222Y-100441020D01*
X171837075Y-100694255D01*
X171937404Y-100936471D01*
X171937409Y-100936482D01*
X172068488Y-101163516D01*
X172068494Y-101163524D01*
X172155080Y-101276365D01*
X173057421Y-100374024D01*
X173070359Y-100405258D01*
X173152437Y-100528097D01*
X173256903Y-100632563D01*
X173379742Y-100714641D01*
X173410974Y-100727577D01*
X172508633Y-101629917D01*
X172508633Y-101629918D01*
X172621475Y-101716505D01*
X172621483Y-101716511D01*
X172848517Y-101847590D01*
X172848528Y-101847595D01*
X173090744Y-101947924D01*
X173343979Y-102015777D01*
X173343990Y-102015779D01*
X173603905Y-102049999D01*
X173603920Y-102050000D01*
X173866080Y-102050000D01*
X173866094Y-102049999D01*
X174126009Y-102015779D01*
X174126020Y-102015777D01*
X174379255Y-101947924D01*
X174621471Y-101847595D01*
X174621482Y-101847590D01*
X174848516Y-101716511D01*
X174848534Y-101716499D01*
X174961365Y-101629919D01*
X174961365Y-101629917D01*
X174059025Y-100727578D01*
X174090258Y-100714641D01*
X174213097Y-100632563D01*
X174317563Y-100528097D01*
X174399641Y-100405258D01*
X174412577Y-100374025D01*
X175314917Y-101276365D01*
X175314919Y-101276365D01*
X175401499Y-101163534D01*
X175401511Y-101163516D01*
X175532590Y-100936482D01*
X175532595Y-100936471D01*
X175632924Y-100694255D01*
X175700777Y-100441020D01*
X175700779Y-100441009D01*
X175734999Y-100181094D01*
X175735000Y-100181080D01*
X175735000Y-100177155D01*
X181365000Y-100177155D01*
X181365000Y-102515000D01*
X182365000Y-102515000D01*
X182865000Y-102515000D01*
X183865000Y-102515000D01*
X183865000Y-100177172D01*
X183864999Y-100177155D01*
X189865000Y-100177155D01*
X189865000Y-102515000D01*
X190865000Y-102515000D01*
X191365000Y-102515000D01*
X192365000Y-102515000D01*
X192365000Y-100177172D01*
X192364999Y-100177155D01*
X192358598Y-100117627D01*
X192358596Y-100117620D01*
X192308354Y-99982913D01*
X192308350Y-99982906D01*
X192222190Y-99867812D01*
X192222187Y-99867809D01*
X192107093Y-99781649D01*
X192107086Y-99781645D01*
X191972379Y-99731403D01*
X191972372Y-99731401D01*
X191912844Y-99725000D01*
X191365000Y-99725000D01*
X191365000Y-102515000D01*
X190865000Y-102515000D01*
X190865000Y-99725000D01*
X190317155Y-99725000D01*
X190257627Y-99731401D01*
X190257620Y-99731403D01*
X190122913Y-99781645D01*
X190122906Y-99781649D01*
X190007812Y-99867809D01*
X190007809Y-99867812D01*
X189921649Y-99982906D01*
X189921645Y-99982913D01*
X189871403Y-100117620D01*
X189871401Y-100117627D01*
X189865000Y-100177155D01*
X183864999Y-100177155D01*
X183858598Y-100117627D01*
X183858596Y-100117620D01*
X183808354Y-99982913D01*
X183808350Y-99982906D01*
X183722190Y-99867812D01*
X183722187Y-99867809D01*
X183607093Y-99781649D01*
X183607086Y-99781645D01*
X183472379Y-99731403D01*
X183472372Y-99731401D01*
X183412844Y-99725000D01*
X182865000Y-99725000D01*
X182865000Y-102515000D01*
X182365000Y-102515000D01*
X182365000Y-99725000D01*
X181817155Y-99725000D01*
X181757627Y-99731401D01*
X181757620Y-99731403D01*
X181622913Y-99781645D01*
X181622906Y-99781649D01*
X181507812Y-99867809D01*
X181507809Y-99867812D01*
X181421649Y-99982906D01*
X181421645Y-99982913D01*
X181371403Y-100117620D01*
X181371401Y-100117627D01*
X181365000Y-100177155D01*
X175735000Y-100177155D01*
X175735000Y-99918919D01*
X175734999Y-99918905D01*
X175700779Y-99658990D01*
X175700777Y-99658979D01*
X175632924Y-99405744D01*
X175532595Y-99163528D01*
X175532590Y-99163517D01*
X175401511Y-98936483D01*
X175401505Y-98936475D01*
X175314918Y-98823633D01*
X175314917Y-98823633D01*
X174412577Y-99725973D01*
X174399641Y-99694742D01*
X174317563Y-99571903D01*
X174213097Y-99467437D01*
X174090258Y-99385359D01*
X174059023Y-99372421D01*
X174961365Y-98470080D01*
X174848524Y-98383494D01*
X174848516Y-98383488D01*
X174621482Y-98252409D01*
X174621471Y-98252404D01*
X174379255Y-98152075D01*
X174126020Y-98084222D01*
X174126009Y-98084220D01*
X173866094Y-98050000D01*
X173603905Y-98050000D01*
X173343990Y-98084220D01*
X173343979Y-98084222D01*
X173090744Y-98152075D01*
X172848528Y-98252404D01*
X172848517Y-98252409D01*
X172621471Y-98383496D01*
X172508633Y-98470079D01*
X172508633Y-98470080D01*
X173410974Y-99372421D01*
X173379742Y-99385359D01*
X173256903Y-99467437D01*
X173152437Y-99571903D01*
X173070359Y-99694742D01*
X173057421Y-99725974D01*
X172155080Y-98823633D01*
X172155079Y-98823633D01*
X172068496Y-98936471D01*
X171937409Y-99163517D01*
X171937404Y-99163528D01*
X171837075Y-99405744D01*
X171769222Y-99658979D01*
X171769220Y-99658990D01*
X171735000Y-99918905D01*
X155245499Y-99918905D01*
X155245499Y-98502128D01*
X155239091Y-98442517D01*
X155188796Y-98307669D01*
X155188795Y-98307668D01*
X155188793Y-98307664D01*
X155102547Y-98192455D01*
X155102544Y-98192452D01*
X154987335Y-98106206D01*
X154987328Y-98106202D01*
X154852482Y-98055908D01*
X154852483Y-98055908D01*
X154792883Y-98049501D01*
X154792881Y-98049500D01*
X154792873Y-98049500D01*
X154792864Y-98049500D01*
X151697129Y-98049500D01*
X151697123Y-98049501D01*
X151637516Y-98055908D01*
X151502671Y-98106202D01*
X151502664Y-98106206D01*
X151387455Y-98192452D01*
X151387452Y-98192455D01*
X151301206Y-98307664D01*
X151301202Y-98307671D01*
X151250908Y-98442517D01*
X151244501Y-98502116D01*
X151244501Y-98502123D01*
X151244500Y-98502135D01*
X146052957Y-98502135D01*
X146143967Y-98411125D01*
X147137254Y-97417837D01*
X147137257Y-97417834D01*
X147205711Y-97315386D01*
X147252863Y-97201552D01*
X147269069Y-97120075D01*
X147301453Y-97058167D01*
X147362168Y-97023592D01*
X147431938Y-97027331D01*
X147438131Y-97029704D01*
X147470803Y-97043237D01*
X147625453Y-97073999D01*
X147625456Y-97074000D01*
X147625458Y-97074000D01*
X147783144Y-97074000D01*
X147783145Y-97073999D01*
X147937797Y-97043237D01*
X148083479Y-96982894D01*
X148214589Y-96895289D01*
X148326089Y-96783789D01*
X148413694Y-96652679D01*
X148474037Y-96506997D01*
X148480748Y-96473253D01*
X148485910Y-96447309D01*
X148518295Y-96385398D01*
X148579010Y-96350824D01*
X148607527Y-96347500D01*
X175516608Y-96347500D01*
X175516608Y-96347499D01*
X175578912Y-96335107D01*
X175578914Y-96335107D01*
X175637442Y-96323465D01*
X175637442Y-96323464D01*
X175637452Y-96323463D01*
X175670792Y-96309652D01*
X175751286Y-96276312D01*
X175802509Y-96242084D01*
X175853733Y-96207858D01*
X175940858Y-96120733D01*
X175940859Y-96120731D01*
X175947925Y-96113665D01*
X175947928Y-96113661D01*
X180147029Y-91914560D01*
X180147033Y-91914558D01*
X180234158Y-91827433D01*
X180279420Y-91759694D01*
X180302612Y-91724986D01*
X180341043Y-91632203D01*
X180349763Y-91611152D01*
X180368945Y-91514713D01*
X180368945Y-91514712D01*
X180368946Y-91514712D01*
X180368946Y-91514707D01*
X180373800Y-91490307D01*
X180373800Y-91367093D01*
X180373800Y-90144194D01*
X180367176Y-90110894D01*
X180356219Y-90055808D01*
X180349763Y-90023348D01*
X180322273Y-89956981D01*
X180302614Y-89909520D01*
X180302607Y-89909507D01*
X180234159Y-89807068D01*
X180200091Y-89773000D01*
X180147033Y-89719942D01*
X180147032Y-89719941D01*
X179841817Y-89414727D01*
X179808333Y-89353405D01*
X179805499Y-89327055D01*
X179805499Y-88749992D01*
X179804987Y-88744983D01*
X179794999Y-88647203D01*
X179794998Y-88647200D01*
X179777578Y-88594630D01*
X179739814Y-88480666D01*
X179647712Y-88331344D01*
X179523656Y-88207288D01*
X179374334Y-88115186D01*
X179207797Y-88060001D01*
X179207795Y-88060000D01*
X179105010Y-88049500D01*
X178104998Y-88049500D01*
X178104980Y-88049501D01*
X178002203Y-88060000D01*
X178002200Y-88060001D01*
X177835668Y-88115185D01*
X177835663Y-88115187D01*
X177686342Y-88207289D01*
X177562289Y-88331342D01*
X177470187Y-88480663D01*
X177470185Y-88480668D01*
X177470115Y-88480880D01*
X177415001Y-88647203D01*
X177415001Y-88647204D01*
X177415000Y-88647204D01*
X177404500Y-88749983D01*
X177404500Y-89375001D01*
X177404501Y-89375019D01*
X177415000Y-89477796D01*
X177415001Y-89477799D01*
X177455283Y-89599361D01*
X177470186Y-89644334D01*
X177549547Y-89773000D01*
X177562289Y-89793657D01*
X177655951Y-89887319D01*
X177689436Y-89948642D01*
X177684452Y-90018334D01*
X177655951Y-90062681D01*
X177562289Y-90156342D01*
X177470187Y-90305663D01*
X177470185Y-90305668D01*
X177431569Y-90422204D01*
X177391796Y-90479649D01*
X177327280Y-90506472D01*
X177313863Y-90507200D01*
X176970119Y-90507200D01*
X176903080Y-90487515D01*
X176882443Y-90470887D01*
X176876739Y-90465184D01*
X176734324Y-90322786D01*
X176700835Y-90261464D01*
X176698000Y-90235099D01*
X176698000Y-90125398D01*
X176716461Y-90060301D01*
X176744814Y-90014334D01*
X176799999Y-89847797D01*
X176810500Y-89745009D01*
X176810499Y-88744992D01*
X176805383Y-88694914D01*
X176799999Y-88642203D01*
X176799998Y-88642200D01*
X176784235Y-88594630D01*
X176744814Y-88475666D01*
X176652712Y-88326344D01*
X176528656Y-88202288D01*
X176435888Y-88145069D01*
X176379336Y-88110187D01*
X176379331Y-88110185D01*
X176364562Y-88105291D01*
X176212797Y-88055001D01*
X176212795Y-88055000D01*
X176110010Y-88044500D01*
X175484998Y-88044500D01*
X175484980Y-88044501D01*
X175382203Y-88055000D01*
X175382200Y-88055001D01*
X175215668Y-88110185D01*
X175215663Y-88110187D01*
X175066342Y-88202289D01*
X174972681Y-88295951D01*
X174911358Y-88329436D01*
X174841666Y-88324452D01*
X174797319Y-88295951D01*
X174703657Y-88202289D01*
X174703656Y-88202288D01*
X174610888Y-88145069D01*
X174554336Y-88110187D01*
X174554331Y-88110185D01*
X174539562Y-88105291D01*
X174387797Y-88055001D01*
X174387795Y-88055000D01*
X174285016Y-88044500D01*
X174285009Y-88044500D01*
X174199353Y-88044500D01*
X174132314Y-88024815D01*
X174111672Y-88008181D01*
X169959628Y-83856138D01*
X169959625Y-83856134D01*
X169959625Y-83856135D01*
X169952558Y-83849068D01*
X169952558Y-83849067D01*
X169865433Y-83761942D01*
X169865432Y-83761941D01*
X169865431Y-83761940D01*
X169814209Y-83727715D01*
X169762987Y-83693489D01*
X169762986Y-83693488D01*
X169762983Y-83693486D01*
X169762980Y-83693485D01*
X169682492Y-83660147D01*
X169649153Y-83646337D01*
X169639127Y-83644343D01*
X169588729Y-83634318D01*
X169528310Y-83622300D01*
X169528307Y-83622300D01*
X169528306Y-83622300D01*
X149933707Y-83622300D01*
X149810493Y-83622300D01*
X149810489Y-83622300D01*
X149750071Y-83634318D01*
X149689648Y-83646337D01*
X149689643Y-83646338D01*
X149656307Y-83660147D01*
X149642497Y-83665867D01*
X149620269Y-83675074D01*
X149575813Y-83693488D01*
X149565657Y-83700275D01*
X149565549Y-83700347D01*
X149473368Y-83761940D01*
X149429805Y-83805503D01*
X149386242Y-83849067D01*
X149386239Y-83849070D01*
X144407703Y-88827605D01*
X144346380Y-88861090D01*
X144344214Y-88861541D01*
X144233008Y-88883661D01*
X144232998Y-88883664D01*
X144087327Y-88944002D01*
X144087314Y-88944009D01*
X143956211Y-89031610D01*
X143956207Y-89031613D01*
X143844713Y-89143107D01*
X143844710Y-89143111D01*
X143757109Y-89274214D01*
X143757102Y-89274227D01*
X143696764Y-89419898D01*
X143696761Y-89419910D01*
X143666000Y-89574553D01*
X143666000Y-89732246D01*
X143688450Y-89845109D01*
X143682223Y-89914700D01*
X143639360Y-89969878D01*
X143573470Y-89993122D01*
X143566833Y-89993300D01*
X132341106Y-89993300D01*
X132260886Y-90009257D01*
X132220775Y-90017236D01*
X132177803Y-90025783D01*
X132167133Y-90027906D01*
X132167132Y-90027906D01*
X132003257Y-90095784D01*
X132003256Y-90095785D01*
X131865194Y-90188036D01*
X131865192Y-90188037D01*
X131855765Y-90194335D01*
X131855760Y-90194339D01*
X125431919Y-96618181D01*
X125370596Y-96651666D01*
X125344238Y-96654500D01*
X125210204Y-96654500D01*
X125036241Y-96689103D01*
X125036233Y-96689105D01*
X124954852Y-96722815D01*
X124954851Y-96722815D01*
X124872357Y-96756984D01*
X124872356Y-96756985D01*
X124766357Y-96827812D01*
X124766356Y-96827813D01*
X124724862Y-96855537D01*
X123954234Y-97626165D01*
X123941916Y-97644602D01*
X123855690Y-97773646D01*
X123855683Y-97773659D01*
X123824682Y-97848505D01*
X123824682Y-97848506D01*
X123790429Y-97931200D01*
X123787805Y-97937534D01*
X123761289Y-98070842D01*
X123753200Y-98111509D01*
X102000000Y-98111509D01*
X102000000Y-81124000D01*
X102019685Y-81056961D01*
X102072489Y-81011206D01*
X102124000Y-81000000D01*
X194349904Y-81000000D01*
X194416943Y-81019685D01*
G37*
%TD.AperFunction*%
%TD*%
M02*
