%TF.GenerationSoftware,KiCad,Pcbnew,10.0.5*%
%TF.CreationDate,2026-08-03T02:50:51-07:00*%
%TF.ProjectId,cv-em,63762d65-6d2e-46b6-9963-61645f706362,rev?*%
%TF.SameCoordinates,Original*%
%TF.FileFunction,Copper,L2,Bot*%
%TF.FilePolarity,Positive*%
%FSLAX46Y46*%
G04 Gerber Fmt 4.6, Leading zero omitted, Abs format (unit mm)*
G04 Created by KiCad (PCBNEW 10.0.5) date 2026-08-03 02:50:51*
%MOMM*%
%LPD*%
G01*
G04 APERTURE LIST*
G04 Aperture macros list*
%AMRoundRect*
0 Rectangle with rounded corners*
0 $1 Rounding radius*
0 $2 $3 $4 $5 $6 $7 $8 $9 X,Y pos of 4 corners*
0 Add a 4 corners polygon primitive as box body*
4,1,4,$2,$3,$4,$5,$6,$7,$8,$9,$2,$3,0*
0 Add four circle primitives for the rounded corners*
1,1,$1+$1,$2,$3*
1,1,$1+$1,$4,$5*
1,1,$1+$1,$6,$7*
1,1,$1+$1,$8,$9*
0 Add four rect primitives between the rounded corners*
20,1,$1+$1,$2,$3,$4,$5,0*
20,1,$1+$1,$4,$5,$6,$7,0*
20,1,$1+$1,$6,$7,$8,$9,0*
20,1,$1+$1,$8,$9,$2,$3,0*%
G04 Aperture macros list end*
%TA.AperFunction,ComponentPad*%
%ADD10R,1.800000X1.800000*%
%TD*%
%TA.AperFunction,ComponentPad*%
%ADD11C,1.800000*%
%TD*%
%TA.AperFunction,ComponentPad*%
%ADD12C,1.600000*%
%TD*%
%TA.AperFunction,ComponentPad*%
%ADD13RoundRect,0.250000X0.750000X-0.600000X0.750000X0.600000X-0.750000X0.600000X-0.750000X-0.600000X0*%
%TD*%
%TA.AperFunction,ComponentPad*%
%ADD14O,2.000000X1.700000*%
%TD*%
%TA.AperFunction,ComponentPad*%
%ADD15RoundRect,0.250000X-0.550000X-0.550000X0.550000X-0.550000X0.550000X0.550000X-0.550000X0.550000X0*%
%TD*%
%TA.AperFunction,HeatsinkPad*%
%ADD16C,0.600000*%
%TD*%
%TA.AperFunction,ComponentPad*%
%ADD17R,1.700000X1.700000*%
%TD*%
%TA.AperFunction,ComponentPad*%
%ADD18C,1.700000*%
%TD*%
%TA.AperFunction,ComponentPad*%
%ADD19RoundRect,0.250000X1.050000X-1.050000X1.050000X1.050000X-1.050000X1.050000X-1.050000X-1.050000X0*%
%TD*%
%TA.AperFunction,ComponentPad*%
%ADD20C,2.600000*%
%TD*%
%TA.AperFunction,SMDPad,CuDef*%
%ADD21RoundRect,0.250000X0.262500X0.450000X-0.262500X0.450000X-0.262500X-0.450000X0.262500X-0.450000X0*%
%TD*%
%TA.AperFunction,SMDPad,CuDef*%
%ADD22RoundRect,0.375000X0.625000X0.375000X-0.625000X0.375000X-0.625000X-0.375000X0.625000X-0.375000X0*%
%TD*%
%TA.AperFunction,SMDPad,CuDef*%
%ADD23RoundRect,0.500000X0.500000X1.400000X-0.500000X1.400000X-0.500000X-1.400000X0.500000X-1.400000X0*%
%TD*%
%TA.AperFunction,SMDPad,CuDef*%
%ADD24RoundRect,0.250000X0.250000X0.475000X-0.250000X0.475000X-0.250000X-0.475000X0.250000X-0.475000X0*%
%TD*%
%TA.AperFunction,SMDPad,CuDef*%
%ADD25RoundRect,0.250000X0.375000X0.625000X-0.375000X0.625000X-0.375000X-0.625000X0.375000X-0.625000X0*%
%TD*%
%TA.AperFunction,ViaPad*%
%ADD26C,0.800000*%
%TD*%
%TA.AperFunction,ViaPad*%
%ADD27C,0.600000*%
%TD*%
%TA.AperFunction,Conductor*%
%ADD28C,0.800000*%
%TD*%
%TA.AperFunction,Conductor*%
%ADD29C,0.250000*%
%TD*%
G04 APERTURE END LIST*
D10*
%TO.P,LED0,1*%
%TO.N,GND*%
X183209000Y-139485000D03*
D11*
%TO.P,LED0,2*%
%TO.N,LED0_A*%
X183209000Y-136945000D03*
%TD*%
D12*
%TO.P,RV1,1*%
%TO.N,AC_L_FUSED*%
X107545000Y-115685000D03*
%TO.P,RV1,2*%
%TO.N,AC_N*%
X112545000Y-116985000D03*
%TD*%
D13*
%TO.P,PS1,1*%
%TO.N,AC_L_FUSED*%
X133239000Y-121485000D03*
D14*
%TO.P,PS1,2*%
%TO.N,AC_N*%
X138239000Y-121485000D03*
%TO.P,PS1,3*%
%TO.N,GND*%
X128239000Y-92405000D03*
%TO.P,PS1,4*%
%TO.N,+5V*%
X143239000Y-92405000D03*
%TD*%
D15*
%TO.P,C2,1*%
%TO.N,+3V3*%
X161367800Y-139195000D03*
D12*
%TO.P,C2,2*%
%TO.N,GND*%
X163867800Y-139195000D03*
%TD*%
D16*
%TO.P,U1,39*%
%TO.N,GND*%
X165384000Y-109490000D03*
X165384000Y-110890000D03*
X166084000Y-108790000D03*
X166084000Y-110190000D03*
X166084000Y-111590000D03*
X166784000Y-109490000D03*
X166784000Y-110890000D03*
X167484000Y-108790000D03*
X167484000Y-110190000D03*
X167484000Y-111590000D03*
X168184000Y-109490000D03*
X168184000Y-110890000D03*
%TD*%
D17*
%TO.P,JP,1*%
%TO.N,UART_TX*%
X178139000Y-137565000D03*
D18*
%TO.P,JP,2*%
%TO.N,UART_RX*%
X178139000Y-140105000D03*
%TO.P,JP,3*%
%TO.N,GND*%
X178139000Y-142645000D03*
%TD*%
D19*
%TO.P,J3,1*%
%TO.N,AC_L*%
X112005000Y-104295000D03*
D20*
%TO.P,J3,2*%
%TO.N,AC_N*%
X112005000Y-99295000D03*
%TO.P,J3,3*%
%TO.N,PE*%
X112005000Y-94295000D03*
%TD*%
D15*
%TO.P,C1,1*%
%TO.N,+5V*%
X153477800Y-139195000D03*
D12*
%TO.P,C1,2*%
%TO.N,GND*%
X155977800Y-139195000D03*
%TD*%
D17*
%TO.P,ZMPT1,1*%
%TO.N,N$ZMPT1.1*%
X173509000Y-137565000D03*
D18*
%TO.P,ZMPT1,2*%
%TO.N,N$ZMPT1.2*%
X173509000Y-140105000D03*
%TO.P,ZMPT1,3*%
%TO.N,N$ZMPT1.3*%
X173509000Y-142645000D03*
%TO.P,ZMPT1,4*%
%TO.N,N$ZMPT1.4*%
X173509000Y-145185000D03*
%TD*%
D17*
%TO.P,CT1,1*%
%TO.N,N$CT1.1*%
X168879000Y-137565000D03*
D18*
%TO.P,CT1,2*%
%TO.N,N$CT1.2*%
X168879000Y-140105000D03*
%TO.P,CT1,3*%
%TO.N,N$CT1.3*%
X168879000Y-142645000D03*
%TO.P,CT1,4*%
%TO.N,N$CT1.4*%
X168879000Y-145185000D03*
%TD*%
D21*
%TO.P,Rb,1*%
%TO.N,N$Rb.1*%
X177996500Y-145490000D03*
%TO.P,Rb,2*%
%TO.N,N$Rb.2*%
X176171500Y-145490000D03*
%TD*%
D22*
%TO.P,U2,1*%
%TO.N,GND*%
X158879000Y-142340000D03*
%TO.P,U2,2*%
%TO.N,+3V3*%
X158879000Y-144640000D03*
D23*
X152579000Y-144640000D03*
D22*
%TO.P,U2,3*%
%TO.N,+5V*%
X158879000Y-146940000D03*
%TD*%
D24*
%TO.P,C5,1*%
%TO.N,+3V3*%
X182684000Y-145460000D03*
%TO.P,C5,2*%
%TO.N,GND*%
X180784000Y-145460000D03*
%TD*%
%TO.P,C4,1*%
%TO.N,+3V3*%
X163869000Y-145070000D03*
%TO.P,C4,2*%
%TO.N,GND*%
X161969000Y-145070000D03*
%TD*%
%TO.P,C3,1*%
%TO.N,+3V3*%
X182684000Y-142410000D03*
%TO.P,C3,2*%
%TO.N,GND*%
X180784000Y-142410000D03*
%TD*%
%TO.P,Cb,1*%
%TO.N,+3V3*%
X163869000Y-142020000D03*
%TO.P,Cb,2*%
%TO.N,GND*%
X161969000Y-142020000D03*
%TD*%
D25*
%TO.P,F1,1*%
%TO.N,AC_L*%
X109975000Y-125960000D03*
%TO.P,F1,2*%
%TO.N,AC_L_FUSED*%
X107175000Y-125960000D03*
%TD*%
D26*
%TO.N,GND*%
X165784000Y-128250000D03*
X169284000Y-124750000D03*
X186784000Y-114250000D03*
X180784000Y-147585000D03*
X176284000Y-152750000D03*
X186784000Y-107250000D03*
X169284000Y-89750000D03*
X176284000Y-128250000D03*
X158784000Y-89750000D03*
X183284000Y-86250000D03*
X186784000Y-131750000D03*
X158784000Y-86250000D03*
X169284000Y-110750000D03*
X155284000Y-142250000D03*
X186784000Y-110750000D03*
X151784000Y-100250000D03*
X155284000Y-107250000D03*
X186784000Y-138750000D03*
X172784000Y-110750000D03*
X179784000Y-86250000D03*
X155284000Y-86250000D03*
X179784000Y-152750000D03*
X155284000Y-114250000D03*
X186784000Y-117750000D03*
X186784000Y-142250000D03*
X155284000Y-149250000D03*
X151784000Y-131750000D03*
X165784000Y-124750000D03*
X151784000Y-128250000D03*
X151784000Y-89750000D03*
X179784000Y-110750000D03*
X183284000Y-100250000D03*
X155284000Y-124750000D03*
X162284000Y-107250000D03*
X158784000Y-131750000D03*
X183284000Y-82750000D03*
X172784000Y-103750000D03*
X186784000Y-128250000D03*
X172784000Y-124750000D03*
X169284000Y-149250000D03*
X155284000Y-96750000D03*
X165784000Y-82750000D03*
X172784000Y-128250000D03*
X186784000Y-89750000D03*
X179784000Y-82750000D03*
X183284000Y-107250000D03*
X169284000Y-152750000D03*
X169284000Y-117750000D03*
X186784000Y-145750000D03*
X162284000Y-103750000D03*
X179784000Y-93250000D03*
X151784000Y-121250000D03*
X179784000Y-149250000D03*
X162284000Y-135250000D03*
X179784000Y-107250000D03*
X186784000Y-82750000D03*
X179784000Y-124750000D03*
X172784000Y-82750000D03*
X186784000Y-121250000D03*
X176284000Y-149250000D03*
X183284000Y-89750000D03*
X162284000Y-89750000D03*
X155284000Y-82750000D03*
X162284000Y-131750000D03*
X172784000Y-107250000D03*
X155284000Y-131750000D03*
X151784000Y-96750000D03*
X179784000Y-100250000D03*
X183284000Y-117750000D03*
X169284000Y-82750000D03*
X183284000Y-114250000D03*
X186784000Y-86250000D03*
X175889000Y-142645000D03*
X162284000Y-110750000D03*
X169284000Y-131750000D03*
X162284000Y-86250000D03*
X151784000Y-124750000D03*
X183284000Y-93250000D03*
X176284000Y-135250000D03*
X172784000Y-89750000D03*
X183284000Y-110750000D03*
X158784000Y-138750000D03*
X155284000Y-121250000D03*
X155284000Y-110750000D03*
X172784000Y-131750000D03*
X165784000Y-142250000D03*
X179184000Y-102470000D03*
X183284000Y-124750000D03*
X162284000Y-114250000D03*
X169284000Y-114250000D03*
X179784000Y-135250000D03*
X165784000Y-135250000D03*
X151784000Y-117750000D03*
X183284000Y-128250000D03*
X151784000Y-93250000D03*
X165784000Y-103750000D03*
X169284000Y-86250000D03*
X169284000Y-128250000D03*
X186784000Y-103750000D03*
X176284000Y-82750000D03*
X186784000Y-135250000D03*
X179784000Y-114250000D03*
X155284000Y-93250000D03*
X165784000Y-93250000D03*
X183284000Y-96750000D03*
X155284000Y-135250000D03*
X186784000Y-96750000D03*
X169284000Y-93250000D03*
X162284000Y-128250000D03*
X186784000Y-149250000D03*
X165784000Y-86250000D03*
X186784000Y-93250000D03*
X158784000Y-82750000D03*
X165784000Y-145750000D03*
X162284000Y-93250000D03*
X155284000Y-100250000D03*
X158784000Y-128250000D03*
X151784000Y-135250000D03*
X165784000Y-89750000D03*
X158784000Y-124750000D03*
X176284000Y-93250000D03*
X158784000Y-121250000D03*
X179784000Y-89750000D03*
X183284000Y-103750000D03*
X176284000Y-89750000D03*
X157384000Y-102470000D03*
X179784000Y-103750000D03*
X179784000Y-128250000D03*
X158879000Y-140440000D03*
X176284000Y-124750000D03*
X158178000Y-139195000D03*
X172784000Y-152750000D03*
X179784000Y-117750000D03*
X151784000Y-107250000D03*
X151784000Y-110750000D03*
X162284000Y-124750000D03*
X155284000Y-89750000D03*
X172784000Y-114250000D03*
X155284000Y-117750000D03*
X161969000Y-147195000D03*
X172784000Y-93250000D03*
X165784000Y-117750000D03*
X172784000Y-86250000D03*
X162284000Y-149250000D03*
X169284000Y-103750000D03*
X151784000Y-103750000D03*
X183284000Y-121250000D03*
X165784000Y-131750000D03*
X180784000Y-140285000D03*
X158784000Y-93250000D03*
X179784000Y-131750000D03*
X165784000Y-152750000D03*
X186784000Y-124750000D03*
X166068000Y-139195000D03*
X172784000Y-135250000D03*
X165784000Y-114250000D03*
X163185000Y-152500000D03*
X179784000Y-121250000D03*
X165784000Y-107250000D03*
X176284000Y-86250000D03*
X183284000Y-149250000D03*
X172784000Y-149250000D03*
X155284000Y-128250000D03*
X176284000Y-121250000D03*
X155284000Y-103750000D03*
X176284000Y-131750000D03*
X151784000Y-86250000D03*
X186784000Y-100250000D03*
X162284000Y-82750000D03*
X158784000Y-135250000D03*
X151784000Y-82750000D03*
X169284000Y-135250000D03*
X169284000Y-107250000D03*
X162284000Y-117750000D03*
X151784000Y-114250000D03*
X179784000Y-96750000D03*
X172784000Y-117750000D03*
X165784000Y-149250000D03*
X183284000Y-131750000D03*
%TO.N,+3V3*%
X185019700Y-145763200D03*
D27*
%TO.N,CT_PIN*%
X183483700Y-147420000D03*
X159909900Y-137455300D03*
%TD*%
%TO.N,GND*%
D28*
X151875300Y-97731600D02*
X132013900Y-97731600D01*
X132013900Y-97731600D02*
X128239000Y-93956700D01*
X128239000Y-92405000D02*
X128239000Y-93956700D01*
%TO.N,+5V*%
X150816800Y-146502400D02*
X150816800Y-141856000D01*
X151605100Y-147290700D02*
X150816800Y-146502400D01*
X158879000Y-146940000D02*
X158528300Y-147290700D01*
X150816800Y-141856000D02*
X153477800Y-139195000D01*
X158528300Y-147290700D02*
X151605100Y-147290700D01*
%TO.N,+3V3*%
X163869000Y-141696200D02*
X163869000Y-142020000D01*
X163869000Y-144614800D02*
X166256400Y-144614800D01*
X184485400Y-149648700D02*
X184485400Y-145763200D01*
X163869000Y-143613400D02*
X163869000Y-144614800D01*
X161367800Y-139195000D02*
X163869000Y-141696200D01*
X159637000Y-144640000D02*
X160663600Y-143613400D01*
X167276900Y-145635300D02*
X167276900Y-148839300D01*
X185019700Y-145763200D02*
X184485400Y-145763200D01*
X152579000Y-144640000D02*
X158879000Y-144640000D01*
X182987200Y-145763200D02*
X182684000Y-145460000D01*
X163869000Y-142020000D02*
X163869000Y-143613400D01*
X168868900Y-150431300D02*
X183702800Y-150431300D01*
X158879000Y-144640000D02*
X159637000Y-144640000D01*
X166256400Y-144614800D02*
X167276900Y-145635300D01*
X163869000Y-144614800D02*
X163869000Y-145070000D01*
X183702800Y-150431300D02*
X184485400Y-149648700D01*
X184485400Y-145763200D02*
X182987200Y-145763200D01*
X160663600Y-143613400D02*
X163869000Y-143613400D01*
X167276900Y-148839300D02*
X168868900Y-150431300D01*
X182684000Y-145460000D02*
X182684000Y-142410000D01*
%TO.N,CT_PIN*%
D29*
X170279400Y-143855400D02*
X173036700Y-146612700D01*
X163906200Y-137455300D02*
X165167900Y-138717000D01*
X166610700Y-141907500D02*
X166610700Y-142146900D01*
X165167900Y-138717000D02*
X165167900Y-140464700D01*
X166610700Y-142146900D02*
X168319200Y-143855400D01*
X182676400Y-146612700D02*
X183483700Y-147420000D01*
X159909900Y-137455300D02*
X163906200Y-137455300D01*
X173036700Y-146612700D02*
X182676400Y-146612700D01*
X165167900Y-140464700D02*
X166610700Y-141907500D01*
X168319200Y-143855400D02*
X170279400Y-143855400D01*
%TD*%
%TA.AperFunction,Conductor*%
%TO.N,GND*%
G36*
X187316943Y-81019685D02*
G01*
X187326377Y-81026389D01*
X187451573Y-81124474D01*
X187462781Y-81134404D01*
X187665596Y-81337219D01*
X187675525Y-81348426D01*
X187773611Y-81473623D01*
X187799460Y-81538532D01*
X187800000Y-81550094D01*
X187800000Y-155549903D01*
X187780315Y-155616942D01*
X187773611Y-155626376D01*
X187675525Y-155751573D01*
X187665595Y-155762781D01*
X187462781Y-155965595D01*
X187451574Y-155975524D01*
X187326378Y-156073610D01*
X187261466Y-156099460D01*
X187249904Y-156100000D01*
X150158000Y-156100000D01*
X150090961Y-156080315D01*
X150045206Y-156027511D01*
X150034000Y-155976000D01*
X150034000Y-147292462D01*
X150053685Y-147225423D01*
X150106489Y-147179668D01*
X150175647Y-147169724D01*
X150239203Y-147198749D01*
X150245681Y-147204781D01*
X150581019Y-147540118D01*
X150905636Y-147864735D01*
X151031065Y-147990164D01*
X151178553Y-148088713D01*
X151226552Y-148108595D01*
X151342434Y-148156595D01*
X151498310Y-148187600D01*
X151516404Y-148191199D01*
X151516408Y-148191200D01*
X151516409Y-148191200D01*
X158616995Y-148191200D01*
X158618029Y-148191098D01*
X158630199Y-148190499D01*
X159580123Y-148190499D01*
X159580123Y-148190498D01*
X159622889Y-148187600D01*
X159807693Y-148141641D01*
X159978296Y-148057030D01*
X160126722Y-147937722D01*
X160246030Y-147789296D01*
X160330641Y-147618693D01*
X160376600Y-147433889D01*
X160379500Y-147391123D01*
X160379499Y-146488878D01*
X160376600Y-146446111D01*
X160330641Y-146261307D01*
X160249664Y-146098031D01*
X160246032Y-146090707D01*
X160246030Y-146090704D01*
X160126722Y-145942278D01*
X160126721Y-145942277D01*
X160057514Y-145886647D01*
X160017595Y-145829304D01*
X160015015Y-145759482D01*
X160050594Y-145699349D01*
X160057514Y-145693353D01*
X160080957Y-145674509D01*
X160126722Y-145637722D01*
X160161074Y-145594986D01*
X160969001Y-145594986D01*
X160979494Y-145697697D01*
X161034641Y-145864119D01*
X161034643Y-145864124D01*
X161126684Y-146013345D01*
X161250654Y-146137315D01*
X161399875Y-146229356D01*
X161399880Y-146229358D01*
X161566302Y-146284505D01*
X161566309Y-146284506D01*
X161669019Y-146294999D01*
X161718999Y-146294998D01*
X161719000Y-146294998D01*
X161719000Y-145320000D01*
X160969001Y-145320000D01*
X160969001Y-145594986D01*
X160161074Y-145594986D01*
X160246030Y-145489296D01*
X160330641Y-145318693D01*
X160355047Y-145220552D01*
X160387699Y-145162799D01*
X160762070Y-144788428D01*
X160823391Y-144754945D01*
X160893083Y-144759929D01*
X160937430Y-144788430D01*
X160969000Y-144820000D01*
X161845000Y-144820000D01*
X161912039Y-144839685D01*
X161957794Y-144892489D01*
X161969000Y-144944000D01*
X161969000Y-145070000D01*
X162095000Y-145070000D01*
X162162039Y-145089685D01*
X162207794Y-145142489D01*
X162219000Y-145194000D01*
X162219000Y-146294999D01*
X162268972Y-146294999D01*
X162268986Y-146294998D01*
X162371697Y-146284505D01*
X162538119Y-146229358D01*
X162538124Y-146229356D01*
X162687345Y-146137315D01*
X162811318Y-146013342D01*
X162813165Y-146010348D01*
X162814969Y-146008724D01*
X162815798Y-146007677D01*
X162815976Y-146007818D01*
X162865110Y-145963621D01*
X162934073Y-145952396D01*
X162998156Y-145980236D01*
X163024243Y-146010341D01*
X163026288Y-146013656D01*
X163150344Y-146137712D01*
X163299666Y-146229814D01*
X163466203Y-146284999D01*
X163568991Y-146295500D01*
X164169008Y-146295499D01*
X164169016Y-146295498D01*
X164169019Y-146295498D01*
X164225302Y-146289748D01*
X164271797Y-146284999D01*
X164438334Y-146229814D01*
X164587656Y-146137712D01*
X164711712Y-146013656D01*
X164803814Y-145864334D01*
X164858999Y-145697797D01*
X164863572Y-145653039D01*
X164866263Y-145626697D01*
X164892659Y-145562005D01*
X164949840Y-145521854D01*
X164989621Y-145515300D01*
X165832038Y-145515300D01*
X165899077Y-145534985D01*
X165919719Y-145551619D01*
X166340081Y-145971981D01*
X166373566Y-146033304D01*
X166376400Y-146059662D01*
X166376400Y-148927996D01*
X166411003Y-149101958D01*
X166411005Y-149101966D01*
X166444946Y-149183906D01*
X166444946Y-149183907D01*
X166478884Y-149265842D01*
X166478885Y-149265844D01*
X166537963Y-149354260D01*
X166537964Y-149354261D01*
X166577434Y-149413334D01*
X168294866Y-151130766D01*
X168353936Y-151170233D01*
X168353939Y-151170236D01*
X168442350Y-151229311D01*
X168442353Y-151229313D01*
X168524293Y-151263253D01*
X168606234Y-151297195D01*
X168772697Y-151330306D01*
X168780203Y-151331799D01*
X168780207Y-151331800D01*
X183797540Y-151331800D01*
X183864579Y-151351485D01*
X183910334Y-151404289D01*
X183920278Y-151473447D01*
X183891253Y-151537003D01*
X183859542Y-151563185D01*
X183796250Y-151599727D01*
X183796245Y-151599730D01*
X183609002Y-151743406D01*
X183608995Y-151743412D01*
X183442112Y-151910295D01*
X183442106Y-151910302D01*
X183298430Y-152097545D01*
X183180419Y-152301943D01*
X183180414Y-152301954D01*
X183090094Y-152520006D01*
X183029006Y-152747989D01*
X182998201Y-152981979D01*
X182998200Y-152981995D01*
X182998200Y-153218004D01*
X182998201Y-153218020D01*
X183029006Y-153452010D01*
X183090094Y-153679993D01*
X183180414Y-153898045D01*
X183180419Y-153898056D01*
X183251377Y-154020957D01*
X183298427Y-154102450D01*
X183298429Y-154102453D01*
X183298430Y-154102454D01*
X183442106Y-154289697D01*
X183442112Y-154289704D01*
X183608995Y-154456587D01*
X183609001Y-154456592D01*
X183796250Y-154600273D01*
X183927618Y-154676118D01*
X184000643Y-154718280D01*
X184000648Y-154718282D01*
X184000651Y-154718284D01*
X184218707Y-154808606D01*
X184446686Y-154869693D01*
X184680689Y-154900500D01*
X184680696Y-154900500D01*
X184916704Y-154900500D01*
X184916711Y-154900500D01*
X185150714Y-154869693D01*
X185378693Y-154808606D01*
X185596749Y-154718284D01*
X185801150Y-154600273D01*
X185988399Y-154456592D01*
X186155292Y-154289699D01*
X186298973Y-154102450D01*
X186416984Y-153898049D01*
X186507306Y-153679993D01*
X186568393Y-153452014D01*
X186599200Y-153218011D01*
X186599200Y-152981989D01*
X186568393Y-152747986D01*
X186507306Y-152520007D01*
X186416984Y-152301951D01*
X186416982Y-152301948D01*
X186416980Y-152301943D01*
X186374818Y-152228918D01*
X186298973Y-152097550D01*
X186155292Y-151910301D01*
X186155287Y-151910295D01*
X185988404Y-151743412D01*
X185988397Y-151743406D01*
X185801154Y-151599730D01*
X185801153Y-151599729D01*
X185801150Y-151599727D01*
X185692509Y-151537003D01*
X185596756Y-151481719D01*
X185596745Y-151481714D01*
X185378693Y-151391394D01*
X185150710Y-151330306D01*
X184916720Y-151299501D01*
X184916717Y-151299500D01*
X184916711Y-151299500D01*
X184680689Y-151299500D01*
X184680683Y-151299500D01*
X184680679Y-151299501D01*
X184446686Y-151330307D01*
X184446685Y-151330307D01*
X184388046Y-151346019D01*
X184318197Y-151344356D01*
X184260334Y-151305193D01*
X184232831Y-151240964D01*
X184244418Y-151172062D01*
X184273127Y-151135671D01*
X184272528Y-151135072D01*
X185184861Y-150222738D01*
X185184862Y-150222737D01*
X185184861Y-150222737D01*
X185184864Y-150222735D01*
X185221013Y-150168634D01*
X185283413Y-150075247D01*
X185312612Y-150004753D01*
X185351295Y-149911366D01*
X185385900Y-149737391D01*
X185385900Y-149560008D01*
X185385900Y-146667792D01*
X185405585Y-146600753D01*
X185442578Y-146566688D01*
X185441182Y-146564598D01*
X185554503Y-146488878D01*
X185593735Y-146462664D01*
X185719164Y-146337235D01*
X185817713Y-146189747D01*
X185885594Y-146025866D01*
X185888086Y-146013342D01*
X185912059Y-145892816D01*
X185920200Y-145851891D01*
X185920200Y-145674509D01*
X185920200Y-145674506D01*
X185920199Y-145674504D01*
X185885596Y-145500541D01*
X185885593Y-145500532D01*
X185817716Y-145336659D01*
X185817709Y-145336646D01*
X185719164Y-145189165D01*
X185719161Y-145189161D01*
X185593738Y-145063738D01*
X185593734Y-145063735D01*
X185446253Y-144965190D01*
X185446240Y-144965183D01*
X185282367Y-144897306D01*
X185282358Y-144897303D01*
X185108394Y-144862700D01*
X185108391Y-144862700D01*
X184574091Y-144862700D01*
X183773646Y-144862700D01*
X183706607Y-144843015D01*
X183660852Y-144790211D01*
X183655940Y-144777705D01*
X183654069Y-144772059D01*
X183618814Y-144665666D01*
X183615820Y-144660812D01*
X183602960Y-144639961D01*
X183584500Y-144574867D01*
X183584500Y-143295132D01*
X183602960Y-143230036D01*
X183618814Y-143204334D01*
X183673999Y-143037797D01*
X183684500Y-142935009D01*
X183684499Y-141884992D01*
X183684324Y-141883282D01*
X183673999Y-141782203D01*
X183673998Y-141782200D01*
X183655062Y-141725055D01*
X183618814Y-141615666D01*
X183526712Y-141466344D01*
X183402656Y-141342288D01*
X183253334Y-141250186D01*
X183086797Y-141195001D01*
X183086795Y-141195000D01*
X182984010Y-141184500D01*
X182383998Y-141184500D01*
X182383980Y-141184501D01*
X182281203Y-141195000D01*
X182281200Y-141195001D01*
X182114668Y-141250185D01*
X182114663Y-141250187D01*
X181965342Y-141342289D01*
X181841288Y-141466343D01*
X181841283Y-141466349D01*
X181839241Y-141469661D01*
X181837247Y-141471453D01*
X181836807Y-141472011D01*
X181836711Y-141471935D01*
X181787291Y-141516383D01*
X181718328Y-141527602D01*
X181654247Y-141499755D01*
X181628168Y-141469656D01*
X181626319Y-141466659D01*
X181626316Y-141466655D01*
X181502345Y-141342684D01*
X181353124Y-141250643D01*
X181353119Y-141250641D01*
X181186697Y-141195494D01*
X181186690Y-141195493D01*
X181083986Y-141185000D01*
X181034000Y-141185000D01*
X181034000Y-143634999D01*
X181083972Y-143634999D01*
X181083986Y-143634998D01*
X181186697Y-143624505D01*
X181353119Y-143569358D01*
X181353124Y-143569356D01*
X181502345Y-143477315D01*
X181571819Y-143407842D01*
X181633142Y-143374357D01*
X181702834Y-143379341D01*
X181758767Y-143421213D01*
X181783184Y-143486677D01*
X181783500Y-143495523D01*
X181783500Y-144374477D01*
X181763815Y-144441516D01*
X181711011Y-144487271D01*
X181641853Y-144497215D01*
X181578297Y-144468190D01*
X181571819Y-144462158D01*
X181502345Y-144392684D01*
X181353124Y-144300643D01*
X181353119Y-144300641D01*
X181186697Y-144245494D01*
X181186690Y-144245493D01*
X181083986Y-144235000D01*
X181034000Y-144235000D01*
X181034000Y-145336000D01*
X181014315Y-145403039D01*
X180961511Y-145448794D01*
X180910000Y-145460000D01*
X180784000Y-145460000D01*
X180784000Y-145586000D01*
X180764315Y-145653039D01*
X180711511Y-145698794D01*
X180660000Y-145710000D01*
X179784001Y-145710000D01*
X179784001Y-145863200D01*
X179764316Y-145930239D01*
X179711512Y-145975994D01*
X179660001Y-145987200D01*
X179133500Y-145987200D01*
X179066461Y-145967515D01*
X179020706Y-145914711D01*
X179009500Y-145863200D01*
X179009499Y-144989998D01*
X179009499Y-144989996D01*
X179009499Y-144989992D01*
X179007683Y-144972219D01*
X179004849Y-144944464D01*
X179003883Y-144935013D01*
X179784000Y-144935013D01*
X179784000Y-145210000D01*
X180534000Y-145210000D01*
X180534000Y-144235000D01*
X180533999Y-144234999D01*
X180484029Y-144235000D01*
X180484011Y-144235001D01*
X180381302Y-144245494D01*
X180214880Y-144300641D01*
X180214875Y-144300643D01*
X180065654Y-144392684D01*
X179941684Y-144516654D01*
X179849643Y-144665875D01*
X179849641Y-144665880D01*
X179794494Y-144832302D01*
X179794493Y-144832309D01*
X179784000Y-144935013D01*
X179003883Y-144935013D01*
X179002222Y-144918763D01*
X178998999Y-144887203D01*
X178943814Y-144720666D01*
X178851712Y-144571344D01*
X178727656Y-144447288D01*
X178578334Y-144355186D01*
X178411797Y-144300001D01*
X178411795Y-144300000D01*
X178309010Y-144289500D01*
X177683998Y-144289500D01*
X177683980Y-144289501D01*
X177581203Y-144300000D01*
X177581200Y-144300001D01*
X177414668Y-144355185D01*
X177414663Y-144355187D01*
X177265342Y-144447289D01*
X177171681Y-144540951D01*
X177110358Y-144574436D01*
X177040666Y-144569452D01*
X176996319Y-144540951D01*
X176902657Y-144447289D01*
X176902656Y-144447288D01*
X176753334Y-144355186D01*
X176586797Y-144300001D01*
X176586795Y-144300000D01*
X176484010Y-144289500D01*
X175858998Y-144289500D01*
X175858980Y-144289501D01*
X175756203Y-144300000D01*
X175756200Y-144300001D01*
X175589668Y-144355185D01*
X175589663Y-144355187D01*
X175440342Y-144447289D01*
X175316289Y-144571342D01*
X175224187Y-144720663D01*
X175224185Y-144720668D01*
X175207156Y-144772059D01*
X175169001Y-144887203D01*
X175169001Y-144887204D01*
X175169000Y-144887204D01*
X175158500Y-144989983D01*
X175158500Y-144989991D01*
X175158500Y-145460000D01*
X175158501Y-145863200D01*
X175138817Y-145930239D01*
X175086013Y-145975994D01*
X175034501Y-145987200D01*
X174818310Y-145987200D01*
X174751271Y-145967515D01*
X174705516Y-145914711D01*
X174695572Y-145845553D01*
X174707825Y-145806905D01*
X174733237Y-145757030D01*
X174760557Y-145703412D01*
X174826246Y-145501243D01*
X174859500Y-145291287D01*
X174859500Y-145078713D01*
X174826246Y-144868757D01*
X174760557Y-144666588D01*
X174664051Y-144477184D01*
X174664049Y-144477181D01*
X174664048Y-144477179D01*
X174539109Y-144305213D01*
X174388786Y-144154890D01*
X174216820Y-144029951D01*
X174216115Y-144029591D01*
X174208054Y-144025485D01*
X174157259Y-143977512D01*
X174140463Y-143909692D01*
X174162999Y-143843556D01*
X174208054Y-143804515D01*
X174216816Y-143800051D01*
X174238789Y-143784086D01*
X174388786Y-143675109D01*
X174388788Y-143675106D01*
X174388792Y-143675104D01*
X174539104Y-143524792D01*
X174539106Y-143524788D01*
X174539109Y-143524786D01*
X174664048Y-143352820D01*
X174664047Y-143352820D01*
X174664051Y-143352816D01*
X174760557Y-143163412D01*
X174826246Y-142961243D01*
X174859500Y-142751287D01*
X174859500Y-142538713D01*
X174826246Y-142328757D01*
X174760557Y-142126588D01*
X174664051Y-141937184D01*
X174664049Y-141937181D01*
X174664048Y-141937179D01*
X174539109Y-141765213D01*
X174388786Y-141614890D01*
X174216820Y-141489951D01*
X174208600Y-141485763D01*
X174208054Y-141485485D01*
X174157259Y-141437512D01*
X174140463Y-141369692D01*
X174162999Y-141303556D01*
X174208054Y-141264515D01*
X174216816Y-141260051D01*
X174249931Y-141235992D01*
X174388786Y-141135109D01*
X174388788Y-141135106D01*
X174388792Y-141135104D01*
X174539104Y-140984792D01*
X174539106Y-140984788D01*
X174539109Y-140984786D01*
X174664048Y-140812820D01*
X174664047Y-140812820D01*
X174664051Y-140812816D01*
X174760557Y-140623412D01*
X174826246Y-140421243D01*
X174859500Y-140211287D01*
X174859500Y-139998713D01*
X174826246Y-139788757D01*
X174760557Y-139586588D01*
X174664051Y-139397184D01*
X174664049Y-139397181D01*
X174664048Y-139397179D01*
X174539109Y-139225213D01*
X174425569Y-139111673D01*
X174392084Y-139050350D01*
X174397068Y-138980658D01*
X174438940Y-138924725D01*
X174469915Y-138907810D01*
X174601331Y-138858796D01*
X174716546Y-138772546D01*
X174802796Y-138657331D01*
X174853091Y-138522483D01*
X174859500Y-138462873D01*
X174859499Y-136667135D01*
X176788500Y-136667135D01*
X176788500Y-138462870D01*
X176788501Y-138462876D01*
X176794908Y-138522483D01*
X176845202Y-138657328D01*
X176845206Y-138657335D01*
X176931452Y-138772544D01*
X176931455Y-138772547D01*
X177046664Y-138858793D01*
X177046671Y-138858797D01*
X177178082Y-138907810D01*
X177234016Y-138949681D01*
X177258433Y-139015145D01*
X177243582Y-139083418D01*
X177222431Y-139111673D01*
X177108889Y-139225215D01*
X176983951Y-139397179D01*
X176887444Y-139586585D01*
X176821753Y-139788760D01*
X176800821Y-139920921D01*
X176788500Y-139998713D01*
X176788500Y-140211287D01*
X176793353Y-140241928D01*
X176821313Y-140418462D01*
X176821754Y-140421243D01*
X176851441Y-140512611D01*
X176887444Y-140623414D01*
X176983951Y-140812820D01*
X177108890Y-140984786D01*
X177259213Y-141135109D01*
X177431179Y-141260048D01*
X177431181Y-141260049D01*
X177431184Y-141260051D01*
X177440493Y-141264794D01*
X177491290Y-141312766D01*
X177508087Y-141380587D01*
X177485552Y-141446722D01*
X177440505Y-141485760D01*
X177431446Y-141490376D01*
X177431440Y-141490380D01*
X177377282Y-141529727D01*
X177377282Y-141529728D01*
X178009591Y-142162037D01*
X177946007Y-142179075D01*
X177831993Y-142244901D01*
X177738901Y-142337993D01*
X177673075Y-142452007D01*
X177656037Y-142515591D01*
X177023728Y-141883282D01*
X177023727Y-141883282D01*
X176984380Y-141937439D01*
X176887904Y-142126782D01*
X176822242Y-142328869D01*
X176822242Y-142328872D01*
X176789000Y-142538753D01*
X176789000Y-142751246D01*
X176822242Y-142961127D01*
X176822242Y-142961130D01*
X176887904Y-143163217D01*
X176984375Y-143352550D01*
X177023728Y-143406716D01*
X177656037Y-142774408D01*
X177673075Y-142837993D01*
X177738901Y-142952007D01*
X177831993Y-143045099D01*
X177946007Y-143110925D01*
X178009590Y-143127962D01*
X177377282Y-143760269D01*
X177377282Y-143760270D01*
X177431449Y-143799624D01*
X177620782Y-143896095D01*
X177822870Y-143961757D01*
X178032754Y-143995000D01*
X178245246Y-143995000D01*
X178455127Y-143961757D01*
X178455130Y-143961757D01*
X178657217Y-143896095D01*
X178846554Y-143799622D01*
X178900716Y-143760270D01*
X178900717Y-143760270D01*
X178268408Y-143127962D01*
X178331993Y-143110925D01*
X178446007Y-143045099D01*
X178539099Y-142952007D01*
X178604925Y-142837993D01*
X178621962Y-142774408D01*
X179254270Y-143406717D01*
X179254270Y-143406716D01*
X179293622Y-143352554D01*
X179390095Y-143163217D01*
X179455757Y-142961130D01*
X179455757Y-142961127D01*
X179459897Y-142934986D01*
X179784001Y-142934986D01*
X179794494Y-143037697D01*
X179849641Y-143204119D01*
X179849643Y-143204124D01*
X179941684Y-143353345D01*
X180065654Y-143477315D01*
X180214875Y-143569356D01*
X180214880Y-143569358D01*
X180381302Y-143624505D01*
X180381309Y-143624506D01*
X180484019Y-143634999D01*
X180533999Y-143634998D01*
X180534000Y-143634998D01*
X180534000Y-142660000D01*
X179784001Y-142660000D01*
X179784001Y-142934986D01*
X179459897Y-142934986D01*
X179489000Y-142751246D01*
X179489000Y-142538753D01*
X179455757Y-142328872D01*
X179455757Y-142328869D01*
X179390095Y-142126782D01*
X179293986Y-141938159D01*
X179293985Y-141938156D01*
X179293626Y-141937451D01*
X179255528Y-141885013D01*
X179784000Y-141885013D01*
X179784000Y-142160000D01*
X180534000Y-142160000D01*
X180534000Y-141185000D01*
X180533999Y-141184999D01*
X180484029Y-141185000D01*
X180484011Y-141185001D01*
X180381302Y-141195494D01*
X180214880Y-141250641D01*
X180214875Y-141250643D01*
X180065654Y-141342684D01*
X179941684Y-141466654D01*
X179849643Y-141615875D01*
X179849641Y-141615880D01*
X179794494Y-141782302D01*
X179794493Y-141782309D01*
X179784000Y-141885013D01*
X179255528Y-141885013D01*
X179254270Y-141883282D01*
X179254269Y-141883282D01*
X178621962Y-142515590D01*
X178604925Y-142452007D01*
X178539099Y-142337993D01*
X178446007Y-142244901D01*
X178331993Y-142179075D01*
X178268409Y-142162037D01*
X178900716Y-141529728D01*
X178846547Y-141490373D01*
X178846547Y-141490372D01*
X178837500Y-141485763D01*
X178786706Y-141437788D01*
X178769912Y-141369966D01*
X178792451Y-141303832D01*
X178837508Y-141264793D01*
X178846816Y-141260051D01*
X178950117Y-141184999D01*
X179018786Y-141135109D01*
X179018788Y-141135106D01*
X179018792Y-141135104D01*
X179169104Y-140984792D01*
X179169106Y-140984788D01*
X179169109Y-140984786D01*
X179294048Y-140812820D01*
X179294047Y-140812820D01*
X179294051Y-140812816D01*
X179390557Y-140623412D01*
X179456246Y-140421243D01*
X179489500Y-140211287D01*
X179489500Y-139998713D01*
X179456246Y-139788757D01*
X179390557Y-139586588D01*
X179390555Y-139586585D01*
X179390555Y-139586583D01*
X179337705Y-139482861D01*
X179294051Y-139397184D01*
X179294049Y-139397181D01*
X179294048Y-139397179D01*
X179169109Y-139225213D01*
X179055569Y-139111673D01*
X179022084Y-139050350D01*
X179027068Y-138980658D01*
X179068940Y-138924725D01*
X179099915Y-138907810D01*
X179231331Y-138858796D01*
X179346546Y-138772546D01*
X179432796Y-138657331D01*
X179483091Y-138522483D01*
X179489500Y-138462873D01*
X179489499Y-136834777D01*
X181808500Y-136834777D01*
X181808500Y-137055221D01*
X181842985Y-137272952D01*
X181911103Y-137482603D01*
X181911104Y-137482606D01*
X182011187Y-137679025D01*
X182140752Y-137857358D01*
X182140756Y-137857363D01*
X182191316Y-137907923D01*
X182224801Y-137969246D01*
X182219817Y-138038938D01*
X182177945Y-138094871D01*
X182146969Y-138111785D01*
X182066918Y-138141643D01*
X182066906Y-138141649D01*
X181951812Y-138227809D01*
X181951809Y-138227812D01*
X181865649Y-138342906D01*
X181865645Y-138342913D01*
X181815403Y-138477620D01*
X181815401Y-138477627D01*
X181809000Y-138537155D01*
X181809000Y-139235000D01*
X182833722Y-139235000D01*
X182789667Y-139311306D01*
X182759000Y-139425756D01*
X182759000Y-139544244D01*
X182789667Y-139658694D01*
X182833722Y-139735000D01*
X181809000Y-139735000D01*
X181809000Y-140432844D01*
X181815401Y-140492372D01*
X181815403Y-140492379D01*
X181865645Y-140627086D01*
X181865649Y-140627093D01*
X181951809Y-140742187D01*
X181951812Y-140742190D01*
X182066906Y-140828350D01*
X182066913Y-140828354D01*
X182201620Y-140878596D01*
X182201627Y-140878598D01*
X182261155Y-140884999D01*
X182261172Y-140885000D01*
X182959000Y-140885000D01*
X182959000Y-139860277D01*
X183035306Y-139904333D01*
X183149756Y-139935000D01*
X183268244Y-139935000D01*
X183382694Y-139904333D01*
X183459000Y-139860277D01*
X183459000Y-140885000D01*
X184156828Y-140885000D01*
X184156844Y-140884999D01*
X184216372Y-140878598D01*
X184216379Y-140878596D01*
X184351086Y-140828354D01*
X184351093Y-140828350D01*
X184466187Y-140742190D01*
X184466190Y-140742187D01*
X184552350Y-140627093D01*
X184552354Y-140627086D01*
X184602596Y-140492379D01*
X184602598Y-140492372D01*
X184608999Y-140432844D01*
X184609000Y-140432827D01*
X184609000Y-139735000D01*
X183584278Y-139735000D01*
X183628333Y-139658694D01*
X183659000Y-139544244D01*
X183659000Y-139425756D01*
X183628333Y-139311306D01*
X183584278Y-139235000D01*
X184609000Y-139235000D01*
X184609000Y-138537172D01*
X184608999Y-138537155D01*
X184602598Y-138477627D01*
X184602596Y-138477620D01*
X184552354Y-138342913D01*
X184552350Y-138342906D01*
X184466190Y-138227812D01*
X184466187Y-138227809D01*
X184351093Y-138141649D01*
X184351087Y-138141646D01*
X184271030Y-138111786D01*
X184215097Y-138069914D01*
X184190680Y-138004450D01*
X184205532Y-137936177D01*
X184226681Y-137907925D01*
X184277242Y-137857365D01*
X184406815Y-137679022D01*
X184506895Y-137482606D01*
X184575015Y-137272951D01*
X184609500Y-137055222D01*
X184609500Y-136834778D01*
X184575015Y-136617049D01*
X184540955Y-136512221D01*
X184506896Y-136407396D01*
X184506895Y-136407393D01*
X184437503Y-136271206D01*
X184406815Y-136210978D01*
X184390260Y-136188192D01*
X184277247Y-136032641D01*
X184277243Y-136032636D01*
X184121363Y-135876756D01*
X184121358Y-135876752D01*
X183943025Y-135747187D01*
X183943024Y-135747186D01*
X183943022Y-135747185D01*
X183880096Y-135715122D01*
X183746606Y-135647104D01*
X183746603Y-135647103D01*
X183536952Y-135578985D01*
X183428086Y-135561742D01*
X183319222Y-135544500D01*
X183098778Y-135544500D01*
X183026201Y-135555995D01*
X182881047Y-135578985D01*
X182671396Y-135647103D01*
X182671393Y-135647104D01*
X182474974Y-135747187D01*
X182296641Y-135876752D01*
X182296636Y-135876756D01*
X182140756Y-136032636D01*
X182140752Y-136032641D01*
X182011187Y-136210974D01*
X181911104Y-136407393D01*
X181911103Y-136407396D01*
X181842985Y-136617047D01*
X181808500Y-136834777D01*
X179489499Y-136834777D01*
X179489499Y-136667128D01*
X179483091Y-136607517D01*
X179432796Y-136472669D01*
X179432795Y-136472668D01*
X179432793Y-136472664D01*
X179346547Y-136357455D01*
X179346544Y-136357452D01*
X179231335Y-136271206D01*
X179231328Y-136271202D01*
X179096482Y-136220908D01*
X179096483Y-136220908D01*
X179036883Y-136214501D01*
X179036881Y-136214500D01*
X179036873Y-136214500D01*
X179036864Y-136214500D01*
X177241129Y-136214500D01*
X177241123Y-136214501D01*
X177181516Y-136220908D01*
X177046671Y-136271202D01*
X177046664Y-136271206D01*
X176931455Y-136357452D01*
X176931452Y-136357455D01*
X176845206Y-136472664D01*
X176845202Y-136472671D01*
X176794908Y-136607517D01*
X176789825Y-136654800D01*
X176788501Y-136667123D01*
X176788500Y-136667135D01*
X174859499Y-136667135D01*
X174859499Y-136667128D01*
X174853091Y-136607517D01*
X174802796Y-136472669D01*
X174802795Y-136472668D01*
X174802793Y-136472664D01*
X174716547Y-136357455D01*
X174716544Y-136357452D01*
X174601335Y-136271206D01*
X174601328Y-136271202D01*
X174466482Y-136220908D01*
X174466483Y-136220908D01*
X174406883Y-136214501D01*
X174406881Y-136214500D01*
X174406873Y-136214500D01*
X174406864Y-136214500D01*
X172611129Y-136214500D01*
X172611123Y-136214501D01*
X172551516Y-136220908D01*
X172416671Y-136271202D01*
X172416664Y-136271206D01*
X172301455Y-136357452D01*
X172301452Y-136357455D01*
X172215206Y-136472664D01*
X172215202Y-136472671D01*
X172164908Y-136607517D01*
X172159825Y-136654800D01*
X172158501Y-136667123D01*
X172158500Y-136667135D01*
X172158500Y-138462870D01*
X172158501Y-138462876D01*
X172164908Y-138522483D01*
X172215202Y-138657328D01*
X172215206Y-138657335D01*
X172301452Y-138772544D01*
X172301455Y-138772547D01*
X172416664Y-138858793D01*
X172416671Y-138858797D01*
X172548082Y-138907810D01*
X172604016Y-138949681D01*
X172628433Y-139015145D01*
X172613582Y-139083418D01*
X172592431Y-139111673D01*
X172478889Y-139225215D01*
X172353951Y-139397179D01*
X172257444Y-139586585D01*
X172191753Y-139788760D01*
X172170821Y-139920921D01*
X172158500Y-139998713D01*
X172158500Y-140211287D01*
X172163353Y-140241928D01*
X172191313Y-140418462D01*
X172191754Y-140421243D01*
X172221441Y-140512611D01*
X172257444Y-140623414D01*
X172353951Y-140812820D01*
X172478890Y-140984786D01*
X172629213Y-141135109D01*
X172801182Y-141260050D01*
X172809946Y-141264516D01*
X172860742Y-141312491D01*
X172877536Y-141380312D01*
X172854998Y-141446447D01*
X172809946Y-141485484D01*
X172801182Y-141489949D01*
X172629213Y-141614890D01*
X172478890Y-141765213D01*
X172353951Y-141937179D01*
X172257444Y-142126585D01*
X172191753Y-142328760D01*
X172158500Y-142538713D01*
X172158500Y-142751286D01*
X172191753Y-142961239D01*
X172191753Y-142961241D01*
X172191754Y-142961243D01*
X172233022Y-143088253D01*
X172257444Y-143163414D01*
X172353951Y-143352820D01*
X172478890Y-143524786D01*
X172629213Y-143675109D01*
X172801182Y-143800050D01*
X172809946Y-143804516D01*
X172860742Y-143852491D01*
X172877536Y-143920312D01*
X172854998Y-143986447D01*
X172809946Y-144025484D01*
X172801182Y-144029949D01*
X172629213Y-144154890D01*
X172478890Y-144305213D01*
X172353951Y-144477179D01*
X172257444Y-144666584D01*
X172250749Y-144687189D01*
X172211309Y-144744863D01*
X172146950Y-144772059D01*
X172078104Y-144760143D01*
X172045138Y-144736548D01*
X170769598Y-143461008D01*
X170769578Y-143460986D01*
X170678133Y-143369541D01*
X170626909Y-143335315D01*
X170575687Y-143301089D01*
X170575686Y-143301088D01*
X170575683Y-143301086D01*
X170575680Y-143301085D01*
X170495192Y-143267747D01*
X170461853Y-143253937D01*
X170451827Y-143251943D01*
X170401429Y-143241918D01*
X170341010Y-143229900D01*
X170341007Y-143229900D01*
X170341006Y-143229900D01*
X170279625Y-143229900D01*
X170212586Y-143210215D01*
X170166831Y-143157411D01*
X170156887Y-143088253D01*
X170161694Y-143067582D01*
X170171372Y-143037797D01*
X170196246Y-142961243D01*
X170229500Y-142751287D01*
X170229500Y-142538713D01*
X170196246Y-142328757D01*
X170130557Y-142126588D01*
X170034051Y-141937184D01*
X170034049Y-141937181D01*
X170034048Y-141937179D01*
X169909109Y-141765213D01*
X169758786Y-141614890D01*
X169586820Y-141489951D01*
X169578600Y-141485763D01*
X169578054Y-141485485D01*
X169527259Y-141437512D01*
X169510463Y-141369692D01*
X169532999Y-141303556D01*
X169578054Y-141264515D01*
X169586816Y-141260051D01*
X169619931Y-141235992D01*
X169758786Y-141135109D01*
X169758788Y-141135106D01*
X169758792Y-141135104D01*
X169909104Y-140984792D01*
X169909106Y-140984788D01*
X169909109Y-140984786D01*
X170034048Y-140812820D01*
X170034047Y-140812820D01*
X170034051Y-140812816D01*
X170130557Y-140623412D01*
X170196246Y-140421243D01*
X170229500Y-140211287D01*
X170229500Y-139998713D01*
X170196246Y-139788757D01*
X170130557Y-139586588D01*
X170034051Y-139397184D01*
X170034049Y-139397181D01*
X170034048Y-139397179D01*
X169909109Y-139225213D01*
X169795569Y-139111673D01*
X169762084Y-139050350D01*
X169767068Y-138980658D01*
X169808940Y-138924725D01*
X169839915Y-138907810D01*
X169971331Y-138858796D01*
X170086546Y-138772546D01*
X170172796Y-138657331D01*
X170223091Y-138522483D01*
X170229500Y-138462873D01*
X170229499Y-136667128D01*
X170223091Y-136607517D01*
X170172796Y-136472669D01*
X170172795Y-136472668D01*
X170172793Y-136472664D01*
X170086547Y-136357455D01*
X170086544Y-136357452D01*
X169971335Y-136271206D01*
X169971328Y-136271202D01*
X169836482Y-136220908D01*
X169836483Y-136220908D01*
X169776883Y-136214501D01*
X169776881Y-136214500D01*
X169776873Y-136214500D01*
X169776864Y-136214500D01*
X167981129Y-136214500D01*
X167981123Y-136214501D01*
X167921516Y-136220908D01*
X167786671Y-136271202D01*
X167786664Y-136271206D01*
X167671455Y-136357452D01*
X167671452Y-136357455D01*
X167585206Y-136472664D01*
X167585202Y-136472671D01*
X167534908Y-136607517D01*
X167529825Y-136654800D01*
X167528501Y-136667123D01*
X167528500Y-136667135D01*
X167528500Y-138462870D01*
X167528501Y-138462876D01*
X167534908Y-138522483D01*
X167585202Y-138657328D01*
X167585206Y-138657335D01*
X167671452Y-138772544D01*
X167671455Y-138772547D01*
X167786664Y-138858793D01*
X167786671Y-138858797D01*
X167918082Y-138907810D01*
X167974016Y-138949681D01*
X167998433Y-139015145D01*
X167983582Y-139083418D01*
X167962431Y-139111673D01*
X167848889Y-139225215D01*
X167723951Y-139397179D01*
X167627444Y-139586585D01*
X167561753Y-139788760D01*
X167540821Y-139920921D01*
X167528500Y-139998713D01*
X167528500Y-140211287D01*
X167533353Y-140241928D01*
X167561313Y-140418462D01*
X167561754Y-140421243D01*
X167591441Y-140512611D01*
X167627444Y-140623414D01*
X167723951Y-140812820D01*
X167848890Y-140984786D01*
X167999213Y-141135109D01*
X168171182Y-141260050D01*
X168179946Y-141264516D01*
X168230742Y-141312491D01*
X168247536Y-141380312D01*
X168224998Y-141446447D01*
X168179946Y-141485484D01*
X168171182Y-141489949D01*
X167999213Y-141614890D01*
X167848890Y-141765213D01*
X167723949Y-141937182D01*
X167653461Y-142075521D01*
X167605487Y-142126316D01*
X167537665Y-142143111D01*
X167471531Y-142120573D01*
X167455296Y-142106906D01*
X167272152Y-141923762D01*
X167238667Y-141862439D01*
X167236429Y-141848226D01*
X167236200Y-141845903D01*
X167236200Y-141845894D01*
X167212163Y-141725048D01*
X167165011Y-141611214D01*
X167165010Y-141611213D01*
X167165007Y-141611207D01*
X167096559Y-141508768D01*
X167054133Y-141466342D01*
X167009433Y-141421642D01*
X167009432Y-141421641D01*
X165829719Y-140241928D01*
X165796234Y-140180605D01*
X165793400Y-140154247D01*
X165793400Y-138655393D01*
X165793399Y-138655389D01*
X165769363Y-138534548D01*
X165722211Y-138420714D01*
X165722210Y-138420713D01*
X165722207Y-138420707D01*
X165653758Y-138318267D01*
X165653755Y-138318263D01*
X165563537Y-138228045D01*
X165563506Y-138228016D01*
X164396398Y-137060908D01*
X164396378Y-137060886D01*
X164304933Y-136969441D01*
X164253709Y-136935215D01*
X164202487Y-136900989D01*
X164202486Y-136900988D01*
X164202483Y-136900986D01*
X164202480Y-136900985D01*
X164121992Y-136867647D01*
X164088654Y-136853838D01*
X164088655Y-136853838D01*
X164088652Y-136853837D01*
X164088648Y-136853836D01*
X164088644Y-136853835D01*
X163992833Y-136834777D01*
X163992830Y-136834777D01*
X163967809Y-136829800D01*
X163967807Y-136829800D01*
X163967806Y-136829800D01*
X160452250Y-136829800D01*
X160385211Y-136810115D01*
X160383359Y-136808902D01*
X160289084Y-136745909D01*
X160289072Y-136745902D01*
X160143401Y-136685564D01*
X160143389Y-136685561D01*
X159988745Y-136654800D01*
X159988742Y-136654800D01*
X159831058Y-136654800D01*
X159831055Y-136654800D01*
X159676410Y-136685561D01*
X159676398Y-136685564D01*
X159530727Y-136745902D01*
X159530714Y-136745909D01*
X159399611Y-136833510D01*
X159399607Y-136833513D01*
X159288113Y-136945007D01*
X159288110Y-136945011D01*
X159200509Y-137076114D01*
X159200502Y-137076127D01*
X159140164Y-137221798D01*
X159140161Y-137221810D01*
X159109400Y-137376453D01*
X159109400Y-137534146D01*
X159140161Y-137688789D01*
X159140164Y-137688801D01*
X159200502Y-137834472D01*
X159200509Y-137834485D01*
X159288110Y-137965588D01*
X159288113Y-137965592D01*
X159399607Y-138077086D01*
X159399611Y-138077089D01*
X159530714Y-138164690D01*
X159530727Y-138164697D01*
X159622003Y-138202504D01*
X159676403Y-138225037D01*
X159766181Y-138242895D01*
X159831053Y-138255799D01*
X159831056Y-138255800D01*
X159984417Y-138255800D01*
X160051456Y-138275485D01*
X160097211Y-138328289D01*
X160107155Y-138397447D01*
X160102123Y-138418803D01*
X160077801Y-138492200D01*
X160077800Y-138492204D01*
X160067300Y-138594983D01*
X160067300Y-139795001D01*
X160067301Y-139795018D01*
X160077800Y-139897796D01*
X160077801Y-139897799D01*
X160093481Y-139945116D01*
X160132986Y-140064334D01*
X160225088Y-140213656D01*
X160349144Y-140337712D01*
X160498466Y-140429814D01*
X160665003Y-140484999D01*
X160767791Y-140495500D01*
X161343437Y-140495499D01*
X161410476Y-140515183D01*
X161431118Y-140531818D01*
X161528172Y-140628872D01*
X161561657Y-140690195D01*
X161556673Y-140759887D01*
X161514801Y-140815820D01*
X161479496Y-140834259D01*
X161399878Y-140860642D01*
X161399875Y-140860643D01*
X161250654Y-140952684D01*
X161126684Y-141076654D01*
X161034643Y-141225875D01*
X161034641Y-141225880D01*
X160979494Y-141392302D01*
X160979493Y-141392309D01*
X160969000Y-141495013D01*
X160969000Y-141770000D01*
X161845000Y-141770000D01*
X161912039Y-141789685D01*
X161957794Y-141842489D01*
X161969000Y-141894000D01*
X161969000Y-142146000D01*
X161949315Y-142213039D01*
X161896511Y-142258794D01*
X161845000Y-142270000D01*
X160969001Y-142270000D01*
X160969001Y-142544971D01*
X160969002Y-142544991D01*
X160972200Y-142576300D01*
X160959430Y-142644992D01*
X160911549Y-142695876D01*
X160848842Y-142712900D01*
X160574904Y-142712900D01*
X160527191Y-142722391D01*
X160457599Y-142716164D01*
X160402422Y-142673300D01*
X160379178Y-142607411D01*
X160379000Y-142600774D01*
X160379000Y-142590000D01*
X157379000Y-142590000D01*
X157379000Y-142791096D01*
X157381897Y-142833824D01*
X157427831Y-143018523D01*
X157512390Y-143189022D01*
X157512392Y-143189025D01*
X157631630Y-143337364D01*
X157700884Y-143393031D01*
X157740803Y-143450375D01*
X157743383Y-143520197D01*
X157707805Y-143580329D01*
X157700885Y-143586326D01*
X157665678Y-143614625D01*
X157640334Y-143634999D01*
X157631276Y-143642280D01*
X157590356Y-143693187D01*
X157533013Y-143733106D01*
X157493709Y-143739500D01*
X154203499Y-143739500D01*
X154136460Y-143719815D01*
X154090705Y-143667011D01*
X154079499Y-143615500D01*
X154079499Y-143181971D01*
X154079499Y-143181964D01*
X154068886Y-143062582D01*
X154012909Y-142866951D01*
X153918698Y-142686593D01*
X153839937Y-142590000D01*
X153790109Y-142528890D01*
X153632409Y-142400304D01*
X153632410Y-142400304D01*
X153632407Y-142400302D01*
X153452049Y-142306091D01*
X153452048Y-142306090D01*
X153452045Y-142306089D01*
X153334829Y-142272550D01*
X153256418Y-142250114D01*
X153256415Y-142250113D01*
X153256413Y-142250113D01*
X153190102Y-142244217D01*
X153137037Y-142239500D01*
X153137032Y-142239500D01*
X152020971Y-142239500D01*
X152020958Y-142239501D01*
X152016228Y-142239922D01*
X151947710Y-142226250D01*
X151897460Y-142177704D01*
X151881433Y-142109697D01*
X151904717Y-142043821D01*
X151917564Y-142028733D01*
X152057394Y-141888903D01*
X157379000Y-141888903D01*
X157379000Y-142090000D01*
X158629000Y-142090000D01*
X159129000Y-142090000D01*
X160379000Y-142090000D01*
X160379000Y-141888903D01*
X160376102Y-141846175D01*
X160330168Y-141661476D01*
X160245609Y-141490977D01*
X160245607Y-141490974D01*
X160126367Y-141342633D01*
X160126366Y-141342632D01*
X159978025Y-141223392D01*
X159978022Y-141223390D01*
X159807523Y-141138831D01*
X159622824Y-141092897D01*
X159580097Y-141090000D01*
X159129000Y-141090000D01*
X159129000Y-142090000D01*
X158629000Y-142090000D01*
X158629000Y-141090000D01*
X158177903Y-141090000D01*
X158135175Y-141092897D01*
X157950476Y-141138831D01*
X157779977Y-141223390D01*
X157779974Y-141223392D01*
X157631633Y-141342632D01*
X157631632Y-141342633D01*
X157512392Y-141490974D01*
X157512390Y-141490977D01*
X157427831Y-141661476D01*
X157381897Y-141846175D01*
X157379000Y-141888903D01*
X152057394Y-141888903D01*
X153414480Y-140531817D01*
X153475803Y-140498333D01*
X153502161Y-140495499D01*
X154077802Y-140495499D01*
X154077808Y-140495499D01*
X154180597Y-140484999D01*
X154347134Y-140429814D01*
X154496456Y-140337712D01*
X154620512Y-140213656D01*
X154712614Y-140064334D01*
X154735902Y-139994054D01*
X154739910Y-139986050D01*
X154757860Y-139966772D01*
X154772855Y-139945116D01*
X154781295Y-139941606D01*
X154787525Y-139934917D01*
X154813049Y-139928404D01*
X154837371Y-139918292D01*
X154853634Y-139918048D01*
X154855225Y-139917643D01*
X154856323Y-139918008D01*
X154860519Y-139917946D01*
X154898325Y-139920921D01*
X155577800Y-139241446D01*
X155577800Y-139247661D01*
X155605059Y-139349394D01*
X155657720Y-139440606D01*
X155732194Y-139515080D01*
X155823406Y-139567741D01*
X155925139Y-139595000D01*
X155931353Y-139595000D01*
X155251876Y-140274474D01*
X155296450Y-140306859D01*
X155478768Y-140399755D01*
X155673382Y-140462990D01*
X155875483Y-140495000D01*
X156080117Y-140495000D01*
X156282217Y-140462990D01*
X156476831Y-140399755D01*
X156659149Y-140306859D01*
X156703721Y-140274474D01*
X156024247Y-139595000D01*
X156030461Y-139595000D01*
X156132194Y-139567741D01*
X156223406Y-139515080D01*
X156297880Y-139440606D01*
X156350541Y-139349394D01*
X156377800Y-139247661D01*
X156377800Y-139241447D01*
X157057274Y-139920921D01*
X157089659Y-139876349D01*
X157182555Y-139694031D01*
X157245790Y-139499417D01*
X157277800Y-139297317D01*
X157277800Y-139092682D01*
X157245790Y-138890582D01*
X157182555Y-138695968D01*
X157089659Y-138513650D01*
X157057274Y-138469077D01*
X157057274Y-138469076D01*
X156377800Y-139148551D01*
X156377800Y-139142339D01*
X156350541Y-139040606D01*
X156297880Y-138949394D01*
X156223406Y-138874920D01*
X156132194Y-138822259D01*
X156030461Y-138795000D01*
X156024246Y-138795000D01*
X156703722Y-138115524D01*
X156703721Y-138115523D01*
X156659159Y-138083147D01*
X156659150Y-138083141D01*
X156476831Y-137990244D01*
X156282217Y-137927009D01*
X156080117Y-137895000D01*
X155875483Y-137895000D01*
X155673382Y-137927009D01*
X155478768Y-137990244D01*
X155296444Y-138083143D01*
X155251877Y-138115523D01*
X155251877Y-138115524D01*
X155931354Y-138795000D01*
X155925139Y-138795000D01*
X155823406Y-138822259D01*
X155732194Y-138874920D01*
X155657720Y-138949394D01*
X155605059Y-139040606D01*
X155577800Y-139142339D01*
X155577800Y-139148553D01*
X154898324Y-138469077D01*
X154860519Y-138472053D01*
X154792141Y-138457689D01*
X154742384Y-138408638D01*
X154739910Y-138403949D01*
X154735901Y-138395942D01*
X154712614Y-138325666D01*
X154620512Y-138176344D01*
X154496456Y-138052288D01*
X154347134Y-137960186D01*
X154180597Y-137905001D01*
X154180595Y-137905000D01*
X154077810Y-137894500D01*
X152877798Y-137894500D01*
X152877781Y-137894501D01*
X152775003Y-137905000D01*
X152775000Y-137905001D01*
X152608468Y-137960185D01*
X152608463Y-137960187D01*
X152459142Y-138052289D01*
X152335089Y-138176342D01*
X152242987Y-138325663D01*
X152242985Y-138325668D01*
X152222516Y-138387439D01*
X152187801Y-138492203D01*
X152187801Y-138492204D01*
X152187800Y-138492204D01*
X152177300Y-138594983D01*
X152177300Y-139170637D01*
X152157615Y-139237676D01*
X152140981Y-139258318D01*
X150245681Y-141153618D01*
X150184358Y-141187103D01*
X150114666Y-141182119D01*
X150058733Y-141140247D01*
X150034316Y-141074783D01*
X150034000Y-141065937D01*
X150034000Y-81124000D01*
X150053685Y-81056961D01*
X150106489Y-81011206D01*
X150158000Y-81000000D01*
X187249904Y-81000000D01*
X187316943Y-81019685D01*
G37*
%TD.AperFunction*%
%TA.AperFunction,Conductor*%
G36*
X170404079Y-144869226D02*
G01*
X170426218Y-144886808D01*
X172547716Y-147008306D01*
X172547745Y-147008337D01*
X172637964Y-147098556D01*
X172637967Y-147098558D01*
X172675617Y-147123715D01*
X172740414Y-147167012D01*
X172820907Y-147200352D01*
X172854248Y-147214163D01*
X172914671Y-147226181D01*
X172975093Y-147238200D01*
X172975094Y-147238200D01*
X182365948Y-147238200D01*
X182432987Y-147257885D01*
X182453629Y-147274519D01*
X182657905Y-147478795D01*
X182691390Y-147540118D01*
X182691841Y-147542285D01*
X182713961Y-147653489D01*
X182713964Y-147653501D01*
X182774302Y-147799172D01*
X182774309Y-147799185D01*
X182861910Y-147930288D01*
X182861913Y-147930292D01*
X182973407Y-148041786D01*
X182973411Y-148041789D01*
X183104514Y-148129390D01*
X183104527Y-148129397D01*
X183245044Y-148187600D01*
X183250203Y-148189737D01*
X183382497Y-148216052D01*
X183404853Y-148220499D01*
X183404856Y-148220500D01*
X183460900Y-148220500D01*
X183527939Y-148240185D01*
X183573694Y-148292989D01*
X183584900Y-148344500D01*
X183584900Y-149224338D01*
X183565215Y-149291377D01*
X183548581Y-149312019D01*
X183366119Y-149494481D01*
X183304796Y-149527966D01*
X183278438Y-149530800D01*
X169293262Y-149530800D01*
X169226223Y-149511115D01*
X169205581Y-149494481D01*
X168213719Y-148502619D01*
X168180234Y-148441296D01*
X168177400Y-148414938D01*
X168177400Y-146545568D01*
X168197085Y-146478529D01*
X168249889Y-146432774D01*
X168319047Y-146422830D01*
X168357696Y-146435084D01*
X168360583Y-146436555D01*
X168360585Y-146436555D01*
X168360588Y-146436557D01*
X168562757Y-146502246D01*
X168772713Y-146535500D01*
X168772714Y-146535500D01*
X168985286Y-146535500D01*
X168985287Y-146535500D01*
X169195243Y-146502246D01*
X169397412Y-146436557D01*
X169586816Y-146340051D01*
X169648137Y-146295499D01*
X169758786Y-146215109D01*
X169758788Y-146215106D01*
X169758792Y-146215104D01*
X169909104Y-146064792D01*
X169909106Y-146064788D01*
X169909109Y-146064786D01*
X170034048Y-145892820D01*
X170034047Y-145892820D01*
X170034051Y-145892816D01*
X170130557Y-145703412D01*
X170196246Y-145501243D01*
X170229500Y-145291287D01*
X170229500Y-145078713D01*
X170216064Y-144993884D01*
X170225018Y-144924594D01*
X170270014Y-144871142D01*
X170336765Y-144850502D01*
X170404079Y-144869226D01*
G37*
%TD.AperFunction*%
%TA.AperFunction,Conductor*%
G36*
X165014524Y-141209174D02*
G01*
X165054602Y-141235992D01*
X165949247Y-142130637D01*
X165982732Y-142191960D01*
X165984969Y-142206160D01*
X165985200Y-142208504D01*
X165985200Y-142208506D01*
X166004638Y-142306233D01*
X166009119Y-142328757D01*
X166009237Y-142329351D01*
X166056388Y-142443187D01*
X166090484Y-142494212D01*
X166090485Y-142494214D01*
X166124843Y-142545635D01*
X166216286Y-142637078D01*
X166216308Y-142637098D01*
X167788957Y-144209747D01*
X167822442Y-144271070D01*
X167817458Y-144340762D01*
X167801594Y-144370313D01*
X167723949Y-144477182D01*
X167689480Y-144544830D01*
X167641505Y-144595626D01*
X167573684Y-144612420D01*
X167507549Y-144589882D01*
X167491315Y-144576215D01*
X166830439Y-143915338D01*
X166830434Y-143915334D01*
X166759225Y-143867755D01*
X166759223Y-143867753D01*
X166682947Y-143816787D01*
X166682940Y-143816783D01*
X166579906Y-143774106D01*
X166519066Y-143748905D01*
X166519058Y-143748903D01*
X166345096Y-143714300D01*
X166345092Y-143714300D01*
X166345091Y-143714300D01*
X164893500Y-143714300D01*
X164826461Y-143694615D01*
X164780706Y-143641811D01*
X164769500Y-143590300D01*
X164769500Y-142905132D01*
X164787960Y-142840036D01*
X164803814Y-142814334D01*
X164858999Y-142647797D01*
X164869500Y-142545009D01*
X164869499Y-141494992D01*
X164869027Y-141490376D01*
X164858999Y-141392203D01*
X164851630Y-141369966D01*
X164849214Y-141362676D01*
X164846813Y-141292850D01*
X164882544Y-141232807D01*
X164945064Y-141201614D01*
X165014524Y-141209174D01*
G37*
%TD.AperFunction*%
%TA.AperFunction,Conductor*%
G36*
X163122830Y-138100485D02*
G01*
X163143472Y-138117119D01*
X163821353Y-138795000D01*
X163815139Y-138795000D01*
X163713406Y-138822259D01*
X163622194Y-138874920D01*
X163547720Y-138949394D01*
X163495059Y-139040606D01*
X163467800Y-139142339D01*
X163467800Y-139148553D01*
X162788324Y-138469077D01*
X162750519Y-138472053D01*
X162682141Y-138457689D01*
X162632384Y-138408638D01*
X162623085Y-138387444D01*
X162602614Y-138325666D01*
X162568214Y-138269895D01*
X162549775Y-138202504D01*
X162570698Y-138135841D01*
X162624340Y-138091071D01*
X162673754Y-138080800D01*
X163055791Y-138080800D01*
X163122830Y-138100485D01*
G37*
%TD.AperFunction*%
%TD*%
M02*
