%TF.GenerationSoftware,KiCad,Pcbnew,10.0.5*%
%TF.CreationDate,2026-07-29T13:33:01-07:00*%
%TF.ProjectId,cv-em,63762d65-6d2e-46b6-9963-61645f706362,rev?*%
%TF.SameCoordinates,Original*%
%TF.FileFunction,Soldermask,Bot*%
%TF.FilePolarity,Negative*%
%FSLAX46Y46*%
G04 Gerber Fmt 4.6, Leading zero omitted, Abs format (unit mm)*
G04 Created by KiCad (PCBNEW 10.0.5) date 2026-07-29 13:33:01*
%MOMM*%
%LPD*%
G01*
G04 APERTURE LIST*
G04 Aperture macros list*
%AMRoundRect*
0 Rectangle with rounded corners*
0 $1 Rounding radius*
0 $2 $3 $4 $5 $6 $7 $8 $9 X,Y pos of 4 corners*
0 Add a 4 corners polygon primitive as box body*
4,1,4,$2,$3,$4,$5,$6,$7,$8,$9,$2,$3,0*
0 Add four circle primitives for the rounded corners*
1,1,$1+$1,$2,$3*
1,1,$1+$1,$4,$5*
1,1,$1+$1,$6,$7*
1,1,$1+$1,$8,$9*
0 Add four rect primitives between the rounded corners*
20,1,$1+$1,$2,$3,$4,$5,0*
20,1,$1+$1,$4,$5,$6,$7,0*
20,1,$1+$1,$6,$7,$8,$9,0*
20,1,$1+$1,$8,$9,$2,$3,0*%
G04 Aperture macros list end*
%ADD10C,0.600000*%
%ADD11RoundRect,0.250000X-0.550000X-0.550000X0.550000X-0.550000X0.550000X0.550000X-0.550000X0.550000X0*%
%ADD12C,1.600000*%
%ADD13C,3.200000*%
%ADD14R,1.700000X1.700000*%
%ADD15C,1.700000*%
%ADD16RoundRect,0.250000X0.750000X-0.600000X0.750000X0.600000X-0.750000X0.600000X-0.750000X-0.600000X0*%
%ADD17O,2.000000X1.700000*%
%ADD18RoundRect,0.250000X-1.050000X-1.050000X1.050000X-1.050000X1.050000X1.050000X-1.050000X1.050000X0*%
%ADD19C,2.600000*%
%ADD20R,1.800000X1.800000*%
%ADD21C,1.800000*%
%ADD22RoundRect,0.250000X0.250000X0.475000X-0.250000X0.475000X-0.250000X-0.475000X0.250000X-0.475000X0*%
%ADD23RoundRect,0.375000X0.625000X0.375000X-0.625000X0.375000X-0.625000X-0.375000X0.625000X-0.375000X0*%
%ADD24RoundRect,0.500000X0.500000X1.400000X-0.500000X1.400000X-0.500000X-1.400000X0.500000X-1.400000X0*%
%ADD25RoundRect,0.250000X0.375000X0.625000X-0.375000X0.625000X-0.375000X-0.625000X0.375000X-0.625000X0*%
%ADD26RoundRect,0.250000X0.262500X0.450000X-0.262500X0.450000X-0.262500X-0.450000X0.262500X-0.450000X0*%
G04 APERTURE END LIST*
D10*
%TO.C,U1*%
X165384000Y-109490000D03*
X165384000Y-110890000D03*
X166084000Y-108790000D03*
X166084000Y-110190000D03*
X166084000Y-111590000D03*
X166784000Y-109490000D03*
X166784000Y-110890000D03*
X167484000Y-108790000D03*
X167484000Y-110190000D03*
X167484000Y-111590000D03*
X168184000Y-109490000D03*
X168184000Y-110890000D03*
%TD*%
D11*
%TO.C,C1*%
X153477800Y-139195000D03*
D12*
X155977800Y-139195000D03*
%TD*%
D13*
%TO.C,MH1*%
X103998700Y-84000000D03*
%TD*%
D14*
%TO.C,CT1*%
X168879000Y-137565000D03*
D15*
X168879000Y-140105000D03*
X168879000Y-142645000D03*
X168879000Y-145185000D03*
%TD*%
D16*
%TO.C,PS1*%
X133239000Y-121485000D03*
D17*
X138239000Y-121485000D03*
X128239000Y-92405000D03*
X143239000Y-92405000D03*
%TD*%
D18*
%TO.C,J3*%
X127239000Y-132395000D03*
D19*
X132239000Y-132395000D03*
X137239000Y-132395000D03*
%TD*%
D11*
%TO.C,C2*%
X161367800Y-139195000D03*
D12*
X163867800Y-139195000D03*
%TD*%
D14*
%TO.C,JP*%
X178139000Y-137565000D03*
D15*
X178139000Y-140105000D03*
X178139000Y-142645000D03*
%TD*%
D13*
%TO.C,MH2*%
X184798700Y-153100000D03*
%TD*%
D12*
%TO.C,RV1*%
X107545000Y-92595000D03*
X112545000Y-93895000D03*
%TD*%
D20*
%TO.C,LED0*%
X183209000Y-139485000D03*
D21*
X183209000Y-136945000D03*
%TD*%
D14*
%TO.C,ZMPT1*%
X173509000Y-137565000D03*
D15*
X173509000Y-140105000D03*
X173509000Y-142645000D03*
X173509000Y-145185000D03*
%TD*%
D22*
%TO.C,C3*%
X182684000Y-142410000D03*
X180784000Y-142410000D03*
%TD*%
%TO.C,C5*%
X182684000Y-145460000D03*
X180784000Y-145460000D03*
%TD*%
%TO.C,C4*%
X163869000Y-145070000D03*
X161969000Y-145070000D03*
%TD*%
D23*
%TO.C,U2*%
X158879000Y-142340000D03*
X158879000Y-144640000D03*
D24*
X152579000Y-144640000D03*
D23*
X158879000Y-146940000D03*
%TD*%
D25*
%TO.C,F1*%
X109975000Y-102870000D03*
X107175000Y-102870000D03*
%TD*%
D26*
%TO.C,Rb*%
X177996500Y-145490000D03*
X176171500Y-145490000D03*
%TD*%
D22*
%TO.C,Cb*%
X163869000Y-142020000D03*
X161969000Y-142020000D03*
%TD*%
M02*
