%TF.GenerationSoftware,KiCad,Pcbnew,10.0.5*%
%TF.CreationDate,2026-07-29T13:33:00-07:00*%
%TF.ProjectId,cv-em,63762d65-6d2e-46b6-9963-61645f706362,rev?*%
%TF.SameCoordinates,Original*%
%TF.FileFunction,Copper,L2,Bot*%
%TF.FilePolarity,Positive*%
%FSLAX46Y46*%
G04 Gerber Fmt 4.6, Leading zero omitted, Abs format (unit mm)*
G04 Created by KiCad (PCBNEW 10.0.5) date 2026-07-29 13:33:00*
%MOMM*%
%LPD*%
G01*
G04 APERTURE LIST*
G04 Aperture macros list*
%AMRoundRect*
0 Rectangle with rounded corners*
0 $1 Rounding radius*
0 $2 $3 $4 $5 $6 $7 $8 $9 X,Y pos of 4 corners*
0 Add a 4 corners polygon primitive as box body*
4,1,4,$2,$3,$4,$5,$6,$7,$8,$9,$2,$3,0*
0 Add four circle primitives for the rounded corners*
1,1,$1+$1,$2,$3*
1,1,$1+$1,$4,$5*
1,1,$1+$1,$6,$7*
1,1,$1+$1,$8,$9*
0 Add four rect primitives between the rounded corners*
20,1,$1+$1,$2,$3,$4,$5,0*
20,1,$1+$1,$4,$5,$6,$7,0*
20,1,$1+$1,$6,$7,$8,$9,0*
20,1,$1+$1,$8,$9,$2,$3,0*%
G04 Aperture macros list end*
%TA.AperFunction,HeatsinkPad*%
%ADD10C,0.600000*%
%TD*%
%TA.AperFunction,ComponentPad*%
%ADD11RoundRect,0.250000X-0.550000X-0.550000X0.550000X-0.550000X0.550000X0.550000X-0.550000X0.550000X0*%
%TD*%
%TA.AperFunction,ComponentPad*%
%ADD12C,1.600000*%
%TD*%
%TA.AperFunction,ComponentPad*%
%ADD13R,1.700000X1.700000*%
%TD*%
%TA.AperFunction,ComponentPad*%
%ADD14C,1.700000*%
%TD*%
%TA.AperFunction,ComponentPad*%
%ADD15RoundRect,0.250000X0.750000X-0.600000X0.750000X0.600000X-0.750000X0.600000X-0.750000X-0.600000X0*%
%TD*%
%TA.AperFunction,ComponentPad*%
%ADD16O,2.000000X1.700000*%
%TD*%
%TA.AperFunction,ComponentPad*%
%ADD17RoundRect,0.250000X-1.050000X-1.050000X1.050000X-1.050000X1.050000X1.050000X-1.050000X1.050000X0*%
%TD*%
%TA.AperFunction,ComponentPad*%
%ADD18C,2.600000*%
%TD*%
%TA.AperFunction,ComponentPad*%
%ADD19R,1.800000X1.800000*%
%TD*%
%TA.AperFunction,ComponentPad*%
%ADD20C,1.800000*%
%TD*%
%TA.AperFunction,SMDPad,CuDef*%
%ADD21RoundRect,0.250000X0.250000X0.475000X-0.250000X0.475000X-0.250000X-0.475000X0.250000X-0.475000X0*%
%TD*%
%TA.AperFunction,SMDPad,CuDef*%
%ADD22RoundRect,0.375000X0.625000X0.375000X-0.625000X0.375000X-0.625000X-0.375000X0.625000X-0.375000X0*%
%TD*%
%TA.AperFunction,SMDPad,CuDef*%
%ADD23RoundRect,0.500000X0.500000X1.400000X-0.500000X1.400000X-0.500000X-1.400000X0.500000X-1.400000X0*%
%TD*%
%TA.AperFunction,SMDPad,CuDef*%
%ADD24RoundRect,0.250000X0.375000X0.625000X-0.375000X0.625000X-0.375000X-0.625000X0.375000X-0.625000X0*%
%TD*%
%TA.AperFunction,SMDPad,CuDef*%
%ADD25RoundRect,0.250000X0.262500X0.450000X-0.262500X0.450000X-0.262500X-0.450000X0.262500X-0.450000X0*%
%TD*%
%TA.AperFunction,ViaPad*%
%ADD26C,0.800000*%
%TD*%
%TA.AperFunction,Conductor*%
%ADD27C,0.800000*%
%TD*%
G04 APERTURE END LIST*
D10*
%TO.P,U1,39*%
%TO.N,GND*%
X165384000Y-109490000D03*
X165384000Y-110890000D03*
X166084000Y-108790000D03*
X166084000Y-110190000D03*
X166084000Y-111590000D03*
X166784000Y-109490000D03*
X166784000Y-110890000D03*
X167484000Y-108790000D03*
X167484000Y-110190000D03*
X167484000Y-111590000D03*
X168184000Y-109490000D03*
X168184000Y-110890000D03*
%TD*%
D11*
%TO.P,C1,1*%
%TO.N,+5V*%
X153477800Y-139195000D03*
D12*
%TO.P,C1,2*%
%TO.N,GND*%
X155977800Y-139195000D03*
%TD*%
D13*
%TO.P,CT1,1*%
%TO.N,N$CT1.1*%
X168879000Y-137565000D03*
D14*
%TO.P,CT1,2*%
%TO.N,N$CT1.2*%
X168879000Y-140105000D03*
%TO.P,CT1,3*%
%TO.N,N$CT1.3*%
X168879000Y-142645000D03*
%TO.P,CT1,4*%
%TO.N,N$CT1.4*%
X168879000Y-145185000D03*
%TD*%
D15*
%TO.P,PS1,1*%
%TO.N,AC_L_FUSED*%
X133239000Y-121485000D03*
D16*
%TO.P,PS1,2*%
%TO.N,AC_N*%
X138239000Y-121485000D03*
%TO.P,PS1,3*%
%TO.N,GND*%
X128239000Y-92405000D03*
%TO.P,PS1,4*%
%TO.N,+5V*%
X143239000Y-92405000D03*
%TD*%
D17*
%TO.P,J3,1*%
%TO.N,AC_L*%
X127239000Y-132395000D03*
D18*
%TO.P,J3,2*%
%TO.N,AC_N*%
X132239000Y-132395000D03*
%TO.P,J3,3*%
%TO.N,CT_PIN*%
X137239000Y-132395000D03*
%TD*%
D11*
%TO.P,C2,1*%
%TO.N,+3V3*%
X161367800Y-139195000D03*
D12*
%TO.P,C2,2*%
%TO.N,GND*%
X163867800Y-139195000D03*
%TD*%
D13*
%TO.P,JP,1*%
%TO.N,UART_TX*%
X178139000Y-137565000D03*
D14*
%TO.P,JP,2*%
%TO.N,UART_RX*%
X178139000Y-140105000D03*
%TO.P,JP,3*%
%TO.N,GND*%
X178139000Y-142645000D03*
%TD*%
D12*
%TO.P,RV1,1*%
%TO.N,AC_L_FUSED*%
X107545000Y-92595000D03*
%TO.P,RV1,2*%
%TO.N,AC_N*%
X112545000Y-93895000D03*
%TD*%
D19*
%TO.P,LED0,1*%
%TO.N,N$LED0.1*%
X183209000Y-139485000D03*
D20*
%TO.P,LED0,2*%
%TO.N,N$LED0.2*%
X183209000Y-136945000D03*
%TD*%
D13*
%TO.P,ZMPT1,1*%
%TO.N,N$ZMPT1.1*%
X173509000Y-137565000D03*
D14*
%TO.P,ZMPT1,2*%
%TO.N,N$ZMPT1.2*%
X173509000Y-140105000D03*
%TO.P,ZMPT1,3*%
%TO.N,N$ZMPT1.3*%
X173509000Y-142645000D03*
%TO.P,ZMPT1,4*%
%TO.N,N$ZMPT1.4*%
X173509000Y-145185000D03*
%TD*%
D21*
%TO.P,C3,1*%
%TO.N,+3V3*%
X182684000Y-142410000D03*
%TO.P,C3,2*%
%TO.N,GND*%
X180784000Y-142410000D03*
%TD*%
%TO.P,C5,1*%
%TO.N,+3V3*%
X182684000Y-145460000D03*
%TO.P,C5,2*%
%TO.N,GND*%
X180784000Y-145460000D03*
%TD*%
%TO.P,C4,1*%
%TO.N,+3V3*%
X163869000Y-145070000D03*
%TO.P,C4,2*%
%TO.N,GND*%
X161969000Y-145070000D03*
%TD*%
D22*
%TO.P,U2,1*%
%TO.N,GND*%
X158879000Y-142340000D03*
%TO.P,U2,2*%
%TO.N,+3V3*%
X158879000Y-144640000D03*
D23*
X152579000Y-144640000D03*
D22*
%TO.P,U2,3*%
%TO.N,+5V*%
X158879000Y-146940000D03*
%TD*%
D24*
%TO.P,F1,1*%
%TO.N,AC_L*%
X109975000Y-102870000D03*
%TO.P,F1,2*%
%TO.N,AC_L_FUSED*%
X107175000Y-102870000D03*
%TD*%
D25*
%TO.P,Rb,1*%
%TO.N,N$Rb.1*%
X177996500Y-145490000D03*
%TO.P,Rb,2*%
%TO.N,N$Rb.2*%
X176171500Y-145490000D03*
%TD*%
D21*
%TO.P,Cb,1*%
%TO.N,+3V3*%
X163869000Y-142020000D03*
%TO.P,Cb,2*%
%TO.N,GND*%
X161969000Y-142020000D03*
%TD*%
D26*
%TO.N,GND*%
X155284000Y-114250000D03*
X162284000Y-103750000D03*
X172784000Y-131750000D03*
X179784000Y-86250000D03*
X165784000Y-117750000D03*
X155284000Y-100250000D03*
X172784000Y-110750000D03*
X155284000Y-82750000D03*
X176284000Y-149250000D03*
X165784000Y-131750000D03*
X179784000Y-117750000D03*
X179784000Y-131750000D03*
X180784000Y-140285000D03*
X176284000Y-152750000D03*
X155284000Y-86250000D03*
X158784000Y-86250000D03*
X162284000Y-86250000D03*
X186784000Y-138750000D03*
X155284000Y-110750000D03*
X169284000Y-124750000D03*
X162284000Y-128250000D03*
X186784000Y-142250000D03*
X155284000Y-96750000D03*
X155284000Y-131750000D03*
X183284000Y-89750000D03*
X186784000Y-117750000D03*
X179784000Y-100250000D03*
X172784000Y-114250000D03*
X165784000Y-152750000D03*
X162284000Y-135250000D03*
X179784000Y-128250000D03*
X186784000Y-93250000D03*
X155284000Y-149250000D03*
X176284000Y-135250000D03*
X151784000Y-131750000D03*
X176284000Y-93250000D03*
X179784000Y-135250000D03*
X162284000Y-110750000D03*
X172784000Y-86250000D03*
X183284000Y-107250000D03*
X186784000Y-110750000D03*
X151784000Y-86250000D03*
X162284000Y-93250000D03*
X151784000Y-100250000D03*
X183284000Y-117750000D03*
X158784000Y-138750000D03*
X183284000Y-121250000D03*
X186784000Y-107250000D03*
X151784000Y-103750000D03*
X162284000Y-107250000D03*
X157384000Y-102470000D03*
X165784000Y-82750000D03*
X172784000Y-117750000D03*
X176284000Y-128250000D03*
X158784000Y-93250000D03*
X179784000Y-121250000D03*
X155284000Y-107250000D03*
X169284000Y-93250000D03*
X169284000Y-131750000D03*
X158784000Y-89750000D03*
X155284000Y-128250000D03*
X169284000Y-86250000D03*
X169284000Y-135250000D03*
X169284000Y-152750000D03*
X183284000Y-124750000D03*
X155284000Y-117750000D03*
X155284000Y-135250000D03*
X151784000Y-107250000D03*
X155284000Y-121250000D03*
X179784000Y-114250000D03*
X169284000Y-149250000D03*
X158784000Y-121250000D03*
X158784000Y-124750000D03*
X186784000Y-103750000D03*
X179784000Y-103750000D03*
X162284000Y-131750000D03*
X158784000Y-135250000D03*
X151784000Y-82750000D03*
X176284000Y-89750000D03*
X179784000Y-124750000D03*
X151784000Y-89750000D03*
X186784000Y-121250000D03*
X158784000Y-82750000D03*
X165784000Y-142250000D03*
X186784000Y-131750000D03*
X169284000Y-117750000D03*
X186784000Y-128250000D03*
X186784000Y-135250000D03*
X155284000Y-89750000D03*
X165784000Y-103750000D03*
X165784000Y-86250000D03*
X172784000Y-103750000D03*
X183284000Y-86250000D03*
X151784000Y-128250000D03*
X151784000Y-110750000D03*
X169284000Y-89750000D03*
X161969000Y-147195000D03*
X186784000Y-145750000D03*
X179784000Y-96750000D03*
X165784000Y-89750000D03*
X172784000Y-124750000D03*
X179784000Y-93250000D03*
X183284000Y-114250000D03*
X179784000Y-152750000D03*
X172784000Y-82750000D03*
X183284000Y-100250000D03*
X151784000Y-135250000D03*
X179784000Y-107250000D03*
X151784000Y-124750000D03*
X172784000Y-89750000D03*
X155284000Y-103750000D03*
X186784000Y-100250000D03*
X162284000Y-114250000D03*
X183284000Y-149250000D03*
X180784000Y-147585000D03*
X186784000Y-86250000D03*
X172784000Y-135250000D03*
X162284000Y-124750000D03*
X183284000Y-93250000D03*
X165784000Y-124750000D03*
X183284000Y-131750000D03*
X151784000Y-121250000D03*
X172784000Y-149250000D03*
X183284000Y-96750000D03*
X165784000Y-135250000D03*
X166068000Y-139195000D03*
X176284000Y-124750000D03*
X176284000Y-82750000D03*
X186784000Y-124750000D03*
X158784000Y-128250000D03*
X186784000Y-149250000D03*
X179184000Y-102470000D03*
X169284000Y-107250000D03*
X169284000Y-114250000D03*
X162284000Y-149250000D03*
X151784000Y-117750000D03*
X163185000Y-152500000D03*
X155284000Y-93250000D03*
X158178000Y-139195000D03*
X172784000Y-93250000D03*
X176284000Y-121250000D03*
X186784000Y-89750000D03*
X172784000Y-128250000D03*
X183284000Y-110750000D03*
X155284000Y-142250000D03*
X179784000Y-110750000D03*
X165784000Y-114250000D03*
X165784000Y-107250000D03*
X165784000Y-145750000D03*
X162284000Y-82750000D03*
X186784000Y-96750000D03*
X162284000Y-89750000D03*
X165784000Y-128250000D03*
X176284000Y-131750000D03*
X183284000Y-128250000D03*
X172784000Y-152750000D03*
X169284000Y-103750000D03*
X176284000Y-86250000D03*
X151784000Y-96750000D03*
X151784000Y-93250000D03*
X165784000Y-93250000D03*
X183284000Y-82750000D03*
X158879000Y-140440000D03*
X186784000Y-82750000D03*
X169284000Y-110750000D03*
X179784000Y-89750000D03*
X162284000Y-117750000D03*
X169284000Y-82750000D03*
X151784000Y-114250000D03*
X155284000Y-124750000D03*
X186784000Y-114250000D03*
X172784000Y-107250000D03*
X179784000Y-82750000D03*
X175889000Y-142645000D03*
X165784000Y-149250000D03*
X169284000Y-128250000D03*
X183284000Y-103750000D03*
X179784000Y-149250000D03*
X158784000Y-131750000D03*
%TD*%
%TO.N,GND*%
D27*
X128239000Y-92405000D02*
X128239000Y-93956700D01*
X132013900Y-97731600D02*
X128239000Y-93956700D01*
X151875300Y-97731600D02*
X132013900Y-97731600D01*
%TO.N,+3V3*%
X158879000Y-144640000D02*
X159637000Y-144640000D01*
X160663600Y-143613400D02*
X163869000Y-143613400D01*
X182684000Y-142410000D02*
X182684000Y-144030600D01*
X163869000Y-141696200D02*
X161367800Y-139195000D01*
X163869000Y-145070000D02*
X163869000Y-145445500D01*
X152579000Y-144640000D02*
X158879000Y-144640000D01*
X163869000Y-145445500D02*
X165320100Y-146896600D01*
X178676300Y-146896600D02*
X179471500Y-146101400D01*
X179471500Y-144700000D02*
X180140900Y-144030600D01*
X163869000Y-143613400D02*
X163869000Y-142020000D01*
X159637000Y-144640000D02*
X160663600Y-143613400D01*
X163869000Y-143613400D02*
X163869000Y-145070000D01*
X165320100Y-146896600D02*
X178676300Y-146896600D01*
X182684000Y-144030600D02*
X182684000Y-145460000D01*
X163869000Y-142020000D02*
X163869000Y-141696200D01*
X180140900Y-144030600D02*
X182684000Y-144030600D01*
X179471500Y-146101400D02*
X179471500Y-144700000D01*
%TO.N,+5V*%
X158528300Y-147290700D02*
X151605100Y-147290700D01*
X150816800Y-141856000D02*
X153477800Y-139195000D01*
X151605100Y-147290700D02*
X150816800Y-146502400D01*
X158879000Y-146940000D02*
X158528300Y-147290700D01*
X150816800Y-146502400D02*
X150816800Y-141856000D01*
%TD*%
%TA.AperFunction,Conductor*%
%TO.N,GND*%
G36*
X187316943Y-81019685D02*
G01*
X187326377Y-81026389D01*
X187451573Y-81124474D01*
X187462781Y-81134404D01*
X187665596Y-81337219D01*
X187675525Y-81348426D01*
X187773611Y-81473623D01*
X187799460Y-81538532D01*
X187800000Y-81550094D01*
X187800000Y-155549903D01*
X187780315Y-155616942D01*
X187773611Y-155626376D01*
X187675525Y-155751573D01*
X187665595Y-155762781D01*
X187462781Y-155965595D01*
X187451574Y-155975524D01*
X187326378Y-156073610D01*
X187261466Y-156099460D01*
X187249904Y-156100000D01*
X150158000Y-156100000D01*
X150090961Y-156080315D01*
X150045206Y-156027511D01*
X150034000Y-155976000D01*
X150034000Y-152981995D01*
X182998200Y-152981995D01*
X182998200Y-153218004D01*
X182998201Y-153218020D01*
X183029006Y-153452010D01*
X183090094Y-153679993D01*
X183180414Y-153898045D01*
X183180419Y-153898056D01*
X183251377Y-154020957D01*
X183298427Y-154102450D01*
X183298429Y-154102453D01*
X183298430Y-154102454D01*
X183442106Y-154289697D01*
X183442112Y-154289704D01*
X183608995Y-154456587D01*
X183609001Y-154456592D01*
X183796250Y-154600273D01*
X183927618Y-154676118D01*
X184000643Y-154718280D01*
X184000648Y-154718282D01*
X184000651Y-154718284D01*
X184218707Y-154808606D01*
X184446686Y-154869693D01*
X184680689Y-154900500D01*
X184680696Y-154900500D01*
X184916704Y-154900500D01*
X184916711Y-154900500D01*
X185150714Y-154869693D01*
X185378693Y-154808606D01*
X185596749Y-154718284D01*
X185801150Y-154600273D01*
X185988399Y-154456592D01*
X186155292Y-154289699D01*
X186298973Y-154102450D01*
X186416984Y-153898049D01*
X186507306Y-153679993D01*
X186568393Y-153452014D01*
X186599200Y-153218011D01*
X186599200Y-152981989D01*
X186568393Y-152747986D01*
X186507306Y-152520007D01*
X186416984Y-152301951D01*
X186416982Y-152301948D01*
X186416980Y-152301943D01*
X186374818Y-152228918D01*
X186298973Y-152097550D01*
X186155292Y-151910301D01*
X186155287Y-151910295D01*
X185988404Y-151743412D01*
X185988397Y-151743406D01*
X185801154Y-151599730D01*
X185801153Y-151599729D01*
X185801150Y-151599727D01*
X185719657Y-151552677D01*
X185596756Y-151481719D01*
X185596745Y-151481714D01*
X185378693Y-151391394D01*
X185150710Y-151330306D01*
X184916720Y-151299501D01*
X184916717Y-151299500D01*
X184916711Y-151299500D01*
X184680689Y-151299500D01*
X184680683Y-151299500D01*
X184680679Y-151299501D01*
X184446689Y-151330306D01*
X184218706Y-151391394D01*
X184000654Y-151481714D01*
X184000643Y-151481719D01*
X183796245Y-151599730D01*
X183609002Y-151743406D01*
X183608995Y-151743412D01*
X183442112Y-151910295D01*
X183442106Y-151910302D01*
X183298430Y-152097545D01*
X183180419Y-152301943D01*
X183180414Y-152301954D01*
X183090094Y-152520006D01*
X183029006Y-152747989D01*
X182998201Y-152981979D01*
X182998200Y-152981995D01*
X150034000Y-152981995D01*
X150034000Y-147292462D01*
X150053685Y-147225423D01*
X150106489Y-147179668D01*
X150175647Y-147169724D01*
X150239203Y-147198749D01*
X150245681Y-147204781D01*
X150636962Y-147596061D01*
X150905636Y-147864735D01*
X151031065Y-147990164D01*
X151178553Y-148088713D01*
X151226552Y-148108595D01*
X151342434Y-148156595D01*
X151498310Y-148187600D01*
X151516404Y-148191199D01*
X151516408Y-148191200D01*
X151516409Y-148191200D01*
X158616995Y-148191200D01*
X158618029Y-148191098D01*
X158630199Y-148190499D01*
X159580123Y-148190499D01*
X159580123Y-148190498D01*
X159622889Y-148187600D01*
X159807693Y-148141641D01*
X159978296Y-148057030D01*
X160126722Y-147937722D01*
X160246030Y-147789296D01*
X160330641Y-147618693D01*
X160376600Y-147433889D01*
X160379500Y-147391123D01*
X160379499Y-146488878D01*
X160376600Y-146446111D01*
X160330641Y-146261307D01*
X160249664Y-146098031D01*
X160246032Y-146090707D01*
X160246030Y-146090704D01*
X160126722Y-145942278D01*
X160126721Y-145942277D01*
X160057514Y-145886647D01*
X160017595Y-145829304D01*
X160015015Y-145759482D01*
X160050594Y-145699349D01*
X160057514Y-145693353D01*
X160066909Y-145685800D01*
X160126722Y-145637722D01*
X160161074Y-145594986D01*
X160969001Y-145594986D01*
X160979494Y-145697697D01*
X161034641Y-145864119D01*
X161034643Y-145864124D01*
X161126684Y-146013345D01*
X161250654Y-146137315D01*
X161399875Y-146229356D01*
X161399880Y-146229358D01*
X161566302Y-146284505D01*
X161566309Y-146284506D01*
X161669019Y-146294999D01*
X161718999Y-146294998D01*
X161719000Y-146294998D01*
X161719000Y-145320000D01*
X160969001Y-145320000D01*
X160969001Y-145594986D01*
X160161074Y-145594986D01*
X160246030Y-145489296D01*
X160330641Y-145318693D01*
X160355047Y-145220552D01*
X160387699Y-145162799D01*
X160762070Y-144788428D01*
X160823391Y-144754945D01*
X160893083Y-144759929D01*
X160937430Y-144788430D01*
X160969000Y-144820000D01*
X161845000Y-144820000D01*
X161912039Y-144839685D01*
X161957794Y-144892489D01*
X161969000Y-144944000D01*
X161969000Y-145070000D01*
X162095000Y-145070000D01*
X162162039Y-145089685D01*
X162207794Y-145142489D01*
X162219000Y-145194000D01*
X162219000Y-146294999D01*
X162268972Y-146294999D01*
X162268986Y-146294998D01*
X162371697Y-146284505D01*
X162538119Y-146229358D01*
X162538124Y-146229356D01*
X162687345Y-146137315D01*
X162811318Y-146013342D01*
X162813165Y-146010348D01*
X162814969Y-146008724D01*
X162815798Y-146007677D01*
X162815976Y-146007818D01*
X162865110Y-145963621D01*
X162934073Y-145952396D01*
X162998156Y-145980236D01*
X163024243Y-146010341D01*
X163026288Y-146013656D01*
X163150344Y-146137712D01*
X163299666Y-146229814D01*
X163391638Y-146260290D01*
X163440315Y-146290315D01*
X164620636Y-147470635D01*
X164746062Y-147596061D01*
X164746066Y-147596065D01*
X164893546Y-147694609D01*
X164893559Y-147694616D01*
X165016463Y-147745523D01*
X165057434Y-147762494D01*
X165100035Y-147770968D01*
X165231405Y-147797100D01*
X165231408Y-147797100D01*
X178764993Y-147797100D01*
X178764994Y-147797099D01*
X178938966Y-147762495D01*
X179020906Y-147728553D01*
X179102847Y-147694613D01*
X179216468Y-147618694D01*
X179216469Y-147618694D01*
X179241722Y-147601819D01*
X179250336Y-147596064D01*
X180169931Y-146676467D01*
X180231254Y-146642983D01*
X180296616Y-146646443D01*
X180381302Y-146674505D01*
X180381309Y-146674506D01*
X180484019Y-146684999D01*
X180533999Y-146684998D01*
X180534000Y-146684998D01*
X180534000Y-145584000D01*
X180553685Y-145516961D01*
X180606489Y-145471206D01*
X180658000Y-145460000D01*
X180910000Y-145460000D01*
X180977039Y-145479685D01*
X181022794Y-145532489D01*
X181034000Y-145584000D01*
X181034000Y-146684999D01*
X181083972Y-146684999D01*
X181083986Y-146684998D01*
X181186697Y-146674505D01*
X181353119Y-146619358D01*
X181353124Y-146619356D01*
X181502345Y-146527315D01*
X181626318Y-146403342D01*
X181628165Y-146400348D01*
X181629969Y-146398724D01*
X181630798Y-146397677D01*
X181630976Y-146397818D01*
X181680110Y-146353621D01*
X181749073Y-146342396D01*
X181813156Y-146370236D01*
X181839243Y-146400341D01*
X181841288Y-146403656D01*
X181965344Y-146527712D01*
X182114666Y-146619814D01*
X182281203Y-146674999D01*
X182383991Y-146685500D01*
X182984008Y-146685499D01*
X182984016Y-146685498D01*
X182984019Y-146685498D01*
X183072416Y-146676468D01*
X183086797Y-146674999D01*
X183253334Y-146619814D01*
X183402656Y-146527712D01*
X183526712Y-146403656D01*
X183618814Y-146254334D01*
X183673999Y-146087797D01*
X183684500Y-145985009D01*
X183684499Y-144934992D01*
X183684101Y-144931100D01*
X183673999Y-144832203D01*
X183673998Y-144832200D01*
X183659494Y-144788430D01*
X183618814Y-144665666D01*
X183615820Y-144660812D01*
X183602960Y-144639961D01*
X183584500Y-144574867D01*
X183584500Y-143295132D01*
X183602960Y-143230036D01*
X183618814Y-143204334D01*
X183673999Y-143037797D01*
X183684500Y-142935009D01*
X183684499Y-141884992D01*
X183684324Y-141883282D01*
X183673999Y-141782203D01*
X183673998Y-141782200D01*
X183665758Y-141757334D01*
X183618814Y-141615666D01*
X183526712Y-141466344D01*
X183402656Y-141342288D01*
X183253334Y-141250186D01*
X183086797Y-141195001D01*
X183086795Y-141195000D01*
X182984010Y-141184500D01*
X182383998Y-141184500D01*
X182383980Y-141184501D01*
X182281203Y-141195000D01*
X182281200Y-141195001D01*
X182114668Y-141250185D01*
X182114663Y-141250187D01*
X181965342Y-141342289D01*
X181841288Y-141466343D01*
X181841283Y-141466349D01*
X181839241Y-141469661D01*
X181837247Y-141471453D01*
X181836807Y-141472011D01*
X181836711Y-141471935D01*
X181787291Y-141516383D01*
X181718328Y-141527602D01*
X181654247Y-141499755D01*
X181628168Y-141469656D01*
X181626319Y-141466659D01*
X181626316Y-141466655D01*
X181502345Y-141342684D01*
X181353124Y-141250643D01*
X181353119Y-141250641D01*
X181186697Y-141195494D01*
X181186690Y-141195493D01*
X181083986Y-141185000D01*
X181034000Y-141185000D01*
X181034000Y-142286000D01*
X181014315Y-142353039D01*
X180961511Y-142398794D01*
X180910000Y-142410000D01*
X180784000Y-142410000D01*
X180784000Y-142536000D01*
X180764315Y-142603039D01*
X180711511Y-142648794D01*
X180660000Y-142660000D01*
X179784001Y-142660000D01*
X179784001Y-142934986D01*
X179794494Y-143037698D01*
X179805341Y-143070433D01*
X179807742Y-143140261D01*
X179772010Y-143200303D01*
X179735092Y-143223995D01*
X179714357Y-143232584D01*
X179564232Y-143332894D01*
X179497555Y-143353771D01*
X179430175Y-143335286D01*
X179383485Y-143283307D01*
X179372309Y-143214337D01*
X179384861Y-143173489D01*
X179390095Y-143163217D01*
X179455757Y-142961130D01*
X179455757Y-142961127D01*
X179489000Y-142751246D01*
X179489000Y-142538753D01*
X179455757Y-142328872D01*
X179455757Y-142328869D01*
X179390095Y-142126782D01*
X179293986Y-141938159D01*
X179293985Y-141938156D01*
X179293626Y-141937451D01*
X179255528Y-141885013D01*
X179784000Y-141885013D01*
X179784000Y-142160000D01*
X180534000Y-142160000D01*
X180534000Y-141185000D01*
X180533999Y-141184999D01*
X180484029Y-141185000D01*
X180484011Y-141185001D01*
X180381302Y-141195494D01*
X180214880Y-141250641D01*
X180214875Y-141250643D01*
X180065654Y-141342684D01*
X179941684Y-141466654D01*
X179849643Y-141615875D01*
X179849641Y-141615880D01*
X179794494Y-141782302D01*
X179794493Y-141782309D01*
X179784000Y-141885013D01*
X179255528Y-141885013D01*
X179254270Y-141883282D01*
X178621962Y-142515590D01*
X178604925Y-142452007D01*
X178539099Y-142337993D01*
X178446007Y-142244901D01*
X178331993Y-142179075D01*
X178268409Y-142162037D01*
X178900716Y-141529728D01*
X178846547Y-141490373D01*
X178846547Y-141490372D01*
X178837500Y-141485763D01*
X178786706Y-141437788D01*
X178769912Y-141369966D01*
X178792451Y-141303832D01*
X178837508Y-141264793D01*
X178846816Y-141260051D01*
X178950117Y-141184999D01*
X179018786Y-141135109D01*
X179018788Y-141135106D01*
X179018792Y-141135104D01*
X179169104Y-140984792D01*
X179169106Y-140984788D01*
X179169109Y-140984786D01*
X179294048Y-140812820D01*
X179294047Y-140812820D01*
X179294051Y-140812816D01*
X179390557Y-140623412D01*
X179456246Y-140421243D01*
X179489500Y-140211287D01*
X179489500Y-139998713D01*
X179456246Y-139788757D01*
X179390557Y-139586588D01*
X179294051Y-139397184D01*
X179294049Y-139397181D01*
X179294048Y-139397179D01*
X179169109Y-139225213D01*
X179055569Y-139111673D01*
X179022084Y-139050350D01*
X179027068Y-138980658D01*
X179068940Y-138924725D01*
X179099915Y-138907810D01*
X179231331Y-138858796D01*
X179346546Y-138772546D01*
X179432796Y-138657331D01*
X179483091Y-138522483D01*
X179489500Y-138462873D01*
X179489499Y-136834778D01*
X181808500Y-136834778D01*
X181808500Y-137055221D01*
X181842985Y-137272952D01*
X181911103Y-137482603D01*
X181911104Y-137482606D01*
X182011187Y-137679025D01*
X182140752Y-137857358D01*
X182140756Y-137857363D01*
X182190928Y-137907535D01*
X182224413Y-137968858D01*
X182219429Y-138038550D01*
X182177557Y-138094483D01*
X182146581Y-138111398D01*
X182066669Y-138141203D01*
X182066664Y-138141206D01*
X181951455Y-138227452D01*
X181951452Y-138227455D01*
X181865206Y-138342664D01*
X181865202Y-138342671D01*
X181814908Y-138477517D01*
X181810074Y-138522483D01*
X181808501Y-138537123D01*
X181808500Y-138537135D01*
X181808501Y-140432864D01*
X181808501Y-140432876D01*
X181814908Y-140492483D01*
X181865202Y-140627328D01*
X181865206Y-140627335D01*
X181951452Y-140742544D01*
X181951455Y-140742547D01*
X182066664Y-140828793D01*
X182066671Y-140828797D01*
X182201517Y-140879091D01*
X182201516Y-140879091D01*
X182208444Y-140879835D01*
X182261127Y-140885500D01*
X184156872Y-140885499D01*
X184216483Y-140879091D01*
X184351331Y-140828796D01*
X184466546Y-140742546D01*
X184552796Y-140627331D01*
X184603091Y-140492483D01*
X184609500Y-140432873D01*
X184609499Y-138537128D01*
X184603091Y-138477517D01*
X184597630Y-138462876D01*
X184552797Y-138342671D01*
X184552793Y-138342664D01*
X184466547Y-138227455D01*
X184466544Y-138227452D01*
X184351335Y-138141206D01*
X184351328Y-138141202D01*
X184271419Y-138111398D01*
X184215485Y-138069527D01*
X184191068Y-138004062D01*
X184205920Y-137935789D01*
X184227069Y-137907537D01*
X184277242Y-137857365D01*
X184406815Y-137679022D01*
X184506895Y-137482606D01*
X184575015Y-137272951D01*
X184609500Y-137055222D01*
X184609500Y-136834778D01*
X184575015Y-136617049D01*
X184540955Y-136512221D01*
X184506896Y-136407396D01*
X184506895Y-136407393D01*
X184437503Y-136271206D01*
X184406815Y-136210978D01*
X184390260Y-136188192D01*
X184277247Y-136032641D01*
X184277243Y-136032636D01*
X184121363Y-135876756D01*
X184121358Y-135876752D01*
X183943025Y-135747187D01*
X183943024Y-135747186D01*
X183943022Y-135747185D01*
X183880096Y-135715122D01*
X183746606Y-135647104D01*
X183746603Y-135647103D01*
X183536952Y-135578985D01*
X183428086Y-135561742D01*
X183319222Y-135544500D01*
X183098778Y-135544500D01*
X183026201Y-135555995D01*
X182881047Y-135578985D01*
X182671396Y-135647103D01*
X182671393Y-135647104D01*
X182474974Y-135747187D01*
X182296641Y-135876752D01*
X182296636Y-135876756D01*
X182140756Y-136032636D01*
X182140752Y-136032641D01*
X182011187Y-136210974D01*
X181911104Y-136407393D01*
X181911103Y-136407396D01*
X181842985Y-136617047D01*
X181808500Y-136834778D01*
X179489499Y-136834778D01*
X179489499Y-136667128D01*
X179483091Y-136607517D01*
X179432796Y-136472669D01*
X179432795Y-136472668D01*
X179432793Y-136472664D01*
X179346547Y-136357455D01*
X179346544Y-136357452D01*
X179231335Y-136271206D01*
X179231328Y-136271202D01*
X179096482Y-136220908D01*
X179096483Y-136220908D01*
X179036883Y-136214501D01*
X179036881Y-136214500D01*
X179036873Y-136214500D01*
X179036864Y-136214500D01*
X177241129Y-136214500D01*
X177241123Y-136214501D01*
X177181516Y-136220908D01*
X177046671Y-136271202D01*
X177046664Y-136271206D01*
X176931455Y-136357452D01*
X176931452Y-136357455D01*
X176845206Y-136472664D01*
X176845202Y-136472671D01*
X176794908Y-136607517D01*
X176788501Y-136667116D01*
X176788501Y-136667123D01*
X176788500Y-136667135D01*
X176788500Y-138462870D01*
X176788501Y-138462876D01*
X176794908Y-138522483D01*
X176845202Y-138657328D01*
X176845206Y-138657335D01*
X176931452Y-138772544D01*
X176931455Y-138772547D01*
X177046664Y-138858793D01*
X177046671Y-138858797D01*
X177178082Y-138907810D01*
X177234016Y-138949681D01*
X177258433Y-139015145D01*
X177243582Y-139083418D01*
X177222431Y-139111673D01*
X177108889Y-139225215D01*
X176983951Y-139397179D01*
X176887444Y-139586585D01*
X176821753Y-139788760D01*
X176800821Y-139920921D01*
X176788500Y-139998713D01*
X176788500Y-140211287D01*
X176798508Y-140274474D01*
X176818350Y-140399755D01*
X176821754Y-140421243D01*
X176845881Y-140495499D01*
X176887444Y-140623414D01*
X176983951Y-140812820D01*
X177108890Y-140984786D01*
X177259213Y-141135109D01*
X177431179Y-141260048D01*
X177431181Y-141260049D01*
X177431184Y-141260051D01*
X177440493Y-141264794D01*
X177491290Y-141312766D01*
X177508087Y-141380587D01*
X177485552Y-141446722D01*
X177440505Y-141485760D01*
X177431446Y-141490376D01*
X177431440Y-141490380D01*
X177377282Y-141529727D01*
X177377282Y-141529728D01*
X178009591Y-142162037D01*
X177946007Y-142179075D01*
X177831993Y-142244901D01*
X177738901Y-142337993D01*
X177673075Y-142452007D01*
X177656037Y-142515591D01*
X177023728Y-141883282D01*
X177023727Y-141883282D01*
X176984380Y-141937439D01*
X176887904Y-142126782D01*
X176822242Y-142328869D01*
X176822242Y-142328872D01*
X176789000Y-142538753D01*
X176789000Y-142751246D01*
X176822242Y-142961127D01*
X176822242Y-142961130D01*
X176887904Y-143163217D01*
X176984375Y-143352550D01*
X177023728Y-143406716D01*
X177656037Y-142774408D01*
X177673075Y-142837993D01*
X177738901Y-142952007D01*
X177831993Y-143045099D01*
X177946007Y-143110925D01*
X178009590Y-143127962D01*
X177377282Y-143760269D01*
X177377282Y-143760270D01*
X177431449Y-143799624D01*
X177620782Y-143896095D01*
X177822870Y-143961757D01*
X178032754Y-143995000D01*
X178245246Y-143995000D01*
X178455127Y-143961757D01*
X178455130Y-143961757D01*
X178657217Y-143896095D01*
X178662397Y-143893456D01*
X178731065Y-143880555D01*
X178795808Y-143906827D01*
X178836068Y-143963931D01*
X178839065Y-144033737D01*
X178806381Y-144091617D01*
X178772037Y-144125961D01*
X178732924Y-144184500D01*
X178703102Y-144229130D01*
X178673485Y-144273455D01*
X178671288Y-144277567D01*
X178622328Y-144327414D01*
X178554191Y-144342877D01*
X178522926Y-144336825D01*
X178411797Y-144300001D01*
X178411795Y-144300000D01*
X178309010Y-144289500D01*
X177683998Y-144289500D01*
X177683980Y-144289501D01*
X177581203Y-144300000D01*
X177581200Y-144300001D01*
X177414668Y-144355185D01*
X177414663Y-144355187D01*
X177265342Y-144447289D01*
X177171681Y-144540951D01*
X177110358Y-144574436D01*
X177040666Y-144569452D01*
X176996319Y-144540951D01*
X176902657Y-144447289D01*
X176902656Y-144447288D01*
X176753334Y-144355186D01*
X176586797Y-144300001D01*
X176586795Y-144300000D01*
X176484010Y-144289500D01*
X175858998Y-144289500D01*
X175858980Y-144289501D01*
X175756203Y-144300000D01*
X175756200Y-144300001D01*
X175589668Y-144355185D01*
X175589663Y-144355187D01*
X175440342Y-144447289D01*
X175316289Y-144571342D01*
X175224187Y-144720663D01*
X175224185Y-144720668D01*
X175201731Y-144788430D01*
X175169001Y-144887203D01*
X175169001Y-144887204D01*
X175169000Y-144887204D01*
X175158500Y-144989983D01*
X175158500Y-144989991D01*
X175158500Y-145489296D01*
X175158501Y-145872100D01*
X175138817Y-145939139D01*
X175086013Y-145984894D01*
X175034501Y-145996100D01*
X174813775Y-145996100D01*
X174746736Y-145976415D01*
X174700981Y-145923611D01*
X174691037Y-145854453D01*
X174703290Y-145815805D01*
X174716438Y-145790000D01*
X174760557Y-145703412D01*
X174826246Y-145501243D01*
X174859500Y-145291287D01*
X174859500Y-145078713D01*
X174826246Y-144868757D01*
X174760557Y-144666588D01*
X174664051Y-144477184D01*
X174664049Y-144477181D01*
X174664048Y-144477179D01*
X174539109Y-144305213D01*
X174388786Y-144154890D01*
X174216820Y-144029951D01*
X174216115Y-144029591D01*
X174208054Y-144025485D01*
X174157259Y-143977512D01*
X174140463Y-143909692D01*
X174162999Y-143843556D01*
X174208054Y-143804515D01*
X174216816Y-143800051D01*
X174308959Y-143733106D01*
X174388786Y-143675109D01*
X174388788Y-143675106D01*
X174388792Y-143675104D01*
X174539104Y-143524792D01*
X174539106Y-143524788D01*
X174539109Y-143524786D01*
X174664048Y-143352820D01*
X174664047Y-143352820D01*
X174664051Y-143352816D01*
X174760557Y-143163412D01*
X174826246Y-142961243D01*
X174859500Y-142751287D01*
X174859500Y-142538713D01*
X174826246Y-142328757D01*
X174760557Y-142126588D01*
X174664051Y-141937184D01*
X174664049Y-141937181D01*
X174664048Y-141937179D01*
X174539109Y-141765213D01*
X174388786Y-141614890D01*
X174216820Y-141489951D01*
X174208600Y-141485763D01*
X174208054Y-141485485D01*
X174157259Y-141437512D01*
X174140463Y-141369692D01*
X174162999Y-141303556D01*
X174208054Y-141264515D01*
X174216816Y-141260051D01*
X174263856Y-141225875D01*
X174388786Y-141135109D01*
X174388788Y-141135106D01*
X174388792Y-141135104D01*
X174539104Y-140984792D01*
X174539106Y-140984788D01*
X174539109Y-140984786D01*
X174664048Y-140812820D01*
X174664047Y-140812820D01*
X174664051Y-140812816D01*
X174760557Y-140623412D01*
X174826246Y-140421243D01*
X174859500Y-140211287D01*
X174859500Y-139998713D01*
X174826246Y-139788757D01*
X174760557Y-139586588D01*
X174664051Y-139397184D01*
X174664049Y-139397181D01*
X174664048Y-139397179D01*
X174539109Y-139225213D01*
X174425569Y-139111673D01*
X174392084Y-139050350D01*
X174397068Y-138980658D01*
X174438940Y-138924725D01*
X174469915Y-138907810D01*
X174601331Y-138858796D01*
X174716546Y-138772546D01*
X174802796Y-138657331D01*
X174853091Y-138522483D01*
X174859500Y-138462873D01*
X174859499Y-136667128D01*
X174853091Y-136607517D01*
X174802796Y-136472669D01*
X174802795Y-136472668D01*
X174802793Y-136472664D01*
X174716547Y-136357455D01*
X174716544Y-136357452D01*
X174601335Y-136271206D01*
X174601328Y-136271202D01*
X174466482Y-136220908D01*
X174466483Y-136220908D01*
X174406883Y-136214501D01*
X174406881Y-136214500D01*
X174406873Y-136214500D01*
X174406864Y-136214500D01*
X172611129Y-136214500D01*
X172611123Y-136214501D01*
X172551516Y-136220908D01*
X172416671Y-136271202D01*
X172416664Y-136271206D01*
X172301455Y-136357452D01*
X172301452Y-136357455D01*
X172215206Y-136472664D01*
X172215202Y-136472671D01*
X172164908Y-136607517D01*
X172158501Y-136667116D01*
X172158501Y-136667123D01*
X172158500Y-136667135D01*
X172158500Y-138462870D01*
X172158501Y-138462876D01*
X172164908Y-138522483D01*
X172215202Y-138657328D01*
X172215206Y-138657335D01*
X172301452Y-138772544D01*
X172301455Y-138772547D01*
X172416664Y-138858793D01*
X172416671Y-138858797D01*
X172548082Y-138907810D01*
X172604016Y-138949681D01*
X172628433Y-139015145D01*
X172613582Y-139083418D01*
X172592431Y-139111673D01*
X172478889Y-139225215D01*
X172353951Y-139397179D01*
X172257444Y-139586585D01*
X172191753Y-139788760D01*
X172170821Y-139920921D01*
X172158500Y-139998713D01*
X172158500Y-140211287D01*
X172168508Y-140274474D01*
X172188350Y-140399755D01*
X172191754Y-140421243D01*
X172215881Y-140495499D01*
X172257444Y-140623414D01*
X172353951Y-140812820D01*
X172478890Y-140984786D01*
X172629213Y-141135109D01*
X172801182Y-141260050D01*
X172809946Y-141264516D01*
X172860742Y-141312491D01*
X172877536Y-141380312D01*
X172854998Y-141446447D01*
X172809946Y-141485484D01*
X172801182Y-141489949D01*
X172629213Y-141614890D01*
X172478890Y-141765213D01*
X172353951Y-141937179D01*
X172257444Y-142126585D01*
X172191753Y-142328760D01*
X172158500Y-142538713D01*
X172158500Y-142751286D01*
X172191735Y-142961127D01*
X172191754Y-142961243D01*
X172246619Y-143130100D01*
X172257444Y-143163414D01*
X172353951Y-143352820D01*
X172478890Y-143524786D01*
X172629213Y-143675109D01*
X172801182Y-143800050D01*
X172809946Y-143804516D01*
X172860742Y-143852491D01*
X172877536Y-143920312D01*
X172854998Y-143986447D01*
X172809946Y-144025484D01*
X172801182Y-144029949D01*
X172629213Y-144154890D01*
X172478890Y-144305213D01*
X172353951Y-144477179D01*
X172257444Y-144666585D01*
X172191753Y-144868760D01*
X172158500Y-145078713D01*
X172158500Y-145291286D01*
X172189861Y-145489296D01*
X172191754Y-145501243D01*
X172223017Y-145597461D01*
X172257444Y-145703414D01*
X172314710Y-145815805D01*
X172327606Y-145884474D01*
X172301330Y-145949215D01*
X172244223Y-145989472D01*
X172204225Y-145996100D01*
X170183775Y-145996100D01*
X170116736Y-145976415D01*
X170070981Y-145923611D01*
X170061037Y-145854453D01*
X170073290Y-145815805D01*
X170086438Y-145790000D01*
X170130557Y-145703412D01*
X170196246Y-145501243D01*
X170229500Y-145291287D01*
X170229500Y-145078713D01*
X170196246Y-144868757D01*
X170130557Y-144666588D01*
X170034051Y-144477184D01*
X170034049Y-144477181D01*
X170034048Y-144477179D01*
X169909109Y-144305213D01*
X169758786Y-144154890D01*
X169586820Y-144029951D01*
X169586115Y-144029591D01*
X169578054Y-144025485D01*
X169527259Y-143977512D01*
X169510463Y-143909692D01*
X169532999Y-143843556D01*
X169578054Y-143804515D01*
X169586816Y-143800051D01*
X169678959Y-143733106D01*
X169758786Y-143675109D01*
X169758788Y-143675106D01*
X169758792Y-143675104D01*
X169909104Y-143524792D01*
X169909106Y-143524788D01*
X169909109Y-143524786D01*
X170034048Y-143352820D01*
X170034047Y-143352820D01*
X170034051Y-143352816D01*
X170130557Y-143163412D01*
X170196246Y-142961243D01*
X170229500Y-142751287D01*
X170229500Y-142538713D01*
X170196246Y-142328757D01*
X170130557Y-142126588D01*
X170034051Y-141937184D01*
X170034049Y-141937181D01*
X170034048Y-141937179D01*
X169909109Y-141765213D01*
X169758786Y-141614890D01*
X169586820Y-141489951D01*
X169578600Y-141485763D01*
X169578054Y-141485485D01*
X169527259Y-141437512D01*
X169510463Y-141369692D01*
X169532999Y-141303556D01*
X169578054Y-141264515D01*
X169586816Y-141260051D01*
X169633856Y-141225875D01*
X169758786Y-141135109D01*
X169758788Y-141135106D01*
X169758792Y-141135104D01*
X169909104Y-140984792D01*
X169909106Y-140984788D01*
X169909109Y-140984786D01*
X170034048Y-140812820D01*
X170034047Y-140812820D01*
X170034051Y-140812816D01*
X170130557Y-140623412D01*
X170196246Y-140421243D01*
X170229500Y-140211287D01*
X170229500Y-139998713D01*
X170196246Y-139788757D01*
X170130557Y-139586588D01*
X170034051Y-139397184D01*
X170034049Y-139397181D01*
X170034048Y-139397179D01*
X169909109Y-139225213D01*
X169795569Y-139111673D01*
X169762084Y-139050350D01*
X169767068Y-138980658D01*
X169808940Y-138924725D01*
X169839915Y-138907810D01*
X169971331Y-138858796D01*
X170086546Y-138772546D01*
X170172796Y-138657331D01*
X170223091Y-138522483D01*
X170229500Y-138462873D01*
X170229499Y-136667128D01*
X170223091Y-136607517D01*
X170172796Y-136472669D01*
X170172795Y-136472668D01*
X170172793Y-136472664D01*
X170086547Y-136357455D01*
X170086544Y-136357452D01*
X169971335Y-136271206D01*
X169971328Y-136271202D01*
X169836482Y-136220908D01*
X169836483Y-136220908D01*
X169776883Y-136214501D01*
X169776881Y-136214500D01*
X169776873Y-136214500D01*
X169776864Y-136214500D01*
X167981129Y-136214500D01*
X167981123Y-136214501D01*
X167921516Y-136220908D01*
X167786671Y-136271202D01*
X167786664Y-136271206D01*
X167671455Y-136357452D01*
X167671452Y-136357455D01*
X167585206Y-136472664D01*
X167585202Y-136472671D01*
X167534908Y-136607517D01*
X167528501Y-136667116D01*
X167528501Y-136667123D01*
X167528500Y-136667135D01*
X167528500Y-138462870D01*
X167528501Y-138462876D01*
X167534908Y-138522483D01*
X167585202Y-138657328D01*
X167585206Y-138657335D01*
X167671452Y-138772544D01*
X167671455Y-138772547D01*
X167786664Y-138858793D01*
X167786671Y-138858797D01*
X167918082Y-138907810D01*
X167974016Y-138949681D01*
X167998433Y-139015145D01*
X167983582Y-139083418D01*
X167962431Y-139111673D01*
X167848889Y-139225215D01*
X167723951Y-139397179D01*
X167627444Y-139586585D01*
X167561753Y-139788760D01*
X167540821Y-139920921D01*
X167528500Y-139998713D01*
X167528500Y-140211287D01*
X167538508Y-140274474D01*
X167558350Y-140399755D01*
X167561754Y-140421243D01*
X167585881Y-140495499D01*
X167627444Y-140623414D01*
X167723951Y-140812820D01*
X167848890Y-140984786D01*
X167999213Y-141135109D01*
X168171182Y-141260050D01*
X168179946Y-141264516D01*
X168230742Y-141312491D01*
X168247536Y-141380312D01*
X168224998Y-141446447D01*
X168179946Y-141485484D01*
X168171182Y-141489949D01*
X167999213Y-141614890D01*
X167848890Y-141765213D01*
X167723951Y-141937179D01*
X167627444Y-142126585D01*
X167561753Y-142328760D01*
X167528500Y-142538713D01*
X167528500Y-142751286D01*
X167561735Y-142961127D01*
X167561754Y-142961243D01*
X167616619Y-143130100D01*
X167627444Y-143163414D01*
X167723951Y-143352820D01*
X167848890Y-143524786D01*
X167999213Y-143675109D01*
X168171182Y-143800050D01*
X168179946Y-143804516D01*
X168230742Y-143852491D01*
X168247536Y-143920312D01*
X168224998Y-143986447D01*
X168179946Y-144025484D01*
X168171182Y-144029949D01*
X167999213Y-144154890D01*
X167848890Y-144305213D01*
X167723951Y-144477179D01*
X167627444Y-144666585D01*
X167561753Y-144868760D01*
X167528500Y-145078713D01*
X167528500Y-145291286D01*
X167559861Y-145489296D01*
X167561754Y-145501243D01*
X167593017Y-145597461D01*
X167627444Y-145703414D01*
X167684710Y-145815805D01*
X167697606Y-145884474D01*
X167671330Y-145949215D01*
X167614223Y-145989472D01*
X167574225Y-145996100D01*
X165744461Y-145996100D01*
X165677422Y-145976415D01*
X165656780Y-145959781D01*
X164905818Y-145208818D01*
X164872333Y-145147495D01*
X164869499Y-145121137D01*
X164869499Y-144544998D01*
X164869498Y-144544981D01*
X164858999Y-144442203D01*
X164858998Y-144442200D01*
X164840143Y-144385300D01*
X164803814Y-144275666D01*
X164800820Y-144270812D01*
X164787960Y-144249961D01*
X164769500Y-144184867D01*
X164769500Y-142905132D01*
X164787960Y-142840036D01*
X164803814Y-142814334D01*
X164858999Y-142647797D01*
X164869500Y-142545009D01*
X164869499Y-141494992D01*
X164869027Y-141490376D01*
X164858999Y-141392203D01*
X164858998Y-141392200D01*
X164851630Y-141369966D01*
X164803814Y-141225666D01*
X164711712Y-141076344D01*
X164587656Y-140952288D01*
X164439075Y-140860643D01*
X164438336Y-140860187D01*
X164438331Y-140860185D01*
X164269039Y-140804087D01*
X164220362Y-140774062D01*
X164116758Y-140670458D01*
X164083273Y-140609135D01*
X164088257Y-140539443D01*
X164130129Y-140483510D01*
X164167989Y-140465745D01*
X164167583Y-140464496D01*
X164366831Y-140399755D01*
X164549149Y-140306859D01*
X164593721Y-140274474D01*
X163914246Y-139595000D01*
X163920461Y-139595000D01*
X164022194Y-139567741D01*
X164113406Y-139515080D01*
X164187880Y-139440606D01*
X164240541Y-139349394D01*
X164267800Y-139247661D01*
X164267800Y-139241447D01*
X164947274Y-139920921D01*
X164979659Y-139876349D01*
X165072555Y-139694031D01*
X165135790Y-139499417D01*
X165167800Y-139297317D01*
X165167800Y-139092682D01*
X165135790Y-138890582D01*
X165072555Y-138695968D01*
X164979659Y-138513650D01*
X164947274Y-138469077D01*
X164947274Y-138469076D01*
X164267800Y-139148551D01*
X164267800Y-139142339D01*
X164240541Y-139040606D01*
X164187880Y-138949394D01*
X164113406Y-138874920D01*
X164022194Y-138822259D01*
X163920461Y-138795000D01*
X163914246Y-138795000D01*
X164593722Y-138115524D01*
X164593721Y-138115523D01*
X164549159Y-138083147D01*
X164549150Y-138083141D01*
X164366831Y-137990244D01*
X164172217Y-137927009D01*
X163970117Y-137895000D01*
X163765483Y-137895000D01*
X163563382Y-137927009D01*
X163368768Y-137990244D01*
X163186444Y-138083143D01*
X163141877Y-138115523D01*
X163141877Y-138115524D01*
X163821354Y-138795000D01*
X163815139Y-138795000D01*
X163713406Y-138822259D01*
X163622194Y-138874920D01*
X163547720Y-138949394D01*
X163495059Y-139040606D01*
X163467800Y-139142339D01*
X163467800Y-139148553D01*
X162788324Y-138469077D01*
X162750519Y-138472053D01*
X162682141Y-138457689D01*
X162632384Y-138408638D01*
X162629910Y-138403949D01*
X162625901Y-138395942D01*
X162602614Y-138325666D01*
X162510512Y-138176344D01*
X162386456Y-138052288D01*
X162237134Y-137960186D01*
X162070597Y-137905001D01*
X162070595Y-137905000D01*
X161967810Y-137894500D01*
X160767798Y-137894500D01*
X160767781Y-137894501D01*
X160665003Y-137905000D01*
X160665000Y-137905001D01*
X160498468Y-137960185D01*
X160498463Y-137960187D01*
X160349142Y-138052289D01*
X160225089Y-138176342D01*
X160132987Y-138325663D01*
X160132985Y-138325668D01*
X160127351Y-138342671D01*
X160077801Y-138492203D01*
X160077801Y-138492204D01*
X160077800Y-138492204D01*
X160067300Y-138594983D01*
X160067300Y-139795001D01*
X160067301Y-139795018D01*
X160077800Y-139897796D01*
X160077801Y-139897799D01*
X160093481Y-139945116D01*
X160132986Y-140064334D01*
X160225088Y-140213656D01*
X160349144Y-140337712D01*
X160498466Y-140429814D01*
X160665003Y-140484999D01*
X160767791Y-140495500D01*
X161343437Y-140495499D01*
X161410476Y-140515183D01*
X161431118Y-140531818D01*
X161528172Y-140628872D01*
X161561657Y-140690195D01*
X161556673Y-140759887D01*
X161514801Y-140815820D01*
X161479496Y-140834259D01*
X161399878Y-140860642D01*
X161399875Y-140860643D01*
X161250654Y-140952684D01*
X161126684Y-141076654D01*
X161034643Y-141225875D01*
X161034641Y-141225880D01*
X160979494Y-141392302D01*
X160979493Y-141392309D01*
X160969000Y-141495013D01*
X160969000Y-141770000D01*
X161845000Y-141770000D01*
X161912039Y-141789685D01*
X161957794Y-141842489D01*
X161969000Y-141894000D01*
X161969000Y-142146000D01*
X161949315Y-142213039D01*
X161896511Y-142258794D01*
X161845000Y-142270000D01*
X160969001Y-142270000D01*
X160969001Y-142544971D01*
X160969002Y-142544991D01*
X160972200Y-142576300D01*
X160959430Y-142644992D01*
X160911549Y-142695876D01*
X160848842Y-142712900D01*
X160574904Y-142712900D01*
X160527191Y-142722391D01*
X160457599Y-142716164D01*
X160402422Y-142673300D01*
X160379178Y-142607411D01*
X160379000Y-142600774D01*
X160379000Y-142590000D01*
X157379000Y-142590000D01*
X157379000Y-142791096D01*
X157381897Y-142833824D01*
X157427831Y-143018523D01*
X157512390Y-143189022D01*
X157512392Y-143189025D01*
X157631630Y-143337364D01*
X157700884Y-143393031D01*
X157740803Y-143450375D01*
X157743383Y-143520197D01*
X157707805Y-143580329D01*
X157700885Y-143586326D01*
X157631276Y-143642280D01*
X157590356Y-143693187D01*
X157533013Y-143733106D01*
X157493709Y-143739500D01*
X154203499Y-143739500D01*
X154136460Y-143719815D01*
X154090705Y-143667011D01*
X154079499Y-143615500D01*
X154079499Y-143181971D01*
X154079499Y-143181964D01*
X154068886Y-143062582D01*
X154012909Y-142866951D01*
X153918698Y-142686593D01*
X153839937Y-142590000D01*
X153790109Y-142528890D01*
X153674933Y-142434977D01*
X153632407Y-142400302D01*
X153452049Y-142306091D01*
X153452048Y-142306090D01*
X153452045Y-142306089D01*
X153334829Y-142272550D01*
X153256418Y-142250114D01*
X153256415Y-142250113D01*
X153256413Y-142250113D01*
X153190102Y-142244217D01*
X153137037Y-142239500D01*
X153137032Y-142239500D01*
X152020971Y-142239500D01*
X152020958Y-142239501D01*
X152016228Y-142239922D01*
X151947710Y-142226250D01*
X151897460Y-142177704D01*
X151881433Y-142109697D01*
X151904717Y-142043821D01*
X151917564Y-142028733D01*
X152057394Y-141888903D01*
X157379000Y-141888903D01*
X157379000Y-142090000D01*
X158629000Y-142090000D01*
X159129000Y-142090000D01*
X160379000Y-142090000D01*
X160379000Y-141888903D01*
X160376102Y-141846175D01*
X160330168Y-141661476D01*
X160245609Y-141490977D01*
X160245607Y-141490974D01*
X160126367Y-141342633D01*
X160126366Y-141342632D01*
X159978025Y-141223392D01*
X159978022Y-141223390D01*
X159807523Y-141138831D01*
X159622824Y-141092897D01*
X159580097Y-141090000D01*
X159129000Y-141090000D01*
X159129000Y-142090000D01*
X158629000Y-142090000D01*
X158629000Y-141090000D01*
X158177903Y-141090000D01*
X158135175Y-141092897D01*
X157950476Y-141138831D01*
X157779977Y-141223390D01*
X157779974Y-141223392D01*
X157631633Y-141342632D01*
X157631632Y-141342633D01*
X157512392Y-141490974D01*
X157512390Y-141490977D01*
X157427831Y-141661476D01*
X157381897Y-141846175D01*
X157379000Y-141888903D01*
X152057394Y-141888903D01*
X153414480Y-140531817D01*
X153475803Y-140498333D01*
X153502161Y-140495499D01*
X154077802Y-140495499D01*
X154077808Y-140495499D01*
X154180597Y-140484999D01*
X154347134Y-140429814D01*
X154496456Y-140337712D01*
X154620512Y-140213656D01*
X154712614Y-140064334D01*
X154735902Y-139994054D01*
X154739910Y-139986050D01*
X154757860Y-139966772D01*
X154772855Y-139945116D01*
X154781295Y-139941606D01*
X154787525Y-139934917D01*
X154813049Y-139928404D01*
X154837371Y-139918292D01*
X154853634Y-139918048D01*
X154855225Y-139917643D01*
X154856323Y-139918008D01*
X154860519Y-139917946D01*
X154898325Y-139920921D01*
X155577800Y-139241446D01*
X155577800Y-139247661D01*
X155605059Y-139349394D01*
X155657720Y-139440606D01*
X155732194Y-139515080D01*
X155823406Y-139567741D01*
X155925139Y-139595000D01*
X155931353Y-139595000D01*
X155251876Y-140274474D01*
X155296450Y-140306859D01*
X155478768Y-140399755D01*
X155673382Y-140462990D01*
X155875483Y-140495000D01*
X156080117Y-140495000D01*
X156282217Y-140462990D01*
X156476831Y-140399755D01*
X156659149Y-140306859D01*
X156703721Y-140274474D01*
X156024247Y-139595000D01*
X156030461Y-139595000D01*
X156132194Y-139567741D01*
X156223406Y-139515080D01*
X156297880Y-139440606D01*
X156350541Y-139349394D01*
X156377800Y-139247661D01*
X156377800Y-139241447D01*
X157057274Y-139920921D01*
X157089659Y-139876349D01*
X157182555Y-139694031D01*
X157245790Y-139499417D01*
X157277800Y-139297317D01*
X157277800Y-139092682D01*
X157245790Y-138890582D01*
X157182555Y-138695968D01*
X157089659Y-138513650D01*
X157057274Y-138469077D01*
X157057274Y-138469076D01*
X156377800Y-139148551D01*
X156377800Y-139142339D01*
X156350541Y-139040606D01*
X156297880Y-138949394D01*
X156223406Y-138874920D01*
X156132194Y-138822259D01*
X156030461Y-138795000D01*
X156024246Y-138795000D01*
X156703722Y-138115524D01*
X156703721Y-138115523D01*
X156659159Y-138083147D01*
X156659150Y-138083141D01*
X156476831Y-137990244D01*
X156282217Y-137927009D01*
X156080117Y-137895000D01*
X155875483Y-137895000D01*
X155673382Y-137927009D01*
X155478768Y-137990244D01*
X155296444Y-138083143D01*
X155251877Y-138115523D01*
X155251877Y-138115524D01*
X155931354Y-138795000D01*
X155925139Y-138795000D01*
X155823406Y-138822259D01*
X155732194Y-138874920D01*
X155657720Y-138949394D01*
X155605059Y-139040606D01*
X155577800Y-139142339D01*
X155577800Y-139148553D01*
X154898324Y-138469077D01*
X154860519Y-138472053D01*
X154792141Y-138457689D01*
X154742384Y-138408638D01*
X154739910Y-138403949D01*
X154735901Y-138395942D01*
X154712614Y-138325666D01*
X154620512Y-138176344D01*
X154496456Y-138052288D01*
X154347134Y-137960186D01*
X154180597Y-137905001D01*
X154180595Y-137905000D01*
X154077810Y-137894500D01*
X152877798Y-137894500D01*
X152877781Y-137894501D01*
X152775003Y-137905000D01*
X152775000Y-137905001D01*
X152608468Y-137960185D01*
X152608463Y-137960187D01*
X152459142Y-138052289D01*
X152335089Y-138176342D01*
X152242987Y-138325663D01*
X152242985Y-138325668D01*
X152237351Y-138342671D01*
X152187801Y-138492203D01*
X152187801Y-138492204D01*
X152187800Y-138492204D01*
X152177300Y-138594983D01*
X152177300Y-139170637D01*
X152157615Y-139237676D01*
X152140981Y-139258318D01*
X150245681Y-141153618D01*
X150184358Y-141187103D01*
X150114666Y-141182119D01*
X150058733Y-141140247D01*
X150034316Y-141074783D01*
X150034000Y-141065937D01*
X150034000Y-81124000D01*
X150053685Y-81056961D01*
X150106489Y-81011206D01*
X150158000Y-81000000D01*
X187249904Y-81000000D01*
X187316943Y-81019685D01*
G37*
%TD.AperFunction*%
%TD*%
M02*
