%TF.GenerationSoftware,KiCad,Pcbnew,10.0.5*%
%TF.CreationDate,2026-07-29T02:37:21-07:00*%
%TF.ProjectId,cv-em,63762d65-6d2e-46b6-9963-61645f706362,rev?*%
%TF.SameCoordinates,Original*%
%TF.FileFunction,Paste,Bot*%
%TF.FilePolarity,Positive*%
%FSLAX46Y46*%
G04 Gerber Fmt 4.6, Leading zero omitted, Abs format (unit mm)*
G04 Created by KiCad (PCBNEW 10.0.5) date 2026-07-29 02:37:21*
%MOMM*%
%LPD*%
G01*
G04 APERTURE LIST*
G04 Aperture macros list*
%AMRoundRect*
0 Rectangle with rounded corners*
0 $1 Rounding radius*
0 $2 $3 $4 $5 $6 $7 $8 $9 X,Y pos of 4 corners*
0 Add a 4 corners polygon primitive as box body*
4,1,4,$2,$3,$4,$5,$6,$7,$8,$9,$2,$3,0*
0 Add four circle primitives for the rounded corners*
1,1,$1+$1,$2,$3*
1,1,$1+$1,$4,$5*
1,1,$1+$1,$6,$7*
1,1,$1+$1,$8,$9*
0 Add four rect primitives between the rounded corners*
20,1,$1+$1,$2,$3,$4,$5,0*
20,1,$1+$1,$4,$5,$6,$7,0*
20,1,$1+$1,$6,$7,$8,$9,0*
20,1,$1+$1,$8,$9,$2,$3,0*%
G04 Aperture macros list end*
%ADD10RoundRect,0.250000X0.262500X0.450000X-0.262500X0.450000X-0.262500X-0.450000X0.262500X-0.450000X0*%
%ADD11RoundRect,0.250000X0.250000X0.475000X-0.250000X0.475000X-0.250000X-0.475000X0.250000X-0.475000X0*%
%ADD12RoundRect,0.250000X0.475000X-0.250000X0.475000X0.250000X-0.475000X0.250000X-0.475000X-0.250000X0*%
%ADD13RoundRect,0.250000X0.375000X0.625000X-0.375000X0.625000X-0.375000X-0.625000X0.375000X-0.625000X0*%
%ADD14R,1.500000X0.900000*%
%ADD15R,0.900000X1.500000*%
%ADD16R,0.900000X0.900000*%
G04 APERTURE END LIST*
D10*
%TO.C,R1*%
X162821500Y-97540000D03*
X160996500Y-97540000D03*
%TD*%
D11*
%TO.C,Cb*%
X153979000Y-94520000D03*
X152079000Y-94520000D03*
%TD*%
D10*
%TO.C,Rb*%
X182626500Y-94880000D03*
X180801500Y-94880000D03*
%TD*%
D12*
%TO.C,C5*%
X165779000Y-96190000D03*
X165779000Y-94290000D03*
%TD*%
D11*
%TO.C,C3*%
X158469000Y-94520000D03*
X156569000Y-94520000D03*
%TD*%
D13*
%TO.C,F1*%
X109975000Y-102870000D03*
X107175000Y-102870000D03*
%TD*%
D14*
%TO.C,U1*%
X177034000Y-113755000D03*
X177034000Y-115025000D03*
X177034000Y-116295000D03*
X177034000Y-117565000D03*
X177034000Y-118835000D03*
X177034000Y-120105000D03*
X177034000Y-121375000D03*
X177034000Y-122645000D03*
X177034000Y-123915000D03*
X177034000Y-125185000D03*
X177034000Y-126455000D03*
X177034000Y-127725000D03*
X177034000Y-128995000D03*
X177034000Y-130265000D03*
D15*
X173999000Y-131515000D03*
X172729000Y-131515000D03*
X171459000Y-131515000D03*
X170189000Y-131515000D03*
X168919000Y-131515000D03*
X167649000Y-131515000D03*
X166379000Y-131515000D03*
X165109000Y-131515000D03*
X163839000Y-131515000D03*
X162569000Y-131515000D03*
D14*
X159534000Y-130265000D03*
X159534000Y-128995000D03*
X159534000Y-127725000D03*
X159534000Y-126455000D03*
X159534000Y-125185000D03*
X159534000Y-123915000D03*
X159534000Y-122645000D03*
X159534000Y-121375000D03*
X159534000Y-120105000D03*
X159534000Y-118835000D03*
X159534000Y-117565000D03*
X159534000Y-116295000D03*
X159534000Y-115025000D03*
X159534000Y-113755000D03*
D16*
X171184000Y-122875000D03*
X171184000Y-121475000D03*
X171184000Y-120075000D03*
X169784000Y-122875000D03*
X169784000Y-121475000D03*
X169784000Y-120075000D03*
X168384000Y-122875000D03*
X168384000Y-121475000D03*
X168384000Y-120075000D03*
%TD*%
D10*
%TO.C,Rbias1*%
X153921500Y-97540000D03*
X152096500Y-97540000D03*
%TD*%
D11*
%TO.C,C4*%
X162959000Y-94520000D03*
X161059000Y-94520000D03*
%TD*%
D10*
%TO.C,Rbias2*%
X158371500Y-97540000D03*
X156546500Y-97540000D03*
%TD*%
M02*
