%TF.GenerationSoftware,KiCad,Pcbnew,10.0.5*%
%TF.CreationDate,2026-07-29T02:28:53-07:00*%
%TF.ProjectId,cv-pir,63762d70-6972-42e6-9b69-6361645f7063,rev?*%
%TF.SameCoordinates,Original*%
%TF.FileFunction,Legend,Top*%
%TF.FilePolarity,Positive*%
%FSLAX46Y46*%
G04 Gerber Fmt 4.6, Leading zero omitted, Abs format (unit mm)*
G04 Created by KiCad (PCBNEW 10.0.5) date 2026-07-29 02:28:53*
%MOMM*%
%LPD*%
G01*
G04 APERTURE LIST*
%ADD10C,0.150000*%
%ADD11C,0.200000*%
%ADD12C,0.120000*%
G04 APERTURE END LIST*
D10*
X134607142Y-141522842D02*
X134564285Y-141565700D01*
X134564285Y-141565700D02*
X134435713Y-141608557D01*
X134435713Y-141608557D02*
X134349999Y-141608557D01*
X134349999Y-141608557D02*
X134221428Y-141565700D01*
X134221428Y-141565700D02*
X134135713Y-141479985D01*
X134135713Y-141479985D02*
X134092856Y-141394271D01*
X134092856Y-141394271D02*
X134049999Y-141222842D01*
X134049999Y-141222842D02*
X134049999Y-141094271D01*
X134049999Y-141094271D02*
X134092856Y-140922842D01*
X134092856Y-140922842D02*
X134135713Y-140837128D01*
X134135713Y-140837128D02*
X134221428Y-140751414D01*
X134221428Y-140751414D02*
X134349999Y-140708557D01*
X134349999Y-140708557D02*
X134435713Y-140708557D01*
X134435713Y-140708557D02*
X134564285Y-140751414D01*
X134564285Y-140751414D02*
X134607142Y-140794271D01*
X134864285Y-140708557D02*
X135164285Y-141608557D01*
X135164285Y-141608557D02*
X135464285Y-140708557D01*
X135764285Y-141265700D02*
X136450000Y-141265700D01*
X136878571Y-141608557D02*
X136878571Y-140708557D01*
X136878571Y-140708557D02*
X137221428Y-140708557D01*
X137221428Y-140708557D02*
X137307143Y-140751414D01*
X137307143Y-140751414D02*
X137350000Y-140794271D01*
X137350000Y-140794271D02*
X137392857Y-140879985D01*
X137392857Y-140879985D02*
X137392857Y-141008557D01*
X137392857Y-141008557D02*
X137350000Y-141094271D01*
X137350000Y-141094271D02*
X137307143Y-141137128D01*
X137307143Y-141137128D02*
X137221428Y-141179985D01*
X137221428Y-141179985D02*
X136878571Y-141179985D01*
X137778571Y-141608557D02*
X137778571Y-140708557D01*
X138721428Y-141608557D02*
X138421428Y-141179985D01*
X138207142Y-141608557D02*
X138207142Y-140708557D01*
X138207142Y-140708557D02*
X138549999Y-140708557D01*
X138549999Y-140708557D02*
X138635714Y-140751414D01*
X138635714Y-140751414D02*
X138678571Y-140794271D01*
X138678571Y-140794271D02*
X138721428Y-140879985D01*
X138721428Y-140879985D02*
X138721428Y-141008557D01*
X138721428Y-141008557D02*
X138678571Y-141094271D01*
X138678571Y-141094271D02*
X138635714Y-141137128D01*
X138635714Y-141137128D02*
X138549999Y-141179985D01*
X138549999Y-141179985D02*
X138207142Y-141179985D01*
X140992856Y-141608557D02*
X140692856Y-141179985D01*
X140478570Y-141608557D02*
X140478570Y-140708557D01*
X140478570Y-140708557D02*
X140821427Y-140708557D01*
X140821427Y-140708557D02*
X140907142Y-140751414D01*
X140907142Y-140751414D02*
X140949999Y-140794271D01*
X140949999Y-140794271D02*
X140992856Y-140879985D01*
X140992856Y-140879985D02*
X140992856Y-141008557D01*
X140992856Y-141008557D02*
X140949999Y-141094271D01*
X140949999Y-141094271D02*
X140907142Y-141137128D01*
X140907142Y-141137128D02*
X140821427Y-141179985D01*
X140821427Y-141179985D02*
X140478570Y-141179985D01*
X141378570Y-141137128D02*
X141678570Y-141137128D01*
X141807142Y-141608557D02*
X141378570Y-141608557D01*
X141378570Y-141608557D02*
X141378570Y-140708557D01*
X141378570Y-140708557D02*
X141807142Y-140708557D01*
X142064285Y-140708557D02*
X142364285Y-141608557D01*
X142364285Y-141608557D02*
X142664285Y-140708557D01*
X143607142Y-141351414D02*
X144035714Y-141351414D01*
X143521428Y-141608557D02*
X143821428Y-140708557D01*
X143821428Y-140708557D02*
X144121428Y-141608557D01*
X146178571Y-141565700D02*
X146092856Y-141608557D01*
X146092856Y-141608557D02*
X145921428Y-141608557D01*
X145921428Y-141608557D02*
X145835713Y-141565700D01*
X145835713Y-141565700D02*
X145792856Y-141522842D01*
X145792856Y-141522842D02*
X145749999Y-141437128D01*
X145749999Y-141437128D02*
X145749999Y-141179985D01*
X145749999Y-141179985D02*
X145792856Y-141094271D01*
X145792856Y-141094271D02*
X145835713Y-141051414D01*
X145835713Y-141051414D02*
X145921428Y-141008557D01*
X145921428Y-141008557D02*
X146092856Y-141008557D01*
X146092856Y-141008557D02*
X146178571Y-141051414D01*
X146564285Y-141608557D02*
X146564285Y-141008557D01*
X146564285Y-140708557D02*
X146521428Y-140751414D01*
X146521428Y-140751414D02*
X146564285Y-140794271D01*
X146564285Y-140794271D02*
X146607142Y-140751414D01*
X146607142Y-140751414D02*
X146564285Y-140708557D01*
X146564285Y-140708557D02*
X146564285Y-140794271D01*
X146992856Y-141608557D02*
X146992856Y-141008557D01*
X146992856Y-141179985D02*
X147035713Y-141094271D01*
X147035713Y-141094271D02*
X147078571Y-141051414D01*
X147078571Y-141051414D02*
X147164285Y-141008557D01*
X147164285Y-141008557D02*
X147249999Y-141008557D01*
X147935714Y-141565700D02*
X147849999Y-141608557D01*
X147849999Y-141608557D02*
X147678571Y-141608557D01*
X147678571Y-141608557D02*
X147592856Y-141565700D01*
X147592856Y-141565700D02*
X147549999Y-141522842D01*
X147549999Y-141522842D02*
X147507142Y-141437128D01*
X147507142Y-141437128D02*
X147507142Y-141179985D01*
X147507142Y-141179985D02*
X147549999Y-141094271D01*
X147549999Y-141094271D02*
X147592856Y-141051414D01*
X147592856Y-141051414D02*
X147678571Y-141008557D01*
X147678571Y-141008557D02*
X147849999Y-141008557D01*
X147849999Y-141008557D02*
X147935714Y-141051414D01*
X148707143Y-141008557D02*
X148707143Y-141608557D01*
X148321428Y-141008557D02*
X148321428Y-141479985D01*
X148321428Y-141479985D02*
X148364285Y-141565700D01*
X148364285Y-141565700D02*
X148450000Y-141608557D01*
X148450000Y-141608557D02*
X148578571Y-141608557D01*
X148578571Y-141608557D02*
X148664285Y-141565700D01*
X148664285Y-141565700D02*
X148707143Y-141522842D01*
X149050000Y-141008557D02*
X149264286Y-141608557D01*
X149264286Y-141608557D02*
X149478571Y-141008557D01*
X150164285Y-141565700D02*
X150078571Y-141608557D01*
X150078571Y-141608557D02*
X149907143Y-141608557D01*
X149907143Y-141608557D02*
X149821428Y-141565700D01*
X149821428Y-141565700D02*
X149778571Y-141479985D01*
X149778571Y-141479985D02*
X149778571Y-141137128D01*
X149778571Y-141137128D02*
X149821428Y-141051414D01*
X149821428Y-141051414D02*
X149907143Y-141008557D01*
X149907143Y-141008557D02*
X150078571Y-141008557D01*
X150078571Y-141008557D02*
X150164285Y-141051414D01*
X150164285Y-141051414D02*
X150207143Y-141137128D01*
X150207143Y-141137128D02*
X150207143Y-141222842D01*
X150207143Y-141222842D02*
X149778571Y-141308557D01*
X150592857Y-141008557D02*
X150592857Y-141608557D01*
X150592857Y-141094271D02*
X150635714Y-141051414D01*
X150635714Y-141051414D02*
X150721429Y-141008557D01*
X150721429Y-141008557D02*
X150850000Y-141008557D01*
X150850000Y-141008557D02*
X150935714Y-141051414D01*
X150935714Y-141051414D02*
X150978572Y-141137128D01*
X150978572Y-141137128D02*
X150978572Y-141608557D01*
X151278572Y-141008557D02*
X151621429Y-141008557D01*
X151407143Y-140708557D02*
X151407143Y-141479985D01*
X151407143Y-141479985D02*
X151450000Y-141565700D01*
X151450000Y-141565700D02*
X151535715Y-141608557D01*
X151535715Y-141608557D02*
X151621429Y-141608557D01*
X151921429Y-141522842D02*
X151964286Y-141565700D01*
X151964286Y-141565700D02*
X151921429Y-141608557D01*
X151921429Y-141608557D02*
X151878572Y-141565700D01*
X151878572Y-141565700D02*
X151921429Y-141522842D01*
X151921429Y-141522842D02*
X151921429Y-141608557D01*
X152735715Y-141565700D02*
X152650000Y-141608557D01*
X152650000Y-141608557D02*
X152478572Y-141608557D01*
X152478572Y-141608557D02*
X152392857Y-141565700D01*
X152392857Y-141565700D02*
X152350000Y-141522842D01*
X152350000Y-141522842D02*
X152307143Y-141437128D01*
X152307143Y-141437128D02*
X152307143Y-141179985D01*
X152307143Y-141179985D02*
X152350000Y-141094271D01*
X152350000Y-141094271D02*
X152392857Y-141051414D01*
X152392857Y-141051414D02*
X152478572Y-141008557D01*
X152478572Y-141008557D02*
X152650000Y-141008557D01*
X152650000Y-141008557D02*
X152735715Y-141051414D01*
X153250001Y-141608557D02*
X153164286Y-141565700D01*
X153164286Y-141565700D02*
X153121429Y-141522842D01*
X153121429Y-141522842D02*
X153078572Y-141437128D01*
X153078572Y-141437128D02*
X153078572Y-141179985D01*
X153078572Y-141179985D02*
X153121429Y-141094271D01*
X153121429Y-141094271D02*
X153164286Y-141051414D01*
X153164286Y-141051414D02*
X153250001Y-141008557D01*
X153250001Y-141008557D02*
X153378572Y-141008557D01*
X153378572Y-141008557D02*
X153464286Y-141051414D01*
X153464286Y-141051414D02*
X153507144Y-141094271D01*
X153507144Y-141094271D02*
X153550001Y-141179985D01*
X153550001Y-141179985D02*
X153550001Y-141437128D01*
X153550001Y-141437128D02*
X153507144Y-141522842D01*
X153507144Y-141522842D02*
X153464286Y-141565700D01*
X153464286Y-141565700D02*
X153378572Y-141608557D01*
X153378572Y-141608557D02*
X153250001Y-141608557D01*
X153935715Y-141608557D02*
X153935715Y-141008557D01*
X153935715Y-141094271D02*
X153978572Y-141051414D01*
X153978572Y-141051414D02*
X154064287Y-141008557D01*
X154064287Y-141008557D02*
X154192858Y-141008557D01*
X154192858Y-141008557D02*
X154278572Y-141051414D01*
X154278572Y-141051414D02*
X154321430Y-141137128D01*
X154321430Y-141137128D02*
X154321430Y-141608557D01*
X154321430Y-141137128D02*
X154364287Y-141051414D01*
X154364287Y-141051414D02*
X154450001Y-141008557D01*
X154450001Y-141008557D02*
X154578572Y-141008557D01*
X154578572Y-141008557D02*
X154664287Y-141051414D01*
X154664287Y-141051414D02*
X154707144Y-141137128D01*
X154707144Y-141137128D02*
X154707144Y-141608557D01*
D11*
X134314286Y-82930457D02*
X134257143Y-82987600D01*
X134257143Y-82987600D02*
X134085715Y-83044742D01*
X134085715Y-83044742D02*
X133971429Y-83044742D01*
X133971429Y-83044742D02*
X133800000Y-82987600D01*
X133800000Y-82987600D02*
X133685715Y-82873314D01*
X133685715Y-82873314D02*
X133628572Y-82759028D01*
X133628572Y-82759028D02*
X133571429Y-82530457D01*
X133571429Y-82530457D02*
X133571429Y-82359028D01*
X133571429Y-82359028D02*
X133628572Y-82130457D01*
X133628572Y-82130457D02*
X133685715Y-82016171D01*
X133685715Y-82016171D02*
X133800000Y-81901885D01*
X133800000Y-81901885D02*
X133971429Y-81844742D01*
X133971429Y-81844742D02*
X134085715Y-81844742D01*
X134085715Y-81844742D02*
X134257143Y-81901885D01*
X134257143Y-81901885D02*
X134314286Y-81959028D01*
X134828572Y-83044742D02*
X134828572Y-82244742D01*
X134828572Y-81844742D02*
X134771429Y-81901885D01*
X134771429Y-81901885D02*
X134828572Y-81959028D01*
X134828572Y-81959028D02*
X134885715Y-81901885D01*
X134885715Y-81901885D02*
X134828572Y-81844742D01*
X134828572Y-81844742D02*
X134828572Y-81959028D01*
X135400001Y-83044742D02*
X135400001Y-82244742D01*
X135400001Y-82473314D02*
X135457144Y-82359028D01*
X135457144Y-82359028D02*
X135514287Y-82301885D01*
X135514287Y-82301885D02*
X135628572Y-82244742D01*
X135628572Y-82244742D02*
X135742858Y-82244742D01*
X136657144Y-82987600D02*
X136542858Y-83044742D01*
X136542858Y-83044742D02*
X136314286Y-83044742D01*
X136314286Y-83044742D02*
X136200001Y-82987600D01*
X136200001Y-82987600D02*
X136142858Y-82930457D01*
X136142858Y-82930457D02*
X136085715Y-82816171D01*
X136085715Y-82816171D02*
X136085715Y-82473314D01*
X136085715Y-82473314D02*
X136142858Y-82359028D01*
X136142858Y-82359028D02*
X136200001Y-82301885D01*
X136200001Y-82301885D02*
X136314286Y-82244742D01*
X136314286Y-82244742D02*
X136542858Y-82244742D01*
X136542858Y-82244742D02*
X136657144Y-82301885D01*
X137685715Y-82244742D02*
X137685715Y-83044742D01*
X137171429Y-82244742D02*
X137171429Y-82873314D01*
X137171429Y-82873314D02*
X137228572Y-82987600D01*
X137228572Y-82987600D02*
X137342857Y-83044742D01*
X137342857Y-83044742D02*
X137514286Y-83044742D01*
X137514286Y-83044742D02*
X137628572Y-82987600D01*
X137628572Y-82987600D02*
X137685715Y-82930457D01*
X138142857Y-82244742D02*
X138428571Y-83044742D01*
X138428571Y-83044742D02*
X138714286Y-82244742D01*
X139628572Y-82987600D02*
X139514286Y-83044742D01*
X139514286Y-83044742D02*
X139285715Y-83044742D01*
X139285715Y-83044742D02*
X139171429Y-82987600D01*
X139171429Y-82987600D02*
X139114286Y-82873314D01*
X139114286Y-82873314D02*
X139114286Y-82416171D01*
X139114286Y-82416171D02*
X139171429Y-82301885D01*
X139171429Y-82301885D02*
X139285715Y-82244742D01*
X139285715Y-82244742D02*
X139514286Y-82244742D01*
X139514286Y-82244742D02*
X139628572Y-82301885D01*
X139628572Y-82301885D02*
X139685715Y-82416171D01*
X139685715Y-82416171D02*
X139685715Y-82530457D01*
X139685715Y-82530457D02*
X139114286Y-82644742D01*
X140200000Y-82244742D02*
X140200000Y-83044742D01*
X140200000Y-82359028D02*
X140257143Y-82301885D01*
X140257143Y-82301885D02*
X140371428Y-82244742D01*
X140371428Y-82244742D02*
X140542857Y-82244742D01*
X140542857Y-82244742D02*
X140657143Y-82301885D01*
X140657143Y-82301885D02*
X140714286Y-82416171D01*
X140714286Y-82416171D02*
X140714286Y-83044742D01*
X141114285Y-82244742D02*
X141571428Y-82244742D01*
X141285714Y-81844742D02*
X141285714Y-82873314D01*
X141285714Y-82873314D02*
X141342857Y-82987600D01*
X141342857Y-82987600D02*
X141457142Y-83044742D01*
X141457142Y-83044742D02*
X141571428Y-83044742D01*
X142885714Y-83044742D02*
X142885714Y-81844742D01*
X142885714Y-81844742D02*
X143285714Y-82701885D01*
X143285714Y-82701885D02*
X143685714Y-81844742D01*
X143685714Y-81844742D02*
X143685714Y-83044742D01*
X144428571Y-83044742D02*
X144314286Y-82987600D01*
X144314286Y-82987600D02*
X144257143Y-82930457D01*
X144257143Y-82930457D02*
X144200000Y-82816171D01*
X144200000Y-82816171D02*
X144200000Y-82473314D01*
X144200000Y-82473314D02*
X144257143Y-82359028D01*
X144257143Y-82359028D02*
X144314286Y-82301885D01*
X144314286Y-82301885D02*
X144428571Y-82244742D01*
X144428571Y-82244742D02*
X144600000Y-82244742D01*
X144600000Y-82244742D02*
X144714286Y-82301885D01*
X144714286Y-82301885D02*
X144771429Y-82359028D01*
X144771429Y-82359028D02*
X144828571Y-82473314D01*
X144828571Y-82473314D02*
X144828571Y-82816171D01*
X144828571Y-82816171D02*
X144771429Y-82930457D01*
X144771429Y-82930457D02*
X144714286Y-82987600D01*
X144714286Y-82987600D02*
X144600000Y-83044742D01*
X144600000Y-83044742D02*
X144428571Y-83044742D01*
X145171428Y-82244742D02*
X145628571Y-82244742D01*
X145342857Y-81844742D02*
X145342857Y-82873314D01*
X145342857Y-82873314D02*
X145400000Y-82987600D01*
X145400000Y-82987600D02*
X145514285Y-83044742D01*
X145514285Y-83044742D02*
X145628571Y-83044742D01*
X146028571Y-83044742D02*
X146028571Y-82244742D01*
X146028571Y-81844742D02*
X145971428Y-81901885D01*
X145971428Y-81901885D02*
X146028571Y-81959028D01*
X146028571Y-81959028D02*
X146085714Y-81901885D01*
X146085714Y-81901885D02*
X146028571Y-81844742D01*
X146028571Y-81844742D02*
X146028571Y-81959028D01*
X146771428Y-83044742D02*
X146657143Y-82987600D01*
X146657143Y-82987600D02*
X146600000Y-82930457D01*
X146600000Y-82930457D02*
X146542857Y-82816171D01*
X146542857Y-82816171D02*
X146542857Y-82473314D01*
X146542857Y-82473314D02*
X146600000Y-82359028D01*
X146600000Y-82359028D02*
X146657143Y-82301885D01*
X146657143Y-82301885D02*
X146771428Y-82244742D01*
X146771428Y-82244742D02*
X146942857Y-82244742D01*
X146942857Y-82244742D02*
X147057143Y-82301885D01*
X147057143Y-82301885D02*
X147114286Y-82359028D01*
X147114286Y-82359028D02*
X147171428Y-82473314D01*
X147171428Y-82473314D02*
X147171428Y-82816171D01*
X147171428Y-82816171D02*
X147114286Y-82930457D01*
X147114286Y-82930457D02*
X147057143Y-82987600D01*
X147057143Y-82987600D02*
X146942857Y-83044742D01*
X146942857Y-83044742D02*
X146771428Y-83044742D01*
X147685714Y-82244742D02*
X147685714Y-83044742D01*
X147685714Y-82359028D02*
X147742857Y-82301885D01*
X147742857Y-82301885D02*
X147857142Y-82244742D01*
X147857142Y-82244742D02*
X148028571Y-82244742D01*
X148028571Y-82244742D02*
X148142857Y-82301885D01*
X148142857Y-82301885D02*
X148200000Y-82416171D01*
X148200000Y-82416171D02*
X148200000Y-83044742D01*
X149628571Y-82987600D02*
X149800000Y-83044742D01*
X149800000Y-83044742D02*
X150085714Y-83044742D01*
X150085714Y-83044742D02*
X150200000Y-82987600D01*
X150200000Y-82987600D02*
X150257142Y-82930457D01*
X150257142Y-82930457D02*
X150314285Y-82816171D01*
X150314285Y-82816171D02*
X150314285Y-82701885D01*
X150314285Y-82701885D02*
X150257142Y-82587600D01*
X150257142Y-82587600D02*
X150200000Y-82530457D01*
X150200000Y-82530457D02*
X150085714Y-82473314D01*
X150085714Y-82473314D02*
X149857142Y-82416171D01*
X149857142Y-82416171D02*
X149742857Y-82359028D01*
X149742857Y-82359028D02*
X149685714Y-82301885D01*
X149685714Y-82301885D02*
X149628571Y-82187600D01*
X149628571Y-82187600D02*
X149628571Y-82073314D01*
X149628571Y-82073314D02*
X149685714Y-81959028D01*
X149685714Y-81959028D02*
X149742857Y-81901885D01*
X149742857Y-81901885D02*
X149857142Y-81844742D01*
X149857142Y-81844742D02*
X150142857Y-81844742D01*
X150142857Y-81844742D02*
X150314285Y-81901885D01*
X151285714Y-82987600D02*
X151171428Y-83044742D01*
X151171428Y-83044742D02*
X150942857Y-83044742D01*
X150942857Y-83044742D02*
X150828571Y-82987600D01*
X150828571Y-82987600D02*
X150771428Y-82873314D01*
X150771428Y-82873314D02*
X150771428Y-82416171D01*
X150771428Y-82416171D02*
X150828571Y-82301885D01*
X150828571Y-82301885D02*
X150942857Y-82244742D01*
X150942857Y-82244742D02*
X151171428Y-82244742D01*
X151171428Y-82244742D02*
X151285714Y-82301885D01*
X151285714Y-82301885D02*
X151342857Y-82416171D01*
X151342857Y-82416171D02*
X151342857Y-82530457D01*
X151342857Y-82530457D02*
X150771428Y-82644742D01*
X151857142Y-82244742D02*
X151857142Y-83044742D01*
X151857142Y-82359028D02*
X151914285Y-82301885D01*
X151914285Y-82301885D02*
X152028570Y-82244742D01*
X152028570Y-82244742D02*
X152199999Y-82244742D01*
X152199999Y-82244742D02*
X152314285Y-82301885D01*
X152314285Y-82301885D02*
X152371428Y-82416171D01*
X152371428Y-82416171D02*
X152371428Y-83044742D01*
X152885713Y-82987600D02*
X152999999Y-83044742D01*
X152999999Y-83044742D02*
X153228570Y-83044742D01*
X153228570Y-83044742D02*
X153342856Y-82987600D01*
X153342856Y-82987600D02*
X153399999Y-82873314D01*
X153399999Y-82873314D02*
X153399999Y-82816171D01*
X153399999Y-82816171D02*
X153342856Y-82701885D01*
X153342856Y-82701885D02*
X153228570Y-82644742D01*
X153228570Y-82644742D02*
X153057142Y-82644742D01*
X153057142Y-82644742D02*
X152942856Y-82587600D01*
X152942856Y-82587600D02*
X152885713Y-82473314D01*
X152885713Y-82473314D02*
X152885713Y-82416171D01*
X152885713Y-82416171D02*
X152942856Y-82301885D01*
X152942856Y-82301885D02*
X153057142Y-82244742D01*
X153057142Y-82244742D02*
X153228570Y-82244742D01*
X153228570Y-82244742D02*
X153342856Y-82301885D01*
X154085713Y-83044742D02*
X153971428Y-82987600D01*
X153971428Y-82987600D02*
X153914285Y-82930457D01*
X153914285Y-82930457D02*
X153857142Y-82816171D01*
X153857142Y-82816171D02*
X153857142Y-82473314D01*
X153857142Y-82473314D02*
X153914285Y-82359028D01*
X153914285Y-82359028D02*
X153971428Y-82301885D01*
X153971428Y-82301885D02*
X154085713Y-82244742D01*
X154085713Y-82244742D02*
X154257142Y-82244742D01*
X154257142Y-82244742D02*
X154371428Y-82301885D01*
X154371428Y-82301885D02*
X154428571Y-82359028D01*
X154428571Y-82359028D02*
X154485713Y-82473314D01*
X154485713Y-82473314D02*
X154485713Y-82816171D01*
X154485713Y-82816171D02*
X154428571Y-82930457D01*
X154428571Y-82930457D02*
X154371428Y-82987600D01*
X154371428Y-82987600D02*
X154257142Y-83044742D01*
X154257142Y-83044742D02*
X154085713Y-83044742D01*
X154999999Y-83044742D02*
X154999999Y-82244742D01*
X154999999Y-82473314D02*
X155057142Y-82359028D01*
X155057142Y-82359028D02*
X155114285Y-82301885D01*
X155114285Y-82301885D02*
X155228570Y-82244742D01*
X155228570Y-82244742D02*
X155342856Y-82244742D01*
D10*
X164263095Y-88249819D02*
X164263095Y-87249819D01*
X164834523Y-88249819D02*
X164405952Y-87678390D01*
X164834523Y-87249819D02*
X164263095Y-87821247D01*
%TO.C,JP*%
D12*
X163565000Y-92975000D02*
X164945000Y-92975000D01*
X163565000Y-94355000D02*
X163565000Y-92975000D01*
X163565000Y-95625000D02*
X163565000Y-100815000D01*
X163565000Y-95625000D02*
X166325000Y-95625000D01*
X163565000Y-100815000D02*
X166325000Y-100815000D01*
X166325000Y-95625000D02*
X166325000Y-100815000D01*
%TO.C,M1*%
X177515000Y-88685000D02*
X178895000Y-88685000D01*
X177515000Y-90065000D02*
X177515000Y-88685000D01*
X177515000Y-91335000D02*
X177515000Y-99065000D01*
X177515000Y-91335000D02*
X180275000Y-91335000D01*
X177515000Y-99065000D02*
X180275000Y-99065000D01*
X180275000Y-91335000D02*
X180275000Y-99065000D01*
%TO.C,BT1*%
X182145000Y-88685000D02*
X183525000Y-88685000D01*
X182145000Y-90065000D02*
X182145000Y-88685000D01*
X182145000Y-91335000D02*
X182145000Y-99065000D01*
X182145000Y-91335000D02*
X184905000Y-91335000D01*
X182145000Y-99065000D02*
X184905000Y-99065000D01*
X184905000Y-91335000D02*
X184905000Y-99065000D01*
%TO.C,U2*%
X145055000Y-96375000D02*
X148815000Y-96375000D01*
X145055000Y-103195000D02*
X148815000Y-103195000D01*
X148815000Y-96375000D02*
X148815000Y-97635000D01*
X148815000Y-103195000D02*
X148815000Y-101935000D01*
X143775000Y-96475000D02*
X143535000Y-96145000D01*
X144015000Y-96145000D01*
X143775000Y-96475000D01*
G36*
X143775000Y-96475000D02*
G01*
X143535000Y-96145000D01*
X144015000Y-96145000D01*
X143775000Y-96475000D01*
G37*
%TO.C,TP2*%
X142247300Y-139100000D02*
G75*
G02*
X140347300Y-139100000I-950000J0D01*
G01*
X140347300Y-139100000D02*
G75*
G02*
X142247300Y-139100000I950000J0D01*
G01*
%TO.C,C1*%
X147293559Y-89856000D02*
X147923559Y-89856000D01*
X147608559Y-89541000D02*
X147608559Y-90171000D01*
X150793800Y-88465000D02*
X150793800Y-94925000D01*
X150833800Y-88465000D02*
X150833800Y-94925000D01*
X150873800Y-88466000D02*
X150873800Y-94924000D01*
X150913800Y-88467000D02*
X150913800Y-94923000D01*
X150953800Y-88469000D02*
X150953800Y-94921000D01*
X150993800Y-88471000D02*
X150993800Y-94919000D01*
X151033800Y-88474000D02*
X151033800Y-90655000D01*
X151033800Y-92735000D02*
X151033800Y-94916000D01*
X151073800Y-88477000D02*
X151073800Y-90655000D01*
X151073800Y-92735000D02*
X151073800Y-94913000D01*
X151113800Y-88481000D02*
X151113800Y-90655000D01*
X151113800Y-92735000D02*
X151113800Y-94909000D01*
X151153800Y-88485000D02*
X151153800Y-90655000D01*
X151153800Y-92735000D02*
X151153800Y-94905000D01*
X151193800Y-88490000D02*
X151193800Y-90655000D01*
X151193800Y-92735000D02*
X151193800Y-94900000D01*
X151233800Y-88495000D02*
X151233800Y-90655000D01*
X151233800Y-92735000D02*
X151233800Y-94895000D01*
X151273800Y-88500000D02*
X151273800Y-90655000D01*
X151273800Y-92735000D02*
X151273800Y-94890000D01*
X151313800Y-88507000D02*
X151313800Y-90655000D01*
X151313800Y-92735000D02*
X151313800Y-94883000D01*
X151353800Y-88513000D02*
X151353800Y-90655000D01*
X151353800Y-92735000D02*
X151353800Y-94877000D01*
X151393800Y-88521000D02*
X151393800Y-90655000D01*
X151393800Y-92735000D02*
X151393800Y-94869000D01*
X151433800Y-88528000D02*
X151433800Y-90655000D01*
X151433800Y-92735000D02*
X151433800Y-94862000D01*
X151473800Y-88536000D02*
X151473800Y-90655000D01*
X151473800Y-92735000D02*
X151473800Y-94854000D01*
X151513800Y-88545000D02*
X151513800Y-90655000D01*
X151513800Y-92735000D02*
X151513800Y-94845000D01*
X151553800Y-88555000D02*
X151553800Y-90655000D01*
X151553800Y-92735000D02*
X151553800Y-94835000D01*
X151593800Y-88564000D02*
X151593800Y-90655000D01*
X151593800Y-92735000D02*
X151593800Y-94826000D01*
X151633800Y-88575000D02*
X151633800Y-90655000D01*
X151633800Y-92735000D02*
X151633800Y-94815000D01*
X151673800Y-88586000D02*
X151673800Y-90655000D01*
X151673800Y-92735000D02*
X151673800Y-94804000D01*
X151713800Y-88597000D02*
X151713800Y-90655000D01*
X151713800Y-92735000D02*
X151713800Y-94793000D01*
X151753800Y-88609000D02*
X151753800Y-90655000D01*
X151753800Y-92735000D02*
X151753800Y-94781000D01*
X151793800Y-88622000D02*
X151793800Y-90655000D01*
X151793800Y-92735000D02*
X151793800Y-94768000D01*
X151833800Y-88635000D02*
X151833800Y-90655000D01*
X151833800Y-92735000D02*
X151833800Y-94755000D01*
X151873800Y-88648000D02*
X151873800Y-90655000D01*
X151873800Y-92735000D02*
X151873800Y-94742000D01*
X151913800Y-88663000D02*
X151913800Y-90655000D01*
X151913800Y-92735000D02*
X151913800Y-94727000D01*
X151953800Y-88678000D02*
X151953800Y-90655000D01*
X151953800Y-92735000D02*
X151953800Y-94712000D01*
X151993800Y-88693000D02*
X151993800Y-90655000D01*
X151993800Y-92735000D02*
X151993800Y-94697000D01*
X152033800Y-88709000D02*
X152033800Y-90655000D01*
X152033800Y-92735000D02*
X152033800Y-94681000D01*
X152073800Y-88726000D02*
X152073800Y-90655000D01*
X152073800Y-92735000D02*
X152073800Y-94664000D01*
X152113800Y-88743000D02*
X152113800Y-90655000D01*
X152113800Y-92735000D02*
X152113800Y-94647000D01*
X152153800Y-88761000D02*
X152153800Y-90655000D01*
X152153800Y-92735000D02*
X152153800Y-94629000D01*
X152193800Y-88780000D02*
X152193800Y-90655000D01*
X152193800Y-92735000D02*
X152193800Y-94610000D01*
X152233800Y-88799000D02*
X152233800Y-90655000D01*
X152233800Y-92735000D02*
X152233800Y-94591000D01*
X152273800Y-88819000D02*
X152273800Y-90655000D01*
X152273800Y-92735000D02*
X152273800Y-94571000D01*
X152313800Y-88840000D02*
X152313800Y-90655000D01*
X152313800Y-92735000D02*
X152313800Y-94550000D01*
X152353800Y-88861000D02*
X152353800Y-90655000D01*
X152353800Y-92735000D02*
X152353800Y-94529000D01*
X152393800Y-88883000D02*
X152393800Y-90655000D01*
X152393800Y-92735000D02*
X152393800Y-94507000D01*
X152433800Y-88906000D02*
X152433800Y-90655000D01*
X152433800Y-92735000D02*
X152433800Y-94484000D01*
X152473800Y-88930000D02*
X152473800Y-90655000D01*
X152473800Y-92735000D02*
X152473800Y-94460000D01*
X152513800Y-88954000D02*
X152513800Y-90655000D01*
X152513800Y-92735000D02*
X152513800Y-94436000D01*
X152553800Y-88979000D02*
X152553800Y-90655000D01*
X152553800Y-92735000D02*
X152553800Y-94411000D01*
X152593800Y-89005000D02*
X152593800Y-90655000D01*
X152593800Y-92735000D02*
X152593800Y-94385000D01*
X152633800Y-89032000D02*
X152633800Y-90655000D01*
X152633800Y-92735000D02*
X152633800Y-94358000D01*
X152673800Y-89059000D02*
X152673800Y-90655000D01*
X152673800Y-92735000D02*
X152673800Y-94331000D01*
X152713800Y-89088000D02*
X152713800Y-90655000D01*
X152713800Y-92735000D02*
X152713800Y-94302000D01*
X152753800Y-89118000D02*
X152753800Y-90655000D01*
X152753800Y-92735000D02*
X152753800Y-94272000D01*
X152793800Y-89148000D02*
X152793800Y-90655000D01*
X152793800Y-92735000D02*
X152793800Y-94242000D01*
X152833800Y-89179000D02*
X152833800Y-90655000D01*
X152833800Y-92735000D02*
X152833800Y-94211000D01*
X152873800Y-89212000D02*
X152873800Y-90655000D01*
X152873800Y-92735000D02*
X152873800Y-94178000D01*
X152913800Y-89245000D02*
X152913800Y-90655000D01*
X152913800Y-92735000D02*
X152913800Y-94145000D01*
X152953800Y-89280000D02*
X152953800Y-90655000D01*
X152953800Y-92735000D02*
X152953800Y-94110000D01*
X152993800Y-89316000D02*
X152993800Y-90655000D01*
X152993800Y-92735000D02*
X152993800Y-94074000D01*
X153033800Y-89353000D02*
X153033800Y-90655000D01*
X153033800Y-92735000D02*
X153033800Y-94037000D01*
X153073800Y-89391000D02*
X153073800Y-90655000D01*
X153073800Y-92735000D02*
X153073800Y-93999000D01*
X153113800Y-89431000D02*
X153113800Y-93959000D01*
X153153800Y-89472000D02*
X153153800Y-93918000D01*
X153193800Y-89514000D02*
X153193800Y-93876000D01*
X153233800Y-89558000D02*
X153233800Y-93832000D01*
X153273800Y-89604000D02*
X153273800Y-93786000D01*
X153313800Y-89651000D02*
X153313800Y-93739000D01*
X153353800Y-89700000D02*
X153353800Y-93690000D01*
X153393800Y-89752000D02*
X153393800Y-93638000D01*
X153433800Y-89805000D02*
X153433800Y-93585000D01*
X153473800Y-89861000D02*
X153473800Y-93529000D01*
X153513800Y-89920000D02*
X153513800Y-93470000D01*
X153553800Y-89981000D02*
X153553800Y-93409000D01*
X153593800Y-90046000D02*
X153593800Y-93344000D01*
X153633800Y-90114000D02*
X153633800Y-93276000D01*
X153673800Y-90186000D02*
X153673800Y-93204000D01*
X153713800Y-90263000D02*
X153713800Y-93127000D01*
X153753800Y-90345000D02*
X153753800Y-93045000D01*
X153793800Y-90434000D02*
X153793800Y-92956000D01*
X153833800Y-90530000D02*
X153833800Y-92860000D01*
X153873800Y-90637000D02*
X153873800Y-92753000D01*
X153913800Y-90756000D02*
X153913800Y-92634000D01*
X153953800Y-90894000D02*
X153953800Y-92496000D01*
X153993800Y-91062000D02*
X153993800Y-92328000D01*
X154033800Y-91293000D02*
X154033800Y-92097000D01*
X154063800Y-91695000D02*
G75*
G02*
X147523800Y-91695000I-3270000J0D01*
G01*
X147523800Y-91695000D02*
G75*
G02*
X154063800Y-91695000I3270000J0D01*
G01*
%TO.C,TP3*%
X146247300Y-139100000D02*
G75*
G02*
X144347300Y-139100000I-950000J0D01*
G01*
X144347300Y-139100000D02*
G75*
G02*
X146247300Y-139100000I950000J0D01*
G01*
%TO.C,TP1*%
X138247300Y-139100000D02*
G75*
G02*
X136347300Y-139100000I-950000J0D01*
G01*
X136347300Y-139100000D02*
G75*
G02*
X138247300Y-139100000I950000J0D01*
G01*
%TO.C,K1*%
X103445000Y-88445000D02*
X103445000Y-95045000D01*
X103445000Y-88445000D02*
X123245000Y-88445000D01*
X103445000Y-97445000D02*
X103445000Y-104045000D01*
X107495000Y-96295000D02*
X106695000Y-96295000D01*
X107495000Y-96295000D02*
X107495000Y-99895000D01*
X108395000Y-102295000D02*
X110895000Y-102295000D01*
X108895000Y-94495000D02*
X112895000Y-94495000D01*
X108895000Y-98095000D02*
X108895000Y-94495000D01*
X110895000Y-90295000D02*
X108395000Y-90295000D01*
X110895000Y-90295000D02*
X110895000Y-94495000D01*
X110895000Y-98095000D02*
X110895000Y-102295000D01*
X112895000Y-94495000D02*
X112895000Y-98095000D01*
X112895000Y-98095000D02*
X108895000Y-94495000D01*
X112895000Y-98095000D02*
X108895000Y-98095000D01*
X114295000Y-96295000D02*
X114295000Y-99895000D01*
X114295000Y-96295000D02*
X115795000Y-96295000D01*
X114295000Y-99895000D02*
X107495000Y-99895000D01*
X115795000Y-96295000D02*
X120395000Y-93795000D01*
X118995000Y-92045000D02*
X118995000Y-94545000D01*
X118995000Y-100445000D02*
X118995000Y-97995000D01*
X123245000Y-88445000D02*
X123245000Y-104045000D01*
X123245000Y-104045000D02*
X103445000Y-104045000D01*
%TO.C,D1*%
X165865000Y-89895000D02*
X166885000Y-89895000D01*
X167665000Y-88425000D02*
X167665000Y-91365000D01*
X167785000Y-88425000D02*
X167785000Y-91365000D01*
X167905000Y-88425000D02*
X167905000Y-91365000D01*
X173345000Y-89895000D02*
X172325000Y-89895000D01*
X166885000Y-88425000D02*
X172325000Y-88425000D01*
X172325000Y-91365000D01*
X166885000Y-91365000D01*
X166885000Y-88425000D01*
%TO.C,U3*%
X138795000Y-88485000D02*
X138795000Y-93685000D01*
X138795000Y-93685000D02*
X144095000Y-93685000D01*
X140445000Y-88485000D02*
X138795000Y-88485000D01*
X144095000Y-88485000D02*
X142445000Y-88485000D01*
X144095000Y-93685000D02*
X144095000Y-88485000D01*
X142445000Y-88485000D02*
G75*
G02*
X140445000Y-88485000I-1000000J0D01*
G01*
%TO.C,LED1*%
X137435000Y-95949000D02*
X137435000Y-96105000D01*
X137435000Y-98265000D02*
X137435000Y-98421000D01*
X137435000Y-95949484D02*
G75*
G02*
X140666437Y-96105000I1560000J-1235516D01*
G01*
X137954039Y-96105000D02*
G75*
G02*
X140035961Y-96105000I1040961J-1080000D01*
G01*
X140035961Y-98265000D02*
G75*
G02*
X137954039Y-98265000I-1040961J1080000D01*
G01*
X140666437Y-98265000D02*
G75*
G02*
X137435000Y-98420516I-1671437J1080000D01*
G01*
%TO.C,LED0*%
X168665000Y-93559000D02*
X168665000Y-93715000D01*
X168665000Y-95875000D02*
X168665000Y-96031000D01*
X168665000Y-93559484D02*
G75*
G02*
X171896437Y-93715000I1560000J-1235516D01*
G01*
X169184039Y-93715000D02*
G75*
G02*
X171265961Y-93715000I1040961J-1080000D01*
G01*
X171265961Y-95875000D02*
G75*
G02*
X169184039Y-95875000I-1040961J1080000D01*
G01*
X171896437Y-95875000D02*
G75*
G02*
X168665000Y-96030516I-1671437J1080000D01*
G01*
%TO.C,C2*%
X155183559Y-89856000D02*
X155813559Y-89856000D01*
X155498559Y-89541000D02*
X155498559Y-90171000D01*
X158683800Y-88465000D02*
X158683800Y-94925000D01*
X158723800Y-88465000D02*
X158723800Y-94925000D01*
X158763800Y-88466000D02*
X158763800Y-94924000D01*
X158803800Y-88467000D02*
X158803800Y-94923000D01*
X158843800Y-88469000D02*
X158843800Y-94921000D01*
X158883800Y-88471000D02*
X158883800Y-94919000D01*
X158923800Y-88474000D02*
X158923800Y-90655000D01*
X158923800Y-92735000D02*
X158923800Y-94916000D01*
X158963800Y-88477000D02*
X158963800Y-90655000D01*
X158963800Y-92735000D02*
X158963800Y-94913000D01*
X159003800Y-88481000D02*
X159003800Y-90655000D01*
X159003800Y-92735000D02*
X159003800Y-94909000D01*
X159043800Y-88485000D02*
X159043800Y-90655000D01*
X159043800Y-92735000D02*
X159043800Y-94905000D01*
X159083800Y-88490000D02*
X159083800Y-90655000D01*
X159083800Y-92735000D02*
X159083800Y-94900000D01*
X159123800Y-88495000D02*
X159123800Y-90655000D01*
X159123800Y-92735000D02*
X159123800Y-94895000D01*
X159163800Y-88500000D02*
X159163800Y-90655000D01*
X159163800Y-92735000D02*
X159163800Y-94890000D01*
X159203800Y-88507000D02*
X159203800Y-90655000D01*
X159203800Y-92735000D02*
X159203800Y-94883000D01*
X159243800Y-88513000D02*
X159243800Y-90655000D01*
X159243800Y-92735000D02*
X159243800Y-94877000D01*
X159283800Y-88521000D02*
X159283800Y-90655000D01*
X159283800Y-92735000D02*
X159283800Y-94869000D01*
X159323800Y-88528000D02*
X159323800Y-90655000D01*
X159323800Y-92735000D02*
X159323800Y-94862000D01*
X159363800Y-88536000D02*
X159363800Y-90655000D01*
X159363800Y-92735000D02*
X159363800Y-94854000D01*
X159403800Y-88545000D02*
X159403800Y-90655000D01*
X159403800Y-92735000D02*
X159403800Y-94845000D01*
X159443800Y-88555000D02*
X159443800Y-90655000D01*
X159443800Y-92735000D02*
X159443800Y-94835000D01*
X159483800Y-88564000D02*
X159483800Y-90655000D01*
X159483800Y-92735000D02*
X159483800Y-94826000D01*
X159523800Y-88575000D02*
X159523800Y-90655000D01*
X159523800Y-92735000D02*
X159523800Y-94815000D01*
X159563800Y-88586000D02*
X159563800Y-90655000D01*
X159563800Y-92735000D02*
X159563800Y-94804000D01*
X159603800Y-88597000D02*
X159603800Y-90655000D01*
X159603800Y-92735000D02*
X159603800Y-94793000D01*
X159643800Y-88609000D02*
X159643800Y-90655000D01*
X159643800Y-92735000D02*
X159643800Y-94781000D01*
X159683800Y-88622000D02*
X159683800Y-90655000D01*
X159683800Y-92735000D02*
X159683800Y-94768000D01*
X159723800Y-88635000D02*
X159723800Y-90655000D01*
X159723800Y-92735000D02*
X159723800Y-94755000D01*
X159763800Y-88648000D02*
X159763800Y-90655000D01*
X159763800Y-92735000D02*
X159763800Y-94742000D01*
X159803800Y-88663000D02*
X159803800Y-90655000D01*
X159803800Y-92735000D02*
X159803800Y-94727000D01*
X159843800Y-88678000D02*
X159843800Y-90655000D01*
X159843800Y-92735000D02*
X159843800Y-94712000D01*
X159883800Y-88693000D02*
X159883800Y-90655000D01*
X159883800Y-92735000D02*
X159883800Y-94697000D01*
X159923800Y-88709000D02*
X159923800Y-90655000D01*
X159923800Y-92735000D02*
X159923800Y-94681000D01*
X159963800Y-88726000D02*
X159963800Y-90655000D01*
X159963800Y-92735000D02*
X159963800Y-94664000D01*
X160003800Y-88743000D02*
X160003800Y-90655000D01*
X160003800Y-92735000D02*
X160003800Y-94647000D01*
X160043800Y-88761000D02*
X160043800Y-90655000D01*
X160043800Y-92735000D02*
X160043800Y-94629000D01*
X160083800Y-88780000D02*
X160083800Y-90655000D01*
X160083800Y-92735000D02*
X160083800Y-94610000D01*
X160123800Y-88799000D02*
X160123800Y-90655000D01*
X160123800Y-92735000D02*
X160123800Y-94591000D01*
X160163800Y-88819000D02*
X160163800Y-90655000D01*
X160163800Y-92735000D02*
X160163800Y-94571000D01*
X160203800Y-88840000D02*
X160203800Y-90655000D01*
X160203800Y-92735000D02*
X160203800Y-94550000D01*
X160243800Y-88861000D02*
X160243800Y-90655000D01*
X160243800Y-92735000D02*
X160243800Y-94529000D01*
X160283800Y-88883000D02*
X160283800Y-90655000D01*
X160283800Y-92735000D02*
X160283800Y-94507000D01*
X160323800Y-88906000D02*
X160323800Y-90655000D01*
X160323800Y-92735000D02*
X160323800Y-94484000D01*
X160363800Y-88930000D02*
X160363800Y-90655000D01*
X160363800Y-92735000D02*
X160363800Y-94460000D01*
X160403800Y-88954000D02*
X160403800Y-90655000D01*
X160403800Y-92735000D02*
X160403800Y-94436000D01*
X160443800Y-88979000D02*
X160443800Y-90655000D01*
X160443800Y-92735000D02*
X160443800Y-94411000D01*
X160483800Y-89005000D02*
X160483800Y-90655000D01*
X160483800Y-92735000D02*
X160483800Y-94385000D01*
X160523800Y-89032000D02*
X160523800Y-90655000D01*
X160523800Y-92735000D02*
X160523800Y-94358000D01*
X160563800Y-89059000D02*
X160563800Y-90655000D01*
X160563800Y-92735000D02*
X160563800Y-94331000D01*
X160603800Y-89088000D02*
X160603800Y-90655000D01*
X160603800Y-92735000D02*
X160603800Y-94302000D01*
X160643800Y-89118000D02*
X160643800Y-90655000D01*
X160643800Y-92735000D02*
X160643800Y-94272000D01*
X160683800Y-89148000D02*
X160683800Y-90655000D01*
X160683800Y-92735000D02*
X160683800Y-94242000D01*
X160723800Y-89179000D02*
X160723800Y-90655000D01*
X160723800Y-92735000D02*
X160723800Y-94211000D01*
X160763800Y-89212000D02*
X160763800Y-90655000D01*
X160763800Y-92735000D02*
X160763800Y-94178000D01*
X160803800Y-89245000D02*
X160803800Y-90655000D01*
X160803800Y-92735000D02*
X160803800Y-94145000D01*
X160843800Y-89280000D02*
X160843800Y-90655000D01*
X160843800Y-92735000D02*
X160843800Y-94110000D01*
X160883800Y-89316000D02*
X160883800Y-90655000D01*
X160883800Y-92735000D02*
X160883800Y-94074000D01*
X160923800Y-89353000D02*
X160923800Y-90655000D01*
X160923800Y-92735000D02*
X160923800Y-94037000D01*
X160963800Y-89391000D02*
X160963800Y-90655000D01*
X160963800Y-92735000D02*
X160963800Y-93999000D01*
X161003800Y-89431000D02*
X161003800Y-93959000D01*
X161043800Y-89472000D02*
X161043800Y-93918000D01*
X161083800Y-89514000D02*
X161083800Y-93876000D01*
X161123800Y-89558000D02*
X161123800Y-93832000D01*
X161163800Y-89604000D02*
X161163800Y-93786000D01*
X161203800Y-89651000D02*
X161203800Y-93739000D01*
X161243800Y-89700000D02*
X161243800Y-93690000D01*
X161283800Y-89752000D02*
X161283800Y-93638000D01*
X161323800Y-89805000D02*
X161323800Y-93585000D01*
X161363800Y-89861000D02*
X161363800Y-93529000D01*
X161403800Y-89920000D02*
X161403800Y-93470000D01*
X161443800Y-89981000D02*
X161443800Y-93409000D01*
X161483800Y-90046000D02*
X161483800Y-93344000D01*
X161523800Y-90114000D02*
X161523800Y-93276000D01*
X161563800Y-90186000D02*
X161563800Y-93204000D01*
X161603800Y-90263000D02*
X161603800Y-93127000D01*
X161643800Y-90345000D02*
X161643800Y-93045000D01*
X161683800Y-90434000D02*
X161683800Y-92956000D01*
X161723800Y-90530000D02*
X161723800Y-92860000D01*
X161763800Y-90637000D02*
X161763800Y-92753000D01*
X161803800Y-90756000D02*
X161803800Y-92634000D01*
X161843800Y-90894000D02*
X161843800Y-92496000D01*
X161883800Y-91062000D02*
X161883800Y-92328000D01*
X161923800Y-91293000D02*
X161923800Y-92097000D01*
X161953800Y-91695000D02*
G75*
G02*
X155413800Y-91695000I-3270000J0D01*
G01*
X155413800Y-91695000D02*
G75*
G02*
X161953800Y-91695000I3270000J0D01*
G01*
%TO.C,J1*%
X124865000Y-88685000D02*
X135105000Y-88685000D01*
X124865000Y-91705000D02*
X135105000Y-91705000D01*
X124865000Y-96605000D02*
X135105000Y-96605000D01*
X124865000Y-98105000D02*
X135105000Y-98105000D01*
X124865000Y-98725000D02*
X124865000Y-88685000D01*
X127185000Y-98725000D02*
X124865000Y-98725000D01*
X135105000Y-88685000D02*
X135105000Y-98725000D01*
X135105000Y-98725000D02*
X127785000Y-98725000D01*
X127485000Y-98725000D02*
X127925000Y-99335000D01*
X127045000Y-99335000D01*
X127485000Y-98725000D01*
G36*
X127925000Y-99335000D02*
G01*
X127045000Y-99335000D01*
X127485000Y-98725000D01*
X127925000Y-99335000D01*
G37*
%TD*%
M02*
