%TF.GenerationSoftware,KiCad,Pcbnew,10.0.5*%
%TF.CreationDate,2026-07-29T11:19:19-07:00*%
%TF.ProjectId,cv-pir,63762d70-6972-42e6-9b69-6361645f7063,rev?*%
%TF.SameCoordinates,Original*%
%TF.FileFunction,Copper,L2,Bot*%
%TF.FilePolarity,Positive*%
%FSLAX46Y46*%
G04 Gerber Fmt 4.6, Leading zero omitted, Abs format (unit mm)*
G04 Created by KiCad (PCBNEW 10.0.5) date 2026-07-29 11:19:19*
%MOMM*%
%LPD*%
G01*
G04 APERTURE LIST*
G04 Aperture macros list*
%AMRoundRect*
0 Rectangle with rounded corners*
0 $1 Rounding radius*
0 $2 $3 $4 $5 $6 $7 $8 $9 X,Y pos of 4 corners*
0 Add a 4 corners polygon primitive as box body*
4,1,4,$2,$3,$4,$5,$6,$7,$8,$9,$2,$3,0*
0 Add four circle primitives for the rounded corners*
1,1,$1+$1,$2,$3*
1,1,$1+$1,$4,$5*
1,1,$1+$1,$6,$7*
1,1,$1+$1,$8,$9*
0 Add four rect primitives between the rounded corners*
20,1,$1+$1,$2,$3,$4,$5,0*
20,1,$1+$1,$4,$5,$6,$7,0*
20,1,$1+$1,$6,$7,$8,$9,0*
20,1,$1+$1,$8,$9,$2,$3,0*%
G04 Aperture macros list end*
%TA.AperFunction,HeatsinkPad*%
%ADD10C,0.600000*%
%TD*%
%TA.AperFunction,ComponentPad*%
%ADD11C,3.000000*%
%TD*%
%TA.AperFunction,ComponentPad*%
%ADD12C,2.500000*%
%TD*%
%TA.AperFunction,ComponentPad*%
%ADD13RoundRect,0.250000X-0.550000X-0.550000X0.550000X-0.550000X0.550000X0.550000X-0.550000X0.550000X0*%
%TD*%
%TA.AperFunction,ComponentPad*%
%ADD14C,1.600000*%
%TD*%
%TA.AperFunction,ComponentPad*%
%ADD15R,1.800000X1.800000*%
%TD*%
%TA.AperFunction,ComponentPad*%
%ADD16C,1.800000*%
%TD*%
%TA.AperFunction,ComponentPad*%
%ADD17RoundRect,0.249999X-0.850001X-0.850001X0.850001X-0.850001X0.850001X0.850001X-0.850001X0.850001X0*%
%TD*%
%TA.AperFunction,ComponentPad*%
%ADD18C,2.200000*%
%TD*%
%TA.AperFunction,ComponentPad*%
%ADD19R,1.700000X1.700000*%
%TD*%
%TA.AperFunction,ComponentPad*%
%ADD20C,1.700000*%
%TD*%
%TA.AperFunction,ComponentPad*%
%ADD21RoundRect,0.250000X-1.050000X-1.050000X1.050000X-1.050000X1.050000X1.050000X-1.050000X1.050000X0*%
%TD*%
%TA.AperFunction,ComponentPad*%
%ADD22C,2.600000*%
%TD*%
%TA.AperFunction,SMDPad,CuDef*%
%ADD23RoundRect,0.250000X0.262500X0.450000X-0.262500X0.450000X-0.262500X-0.450000X0.262500X-0.450000X0*%
%TD*%
%TA.AperFunction,SMDPad,CuDef*%
%ADD24RoundRect,0.375000X0.625000X0.375000X-0.625000X0.375000X-0.625000X-0.375000X0.625000X-0.375000X0*%
%TD*%
%TA.AperFunction,SMDPad,CuDef*%
%ADD25RoundRect,0.500000X0.500000X1.400000X-0.500000X1.400000X-0.500000X-1.400000X0.500000X-1.400000X0*%
%TD*%
%TA.AperFunction,SMDPad,CuDef*%
%ADD26RoundRect,0.250000X0.250000X0.475000X-0.250000X0.475000X-0.250000X-0.475000X0.250000X-0.475000X0*%
%TD*%
%TA.AperFunction,SMDPad,CuDef*%
%ADD27RoundRect,0.150000X0.150000X-0.587500X0.150000X0.587500X-0.150000X0.587500X-0.150000X-0.587500X0*%
%TD*%
%TA.AperFunction,ViaPad*%
%ADD28C,0.800000*%
%TD*%
%TA.AperFunction,ViaPad*%
%ADD29C,0.600000*%
%TD*%
%TA.AperFunction,Conductor*%
%ADD30C,0.800000*%
%TD*%
%TA.AperFunction,Conductor*%
%ADD31C,0.250000*%
%TD*%
G04 APERTURE END LIST*
D10*
%TO.P,U1,39*%
%TO.N,GND*%
X124490000Y-108150000D03*
X125890000Y-108150000D03*
X123790000Y-107450000D03*
X125190000Y-107450000D03*
X126590000Y-107450000D03*
X124490000Y-106750000D03*
X125890000Y-106750000D03*
X123790000Y-106050000D03*
X125190000Y-106050000D03*
X126590000Y-106050000D03*
X124490000Y-105350000D03*
X125890000Y-105350000D03*
%TD*%
D11*
%TO.P,K1,1*%
%TO.N,N$K1.1*%
X152345000Y-96245000D03*
D12*
%TO.P,K1,2*%
%TO.N,N$K1.2*%
X154295000Y-102295000D03*
D11*
%TO.P,K1,3*%
%TO.N,N$K1.3*%
X166495000Y-102295000D03*
%TO.P,K1,4*%
%TO.N,N$K1.4*%
X166545000Y-90245000D03*
D12*
%TO.P,K1,5*%
%TO.N,N$K1.5*%
X154295000Y-90295000D03*
%TD*%
D13*
%TO.P,U3,1*%
%TO.N,N$U3.1*%
X163945000Y-106805000D03*
D14*
%TO.P,U3,2*%
%TO.N,N$U3.2*%
X163945000Y-109345000D03*
%TO.P,U3,3*%
%TO.N,N$U3.3*%
X171565000Y-109345000D03*
%TO.P,U3,4*%
%TO.N,N$U3.4*%
X171565000Y-106805000D03*
%TD*%
D15*
%TO.P,LED0,1*%
%TO.N,N$LED0.1*%
X138655000Y-125505000D03*
D16*
%TO.P,LED0,2*%
%TO.N,N$LED0.2*%
X141195000Y-125505000D03*
%TD*%
D13*
%TO.P,C1,1*%
%TO.N,+5V*%
X165033800Y-115365000D03*
D14*
%TO.P,C1,2*%
%TO.N,GND*%
X167533800Y-115365000D03*
%TD*%
D17*
%TO.P,D1,1*%
%TO.N,N$D1.1*%
X160035000Y-121455000D03*
D18*
%TO.P,D1,2*%
%TO.N,N$D1.2*%
X170195000Y-121455000D03*
%TD*%
D13*
%TO.P,C2,1*%
%TO.N,+3V3*%
X152943800Y-120585000D03*
D14*
%TO.P,C2,2*%
%TO.N,GND*%
X155443800Y-120585000D03*
%TD*%
D19*
%TO.P,BT1,1*%
%TO.N,+5V*%
X117315000Y-125065000D03*
D20*
%TO.P,BT1,2*%
%TO.N,GND*%
X119855000Y-125065000D03*
%TO.P,BT1,3*%
X122395000Y-125065000D03*
%TO.P,BT1,4*%
X124935000Y-125065000D03*
%TD*%
D19*
%TO.P,JP,1*%
%TO.N,UART_TX*%
X129565000Y-125065000D03*
D20*
%TO.P,JP,2*%
%TO.N,UART_RX*%
X132105000Y-125065000D03*
%TO.P,JP,3*%
%TO.N,GND*%
X134645000Y-125065000D03*
%TD*%
D15*
%TO.P,LED1,1*%
%TO.N,GND*%
X144585000Y-125505000D03*
D16*
%TO.P,LED1,2*%
%TO.N,LED_PIN_A*%
X147125000Y-125505000D03*
%TD*%
D19*
%TO.P,M1,1*%
%TO.N,+5V*%
X105065000Y-125065000D03*
D20*
%TO.P,M1,2*%
%TO.N,PIR_PIN*%
X107605000Y-125065000D03*
%TO.P,M1,3*%
%TO.N,GND*%
X110145000Y-125065000D03*
%TO.P,M1,4*%
X112685000Y-125065000D03*
%TD*%
D21*
%TO.P,J1,1*%
%TO.N,+5V*%
X153795000Y-110995000D03*
D22*
%TO.P,J1,2*%
%TO.N,GND*%
X158795000Y-110995000D03*
%TD*%
D23*
%TO.P,R2,1*%
%TO.N,+3V3*%
X153387500Y-114290000D03*
%TO.P,R2,2*%
%TO.N,EN*%
X151562500Y-114290000D03*
%TD*%
%TO.P,R3,1*%
%TO.N,+3V3*%
X157837500Y-114290000D03*
%TO.P,R3,2*%
%TO.N,PIR_PIN*%
X156012500Y-114290000D03*
%TD*%
%TO.P,R4,1*%
%TO.N,N$R4.1*%
X162287500Y-115140000D03*
%TO.P,R4,2*%
%TO.N,N$R4.2*%
X160462500Y-115140000D03*
%TD*%
%TO.P,R1,1*%
%TO.N,LED_PIN*%
X163732500Y-112150000D03*
%TO.P,R1,2*%
%TO.N,LED_PIN_A*%
X161907500Y-112150000D03*
%TD*%
D24*
%TO.P,U2,1*%
%TO.N,GND*%
X156620000Y-124595000D03*
%TO.P,U2,2*%
%TO.N,+3V3*%
X156620000Y-126895000D03*
D25*
X150320000Y-126895000D03*
D24*
%TO.P,U2,3*%
%TO.N,+5V*%
X156620000Y-129195000D03*
%TD*%
D26*
%TO.P,C4,1*%
%TO.N,+3V3*%
X157935000Y-105820000D03*
%TO.P,C4,2*%
%TO.N,GND*%
X156035000Y-105820000D03*
%TD*%
D23*
%TO.P,R5,1*%
%TO.N,N$R5.1*%
X171972500Y-117100000D03*
%TO.P,R5,2*%
%TO.N,N$R5.2*%
X170147500Y-117100000D03*
%TD*%
D26*
%TO.P,C3,1*%
%TO.N,+3V3*%
X153445000Y-105820000D03*
%TO.P,C3,2*%
%TO.N,GND*%
X151545000Y-105820000D03*
%TD*%
D27*
%TO.P,Q1,1*%
%TO.N,N$Q1.1*%
X172030000Y-114067500D03*
%TO.P,Q1,2*%
%TO.N,N$Q1.2*%
X170130000Y-114067500D03*
%TO.P,Q1,3*%
%TO.N,N$Q1.3*%
X171080000Y-112192500D03*
%TD*%
D23*
%TO.P,R6,1*%
%TO.N,N$R6.1*%
X153387500Y-117280000D03*
%TO.P,R6,2*%
%TO.N,N$R6.2*%
X151562500Y-117280000D03*
%TD*%
D28*
%TO.N,GND*%
X145750000Y-89750000D03*
X159750000Y-100250000D03*
X117470000Y-94350000D03*
X110750000Y-93250000D03*
X159750000Y-93250000D03*
X128250000Y-107250000D03*
X149250000Y-131750000D03*
X166750000Y-93250000D03*
X124750000Y-110750000D03*
X131750000Y-82750000D03*
X173750000Y-82750000D03*
X135250000Y-117750000D03*
X117750000Y-117750000D03*
X114250000Y-131750000D03*
X145750000Y-114250000D03*
X156250000Y-93250000D03*
X149250000Y-93250000D03*
X163250000Y-89750000D03*
X142250000Y-93250000D03*
X138750000Y-89750000D03*
X107250000Y-103750000D03*
X124750000Y-103750000D03*
X121250000Y-82750000D03*
X131750000Y-131750000D03*
X170250000Y-124750000D03*
X173750000Y-128250000D03*
X159750000Y-96750000D03*
X149250000Y-114250000D03*
X152750000Y-86250000D03*
X110750000Y-131750000D03*
X114250000Y-128250000D03*
X152750000Y-124750000D03*
X138750000Y-86250000D03*
X142250000Y-86250000D03*
X107250000Y-89750000D03*
X142250000Y-96750000D03*
X135250000Y-93250000D03*
X173750000Y-103750000D03*
X114250000Y-86250000D03*
X138750000Y-121250000D03*
X103750000Y-100250000D03*
X163250000Y-131750000D03*
X170250000Y-86250000D03*
X152750000Y-93250000D03*
X121250000Y-117750000D03*
X134645000Y-127315000D03*
X166750000Y-96750000D03*
X128250000Y-86250000D03*
X152750000Y-135250000D03*
X163250000Y-117750000D03*
X114935000Y-125065000D03*
X166750000Y-128250000D03*
X119855000Y-127315000D03*
X124750000Y-117750000D03*
X173750000Y-86250000D03*
X163250000Y-96750000D03*
X163250000Y-128250000D03*
X121250000Y-128250000D03*
X138750000Y-128250000D03*
X145750000Y-82750000D03*
X166750000Y-117750000D03*
X159750000Y-117750000D03*
X159750000Y-135250000D03*
X170250000Y-103750000D03*
X149250000Y-121250000D03*
X110750000Y-89750000D03*
X163250000Y-86250000D03*
X107250000Y-131750000D03*
X121250000Y-100250000D03*
X173750000Y-107250000D03*
X145750000Y-128250000D03*
X131750000Y-110750000D03*
X142250000Y-100250000D03*
X156250000Y-117750000D03*
X124750000Y-93250000D03*
X103750000Y-89750000D03*
X145750000Y-100250000D03*
X142250000Y-128250000D03*
X124750000Y-128250000D03*
X173750000Y-124750000D03*
X145750000Y-131750000D03*
X110750000Y-117750000D03*
X145750000Y-96750000D03*
X107250000Y-117750000D03*
X156250000Y-100250000D03*
X121250000Y-86250000D03*
X163250000Y-124750000D03*
X138750000Y-82750000D03*
X117750000Y-93250000D03*
X103750000Y-110750000D03*
X131750000Y-89750000D03*
X128250000Y-117750000D03*
X110750000Y-121250000D03*
X135250000Y-121250000D03*
X114250000Y-121250000D03*
X138750000Y-114250000D03*
X170250000Y-93250000D03*
X159750000Y-89750000D03*
X159750000Y-103750000D03*
X138750000Y-131750000D03*
X149250000Y-86250000D03*
X163250000Y-135250000D03*
X166750000Y-107250000D03*
X163250000Y-100250000D03*
X149250000Y-89750000D03*
X156250000Y-86250000D03*
X124750000Y-89750000D03*
X124750000Y-121250000D03*
X156250000Y-96750000D03*
X145750000Y-135250000D03*
X149250000Y-82750000D03*
X135250000Y-82750000D03*
X159750000Y-86250000D03*
X142250000Y-107250000D03*
X173750000Y-117750000D03*
X107250000Y-93250000D03*
X128250000Y-135250000D03*
X128250000Y-131750000D03*
X124750000Y-86250000D03*
X131750000Y-100250000D03*
X103750000Y-117750000D03*
X142250000Y-82750000D03*
X163250000Y-103750000D03*
X114250000Y-117750000D03*
X159750000Y-124750000D03*
X117750000Y-121250000D03*
X114250000Y-89750000D03*
X163250000Y-82750000D03*
X128250000Y-121250000D03*
X117750000Y-135250000D03*
X128250000Y-110750000D03*
X156250000Y-135250000D03*
X138750000Y-103750000D03*
X145750000Y-117750000D03*
X170250000Y-128250000D03*
X173750000Y-93250000D03*
X121250000Y-135250000D03*
X117750000Y-82750000D03*
X107250000Y-114250000D03*
X145750000Y-103750000D03*
X131750000Y-107250000D03*
X173750000Y-121250000D03*
X145750000Y-107250000D03*
X149250000Y-96750000D03*
X107250000Y-107250000D03*
X103750000Y-96750000D03*
X138750000Y-110750000D03*
X145750000Y-121250000D03*
X152750000Y-100250000D03*
X124750000Y-100250000D03*
X138750000Y-117750000D03*
X149250000Y-135250000D03*
X142250000Y-110750000D03*
X138750000Y-93250000D03*
X114250000Y-93250000D03*
X166750000Y-135250000D03*
X135250000Y-131750000D03*
X173750000Y-96750000D03*
X131750000Y-86250000D03*
X166750000Y-124750000D03*
X107250000Y-86250000D03*
X163250000Y-121250000D03*
X152750000Y-82750000D03*
X142250000Y-131750000D03*
X121250000Y-131750000D03*
X173750000Y-89750000D03*
X117750000Y-128250000D03*
X173750000Y-131750000D03*
X142250000Y-121250000D03*
X110145000Y-127315000D03*
X124750000Y-135250000D03*
X142250000Y-89750000D03*
X142250000Y-117750000D03*
X159750000Y-131750000D03*
X170250000Y-82750000D03*
X103750000Y-114250000D03*
X114250000Y-135250000D03*
X128250000Y-103750000D03*
X103750000Y-131750000D03*
X107250000Y-82750000D03*
X145750000Y-110750000D03*
X156250000Y-82750000D03*
X149920000Y-105820000D03*
X149250000Y-107250000D03*
X145750000Y-93250000D03*
X166750000Y-131750000D03*
X170250000Y-89750000D03*
X170250000Y-131750000D03*
X166750000Y-86250000D03*
X103750000Y-93250000D03*
X110750000Y-86250000D03*
X110750000Y-135250000D03*
X107250000Y-121250000D03*
X110750000Y-128250000D03*
X173750000Y-114250000D03*
X114250000Y-82750000D03*
X138750000Y-107250000D03*
X156250000Y-131750000D03*
X107250000Y-128250000D03*
X128250000Y-82750000D03*
X128250000Y-100250000D03*
X107250000Y-96750000D03*
X131750000Y-117750000D03*
X103750000Y-121250000D03*
X158795000Y-108295000D03*
X159750000Y-128250000D03*
X128250000Y-89750000D03*
X117750000Y-89750000D03*
X135250000Y-86250000D03*
X166750000Y-82750000D03*
X131750000Y-128250000D03*
X142250000Y-114250000D03*
X156035000Y-107945000D03*
X131750000Y-121250000D03*
X117470000Y-116150000D03*
X166750000Y-121250000D03*
X131750000Y-93250000D03*
X128250000Y-128250000D03*
X137380000Y-110965000D03*
X107250000Y-100250000D03*
X152750000Y-131750000D03*
X149250000Y-117750000D03*
X173750000Y-100250000D03*
X163250000Y-93250000D03*
X103750000Y-103750000D03*
X149250000Y-103750000D03*
X107250000Y-110750000D03*
X107250000Y-135250000D03*
X121250000Y-103750000D03*
X170250000Y-96750000D03*
X124750000Y-131750000D03*
X142250000Y-103750000D03*
X138750000Y-100250000D03*
X124750000Y-82750000D03*
X103750000Y-128250000D03*
X121250000Y-121250000D03*
X128250000Y-93250000D03*
X103750000Y-107250000D03*
X149250000Y-100250000D03*
X138750000Y-96750000D03*
X122395000Y-127315000D03*
X127185000Y-125065000D03*
X156620000Y-122695000D03*
X144585000Y-127805000D03*
X117750000Y-86250000D03*
X131750000Y-103750000D03*
X121250000Y-93250000D03*
X121250000Y-110750000D03*
X142250000Y-135250000D03*
X170250000Y-100250000D03*
X121250000Y-107250000D03*
X166750000Y-110750000D03*
X149250000Y-110750000D03*
X135250000Y-89750000D03*
X173750000Y-110750000D03*
X145750000Y-86250000D03*
X159750000Y-82750000D03*
X159750000Y-107250000D03*
X103750000Y-135250000D03*
X121250000Y-89750000D03*
X135250000Y-128250000D03*
X117750000Y-131750000D03*
%TO.N,+3V3*%
X125543300Y-116189000D03*
X152330100Y-104392200D03*
D29*
%TO.N,EN*%
X121046500Y-111805000D03*
%TO.N,PIR_PIN*%
X133330900Y-110590000D03*
%TO.N,LED_PIN*%
X133650700Y-100209600D03*
%TO.N,UART_TX*%
X122361700Y-112195000D03*
D28*
%TO.N,+5V*%
X133515900Y-128967500D03*
D29*
%TO.N,LED_PIN_A*%
X156037500Y-116557500D03*
X153396000Y-118779200D03*
%TD*%
%TO.N,+3V3*%
D30*
X154034900Y-115835500D02*
X153952800Y-115835500D01*
X154410000Y-126895000D02*
X154410000Y-122051200D01*
X153952800Y-114290000D02*
X153952800Y-115835500D01*
X153445000Y-104392200D02*
X152330100Y-104392200D01*
X125896800Y-115835500D02*
X125543300Y-116189000D01*
X150320000Y-126895000D02*
X154410000Y-126895000D01*
X154410000Y-126895000D02*
X156620000Y-126895000D01*
X154410000Y-122051200D02*
X152943800Y-120585000D01*
X157837500Y-114043800D02*
X156628600Y-112834900D01*
X156731800Y-104392200D02*
X153445000Y-104392200D01*
X156628600Y-112834900D02*
X155407900Y-112834900D01*
X157935000Y-105820000D02*
X157935000Y-105595400D01*
X157837500Y-114290000D02*
X157837500Y-114043800D01*
X155407900Y-112834900D02*
X153952800Y-114290000D01*
X153952800Y-115835500D02*
X125896800Y-115835500D01*
X153952800Y-114290000D02*
X153387500Y-114290000D01*
X154608900Y-116409500D02*
X154034900Y-115835500D01*
X153445000Y-104392200D02*
X153445000Y-105820000D01*
X154608900Y-118983000D02*
X154608900Y-116409500D01*
X152943800Y-120585000D02*
X153006900Y-120585000D01*
X153006900Y-120585000D02*
X154608900Y-118983000D01*
X157935000Y-105595400D02*
X156731800Y-104392200D01*
%TO.N,EN*%
D31*
X149077500Y-111805000D02*
X122858000Y-111805000D01*
X122102200Y-111568300D02*
X121865500Y-111805000D01*
X151562500Y-114290000D02*
X149077500Y-111805000D01*
X122621300Y-111568300D02*
X122102200Y-111568300D01*
X121865500Y-111805000D02*
X121046500Y-111805000D01*
X122858000Y-111805000D02*
X122621300Y-111568300D01*
%TO.N,PIR_PIN*%
X160540500Y-113278300D02*
X158388100Y-115430700D01*
X159507900Y-109251200D02*
X160540500Y-110283800D01*
X134669700Y-109251200D02*
X159507900Y-109251200D01*
X158388100Y-115430700D02*
X157153200Y-115430700D01*
X160540500Y-110283800D02*
X160540500Y-113278300D01*
X133330900Y-110590000D02*
X134669700Y-109251200D01*
X157153200Y-115430700D02*
X156012500Y-114290000D01*
%TO.N,LED_PIN*%
X160622400Y-109039900D02*
X160622400Y-106375000D01*
X160622400Y-106375000D02*
X153626100Y-99378700D01*
X163732500Y-112150000D02*
X160622400Y-109039900D01*
X134481600Y-99378700D02*
X133650700Y-100209600D01*
X153626100Y-99378700D02*
X134481600Y-99378700D01*
%TO.N,UART_TX*%
X129565000Y-125065000D02*
X129565000Y-123888300D01*
X129565000Y-123888300D02*
X122361700Y-116685000D01*
X122361700Y-116685000D02*
X122361700Y-112195000D01*
%TO.N,+5V*%
D30*
X156307500Y-129507500D02*
X133668200Y-129507500D01*
X117315000Y-126616700D02*
X116575400Y-127356300D01*
X156620000Y-129195000D02*
X156307500Y-129507500D01*
X133668200Y-129507500D02*
X133515900Y-129355200D01*
X165033800Y-115365000D02*
X165033800Y-121029900D01*
X133515900Y-129355200D02*
X133515900Y-128967500D01*
X156868700Y-129195000D02*
X156620000Y-129195000D01*
X106653700Y-123476300D02*
X115726300Y-123476300D01*
X115726300Y-123476300D02*
X117315000Y-125065000D01*
X105065000Y-125065000D02*
X106653700Y-123476300D01*
X165033800Y-121029900D02*
X156868700Y-129195000D01*
X117221900Y-129355200D02*
X133515900Y-129355200D01*
X116575400Y-127356300D02*
X116575400Y-128708700D01*
X116575400Y-128708700D02*
X117221900Y-129355200D01*
X117315000Y-125065000D02*
X117315000Y-126616700D01*
%TO.N,LED_PIN_A*%
D31*
X156037500Y-116557500D02*
X160600300Y-116557500D01*
X161426700Y-115731100D02*
X161426700Y-112630800D01*
X152645300Y-118779200D02*
X153396000Y-118779200D01*
X147125000Y-125505000D02*
X150414100Y-122215900D01*
X150414100Y-122215900D02*
X150414100Y-121010400D01*
X150414100Y-121010400D02*
X152645300Y-118779200D01*
X160600300Y-116557500D02*
X161426700Y-115731100D01*
X161426700Y-112630800D02*
X161907500Y-112150000D01*
%TD*%
%TA.AperFunction,Conductor*%
%TO.N,GND*%
G36*
X151937539Y-109896385D02*
G01*
X151983294Y-109949189D01*
X151994500Y-110000700D01*
X151994500Y-112095001D01*
X151994501Y-112095018D01*
X152005000Y-112197796D01*
X152005001Y-112197799D01*
X152043934Y-112315288D01*
X152060186Y-112364334D01*
X152152288Y-112513656D01*
X152276344Y-112637712D01*
X152425666Y-112729814D01*
X152592203Y-112784999D01*
X152694991Y-112795500D01*
X153874437Y-112795499D01*
X153941476Y-112815184D01*
X153987231Y-112867987D01*
X153997175Y-112937146D01*
X153968150Y-113000702D01*
X153962118Y-113007180D01*
X153904799Y-113064499D01*
X153843476Y-113097984D01*
X153804516Y-113100176D01*
X153700011Y-113089500D01*
X153074998Y-113089500D01*
X153074980Y-113089501D01*
X152972203Y-113100000D01*
X152972200Y-113100001D01*
X152805668Y-113155185D01*
X152805663Y-113155187D01*
X152656342Y-113247289D01*
X152562681Y-113340951D01*
X152501358Y-113374436D01*
X152431666Y-113369452D01*
X152387319Y-113340951D01*
X152293657Y-113247289D01*
X152293656Y-113247288D01*
X152144334Y-113155186D01*
X151977797Y-113100001D01*
X151977795Y-113100000D01*
X151875016Y-113089500D01*
X151297952Y-113089500D01*
X151230913Y-113069815D01*
X151210271Y-113053181D01*
X149570428Y-111413338D01*
X149570425Y-111413334D01*
X149570425Y-111413335D01*
X149563358Y-111406268D01*
X149563358Y-111406267D01*
X149476233Y-111319142D01*
X149476232Y-111319141D01*
X149476231Y-111319140D01*
X149405703Y-111272015D01*
X149395014Y-111264872D01*
X149373787Y-111250688D01*
X149346280Y-111239295D01*
X149279874Y-111211789D01*
X149279871Y-111211787D01*
X149279870Y-111211787D01*
X149259958Y-111203539D01*
X149259954Y-111203537D01*
X149259952Y-111203537D01*
X149259948Y-111203536D01*
X149259944Y-111203535D01*
X149199249Y-111191462D01*
X149199248Y-111191462D01*
X149139111Y-111179500D01*
X149139107Y-111179500D01*
X149139106Y-111179500D01*
X134131750Y-111179500D01*
X134064711Y-111159815D01*
X134018956Y-111107011D01*
X134009012Y-111037853D01*
X134028648Y-110986608D01*
X134040294Y-110969179D01*
X134100637Y-110823497D01*
X134122758Y-110712282D01*
X134155140Y-110650375D01*
X134156633Y-110648855D01*
X134892471Y-109913019D01*
X134953794Y-109879534D01*
X134980152Y-109876700D01*
X151870500Y-109876700D01*
X151937539Y-109896385D01*
G37*
%TD.AperFunction*%
%TA.AperFunction,Conductor*%
G36*
X174616943Y-81019685D02*
G01*
X174626377Y-81026389D01*
X174751573Y-81124474D01*
X174762781Y-81134404D01*
X174965596Y-81337219D01*
X174975525Y-81348426D01*
X175073611Y-81473623D01*
X175099460Y-81538532D01*
X175100000Y-81550094D01*
X175100000Y-137449903D01*
X175080315Y-137516942D01*
X175073611Y-137526376D01*
X174975525Y-137651573D01*
X174965595Y-137662781D01*
X174762781Y-137865595D01*
X174751574Y-137875524D01*
X174626378Y-137973610D01*
X174561466Y-137999460D01*
X174549904Y-138000000D01*
X102124000Y-138000000D01*
X102056961Y-137980315D01*
X102011206Y-137927511D01*
X102000000Y-137876000D01*
X102000000Y-134881995D01*
X170298200Y-134881995D01*
X170298200Y-135118004D01*
X170298201Y-135118020D01*
X170329006Y-135352010D01*
X170390094Y-135579993D01*
X170480414Y-135798045D01*
X170480419Y-135798056D01*
X170551377Y-135920957D01*
X170598427Y-136002450D01*
X170598429Y-136002453D01*
X170598430Y-136002454D01*
X170742106Y-136189697D01*
X170742112Y-136189704D01*
X170908995Y-136356587D01*
X170909001Y-136356592D01*
X171096250Y-136500273D01*
X171227618Y-136576118D01*
X171300643Y-136618280D01*
X171300648Y-136618282D01*
X171300651Y-136618284D01*
X171518707Y-136708606D01*
X171746686Y-136769693D01*
X171980689Y-136800500D01*
X171980696Y-136800500D01*
X172216704Y-136800500D01*
X172216711Y-136800500D01*
X172450714Y-136769693D01*
X172678693Y-136708606D01*
X172896749Y-136618284D01*
X173101150Y-136500273D01*
X173288399Y-136356592D01*
X173455292Y-136189699D01*
X173598973Y-136002450D01*
X173716984Y-135798049D01*
X173807306Y-135579993D01*
X173868393Y-135352014D01*
X173899200Y-135118011D01*
X173899200Y-134881989D01*
X173868393Y-134647986D01*
X173807306Y-134420007D01*
X173716984Y-134201951D01*
X173716982Y-134201948D01*
X173716980Y-134201943D01*
X173674818Y-134128918D01*
X173598973Y-133997550D01*
X173455292Y-133810301D01*
X173455287Y-133810295D01*
X173288404Y-133643412D01*
X173288397Y-133643406D01*
X173101154Y-133499730D01*
X173101153Y-133499729D01*
X173101150Y-133499727D01*
X173019657Y-133452677D01*
X172896756Y-133381719D01*
X172896745Y-133381714D01*
X172678693Y-133291394D01*
X172450710Y-133230306D01*
X172216720Y-133199501D01*
X172216717Y-133199500D01*
X172216711Y-133199500D01*
X171980689Y-133199500D01*
X171980683Y-133199500D01*
X171980679Y-133199501D01*
X171746689Y-133230306D01*
X171518706Y-133291394D01*
X171300654Y-133381714D01*
X171300643Y-133381719D01*
X171096245Y-133499730D01*
X170909002Y-133643406D01*
X170908995Y-133643412D01*
X170742112Y-133810295D01*
X170742106Y-133810302D01*
X170598430Y-133997545D01*
X170480419Y-134201943D01*
X170480414Y-134201954D01*
X170390094Y-134420006D01*
X170329006Y-134647989D01*
X170298201Y-134881979D01*
X170298200Y-134881995D01*
X102000000Y-134881995D01*
X102000000Y-124167135D01*
X103714500Y-124167135D01*
X103714500Y-125962870D01*
X103714501Y-125962876D01*
X103720908Y-126022483D01*
X103771202Y-126157328D01*
X103771206Y-126157335D01*
X103857452Y-126272544D01*
X103857455Y-126272547D01*
X103972664Y-126358793D01*
X103972671Y-126358797D01*
X104107517Y-126409091D01*
X104107516Y-126409091D01*
X104114444Y-126409835D01*
X104167127Y-126415500D01*
X105962872Y-126415499D01*
X106022483Y-126409091D01*
X106157331Y-126358796D01*
X106272546Y-126272546D01*
X106358796Y-126157331D01*
X106407810Y-126025916D01*
X106449681Y-125969984D01*
X106515145Y-125945566D01*
X106583418Y-125960417D01*
X106611673Y-125981569D01*
X106725213Y-126095109D01*
X106897179Y-126220048D01*
X106897181Y-126220049D01*
X106897184Y-126220051D01*
X107086588Y-126316557D01*
X107288757Y-126382246D01*
X107498713Y-126415500D01*
X107498714Y-126415500D01*
X107711286Y-126415500D01*
X107711287Y-126415500D01*
X107921243Y-126382246D01*
X108123412Y-126316557D01*
X108312816Y-126220051D01*
X108399138Y-126157335D01*
X108484786Y-126095109D01*
X108484788Y-126095106D01*
X108484792Y-126095104D01*
X108635104Y-125944792D01*
X108635106Y-125944788D01*
X108635109Y-125944786D01*
X108720890Y-125826717D01*
X108760051Y-125772816D01*
X108764793Y-125763508D01*
X108812763Y-125712711D01*
X108880583Y-125695911D01*
X108946719Y-125718445D01*
X108985763Y-125763500D01*
X108990373Y-125772547D01*
X109029728Y-125826716D01*
X109662036Y-125194407D01*
X109679075Y-125257993D01*
X109744901Y-125372007D01*
X109837993Y-125465099D01*
X109952007Y-125530925D01*
X110015590Y-125547962D01*
X109383282Y-126180269D01*
X109383282Y-126180270D01*
X109437449Y-126219624D01*
X109626782Y-126316095D01*
X109828870Y-126381757D01*
X110038754Y-126415000D01*
X110251246Y-126415000D01*
X110461127Y-126381757D01*
X110461130Y-126381757D01*
X110663217Y-126316095D01*
X110852554Y-126219622D01*
X110906716Y-126180270D01*
X110906717Y-126180270D01*
X110274408Y-125547962D01*
X110337993Y-125530925D01*
X110452007Y-125465099D01*
X110545099Y-125372007D01*
X110610925Y-125257993D01*
X110627962Y-125194409D01*
X111260270Y-125826717D01*
X111260270Y-125826716D01*
X111299622Y-125772554D01*
X111304514Y-125762954D01*
X111352488Y-125712157D01*
X111420308Y-125695361D01*
X111486444Y-125717897D01*
X111525486Y-125762954D01*
X111530375Y-125772550D01*
X111569728Y-125826716D01*
X112202036Y-125194407D01*
X112219075Y-125257993D01*
X112284901Y-125372007D01*
X112377993Y-125465099D01*
X112492007Y-125530925D01*
X112555590Y-125547962D01*
X111923282Y-126180269D01*
X111923282Y-126180270D01*
X111977449Y-126219624D01*
X112166782Y-126316095D01*
X112368870Y-126381757D01*
X112578754Y-126415000D01*
X112791246Y-126415000D01*
X113001127Y-126381757D01*
X113001130Y-126381757D01*
X113203217Y-126316095D01*
X113392554Y-126219622D01*
X113446716Y-126180270D01*
X113446717Y-126180270D01*
X112814408Y-125547962D01*
X112877993Y-125530925D01*
X112992007Y-125465099D01*
X113085099Y-125372007D01*
X113150925Y-125257993D01*
X113167962Y-125194409D01*
X113800270Y-125826717D01*
X113800270Y-125826716D01*
X113839622Y-125772554D01*
X113936095Y-125583217D01*
X114001757Y-125381130D01*
X114001757Y-125381127D01*
X114035000Y-125171246D01*
X114035000Y-124958753D01*
X114001757Y-124748872D01*
X114001757Y-124748869D01*
X113934588Y-124542146D01*
X113935996Y-124541688D01*
X113929237Y-124478775D01*
X113960516Y-124416298D01*
X114020607Y-124380650D01*
X114051265Y-124376800D01*
X115301938Y-124376800D01*
X115368977Y-124396485D01*
X115389619Y-124413119D01*
X115928181Y-124951681D01*
X115961666Y-125013004D01*
X115964500Y-125039362D01*
X115964500Y-125962870D01*
X115964501Y-125962876D01*
X115970908Y-126022483D01*
X116021202Y-126157328D01*
X116021206Y-126157335D01*
X116107451Y-126272543D01*
X116107452Y-126272544D01*
X116107454Y-126272546D01*
X116151994Y-126305889D01*
X116193864Y-126361821D01*
X116198848Y-126431513D01*
X116165363Y-126492835D01*
X115875937Y-126782261D01*
X115862151Y-126802895D01*
X115777390Y-126929746D01*
X115777385Y-126929756D01*
X115743446Y-127011693D01*
X115709506Y-127093630D01*
X115709503Y-127093642D01*
X115690190Y-127190735D01*
X115690191Y-127190736D01*
X115674900Y-127267611D01*
X115674900Y-128797396D01*
X115709503Y-128971358D01*
X115709505Y-128971366D01*
X115736482Y-129036494D01*
X115777385Y-129135244D01*
X115801826Y-129171823D01*
X115801827Y-129171824D01*
X115801830Y-129171828D01*
X115857285Y-129254822D01*
X115875937Y-129282738D01*
X115875938Y-129282739D01*
X116647864Y-130054664D01*
X116647866Y-130054666D01*
X116706936Y-130094133D01*
X116706939Y-130094136D01*
X116795350Y-130153211D01*
X116795353Y-130153213D01*
X116877293Y-130187153D01*
X116959234Y-130221095D01*
X117133203Y-130255699D01*
X117133207Y-130255700D01*
X117133208Y-130255700D01*
X117133209Y-130255700D01*
X133129488Y-130255700D01*
X133196527Y-130275385D01*
X133198380Y-130276599D01*
X133241647Y-130305510D01*
X133241649Y-130305511D01*
X133241651Y-130305512D01*
X133241653Y-130305513D01*
X133257387Y-130312030D01*
X133405534Y-130373395D01*
X133579503Y-130407999D01*
X133579507Y-130408000D01*
X133579508Y-130408000D01*
X133579509Y-130408000D01*
X155721793Y-130408000D01*
X155751719Y-130411665D01*
X155876106Y-130442599D01*
X155876107Y-130442599D01*
X155876111Y-130442600D01*
X155918877Y-130445500D01*
X157321122Y-130445499D01*
X157363889Y-130442600D01*
X157548693Y-130396641D01*
X157634674Y-130353998D01*
X157719295Y-130312031D01*
X157719295Y-130312030D01*
X157719296Y-130312030D01*
X157867722Y-130192722D01*
X157987030Y-130044296D01*
X158071641Y-129873693D01*
X158117600Y-129688889D01*
X158120500Y-129646123D01*
X158120499Y-129268060D01*
X158140183Y-129201022D01*
X158156813Y-129180385D01*
X165733264Y-121603936D01*
X165772736Y-121544859D01*
X165831813Y-121456447D01*
X165865753Y-121374506D01*
X165884587Y-121329038D01*
X168594500Y-121329038D01*
X168594500Y-121580962D01*
X168614398Y-121706593D01*
X168633910Y-121829785D01*
X168711760Y-122069383D01*
X168826132Y-122293848D01*
X168974201Y-122497649D01*
X168974205Y-122497654D01*
X169152345Y-122675794D01*
X169152350Y-122675798D01*
X169291411Y-122776831D01*
X169356155Y-122823870D01*
X169499184Y-122896747D01*
X169580616Y-122938239D01*
X169580618Y-122938239D01*
X169580621Y-122938241D01*
X169820215Y-123016090D01*
X170069038Y-123055500D01*
X170069039Y-123055500D01*
X170320961Y-123055500D01*
X170320962Y-123055500D01*
X170569785Y-123016090D01*
X170809379Y-122938241D01*
X171033845Y-122823870D01*
X171237656Y-122675793D01*
X171415793Y-122497656D01*
X171563870Y-122293845D01*
X171678241Y-122069379D01*
X171756090Y-121829785D01*
X171795500Y-121580962D01*
X171795500Y-121329038D01*
X171756090Y-121080215D01*
X171678241Y-120840621D01*
X171678239Y-120840618D01*
X171678239Y-120840616D01*
X171615988Y-120718443D01*
X171563870Y-120616155D01*
X171502974Y-120532339D01*
X171415798Y-120412350D01*
X171415794Y-120412345D01*
X171237654Y-120234205D01*
X171237649Y-120234201D01*
X171033848Y-120086132D01*
X171033847Y-120086131D01*
X171033845Y-120086130D01*
X170963747Y-120050413D01*
X170809383Y-119971760D01*
X170569785Y-119893910D01*
X170320962Y-119854500D01*
X170069038Y-119854500D01*
X170002738Y-119865001D01*
X169820214Y-119893910D01*
X169580616Y-119971760D01*
X169356151Y-120086132D01*
X169152350Y-120234201D01*
X169152345Y-120234205D01*
X168974205Y-120412345D01*
X168974201Y-120412350D01*
X168826132Y-120616151D01*
X168711760Y-120840616D01*
X168633910Y-121080214D01*
X168609684Y-121233170D01*
X168594500Y-121329038D01*
X165884587Y-121329038D01*
X165899695Y-121292566D01*
X165934300Y-121118592D01*
X165934300Y-120941208D01*
X165934300Y-116649797D01*
X165953985Y-116582758D01*
X165993203Y-116544258D01*
X166052456Y-116507712D01*
X166176512Y-116383656D01*
X166268614Y-116234334D01*
X166291902Y-116164054D01*
X166295910Y-116156050D01*
X166313860Y-116136772D01*
X166328855Y-116115116D01*
X166337295Y-116111606D01*
X166343525Y-116104917D01*
X166369049Y-116098404D01*
X166393371Y-116088292D01*
X166409634Y-116088048D01*
X166411225Y-116087643D01*
X166412323Y-116088008D01*
X166416519Y-116087946D01*
X166454325Y-116090921D01*
X167133800Y-115411446D01*
X167133800Y-115417661D01*
X167161059Y-115519394D01*
X167213720Y-115610606D01*
X167288194Y-115685080D01*
X167379406Y-115737741D01*
X167481139Y-115765000D01*
X167487353Y-115765000D01*
X166807876Y-116444474D01*
X166852450Y-116476859D01*
X167034768Y-116569755D01*
X167229382Y-116632990D01*
X167431483Y-116665000D01*
X167636117Y-116665000D01*
X167838217Y-116632990D01*
X167939800Y-116599983D01*
X169134500Y-116599983D01*
X169134500Y-117600001D01*
X169134501Y-117600019D01*
X169145000Y-117702796D01*
X169145001Y-117702799D01*
X169170584Y-117780001D01*
X169200186Y-117869334D01*
X169292288Y-118018656D01*
X169416344Y-118142712D01*
X169565666Y-118234814D01*
X169732203Y-118289999D01*
X169834991Y-118300500D01*
X170460008Y-118300499D01*
X170460016Y-118300498D01*
X170460019Y-118300498D01*
X170516302Y-118294748D01*
X170562797Y-118289999D01*
X170729334Y-118234814D01*
X170878656Y-118142712D01*
X170972319Y-118049049D01*
X171033642Y-118015564D01*
X171103334Y-118020548D01*
X171147681Y-118049049D01*
X171241344Y-118142712D01*
X171390666Y-118234814D01*
X171557203Y-118289999D01*
X171659991Y-118300500D01*
X172285008Y-118300499D01*
X172285016Y-118300498D01*
X172285019Y-118300498D01*
X172341302Y-118294748D01*
X172387797Y-118289999D01*
X172554334Y-118234814D01*
X172703656Y-118142712D01*
X172827712Y-118018656D01*
X172919814Y-117869334D01*
X172974999Y-117702797D01*
X172985500Y-117600009D01*
X172985499Y-116599992D01*
X172974999Y-116497203D01*
X172919814Y-116330666D01*
X172827712Y-116181344D01*
X172703656Y-116057288D01*
X172554334Y-115965186D01*
X172387797Y-115910001D01*
X172387795Y-115910000D01*
X172285010Y-115899500D01*
X171659998Y-115899500D01*
X171659980Y-115899501D01*
X171557203Y-115910000D01*
X171557200Y-115910001D01*
X171390668Y-115965185D01*
X171390663Y-115965187D01*
X171241342Y-116057289D01*
X171147681Y-116150951D01*
X171086358Y-116184436D01*
X171016666Y-116179452D01*
X170972319Y-116150951D01*
X170878657Y-116057289D01*
X170878656Y-116057288D01*
X170729334Y-115965186D01*
X170562797Y-115910001D01*
X170562795Y-115910000D01*
X170460010Y-115899500D01*
X169834998Y-115899500D01*
X169834980Y-115899501D01*
X169732203Y-115910000D01*
X169732200Y-115910001D01*
X169565668Y-115965185D01*
X169565663Y-115965187D01*
X169416342Y-116057289D01*
X169292289Y-116181342D01*
X169200187Y-116330663D01*
X169200185Y-116330668D01*
X169182627Y-116383655D01*
X169145001Y-116497203D01*
X169145001Y-116497204D01*
X169145000Y-116497204D01*
X169134500Y-116599983D01*
X167939800Y-116599983D01*
X168032831Y-116569755D01*
X168196525Y-116486349D01*
X168196526Y-116486348D01*
X168215146Y-116476861D01*
X168215147Y-116476861D01*
X168259721Y-116444474D01*
X167580247Y-115765000D01*
X167586461Y-115765000D01*
X167688194Y-115737741D01*
X167779406Y-115685080D01*
X167853880Y-115610606D01*
X167906541Y-115519394D01*
X167933800Y-115417661D01*
X167933800Y-115411447D01*
X168613274Y-116090921D01*
X168645659Y-116046349D01*
X168738555Y-115864031D01*
X168801790Y-115669417D01*
X168833800Y-115467317D01*
X168833800Y-115262682D01*
X168801790Y-115060582D01*
X168738555Y-114865968D01*
X168645659Y-114683650D01*
X168613274Y-114639077D01*
X168613274Y-114639076D01*
X167933800Y-115318551D01*
X167933800Y-115312339D01*
X167906541Y-115210606D01*
X167853880Y-115119394D01*
X167779406Y-115044920D01*
X167688194Y-114992259D01*
X167586461Y-114965000D01*
X167580246Y-114965000D01*
X168259722Y-114285524D01*
X168259721Y-114285523D01*
X168215159Y-114253147D01*
X168215150Y-114253141D01*
X168032831Y-114160244D01*
X167838217Y-114097009D01*
X167636117Y-114065000D01*
X167431483Y-114065000D01*
X167229382Y-114097009D01*
X167034768Y-114160244D01*
X166852444Y-114253143D01*
X166807877Y-114285523D01*
X166807877Y-114285524D01*
X167487354Y-114965000D01*
X167481139Y-114965000D01*
X167379406Y-114992259D01*
X167288194Y-115044920D01*
X167213720Y-115119394D01*
X167161059Y-115210606D01*
X167133800Y-115312339D01*
X167133800Y-115318553D01*
X166454324Y-114639077D01*
X166416519Y-114642053D01*
X166348141Y-114627689D01*
X166298384Y-114578638D01*
X166295910Y-114573949D01*
X166291901Y-114565942D01*
X166268614Y-114495666D01*
X166176512Y-114346344D01*
X166052456Y-114222288D01*
X165903134Y-114130186D01*
X165736597Y-114075001D01*
X165736595Y-114075000D01*
X165633810Y-114064500D01*
X164433798Y-114064500D01*
X164433781Y-114064501D01*
X164331003Y-114075000D01*
X164331000Y-114075001D01*
X164164468Y-114130185D01*
X164164463Y-114130187D01*
X164015142Y-114222289D01*
X163891089Y-114346342D01*
X163798987Y-114495663D01*
X163798986Y-114495666D01*
X163743801Y-114662203D01*
X163743801Y-114662204D01*
X163743800Y-114662204D01*
X163733300Y-114764983D01*
X163733300Y-115965001D01*
X163733301Y-115965018D01*
X163743800Y-116067796D01*
X163743801Y-116067799D01*
X163773045Y-116156050D01*
X163798986Y-116234334D01*
X163891088Y-116383656D01*
X164015144Y-116507712D01*
X164074396Y-116544258D01*
X164121121Y-116596204D01*
X164133300Y-116649797D01*
X164133300Y-120605537D01*
X164113615Y-120672576D01*
X164096981Y-120693218D01*
X158326754Y-126463444D01*
X158265431Y-126496929D01*
X158195739Y-126491945D01*
X158139806Y-126450073D01*
X158118738Y-126405689D01*
X158117600Y-126401113D01*
X158117600Y-126401111D01*
X158071641Y-126216307D01*
X158042390Y-126157328D01*
X157987032Y-126045707D01*
X157987030Y-126045704D01*
X157867724Y-125897280D01*
X157867722Y-125897278D01*
X157798112Y-125841324D01*
X157758196Y-125783985D01*
X157755616Y-125714163D01*
X157791194Y-125654030D01*
X157798115Y-125648033D01*
X157867366Y-125592367D01*
X157867367Y-125592366D01*
X157986607Y-125444025D01*
X157986609Y-125444022D01*
X158071168Y-125273523D01*
X158117102Y-125088824D01*
X158120000Y-125046096D01*
X158120000Y-124845000D01*
X156744000Y-124845000D01*
X156676961Y-124825315D01*
X156631206Y-124772511D01*
X156620000Y-124721000D01*
X156620000Y-124595000D01*
X156494000Y-124595000D01*
X156426961Y-124575315D01*
X156381206Y-124522511D01*
X156370000Y-124471000D01*
X156370000Y-124345000D01*
X156870000Y-124345000D01*
X158120000Y-124345000D01*
X158120000Y-124143903D01*
X158117102Y-124101175D01*
X158071168Y-123916476D01*
X157986609Y-123745977D01*
X157986607Y-123745974D01*
X157867367Y-123597633D01*
X157867366Y-123597632D01*
X157719025Y-123478392D01*
X157719022Y-123478390D01*
X157548523Y-123393831D01*
X157363824Y-123347897D01*
X157321097Y-123345000D01*
X156870000Y-123345000D01*
X156870000Y-124345000D01*
X156370000Y-124345000D01*
X156370000Y-123345000D01*
X155918903Y-123345000D01*
X155876175Y-123347897D01*
X155691476Y-123393831D01*
X155520977Y-123478390D01*
X155520975Y-123478391D01*
X155512186Y-123485457D01*
X155447602Y-123512115D01*
X155378858Y-123499624D01*
X155327780Y-123451950D01*
X155310500Y-123388809D01*
X155310500Y-122009000D01*
X155330185Y-121941961D01*
X155382989Y-121896206D01*
X155434500Y-121885000D01*
X155546117Y-121885000D01*
X155748217Y-121852990D01*
X155942831Y-121789755D01*
X156125149Y-121696859D01*
X156169721Y-121664474D01*
X155490247Y-120985000D01*
X155496461Y-120985000D01*
X155598194Y-120957741D01*
X155689406Y-120905080D01*
X155763880Y-120830606D01*
X155816541Y-120739394D01*
X155843800Y-120637661D01*
X155843800Y-120631448D01*
X156523274Y-121310922D01*
X156523274Y-121310921D01*
X156555659Y-121266349D01*
X156648555Y-121084031D01*
X156711790Y-120889417D01*
X156743800Y-120687317D01*
X156743800Y-120554982D01*
X158434500Y-120554982D01*
X158434500Y-122355017D01*
X158445000Y-122457796D01*
X158466366Y-122522274D01*
X158500186Y-122624335D01*
X158592288Y-122773656D01*
X158716344Y-122897712D01*
X158865665Y-122989814D01*
X159032202Y-123044999D01*
X159134990Y-123055500D01*
X159134995Y-123055500D01*
X160935005Y-123055500D01*
X160935010Y-123055500D01*
X161037798Y-123044999D01*
X161204335Y-122989814D01*
X161353656Y-122897712D01*
X161477712Y-122773656D01*
X161569814Y-122624335D01*
X161624999Y-122457798D01*
X161635500Y-122355010D01*
X161635500Y-120554990D01*
X161624999Y-120452202D01*
X161569814Y-120285665D01*
X161477712Y-120136344D01*
X161353656Y-120012288D01*
X161204335Y-119920186D01*
X161037798Y-119865001D01*
X161037796Y-119865000D01*
X160935017Y-119854500D01*
X160935010Y-119854500D01*
X159134990Y-119854500D01*
X159134982Y-119854500D01*
X159032203Y-119865000D01*
X159032202Y-119865001D01*
X158949669Y-119892349D01*
X158865667Y-119920185D01*
X158865662Y-119920187D01*
X158716342Y-120012289D01*
X158592289Y-120136342D01*
X158500187Y-120285662D01*
X158500186Y-120285665D01*
X158445001Y-120452202D01*
X158445001Y-120452203D01*
X158445000Y-120452203D01*
X158434500Y-120554982D01*
X156743800Y-120554982D01*
X156743800Y-120482682D01*
X156711790Y-120280582D01*
X156648555Y-120085968D01*
X156555659Y-119903650D01*
X156523274Y-119859077D01*
X156523274Y-119859076D01*
X155843800Y-120538551D01*
X155843800Y-120532339D01*
X155816541Y-120430606D01*
X155763880Y-120339394D01*
X155689406Y-120264920D01*
X155598194Y-120212259D01*
X155496461Y-120185000D01*
X155490246Y-120185000D01*
X156169722Y-119505524D01*
X156169721Y-119505523D01*
X156125159Y-119473147D01*
X156125150Y-119473141D01*
X155942831Y-119380244D01*
X155748217Y-119317009D01*
X155596767Y-119293022D01*
X155533632Y-119263093D01*
X155496701Y-119203781D01*
X155494548Y-119146357D01*
X155509400Y-119071692D01*
X155509400Y-118894308D01*
X155509400Y-117390788D01*
X155529085Y-117323749D01*
X155581889Y-117277994D01*
X155651047Y-117268050D01*
X155680852Y-117276227D01*
X155795582Y-117323749D01*
X155804003Y-117327237D01*
X155958653Y-117357999D01*
X155958656Y-117358000D01*
X155958658Y-117358000D01*
X156116344Y-117358000D01*
X156116345Y-117357999D01*
X156270997Y-117327237D01*
X156416679Y-117266894D01*
X156510959Y-117203898D01*
X156577636Y-117183020D01*
X156579850Y-117183000D01*
X160661908Y-117183000D01*
X160661908Y-117182999D01*
X160722950Y-117170858D01*
X160722953Y-117170858D01*
X160759224Y-117163642D01*
X160782752Y-117158963D01*
X160816092Y-117145152D01*
X160896586Y-117111812D01*
X160962469Y-117067789D01*
X160999033Y-117043358D01*
X161086158Y-116956233D01*
X161086159Y-116956231D01*
X161093225Y-116949165D01*
X161093228Y-116949161D01*
X161698085Y-116344303D01*
X161759406Y-116310820D01*
X161824767Y-116314279D01*
X161872203Y-116329999D01*
X161974991Y-116340500D01*
X162600008Y-116340499D01*
X162600016Y-116340498D01*
X162600019Y-116340498D01*
X162656302Y-116334748D01*
X162702797Y-116329999D01*
X162869334Y-116274814D01*
X163018656Y-116182712D01*
X163142712Y-116058656D01*
X163234814Y-115909334D01*
X163289999Y-115742797D01*
X163300500Y-115640009D01*
X163300499Y-114639992D01*
X163300405Y-114639076D01*
X163289999Y-114537203D01*
X163289998Y-114537200D01*
X163283238Y-114516799D01*
X163234814Y-114370666D01*
X163142712Y-114221344D01*
X163018656Y-114097288D01*
X162869334Y-114005186D01*
X162702797Y-113950001D01*
X162702795Y-113950000D01*
X162600016Y-113939500D01*
X162600009Y-113939500D01*
X162176200Y-113939500D01*
X162109161Y-113919815D01*
X162063406Y-113867011D01*
X162052200Y-113815500D01*
X162052200Y-113474499D01*
X162069877Y-113414298D01*
X169329500Y-113414298D01*
X169329500Y-114720701D01*
X169332401Y-114757567D01*
X169332402Y-114757573D01*
X169378254Y-114915393D01*
X169378255Y-114915396D01*
X169461917Y-115056862D01*
X169461923Y-115056870D01*
X169578129Y-115173076D01*
X169578133Y-115173079D01*
X169578135Y-115173081D01*
X169719602Y-115256744D01*
X169740041Y-115262682D01*
X169877426Y-115302597D01*
X169877429Y-115302597D01*
X169877431Y-115302598D01*
X169914306Y-115305500D01*
X169914314Y-115305500D01*
X170345686Y-115305500D01*
X170345694Y-115305500D01*
X170382569Y-115302598D01*
X170382571Y-115302597D01*
X170382573Y-115302597D01*
X170424191Y-115290505D01*
X170540398Y-115256744D01*
X170681865Y-115173081D01*
X170798081Y-115056865D01*
X170881744Y-114915398D01*
X170918176Y-114790001D01*
X170927597Y-114757573D01*
X170927598Y-114757567D01*
X170930499Y-114720701D01*
X170930500Y-114720694D01*
X170930500Y-113554500D01*
X170950185Y-113487461D01*
X171002989Y-113441706D01*
X171054500Y-113430500D01*
X171105500Y-113430500D01*
X171172539Y-113450185D01*
X171218294Y-113502989D01*
X171229500Y-113554500D01*
X171229500Y-114720701D01*
X171232401Y-114757567D01*
X171232402Y-114757573D01*
X171278254Y-114915393D01*
X171278255Y-114915396D01*
X171361917Y-115056862D01*
X171361923Y-115056870D01*
X171478129Y-115173076D01*
X171478133Y-115173079D01*
X171478135Y-115173081D01*
X171619602Y-115256744D01*
X171640041Y-115262682D01*
X171777426Y-115302597D01*
X171777429Y-115302597D01*
X171777431Y-115302598D01*
X171814306Y-115305500D01*
X171814314Y-115305500D01*
X172245686Y-115305500D01*
X172245694Y-115305500D01*
X172282569Y-115302598D01*
X172282571Y-115302597D01*
X172282573Y-115302597D01*
X172324191Y-115290505D01*
X172440398Y-115256744D01*
X172581865Y-115173081D01*
X172698081Y-115056865D01*
X172781744Y-114915398D01*
X172818176Y-114790001D01*
X172827597Y-114757573D01*
X172827598Y-114757567D01*
X172830499Y-114720701D01*
X172830500Y-114720694D01*
X172830500Y-113414306D01*
X172827598Y-113377431D01*
X172823029Y-113361705D01*
X172781745Y-113219606D01*
X172781744Y-113219603D01*
X172781744Y-113219602D01*
X172698081Y-113078135D01*
X172698079Y-113078133D01*
X172698076Y-113078129D01*
X172581870Y-112961923D01*
X172581862Y-112961917D01*
X172440396Y-112878255D01*
X172440393Y-112878254D01*
X172282573Y-112832402D01*
X172282567Y-112832401D01*
X172245701Y-112829500D01*
X172245694Y-112829500D01*
X172004500Y-112829500D01*
X171937461Y-112809815D01*
X171891706Y-112757011D01*
X171880500Y-112705500D01*
X171880500Y-111539313D01*
X171880499Y-111539298D01*
X171877598Y-111502432D01*
X171877597Y-111502426D01*
X171831745Y-111344606D01*
X171831744Y-111344603D01*
X171831744Y-111344602D01*
X171748081Y-111203135D01*
X171748079Y-111203133D01*
X171748076Y-111203129D01*
X171631870Y-111086923D01*
X171631862Y-111086917D01*
X171510572Y-111015187D01*
X171490398Y-111003256D01*
X171490397Y-111003255D01*
X171490396Y-111003255D01*
X171490393Y-111003254D01*
X171332573Y-110957402D01*
X171332567Y-110957401D01*
X171295701Y-110954500D01*
X171295694Y-110954500D01*
X170864306Y-110954500D01*
X170864298Y-110954500D01*
X170827432Y-110957401D01*
X170827426Y-110957402D01*
X170669606Y-111003254D01*
X170669603Y-111003255D01*
X170528137Y-111086917D01*
X170528129Y-111086923D01*
X170411923Y-111203129D01*
X170411917Y-111203137D01*
X170328255Y-111344603D01*
X170328254Y-111344606D01*
X170282402Y-111502426D01*
X170282401Y-111502432D01*
X170279500Y-111539298D01*
X170279500Y-112705500D01*
X170259815Y-112772539D01*
X170207011Y-112818294D01*
X170155500Y-112829500D01*
X169914298Y-112829500D01*
X169877432Y-112832401D01*
X169877426Y-112832402D01*
X169719606Y-112878254D01*
X169719603Y-112878255D01*
X169578137Y-112961917D01*
X169578129Y-112961923D01*
X169461923Y-113078129D01*
X169461917Y-113078137D01*
X169378255Y-113219603D01*
X169378254Y-113219606D01*
X169332402Y-113377426D01*
X169332401Y-113377432D01*
X169329500Y-113414298D01*
X162069877Y-113414298D01*
X162071885Y-113407460D01*
X162124689Y-113361705D01*
X162176200Y-113350499D01*
X162220002Y-113350499D01*
X162220008Y-113350499D01*
X162322797Y-113339999D01*
X162489334Y-113284814D01*
X162638656Y-113192712D01*
X162732319Y-113099049D01*
X162793642Y-113065564D01*
X162863334Y-113070548D01*
X162907681Y-113099049D01*
X163001344Y-113192712D01*
X163150666Y-113284814D01*
X163317203Y-113339999D01*
X163419991Y-113350500D01*
X164045008Y-113350499D01*
X164045016Y-113350498D01*
X164045019Y-113350498D01*
X164138477Y-113340951D01*
X164147797Y-113339999D01*
X164314334Y-113284814D01*
X164463656Y-113192712D01*
X164587712Y-113068656D01*
X164679814Y-112919334D01*
X164734999Y-112752797D01*
X164745500Y-112650009D01*
X164745499Y-111649992D01*
X164742437Y-111620021D01*
X164734999Y-111547203D01*
X164734998Y-111547200D01*
X164679814Y-111380666D01*
X164587712Y-111231344D01*
X164463656Y-111107288D01*
X164314334Y-111015186D01*
X164147797Y-110960001D01*
X164147795Y-110960000D01*
X164045016Y-110949500D01*
X163467952Y-110949500D01*
X163400913Y-110929815D01*
X163380271Y-110913181D01*
X163125793Y-110658703D01*
X163092308Y-110597380D01*
X163097292Y-110527688D01*
X163139164Y-110471755D01*
X163204628Y-110447338D01*
X163269768Y-110460536D01*
X163284592Y-110468090D01*
X163445776Y-110550218D01*
X163445778Y-110550218D01*
X163445781Y-110550220D01*
X163539432Y-110580649D01*
X163640465Y-110613477D01*
X163741557Y-110629488D01*
X163842648Y-110645500D01*
X163842649Y-110645500D01*
X164047351Y-110645500D01*
X164047352Y-110645500D01*
X164249534Y-110613477D01*
X164444219Y-110550220D01*
X164626610Y-110457287D01*
X164765319Y-110356510D01*
X164792213Y-110336971D01*
X164792215Y-110336968D01*
X164792219Y-110336966D01*
X164936966Y-110192219D01*
X164936968Y-110192215D01*
X164936971Y-110192213D01*
X165018710Y-110079707D01*
X165057287Y-110026610D01*
X165150220Y-109844219D01*
X165213477Y-109649534D01*
X165245500Y-109447352D01*
X165245500Y-109242648D01*
X165213477Y-109040466D01*
X165150220Y-108845781D01*
X165150218Y-108845778D01*
X165150218Y-108845776D01*
X165104375Y-108755805D01*
X165057287Y-108663390D01*
X165029904Y-108625700D01*
X164936971Y-108497786D01*
X164792219Y-108353034D01*
X164792211Y-108353028D01*
X164698547Y-108284978D01*
X164655882Y-108229649D01*
X164649903Y-108160036D01*
X164682508Y-108098240D01*
X164732426Y-108066955D01*
X164814334Y-108039814D01*
X164963656Y-107947712D01*
X165087712Y-107823656D01*
X165179814Y-107674334D01*
X165234999Y-107507797D01*
X165245500Y-107405009D01*
X165245499Y-106702648D01*
X170264500Y-106702648D01*
X170264500Y-106907351D01*
X170296522Y-107109534D01*
X170359781Y-107304223D01*
X170452715Y-107486613D01*
X170573028Y-107652213D01*
X170717786Y-107796971D01*
X170872749Y-107909556D01*
X170883390Y-107917287D01*
X170974840Y-107963883D01*
X170976080Y-107964515D01*
X171026876Y-108012490D01*
X171043671Y-108080311D01*
X171021134Y-108146446D01*
X170976080Y-108185485D01*
X170883386Y-108232715D01*
X170717786Y-108353028D01*
X170573028Y-108497786D01*
X170452715Y-108663386D01*
X170359781Y-108845776D01*
X170296522Y-109040465D01*
X170264500Y-109242648D01*
X170264500Y-109447351D01*
X170296522Y-109649534D01*
X170359781Y-109844223D01*
X170452715Y-110026613D01*
X170573028Y-110192213D01*
X170717786Y-110336971D01*
X170869696Y-110447338D01*
X170883390Y-110457287D01*
X170947813Y-110490112D01*
X171065776Y-110550218D01*
X171065778Y-110550218D01*
X171065781Y-110550220D01*
X171159432Y-110580649D01*
X171260465Y-110613477D01*
X171361557Y-110629488D01*
X171462648Y-110645500D01*
X171462649Y-110645500D01*
X171667351Y-110645500D01*
X171667352Y-110645500D01*
X171869534Y-110613477D01*
X172064219Y-110550220D01*
X172246610Y-110457287D01*
X172385319Y-110356510D01*
X172412213Y-110336971D01*
X172412215Y-110336968D01*
X172412219Y-110336966D01*
X172556966Y-110192219D01*
X172556968Y-110192215D01*
X172556971Y-110192213D01*
X172638710Y-110079707D01*
X172677287Y-110026610D01*
X172770220Y-109844219D01*
X172833477Y-109649534D01*
X172865500Y-109447352D01*
X172865500Y-109242648D01*
X172833477Y-109040466D01*
X172770220Y-108845781D01*
X172770218Y-108845778D01*
X172770218Y-108845776D01*
X172724375Y-108755805D01*
X172677287Y-108663390D01*
X172649904Y-108625700D01*
X172556971Y-108497786D01*
X172412213Y-108353028D01*
X172246614Y-108232715D01*
X172240006Y-108229348D01*
X172153917Y-108185483D01*
X172103123Y-108137511D01*
X172086328Y-108069690D01*
X172108865Y-108003555D01*
X172153917Y-107964516D01*
X172246610Y-107917287D01*
X172375482Y-107823657D01*
X172412213Y-107796971D01*
X172412215Y-107796968D01*
X172412219Y-107796966D01*
X172556966Y-107652219D01*
X172556968Y-107652215D01*
X172556971Y-107652213D01*
X172661892Y-107507799D01*
X172677287Y-107486610D01*
X172770220Y-107304219D01*
X172833477Y-107109534D01*
X172865500Y-106907352D01*
X172865500Y-106702648D01*
X172833477Y-106500466D01*
X172770220Y-106305781D01*
X172770218Y-106305778D01*
X172770218Y-106305776D01*
X172718865Y-106204991D01*
X172677287Y-106123390D01*
X172644830Y-106078716D01*
X172556971Y-105957786D01*
X172412213Y-105813028D01*
X172246613Y-105692715D01*
X172246612Y-105692714D01*
X172246610Y-105692713D01*
X172186898Y-105662288D01*
X172064223Y-105599781D01*
X171869534Y-105536522D01*
X171694995Y-105508878D01*
X171667352Y-105504500D01*
X171462648Y-105504500D01*
X171438329Y-105508351D01*
X171260465Y-105536522D01*
X171065776Y-105599781D01*
X170883386Y-105692715D01*
X170717786Y-105813028D01*
X170573028Y-105957786D01*
X170452715Y-106123386D01*
X170359781Y-106305776D01*
X170296522Y-106500465D01*
X170264500Y-106702648D01*
X165245499Y-106702648D01*
X165245499Y-106204992D01*
X165234999Y-106102203D01*
X165179814Y-105935666D01*
X165087712Y-105786344D01*
X164963656Y-105662288D01*
X164814334Y-105570186D01*
X164647797Y-105515001D01*
X164647795Y-105515000D01*
X164545010Y-105504500D01*
X163344998Y-105504500D01*
X163344981Y-105504501D01*
X163242203Y-105515000D01*
X163242200Y-105515001D01*
X163075668Y-105570185D01*
X163075663Y-105570187D01*
X162926342Y-105662289D01*
X162802289Y-105786342D01*
X162710187Y-105935663D01*
X162710186Y-105935666D01*
X162655001Y-106102203D01*
X162655001Y-106102204D01*
X162655000Y-106102204D01*
X162644500Y-106204983D01*
X162644500Y-107405001D01*
X162644501Y-107405018D01*
X162655000Y-107507796D01*
X162655001Y-107507799D01*
X162702856Y-107652213D01*
X162710186Y-107674334D01*
X162802288Y-107823656D01*
X162926344Y-107947712D01*
X163075666Y-108039814D01*
X163157570Y-108066954D01*
X163215015Y-108106727D01*
X163241838Y-108171243D01*
X163229523Y-108240018D01*
X163191451Y-108284978D01*
X163097787Y-108353028D01*
X163097782Y-108353032D01*
X162953028Y-108497786D01*
X162832715Y-108663386D01*
X162739781Y-108845776D01*
X162676522Y-109040465D01*
X162644500Y-109242648D01*
X162644500Y-109447351D01*
X162676522Y-109649534D01*
X162739781Y-109844223D01*
X162829462Y-110020229D01*
X162842358Y-110088898D01*
X162816082Y-110153639D01*
X162758975Y-110193896D01*
X162689170Y-110196888D01*
X162631296Y-110164205D01*
X161284219Y-108817128D01*
X161250734Y-108755805D01*
X161247900Y-108729447D01*
X161247900Y-106313393D01*
X161247899Y-106313389D01*
X161223864Y-106192555D01*
X161223863Y-106192548D01*
X161176711Y-106078714D01*
X161176710Y-106078713D01*
X161176707Y-106078707D01*
X161108259Y-105976268D01*
X161067654Y-105935663D01*
X161021133Y-105889142D01*
X161021132Y-105889141D01*
X157295862Y-102163872D01*
X164494500Y-102163872D01*
X164494500Y-102426127D01*
X164521123Y-102628339D01*
X164528730Y-102686116D01*
X164596602Y-102939418D01*
X164596605Y-102939428D01*
X164696953Y-103181690D01*
X164696958Y-103181700D01*
X164828075Y-103408803D01*
X164987718Y-103616851D01*
X164987726Y-103616860D01*
X165173140Y-103802274D01*
X165173148Y-103802281D01*
X165381196Y-103961924D01*
X165608299Y-104093041D01*
X165608309Y-104093046D01*
X165850571Y-104193394D01*
X165850581Y-104193398D01*
X166103884Y-104261270D01*
X166363880Y-104295500D01*
X166363887Y-104295500D01*
X166626113Y-104295500D01*
X166626120Y-104295500D01*
X166886116Y-104261270D01*
X167139419Y-104193398D01*
X167381697Y-104093043D01*
X167608803Y-103961924D01*
X167816851Y-103802282D01*
X167816855Y-103802277D01*
X167816860Y-103802274D01*
X168002274Y-103616860D01*
X168002277Y-103616855D01*
X168002282Y-103616851D01*
X168161924Y-103408803D01*
X168293043Y-103181697D01*
X168393398Y-102939419D01*
X168461270Y-102686116D01*
X168495500Y-102426120D01*
X168495500Y-102163880D01*
X168461270Y-101903884D01*
X168393398Y-101650581D01*
X168393394Y-101650571D01*
X168293046Y-101408309D01*
X168293041Y-101408299D01*
X168161924Y-101181196D01*
X168002281Y-100973148D01*
X168002274Y-100973140D01*
X167816860Y-100787726D01*
X167816851Y-100787718D01*
X167608803Y-100628075D01*
X167381700Y-100496958D01*
X167381690Y-100496953D01*
X167139428Y-100396605D01*
X167139421Y-100396603D01*
X167139419Y-100396602D01*
X166886116Y-100328730D01*
X166828339Y-100321123D01*
X166626127Y-100294500D01*
X166626120Y-100294500D01*
X166363880Y-100294500D01*
X166363872Y-100294500D01*
X166132772Y-100324926D01*
X166103884Y-100328730D01*
X165850581Y-100396602D01*
X165850571Y-100396605D01*
X165608309Y-100496953D01*
X165608299Y-100496958D01*
X165381196Y-100628075D01*
X165173148Y-100787718D01*
X164987718Y-100973148D01*
X164828075Y-101181196D01*
X164696958Y-101408299D01*
X164696953Y-101408309D01*
X164596605Y-101650571D01*
X164596602Y-101650581D01*
X164528730Y-101903885D01*
X164494500Y-102163872D01*
X157295862Y-102163872D01*
X154119027Y-98987037D01*
X154119025Y-98987034D01*
X154119025Y-98987035D01*
X154111958Y-98979968D01*
X154111958Y-98979967D01*
X154024833Y-98892842D01*
X154024832Y-98892841D01*
X154024831Y-98892840D01*
X153973609Y-98858615D01*
X153922386Y-98824388D01*
X153922383Y-98824386D01*
X153922380Y-98824385D01*
X153841892Y-98791047D01*
X153808553Y-98777237D01*
X153798527Y-98775243D01*
X153748129Y-98765218D01*
X153687710Y-98753200D01*
X153687707Y-98753200D01*
X153687706Y-98753200D01*
X134543207Y-98753200D01*
X134419993Y-98753200D01*
X134419989Y-98753200D01*
X134359571Y-98765218D01*
X134321859Y-98772719D01*
X134299150Y-98777236D01*
X134299148Y-98777237D01*
X134265807Y-98791047D01*
X134185319Y-98824384D01*
X134185305Y-98824392D01*
X134082872Y-98892838D01*
X134082864Y-98892844D01*
X133995739Y-98979970D01*
X133591903Y-99383805D01*
X133530580Y-99417290D01*
X133528414Y-99417741D01*
X133417208Y-99439861D01*
X133417198Y-99439864D01*
X133271527Y-99500202D01*
X133271514Y-99500209D01*
X133140411Y-99587810D01*
X133140407Y-99587813D01*
X133028913Y-99699307D01*
X133028910Y-99699311D01*
X132941309Y-99830414D01*
X132941302Y-99830427D01*
X132880964Y-99976098D01*
X132880961Y-99976110D01*
X132850200Y-100130753D01*
X132850200Y-100288446D01*
X132880961Y-100443089D01*
X132880964Y-100443101D01*
X132941302Y-100588772D01*
X132941309Y-100588785D01*
X133028910Y-100719888D01*
X133028913Y-100719892D01*
X133140407Y-100831386D01*
X133140411Y-100831389D01*
X133271514Y-100918990D01*
X133271527Y-100918997D01*
X133409342Y-100976081D01*
X133417203Y-100979337D01*
X133571853Y-101010099D01*
X133571856Y-101010100D01*
X133571858Y-101010100D01*
X133729544Y-101010100D01*
X133729545Y-101010099D01*
X133884197Y-100979337D01*
X134029879Y-100918994D01*
X134160989Y-100831389D01*
X134272489Y-100719889D01*
X134360094Y-100588779D01*
X134420437Y-100443097D01*
X134442558Y-100331882D01*
X134474940Y-100269975D01*
X134476377Y-100268512D01*
X134704372Y-100040516D01*
X134765694Y-100007034D01*
X134792052Y-100004200D01*
X153315648Y-100004200D01*
X153382687Y-100023885D01*
X153403329Y-100040519D01*
X153788668Y-100425858D01*
X153822153Y-100487181D01*
X153817169Y-100556873D01*
X153775297Y-100612806D01*
X153734921Y-100632422D01*
X153734960Y-100632536D01*
X153734060Y-100632841D01*
X153733100Y-100633308D01*
X153731130Y-100633836D01*
X153731116Y-100633840D01*
X153519118Y-100721653D01*
X153519109Y-100721657D01*
X153320382Y-100836392D01*
X153138338Y-100976081D01*
X152976081Y-101138338D01*
X152836392Y-101320382D01*
X152721657Y-101519109D01*
X152721650Y-101519123D01*
X152633842Y-101731112D01*
X152574453Y-101952759D01*
X152574451Y-101952770D01*
X152544500Y-102180258D01*
X152544500Y-102409741D01*
X152569446Y-102599215D01*
X152574452Y-102637238D01*
X152611369Y-102775016D01*
X152633842Y-102858887D01*
X152721650Y-103070876D01*
X152721653Y-103070881D01*
X152721656Y-103070888D01*
X152836389Y-103269612D01*
X152853732Y-103292214D01*
X152878926Y-103357383D01*
X152864888Y-103425827D01*
X152816074Y-103475817D01*
X152755356Y-103491700D01*
X152241406Y-103491700D01*
X152067441Y-103526303D01*
X152067432Y-103526306D01*
X151903559Y-103594183D01*
X151903546Y-103594190D01*
X151756065Y-103692735D01*
X151756061Y-103692738D01*
X151630638Y-103818161D01*
X151630635Y-103818165D01*
X151532090Y-103965646D01*
X151532083Y-103965659D01*
X151464206Y-104129532D01*
X151464203Y-104129541D01*
X151429600Y-104303504D01*
X151429600Y-104471000D01*
X151409915Y-104538039D01*
X151357111Y-104583794D01*
X151305602Y-104595000D01*
X151245029Y-104595000D01*
X151245012Y-104595001D01*
X151142302Y-104605494D01*
X150975880Y-104660641D01*
X150975875Y-104660643D01*
X150826654Y-104752684D01*
X150702684Y-104876654D01*
X150610643Y-105025875D01*
X150610641Y-105025880D01*
X150555494Y-105192302D01*
X150555493Y-105192309D01*
X150545000Y-105295013D01*
X150545000Y-105570000D01*
X151421000Y-105570000D01*
X151488039Y-105589685D01*
X151533794Y-105642489D01*
X151545000Y-105694000D01*
X151545000Y-105820000D01*
X151671000Y-105820000D01*
X151738039Y-105839685D01*
X151783794Y-105892489D01*
X151795000Y-105944000D01*
X151795000Y-107044999D01*
X151844972Y-107044999D01*
X151844986Y-107044998D01*
X151947697Y-107034505D01*
X152114119Y-106979358D01*
X152114124Y-106979356D01*
X152263345Y-106887315D01*
X152387318Y-106763342D01*
X152389165Y-106760348D01*
X152390969Y-106758724D01*
X152391798Y-106757677D01*
X152391976Y-106757818D01*
X152441110Y-106713621D01*
X152510073Y-106702396D01*
X152574156Y-106730236D01*
X152600243Y-106760341D01*
X152602288Y-106763656D01*
X152726344Y-106887712D01*
X152875666Y-106979814D01*
X153042203Y-107034999D01*
X153144991Y-107045500D01*
X153745008Y-107045499D01*
X153745016Y-107045498D01*
X153745019Y-107045498D01*
X153801302Y-107039748D01*
X153847797Y-107034999D01*
X154014334Y-106979814D01*
X154163656Y-106887712D01*
X154287712Y-106763656D01*
X154379814Y-106614334D01*
X154434999Y-106447797D01*
X154445500Y-106345009D01*
X154445500Y-106344986D01*
X155035001Y-106344986D01*
X155045494Y-106447697D01*
X155100641Y-106614119D01*
X155100643Y-106614124D01*
X155192684Y-106763345D01*
X155316654Y-106887315D01*
X155465875Y-106979356D01*
X155465880Y-106979358D01*
X155632302Y-107034505D01*
X155632309Y-107034506D01*
X155735019Y-107044999D01*
X155784999Y-107044998D01*
X155785000Y-107044998D01*
X155785000Y-106070000D01*
X155035001Y-106070000D01*
X155035001Y-106344986D01*
X154445500Y-106344986D01*
X154445499Y-105820000D01*
X154445499Y-105416700D01*
X154465183Y-105349661D01*
X154517987Y-105303906D01*
X154569499Y-105292700D01*
X154911000Y-105292700D01*
X154978039Y-105312385D01*
X155023794Y-105365189D01*
X155035000Y-105416700D01*
X155035000Y-105570000D01*
X155911000Y-105570000D01*
X155978039Y-105589685D01*
X156023794Y-105642489D01*
X156035000Y-105694000D01*
X156035000Y-105820000D01*
X156161000Y-105820000D01*
X156228039Y-105839685D01*
X156273794Y-105892489D01*
X156285000Y-105944000D01*
X156285000Y-107044999D01*
X156334972Y-107044999D01*
X156334986Y-107044998D01*
X156437697Y-107034505D01*
X156604119Y-106979358D01*
X156604124Y-106979356D01*
X156753345Y-106887315D01*
X156877318Y-106763342D01*
X156879165Y-106760348D01*
X156880969Y-106758724D01*
X156881798Y-106757677D01*
X156881976Y-106757818D01*
X156931110Y-106713621D01*
X157000073Y-106702396D01*
X157064156Y-106730236D01*
X157090243Y-106760341D01*
X157092288Y-106763656D01*
X157216344Y-106887712D01*
X157365666Y-106979814D01*
X157532203Y-107034999D01*
X157634991Y-107045500D01*
X158235008Y-107045499D01*
X158235016Y-107045498D01*
X158235019Y-107045498D01*
X158291302Y-107039748D01*
X158337797Y-107034999D01*
X158504334Y-106979814D01*
X158653656Y-106887712D01*
X158777712Y-106763656D01*
X158869814Y-106614334D01*
X158924999Y-106447797D01*
X158935500Y-106345009D01*
X158935499Y-105872050D01*
X158955183Y-105805013D01*
X159007987Y-105759258D01*
X159077146Y-105749314D01*
X159140702Y-105778339D01*
X159147180Y-105784371D01*
X159960581Y-106597771D01*
X159994066Y-106659094D01*
X159996900Y-106685452D01*
X159996900Y-108593668D01*
X159977215Y-108660707D01*
X159924411Y-108706462D01*
X159855253Y-108716406D01*
X159809935Y-108699041D01*
X159809553Y-108699757D01*
X159804187Y-108696888D01*
X159770689Y-108683013D01*
X159723313Y-108663390D01*
X159716836Y-108660707D01*
X159690353Y-108649737D01*
X159680327Y-108647743D01*
X159629929Y-108637718D01*
X159569510Y-108625700D01*
X159569507Y-108625700D01*
X159569506Y-108625700D01*
X134731307Y-108625700D01*
X134608093Y-108625700D01*
X134608089Y-108625700D01*
X134547671Y-108637718D01*
X134504443Y-108646316D01*
X134487246Y-108649737D01*
X134454287Y-108663390D01*
X134454286Y-108663390D01*
X134373413Y-108696888D01*
X134373408Y-108696890D01*
X134270972Y-108765338D01*
X134270964Y-108765344D01*
X134183839Y-108852470D01*
X133272103Y-109764205D01*
X133210780Y-109797690D01*
X133208614Y-109798141D01*
X133097408Y-109820261D01*
X133097398Y-109820264D01*
X132951727Y-109880602D01*
X132951714Y-109880609D01*
X132820611Y-109968210D01*
X132820607Y-109968213D01*
X132709113Y-110079707D01*
X132709110Y-110079711D01*
X132621509Y-110210814D01*
X132621502Y-110210827D01*
X132561164Y-110356498D01*
X132561161Y-110356510D01*
X132530400Y-110511153D01*
X132530400Y-110668846D01*
X132561161Y-110823489D01*
X132561164Y-110823501D01*
X132621502Y-110969172D01*
X132621506Y-110969179D01*
X132629169Y-110980648D01*
X132633152Y-110986608D01*
X132654030Y-111053285D01*
X132635546Y-111120666D01*
X132583568Y-111167356D01*
X132530050Y-111179500D01*
X123168453Y-111179500D01*
X123101414Y-111159815D01*
X123080776Y-111143185D01*
X123020033Y-111082442D01*
X123020032Y-111082441D01*
X123020030Y-111082439D01*
X123020028Y-111082438D01*
X122949427Y-111035264D01*
X122949426Y-111035263D01*
X122917590Y-111013990D01*
X122917586Y-111013988D01*
X122891676Y-111003256D01*
X122837092Y-110980647D01*
X122803752Y-110966837D01*
X122803749Y-110966836D01*
X122803745Y-110966835D01*
X122741735Y-110954500D01*
X122741728Y-110954500D01*
X122682907Y-110942800D01*
X122682906Y-110942800D01*
X122163806Y-110942800D01*
X122040593Y-110942800D01*
X122011182Y-110948650D01*
X121981771Y-110954500D01*
X121981770Y-110954499D01*
X121919754Y-110966835D01*
X121919745Y-110966838D01*
X121805916Y-111013987D01*
X121713323Y-111075857D01*
X121713318Y-111075860D01*
X121703470Y-111082439D01*
X121703465Y-111082442D01*
X121656266Y-111129642D01*
X121594943Y-111163126D01*
X121525251Y-111158141D01*
X121499695Y-111145062D01*
X121425684Y-111095609D01*
X121425672Y-111095602D01*
X121280001Y-111035264D01*
X121279989Y-111035261D01*
X121125345Y-111004500D01*
X121125342Y-111004500D01*
X120967658Y-111004500D01*
X120967655Y-111004500D01*
X120813010Y-111035261D01*
X120812998Y-111035264D01*
X120667327Y-111095602D01*
X120667314Y-111095609D01*
X120536211Y-111183210D01*
X120536207Y-111183213D01*
X120424713Y-111294707D01*
X120424710Y-111294711D01*
X120337109Y-111425814D01*
X120337102Y-111425827D01*
X120276764Y-111571498D01*
X120276761Y-111571510D01*
X120246000Y-111726153D01*
X120246000Y-111883846D01*
X120276761Y-112038489D01*
X120276764Y-112038501D01*
X120337102Y-112184172D01*
X120337109Y-112184185D01*
X120424710Y-112315288D01*
X120424713Y-112315292D01*
X120536207Y-112426786D01*
X120536211Y-112426789D01*
X120667314Y-112514390D01*
X120667327Y-112514397D01*
X120734639Y-112542278D01*
X120813003Y-112574737D01*
X120967653Y-112605499D01*
X120967656Y-112605500D01*
X120967658Y-112605500D01*
X121125344Y-112605500D01*
X121125345Y-112605499D01*
X121279997Y-112574737D01*
X121425679Y-112514394D01*
X121458153Y-112492695D01*
X121524828Y-112471817D01*
X121592208Y-112490300D01*
X121638900Y-112542278D01*
X121641605Y-112548344D01*
X121652307Y-112574182D01*
X121715302Y-112668459D01*
X121736180Y-112735136D01*
X121736200Y-112737350D01*
X121736200Y-116746611D01*
X121760235Y-116867444D01*
X121760240Y-116867461D01*
X121807385Y-116981280D01*
X121807387Y-116981283D01*
X121807388Y-116981286D01*
X121833893Y-117020953D01*
X121841614Y-117032507D01*
X121841615Y-117032509D01*
X121875840Y-117083731D01*
X121875841Y-117083732D01*
X121875842Y-117083733D01*
X121962967Y-117170858D01*
X121962968Y-117170858D01*
X121970035Y-117177925D01*
X121970034Y-117177925D01*
X121970038Y-117177928D01*
X128423318Y-123631209D01*
X128456803Y-123692532D01*
X128451819Y-123762224D01*
X128409949Y-123818156D01*
X128357452Y-123857455D01*
X128271206Y-123972664D01*
X128271202Y-123972671D01*
X128220908Y-124107517D01*
X128214501Y-124167116D01*
X128214500Y-124167135D01*
X128214500Y-125962870D01*
X128214501Y-125962876D01*
X128220908Y-126022483D01*
X128271202Y-126157328D01*
X128271206Y-126157335D01*
X128357452Y-126272544D01*
X128357455Y-126272547D01*
X128472664Y-126358793D01*
X128472671Y-126358797D01*
X128607517Y-126409091D01*
X128607516Y-126409091D01*
X128614444Y-126409835D01*
X128667127Y-126415500D01*
X130462872Y-126415499D01*
X130522483Y-126409091D01*
X130657331Y-126358796D01*
X130772546Y-126272546D01*
X130858796Y-126157331D01*
X130907810Y-126025916D01*
X130949681Y-125969984D01*
X131015145Y-125945566D01*
X131083418Y-125960417D01*
X131111673Y-125981569D01*
X131225213Y-126095109D01*
X131397179Y-126220048D01*
X131397181Y-126220049D01*
X131397184Y-126220051D01*
X131586588Y-126316557D01*
X131788757Y-126382246D01*
X131998713Y-126415500D01*
X131998714Y-126415500D01*
X132211286Y-126415500D01*
X132211287Y-126415500D01*
X132421243Y-126382246D01*
X132623412Y-126316557D01*
X132812816Y-126220051D01*
X132899138Y-126157335D01*
X132984786Y-126095109D01*
X132984788Y-126095106D01*
X132984792Y-126095104D01*
X133135104Y-125944792D01*
X133135106Y-125944788D01*
X133135109Y-125944786D01*
X133220890Y-125826717D01*
X133260051Y-125772816D01*
X133264793Y-125763508D01*
X133312763Y-125712711D01*
X133380583Y-125695911D01*
X133446719Y-125718445D01*
X133485763Y-125763500D01*
X133490373Y-125772547D01*
X133529728Y-125826716D01*
X134162037Y-125194408D01*
X134179075Y-125257993D01*
X134244901Y-125372007D01*
X134337993Y-125465099D01*
X134452007Y-125530925D01*
X134515590Y-125547962D01*
X133883282Y-126180269D01*
X133883282Y-126180270D01*
X133937449Y-126219624D01*
X134126782Y-126316095D01*
X134328870Y-126381757D01*
X134538754Y-126415000D01*
X134751246Y-126415000D01*
X134961127Y-126381757D01*
X134961130Y-126381757D01*
X135163217Y-126316095D01*
X135352554Y-126219622D01*
X135406716Y-126180270D01*
X135406717Y-126180270D01*
X134774408Y-125547962D01*
X134837993Y-125530925D01*
X134952007Y-125465099D01*
X135045099Y-125372007D01*
X135110925Y-125257993D01*
X135127962Y-125194409D01*
X135760270Y-125826717D01*
X135760270Y-125826716D01*
X135799622Y-125772554D01*
X135896095Y-125583217D01*
X135961757Y-125381130D01*
X135961757Y-125381127D01*
X135995000Y-125171246D01*
X135995000Y-124958753D01*
X135961757Y-124748872D01*
X135961757Y-124748869D01*
X135910828Y-124592124D01*
X135899459Y-124557135D01*
X137254500Y-124557135D01*
X137254500Y-126452870D01*
X137254501Y-126452876D01*
X137260908Y-126512483D01*
X137311202Y-126647328D01*
X137311206Y-126647335D01*
X137397452Y-126762544D01*
X137397455Y-126762547D01*
X137512664Y-126848793D01*
X137512671Y-126848797D01*
X137647517Y-126899091D01*
X137647516Y-126899091D01*
X137654444Y-126899835D01*
X137707127Y-126905500D01*
X139602872Y-126905499D01*
X139662483Y-126899091D01*
X139797331Y-126848796D01*
X139912546Y-126762546D01*
X139998796Y-126647331D01*
X139998885Y-126647093D01*
X140028601Y-126567420D01*
X140070471Y-126511486D01*
X140135936Y-126487068D01*
X140204209Y-126501919D01*
X140232464Y-126523071D01*
X140282636Y-126573243D01*
X140282641Y-126573247D01*
X140384603Y-126647326D01*
X140460978Y-126702815D01*
X140589375Y-126768237D01*
X140657393Y-126802895D01*
X140657396Y-126802896D01*
X140762221Y-126836955D01*
X140867049Y-126871015D01*
X141084778Y-126905500D01*
X141084779Y-126905500D01*
X141305221Y-126905500D01*
X141305222Y-126905500D01*
X141522951Y-126871015D01*
X141732606Y-126802895D01*
X141929022Y-126702815D01*
X142107365Y-126573242D01*
X142263242Y-126417365D01*
X142392815Y-126239022D01*
X142492895Y-126042606D01*
X142561015Y-125832951D01*
X142582720Y-125695911D01*
X142584569Y-125684240D01*
X142584569Y-125684239D01*
X142595500Y-125615222D01*
X142595500Y-125394778D01*
X142583274Y-125317586D01*
X142561015Y-125177049D01*
X142523378Y-125061212D01*
X142492896Y-124967396D01*
X142492895Y-124967393D01*
X142392815Y-124770978D01*
X142288018Y-124626736D01*
X142288017Y-124626735D01*
X142263243Y-124592636D01*
X142107363Y-124436756D01*
X142107358Y-124436752D01*
X141929025Y-124307187D01*
X141929024Y-124307186D01*
X141929022Y-124307185D01*
X141866096Y-124275122D01*
X141732606Y-124207104D01*
X141732603Y-124207103D01*
X141522952Y-124138985D01*
X141414086Y-124121742D01*
X141305222Y-124104500D01*
X141084778Y-124104500D01*
X141012201Y-124115995D01*
X140867047Y-124138985D01*
X140657396Y-124207103D01*
X140657393Y-124207104D01*
X140460974Y-124307187D01*
X140282641Y-124436752D01*
X140282636Y-124436756D01*
X140232463Y-124486929D01*
X140171140Y-124520413D01*
X140101448Y-124515428D01*
X140045515Y-124473557D01*
X140028601Y-124442580D01*
X139998797Y-124362671D01*
X139998793Y-124362664D01*
X139912547Y-124247455D01*
X139912544Y-124247452D01*
X139797335Y-124161206D01*
X139797328Y-124161202D01*
X139662482Y-124110908D01*
X139662483Y-124110908D01*
X139602883Y-124104501D01*
X139602881Y-124104500D01*
X139602873Y-124104500D01*
X139602864Y-124104500D01*
X137707129Y-124104500D01*
X137707123Y-124104501D01*
X137647516Y-124110908D01*
X137512671Y-124161202D01*
X137512664Y-124161206D01*
X137397455Y-124247452D01*
X137397452Y-124247455D01*
X137311206Y-124362664D01*
X137311202Y-124362671D01*
X137260908Y-124497517D01*
X137254501Y-124557116D01*
X137254500Y-124557135D01*
X135899459Y-124557135D01*
X135896095Y-124546783D01*
X135799624Y-124357449D01*
X135760270Y-124303282D01*
X135760269Y-124303282D01*
X135127962Y-124935590D01*
X135110925Y-124872007D01*
X135045099Y-124757993D01*
X134952007Y-124664901D01*
X134837993Y-124599075D01*
X134774409Y-124582037D01*
X135406716Y-123949728D01*
X135352550Y-123910375D01*
X135163217Y-123813904D01*
X134961129Y-123748242D01*
X134751246Y-123715000D01*
X134538754Y-123715000D01*
X134328872Y-123748242D01*
X134328869Y-123748242D01*
X134126782Y-123813904D01*
X133937439Y-123910380D01*
X133883282Y-123949727D01*
X133883282Y-123949728D01*
X134515591Y-124582037D01*
X134452007Y-124599075D01*
X134337993Y-124664901D01*
X134244901Y-124757993D01*
X134179075Y-124872007D01*
X134162037Y-124935591D01*
X133529728Y-124303282D01*
X133529727Y-124303282D01*
X133490380Y-124357440D01*
X133490376Y-124357446D01*
X133485760Y-124366505D01*
X133437781Y-124417297D01*
X133369959Y-124434087D01*
X133303826Y-124411543D01*
X133264794Y-124366493D01*
X133260051Y-124357184D01*
X133260049Y-124357181D01*
X133260048Y-124357179D01*
X133135109Y-124185213D01*
X132984786Y-124034890D01*
X132812820Y-123909951D01*
X132623414Y-123813444D01*
X132623413Y-123813443D01*
X132623412Y-123813443D01*
X132421243Y-123747754D01*
X132421241Y-123747753D01*
X132421240Y-123747753D01*
X132259957Y-123722208D01*
X132211287Y-123714500D01*
X131998713Y-123714500D01*
X131950042Y-123722208D01*
X131788760Y-123747753D01*
X131586585Y-123813444D01*
X131397179Y-123909951D01*
X131225215Y-124034889D01*
X131111673Y-124148431D01*
X131050350Y-124181915D01*
X130980658Y-124176931D01*
X130924725Y-124135059D01*
X130907810Y-124104082D01*
X130858797Y-123972671D01*
X130858793Y-123972664D01*
X130772547Y-123857455D01*
X130772544Y-123857452D01*
X130657335Y-123771206D01*
X130657328Y-123771202D01*
X130522482Y-123720908D01*
X130522483Y-123720908D01*
X130462883Y-123714501D01*
X130462881Y-123714500D01*
X130462873Y-123714500D01*
X130462865Y-123714500D01*
X130252901Y-123714500D01*
X130185862Y-123694815D01*
X130140107Y-123642011D01*
X130138340Y-123637953D01*
X130121639Y-123597633D01*
X130119312Y-123592015D01*
X130119311Y-123592013D01*
X130119310Y-123592011D01*
X130050858Y-123489567D01*
X130050855Y-123489563D01*
X123023519Y-116462227D01*
X122990034Y-116400904D01*
X122987200Y-116374546D01*
X122987200Y-112737350D01*
X123006885Y-112670311D01*
X123008098Y-112668459D01*
X123026043Y-112641602D01*
X123071094Y-112574179D01*
X123098900Y-112507047D01*
X123142740Y-112452644D01*
X123209034Y-112430579D01*
X123213461Y-112430500D01*
X148767048Y-112430500D01*
X148834087Y-112450185D01*
X148854729Y-112466819D01*
X150513181Y-114125272D01*
X150546666Y-114186595D01*
X150549500Y-114212953D01*
X150549500Y-114790001D01*
X150549501Y-114790017D01*
X150550358Y-114798398D01*
X150537589Y-114867091D01*
X150489708Y-114917975D01*
X150427000Y-114935000D01*
X125808106Y-114935000D01*
X125634141Y-114969603D01*
X125634132Y-114969606D01*
X125470259Y-115037483D01*
X125470246Y-115037490D01*
X125322766Y-115136034D01*
X125322764Y-115136037D01*
X124843835Y-115614964D01*
X124843833Y-115614966D01*
X124827104Y-115640006D01*
X124827102Y-115640009D01*
X124745287Y-115762452D01*
X124745284Y-115762457D01*
X124732757Y-115792704D01*
X124732756Y-115792707D01*
X124677405Y-115926333D01*
X124677403Y-115926341D01*
X124642800Y-116100303D01*
X124642800Y-116277696D01*
X124677403Y-116451658D01*
X124677405Y-116451666D01*
X124701844Y-116510666D01*
X124701844Y-116510667D01*
X124745284Y-116615542D01*
X124745285Y-116615544D01*
X124778661Y-116665495D01*
X124778662Y-116665496D01*
X124778665Y-116665500D01*
X124843836Y-116763036D01*
X124969264Y-116888464D01*
X124969267Y-116888466D01*
X124969268Y-116888467D01*
X125028336Y-116927933D01*
X125028339Y-116927936D01*
X125108173Y-116981280D01*
X125116753Y-116987013D01*
X125198693Y-117020953D01*
X125280634Y-117054895D01*
X125425605Y-117083731D01*
X125454603Y-117089499D01*
X125454607Y-117089500D01*
X125454608Y-117089500D01*
X125631993Y-117089500D01*
X125631994Y-117089499D01*
X125805966Y-117054895D01*
X125887906Y-117020953D01*
X125969847Y-116987013D01*
X125969849Y-116987011D01*
X125969852Y-116987010D01*
X126058255Y-116927939D01*
X126058255Y-116927938D01*
X126058259Y-116927936D01*
X126117336Y-116888464D01*
X126233481Y-116772319D01*
X126294804Y-116738834D01*
X126321162Y-116736000D01*
X150425500Y-116736000D01*
X150492539Y-116755685D01*
X150538294Y-116808489D01*
X150549500Y-116860000D01*
X150549500Y-117780001D01*
X150549501Y-117780019D01*
X150560000Y-117882796D01*
X150560001Y-117882799D01*
X150603996Y-118015564D01*
X150615186Y-118049334D01*
X150707288Y-118198656D01*
X150831344Y-118322712D01*
X150980666Y-118414814D01*
X151147203Y-118469999D01*
X151249991Y-118480500D01*
X151760047Y-118480499D01*
X151827086Y-118500183D01*
X151872841Y-118552987D01*
X151882785Y-118622146D01*
X151853760Y-118685702D01*
X151847728Y-118692180D01*
X150015370Y-120524539D01*
X149928244Y-120611664D01*
X149928238Y-120611672D01*
X149859790Y-120714108D01*
X149859789Y-120714110D01*
X149830283Y-120785346D01*
X149812639Y-120827940D01*
X149812635Y-120827955D01*
X149788600Y-120948789D01*
X149788600Y-121905447D01*
X149768915Y-121972486D01*
X149752281Y-121993128D01*
X147622518Y-124122890D01*
X147561195Y-124156375D01*
X147496521Y-124153141D01*
X147452950Y-124138984D01*
X147269706Y-124109961D01*
X147235222Y-124104500D01*
X147014778Y-124104500D01*
X146942201Y-124115995D01*
X146797047Y-124138985D01*
X146587396Y-124207103D01*
X146587393Y-124207104D01*
X146390974Y-124307187D01*
X146212641Y-124436752D01*
X146212636Y-124436756D01*
X146162075Y-124487317D01*
X146100752Y-124520801D01*
X146031060Y-124515816D01*
X145975127Y-124473945D01*
X145958213Y-124442968D01*
X145928354Y-124362913D01*
X145928350Y-124362906D01*
X145842190Y-124247812D01*
X145842187Y-124247809D01*
X145727093Y-124161649D01*
X145727086Y-124161645D01*
X145592379Y-124111403D01*
X145592372Y-124111401D01*
X145532844Y-124105000D01*
X144835000Y-124105000D01*
X144835000Y-125129722D01*
X144758694Y-125085667D01*
X144644244Y-125055000D01*
X144525756Y-125055000D01*
X144411306Y-125085667D01*
X144335000Y-125129722D01*
X144335000Y-124105000D01*
X143637155Y-124105000D01*
X143577627Y-124111401D01*
X143577620Y-124111403D01*
X143442913Y-124161645D01*
X143442906Y-124161649D01*
X143327812Y-124247809D01*
X143327809Y-124247812D01*
X143241649Y-124362906D01*
X143241645Y-124362913D01*
X143191403Y-124497620D01*
X143191401Y-124497627D01*
X143185000Y-124557155D01*
X143185000Y-125255000D01*
X144209722Y-125255000D01*
X144165667Y-125331306D01*
X144135000Y-125445756D01*
X144135000Y-125564244D01*
X144165667Y-125678694D01*
X144209722Y-125755000D01*
X143185000Y-125755000D01*
X143185000Y-126452844D01*
X143191401Y-126512372D01*
X143191403Y-126512379D01*
X143241645Y-126647086D01*
X143241649Y-126647093D01*
X143327809Y-126762187D01*
X143327812Y-126762190D01*
X143442906Y-126848350D01*
X143442913Y-126848354D01*
X143577620Y-126898596D01*
X143577627Y-126898598D01*
X143637155Y-126904999D01*
X143637172Y-126905000D01*
X144335000Y-126905000D01*
X144335000Y-125880277D01*
X144411306Y-125924333D01*
X144525756Y-125955000D01*
X144644244Y-125955000D01*
X144758694Y-125924333D01*
X144835000Y-125880277D01*
X144835000Y-126905000D01*
X145532828Y-126905000D01*
X145532844Y-126904999D01*
X145592372Y-126898598D01*
X145592379Y-126898596D01*
X145727086Y-126848354D01*
X145727093Y-126848350D01*
X145842187Y-126762190D01*
X145842190Y-126762187D01*
X145928350Y-126647093D01*
X145928354Y-126647086D01*
X145958213Y-126567031D01*
X146000084Y-126511097D01*
X146065548Y-126486680D01*
X146133821Y-126501531D01*
X146162076Y-126522683D01*
X146212636Y-126573243D01*
X146212641Y-126573247D01*
X146314603Y-126647326D01*
X146390978Y-126702815D01*
X146519375Y-126768237D01*
X146587393Y-126802895D01*
X146587396Y-126802896D01*
X146692221Y-126836955D01*
X146797049Y-126871015D01*
X147014778Y-126905500D01*
X147014779Y-126905500D01*
X147235221Y-126905500D01*
X147235222Y-126905500D01*
X147452951Y-126871015D01*
X147662606Y-126802895D01*
X147859022Y-126702815D01*
X148037365Y-126573242D01*
X148193242Y-126417365D01*
X148322815Y-126239022D01*
X148422895Y-126042606D01*
X148491015Y-125832951D01*
X148525500Y-125615222D01*
X148525500Y-125394778D01*
X148491015Y-125177049D01*
X148476857Y-125133478D01*
X148474863Y-125063638D01*
X148507106Y-125007482D01*
X150812829Y-122701760D01*
X150812833Y-122701758D01*
X150899958Y-122614633D01*
X150968411Y-122512186D01*
X150968412Y-122512185D01*
X151015563Y-122398351D01*
X151018032Y-122385941D01*
X151039600Y-122277506D01*
X151039600Y-121320851D01*
X151059285Y-121253812D01*
X151075915Y-121233174D01*
X151431621Y-120877467D01*
X151492942Y-120843984D01*
X151562633Y-120848968D01*
X151618567Y-120890839D01*
X151642984Y-120956304D01*
X151643300Y-120965149D01*
X151643300Y-121185000D01*
X151643301Y-121185019D01*
X151653800Y-121287796D01*
X151653801Y-121287799D01*
X151708985Y-121454331D01*
X151708987Y-121454336D01*
X151734844Y-121496257D01*
X151801088Y-121603656D01*
X151925144Y-121727712D01*
X152074466Y-121819814D01*
X152241003Y-121874999D01*
X152343791Y-121885500D01*
X152919437Y-121885499D01*
X152986476Y-121905183D01*
X153007118Y-121921818D01*
X153473181Y-122387881D01*
X153506666Y-122449204D01*
X153509500Y-122475562D01*
X153509500Y-125870500D01*
X153489815Y-125937539D01*
X153437011Y-125983294D01*
X153385500Y-125994500D01*
X151944499Y-125994500D01*
X151877460Y-125974815D01*
X151831705Y-125922011D01*
X151820499Y-125870500D01*
X151820499Y-125436971D01*
X151820499Y-125436964D01*
X151809886Y-125317582D01*
X151757208Y-125133479D01*
X151753910Y-125121954D01*
X151753909Y-125121953D01*
X151753909Y-125121951D01*
X151659698Y-124941593D01*
X151564886Y-124825315D01*
X151531109Y-124783890D01*
X151373409Y-124655304D01*
X151373410Y-124655304D01*
X151373407Y-124655302D01*
X151193049Y-124561091D01*
X151193048Y-124561090D01*
X151193045Y-124561089D01*
X151075829Y-124527550D01*
X150997418Y-124505114D01*
X150997415Y-124505113D01*
X150997413Y-124505113D01*
X150931102Y-124499217D01*
X150878037Y-124494500D01*
X150878032Y-124494500D01*
X149761971Y-124494500D01*
X149761965Y-124494500D01*
X149761964Y-124494501D01*
X149750316Y-124495536D01*
X149642584Y-124505113D01*
X149446954Y-124561089D01*
X149387541Y-124592124D01*
X149266593Y-124655302D01*
X149266591Y-124655303D01*
X149266590Y-124655304D01*
X149108890Y-124783890D01*
X148980304Y-124941590D01*
X148980302Y-124941593D01*
X148956061Y-124988000D01*
X148886089Y-125121954D01*
X148830114Y-125317583D01*
X148830113Y-125317586D01*
X148819500Y-125436966D01*
X148819500Y-128353028D01*
X148819501Y-128353034D01*
X148830079Y-128472020D01*
X148816408Y-128540539D01*
X148767863Y-128590790D01*
X148706566Y-128607000D01*
X134423539Y-128607000D01*
X134356500Y-128587315D01*
X134317975Y-128545565D01*
X134317298Y-128546018D01*
X134314423Y-128541715D01*
X134314179Y-128541451D01*
X134313909Y-128540946D01*
X134215364Y-128393465D01*
X134215361Y-128393461D01*
X134089938Y-128268038D01*
X134089934Y-128268035D01*
X133942453Y-128169490D01*
X133942440Y-128169483D01*
X133778567Y-128101606D01*
X133778558Y-128101603D01*
X133604594Y-128067000D01*
X133604591Y-128067000D01*
X133427209Y-128067000D01*
X133427206Y-128067000D01*
X133253241Y-128101603D01*
X133253232Y-128101606D01*
X133089359Y-128169483D01*
X133089346Y-128169490D01*
X132941865Y-128268035D01*
X132941861Y-128268038D01*
X132816438Y-128393461D01*
X132816431Y-128393470D01*
X132812340Y-128399593D01*
X132758727Y-128444397D01*
X132709240Y-128454700D01*
X117646262Y-128454700D01*
X117579223Y-128435015D01*
X117558581Y-128418381D01*
X117512219Y-128372019D01*
X117478734Y-128310696D01*
X117475900Y-128284338D01*
X117475900Y-127780661D01*
X117495585Y-127713622D01*
X117512219Y-127692980D01*
X118014459Y-127190740D01*
X118014463Y-127190736D01*
X118036560Y-127157666D01*
X118113013Y-127043247D01*
X118180894Y-126879366D01*
X118182556Y-126871015D01*
X118204202Y-126762190D01*
X118215500Y-126705391D01*
X118215500Y-126516439D01*
X118235185Y-126449400D01*
X118287989Y-126403645D01*
X118296168Y-126400257D01*
X118407326Y-126358798D01*
X118407326Y-126358797D01*
X118407331Y-126358796D01*
X118522546Y-126272546D01*
X118608796Y-126157331D01*
X118659091Y-126022483D01*
X118665500Y-125962873D01*
X118665499Y-125938979D01*
X118668330Y-125925963D01*
X118678940Y-125906525D01*
X118685179Y-125885275D01*
X118701803Y-125864643D01*
X118701808Y-125864636D01*
X118701811Y-125864634D01*
X118701818Y-125864626D01*
X119372037Y-125194408D01*
X119389075Y-125257993D01*
X119454901Y-125372007D01*
X119547993Y-125465099D01*
X119662007Y-125530925D01*
X119725590Y-125547962D01*
X119093282Y-126180269D01*
X119093282Y-126180270D01*
X119147449Y-126219624D01*
X119336782Y-126316095D01*
X119538870Y-126381757D01*
X119748754Y-126415000D01*
X119961246Y-126415000D01*
X120171127Y-126381757D01*
X120171130Y-126381757D01*
X120373217Y-126316095D01*
X120562554Y-126219622D01*
X120616716Y-126180270D01*
X120616717Y-126180270D01*
X119984408Y-125547962D01*
X120047993Y-125530925D01*
X120162007Y-125465099D01*
X120255099Y-125372007D01*
X120320925Y-125257993D01*
X120337962Y-125194409D01*
X120970270Y-125826717D01*
X120970270Y-125826716D01*
X121009622Y-125772554D01*
X121014514Y-125762954D01*
X121062488Y-125712157D01*
X121130308Y-125695361D01*
X121196444Y-125717897D01*
X121235486Y-125762954D01*
X121240375Y-125772550D01*
X121279728Y-125826716D01*
X121912037Y-125194408D01*
X121929075Y-125257993D01*
X121994901Y-125372007D01*
X122087993Y-125465099D01*
X122202007Y-125530925D01*
X122265590Y-125547962D01*
X121633282Y-126180269D01*
X121633282Y-126180270D01*
X121687449Y-126219624D01*
X121876782Y-126316095D01*
X122078870Y-126381757D01*
X122288754Y-126415000D01*
X122501246Y-126415000D01*
X122711127Y-126381757D01*
X122711130Y-126381757D01*
X122913217Y-126316095D01*
X123102554Y-126219622D01*
X123156716Y-126180270D01*
X123156717Y-126180270D01*
X122524408Y-125547962D01*
X122587993Y-125530925D01*
X122702007Y-125465099D01*
X122795099Y-125372007D01*
X122860925Y-125257993D01*
X122877962Y-125194409D01*
X123510270Y-125826717D01*
X123510270Y-125826716D01*
X123549622Y-125772554D01*
X123554514Y-125762954D01*
X123602488Y-125712157D01*
X123670308Y-125695361D01*
X123736444Y-125717897D01*
X123775486Y-125762954D01*
X123780375Y-125772550D01*
X123819728Y-125826716D01*
X124452037Y-125194408D01*
X124469075Y-125257993D01*
X124534901Y-125372007D01*
X124627993Y-125465099D01*
X124742007Y-125530925D01*
X124805590Y-125547962D01*
X124173282Y-126180269D01*
X124173282Y-126180270D01*
X124227449Y-126219624D01*
X124416782Y-126316095D01*
X124618870Y-126381757D01*
X124828754Y-126415000D01*
X125041246Y-126415000D01*
X125251127Y-126381757D01*
X125251130Y-126381757D01*
X125453217Y-126316095D01*
X125642554Y-126219622D01*
X125696716Y-126180270D01*
X125696717Y-126180270D01*
X125064408Y-125547962D01*
X125127993Y-125530925D01*
X125242007Y-125465099D01*
X125335099Y-125372007D01*
X125400925Y-125257993D01*
X125417962Y-125194409D01*
X126050270Y-125826717D01*
X126050270Y-125826716D01*
X126089622Y-125772554D01*
X126186095Y-125583217D01*
X126251757Y-125381130D01*
X126251757Y-125381127D01*
X126285000Y-125171246D01*
X126285000Y-124958753D01*
X126251757Y-124748872D01*
X126251757Y-124748869D01*
X126186095Y-124546782D01*
X126089624Y-124357449D01*
X126050270Y-124303282D01*
X126050269Y-124303282D01*
X125417962Y-124935590D01*
X125400925Y-124872007D01*
X125335099Y-124757993D01*
X125242007Y-124664901D01*
X125127993Y-124599075D01*
X125064409Y-124582037D01*
X125696716Y-123949728D01*
X125642550Y-123910375D01*
X125453217Y-123813904D01*
X125251129Y-123748242D01*
X125041246Y-123715000D01*
X124828754Y-123715000D01*
X124618872Y-123748242D01*
X124618869Y-123748242D01*
X124416782Y-123813904D01*
X124227439Y-123910380D01*
X124173282Y-123949727D01*
X124173282Y-123949728D01*
X124805591Y-124582037D01*
X124742007Y-124599075D01*
X124627993Y-124664901D01*
X124534901Y-124757993D01*
X124469075Y-124872007D01*
X124452037Y-124935591D01*
X123819728Y-124303282D01*
X123819727Y-124303282D01*
X123780380Y-124357440D01*
X123775483Y-124367051D01*
X123727506Y-124417845D01*
X123659684Y-124434638D01*
X123593550Y-124412098D01*
X123554516Y-124367048D01*
X123549626Y-124357452D01*
X123510270Y-124303282D01*
X123510269Y-124303282D01*
X122877962Y-124935590D01*
X122860925Y-124872007D01*
X122795099Y-124757993D01*
X122702007Y-124664901D01*
X122587993Y-124599075D01*
X122524409Y-124582037D01*
X123156716Y-123949728D01*
X123102550Y-123910375D01*
X122913217Y-123813904D01*
X122711129Y-123748242D01*
X122501246Y-123715000D01*
X122288754Y-123715000D01*
X122078872Y-123748242D01*
X122078869Y-123748242D01*
X121876782Y-123813904D01*
X121687439Y-123910380D01*
X121633282Y-123949727D01*
X121633282Y-123949728D01*
X122265591Y-124582037D01*
X122202007Y-124599075D01*
X122087993Y-124664901D01*
X121994901Y-124757993D01*
X121929075Y-124872007D01*
X121912037Y-124935591D01*
X121279728Y-124303282D01*
X121279727Y-124303282D01*
X121240380Y-124357440D01*
X121235483Y-124367051D01*
X121187506Y-124417845D01*
X121119684Y-124434638D01*
X121053550Y-124412098D01*
X121014516Y-124367048D01*
X121009626Y-124357452D01*
X120970270Y-124303282D01*
X120970269Y-124303282D01*
X120337962Y-124935590D01*
X120320925Y-124872007D01*
X120255099Y-124757993D01*
X120162007Y-124664901D01*
X120047993Y-124599075D01*
X119984409Y-124582037D01*
X120616716Y-123949728D01*
X120562550Y-123910375D01*
X120373217Y-123813904D01*
X120171129Y-123748242D01*
X119961246Y-123715000D01*
X119748754Y-123715000D01*
X119538872Y-123748242D01*
X119538869Y-123748242D01*
X119336782Y-123813904D01*
X119147439Y-123910380D01*
X119093282Y-123949727D01*
X119093282Y-123949728D01*
X119725591Y-124582037D01*
X119662007Y-124599075D01*
X119547993Y-124664901D01*
X119454901Y-124757993D01*
X119389075Y-124872007D01*
X119372037Y-124935591D01*
X118701818Y-124265372D01*
X118668333Y-124204049D01*
X118668330Y-124204036D01*
X118665499Y-124191015D01*
X118665499Y-124167128D01*
X118659091Y-124107517D01*
X118630926Y-124032002D01*
X118608798Y-123972673D01*
X118608793Y-123972664D01*
X118522547Y-123857455D01*
X118522544Y-123857452D01*
X118407335Y-123771206D01*
X118407328Y-123771202D01*
X118272482Y-123720908D01*
X118272483Y-123720908D01*
X118212883Y-123714501D01*
X118212881Y-123714500D01*
X118212873Y-123714500D01*
X118212865Y-123714500D01*
X117289362Y-123714500D01*
X117222323Y-123694815D01*
X117201681Y-123678181D01*
X116300335Y-122776835D01*
X116300330Y-122776831D01*
X116241261Y-122737364D01*
X116241260Y-122737363D01*
X116152844Y-122678285D01*
X116152842Y-122678284D01*
X116070907Y-122644346D01*
X116070906Y-122644346D01*
X115988966Y-122610405D01*
X115988958Y-122610403D01*
X115814996Y-122575800D01*
X115814992Y-122575800D01*
X115814991Y-122575800D01*
X106742392Y-122575800D01*
X106565008Y-122575800D01*
X106565003Y-122575800D01*
X106391041Y-122610403D01*
X106391029Y-122610406D01*
X106309092Y-122644345D01*
X106309093Y-122644346D01*
X106227155Y-122678285D01*
X106138740Y-122737363D01*
X106138739Y-122737364D01*
X106079661Y-122776837D01*
X105178317Y-123678181D01*
X105116994Y-123711666D01*
X105090636Y-123714500D01*
X104167129Y-123714500D01*
X104167123Y-123714501D01*
X104107516Y-123720908D01*
X103972671Y-123771202D01*
X103972664Y-123771206D01*
X103857455Y-123857452D01*
X103857452Y-123857455D01*
X103771206Y-123972664D01*
X103771202Y-123972671D01*
X103720908Y-124107517D01*
X103714501Y-124167116D01*
X103714500Y-124167135D01*
X102000000Y-124167135D01*
X102000000Y-106344986D01*
X150545001Y-106344986D01*
X150555494Y-106447697D01*
X150610641Y-106614119D01*
X150610643Y-106614124D01*
X150702684Y-106763345D01*
X150826654Y-106887315D01*
X150975875Y-106979356D01*
X150975880Y-106979358D01*
X151142302Y-107034505D01*
X151142309Y-107034506D01*
X151245019Y-107044999D01*
X151294999Y-107044998D01*
X151295000Y-107044998D01*
X151295000Y-106070000D01*
X150545001Y-106070000D01*
X150545001Y-106344986D01*
X102000000Y-106344986D01*
X102000000Y-96113872D01*
X150344500Y-96113872D01*
X150344500Y-96376127D01*
X150371123Y-96578339D01*
X150378730Y-96636116D01*
X150446602Y-96889418D01*
X150446605Y-96889428D01*
X150546953Y-97131690D01*
X150546958Y-97131700D01*
X150678075Y-97358803D01*
X150837718Y-97566851D01*
X150837726Y-97566860D01*
X151023140Y-97752274D01*
X151023148Y-97752281D01*
X151231196Y-97911924D01*
X151458299Y-98043041D01*
X151458309Y-98043046D01*
X151700571Y-98143394D01*
X151700581Y-98143398D01*
X151953884Y-98211270D01*
X152213880Y-98245500D01*
X152213887Y-98245500D01*
X152476113Y-98245500D01*
X152476120Y-98245500D01*
X152736116Y-98211270D01*
X152989419Y-98143398D01*
X153231697Y-98043043D01*
X153458803Y-97911924D01*
X153666851Y-97752282D01*
X153666855Y-97752277D01*
X153666860Y-97752274D01*
X153852274Y-97566860D01*
X153852277Y-97566855D01*
X153852282Y-97566851D01*
X154011924Y-97358803D01*
X154143043Y-97131697D01*
X154243398Y-96889419D01*
X154311270Y-96636116D01*
X154345500Y-96376120D01*
X154345500Y-96113880D01*
X154311270Y-95853884D01*
X154243398Y-95600581D01*
X154243394Y-95600571D01*
X154143046Y-95358309D01*
X154143041Y-95358299D01*
X154011924Y-95131196D01*
X153852281Y-94923148D01*
X153852274Y-94923140D01*
X153666860Y-94737726D01*
X153666851Y-94737718D01*
X153458803Y-94578075D01*
X153231700Y-94446958D01*
X153231690Y-94446953D01*
X152989428Y-94346605D01*
X152989421Y-94346603D01*
X152989419Y-94346602D01*
X152736116Y-94278730D01*
X152678339Y-94271123D01*
X152476127Y-94244500D01*
X152476120Y-94244500D01*
X152213880Y-94244500D01*
X152213872Y-94244500D01*
X151982772Y-94274926D01*
X151953884Y-94278730D01*
X151700581Y-94346602D01*
X151700571Y-94346605D01*
X151458309Y-94446953D01*
X151458299Y-94446958D01*
X151231196Y-94578075D01*
X151023148Y-94737718D01*
X150837718Y-94923148D01*
X150678075Y-95131196D01*
X150546958Y-95358299D01*
X150546953Y-95358309D01*
X150446605Y-95600571D01*
X150446602Y-95600581D01*
X150378730Y-95853885D01*
X150344500Y-96113872D01*
X102000000Y-96113872D01*
X102000000Y-90180258D01*
X152544500Y-90180258D01*
X152544500Y-90409741D01*
X152569446Y-90599215D01*
X152574452Y-90637238D01*
X152574453Y-90637240D01*
X152633842Y-90858887D01*
X152721650Y-91070876D01*
X152721657Y-91070890D01*
X152836392Y-91269617D01*
X152976081Y-91451661D01*
X152976089Y-91451670D01*
X153138330Y-91613911D01*
X153138338Y-91613918D01*
X153320382Y-91753607D01*
X153320385Y-91753608D01*
X153320388Y-91753611D01*
X153519112Y-91868344D01*
X153519117Y-91868346D01*
X153519123Y-91868349D01*
X153610480Y-91906190D01*
X153731113Y-91956158D01*
X153952762Y-92015548D01*
X154180266Y-92045500D01*
X154180273Y-92045500D01*
X154409727Y-92045500D01*
X154409734Y-92045500D01*
X154637238Y-92015548D01*
X154858887Y-91956158D01*
X155070888Y-91868344D01*
X155269612Y-91753611D01*
X155451661Y-91613919D01*
X155451665Y-91613914D01*
X155451670Y-91613911D01*
X155613911Y-91451670D01*
X155613914Y-91451665D01*
X155613919Y-91451661D01*
X155753611Y-91269612D01*
X155868344Y-91070888D01*
X155956158Y-90858887D01*
X156015548Y-90637238D01*
X156045500Y-90409734D01*
X156045500Y-90180266D01*
X156042049Y-90154060D01*
X156038357Y-90126006D01*
X156036759Y-90113872D01*
X164544500Y-90113872D01*
X164544500Y-90376127D01*
X164548925Y-90409734D01*
X164578730Y-90636116D01*
X164638421Y-90858887D01*
X164646602Y-90889418D01*
X164646605Y-90889428D01*
X164746953Y-91131690D01*
X164746958Y-91131700D01*
X164878075Y-91358803D01*
X165037718Y-91566851D01*
X165037726Y-91566860D01*
X165223140Y-91752274D01*
X165223148Y-91752281D01*
X165431196Y-91911924D01*
X165658299Y-92043041D01*
X165658309Y-92043046D01*
X165900571Y-92143394D01*
X165900581Y-92143398D01*
X166153884Y-92211270D01*
X166413880Y-92245500D01*
X166413887Y-92245500D01*
X166676113Y-92245500D01*
X166676120Y-92245500D01*
X166936116Y-92211270D01*
X167189419Y-92143398D01*
X167366340Y-92070114D01*
X167431690Y-92043046D01*
X167431691Y-92043045D01*
X167431697Y-92043043D01*
X167658803Y-91911924D01*
X167866851Y-91752282D01*
X167866855Y-91752277D01*
X167866860Y-91752274D01*
X168052274Y-91566860D01*
X168052277Y-91566855D01*
X168052282Y-91566851D01*
X168211924Y-91358803D01*
X168343043Y-91131697D01*
X168443398Y-90889419D01*
X168511270Y-90636116D01*
X168545500Y-90376120D01*
X168545500Y-90113880D01*
X168511270Y-89853884D01*
X168443398Y-89600581D01*
X168409657Y-89519123D01*
X168343046Y-89358309D01*
X168343041Y-89358299D01*
X168211924Y-89131196D01*
X168052281Y-88923148D01*
X168052274Y-88923140D01*
X167866860Y-88737726D01*
X167866851Y-88737718D01*
X167658803Y-88578075D01*
X167431700Y-88446958D01*
X167431690Y-88446953D01*
X167189428Y-88346605D01*
X167189421Y-88346603D01*
X167189419Y-88346602D01*
X166936116Y-88278730D01*
X166878339Y-88271123D01*
X166676127Y-88244500D01*
X166676120Y-88244500D01*
X166413880Y-88244500D01*
X166413872Y-88244500D01*
X166182772Y-88274926D01*
X166153884Y-88278730D01*
X165900581Y-88346602D01*
X165900571Y-88346605D01*
X165658309Y-88446953D01*
X165658299Y-88446958D01*
X165431196Y-88578075D01*
X165223148Y-88737718D01*
X165037718Y-88923148D01*
X164878075Y-89131196D01*
X164746958Y-89358299D01*
X164746953Y-89358309D01*
X164646605Y-89600571D01*
X164646602Y-89600581D01*
X164611627Y-89731112D01*
X164578730Y-89853885D01*
X164544500Y-90113872D01*
X156036759Y-90113872D01*
X156030158Y-90063740D01*
X156015548Y-89952762D01*
X155956158Y-89731113D01*
X155868344Y-89519112D01*
X155753611Y-89320388D01*
X155753608Y-89320385D01*
X155753607Y-89320382D01*
X155613918Y-89138338D01*
X155613911Y-89138330D01*
X155451670Y-88976089D01*
X155451661Y-88976081D01*
X155269617Y-88836392D01*
X155070890Y-88721657D01*
X155070876Y-88721650D01*
X154858887Y-88633842D01*
X154637238Y-88574452D01*
X154599215Y-88569446D01*
X154409741Y-88544500D01*
X154409734Y-88544500D01*
X154180266Y-88544500D01*
X154180258Y-88544500D01*
X153963715Y-88573009D01*
X153952762Y-88574452D01*
X153859076Y-88599554D01*
X153731112Y-88633842D01*
X153519123Y-88721650D01*
X153519109Y-88721657D01*
X153320382Y-88836392D01*
X153138338Y-88976081D01*
X152976081Y-89138338D01*
X152836392Y-89320382D01*
X152721657Y-89519109D01*
X152721650Y-89519123D01*
X152633842Y-89731112D01*
X152574453Y-89952759D01*
X152574451Y-89952770D01*
X152544500Y-90180258D01*
X102000000Y-90180258D01*
X102000000Y-84439220D01*
X102019685Y-84372181D01*
X102072489Y-84326426D01*
X102141647Y-84316482D01*
X102205203Y-84345507D01*
X102242977Y-84404285D01*
X102243775Y-84407127D01*
X102290093Y-84579991D01*
X102380414Y-84798045D01*
X102380419Y-84798056D01*
X102451377Y-84920957D01*
X102498427Y-85002450D01*
X102498429Y-85002453D01*
X102498430Y-85002454D01*
X102642106Y-85189697D01*
X102642112Y-85189704D01*
X102808995Y-85356587D01*
X102809001Y-85356592D01*
X102996250Y-85500273D01*
X103127618Y-85576118D01*
X103200643Y-85618280D01*
X103200648Y-85618282D01*
X103200651Y-85618284D01*
X103418707Y-85708606D01*
X103646686Y-85769693D01*
X103880689Y-85800500D01*
X103880696Y-85800500D01*
X104116704Y-85800500D01*
X104116711Y-85800500D01*
X104350714Y-85769693D01*
X104578693Y-85708606D01*
X104796749Y-85618284D01*
X105001150Y-85500273D01*
X105188399Y-85356592D01*
X105355292Y-85189699D01*
X105498973Y-85002450D01*
X105616984Y-84798049D01*
X105707306Y-84579993D01*
X105768393Y-84352014D01*
X105799200Y-84118011D01*
X105799200Y-83881989D01*
X105768393Y-83647986D01*
X105707306Y-83420007D01*
X105616984Y-83201951D01*
X105616982Y-83201948D01*
X105616980Y-83201943D01*
X105574818Y-83128918D01*
X105498973Y-82997550D01*
X105355292Y-82810301D01*
X105355287Y-82810295D01*
X105188404Y-82643412D01*
X105188397Y-82643406D01*
X105001154Y-82499730D01*
X105001153Y-82499729D01*
X105001150Y-82499727D01*
X104919657Y-82452677D01*
X104796756Y-82381719D01*
X104796745Y-82381714D01*
X104578693Y-82291394D01*
X104350710Y-82230306D01*
X104116720Y-82199501D01*
X104116717Y-82199500D01*
X104116711Y-82199500D01*
X103880689Y-82199500D01*
X103880683Y-82199500D01*
X103880679Y-82199501D01*
X103646689Y-82230306D01*
X103418706Y-82291394D01*
X103200654Y-82381714D01*
X103200643Y-82381719D01*
X102996245Y-82499730D01*
X102809002Y-82643406D01*
X102808995Y-82643412D01*
X102642112Y-82810295D01*
X102642106Y-82810302D01*
X102498430Y-82997545D01*
X102498427Y-82997549D01*
X102498427Y-82997550D01*
X102490714Y-83010909D01*
X102380419Y-83201943D01*
X102380414Y-83201954D01*
X102290094Y-83420006D01*
X102290094Y-83420007D01*
X102251584Y-83563730D01*
X102243775Y-83592873D01*
X102207410Y-83652533D01*
X102144563Y-83683062D01*
X102075187Y-83674767D01*
X102021309Y-83630282D01*
X102000035Y-83563730D01*
X102000000Y-83560779D01*
X102000000Y-81124000D01*
X102019685Y-81056961D01*
X102072489Y-81011206D01*
X102124000Y-81000000D01*
X174549904Y-81000000D01*
X174616943Y-81019685D01*
G37*
%TD.AperFunction*%
%TD*%
M02*
