M48
; DRILL file KiCad 10.0.5 date 2026-07-29T12:50:53
; FORMAT={-:-/ absolute / metric / decimal}
; #@! TF.CreationDate,2026-07-29T12:50:53-07:00
; #@! TF.GenerationSoftware,Kicad,Pcbnew,10.0.5
; #@! TF.FileFunction,Plated,1,2,PTH
FMAT,2
METRIC
; #@! TA.AperFunction,Plated,PTH,ComponentDrill
T1C0.200
; #@! TA.AperFunction,Plated,PTH,ViaDrill
T2C0.300
; #@! TA.AperFunction,Plated,PTH,ViaDrill
T3C0.400
; #@! TA.AperFunction,Plated,PTH,ComponentDrill
T4C0.600
; #@! TA.AperFunction,Plated,PTH,ComponentDrill
T5C0.800
; #@! TA.AperFunction,Plated,PTH,ComponentDrill
T6C0.900
; #@! TA.AperFunction,Plated,PTH,ComponentDrill
T7C1.000
; #@! TA.AperFunction,Plated,PTH,ComponentDrill
T8C1.050
; #@! TA.AperFunction,Plated,PTH,ComponentDrill
T9C1.100
; #@! TA.AperFunction,Plated,PTH,ComponentDrill
T10C1.300
%
G90
G05
T1
X165.3Y-109.49
X165.3Y-110.89
X166.0Y-108.79
X166.0Y-110.19
X166.0Y-111.59
X166.7Y-109.49
X166.7Y-110.89
X167.4Y-108.79
X167.4Y-110.19
X167.4Y-111.59
X168.1Y-109.49
X168.1Y-110.89
T2
X156.659Y-131.473
X157.272Y-146.469
X160.946Y-148.451
X169.885Y-146.978
X169.963Y-148.801
X171.212Y-151.716
X172.145Y-141.221
X173.371Y-130.762
X174.471Y-148.086
X177.256Y-150.03
X177.338Y-131.473
X184.166Y-155.07
T3
X148.686Y-131.473
X151.7Y-82.75
X151.7Y-86.25
X151.7Y-89.75
X151.7Y-93.25
X151.7Y-96.75
X151.7Y-100.25
X151.7Y-103.75
X151.7Y-107.25
X151.7Y-110.75
X151.7Y-114.25
X151.7Y-117.75
X151.7Y-121.25
X151.7Y-124.75
X151.7Y-128.25
X151.7Y-131.75
X151.7Y-138.75
X151.7Y-142.25
X151.7Y-156.25
X151.7Y-159.75
X151.7Y-163.25
X151.7Y-166.75
X151.7Y-170.25
X151.7Y-173.75
X151.7Y-177.25
X153.357Y-135.295
X153.96Y-128.526
X154.037Y-134.296
X155.2Y-82.75
X155.2Y-86.25
X155.2Y-89.75
X155.2Y-93.25
X155.2Y-96.75
X155.2Y-100.25
X155.2Y-103.75
X155.2Y-107.25
X155.2Y-110.75
X155.2Y-114.25
X155.2Y-117.75
X155.2Y-121.25
X155.2Y-124.75
X155.2Y-128.25
X155.2Y-131.75
X155.2Y-138.75
X155.2Y-156.25
X155.2Y-159.75
X155.2Y-163.25
X155.2Y-166.75
X155.2Y-170.25
X155.2Y-173.75
X155.2Y-177.25
X155.609Y-147.236
X157.3Y-102.47
X158.7Y-82.75
X158.7Y-86.25
X158.7Y-89.75
X158.7Y-93.25
X158.7Y-121.25
X158.7Y-124.75
X158.7Y-128.25
X158.7Y-131.75
X158.7Y-138.75
X158.7Y-159.75
X158.7Y-163.25
X158.7Y-166.75
X158.7Y-170.25
X158.7Y-173.75
X158.7Y-177.25
X159.062Y-147.378
X161.646Y-140.008
X162.2Y-82.75
X162.2Y-86.25
X162.2Y-89.75
X162.2Y-93.25
X162.2Y-103.75
X162.2Y-107.25
X162.2Y-110.75
X162.2Y-114.25
X162.2Y-117.75
X162.2Y-124.75
X162.2Y-128.25
X162.2Y-131.75
X162.2Y-135.25
X162.2Y-159.75
X162.2Y-163.25
X162.2Y-166.75
X162.2Y-170.25
X162.2Y-173.75
X162.2Y-177.25
X165.7Y-82.75
X165.7Y-86.25
X165.7Y-89.75
X165.7Y-93.25
X165.7Y-103.75
X165.7Y-107.25
X165.7Y-114.25
X165.7Y-117.75
X165.7Y-124.75
X165.7Y-128.25
X165.7Y-131.75
X165.7Y-135.25
X165.7Y-138.75
X165.7Y-159.75
X165.7Y-163.25
X165.7Y-166.75
X165.7Y-170.25
X165.7Y-173.75
X165.7Y-177.25
X166.385Y-140.565
X169.2Y-82.75
X169.2Y-86.25
X169.2Y-89.75
X169.2Y-93.25
X169.2Y-103.75
X169.2Y-107.25
X169.2Y-110.75
X169.2Y-114.25
X169.2Y-117.75
X169.2Y-124.75
X169.2Y-128.25
X169.2Y-131.75
X169.2Y-135.25
X169.2Y-138.75
X169.2Y-156.25
X169.2Y-159.75
X169.2Y-163.25
X169.2Y-166.75
X169.2Y-170.25
X169.2Y-173.75
X169.2Y-177.25
X169.211Y-140.111
X172.7Y-82.75
X172.7Y-86.25
X172.7Y-89.75
X172.7Y-93.25
X172.7Y-103.75
X172.7Y-107.25
X172.7Y-110.75
X172.7Y-114.25
X172.7Y-117.75
X172.7Y-124.75
X172.7Y-128.25
X172.7Y-131.75
X172.7Y-135.25
X172.7Y-156.25
X172.7Y-159.75
X172.7Y-163.25
X172.7Y-166.75
X172.7Y-170.25
X172.7Y-173.75
X172.7Y-177.25
X174.915Y-149.355
X176.2Y-82.75
X176.2Y-86.25
X176.2Y-89.75
X176.2Y-93.25
X176.2Y-121.25
X176.2Y-124.75
X176.2Y-128.25
X176.2Y-131.75
X176.2Y-135.25
X176.2Y-142.25
X176.2Y-145.75
X176.2Y-149.25
X176.2Y-159.75
X176.2Y-163.25
X176.2Y-166.75
X176.2Y-170.25
X176.2Y-173.75
X176.915Y-139.855
X178.976Y-152.868
X179.1Y-102.47
X179.7Y-82.75
X179.7Y-86.25
X179.7Y-89.75
X179.7Y-93.25
X179.7Y-96.75
X179.7Y-100.25
X179.7Y-103.75
X179.7Y-107.25
X179.7Y-110.75
X179.7Y-114.25
X179.7Y-117.75
X179.7Y-121.25
X179.7Y-124.75
X179.7Y-128.25
X179.7Y-131.75
X179.7Y-135.25
X179.7Y-138.75
X179.7Y-142.25
X179.7Y-145.75
X179.7Y-149.25
X179.7Y-159.75
X179.7Y-163.25
X179.7Y-166.75
X179.7Y-170.25
X179.7Y-173.75
X179.7Y-177.25
X183.2Y-82.75
X183.2Y-86.25
X183.2Y-89.75
X183.2Y-93.25
X183.2Y-96.75
X183.2Y-100.25
X183.2Y-103.75
X183.2Y-107.25
X183.2Y-110.75
X183.2Y-114.25
X183.2Y-117.75
X183.2Y-121.25
X183.2Y-124.75
X183.2Y-128.25
X183.2Y-131.75
X183.2Y-135.25
X183.2Y-159.75
X183.2Y-163.25
X183.2Y-166.75
X183.2Y-170.25
X183.2Y-173.75
X186.7Y-82.75
X186.7Y-86.25
X186.7Y-89.75
X186.7Y-93.25
X186.7Y-96.75
X186.7Y-100.25
X186.7Y-103.75
X186.7Y-107.25
X186.7Y-110.75
X186.7Y-114.25
X186.7Y-117.75
X186.7Y-121.25
X186.7Y-124.75
X186.7Y-128.25
X186.7Y-131.75
X186.7Y-135.25
X186.7Y-138.75
X186.7Y-142.25
X186.7Y-145.75
X186.7Y-149.25
X186.7Y-152.75
X186.7Y-156.25
X186.7Y-159.75
X186.7Y-163.25
X186.7Y-166.75
X186.7Y-170.25
X186.7Y-173.75
X186.7Y-177.25
T4
X107.545Y-145.275
X112.545Y-146.575
T5
X163.895Y-137.315
X163.895Y-139.855
X164.984Y-145.875
X167.484Y-145.875
X171.515Y-137.315
X171.515Y-139.855
X174.715Y-137.315
X174.715Y-139.855
X182.335Y-137.315
X182.335Y-139.855
T6
X157.025Y-149.595
X159.565Y-149.595
X162.955Y-152.575
X165.495Y-152.575
X168.885Y-153.265
X171.425Y-153.265
T7
X127.655Y-128.685
X127.655Y-140.685
X127.655Y-145.675
X127.655Y-157.675
X128.155Y-92.405
X133.155Y-121.485
X138.155Y-121.485
X143.155Y-92.405
X153.015Y-149.155
X153.015Y-151.695
X153.015Y-154.235
X153.994Y-141.045
X158.994Y-141.045
T8
X109.195Y-115.635
X109.195Y-120.635
X109.195Y-130.635
X109.195Y-135.635
T9
X172.075Y-144.075
X172.075Y-148.365
X182.235Y-144.075
X182.235Y-148.365
T10
X112.005Y-94.295
X112.005Y-99.295
X112.005Y-104.295
X125.705Y-134.635
X125.705Y-151.625
X127.155Y-166.375
X132.155Y-166.375
X137.155Y-166.375
X139.855Y-140.685
X139.855Y-157.675
X139.905Y-128.635
X139.905Y-145.625
M30
