%TF.GenerationSoftware,KiCad,Pcbnew,10.0.5*%
%TF.CreationDate,2026-07-29T02:32:19-07:00*%
%TF.ProjectId,cv-sw2,63762d73-7732-42e6-9b69-6361645f7063,rev?*%
%TF.SameCoordinates,Original*%
%TF.FileFunction,Soldermask,Bot*%
%TF.FilePolarity,Negative*%
%FSLAX46Y46*%
G04 Gerber Fmt 4.6, Leading zero omitted, Abs format (unit mm)*
G04 Created by KiCad (PCBNEW 10.0.5) date 2026-07-29 02:32:19*
%MOMM*%
%LPD*%
G01*
G04 APERTURE LIST*
G04 Aperture macros list*
%AMRoundRect*
0 Rectangle with rounded corners*
0 $1 Rounding radius*
0 $2 $3 $4 $5 $6 $7 $8 $9 X,Y pos of 4 corners*
0 Add a 4 corners polygon primitive as box body*
4,1,4,$2,$3,$4,$5,$6,$7,$8,$9,$2,$3,0*
0 Add four circle primitives for the rounded corners*
1,1,$1+$1,$2,$3*
1,1,$1+$1,$4,$5*
1,1,$1+$1,$6,$7*
1,1,$1+$1,$8,$9*
0 Add four rect primitives between the rounded corners*
20,1,$1+$1,$2,$3,$4,$5,0*
20,1,$1+$1,$4,$5,$6,$7,0*
20,1,$1+$1,$6,$7,$8,$9,0*
20,1,$1+$1,$8,$9,$2,$3,0*%
G04 Aperture macros list end*
%ADD10C,3.000000*%
%ADD11C,2.500000*%
%ADD12RoundRect,0.250000X0.750000X-0.600000X0.750000X0.600000X-0.750000X0.600000X-0.750000X-0.600000X0*%
%ADD13O,2.000000X1.700000*%
%ADD14RoundRect,0.249999X-0.850001X-0.850001X0.850001X-0.850001X0.850001X0.850001X-0.850001X0.850001X0*%
%ADD15C,2.200000*%
%ADD16RoundRect,0.250000X-1.050000X-1.050000X1.050000X-1.050000X1.050000X1.050000X-1.050000X1.050000X0*%
%ADD17C,2.600000*%
%ADD18C,3.200000*%
%ADD19RoundRect,0.250000X-0.550000X-0.550000X0.550000X-0.550000X0.550000X0.550000X-0.550000X0.550000X0*%
%ADD20C,1.600000*%
%ADD21R,1.800000X1.800000*%
%ADD22C,1.800000*%
%ADD23RoundRect,0.250000X-0.750000X-0.750000X0.750000X-0.750000X0.750000X0.750000X-0.750000X0.750000X0*%
%ADD24C,2.000000*%
%ADD25C,0.600000*%
%ADD26RoundRect,0.250000X1.050000X-1.050000X1.050000X1.050000X-1.050000X1.050000X-1.050000X-1.050000X0*%
%ADD27R,1.700000X1.700000*%
%ADD28C,1.700000*%
%ADD29RoundRect,0.500000X0.500000X-0.500000X0.500000X0.500000X-0.500000X0.500000X-0.500000X-0.500000X0*%
%ADD30RoundRect,0.250000X0.262500X0.450000X-0.262500X0.450000X-0.262500X-0.450000X0.262500X-0.450000X0*%
%ADD31RoundRect,0.250000X0.250000X0.475000X-0.250000X0.475000X-0.250000X-0.475000X0.250000X-0.475000X0*%
%ADD32RoundRect,0.150000X0.587500X0.150000X-0.587500X0.150000X-0.587500X-0.150000X0.587500X-0.150000X0*%
%ADD33RoundRect,0.250000X0.450000X-0.262500X0.450000X0.262500X-0.450000X0.262500X-0.450000X-0.262500X0*%
G04 APERTURE END LIST*
D10*
%TO.C,K1*%
X125705000Y-134635000D03*
D11*
X127655000Y-140685000D03*
D10*
X139855000Y-140685000D03*
X139905000Y-128635000D03*
D11*
X127655000Y-128685000D03*
%TD*%
D12*
%TO.C,PS1*%
X133155000Y-121485000D03*
D13*
X138155000Y-121485000D03*
X128155000Y-92405000D03*
X143155000Y-92405000D03*
%TD*%
D14*
%TO.C,D1*%
X172075000Y-96575000D03*
D15*
X182235000Y-96575000D03*
%TD*%
D16*
%TO.C,J2*%
X127155000Y-166375000D03*
D17*
X132155000Y-166375000D03*
X137155000Y-166375000D03*
%TD*%
D18*
%TO.C,MH1*%
X103998700Y-84000000D03*
%TD*%
D10*
%TO.C,K2*%
X125705000Y-151625000D03*
D11*
X127655000Y-157675000D03*
D10*
X139855000Y-157675000D03*
X139905000Y-145625000D03*
D11*
X127655000Y-145675000D03*
%TD*%
D19*
%TO.C,C2*%
X164983800Y-98375000D03*
D20*
X167483800Y-98375000D03*
%TD*%
D19*
%TO.C,U3*%
X163895000Y-89815000D03*
D20*
X163895000Y-92355000D03*
X171515000Y-92355000D03*
X171515000Y-89815000D03*
%TD*%
D21*
%TO.C,LED0*%
X157025000Y-102095000D03*
D22*
X159565000Y-102095000D03*
%TD*%
D20*
%TO.C,RV1*%
X107545000Y-145275000D03*
X112545000Y-146575000D03*
%TD*%
D23*
%TO.C,C1*%
X153993800Y-93545000D03*
D24*
X158993800Y-93545000D03*
%TD*%
D25*
%TO.C,U1*%
X165300000Y-130790000D03*
X165300000Y-132190000D03*
X166000000Y-130090000D03*
X166000000Y-131490000D03*
X166000000Y-132890000D03*
X166700000Y-130790000D03*
X166700000Y-132190000D03*
X167400000Y-130090000D03*
X167400000Y-131490000D03*
X167400000Y-132890000D03*
X168100000Y-130790000D03*
X168100000Y-132190000D03*
%TD*%
D21*
%TO.C,LED1*%
X162955000Y-105075000D03*
D22*
X165495000Y-105075000D03*
%TD*%
D26*
%TO.C,J1*%
X112005000Y-104295000D03*
D17*
X112005000Y-99295000D03*
X112005000Y-94295000D03*
%TD*%
D19*
%TO.C,U4*%
X174715000Y-89815000D03*
D20*
X174715000Y-92355000D03*
X182335000Y-92355000D03*
X182335000Y-89815000D03*
%TD*%
D18*
%TO.C,MH2*%
X184498700Y-176000000D03*
%TD*%
D14*
%TO.C,D2*%
X172075000Y-100865000D03*
D15*
X182235000Y-100865000D03*
%TD*%
D27*
%TO.C,JP*%
X153015000Y-101655000D03*
D28*
X153015000Y-104195000D03*
X153015000Y-106735000D03*
%TD*%
D29*
%TO.C,F1*%
X109195000Y-135635000D03*
X109195000Y-130635000D03*
D24*
X109195000Y-120635000D03*
X109195000Y-115635000D03*
%TD*%
D21*
%TO.C,LED2*%
X168885000Y-105765000D03*
D22*
X171425000Y-105765000D03*
%TD*%
D30*
%TO.C,R6*%
X157502500Y-104990000D03*
X155677500Y-104990000D03*
%TD*%
D31*
%TO.C,C5*%
X163795000Y-95190000D03*
X161895000Y-95190000D03*
%TD*%
D30*
%TO.C,R2*%
X168552500Y-101170000D03*
X166727500Y-101170000D03*
%TD*%
D31*
%TO.C,C6*%
X168285000Y-95190000D03*
X166385000Y-95190000D03*
%TD*%
D30*
%TO.C,R1*%
X164102500Y-101170000D03*
X162277500Y-101170000D03*
%TD*%
D32*
%TO.C,Q1*%
X154112500Y-96340000D03*
X154112500Y-98240000D03*
X152237500Y-97290000D03*
%TD*%
D30*
%TO.C,R9*%
X161952500Y-107970000D03*
X160127500Y-107970000D03*
%TD*%
%TO.C,R3*%
X175962500Y-103960000D03*
X174137500Y-103960000D03*
%TD*%
%TO.C,R7*%
X175962500Y-106950000D03*
X174137500Y-106950000D03*
%TD*%
D31*
%TO.C,C3*%
X153895000Y-89275000D03*
X151995000Y-89275000D03*
%TD*%
D30*
%TO.C,R4*%
X180412500Y-103960000D03*
X178587500Y-103960000D03*
%TD*%
D31*
%TO.C,C4*%
X158385000Y-89275000D03*
X156485000Y-89275000D03*
%TD*%
D33*
%TO.C,R10*%
X164760000Y-109612500D03*
X164760000Y-107787500D03*
%TD*%
D30*
%TO.C,R8*%
X180412500Y-106950000D03*
X178587500Y-106950000D03*
%TD*%
D33*
%TO.C,R5*%
X183220000Y-105602500D03*
X183220000Y-103777500D03*
%TD*%
D32*
%TO.C,Q2*%
X159062500Y-96340000D03*
X159062500Y-98240000D03*
X157187500Y-97290000D03*
%TD*%
M02*
