%TF.GenerationSoftware,KiCad,Pcbnew,10.0.5*%
%TF.CreationDate,2026-07-29T02:32:19-07:00*%
%TF.ProjectId,cv-sw2,63762d73-7732-42e6-9b69-6361645f7063,rev?*%
%TF.SameCoordinates,Original*%
%TF.FileFunction,Copper,L1,Top*%
%TF.FilePolarity,Positive*%
%FSLAX46Y46*%
G04 Gerber Fmt 4.6, Leading zero omitted, Abs format (unit mm)*
G04 Created by KiCad (PCBNEW 10.0.5) date 2026-07-29 02:32:19*
%MOMM*%
%LPD*%
G01*
G04 APERTURE LIST*
G04 Aperture macros list*
%AMRoundRect*
0 Rectangle with rounded corners*
0 $1 Rounding radius*
0 $2 $3 $4 $5 $6 $7 $8 $9 X,Y pos of 4 corners*
0 Add a 4 corners polygon primitive as box body*
4,1,4,$2,$3,$4,$5,$6,$7,$8,$9,$2,$3,0*
0 Add four circle primitives for the rounded corners*
1,1,$1+$1,$2,$3*
1,1,$1+$1,$4,$5*
1,1,$1+$1,$6,$7*
1,1,$1+$1,$8,$9*
0 Add four rect primitives between the rounded corners*
20,1,$1+$1,$2,$3,$4,$5,0*
20,1,$1+$1,$4,$5,$6,$7,0*
20,1,$1+$1,$6,$7,$8,$9,0*
20,1,$1+$1,$8,$9,$2,$3,0*%
G04 Aperture macros list end*
%TA.AperFunction,ComponentPad*%
%ADD10C,3.000000*%
%TD*%
%TA.AperFunction,ComponentPad*%
%ADD11C,2.500000*%
%TD*%
%TA.AperFunction,ComponentPad*%
%ADD12RoundRect,0.250000X0.750000X-0.600000X0.750000X0.600000X-0.750000X0.600000X-0.750000X-0.600000X0*%
%TD*%
%TA.AperFunction,ComponentPad*%
%ADD13O,2.000000X1.700000*%
%TD*%
%TA.AperFunction,ComponentPad*%
%ADD14RoundRect,0.249999X-0.850001X-0.850001X0.850001X-0.850001X0.850001X0.850001X-0.850001X0.850001X0*%
%TD*%
%TA.AperFunction,ComponentPad*%
%ADD15C,2.200000*%
%TD*%
%TA.AperFunction,ComponentPad*%
%ADD16RoundRect,0.250000X-1.050000X-1.050000X1.050000X-1.050000X1.050000X1.050000X-1.050000X1.050000X0*%
%TD*%
%TA.AperFunction,ComponentPad*%
%ADD17C,2.600000*%
%TD*%
%TA.AperFunction,ComponentPad*%
%ADD18RoundRect,0.250000X-0.550000X-0.550000X0.550000X-0.550000X0.550000X0.550000X-0.550000X0.550000X0*%
%TD*%
%TA.AperFunction,ComponentPad*%
%ADD19C,1.600000*%
%TD*%
%TA.AperFunction,SMDPad,CuDef*%
%ADD20C,1.500000*%
%TD*%
%TA.AperFunction,ComponentPad*%
%ADD21R,1.800000X1.800000*%
%TD*%
%TA.AperFunction,ComponentPad*%
%ADD22C,1.800000*%
%TD*%
%TA.AperFunction,SMDPad,CuDef*%
%ADD23RoundRect,0.375000X-0.625000X-0.375000X0.625000X-0.375000X0.625000X0.375000X-0.625000X0.375000X0*%
%TD*%
%TA.AperFunction,SMDPad,CuDef*%
%ADD24RoundRect,0.500000X-0.500000X-1.400000X0.500000X-1.400000X0.500000X1.400000X-0.500000X1.400000X0*%
%TD*%
%TA.AperFunction,ComponentPad*%
%ADD25RoundRect,0.250000X-0.750000X-0.750000X0.750000X-0.750000X0.750000X0.750000X-0.750000X0.750000X0*%
%TD*%
%TA.AperFunction,ComponentPad*%
%ADD26C,2.000000*%
%TD*%
%TA.AperFunction,SMDPad,CuDef*%
%ADD27R,1.500000X0.900000*%
%TD*%
%TA.AperFunction,SMDPad,CuDef*%
%ADD28R,0.900000X1.500000*%
%TD*%
%TA.AperFunction,HeatsinkPad*%
%ADD29R,0.900000X0.900000*%
%TD*%
%TA.AperFunction,HeatsinkPad*%
%ADD30C,0.600000*%
%TD*%
%TA.AperFunction,ComponentPad*%
%ADD31RoundRect,0.250000X1.050000X-1.050000X1.050000X1.050000X-1.050000X1.050000X-1.050000X-1.050000X0*%
%TD*%
%TA.AperFunction,SMDPad,CuDef*%
%ADD32C,1.000000*%
%TD*%
%TA.AperFunction,ComponentPad*%
%ADD33R,1.700000X1.700000*%
%TD*%
%TA.AperFunction,ComponentPad*%
%ADD34C,1.700000*%
%TD*%
%TA.AperFunction,ComponentPad*%
%ADD35RoundRect,0.500000X0.500000X-0.500000X0.500000X0.500000X-0.500000X0.500000X-0.500000X-0.500000X0*%
%TD*%
%TA.AperFunction,ViaPad*%
%ADD36C,0.600000*%
%TD*%
%TA.AperFunction,ViaPad*%
%ADD37C,0.800000*%
%TD*%
%TA.AperFunction,Conductor*%
%ADD38C,1.500000*%
%TD*%
%TA.AperFunction,Conductor*%
%ADD39C,0.800000*%
%TD*%
%TA.AperFunction,Conductor*%
%ADD40C,0.250000*%
%TD*%
G04 APERTURE END LIST*
D10*
%TO.P,K1,1*%
%TO.N,AC_L_FUSED*%
X125705000Y-134635000D03*
D11*
%TO.P,K1,2*%
%TO.N,RELAY1_SW*%
X127655000Y-140685000D03*
D10*
%TO.P,K1,3*%
%TO.N,+5V*%
X139855000Y-140685000D03*
%TO.P,K1,4*%
%TO.N,RELAY1_COIL*%
X139905000Y-128635000D03*
D11*
%TO.P,K1,5*%
%TO.N,N$K1.5*%
X127655000Y-128685000D03*
%TD*%
D12*
%TO.P,PS1,1*%
%TO.N,AC_L_FUSED*%
X133155000Y-121485000D03*
D13*
%TO.P,PS1,2*%
%TO.N,AC_N*%
X138155000Y-121485000D03*
%TO.P,PS1,3*%
%TO.N,GND*%
X128155000Y-92405000D03*
%TO.P,PS1,4*%
%TO.N,+5V*%
X143155000Y-92405000D03*
%TD*%
D14*
%TO.P,D1,1*%
%TO.N,+5V*%
X172075000Y-96575000D03*
D15*
%TO.P,D1,2*%
%TO.N,RELAY1_COIL*%
X182235000Y-96575000D03*
%TD*%
D16*
%TO.P,J2,1*%
%TO.N,+5V*%
X127155000Y-166375000D03*
D17*
%TO.P,J2,2*%
%TO.N,RELAY1_SW*%
X132155000Y-166375000D03*
%TO.P,J2,3*%
%TO.N,AC_N*%
X137155000Y-166375000D03*
%TD*%
D10*
%TO.P,K2,1*%
%TO.N,AC_L_FUSED*%
X125705000Y-151625000D03*
D11*
%TO.P,K2,2*%
%TO.N,RELAY2_SW*%
X127655000Y-157675000D03*
D10*
%TO.P,K2,3*%
%TO.N,+5V*%
X139855000Y-157675000D03*
%TO.P,K2,4*%
%TO.N,RELAY2_COIL*%
X139905000Y-145625000D03*
D11*
%TO.P,K2,5*%
%TO.N,N$K2.5*%
X127655000Y-145675000D03*
%TD*%
D18*
%TO.P,C2,1*%
%TO.N,+3V3*%
X164983800Y-98375000D03*
D19*
%TO.P,C2,2*%
%TO.N,GND*%
X167483800Y-98375000D03*
%TD*%
D20*
%TO.P,TP2,1*%
%TO.N,N$TP2.1*%
X178506300Y-104805000D03*
%TD*%
%TO.P,TP3,1*%
%TO.N,+5V*%
X152951300Y-175400000D03*
%TD*%
D18*
%TO.P,U3,1*%
%TO.N,RELAY1_OPT*%
X163895000Y-89815000D03*
D19*
%TO.P,U3,2*%
%TO.N,GND*%
X163895000Y-92355000D03*
%TO.P,U3,3*%
%TO.N,RELAY1_DRV*%
X171515000Y-92355000D03*
%TO.P,U3,4*%
%TO.N,+5V*%
X171515000Y-89815000D03*
%TD*%
D21*
%TO.P,LED0,1*%
%TO.N,N$LED0.1*%
X157025000Y-102095000D03*
D22*
%TO.P,LED0,2*%
%TO.N,N$LED0.2*%
X159565000Y-102095000D03*
%TD*%
D19*
%TO.P,RV1,1*%
%TO.N,AC_L_FUSED*%
X107545000Y-145275000D03*
%TO.P,RV1,2*%
%TO.N,AC_N*%
X112545000Y-146575000D03*
%TD*%
D23*
%TO.P,U2,1*%
%TO.N,GND*%
X152495000Y-158395000D03*
%TO.P,U2,2*%
%TO.N,+3V3*%
X152495000Y-160695000D03*
D24*
X158795000Y-160695000D03*
D23*
%TO.P,U2,3*%
%TO.N,+5V*%
X152495000Y-162995000D03*
%TD*%
D25*
%TO.P,C1,1*%
%TO.N,+5V*%
X153993800Y-93545000D03*
D26*
%TO.P,C1,2*%
%TO.N,GND*%
X158993800Y-93545000D03*
%TD*%
D27*
%TO.P,U1,1*%
%TO.N,GND*%
X159450000Y-123770000D03*
%TO.P,U1,2*%
%TO.N,+3V3*%
X159450000Y-125040000D03*
%TO.P,U1,3*%
%TO.N,EN*%
X159450000Y-126310000D03*
%TO.P,U1,4*%
%TO.N,N$U1.4*%
X159450000Y-127580000D03*
%TO.P,U1,5*%
%TO.N,N$U1.5*%
X159450000Y-128850000D03*
%TO.P,U1,6*%
%TO.N,N$U1.6*%
X159450000Y-130120000D03*
%TO.P,U1,7*%
%TO.N,N$U1.7*%
X159450000Y-131390000D03*
%TO.P,U1,8*%
%TO.N,N$U1.8*%
X159450000Y-132660000D03*
%TO.P,U1,9*%
%TO.N,N$U1.9*%
X159450000Y-133930000D03*
%TO.P,U1,10*%
%TO.N,N$U1.10*%
X159450000Y-135200000D03*
%TO.P,U1,11*%
%TO.N,RELAY1*%
X159450000Y-136470000D03*
%TO.P,U1,12*%
%TO.N,RELAY2*%
X159450000Y-137740000D03*
%TO.P,U1,13*%
%TO.N,N$U1.13*%
X159450000Y-139010000D03*
%TO.P,U1,14*%
%TO.N,N$U1.14*%
X159450000Y-140280000D03*
D28*
%TO.P,U1,15*%
%TO.N,GND*%
X162485000Y-141530000D03*
%TO.P,U1,16*%
%TO.N,N$U1.16*%
X163755000Y-141530000D03*
%TO.P,U1,17*%
%TO.N,N$U1.17*%
X165025000Y-141530000D03*
%TO.P,U1,18*%
%TO.N,N$U1.18*%
X166295000Y-141530000D03*
%TO.P,U1,19*%
%TO.N,N$U1.19*%
X167565000Y-141530000D03*
%TO.P,U1,20*%
%TO.N,N$U1.20*%
X168835000Y-141530000D03*
%TO.P,U1,21*%
%TO.N,N$U1.21*%
X170105000Y-141530000D03*
%TO.P,U1,22*%
%TO.N,N$U1.22*%
X171375000Y-141530000D03*
%TO.P,U1,23*%
%TO.N,TOUCH2__T3*%
X172645000Y-141530000D03*
%TO.P,U1,24*%
%TO.N,N$U1.24*%
X173915000Y-141530000D03*
D27*
%TO.P,U1,25*%
%TO.N,N$U1.25*%
X176950000Y-140280000D03*
%TO.P,U1,26*%
%TO.N,TOUCH1__T0*%
X176950000Y-139010000D03*
%TO.P,U1,27*%
%TO.N,N$U1.27*%
X176950000Y-137740000D03*
%TO.P,U1,28*%
%TO.N,N$U1.28*%
X176950000Y-136470000D03*
%TO.P,U1,29*%
%TO.N,N$U1.29*%
X176950000Y-135200000D03*
%TO.P,U1,30*%
%TO.N,N$U1.30*%
X176950000Y-133930000D03*
%TO.P,U1,31*%
%TO.N,N$U1.31*%
X176950000Y-132660000D03*
%TO.P,U1,32*%
%TO.N,N$U1.32*%
X176950000Y-131390000D03*
%TO.P,U1,33*%
%TO.N,N$U1.33*%
X176950000Y-130120000D03*
%TO.P,U1,34*%
%TO.N,UART_RX*%
X176950000Y-128850000D03*
%TO.P,U1,35*%
%TO.N,UART_TX*%
X176950000Y-127580000D03*
%TO.P,U1,36*%
%TO.N,N$U1.36*%
X176950000Y-126310000D03*
%TO.P,U1,37*%
%TO.N,N$U1.37*%
X176950000Y-125040000D03*
%TO.P,U1,38*%
%TO.N,GND*%
X176950000Y-123770000D03*
D29*
%TO.P,U1,39*%
X165300000Y-130090000D03*
D30*
X165300000Y-130790000D03*
D29*
X165300000Y-131490000D03*
D30*
X165300000Y-132190000D03*
D29*
X165300000Y-132890000D03*
D30*
X166000000Y-130090000D03*
X166000000Y-131490000D03*
X166000000Y-132890000D03*
D29*
X166700000Y-130090000D03*
D30*
X166700000Y-130790000D03*
D29*
X166700000Y-131490000D03*
D30*
X166700000Y-132190000D03*
D29*
X166700000Y-132890000D03*
D30*
X167400000Y-130090000D03*
X167400000Y-131490000D03*
X167400000Y-132890000D03*
D29*
X168100000Y-130090000D03*
D30*
X168100000Y-130790000D03*
D29*
X168100000Y-131490000D03*
D30*
X168100000Y-132190000D03*
D29*
X168100000Y-132890000D03*
%TD*%
D21*
%TO.P,LED1,1*%
%TO.N,N$LED1.1*%
X162955000Y-105075000D03*
D22*
%TO.P,LED1,2*%
%TO.N,N$LED1.2*%
X165495000Y-105075000D03*
%TD*%
D31*
%TO.P,J1,1*%
%TO.N,AC_L*%
X112005000Y-104295000D03*
D17*
%TO.P,J1,2*%
%TO.N,AC_N*%
X112005000Y-99295000D03*
%TO.P,J1,3*%
%TO.N,RELAY2_SW*%
X112005000Y-94295000D03*
%TD*%
D32*
%TO.P,FID2,*%
%TO.N,*%
X177881300Y-176800000D03*
%TD*%
%TO.P,FID1,*%
%TO.N,*%
X110621300Y-83200000D03*
%TD*%
D20*
%TO.P,TP1,1*%
%TO.N,N$TP1.1*%
X174916300Y-104805000D03*
%TD*%
%TO.P,TP5,1*%
%TO.N,GND*%
X160951300Y-175400000D03*
%TD*%
%TO.P,TP4,1*%
%TO.N,+3V3*%
X156951300Y-175400000D03*
%TD*%
D18*
%TO.P,U4,1*%
%TO.N,RELAY2_OPT*%
X174715000Y-89815000D03*
D19*
%TO.P,U4,2*%
%TO.N,GND*%
X174715000Y-92355000D03*
%TO.P,U4,3*%
%TO.N,RELAY2_DRV*%
X182335000Y-92355000D03*
%TO.P,U4,4*%
%TO.N,+5V*%
X182335000Y-89815000D03*
%TD*%
D14*
%TO.P,D2,1*%
%TO.N,+5V*%
X172075000Y-100865000D03*
D15*
%TO.P,D2,2*%
%TO.N,RELAY2_COIL*%
X182235000Y-100865000D03*
%TD*%
D33*
%TO.P,JP,1*%
%TO.N,UART_TX*%
X153015000Y-101655000D03*
D34*
%TO.P,JP,2*%
%TO.N,UART_RX*%
X153015000Y-104195000D03*
%TO.P,JP,3*%
%TO.N,GND*%
X153015000Y-106735000D03*
%TD*%
D35*
%TO.P,F1,1*%
%TO.N,AC_L*%
X109195000Y-135635000D03*
X109195000Y-130635000D03*
D26*
%TO.P,F1,2*%
%TO.N,AC_L_FUSED*%
X109195000Y-120635000D03*
X109195000Y-115635000D03*
%TD*%
D21*
%TO.P,LED2,1*%
%TO.N,N$LED2.1*%
X168885000Y-105765000D03*
D22*
%TO.P,LED2,2*%
%TO.N,N$LED2.2*%
X171425000Y-105765000D03*
%TD*%
D36*
%TO.N,RELAY1_COIL*%
X142772200Y-99054700D03*
D37*
%TO.N,GND*%
X186700000Y-131750000D03*
X183200000Y-163250000D03*
X155200000Y-145750000D03*
X172700000Y-149250000D03*
X179700000Y-131750000D03*
X186700000Y-96750000D03*
X179700000Y-135250000D03*
X169200000Y-82750000D03*
X151700000Y-145750000D03*
X162200000Y-173750000D03*
X165700000Y-159750000D03*
X172700000Y-156250000D03*
X162200000Y-145750000D03*
X155200000Y-124750000D03*
X155200000Y-135250000D03*
X176200000Y-163250000D03*
X176200000Y-96750000D03*
X186700000Y-145750000D03*
X183200000Y-159750000D03*
X172700000Y-124750000D03*
X179700000Y-117750000D03*
X165700000Y-173750000D03*
X157300000Y-123770000D03*
X183200000Y-135250000D03*
X155200000Y-82750000D03*
X172700000Y-166750000D03*
X183200000Y-145750000D03*
X186700000Y-177250000D03*
X169200000Y-166750000D03*
X172700000Y-145750000D03*
X179700000Y-124750000D03*
X169200000Y-152750000D03*
X169200000Y-124750000D03*
X172700000Y-135250000D03*
X176200000Y-114250000D03*
X162200000Y-166750000D03*
X169200000Y-149250000D03*
X186700000Y-121250000D03*
X179700000Y-149250000D03*
X162200000Y-82750000D03*
X179700000Y-82750000D03*
X186700000Y-149250000D03*
X151700000Y-124750000D03*
X186700000Y-159750000D03*
X169200000Y-145750000D03*
X162200000Y-114250000D03*
X172700000Y-170250000D03*
X158700000Y-114250000D03*
X183200000Y-142250000D03*
X169200000Y-110750000D03*
X151995000Y-91400000D03*
X186700000Y-152750000D03*
X169200000Y-173750000D03*
X179100000Y-123770000D03*
X179700000Y-128250000D03*
X155200000Y-170250000D03*
X176200000Y-145750000D03*
X155200000Y-131750000D03*
X165700000Y-82750000D03*
X186700000Y-114250000D03*
X161895000Y-97315000D03*
X183200000Y-117750000D03*
X183200000Y-114250000D03*
X158700000Y-152750000D03*
X172700000Y-110750000D03*
X158700000Y-177250000D03*
X183200000Y-152750000D03*
X151700000Y-86250000D03*
X183200000Y-110750000D03*
X183200000Y-124750000D03*
X158700000Y-145750000D03*
X186700000Y-86250000D03*
X158700000Y-149250000D03*
X179700000Y-114250000D03*
X172700000Y-82750000D03*
X176200000Y-82750000D03*
X179700000Y-156250000D03*
X155200000Y-142250000D03*
X162200000Y-152750000D03*
X151700000Y-173750000D03*
X151700000Y-142250000D03*
X158700000Y-86250000D03*
X165700000Y-128250000D03*
X162200000Y-124750000D03*
X151700000Y-170250000D03*
X162200000Y-135250000D03*
X176200000Y-142250000D03*
X162200000Y-131750000D03*
X186700000Y-124750000D03*
X179700000Y-152750000D03*
X151700000Y-131750000D03*
X162200000Y-156250000D03*
X183200000Y-121250000D03*
X176200000Y-170250000D03*
X186700000Y-93250000D03*
X183200000Y-156250000D03*
X155200000Y-138750000D03*
X162200000Y-138750000D03*
X155200000Y-121250000D03*
X186700000Y-82750000D03*
X169200000Y-93250000D03*
X179700000Y-166750000D03*
X162200000Y-86250000D03*
X151700000Y-82750000D03*
X172700000Y-159750000D03*
X179700000Y-138750000D03*
X162200000Y-163250000D03*
X179700000Y-96750000D03*
X155200000Y-117750000D03*
X151700000Y-114250000D03*
X151700000Y-110750000D03*
X151700000Y-177250000D03*
X169200000Y-159750000D03*
X151700000Y-117750000D03*
X179700000Y-142250000D03*
X155200000Y-166750000D03*
X179700000Y-110750000D03*
X151700000Y-93250000D03*
X151700000Y-166750000D03*
X155200000Y-177250000D03*
X183200000Y-149250000D03*
X183200000Y-166750000D03*
X179700000Y-145750000D03*
X183200000Y-170250000D03*
X172700000Y-163250000D03*
X165700000Y-135250000D03*
X155200000Y-149250000D03*
X158700000Y-170250000D03*
X151700000Y-121250000D03*
X179700000Y-121250000D03*
X158700000Y-156250000D03*
X169200000Y-177250000D03*
X155200000Y-107250000D03*
X169200000Y-89750000D03*
X186700000Y-103750000D03*
X176200000Y-149250000D03*
X169200000Y-128250000D03*
X165700000Y-156250000D03*
X169200000Y-131750000D03*
X183200000Y-82750000D03*
X186700000Y-107250000D03*
X172700000Y-152750000D03*
X151700000Y-128250000D03*
X155200000Y-163250000D03*
X179700000Y-93250000D03*
X172700000Y-86250000D03*
X165700000Y-114250000D03*
X165700000Y-138750000D03*
X169684000Y-98375000D03*
X172700000Y-138750000D03*
X165700000Y-163250000D03*
X162200000Y-149250000D03*
X151700000Y-152750000D03*
X162200000Y-170250000D03*
X165700000Y-149250000D03*
X172700000Y-131750000D03*
X183200000Y-131750000D03*
X169200000Y-138750000D03*
X165700000Y-152750000D03*
X165700000Y-93250000D03*
X186700000Y-142250000D03*
X169200000Y-163250000D03*
X159062000Y-99877500D03*
X186700000Y-135250000D03*
X186700000Y-100250000D03*
X158700000Y-82750000D03*
X155200000Y-100250000D03*
X186700000Y-163250000D03*
X155200000Y-86250000D03*
X179700000Y-100250000D03*
X158700000Y-166750000D03*
X155200000Y-152750000D03*
X176915000Y-92355000D03*
X162200000Y-110750000D03*
X179700000Y-170250000D03*
X156594000Y-93545000D03*
X179700000Y-177250000D03*
X186700000Y-117750000D03*
X172700000Y-177250000D03*
X155200000Y-110750000D03*
X186700000Y-173750000D03*
X165700000Y-124750000D03*
X176200000Y-152750000D03*
X172700000Y-173750000D03*
X158700000Y-110750000D03*
X186700000Y-138750000D03*
X186700000Y-170250000D03*
X186700000Y-166750000D03*
X169200000Y-170250000D03*
X183200000Y-128250000D03*
X186700000Y-110750000D03*
X176200000Y-156250000D03*
X186700000Y-156250000D03*
X162485000Y-143680000D03*
X179700000Y-173750000D03*
X165700000Y-86250000D03*
X151700000Y-135250000D03*
X165700000Y-166750000D03*
X176200000Y-100250000D03*
X165700000Y-170250000D03*
X169200000Y-114250000D03*
X155200000Y-114250000D03*
X151700000Y-149250000D03*
X169200000Y-156250000D03*
X176200000Y-173750000D03*
X158700000Y-142250000D03*
X186700000Y-128250000D03*
X151700000Y-156250000D03*
X151700000Y-138750000D03*
X176200000Y-86250000D03*
X158700000Y-173750000D03*
X155200000Y-128250000D03*
X176200000Y-110750000D03*
X169200000Y-86250000D03*
X176200000Y-166750000D03*
X186700000Y-89750000D03*
X165700000Y-177250000D03*
X162200000Y-177250000D03*
X162200000Y-159750000D03*
X179700000Y-163250000D03*
X165700000Y-145750000D03*
X155200000Y-173750000D03*
X169200000Y-135250000D03*
X176200000Y-159750000D03*
X156485000Y-91400000D03*
X183200000Y-86250000D03*
X172700000Y-128250000D03*
X162200000Y-128250000D03*
X179700000Y-89750000D03*
X183200000Y-138750000D03*
X179700000Y-159750000D03*
X183200000Y-173750000D03*
X172700000Y-114250000D03*
X155200000Y-156250000D03*
X179700000Y-86250000D03*
D36*
%TO.N,RELAY2_COIL*%
X166486800Y-99569500D03*
X155464000Y-96854400D03*
X148685600Y-140314100D03*
D37*
%TO.N,+3V3*%
X172776800Y-104367900D03*
D36*
%TO.N,RELAY1_OPT*%
X151832800Y-99069700D03*
%TO.N,RELAY1_DRV*%
X161617800Y-93731400D03*
%TO.N,EN*%
X157708500Y-112932900D03*
%TO.N,RELAY1*%
X163602200Y-102939500D03*
%TO.N,RELAY2*%
X157388700Y-137717800D03*
X161012200Y-102080200D03*
X153409500Y-137367000D03*
%TO.N,TOUCH2__T3*%
X181722500Y-104227000D03*
%TO.N,TOUCH1__T0*%
X177304800Y-104159100D03*
%TO.N,UART_RX*%
X175008800Y-128525700D03*
%TO.N,UART_TX*%
X177237100Y-115791900D03*
%TO.N,RELAY2_DRV*%
X163214400Y-96689100D03*
X170214900Y-97111300D03*
%TD*%
%TO.N,AC_L_FUSED*%
D38*
X125705000Y-151625000D02*
X123645000Y-149565000D01*
X123645000Y-136695000D02*
X125705000Y-134635000D01*
X105430500Y-119039900D02*
X105430500Y-143160500D01*
X108835400Y-115635000D02*
X105430500Y-119039900D01*
X105430500Y-143160500D02*
X107545000Y-145275000D01*
X109195000Y-115635000D02*
X109195000Y-120635000D01*
X123645000Y-149565000D02*
X123645000Y-136695000D01*
X109195000Y-115635000D02*
X108835400Y-115635000D01*
%TO.N,+5V*%
D39*
X140907500Y-167859600D02*
X140907500Y-162995000D01*
X172075000Y-96575000D02*
X172075000Y-100865000D01*
X152495000Y-162995000D02*
X152951300Y-163451300D01*
X140907500Y-162995000D02*
X140907500Y-158727500D01*
X155695500Y-95246700D02*
X153993800Y-93545000D01*
X143155000Y-93956700D02*
X143827300Y-94629000D01*
X130655900Y-170111300D02*
X138655800Y-170111300D01*
X127155000Y-166610400D02*
X130655900Y-170111300D01*
X172075000Y-96575000D02*
X170746700Y-95246700D01*
X143827300Y-94629000D02*
X143827300Y-136712700D01*
X140907500Y-158727500D02*
X139855000Y-157675000D01*
X137698500Y-142841500D02*
X139855000Y-140685000D01*
X143155000Y-92405000D02*
X143155000Y-93956700D01*
X173050000Y-91350000D02*
X173050000Y-95600000D01*
X137698500Y-155518500D02*
X137698500Y-142841500D01*
X127155000Y-166375000D02*
X127155000Y-166610400D01*
X170746700Y-95246700D02*
X155695500Y-95246700D01*
X171515000Y-89815000D02*
X173050000Y-91350000D01*
X143827300Y-136712700D02*
X139855000Y-140685000D01*
X152951300Y-163451300D02*
X152951300Y-175400000D01*
X152495000Y-162995000D02*
X140907500Y-162995000D01*
X139855000Y-157675000D02*
X137698500Y-155518500D01*
X173050000Y-95600000D02*
X172075000Y-96575000D01*
X138655800Y-170111300D02*
X140907500Y-167859600D01*
%TO.N,RELAY1_COIL*%
D40*
X142772200Y-125767800D02*
X142772200Y-99054700D01*
X139905000Y-128635000D02*
X142772200Y-125767800D01*
%TO.N,AC_N*%
D38*
X126171800Y-161931400D02*
X133504400Y-161931400D01*
X116461800Y-146178400D02*
X116461800Y-102389500D01*
X116065200Y-146575000D02*
X112545000Y-146575000D01*
X137155000Y-165582000D02*
X137155000Y-166375000D01*
X116065200Y-146575000D02*
X116461800Y-146178400D01*
X116461800Y-102389500D02*
X113367300Y-99295000D01*
X133504400Y-161931400D02*
X137155000Y-165582000D01*
X116065200Y-151824800D02*
X126171800Y-161931400D01*
X116065200Y-146575000D02*
X116065200Y-151824800D01*
X113367300Y-99295000D02*
X112005000Y-99295000D01*
%TO.N,RELAY2_SW*%
X113346900Y-94295000D02*
X112005000Y-94295000D01*
X123455000Y-104403100D02*
X113346900Y-94295000D01*
X123455000Y-118735800D02*
X123455000Y-104403100D01*
X127655000Y-157675000D02*
X131662700Y-153667300D01*
X131662700Y-153667300D02*
X131662700Y-126943500D01*
X131662700Y-126943500D02*
X123455000Y-118735800D01*
%TO.N,RELAY2_COIL*%
D40*
X169368000Y-102450700D02*
X166486800Y-99569500D01*
X180649300Y-102450700D02*
X169368000Y-102450700D01*
X182235000Y-100865000D02*
X180649300Y-102450700D01*
X155464000Y-96854400D02*
X148685600Y-103632800D01*
X148685600Y-103632800D02*
X148685600Y-140314100D01*
%TO.N,+3V3*%
D39*
X156950000Y-160695000D02*
X158795000Y-160695000D01*
X154098300Y-113674000D02*
X161165200Y-106607100D01*
X154411200Y-137782000D02*
X154411200Y-136952000D01*
X154098300Y-139226300D02*
X154098300Y-138094900D01*
X154098300Y-136639100D02*
X154098300Y-113674000D01*
X159823400Y-144000000D02*
X158872000Y-144000000D01*
X156950000Y-160695000D02*
X156950000Y-175398700D01*
X164983800Y-98375000D02*
X164983800Y-99620100D01*
X161165200Y-106607100D02*
X161165200Y-103959900D01*
X159823400Y-144000000D02*
X159823400Y-159666600D01*
X165244400Y-99880700D02*
X169268700Y-103905000D01*
X158872000Y-144000000D02*
X154098300Y-139226300D01*
X161165200Y-103959900D02*
X165244400Y-99880700D01*
X159450000Y-125040000D02*
X160901700Y-125040000D01*
X159823400Y-159666600D02*
X158795000Y-160695000D01*
X172313900Y-103905000D02*
X172776800Y-104367900D01*
X164983800Y-99620100D02*
X165244400Y-99880700D01*
X160901700Y-142921700D02*
X159823400Y-144000000D01*
X154411200Y-136952000D02*
X154098300Y-136639100D01*
X154098300Y-138094900D02*
X154411200Y-137782000D01*
X160901700Y-125040000D02*
X160901700Y-142921700D01*
X152495000Y-160695000D02*
X156950000Y-160695000D01*
X169268700Y-103905000D02*
X172313900Y-103905000D01*
%TO.N,RELAY1_OPT*%
D40*
X155242300Y-89815000D02*
X163895000Y-89815000D01*
X152535000Y-98367500D02*
X152535000Y-92522300D01*
X152535000Y-92522300D02*
X155242300Y-89815000D01*
X151832800Y-99069700D02*
X152535000Y-98367500D01*
%TO.N,RELAY1_DRV*%
X171515000Y-92355000D02*
X169781800Y-94088200D01*
X169781800Y-94088200D02*
X161974600Y-94088200D01*
X161974600Y-94088200D02*
X161617800Y-93731400D01*
%TO.N,EN*%
X158268700Y-126205400D02*
X158268700Y-115041800D01*
X157708500Y-114481600D02*
X157708500Y-112932900D01*
X158373300Y-126310000D02*
X158268700Y-126205400D01*
X158268700Y-115041800D02*
X157708500Y-114481600D01*
X159450000Y-126310000D02*
X158373300Y-126310000D01*
%TO.N,RELAY1*%
X164225000Y-106434900D02*
X164225000Y-103562300D01*
X164225000Y-103562300D02*
X163602200Y-102939500D01*
X158644900Y-112015000D02*
X164225000Y-106434900D01*
X156466200Y-134562900D02*
X156466200Y-113288700D01*
X158373300Y-136470000D02*
X156466200Y-134562900D01*
X157739900Y-112015000D02*
X158644900Y-112015000D01*
X159450000Y-136470000D02*
X158373300Y-136470000D01*
X156466200Y-113288700D02*
X157739900Y-112015000D01*
%TO.N,RELAY2*%
X153234000Y-137191500D02*
X153409500Y-137367000D01*
X161012200Y-102657600D02*
X153234000Y-110435800D01*
X157388700Y-137717800D02*
X158351100Y-137717800D01*
X161012200Y-102080200D02*
X161012200Y-102657600D01*
X158351100Y-137717800D02*
X158373300Y-137740000D01*
X159450000Y-137740000D02*
X158373300Y-137740000D01*
X153234000Y-110435800D02*
X153234000Y-137191500D01*
%TO.N,TOUCH2__T3*%
X178556000Y-141080700D02*
X181722500Y-137914200D01*
X175369700Y-140453300D02*
X175997100Y-141080700D01*
X172645000Y-140453300D02*
X175369700Y-140453300D01*
X181722500Y-137914200D02*
X181722500Y-104227000D01*
X175997100Y-141080700D02*
X178556000Y-141080700D01*
X172645000Y-141530000D02*
X172645000Y-140453300D01*
%TO.N,TOUCH1__T0*%
X180991500Y-136045200D02*
X178026700Y-139010000D01*
X176950000Y-139010000D02*
X178026700Y-139010000D01*
X177304800Y-113023900D02*
X180991500Y-116710600D01*
X180991500Y-116710600D02*
X180991500Y-136045200D01*
X177304800Y-104159100D02*
X177304800Y-113023900D01*
%TO.N,UART_RX*%
X175549000Y-128525700D02*
X175873300Y-128850000D01*
X175008800Y-128525700D02*
X175549000Y-128525700D01*
X176950000Y-128850000D02*
X175873300Y-128850000D01*
%TO.N,UART_TX*%
X178039200Y-127580000D02*
X176950000Y-127580000D01*
X180042400Y-123543200D02*
X180042400Y-123923300D01*
X177719000Y-115791900D02*
X178200000Y-116272900D01*
X178200000Y-121700800D02*
X180042400Y-123543200D01*
X178200000Y-116272900D02*
X178200000Y-121700800D01*
X180526700Y-124407500D02*
X180526700Y-125092500D01*
X180042500Y-123923300D02*
X180526700Y-124407500D01*
X180526700Y-125092500D02*
X178039200Y-127580000D01*
X177237100Y-115791900D02*
X177719000Y-115791900D01*
%TO.N,AC_L*%
D38*
X109195000Y-133093000D02*
X109195000Y-135635000D01*
X112947900Y-129340100D02*
X112947900Y-105237900D01*
X109195000Y-133093000D02*
X112947900Y-129340100D01*
X112947900Y-105237900D02*
X112005000Y-104295000D01*
X109195000Y-130635000D02*
X109195000Y-133093000D01*
%TO.N,RELAY2_DRV*%
D40*
X170214900Y-97111300D02*
X163636600Y-97111300D01*
X163636600Y-97111300D02*
X163214400Y-96689100D01*
%TD*%
%TA.AperFunction,Conductor*%
%TO.N,GND*%
G36*
X181016334Y-137007469D02*
G01*
X181072267Y-137049341D01*
X181096684Y-137114805D01*
X181097000Y-137123651D01*
X181097000Y-137603748D01*
X181077315Y-137670787D01*
X181060681Y-137691429D01*
X178412180Y-140339929D01*
X178350857Y-140373414D01*
X178281165Y-140368430D01*
X178225232Y-140326558D01*
X178200815Y-140261094D01*
X178200499Y-140252267D01*
X178200499Y-139782128D01*
X178194091Y-139722517D01*
X178193262Y-139714804D01*
X178196659Y-139714438D01*
X178199451Y-139660218D01*
X178240197Y-139603460D01*
X178269020Y-139586664D01*
X178322986Y-139564312D01*
X178398880Y-139513600D01*
X178425433Y-139495858D01*
X178512558Y-139408733D01*
X178512558Y-139408731D01*
X178522766Y-139398524D01*
X178522767Y-139398521D01*
X180885321Y-137035968D01*
X180946642Y-137002485D01*
X181016334Y-137007469D01*
G37*
%TD.AperFunction*%
%TA.AperFunction,Conductor*%
G36*
X180285334Y-126320969D02*
G01*
X180341267Y-126362841D01*
X180365684Y-126428305D01*
X180366000Y-126437151D01*
X180366000Y-135734747D01*
X180346315Y-135801786D01*
X180329681Y-135822428D01*
X178412180Y-137739929D01*
X178350857Y-137773414D01*
X178281165Y-137768430D01*
X178225232Y-137726558D01*
X178200815Y-137661094D01*
X178200499Y-137652248D01*
X178200499Y-137242129D01*
X178200498Y-137242123D01*
X178200497Y-137242116D01*
X178194091Y-137182517D01*
X178181340Y-137148332D01*
X178176357Y-137078642D01*
X178181340Y-137061669D01*
X178194091Y-137027483D01*
X178200500Y-136967873D01*
X178200499Y-135972128D01*
X178194091Y-135912517D01*
X178181340Y-135878332D01*
X178176357Y-135808642D01*
X178181340Y-135791669D01*
X178194091Y-135757483D01*
X178200500Y-135697873D01*
X178200499Y-134702128D01*
X178194091Y-134642517D01*
X178181340Y-134608332D01*
X178176357Y-134538642D01*
X178181340Y-134521669D01*
X178194091Y-134487483D01*
X178200500Y-134427873D01*
X178200499Y-133432128D01*
X178194091Y-133372517D01*
X178181340Y-133338332D01*
X178176357Y-133268642D01*
X178181340Y-133251669D01*
X178194091Y-133217483D01*
X178200500Y-133157873D01*
X178200499Y-132162128D01*
X178194091Y-132102517D01*
X178181340Y-132068332D01*
X178176357Y-131998642D01*
X178181340Y-131981669D01*
X178194091Y-131947483D01*
X178200500Y-131887873D01*
X178200499Y-130892128D01*
X178194091Y-130832517D01*
X178181340Y-130798332D01*
X178176357Y-130728642D01*
X178181340Y-130711669D01*
X178194091Y-130677483D01*
X178200500Y-130617873D01*
X178200499Y-129622128D01*
X178194091Y-129562517D01*
X178181340Y-129528332D01*
X178176357Y-129458642D01*
X178181340Y-129441669D01*
X178194091Y-129407483D01*
X178200500Y-129347873D01*
X178200499Y-128352128D01*
X178194091Y-128292517D01*
X178194089Y-128292513D01*
X178193757Y-128289419D01*
X178206163Y-128220659D01*
X178253774Y-128169522D01*
X178269588Y-128161606D01*
X178335486Y-128134312D01*
X178386709Y-128100084D01*
X178437933Y-128065858D01*
X178525058Y-127978733D01*
X178525059Y-127978731D01*
X178532125Y-127971665D01*
X178532127Y-127971661D01*
X180154320Y-126349468D01*
X180215642Y-126315985D01*
X180285334Y-126320969D01*
G37*
%TD.AperFunction*%
%TA.AperFunction,Conductor*%
G36*
X187016943Y-81019685D02*
G01*
X187026377Y-81026389D01*
X187151573Y-81124474D01*
X187162781Y-81134404D01*
X187365596Y-81337219D01*
X187375525Y-81348426D01*
X187473611Y-81473623D01*
X187499460Y-81538532D01*
X187500000Y-81550094D01*
X187500000Y-178449903D01*
X187480315Y-178516942D01*
X187473611Y-178526376D01*
X187375525Y-178651573D01*
X187365595Y-178662781D01*
X187162781Y-178865595D01*
X187151574Y-178875524D01*
X187026378Y-178973610D01*
X186961466Y-178999460D01*
X186949904Y-179000000D01*
X150074000Y-179000000D01*
X150006961Y-178980315D01*
X149961206Y-178927511D01*
X149950000Y-178876000D01*
X149950000Y-176713389D01*
X176780800Y-176713389D01*
X176780800Y-176886611D01*
X176807898Y-177057701D01*
X176861427Y-177222445D01*
X176940068Y-177376788D01*
X177041886Y-177516928D01*
X177164372Y-177639414D01*
X177304512Y-177741232D01*
X177458855Y-177819873D01*
X177623599Y-177873402D01*
X177794689Y-177900500D01*
X177794690Y-177900500D01*
X177967910Y-177900500D01*
X177967911Y-177900500D01*
X178139001Y-177873402D01*
X178303745Y-177819873D01*
X178458088Y-177741232D01*
X178598228Y-177639414D01*
X178720714Y-177516928D01*
X178822532Y-177376788D01*
X178901173Y-177222445D01*
X178954702Y-177057701D01*
X178981800Y-176886611D01*
X178981800Y-176713389D01*
X178954702Y-176542299D01*
X178901173Y-176377555D01*
X178822532Y-176223212D01*
X178720714Y-176083072D01*
X178598228Y-175960586D01*
X178490057Y-175881995D01*
X182698200Y-175881995D01*
X182698200Y-176118004D01*
X182698201Y-176118020D01*
X182729006Y-176352010D01*
X182790094Y-176579993D01*
X182880414Y-176798045D01*
X182880419Y-176798056D01*
X182931547Y-176886611D01*
X182998427Y-177002450D01*
X182998429Y-177002453D01*
X182998430Y-177002454D01*
X183142106Y-177189697D01*
X183142112Y-177189704D01*
X183308995Y-177356587D01*
X183309001Y-177356592D01*
X183496250Y-177500273D01*
X183627618Y-177576118D01*
X183700643Y-177618280D01*
X183700648Y-177618282D01*
X183700651Y-177618284D01*
X183918707Y-177708606D01*
X184146686Y-177769693D01*
X184380689Y-177800500D01*
X184380696Y-177800500D01*
X184616704Y-177800500D01*
X184616711Y-177800500D01*
X184850714Y-177769693D01*
X185078693Y-177708606D01*
X185296749Y-177618284D01*
X185501150Y-177500273D01*
X185688399Y-177356592D01*
X185855292Y-177189699D01*
X185998973Y-177002450D01*
X186116984Y-176798049D01*
X186207306Y-176579993D01*
X186268393Y-176352014D01*
X186299200Y-176118011D01*
X186299200Y-175881989D01*
X186268393Y-175647986D01*
X186207306Y-175420007D01*
X186116984Y-175201951D01*
X186116982Y-175201948D01*
X186116980Y-175201943D01*
X186062264Y-175107173D01*
X185998973Y-174997550D01*
X185855292Y-174810301D01*
X185855287Y-174810295D01*
X185688404Y-174643412D01*
X185688397Y-174643406D01*
X185501154Y-174499730D01*
X185501153Y-174499729D01*
X185501150Y-174499727D01*
X185419657Y-174452677D01*
X185296756Y-174381719D01*
X185296745Y-174381714D01*
X185078693Y-174291394D01*
X184850710Y-174230306D01*
X184616720Y-174199501D01*
X184616717Y-174199500D01*
X184616711Y-174199500D01*
X184380689Y-174199500D01*
X184380683Y-174199500D01*
X184380679Y-174199501D01*
X184146689Y-174230306D01*
X183918706Y-174291394D01*
X183700654Y-174381714D01*
X183700643Y-174381719D01*
X183496245Y-174499730D01*
X183309002Y-174643406D01*
X183308995Y-174643412D01*
X183142112Y-174810295D01*
X183142106Y-174810302D01*
X182998430Y-174997545D01*
X182880419Y-175201943D01*
X182880414Y-175201954D01*
X182790094Y-175420006D01*
X182729006Y-175647989D01*
X182698201Y-175881979D01*
X182698200Y-175881995D01*
X178490057Y-175881995D01*
X178458088Y-175858768D01*
X178303745Y-175780127D01*
X178139001Y-175726598D01*
X178138999Y-175726597D01*
X178138998Y-175726597D01*
X178007571Y-175705781D01*
X177967911Y-175699500D01*
X177794689Y-175699500D01*
X177755028Y-175705781D01*
X177623602Y-175726597D01*
X177458852Y-175780128D01*
X177304511Y-175858768D01*
X177224556Y-175916859D01*
X177164372Y-175960586D01*
X177164370Y-175960588D01*
X177164369Y-175960588D01*
X177041888Y-176083069D01*
X177041888Y-176083070D01*
X177041886Y-176083072D01*
X177016501Y-176118011D01*
X176940068Y-176223211D01*
X176861428Y-176377552D01*
X176807897Y-176542302D01*
X176780800Y-176713389D01*
X149950000Y-176713389D01*
X149950000Y-164019500D01*
X149969685Y-163952461D01*
X150022489Y-163906706D01*
X150074000Y-163895500D01*
X151109709Y-163895500D01*
X151176748Y-163915185D01*
X151206356Y-163941813D01*
X151247277Y-163992721D01*
X151247278Y-163992722D01*
X151395704Y-164112030D01*
X151395707Y-164112032D01*
X151566302Y-164196639D01*
X151566303Y-164196639D01*
X151566307Y-164196641D01*
X151751111Y-164242600D01*
X151793877Y-164245500D01*
X151926800Y-164245499D01*
X151993839Y-164265183D01*
X152039594Y-164317987D01*
X152050800Y-164369499D01*
X152050800Y-174480664D01*
X152031115Y-174547703D01*
X152014481Y-174568345D01*
X151997474Y-174585351D01*
X151997474Y-174585352D01*
X151997472Y-174585354D01*
X151955295Y-174643406D01*
X151881776Y-174744594D01*
X151792417Y-174919970D01*
X151731590Y-175107173D01*
X151700800Y-175301577D01*
X151700800Y-175498422D01*
X151731590Y-175692826D01*
X151792417Y-175880029D01*
X151881643Y-176055143D01*
X151881776Y-176055405D01*
X151997472Y-176214646D01*
X152136654Y-176353828D01*
X152295895Y-176469524D01*
X152378755Y-176511743D01*
X152471270Y-176558882D01*
X152471272Y-176558882D01*
X152471275Y-176558884D01*
X152568840Y-176590585D01*
X152658473Y-176619709D01*
X152852878Y-176650500D01*
X152852883Y-176650500D01*
X153049722Y-176650500D01*
X153244126Y-176619709D01*
X153245628Y-176619221D01*
X153431325Y-176558884D01*
X153606705Y-176469524D01*
X153765946Y-176353828D01*
X153905128Y-176214646D01*
X154020824Y-176055405D01*
X154110184Y-175880025D01*
X154171009Y-175692826D01*
X154171028Y-175692705D01*
X154201800Y-175498422D01*
X154201800Y-175301577D01*
X154171009Y-175107173D01*
X154110182Y-174919970D01*
X154054300Y-174810295D01*
X154020824Y-174744595D01*
X153905128Y-174585354D01*
X153888119Y-174568345D01*
X153854634Y-174507022D01*
X153851800Y-174480664D01*
X153851800Y-163893983D01*
X153864712Y-163838889D01*
X153946639Y-163673697D01*
X153946638Y-163673697D01*
X153946641Y-163673693D01*
X153992600Y-163488889D01*
X153995500Y-163446123D01*
X153995499Y-162543878D01*
X153992600Y-162501111D01*
X153946641Y-162316307D01*
X153865665Y-162153033D01*
X153862032Y-162145707D01*
X153862030Y-162145704D01*
X153742722Y-161997278D01*
X153742721Y-161997277D01*
X153673514Y-161941647D01*
X153633595Y-161884304D01*
X153631015Y-161814482D01*
X153666594Y-161754349D01*
X153673514Y-161748353D01*
X153682909Y-161740800D01*
X153742722Y-161692722D01*
X153783644Y-161641813D01*
X153840987Y-161601894D01*
X153880291Y-161595500D01*
X155925500Y-161595500D01*
X155992539Y-161615185D01*
X156038294Y-161667989D01*
X156049500Y-161719500D01*
X156049500Y-174481964D01*
X156029815Y-174549003D01*
X156013181Y-174569645D01*
X155997474Y-174585351D01*
X155997474Y-174585352D01*
X155997472Y-174585354D01*
X155955295Y-174643406D01*
X155881776Y-174744594D01*
X155792417Y-174919970D01*
X155731590Y-175107173D01*
X155700800Y-175301577D01*
X155700800Y-175498422D01*
X155731590Y-175692826D01*
X155792417Y-175880029D01*
X155881643Y-176055143D01*
X155881776Y-176055405D01*
X155997472Y-176214646D01*
X156136654Y-176353828D01*
X156295895Y-176469524D01*
X156378755Y-176511743D01*
X156471270Y-176558882D01*
X156471272Y-176558882D01*
X156471275Y-176558884D01*
X156568840Y-176590585D01*
X156658473Y-176619709D01*
X156852878Y-176650500D01*
X156852883Y-176650500D01*
X157049722Y-176650500D01*
X157244126Y-176619709D01*
X157245628Y-176619221D01*
X157431325Y-176558884D01*
X157606705Y-176469524D01*
X157642280Y-176443677D01*
X160261173Y-176443677D01*
X160261173Y-176443678D01*
X160296158Y-176469096D01*
X160471464Y-176558418D01*
X160658594Y-176619221D01*
X160852918Y-176650000D01*
X161049682Y-176650000D01*
X161244003Y-176619221D01*
X161332135Y-176590586D01*
X161332136Y-176590585D01*
X161431135Y-176558418D01*
X161606443Y-176469095D01*
X161641425Y-176443678D01*
X161641426Y-176443678D01*
X160951301Y-175753553D01*
X160951300Y-175753553D01*
X160261173Y-176443677D01*
X157642280Y-176443677D01*
X157765946Y-176353828D01*
X157905128Y-176214646D01*
X158020824Y-176055405D01*
X158110184Y-175880025D01*
X158171009Y-175692826D01*
X158171028Y-175692705D01*
X158201800Y-175498422D01*
X158201800Y-175301617D01*
X159701300Y-175301617D01*
X159701300Y-175498382D01*
X159732078Y-175692705D01*
X159792881Y-175879835D01*
X159882205Y-176055145D01*
X159907619Y-176090125D01*
X159907620Y-176090125D01*
X160597746Y-175400000D01*
X160597746Y-175399999D01*
X161304853Y-175399999D01*
X161304853Y-175400001D01*
X161994978Y-176090126D01*
X161994978Y-176090125D01*
X162020395Y-176055143D01*
X162109718Y-175879835D01*
X162170521Y-175692705D01*
X162201300Y-175498382D01*
X162201300Y-175301617D01*
X162170521Y-175107294D01*
X162109718Y-174920164D01*
X162020396Y-174744858D01*
X161994978Y-174709873D01*
X161994977Y-174709873D01*
X161304853Y-175399999D01*
X160597746Y-175399999D01*
X159907620Y-174709872D01*
X159907620Y-174709873D01*
X159882202Y-174744859D01*
X159882199Y-174744863D01*
X159792882Y-174920161D01*
X159732078Y-175107294D01*
X159701300Y-175301617D01*
X158201800Y-175301617D01*
X158201800Y-175301577D01*
X158171009Y-175107173D01*
X158110182Y-174919970D01*
X158054300Y-174810295D01*
X158020824Y-174744595D01*
X157905128Y-174585354D01*
X157886819Y-174567045D01*
X157872115Y-174540117D01*
X157855523Y-174514299D01*
X157854631Y-174508098D01*
X157853334Y-174505722D01*
X157850500Y-174479364D01*
X157850500Y-174356320D01*
X160261172Y-174356320D01*
X160951300Y-175046446D01*
X160951301Y-175046446D01*
X161641425Y-174356320D01*
X161641425Y-174356319D01*
X161606445Y-174330905D01*
X161431135Y-174241581D01*
X161244005Y-174180778D01*
X161049682Y-174150000D01*
X160852918Y-174150000D01*
X160658594Y-174180778D01*
X160471461Y-174241582D01*
X160296163Y-174330899D01*
X160296159Y-174330902D01*
X160261173Y-174356320D01*
X160261172Y-174356320D01*
X157850500Y-174356320D01*
X157850500Y-163172921D01*
X157870185Y-163105882D01*
X157922989Y-163060127D01*
X157992147Y-163050183D01*
X158008600Y-163053702D01*
X158117582Y-163084886D01*
X158236963Y-163095500D01*
X159353036Y-163095499D01*
X159472418Y-163084886D01*
X159668049Y-163028909D01*
X159848407Y-162934698D01*
X160006109Y-162806109D01*
X160134698Y-162648407D01*
X160228909Y-162468049D01*
X160284886Y-162272418D01*
X160295500Y-162153037D01*
X160295499Y-160519361D01*
X160315184Y-160452323D01*
X160331813Y-160431685D01*
X160522864Y-160240636D01*
X160602825Y-160120965D01*
X160602826Y-160120964D01*
X160621409Y-160093154D01*
X160621414Y-160093144D01*
X160655314Y-160011300D01*
X160655353Y-160011206D01*
X160689295Y-159929266D01*
X160723900Y-159755292D01*
X160723900Y-159577908D01*
X160723900Y-144424361D01*
X160743585Y-144357322D01*
X160760219Y-144336680D01*
X161601163Y-143495736D01*
X161601165Y-143495733D01*
X161699709Y-143348253D01*
X161699709Y-143348252D01*
X161699713Y-143348247D01*
X161767594Y-143184366D01*
X161802200Y-143010391D01*
X161802200Y-142898159D01*
X161821885Y-142831120D01*
X161874689Y-142785365D01*
X161939457Y-142774870D01*
X161987158Y-142779999D01*
X161987172Y-142780000D01*
X162235000Y-142780000D01*
X162235000Y-140280000D01*
X162735000Y-140280000D01*
X162735000Y-142780000D01*
X162982828Y-142780000D01*
X162982844Y-142779999D01*
X163042372Y-142773598D01*
X163042375Y-142773597D01*
X163075949Y-142761075D01*
X163145640Y-142756089D01*
X163162619Y-142761075D01*
X163197511Y-142774089D01*
X163197512Y-142774089D01*
X163197517Y-142774091D01*
X163257127Y-142780500D01*
X164252872Y-142780499D01*
X164312483Y-142774091D01*
X164346667Y-142761340D01*
X164416358Y-142756357D01*
X164433327Y-142761338D01*
X164467517Y-142774091D01*
X164527127Y-142780500D01*
X165522872Y-142780499D01*
X165582483Y-142774091D01*
X165616667Y-142761340D01*
X165686358Y-142756357D01*
X165703327Y-142761338D01*
X165737517Y-142774091D01*
X165797127Y-142780500D01*
X166792872Y-142780499D01*
X166852483Y-142774091D01*
X166886667Y-142761340D01*
X166956358Y-142756357D01*
X166973327Y-142761338D01*
X167007517Y-142774091D01*
X167067127Y-142780500D01*
X168062872Y-142780499D01*
X168122483Y-142774091D01*
X168156667Y-142761340D01*
X168226358Y-142756357D01*
X168243327Y-142761338D01*
X168277517Y-142774091D01*
X168337127Y-142780500D01*
X169332872Y-142780499D01*
X169392483Y-142774091D01*
X169426667Y-142761340D01*
X169496358Y-142756357D01*
X169513327Y-142761338D01*
X169547517Y-142774091D01*
X169607127Y-142780500D01*
X170602872Y-142780499D01*
X170662483Y-142774091D01*
X170696667Y-142761340D01*
X170766358Y-142756357D01*
X170783327Y-142761338D01*
X170817517Y-142774091D01*
X170877127Y-142780500D01*
X171872872Y-142780499D01*
X171932483Y-142774091D01*
X171966667Y-142761340D01*
X172036358Y-142756357D01*
X172053327Y-142761338D01*
X172087517Y-142774091D01*
X172147127Y-142780500D01*
X173142872Y-142780499D01*
X173202483Y-142774091D01*
X173236667Y-142761340D01*
X173306358Y-142756357D01*
X173323327Y-142761338D01*
X173357517Y-142774091D01*
X173417127Y-142780500D01*
X174412872Y-142780499D01*
X174472483Y-142774091D01*
X174607331Y-142723796D01*
X174722546Y-142637546D01*
X174808796Y-142522331D01*
X174859091Y-142387483D01*
X174865500Y-142327873D01*
X174865499Y-141202799D01*
X174885184Y-141135761D01*
X174937987Y-141090006D01*
X174989499Y-141078800D01*
X175059248Y-141078800D01*
X175126287Y-141098485D01*
X175146929Y-141115119D01*
X175598363Y-141566555D01*
X175598367Y-141566558D01*
X175700810Y-141635009D01*
X175700811Y-141635009D01*
X175700815Y-141635012D01*
X175767496Y-141662631D01*
X175767498Y-141662633D01*
X175814643Y-141682161D01*
X175814648Y-141682163D01*
X175834697Y-141686151D01*
X175868296Y-141692834D01*
X175935492Y-141706201D01*
X175935494Y-141706201D01*
X176064821Y-141706201D01*
X176064841Y-141706200D01*
X178617607Y-141706200D01*
X178678029Y-141694181D01*
X178738452Y-141682163D01*
X178738455Y-141682161D01*
X178738458Y-141682161D01*
X178771787Y-141668354D01*
X178771786Y-141668354D01*
X178771792Y-141668352D01*
X178852286Y-141635012D01*
X178926384Y-141585500D01*
X178954733Y-141566558D01*
X179041858Y-141479433D01*
X179041859Y-141479431D01*
X179048925Y-141472365D01*
X179048928Y-141472361D01*
X182121229Y-138400060D01*
X182121233Y-138400058D01*
X182208358Y-138312933D01*
X182276811Y-138210486D01*
X182323963Y-138096652D01*
X182334305Y-138044658D01*
X182344680Y-137992500D01*
X182344680Y-137992495D01*
X182348000Y-137975807D01*
X182348000Y-137852593D01*
X182348000Y-104769350D01*
X182367685Y-104702311D01*
X182368898Y-104700459D01*
X182420874Y-104622671D01*
X182431894Y-104606179D01*
X182492237Y-104460497D01*
X182523000Y-104305842D01*
X182523000Y-104148158D01*
X182523000Y-104148155D01*
X182522999Y-104148153D01*
X182514462Y-104105234D01*
X182492237Y-103993503D01*
X182450148Y-103891890D01*
X182431897Y-103847827D01*
X182431890Y-103847814D01*
X182344289Y-103716711D01*
X182344286Y-103716707D01*
X182232792Y-103605213D01*
X182232788Y-103605210D01*
X182101685Y-103517609D01*
X182101672Y-103517602D01*
X181956001Y-103457264D01*
X181955989Y-103457261D01*
X181801345Y-103426500D01*
X181801342Y-103426500D01*
X181643658Y-103426500D01*
X181643655Y-103426500D01*
X181489010Y-103457261D01*
X181488998Y-103457264D01*
X181343327Y-103517602D01*
X181343314Y-103517609D01*
X181212211Y-103605210D01*
X181212207Y-103605213D01*
X181100713Y-103716707D01*
X181100710Y-103716711D01*
X181013109Y-103847814D01*
X181013102Y-103847827D01*
X180952764Y-103993498D01*
X180952761Y-103993510D01*
X180922000Y-104148153D01*
X180922000Y-104305846D01*
X180952761Y-104460489D01*
X180952764Y-104460501D01*
X181013102Y-104606172D01*
X181013109Y-104606184D01*
X181076102Y-104700459D01*
X181096980Y-104767136D01*
X181097000Y-104769350D01*
X181097000Y-115632148D01*
X181077315Y-115699187D01*
X181024511Y-115744942D01*
X180955353Y-115754886D01*
X180891797Y-115725861D01*
X180885319Y-115719829D01*
X177966619Y-112801129D01*
X177933134Y-112739806D01*
X177930300Y-112713448D01*
X177930300Y-106103371D01*
X177949985Y-106036332D01*
X178002789Y-105990577D01*
X178071947Y-105980633D01*
X178092612Y-105985438D01*
X178170977Y-106010900D01*
X178213473Y-106024709D01*
X178407878Y-106055500D01*
X178407883Y-106055500D01*
X178604722Y-106055500D01*
X178799126Y-106024709D01*
X178986325Y-105963884D01*
X179161705Y-105874524D01*
X179320946Y-105758828D01*
X179460128Y-105619646D01*
X179575824Y-105460405D01*
X179665184Y-105285025D01*
X179726009Y-105097826D01*
X179729658Y-105074786D01*
X179756800Y-104903422D01*
X179756800Y-104706577D01*
X179726009Y-104512173D01*
X179680109Y-104370909D01*
X179665184Y-104324975D01*
X179665182Y-104324972D01*
X179665182Y-104324970D01*
X179582471Y-104162641D01*
X179575824Y-104149595D01*
X179460128Y-103990354D01*
X179320946Y-103851172D01*
X179161705Y-103735476D01*
X179141164Y-103725010D01*
X178986329Y-103646117D01*
X178799126Y-103585290D01*
X178604722Y-103554500D01*
X178604717Y-103554500D01*
X178407883Y-103554500D01*
X178407878Y-103554500D01*
X178213473Y-103585290D01*
X178084004Y-103627358D01*
X178026275Y-103646116D01*
X178026271Y-103646117D01*
X178021642Y-103647622D01*
X178020948Y-103645486D01*
X177960615Y-103651801D01*
X177898224Y-103620351D01*
X177895294Y-103617515D01*
X177815092Y-103537313D01*
X177815088Y-103537310D01*
X177683985Y-103449709D01*
X177683972Y-103449702D01*
X177538301Y-103389364D01*
X177538289Y-103389361D01*
X177383645Y-103358600D01*
X177383642Y-103358600D01*
X177225958Y-103358600D01*
X177225955Y-103358600D01*
X177071310Y-103389361D01*
X177071298Y-103389364D01*
X176925627Y-103449702D01*
X176925614Y-103449709D01*
X176794511Y-103537310D01*
X176794507Y-103537313D01*
X176683013Y-103648807D01*
X176683010Y-103648811D01*
X176595409Y-103779914D01*
X176595402Y-103779927D01*
X176535064Y-103925598D01*
X176535061Y-103925610D01*
X176504300Y-104080253D01*
X176504300Y-104237946D01*
X176535061Y-104392589D01*
X176535064Y-104392601D01*
X176595402Y-104538272D01*
X176595409Y-104538284D01*
X176658402Y-104632559D01*
X176679280Y-104699236D01*
X176679300Y-104701450D01*
X176679300Y-113085511D01*
X176703335Y-113206344D01*
X176703340Y-113206361D01*
X176750485Y-113320181D01*
X176750490Y-113320190D01*
X176770615Y-113350308D01*
X176770616Y-113350309D01*
X176818941Y-113422632D01*
X176818944Y-113422636D01*
X176910386Y-113514078D01*
X176910408Y-113514098D01*
X180329681Y-116933371D01*
X180363166Y-116994694D01*
X180366000Y-117021052D01*
X180366000Y-122682848D01*
X180346315Y-122749887D01*
X180293511Y-122795642D01*
X180224353Y-122805586D01*
X180160797Y-122776561D01*
X180154319Y-122770529D01*
X178861819Y-121478029D01*
X178828334Y-121416706D01*
X178825500Y-121390348D01*
X178825500Y-116211293D01*
X178825499Y-116211289D01*
X178817501Y-116171079D01*
X178801463Y-116090448D01*
X178756395Y-115981644D01*
X178754312Y-115976615D01*
X178685858Y-115874167D01*
X178685855Y-115874163D01*
X178211928Y-115400238D01*
X178211925Y-115400234D01*
X178211925Y-115400235D01*
X178204858Y-115393168D01*
X178204858Y-115393167D01*
X178117733Y-115306042D01*
X178117732Y-115306041D01*
X178117731Y-115306040D01*
X178066509Y-115271815D01*
X178015287Y-115237589D01*
X178015286Y-115237588D01*
X178015283Y-115237586D01*
X178015280Y-115237585D01*
X177934792Y-115204247D01*
X177901453Y-115190437D01*
X177891427Y-115188443D01*
X177841029Y-115178418D01*
X177780610Y-115166400D01*
X177780607Y-115166400D01*
X177780606Y-115166400D01*
X177779450Y-115166400D01*
X177778865Y-115166228D01*
X177774546Y-115165803D01*
X177774626Y-115164983D01*
X177712411Y-115146715D01*
X177710559Y-115145502D01*
X177616284Y-115082509D01*
X177616272Y-115082502D01*
X177470601Y-115022164D01*
X177470589Y-115022161D01*
X177315945Y-114991400D01*
X177315942Y-114991400D01*
X177158258Y-114991400D01*
X177158255Y-114991400D01*
X177003610Y-115022161D01*
X177003598Y-115022164D01*
X176857927Y-115082502D01*
X176857914Y-115082509D01*
X176726811Y-115170110D01*
X176726807Y-115170113D01*
X176615313Y-115281607D01*
X176615310Y-115281611D01*
X176527709Y-115412714D01*
X176527702Y-115412727D01*
X176467364Y-115558398D01*
X176467361Y-115558410D01*
X176436600Y-115713053D01*
X176436600Y-115870746D01*
X176467361Y-116025389D01*
X176467364Y-116025401D01*
X176527702Y-116171072D01*
X176527709Y-116171085D01*
X176615310Y-116302188D01*
X176615313Y-116302192D01*
X176726807Y-116413686D01*
X176726811Y-116413689D01*
X176857914Y-116501290D01*
X176857927Y-116501297D01*
X176932028Y-116531990D01*
X177003603Y-116561637D01*
X177158253Y-116592399D01*
X177158256Y-116592400D01*
X177158258Y-116592400D01*
X177315944Y-116592400D01*
X177426308Y-116570447D01*
X177495900Y-116576674D01*
X177551077Y-116619537D01*
X177574322Y-116685427D01*
X177574500Y-116692064D01*
X177574500Y-121762411D01*
X177598535Y-121883244D01*
X177598540Y-121883261D01*
X177645685Y-121997080D01*
X177645690Y-121997089D01*
X177679914Y-122048307D01*
X177679915Y-122048309D01*
X177714141Y-122099533D01*
X177805586Y-122190978D01*
X177805608Y-122190998D01*
X179380581Y-123765971D01*
X179414066Y-123827294D01*
X179416900Y-123853652D01*
X179416900Y-123984910D01*
X179440935Y-124105744D01*
X179440938Y-124105754D01*
X179488087Y-124219583D01*
X179488092Y-124219592D01*
X179556540Y-124322031D01*
X179556541Y-124322032D01*
X179556542Y-124322033D01*
X179643667Y-124409158D01*
X179643669Y-124409159D01*
X179647477Y-124412967D01*
X179648543Y-124413933D01*
X179864881Y-124630271D01*
X179898366Y-124691594D01*
X179901200Y-124717952D01*
X179901200Y-124782047D01*
X179881515Y-124849086D01*
X179864881Y-124869728D01*
X178412180Y-126322429D01*
X178350857Y-126355914D01*
X178281165Y-126350930D01*
X178225232Y-126309058D01*
X178200815Y-126243594D01*
X178200499Y-126234748D01*
X178200499Y-125812129D01*
X178200498Y-125812123D01*
X178200497Y-125812116D01*
X178194091Y-125752517D01*
X178181340Y-125718332D01*
X178176357Y-125648642D01*
X178181340Y-125631669D01*
X178194091Y-125597483D01*
X178200500Y-125537873D01*
X178200499Y-124542128D01*
X178194091Y-124482517D01*
X178181073Y-124447616D01*
X178176090Y-124377926D01*
X178181075Y-124360949D01*
X178193597Y-124327375D01*
X178193598Y-124327372D01*
X178199999Y-124267844D01*
X178200000Y-124267827D01*
X178200000Y-124020000D01*
X175700000Y-124020000D01*
X175700000Y-124267844D01*
X175706401Y-124327372D01*
X175706403Y-124327379D01*
X175718925Y-124360952D01*
X175723909Y-124430643D01*
X175718925Y-124447617D01*
X175705909Y-124482514D01*
X175705908Y-124482516D01*
X175699501Y-124542116D01*
X175699501Y-124542123D01*
X175699500Y-124542135D01*
X175699500Y-125537870D01*
X175699501Y-125537876D01*
X175705908Y-125597481D01*
X175718659Y-125631669D01*
X175723642Y-125701361D01*
X175718659Y-125718331D01*
X175705908Y-125752518D01*
X175699501Y-125812116D01*
X175699501Y-125812123D01*
X175699500Y-125812135D01*
X175699500Y-126807870D01*
X175699501Y-126807876D01*
X175705908Y-126867481D01*
X175718659Y-126901669D01*
X175723642Y-126971361D01*
X175718659Y-126988331D01*
X175705908Y-127022518D01*
X175699501Y-127082116D01*
X175699500Y-127082135D01*
X175699500Y-127776200D01*
X175679815Y-127843239D01*
X175627011Y-127888994D01*
X175575500Y-127900200D01*
X175551150Y-127900200D01*
X175484111Y-127880515D01*
X175482259Y-127879302D01*
X175387984Y-127816309D01*
X175387972Y-127816302D01*
X175242301Y-127755964D01*
X175242289Y-127755961D01*
X175087645Y-127725200D01*
X175087642Y-127725200D01*
X174929958Y-127725200D01*
X174929955Y-127725200D01*
X174775310Y-127755961D01*
X174775298Y-127755964D01*
X174629627Y-127816302D01*
X174629614Y-127816309D01*
X174498511Y-127903910D01*
X174498507Y-127903913D01*
X174387013Y-128015407D01*
X174387010Y-128015411D01*
X174299409Y-128146514D01*
X174299402Y-128146527D01*
X174239064Y-128292198D01*
X174239061Y-128292210D01*
X174208300Y-128446853D01*
X174208300Y-128604546D01*
X174239061Y-128759189D01*
X174239064Y-128759201D01*
X174299402Y-128904872D01*
X174299409Y-128904885D01*
X174387010Y-129035988D01*
X174387013Y-129035992D01*
X174498507Y-129147486D01*
X174498511Y-129147489D01*
X174629614Y-129235090D01*
X174629627Y-129235097D01*
X174773661Y-129294757D01*
X174775303Y-129295437D01*
X174929953Y-129326199D01*
X174929956Y-129326200D01*
X174929958Y-129326200D01*
X175087644Y-129326200D01*
X175087645Y-129326199D01*
X175242297Y-129295437D01*
X175301406Y-129270952D01*
X175370874Y-129263483D01*
X175433354Y-129294757D01*
X175436540Y-129297832D01*
X175474561Y-129335853D01*
X175474567Y-129335858D01*
X175492551Y-129347875D01*
X175492550Y-129347875D01*
X175577011Y-129404309D01*
X175577014Y-129404311D01*
X175614419Y-129419804D01*
X175630978Y-129426664D01*
X175685381Y-129470505D01*
X175707446Y-129536799D01*
X175705704Y-129554693D01*
X175706738Y-129554805D01*
X175705909Y-129562517D01*
X175699501Y-129622123D01*
X175699500Y-129622135D01*
X175699500Y-130617870D01*
X175699501Y-130617876D01*
X175705908Y-130677481D01*
X175718659Y-130711669D01*
X175723642Y-130781361D01*
X175718659Y-130798331D01*
X175705908Y-130832518D01*
X175699501Y-130892116D01*
X175699501Y-130892123D01*
X175699500Y-130892135D01*
X175699500Y-131887870D01*
X175699501Y-131887876D01*
X175705908Y-131947481D01*
X175718659Y-131981669D01*
X175723642Y-132051361D01*
X175718659Y-132068331D01*
X175705908Y-132102518D01*
X175699501Y-132162116D01*
X175699501Y-132162123D01*
X175699500Y-132162135D01*
X175699500Y-133157870D01*
X175699501Y-133157876D01*
X175705908Y-133217481D01*
X175718659Y-133251669D01*
X175723642Y-133321361D01*
X175718659Y-133338331D01*
X175705908Y-133372518D01*
X175699501Y-133432116D01*
X175699501Y-133432123D01*
X175699500Y-133432135D01*
X175699500Y-134427870D01*
X175699501Y-134427876D01*
X175705908Y-134487481D01*
X175718659Y-134521669D01*
X175723642Y-134591361D01*
X175718659Y-134608331D01*
X175705908Y-134642518D01*
X175699501Y-134702116D01*
X175699501Y-134702123D01*
X175699500Y-134702135D01*
X175699500Y-135697870D01*
X175699501Y-135697876D01*
X175705908Y-135757481D01*
X175718659Y-135791669D01*
X175723642Y-135861361D01*
X175718659Y-135878331D01*
X175705908Y-135912518D01*
X175699501Y-135972116D01*
X175699501Y-135972123D01*
X175699500Y-135972135D01*
X175699500Y-136967870D01*
X175699501Y-136967876D01*
X175705908Y-137027481D01*
X175718659Y-137061669D01*
X175723642Y-137131361D01*
X175718659Y-137148331D01*
X175705908Y-137182518D01*
X175699501Y-137242116D01*
X175699501Y-137242123D01*
X175699500Y-137242135D01*
X175699500Y-138237870D01*
X175699501Y-138237876D01*
X175705908Y-138297481D01*
X175718659Y-138331669D01*
X175723642Y-138401361D01*
X175718659Y-138418331D01*
X175705908Y-138452518D01*
X175699501Y-138512116D01*
X175699500Y-138512135D01*
X175699500Y-139507870D01*
X175699501Y-139507876D01*
X175705908Y-139567481D01*
X175718659Y-139601669D01*
X175723642Y-139671361D01*
X175718659Y-139688331D01*
X175705908Y-139722518D01*
X175703571Y-139744260D01*
X175676832Y-139808811D01*
X175619439Y-139848658D01*
X175556092Y-139852621D01*
X175552153Y-139851837D01*
X175552152Y-139851837D01*
X175491729Y-139839818D01*
X175431310Y-139827800D01*
X175431307Y-139827800D01*
X175431306Y-139827800D01*
X172706606Y-139827800D01*
X172583394Y-139827800D01*
X172583389Y-139827800D01*
X172462555Y-139851835D01*
X172462545Y-139851838D01*
X172348716Y-139898987D01*
X172348707Y-139898992D01*
X172246267Y-139967441D01*
X172246263Y-139967444D01*
X172159144Y-140054563D01*
X172159141Y-140054567D01*
X172090692Y-140157007D01*
X172090686Y-140157019D01*
X172068334Y-140210980D01*
X172024492Y-140265382D01*
X171958198Y-140287446D01*
X171940306Y-140285698D01*
X171940195Y-140286738D01*
X171872883Y-140279501D01*
X171872881Y-140279500D01*
X171872873Y-140279500D01*
X171872864Y-140279500D01*
X170877129Y-140279500D01*
X170877123Y-140279501D01*
X170817518Y-140285908D01*
X170783331Y-140298659D01*
X170713639Y-140303642D01*
X170696669Y-140298659D01*
X170666604Y-140287446D01*
X170662483Y-140285909D01*
X170662482Y-140285908D01*
X170602883Y-140279501D01*
X170602881Y-140279500D01*
X170602873Y-140279500D01*
X170602864Y-140279500D01*
X169607129Y-140279500D01*
X169607123Y-140279501D01*
X169547518Y-140285908D01*
X169513331Y-140298659D01*
X169443639Y-140303642D01*
X169426669Y-140298659D01*
X169396604Y-140287446D01*
X169392483Y-140285909D01*
X169392482Y-140285908D01*
X169332883Y-140279501D01*
X169332881Y-140279500D01*
X169332873Y-140279500D01*
X169332864Y-140279500D01*
X168337129Y-140279500D01*
X168337123Y-140279501D01*
X168277518Y-140285908D01*
X168243331Y-140298659D01*
X168173639Y-140303642D01*
X168156669Y-140298659D01*
X168126604Y-140287446D01*
X168122483Y-140285909D01*
X168122482Y-140285908D01*
X168062883Y-140279501D01*
X168062881Y-140279500D01*
X168062873Y-140279500D01*
X168062864Y-140279500D01*
X167067129Y-140279500D01*
X167067123Y-140279501D01*
X167007518Y-140285908D01*
X166973331Y-140298659D01*
X166903639Y-140303642D01*
X166886669Y-140298659D01*
X166856604Y-140287446D01*
X166852483Y-140285909D01*
X166852482Y-140285908D01*
X166792883Y-140279501D01*
X166792881Y-140279500D01*
X166792873Y-140279500D01*
X166792864Y-140279500D01*
X165797129Y-140279500D01*
X165797123Y-140279501D01*
X165737518Y-140285908D01*
X165703331Y-140298659D01*
X165633639Y-140303642D01*
X165616669Y-140298659D01*
X165586604Y-140287446D01*
X165582483Y-140285909D01*
X165582482Y-140285908D01*
X165522883Y-140279501D01*
X165522881Y-140279500D01*
X165522873Y-140279500D01*
X165522864Y-140279500D01*
X164527129Y-140279500D01*
X164527123Y-140279501D01*
X164467518Y-140285908D01*
X164433331Y-140298659D01*
X164363639Y-140303642D01*
X164346669Y-140298659D01*
X164316604Y-140287446D01*
X164312483Y-140285909D01*
X164312482Y-140285908D01*
X164252883Y-140279501D01*
X164252881Y-140279500D01*
X164252873Y-140279500D01*
X164252864Y-140279500D01*
X163257129Y-140279500D01*
X163257123Y-140279501D01*
X163197520Y-140285908D01*
X163197517Y-140285908D01*
X163197517Y-140285909D01*
X163162620Y-140298925D01*
X163162617Y-140298926D01*
X163092925Y-140303909D01*
X163075952Y-140298925D01*
X163042379Y-140286403D01*
X163042372Y-140286401D01*
X162982844Y-140280000D01*
X162735000Y-140280000D01*
X162235000Y-140280000D01*
X161987172Y-140280000D01*
X161939455Y-140285130D01*
X161870695Y-140272724D01*
X161819558Y-140225113D01*
X161802200Y-140161840D01*
X161802200Y-124951306D01*
X161802199Y-124951304D01*
X161767596Y-124777341D01*
X161767593Y-124777332D01*
X161699716Y-124613459D01*
X161699709Y-124613446D01*
X161601164Y-124465965D01*
X161601161Y-124465961D01*
X161475738Y-124340538D01*
X161475734Y-124340535D01*
X161328253Y-124241990D01*
X161328240Y-124241983D01*
X161164367Y-124174106D01*
X161164358Y-124174103D01*
X160990394Y-124139500D01*
X160990391Y-124139500D01*
X160824000Y-124139500D01*
X160756961Y-124119815D01*
X160711206Y-124067011D01*
X160701251Y-124021251D01*
X160700000Y-124020000D01*
X159574000Y-124020000D01*
X159506961Y-124000315D01*
X159461206Y-123947511D01*
X159450000Y-123896000D01*
X159450000Y-123770000D01*
X159324000Y-123770000D01*
X159256961Y-123750315D01*
X159211206Y-123697511D01*
X159200000Y-123646000D01*
X159200000Y-123520000D01*
X159700000Y-123520000D01*
X160700000Y-123520000D01*
X160700000Y-123272172D01*
X160699999Y-123272155D01*
X175700000Y-123272155D01*
X175700000Y-123520000D01*
X176700000Y-123520000D01*
X177200000Y-123520000D01*
X178200000Y-123520000D01*
X178200000Y-123272172D01*
X178199999Y-123272155D01*
X178193598Y-123212627D01*
X178193596Y-123212620D01*
X178143354Y-123077913D01*
X178143350Y-123077906D01*
X178057190Y-122962812D01*
X178057187Y-122962809D01*
X177942093Y-122876649D01*
X177942086Y-122876645D01*
X177807379Y-122826403D01*
X177807372Y-122826401D01*
X177747844Y-122820000D01*
X177200000Y-122820000D01*
X177200000Y-123520000D01*
X176700000Y-123520000D01*
X176700000Y-122820000D01*
X176152155Y-122820000D01*
X176092627Y-122826401D01*
X176092620Y-122826403D01*
X175957913Y-122876645D01*
X175957906Y-122876649D01*
X175842812Y-122962809D01*
X175842809Y-122962812D01*
X175756649Y-123077906D01*
X175756645Y-123077913D01*
X175706403Y-123212620D01*
X175706401Y-123212627D01*
X175700000Y-123272155D01*
X160699999Y-123272155D01*
X160693598Y-123212627D01*
X160693596Y-123212620D01*
X160643354Y-123077913D01*
X160643350Y-123077906D01*
X160557190Y-122962812D01*
X160557187Y-122962809D01*
X160442093Y-122876649D01*
X160442086Y-122876645D01*
X160307379Y-122826403D01*
X160307372Y-122826401D01*
X160247844Y-122820000D01*
X159700000Y-122820000D01*
X159700000Y-123520000D01*
X159200000Y-123520000D01*
X159200000Y-122820000D01*
X159018200Y-122820000D01*
X158951161Y-122800315D01*
X158905406Y-122747511D01*
X158894200Y-122696000D01*
X158894200Y-114980193D01*
X158894199Y-114980189D01*
X158891667Y-114967458D01*
X158870163Y-114859348D01*
X158823011Y-114745514D01*
X158823010Y-114745513D01*
X158823007Y-114745507D01*
X158754559Y-114643068D01*
X158754558Y-114643067D01*
X158667433Y-114555942D01*
X158667432Y-114555941D01*
X158370319Y-114258828D01*
X158336834Y-114197505D01*
X158334000Y-114171147D01*
X158334000Y-113475250D01*
X158353685Y-113408211D01*
X158354898Y-113406359D01*
X158392350Y-113350308D01*
X158417894Y-113312079D01*
X158478237Y-113166397D01*
X158509000Y-113011742D01*
X158509000Y-112854058D01*
X158509000Y-112854055D01*
X158495998Y-112788692D01*
X158502225Y-112719100D01*
X158545088Y-112663923D01*
X158610977Y-112640678D01*
X158617615Y-112640500D01*
X158706507Y-112640500D01*
X158766929Y-112628481D01*
X158827352Y-112616463D01*
X158827355Y-112616461D01*
X158827358Y-112616461D01*
X158860687Y-112602654D01*
X158860686Y-112602654D01*
X158860692Y-112602652D01*
X158941186Y-112569312D01*
X158993783Y-112534167D01*
X159043633Y-112500858D01*
X159130758Y-112413733D01*
X159130759Y-112413731D01*
X159137825Y-112406665D01*
X159137828Y-112406661D01*
X164623729Y-106920760D01*
X164623733Y-106920758D01*
X164710858Y-106833633D01*
X164732779Y-106800826D01*
X164751716Y-106772485D01*
X164751717Y-106772483D01*
X164758776Y-106761919D01*
X164779312Y-106731186D01*
X164795029Y-106693241D01*
X164826459Y-106617361D01*
X164826459Y-106617359D01*
X164826463Y-106617351D01*
X164850500Y-106496507D01*
X164850500Y-106496503D01*
X164850501Y-106496499D01*
X164851689Y-106490532D01*
X164852819Y-106490756D01*
X164876649Y-106431716D01*
X164933677Y-106391347D01*
X165003476Y-106388219D01*
X165012221Y-106390710D01*
X165167046Y-106441014D01*
X165167049Y-106441015D01*
X165384778Y-106475500D01*
X165384779Y-106475500D01*
X165605221Y-106475500D01*
X165605222Y-106475500D01*
X165822951Y-106441015D01*
X166032606Y-106372895D01*
X166229022Y-106272815D01*
X166407365Y-106143242D01*
X166563242Y-105987365D01*
X166692815Y-105809022D01*
X166792895Y-105612606D01*
X166861015Y-105402951D01*
X166895500Y-105185222D01*
X166895500Y-104964778D01*
X166861015Y-104747049D01*
X166820602Y-104622669D01*
X166792896Y-104537396D01*
X166792895Y-104537393D01*
X166753714Y-104460497D01*
X166692815Y-104340978D01*
X166651298Y-104283834D01*
X166563247Y-104162641D01*
X166563243Y-104162636D01*
X166407363Y-104006756D01*
X166407358Y-104006752D01*
X166229025Y-103877187D01*
X166229024Y-103877186D01*
X166229022Y-103877185D01*
X166166096Y-103845122D01*
X166032606Y-103777104D01*
X166032603Y-103777103D01*
X165822952Y-103708985D01*
X165714086Y-103691742D01*
X165605222Y-103674500D01*
X165384778Y-103674500D01*
X165341232Y-103681397D01*
X165167045Y-103708985D01*
X165012817Y-103759096D01*
X164942976Y-103761091D01*
X164883143Y-103725010D01*
X164852316Y-103662309D01*
X164850500Y-103641165D01*
X164850500Y-103500693D01*
X164850499Y-103500689D01*
X164847812Y-103487179D01*
X164826463Y-103379848D01*
X164779311Y-103266014D01*
X164779310Y-103266013D01*
X164779307Y-103266007D01*
X164710858Y-103163567D01*
X164710855Y-103163563D01*
X164620637Y-103073345D01*
X164620606Y-103073316D01*
X164427993Y-102880703D01*
X164394508Y-102819380D01*
X164394087Y-102817364D01*
X164371937Y-102706003D01*
X164333200Y-102612482D01*
X164311597Y-102560327D01*
X164311590Y-102560314D01*
X164223989Y-102429211D01*
X164223986Y-102429207D01*
X164184370Y-102389592D01*
X164150884Y-102328269D01*
X164155868Y-102258578D01*
X164184367Y-102214231D01*
X165156719Y-101241880D01*
X165218042Y-101208395D01*
X165287734Y-101213379D01*
X165332081Y-101241880D01*
X168243020Y-104152819D01*
X168276505Y-104214142D01*
X168271521Y-104283834D01*
X168229649Y-104339767D01*
X168164185Y-104364184D01*
X168155340Y-104364500D01*
X167937130Y-104364500D01*
X167937123Y-104364501D01*
X167877516Y-104370908D01*
X167742671Y-104421202D01*
X167742664Y-104421206D01*
X167627455Y-104507452D01*
X167627452Y-104507455D01*
X167541206Y-104622664D01*
X167541202Y-104622671D01*
X167490908Y-104757517D01*
X167484501Y-104817116D01*
X167484500Y-104817135D01*
X167484500Y-106712870D01*
X167484501Y-106712876D01*
X167490908Y-106772483D01*
X167541202Y-106907328D01*
X167541206Y-106907335D01*
X167627452Y-107022544D01*
X167627455Y-107022547D01*
X167742664Y-107108793D01*
X167742671Y-107108797D01*
X167877517Y-107159091D01*
X167877516Y-107159091D01*
X167884444Y-107159835D01*
X167937127Y-107165500D01*
X169832872Y-107165499D01*
X169892483Y-107159091D01*
X170027331Y-107108796D01*
X170142546Y-107022546D01*
X170228796Y-106907331D01*
X170256429Y-106833243D01*
X170258601Y-106827420D01*
X170300471Y-106771486D01*
X170365936Y-106747068D01*
X170434209Y-106761919D01*
X170462464Y-106783071D01*
X170512636Y-106833243D01*
X170512641Y-106833247D01*
X170633094Y-106920760D01*
X170690978Y-106962815D01*
X170819375Y-107028237D01*
X170887393Y-107062895D01*
X170887396Y-107062896D01*
X170966365Y-107088554D01*
X171097049Y-107131015D01*
X171314778Y-107165500D01*
X171314779Y-107165500D01*
X171535221Y-107165500D01*
X171535222Y-107165500D01*
X171752951Y-107131015D01*
X171962606Y-107062895D01*
X172159022Y-106962815D01*
X172337365Y-106833242D01*
X172493242Y-106677365D01*
X172622815Y-106499022D01*
X172722895Y-106302606D01*
X172791015Y-106092951D01*
X172825500Y-105875222D01*
X172825500Y-105654778D01*
X172818820Y-105612603D01*
X172791015Y-105437048D01*
X172787187Y-105425268D01*
X172785190Y-105355427D01*
X172821269Y-105295593D01*
X172880926Y-105265330D01*
X173039458Y-105233796D01*
X173039461Y-105233794D01*
X173039466Y-105233794D01*
X173203347Y-105165913D01*
X173350835Y-105067364D01*
X173473068Y-104945130D01*
X173534389Y-104911647D01*
X173604081Y-104916631D01*
X173660015Y-104958502D01*
X173683221Y-105013415D01*
X173696590Y-105097826D01*
X173757417Y-105285029D01*
X173839720Y-105446557D01*
X173846776Y-105460405D01*
X173962472Y-105619646D01*
X174101654Y-105758828D01*
X174260895Y-105874524D01*
X174340299Y-105914982D01*
X174436270Y-105963882D01*
X174436272Y-105963882D01*
X174436275Y-105963884D01*
X174508520Y-105987358D01*
X174623473Y-106024709D01*
X174817878Y-106055500D01*
X174817883Y-106055500D01*
X175014722Y-106055500D01*
X175209126Y-106024709D01*
X175396325Y-105963884D01*
X175571705Y-105874524D01*
X175730946Y-105758828D01*
X175870128Y-105619646D01*
X175985824Y-105460405D01*
X176075184Y-105285025D01*
X176136009Y-105097826D01*
X176139658Y-105074786D01*
X176166800Y-104903422D01*
X176166800Y-104706577D01*
X176136009Y-104512173D01*
X176090109Y-104370909D01*
X176075184Y-104324975D01*
X176075182Y-104324972D01*
X176075182Y-104324970D01*
X175992471Y-104162641D01*
X175985824Y-104149595D01*
X175870128Y-103990354D01*
X175730946Y-103851172D01*
X175571705Y-103735476D01*
X175551164Y-103725010D01*
X175396329Y-103646117D01*
X175209126Y-103585290D01*
X175014722Y-103554500D01*
X175014717Y-103554500D01*
X174817883Y-103554500D01*
X174817878Y-103554500D01*
X174623473Y-103585290D01*
X174436270Y-103646117D01*
X174260894Y-103735476D01*
X174170041Y-103801485D01*
X174101654Y-103851172D01*
X174101652Y-103851174D01*
X174101651Y-103851174D01*
X173962473Y-103990352D01*
X173858645Y-104133258D01*
X173803314Y-104175924D01*
X173733701Y-104181902D01*
X173671906Y-104149296D01*
X173643765Y-104107824D01*
X173642695Y-104105242D01*
X173642694Y-104105234D01*
X173574813Y-103941353D01*
X173574811Y-103941350D01*
X173574809Y-103941346D01*
X173476265Y-103793866D01*
X173417875Y-103735476D01*
X173350835Y-103668436D01*
X173267689Y-103585290D01*
X172970282Y-103287881D01*
X172936797Y-103226558D01*
X172941781Y-103156866D01*
X172983653Y-103100933D01*
X173049117Y-103076516D01*
X173057963Y-103076200D01*
X180710908Y-103076200D01*
X180710908Y-103076199D01*
X180810787Y-103056333D01*
X180831752Y-103052163D01*
X180882030Y-103031337D01*
X180945586Y-103005012D01*
X181011697Y-102960837D01*
X181048033Y-102936558D01*
X181135158Y-102849433D01*
X181135158Y-102849431D01*
X181145366Y-102839224D01*
X181145367Y-102839221D01*
X181578761Y-102405827D01*
X181640083Y-102372344D01*
X181704758Y-102375578D01*
X181860215Y-102426090D01*
X182109038Y-102465500D01*
X182109039Y-102465500D01*
X182360961Y-102465500D01*
X182360962Y-102465500D01*
X182609785Y-102426090D01*
X182849379Y-102348241D01*
X183073845Y-102233870D01*
X183277656Y-102085793D01*
X183455793Y-101907656D01*
X183603870Y-101703845D01*
X183718241Y-101479379D01*
X183796090Y-101239785D01*
X183835500Y-100990962D01*
X183835500Y-100739038D01*
X183796090Y-100490215D01*
X183718241Y-100250621D01*
X183718239Y-100250618D01*
X183718239Y-100250616D01*
X183673521Y-100162853D01*
X183603870Y-100026155D01*
X183584952Y-100000117D01*
X183455798Y-99822350D01*
X183455794Y-99822345D01*
X183277654Y-99644205D01*
X183277649Y-99644201D01*
X183073848Y-99496132D01*
X183073847Y-99496131D01*
X183073845Y-99496130D01*
X183003747Y-99460413D01*
X182849383Y-99381760D01*
X182609785Y-99303910D01*
X182605233Y-99303189D01*
X182360962Y-99264500D01*
X182109038Y-99264500D01*
X182042738Y-99275001D01*
X181860214Y-99303910D01*
X181620616Y-99381760D01*
X181396151Y-99496132D01*
X181192350Y-99644201D01*
X181192345Y-99644205D01*
X181014205Y-99822345D01*
X181014201Y-99822350D01*
X180866132Y-100026151D01*
X180751760Y-100250616D01*
X180673910Y-100490214D01*
X180634500Y-100739038D01*
X180634500Y-100990961D01*
X180673910Y-101239786D01*
X180724419Y-101395239D01*
X180726414Y-101465081D01*
X180694169Y-101521238D01*
X180426527Y-101788882D01*
X180365207Y-101822366D01*
X180338848Y-101825200D01*
X173799500Y-101825200D01*
X173732461Y-101805515D01*
X173686706Y-101752711D01*
X173675500Y-101701200D01*
X173675500Y-99964995D01*
X173675499Y-99964982D01*
X173664999Y-99862203D01*
X173664999Y-99862202D01*
X173609814Y-99695665D01*
X173517712Y-99546344D01*
X173393656Y-99422288D01*
X173244335Y-99330186D01*
X173244332Y-99330185D01*
X173077793Y-99274999D01*
X173073535Y-99274088D01*
X173012104Y-99240802D01*
X172978420Y-99179588D01*
X172975500Y-99152837D01*
X172975500Y-98287162D01*
X172995185Y-98220123D01*
X173047989Y-98174368D01*
X173073554Y-98165907D01*
X173077794Y-98164999D01*
X173077798Y-98164999D01*
X173244335Y-98109814D01*
X173393656Y-98017712D01*
X173517712Y-97893656D01*
X173609814Y-97744335D01*
X173664999Y-97577798D01*
X173675500Y-97475010D01*
X173675500Y-96449038D01*
X180634500Y-96449038D01*
X180634500Y-96700962D01*
X180646315Y-96775558D01*
X180673910Y-96949785D01*
X180751760Y-97189383D01*
X180813670Y-97310886D01*
X180858308Y-97398494D01*
X180866132Y-97413848D01*
X181014201Y-97617649D01*
X181014205Y-97617654D01*
X181192345Y-97795794D01*
X181192350Y-97795798D01*
X181334560Y-97899119D01*
X181396155Y-97943870D01*
X181510750Y-98002259D01*
X181620616Y-98058239D01*
X181620618Y-98058239D01*
X181620621Y-98058241D01*
X181860215Y-98136090D01*
X182109038Y-98175500D01*
X182109039Y-98175500D01*
X182360961Y-98175500D01*
X182360962Y-98175500D01*
X182609785Y-98136090D01*
X182849379Y-98058241D01*
X183073845Y-97943870D01*
X183277656Y-97795793D01*
X183455793Y-97617656D01*
X183603870Y-97413845D01*
X183718241Y-97189379D01*
X183796090Y-96949785D01*
X183835500Y-96700962D01*
X183835500Y-96449038D01*
X183796090Y-96200215D01*
X183718241Y-95960621D01*
X183718239Y-95960618D01*
X183718239Y-95960616D01*
X183676747Y-95879184D01*
X183603870Y-95736155D01*
X183569386Y-95688692D01*
X183455798Y-95532350D01*
X183455794Y-95532345D01*
X183277654Y-95354205D01*
X183277649Y-95354201D01*
X183073848Y-95206132D01*
X183073847Y-95206131D01*
X183073845Y-95206130D01*
X183001953Y-95169499D01*
X182849383Y-95091760D01*
X182609785Y-95013910D01*
X182534582Y-95001999D01*
X182360962Y-94974500D01*
X182109038Y-94974500D01*
X181984626Y-94994205D01*
X181860214Y-95013910D01*
X181620616Y-95091760D01*
X181396151Y-95206132D01*
X181192350Y-95354201D01*
X181192345Y-95354205D01*
X181014205Y-95532345D01*
X181014201Y-95532350D01*
X180866132Y-95736151D01*
X180751760Y-95960616D01*
X180673910Y-96200214D01*
X180651120Y-96344107D01*
X180634500Y-96449038D01*
X173675500Y-96449038D01*
X173675500Y-96299362D01*
X173695185Y-96232323D01*
X173711820Y-96211680D01*
X173749463Y-96174037D01*
X173764821Y-96151052D01*
X173790518Y-96112594D01*
X173848013Y-96026547D01*
X173875322Y-95960616D01*
X173898215Y-95905348D01*
X173898216Y-95905345D01*
X173915893Y-95862670D01*
X173915895Y-95862666D01*
X173950500Y-95688692D01*
X173950500Y-95511308D01*
X173950500Y-93626841D01*
X173970185Y-93559802D01*
X174022989Y-93514047D01*
X174092147Y-93504103D01*
X174130796Y-93516357D01*
X174215966Y-93559754D01*
X174410582Y-93622990D01*
X174612683Y-93655000D01*
X174817317Y-93655000D01*
X175019417Y-93622990D01*
X175214031Y-93559755D01*
X175396349Y-93466859D01*
X175440921Y-93434474D01*
X174761447Y-92755000D01*
X174767661Y-92755000D01*
X174869394Y-92727741D01*
X174960606Y-92675080D01*
X175035080Y-92600606D01*
X175087741Y-92509394D01*
X175115000Y-92407661D01*
X175115000Y-92401447D01*
X175794474Y-93080921D01*
X175826859Y-93036349D01*
X175919755Y-92854031D01*
X175982990Y-92659417D01*
X176015000Y-92457317D01*
X176015000Y-92252682D01*
X175982990Y-92050582D01*
X175919755Y-91855968D01*
X175826859Y-91673650D01*
X175794474Y-91629077D01*
X175794474Y-91629076D01*
X175115000Y-92308551D01*
X175115000Y-92302339D01*
X175087741Y-92200606D01*
X175035080Y-92109394D01*
X174960606Y-92034920D01*
X174869394Y-91982259D01*
X174767661Y-91955000D01*
X174761446Y-91955000D01*
X175440922Y-91275524D01*
X175439570Y-91258349D01*
X175425299Y-91239842D01*
X175419320Y-91170229D01*
X175451925Y-91108433D01*
X175501845Y-91077148D01*
X175584334Y-91049814D01*
X175733656Y-90957712D01*
X175857712Y-90833656D01*
X175949814Y-90684334D01*
X176004999Y-90517797D01*
X176015500Y-90415009D01*
X176015499Y-89712648D01*
X181034500Y-89712648D01*
X181034500Y-89917351D01*
X181066522Y-90119534D01*
X181129781Y-90314223D01*
X181181135Y-90415009D01*
X181195567Y-90443334D01*
X181222715Y-90496613D01*
X181343028Y-90662213D01*
X181487786Y-90806971D01*
X181642749Y-90919556D01*
X181653390Y-90927287D01*
X181744840Y-90973883D01*
X181746080Y-90974515D01*
X181796876Y-91022490D01*
X181813671Y-91090311D01*
X181791134Y-91156446D01*
X181746080Y-91195485D01*
X181653386Y-91242715D01*
X181487786Y-91363028D01*
X181343028Y-91507786D01*
X181222715Y-91673386D01*
X181129781Y-91855776D01*
X181066522Y-92050465D01*
X181034500Y-92252648D01*
X181034500Y-92457351D01*
X181066522Y-92659534D01*
X181129781Y-92854223D01*
X181184526Y-92961664D01*
X181222585Y-93036359D01*
X181222715Y-93036613D01*
X181343028Y-93202213D01*
X181487786Y-93346971D01*
X181619982Y-93443015D01*
X181653390Y-93467287D01*
X181745162Y-93514047D01*
X181835776Y-93560218D01*
X181835778Y-93560218D01*
X181835781Y-93560220D01*
X181908045Y-93583700D01*
X182030465Y-93623477D01*
X182131557Y-93639488D01*
X182232648Y-93655500D01*
X182232649Y-93655500D01*
X182437351Y-93655500D01*
X182437352Y-93655500D01*
X182639534Y-93623477D01*
X182834219Y-93560220D01*
X183016610Y-93467287D01*
X183128284Y-93386152D01*
X183182213Y-93346971D01*
X183182215Y-93346968D01*
X183182219Y-93346966D01*
X183326966Y-93202219D01*
X183326968Y-93202215D01*
X183326971Y-93202213D01*
X183379732Y-93129590D01*
X183447287Y-93036610D01*
X183540220Y-92854219D01*
X183603477Y-92659534D01*
X183635500Y-92457352D01*
X183635500Y-92252648D01*
X183620018Y-92154897D01*
X183603477Y-92050465D01*
X183572458Y-91955000D01*
X183540220Y-91855781D01*
X183540218Y-91855778D01*
X183540218Y-91855776D01*
X183506503Y-91789607D01*
X183447287Y-91673390D01*
X183415092Y-91629077D01*
X183326971Y-91507786D01*
X183182213Y-91363028D01*
X183016614Y-91242715D01*
X183010006Y-91239348D01*
X182923917Y-91195483D01*
X182873123Y-91147511D01*
X182856328Y-91079690D01*
X182878865Y-91013555D01*
X182923917Y-90974516D01*
X183016610Y-90927287D01*
X183145482Y-90833657D01*
X183182213Y-90806971D01*
X183182215Y-90806968D01*
X183182219Y-90806966D01*
X183326966Y-90662219D01*
X183326968Y-90662215D01*
X183326971Y-90662213D01*
X183426300Y-90525496D01*
X183447287Y-90496610D01*
X183540220Y-90314219D01*
X183603477Y-90119534D01*
X183635500Y-89917352D01*
X183635500Y-89712648D01*
X183603477Y-89510466D01*
X183540220Y-89315781D01*
X183540218Y-89315778D01*
X183540218Y-89315776D01*
X183488865Y-89214991D01*
X183447287Y-89133390D01*
X183426300Y-89104504D01*
X183326971Y-88967786D01*
X183182213Y-88823028D01*
X183016613Y-88702715D01*
X183016612Y-88702714D01*
X183016610Y-88702713D01*
X182956898Y-88672288D01*
X182834223Y-88609781D01*
X182639534Y-88546522D01*
X182464995Y-88518878D01*
X182437352Y-88514500D01*
X182232648Y-88514500D01*
X182208329Y-88518351D01*
X182030465Y-88546522D01*
X181835776Y-88609781D01*
X181653386Y-88702715D01*
X181487786Y-88823028D01*
X181343028Y-88967786D01*
X181222715Y-89133386D01*
X181129781Y-89315776D01*
X181066522Y-89510465D01*
X181034500Y-89712648D01*
X176015499Y-89712648D01*
X176015499Y-89214992D01*
X176004999Y-89112203D01*
X175949814Y-88945666D01*
X175857712Y-88796344D01*
X175733656Y-88672288D01*
X175584334Y-88580186D01*
X175417797Y-88525001D01*
X175417795Y-88525000D01*
X175315010Y-88514500D01*
X174114998Y-88514500D01*
X174114981Y-88514501D01*
X174012203Y-88525000D01*
X174012200Y-88525001D01*
X173845668Y-88580185D01*
X173845663Y-88580187D01*
X173696342Y-88672289D01*
X173572289Y-88796342D01*
X173480187Y-88945663D01*
X173480186Y-88945666D01*
X173425001Y-89112203D01*
X173425001Y-89112204D01*
X173425000Y-89112204D01*
X173414500Y-89214983D01*
X173414500Y-90141638D01*
X173394815Y-90208677D01*
X173342011Y-90254432D01*
X173272853Y-90264376D01*
X173209297Y-90235351D01*
X173202819Y-90229319D01*
X172851819Y-89878319D01*
X172818334Y-89816996D01*
X172815500Y-89790638D01*
X172815500Y-89712648D01*
X172783477Y-89510465D01*
X172724563Y-89329147D01*
X172720220Y-89315781D01*
X172720218Y-89315778D01*
X172720218Y-89315776D01*
X172668865Y-89214991D01*
X172627287Y-89133390D01*
X172606300Y-89104504D01*
X172506971Y-88967786D01*
X172362213Y-88823028D01*
X172196613Y-88702715D01*
X172196612Y-88702714D01*
X172196610Y-88702713D01*
X172136898Y-88672288D01*
X172014223Y-88609781D01*
X171819534Y-88546522D01*
X171644995Y-88518878D01*
X171617352Y-88514500D01*
X171412648Y-88514500D01*
X171388329Y-88518351D01*
X171210465Y-88546522D01*
X171015776Y-88609781D01*
X170833386Y-88702715D01*
X170667786Y-88823028D01*
X170523028Y-88967786D01*
X170402715Y-89133386D01*
X170309781Y-89315776D01*
X170246522Y-89510465D01*
X170214500Y-89712648D01*
X170214500Y-89917351D01*
X170246522Y-90119534D01*
X170309781Y-90314223D01*
X170361135Y-90415009D01*
X170375567Y-90443334D01*
X170402715Y-90496613D01*
X170523028Y-90662213D01*
X170667786Y-90806971D01*
X170822749Y-90919556D01*
X170833390Y-90927287D01*
X170924840Y-90973883D01*
X170926080Y-90974515D01*
X170976876Y-91022490D01*
X170993671Y-91090311D01*
X170971134Y-91156446D01*
X170926080Y-91195485D01*
X170833386Y-91242715D01*
X170667786Y-91363028D01*
X170523028Y-91507786D01*
X170402715Y-91673386D01*
X170309781Y-91855776D01*
X170246522Y-92050465D01*
X170222476Y-92202288D01*
X170214500Y-92252648D01*
X170214500Y-92457352D01*
X170222743Y-92509394D01*
X170247285Y-92664346D01*
X170245252Y-92664667D01*
X170242165Y-92725834D01*
X170212781Y-92772627D01*
X169559029Y-93426381D01*
X169497706Y-93459866D01*
X169471348Y-93462700D01*
X164700509Y-93462700D01*
X164633470Y-93443015D01*
X164612828Y-93426381D01*
X163941447Y-92755000D01*
X163947661Y-92755000D01*
X164049394Y-92727741D01*
X164140606Y-92675080D01*
X164215080Y-92600606D01*
X164267741Y-92509394D01*
X164295000Y-92407661D01*
X164295000Y-92401447D01*
X164974474Y-93080921D01*
X165006859Y-93036349D01*
X165099755Y-92854031D01*
X165162990Y-92659417D01*
X165195000Y-92457317D01*
X165195000Y-92252682D01*
X165162990Y-92050582D01*
X165099755Y-91855968D01*
X165006859Y-91673650D01*
X164974474Y-91629077D01*
X164974474Y-91629076D01*
X164295000Y-92308551D01*
X164295000Y-92302339D01*
X164267741Y-92200606D01*
X164215080Y-92109394D01*
X164140606Y-92034920D01*
X164049394Y-91982259D01*
X163947661Y-91955000D01*
X163941446Y-91955000D01*
X164620922Y-91275524D01*
X164619570Y-91258349D01*
X164605299Y-91239842D01*
X164599320Y-91170229D01*
X164631925Y-91108433D01*
X164681845Y-91077148D01*
X164764334Y-91049814D01*
X164913656Y-90957712D01*
X165037712Y-90833656D01*
X165129814Y-90684334D01*
X165184999Y-90517797D01*
X165195500Y-90415009D01*
X165195499Y-89214992D01*
X165184999Y-89112203D01*
X165129814Y-88945666D01*
X165037712Y-88796344D01*
X164913656Y-88672288D01*
X164764334Y-88580186D01*
X164597797Y-88525001D01*
X164597795Y-88525000D01*
X164495010Y-88514500D01*
X163294998Y-88514500D01*
X163294981Y-88514501D01*
X163192203Y-88525000D01*
X163192200Y-88525001D01*
X163025668Y-88580185D01*
X163025663Y-88580187D01*
X162876342Y-88672289D01*
X162752289Y-88796342D01*
X162660187Y-88945663D01*
X162660186Y-88945666D01*
X162607551Y-89104506D01*
X162567781Y-89161949D01*
X162503265Y-89188772D01*
X162489847Y-89189500D01*
X155180689Y-89189500D01*
X155120271Y-89201518D01*
X155077043Y-89210116D01*
X155059846Y-89213537D01*
X154946016Y-89260687D01*
X154863565Y-89315780D01*
X154843566Y-89329142D01*
X154843560Y-89329147D01*
X152809681Y-91363028D01*
X152136269Y-92036440D01*
X152136267Y-92036442D01*
X152092705Y-92080003D01*
X152049144Y-92123564D01*
X152049142Y-92123567D01*
X152032808Y-92148013D01*
X152032807Y-92148015D01*
X152032806Y-92148014D01*
X151995009Y-92204581D01*
X151980688Y-92226014D01*
X151963998Y-92266309D01*
X151933538Y-92339845D01*
X151933535Y-92339855D01*
X151909500Y-92460689D01*
X151909500Y-98057046D01*
X151889815Y-98124085D01*
X151873181Y-98144728D01*
X151774002Y-98243906D01*
X151712678Y-98277390D01*
X151710513Y-98277841D01*
X151599308Y-98299961D01*
X151599298Y-98299964D01*
X151453627Y-98360302D01*
X151453614Y-98360309D01*
X151322511Y-98447910D01*
X151322507Y-98447913D01*
X151211013Y-98559407D01*
X151211010Y-98559411D01*
X151123409Y-98690514D01*
X151123402Y-98690527D01*
X151063064Y-98836198D01*
X151063061Y-98836210D01*
X151032300Y-98990853D01*
X151032300Y-99148546D01*
X151063061Y-99303189D01*
X151063064Y-99303201D01*
X151123402Y-99448872D01*
X151123409Y-99448885D01*
X151211010Y-99579988D01*
X151211013Y-99579992D01*
X151322507Y-99691486D01*
X151322511Y-99691489D01*
X151448537Y-99775698D01*
X151493342Y-99829310D01*
X151502049Y-99898635D01*
X151471894Y-99961663D01*
X151467327Y-99966481D01*
X150161681Y-101272128D01*
X150100358Y-101305613D01*
X150030666Y-101300629D01*
X149974733Y-101258757D01*
X149950316Y-101193293D01*
X149950000Y-101184447D01*
X149950000Y-81124000D01*
X149969685Y-81056961D01*
X150022489Y-81011206D01*
X150074000Y-81000000D01*
X186949904Y-81000000D01*
X187016943Y-81019685D01*
G37*
%TD.AperFunction*%
%TA.AperFunction,Conductor*%
G36*
X162453867Y-96166885D02*
G01*
X162499622Y-96219689D01*
X162509566Y-96288847D01*
X162501389Y-96318652D01*
X162444664Y-96455598D01*
X162444661Y-96455610D01*
X162413900Y-96610253D01*
X162413900Y-96767946D01*
X162444661Y-96922589D01*
X162444664Y-96922601D01*
X162505002Y-97068272D01*
X162505009Y-97068285D01*
X162592610Y-97199388D01*
X162592613Y-97199392D01*
X162704107Y-97310886D01*
X162704111Y-97310889D01*
X162835214Y-97398490D01*
X162835227Y-97398497D01*
X162922630Y-97434699D01*
X162980903Y-97458837D01*
X163092113Y-97480957D01*
X163154022Y-97513341D01*
X163155601Y-97514893D01*
X163237862Y-97597154D01*
X163237865Y-97597156D01*
X163237867Y-97597158D01*
X163280284Y-97625500D01*
X163340315Y-97665612D01*
X163393798Y-97687765D01*
X163454148Y-97712763D01*
X163514571Y-97724781D01*
X163574993Y-97736800D01*
X163580970Y-97737989D01*
X163580544Y-97740127D01*
X163636219Y-97762594D01*
X163676591Y-97819619D01*
X163683300Y-97859854D01*
X163683300Y-98975001D01*
X163683301Y-98975018D01*
X163693800Y-99077796D01*
X163693801Y-99077799D01*
X163727531Y-99179588D01*
X163748986Y-99244334D01*
X163841088Y-99393656D01*
X163965144Y-99517712D01*
X164024396Y-99554258D01*
X164071121Y-99606204D01*
X164083300Y-99659797D01*
X164083300Y-99714883D01*
X164080937Y-99714883D01*
X164069866Y-99773249D01*
X164047165Y-99804433D01*
X161978464Y-101873135D01*
X161917141Y-101906620D01*
X161847449Y-101901636D01*
X161791516Y-101859764D01*
X161776222Y-101832906D01*
X161764876Y-101805515D01*
X161757987Y-101788881D01*
X161721597Y-101701027D01*
X161721590Y-101701014D01*
X161633989Y-101569911D01*
X161633986Y-101569907D01*
X161522492Y-101458413D01*
X161522488Y-101458410D01*
X161391385Y-101370809D01*
X161391372Y-101370802D01*
X161245701Y-101310464D01*
X161245689Y-101310461D01*
X161091045Y-101279700D01*
X161091042Y-101279700D01*
X160933358Y-101279700D01*
X160933353Y-101279700D01*
X160810606Y-101304116D01*
X160741014Y-101297889D01*
X160686096Y-101255383D01*
X160633245Y-101182638D01*
X160477363Y-101026756D01*
X160477358Y-101026752D01*
X160299025Y-100897187D01*
X160299024Y-100897186D01*
X160299022Y-100897185D01*
X160181791Y-100837452D01*
X160102606Y-100797104D01*
X160102603Y-100797103D01*
X159892952Y-100728985D01*
X159784086Y-100711742D01*
X159675222Y-100694500D01*
X159454778Y-100694500D01*
X159382201Y-100705995D01*
X159237047Y-100728985D01*
X159027396Y-100797103D01*
X159027393Y-100797104D01*
X158830974Y-100897187D01*
X158652641Y-101026752D01*
X158652636Y-101026756D01*
X158602463Y-101076929D01*
X158541140Y-101110413D01*
X158471448Y-101105428D01*
X158415515Y-101063557D01*
X158398601Y-101032580D01*
X158368797Y-100952671D01*
X158368793Y-100952664D01*
X158282547Y-100837455D01*
X158282544Y-100837452D01*
X158167335Y-100751206D01*
X158167328Y-100751202D01*
X158032482Y-100700908D01*
X158032483Y-100700908D01*
X157972883Y-100694501D01*
X157972881Y-100694500D01*
X157972873Y-100694500D01*
X157972864Y-100694500D01*
X156077129Y-100694500D01*
X156077123Y-100694501D01*
X156017516Y-100700908D01*
X155882671Y-100751202D01*
X155882664Y-100751206D01*
X155767455Y-100837452D01*
X155767452Y-100837455D01*
X155681206Y-100952664D01*
X155681202Y-100952671D01*
X155630908Y-101087517D01*
X155624501Y-101147116D01*
X155624500Y-101147135D01*
X155624500Y-103042870D01*
X155624501Y-103042876D01*
X155630908Y-103102483D01*
X155681202Y-103237328D01*
X155681206Y-103237335D01*
X155767452Y-103352544D01*
X155767455Y-103352547D01*
X155882664Y-103438793D01*
X155882671Y-103438797D01*
X156017517Y-103489091D01*
X156017516Y-103489091D01*
X156024444Y-103489835D01*
X156077127Y-103495500D01*
X157972872Y-103495499D01*
X158032483Y-103489091D01*
X158167331Y-103438796D01*
X158282546Y-103352546D01*
X158368796Y-103237331D01*
X158368803Y-103237312D01*
X158398601Y-103157420D01*
X158440471Y-103101486D01*
X158505936Y-103077068D01*
X158574209Y-103091919D01*
X158602464Y-103113071D01*
X158652636Y-103163243D01*
X158652641Y-103163247D01*
X158750118Y-103234067D01*
X158830978Y-103292815D01*
X158959375Y-103358237D01*
X159027393Y-103392895D01*
X159027399Y-103392897D01*
X159110375Y-103419857D01*
X159168051Y-103459294D01*
X159195250Y-103523652D01*
X159183336Y-103592498D01*
X159159739Y-103625469D01*
X152835270Y-109949939D01*
X152748144Y-110037064D01*
X152748138Y-110037072D01*
X152679692Y-110139505D01*
X152679684Y-110139519D01*
X152646347Y-110220007D01*
X152640823Y-110233343D01*
X152632537Y-110253345D01*
X152632535Y-110253353D01*
X152608500Y-110374189D01*
X152608500Y-137253107D01*
X152609097Y-137259170D01*
X152608095Y-137259268D01*
X152609341Y-137284692D01*
X152609000Y-137288156D01*
X152609000Y-137445846D01*
X152639761Y-137600489D01*
X152639764Y-137600501D01*
X152700102Y-137746172D01*
X152700109Y-137746185D01*
X152787710Y-137877288D01*
X152787713Y-137877292D01*
X152899207Y-137988786D01*
X152899211Y-137988789D01*
X153030314Y-138076390D01*
X153030327Y-138076397D01*
X153121252Y-138114059D01*
X153175656Y-138157900D01*
X153197721Y-138224194D01*
X153197800Y-138228620D01*
X153197800Y-139314996D01*
X153232403Y-139488959D01*
X153232405Y-139488966D01*
X153255352Y-139544363D01*
X153300283Y-139652841D01*
X153300291Y-139652855D01*
X153356939Y-139737632D01*
X153356940Y-139737634D01*
X153398837Y-139800338D01*
X153398840Y-139800341D01*
X158172536Y-144574035D01*
X158297965Y-144699464D01*
X158297966Y-144699465D01*
X158445446Y-144798009D01*
X158445459Y-144798016D01*
X158568363Y-144848923D01*
X158609334Y-144865894D01*
X158651935Y-144874368D01*
X158783305Y-144900500D01*
X158783308Y-144900500D01*
X158783309Y-144900500D01*
X158798900Y-144900500D01*
X158865939Y-144920185D01*
X158911694Y-144972989D01*
X158922900Y-145024500D01*
X158922900Y-158170500D01*
X158903215Y-158237539D01*
X158850411Y-158283294D01*
X158798900Y-158294500D01*
X158236971Y-158294500D01*
X158236965Y-158294500D01*
X158236964Y-158294501D01*
X158225316Y-158295536D01*
X158117584Y-158305113D01*
X157921954Y-158361089D01*
X157831772Y-158408196D01*
X157741593Y-158455302D01*
X157741591Y-158455303D01*
X157741590Y-158455304D01*
X157583890Y-158583890D01*
X157455304Y-158741590D01*
X157361089Y-158921954D01*
X157305114Y-159117583D01*
X157305113Y-159117586D01*
X157294500Y-159236966D01*
X157294500Y-159670500D01*
X157274815Y-159737539D01*
X157222011Y-159783294D01*
X157170500Y-159794500D01*
X153880291Y-159794500D01*
X153813252Y-159774815D01*
X153783644Y-159748187D01*
X153742724Y-159697280D01*
X153742722Y-159697278D01*
X153673112Y-159641324D01*
X153633196Y-159583985D01*
X153630616Y-159514163D01*
X153666194Y-159454030D01*
X153673115Y-159448033D01*
X153742366Y-159392367D01*
X153742367Y-159392366D01*
X153861607Y-159244025D01*
X153861609Y-159244022D01*
X153946168Y-159073523D01*
X153992102Y-158888824D01*
X153995000Y-158846096D01*
X153995000Y-158645000D01*
X150995000Y-158645000D01*
X150995000Y-158846096D01*
X150997897Y-158888824D01*
X151043831Y-159073523D01*
X151128390Y-159244022D01*
X151128392Y-159244025D01*
X151247630Y-159392364D01*
X151316884Y-159448031D01*
X151356803Y-159505375D01*
X151359383Y-159575197D01*
X151323805Y-159635329D01*
X151316885Y-159641326D01*
X151247276Y-159697280D01*
X151127969Y-159845704D01*
X151127967Y-159845707D01*
X151043360Y-160016302D01*
X150997400Y-160201107D01*
X150994500Y-160243879D01*
X150994500Y-161146122D01*
X150994501Y-161146125D01*
X150997399Y-161188886D01*
X150997399Y-161188887D01*
X151043360Y-161373696D01*
X151127967Y-161544292D01*
X151127969Y-161544295D01*
X151247277Y-161692721D01*
X151247278Y-161692722D01*
X151316486Y-161748353D01*
X151356405Y-161805696D01*
X151358985Y-161875518D01*
X151323406Y-161935651D01*
X151316486Y-161941647D01*
X151247278Y-161997277D01*
X151247277Y-161997278D01*
X151206356Y-162048187D01*
X151149013Y-162088106D01*
X151109709Y-162094500D01*
X150074000Y-162094500D01*
X150006961Y-162074815D01*
X149961206Y-162022011D01*
X149950000Y-161970500D01*
X149950000Y-157943903D01*
X150995000Y-157943903D01*
X150995000Y-158145000D01*
X152245000Y-158145000D01*
X152745000Y-158145000D01*
X153995000Y-158145000D01*
X153995000Y-157943903D01*
X153992102Y-157901175D01*
X153946168Y-157716476D01*
X153861609Y-157545977D01*
X153861607Y-157545974D01*
X153742367Y-157397633D01*
X153742366Y-157397632D01*
X153594025Y-157278392D01*
X153594022Y-157278390D01*
X153423523Y-157193831D01*
X153238824Y-157147897D01*
X153196097Y-157145000D01*
X152745000Y-157145000D01*
X152745000Y-158145000D01*
X152245000Y-158145000D01*
X152245000Y-157145000D01*
X151793903Y-157145000D01*
X151751175Y-157147897D01*
X151566476Y-157193831D01*
X151395977Y-157278390D01*
X151395974Y-157278392D01*
X151247633Y-157397632D01*
X151247632Y-157397633D01*
X151128392Y-157545974D01*
X151128390Y-157545977D01*
X151043831Y-157716476D01*
X150997897Y-157901175D01*
X150995000Y-157943903D01*
X149950000Y-157943903D01*
X149950000Y-103304351D01*
X149969685Y-103237312D01*
X149986316Y-103216673D01*
X151452821Y-101750167D01*
X151514142Y-101716684D01*
X151583834Y-101721668D01*
X151639767Y-101763540D01*
X151664184Y-101829004D01*
X151664500Y-101837850D01*
X151664500Y-102552870D01*
X151664501Y-102552876D01*
X151670908Y-102612483D01*
X151721202Y-102747328D01*
X151721206Y-102747335D01*
X151807452Y-102862544D01*
X151807455Y-102862547D01*
X151922664Y-102948793D01*
X151922671Y-102948797D01*
X152054082Y-102997810D01*
X152110016Y-103039681D01*
X152134433Y-103105145D01*
X152119582Y-103173418D01*
X152098431Y-103201673D01*
X151984889Y-103315215D01*
X151859951Y-103487179D01*
X151763444Y-103676585D01*
X151763443Y-103676587D01*
X151763443Y-103676588D01*
X151750406Y-103716711D01*
X151697753Y-103878760D01*
X151679580Y-103993503D01*
X151664500Y-104088713D01*
X151664500Y-104301287D01*
X151674462Y-104364184D01*
X151697153Y-104507452D01*
X151697754Y-104511243D01*
X151761222Y-104706577D01*
X151763444Y-104713414D01*
X151859951Y-104902820D01*
X151984890Y-105074786D01*
X152135213Y-105225109D01*
X152307179Y-105350048D01*
X152307181Y-105350049D01*
X152307184Y-105350051D01*
X152316493Y-105354794D01*
X152367290Y-105402766D01*
X152384087Y-105470587D01*
X152361552Y-105536722D01*
X152316505Y-105575760D01*
X152307446Y-105580376D01*
X152307440Y-105580380D01*
X152253282Y-105619727D01*
X152253282Y-105619728D01*
X152885591Y-106252037D01*
X152822007Y-106269075D01*
X152707993Y-106334901D01*
X152614901Y-106427993D01*
X152549075Y-106542007D01*
X152532037Y-106605591D01*
X151899728Y-105973282D01*
X151899727Y-105973282D01*
X151860380Y-106027439D01*
X151763904Y-106216782D01*
X151698242Y-106418869D01*
X151698242Y-106418872D01*
X151665000Y-106628753D01*
X151665000Y-106841246D01*
X151698242Y-107051127D01*
X151698242Y-107051130D01*
X151763904Y-107253217D01*
X151860375Y-107442550D01*
X151899728Y-107496716D01*
X152532037Y-106864408D01*
X152549075Y-106927993D01*
X152614901Y-107042007D01*
X152707993Y-107135099D01*
X152822007Y-107200925D01*
X152885590Y-107217962D01*
X152253282Y-107850269D01*
X152253282Y-107850270D01*
X152307449Y-107889624D01*
X152496782Y-107986095D01*
X152698870Y-108051757D01*
X152908754Y-108085000D01*
X153121246Y-108085000D01*
X153331127Y-108051757D01*
X153331130Y-108051757D01*
X153533217Y-107986095D01*
X153722554Y-107889622D01*
X153776716Y-107850270D01*
X153776717Y-107850270D01*
X153144408Y-107217962D01*
X153207993Y-107200925D01*
X153322007Y-107135099D01*
X153415099Y-107042007D01*
X153480925Y-106927993D01*
X153497962Y-106864408D01*
X154130270Y-107496717D01*
X154130270Y-107496716D01*
X154169622Y-107442554D01*
X154266095Y-107253217D01*
X154331757Y-107051130D01*
X154331757Y-107051127D01*
X154365000Y-106841246D01*
X154365000Y-106628753D01*
X154331757Y-106418872D01*
X154331757Y-106418869D01*
X154266095Y-106216782D01*
X154169624Y-106027449D01*
X154130270Y-105973282D01*
X154130269Y-105973282D01*
X153497962Y-106605590D01*
X153480925Y-106542007D01*
X153415099Y-106427993D01*
X153322007Y-106334901D01*
X153207993Y-106269075D01*
X153144409Y-106252037D01*
X153776716Y-105619728D01*
X153722547Y-105580373D01*
X153722547Y-105580372D01*
X153713500Y-105575763D01*
X153662706Y-105527788D01*
X153645912Y-105459966D01*
X153668451Y-105393832D01*
X153713508Y-105354793D01*
X153722816Y-105350051D01*
X153835200Y-105268400D01*
X153894786Y-105225109D01*
X153894788Y-105225106D01*
X153894792Y-105225104D01*
X154045104Y-105074792D01*
X154045106Y-105074788D01*
X154045109Y-105074786D01*
X154170048Y-104902820D01*
X154170047Y-104902820D01*
X154170051Y-104902816D01*
X154266557Y-104713412D01*
X154332246Y-104511243D01*
X154365500Y-104301287D01*
X154365500Y-104088713D01*
X154332246Y-103878757D01*
X154266557Y-103676588D01*
X154170051Y-103487184D01*
X154170049Y-103487181D01*
X154170048Y-103487179D01*
X154045109Y-103315213D01*
X153931569Y-103201673D01*
X153898084Y-103140350D01*
X153903068Y-103070658D01*
X153944940Y-103014725D01*
X153975915Y-102997810D01*
X154107331Y-102948796D01*
X154222546Y-102862546D01*
X154308796Y-102747331D01*
X154359091Y-102612483D01*
X154365500Y-102552873D01*
X154365499Y-100757128D01*
X154359091Y-100697517D01*
X154308796Y-100562669D01*
X154308795Y-100562668D01*
X154308793Y-100562664D01*
X154222547Y-100447455D01*
X154222544Y-100447452D01*
X154107335Y-100361206D01*
X154107328Y-100361202D01*
X153972482Y-100310908D01*
X153972483Y-100310908D01*
X153912883Y-100304501D01*
X153912881Y-100304500D01*
X153912873Y-100304500D01*
X153912865Y-100304500D01*
X153197851Y-100304500D01*
X153130812Y-100284815D01*
X153085057Y-100232011D01*
X153075113Y-100162853D01*
X153104138Y-100099297D01*
X153110170Y-100092819D01*
X154255278Y-98947711D01*
X155522797Y-97680191D01*
X155584118Y-97646708D01*
X155586128Y-97646289D01*
X155697497Y-97624137D01*
X155843179Y-97563794D01*
X155974289Y-97476189D01*
X156085789Y-97364689D01*
X156173394Y-97233579D01*
X156233737Y-97087897D01*
X156264500Y-96933242D01*
X156264500Y-96775558D01*
X156264500Y-96775555D01*
X156264499Y-96775553D01*
X156249662Y-96700962D01*
X156233737Y-96620903D01*
X156177768Y-96485780D01*
X156173397Y-96475227D01*
X156173390Y-96475214D01*
X156083103Y-96340091D01*
X156062225Y-96273414D01*
X156080709Y-96206034D01*
X156132688Y-96159343D01*
X156186205Y-96147200D01*
X162386828Y-96147200D01*
X162453867Y-96166885D01*
G37*
%TD.AperFunction*%
%TA.AperFunction,Conductor*%
G36*
X155760034Y-113388279D02*
G01*
X155815967Y-113430151D01*
X155840384Y-113495615D01*
X155840700Y-113504461D01*
X155840700Y-134624506D01*
X155863184Y-134737546D01*
X155863185Y-134737550D01*
X155863184Y-134737550D01*
X155864735Y-134745348D01*
X155864736Y-134745352D01*
X155911885Y-134859180D01*
X155911890Y-134859189D01*
X155946114Y-134910407D01*
X155946115Y-134910409D01*
X155980340Y-134961631D01*
X155980341Y-134961632D01*
X155980342Y-134961633D01*
X156067467Y-135048758D01*
X156067468Y-135048758D01*
X156074535Y-135055825D01*
X156074534Y-135055825D01*
X156074538Y-135055828D01*
X157769619Y-136750911D01*
X157803104Y-136812234D01*
X157798120Y-136881926D01*
X157756248Y-136937859D01*
X157690784Y-136962276D01*
X157634486Y-136953153D01*
X157622201Y-136948064D01*
X157622189Y-136948061D01*
X157467545Y-136917300D01*
X157467542Y-136917300D01*
X157309858Y-136917300D01*
X157309855Y-136917300D01*
X157155210Y-136948061D01*
X157155198Y-136948064D01*
X157009527Y-137008402D01*
X157009514Y-137008409D01*
X156878411Y-137096010D01*
X156878407Y-137096013D01*
X156766913Y-137207507D01*
X156766910Y-137207511D01*
X156679309Y-137338614D01*
X156679302Y-137338627D01*
X156618964Y-137484298D01*
X156618961Y-137484310D01*
X156588200Y-137638953D01*
X156588200Y-137796646D01*
X156618961Y-137951289D01*
X156618964Y-137951301D01*
X156679302Y-138096972D01*
X156679309Y-138096985D01*
X156766910Y-138228088D01*
X156766913Y-138228092D01*
X156878407Y-138339586D01*
X156878411Y-138339589D01*
X157009514Y-138427190D01*
X157009527Y-138427197D01*
X157107792Y-138467899D01*
X157155203Y-138487537D01*
X157278850Y-138512132D01*
X157309853Y-138518299D01*
X157309856Y-138518300D01*
X157309858Y-138518300D01*
X157467544Y-138518300D01*
X157467545Y-138518299D01*
X157622197Y-138487537D01*
X157767879Y-138427194D01*
X157862159Y-138364198D01*
X157928836Y-138343320D01*
X157931050Y-138343300D01*
X158079605Y-138343300D01*
X158146644Y-138362985D01*
X158192399Y-138415789D01*
X158202894Y-138480552D01*
X158199500Y-138512127D01*
X158199500Y-138512131D01*
X158199500Y-138512132D01*
X158199500Y-139507870D01*
X158199501Y-139507876D01*
X158205908Y-139567481D01*
X158218659Y-139601669D01*
X158223642Y-139671361D01*
X158218659Y-139688331D01*
X158205908Y-139722518D01*
X158203571Y-139744260D01*
X158199501Y-139782123D01*
X158199500Y-139782135D01*
X158199500Y-140777870D01*
X158199501Y-140777876D01*
X158205908Y-140837483D01*
X158256202Y-140972328D01*
X158256206Y-140972335D01*
X158342452Y-141087544D01*
X158342455Y-141087547D01*
X158457664Y-141173793D01*
X158457671Y-141173797D01*
X158592517Y-141224091D01*
X158592516Y-141224091D01*
X158599444Y-141224835D01*
X158652127Y-141230500D01*
X159877200Y-141230499D01*
X159944239Y-141250184D01*
X159989994Y-141302987D01*
X160001200Y-141354499D01*
X160001200Y-142497338D01*
X159981515Y-142564377D01*
X159964881Y-142585019D01*
X159486719Y-143063181D01*
X159425396Y-143096666D01*
X159399038Y-143099500D01*
X159296361Y-143099500D01*
X159229322Y-143079815D01*
X159208680Y-143063181D01*
X155035119Y-138889619D01*
X155001634Y-138828296D01*
X154998800Y-138801938D01*
X154998800Y-138519261D01*
X155018485Y-138452222D01*
X155035119Y-138431580D01*
X155110663Y-138356036D01*
X155110665Y-138356033D01*
X155189619Y-138237872D01*
X155209213Y-138208547D01*
X155277094Y-138044666D01*
X155287471Y-137992501D01*
X155310387Y-137877292D01*
X155311700Y-137870691D01*
X155311700Y-136863309D01*
X155311700Y-136863306D01*
X155311699Y-136863304D01*
X155277096Y-136689341D01*
X155277093Y-136689332D01*
X155209216Y-136525459D01*
X155209209Y-136525446D01*
X155110664Y-136377965D01*
X155110661Y-136377961D01*
X155035119Y-136302419D01*
X155001634Y-136241096D01*
X154998800Y-136214738D01*
X154998800Y-114098361D01*
X155018485Y-114031322D01*
X155035115Y-114010684D01*
X155629019Y-113416779D01*
X155690342Y-113383295D01*
X155760034Y-113388279D01*
G37*
%TD.AperFunction*%
%TA.AperFunction,Conductor*%
G36*
X157296903Y-114955040D02*
G01*
X157303381Y-114961072D01*
X157316832Y-114974523D01*
X157316838Y-114974528D01*
X157606881Y-115264571D01*
X157640366Y-115325894D01*
X157643200Y-115352252D01*
X157643200Y-126267011D01*
X157667235Y-126387844D01*
X157667240Y-126387861D01*
X157714385Y-126501680D01*
X157714390Y-126501689D01*
X157748614Y-126552907D01*
X157748615Y-126552909D01*
X157782841Y-126604133D01*
X157874286Y-126695578D01*
X157874308Y-126695598D01*
X157884316Y-126705606D01*
X157884345Y-126705637D01*
X157974563Y-126795855D01*
X157974571Y-126795861D01*
X158027010Y-126830900D01*
X158027011Y-126830900D01*
X158077015Y-126864312D01*
X158130978Y-126886663D01*
X158185380Y-126930503D01*
X158207446Y-126996796D01*
X158205710Y-127014694D01*
X158206738Y-127014805D01*
X158199501Y-127082116D01*
X158199500Y-127082135D01*
X158199500Y-128077870D01*
X158199501Y-128077876D01*
X158205908Y-128137481D01*
X158218659Y-128171669D01*
X158223642Y-128241361D01*
X158218659Y-128258331D01*
X158205908Y-128292518D01*
X158199501Y-128352116D01*
X158199500Y-128352135D01*
X158199500Y-129347870D01*
X158199501Y-129347874D01*
X158205908Y-129407481D01*
X158218659Y-129441669D01*
X158223642Y-129511361D01*
X158218659Y-129528331D01*
X158205908Y-129562518D01*
X158199501Y-129622116D01*
X158199501Y-129622123D01*
X158199500Y-129622135D01*
X158199500Y-130617870D01*
X158199501Y-130617876D01*
X158205908Y-130677481D01*
X158218659Y-130711669D01*
X158223642Y-130781361D01*
X158218659Y-130798331D01*
X158205908Y-130832518D01*
X158199501Y-130892116D01*
X158199501Y-130892123D01*
X158199500Y-130892135D01*
X158199500Y-131887870D01*
X158199501Y-131887876D01*
X158205908Y-131947481D01*
X158218659Y-131981669D01*
X158223642Y-132051361D01*
X158218659Y-132068331D01*
X158205908Y-132102518D01*
X158199501Y-132162116D01*
X158199501Y-132162123D01*
X158199500Y-132162135D01*
X158199500Y-133157870D01*
X158199501Y-133157876D01*
X158205908Y-133217481D01*
X158218659Y-133251669D01*
X158223642Y-133321361D01*
X158218659Y-133338331D01*
X158205908Y-133372518D01*
X158199501Y-133432116D01*
X158199501Y-133432123D01*
X158199500Y-133432135D01*
X158199500Y-134427870D01*
X158199501Y-134427876D01*
X158205908Y-134487481D01*
X158218659Y-134521669D01*
X158223642Y-134591361D01*
X158218659Y-134608331D01*
X158205908Y-134642518D01*
X158199501Y-134702116D01*
X158199501Y-134702123D01*
X158199500Y-134702135D01*
X158199500Y-135112247D01*
X158179815Y-135179286D01*
X158127011Y-135225041D01*
X158057853Y-135234985D01*
X157994297Y-135205960D01*
X157987819Y-135199928D01*
X157128019Y-134340128D01*
X157094534Y-134278805D01*
X157091700Y-134252447D01*
X157091700Y-115048753D01*
X157111385Y-114981714D01*
X157164189Y-114935959D01*
X157233347Y-114926015D01*
X157296903Y-114955040D01*
G37*
%TD.AperFunction*%
%TA.AperFunction,Conductor*%
G36*
X160184034Y-104472870D02*
G01*
X160239967Y-104514742D01*
X160264384Y-104580206D01*
X160264700Y-104589052D01*
X160264700Y-106182738D01*
X160245015Y-106249777D01*
X160228381Y-106270419D01*
X154071181Y-112427619D01*
X154009858Y-112461104D01*
X153940166Y-112456120D01*
X153884233Y-112414248D01*
X153859816Y-112348784D01*
X153859500Y-112339938D01*
X153859500Y-110746252D01*
X153879185Y-110679213D01*
X153895819Y-110658571D01*
X160053019Y-104501371D01*
X160114342Y-104467886D01*
X160184034Y-104472870D01*
G37*
%TD.AperFunction*%
%TA.AperFunction,Conductor*%
G36*
X163067487Y-106495184D02*
G01*
X163113242Y-106547988D01*
X163123186Y-106617146D01*
X163094161Y-106680702D01*
X163088129Y-106687180D01*
X158422129Y-111353181D01*
X158360806Y-111386666D01*
X158334448Y-111389500D01*
X157955661Y-111389500D01*
X157888622Y-111369815D01*
X157842867Y-111317011D01*
X157832923Y-111247853D01*
X157861948Y-111184297D01*
X157867980Y-111177819D01*
X161864661Y-107181139D01*
X161864661Y-107181138D01*
X161864664Y-107181136D01*
X161926525Y-107088554D01*
X161961394Y-107036370D01*
X161961397Y-107036364D01*
X161961398Y-107036363D01*
X161963213Y-107033647D01*
X162006976Y-106927993D01*
X162009973Y-106920759D01*
X162031093Y-106869770D01*
X162031095Y-106869766D01*
X162065700Y-106695792D01*
X162065700Y-106599499D01*
X162085385Y-106532460D01*
X162138189Y-106486705D01*
X162189700Y-106475499D01*
X163000448Y-106475499D01*
X163067487Y-106495184D01*
G37*
%TD.AperFunction*%
%TA.AperFunction,Conductor*%
G36*
X169739589Y-97756485D02*
G01*
X169741441Y-97757698D01*
X169835721Y-97820694D01*
X169835723Y-97820695D01*
X169835727Y-97820697D01*
X169918809Y-97855110D01*
X169981403Y-97881037D01*
X170136053Y-97911799D01*
X170136056Y-97911800D01*
X170136058Y-97911800D01*
X170293744Y-97911800D01*
X170293745Y-97911799D01*
X170448397Y-97881037D01*
X170492959Y-97862578D01*
X170562426Y-97855110D01*
X170624905Y-97886384D01*
X170628091Y-97889459D01*
X170632288Y-97893656D01*
X170756344Y-98017712D01*
X170905665Y-98109814D01*
X170984958Y-98136089D01*
X171072198Y-98164998D01*
X171072200Y-98164998D01*
X171072202Y-98164999D01*
X171072203Y-98164999D01*
X171076446Y-98165907D01*
X171137883Y-98199183D01*
X171171576Y-98260392D01*
X171174500Y-98287162D01*
X171174500Y-99152837D01*
X171154815Y-99219876D01*
X171102011Y-99265631D01*
X171076465Y-99274088D01*
X171072206Y-99274999D01*
X170905667Y-99330185D01*
X170905662Y-99330187D01*
X170756342Y-99422289D01*
X170632289Y-99546342D01*
X170540187Y-99695662D01*
X170540186Y-99695665D01*
X170485001Y-99862202D01*
X170485001Y-99862203D01*
X170485000Y-99862203D01*
X170474500Y-99964982D01*
X170474500Y-101701200D01*
X170454815Y-101768239D01*
X170402011Y-101813994D01*
X170350500Y-101825200D01*
X169678452Y-101825200D01*
X169611413Y-101805515D01*
X169590771Y-101788881D01*
X167663907Y-99862017D01*
X167630422Y-99800694D01*
X167635406Y-99731002D01*
X167677278Y-99675069D01*
X167732192Y-99651862D01*
X167788222Y-99642988D01*
X167982831Y-99579755D01*
X168165149Y-99486859D01*
X168209721Y-99454474D01*
X167530247Y-98775000D01*
X167536461Y-98775000D01*
X167638194Y-98747741D01*
X167729406Y-98695080D01*
X167803880Y-98620606D01*
X167856541Y-98529394D01*
X167883800Y-98427661D01*
X167883800Y-98421447D01*
X168563274Y-99100921D01*
X168595659Y-99056349D01*
X168688555Y-98874031D01*
X168751790Y-98679417D01*
X168783800Y-98477317D01*
X168783800Y-98272682D01*
X168751790Y-98070582D01*
X168696077Y-97899119D01*
X168694082Y-97829278D01*
X168730162Y-97769445D01*
X168792862Y-97738616D01*
X168814008Y-97736800D01*
X169672550Y-97736800D01*
X169739589Y-97756485D01*
G37*
%TD.AperFunction*%
%TA.AperFunction,Conductor*%
G36*
X162556885Y-90460185D02*
G01*
X162602640Y-90512989D01*
X162607552Y-90525496D01*
X162660186Y-90684334D01*
X162752288Y-90833656D01*
X162876344Y-90957712D01*
X163025666Y-91049814D01*
X163108152Y-91077147D01*
X163165597Y-91116920D01*
X163192420Y-91181436D01*
X163180105Y-91250212D01*
X163170143Y-91261975D01*
X163169077Y-91275524D01*
X163848554Y-91955000D01*
X163842339Y-91955000D01*
X163740606Y-91982259D01*
X163649394Y-92034920D01*
X163574920Y-92109394D01*
X163522259Y-92200606D01*
X163495000Y-92302339D01*
X163495000Y-92308553D01*
X162815524Y-91629077D01*
X162815523Y-91629077D01*
X162783143Y-91673644D01*
X162690244Y-91855968D01*
X162627009Y-92050582D01*
X162595000Y-92252682D01*
X162595000Y-92457317D01*
X162627009Y-92659417D01*
X162690244Y-92854031D01*
X162783141Y-93036350D01*
X162783147Y-93036359D01*
X162815523Y-93080921D01*
X162815524Y-93080922D01*
X163495000Y-92401446D01*
X163495000Y-92407661D01*
X163522259Y-92509394D01*
X163574920Y-92600606D01*
X163649394Y-92675080D01*
X163740606Y-92727741D01*
X163842339Y-92755000D01*
X163848553Y-92755000D01*
X163177170Y-93426381D01*
X163115847Y-93459866D01*
X163089489Y-93462700D01*
X162455810Y-93462700D01*
X162388771Y-93443015D01*
X162343016Y-93390211D01*
X162341249Y-93386152D01*
X162327197Y-93352227D01*
X162327190Y-93352214D01*
X162239589Y-93221111D01*
X162239586Y-93221107D01*
X162128092Y-93109613D01*
X162128088Y-93109610D01*
X161996985Y-93022009D01*
X161996972Y-93022002D01*
X161851301Y-92961664D01*
X161851289Y-92961661D01*
X161696645Y-92930900D01*
X161696642Y-92930900D01*
X161538958Y-92930900D01*
X161538955Y-92930900D01*
X161384310Y-92961661D01*
X161384298Y-92961664D01*
X161238627Y-93022002D01*
X161238614Y-93022009D01*
X161107511Y-93109610D01*
X161107507Y-93109613D01*
X160996013Y-93221107D01*
X160996010Y-93221111D01*
X160908409Y-93352214D01*
X160908402Y-93352227D01*
X160848064Y-93497898D01*
X160848061Y-93497910D01*
X160817300Y-93652553D01*
X160817300Y-93810246D01*
X160848061Y-93964889D01*
X160848064Y-93964901D01*
X160908402Y-94110572D01*
X160908409Y-94110584D01*
X160936957Y-94153309D01*
X160957835Y-94219986D01*
X160939351Y-94287366D01*
X160887372Y-94334057D01*
X160833855Y-94346200D01*
X160471407Y-94346200D01*
X160404368Y-94326515D01*
X160358613Y-94273711D01*
X160348669Y-94204553D01*
X160360922Y-94165905D01*
X160383902Y-94120802D01*
X160456865Y-93896247D01*
X160493800Y-93663052D01*
X160493800Y-93426947D01*
X160456865Y-93193752D01*
X160383902Y-92969197D01*
X160276714Y-92758828D01*
X160216458Y-92675894D01*
X160216458Y-92675893D01*
X159476762Y-93415589D01*
X159459725Y-93352007D01*
X159393899Y-93237993D01*
X159300807Y-93144901D01*
X159186793Y-93079075D01*
X159123209Y-93062037D01*
X159862905Y-92322340D01*
X159862904Y-92322338D01*
X159779974Y-92262087D01*
X159569602Y-92154897D01*
X159345047Y-92081934D01*
X159345048Y-92081934D01*
X159111852Y-92045000D01*
X158875748Y-92045000D01*
X158642552Y-92081934D01*
X158417997Y-92154897D01*
X158207630Y-92262084D01*
X158124694Y-92322340D01*
X158864391Y-93062037D01*
X158800807Y-93079075D01*
X158686793Y-93144901D01*
X158593701Y-93237993D01*
X158527875Y-93352007D01*
X158510837Y-93415591D01*
X157771140Y-92675894D01*
X157710884Y-92758830D01*
X157603697Y-92969197D01*
X157530734Y-93193752D01*
X157493800Y-93426947D01*
X157493800Y-93663052D01*
X157530734Y-93896247D01*
X157603697Y-94120802D01*
X157626678Y-94165905D01*
X157639574Y-94234574D01*
X157613298Y-94299315D01*
X157556191Y-94339572D01*
X157516193Y-94346200D01*
X156119862Y-94346200D01*
X156052823Y-94326515D01*
X156032181Y-94309881D01*
X155530618Y-93808318D01*
X155497133Y-93746995D01*
X155494299Y-93720637D01*
X155494299Y-92744998D01*
X155494298Y-92744981D01*
X155483799Y-92642203D01*
X155483798Y-92642200D01*
X155455941Y-92558134D01*
X155428614Y-92475666D01*
X155336512Y-92326344D01*
X155212456Y-92202288D01*
X155084828Y-92123567D01*
X155063136Y-92110187D01*
X155063131Y-92110185D01*
X155003852Y-92090542D01*
X154896597Y-92055001D01*
X154896595Y-92055000D01*
X154793816Y-92044500D01*
X154793809Y-92044500D01*
X154196751Y-92044500D01*
X154129712Y-92024815D01*
X154083957Y-91972011D01*
X154074013Y-91902853D01*
X154103038Y-91839297D01*
X154109070Y-91832819D01*
X154312813Y-91629077D01*
X155465072Y-90476819D01*
X155526395Y-90443334D01*
X155552753Y-90440500D01*
X162489846Y-90440500D01*
X162556885Y-90460185D01*
G37*
%TD.AperFunction*%
%TD*%
M02*
