M48
; DRILL file KiCad 10.0.5 date 2026-08-03T01:54:26
; FORMAT={-:-/ absolute / metric / decimal}
; #@! TF.CreationDate,2026-08-03T01:54:26-07:00
; #@! TF.GenerationSoftware,Kicad,Pcbnew,10.0.5
; #@! TF.FileFunction,Plated,1,2,PTH
FMAT,2
METRIC
; #@! TA.AperFunction,Plated,PTH,ComponentDrill
T1C0.200
; #@! TA.AperFunction,Plated,PTH,ViaDrill
T2C0.300
; #@! TA.AperFunction,Plated,PTH,ViaDrill
T3C0.400
; #@! TA.AperFunction,Plated,PTH,ComponentDrill
T4C0.600
; #@! TA.AperFunction,Plated,PTH,ComponentDrill
T5C0.800
; #@! TA.AperFunction,Plated,PTH,ComponentDrill
T6C0.900
; #@! TA.AperFunction,Plated,PTH,ComponentDrill
T7C1.000
; #@! TA.AperFunction,Plated,PTH,ComponentDrill
T8C1.050
; #@! TA.AperFunction,Plated,PTH,ComponentDrill
T9C1.100
; #@! TA.AperFunction,Plated,PTH,ComponentDrill
T10C1.300
%
G90
G05
T1
X169.388Y-109.49
X169.388Y-110.89
X170.088Y-108.79
X170.088Y-110.19
X170.088Y-111.59
X170.788Y-109.49
X170.788Y-110.89
X171.488Y-108.79
X171.488Y-110.19
X171.488Y-111.59
X172.188Y-109.49
X172.188Y-110.89
T2
X163.881Y-137.055
X164.978Y-116.648
X165.057Y-119.59
X165.477Y-110.042
X175.379Y-133.787
X175.98Y-118.634
X176.164Y-133.334
X178.389Y-107.83
X178.842Y-118.815
X179.01Y-139.164
X183.585Y-130.133
X184.018Y-151.557
X184.753Y-128.983
X184.841Y-135.15
X186.07Y-141.18
X186.586Y-130.258
X188.741Y-137.303
X193.068Y-108.773
X199.25Y-104.42
T3
X155.788Y-82.75
X155.788Y-86.25
X155.788Y-89.75
X155.788Y-93.25
X155.788Y-96.75
X155.788Y-100.25
X155.788Y-103.75
X155.788Y-107.25
X155.788Y-110.75
X155.788Y-114.25
X155.788Y-117.75
X155.788Y-121.25
X155.788Y-124.75
X155.788Y-128.25
X155.788Y-131.75
X155.788Y-138.75
X155.788Y-149.25
X155.788Y-152.75
X155.788Y-156.25
X155.788Y-159.75
X159.288Y-82.75
X159.288Y-86.25
X159.288Y-89.75
X159.288Y-93.25
X159.288Y-96.75
X159.288Y-100.25
X159.288Y-103.75
X159.288Y-107.25
X159.288Y-110.75
X159.288Y-114.25
X159.288Y-117.75
X159.288Y-121.25
X159.288Y-124.75
X159.288Y-128.25
X159.288Y-131.75
X159.288Y-138.75
X159.288Y-149.25
X159.288Y-152.75
X159.288Y-156.25
X159.288Y-159.75
X161.388Y-102.47
X162.788Y-82.75
X162.788Y-86.25
X162.788Y-89.75
X162.788Y-93.25
X162.788Y-121.25
X162.788Y-124.75
X162.788Y-128.25
X162.788Y-131.75
X162.788Y-138.75
X162.788Y-149.25
X162.788Y-152.75
X162.788Y-156.25
X162.788Y-159.75
X163.357Y-134.453
X166.288Y-82.75
X166.288Y-86.25
X166.288Y-89.75
X166.288Y-93.25
X166.288Y-103.75
X166.288Y-107.25
X166.288Y-110.75
X166.288Y-114.25
X166.288Y-117.75
X166.288Y-124.75
X166.288Y-128.25
X166.288Y-131.75
X166.288Y-135.25
X166.288Y-138.75
X166.288Y-142.25
X166.288Y-149.25
X166.288Y-152.75
X166.288Y-156.25
X166.288Y-159.75
X167.189Y-163.4
X168.693Y-147.435
X169.788Y-82.75
X169.788Y-86.25
X169.788Y-89.75
X169.788Y-93.25
X169.788Y-103.75
X169.788Y-107.25
X169.788Y-114.25
X169.788Y-117.75
X169.788Y-124.75
X169.788Y-128.25
X169.788Y-131.75
X169.788Y-135.25
X169.788Y-149.25
X169.788Y-152.75
X169.788Y-156.25
X169.788Y-159.75
X169.788Y-163.25
X170.812Y-138.56
X170.824Y-140.368
X173.288Y-82.75
X173.288Y-86.25
X173.288Y-89.75
X173.288Y-93.25
X173.288Y-103.75
X173.288Y-107.25
X173.288Y-110.75
X173.288Y-114.25
X173.288Y-117.75
X173.288Y-124.75
X173.288Y-128.25
X173.288Y-131.75
X173.288Y-135.25
X173.288Y-156.25
X173.288Y-159.75
X173.288Y-163.25
X174.548Y-146.901
X175.573Y-142.645
X176.788Y-82.75
X176.788Y-86.25
X176.788Y-89.75
X176.788Y-93.25
X176.788Y-103.75
X176.788Y-107.25
X176.788Y-110.75
X176.788Y-114.25
X176.788Y-117.75
X176.788Y-124.75
X176.788Y-128.25
X176.788Y-131.75
X176.788Y-135.25
X176.788Y-152.75
X176.788Y-156.25
X176.788Y-159.75
X176.788Y-163.25
X180.288Y-82.75
X180.288Y-86.25
X180.288Y-89.75
X180.288Y-93.25
X180.288Y-121.25
X180.288Y-124.75
X180.288Y-128.25
X180.288Y-131.75
X180.288Y-135.25
X180.288Y-138.75
X180.288Y-142.25
X180.288Y-152.75
X180.288Y-156.25
X180.288Y-159.75
X180.288Y-163.25
X183.188Y-102.47
X183.788Y-82.75
X183.788Y-86.25
X183.788Y-89.75
X183.788Y-93.25
X183.788Y-96.75
X183.788Y-100.25
X183.788Y-103.75
X183.788Y-107.25
X183.788Y-110.75
X183.788Y-114.25
X183.788Y-117.75
X183.788Y-121.25
X183.788Y-124.75
X183.788Y-128.25
X183.788Y-131.75
X183.788Y-135.25
X183.788Y-149.25
X183.788Y-152.75
X183.788Y-156.25
X183.788Y-159.75
X183.788Y-163.25
X187.288Y-82.75
X187.288Y-86.25
X187.288Y-89.75
X187.288Y-93.25
X187.288Y-96.75
X187.288Y-100.25
X187.288Y-103.75
X187.288Y-107.25
X187.288Y-110.75
X187.288Y-114.25
X187.288Y-117.75
X187.288Y-121.25
X187.288Y-124.75
X187.288Y-128.25
X187.288Y-131.75
X187.288Y-142.25
X187.288Y-149.25
X187.288Y-152.75
X187.288Y-156.25
X187.288Y-159.75
X187.288Y-163.25
X190.788Y-82.75
X190.788Y-86.25
X190.788Y-93.25
X190.788Y-103.75
X190.788Y-114.25
X190.788Y-121.25
X190.788Y-135.25
X190.788Y-142.25
X190.788Y-149.25
X190.788Y-152.75
X190.788Y-156.25
X190.788Y-159.75
X192.523Y-146.875
X194.288Y-82.75
X194.288Y-86.25
X194.288Y-93.25
X194.288Y-103.75
X194.288Y-114.25
X194.288Y-121.25
X194.288Y-128.25
X194.288Y-131.75
X194.288Y-135.25
X194.288Y-142.25
X194.288Y-149.25
X194.288Y-152.75
X194.288Y-156.25
X194.288Y-159.75
X194.288Y-163.25
X194.393Y-105.355
X194.982Y-126.125
X195.09Y-120.278
X195.373Y-115.32
X195.502Y-102.704
X195.502Y-104.661
X195.51Y-113.758
X197.788Y-86.25
X197.788Y-93.25
X197.788Y-131.75
X197.788Y-135.25
X197.788Y-152.75
X197.788Y-156.25
X197.788Y-159.75
X198.733Y-89.795
X198.733Y-96.295
X199.933Y-121.19
X201.288Y-82.75
X201.288Y-86.25
X201.288Y-89.75
X201.288Y-93.25
X201.288Y-96.75
X201.288Y-100.25
X201.288Y-103.75
X201.288Y-107.25
X201.288Y-110.75
X201.288Y-114.25
X201.288Y-117.75
X201.288Y-121.25
X201.288Y-124.75
X201.288Y-128.25
X201.288Y-131.75
X201.288Y-135.25
X201.288Y-138.75
X201.288Y-142.25
X201.288Y-145.75
X201.288Y-149.25
X201.288Y-152.75
X201.288Y-156.25
X201.288Y-159.75
T4
X120.485Y-133.345
X121.785Y-128.345
T5
X191.853Y-99.935
X191.853Y-107.555
X191.853Y-110.755
X191.853Y-118.375
X192.482Y-123.925
X194.393Y-99.935
X194.393Y-107.555
X194.393Y-110.755
X194.393Y-118.375
X194.982Y-123.925
T6
X186.593Y-144.575
X189.133Y-144.575
X192.523Y-144.575
X195.063Y-144.575
T7
X131.743Y-128.685
X131.743Y-140.685
X131.743Y-145.675
X131.743Y-157.675
X132.243Y-92.405
X137.243Y-121.485
X142.243Y-121.485
X147.243Y-92.405
X158.082Y-141.045
X163.082Y-141.045
X168.693Y-137.565
X168.693Y-140.105
X168.693Y-142.645
X168.693Y-145.185
X173.323Y-137.565
X173.323Y-140.105
X173.323Y-142.645
X177.953Y-137.565
X177.953Y-140.105
X177.953Y-142.645
X182.583Y-137.565
X182.583Y-140.105
X182.583Y-142.645
T8
X109.195Y-128.345
X109.195Y-133.345
X109.195Y-143.345
X109.195Y-148.345
T9
X191.833Y-89.795
X191.833Y-96.295
X191.933Y-129.765
X191.933Y-139.925
X196.223Y-129.765
X196.223Y-139.925
X196.333Y-89.795
X196.333Y-96.295
T10
X109.295Y-97.005
X109.295Y-114.905
X114.295Y-97.005
X114.295Y-114.905
X119.295Y-97.005
X119.295Y-114.905
X129.793Y-134.635
X129.793Y-151.625
X143.943Y-140.685
X143.943Y-157.675
X143.993Y-128.635
X143.993Y-145.625
M30
