%TF.GenerationSoftware,KiCad,Pcbnew,10.0.5*%
%TF.CreationDate,2026-07-29T02:28:27-07:00*%
%TF.ProjectId,cv-fan,63762d66-616e-42e6-9b69-6361645f7063,rev?*%
%TF.SameCoordinates,Original*%
%TF.FileFunction,Paste,Top*%
%TF.FilePolarity,Positive*%
%FSLAX46Y46*%
G04 Gerber Fmt 4.6, Leading zero omitted, Abs format (unit mm)*
G04 Created by KiCad (PCBNEW 10.0.5) date 2026-07-29 02:28:27*
%MOMM*%
%LPD*%
G01*
G04 APERTURE LIST*
G04 Aperture macros list*
%AMRoundRect*
0 Rectangle with rounded corners*
0 $1 Rounding radius*
0 $2 $3 $4 $5 $6 $7 $8 $9 X,Y pos of 4 corners*
0 Add a 4 corners polygon primitive as box body*
4,1,4,$2,$3,$4,$5,$6,$7,$8,$9,$2,$3,0*
0 Add four circle primitives for the rounded corners*
1,1,$1+$1,$2,$3*
1,1,$1+$1,$4,$5*
1,1,$1+$1,$6,$7*
1,1,$1+$1,$8,$9*
0 Add four rect primitives between the rounded corners*
20,1,$1+$1,$2,$3,$4,$5,0*
20,1,$1+$1,$4,$5,$6,$7,0*
20,1,$1+$1,$6,$7,$8,$9,0*
20,1,$1+$1,$8,$9,$2,$3,0*%
G04 Aperture macros list end*
%ADD10RoundRect,0.375000X0.375000X-0.625000X0.375000X0.625000X-0.375000X0.625000X-0.375000X-0.625000X0*%
%ADD11RoundRect,0.500000X1.400000X-0.500000X1.400000X0.500000X-1.400000X0.500000X-1.400000X-0.500000X0*%
%ADD12RoundRect,0.150000X-0.825000X-0.150000X0.825000X-0.150000X0.825000X0.150000X-0.825000X0.150000X0*%
%ADD13R,1.500000X0.900000*%
%ADD14R,0.900000X1.500000*%
%ADD15R,0.900000X0.900000*%
G04 APERTURE END LIST*
D10*
%TO.C,U2*%
X166421000Y-113425000D03*
X168721000Y-113425000D03*
D11*
X168721000Y-107125000D03*
D10*
X171021000Y-113425000D03*
%TD*%
D12*
%TO.C,U3*%
X142526000Y-144470000D03*
X142526000Y-145740000D03*
X142526000Y-147010000D03*
X142526000Y-148280000D03*
X147476000Y-148280000D03*
X147476000Y-147010000D03*
X147476000Y-145740000D03*
X147476000Y-144470000D03*
%TD*%
D13*
%TO.C,U1*%
X159506000Y-131690000D03*
X159506000Y-132960000D03*
X159506000Y-134230000D03*
X159506000Y-135500000D03*
X159506000Y-136770000D03*
X159506000Y-138040000D03*
X159506000Y-139310000D03*
X159506000Y-140580000D03*
X159506000Y-141850000D03*
X159506000Y-143120000D03*
X159506000Y-144390000D03*
X159506000Y-145660000D03*
X159506000Y-146930000D03*
X159506000Y-148200000D03*
D14*
X162541000Y-149450000D03*
X163811000Y-149450000D03*
X165081000Y-149450000D03*
X166351000Y-149450000D03*
X167621000Y-149450000D03*
X168891000Y-149450000D03*
X170161000Y-149450000D03*
X171431000Y-149450000D03*
X172701000Y-149450000D03*
X173971000Y-149450000D03*
D13*
X177006000Y-148200000D03*
X177006000Y-146930000D03*
X177006000Y-145660000D03*
X177006000Y-144390000D03*
X177006000Y-143120000D03*
X177006000Y-141850000D03*
X177006000Y-140580000D03*
X177006000Y-139310000D03*
X177006000Y-138040000D03*
X177006000Y-136770000D03*
X177006000Y-135500000D03*
X177006000Y-134230000D03*
X177006000Y-132960000D03*
X177006000Y-131690000D03*
D15*
X165356000Y-138010000D03*
X165356000Y-139410000D03*
X165356000Y-140810000D03*
X166756000Y-138010000D03*
X166756000Y-139410000D03*
X166756000Y-140810000D03*
X168156000Y-138010000D03*
X168156000Y-139410000D03*
X168156000Y-140810000D03*
%TD*%
M02*
