M48
; DRILL file KiCad 10.0.5 date 2026-07-29T02:28:27
; FORMAT={-:-/ absolute / metric / decimal}
; #@! TF.CreationDate,2026-07-29T02:28:27-07:00
; #@! TF.GenerationSoftware,Kicad,Pcbnew,10.0.5
; #@! TF.FileFunction,Plated,1,2,PTH
FMAT,2
METRIC
; #@! TA.AperFunction,Plated,PTH,ComponentDrill
T1C0.200
; #@! TA.AperFunction,Plated,PTH,ViaDrill
T2C0.300
; #@! TA.AperFunction,Plated,PTH,ViaDrill
T3C0.400
; #@! TA.AperFunction,Plated,PTH,ComponentDrill
T4C0.600
; #@! TA.AperFunction,Plated,PTH,ComponentDrill
T5C0.800
; #@! TA.AperFunction,Plated,PTH,ComponentDrill
T6C0.900
; #@! TA.AperFunction,Plated,PTH,ComponentDrill
T7C1.000
; #@! TA.AperFunction,Plated,PTH,ComponentDrill
T8C1.050
; #@! TA.AperFunction,Plated,PTH,ComponentDrill
T9C1.100
; #@! TA.AperFunction,Plated,PTH,ComponentDrill
T10C1.300
%
G90
G05
T1
X165.356Y-138.71
X165.356Y-140.11
X166.056Y-138.01
X166.056Y-139.41
X166.056Y-140.81
X166.756Y-138.71
X166.756Y-140.11
X167.456Y-138.01
X167.456Y-139.41
X167.456Y-140.81
X168.156Y-138.71
X168.156Y-140.11
T2
X142.277Y-123.467
X152.515Y-130.947
X152.849Y-101.892
X156.905Y-133.946
X157.237Y-135.276
X163.875Y-134.821
X172.503Y-105.899
X179.358Y-103.413
X179.444Y-129.421
X183.842Y-108.618
T3
X142.869Y-149.865
X151.756Y-82.75
X151.756Y-86.25
X151.756Y-93.25
X151.756Y-107.25
X151.756Y-110.75
X151.756Y-114.25
X151.756Y-117.75
X151.756Y-121.25
X151.756Y-124.75
X151.756Y-128.25
X151.756Y-131.75
X151.756Y-135.25
X151.756Y-138.75
X151.756Y-142.25
X151.756Y-145.75
X151.756Y-149.25
X151.756Y-152.75
X151.756Y-156.25
X151.756Y-159.75
X151.756Y-163.25
X151.756Y-166.75
X152.051Y-91.4
X155.256Y-82.75
X155.256Y-86.25
X155.256Y-107.25
X155.256Y-110.75
X155.256Y-114.25
X155.256Y-117.75
X155.256Y-121.25
X155.256Y-124.75
X155.256Y-128.25
X155.256Y-131.75
X155.256Y-135.25
X155.256Y-138.75
X155.256Y-142.25
X155.256Y-145.75
X155.256Y-149.25
X155.256Y-152.75
X155.256Y-156.25
X155.256Y-159.75
X155.256Y-163.25
X155.256Y-166.75
X155.95Y-105.795
X156.541Y-91.4
X157.356Y-131.69
X158.756Y-82.75
X158.756Y-86.25
X158.756Y-110.75
X158.756Y-114.25
X158.756Y-117.75
X158.756Y-121.25
X158.756Y-152.75
X158.756Y-156.25
X158.756Y-159.75
X158.756Y-163.25
X158.756Y-166.75
X161.031Y-91.4
X161.191Y-92.115
X162.001Y-94.005
X162.256Y-82.75
X162.256Y-86.25
X162.256Y-93.25
X162.256Y-103.75
X162.256Y-110.75
X162.256Y-114.25
X162.256Y-117.75
X162.256Y-121.25
X162.256Y-135.25
X162.256Y-138.75
X162.256Y-142.25
X162.256Y-145.75
X162.256Y-152.75
X162.256Y-156.25
X162.256Y-159.75
X162.256Y-163.25
X162.256Y-166.75
X162.541Y-151.6
X163.157Y-170.2
X164.521Y-113.425
X165.521Y-87.15
X165.756Y-82.75
X165.756Y-86.25
X165.756Y-100.25
X165.756Y-110.75
X165.756Y-117.75
X165.756Y-121.25
X165.756Y-135.25
X165.756Y-142.25
X165.756Y-145.75
X165.756Y-152.75
X165.756Y-156.25
X165.756Y-159.75
X165.756Y-163.25
X165.756Y-166.75
X165.756Y-170.25
X168.641Y-100.885
X169.256Y-82.75
X169.256Y-86.25
X169.256Y-100.25
X169.256Y-117.75
X169.256Y-121.25
X169.256Y-135.25
X169.256Y-138.75
X169.256Y-142.25
X169.256Y-145.75
X169.256Y-152.75
X169.256Y-156.25
X169.256Y-159.75
X169.256Y-163.25
X169.256Y-166.75
X169.256Y-170.25
X170.011Y-91.4
X172.756Y-82.75
X172.756Y-86.25
X172.756Y-100.25
X172.756Y-107.25
X172.756Y-110.75
X172.756Y-117.75
X172.756Y-121.25
X172.756Y-135.25
X172.756Y-138.75
X172.756Y-142.25
X172.756Y-145.75
X172.756Y-152.75
X172.756Y-156.25
X172.756Y-159.75
X172.756Y-163.25
X172.756Y-166.75
X172.756Y-170.25
X176.256Y-82.75
X176.256Y-86.25
X176.256Y-107.25
X176.256Y-110.75
X176.256Y-117.75
X176.256Y-121.25
X176.256Y-152.75
X176.256Y-156.25
X176.256Y-159.75
X176.256Y-163.25
X176.256Y-166.75
X176.256Y-170.25
X178.241Y-100.945
X178.511Y-130.185
X178.881Y-94.295
X179.756Y-82.75
X179.756Y-86.25
X179.756Y-93.25
X179.756Y-96.75
X179.756Y-100.25
X179.756Y-114.25
X179.756Y-117.75
X179.756Y-121.25
X179.756Y-124.75
X179.756Y-128.25
X179.756Y-131.75
X179.756Y-135.25
X179.756Y-138.75
X179.756Y-142.25
X179.756Y-145.75
X179.756Y-149.25
X179.756Y-152.75
X179.756Y-156.25
X179.756Y-159.75
X179.756Y-163.25
X179.756Y-166.75
X179.756Y-170.25
X183.256Y-82.75
X183.256Y-86.25
X183.256Y-107.25
X183.256Y-110.75
X183.256Y-114.25
X183.256Y-117.75
X183.256Y-121.25
X183.256Y-124.75
X183.256Y-128.25
X183.256Y-131.75
X183.256Y-135.25
X183.256Y-138.75
X183.256Y-142.25
X183.256Y-145.75
X183.256Y-149.25
X183.256Y-152.75
X183.256Y-156.25
X183.256Y-159.75
X183.256Y-163.25
X183.256Y-166.75
X185.381Y-94.295
X186.756Y-82.75
X186.756Y-86.25
X186.756Y-89.75
X186.756Y-93.25
X186.756Y-96.75
X186.756Y-100.25
X186.756Y-103.75
X186.756Y-107.25
X186.756Y-110.75
X186.756Y-114.25
X186.756Y-117.75
X186.756Y-121.25
X186.756Y-124.75
X186.756Y-128.25
X186.756Y-131.75
X186.756Y-135.25
X186.756Y-138.75
X186.756Y-142.25
X186.756Y-145.75
X186.756Y-149.25
X186.756Y-152.75
X186.756Y-156.25
X186.756Y-159.75
X186.756Y-163.25
X186.756Y-166.75
T4
X107.545Y-122.185
X112.545Y-123.485
T5
X153.45Y-103.595
X155.95Y-103.595
X176.041Y-98.405
X176.041Y-100.945
X183.661Y-98.405
X183.661Y-100.945
T6
X160.341Y-108.085
X162.881Y-108.085
T7
X127.711Y-128.685
X127.711Y-140.685
X128.211Y-92.405
X133.211Y-121.485
X138.211Y-121.485
X143.211Y-92.405
X166.14Y-93.545
X171.14Y-93.545
X181.041Y-105.335
X181.041Y-107.875
X181.041Y-110.415
T8
X109.195Y-92.545
X109.195Y-97.545
X109.195Y-107.545
X109.195Y-112.545
T9
X166.101Y-103.285
X168.641Y-103.285
X171.181Y-103.285
X176.481Y-89.795
X176.481Y-94.295
X176.581Y-104.915
X176.581Y-115.075
X182.981Y-89.795
X182.981Y-94.295
T10
X125.761Y-134.635
X127.211Y-149.385
X127.211Y-161.285
X132.211Y-149.385
X132.211Y-161.285
X137.211Y-149.385
X137.211Y-161.285
X139.911Y-140.685
X139.961Y-128.635
X154.301Y-94.005
X159.301Y-94.005
M30
