%TF.GenerationSoftware,KiCad,Pcbnew,10.0.5*%
%TF.CreationDate,2026-07-29T13:10:23-07:00*%
%TF.ProjectId,cv-fan,63762d66-616e-42e6-9b69-6361645f7063,rev?*%
%TF.SameCoordinates,Original*%
%TF.FileFunction,Legend,Bot*%
%TF.FilePolarity,Positive*%
%FSLAX46Y46*%
G04 Gerber Fmt 4.6, Leading zero omitted, Abs format (unit mm)*
G04 Created by KiCad (PCBNEW 10.0.5) date 2026-07-29 13:10:23*
%MOMM*%
%LPD*%
G01*
G04 APERTURE LIST*
%ADD10C,0.150000*%
%ADD11C,0.120000*%
G04 APERTURE END LIST*
D10*
X157863142Y-127807200D02*
X157720285Y-127854819D01*
X157720285Y-127854819D02*
X157482190Y-127854819D01*
X157482190Y-127854819D02*
X157386952Y-127807200D01*
X157386952Y-127807200D02*
X157339333Y-127759580D01*
X157339333Y-127759580D02*
X157291714Y-127664342D01*
X157291714Y-127664342D02*
X157291714Y-127569104D01*
X157291714Y-127569104D02*
X157339333Y-127473866D01*
X157339333Y-127473866D02*
X157386952Y-127426247D01*
X157386952Y-127426247D02*
X157482190Y-127378628D01*
X157482190Y-127378628D02*
X157672666Y-127331009D01*
X157672666Y-127331009D02*
X157767904Y-127283390D01*
X157767904Y-127283390D02*
X157815523Y-127235771D01*
X157815523Y-127235771D02*
X157863142Y-127140533D01*
X157863142Y-127140533D02*
X157863142Y-127045295D01*
X157863142Y-127045295D02*
X157815523Y-126950057D01*
X157815523Y-126950057D02*
X157767904Y-126902438D01*
X157767904Y-126902438D02*
X157672666Y-126854819D01*
X157672666Y-126854819D02*
X157434571Y-126854819D01*
X157434571Y-126854819D02*
X157291714Y-126902438D01*
X156863142Y-127854819D02*
X156863142Y-126854819D01*
X156863142Y-126854819D02*
X156291714Y-127854819D01*
X156291714Y-127854819D02*
X156291714Y-126854819D01*
X155101238Y-126807200D02*
X155958380Y-128092914D01*
X154101238Y-127950057D02*
X154196476Y-127902438D01*
X154196476Y-127902438D02*
X154291714Y-127807200D01*
X154291714Y-127807200D02*
X154434571Y-127664342D01*
X154434571Y-127664342D02*
X154529809Y-127616723D01*
X154529809Y-127616723D02*
X154625047Y-127616723D01*
X154577428Y-127854819D02*
X154672666Y-127807200D01*
X154672666Y-127807200D02*
X154767904Y-127711961D01*
X154767904Y-127711961D02*
X154815523Y-127521485D01*
X154815523Y-127521485D02*
X154815523Y-127188152D01*
X154815523Y-127188152D02*
X154767904Y-126997676D01*
X154767904Y-126997676D02*
X154672666Y-126902438D01*
X154672666Y-126902438D02*
X154577428Y-126854819D01*
X154577428Y-126854819D02*
X154386952Y-126854819D01*
X154386952Y-126854819D02*
X154291714Y-126902438D01*
X154291714Y-126902438D02*
X154196476Y-126997676D01*
X154196476Y-126997676D02*
X154148857Y-127188152D01*
X154148857Y-127188152D02*
X154148857Y-127521485D01*
X154148857Y-127521485D02*
X154196476Y-127711961D01*
X154196476Y-127711961D02*
X154291714Y-127807200D01*
X154291714Y-127807200D02*
X154386952Y-127854819D01*
X154386952Y-127854819D02*
X154577428Y-127854819D01*
X153148857Y-127854819D02*
X153482190Y-127378628D01*
X153720285Y-127854819D02*
X153720285Y-126854819D01*
X153720285Y-126854819D02*
X153339333Y-126854819D01*
X153339333Y-126854819D02*
X153244095Y-126902438D01*
X153244095Y-126902438D02*
X153196476Y-126950057D01*
X153196476Y-126950057D02*
X153148857Y-127045295D01*
X153148857Y-127045295D02*
X153148857Y-127188152D01*
X153148857Y-127188152D02*
X153196476Y-127283390D01*
X153196476Y-127283390D02*
X153244095Y-127331009D01*
X153244095Y-127331009D02*
X153339333Y-127378628D01*
X153339333Y-127378628D02*
X153720285Y-127378628D01*
%TO.C,C3*%
D11*
X157752252Y-136040000D02*
X157229748Y-136040000D01*
X157752252Y-137510000D02*
X157229748Y-137510000D01*
%TO.C,R2*%
X171261000Y-144997064D02*
X171261000Y-144542936D01*
X172731000Y-144997064D02*
X172731000Y-144542936D01*
%TO.C,Cf*%
X153262252Y-136040000D02*
X152739748Y-136040000D01*
X153262252Y-137510000D02*
X152739748Y-137510000D01*
%TO.C,R6*%
X157658064Y-147055000D02*
X157203936Y-147055000D01*
X157658064Y-148525000D02*
X157203936Y-148525000D01*
%TO.C,R7*%
X162108064Y-147795000D02*
X161653936Y-147795000D01*
X162108064Y-149265000D02*
X161653936Y-149265000D01*
%TO.C,C5*%
X166732252Y-136040000D02*
X166209748Y-136040000D01*
X166732252Y-137510000D02*
X166209748Y-137510000D01*
%TO.C,C4*%
X162242252Y-136040000D02*
X161719748Y-136040000D01*
X162242252Y-137510000D02*
X161719748Y-137510000D01*
%TO.C,R1*%
X168503064Y-143305000D02*
X168048936Y-143305000D01*
X168503064Y-144775000D02*
X168048936Y-144775000D01*
%TO.C,R3*%
X153208064Y-144065000D02*
X152753936Y-144065000D01*
X153208064Y-145535000D02*
X152753936Y-145535000D01*
%TO.C,R9*%
X159703064Y-150785000D02*
X159248936Y-150785000D01*
X159703064Y-152255000D02*
X159248936Y-152255000D01*
%TO.C,R8*%
X183151000Y-152207064D02*
X183151000Y-151752936D01*
X184621000Y-152207064D02*
X184621000Y-151752936D01*
%TO.C,Q1*%
X162816000Y-143230000D02*
X162816000Y-144230000D01*
X162816000Y-145350000D02*
X162816000Y-146350000D01*
X162816000Y-146350000D02*
X164336000Y-146350000D01*
X164336000Y-143230000D02*
X162816000Y-143230000D01*
X164336000Y-143280000D02*
X164336000Y-143230000D01*
X164336000Y-145180000D02*
X164336000Y-144400000D01*
X164336000Y-146350000D02*
X164336000Y-146300000D01*
X164876000Y-144410000D02*
X164636000Y-144740000D01*
X165116000Y-144740000D01*
X164876000Y-144410000D01*
G36*
X165116000Y-144740000D02*
G01*
X164636000Y-144740000D01*
X164876000Y-144410000D01*
X165116000Y-144740000D01*
G37*
%TO.C,R4*%
X157658064Y-144065000D02*
X157203936Y-144065000D01*
X157658064Y-145535000D02*
X157203936Y-145535000D01*
%TO.C,R10*%
X166733064Y-153045000D02*
X166278936Y-153045000D01*
X166733064Y-154515000D02*
X166278936Y-154515000D01*
%TO.C,R5*%
X153208064Y-147055000D02*
X152753936Y-147055000D01*
X153208064Y-148525000D02*
X152753936Y-148525000D01*
%TO.C,C6*%
X171222252Y-136040000D02*
X170699748Y-136040000D01*
X171222252Y-137510000D02*
X170699748Y-137510000D01*
%TD*%
M02*
