M48
; DRILL file KiCad 10.0.5 date 2026-07-29T13:10:24
; FORMAT={-:-/ absolute / metric / decimal}
; #@! TF.CreationDate,2026-07-29T13:10:24-07:00
; #@! TF.GenerationSoftware,Kicad,Pcbnew,10.0.5
; #@! TF.FileFunction,Plated,1,2,PTH
FMAT,2
METRIC
; #@! TA.AperFunction,Plated,PTH,ComponentDrill
T1C0.200
; #@! TA.AperFunction,Plated,PTH,ViaDrill
T2C0.300
; #@! TA.AperFunction,Plated,PTH,ViaDrill
T3C0.400
; #@! TA.AperFunction,Plated,PTH,ComponentDrill
T4C0.600
; #@! TA.AperFunction,Plated,PTH,ComponentDrill
T5C0.800
; #@! TA.AperFunction,Plated,PTH,ComponentDrill
T6C0.900
; #@! TA.AperFunction,Plated,PTH,ComponentDrill
T7C1.000
; #@! TA.AperFunction,Plated,PTH,ComponentDrill
T8C1.050
; #@! TA.AperFunction,Plated,PTH,ComponentDrill
T9C1.100
; #@! TA.AperFunction,Plated,PTH,ComponentDrill
T10C1.300
%
G90
G05
T1
X165.356Y-109.49
X165.356Y-110.89
X166.056Y-108.79
X166.056Y-110.19
X166.056Y-111.59
X166.756Y-109.49
X166.756Y-110.89
X167.456Y-108.79
X167.456Y-110.19
X167.456Y-111.59
X168.156Y-109.49
X168.156Y-110.89
T2
X151.873Y-134.579
X158.178Y-115.026
X166.141Y-144.155
X166.576Y-122.906
X170.288Y-143.951
X170.359Y-146.147
T3
X142.869Y-149.865
X150.254Y-143.603
X151.756Y-82.75
X151.756Y-86.25
X151.756Y-89.75
X151.756Y-93.25
X151.756Y-96.75
X151.756Y-100.25
X151.756Y-103.75
X151.756Y-107.25
X151.756Y-110.75
X151.756Y-114.25
X151.756Y-117.75
X151.756Y-121.25
X151.756Y-124.75
X151.756Y-128.25
X151.756Y-131.75
X151.756Y-138.75
X151.756Y-142.25
X151.756Y-152.75
X151.756Y-156.25
X151.756Y-159.75
X151.756Y-163.25
X151.756Y-166.75
X155.256Y-82.75
X155.256Y-86.25
X155.256Y-89.75
X155.256Y-93.25
X155.256Y-96.75
X155.256Y-100.25
X155.256Y-103.75
X155.256Y-107.25
X155.256Y-110.75
X155.256Y-114.25
X155.256Y-117.75
X155.256Y-121.25
X155.256Y-124.75
X155.256Y-128.25
X155.256Y-131.75
X155.256Y-138.75
X155.256Y-156.25
X155.256Y-159.75
X155.256Y-163.25
X155.256Y-166.75
X155.95Y-153.295
X157.356Y-102.47
X158.756Y-82.75
X158.756Y-86.25
X158.756Y-89.75
X158.756Y-93.25
X158.756Y-121.25
X158.756Y-124.75
X158.756Y-128.25
X158.756Y-131.75
X158.756Y-138.75
X158.756Y-159.75
X158.756Y-163.25
X158.756Y-166.75
X160.65Y-134.693
X161.191Y-139.615
X162.001Y-141.505
X162.256Y-82.75
X162.256Y-86.25
X162.256Y-89.75
X162.256Y-93.25
X162.256Y-103.75
X162.256Y-107.25
X162.256Y-110.75
X162.256Y-114.25
X162.256Y-117.75
X162.256Y-124.75
X162.256Y-128.25
X162.256Y-131.75
X162.256Y-138.75
X162.256Y-142.25
X162.256Y-152.75
X162.256Y-159.75
X162.256Y-163.25
X162.256Y-166.75
X163.157Y-170.2
X164.514Y-147.378
X165.756Y-82.75
X165.756Y-86.25
X165.756Y-89.75
X165.756Y-93.25
X165.756Y-103.75
X165.756Y-107.25
X165.756Y-114.25
X165.756Y-117.75
X165.756Y-124.75
X165.756Y-128.25
X165.756Y-131.75
X165.756Y-138.75
X165.756Y-156.25
X165.756Y-163.25
X165.756Y-166.75
X165.756Y-170.25
X168.641Y-148.385
X169.256Y-82.75
X169.256Y-86.25
X169.256Y-89.75
X169.256Y-93.25
X169.256Y-103.75
X169.256Y-107.25
X169.256Y-110.75
X169.256Y-114.25
X169.256Y-117.75
X169.256Y-124.75
X169.256Y-128.25
X169.256Y-131.75
X169.256Y-138.75
X169.256Y-163.25
X169.256Y-166.75
X169.256Y-170.25
X172.756Y-82.75
X172.756Y-86.25
X172.756Y-89.75
X172.756Y-93.25
X172.756Y-103.75
X172.756Y-107.25
X172.756Y-110.75
X172.756Y-114.25
X172.756Y-117.75
X172.756Y-124.75
X172.756Y-128.25
X172.756Y-131.75
X172.756Y-138.75
X172.756Y-152.75
X172.756Y-156.25
X172.756Y-163.25
X172.756Y-166.75
X172.756Y-170.25
X173.54Y-141.045
X176.256Y-82.75
X176.256Y-86.25
X176.256Y-89.75
X176.256Y-93.25
X176.256Y-121.25
X176.256Y-124.75
X176.256Y-128.25
X176.256Y-131.75
X176.256Y-156.25
X176.256Y-159.75
X176.256Y-166.75
X176.256Y-170.25
X178.241Y-148.445
X178.881Y-141.795
X179.156Y-102.47
X179.756Y-82.75
X179.756Y-86.25
X179.756Y-89.75
X179.756Y-93.25
X179.756Y-96.75
X179.756Y-100.25
X179.756Y-103.75
X179.756Y-107.25
X179.756Y-110.75
X179.756Y-114.25
X179.756Y-117.75
X179.756Y-121.25
X179.756Y-124.75
X179.756Y-128.25
X179.756Y-131.75
X179.756Y-135.25
X179.756Y-138.75
X179.756Y-142.25
X179.756Y-145.75
X179.756Y-149.25
X179.756Y-159.75
X179.756Y-163.25
X179.756Y-166.75
X179.756Y-170.25
X183.256Y-82.75
X183.256Y-86.25
X183.256Y-89.75
X183.256Y-93.25
X183.256Y-96.75
X183.256Y-100.25
X183.256Y-103.75
X183.256Y-107.25
X183.256Y-110.75
X183.256Y-114.25
X183.256Y-117.75
X183.256Y-121.25
X183.256Y-124.75
X183.256Y-128.25
X183.256Y-131.75
X183.256Y-156.25
X183.256Y-159.75
X183.256Y-163.25
X183.256Y-166.75
X185.381Y-141.795
X186.756Y-82.75
X186.756Y-86.25
X186.756Y-89.75
X186.756Y-93.25
X186.756Y-96.75
X186.756Y-100.25
X186.756Y-103.75
X186.756Y-107.25
X186.756Y-110.75
X186.756Y-114.25
X186.756Y-117.75
X186.756Y-121.25
X186.756Y-124.75
X186.756Y-128.25
X186.756Y-131.75
X186.756Y-135.25
X186.756Y-138.75
X186.756Y-142.25
X186.756Y-145.75
X186.756Y-149.25
X186.756Y-152.75
X186.756Y-156.25
X186.756Y-159.75
X186.756Y-163.25
X186.756Y-166.75
T4
X107.545Y-122.185
X112.545Y-123.485
T5
X153.45Y-151.095
X155.95Y-151.095
X176.041Y-145.905
X176.041Y-148.445
X183.661Y-145.905
X183.661Y-148.445
T6
X160.341Y-155.585
X162.881Y-155.585
T7
X127.711Y-128.685
X127.711Y-140.685
X128.211Y-92.405
X133.211Y-121.485
X138.211Y-121.485
X143.211Y-92.405
X166.14Y-141.045
X171.14Y-141.045
X181.041Y-152.835
X181.041Y-155.375
X181.041Y-157.915
T8
X109.195Y-92.545
X109.195Y-97.545
X109.195Y-107.545
X109.195Y-112.545
T9
X166.101Y-150.785
X168.641Y-150.785
X171.181Y-150.785
X176.481Y-137.295
X176.481Y-141.795
X176.581Y-152.415
X176.581Y-162.575
X182.981Y-137.295
X182.981Y-141.795
T10
X125.761Y-134.635
X127.211Y-149.385
X127.211Y-161.285
X132.211Y-149.385
X132.211Y-161.285
X137.211Y-149.385
X137.211Y-161.285
X139.911Y-140.685
X139.961Y-128.635
X154.301Y-141.505
X159.301Y-141.505
M30
