%TF.GenerationSoftware,KiCad,Pcbnew,10.0.5*%
%TF.CreationDate,2026-07-29T13:10:23-07:00*%
%TF.ProjectId,cv-fan,63762d66-616e-42e6-9b69-6361645f7063,rev?*%
%TF.SameCoordinates,Original*%
%TF.FileFunction,Copper,L2,Bot*%
%TF.FilePolarity,Positive*%
%FSLAX46Y46*%
G04 Gerber Fmt 4.6, Leading zero omitted, Abs format (unit mm)*
G04 Created by KiCad (PCBNEW 10.0.5) date 2026-07-29 13:10:23*
%MOMM*%
%LPD*%
G01*
G04 APERTURE LIST*
G04 Aperture macros list*
%AMRoundRect*
0 Rectangle with rounded corners*
0 $1 Rounding radius*
0 $2 $3 $4 $5 $6 $7 $8 $9 X,Y pos of 4 corners*
0 Add a 4 corners polygon primitive as box body*
4,1,4,$2,$3,$4,$5,$6,$7,$8,$9,$2,$3,0*
0 Add four circle primitives for the rounded corners*
1,1,$1+$1,$2,$3*
1,1,$1+$1,$4,$5*
1,1,$1+$1,$6,$7*
1,1,$1+$1,$8,$9*
0 Add four rect primitives between the rounded corners*
20,1,$1+$1,$2,$3,$4,$5,0*
20,1,$1+$1,$4,$5,$6,$7,0*
20,1,$1+$1,$6,$7,$8,$9,0*
20,1,$1+$1,$8,$9,$2,$3,0*%
G04 Aperture macros list end*
%TA.AperFunction,ComponentPad*%
%ADD10C,3.000000*%
%TD*%
%TA.AperFunction,ComponentPad*%
%ADD11C,2.500000*%
%TD*%
%TA.AperFunction,ComponentPad*%
%ADD12RoundRect,0.250000X-0.550000X-0.550000X0.550000X-0.550000X0.550000X0.550000X-0.550000X0.550000X0*%
%TD*%
%TA.AperFunction,ComponentPad*%
%ADD13C,1.600000*%
%TD*%
%TA.AperFunction,ComponentPad*%
%ADD14RoundRect,0.250000X-1.050000X-1.050000X1.050000X-1.050000X1.050000X1.050000X-1.050000X1.050000X0*%
%TD*%
%TA.AperFunction,ComponentPad*%
%ADD15C,2.600000*%
%TD*%
%TA.AperFunction,ComponentPad*%
%ADD16C,2.000000*%
%TD*%
%TA.AperFunction,ComponentPad*%
%ADD17R,1.800000X1.800000*%
%TD*%
%TA.AperFunction,ComponentPad*%
%ADD18C,1.800000*%
%TD*%
%TA.AperFunction,ComponentPad*%
%ADD19R,1.905000X2.000000*%
%TD*%
%TA.AperFunction,ComponentPad*%
%ADD20O,1.905000X2.000000*%
%TD*%
%TA.AperFunction,ComponentPad*%
%ADD21RoundRect,0.250000X-0.750000X-0.750000X0.750000X-0.750000X0.750000X0.750000X-0.750000X0.750000X0*%
%TD*%
%TA.AperFunction,ComponentPad*%
%ADD22RoundRect,0.250000X0.750000X-0.600000X0.750000X0.600000X-0.750000X0.600000X-0.750000X-0.600000X0*%
%TD*%
%TA.AperFunction,ComponentPad*%
%ADD23O,2.000000X1.700000*%
%TD*%
%TA.AperFunction,ComponentPad*%
%ADD24RoundRect,0.249999X0.850001X-0.850001X0.850001X0.850001X-0.850001X0.850001X-0.850001X-0.850001X0*%
%TD*%
%TA.AperFunction,ComponentPad*%
%ADD25C,2.200000*%
%TD*%
%TA.AperFunction,ComponentPad*%
%ADD26RoundRect,0.500000X0.500000X-0.500000X0.500000X0.500000X-0.500000X0.500000X-0.500000X-0.500000X0*%
%TD*%
%TA.AperFunction,HeatsinkPad*%
%ADD27C,0.600000*%
%TD*%
%TA.AperFunction,ComponentPad*%
%ADD28R,1.700000X1.700000*%
%TD*%
%TA.AperFunction,ComponentPad*%
%ADD29C,1.700000*%
%TD*%
%TA.AperFunction,SMDPad,CuDef*%
%ADD30RoundRect,0.250000X0.250000X0.475000X-0.250000X0.475000X-0.250000X-0.475000X0.250000X-0.475000X0*%
%TD*%
%TA.AperFunction,SMDPad,CuDef*%
%ADD31RoundRect,0.250000X0.450000X-0.262500X0.450000X0.262500X-0.450000X0.262500X-0.450000X-0.262500X0*%
%TD*%
%TA.AperFunction,SMDPad,CuDef*%
%ADD32RoundRect,0.250000X0.262500X0.450000X-0.262500X0.450000X-0.262500X-0.450000X0.262500X-0.450000X0*%
%TD*%
%TA.AperFunction,SMDPad,CuDef*%
%ADD33RoundRect,0.150000X0.587500X0.150000X-0.587500X0.150000X-0.587500X-0.150000X0.587500X-0.150000X0*%
%TD*%
%TA.AperFunction,ViaPad*%
%ADD34C,0.800000*%
%TD*%
%TA.AperFunction,ViaPad*%
%ADD35C,0.600000*%
%TD*%
%TA.AperFunction,Conductor*%
%ADD36C,0.800000*%
%TD*%
%TA.AperFunction,Conductor*%
%ADD37C,0.250000*%
%TD*%
G04 APERTURE END LIST*
D10*
%TO.P,K1,1*%
%TO.N,AC_L_FUSED*%
X125761000Y-134635000D03*
D11*
%TO.P,K1,2*%
%TO.N,+5V*%
X127711000Y-140685000D03*
D10*
%TO.P,K1,3*%
%TO.N,FAN_RELAY_SW*%
X139911000Y-140685000D03*
%TO.P,K1,4*%
%TO.N,N$K1.4*%
X139961000Y-128635000D03*
D11*
%TO.P,K1,5*%
%TO.N,FAN_RELAY_COIL*%
X127711000Y-128685000D03*
%TD*%
D12*
%TO.P,PC1,1*%
%TO.N,FAN_RELAY_OPT*%
X176041000Y-145905000D03*
D13*
%TO.P,PC1,2*%
%TO.N,GND*%
X176041000Y-148445000D03*
%TO.P,PC1,3*%
%TO.N,FAN_RELAY_DRV*%
X183661000Y-148445000D03*
%TO.P,PC1,4*%
%TO.N,+5V*%
X183661000Y-145905000D03*
%TD*%
D14*
%TO.P,J1,1*%
%TO.N,AC_L*%
X127211000Y-149385000D03*
D15*
%TO.P,J1,2*%
%TO.N,AC_N*%
X132211000Y-149385000D03*
%TO.P,J1,3*%
%TO.N,SPEED_PWM_PIN_OUT*%
X137211000Y-149385000D03*
%TD*%
D16*
%TO.P,SW1,1*%
%TO.N,BTN_PIN*%
X176481000Y-137295000D03*
X182981000Y-137295000D03*
%TO.P,SW1,2*%
%TO.N,GND*%
X176481000Y-141795000D03*
X182981000Y-141795000D03*
%TD*%
D12*
%TO.P,C2,1*%
%TO.N,+3V3*%
X153449800Y-151095000D03*
D13*
%TO.P,C2,2*%
%TO.N,GND*%
X155949800Y-151095000D03*
%TD*%
D17*
%TO.P,LED0,1*%
%TO.N,N$LED0.1*%
X160341000Y-155585000D03*
D18*
%TO.P,LED0,2*%
%TO.N,N$LED0.2*%
X162881000Y-155585000D03*
%TD*%
D19*
%TO.P,Qm,1*%
%TO.N,SPEED_PWM_PIN_B*%
X166101000Y-150785000D03*
D20*
%TO.P,Qm,2*%
%TO.N,GND*%
X168641000Y-150785000D03*
%TO.P,Qm,3*%
%TO.N,SPEED_PWM_PIN_OUT*%
X171181000Y-150785000D03*
%TD*%
D14*
%TO.P,J3,1*%
%TO.N,+5V*%
X127211000Y-161285000D03*
D15*
%TO.P,J3,2*%
%TO.N,FAN_RELAY_SW*%
X132211000Y-161285000D03*
%TO.P,J3,3*%
%TO.N,AC_N*%
X137211000Y-161285000D03*
%TD*%
D13*
%TO.P,RV1,1*%
%TO.N,AC_L_FUSED*%
X107545000Y-122185000D03*
%TO.P,RV1,2*%
%TO.N,AC_N*%
X112545000Y-123485000D03*
%TD*%
D21*
%TO.P,C1,1*%
%TO.N,+5V*%
X166139800Y-141045000D03*
D16*
%TO.P,C1,2*%
%TO.N,GND*%
X171139800Y-141045000D03*
%TD*%
D22*
%TO.P,PS1,1*%
%TO.N,AC_L_FUSED*%
X133211000Y-121485000D03*
D23*
%TO.P,PS1,2*%
%TO.N,AC_N*%
X138211000Y-121485000D03*
%TO.P,PS1,3*%
%TO.N,GND*%
X128211000Y-92405000D03*
%TO.P,PS1,4*%
%TO.N,+5V*%
X143211000Y-92405000D03*
%TD*%
D24*
%TO.P,D1,1*%
%TO.N,+5V*%
X176581000Y-162575000D03*
D25*
%TO.P,D1,2*%
%TO.N,FAN_RELAY_COIL*%
X176581000Y-152415000D03*
%TD*%
D26*
%TO.P,F1,1*%
%TO.N,AC_L*%
X109195000Y-112545000D03*
X109195000Y-107545000D03*
D16*
%TO.P,F1,2*%
%TO.N,AC_L_FUSED*%
X109195000Y-97545000D03*
X109195000Y-92545000D03*
%TD*%
D14*
%TO.P,J2,1*%
%TO.N,+5V*%
X154301000Y-141505000D03*
D15*
%TO.P,J2,2*%
%TO.N,GND*%
X159301000Y-141505000D03*
%TD*%
D27*
%TO.P,U1,39*%
%TO.N,GND*%
X165356000Y-109490000D03*
X165356000Y-110890000D03*
X166056000Y-108790000D03*
X166056000Y-110190000D03*
X166056000Y-111590000D03*
X166756000Y-109490000D03*
X166756000Y-110890000D03*
X167456000Y-108790000D03*
X167456000Y-110190000D03*
X167456000Y-111590000D03*
X168156000Y-109490000D03*
X168156000Y-110890000D03*
%TD*%
D28*
%TO.P,JP,1*%
%TO.N,UART_TX*%
X181041000Y-152835000D03*
D29*
%TO.P,JP,2*%
%TO.N,UART_RX*%
X181041000Y-155375000D03*
%TO.P,JP,3*%
%TO.N,GND*%
X181041000Y-157915000D03*
%TD*%
D30*
%TO.P,C3,1*%
%TO.N,+3V3*%
X158441000Y-136775000D03*
%TO.P,C3,2*%
%TO.N,GND*%
X156541000Y-136775000D03*
%TD*%
D31*
%TO.P,R2,1*%
%TO.N,SPEED_PWM_PIN*%
X171996000Y-145682500D03*
%TO.P,R2,2*%
%TO.N,SPEED_PWM_PIN_B*%
X171996000Y-143857500D03*
%TD*%
D30*
%TO.P,Cf,1*%
%TO.N,+3V3*%
X153951000Y-136775000D03*
%TO.P,Cf,2*%
%TO.N,GND*%
X152051000Y-136775000D03*
%TD*%
D32*
%TO.P,R6,1*%
%TO.N,N$R6.1*%
X158343500Y-147790000D03*
%TO.P,R6,2*%
%TO.N,N$R6.2*%
X156518500Y-147790000D03*
%TD*%
%TO.P,R7,1*%
%TO.N,N$R7.1*%
X162793500Y-148530000D03*
%TO.P,R7,2*%
%TO.N,N$R7.2*%
X160968500Y-148530000D03*
%TD*%
D30*
%TO.P,C5,1*%
%TO.N,+3V3*%
X167421000Y-136775000D03*
%TO.P,C5,2*%
%TO.N,GND*%
X165521000Y-136775000D03*
%TD*%
%TO.P,C4,1*%
%TO.N,+3V3*%
X162931000Y-136775000D03*
%TO.P,C4,2*%
%TO.N,GND*%
X161031000Y-136775000D03*
%TD*%
D32*
%TO.P,R1,1*%
%TO.N,FAN_RELAY*%
X169188500Y-144040000D03*
%TO.P,R1,2*%
%TO.N,FAN_RELAY_OPT*%
X167363500Y-144040000D03*
%TD*%
%TO.P,R3,1*%
%TO.N,+3V3*%
X153893500Y-144800000D03*
%TO.P,R3,2*%
%TO.N,EN*%
X152068500Y-144800000D03*
%TD*%
%TO.P,R9,1*%
%TO.N,N$R9.1*%
X160388500Y-151520000D03*
%TO.P,R9,2*%
%TO.N,N$R9.2*%
X158563500Y-151520000D03*
%TD*%
D31*
%TO.P,R8,1*%
%TO.N,N$R8.1*%
X183886000Y-152892500D03*
%TO.P,R8,2*%
%TO.N,N$R8.2*%
X183886000Y-151067500D03*
%TD*%
D33*
%TO.P,Q1,1*%
%TO.N,FAN_RELAY_DRV*%
X164513500Y-143840000D03*
%TO.P,Q1,2*%
%TO.N,GND*%
X164513500Y-145740000D03*
%TO.P,Q1,3*%
%TO.N,FAN_RELAY_COIL*%
X162638500Y-144790000D03*
%TD*%
D32*
%TO.P,R4,1*%
%TO.N,N$R4.1*%
X158343500Y-144800000D03*
%TO.P,R4,2*%
%TO.N,N$R4.2*%
X156518500Y-144800000D03*
%TD*%
%TO.P,R10,1*%
%TO.N,N$R10.1*%
X167418500Y-153780000D03*
%TO.P,R10,2*%
%TO.N,N$R10.2*%
X165593500Y-153780000D03*
%TD*%
%TO.P,R5,1*%
%TO.N,N$R5.1*%
X153893500Y-147790000D03*
%TO.P,R5,2*%
%TO.N,N$R5.2*%
X152068500Y-147790000D03*
%TD*%
D30*
%TO.P,C6,1*%
%TO.N,+3V3*%
X171911000Y-136775000D03*
%TO.P,C6,2*%
%TO.N,GND*%
X170011000Y-136775000D03*
%TD*%
D34*
%TO.N,+3V3*%
X160649700Y-134692900D03*
X150253900Y-143602800D03*
%TO.N,GND*%
X179756000Y-86250000D03*
X172756000Y-131750000D03*
X155256000Y-86250000D03*
X179156000Y-102470000D03*
X183256000Y-89750000D03*
X176256000Y-89750000D03*
X172756000Y-124750000D03*
X155256000Y-121250000D03*
X186756000Y-131750000D03*
X179756000Y-121250000D03*
X169256000Y-86250000D03*
X165756000Y-166750000D03*
X183256000Y-86250000D03*
X165756000Y-163250000D03*
X151756000Y-142250000D03*
X172756000Y-170250000D03*
X162256000Y-107250000D03*
X155256000Y-128250000D03*
X151756000Y-152750000D03*
X169256000Y-117750000D03*
X162256000Y-86250000D03*
X151756000Y-163250000D03*
X162256000Y-138750000D03*
X183256000Y-96750000D03*
X172756000Y-110750000D03*
X186756000Y-89750000D03*
X151756000Y-114250000D03*
X179756000Y-124750000D03*
X151756000Y-159750000D03*
X183256000Y-114250000D03*
X165756000Y-138750000D03*
X186756000Y-159750000D03*
X155256000Y-93250000D03*
X165756000Y-86250000D03*
X183256000Y-159750000D03*
X176256000Y-156250000D03*
X162256000Y-128250000D03*
X158756000Y-124750000D03*
X151756000Y-110750000D03*
X176256000Y-159750000D03*
X186756000Y-152750000D03*
X158756000Y-131750000D03*
X151756000Y-93250000D03*
X176256000Y-82750000D03*
X165756000Y-82750000D03*
X186756000Y-156250000D03*
X158756000Y-121250000D03*
X162256000Y-89750000D03*
X151756000Y-138750000D03*
X186756000Y-100250000D03*
X162256000Y-117750000D03*
X186756000Y-149250000D03*
X162256000Y-131750000D03*
X183256000Y-124750000D03*
X168641000Y-148385000D03*
X186756000Y-145750000D03*
X162256000Y-152750000D03*
X183256000Y-100250000D03*
X155256000Y-166750000D03*
X172756000Y-86250000D03*
X179756000Y-170250000D03*
X179756000Y-145750000D03*
X179756000Y-82750000D03*
X162256000Y-82750000D03*
X186756000Y-82750000D03*
X183256000Y-117750000D03*
X165756000Y-103750000D03*
X186756000Y-135250000D03*
X155256000Y-156250000D03*
X183256000Y-107250000D03*
X179756000Y-131750000D03*
X158756000Y-89750000D03*
X155256000Y-159750000D03*
X169256000Y-110750000D03*
X162256000Y-163250000D03*
X158756000Y-138750000D03*
X186756000Y-107250000D03*
X172756000Y-138750000D03*
X151756000Y-156250000D03*
X158756000Y-86250000D03*
X162256000Y-103750000D03*
X165756000Y-170250000D03*
X155256000Y-110750000D03*
X169256000Y-93250000D03*
X158756000Y-163250000D03*
X158756000Y-159750000D03*
X142869300Y-149865100D03*
X151756000Y-128250000D03*
X179756000Y-114250000D03*
X179756000Y-107250000D03*
X155256000Y-131750000D03*
X186756000Y-86250000D03*
X183256000Y-128250000D03*
X162256000Y-93250000D03*
X158756000Y-93250000D03*
X179756000Y-138750000D03*
X172756000Y-93250000D03*
X151756000Y-131750000D03*
X169256000Y-138750000D03*
X155256000Y-124750000D03*
X151756000Y-100250000D03*
X186756000Y-124750000D03*
X169256000Y-166750000D03*
X186756000Y-110750000D03*
X179756000Y-159750000D03*
X172756000Y-128250000D03*
X179756000Y-93250000D03*
X155256000Y-100250000D03*
X172756000Y-107250000D03*
X172756000Y-89750000D03*
X157356000Y-102470000D03*
X176256000Y-93250000D03*
X179756000Y-128250000D03*
X155256000Y-82750000D03*
X151756000Y-117750000D03*
X169256000Y-114250000D03*
X158756000Y-82750000D03*
X186756000Y-93250000D03*
X183256000Y-166750000D03*
X151756000Y-121250000D03*
X158756000Y-128250000D03*
X179756000Y-96750000D03*
X162256000Y-159750000D03*
X179756000Y-135250000D03*
X155950000Y-153295000D03*
X172756000Y-114250000D03*
X176256000Y-131750000D03*
X179756000Y-100250000D03*
X151756000Y-86250000D03*
X169256000Y-82750000D03*
X169256000Y-163250000D03*
X186756000Y-96750000D03*
X179756000Y-149250000D03*
X179756000Y-117750000D03*
X169256000Y-89750000D03*
X186756000Y-138750000D03*
X155256000Y-103750000D03*
X165756000Y-117750000D03*
X183256000Y-121250000D03*
X155256000Y-163250000D03*
X151756000Y-89750000D03*
X183256000Y-82750000D03*
X169256000Y-131750000D03*
X176256000Y-86250000D03*
X155256000Y-89750000D03*
X155256000Y-107250000D03*
X179756000Y-103750000D03*
X186756000Y-121250000D03*
X162256000Y-114250000D03*
X183256000Y-156250000D03*
X161190999Y-139615000D03*
X151756000Y-103750000D03*
X186756000Y-114250000D03*
X165756000Y-107250000D03*
X186756000Y-166750000D03*
X183256000Y-93250000D03*
X169256000Y-107250000D03*
X151756000Y-96750000D03*
X178881000Y-141795000D03*
X186756000Y-103750000D03*
X169256000Y-170250000D03*
X176256000Y-170250000D03*
X185381000Y-141795000D03*
X183256000Y-163250000D03*
X162256000Y-166750000D03*
X186756000Y-142250000D03*
X186756000Y-128250000D03*
X172756000Y-117750000D03*
X176256000Y-166750000D03*
X179756000Y-89750000D03*
X179756000Y-163250000D03*
X176256000Y-124750000D03*
X173540000Y-141045000D03*
X164514000Y-147378000D03*
X162256000Y-142250000D03*
X165756000Y-114250000D03*
X165756000Y-89750000D03*
X155256000Y-114250000D03*
X179756000Y-142250000D03*
X162256000Y-110750000D03*
X155256000Y-96750000D03*
X186756000Y-163250000D03*
X158756000Y-166750000D03*
X165756000Y-124750000D03*
X165756000Y-131750000D03*
X165756000Y-156250000D03*
X179756000Y-110750000D03*
X172756000Y-156250000D03*
X186756000Y-117750000D03*
X176256000Y-128250000D03*
X183256000Y-131750000D03*
X179756000Y-166750000D03*
X172756000Y-82750000D03*
X183256000Y-110750000D03*
X169256000Y-124750000D03*
X151756000Y-82750000D03*
X165756000Y-128250000D03*
X162001000Y-141505000D03*
X172756000Y-163250000D03*
X151756000Y-107250000D03*
X178241000Y-148445000D03*
X172756000Y-166750000D03*
X165756000Y-93250000D03*
X176256000Y-121250000D03*
X163157000Y-170200000D03*
X169256000Y-103750000D03*
X155256000Y-138750000D03*
X169256000Y-128250000D03*
X172756000Y-152750000D03*
X162256000Y-124750000D03*
X151756000Y-124750000D03*
X155256000Y-117750000D03*
X172756000Y-103750000D03*
X151756000Y-166750000D03*
X183256000Y-103750000D03*
D35*
%TO.N,FAN_RELAY_OPT*%
X166140700Y-144155400D03*
%TO.N,EN*%
X151873400Y-134579000D03*
%TO.N,SPEED_PWM_PIN*%
X170358800Y-146147300D03*
%TO.N,FAN_RELAY*%
X170288100Y-143951000D03*
X166576500Y-122905800D03*
X158178100Y-115025700D03*
%TD*%
%TO.N,+5V*%
D36*
X176581000Y-161102700D02*
X176581000Y-162575000D01*
X183661000Y-145905000D02*
X181828200Y-147737800D01*
X181828200Y-147737800D02*
X181828200Y-149213700D01*
X178655800Y-152386100D02*
X178655800Y-159027900D01*
X181828200Y-149213700D02*
X178655800Y-152386100D01*
X178655800Y-159027900D02*
X176581000Y-161102700D01*
%TO.N,FAN_RELAY_COIL*%
D37*
X171610700Y-152212800D02*
X165042600Y-152212800D01*
X164434500Y-142497400D02*
X162638500Y-144293400D01*
X163701200Y-150871400D02*
X163701200Y-147755900D01*
X172634200Y-140090700D02*
X172634200Y-141643300D01*
X162638500Y-146693200D02*
X162638500Y-144790000D01*
X163701200Y-147755900D02*
X162638500Y-146693200D01*
X176089300Y-151923300D02*
X171900200Y-151923300D01*
X173592200Y-139132700D02*
X172634200Y-140090700D01*
X173592200Y-136701400D02*
X173592200Y-139132700D01*
X170482400Y-133591600D02*
X173592200Y-136701400D01*
X127711000Y-128685000D02*
X132617600Y-133591600D01*
X132617600Y-133591600D02*
X170482400Y-133591600D01*
X162638500Y-144293400D02*
X162638500Y-144790000D01*
X165042600Y-152212800D02*
X163701200Y-150871400D01*
X176581000Y-152415000D02*
X176089300Y-151923300D01*
X171900200Y-151923300D02*
X171610700Y-152212800D01*
X172634200Y-141643300D02*
X171780100Y-142497400D01*
X171780100Y-142497400D02*
X164434500Y-142497400D01*
%TO.N,+3V3*%
D36*
X152725500Y-146202700D02*
X153893400Y-145034800D01*
X155111600Y-146018100D02*
X155111600Y-149433200D01*
X154456000Y-144800000D02*
X153893500Y-144800000D01*
X155111600Y-149433200D02*
X153449800Y-151095000D01*
X157190600Y-138514100D02*
X157190600Y-142065400D01*
X171911000Y-137699800D02*
X169743400Y-139867400D01*
X160649700Y-134692900D02*
X160649700Y-135327200D01*
X158441000Y-135327200D02*
X155398800Y-135327200D01*
X162931000Y-135327200D02*
X160649700Y-135327200D01*
X168774700Y-139867400D02*
X167421000Y-138513700D01*
X171911000Y-136775000D02*
X171911000Y-137699800D01*
X160649700Y-135327200D02*
X158441000Y-135327200D01*
X158441000Y-137263700D02*
X157190600Y-138514100D01*
X150253900Y-143602800D02*
X150253900Y-145045100D01*
X151411500Y-146202700D02*
X152725500Y-146202700D01*
X155398800Y-135327200D02*
X153951000Y-136775000D01*
X167421000Y-136530700D02*
X167421000Y-136775000D01*
X162931000Y-135327200D02*
X166217500Y-135327200D01*
X167421000Y-138513700D02*
X167421000Y-136775000D01*
X153893500Y-144800000D02*
X155111600Y-146018100D01*
X150253900Y-145045100D02*
X151411500Y-146202700D01*
X157190600Y-142065400D02*
X154456000Y-144800000D01*
X153893400Y-145034800D02*
X153893400Y-144800000D01*
X166217500Y-135327200D02*
X167421000Y-136530700D01*
X162931000Y-136775000D02*
X162931000Y-135327200D01*
X158441000Y-135327200D02*
X158441000Y-136775000D01*
X158441000Y-136775000D02*
X158441000Y-137263700D01*
X169743400Y-139867400D02*
X168774700Y-139867400D01*
%TO.N,GND*%
X151914200Y-98316400D02*
X132570700Y-98316400D01*
X128211000Y-92405000D02*
X128211000Y-93956700D01*
X150436900Y-147631100D02*
X145103300Y-147631100D01*
X145103300Y-147631100D02*
X142869300Y-149865100D01*
X132570700Y-98316400D02*
X128211000Y-93956700D01*
%TO.N,FAN_RELAY_OPT*%
D37*
X166140700Y-144155400D02*
X167248100Y-144155400D01*
X167248100Y-144155400D02*
X167363500Y-144040000D01*
%TO.N,FAN_RELAY_DRV*%
X165379600Y-142973900D02*
X164513500Y-143840000D01*
X184889200Y-147216800D02*
X184889200Y-145338800D01*
X172720100Y-142973900D02*
X165379600Y-142973900D01*
X183661000Y-148445000D02*
X184889200Y-147216800D01*
X173426600Y-143680400D02*
X172720100Y-142973900D01*
X184889200Y-145338800D02*
X183230800Y-143680400D01*
X183230800Y-143680400D02*
X173426600Y-143680400D01*
%TO.N,BTN_PIN*%
X182981000Y-137295000D02*
X176481000Y-137295000D01*
%TO.N,SPEED_PWM_PIN_B*%
X166101000Y-150785000D02*
X166101000Y-149458300D01*
X171701800Y-143857500D02*
X166101000Y-149458300D01*
X171996000Y-143857500D02*
X171701800Y-143857500D01*
%TO.N,EN*%
X152068500Y-144240700D02*
X152068500Y-144800000D01*
X150877400Y-143049600D02*
X152068500Y-144240700D01*
X151873400Y-134579000D02*
X150877400Y-135575000D01*
X150877400Y-135575000D02*
X150877400Y-143049600D01*
%TO.N,SPEED_PWM_PIN*%
X170358800Y-146147300D02*
X171531200Y-146147300D01*
X171531200Y-146147300D02*
X171996000Y-145682500D01*
%TO.N,FAN_RELAY*%
X158178100Y-115025700D02*
X166058100Y-122905700D01*
X170288100Y-143951000D02*
X169277500Y-143951000D01*
X169277500Y-143951000D02*
X169188500Y-144040000D01*
X166058100Y-122905700D02*
X166576500Y-122905700D01*
%TD*%
%TA.AperFunction,Conductor*%
%TO.N,GND*%
G36*
X187216943Y-81019685D02*
G01*
X187226377Y-81026389D01*
X187351573Y-81124474D01*
X187362781Y-81134404D01*
X187565596Y-81337219D01*
X187575525Y-81348426D01*
X187673611Y-81473623D01*
X187699460Y-81538532D01*
X187700000Y-81550094D01*
X187700000Y-173249903D01*
X187680315Y-173316942D01*
X187673611Y-173326376D01*
X187575525Y-173451573D01*
X187565595Y-173462781D01*
X187362781Y-173665595D01*
X187351574Y-173675524D01*
X187226378Y-173773610D01*
X187161466Y-173799460D01*
X187149904Y-173800000D01*
X150130000Y-173800000D01*
X150062961Y-173780315D01*
X150017206Y-173727511D01*
X150006000Y-173676000D01*
X150006000Y-170681995D01*
X182898200Y-170681995D01*
X182898200Y-170918004D01*
X182898201Y-170918020D01*
X182929006Y-171152010D01*
X182990094Y-171379993D01*
X183080414Y-171598045D01*
X183080419Y-171598056D01*
X183151377Y-171720957D01*
X183198427Y-171802450D01*
X183198429Y-171802453D01*
X183198430Y-171802454D01*
X183342106Y-171989697D01*
X183342112Y-171989704D01*
X183508995Y-172156587D01*
X183509001Y-172156592D01*
X183696250Y-172300273D01*
X183827618Y-172376118D01*
X183900643Y-172418280D01*
X183900648Y-172418282D01*
X183900651Y-172418284D01*
X184118707Y-172508606D01*
X184346686Y-172569693D01*
X184580689Y-172600500D01*
X184580696Y-172600500D01*
X184816704Y-172600500D01*
X184816711Y-172600500D01*
X185050714Y-172569693D01*
X185278693Y-172508606D01*
X185496749Y-172418284D01*
X185701150Y-172300273D01*
X185888399Y-172156592D01*
X186055292Y-171989699D01*
X186198973Y-171802450D01*
X186316984Y-171598049D01*
X186407306Y-171379993D01*
X186468393Y-171152014D01*
X186499200Y-170918011D01*
X186499200Y-170681989D01*
X186468393Y-170447986D01*
X186407306Y-170220007D01*
X186316984Y-170001951D01*
X186316982Y-170001948D01*
X186316980Y-170001943D01*
X186274818Y-169928918D01*
X186198973Y-169797550D01*
X186055292Y-169610301D01*
X186055287Y-169610295D01*
X185888404Y-169443412D01*
X185888397Y-169443406D01*
X185701154Y-169299730D01*
X185701153Y-169299729D01*
X185701150Y-169299727D01*
X185619657Y-169252677D01*
X185496756Y-169181719D01*
X185496745Y-169181714D01*
X185278693Y-169091394D01*
X185050710Y-169030306D01*
X184816720Y-168999501D01*
X184816717Y-168999500D01*
X184816711Y-168999500D01*
X184580689Y-168999500D01*
X184580683Y-168999500D01*
X184580679Y-168999501D01*
X184346689Y-169030306D01*
X184118706Y-169091394D01*
X183900654Y-169181714D01*
X183900643Y-169181719D01*
X183696245Y-169299730D01*
X183509002Y-169443406D01*
X183508995Y-169443412D01*
X183342112Y-169610295D01*
X183342106Y-169610302D01*
X183198430Y-169797545D01*
X183080419Y-170001943D01*
X183080414Y-170001954D01*
X182990094Y-170220006D01*
X182929006Y-170447989D01*
X182898201Y-170681979D01*
X182898200Y-170681995D01*
X150006000Y-170681995D01*
X150006000Y-154637135D01*
X158940500Y-154637135D01*
X158940500Y-156532870D01*
X158940501Y-156532876D01*
X158946908Y-156592483D01*
X158997202Y-156727328D01*
X158997206Y-156727335D01*
X159083452Y-156842544D01*
X159083455Y-156842547D01*
X159198664Y-156928793D01*
X159198671Y-156928797D01*
X159333517Y-156979091D01*
X159333516Y-156979091D01*
X159340444Y-156979835D01*
X159393127Y-156985500D01*
X161288872Y-156985499D01*
X161348483Y-156979091D01*
X161483331Y-156928796D01*
X161598546Y-156842546D01*
X161684796Y-156727331D01*
X161712429Y-156653243D01*
X161714601Y-156647420D01*
X161756471Y-156591486D01*
X161821936Y-156567068D01*
X161890209Y-156581919D01*
X161918464Y-156603071D01*
X161968636Y-156653243D01*
X161968641Y-156653247D01*
X162056008Y-156716722D01*
X162146978Y-156782815D01*
X162275375Y-156848237D01*
X162343393Y-156882895D01*
X162343396Y-156882896D01*
X162448221Y-156916955D01*
X162553049Y-156951015D01*
X162770778Y-156985500D01*
X162770779Y-156985500D01*
X162991221Y-156985500D01*
X162991222Y-156985500D01*
X163208951Y-156951015D01*
X163418606Y-156882895D01*
X163615022Y-156782815D01*
X163793365Y-156653242D01*
X163949242Y-156497365D01*
X164078815Y-156319022D01*
X164178895Y-156122606D01*
X164247015Y-155912951D01*
X164281500Y-155695222D01*
X164281500Y-155474778D01*
X164247015Y-155257049D01*
X164178895Y-155047394D01*
X164178895Y-155047393D01*
X164139459Y-154969998D01*
X164078815Y-154850978D01*
X163969522Y-154700548D01*
X163949247Y-154672641D01*
X163949243Y-154672636D01*
X163793363Y-154516756D01*
X163793358Y-154516752D01*
X163615025Y-154387187D01*
X163615024Y-154387186D01*
X163615022Y-154387185D01*
X163497791Y-154327452D01*
X163418606Y-154287104D01*
X163418603Y-154287103D01*
X163208952Y-154218985D01*
X163100086Y-154201742D01*
X162991222Y-154184500D01*
X162770778Y-154184500D01*
X162706220Y-154194725D01*
X162553047Y-154218985D01*
X162343396Y-154287103D01*
X162343393Y-154287104D01*
X162146974Y-154387187D01*
X161968641Y-154516752D01*
X161968636Y-154516756D01*
X161918463Y-154566929D01*
X161857140Y-154600413D01*
X161787448Y-154595428D01*
X161731515Y-154553557D01*
X161714601Y-154522580D01*
X161684797Y-154442671D01*
X161684793Y-154442664D01*
X161598547Y-154327455D01*
X161598544Y-154327452D01*
X161483335Y-154241206D01*
X161483328Y-154241202D01*
X161348482Y-154190908D01*
X161348483Y-154190908D01*
X161288883Y-154184501D01*
X161288881Y-154184500D01*
X161288873Y-154184500D01*
X161288864Y-154184500D01*
X159393129Y-154184500D01*
X159393123Y-154184501D01*
X159333516Y-154190908D01*
X159198671Y-154241202D01*
X159198664Y-154241206D01*
X159083455Y-154327452D01*
X159083452Y-154327455D01*
X158997206Y-154442664D01*
X158997202Y-154442671D01*
X158946908Y-154577517D01*
X158940501Y-154637116D01*
X158940500Y-154637135D01*
X150006000Y-154637135D01*
X150006000Y-146370061D01*
X150025685Y-146303022D01*
X150078489Y-146257267D01*
X150147647Y-146247323D01*
X150211203Y-146276348D01*
X150217674Y-146282374D01*
X150712036Y-146776735D01*
X150776252Y-146840951D01*
X150837466Y-146902165D01*
X150930342Y-146964223D01*
X150984953Y-147000713D01*
X151004037Y-147008617D01*
X151058439Y-147052454D01*
X151080506Y-147118748D01*
X151074292Y-147162179D01*
X151066001Y-147187200D01*
X151055500Y-147289983D01*
X151055500Y-148290001D01*
X151055501Y-148290019D01*
X151066000Y-148392796D01*
X151066001Y-148392799D01*
X151121185Y-148559331D01*
X151121186Y-148559334D01*
X151213288Y-148708656D01*
X151337344Y-148832712D01*
X151486666Y-148924814D01*
X151653203Y-148979999D01*
X151755991Y-148990500D01*
X152381008Y-148990499D01*
X152381016Y-148990498D01*
X152381019Y-148990498D01*
X152438296Y-148984647D01*
X152483797Y-148979999D01*
X152650334Y-148924814D01*
X152799656Y-148832712D01*
X152893319Y-148739049D01*
X152954642Y-148705564D01*
X153024334Y-148710548D01*
X153068681Y-148739049D01*
X153162344Y-148832712D01*
X153311666Y-148924814D01*
X153478203Y-148979999D01*
X153580991Y-148990500D01*
X153981439Y-148990499D01*
X154048477Y-149010183D01*
X154094232Y-149062987D01*
X154104176Y-149132146D01*
X154075151Y-149195701D01*
X154069119Y-149202180D01*
X153513117Y-149758181D01*
X153451794Y-149791666D01*
X153425436Y-149794500D01*
X152849798Y-149794500D01*
X152849780Y-149794501D01*
X152747003Y-149805000D01*
X152747000Y-149805001D01*
X152580468Y-149860185D01*
X152580463Y-149860187D01*
X152431142Y-149952289D01*
X152307089Y-150076342D01*
X152214987Y-150225663D01*
X152214986Y-150225666D01*
X152159801Y-150392203D01*
X152159801Y-150392204D01*
X152159800Y-150392204D01*
X152149300Y-150494983D01*
X152149300Y-151695001D01*
X152149301Y-151695018D01*
X152159800Y-151797796D01*
X152159801Y-151797799D01*
X152201194Y-151922712D01*
X152214986Y-151964334D01*
X152307088Y-152113656D01*
X152431144Y-152237712D01*
X152580466Y-152329814D01*
X152747003Y-152384999D01*
X152849791Y-152395500D01*
X154049808Y-152395499D01*
X154152597Y-152384999D01*
X154319134Y-152329814D01*
X154468456Y-152237712D01*
X154592512Y-152113656D01*
X154684614Y-151964334D01*
X154707902Y-151894054D01*
X154711910Y-151886050D01*
X154729860Y-151866772D01*
X154744855Y-151845116D01*
X154753295Y-151841606D01*
X154759525Y-151834917D01*
X154785049Y-151828404D01*
X154809371Y-151818292D01*
X154825634Y-151818048D01*
X154827225Y-151817643D01*
X154828323Y-151818008D01*
X154832519Y-151817946D01*
X154870325Y-151820921D01*
X155549800Y-151141446D01*
X155549800Y-151147661D01*
X155577059Y-151249394D01*
X155629720Y-151340606D01*
X155704194Y-151415080D01*
X155795406Y-151467741D01*
X155897139Y-151495000D01*
X155903353Y-151495000D01*
X155223876Y-152174474D01*
X155268450Y-152206859D01*
X155450768Y-152299755D01*
X155645382Y-152362990D01*
X155847483Y-152395000D01*
X156052117Y-152395000D01*
X156254217Y-152362990D01*
X156448831Y-152299755D01*
X156631149Y-152206859D01*
X156675721Y-152174474D01*
X155996247Y-151495000D01*
X156002461Y-151495000D01*
X156104194Y-151467741D01*
X156195406Y-151415080D01*
X156269880Y-151340606D01*
X156322541Y-151249394D01*
X156349800Y-151147661D01*
X156349800Y-151141448D01*
X157029274Y-151820922D01*
X157029274Y-151820921D01*
X157061659Y-151776349D01*
X157154555Y-151594031D01*
X157217790Y-151399417D01*
X157249800Y-151197317D01*
X157249800Y-151019983D01*
X157550500Y-151019983D01*
X157550500Y-152020001D01*
X157550501Y-152020019D01*
X157561000Y-152122796D01*
X157561001Y-152122799D01*
X157616185Y-152289331D01*
X157616187Y-152289336D01*
X157629345Y-152310668D01*
X157708288Y-152438656D01*
X157832344Y-152562712D01*
X157981666Y-152654814D01*
X158148203Y-152709999D01*
X158250991Y-152720500D01*
X158876008Y-152720499D01*
X158876016Y-152720498D01*
X158876019Y-152720498D01*
X158932302Y-152714748D01*
X158978797Y-152709999D01*
X159145334Y-152654814D01*
X159294656Y-152562712D01*
X159388319Y-152469049D01*
X159449642Y-152435564D01*
X159519334Y-152440548D01*
X159563681Y-152469049D01*
X159657344Y-152562712D01*
X159806666Y-152654814D01*
X159973203Y-152709999D01*
X160075991Y-152720500D01*
X160701008Y-152720499D01*
X160701016Y-152720498D01*
X160701019Y-152720498D01*
X160757302Y-152714748D01*
X160803797Y-152709999D01*
X160970334Y-152654814D01*
X161119656Y-152562712D01*
X161243712Y-152438656D01*
X161335814Y-152289334D01*
X161390999Y-152122797D01*
X161401500Y-152020009D01*
X161401499Y-151019992D01*
X161390999Y-150917203D01*
X161335814Y-150750666D01*
X161243712Y-150601344D01*
X161119656Y-150477288D01*
X160981712Y-150392204D01*
X160970336Y-150385187D01*
X160970331Y-150385185D01*
X160921717Y-150369076D01*
X160803797Y-150330001D01*
X160803795Y-150330000D01*
X160701010Y-150319500D01*
X160075998Y-150319500D01*
X160075980Y-150319501D01*
X159973203Y-150330000D01*
X159973200Y-150330001D01*
X159806668Y-150385185D01*
X159806663Y-150385187D01*
X159657342Y-150477289D01*
X159563681Y-150570951D01*
X159502358Y-150604436D01*
X159432666Y-150599452D01*
X159388319Y-150570951D01*
X159294657Y-150477289D01*
X159294656Y-150477288D01*
X159156712Y-150392204D01*
X159145336Y-150385187D01*
X159145331Y-150385185D01*
X159096717Y-150369076D01*
X158978797Y-150330001D01*
X158978795Y-150330000D01*
X158876010Y-150319500D01*
X158250998Y-150319500D01*
X158250980Y-150319501D01*
X158148203Y-150330000D01*
X158148200Y-150330001D01*
X157981668Y-150385185D01*
X157981663Y-150385187D01*
X157832342Y-150477289D01*
X157708289Y-150601342D01*
X157616187Y-150750663D01*
X157616185Y-150750668D01*
X157611332Y-150765315D01*
X157561001Y-150917203D01*
X157561001Y-150917204D01*
X157561000Y-150917204D01*
X157550500Y-151019983D01*
X157249800Y-151019983D01*
X157249800Y-150992682D01*
X157217790Y-150790582D01*
X157154555Y-150595968D01*
X157061659Y-150413650D01*
X157029274Y-150369077D01*
X157029274Y-150369076D01*
X156349800Y-151048551D01*
X156349800Y-151042339D01*
X156322541Y-150940606D01*
X156269880Y-150849394D01*
X156195406Y-150774920D01*
X156104194Y-150722259D01*
X156002461Y-150695000D01*
X155996246Y-150695000D01*
X156675722Y-150015524D01*
X156675721Y-150015523D01*
X156631159Y-149983147D01*
X156631150Y-149983141D01*
X156448831Y-149890244D01*
X156254217Y-149827009D01*
X156088037Y-149800689D01*
X156024902Y-149770760D01*
X155987971Y-149711448D01*
X155985818Y-149654025D01*
X156007968Y-149542664D01*
X156012100Y-149521892D01*
X156012100Y-149344508D01*
X156012100Y-149108005D01*
X156031785Y-149040966D01*
X156084589Y-148995211D01*
X156148701Y-148984647D01*
X156205991Y-148990500D01*
X156831008Y-148990499D01*
X156831016Y-148990498D01*
X156831019Y-148990498D01*
X156888296Y-148984647D01*
X156933797Y-148979999D01*
X157100334Y-148924814D01*
X157249656Y-148832712D01*
X157343319Y-148739049D01*
X157404642Y-148705564D01*
X157474334Y-148710548D01*
X157518681Y-148739049D01*
X157612344Y-148832712D01*
X157761666Y-148924814D01*
X157928203Y-148979999D01*
X158030991Y-148990500D01*
X158656008Y-148990499D01*
X158656016Y-148990498D01*
X158656019Y-148990498D01*
X158713296Y-148984647D01*
X158758797Y-148979999D01*
X158925334Y-148924814D01*
X159074656Y-148832712D01*
X159198712Y-148708656D01*
X159290814Y-148559334D01*
X159345999Y-148392797D01*
X159356500Y-148290009D01*
X159356499Y-147289992D01*
X159354603Y-147271436D01*
X159345999Y-147187203D01*
X159345998Y-147187200D01*
X159344738Y-147183398D01*
X159290814Y-147020666D01*
X159198712Y-146871344D01*
X159074656Y-146747288D01*
X158925334Y-146655186D01*
X158758797Y-146600001D01*
X158758795Y-146600000D01*
X158656010Y-146589500D01*
X158030998Y-146589500D01*
X158030980Y-146589501D01*
X157928203Y-146600000D01*
X157928200Y-146600001D01*
X157761668Y-146655185D01*
X157761663Y-146655187D01*
X157612342Y-146747289D01*
X157518681Y-146840951D01*
X157457358Y-146874436D01*
X157387666Y-146869452D01*
X157343319Y-146840951D01*
X157249657Y-146747289D01*
X157249656Y-146747288D01*
X157100334Y-146655186D01*
X156933797Y-146600001D01*
X156933795Y-146600000D01*
X156831010Y-146589500D01*
X156205998Y-146589500D01*
X156205980Y-146589501D01*
X156148701Y-146595353D01*
X156080008Y-146582583D01*
X156029124Y-146534702D01*
X156012100Y-146471995D01*
X156012100Y-146118005D01*
X156031785Y-146050966D01*
X156084589Y-146005211D01*
X156148701Y-145994647D01*
X156205991Y-146000500D01*
X156831008Y-146000499D01*
X156831016Y-146000498D01*
X156831019Y-146000498D01*
X156888296Y-145994647D01*
X156933797Y-145989999D01*
X157100334Y-145934814D01*
X157249656Y-145842712D01*
X157343319Y-145749049D01*
X157404642Y-145715564D01*
X157474334Y-145720548D01*
X157518681Y-145749049D01*
X157612344Y-145842712D01*
X157761666Y-145934814D01*
X157928203Y-145989999D01*
X158030991Y-146000500D01*
X158656008Y-146000499D01*
X158656016Y-146000498D01*
X158656019Y-146000498D01*
X158713296Y-145994647D01*
X158758797Y-145989999D01*
X158925334Y-145934814D01*
X159074656Y-145842712D01*
X159198712Y-145718656D01*
X159290814Y-145569334D01*
X159345999Y-145402797D01*
X159356500Y-145300009D01*
X159356499Y-144299992D01*
X159355664Y-144291821D01*
X159345999Y-144197203D01*
X159345998Y-144197200D01*
X159290814Y-144030666D01*
X159198712Y-143881344D01*
X159074656Y-143757288D01*
X158925334Y-143665186D01*
X158758797Y-143610001D01*
X158758795Y-143610000D01*
X158656010Y-143599500D01*
X158030998Y-143599500D01*
X158030980Y-143599501D01*
X157928203Y-143610000D01*
X157928200Y-143610001D01*
X157761668Y-143665185D01*
X157761663Y-143665187D01*
X157612342Y-143757289D01*
X157518681Y-143850951D01*
X157457358Y-143884436D01*
X157387666Y-143879452D01*
X157343319Y-143850951D01*
X157249657Y-143757289D01*
X157249656Y-143757288D01*
X157100334Y-143665186D01*
X157100330Y-143665184D01*
X157099872Y-143664971D01*
X157099608Y-143664738D01*
X157094187Y-143661395D01*
X157094758Y-143660468D01*
X157047431Y-143618800D01*
X157028277Y-143551607D01*
X157048490Y-143484726D01*
X157064592Y-143464906D01*
X157722855Y-142806644D01*
X157890063Y-142639436D01*
X157890065Y-142639433D01*
X157913068Y-142605008D01*
X157988613Y-142491947D01*
X157999055Y-142466736D01*
X158025934Y-142426510D01*
X158699957Y-141752487D01*
X158724978Y-141812890D01*
X158796112Y-141919351D01*
X158886649Y-142009888D01*
X158993110Y-142081022D01*
X159053511Y-142106041D01*
X158217275Y-142942277D01*
X158298827Y-143004854D01*
X158298828Y-143004855D01*
X158503171Y-143122834D01*
X158503180Y-143122839D01*
X158721163Y-143213129D01*
X158721161Y-143213129D01*
X158949085Y-143274200D01*
X159183014Y-143304999D01*
X159183029Y-143305000D01*
X159418971Y-143305000D01*
X159418985Y-143304999D01*
X159652914Y-143274200D01*
X159880837Y-143213129D01*
X160098819Y-143122839D01*
X160098828Y-143122834D01*
X160303181Y-143004850D01*
X160384723Y-142942279D01*
X160384723Y-142942276D01*
X159548487Y-142106041D01*
X159608890Y-142081022D01*
X159715351Y-142009888D01*
X159805888Y-141919351D01*
X159877022Y-141812890D01*
X159902041Y-141752488D01*
X160738276Y-142588723D01*
X160738279Y-142588723D01*
X160800850Y-142507181D01*
X160918834Y-142302828D01*
X160918839Y-142302819D01*
X161009129Y-142084837D01*
X161070200Y-141856914D01*
X161100999Y-141622985D01*
X161101000Y-141622971D01*
X161101000Y-141387028D01*
X161100999Y-141387014D01*
X161070200Y-141153085D01*
X161009129Y-140925162D01*
X160918839Y-140707180D01*
X160918834Y-140707171D01*
X160800855Y-140502828D01*
X160800854Y-140502827D01*
X160738277Y-140421275D01*
X159902041Y-141257511D01*
X159877022Y-141197110D01*
X159805888Y-141090649D01*
X159715351Y-141000112D01*
X159608890Y-140928978D01*
X159548487Y-140903957D01*
X160384723Y-140067721D01*
X160303172Y-140005145D01*
X160303171Y-140005144D01*
X160098828Y-139887165D01*
X160098819Y-139887160D01*
X159880836Y-139796870D01*
X159880838Y-139796870D01*
X159652914Y-139735799D01*
X159418985Y-139705000D01*
X159183014Y-139705000D01*
X158949085Y-139735799D01*
X158721162Y-139796870D01*
X158503180Y-139887160D01*
X158503171Y-139887165D01*
X158298828Y-140005144D01*
X158298818Y-140005150D01*
X158290586Y-140011468D01*
X158225417Y-140036662D01*
X158156972Y-140022623D01*
X158106982Y-139973809D01*
X158091100Y-139913092D01*
X158091100Y-138938460D01*
X158110785Y-138871421D01*
X158127414Y-138850783D01*
X159086337Y-137891860D01*
X159108918Y-137874006D01*
X159159656Y-137842712D01*
X159283712Y-137718656D01*
X159375814Y-137569334D01*
X159430999Y-137402797D01*
X159441500Y-137300009D01*
X159441500Y-137299986D01*
X160031001Y-137299986D01*
X160041494Y-137402697D01*
X160096641Y-137569119D01*
X160096643Y-137569124D01*
X160188684Y-137718345D01*
X160312654Y-137842315D01*
X160461875Y-137934356D01*
X160461880Y-137934358D01*
X160628302Y-137989505D01*
X160628309Y-137989506D01*
X160731019Y-137999999D01*
X160780999Y-137999998D01*
X160781000Y-137999998D01*
X160781000Y-137025000D01*
X160031001Y-137025000D01*
X160031001Y-137299986D01*
X159441500Y-137299986D01*
X159441499Y-136775000D01*
X159441499Y-136351700D01*
X159461183Y-136284661D01*
X159513987Y-136238906D01*
X159565499Y-136227700D01*
X159907000Y-136227700D01*
X159974039Y-136247385D01*
X160019794Y-136300189D01*
X160031000Y-136351700D01*
X160031000Y-136525000D01*
X160907000Y-136525000D01*
X160974039Y-136544685D01*
X161019794Y-136597489D01*
X161031000Y-136649000D01*
X161031000Y-136775000D01*
X161157000Y-136775000D01*
X161224039Y-136794685D01*
X161269794Y-136847489D01*
X161281000Y-136899000D01*
X161281000Y-137999999D01*
X161330972Y-137999999D01*
X161330986Y-137999998D01*
X161433697Y-137989505D01*
X161600119Y-137934358D01*
X161600124Y-137934356D01*
X161749345Y-137842315D01*
X161873318Y-137718342D01*
X161875165Y-137715348D01*
X161876969Y-137713724D01*
X161877798Y-137712677D01*
X161877976Y-137712818D01*
X161927110Y-137668621D01*
X161996073Y-137657396D01*
X162060156Y-137685236D01*
X162086243Y-137715341D01*
X162088288Y-137718656D01*
X162212344Y-137842712D01*
X162361666Y-137934814D01*
X162528203Y-137989999D01*
X162630991Y-138000500D01*
X163231008Y-138000499D01*
X163231016Y-138000498D01*
X163231019Y-138000498D01*
X163287302Y-137994748D01*
X163333797Y-137989999D01*
X163500334Y-137934814D01*
X163649656Y-137842712D01*
X163773712Y-137718656D01*
X163865814Y-137569334D01*
X163920999Y-137402797D01*
X163931500Y-137300009D01*
X163931500Y-137299986D01*
X164521001Y-137299986D01*
X164531494Y-137402697D01*
X164586641Y-137569119D01*
X164586643Y-137569124D01*
X164678684Y-137718345D01*
X164802654Y-137842315D01*
X164951875Y-137934356D01*
X164951880Y-137934358D01*
X165118302Y-137989505D01*
X165118309Y-137989506D01*
X165221019Y-137999999D01*
X165270999Y-137999998D01*
X165271000Y-137999998D01*
X165271000Y-137025000D01*
X164521001Y-137025000D01*
X164521001Y-137299986D01*
X163931500Y-137299986D01*
X163931499Y-136775000D01*
X163931499Y-136351700D01*
X163951183Y-136284661D01*
X164003987Y-136238906D01*
X164055499Y-136227700D01*
X164397000Y-136227700D01*
X164464039Y-136247385D01*
X164509794Y-136300189D01*
X164521000Y-136351700D01*
X164521000Y-136525000D01*
X165397000Y-136525000D01*
X165464039Y-136544685D01*
X165509794Y-136597489D01*
X165521000Y-136649000D01*
X165521000Y-136775000D01*
X165647000Y-136775000D01*
X165714039Y-136794685D01*
X165759794Y-136847489D01*
X165771000Y-136899000D01*
X165771000Y-137999999D01*
X165820972Y-137999999D01*
X165820986Y-137999998D01*
X165923697Y-137989505D01*
X166090119Y-137934358D01*
X166090124Y-137934356D01*
X166239345Y-137842315D01*
X166308819Y-137772842D01*
X166370142Y-137739357D01*
X166439834Y-137744341D01*
X166495767Y-137786213D01*
X166520184Y-137851677D01*
X166520500Y-137860523D01*
X166520500Y-138602396D01*
X166555103Y-138776359D01*
X166555106Y-138776370D01*
X166563029Y-138795495D01*
X166563030Y-138795500D01*
X166563031Y-138795500D01*
X166622985Y-138940245D01*
X166682063Y-139028660D01*
X166682064Y-139028661D01*
X166721534Y-139087734D01*
X166966619Y-139332819D01*
X167000104Y-139394142D01*
X166995120Y-139463834D01*
X166953248Y-139519767D01*
X166887784Y-139544184D01*
X166878938Y-139544500D01*
X165339798Y-139544500D01*
X165339781Y-139544501D01*
X165237003Y-139555000D01*
X165237000Y-139555001D01*
X165070468Y-139610185D01*
X165070463Y-139610187D01*
X164921142Y-139702289D01*
X164797089Y-139826342D01*
X164704987Y-139975663D01*
X164704985Y-139975668D01*
X164695216Y-140005150D01*
X164649801Y-140142203D01*
X164649801Y-140142204D01*
X164649800Y-140142204D01*
X164639300Y-140244983D01*
X164639300Y-140244991D01*
X164639300Y-141008830D01*
X164639301Y-141747900D01*
X164619616Y-141814939D01*
X164566813Y-141860694D01*
X164515301Y-141871900D01*
X164502241Y-141871900D01*
X164502221Y-141871899D01*
X164496107Y-141871899D01*
X164372894Y-141871899D01*
X164272097Y-141891948D01*
X164272092Y-141891948D01*
X164252049Y-141895936D01*
X164252047Y-141895936D01*
X164204897Y-141915467D01*
X164138219Y-141943085D01*
X164138217Y-141943086D01*
X164035766Y-142011541D01*
X164035763Y-142011544D01*
X162669322Y-143377987D01*
X162239769Y-143807540D01*
X162239767Y-143807542D01*
X162196358Y-143850951D01*
X162152642Y-143894666D01*
X162126289Y-143934107D01*
X162126228Y-143934199D01*
X162072699Y-143979104D01*
X162022998Y-143989500D01*
X161985298Y-143989500D01*
X161948432Y-143992401D01*
X161948426Y-143992402D01*
X161790606Y-144038254D01*
X161790603Y-144038255D01*
X161649137Y-144121917D01*
X161649129Y-144121923D01*
X161532923Y-144238129D01*
X161532917Y-144238137D01*
X161449255Y-144379603D01*
X161449254Y-144379606D01*
X161403402Y-144537426D01*
X161403401Y-144537432D01*
X161400500Y-144574298D01*
X161400500Y-145005701D01*
X161403401Y-145042567D01*
X161403402Y-145042573D01*
X161449254Y-145200393D01*
X161449255Y-145200396D01*
X161449256Y-145200398D01*
X161450324Y-145202204D01*
X161532917Y-145341862D01*
X161532923Y-145341870D01*
X161649129Y-145458076D01*
X161649133Y-145458079D01*
X161649135Y-145458081D01*
X161790602Y-145541744D01*
X161923597Y-145580383D01*
X161982480Y-145617988D01*
X162011687Y-145681460D01*
X162013000Y-145699458D01*
X162013000Y-146754811D01*
X162037035Y-146875644D01*
X162037040Y-146875661D01*
X162084185Y-146989481D01*
X162084187Y-146989485D01*
X162116830Y-147038336D01*
X162116831Y-147038338D01*
X162152643Y-147091935D01*
X162244086Y-147183378D01*
X162244108Y-147183398D01*
X162253005Y-147192295D01*
X162286490Y-147253618D01*
X162281506Y-147323310D01*
X162239634Y-147379243D01*
X162217734Y-147392355D01*
X162211676Y-147395180D01*
X162211666Y-147395185D01*
X162211666Y-147395186D01*
X162149203Y-147433713D01*
X162062342Y-147487289D01*
X161968681Y-147580951D01*
X161907358Y-147614436D01*
X161837666Y-147609452D01*
X161793319Y-147580951D01*
X161699657Y-147487289D01*
X161699656Y-147487288D01*
X161556926Y-147399252D01*
X161550336Y-147395187D01*
X161550331Y-147395185D01*
X161502221Y-147379243D01*
X161383797Y-147340001D01*
X161383795Y-147340000D01*
X161281010Y-147329500D01*
X160655998Y-147329500D01*
X160655980Y-147329501D01*
X160553203Y-147340000D01*
X160553200Y-147340001D01*
X160386668Y-147395185D01*
X160386663Y-147395187D01*
X160237342Y-147487289D01*
X160113289Y-147611342D01*
X160021187Y-147760663D01*
X160021186Y-147760666D01*
X159966001Y-147927203D01*
X159966001Y-147927204D01*
X159966000Y-147927204D01*
X159955500Y-148029983D01*
X159955500Y-149030001D01*
X159955501Y-149030019D01*
X159966000Y-149132796D01*
X159966001Y-149132799D01*
X159978634Y-149170921D01*
X160021186Y-149299334D01*
X160113288Y-149448656D01*
X160237344Y-149572712D01*
X160386666Y-149664814D01*
X160553203Y-149719999D01*
X160655991Y-149730500D01*
X161281008Y-149730499D01*
X161281016Y-149730498D01*
X161281019Y-149730498D01*
X161337302Y-149724748D01*
X161383797Y-149719999D01*
X161550334Y-149664814D01*
X161699656Y-149572712D01*
X161793319Y-149479049D01*
X161854642Y-149445564D01*
X161924334Y-149450548D01*
X161968681Y-149479049D01*
X162062344Y-149572712D01*
X162211666Y-149664814D01*
X162378203Y-149719999D01*
X162480991Y-149730500D01*
X162951700Y-149730499D01*
X163018739Y-149750183D01*
X163064494Y-149802987D01*
X163075700Y-149854499D01*
X163075700Y-150933011D01*
X163099735Y-151053844D01*
X163099740Y-151053861D01*
X163146885Y-151167680D01*
X163146887Y-151167683D01*
X163146888Y-151167686D01*
X163166687Y-151197317D01*
X163181114Y-151218907D01*
X163181115Y-151218909D01*
X163215341Y-151270133D01*
X163306786Y-151361578D01*
X163306808Y-151361598D01*
X164553616Y-152608406D01*
X164553645Y-152608437D01*
X164643864Y-152698656D01*
X164643867Y-152698658D01*
X164676553Y-152720498D01*
X164676555Y-152720499D01*
X164676554Y-152720499D01*
X164678761Y-152721973D01*
X164682366Y-152724382D01*
X164727173Y-152777991D01*
X164735884Y-152847315D01*
X164719019Y-152892583D01*
X164646189Y-153010659D01*
X164646186Y-153010666D01*
X164591001Y-153177203D01*
X164591001Y-153177204D01*
X164591000Y-153177204D01*
X164580500Y-153279983D01*
X164580500Y-154280001D01*
X164580501Y-154280019D01*
X164591000Y-154382796D01*
X164591001Y-154382799D01*
X164646185Y-154549331D01*
X164646187Y-154549336D01*
X164663569Y-154577517D01*
X164738288Y-154698656D01*
X164862344Y-154822712D01*
X165011666Y-154914814D01*
X165178203Y-154969999D01*
X165280991Y-154980500D01*
X165906008Y-154980499D01*
X165906016Y-154980498D01*
X165906019Y-154980498D01*
X165962302Y-154974748D01*
X166008797Y-154969999D01*
X166175334Y-154914814D01*
X166324656Y-154822712D01*
X166418319Y-154729049D01*
X166479642Y-154695564D01*
X166549334Y-154700548D01*
X166593681Y-154729049D01*
X166687344Y-154822712D01*
X166836666Y-154914814D01*
X167003203Y-154969999D01*
X167105991Y-154980500D01*
X167731008Y-154980499D01*
X167731016Y-154980498D01*
X167731019Y-154980498D01*
X167787302Y-154974748D01*
X167833797Y-154969999D01*
X168000334Y-154914814D01*
X168149656Y-154822712D01*
X168273712Y-154698656D01*
X168365814Y-154549334D01*
X168420999Y-154382797D01*
X168431500Y-154280009D01*
X168431499Y-153279992D01*
X168428828Y-153253848D01*
X168420999Y-153177203D01*
X168420998Y-153177200D01*
X168365814Y-153010666D01*
X168365813Y-153010664D01*
X168363542Y-153003811D01*
X168365922Y-153003022D01*
X168357205Y-152945626D01*
X168385726Y-152881842D01*
X168444203Y-152843603D01*
X168480079Y-152838300D01*
X171672307Y-152838300D01*
X171732729Y-152826281D01*
X171793152Y-152814263D01*
X171852247Y-152789785D01*
X171906986Y-152767112D01*
X171976744Y-152720500D01*
X172009433Y-152698658D01*
X172096558Y-152611533D01*
X172096559Y-152611531D01*
X172103625Y-152604465D01*
X172103627Y-152604461D01*
X172122973Y-152585115D01*
X172184297Y-152551633D01*
X172210652Y-152548800D01*
X174875836Y-152548800D01*
X174942875Y-152568485D01*
X174988630Y-152621289D01*
X174998308Y-152653399D01*
X175005477Y-152698658D01*
X175019909Y-152789782D01*
X175019910Y-152789784D01*
X175019910Y-152789785D01*
X175097759Y-153029379D01*
X175187250Y-153205016D01*
X175212132Y-153253848D01*
X175360201Y-153457649D01*
X175360205Y-153457654D01*
X175538345Y-153635794D01*
X175538350Y-153635798D01*
X175662015Y-153725645D01*
X175742155Y-153783870D01*
X175885184Y-153856747D01*
X175966616Y-153898239D01*
X175966618Y-153898239D01*
X175966621Y-153898241D01*
X176206215Y-153976090D01*
X176455038Y-154015500D01*
X176455039Y-154015500D01*
X176706961Y-154015500D01*
X176706962Y-154015500D01*
X176955785Y-153976090D01*
X177195379Y-153898241D01*
X177419845Y-153783870D01*
X177499985Y-153725645D01*
X177558415Y-153683194D01*
X177624221Y-153659714D01*
X177692275Y-153675540D01*
X177740970Y-153725645D01*
X177755300Y-153783512D01*
X177755300Y-158603537D01*
X177735615Y-158670576D01*
X177718981Y-158691218D01*
X175881538Y-160528660D01*
X175881537Y-160528661D01*
X175842064Y-160587739D01*
X175842063Y-160587740D01*
X175782985Y-160676155D01*
X175749046Y-160758093D01*
X175715106Y-160840029D01*
X175715104Y-160840036D01*
X175706383Y-160883878D01*
X175673997Y-160945788D01*
X175613280Y-160980361D01*
X175597373Y-160983041D01*
X175578211Y-160984999D01*
X175578203Y-160985000D01*
X175578202Y-160985001D01*
X175495669Y-161012349D01*
X175411667Y-161040185D01*
X175411662Y-161040187D01*
X175262342Y-161132289D01*
X175138289Y-161256342D01*
X175046187Y-161405662D01*
X175046186Y-161405665D01*
X174991001Y-161572202D01*
X174991001Y-161572203D01*
X174991000Y-161572203D01*
X174980500Y-161674982D01*
X174980500Y-163475017D01*
X174991000Y-163577796D01*
X174991001Y-163577798D01*
X175046186Y-163744335D01*
X175138288Y-163893656D01*
X175262344Y-164017712D01*
X175411665Y-164109814D01*
X175578202Y-164164999D01*
X175680990Y-164175500D01*
X175680995Y-164175500D01*
X177481005Y-164175500D01*
X177481010Y-164175500D01*
X177583798Y-164164999D01*
X177750335Y-164109814D01*
X177899656Y-164017712D01*
X178023712Y-163893656D01*
X178115814Y-163744335D01*
X178170999Y-163577798D01*
X178181500Y-163475010D01*
X178181500Y-161674990D01*
X178170999Y-161572202D01*
X178115814Y-161405665D01*
X178023712Y-161256344D01*
X177949964Y-161182596D01*
X177916479Y-161121273D01*
X177921463Y-161051581D01*
X177949962Y-161007236D01*
X179355263Y-159601936D01*
X179355264Y-159601935D01*
X179453813Y-159454447D01*
X179521694Y-159290566D01*
X179526780Y-159265000D01*
X179556299Y-159116595D01*
X179556300Y-159116593D01*
X179556300Y-158491240D01*
X179575985Y-158424201D01*
X179628789Y-158378446D01*
X179697947Y-158368502D01*
X179761503Y-158397527D01*
X179790785Y-158434945D01*
X179886375Y-158622550D01*
X179925728Y-158676716D01*
X180558037Y-158044408D01*
X180575075Y-158107993D01*
X180640901Y-158222007D01*
X180733993Y-158315099D01*
X180848007Y-158380925D01*
X180911590Y-158397962D01*
X180279282Y-159030269D01*
X180279282Y-159030270D01*
X180333449Y-159069624D01*
X180522782Y-159166095D01*
X180724870Y-159231757D01*
X180934754Y-159265000D01*
X181147246Y-159265000D01*
X181357127Y-159231757D01*
X181357130Y-159231757D01*
X181559217Y-159166095D01*
X181748554Y-159069622D01*
X181802716Y-159030270D01*
X181802717Y-159030270D01*
X181170408Y-158397962D01*
X181233993Y-158380925D01*
X181348007Y-158315099D01*
X181441099Y-158222007D01*
X181506925Y-158107993D01*
X181523962Y-158044408D01*
X182156270Y-158676717D01*
X182156270Y-158676716D01*
X182195622Y-158622554D01*
X182292095Y-158433217D01*
X182357757Y-158231130D01*
X182357757Y-158231127D01*
X182391000Y-158021246D01*
X182391000Y-157808753D01*
X182357757Y-157598872D01*
X182357757Y-157598869D01*
X182292095Y-157396782D01*
X182195624Y-157207449D01*
X182156270Y-157153282D01*
X182156269Y-157153282D01*
X181523962Y-157785590D01*
X181506925Y-157722007D01*
X181441099Y-157607993D01*
X181348007Y-157514901D01*
X181233993Y-157449075D01*
X181170409Y-157432037D01*
X181802716Y-156799728D01*
X181748547Y-156760373D01*
X181748547Y-156760372D01*
X181739500Y-156755763D01*
X181688706Y-156707788D01*
X181671912Y-156639966D01*
X181694451Y-156573832D01*
X181739508Y-156534793D01*
X181748816Y-156530051D01*
X181828007Y-156472515D01*
X181920786Y-156405109D01*
X181920788Y-156405106D01*
X181920792Y-156405104D01*
X182071104Y-156254792D01*
X182071106Y-156254788D01*
X182071109Y-156254786D01*
X182196048Y-156082820D01*
X182196047Y-156082820D01*
X182196051Y-156082816D01*
X182292557Y-155893412D01*
X182358246Y-155691243D01*
X182391500Y-155481287D01*
X182391500Y-155268713D01*
X182358246Y-155058757D01*
X182292557Y-154856588D01*
X182196051Y-154667184D01*
X182196049Y-154667181D01*
X182196048Y-154667179D01*
X182071109Y-154495213D01*
X181957569Y-154381673D01*
X181924084Y-154320350D01*
X181929068Y-154250658D01*
X181970940Y-154194725D01*
X182001915Y-154177810D01*
X182133331Y-154128796D01*
X182248546Y-154042546D01*
X182334796Y-153927331D01*
X182385091Y-153792483D01*
X182391500Y-153732873D01*
X182391499Y-151937128D01*
X182385091Y-151877517D01*
X182381083Y-151866772D01*
X182334797Y-151742671D01*
X182334793Y-151742664D01*
X182248547Y-151627455D01*
X182248544Y-151627452D01*
X182133335Y-151541206D01*
X182133328Y-151541202D01*
X181998482Y-151490908D01*
X181998483Y-151490908D01*
X181938883Y-151484501D01*
X181938881Y-151484500D01*
X181938873Y-151484500D01*
X181938865Y-151484500D01*
X181130261Y-151484500D01*
X181063222Y-151464815D01*
X181017467Y-151412011D01*
X181007523Y-151342853D01*
X181036548Y-151279297D01*
X181042580Y-151272819D01*
X181560417Y-150754983D01*
X182685500Y-150754983D01*
X182685500Y-151380001D01*
X182685501Y-151380019D01*
X182696000Y-151482796D01*
X182696001Y-151482799D01*
X182751185Y-151649331D01*
X182751187Y-151649336D01*
X182779353Y-151695001D01*
X182842759Y-151797799D01*
X182843289Y-151798657D01*
X182936951Y-151892319D01*
X182970436Y-151953642D01*
X182965452Y-152023334D01*
X182936951Y-152067681D01*
X182843289Y-152161342D01*
X182751187Y-152310663D01*
X182751185Y-152310668D01*
X182726555Y-152384998D01*
X182696001Y-152477203D01*
X182696001Y-152477204D01*
X182696000Y-152477204D01*
X182685500Y-152579983D01*
X182685500Y-153205001D01*
X182685501Y-153205019D01*
X182696000Y-153307796D01*
X182696001Y-153307799D01*
X182745657Y-153457649D01*
X182751186Y-153474334D01*
X182843288Y-153623656D01*
X182967344Y-153747712D01*
X183116666Y-153839814D01*
X183283203Y-153894999D01*
X183385991Y-153905500D01*
X184386008Y-153905499D01*
X184386016Y-153905498D01*
X184386019Y-153905498D01*
X184442302Y-153899748D01*
X184488797Y-153894999D01*
X184655334Y-153839814D01*
X184804656Y-153747712D01*
X184928712Y-153623656D01*
X185020814Y-153474334D01*
X185075999Y-153307797D01*
X185086500Y-153205009D01*
X185086499Y-152579992D01*
X185075999Y-152477203D01*
X185020814Y-152310666D01*
X184928712Y-152161344D01*
X184835049Y-152067681D01*
X184801564Y-152006358D01*
X184806548Y-151936666D01*
X184835049Y-151892319D01*
X184860596Y-151866772D01*
X184928712Y-151798656D01*
X185020814Y-151649334D01*
X185075999Y-151482797D01*
X185086500Y-151380009D01*
X185086499Y-150754992D01*
X185086057Y-150750668D01*
X185075999Y-150652203D01*
X185075998Y-150652200D01*
X185062780Y-150612310D01*
X185020814Y-150485666D01*
X184928712Y-150336344D01*
X184804656Y-150212288D01*
X184655334Y-150120186D01*
X184488797Y-150065001D01*
X184488795Y-150065000D01*
X184386010Y-150054500D01*
X183385998Y-150054500D01*
X183385980Y-150054501D01*
X183283203Y-150065000D01*
X183283200Y-150065001D01*
X183116668Y-150120185D01*
X183116663Y-150120187D01*
X182967342Y-150212289D01*
X182843289Y-150336342D01*
X182751187Y-150485663D01*
X182751185Y-150485668D01*
X182748096Y-150494991D01*
X182696001Y-150652203D01*
X182696001Y-150652204D01*
X182696000Y-150652204D01*
X182685500Y-150754983D01*
X181560417Y-150754983D01*
X181651247Y-150664153D01*
X182527662Y-149787738D01*
X182527662Y-149787737D01*
X182527664Y-149787736D01*
X182589049Y-149695866D01*
X182626213Y-149640247D01*
X182674132Y-149524558D01*
X182717972Y-149470155D01*
X182784266Y-149448090D01*
X182851966Y-149465369D01*
X182861578Y-149471693D01*
X182930674Y-149521893D01*
X182979390Y-149557287D01*
X183095607Y-149616503D01*
X183161776Y-149650218D01*
X183161778Y-149650218D01*
X183161781Y-149650220D01*
X183206691Y-149664812D01*
X183356465Y-149713477D01*
X183457557Y-149729488D01*
X183558648Y-149745500D01*
X183558649Y-149745500D01*
X183763351Y-149745500D01*
X183763352Y-149745500D01*
X183965534Y-149713477D01*
X184160219Y-149650220D01*
X184342610Y-149557287D01*
X184462538Y-149470155D01*
X184508213Y-149436971D01*
X184508215Y-149436968D01*
X184508219Y-149436966D01*
X184652966Y-149292219D01*
X184652968Y-149292215D01*
X184652971Y-149292213D01*
X184714188Y-149207953D01*
X184773287Y-149126610D01*
X184866220Y-148944219D01*
X184929477Y-148749534D01*
X184961500Y-148547352D01*
X184961500Y-148342648D01*
X184946847Y-148250135D01*
X184928715Y-148135654D01*
X184930777Y-148135327D01*
X184933784Y-148074304D01*
X184963215Y-148027373D01*
X185287929Y-147702660D01*
X185287933Y-147702658D01*
X185375058Y-147615533D01*
X185403174Y-147573455D01*
X185422520Y-147544502D01*
X185422521Y-147544501D01*
X185443509Y-147513090D01*
X185443512Y-147513086D01*
X185490663Y-147399251D01*
X185514700Y-147278407D01*
X185514700Y-147155193D01*
X185514700Y-145277194D01*
X185490663Y-145156348D01*
X185459468Y-145081037D01*
X185443512Y-145042515D01*
X185438935Y-145035666D01*
X185426457Y-145016991D01*
X185426456Y-145016990D01*
X185375058Y-144940067D01*
X185375056Y-144940064D01*
X185284837Y-144849845D01*
X185284806Y-144849816D01*
X183720998Y-143286008D01*
X183720978Y-143285986D01*
X183719414Y-143284422D01*
X183719187Y-143284007D01*
X183712708Y-143276848D01*
X183712699Y-143276837D01*
X183714477Y-143275381D01*
X183685929Y-143223099D01*
X183690913Y-143153407D01*
X183732785Y-143097474D01*
X183750801Y-143086256D01*
X183767169Y-143077916D01*
X183850104Y-143017658D01*
X183850105Y-143017658D01*
X183151233Y-142318787D01*
X183193292Y-142307518D01*
X183318708Y-142235110D01*
X183421110Y-142132708D01*
X183493518Y-142007292D01*
X183504787Y-141965233D01*
X184203658Y-142664105D01*
X184203658Y-142664104D01*
X184263914Y-142581169D01*
X184263918Y-142581163D01*
X184371102Y-142370802D01*
X184444065Y-142146247D01*
X184481000Y-141913052D01*
X184481000Y-141676947D01*
X184444065Y-141443752D01*
X184371102Y-141219197D01*
X184263914Y-141008828D01*
X184203658Y-140925894D01*
X184203658Y-140925893D01*
X183504787Y-141624765D01*
X183493518Y-141582708D01*
X183421110Y-141457292D01*
X183318708Y-141354890D01*
X183193292Y-141282482D01*
X183151234Y-141271212D01*
X183850105Y-140572340D01*
X183850104Y-140572338D01*
X183767174Y-140512087D01*
X183556802Y-140404897D01*
X183332247Y-140331934D01*
X183332248Y-140331934D01*
X183099052Y-140295000D01*
X182862948Y-140295000D01*
X182629752Y-140331934D01*
X182405197Y-140404897D01*
X182194830Y-140512084D01*
X182111894Y-140572340D01*
X182810766Y-141271212D01*
X182768708Y-141282482D01*
X182643292Y-141354890D01*
X182540890Y-141457292D01*
X182468482Y-141582708D01*
X182457212Y-141624765D01*
X181758340Y-140925894D01*
X181698084Y-141008830D01*
X181590897Y-141219197D01*
X181517934Y-141443752D01*
X181481000Y-141676947D01*
X181481000Y-141913052D01*
X181517934Y-142146247D01*
X181590897Y-142370802D01*
X181698087Y-142581174D01*
X181758338Y-142664104D01*
X181758340Y-142664105D01*
X182457212Y-141965233D01*
X182468482Y-142007292D01*
X182540890Y-142132708D01*
X182643292Y-142235110D01*
X182768708Y-142307518D01*
X182810766Y-142318787D01*
X182110971Y-143018581D01*
X182049648Y-143052066D01*
X182023290Y-143054900D01*
X177438709Y-143054900D01*
X177371670Y-143035215D01*
X177351028Y-143018581D01*
X176651233Y-142318787D01*
X176693292Y-142307518D01*
X176818708Y-142235110D01*
X176921110Y-142132708D01*
X176993518Y-142007292D01*
X177004787Y-141965234D01*
X177703658Y-142664105D01*
X177703658Y-142664104D01*
X177763914Y-142581169D01*
X177763918Y-142581163D01*
X177871102Y-142370802D01*
X177944065Y-142146247D01*
X177981000Y-141913052D01*
X177981000Y-141676947D01*
X177944065Y-141443752D01*
X177871102Y-141219197D01*
X177763914Y-141008828D01*
X177703658Y-140925894D01*
X177703658Y-140925893D01*
X177004787Y-141624765D01*
X176993518Y-141582708D01*
X176921110Y-141457292D01*
X176818708Y-141354890D01*
X176693292Y-141282482D01*
X176651234Y-141271212D01*
X177350105Y-140572340D01*
X177350104Y-140572339D01*
X177267174Y-140512087D01*
X177056802Y-140404897D01*
X176832247Y-140331934D01*
X176832248Y-140331934D01*
X176599052Y-140295000D01*
X176362948Y-140295000D01*
X176129752Y-140331934D01*
X175905197Y-140404897D01*
X175694830Y-140512084D01*
X175611894Y-140572340D01*
X176310766Y-141271212D01*
X176268708Y-141282482D01*
X176143292Y-141354890D01*
X176040890Y-141457292D01*
X175968482Y-141582708D01*
X175957212Y-141624765D01*
X175258340Y-140925894D01*
X175198084Y-141008830D01*
X175090897Y-141219197D01*
X175017934Y-141443752D01*
X174981000Y-141676947D01*
X174981000Y-141913052D01*
X175017934Y-142146247D01*
X175090897Y-142370802D01*
X175198087Y-142581174D01*
X175258338Y-142664104D01*
X175258340Y-142664105D01*
X175957212Y-141965233D01*
X175968482Y-142007292D01*
X176040890Y-142132708D01*
X176143292Y-142235110D01*
X176268708Y-142307518D01*
X176310766Y-142318787D01*
X175610971Y-143018581D01*
X175549648Y-143052066D01*
X175523290Y-143054900D01*
X173737052Y-143054900D01*
X173670013Y-143035215D01*
X173649371Y-143018581D01*
X173210298Y-142579508D01*
X173210278Y-142579486D01*
X173118836Y-142488044D01*
X173118828Y-142488038D01*
X173059112Y-142448137D01*
X173059110Y-142448136D01*
X173016386Y-142419588D01*
X173016384Y-142419587D01*
X173016378Y-142419584D01*
X172994171Y-142410385D01*
X172939768Y-142366544D01*
X172917704Y-142300249D01*
X172934984Y-142232550D01*
X172953940Y-142208148D01*
X173032929Y-142129160D01*
X173032933Y-142129158D01*
X173120058Y-142042033D01*
X173183025Y-141947797D01*
X173188512Y-141939585D01*
X173235663Y-141825751D01*
X173236382Y-141822139D01*
X173259700Y-141704906D01*
X173259700Y-140401152D01*
X173279385Y-140334113D01*
X173296019Y-140313471D01*
X174078055Y-139531436D01*
X174078055Y-139531435D01*
X174078058Y-139531433D01*
X174146512Y-139428985D01*
X174193663Y-139315151D01*
X174217701Y-139194306D01*
X174217701Y-139071093D01*
X174217701Y-139065983D01*
X174217700Y-139065957D01*
X174217700Y-137176902D01*
X174980500Y-137176902D01*
X174980500Y-137413097D01*
X175017446Y-137646368D01*
X175090433Y-137870996D01*
X175192912Y-138072120D01*
X175197657Y-138081433D01*
X175336483Y-138272510D01*
X175503490Y-138439517D01*
X175694567Y-138578343D01*
X175741766Y-138602392D01*
X175905003Y-138685566D01*
X175905005Y-138685566D01*
X175905008Y-138685568D01*
X176025412Y-138724689D01*
X176129631Y-138758553D01*
X176362903Y-138795500D01*
X176362908Y-138795500D01*
X176599097Y-138795500D01*
X176832368Y-138758553D01*
X177056992Y-138685568D01*
X177267433Y-138578343D01*
X177458510Y-138439517D01*
X177625517Y-138272510D01*
X177764343Y-138081433D01*
X177805765Y-138000137D01*
X177811845Y-137988205D01*
X177859820Y-137937409D01*
X177922330Y-137920500D01*
X181539670Y-137920500D01*
X181606709Y-137940185D01*
X181650155Y-137988205D01*
X181656301Y-138000267D01*
X181697657Y-138081433D01*
X181836483Y-138272510D01*
X182003490Y-138439517D01*
X182194567Y-138578343D01*
X182241766Y-138602392D01*
X182405003Y-138685566D01*
X182405005Y-138685566D01*
X182405008Y-138685568D01*
X182525412Y-138724689D01*
X182629631Y-138758553D01*
X182862903Y-138795500D01*
X182862908Y-138795500D01*
X183099097Y-138795500D01*
X183332368Y-138758553D01*
X183556992Y-138685568D01*
X183767433Y-138578343D01*
X183958510Y-138439517D01*
X184125517Y-138272510D01*
X184264343Y-138081433D01*
X184371568Y-137870992D01*
X184444553Y-137646368D01*
X184456754Y-137569334D01*
X184481500Y-137413097D01*
X184481500Y-137176902D01*
X184444553Y-136943631D01*
X184371566Y-136719003D01*
X184269632Y-136518948D01*
X184264343Y-136508567D01*
X184125517Y-136317490D01*
X183958510Y-136150483D01*
X183767433Y-136011657D01*
X183706604Y-135980663D01*
X183556996Y-135904433D01*
X183332368Y-135831446D01*
X183099097Y-135794500D01*
X183099092Y-135794500D01*
X182862908Y-135794500D01*
X182862903Y-135794500D01*
X182629631Y-135831446D01*
X182405003Y-135904433D01*
X182194566Y-136011657D01*
X182085550Y-136090862D01*
X182003490Y-136150483D01*
X182003488Y-136150485D01*
X182003487Y-136150485D01*
X181836485Y-136317487D01*
X181836485Y-136317488D01*
X181836483Y-136317490D01*
X181811628Y-136351700D01*
X181697657Y-136508566D01*
X181650155Y-136601795D01*
X181602180Y-136652591D01*
X181539670Y-136669500D01*
X177922330Y-136669500D01*
X177855291Y-136649815D01*
X177811845Y-136601795D01*
X177769632Y-136518948D01*
X177764343Y-136508567D01*
X177625517Y-136317490D01*
X177458510Y-136150483D01*
X177267433Y-136011657D01*
X177206604Y-135980663D01*
X177056996Y-135904433D01*
X176832368Y-135831446D01*
X176599097Y-135794500D01*
X176599092Y-135794500D01*
X176362908Y-135794500D01*
X176362903Y-135794500D01*
X176129631Y-135831446D01*
X175905003Y-135904433D01*
X175694566Y-136011657D01*
X175585550Y-136090862D01*
X175503490Y-136150483D01*
X175503488Y-136150485D01*
X175503487Y-136150485D01*
X175336485Y-136317487D01*
X175336485Y-136317488D01*
X175336483Y-136317490D01*
X175311628Y-136351700D01*
X175197657Y-136508566D01*
X175090433Y-136719003D01*
X175017446Y-136943631D01*
X174980500Y-137176902D01*
X174217700Y-137176902D01*
X174217700Y-136639793D01*
X174217699Y-136639789D01*
X174195430Y-136527834D01*
X174193663Y-136518948D01*
X174146511Y-136405114D01*
X174146510Y-136405113D01*
X174146507Y-136405107D01*
X174078059Y-136302668D01*
X174060052Y-136284661D01*
X173990933Y-136215542D01*
X173990932Y-136215541D01*
X170975327Y-133199937D01*
X170975325Y-133199934D01*
X170975325Y-133199935D01*
X170968258Y-133192868D01*
X170968258Y-133192867D01*
X170881133Y-133105742D01*
X170881132Y-133105741D01*
X170881131Y-133105740D01*
X170829909Y-133071515D01*
X170778687Y-133037289D01*
X170778686Y-133037288D01*
X170778683Y-133037286D01*
X170778680Y-133037285D01*
X170698192Y-133003947D01*
X170664853Y-132990137D01*
X170654827Y-132988143D01*
X170604429Y-132978118D01*
X170544010Y-132966100D01*
X170544007Y-132966100D01*
X170544006Y-132966100D01*
X150130000Y-132966100D01*
X150062961Y-132946415D01*
X150017206Y-132893611D01*
X150006000Y-132842100D01*
X150006000Y-114946853D01*
X157377600Y-114946853D01*
X157377600Y-115104546D01*
X157408361Y-115259189D01*
X157408364Y-115259201D01*
X157468702Y-115404872D01*
X157468709Y-115404885D01*
X157556310Y-115535988D01*
X157556313Y-115535992D01*
X157667807Y-115647486D01*
X157667811Y-115647489D01*
X157798914Y-115735090D01*
X157798927Y-115735097D01*
X157886330Y-115771299D01*
X157944603Y-115795437D01*
X158055816Y-115817558D01*
X158117723Y-115849941D01*
X158119303Y-115851493D01*
X165569116Y-123301306D01*
X165569145Y-123301337D01*
X165659364Y-123391556D01*
X165659367Y-123391558D01*
X165736290Y-123442956D01*
X165761810Y-123460009D01*
X165761813Y-123460011D01*
X165761815Y-123460012D01*
X165815537Y-123482264D01*
X165815538Y-123482265D01*
X165848411Y-123495881D01*
X165875648Y-123507163D01*
X165936071Y-123519181D01*
X165996493Y-123531200D01*
X165996494Y-123531200D01*
X166034000Y-123531200D01*
X166101039Y-123550885D01*
X166102891Y-123552098D01*
X166197314Y-123615190D01*
X166197327Y-123615197D01*
X166342998Y-123675535D01*
X166343003Y-123675537D01*
X166497653Y-123706299D01*
X166497656Y-123706300D01*
X166497658Y-123706300D01*
X166655344Y-123706300D01*
X166655345Y-123706299D01*
X166809997Y-123675537D01*
X166955679Y-123615194D01*
X167086789Y-123527589D01*
X167198289Y-123416089D01*
X167285894Y-123284979D01*
X167346237Y-123139297D01*
X167377000Y-122984642D01*
X167377000Y-122826958D01*
X167377000Y-122826955D01*
X167376999Y-122826953D01*
X167346238Y-122672310D01*
X167346237Y-122672303D01*
X167346235Y-122672298D01*
X167285897Y-122526627D01*
X167285890Y-122526614D01*
X167198289Y-122395511D01*
X167198286Y-122395507D01*
X167086792Y-122284013D01*
X167086788Y-122284010D01*
X166955685Y-122196409D01*
X166955672Y-122196402D01*
X166810001Y-122136064D01*
X166809989Y-122136061D01*
X166655345Y-122105300D01*
X166655342Y-122105300D01*
X166497658Y-122105300D01*
X166497655Y-122105300D01*
X166343005Y-122136061D01*
X166342997Y-122136064D01*
X166299373Y-122154133D01*
X166229903Y-122161600D01*
X166167425Y-122130324D01*
X166164242Y-122127252D01*
X159003893Y-114966903D01*
X158970408Y-114905580D01*
X158969987Y-114903564D01*
X158947837Y-114792203D01*
X158923699Y-114733930D01*
X158887497Y-114646527D01*
X158887490Y-114646514D01*
X158799889Y-114515411D01*
X158799886Y-114515407D01*
X158688392Y-114403913D01*
X158688388Y-114403910D01*
X158557285Y-114316309D01*
X158557272Y-114316302D01*
X158411601Y-114255964D01*
X158411589Y-114255961D01*
X158256945Y-114225200D01*
X158256942Y-114225200D01*
X158099258Y-114225200D01*
X158099255Y-114225200D01*
X157944610Y-114255961D01*
X157944598Y-114255964D01*
X157798927Y-114316302D01*
X157798914Y-114316309D01*
X157667811Y-114403910D01*
X157667807Y-114403913D01*
X157556313Y-114515407D01*
X157556310Y-114515411D01*
X157468709Y-114646514D01*
X157468702Y-114646527D01*
X157408364Y-114792198D01*
X157408361Y-114792210D01*
X157377600Y-114946853D01*
X150006000Y-114946853D01*
X150006000Y-81124000D01*
X150025685Y-81056961D01*
X150078489Y-81011206D01*
X150130000Y-81000000D01*
X187149904Y-81000000D01*
X187216943Y-81019685D01*
G37*
%TD.AperFunction*%
%TA.AperFunction,Conductor*%
G36*
X179761503Y-155858628D02*
G01*
X179790785Y-155896046D01*
X179885951Y-156082820D01*
X180010890Y-156254786D01*
X180161213Y-156405109D01*
X180333179Y-156530048D01*
X180333181Y-156530049D01*
X180333184Y-156530051D01*
X180342493Y-156534794D01*
X180393290Y-156582766D01*
X180410087Y-156650587D01*
X180387552Y-156716722D01*
X180342505Y-156755760D01*
X180333446Y-156760376D01*
X180333440Y-156760380D01*
X180279282Y-156799727D01*
X180279282Y-156799728D01*
X180911591Y-157432037D01*
X180848007Y-157449075D01*
X180733993Y-157514901D01*
X180640901Y-157607993D01*
X180575075Y-157722007D01*
X180558037Y-157785591D01*
X179925728Y-157153282D01*
X179925727Y-157153282D01*
X179886380Y-157207440D01*
X179886378Y-157207443D01*
X179790784Y-157395055D01*
X179742810Y-157445850D01*
X179674989Y-157462645D01*
X179608854Y-157440107D01*
X179565403Y-157385392D01*
X179556300Y-157338759D01*
X179556300Y-155952341D01*
X179575985Y-155885302D01*
X179628789Y-155839547D01*
X179697947Y-155829603D01*
X179761503Y-155858628D01*
G37*
%TD.AperFunction*%
%TA.AperFunction,Conductor*%
G36*
X173294213Y-144291820D02*
G01*
X173304571Y-144293881D01*
X173364993Y-144305900D01*
X173364994Y-144305900D01*
X182920348Y-144305900D01*
X182987387Y-144325585D01*
X183008029Y-144342219D01*
X183176113Y-144510303D01*
X183209598Y-144571626D01*
X183204614Y-144641318D01*
X183162742Y-144697251D01*
X183144727Y-144708469D01*
X182979386Y-144792715D01*
X182813786Y-144913028D01*
X182669028Y-145057786D01*
X182548715Y-145223386D01*
X182455781Y-145405776D01*
X182392522Y-145600465D01*
X182360500Y-145802648D01*
X182360500Y-145880637D01*
X182340815Y-145947676D01*
X182324181Y-145968318D01*
X181128740Y-147163758D01*
X181128737Y-147163761D01*
X181100850Y-147205499D01*
X181030190Y-147311247D01*
X181030183Y-147311259D01*
X181011169Y-147357166D01*
X181011169Y-147357167D01*
X180962305Y-147475133D01*
X180962304Y-147475138D01*
X180928122Y-147646981D01*
X180928123Y-147646982D01*
X180927700Y-147649107D01*
X180927700Y-148789337D01*
X180908015Y-148856376D01*
X180891381Y-148877018D01*
X178152363Y-151616035D01*
X178091040Y-151649520D01*
X178021348Y-151644536D01*
X177965415Y-151602664D01*
X177954195Y-151584644D01*
X177949868Y-151576152D01*
X177801798Y-151372350D01*
X177801794Y-151372345D01*
X177623654Y-151194205D01*
X177623649Y-151194201D01*
X177419848Y-151046132D01*
X177419847Y-151046131D01*
X177419845Y-151046130D01*
X177323995Y-150997292D01*
X177195383Y-150931760D01*
X176955785Y-150853910D01*
X176927272Y-150849394D01*
X176706962Y-150814500D01*
X176455038Y-150814500D01*
X176330626Y-150834205D01*
X176206214Y-150853910D01*
X175966616Y-150931760D01*
X175742151Y-151046132D01*
X175538350Y-151194201D01*
X175538345Y-151194205D01*
X175471070Y-151261481D01*
X175409747Y-151294966D01*
X175383389Y-151297800D01*
X172723600Y-151297800D01*
X172656561Y-151278115D01*
X172610806Y-151225311D01*
X172600862Y-151156153D01*
X172601127Y-151154402D01*
X172610536Y-151095001D01*
X172634000Y-150946854D01*
X172634000Y-150623146D01*
X172598222Y-150397255D01*
X172598221Y-150397251D01*
X172598221Y-150397250D01*
X172527549Y-150179744D01*
X172474863Y-150076342D01*
X172423717Y-149975962D01*
X172289286Y-149790934D01*
X172127566Y-149629214D01*
X171942538Y-149494783D01*
X171850898Y-149448090D01*
X171738755Y-149390950D01*
X171521248Y-149320278D01*
X171335812Y-149290908D01*
X171295354Y-149284500D01*
X171066646Y-149284500D01*
X171026188Y-149290908D01*
X170840753Y-149320278D01*
X170840750Y-149320278D01*
X170623244Y-149390950D01*
X170419461Y-149494783D01*
X170353550Y-149542671D01*
X170234434Y-149629214D01*
X170234432Y-149629216D01*
X170234431Y-149629216D01*
X170072716Y-149790931D01*
X170072709Y-149790940D01*
X170011007Y-149875864D01*
X169955677Y-149918530D01*
X169886063Y-149924508D01*
X169824269Y-149891901D01*
X169810372Y-149875863D01*
X169748907Y-149791263D01*
X169748902Y-149791257D01*
X169587242Y-149629597D01*
X169402276Y-149495211D01*
X169198568Y-149391417D01*
X168981124Y-149320765D01*
X168891000Y-149306490D01*
X168891000Y-150294252D01*
X168853292Y-150272482D01*
X168713409Y-150235000D01*
X168568591Y-150235000D01*
X168428708Y-150272482D01*
X168391000Y-150294252D01*
X168391000Y-149306490D01*
X168390999Y-149306490D01*
X168300875Y-149320765D01*
X168083431Y-149391417D01*
X167879719Y-149495213D01*
X167696939Y-149628010D01*
X167631132Y-149651490D01*
X167563079Y-149635664D01*
X167514384Y-149585558D01*
X167507875Y-149571033D01*
X167497296Y-149542669D01*
X167497295Y-149542667D01*
X167497293Y-149542664D01*
X167411047Y-149427455D01*
X167411044Y-149427452D01*
X167299932Y-149344273D01*
X167258061Y-149288339D01*
X167253077Y-149218648D01*
X167286560Y-149157328D01*
X169673976Y-146769913D01*
X169735297Y-146736430D01*
X169804989Y-146741414D01*
X169843191Y-146765966D01*
X169843801Y-146765224D01*
X169848511Y-146769089D01*
X169979614Y-146856690D01*
X169979627Y-146856697D01*
X170125298Y-146917035D01*
X170125303Y-146917037D01*
X170279953Y-146947799D01*
X170279956Y-146947800D01*
X170279958Y-146947800D01*
X170437644Y-146947800D01*
X170437645Y-146947799D01*
X170592297Y-146917037D01*
X170737979Y-146856694D01*
X170832259Y-146793698D01*
X170898936Y-146772820D01*
X170901150Y-146772800D01*
X171592807Y-146772800D01*
X171653229Y-146760781D01*
X171713652Y-146748763D01*
X171756673Y-146730943D01*
X171819459Y-146704937D01*
X171866909Y-146695499D01*
X172496002Y-146695499D01*
X172496008Y-146695499D01*
X172598797Y-146684999D01*
X172765334Y-146629814D01*
X172914656Y-146537712D01*
X173038712Y-146413656D01*
X173130814Y-146264334D01*
X173185999Y-146097797D01*
X173196500Y-145995009D01*
X173196499Y-145369992D01*
X173193626Y-145341870D01*
X173190824Y-145314435D01*
X173189858Y-145304983D01*
X174740500Y-145304983D01*
X174740500Y-146505001D01*
X174740501Y-146505018D01*
X174751000Y-146607796D01*
X174751001Y-146607799D01*
X174799715Y-146754807D01*
X174806186Y-146774334D01*
X174898288Y-146923656D01*
X175022344Y-147047712D01*
X175171666Y-147139814D01*
X175254152Y-147167147D01*
X175311597Y-147206920D01*
X175338420Y-147271436D01*
X175326105Y-147340212D01*
X175316143Y-147351975D01*
X175315077Y-147365524D01*
X175994554Y-148045000D01*
X175988339Y-148045000D01*
X175886606Y-148072259D01*
X175795394Y-148124920D01*
X175720920Y-148199394D01*
X175668259Y-148290606D01*
X175641000Y-148392339D01*
X175641000Y-148398553D01*
X174961524Y-147719077D01*
X174961523Y-147719077D01*
X174929143Y-147763644D01*
X174836244Y-147945968D01*
X174773009Y-148140582D01*
X174741000Y-148342682D01*
X174741000Y-148547317D01*
X174773009Y-148749417D01*
X174836244Y-148944031D01*
X174929141Y-149126350D01*
X174929147Y-149126359D01*
X174961523Y-149170921D01*
X174961524Y-149170922D01*
X175641000Y-148491446D01*
X175641000Y-148497661D01*
X175668259Y-148599394D01*
X175720920Y-148690606D01*
X175795394Y-148765080D01*
X175886606Y-148817741D01*
X175988339Y-148845000D01*
X175994553Y-148845000D01*
X175315076Y-149524474D01*
X175359650Y-149556859D01*
X175541968Y-149649755D01*
X175736582Y-149712990D01*
X175938683Y-149745000D01*
X176143317Y-149745000D01*
X176345417Y-149712990D01*
X176540031Y-149649755D01*
X176722349Y-149556859D01*
X176766921Y-149524474D01*
X176087447Y-148845000D01*
X176093661Y-148845000D01*
X176195394Y-148817741D01*
X176286606Y-148765080D01*
X176361080Y-148690606D01*
X176413741Y-148599394D01*
X176441000Y-148497661D01*
X176441000Y-148491448D01*
X177120474Y-149170922D01*
X177120474Y-149170921D01*
X177152859Y-149126349D01*
X177245755Y-148944031D01*
X177308990Y-148749417D01*
X177341000Y-148547317D01*
X177341000Y-148342682D01*
X177308990Y-148140582D01*
X177245755Y-147945968D01*
X177152859Y-147763650D01*
X177120474Y-147719077D01*
X177120474Y-147719076D01*
X176441000Y-148398551D01*
X176441000Y-148392339D01*
X176413741Y-148290606D01*
X176361080Y-148199394D01*
X176286606Y-148124920D01*
X176195394Y-148072259D01*
X176093661Y-148045000D01*
X176087446Y-148045000D01*
X176766922Y-147365524D01*
X176765570Y-147348349D01*
X176751299Y-147329842D01*
X176745320Y-147260229D01*
X176777925Y-147198433D01*
X176827845Y-147167148D01*
X176910334Y-147139814D01*
X177059656Y-147047712D01*
X177183712Y-146923656D01*
X177275814Y-146774334D01*
X177330999Y-146607797D01*
X177341500Y-146505009D01*
X177341499Y-145304992D01*
X177330999Y-145202203D01*
X177275814Y-145035666D01*
X177183712Y-144886344D01*
X177059656Y-144762288D01*
X176910334Y-144670186D01*
X176743797Y-144615001D01*
X176743795Y-144615000D01*
X176641010Y-144604500D01*
X175440998Y-144604500D01*
X175440981Y-144604501D01*
X175338203Y-144615000D01*
X175338200Y-144615001D01*
X175171668Y-144670185D01*
X175171663Y-144670187D01*
X175022342Y-144762289D01*
X174898289Y-144886342D01*
X174806187Y-145035663D01*
X174806185Y-145035668D01*
X174791081Y-145081250D01*
X174751001Y-145202203D01*
X174751001Y-145202204D01*
X174751000Y-145202204D01*
X174740500Y-145304983D01*
X173189858Y-145304983D01*
X173189350Y-145300009D01*
X173185999Y-145267203D01*
X173130814Y-145100666D01*
X173038712Y-144951344D01*
X172945049Y-144857681D01*
X172911564Y-144796358D01*
X172916548Y-144726666D01*
X172945049Y-144682319D01*
X172989771Y-144637597D01*
X173038712Y-144588656D01*
X173130814Y-144439334D01*
X173152319Y-144374433D01*
X173192092Y-144316990D01*
X173256607Y-144290167D01*
X173294213Y-144291820D01*
G37*
%TD.AperFunction*%
%TA.AperFunction,Conductor*%
G36*
X165434566Y-144590984D02*
G01*
X165493236Y-144628926D01*
X165502394Y-144640970D01*
X165518910Y-144665689D01*
X165630407Y-144777186D01*
X165630411Y-144777189D01*
X165761514Y-144864790D01*
X165761527Y-144864797D01*
X165907198Y-144925135D01*
X165907203Y-144925137D01*
X166060169Y-144955564D01*
X166061853Y-144955899D01*
X166061856Y-144955900D01*
X166061858Y-144955900D01*
X166219544Y-144955900D01*
X166219545Y-144955899D01*
X166374197Y-144925137D01*
X166374209Y-144925131D01*
X166380024Y-144923369D01*
X166380884Y-144926203D01*
X166437579Y-144919801D01*
X166500225Y-144950740D01*
X166503898Y-144954266D01*
X166508288Y-144958656D01*
X166632344Y-145082712D01*
X166781666Y-145174814D01*
X166948203Y-145229999D01*
X167050991Y-145240500D01*
X167676008Y-145240499D01*
X167676016Y-145240498D01*
X167676019Y-145240498D01*
X167732302Y-145234748D01*
X167778797Y-145229999D01*
X167945334Y-145174814D01*
X168094656Y-145082712D01*
X168188319Y-144989049D01*
X168249642Y-144955564D01*
X168319334Y-144960548D01*
X168363681Y-144989049D01*
X168457344Y-145082712D01*
X168606666Y-145174814D01*
X168773203Y-145229999D01*
X168875991Y-145240500D01*
X169134848Y-145240499D01*
X169201886Y-145260183D01*
X169247641Y-145312987D01*
X169257585Y-145382146D01*
X169228560Y-145445701D01*
X169222528Y-145452180D01*
X165702270Y-148972439D01*
X165615144Y-149059564D01*
X165615138Y-149059572D01*
X165546692Y-149162005D01*
X165546686Y-149162017D01*
X165527659Y-149207953D01*
X165483818Y-149262356D01*
X165417523Y-149284421D01*
X165413098Y-149284500D01*
X165100630Y-149284500D01*
X165100623Y-149284501D01*
X165041016Y-149290908D01*
X164906171Y-149341202D01*
X164906164Y-149341206D01*
X164790955Y-149427452D01*
X164790952Y-149427455D01*
X164704706Y-149542664D01*
X164704702Y-149542671D01*
X164654408Y-149677517D01*
X164648001Y-149737116D01*
X164648000Y-149737135D01*
X164648000Y-150634248D01*
X164628315Y-150701287D01*
X164575511Y-150747042D01*
X164506353Y-150756986D01*
X164442797Y-150727961D01*
X164436319Y-150721929D01*
X164363019Y-150648629D01*
X164329534Y-150587306D01*
X164326700Y-150560948D01*
X164326700Y-147694293D01*
X164326699Y-147694289D01*
X164311034Y-147615533D01*
X164302663Y-147573448D01*
X164261940Y-147475134D01*
X164255512Y-147459615D01*
X164242374Y-147439953D01*
X164215178Y-147399251D01*
X164215178Y-147399252D01*
X164187058Y-147357167D01*
X164187055Y-147357164D01*
X164187053Y-147357161D01*
X164096837Y-147266945D01*
X164096806Y-147266916D01*
X163516431Y-146686541D01*
X163482946Y-146625218D01*
X163487930Y-146555526D01*
X163529802Y-146499593D01*
X163595266Y-146475176D01*
X163658338Y-146488896D01*
X163658646Y-146488185D01*
X163662263Y-146489750D01*
X163663539Y-146490028D01*
X163665564Y-146491179D01*
X163665806Y-146491283D01*
X163823504Y-146537099D01*
X163823510Y-146537100D01*
X163860350Y-146539999D01*
X163860366Y-146540000D01*
X164263500Y-146540000D01*
X164763500Y-146540000D01*
X165166634Y-146540000D01*
X165166649Y-146539999D01*
X165203489Y-146537100D01*
X165203495Y-146537099D01*
X165361193Y-146491283D01*
X165361196Y-146491282D01*
X165502552Y-146407685D01*
X165502561Y-146407678D01*
X165618678Y-146291561D01*
X165618685Y-146291552D01*
X165702281Y-146150198D01*
X165748100Y-145992486D01*
X165748295Y-145990001D01*
X165748295Y-145990000D01*
X164763500Y-145990000D01*
X164763500Y-146540000D01*
X164263500Y-146540000D01*
X164263500Y-145490000D01*
X164763500Y-145490000D01*
X165748295Y-145490000D01*
X165748295Y-145489998D01*
X165748100Y-145487513D01*
X165702281Y-145329801D01*
X165618685Y-145188447D01*
X165618678Y-145188438D01*
X165502561Y-145072321D01*
X165502552Y-145072314D01*
X165361196Y-144988717D01*
X165361193Y-144988716D01*
X165203495Y-144942900D01*
X165203489Y-144942899D01*
X165166649Y-144940000D01*
X164763500Y-144940000D01*
X164763500Y-145490000D01*
X164263500Y-145490000D01*
X164263500Y-144940000D01*
X164000500Y-144940000D01*
X163933461Y-144920315D01*
X163887706Y-144867511D01*
X163876500Y-144816000D01*
X163876500Y-144764500D01*
X163896185Y-144697461D01*
X163948989Y-144651706D01*
X164000500Y-144640500D01*
X165166686Y-144640500D01*
X165166694Y-144640500D01*
X165203569Y-144637598D01*
X165361398Y-144591744D01*
X165361400Y-144591742D01*
X165364696Y-144590785D01*
X165434566Y-144590984D01*
G37*
%TD.AperFunction*%
%TA.AperFunction,Conductor*%
G36*
X156484039Y-136544685D02*
G01*
X156529794Y-136597489D01*
X156541000Y-136649000D01*
X156541000Y-136901000D01*
X156521315Y-136968039D01*
X156468511Y-137013794D01*
X156417000Y-137025000D01*
X155541001Y-137025000D01*
X155541001Y-137299986D01*
X155551494Y-137402697D01*
X155606641Y-137569119D01*
X155606643Y-137569124D01*
X155698684Y-137718345D01*
X155822654Y-137842315D01*
X155971875Y-137934356D01*
X155971880Y-137934358D01*
X156138302Y-137989505D01*
X156138309Y-137989506D01*
X156241014Y-137999999D01*
X156243250Y-137999999D01*
X156243720Y-138000137D01*
X156244169Y-138000160D01*
X156244163Y-138000267D01*
X156310293Y-138019671D01*
X156356058Y-138072467D01*
X156366014Y-138141623D01*
X156357834Y-138171451D01*
X156324706Y-138251429D01*
X156324703Y-138251441D01*
X156290193Y-138424939D01*
X156290180Y-138425004D01*
X156290101Y-138425397D01*
X156290100Y-138425413D01*
X156290100Y-140134626D01*
X156270415Y-140201665D01*
X156217611Y-140247420D01*
X156148453Y-140257364D01*
X156084897Y-140228339D01*
X156048394Y-140173631D01*
X156037980Y-140142204D01*
X156035814Y-140135666D01*
X155943712Y-139986344D01*
X155819656Y-139862288D01*
X155695170Y-139785505D01*
X155670336Y-139770187D01*
X155670331Y-139770185D01*
X155645887Y-139762085D01*
X155503797Y-139715001D01*
X155503795Y-139715000D01*
X155401010Y-139704500D01*
X153200998Y-139704500D01*
X153200981Y-139704501D01*
X153098203Y-139715000D01*
X153098200Y-139715001D01*
X152931668Y-139770185D01*
X152931663Y-139770187D01*
X152782342Y-139862289D01*
X152658289Y-139986342D01*
X152566187Y-140135663D01*
X152566185Y-140135668D01*
X152550460Y-140183123D01*
X152511001Y-140302203D01*
X152511001Y-140302204D01*
X152511000Y-140302204D01*
X152500500Y-140404983D01*
X152500500Y-142605001D01*
X152500501Y-142605018D01*
X152511000Y-142707796D01*
X152511001Y-142707799D01*
X152550444Y-142826829D01*
X152566186Y-142874334D01*
X152658288Y-143023656D01*
X152782344Y-143147712D01*
X152931666Y-143239814D01*
X153098203Y-143294999D01*
X153200991Y-143305500D01*
X154377638Y-143305499D01*
X154444677Y-143325184D01*
X154490432Y-143377987D01*
X154500376Y-143447146D01*
X154471351Y-143510702D01*
X154465319Y-143517180D01*
X154408259Y-143574240D01*
X154346936Y-143607725D01*
X154307975Y-143609917D01*
X154206010Y-143599500D01*
X153580998Y-143599500D01*
X153580980Y-143599501D01*
X153478203Y-143610000D01*
X153478200Y-143610001D01*
X153311668Y-143665185D01*
X153311663Y-143665187D01*
X153162342Y-143757289D01*
X153068681Y-143850951D01*
X153007358Y-143884436D01*
X152937666Y-143879452D01*
X152893319Y-143850951D01*
X152799657Y-143757289D01*
X152799656Y-143757288D01*
X152650334Y-143665186D01*
X152483797Y-143610001D01*
X152483795Y-143610000D01*
X152381016Y-143599500D01*
X152381009Y-143599500D01*
X152363252Y-143599500D01*
X152296213Y-143579815D01*
X152275571Y-143563181D01*
X151539219Y-142826829D01*
X151505734Y-142765506D01*
X151502900Y-142739148D01*
X151502900Y-138111733D01*
X151522585Y-138044694D01*
X151575389Y-137998939D01*
X151641506Y-137989432D01*
X151641569Y-137988818D01*
X151644029Y-137989069D01*
X151644547Y-137988995D01*
X151646205Y-137989291D01*
X151751019Y-137999999D01*
X151800999Y-137999998D01*
X151801000Y-137999998D01*
X151801000Y-136899000D01*
X151820685Y-136831961D01*
X151873489Y-136786206D01*
X151925000Y-136775000D01*
X152177000Y-136775000D01*
X152244039Y-136794685D01*
X152289794Y-136847489D01*
X152301000Y-136899000D01*
X152301000Y-137999999D01*
X152350972Y-137999999D01*
X152350986Y-137999998D01*
X152453697Y-137989505D01*
X152620119Y-137934358D01*
X152620124Y-137934356D01*
X152769345Y-137842315D01*
X152893318Y-137718342D01*
X152895165Y-137715348D01*
X152896969Y-137713724D01*
X152897798Y-137712677D01*
X152897976Y-137712818D01*
X152947110Y-137668621D01*
X153016073Y-137657396D01*
X153080156Y-137685236D01*
X153106243Y-137715341D01*
X153108288Y-137718656D01*
X153232344Y-137842712D01*
X153381666Y-137934814D01*
X153548203Y-137989999D01*
X153650991Y-138000500D01*
X154251008Y-138000499D01*
X154251016Y-138000498D01*
X154251019Y-138000498D01*
X154307302Y-137994748D01*
X154353797Y-137989999D01*
X154520334Y-137934814D01*
X154669656Y-137842712D01*
X154793712Y-137718656D01*
X154885814Y-137569334D01*
X154940999Y-137402797D01*
X154951500Y-137300009D01*
X154951499Y-137099360D01*
X154971183Y-137032321D01*
X154987813Y-137011684D01*
X155438180Y-136561318D01*
X155499502Y-136527834D01*
X155525860Y-136525000D01*
X156417000Y-136525000D01*
X156484039Y-136544685D01*
G37*
%TD.AperFunction*%
%TA.AperFunction,Conductor*%
G36*
X172905973Y-138020983D02*
G01*
X172953583Y-138072120D01*
X172966700Y-138127625D01*
X172966700Y-138822247D01*
X172947015Y-138889286D01*
X172930381Y-138909928D01*
X172148344Y-139691964D01*
X172148337Y-139691972D01*
X172115778Y-139740700D01*
X172062165Y-139785505D01*
X171992840Y-139794211D01*
X171939791Y-139772126D01*
X171925971Y-139762085D01*
X171715604Y-139654897D01*
X171541081Y-139598191D01*
X171483406Y-139558753D01*
X171456208Y-139494394D01*
X171468123Y-139425548D01*
X171491715Y-139392584D01*
X172610463Y-138273836D01*
X172615612Y-138266129D01*
X172625699Y-138251035D01*
X172625699Y-138251034D01*
X172709013Y-138126347D01*
X172723250Y-138091976D01*
X172728139Y-138080173D01*
X172771979Y-138025769D01*
X172838273Y-138003704D01*
X172905973Y-138020983D01*
G37*
%TD.AperFunction*%
%TA.AperFunction,Conductor*%
G36*
X170238987Y-134236785D02*
G01*
X170259629Y-134253419D01*
X171409621Y-135403411D01*
X171443106Y-135464734D01*
X171438122Y-135534426D01*
X171396250Y-135590359D01*
X171360945Y-135608797D01*
X171341674Y-135615182D01*
X171341663Y-135615187D01*
X171192342Y-135707289D01*
X171068288Y-135831343D01*
X171068283Y-135831349D01*
X171066241Y-135834661D01*
X171064247Y-135836453D01*
X171063807Y-135837011D01*
X171063711Y-135836935D01*
X171014291Y-135881383D01*
X170945328Y-135892602D01*
X170881247Y-135864755D01*
X170855168Y-135834656D01*
X170853319Y-135831659D01*
X170853316Y-135831655D01*
X170729345Y-135707684D01*
X170580124Y-135615643D01*
X170580119Y-135615641D01*
X170413697Y-135560494D01*
X170413690Y-135560493D01*
X170310986Y-135550000D01*
X170261000Y-135550000D01*
X170261000Y-138024937D01*
X170241315Y-138091976D01*
X170224681Y-138112618D01*
X169406719Y-138930581D01*
X169345396Y-138964066D01*
X169319038Y-138966900D01*
X169199062Y-138966900D01*
X169132023Y-138947215D01*
X169111381Y-138930581D01*
X168357819Y-138177019D01*
X168324334Y-138115696D01*
X168321500Y-138089338D01*
X168321500Y-137660132D01*
X168339960Y-137595036D01*
X168355814Y-137569334D01*
X168410999Y-137402797D01*
X168421500Y-137300009D01*
X168421500Y-137299986D01*
X169011001Y-137299986D01*
X169021494Y-137402697D01*
X169076641Y-137569119D01*
X169076643Y-137569124D01*
X169168684Y-137718345D01*
X169292654Y-137842315D01*
X169441875Y-137934356D01*
X169441880Y-137934358D01*
X169608302Y-137989505D01*
X169608309Y-137989506D01*
X169711019Y-137999999D01*
X169760999Y-137999998D01*
X169761000Y-137999998D01*
X169761000Y-137025000D01*
X169011001Y-137025000D01*
X169011001Y-137299986D01*
X168421500Y-137299986D01*
X168421499Y-136775000D01*
X168421499Y-136250013D01*
X169011000Y-136250013D01*
X169011000Y-136525000D01*
X169761000Y-136525000D01*
X169761000Y-135550000D01*
X169760999Y-135549999D01*
X169711029Y-135550000D01*
X169711011Y-135550001D01*
X169608302Y-135560494D01*
X169441880Y-135615641D01*
X169441875Y-135615643D01*
X169292654Y-135707684D01*
X169168684Y-135831654D01*
X169076643Y-135980875D01*
X169076641Y-135980880D01*
X169021494Y-136147302D01*
X169021493Y-136147309D01*
X169011000Y-136250013D01*
X168421499Y-136250013D01*
X168421499Y-136249998D01*
X168421498Y-136249980D01*
X168410999Y-136147203D01*
X168410998Y-136147200D01*
X168366083Y-136011657D01*
X168355814Y-135980666D01*
X168263712Y-135831344D01*
X168139656Y-135707288D01*
X167990334Y-135615186D01*
X167823797Y-135560001D01*
X167823795Y-135560000D01*
X167756307Y-135553106D01*
X167691616Y-135526710D01*
X167681229Y-135517429D01*
X166791535Y-134627735D01*
X166791530Y-134627731D01*
X166732461Y-134588264D01*
X166732460Y-134588263D01*
X166644044Y-134529185D01*
X166644042Y-134529184D01*
X166545994Y-134488572D01*
X166480164Y-134461304D01*
X166475073Y-134459760D01*
X166416635Y-134421462D01*
X166388179Y-134357649D01*
X166398741Y-134288582D01*
X166444966Y-134236190D01*
X166511070Y-134217100D01*
X170171948Y-134217100D01*
X170238987Y-134236785D01*
G37*
%TD.AperFunction*%
%TD*%
M02*
