%TF.GenerationSoftware,KiCad,Pcbnew,10.0.5*%
%TF.CreationDate,2026-08-03T02:38:31-07:00*%
%TF.ProjectId,cv-fan,63762d66-616e-42e6-9b69-6361645f7063,rev?*%
%TF.SameCoordinates,Original*%
%TF.FileFunction,Legend,Top*%
%TF.FilePolarity,Positive*%
%FSLAX46Y46*%
G04 Gerber Fmt 4.6, Leading zero omitted, Abs format (unit mm)*
G04 Created by KiCad (PCBNEW 10.0.5) date 2026-08-03 02:38:31*
%MOMM*%
%LPD*%
G01*
G04 APERTURE LIST*
%ADD10C,0.150000*%
%ADD11C,0.180000*%
%ADD12C,0.200000*%
%ADD13C,0.120000*%
G04 APERTURE END LIST*
D10*
X141578570Y-159122842D02*
X141535713Y-159165700D01*
X141535713Y-159165700D02*
X141407141Y-159208557D01*
X141407141Y-159208557D02*
X141321427Y-159208557D01*
X141321427Y-159208557D02*
X141192856Y-159165700D01*
X141192856Y-159165700D02*
X141107141Y-159079985D01*
X141107141Y-159079985D02*
X141064284Y-158994271D01*
X141064284Y-158994271D02*
X141021427Y-158822842D01*
X141021427Y-158822842D02*
X141021427Y-158694271D01*
X141021427Y-158694271D02*
X141064284Y-158522842D01*
X141064284Y-158522842D02*
X141107141Y-158437128D01*
X141107141Y-158437128D02*
X141192856Y-158351414D01*
X141192856Y-158351414D02*
X141321427Y-158308557D01*
X141321427Y-158308557D02*
X141407141Y-158308557D01*
X141407141Y-158308557D02*
X141535713Y-158351414D01*
X141535713Y-158351414D02*
X141578570Y-158394271D01*
X141835713Y-158308557D02*
X142135713Y-159208557D01*
X142135713Y-159208557D02*
X142435713Y-158308557D01*
X142735713Y-158865700D02*
X143421428Y-158865700D01*
X144149999Y-158737128D02*
X143849999Y-158737128D01*
X143849999Y-159208557D02*
X143849999Y-158308557D01*
X143849999Y-158308557D02*
X144278571Y-158308557D01*
X144578571Y-158951414D02*
X145007143Y-158951414D01*
X144492857Y-159208557D02*
X144792857Y-158308557D01*
X144792857Y-158308557D02*
X145092857Y-159208557D01*
X145392857Y-159208557D02*
X145392857Y-158308557D01*
X145392857Y-158308557D02*
X145907143Y-159208557D01*
X145907143Y-159208557D02*
X145907143Y-158308557D01*
X148221428Y-159208557D02*
X147921428Y-158779985D01*
X147707142Y-159208557D02*
X147707142Y-158308557D01*
X147707142Y-158308557D02*
X148049999Y-158308557D01*
X148049999Y-158308557D02*
X148135714Y-158351414D01*
X148135714Y-158351414D02*
X148178571Y-158394271D01*
X148178571Y-158394271D02*
X148221428Y-158479985D01*
X148221428Y-158479985D02*
X148221428Y-158608557D01*
X148221428Y-158608557D02*
X148178571Y-158694271D01*
X148178571Y-158694271D02*
X148135714Y-158737128D01*
X148135714Y-158737128D02*
X148049999Y-158779985D01*
X148049999Y-158779985D02*
X147707142Y-158779985D01*
X148607142Y-158737128D02*
X148907142Y-158737128D01*
X149035714Y-159208557D02*
X148607142Y-159208557D01*
X148607142Y-159208557D02*
X148607142Y-158308557D01*
X148607142Y-158308557D02*
X149035714Y-158308557D01*
X149292857Y-158308557D02*
X149592857Y-159208557D01*
X149592857Y-159208557D02*
X149892857Y-158308557D01*
X150835714Y-158951414D02*
X151264286Y-158951414D01*
X150750000Y-159208557D02*
X151050000Y-158308557D01*
X151050000Y-158308557D02*
X151350000Y-159208557D01*
X153407143Y-159165700D02*
X153321428Y-159208557D01*
X153321428Y-159208557D02*
X153150000Y-159208557D01*
X153150000Y-159208557D02*
X153064285Y-159165700D01*
X153064285Y-159165700D02*
X153021428Y-159122842D01*
X153021428Y-159122842D02*
X152978571Y-159037128D01*
X152978571Y-159037128D02*
X152978571Y-158779985D01*
X152978571Y-158779985D02*
X153021428Y-158694271D01*
X153021428Y-158694271D02*
X153064285Y-158651414D01*
X153064285Y-158651414D02*
X153150000Y-158608557D01*
X153150000Y-158608557D02*
X153321428Y-158608557D01*
X153321428Y-158608557D02*
X153407143Y-158651414D01*
X153792857Y-159208557D02*
X153792857Y-158608557D01*
X153792857Y-158308557D02*
X153750000Y-158351414D01*
X153750000Y-158351414D02*
X153792857Y-158394271D01*
X153792857Y-158394271D02*
X153835714Y-158351414D01*
X153835714Y-158351414D02*
X153792857Y-158308557D01*
X153792857Y-158308557D02*
X153792857Y-158394271D01*
X154221428Y-159208557D02*
X154221428Y-158608557D01*
X154221428Y-158779985D02*
X154264285Y-158694271D01*
X154264285Y-158694271D02*
X154307143Y-158651414D01*
X154307143Y-158651414D02*
X154392857Y-158608557D01*
X154392857Y-158608557D02*
X154478571Y-158608557D01*
X155164286Y-159165700D02*
X155078571Y-159208557D01*
X155078571Y-159208557D02*
X154907143Y-159208557D01*
X154907143Y-159208557D02*
X154821428Y-159165700D01*
X154821428Y-159165700D02*
X154778571Y-159122842D01*
X154778571Y-159122842D02*
X154735714Y-159037128D01*
X154735714Y-159037128D02*
X154735714Y-158779985D01*
X154735714Y-158779985D02*
X154778571Y-158694271D01*
X154778571Y-158694271D02*
X154821428Y-158651414D01*
X154821428Y-158651414D02*
X154907143Y-158608557D01*
X154907143Y-158608557D02*
X155078571Y-158608557D01*
X155078571Y-158608557D02*
X155164286Y-158651414D01*
X155935715Y-158608557D02*
X155935715Y-159208557D01*
X155550000Y-158608557D02*
X155550000Y-159079985D01*
X155550000Y-159079985D02*
X155592857Y-159165700D01*
X155592857Y-159165700D02*
X155678572Y-159208557D01*
X155678572Y-159208557D02*
X155807143Y-159208557D01*
X155807143Y-159208557D02*
X155892857Y-159165700D01*
X155892857Y-159165700D02*
X155935715Y-159122842D01*
X156278572Y-158608557D02*
X156492858Y-159208557D01*
X156492858Y-159208557D02*
X156707143Y-158608557D01*
X157392857Y-159165700D02*
X157307143Y-159208557D01*
X157307143Y-159208557D02*
X157135715Y-159208557D01*
X157135715Y-159208557D02*
X157050000Y-159165700D01*
X157050000Y-159165700D02*
X157007143Y-159079985D01*
X157007143Y-159079985D02*
X157007143Y-158737128D01*
X157007143Y-158737128D02*
X157050000Y-158651414D01*
X157050000Y-158651414D02*
X157135715Y-158608557D01*
X157135715Y-158608557D02*
X157307143Y-158608557D01*
X157307143Y-158608557D02*
X157392857Y-158651414D01*
X157392857Y-158651414D02*
X157435715Y-158737128D01*
X157435715Y-158737128D02*
X157435715Y-158822842D01*
X157435715Y-158822842D02*
X157007143Y-158908557D01*
X157821429Y-158608557D02*
X157821429Y-159208557D01*
X157821429Y-158694271D02*
X157864286Y-158651414D01*
X157864286Y-158651414D02*
X157950001Y-158608557D01*
X157950001Y-158608557D02*
X158078572Y-158608557D01*
X158078572Y-158608557D02*
X158164286Y-158651414D01*
X158164286Y-158651414D02*
X158207144Y-158737128D01*
X158207144Y-158737128D02*
X158207144Y-159208557D01*
X158507144Y-158608557D02*
X158850001Y-158608557D01*
X158635715Y-158308557D02*
X158635715Y-159079985D01*
X158635715Y-159079985D02*
X158678572Y-159165700D01*
X158678572Y-159165700D02*
X158764287Y-159208557D01*
X158764287Y-159208557D02*
X158850001Y-159208557D01*
X159150001Y-159122842D02*
X159192858Y-159165700D01*
X159192858Y-159165700D02*
X159150001Y-159208557D01*
X159150001Y-159208557D02*
X159107144Y-159165700D01*
X159107144Y-159165700D02*
X159150001Y-159122842D01*
X159150001Y-159122842D02*
X159150001Y-159208557D01*
X159964287Y-159165700D02*
X159878572Y-159208557D01*
X159878572Y-159208557D02*
X159707144Y-159208557D01*
X159707144Y-159208557D02*
X159621429Y-159165700D01*
X159621429Y-159165700D02*
X159578572Y-159122842D01*
X159578572Y-159122842D02*
X159535715Y-159037128D01*
X159535715Y-159037128D02*
X159535715Y-158779985D01*
X159535715Y-158779985D02*
X159578572Y-158694271D01*
X159578572Y-158694271D02*
X159621429Y-158651414D01*
X159621429Y-158651414D02*
X159707144Y-158608557D01*
X159707144Y-158608557D02*
X159878572Y-158608557D01*
X159878572Y-158608557D02*
X159964287Y-158651414D01*
X160478573Y-159208557D02*
X160392858Y-159165700D01*
X160392858Y-159165700D02*
X160350001Y-159122842D01*
X160350001Y-159122842D02*
X160307144Y-159037128D01*
X160307144Y-159037128D02*
X160307144Y-158779985D01*
X160307144Y-158779985D02*
X160350001Y-158694271D01*
X160350001Y-158694271D02*
X160392858Y-158651414D01*
X160392858Y-158651414D02*
X160478573Y-158608557D01*
X160478573Y-158608557D02*
X160607144Y-158608557D01*
X160607144Y-158608557D02*
X160692858Y-158651414D01*
X160692858Y-158651414D02*
X160735716Y-158694271D01*
X160735716Y-158694271D02*
X160778573Y-158779985D01*
X160778573Y-158779985D02*
X160778573Y-159037128D01*
X160778573Y-159037128D02*
X160735716Y-159122842D01*
X160735716Y-159122842D02*
X160692858Y-159165700D01*
X160692858Y-159165700D02*
X160607144Y-159208557D01*
X160607144Y-159208557D02*
X160478573Y-159208557D01*
X161164287Y-159208557D02*
X161164287Y-158608557D01*
X161164287Y-158694271D02*
X161207144Y-158651414D01*
X161207144Y-158651414D02*
X161292859Y-158608557D01*
X161292859Y-158608557D02*
X161421430Y-158608557D01*
X161421430Y-158608557D02*
X161507144Y-158651414D01*
X161507144Y-158651414D02*
X161550002Y-158737128D01*
X161550002Y-158737128D02*
X161550002Y-159208557D01*
X161550002Y-158737128D02*
X161592859Y-158651414D01*
X161592859Y-158651414D02*
X161678573Y-158608557D01*
X161678573Y-158608557D02*
X161807144Y-158608557D01*
X161807144Y-158608557D02*
X161892859Y-158651414D01*
X161892859Y-158651414D02*
X161935716Y-158737128D01*
X161935716Y-158737128D02*
X161935716Y-159208557D01*
D11*
X103857142Y-157753259D02*
X103523809Y-157277068D01*
X103285714Y-157753259D02*
X103285714Y-156753259D01*
X103285714Y-156753259D02*
X103666666Y-156753259D01*
X103666666Y-156753259D02*
X103761904Y-156800878D01*
X103761904Y-156800878D02*
X103809523Y-156848497D01*
X103809523Y-156848497D02*
X103857142Y-156943735D01*
X103857142Y-156943735D02*
X103857142Y-157086592D01*
X103857142Y-157086592D02*
X103809523Y-157181830D01*
X103809523Y-157181830D02*
X103761904Y-157229449D01*
X103761904Y-157229449D02*
X103666666Y-157277068D01*
X103666666Y-157277068D02*
X103285714Y-157277068D01*
X104285714Y-157753259D02*
X104285714Y-156753259D01*
X104714285Y-157705640D02*
X104857142Y-157753259D01*
X104857142Y-157753259D02*
X105095237Y-157753259D01*
X105095237Y-157753259D02*
X105190475Y-157705640D01*
X105190475Y-157705640D02*
X105238094Y-157658020D01*
X105238094Y-157658020D02*
X105285713Y-157562782D01*
X105285713Y-157562782D02*
X105285713Y-157467544D01*
X105285713Y-157467544D02*
X105238094Y-157372306D01*
X105238094Y-157372306D02*
X105190475Y-157324687D01*
X105190475Y-157324687D02*
X105095237Y-157277068D01*
X105095237Y-157277068D02*
X104904761Y-157229449D01*
X104904761Y-157229449D02*
X104809523Y-157181830D01*
X104809523Y-157181830D02*
X104761904Y-157134211D01*
X104761904Y-157134211D02*
X104714285Y-157038973D01*
X104714285Y-157038973D02*
X104714285Y-156943735D01*
X104714285Y-156943735D02*
X104761904Y-156848497D01*
X104761904Y-156848497D02*
X104809523Y-156800878D01*
X104809523Y-156800878D02*
X104904761Y-156753259D01*
X104904761Y-156753259D02*
X105142856Y-156753259D01*
X105142856Y-156753259D02*
X105285713Y-156800878D01*
X105714285Y-157753259D02*
X105714285Y-156753259D01*
X106285713Y-157753259D02*
X105857142Y-157181830D01*
X106285713Y-156753259D02*
X105714285Y-157324687D01*
X107666666Y-156753259D02*
X107857142Y-156753259D01*
X107857142Y-156753259D02*
X107952380Y-156800878D01*
X107952380Y-156800878D02*
X108047618Y-156896116D01*
X108047618Y-156896116D02*
X108095237Y-157086592D01*
X108095237Y-157086592D02*
X108095237Y-157419925D01*
X108095237Y-157419925D02*
X108047618Y-157610401D01*
X108047618Y-157610401D02*
X107952380Y-157705640D01*
X107952380Y-157705640D02*
X107857142Y-157753259D01*
X107857142Y-157753259D02*
X107666666Y-157753259D01*
X107666666Y-157753259D02*
X107571428Y-157705640D01*
X107571428Y-157705640D02*
X107476190Y-157610401D01*
X107476190Y-157610401D02*
X107428571Y-157419925D01*
X107428571Y-157419925D02*
X107428571Y-157086592D01*
X107428571Y-157086592D02*
X107476190Y-156896116D01*
X107476190Y-156896116D02*
X107571428Y-156800878D01*
X107571428Y-156800878D02*
X107666666Y-156753259D01*
X108857142Y-157229449D02*
X108523809Y-157229449D01*
X108523809Y-157753259D02*
X108523809Y-156753259D01*
X108523809Y-156753259D02*
X108999999Y-156753259D01*
X110095238Y-157705640D02*
X110238095Y-157753259D01*
X110238095Y-157753259D02*
X110476190Y-157753259D01*
X110476190Y-157753259D02*
X110571428Y-157705640D01*
X110571428Y-157705640D02*
X110619047Y-157658020D01*
X110619047Y-157658020D02*
X110666666Y-157562782D01*
X110666666Y-157562782D02*
X110666666Y-157467544D01*
X110666666Y-157467544D02*
X110619047Y-157372306D01*
X110619047Y-157372306D02*
X110571428Y-157324687D01*
X110571428Y-157324687D02*
X110476190Y-157277068D01*
X110476190Y-157277068D02*
X110285714Y-157229449D01*
X110285714Y-157229449D02*
X110190476Y-157181830D01*
X110190476Y-157181830D02*
X110142857Y-157134211D01*
X110142857Y-157134211D02*
X110095238Y-157038973D01*
X110095238Y-157038973D02*
X110095238Y-156943735D01*
X110095238Y-156943735D02*
X110142857Y-156848497D01*
X110142857Y-156848497D02*
X110190476Y-156800878D01*
X110190476Y-156800878D02*
X110285714Y-156753259D01*
X110285714Y-156753259D02*
X110523809Y-156753259D01*
X110523809Y-156753259D02*
X110666666Y-156800878D01*
X111095238Y-157753259D02*
X111095238Y-156753259D01*
X111095238Y-157229449D02*
X111666666Y-157229449D01*
X111666666Y-157753259D02*
X111666666Y-156753259D01*
X112333333Y-156753259D02*
X112523809Y-156753259D01*
X112523809Y-156753259D02*
X112619047Y-156800878D01*
X112619047Y-156800878D02*
X112714285Y-156896116D01*
X112714285Y-156896116D02*
X112761904Y-157086592D01*
X112761904Y-157086592D02*
X112761904Y-157419925D01*
X112761904Y-157419925D02*
X112714285Y-157610401D01*
X112714285Y-157610401D02*
X112619047Y-157705640D01*
X112619047Y-157705640D02*
X112523809Y-157753259D01*
X112523809Y-157753259D02*
X112333333Y-157753259D01*
X112333333Y-157753259D02*
X112238095Y-157705640D01*
X112238095Y-157705640D02*
X112142857Y-157610401D01*
X112142857Y-157610401D02*
X112095238Y-157419925D01*
X112095238Y-157419925D02*
X112095238Y-157086592D01*
X112095238Y-157086592D02*
X112142857Y-156896116D01*
X112142857Y-156896116D02*
X112238095Y-156800878D01*
X112238095Y-156800878D02*
X112333333Y-156753259D01*
X113761904Y-157658020D02*
X113714285Y-157705640D01*
X113714285Y-157705640D02*
X113571428Y-157753259D01*
X113571428Y-157753259D02*
X113476190Y-157753259D01*
X113476190Y-157753259D02*
X113333333Y-157705640D01*
X113333333Y-157705640D02*
X113238095Y-157610401D01*
X113238095Y-157610401D02*
X113190476Y-157515163D01*
X113190476Y-157515163D02*
X113142857Y-157324687D01*
X113142857Y-157324687D02*
X113142857Y-157181830D01*
X113142857Y-157181830D02*
X113190476Y-156991354D01*
X113190476Y-156991354D02*
X113238095Y-156896116D01*
X113238095Y-156896116D02*
X113333333Y-156800878D01*
X113333333Y-156800878D02*
X113476190Y-156753259D01*
X113476190Y-156753259D02*
X113571428Y-156753259D01*
X113571428Y-156753259D02*
X113714285Y-156800878D01*
X113714285Y-156800878D02*
X113761904Y-156848497D01*
X114190476Y-157753259D02*
X114190476Y-156753259D01*
X114761904Y-157753259D02*
X114333333Y-157181830D01*
X114761904Y-156753259D02*
X114190476Y-157324687D01*
D12*
X138385716Y-82930457D02*
X138328573Y-82987600D01*
X138328573Y-82987600D02*
X138157145Y-83044742D01*
X138157145Y-83044742D02*
X138042859Y-83044742D01*
X138042859Y-83044742D02*
X137871430Y-82987600D01*
X137871430Y-82987600D02*
X137757145Y-82873314D01*
X137757145Y-82873314D02*
X137700002Y-82759028D01*
X137700002Y-82759028D02*
X137642859Y-82530457D01*
X137642859Y-82530457D02*
X137642859Y-82359028D01*
X137642859Y-82359028D02*
X137700002Y-82130457D01*
X137700002Y-82130457D02*
X137757145Y-82016171D01*
X137757145Y-82016171D02*
X137871430Y-81901885D01*
X137871430Y-81901885D02*
X138042859Y-81844742D01*
X138042859Y-81844742D02*
X138157145Y-81844742D01*
X138157145Y-81844742D02*
X138328573Y-81901885D01*
X138328573Y-81901885D02*
X138385716Y-81959028D01*
X138900002Y-83044742D02*
X138900002Y-82244742D01*
X138900002Y-81844742D02*
X138842859Y-81901885D01*
X138842859Y-81901885D02*
X138900002Y-81959028D01*
X138900002Y-81959028D02*
X138957145Y-81901885D01*
X138957145Y-81901885D02*
X138900002Y-81844742D01*
X138900002Y-81844742D02*
X138900002Y-81959028D01*
X139471431Y-83044742D02*
X139471431Y-82244742D01*
X139471431Y-82473314D02*
X139528574Y-82359028D01*
X139528574Y-82359028D02*
X139585717Y-82301885D01*
X139585717Y-82301885D02*
X139700002Y-82244742D01*
X139700002Y-82244742D02*
X139814288Y-82244742D01*
X140728574Y-82987600D02*
X140614288Y-83044742D01*
X140614288Y-83044742D02*
X140385716Y-83044742D01*
X140385716Y-83044742D02*
X140271431Y-82987600D01*
X140271431Y-82987600D02*
X140214288Y-82930457D01*
X140214288Y-82930457D02*
X140157145Y-82816171D01*
X140157145Y-82816171D02*
X140157145Y-82473314D01*
X140157145Y-82473314D02*
X140214288Y-82359028D01*
X140214288Y-82359028D02*
X140271431Y-82301885D01*
X140271431Y-82301885D02*
X140385716Y-82244742D01*
X140385716Y-82244742D02*
X140614288Y-82244742D01*
X140614288Y-82244742D02*
X140728574Y-82301885D01*
X141757145Y-82244742D02*
X141757145Y-83044742D01*
X141242859Y-82244742D02*
X141242859Y-82873314D01*
X141242859Y-82873314D02*
X141300002Y-82987600D01*
X141300002Y-82987600D02*
X141414287Y-83044742D01*
X141414287Y-83044742D02*
X141585716Y-83044742D01*
X141585716Y-83044742D02*
X141700002Y-82987600D01*
X141700002Y-82987600D02*
X141757145Y-82930457D01*
X142214287Y-82244742D02*
X142500001Y-83044742D01*
X142500001Y-83044742D02*
X142785716Y-82244742D01*
X143700002Y-82987600D02*
X143585716Y-83044742D01*
X143585716Y-83044742D02*
X143357145Y-83044742D01*
X143357145Y-83044742D02*
X143242859Y-82987600D01*
X143242859Y-82987600D02*
X143185716Y-82873314D01*
X143185716Y-82873314D02*
X143185716Y-82416171D01*
X143185716Y-82416171D02*
X143242859Y-82301885D01*
X143242859Y-82301885D02*
X143357145Y-82244742D01*
X143357145Y-82244742D02*
X143585716Y-82244742D01*
X143585716Y-82244742D02*
X143700002Y-82301885D01*
X143700002Y-82301885D02*
X143757145Y-82416171D01*
X143757145Y-82416171D02*
X143757145Y-82530457D01*
X143757145Y-82530457D02*
X143185716Y-82644742D01*
X144271430Y-82244742D02*
X144271430Y-83044742D01*
X144271430Y-82359028D02*
X144328573Y-82301885D01*
X144328573Y-82301885D02*
X144442858Y-82244742D01*
X144442858Y-82244742D02*
X144614287Y-82244742D01*
X144614287Y-82244742D02*
X144728573Y-82301885D01*
X144728573Y-82301885D02*
X144785716Y-82416171D01*
X144785716Y-82416171D02*
X144785716Y-83044742D01*
X145185715Y-82244742D02*
X145642858Y-82244742D01*
X145357144Y-81844742D02*
X145357144Y-82873314D01*
X145357144Y-82873314D02*
X145414287Y-82987600D01*
X145414287Y-82987600D02*
X145528572Y-83044742D01*
X145528572Y-83044742D02*
X145642858Y-83044742D01*
X146900001Y-82987600D02*
X147071430Y-83044742D01*
X147071430Y-83044742D02*
X147357144Y-83044742D01*
X147357144Y-83044742D02*
X147471430Y-82987600D01*
X147471430Y-82987600D02*
X147528572Y-82930457D01*
X147528572Y-82930457D02*
X147585715Y-82816171D01*
X147585715Y-82816171D02*
X147585715Y-82701885D01*
X147585715Y-82701885D02*
X147528572Y-82587600D01*
X147528572Y-82587600D02*
X147471430Y-82530457D01*
X147471430Y-82530457D02*
X147357144Y-82473314D01*
X147357144Y-82473314D02*
X147128572Y-82416171D01*
X147128572Y-82416171D02*
X147014287Y-82359028D01*
X147014287Y-82359028D02*
X146957144Y-82301885D01*
X146957144Y-82301885D02*
X146900001Y-82187600D01*
X146900001Y-82187600D02*
X146900001Y-82073314D01*
X146900001Y-82073314D02*
X146957144Y-81959028D01*
X146957144Y-81959028D02*
X147014287Y-81901885D01*
X147014287Y-81901885D02*
X147128572Y-81844742D01*
X147128572Y-81844742D02*
X147414287Y-81844742D01*
X147414287Y-81844742D02*
X147585715Y-81901885D01*
X148100001Y-83044742D02*
X148100001Y-82244742D01*
X148100001Y-82359028D02*
X148157144Y-82301885D01*
X148157144Y-82301885D02*
X148271429Y-82244742D01*
X148271429Y-82244742D02*
X148442858Y-82244742D01*
X148442858Y-82244742D02*
X148557144Y-82301885D01*
X148557144Y-82301885D02*
X148614287Y-82416171D01*
X148614287Y-82416171D02*
X148614287Y-83044742D01*
X148614287Y-82416171D02*
X148671429Y-82301885D01*
X148671429Y-82301885D02*
X148785715Y-82244742D01*
X148785715Y-82244742D02*
X148957144Y-82244742D01*
X148957144Y-82244742D02*
X149071429Y-82301885D01*
X149071429Y-82301885D02*
X149128572Y-82416171D01*
X149128572Y-82416171D02*
X149128572Y-83044742D01*
X150214287Y-83044742D02*
X150214287Y-82416171D01*
X150214287Y-82416171D02*
X150157144Y-82301885D01*
X150157144Y-82301885D02*
X150042858Y-82244742D01*
X150042858Y-82244742D02*
X149814287Y-82244742D01*
X149814287Y-82244742D02*
X149700001Y-82301885D01*
X150214287Y-82987600D02*
X150100001Y-83044742D01*
X150100001Y-83044742D02*
X149814287Y-83044742D01*
X149814287Y-83044742D02*
X149700001Y-82987600D01*
X149700001Y-82987600D02*
X149642858Y-82873314D01*
X149642858Y-82873314D02*
X149642858Y-82759028D01*
X149642858Y-82759028D02*
X149700001Y-82644742D01*
X149700001Y-82644742D02*
X149814287Y-82587600D01*
X149814287Y-82587600D02*
X150100001Y-82587600D01*
X150100001Y-82587600D02*
X150214287Y-82530457D01*
X150785715Y-83044742D02*
X150785715Y-82244742D01*
X150785715Y-82473314D02*
X150842858Y-82359028D01*
X150842858Y-82359028D02*
X150900001Y-82301885D01*
X150900001Y-82301885D02*
X151014286Y-82244742D01*
X151014286Y-82244742D02*
X151128572Y-82244742D01*
X151357143Y-82244742D02*
X151814286Y-82244742D01*
X151528572Y-81844742D02*
X151528572Y-82873314D01*
X151528572Y-82873314D02*
X151585715Y-82987600D01*
X151585715Y-82987600D02*
X151700000Y-83044742D01*
X151700000Y-83044742D02*
X151814286Y-83044742D01*
X153528572Y-82416171D02*
X153128572Y-82416171D01*
X153128572Y-83044742D02*
X153128572Y-81844742D01*
X153128572Y-81844742D02*
X153700000Y-81844742D01*
X154671429Y-83044742D02*
X154671429Y-82416171D01*
X154671429Y-82416171D02*
X154614286Y-82301885D01*
X154614286Y-82301885D02*
X154500000Y-82244742D01*
X154500000Y-82244742D02*
X154271429Y-82244742D01*
X154271429Y-82244742D02*
X154157143Y-82301885D01*
X154671429Y-82987600D02*
X154557143Y-83044742D01*
X154557143Y-83044742D02*
X154271429Y-83044742D01*
X154271429Y-83044742D02*
X154157143Y-82987600D01*
X154157143Y-82987600D02*
X154100000Y-82873314D01*
X154100000Y-82873314D02*
X154100000Y-82759028D01*
X154100000Y-82759028D02*
X154157143Y-82644742D01*
X154157143Y-82644742D02*
X154271429Y-82587600D01*
X154271429Y-82587600D02*
X154557143Y-82587600D01*
X154557143Y-82587600D02*
X154671429Y-82530457D01*
X155242857Y-82244742D02*
X155242857Y-83044742D01*
X155242857Y-82359028D02*
X155300000Y-82301885D01*
X155300000Y-82301885D02*
X155414285Y-82244742D01*
X155414285Y-82244742D02*
X155585714Y-82244742D01*
X155585714Y-82244742D02*
X155700000Y-82301885D01*
X155700000Y-82301885D02*
X155757143Y-82416171D01*
X155757143Y-82416171D02*
X155757143Y-83044742D01*
X157928571Y-83044742D02*
X157528571Y-82473314D01*
X157242857Y-83044742D02*
X157242857Y-81844742D01*
X157242857Y-81844742D02*
X157700000Y-81844742D01*
X157700000Y-81844742D02*
X157814285Y-81901885D01*
X157814285Y-81901885D02*
X157871428Y-81959028D01*
X157871428Y-81959028D02*
X157928571Y-82073314D01*
X157928571Y-82073314D02*
X157928571Y-82244742D01*
X157928571Y-82244742D02*
X157871428Y-82359028D01*
X157871428Y-82359028D02*
X157814285Y-82416171D01*
X157814285Y-82416171D02*
X157700000Y-82473314D01*
X157700000Y-82473314D02*
X157242857Y-82473314D01*
X158900000Y-82987600D02*
X158785714Y-83044742D01*
X158785714Y-83044742D02*
X158557143Y-83044742D01*
X158557143Y-83044742D02*
X158442857Y-82987600D01*
X158442857Y-82987600D02*
X158385714Y-82873314D01*
X158385714Y-82873314D02*
X158385714Y-82416171D01*
X158385714Y-82416171D02*
X158442857Y-82301885D01*
X158442857Y-82301885D02*
X158557143Y-82244742D01*
X158557143Y-82244742D02*
X158785714Y-82244742D01*
X158785714Y-82244742D02*
X158900000Y-82301885D01*
X158900000Y-82301885D02*
X158957143Y-82416171D01*
X158957143Y-82416171D02*
X158957143Y-82530457D01*
X158957143Y-82530457D02*
X158385714Y-82644742D01*
X159985714Y-82244742D02*
X159985714Y-83216171D01*
X159985714Y-83216171D02*
X159928571Y-83330457D01*
X159928571Y-83330457D02*
X159871428Y-83387600D01*
X159871428Y-83387600D02*
X159757142Y-83444742D01*
X159757142Y-83444742D02*
X159585714Y-83444742D01*
X159585714Y-83444742D02*
X159471428Y-83387600D01*
X159985714Y-82987600D02*
X159871428Y-83044742D01*
X159871428Y-83044742D02*
X159642856Y-83044742D01*
X159642856Y-83044742D02*
X159528571Y-82987600D01*
X159528571Y-82987600D02*
X159471428Y-82930457D01*
X159471428Y-82930457D02*
X159414285Y-82816171D01*
X159414285Y-82816171D02*
X159414285Y-82473314D01*
X159414285Y-82473314D02*
X159471428Y-82359028D01*
X159471428Y-82359028D02*
X159528571Y-82301885D01*
X159528571Y-82301885D02*
X159642856Y-82244742D01*
X159642856Y-82244742D02*
X159871428Y-82244742D01*
X159871428Y-82244742D02*
X159985714Y-82301885D01*
X161071428Y-82244742D02*
X161071428Y-83044742D01*
X160557142Y-82244742D02*
X160557142Y-82873314D01*
X160557142Y-82873314D02*
X160614285Y-82987600D01*
X160614285Y-82987600D02*
X160728570Y-83044742D01*
X160728570Y-83044742D02*
X160899999Y-83044742D01*
X160899999Y-83044742D02*
X161014285Y-82987600D01*
X161014285Y-82987600D02*
X161071428Y-82930457D01*
X161814284Y-83044742D02*
X161699999Y-82987600D01*
X161699999Y-82987600D02*
X161642856Y-82873314D01*
X161642856Y-82873314D02*
X161642856Y-81844742D01*
X162785713Y-83044742D02*
X162785713Y-82416171D01*
X162785713Y-82416171D02*
X162728570Y-82301885D01*
X162728570Y-82301885D02*
X162614284Y-82244742D01*
X162614284Y-82244742D02*
X162385713Y-82244742D01*
X162385713Y-82244742D02*
X162271427Y-82301885D01*
X162785713Y-82987600D02*
X162671427Y-83044742D01*
X162671427Y-83044742D02*
X162385713Y-83044742D01*
X162385713Y-83044742D02*
X162271427Y-82987600D01*
X162271427Y-82987600D02*
X162214284Y-82873314D01*
X162214284Y-82873314D02*
X162214284Y-82759028D01*
X162214284Y-82759028D02*
X162271427Y-82644742D01*
X162271427Y-82644742D02*
X162385713Y-82587600D01*
X162385713Y-82587600D02*
X162671427Y-82587600D01*
X162671427Y-82587600D02*
X162785713Y-82530457D01*
X163185712Y-82244742D02*
X163642855Y-82244742D01*
X163357141Y-81844742D02*
X163357141Y-82873314D01*
X163357141Y-82873314D02*
X163414284Y-82987600D01*
X163414284Y-82987600D02*
X163528569Y-83044742D01*
X163528569Y-83044742D02*
X163642855Y-83044742D01*
X164214283Y-83044742D02*
X164099998Y-82987600D01*
X164099998Y-82987600D02*
X164042855Y-82930457D01*
X164042855Y-82930457D02*
X163985712Y-82816171D01*
X163985712Y-82816171D02*
X163985712Y-82473314D01*
X163985712Y-82473314D02*
X164042855Y-82359028D01*
X164042855Y-82359028D02*
X164099998Y-82301885D01*
X164099998Y-82301885D02*
X164214283Y-82244742D01*
X164214283Y-82244742D02*
X164385712Y-82244742D01*
X164385712Y-82244742D02*
X164499998Y-82301885D01*
X164499998Y-82301885D02*
X164557141Y-82359028D01*
X164557141Y-82359028D02*
X164614283Y-82473314D01*
X164614283Y-82473314D02*
X164614283Y-82816171D01*
X164614283Y-82816171D02*
X164557141Y-82930457D01*
X164557141Y-82930457D02*
X164499998Y-82987600D01*
X164499998Y-82987600D02*
X164385712Y-83044742D01*
X164385712Y-83044742D02*
X164214283Y-83044742D01*
X165128569Y-83044742D02*
X165128569Y-82244742D01*
X165128569Y-82473314D02*
X165185712Y-82359028D01*
X165185712Y-82359028D02*
X165242855Y-82301885D01*
X165242855Y-82301885D02*
X165357140Y-82244742D01*
X165357140Y-82244742D02*
X165471426Y-82244742D01*
D10*
X190259819Y-140956904D02*
X189259819Y-140956904D01*
X190259819Y-140385476D02*
X189688390Y-140814047D01*
X189259819Y-140385476D02*
X189831247Y-140956904D01*
%TO.C,TP2*%
D13*
X161961300Y-156700000D02*
G75*
G02*
X160061300Y-156700000I-950000J0D01*
G01*
X160061300Y-156700000D02*
G75*
G02*
X161961300Y-156700000I950000J0D01*
G01*
%TO.C,U1*%
X163060000Y-120680000D02*
X163060000Y-119730000D01*
X164460000Y-120680000D02*
X163060000Y-120680000D01*
X180060000Y-120680000D02*
X181460000Y-120680000D01*
X181460000Y-120680000D02*
X181460000Y-119730000D01*
X163060000Y-101730000D02*
X162560000Y-101730000D01*
X163060000Y-101230000D01*
X163060000Y-101730000D01*
G36*
X163060000Y-101730000D02*
G01*
X162560000Y-101730000D01*
X163060000Y-101230000D01*
X163060000Y-101730000D01*
G37*
%TO.C,TP3*%
X165961300Y-156700000D02*
G75*
G02*
X164061300Y-156700000I-950000J0D01*
G01*
X164061300Y-156700000D02*
G75*
G02*
X165961300Y-156700000I950000J0D01*
G01*
%TO.C,F1*%
X106545000Y-109945000D02*
X106545000Y-115945000D01*
X106545000Y-115945000D02*
X108095000Y-115945000D01*
X106545000Y-124945000D02*
X106545000Y-130945000D01*
X106545000Y-124945000D02*
X108095000Y-124945000D01*
X106545000Y-130945000D02*
X108095000Y-130945000D01*
X106695000Y-115945000D02*
X106695000Y-124945000D01*
X108095000Y-109945000D02*
X106545000Y-109945000D01*
X110295000Y-109945000D02*
X111845000Y-109945000D01*
X111695000Y-115945000D02*
X111695000Y-124945000D01*
X111845000Y-115945000D02*
X110295000Y-115945000D01*
X111845000Y-115945000D02*
X111845000Y-109945000D01*
X111845000Y-124945000D02*
X110295000Y-124945000D01*
X111845000Y-124945000D02*
X111845000Y-130945000D01*
X111845000Y-130945000D02*
X110295000Y-130945000D01*
%TO.C,TP1*%
X157961300Y-156700000D02*
G75*
G02*
X156061300Y-156700000I-950000J0D01*
G01*
X156061300Y-156700000D02*
G75*
G02*
X157961300Y-156700000I950000J0D01*
G01*
%TO.C,Qm*%
X190445000Y-109845000D02*
X195065000Y-109845000D01*
X190445000Y-113105000D02*
X191825000Y-113105000D01*
X190445000Y-116805000D02*
X191825000Y-116805000D01*
X190445000Y-120065000D02*
X190445000Y-109845000D01*
X191825000Y-120065000D02*
X191825000Y-109845000D01*
X195065000Y-109845000D02*
X195065000Y-120065000D01*
X195065000Y-120065000D02*
X190445000Y-120065000D01*
%TO.C,U2*%
X186535000Y-143325000D02*
X190295000Y-143325000D01*
X186535000Y-150145000D02*
X190295000Y-150145000D01*
X190295000Y-143325000D02*
X190295000Y-144585000D01*
X190295000Y-150145000D02*
X190295000Y-148885000D01*
X185255000Y-143425000D02*
X185015000Y-143095000D01*
X185495000Y-143095000D01*
X185255000Y-143425000D01*
G36*
X185255000Y-143425000D02*
G01*
X185015000Y-143095000D01*
X185495000Y-143095000D01*
X185255000Y-143425000D01*
G37*
%TO.C,PC1*%
X190495000Y-101095000D02*
X190495000Y-102745000D01*
X190495000Y-104745000D02*
X190495000Y-106395000D01*
X190495000Y-106395000D02*
X195695000Y-106395000D01*
X195695000Y-101095000D02*
X190495000Y-101095000D01*
X195695000Y-106395000D02*
X195695000Y-101095000D01*
X190495000Y-102745000D02*
G75*
G02*
X190495000Y-104745000I0J-1000000D01*
G01*
%TO.C,PS1*%
X128355000Y-88435000D02*
X151075000Y-88435000D01*
X128355000Y-125455000D02*
X128355000Y-88435000D01*
X136919000Y-125455000D02*
X128355000Y-125455000D01*
X151075000Y-88435000D02*
X151075000Y-125455000D01*
X151075000Y-125455000D02*
X137511000Y-125455000D01*
X137215000Y-125455000D02*
X137655000Y-126065000D01*
X136775000Y-126065000D01*
X137215000Y-125455000D01*
G36*
X137655000Y-126065000D02*
G01*
X136775000Y-126065000D01*
X137215000Y-125455000D01*
X137655000Y-126065000D01*
G37*
%TO.C,D1*%
X190435000Y-137315000D02*
X193375000Y-137315000D01*
X190435000Y-137435000D02*
X193375000Y-137435000D01*
X190435000Y-137555000D02*
X193375000Y-137555000D01*
X191905000Y-131875000D02*
X191905000Y-132895000D01*
X191905000Y-139355000D02*
X191905000Y-138335000D01*
X190435000Y-132895000D02*
X193375000Y-132895000D01*
X193375000Y-138335000D01*
X190435000Y-138335000D01*
X190435000Y-132895000D01*
%TO.C,SW1*%
X190805000Y-90795000D02*
X190805000Y-95295000D01*
X193305000Y-96545000D02*
X194805000Y-96545000D01*
X194805000Y-89545000D02*
X193305000Y-89545000D01*
X197305000Y-95295000D02*
X197305000Y-90795000D01*
%TO.C,J3*%
X155685000Y-136185000D02*
X170925000Y-136185000D01*
X155685000Y-139205000D02*
X170925000Y-139205000D01*
X155685000Y-144105000D02*
X170925000Y-144105000D01*
X155685000Y-145605000D02*
X170925000Y-145605000D01*
X155685000Y-146225000D02*
X155685000Y-136185000D01*
X158005000Y-146225000D02*
X155685000Y-146225000D01*
X170925000Y-136185000D02*
X170925000Y-146225000D01*
X170925000Y-146225000D02*
X158605000Y-146225000D01*
X158305000Y-146225000D02*
X158745000Y-146835000D01*
X157865000Y-146835000D01*
X158305000Y-146225000D01*
G36*
X158745000Y-146835000D02*
G01*
X157865000Y-146835000D01*
X158305000Y-146225000D01*
X158745000Y-146835000D01*
G37*
%TO.C,C1*%
X172164154Y-138170000D02*
X173164154Y-138170000D01*
X172664154Y-137670000D02*
X172664154Y-138670000D01*
X177643800Y-135965000D02*
X177643800Y-146125000D01*
X177683800Y-135965000D02*
X177683800Y-146125000D01*
X177723800Y-135966000D02*
X177723800Y-146124000D01*
X177763800Y-135966000D02*
X177763800Y-146124000D01*
X177803800Y-135968000D02*
X177803800Y-146122000D01*
X177843800Y-135969000D02*
X177843800Y-146121000D01*
X177883800Y-135971000D02*
X177883800Y-146119000D01*
X177923800Y-135973000D02*
X177923800Y-146117000D01*
X177963800Y-135975000D02*
X177963800Y-146115000D01*
X178003800Y-135978000D02*
X178003800Y-146112000D01*
X178043800Y-135981000D02*
X178043800Y-146109000D01*
X178083800Y-135984000D02*
X178083800Y-146106000D01*
X178123800Y-135988000D02*
X178123800Y-146102000D01*
X178163800Y-135991000D02*
X178163800Y-146099000D01*
X178203800Y-135996000D02*
X178203800Y-146094000D01*
X178243800Y-136000000D02*
X178243800Y-146090000D01*
X178283800Y-136005000D02*
X178283800Y-146085000D01*
X178323800Y-136010000D02*
X178323800Y-146080000D01*
X178363800Y-136016000D02*
X178363800Y-146074000D01*
X178403800Y-136022000D02*
X178403800Y-146068000D01*
X178443800Y-136028000D02*
X178443800Y-146062000D01*
X178483800Y-136034000D02*
X178483800Y-146056000D01*
X178523800Y-136041000D02*
X178523800Y-146049000D01*
X178563800Y-136048000D02*
X178563800Y-146042000D01*
X178603800Y-136056000D02*
X178603800Y-146034000D01*
X178643800Y-136064000D02*
X178643800Y-146026000D01*
X178683800Y-136072000D02*
X178683800Y-146018000D01*
X178723800Y-136080000D02*
X178723800Y-146010000D01*
X178763800Y-136089000D02*
X178763800Y-146001000D01*
X178803800Y-136098000D02*
X178803800Y-145992000D01*
X178843800Y-136108000D02*
X178843800Y-145982000D01*
X178883800Y-136117000D02*
X178883800Y-145973000D01*
X178923800Y-136128000D02*
X178923800Y-139805000D01*
X178923800Y-142285000D02*
X178923800Y-145962000D01*
X178963800Y-136138000D02*
X178963800Y-139805000D01*
X178963800Y-142285000D02*
X178963800Y-145952000D01*
X179003800Y-136149000D02*
X179003800Y-139805000D01*
X179003800Y-142285000D02*
X179003800Y-145941000D01*
X179043800Y-136160000D02*
X179043800Y-139805000D01*
X179043800Y-142285000D02*
X179043800Y-145930000D01*
X179083800Y-136172000D02*
X179083800Y-139805000D01*
X179083800Y-142285000D02*
X179083800Y-145918000D01*
X179123800Y-136184000D02*
X179123800Y-139805000D01*
X179123800Y-142285000D02*
X179123800Y-145906000D01*
X179163800Y-136196000D02*
X179163800Y-139805000D01*
X179163800Y-142285000D02*
X179163800Y-145894000D01*
X179203800Y-136208000D02*
X179203800Y-139805000D01*
X179203800Y-142285000D02*
X179203800Y-145882000D01*
X179243800Y-136221000D02*
X179243800Y-139805000D01*
X179243800Y-142285000D02*
X179243800Y-145869000D01*
X179283800Y-136235000D02*
X179283800Y-139805000D01*
X179283800Y-142285000D02*
X179283800Y-145855000D01*
X179323800Y-136248000D02*
X179323800Y-139805000D01*
X179323800Y-142285000D02*
X179323800Y-145842000D01*
X179363800Y-136263000D02*
X179363800Y-139805000D01*
X179363800Y-142285000D02*
X179363800Y-145827000D01*
X179403800Y-136277000D02*
X179403800Y-139805000D01*
X179403800Y-142285000D02*
X179403800Y-145813000D01*
X179443800Y-136292000D02*
X179443800Y-139805000D01*
X179443800Y-142285000D02*
X179443800Y-145798000D01*
X179483800Y-136307000D02*
X179483800Y-139805000D01*
X179483800Y-142285000D02*
X179483800Y-145783000D01*
X179523800Y-136323000D02*
X179523800Y-139805000D01*
X179523800Y-142285000D02*
X179523800Y-145767000D01*
X179563800Y-136339000D02*
X179563800Y-139805000D01*
X179563800Y-142285000D02*
X179563800Y-145751000D01*
X179603800Y-136355000D02*
X179603800Y-139805000D01*
X179603800Y-142285000D02*
X179603800Y-145735000D01*
X179643800Y-136372000D02*
X179643800Y-139805000D01*
X179643800Y-142285000D02*
X179643800Y-145718000D01*
X179683800Y-136389000D02*
X179683800Y-139805000D01*
X179683800Y-142285000D02*
X179683800Y-145701000D01*
X179723800Y-136407000D02*
X179723800Y-139805000D01*
X179723800Y-142285000D02*
X179723800Y-145683000D01*
X179763800Y-136425000D02*
X179763800Y-139805000D01*
X179763800Y-142285000D02*
X179763800Y-145665000D01*
X179803800Y-136443000D02*
X179803800Y-139805000D01*
X179803800Y-142285000D02*
X179803800Y-145647000D01*
X179843800Y-136462000D02*
X179843800Y-139805000D01*
X179843800Y-142285000D02*
X179843800Y-145628000D01*
X179883800Y-136481000D02*
X179883800Y-139805000D01*
X179883800Y-142285000D02*
X179883800Y-145609000D01*
X179923800Y-136501000D02*
X179923800Y-139805000D01*
X179923800Y-142285000D02*
X179923800Y-145589000D01*
X179963800Y-136521000D02*
X179963800Y-139805000D01*
X179963800Y-142285000D02*
X179963800Y-145569000D01*
X180003800Y-136541000D02*
X180003800Y-139805000D01*
X180003800Y-142285000D02*
X180003800Y-145549000D01*
X180043800Y-136562000D02*
X180043800Y-139805000D01*
X180043800Y-142285000D02*
X180043800Y-145528000D01*
X180083800Y-136584000D02*
X180083800Y-139805000D01*
X180083800Y-142285000D02*
X180083800Y-145506000D01*
X180123800Y-136606000D02*
X180123800Y-139805000D01*
X180123800Y-142285000D02*
X180123800Y-145484000D01*
X180163800Y-136628000D02*
X180163800Y-139805000D01*
X180163800Y-142285000D02*
X180163800Y-145462000D01*
X180203800Y-136651000D02*
X180203800Y-139805000D01*
X180203800Y-142285000D02*
X180203800Y-145439000D01*
X180243800Y-136674000D02*
X180243800Y-139805000D01*
X180243800Y-142285000D02*
X180243800Y-145416000D01*
X180283800Y-136698000D02*
X180283800Y-139805000D01*
X180283800Y-142285000D02*
X180283800Y-145392000D01*
X180323800Y-136722000D02*
X180323800Y-139805000D01*
X180323800Y-142285000D02*
X180323800Y-145368000D01*
X180363800Y-136747000D02*
X180363800Y-139805000D01*
X180363800Y-142285000D02*
X180363800Y-145343000D01*
X180403800Y-136773000D02*
X180403800Y-139805000D01*
X180403800Y-142285000D02*
X180403800Y-145317000D01*
X180443800Y-136798000D02*
X180443800Y-139805000D01*
X180443800Y-142285000D02*
X180443800Y-145292000D01*
X180483800Y-136825000D02*
X180483800Y-139805000D01*
X180483800Y-142285000D02*
X180483800Y-145265000D01*
X180523800Y-136852000D02*
X180523800Y-139805000D01*
X180523800Y-142285000D02*
X180523800Y-145238000D01*
X180563800Y-136879000D02*
X180563800Y-139805000D01*
X180563800Y-142285000D02*
X180563800Y-145211000D01*
X180603800Y-136907000D02*
X180603800Y-139805000D01*
X180603800Y-142285000D02*
X180603800Y-145183000D01*
X180643800Y-136936000D02*
X180643800Y-139805000D01*
X180643800Y-142285000D02*
X180643800Y-145154000D01*
X180683800Y-136965000D02*
X180683800Y-139805000D01*
X180683800Y-142285000D02*
X180683800Y-145125000D01*
X180723800Y-136995000D02*
X180723800Y-139805000D01*
X180723800Y-142285000D02*
X180723800Y-145095000D01*
X180763800Y-137025000D02*
X180763800Y-139805000D01*
X180763800Y-142285000D02*
X180763800Y-145065000D01*
X180803800Y-137057000D02*
X180803800Y-139805000D01*
X180803800Y-142285000D02*
X180803800Y-145033000D01*
X180843800Y-137088000D02*
X180843800Y-139805000D01*
X180843800Y-142285000D02*
X180843800Y-145002000D01*
X180883800Y-137121000D02*
X180883800Y-139805000D01*
X180883800Y-142285000D02*
X180883800Y-144969000D01*
X180923800Y-137154000D02*
X180923800Y-139805000D01*
X180923800Y-142285000D02*
X180923800Y-144936000D01*
X180963800Y-137187000D02*
X180963800Y-139805000D01*
X180963800Y-142285000D02*
X180963800Y-144903000D01*
X181003800Y-137222000D02*
X181003800Y-139805000D01*
X181003800Y-142285000D02*
X181003800Y-144868000D01*
X181043800Y-137257000D02*
X181043800Y-139805000D01*
X181043800Y-142285000D02*
X181043800Y-144833000D01*
X181083800Y-137293000D02*
X181083800Y-139805000D01*
X181083800Y-142285000D02*
X181083800Y-144797000D01*
X181123800Y-137329000D02*
X181123800Y-139805000D01*
X181123800Y-142285000D02*
X181123800Y-144761000D01*
X181163800Y-137367000D02*
X181163800Y-139805000D01*
X181163800Y-142285000D02*
X181163800Y-144723000D01*
X181203800Y-137405000D02*
X181203800Y-139805000D01*
X181203800Y-142285000D02*
X181203800Y-144685000D01*
X181243800Y-137444000D02*
X181243800Y-139805000D01*
X181243800Y-142285000D02*
X181243800Y-144646000D01*
X181283800Y-137484000D02*
X181283800Y-139805000D01*
X181283800Y-142285000D02*
X181283800Y-144606000D01*
X181323800Y-137525000D02*
X181323800Y-139805000D01*
X181323800Y-142285000D02*
X181323800Y-144565000D01*
X181363800Y-137567000D02*
X181363800Y-139805000D01*
X181363800Y-142285000D02*
X181363800Y-144523000D01*
X181403800Y-137610000D02*
X181403800Y-144480000D01*
X181443800Y-137654000D02*
X181443800Y-144436000D01*
X181483800Y-137698000D02*
X181483800Y-144392000D01*
X181523800Y-137744000D02*
X181523800Y-144346000D01*
X181563800Y-137791000D02*
X181563800Y-144299000D01*
X181603800Y-137840000D02*
X181603800Y-144250000D01*
X181643800Y-137889000D02*
X181643800Y-144201000D01*
X181683800Y-137940000D02*
X181683800Y-144150000D01*
X181723800Y-137992000D02*
X181723800Y-144098000D01*
X181763800Y-138045000D02*
X181763800Y-144045000D01*
X181803800Y-138100000D02*
X181803800Y-143990000D01*
X181843800Y-138157000D02*
X181843800Y-143933000D01*
X181883800Y-138215000D02*
X181883800Y-143875000D01*
X181923800Y-138275000D02*
X181923800Y-143815000D01*
X181963800Y-138337000D02*
X181963800Y-143753000D01*
X182003800Y-138401000D02*
X182003800Y-143689000D01*
X182043800Y-138467000D02*
X182043800Y-143623000D01*
X182083800Y-138535000D02*
X182083800Y-143555000D01*
X182123800Y-138606000D02*
X182123800Y-143484000D01*
X182163800Y-138680000D02*
X182163800Y-143410000D01*
X182203800Y-138757000D02*
X182203800Y-143333000D01*
X182243800Y-138837000D02*
X182243800Y-143253000D01*
X182283800Y-138921000D02*
X182283800Y-143169000D01*
X182323800Y-139008000D02*
X182323800Y-143082000D01*
X182363800Y-139101000D02*
X182363800Y-142989000D01*
X182403800Y-139199000D02*
X182403800Y-142891000D01*
X182443800Y-139303000D02*
X182443800Y-142787000D01*
X182483800Y-139415000D02*
X182483800Y-142675000D01*
X182523800Y-139536000D02*
X182523800Y-142554000D01*
X182563800Y-139668000D02*
X182563800Y-142422000D01*
X182603800Y-139815000D02*
X182603800Y-142275000D01*
X182643800Y-139983000D02*
X182643800Y-142107000D01*
X182683800Y-140183000D02*
X182683800Y-141907000D01*
X182723800Y-140446000D02*
X182723800Y-141644000D01*
X182763800Y-141045000D02*
G75*
G02*
X172523800Y-141045000I-5120000J0D01*
G01*
X172523800Y-141045000D02*
G75*
G02*
X182763800Y-141045000I5120000J0D01*
G01*
%TO.C,U3*%
X129855000Y-143815000D02*
X133975000Y-143815000D01*
X129855000Y-143910000D02*
X129855000Y-143815000D01*
X129855000Y-148935000D02*
X129855000Y-148840000D01*
X133975000Y-143815000D02*
X133975000Y-143910000D01*
X133975000Y-148840000D02*
X133975000Y-148935000D01*
X133975000Y-148935000D02*
X129855000Y-148935000D01*
X129315000Y-143905000D02*
X129075000Y-143575000D01*
X129555000Y-143575000D01*
X129315000Y-143905000D01*
G36*
X129315000Y-143905000D02*
G01*
X129075000Y-143575000D01*
X129555000Y-143575000D01*
X129315000Y-143905000D01*
G37*
%TO.C,K1*%
X128365000Y-126835000D02*
X128365000Y-133435000D01*
X128365000Y-126835000D02*
X148165000Y-126835000D01*
X128365000Y-135835000D02*
X128365000Y-142435000D01*
X132415000Y-134685000D02*
X131615000Y-134685000D01*
X132415000Y-134685000D02*
X132415000Y-138285000D01*
X133315000Y-140685000D02*
X135815000Y-140685000D01*
X133815000Y-132885000D02*
X137815000Y-132885000D01*
X133815000Y-136485000D02*
X133815000Y-132885000D01*
X135815000Y-128685000D02*
X133315000Y-128685000D01*
X135815000Y-128685000D02*
X135815000Y-132885000D01*
X135815000Y-136485000D02*
X135815000Y-140685000D01*
X137815000Y-132885000D02*
X137815000Y-136485000D01*
X137815000Y-136485000D02*
X133815000Y-132885000D01*
X137815000Y-136485000D02*
X133815000Y-136485000D01*
X139215000Y-134685000D02*
X139215000Y-138285000D01*
X139215000Y-134685000D02*
X140715000Y-134685000D01*
X139215000Y-138285000D02*
X132415000Y-138285000D01*
X140715000Y-134685000D02*
X145315000Y-132185000D01*
X143915000Y-130435000D02*
X143915000Y-132935000D01*
X143915000Y-138835000D02*
X143915000Y-136385000D01*
X148165000Y-126835000D02*
X148165000Y-142435000D01*
X148165000Y-142435000D02*
X128365000Y-142435000D01*
%TO.C,J2*%
X106675000Y-139175000D02*
X116915000Y-139175000D01*
X106675000Y-142195000D02*
X116915000Y-142195000D01*
X106675000Y-147095000D02*
X116915000Y-147095000D01*
X106675000Y-148595000D02*
X116915000Y-148595000D01*
X106675000Y-149215000D02*
X106675000Y-139175000D01*
X108995000Y-149215000D02*
X106675000Y-149215000D01*
X116915000Y-139175000D02*
X116915000Y-149215000D01*
X116915000Y-149215000D02*
X109595000Y-149215000D01*
X109295000Y-149215000D02*
X109735000Y-149825000D01*
X108855000Y-149825000D01*
X109295000Y-149215000D01*
G36*
X109735000Y-149825000D02*
G01*
X108855000Y-149825000D01*
X109295000Y-149215000D01*
X109735000Y-149825000D01*
G37*
%TO.C,J1*%
X106675000Y-91685000D02*
X121915000Y-91685000D01*
X106675000Y-94705000D02*
X121915000Y-94705000D01*
X106675000Y-99605000D02*
X121915000Y-99605000D01*
X106675000Y-101105000D02*
X121915000Y-101105000D01*
X106675000Y-101725000D02*
X106675000Y-91685000D01*
X108995000Y-101725000D02*
X106675000Y-101725000D01*
X121915000Y-91685000D02*
X121915000Y-101725000D01*
X121915000Y-101725000D02*
X109595000Y-101725000D01*
X109295000Y-101725000D02*
X109735000Y-102335000D01*
X108855000Y-102335000D01*
X109295000Y-101725000D01*
G36*
X109735000Y-102335000D02*
G01*
X108855000Y-102335000D01*
X109295000Y-101725000D01*
X109735000Y-102335000D01*
G37*
%TO.C,LED0*%
X184845000Y-136769000D02*
X184845000Y-136925000D01*
X184845000Y-139085000D02*
X184845000Y-139241000D01*
X184845000Y-136769484D02*
G75*
G02*
X188076437Y-136925000I1560000J-1235516D01*
G01*
X185364039Y-136925000D02*
G75*
G02*
X187445961Y-136925000I1040961J-1080000D01*
G01*
X187445961Y-139085000D02*
G75*
G02*
X185364039Y-139085000I-1040961J1080000D01*
G01*
X188076437Y-139085000D02*
G75*
G02*
X184845000Y-139240516I-1671437J1080000D01*
G01*
%TO.C,C2*%
X190203559Y-122856000D02*
X190833559Y-122856000D01*
X190518559Y-122541000D02*
X190518559Y-123171000D01*
X193703800Y-121465000D02*
X193703800Y-127925000D01*
X193743800Y-121465000D02*
X193743800Y-127925000D01*
X193783800Y-121466000D02*
X193783800Y-127924000D01*
X193823800Y-121467000D02*
X193823800Y-127923000D01*
X193863800Y-121469000D02*
X193863800Y-127921000D01*
X193903800Y-121471000D02*
X193903800Y-127919000D01*
X193943800Y-121474000D02*
X193943800Y-123655000D01*
X193943800Y-125735000D02*
X193943800Y-127916000D01*
X193983800Y-121477000D02*
X193983800Y-123655000D01*
X193983800Y-125735000D02*
X193983800Y-127913000D01*
X194023800Y-121481000D02*
X194023800Y-123655000D01*
X194023800Y-125735000D02*
X194023800Y-127909000D01*
X194063800Y-121485000D02*
X194063800Y-123655000D01*
X194063800Y-125735000D02*
X194063800Y-127905000D01*
X194103800Y-121490000D02*
X194103800Y-123655000D01*
X194103800Y-125735000D02*
X194103800Y-127900000D01*
X194143800Y-121495000D02*
X194143800Y-123655000D01*
X194143800Y-125735000D02*
X194143800Y-127895000D01*
X194183800Y-121500000D02*
X194183800Y-123655000D01*
X194183800Y-125735000D02*
X194183800Y-127890000D01*
X194223800Y-121507000D02*
X194223800Y-123655000D01*
X194223800Y-125735000D02*
X194223800Y-127883000D01*
X194263800Y-121513000D02*
X194263800Y-123655000D01*
X194263800Y-125735000D02*
X194263800Y-127877000D01*
X194303800Y-121521000D02*
X194303800Y-123655000D01*
X194303800Y-125735000D02*
X194303800Y-127869000D01*
X194343800Y-121528000D02*
X194343800Y-123655000D01*
X194343800Y-125735000D02*
X194343800Y-127862000D01*
X194383800Y-121536000D02*
X194383800Y-123655000D01*
X194383800Y-125735000D02*
X194383800Y-127854000D01*
X194423800Y-121545000D02*
X194423800Y-123655000D01*
X194423800Y-125735000D02*
X194423800Y-127845000D01*
X194463800Y-121555000D02*
X194463800Y-123655000D01*
X194463800Y-125735000D02*
X194463800Y-127835000D01*
X194503800Y-121564000D02*
X194503800Y-123655000D01*
X194503800Y-125735000D02*
X194503800Y-127826000D01*
X194543800Y-121575000D02*
X194543800Y-123655000D01*
X194543800Y-125735000D02*
X194543800Y-127815000D01*
X194583800Y-121586000D02*
X194583800Y-123655000D01*
X194583800Y-125735000D02*
X194583800Y-127804000D01*
X194623800Y-121597000D02*
X194623800Y-123655000D01*
X194623800Y-125735000D02*
X194623800Y-127793000D01*
X194663800Y-121609000D02*
X194663800Y-123655000D01*
X194663800Y-125735000D02*
X194663800Y-127781000D01*
X194703800Y-121622000D02*
X194703800Y-123655000D01*
X194703800Y-125735000D02*
X194703800Y-127768000D01*
X194743800Y-121635000D02*
X194743800Y-123655000D01*
X194743800Y-125735000D02*
X194743800Y-127755000D01*
X194783800Y-121648000D02*
X194783800Y-123655000D01*
X194783800Y-125735000D02*
X194783800Y-127742000D01*
X194823800Y-121663000D02*
X194823800Y-123655000D01*
X194823800Y-125735000D02*
X194823800Y-127727000D01*
X194863800Y-121678000D02*
X194863800Y-123655000D01*
X194863800Y-125735000D02*
X194863800Y-127712000D01*
X194903800Y-121693000D02*
X194903800Y-123655000D01*
X194903800Y-125735000D02*
X194903800Y-127697000D01*
X194943800Y-121709000D02*
X194943800Y-123655000D01*
X194943800Y-125735000D02*
X194943800Y-127681000D01*
X194983800Y-121726000D02*
X194983800Y-123655000D01*
X194983800Y-125735000D02*
X194983800Y-127664000D01*
X195023800Y-121743000D02*
X195023800Y-123655000D01*
X195023800Y-125735000D02*
X195023800Y-127647000D01*
X195063800Y-121761000D02*
X195063800Y-123655000D01*
X195063800Y-125735000D02*
X195063800Y-127629000D01*
X195103800Y-121780000D02*
X195103800Y-123655000D01*
X195103800Y-125735000D02*
X195103800Y-127610000D01*
X195143800Y-121799000D02*
X195143800Y-123655000D01*
X195143800Y-125735000D02*
X195143800Y-127591000D01*
X195183800Y-121819000D02*
X195183800Y-123655000D01*
X195183800Y-125735000D02*
X195183800Y-127571000D01*
X195223800Y-121840000D02*
X195223800Y-123655000D01*
X195223800Y-125735000D02*
X195223800Y-127550000D01*
X195263800Y-121861000D02*
X195263800Y-123655000D01*
X195263800Y-125735000D02*
X195263800Y-127529000D01*
X195303800Y-121883000D02*
X195303800Y-123655000D01*
X195303800Y-125735000D02*
X195303800Y-127507000D01*
X195343800Y-121906000D02*
X195343800Y-123655000D01*
X195343800Y-125735000D02*
X195343800Y-127484000D01*
X195383800Y-121930000D02*
X195383800Y-123655000D01*
X195383800Y-125735000D02*
X195383800Y-127460000D01*
X195423800Y-121954000D02*
X195423800Y-123655000D01*
X195423800Y-125735000D02*
X195423800Y-127436000D01*
X195463800Y-121979000D02*
X195463800Y-123655000D01*
X195463800Y-125735000D02*
X195463800Y-127411000D01*
X195503800Y-122005000D02*
X195503800Y-123655000D01*
X195503800Y-125735000D02*
X195503800Y-127385000D01*
X195543800Y-122032000D02*
X195543800Y-123655000D01*
X195543800Y-125735000D02*
X195543800Y-127358000D01*
X195583800Y-122059000D02*
X195583800Y-123655000D01*
X195583800Y-125735000D02*
X195583800Y-127331000D01*
X195623800Y-122088000D02*
X195623800Y-123655000D01*
X195623800Y-125735000D02*
X195623800Y-127302000D01*
X195663800Y-122118000D02*
X195663800Y-123655000D01*
X195663800Y-125735000D02*
X195663800Y-127272000D01*
X195703800Y-122148000D02*
X195703800Y-123655000D01*
X195703800Y-125735000D02*
X195703800Y-127242000D01*
X195743800Y-122179000D02*
X195743800Y-123655000D01*
X195743800Y-125735000D02*
X195743800Y-127211000D01*
X195783800Y-122212000D02*
X195783800Y-123655000D01*
X195783800Y-125735000D02*
X195783800Y-127178000D01*
X195823800Y-122245000D02*
X195823800Y-123655000D01*
X195823800Y-125735000D02*
X195823800Y-127145000D01*
X195863800Y-122280000D02*
X195863800Y-123655000D01*
X195863800Y-125735000D02*
X195863800Y-127110000D01*
X195903800Y-122316000D02*
X195903800Y-123655000D01*
X195903800Y-125735000D02*
X195903800Y-127074000D01*
X195943800Y-122353000D02*
X195943800Y-123655000D01*
X195943800Y-125735000D02*
X195943800Y-127037000D01*
X195983800Y-122391000D02*
X195983800Y-123655000D01*
X195983800Y-125735000D02*
X195983800Y-126999000D01*
X196023800Y-122431000D02*
X196023800Y-126959000D01*
X196063800Y-122472000D02*
X196063800Y-126918000D01*
X196103800Y-122514000D02*
X196103800Y-126876000D01*
X196143800Y-122558000D02*
X196143800Y-126832000D01*
X196183800Y-122604000D02*
X196183800Y-126786000D01*
X196223800Y-122651000D02*
X196223800Y-126739000D01*
X196263800Y-122700000D02*
X196263800Y-126690000D01*
X196303800Y-122752000D02*
X196303800Y-126638000D01*
X196343800Y-122805000D02*
X196343800Y-126585000D01*
X196383800Y-122861000D02*
X196383800Y-126529000D01*
X196423800Y-122920000D02*
X196423800Y-126470000D01*
X196463800Y-122981000D02*
X196463800Y-126409000D01*
X196503800Y-123046000D02*
X196503800Y-126344000D01*
X196543800Y-123114000D02*
X196543800Y-126276000D01*
X196583800Y-123186000D02*
X196583800Y-126204000D01*
X196623800Y-123263000D02*
X196623800Y-126127000D01*
X196663800Y-123345000D02*
X196663800Y-126045000D01*
X196703800Y-123434000D02*
X196703800Y-125956000D01*
X196743800Y-123530000D02*
X196743800Y-125860000D01*
X196783800Y-123637000D02*
X196783800Y-125753000D01*
X196823800Y-123756000D02*
X196823800Y-125634000D01*
X196863800Y-123894000D02*
X196863800Y-125496000D01*
X196903800Y-124062000D02*
X196903800Y-125328000D01*
X196943800Y-124293000D02*
X196943800Y-125097000D01*
X196973800Y-124695000D02*
G75*
G02*
X190433800Y-124695000I-3270000J0D01*
G01*
X190433800Y-124695000D02*
G75*
G02*
X196973800Y-124695000I3270000J0D01*
G01*
%TO.C,JP*%
X194985000Y-129575000D02*
X196365000Y-129575000D01*
X194985000Y-130955000D02*
X194985000Y-129575000D01*
X194985000Y-132225000D02*
X194985000Y-137415000D01*
X194985000Y-132225000D02*
X197745000Y-132225000D01*
X194985000Y-137415000D02*
X197745000Y-137415000D01*
X197745000Y-132225000D02*
X197745000Y-137415000D01*
%TO.C,RV1*%
D10*
X119435000Y-109445000D02*
X122835000Y-109445000D01*
X119435000Y-116445000D02*
X119435000Y-109445000D01*
X119435000Y-116445000D02*
X122835000Y-116445000D01*
X122835000Y-116445000D02*
X122835000Y-109445000D01*
%TD*%
M02*
