%TF.GenerationSoftware,KiCad,Pcbnew,10.0.5*%
%TF.CreationDate,2026-07-29T02:29:05-07:00*%
%TF.ProjectId,homehub,686f6d65-6875-4622-9e6b-696361645f70,rev?*%
%TF.SameCoordinates,Original*%
%TF.FileFunction,Soldermask,Top*%
%TF.FilePolarity,Negative*%
%FSLAX46Y46*%
G04 Gerber Fmt 4.6, Leading zero omitted, Abs format (unit mm)*
G04 Created by KiCad (PCBNEW 10.0.5) date 2026-07-29 02:29:05*
%MOMM*%
%LPD*%
G01*
G04 APERTURE LIST*
G04 Aperture macros list*
%AMRoundRect*
0 Rectangle with rounded corners*
0 $1 Rounding radius*
0 $2 $3 $4 $5 $6 $7 $8 $9 X,Y pos of 4 corners*
0 Add a 4 corners polygon primitive as box body*
4,1,4,$2,$3,$4,$5,$6,$7,$8,$9,$2,$3,0*
0 Add four circle primitives for the rounded corners*
1,1,$1+$1,$2,$3*
1,1,$1+$1,$4,$5*
1,1,$1+$1,$6,$7*
1,1,$1+$1,$8,$9*
0 Add four rect primitives between the rounded corners*
20,1,$1+$1,$2,$3,$4,$5,0*
20,1,$1+$1,$4,$5,$6,$7,0*
20,1,$1+$1,$6,$7,$8,$9,0*
20,1,$1+$1,$8,$9,$2,$3,0*%
G04 Aperture macros list end*
%ADD10C,3.200000*%
%ADD11C,2.000000*%
%ADD12R,1.800000X1.800000*%
%ADD13C,1.800000*%
%ADD14C,1.600000*%
%ADD15RoundRect,0.249999X0.850001X-0.850001X0.850001X0.850001X-0.850001X0.850001X-0.850001X-0.850001X0*%
%ADD16C,2.200000*%
%ADD17C,3.000000*%
%ADD18C,2.500000*%
%ADD19RoundRect,0.250000X0.550000X-0.550000X0.550000X0.550000X-0.550000X0.550000X-0.550000X-0.550000X0*%
%ADD20R,1.700000X1.700000*%
%ADD21C,1.700000*%
%ADD22RoundRect,0.250000X-0.750000X-0.750000X0.750000X-0.750000X0.750000X0.750000X-0.750000X0.750000X0*%
%ADD23RoundRect,0.249999X-0.850001X-0.850001X0.850001X-0.850001X0.850001X0.850001X-0.850001X0.850001X0*%
%ADD24RoundRect,0.250000X-0.550000X-0.550000X0.550000X-0.550000X0.550000X0.550000X-0.550000X0.550000X0*%
%ADD25RoundRect,0.375000X-0.625000X-0.375000X0.625000X-0.375000X0.625000X0.375000X-0.625000X0.375000X0*%
%ADD26RoundRect,0.500000X-0.500000X-1.400000X0.500000X-1.400000X0.500000X1.400000X-0.500000X1.400000X0*%
%ADD27RoundRect,0.250000X0.750000X-0.600000X0.750000X0.600000X-0.750000X0.600000X-0.750000X-0.600000X0*%
%ADD28O,2.000000X1.700000*%
%ADD29RoundRect,0.250000X-1.050000X-1.050000X1.050000X-1.050000X1.050000X1.050000X-1.050000X1.050000X0*%
%ADD30C,2.600000*%
%ADD31C,1.500000*%
%ADD32RoundRect,0.500000X-0.500000X-0.500000X0.500000X-0.500000X0.500000X0.500000X-0.500000X0.500000X0*%
%ADD33C,0.600000*%
G04 APERTURE END LIST*
D10*
%TO.C,MH3*%
X103998700Y-172600000D03*
%TD*%
D11*
%TO.C,SW1*%
X211419000Y-106785000D03*
X217919000Y-106785000D03*
X211419000Y-111285000D03*
X217919000Y-111285000D03*
%TD*%
D12*
%TO.C,LED2*%
X223889000Y-128965000D03*
D13*
X226429000Y-128965000D03*
%TD*%
D14*
%TO.C,RV1*%
X107545000Y-123385000D03*
X112545000Y-124685000D03*
%TD*%
D11*
%TO.C,FID1*%
X116537300Y-83200000D03*
%TD*%
D10*
%TO.C,MH1*%
X103998700Y-84000000D03*
%TD*%
D15*
%TO.C,D1*%
X232699000Y-110625000D03*
D16*
X232699000Y-100465000D03*
%TD*%
D17*
%TO.C,K2*%
X187789000Y-96245000D03*
D18*
X189739000Y-102295000D03*
D17*
X201939000Y-102295000D03*
X201989000Y-90245000D03*
D18*
X189739000Y-90295000D03*
%TD*%
D19*
%TO.C,U3*%
X230139000Y-96965000D03*
D14*
X232679000Y-96965000D03*
X232679000Y-89345000D03*
X230139000Y-89345000D03*
%TD*%
D20*
%TO.C,JP*%
X198269000Y-127235000D03*
D21*
X198269000Y-129775000D03*
X198269000Y-132315000D03*
%TD*%
D22*
%TO.C,C1*%
X201077800Y-110535000D03*
D11*
X206077800Y-110535000D03*
%TD*%
D12*
%TO.C,LED3*%
X229819000Y-129225000D03*
D13*
X232359000Y-129225000D03*
%TD*%
D23*
%TO.C,D3*%
X218159000Y-124065000D03*
D16*
X228319000Y-124065000D03*
%TD*%
D24*
%TO.C,C2*%
X211067800Y-125865000D03*
D14*
X213567800Y-125865000D03*
%TD*%
D25*
%TO.C,U2*%
X166299000Y-130255000D03*
X166299000Y-132555000D03*
D26*
X172599000Y-132555000D03*
D25*
X166299000Y-134855000D03*
%TD*%
D24*
%TO.C,U4*%
X187299000Y-118705000D03*
D14*
X187299000Y-121245000D03*
X194919000Y-121245000D03*
X194919000Y-118705000D03*
%TD*%
D11*
%TO.C,SW2*%
X222009000Y-106785000D03*
X228509000Y-106785000D03*
X222009000Y-111285000D03*
X228509000Y-111285000D03*
%TD*%
D27*
%TO.C,PS1*%
X146959000Y-121485000D03*
D28*
X151959000Y-121485000D03*
X141959000Y-92405000D03*
X156959000Y-92405000D03*
%TD*%
D12*
%TO.C,LED4*%
X183699000Y-130365000D03*
D13*
X186239000Y-130365000D03*
%TD*%
D10*
%TO.C,MH2*%
X233798700Y-84000000D03*
%TD*%
D29*
%TO.C,J1*%
X109295000Y-97005000D03*
D30*
X114295000Y-97005000D03*
X119295000Y-97005000D03*
%TD*%
D10*
%TO.C,MH4*%
X233798700Y-172600000D03*
%TD*%
D17*
%TO.C,K1*%
X166599000Y-96245000D03*
D18*
X168549000Y-102295000D03*
D17*
X180749000Y-102295000D03*
X180799000Y-90245000D03*
D18*
X168549000Y-90295000D03*
%TD*%
D24*
%TO.C,U5*%
X166109000Y-123795000D03*
D14*
X166109000Y-126335000D03*
X173729000Y-126335000D03*
X173729000Y-123795000D03*
%TD*%
D11*
%TO.C,SW3*%
X211419000Y-115375000D03*
X217919000Y-115375000D03*
X211419000Y-119875000D03*
X217919000Y-119875000D03*
%TD*%
D19*
%TO.C,U6*%
X177389000Y-130945000D03*
D14*
X179929000Y-130945000D03*
X179929000Y-123325000D03*
X177389000Y-123325000D03*
%TD*%
D31*
%TO.C,TP2*%
X170755300Y-172000000D03*
%TD*%
D11*
%TO.C,SW4*%
X222009000Y-115375000D03*
X228509000Y-115375000D03*
X222009000Y-119875000D03*
X228509000Y-119875000D03*
%TD*%
D17*
%TO.C,K4*%
X166599000Y-113235000D03*
D18*
X168549000Y-119285000D03*
D17*
X180749000Y-119285000D03*
X180799000Y-107235000D03*
D18*
X168549000Y-107285000D03*
%TD*%
D31*
%TO.C,TP1*%
X166755300Y-172000000D03*
%TD*%
D29*
%TO.C,J2*%
X189239000Y-110995000D03*
D30*
X194239000Y-110995000D03*
%TD*%
D15*
%TO.C,D2*%
X232699000Y-124575000D03*
D16*
X232699000Y-114415000D03*
%TD*%
D11*
%TO.C,FID2*%
X221265300Y-173400000D03*
%TD*%
D32*
%TO.C,F1*%
X107545000Y-112095000D03*
X112545000Y-112095000D03*
D11*
X122545000Y-112095000D03*
X127545000Y-112095000D03*
%TD*%
D23*
%TO.C,D4*%
X183899000Y-125465000D03*
D16*
X194059000Y-125465000D03*
%TD*%
D12*
%TO.C,LED0*%
X202279000Y-127675000D03*
D13*
X204819000Y-127675000D03*
%TD*%
D11*
%TO.C,SW5*%
X199829000Y-118375000D03*
X206329000Y-118375000D03*
X199829000Y-122875000D03*
X206329000Y-122875000D03*
%TD*%
D31*
%TO.C,TP3*%
X174755300Y-172000000D03*
%TD*%
D12*
%TO.C,LED1*%
X217959000Y-128965000D03*
D13*
X220499000Y-128965000D03*
%TD*%
D17*
%TO.C,K3*%
X208979000Y-96245000D03*
D18*
X210929000Y-102295000D03*
D17*
X223129000Y-102295000D03*
X223179000Y-90245000D03*
D18*
X210929000Y-90295000D03*
%TD*%
D33*
%TO.C,U1*%
X188864000Y-154065000D03*
X190264000Y-154065000D03*
X188164000Y-153365000D03*
X189564000Y-153365000D03*
X190964000Y-153365000D03*
X188864000Y-152665000D03*
X190264000Y-152665000D03*
X188164000Y-151965000D03*
X189564000Y-151965000D03*
X190964000Y-151965000D03*
X188864000Y-151265000D03*
X190264000Y-151265000D03*
%TD*%
M02*
