%TF.GenerationSoftware,KiCad,Pcbnew,10.0.5*%
%TF.CreationDate,2026-07-29T02:29:05-07:00*%
%TF.ProjectId,homehub,686f6d65-6875-4622-9e6b-696361645f70,rev?*%
%TF.SameCoordinates,Original*%
%TF.FileFunction,Drillmap*%
%TF.FilePolarity,Positive*%
%FSLAX45Y45*%
G04 Gerber Fmt 4.5, Leading zero omitted, Abs format (unit mm)*
G04 Created by KiCad (PCBNEW 10.0.5) date 2026-07-29 02:29:05*
%MOMM*%
%LPD*%
G01*
G04 APERTURE LIST*
%ADD10C,0.100000*%
%ADD11C,0.200000*%
%ADD12C,0.105000*%
%ADD13C,0.110000*%
%ADD14C,0.130000*%
G04 APERTURE END LIST*
D10*
X10000000Y-8300000D02*
G75*
G02*
X10300000Y-8000000I300000J0D01*
G01*
X10000000Y-17360000D02*
X10000000Y-8300000D01*
X10300000Y-8000000D02*
X23480000Y-8000000D01*
X10300000Y-17660000D02*
G75*
G02*
X10000000Y-17360000I0J300000D01*
G01*
X14965900Y-12822500D02*
X15125900Y-12822500D01*
X14965900Y-16960000D02*
X14965900Y-12822500D01*
X15125900Y-12822500D02*
X15125900Y-16960000D01*
X15125900Y-16960000D02*
X14965900Y-16960000D01*
X23480000Y-8000000D02*
G75*
G02*
X23780000Y-8300000I0J-300000D01*
G01*
X23480000Y-17660000D02*
X10300000Y-17660000D01*
X23780000Y-8300000D02*
X23780000Y-17360000D01*
X23780000Y-17360000D02*
G75*
G02*
X23480000Y-17660000I-300000J0D01*
G01*
D11*
D10*
X18806400Y-15186500D02*
X18826400Y-15206500D01*
X18826400Y-15186500D02*
X18806400Y-15206500D01*
X18806400Y-15326500D02*
X18826400Y-15346500D01*
X18826400Y-15326500D02*
X18806400Y-15346500D01*
X18876400Y-15116500D02*
X18896400Y-15136500D01*
X18896400Y-15116500D02*
X18876400Y-15136500D01*
X18876400Y-15256500D02*
X18896400Y-15276500D01*
X18896400Y-15256500D02*
X18876400Y-15276500D01*
X18876400Y-15396500D02*
X18896400Y-15416500D01*
X18896400Y-15396500D02*
X18876400Y-15416500D01*
X18946400Y-15186500D02*
X18966400Y-15206500D01*
X18966400Y-15186500D02*
X18946400Y-15206500D01*
X18946400Y-15326500D02*
X18966400Y-15346500D01*
X18966400Y-15326500D02*
X18946400Y-15346500D01*
X19016400Y-15116500D02*
X19036400Y-15136500D01*
X19036400Y-15116500D02*
X19016400Y-15136500D01*
X19016400Y-15256500D02*
X19036400Y-15276500D01*
X19036400Y-15256500D02*
X19016400Y-15276500D01*
X19016400Y-15396500D02*
X19036400Y-15416500D01*
X19036400Y-15396500D02*
X19016400Y-15416500D01*
X19086400Y-15186500D02*
X19106400Y-15206500D01*
X19106400Y-15186500D02*
X19086400Y-15206500D01*
X19086400Y-15326500D02*
X19106400Y-15346500D01*
X19106400Y-15326500D02*
X19086400Y-15346500D01*
X18334700Y-16134900D02*
G75*
G02*
X18304700Y-16134900I-15000J0D01*
G01*
X18304700Y-16134900D02*
G75*
G02*
X18334700Y-16134900I15000J0D01*
G01*
X18611700Y-16134900D02*
G75*
G02*
X18581700Y-16134900I-15000J0D01*
G01*
X18581700Y-16134900D02*
G75*
G02*
X18611700Y-16134900I15000J0D01*
G01*
X18897050Y-13030730D02*
G75*
G02*
X18867050Y-13030730I-15000J0D01*
G01*
X18867050Y-13030730D02*
G75*
G02*
X18897050Y-13030730I15000J0D01*
G01*
X18984190Y-12590320D02*
G75*
G02*
X18954190Y-12590320I-15000J0D01*
G01*
X18954190Y-12590320D02*
G75*
G02*
X18984190Y-12590320I15000J0D01*
G01*
X19134380Y-13874070D02*
G75*
G02*
X19104380Y-13874070I-15000J0D01*
G01*
X19104380Y-13874070D02*
G75*
G02*
X19134380Y-13874070I15000J0D01*
G01*
X19215530Y-11546750D02*
G75*
G02*
X19185530Y-11546750I-15000J0D01*
G01*
X19185530Y-11546750D02*
G75*
G02*
X19215530Y-11546750I15000J0D01*
G01*
X19399350Y-15454140D02*
G75*
G02*
X19369350Y-15454140I-15000J0D01*
G01*
X19369350Y-15454140D02*
G75*
G02*
X19399350Y-15454140I15000J0D01*
G01*
X19399350Y-15787480D02*
G75*
G02*
X19369350Y-15787480I-15000J0D01*
G01*
X19369350Y-15787480D02*
G75*
G02*
X19399350Y-15787480I15000J0D01*
G01*
X19506200Y-16134900D02*
G75*
G02*
X19476200Y-16134900I-15000J0D01*
G01*
X19476200Y-16134900D02*
G75*
G02*
X19506200Y-16134900I15000J0D01*
G01*
X20064360Y-13377450D02*
G75*
G02*
X20034360Y-13377450I-15000J0D01*
G01*
X20034360Y-13377450D02*
G75*
G02*
X20064360Y-13377450I15000J0D01*
G01*
X20586570Y-11546750D02*
G75*
G02*
X20556570Y-11546750I-15000J0D01*
G01*
X20556570Y-11546750D02*
G75*
G02*
X20586570Y-11546750I15000J0D01*
G01*
X16550400Y-8255000D02*
X16550400Y-8295000D01*
X16530400Y-8275000D02*
X16570400Y-8275000D01*
X16550400Y-8605000D02*
X16550400Y-8645000D01*
X16530400Y-8625000D02*
X16570400Y-8625000D01*
X16550400Y-8955000D02*
X16550400Y-8995000D01*
X16530400Y-8975000D02*
X16570400Y-8975000D01*
X16550400Y-9305000D02*
X16550400Y-9345000D01*
X16530400Y-9325000D02*
X16570400Y-9325000D01*
X16550400Y-10005000D02*
X16550400Y-10045000D01*
X16530400Y-10025000D02*
X16570400Y-10025000D01*
X16550400Y-10355000D02*
X16550400Y-10395000D01*
X16530400Y-10375000D02*
X16570400Y-10375000D01*
X16550400Y-10705000D02*
X16550400Y-10745000D01*
X16530400Y-10725000D02*
X16570400Y-10725000D01*
X16550400Y-11055000D02*
X16550400Y-11095000D01*
X16530400Y-11075000D02*
X16570400Y-11075000D01*
X16550400Y-11755000D02*
X16550400Y-11795000D01*
X16530400Y-11775000D02*
X16570400Y-11775000D01*
X16550400Y-12105000D02*
X16550400Y-12145000D01*
X16530400Y-12125000D02*
X16570400Y-12125000D01*
X16550400Y-13855000D02*
X16550400Y-13895000D01*
X16530400Y-13875000D02*
X16570400Y-13875000D01*
X16550400Y-14205000D02*
X16550400Y-14245000D01*
X16530400Y-14225000D02*
X16570400Y-14225000D01*
X16550400Y-14555000D02*
X16550400Y-14595000D01*
X16530400Y-14575000D02*
X16570400Y-14575000D01*
X16550400Y-14905000D02*
X16550400Y-14945000D01*
X16530400Y-14925000D02*
X16570400Y-14925000D01*
X16550400Y-15255000D02*
X16550400Y-15295000D01*
X16530400Y-15275000D02*
X16570400Y-15275000D01*
X16550400Y-15605000D02*
X16550400Y-15645000D01*
X16530400Y-15625000D02*
X16570400Y-15625000D01*
X16550400Y-15955000D02*
X16550400Y-15995000D01*
X16530400Y-15975000D02*
X16570400Y-15975000D01*
X16550400Y-16305000D02*
X16550400Y-16345000D01*
X16530400Y-16325000D02*
X16570400Y-16325000D01*
X16550400Y-16655000D02*
X16550400Y-16695000D01*
X16530400Y-16675000D02*
X16570400Y-16675000D01*
X16550400Y-17005000D02*
X16550400Y-17045000D01*
X16530400Y-17025000D02*
X16570400Y-17025000D01*
X16550400Y-17355000D02*
X16550400Y-17395000D01*
X16530400Y-17375000D02*
X16570400Y-17375000D01*
X16900400Y-8255000D02*
X16900400Y-8295000D01*
X16880400Y-8275000D02*
X16920400Y-8275000D01*
X16900400Y-8605000D02*
X16900400Y-8645000D01*
X16880400Y-8625000D02*
X16920400Y-8625000D01*
X16900400Y-9305000D02*
X16900400Y-9345000D01*
X16880400Y-9325000D02*
X16920400Y-9325000D01*
X16900400Y-11055000D02*
X16900400Y-11095000D01*
X16880400Y-11075000D02*
X16920400Y-11075000D01*
X16900400Y-12455000D02*
X16900400Y-12495000D01*
X16880400Y-12475000D02*
X16920400Y-12475000D01*
X16900400Y-13505000D02*
X16900400Y-13545000D01*
X16880400Y-13525000D02*
X16920400Y-13525000D01*
X16900400Y-13855000D02*
X16900400Y-13895000D01*
X16880400Y-13875000D02*
X16920400Y-13875000D01*
X16900400Y-14205000D02*
X16900400Y-14245000D01*
X16880400Y-14225000D02*
X16920400Y-14225000D01*
X16900400Y-14555000D02*
X16900400Y-14595000D01*
X16880400Y-14575000D02*
X16920400Y-14575000D01*
X16900400Y-14905000D02*
X16900400Y-14945000D01*
X16880400Y-14925000D02*
X16920400Y-14925000D01*
X16900400Y-15255000D02*
X16900400Y-15295000D01*
X16880400Y-15275000D02*
X16920400Y-15275000D01*
X16900400Y-15605000D02*
X16900400Y-15645000D01*
X16880400Y-15625000D02*
X16920400Y-15625000D01*
X16900400Y-15955000D02*
X16900400Y-15995000D01*
X16880400Y-15975000D02*
X16920400Y-15975000D01*
X16900400Y-16305000D02*
X16900400Y-16345000D01*
X16880400Y-16325000D02*
X16920400Y-16325000D01*
X16900400Y-16655000D02*
X16900400Y-16695000D01*
X16880400Y-16675000D02*
X16920400Y-16675000D01*
X16900400Y-17005000D02*
X16900400Y-17045000D01*
X16880400Y-17025000D02*
X16920400Y-17025000D01*
X16900400Y-17355000D02*
X16900400Y-17395000D01*
X16880400Y-17375000D02*
X16920400Y-17375000D01*
X17250400Y-8255000D02*
X17250400Y-8295000D01*
X17230400Y-8275000D02*
X17270400Y-8275000D01*
X17250400Y-8605000D02*
X17250400Y-8645000D01*
X17230400Y-8625000D02*
X17270400Y-8625000D01*
X17250400Y-8955000D02*
X17250400Y-8995000D01*
X17230400Y-8975000D02*
X17270400Y-8975000D01*
X17250400Y-9305000D02*
X17250400Y-9345000D01*
X17230400Y-9325000D02*
X17270400Y-9325000D01*
X17250400Y-9655000D02*
X17250400Y-9695000D01*
X17230400Y-9675000D02*
X17270400Y-9675000D01*
X17250400Y-10005000D02*
X17250400Y-10045000D01*
X17230400Y-10025000D02*
X17270400Y-10025000D01*
X17250400Y-10355000D02*
X17250400Y-10395000D01*
X17230400Y-10375000D02*
X17270400Y-10375000D01*
X17250400Y-10705000D02*
X17250400Y-10745000D01*
X17230400Y-10725000D02*
X17270400Y-10725000D01*
X17250400Y-11055000D02*
X17250400Y-11095000D01*
X17230400Y-11075000D02*
X17270400Y-11075000D01*
X17250400Y-11405000D02*
X17250400Y-11445000D01*
X17230400Y-11425000D02*
X17270400Y-11425000D01*
X17250400Y-11755000D02*
X17250400Y-11795000D01*
X17230400Y-11775000D02*
X17270400Y-11775000D01*
X17250400Y-12105000D02*
X17250400Y-12145000D01*
X17230400Y-12125000D02*
X17270400Y-12125000D01*
X17250400Y-13855000D02*
X17250400Y-13895000D01*
X17230400Y-13875000D02*
X17270400Y-13875000D01*
X17250400Y-14205000D02*
X17250400Y-14245000D01*
X17230400Y-14225000D02*
X17270400Y-14225000D01*
X17250400Y-14555000D02*
X17250400Y-14595000D01*
X17230400Y-14575000D02*
X17270400Y-14575000D01*
X17250400Y-14905000D02*
X17250400Y-14945000D01*
X17230400Y-14925000D02*
X17270400Y-14925000D01*
X17250400Y-15255000D02*
X17250400Y-15295000D01*
X17230400Y-15275000D02*
X17270400Y-15275000D01*
X17250400Y-15605000D02*
X17250400Y-15645000D01*
X17230400Y-15625000D02*
X17270400Y-15625000D01*
X17250400Y-15955000D02*
X17250400Y-15995000D01*
X17230400Y-15975000D02*
X17270400Y-15975000D01*
X17250400Y-16305000D02*
X17250400Y-16345000D01*
X17230400Y-16325000D02*
X17270400Y-16325000D01*
X17250400Y-16655000D02*
X17250400Y-16695000D01*
X17230400Y-16675000D02*
X17270400Y-16675000D01*
X17250400Y-17005000D02*
X17250400Y-17045000D01*
X17230400Y-17025000D02*
X17270400Y-17025000D01*
X17250400Y-17355000D02*
X17250400Y-17395000D01*
X17230400Y-17375000D02*
X17270400Y-17375000D01*
X17600400Y-8255000D02*
X17600400Y-8295000D01*
X17580400Y-8275000D02*
X17620400Y-8275000D01*
X17600400Y-8605000D02*
X17600400Y-8645000D01*
X17580400Y-8625000D02*
X17620400Y-8625000D01*
X17600400Y-8955000D02*
X17600400Y-8995000D01*
X17580400Y-8975000D02*
X17620400Y-8975000D01*
X17600400Y-9305000D02*
X17600400Y-9345000D01*
X17580400Y-9325000D02*
X17620400Y-9325000D01*
X17600400Y-9655000D02*
X17600400Y-9695000D01*
X17580400Y-9675000D02*
X17620400Y-9675000D01*
X17600400Y-10005000D02*
X17600400Y-10045000D01*
X17580400Y-10025000D02*
X17620400Y-10025000D01*
X17600400Y-10355000D02*
X17600400Y-10395000D01*
X17580400Y-10375000D02*
X17620400Y-10375000D01*
X17600400Y-10705000D02*
X17600400Y-10745000D01*
X17580400Y-10725000D02*
X17620400Y-10725000D01*
X17600400Y-11055000D02*
X17600400Y-11095000D01*
X17580400Y-11075000D02*
X17620400Y-11075000D01*
X17600400Y-11405000D02*
X17600400Y-11445000D01*
X17580400Y-11425000D02*
X17620400Y-11425000D01*
X17600400Y-11755000D02*
X17600400Y-11795000D01*
X17580400Y-11775000D02*
X17620400Y-11775000D01*
X17600400Y-12105000D02*
X17600400Y-12145000D01*
X17580400Y-12125000D02*
X17620400Y-12125000D01*
X17600400Y-12805000D02*
X17600400Y-12845000D01*
X17580400Y-12825000D02*
X17620400Y-12825000D01*
X17600400Y-13505000D02*
X17600400Y-13545000D01*
X17580400Y-13525000D02*
X17620400Y-13525000D01*
X17600400Y-13855000D02*
X17600400Y-13895000D01*
X17580400Y-13875000D02*
X17620400Y-13875000D01*
X17600400Y-14205000D02*
X17600400Y-14245000D01*
X17580400Y-14225000D02*
X17620400Y-14225000D01*
X17600400Y-14555000D02*
X17600400Y-14595000D01*
X17580400Y-14575000D02*
X17620400Y-14575000D01*
X17600400Y-14905000D02*
X17600400Y-14945000D01*
X17580400Y-14925000D02*
X17620400Y-14925000D01*
X17600400Y-15255000D02*
X17600400Y-15295000D01*
X17580400Y-15275000D02*
X17620400Y-15275000D01*
X17600400Y-15605000D02*
X17600400Y-15645000D01*
X17580400Y-15625000D02*
X17620400Y-15625000D01*
X17600400Y-15955000D02*
X17600400Y-15995000D01*
X17580400Y-15975000D02*
X17620400Y-15975000D01*
X17600400Y-16305000D02*
X17600400Y-16345000D01*
X17580400Y-16325000D02*
X17620400Y-16325000D01*
X17600400Y-16655000D02*
X17600400Y-16695000D01*
X17580400Y-16675000D02*
X17620400Y-16675000D01*
X17600400Y-17005000D02*
X17600400Y-17045000D01*
X17580400Y-17025000D02*
X17620400Y-17025000D01*
X17600400Y-17355000D02*
X17600400Y-17395000D01*
X17580400Y-17375000D02*
X17620400Y-17375000D01*
X17950400Y-8255000D02*
X17950400Y-8295000D01*
X17930400Y-8275000D02*
X17970400Y-8275000D01*
X17950400Y-8605000D02*
X17950400Y-8645000D01*
X17930400Y-8625000D02*
X17970400Y-8625000D01*
X17950400Y-9305000D02*
X17950400Y-9345000D01*
X17930400Y-9325000D02*
X17970400Y-9325000D01*
X17950400Y-9655000D02*
X17950400Y-9695000D01*
X17930400Y-9675000D02*
X17970400Y-9675000D01*
X17950400Y-11055000D02*
X17950400Y-11095000D01*
X17930400Y-11075000D02*
X17970400Y-11075000D01*
X17950400Y-11405000D02*
X17950400Y-11445000D01*
X17930400Y-11425000D02*
X17970400Y-11425000D01*
X17950400Y-12805000D02*
X17950400Y-12845000D01*
X17930400Y-12825000D02*
X17970400Y-12825000D01*
X17950400Y-13505000D02*
X17950400Y-13545000D01*
X17930400Y-13525000D02*
X17970400Y-13525000D01*
X17950400Y-13855000D02*
X17950400Y-13895000D01*
X17930400Y-13875000D02*
X17970400Y-13875000D01*
X17950400Y-16305000D02*
X17950400Y-16345000D01*
X17930400Y-16325000D02*
X17970400Y-16325000D01*
X17950400Y-16655000D02*
X17950400Y-16695000D01*
X17930400Y-16675000D02*
X17970400Y-16675000D01*
X17950400Y-17005000D02*
X17950400Y-17045000D01*
X17930400Y-17025000D02*
X17970400Y-17025000D01*
X17950400Y-17355000D02*
X17950400Y-17395000D01*
X17930400Y-17375000D02*
X17970400Y-17375000D01*
X18167400Y-15668000D02*
X18167400Y-15708000D01*
X18147400Y-15688000D02*
X18187400Y-15688000D01*
X18300400Y-8255000D02*
X18300400Y-8295000D01*
X18280400Y-8275000D02*
X18320400Y-8275000D01*
X18300400Y-8605000D02*
X18300400Y-8645000D01*
X18280400Y-8625000D02*
X18320400Y-8625000D01*
X18300400Y-9305000D02*
X18300400Y-9345000D01*
X18280400Y-9325000D02*
X18320400Y-9325000D01*
X18300400Y-9655000D02*
X18300400Y-9695000D01*
X18280400Y-9675000D02*
X18320400Y-9675000D01*
X18300400Y-10005000D02*
X18300400Y-10045000D01*
X18280400Y-10025000D02*
X18320400Y-10025000D01*
X18300400Y-11055000D02*
X18300400Y-11095000D01*
X18280400Y-11075000D02*
X18320400Y-11075000D01*
X18300400Y-11405000D02*
X18300400Y-11445000D01*
X18280400Y-11425000D02*
X18320400Y-11425000D01*
X18300400Y-11755000D02*
X18300400Y-11795000D01*
X18280400Y-11775000D02*
X18320400Y-11775000D01*
X18300400Y-12105000D02*
X18300400Y-12145000D01*
X18280400Y-12125000D02*
X18320400Y-12125000D01*
X18300400Y-13505000D02*
X18300400Y-13545000D01*
X18280400Y-13525000D02*
X18320400Y-13525000D01*
X18300400Y-13855000D02*
X18300400Y-13895000D01*
X18280400Y-13875000D02*
X18320400Y-13875000D01*
X18300400Y-14555000D02*
X18300400Y-14595000D01*
X18280400Y-14575000D02*
X18320400Y-14575000D01*
X18300400Y-14905000D02*
X18300400Y-14945000D01*
X18280400Y-14925000D02*
X18320400Y-14925000D01*
X18300400Y-15255000D02*
X18300400Y-15295000D01*
X18280400Y-15275000D02*
X18320400Y-15275000D01*
X18300400Y-15605000D02*
X18300400Y-15645000D01*
X18280400Y-15625000D02*
X18320400Y-15625000D01*
X18300400Y-16305000D02*
X18300400Y-16345000D01*
X18280400Y-16325000D02*
X18320400Y-16325000D01*
X18300400Y-16655000D02*
X18300400Y-16695000D01*
X18280400Y-16675000D02*
X18320400Y-16675000D01*
X18300400Y-17005000D02*
X18300400Y-17045000D01*
X18280400Y-17025000D02*
X18320400Y-17025000D01*
X18300400Y-17355000D02*
X18300400Y-17395000D01*
X18280400Y-17375000D02*
X18320400Y-17375000D01*
X18526900Y-11412000D02*
X18526900Y-11452000D01*
X18506900Y-11432000D02*
X18546900Y-11432000D01*
X18540000Y-11630130D02*
X18540000Y-11670130D01*
X18520000Y-11650130D02*
X18560000Y-11650130D01*
X18623900Y-13246500D02*
X18623900Y-13286500D01*
X18603900Y-13266500D02*
X18643900Y-13266500D01*
X18650400Y-8255000D02*
X18650400Y-8295000D01*
X18630400Y-8275000D02*
X18670400Y-8275000D01*
X18650400Y-8605000D02*
X18650400Y-8645000D01*
X18630400Y-8625000D02*
X18670400Y-8625000D01*
X18650400Y-8955000D02*
X18650400Y-8995000D01*
X18630400Y-8975000D02*
X18670400Y-8975000D01*
X18650400Y-9305000D02*
X18650400Y-9345000D01*
X18630400Y-9325000D02*
X18670400Y-9325000D01*
X18650400Y-10005000D02*
X18650400Y-10045000D01*
X18630400Y-10025000D02*
X18670400Y-10025000D01*
X18650400Y-10355000D02*
X18650400Y-10395000D01*
X18630400Y-10375000D02*
X18670400Y-10375000D01*
X18650400Y-11055000D02*
X18650400Y-11095000D01*
X18630400Y-11075000D02*
X18670400Y-11075000D01*
X18650400Y-12455000D02*
X18650400Y-12495000D01*
X18630400Y-12475000D02*
X18670400Y-12475000D01*
X18650400Y-13505000D02*
X18650400Y-13545000D01*
X18630400Y-13525000D02*
X18670400Y-13525000D01*
X18650400Y-13855000D02*
X18650400Y-13895000D01*
X18630400Y-13875000D02*
X18670400Y-13875000D01*
X18650400Y-14555000D02*
X18650400Y-14595000D01*
X18630400Y-14575000D02*
X18670400Y-14575000D01*
X18650400Y-14905000D02*
X18650400Y-14945000D01*
X18630400Y-14925000D02*
X18670400Y-14925000D01*
X18650400Y-15255000D02*
X18650400Y-15295000D01*
X18630400Y-15275000D02*
X18670400Y-15275000D01*
X18650400Y-15605000D02*
X18650400Y-15645000D01*
X18630400Y-15625000D02*
X18670400Y-15625000D01*
X18650400Y-16305000D02*
X18650400Y-16345000D01*
X18630400Y-16325000D02*
X18670400Y-16325000D01*
X18650400Y-16655000D02*
X18650400Y-16695000D01*
X18630400Y-16675000D02*
X18670400Y-16675000D01*
X18650400Y-17005000D02*
X18650400Y-17045000D01*
X18630400Y-17025000D02*
X18670400Y-17025000D01*
X18650400Y-17355000D02*
X18650400Y-17395000D01*
X18630400Y-17375000D02*
X18670400Y-17375000D01*
X19000400Y-8255000D02*
X19000400Y-8295000D01*
X18980400Y-8275000D02*
X19020400Y-8275000D01*
X19000400Y-8605000D02*
X19000400Y-8645000D01*
X18980400Y-8625000D02*
X19020400Y-8625000D01*
X19000400Y-9305000D02*
X19000400Y-9345000D01*
X18980400Y-9325000D02*
X19020400Y-9325000D01*
X19000400Y-11755000D02*
X19000400Y-11795000D01*
X18980400Y-11775000D02*
X19020400Y-11775000D01*
X19000400Y-12105000D02*
X19000400Y-12145000D01*
X18980400Y-12125000D02*
X19020400Y-12125000D01*
X19000400Y-12455000D02*
X19000400Y-12495000D01*
X18980400Y-12475000D02*
X19020400Y-12475000D01*
X19000400Y-13505000D02*
X19000400Y-13545000D01*
X18980400Y-13525000D02*
X19020400Y-13525000D01*
X19000400Y-13855000D02*
X19000400Y-13895000D01*
X18980400Y-13875000D02*
X19020400Y-13875000D01*
X19000400Y-14555000D02*
X19000400Y-14595000D01*
X18980400Y-14575000D02*
X19020400Y-14575000D01*
X19000400Y-14905000D02*
X19000400Y-14945000D01*
X18980400Y-14925000D02*
X19020400Y-14925000D01*
X19000400Y-15605000D02*
X19000400Y-15645000D01*
X18980400Y-15625000D02*
X19020400Y-15625000D01*
X19000400Y-16305000D02*
X19000400Y-16345000D01*
X18980400Y-16325000D02*
X19020400Y-16325000D01*
X19000400Y-16655000D02*
X19000400Y-16695000D01*
X18980400Y-16675000D02*
X19020400Y-16675000D01*
X19000400Y-17005000D02*
X19000400Y-17045000D01*
X18980400Y-17025000D02*
X19020400Y-17025000D01*
X19000400Y-17355000D02*
X19000400Y-17395000D01*
X18980400Y-17375000D02*
X19020400Y-17375000D01*
X19138400Y-10774500D02*
X19138400Y-10814500D01*
X19118400Y-10794500D02*
X19158400Y-10794500D01*
X19350400Y-8255000D02*
X19350400Y-8295000D01*
X19330400Y-8275000D02*
X19370400Y-8275000D01*
X19350400Y-8605000D02*
X19350400Y-8645000D01*
X19330400Y-8625000D02*
X19370400Y-8625000D01*
X19350400Y-8955000D02*
X19350400Y-8995000D01*
X19330400Y-8975000D02*
X19370400Y-8975000D01*
X19350400Y-9305000D02*
X19350400Y-9345000D01*
X19330400Y-9325000D02*
X19370400Y-9325000D01*
X19350400Y-9655000D02*
X19350400Y-9695000D01*
X19330400Y-9675000D02*
X19370400Y-9675000D01*
X19350400Y-10005000D02*
X19350400Y-10045000D01*
X19330400Y-10025000D02*
X19370400Y-10025000D01*
X19350400Y-10355000D02*
X19350400Y-10395000D01*
X19330400Y-10375000D02*
X19370400Y-10375000D01*
X19350400Y-13505000D02*
X19350400Y-13545000D01*
X19330400Y-13525000D02*
X19370400Y-13525000D01*
X19350400Y-13855000D02*
X19350400Y-13895000D01*
X19330400Y-13875000D02*
X19370400Y-13875000D01*
X19350400Y-14555000D02*
X19350400Y-14595000D01*
X19330400Y-14575000D02*
X19370400Y-14575000D01*
X19350400Y-14905000D02*
X19350400Y-14945000D01*
X19330400Y-14925000D02*
X19370400Y-14925000D01*
X19350400Y-15255000D02*
X19350400Y-15295000D01*
X19330400Y-15275000D02*
X19370400Y-15275000D01*
X19350400Y-15605000D02*
X19350400Y-15645000D01*
X19330400Y-15625000D02*
X19370400Y-15625000D01*
X19350400Y-16305000D02*
X19350400Y-16345000D01*
X19330400Y-16325000D02*
X19370400Y-16325000D01*
X19350400Y-16655000D02*
X19350400Y-16695000D01*
X19330400Y-16675000D02*
X19370400Y-16675000D01*
X19350400Y-17005000D02*
X19350400Y-17045000D01*
X19330400Y-17025000D02*
X19370400Y-17025000D01*
X19350400Y-17355000D02*
X19350400Y-17395000D01*
X19330400Y-17375000D02*
X19370400Y-17375000D01*
X19358520Y-14790800D02*
X19358520Y-14830800D01*
X19338520Y-14810800D02*
X19378520Y-14810800D01*
X19423900Y-10809500D02*
X19423900Y-10849500D01*
X19403900Y-10829500D02*
X19443900Y-10829500D01*
X19665950Y-12767860D02*
X19665950Y-12807860D01*
X19645950Y-12787860D02*
X19685950Y-12787860D01*
X19700400Y-8255000D02*
X19700400Y-8295000D01*
X19680400Y-8275000D02*
X19720400Y-8275000D01*
X19700400Y-8605000D02*
X19700400Y-8645000D01*
X19680400Y-8625000D02*
X19720400Y-8625000D01*
X19700400Y-8955000D02*
X19700400Y-8995000D01*
X19680400Y-8975000D02*
X19720400Y-8975000D01*
X19700400Y-9305000D02*
X19700400Y-9345000D01*
X19680400Y-9325000D02*
X19720400Y-9325000D01*
X19700400Y-9655000D02*
X19700400Y-9695000D01*
X19680400Y-9675000D02*
X19720400Y-9675000D01*
X19700400Y-10005000D02*
X19700400Y-10045000D01*
X19680400Y-10025000D02*
X19720400Y-10025000D01*
X19700400Y-10355000D02*
X19700400Y-10395000D01*
X19680400Y-10375000D02*
X19720400Y-10375000D01*
X19700400Y-11055000D02*
X19700400Y-11095000D01*
X19680400Y-11075000D02*
X19720400Y-11075000D01*
X19700400Y-11755000D02*
X19700400Y-11795000D01*
X19680400Y-11775000D02*
X19720400Y-11775000D01*
X19700400Y-12105000D02*
X19700400Y-12145000D01*
X19680400Y-12125000D02*
X19720400Y-12125000D01*
X19700400Y-12455000D02*
X19700400Y-12495000D01*
X19680400Y-12475000D02*
X19720400Y-12475000D01*
X19700400Y-13505000D02*
X19700400Y-13545000D01*
X19680400Y-13525000D02*
X19720400Y-13525000D01*
X19700400Y-13855000D02*
X19700400Y-13895000D01*
X19680400Y-13875000D02*
X19720400Y-13875000D01*
X19700400Y-16305000D02*
X19700400Y-16345000D01*
X19680400Y-16325000D02*
X19720400Y-16325000D01*
X19700400Y-16655000D02*
X19700400Y-16695000D01*
X19680400Y-16675000D02*
X19720400Y-16675000D01*
X19700400Y-17005000D02*
X19700400Y-17045000D01*
X19680400Y-17025000D02*
X19720400Y-17025000D01*
X19700400Y-17355000D02*
X19700400Y-17395000D01*
X19680400Y-17375000D02*
X19720400Y-17375000D01*
X19728400Y-14006500D02*
X19728400Y-14046500D01*
X19708400Y-14026500D02*
X19748400Y-14026500D01*
X19728400Y-16186500D02*
X19728400Y-16226500D01*
X19708400Y-16206500D02*
X19748400Y-16206500D01*
X19826900Y-13436500D02*
X19826900Y-13476500D01*
X19806900Y-13456500D02*
X19846900Y-13456500D01*
X20050400Y-8255000D02*
X20050400Y-8295000D01*
X20030400Y-8275000D02*
X20070400Y-8275000D01*
X20050400Y-8605000D02*
X20050400Y-8645000D01*
X20030400Y-8625000D02*
X20070400Y-8625000D01*
X20050400Y-9305000D02*
X20050400Y-9345000D01*
X20030400Y-9325000D02*
X20070400Y-9325000D01*
X20050400Y-9655000D02*
X20050400Y-9695000D01*
X20030400Y-9675000D02*
X20070400Y-9675000D01*
X20050400Y-13505000D02*
X20050400Y-13545000D01*
X20030400Y-13525000D02*
X20070400Y-13525000D01*
X20050400Y-13855000D02*
X20050400Y-13895000D01*
X20030400Y-13875000D02*
X20070400Y-13875000D01*
X20050400Y-16305000D02*
X20050400Y-16345000D01*
X20030400Y-16325000D02*
X20070400Y-16325000D01*
X20050400Y-16655000D02*
X20050400Y-16695000D01*
X20030400Y-16675000D02*
X20070400Y-16675000D01*
X20050400Y-17005000D02*
X20050400Y-17045000D01*
X20030400Y-17025000D02*
X20070400Y-17025000D01*
X20050400Y-17355000D02*
X20050400Y-17395000D01*
X20030400Y-17375000D02*
X20070400Y-17375000D01*
X20400400Y-8255000D02*
X20400400Y-8295000D01*
X20380400Y-8275000D02*
X20420400Y-8275000D01*
X20400400Y-8605000D02*
X20400400Y-8645000D01*
X20380400Y-8625000D02*
X20420400Y-8625000D01*
X20400400Y-9305000D02*
X20400400Y-9345000D01*
X20380400Y-9325000D02*
X20420400Y-9325000D01*
X20400400Y-9655000D02*
X20400400Y-9695000D01*
X20380400Y-9675000D02*
X20420400Y-9675000D01*
X20400400Y-10005000D02*
X20400400Y-10045000D01*
X20380400Y-10025000D02*
X20420400Y-10025000D01*
X20400400Y-12105000D02*
X20400400Y-12145000D01*
X20380400Y-12125000D02*
X20420400Y-12125000D01*
X20400400Y-12455000D02*
X20400400Y-12495000D01*
X20380400Y-12475000D02*
X20420400Y-12475000D01*
X20400400Y-13505000D02*
X20400400Y-13545000D01*
X20380400Y-13525000D02*
X20420400Y-13525000D01*
X20400400Y-13855000D02*
X20400400Y-13895000D01*
X20380400Y-13875000D02*
X20420400Y-13875000D01*
X20400400Y-16305000D02*
X20400400Y-16345000D01*
X20380400Y-16325000D02*
X20420400Y-16325000D01*
X20400400Y-16655000D02*
X20400400Y-16695000D01*
X20380400Y-16675000D02*
X20420400Y-16675000D01*
X20400400Y-17005000D02*
X20400400Y-17045000D01*
X20380400Y-17025000D02*
X20420400Y-17025000D01*
X20400400Y-17355000D02*
X20400400Y-17395000D01*
X20380400Y-17375000D02*
X20420400Y-17375000D01*
X20750400Y-8255000D02*
X20750400Y-8295000D01*
X20730400Y-8275000D02*
X20770400Y-8275000D01*
X20750400Y-8605000D02*
X20750400Y-8645000D01*
X20730400Y-8625000D02*
X20770400Y-8625000D01*
X20750400Y-8955000D02*
X20750400Y-8995000D01*
X20730400Y-8975000D02*
X20770400Y-8975000D01*
X20750400Y-9305000D02*
X20750400Y-9345000D01*
X20730400Y-9325000D02*
X20770400Y-9325000D01*
X20750400Y-10005000D02*
X20750400Y-10045000D01*
X20730400Y-10025000D02*
X20770400Y-10025000D01*
X20750400Y-10355000D02*
X20750400Y-10395000D01*
X20730400Y-10375000D02*
X20770400Y-10375000D01*
X20750400Y-13505000D02*
X20750400Y-13545000D01*
X20730400Y-13525000D02*
X20770400Y-13525000D01*
X20750400Y-13855000D02*
X20750400Y-13895000D01*
X20730400Y-13875000D02*
X20770400Y-13875000D01*
X20750400Y-14205000D02*
X20750400Y-14245000D01*
X20730400Y-14225000D02*
X20770400Y-14225000D01*
X20750400Y-14555000D02*
X20750400Y-14595000D01*
X20730400Y-14575000D02*
X20770400Y-14575000D01*
X20750400Y-14905000D02*
X20750400Y-14945000D01*
X20730400Y-14925000D02*
X20770400Y-14925000D01*
X20750400Y-15255000D02*
X20750400Y-15295000D01*
X20730400Y-15275000D02*
X20770400Y-15275000D01*
X20750400Y-15605000D02*
X20750400Y-15645000D01*
X20730400Y-15625000D02*
X20770400Y-15625000D01*
X20750400Y-15955000D02*
X20750400Y-15995000D01*
X20730400Y-15975000D02*
X20770400Y-15975000D01*
X20750400Y-16305000D02*
X20750400Y-16345000D01*
X20730400Y-16325000D02*
X20770400Y-16325000D01*
X20750400Y-16655000D02*
X20750400Y-16695000D01*
X20730400Y-16675000D02*
X20770400Y-16675000D01*
X20750400Y-17005000D02*
X20750400Y-17045000D01*
X20730400Y-17025000D02*
X20770400Y-17025000D01*
X20750400Y-17355000D02*
X20750400Y-17395000D01*
X20730400Y-17375000D02*
X20770400Y-17375000D01*
X20804500Y-11668150D02*
X20804500Y-11708150D01*
X20784500Y-11688150D02*
X20824500Y-11688150D01*
X20847800Y-11033500D02*
X20847800Y-11073500D01*
X20827800Y-11053500D02*
X20867800Y-11053500D01*
X20958900Y-11313000D02*
X20958900Y-11353000D01*
X20938900Y-11333000D02*
X20978900Y-11333000D01*
X21100400Y-8255000D02*
X21100400Y-8295000D01*
X21080400Y-8275000D02*
X21120400Y-8275000D01*
X21100400Y-8605000D02*
X21100400Y-8645000D01*
X21080400Y-8625000D02*
X21120400Y-8625000D01*
X21100400Y-9305000D02*
X21100400Y-9345000D01*
X21080400Y-9325000D02*
X21120400Y-9325000D01*
X21100400Y-13505000D02*
X21100400Y-13545000D01*
X21080400Y-13525000D02*
X21120400Y-13525000D01*
X21100400Y-13855000D02*
X21100400Y-13895000D01*
X21080400Y-13875000D02*
X21120400Y-13875000D01*
X21100400Y-14205000D02*
X21100400Y-14245000D01*
X21080400Y-14225000D02*
X21120400Y-14225000D01*
X21100400Y-14555000D02*
X21100400Y-14595000D01*
X21080400Y-14575000D02*
X21120400Y-14575000D01*
X21100400Y-14905000D02*
X21100400Y-14945000D01*
X21080400Y-14925000D02*
X21120400Y-14925000D01*
X21100400Y-15255000D02*
X21100400Y-15295000D01*
X21080400Y-15275000D02*
X21120400Y-15275000D01*
X21100400Y-15605000D02*
X21100400Y-15645000D01*
X21080400Y-15625000D02*
X21120400Y-15625000D01*
X21100400Y-15955000D02*
X21100400Y-15995000D01*
X21080400Y-15975000D02*
X21120400Y-15975000D01*
X21100400Y-16305000D02*
X21100400Y-16345000D01*
X21080400Y-16325000D02*
X21120400Y-16325000D01*
X21100400Y-16655000D02*
X21100400Y-16695000D01*
X21080400Y-16675000D02*
X21120400Y-16675000D01*
X21100400Y-17005000D02*
X21100400Y-17045000D01*
X21080400Y-17025000D02*
X21120400Y-17025000D01*
X21100400Y-17355000D02*
X21100400Y-17395000D01*
X21080400Y-17375000D02*
X21120400Y-17375000D01*
X21450400Y-8255000D02*
X21450400Y-8295000D01*
X21430400Y-8275000D02*
X21470400Y-8275000D01*
X21450400Y-8605000D02*
X21450400Y-8645000D01*
X21430400Y-8625000D02*
X21470400Y-8625000D01*
X21450400Y-8955000D02*
X21450400Y-8995000D01*
X21430400Y-8975000D02*
X21470400Y-8975000D01*
X21450400Y-9305000D02*
X21450400Y-9345000D01*
X21430400Y-9325000D02*
X21470400Y-9325000D01*
X21450400Y-9655000D02*
X21450400Y-9695000D01*
X21430400Y-9675000D02*
X21470400Y-9675000D01*
X21450400Y-10005000D02*
X21450400Y-10045000D01*
X21430400Y-10025000D02*
X21470400Y-10025000D01*
X21450400Y-10355000D02*
X21450400Y-10395000D01*
X21430400Y-10375000D02*
X21470400Y-10375000D01*
X21450400Y-11755000D02*
X21450400Y-11795000D01*
X21430400Y-11775000D02*
X21470400Y-11775000D01*
X21450400Y-12105000D02*
X21450400Y-12145000D01*
X21430400Y-12125000D02*
X21470400Y-12125000D01*
X21450400Y-12805000D02*
X21450400Y-12845000D01*
X21430400Y-12825000D02*
X21470400Y-12825000D01*
X21450400Y-13505000D02*
X21450400Y-13545000D01*
X21430400Y-13525000D02*
X21470400Y-13525000D01*
X21450400Y-13855000D02*
X21450400Y-13895000D01*
X21430400Y-13875000D02*
X21470400Y-13875000D01*
X21450400Y-14205000D02*
X21450400Y-14245000D01*
X21430400Y-14225000D02*
X21470400Y-14225000D01*
X21450400Y-14555000D02*
X21450400Y-14595000D01*
X21430400Y-14575000D02*
X21470400Y-14575000D01*
X21450400Y-14905000D02*
X21450400Y-14945000D01*
X21430400Y-14925000D02*
X21470400Y-14925000D01*
X21450400Y-15255000D02*
X21450400Y-15295000D01*
X21430400Y-15275000D02*
X21470400Y-15275000D01*
X21450400Y-15605000D02*
X21450400Y-15645000D01*
X21430400Y-15625000D02*
X21470400Y-15625000D01*
X21450400Y-15955000D02*
X21450400Y-15995000D01*
X21430400Y-15975000D02*
X21470400Y-15975000D01*
X21450400Y-16305000D02*
X21450400Y-16345000D01*
X21430400Y-16325000D02*
X21470400Y-16325000D01*
X21450400Y-16655000D02*
X21450400Y-16695000D01*
X21430400Y-16675000D02*
X21470400Y-16675000D01*
X21450400Y-17005000D02*
X21450400Y-17045000D01*
X21430400Y-17025000D02*
X21470400Y-17025000D01*
X21450400Y-17355000D02*
X21450400Y-17395000D01*
X21430400Y-17375000D02*
X21470400Y-17375000D01*
X21800400Y-8255000D02*
X21800400Y-8295000D01*
X21780400Y-8275000D02*
X21820400Y-8275000D01*
X21800400Y-8605000D02*
X21800400Y-8645000D01*
X21780400Y-8625000D02*
X21820400Y-8625000D01*
X21800400Y-8955000D02*
X21800400Y-8995000D01*
X21780400Y-8975000D02*
X21820400Y-8975000D01*
X21800400Y-9305000D02*
X21800400Y-9345000D01*
X21780400Y-9325000D02*
X21820400Y-9325000D01*
X21800400Y-9655000D02*
X21800400Y-9695000D01*
X21780400Y-9675000D02*
X21820400Y-9675000D01*
X21800400Y-10005000D02*
X21800400Y-10045000D01*
X21780400Y-10025000D02*
X21820400Y-10025000D01*
X21800400Y-10355000D02*
X21800400Y-10395000D01*
X21780400Y-10375000D02*
X21820400Y-10375000D01*
X21800400Y-13505000D02*
X21800400Y-13545000D01*
X21780400Y-13525000D02*
X21820400Y-13525000D01*
X21800400Y-13855000D02*
X21800400Y-13895000D01*
X21780400Y-13875000D02*
X21820400Y-13875000D01*
X21800400Y-14205000D02*
X21800400Y-14245000D01*
X21780400Y-14225000D02*
X21820400Y-14225000D01*
X21800400Y-14555000D02*
X21800400Y-14595000D01*
X21780400Y-14575000D02*
X21820400Y-14575000D01*
X21800400Y-14905000D02*
X21800400Y-14945000D01*
X21780400Y-14925000D02*
X21820400Y-14925000D01*
X21800400Y-15255000D02*
X21800400Y-15295000D01*
X21780400Y-15275000D02*
X21820400Y-15275000D01*
X21800400Y-15605000D02*
X21800400Y-15645000D01*
X21780400Y-15625000D02*
X21820400Y-15625000D01*
X21800400Y-15955000D02*
X21800400Y-15995000D01*
X21780400Y-15975000D02*
X21820400Y-15975000D01*
X21800400Y-16305000D02*
X21800400Y-16345000D01*
X21780400Y-16325000D02*
X21820400Y-16325000D01*
X21800400Y-16655000D02*
X21800400Y-16695000D01*
X21780400Y-16675000D02*
X21820400Y-16675000D01*
X21800400Y-17005000D02*
X21800400Y-17045000D01*
X21780400Y-17025000D02*
X21820400Y-17025000D01*
X21800400Y-17355000D02*
X21800400Y-17395000D01*
X21780400Y-17375000D02*
X21820400Y-17375000D01*
X22049900Y-12646500D02*
X22049900Y-12686500D01*
X22029900Y-12666500D02*
X22069900Y-12666500D01*
X22150400Y-8255000D02*
X22150400Y-8295000D01*
X22130400Y-8275000D02*
X22170400Y-8275000D01*
X22150400Y-8605000D02*
X22150400Y-8645000D01*
X22130400Y-8625000D02*
X22170400Y-8625000D01*
X22150400Y-9305000D02*
X22150400Y-9345000D01*
X22130400Y-9325000D02*
X22170400Y-9325000D01*
X22150400Y-9655000D02*
X22150400Y-9695000D01*
X22130400Y-9675000D02*
X22170400Y-9675000D01*
X22150400Y-12455000D02*
X22150400Y-12495000D01*
X22130400Y-12475000D02*
X22170400Y-12475000D01*
X22150400Y-13505000D02*
X22150400Y-13545000D01*
X22130400Y-13525000D02*
X22170400Y-13525000D01*
X22150400Y-13855000D02*
X22150400Y-13895000D01*
X22130400Y-13875000D02*
X22170400Y-13875000D01*
X22150400Y-14205000D02*
X22150400Y-14245000D01*
X22130400Y-14225000D02*
X22170400Y-14225000D01*
X22150400Y-14555000D02*
X22150400Y-14595000D01*
X22130400Y-14575000D02*
X22170400Y-14575000D01*
X22150400Y-14905000D02*
X22150400Y-14945000D01*
X22130400Y-14925000D02*
X22170400Y-14925000D01*
X22150400Y-15255000D02*
X22150400Y-15295000D01*
X22130400Y-15275000D02*
X22170400Y-15275000D01*
X22150400Y-15605000D02*
X22150400Y-15645000D01*
X22130400Y-15625000D02*
X22170400Y-15625000D01*
X22150400Y-15955000D02*
X22150400Y-15995000D01*
X22130400Y-15975000D02*
X22170400Y-15975000D01*
X22150400Y-16305000D02*
X22150400Y-16345000D01*
X22130400Y-16325000D02*
X22170400Y-16325000D01*
X22150400Y-16655000D02*
X22150400Y-16695000D01*
X22130400Y-16675000D02*
X22170400Y-16675000D01*
X22150400Y-17005000D02*
X22150400Y-17045000D01*
X22130400Y-17025000D02*
X22170400Y-17025000D01*
X22500400Y-8255000D02*
X22500400Y-8295000D01*
X22480400Y-8275000D02*
X22520400Y-8275000D01*
X22500400Y-8605000D02*
X22500400Y-8645000D01*
X22480400Y-8625000D02*
X22520400Y-8625000D01*
X22500400Y-9305000D02*
X22500400Y-9345000D01*
X22480400Y-9325000D02*
X22520400Y-9325000D01*
X22500400Y-9655000D02*
X22500400Y-9695000D01*
X22480400Y-9675000D02*
X22520400Y-9675000D01*
X22500400Y-10005000D02*
X22500400Y-10045000D01*
X22480400Y-10025000D02*
X22520400Y-10025000D01*
X22500400Y-11755000D02*
X22500400Y-11795000D01*
X22480400Y-11775000D02*
X22520400Y-11775000D01*
X22500400Y-12105000D02*
X22500400Y-12145000D01*
X22480400Y-12125000D02*
X22520400Y-12125000D01*
X22500400Y-12455000D02*
X22500400Y-12495000D01*
X22480400Y-12475000D02*
X22520400Y-12475000D01*
X22500400Y-13505000D02*
X22500400Y-13545000D01*
X22480400Y-13525000D02*
X22520400Y-13525000D01*
X22500400Y-13855000D02*
X22500400Y-13895000D01*
X22480400Y-13875000D02*
X22520400Y-13875000D01*
X22500400Y-14205000D02*
X22500400Y-14245000D01*
X22480400Y-14225000D02*
X22520400Y-14225000D01*
X22500400Y-14555000D02*
X22500400Y-14595000D01*
X22480400Y-14575000D02*
X22520400Y-14575000D01*
X22500400Y-14905000D02*
X22500400Y-14945000D01*
X22480400Y-14925000D02*
X22520400Y-14925000D01*
X22500400Y-15255000D02*
X22500400Y-15295000D01*
X22480400Y-15275000D02*
X22520400Y-15275000D01*
X22500400Y-15605000D02*
X22500400Y-15645000D01*
X22480400Y-15625000D02*
X22520400Y-15625000D01*
X22500400Y-15955000D02*
X22500400Y-15995000D01*
X22480400Y-15975000D02*
X22520400Y-15975000D01*
X22500400Y-16305000D02*
X22500400Y-16345000D01*
X22480400Y-16325000D02*
X22520400Y-16325000D01*
X22500400Y-16655000D02*
X22500400Y-16695000D01*
X22480400Y-16675000D02*
X22520400Y-16675000D01*
X22500400Y-17005000D02*
X22500400Y-17045000D01*
X22480400Y-17025000D02*
X22520400Y-17025000D01*
X22500400Y-17355000D02*
X22500400Y-17395000D01*
X22480400Y-17375000D02*
X22520400Y-17375000D01*
X22642900Y-12646500D02*
X22642900Y-12686500D01*
X22622900Y-12666500D02*
X22662900Y-12666500D01*
X22737900Y-9937000D02*
X22737900Y-9977000D01*
X22717900Y-9957000D02*
X22757900Y-9957000D01*
X22850400Y-8255000D02*
X22850400Y-8295000D01*
X22830400Y-8275000D02*
X22870400Y-8275000D01*
X22850400Y-8605000D02*
X22850400Y-8645000D01*
X22830400Y-8625000D02*
X22870400Y-8625000D01*
X22850400Y-9305000D02*
X22850400Y-9345000D01*
X22830400Y-9325000D02*
X22870400Y-9325000D01*
X22850400Y-10355000D02*
X22850400Y-10395000D01*
X22830400Y-10375000D02*
X22870400Y-10375000D01*
X22850400Y-13155000D02*
X22850400Y-13195000D01*
X22830400Y-13175000D02*
X22870400Y-13175000D01*
X22850400Y-13505000D02*
X22850400Y-13545000D01*
X22830400Y-13525000D02*
X22870400Y-13525000D01*
X22850400Y-13855000D02*
X22850400Y-13895000D01*
X22830400Y-13875000D02*
X22870400Y-13875000D01*
X22850400Y-14205000D02*
X22850400Y-14245000D01*
X22830400Y-14225000D02*
X22870400Y-14225000D01*
X22850400Y-14555000D02*
X22850400Y-14595000D01*
X22830400Y-14575000D02*
X22870400Y-14575000D01*
X22850400Y-14905000D02*
X22850400Y-14945000D01*
X22830400Y-14925000D02*
X22870400Y-14925000D01*
X22850400Y-15255000D02*
X22850400Y-15295000D01*
X22830400Y-15275000D02*
X22870400Y-15275000D01*
X22850400Y-15605000D02*
X22850400Y-15645000D01*
X22830400Y-15625000D02*
X22870400Y-15625000D01*
X22850400Y-15955000D02*
X22850400Y-15995000D01*
X22830400Y-15975000D02*
X22870400Y-15975000D01*
X22850400Y-16305000D02*
X22850400Y-16345000D01*
X22830400Y-16325000D02*
X22870400Y-16325000D01*
X22850400Y-16655000D02*
X22850400Y-16695000D01*
X22830400Y-16675000D02*
X22870400Y-16675000D01*
X22850400Y-17005000D02*
X22850400Y-17045000D01*
X22830400Y-17025000D02*
X22870400Y-17025000D01*
X22850400Y-17355000D02*
X22850400Y-17395000D01*
X22830400Y-17375000D02*
X22870400Y-17375000D01*
X23200400Y-8605000D02*
X23200400Y-8645000D01*
X23180400Y-8625000D02*
X23220400Y-8625000D01*
X23200400Y-9305000D02*
X23200400Y-9345000D01*
X23180400Y-9325000D02*
X23220400Y-9325000D01*
X23200400Y-10355000D02*
X23200400Y-10395000D01*
X23180400Y-10375000D02*
X23220400Y-10375000D01*
X23200400Y-10705000D02*
X23200400Y-10745000D01*
X23180400Y-10725000D02*
X23220400Y-10725000D01*
X23200400Y-11755000D02*
X23200400Y-11795000D01*
X23180400Y-11775000D02*
X23220400Y-11775000D01*
X23200400Y-12105000D02*
X23200400Y-12145000D01*
X23180400Y-12125000D02*
X23220400Y-12125000D01*
X23200400Y-13155000D02*
X23200400Y-13195000D01*
X23180400Y-13175000D02*
X23220400Y-13175000D01*
X23200400Y-13505000D02*
X23200400Y-13545000D01*
X23180400Y-13525000D02*
X23220400Y-13525000D01*
X23200400Y-13855000D02*
X23200400Y-13895000D01*
X23180400Y-13875000D02*
X23220400Y-13875000D01*
X23200400Y-14205000D02*
X23200400Y-14245000D01*
X23180400Y-14225000D02*
X23220400Y-14225000D01*
X23200400Y-14555000D02*
X23200400Y-14595000D01*
X23180400Y-14575000D02*
X23220400Y-14575000D01*
X23200400Y-14905000D02*
X23200400Y-14945000D01*
X23180400Y-14925000D02*
X23220400Y-14925000D01*
X23200400Y-15255000D02*
X23200400Y-15295000D01*
X23180400Y-15275000D02*
X23220400Y-15275000D01*
X23200400Y-15605000D02*
X23200400Y-15645000D01*
X23180400Y-15625000D02*
X23220400Y-15625000D01*
X23200400Y-15955000D02*
X23200400Y-15995000D01*
X23180400Y-15975000D02*
X23220400Y-15975000D01*
X23200400Y-16305000D02*
X23200400Y-16345000D01*
X23180400Y-16325000D02*
X23220400Y-16325000D01*
X23200400Y-16655000D02*
X23200400Y-16695000D01*
X23180400Y-16675000D02*
X23220400Y-16675000D01*
X23200400Y-17005000D02*
X23200400Y-17045000D01*
X23180400Y-17025000D02*
X23220400Y-17025000D01*
X23550400Y-8605000D02*
X23550400Y-8645000D01*
X23530400Y-8625000D02*
X23570400Y-8625000D01*
X23550400Y-8955000D02*
X23550400Y-8995000D01*
X23530400Y-8975000D02*
X23570400Y-8975000D01*
X23550400Y-9305000D02*
X23550400Y-9345000D01*
X23530400Y-9325000D02*
X23570400Y-9325000D01*
X23550400Y-9655000D02*
X23550400Y-9695000D01*
X23530400Y-9675000D02*
X23570400Y-9675000D01*
X23550400Y-10005000D02*
X23550400Y-10045000D01*
X23530400Y-10025000D02*
X23570400Y-10025000D01*
X23550400Y-10355000D02*
X23550400Y-10395000D01*
X23530400Y-10375000D02*
X23570400Y-10375000D01*
X23550400Y-10705000D02*
X23550400Y-10745000D01*
X23530400Y-10725000D02*
X23570400Y-10725000D01*
X23550400Y-11055000D02*
X23550400Y-11095000D01*
X23530400Y-11075000D02*
X23570400Y-11075000D01*
X23550400Y-11405000D02*
X23550400Y-11445000D01*
X23530400Y-11425000D02*
X23570400Y-11425000D01*
X23550400Y-11755000D02*
X23550400Y-11795000D01*
X23530400Y-11775000D02*
X23570400Y-11775000D01*
X23550400Y-12105000D02*
X23550400Y-12145000D01*
X23530400Y-12125000D02*
X23570400Y-12125000D01*
X23550400Y-12455000D02*
X23550400Y-12495000D01*
X23530400Y-12475000D02*
X23570400Y-12475000D01*
X23550400Y-12805000D02*
X23550400Y-12845000D01*
X23530400Y-12825000D02*
X23570400Y-12825000D01*
X23550400Y-13155000D02*
X23550400Y-13195000D01*
X23530400Y-13175000D02*
X23570400Y-13175000D01*
X23550400Y-13505000D02*
X23550400Y-13545000D01*
X23530400Y-13525000D02*
X23570400Y-13525000D01*
X23550400Y-13855000D02*
X23550400Y-13895000D01*
X23530400Y-13875000D02*
X23570400Y-13875000D01*
X23550400Y-14205000D02*
X23550400Y-14245000D01*
X23530400Y-14225000D02*
X23570400Y-14225000D01*
X23550400Y-14555000D02*
X23550400Y-14595000D01*
X23530400Y-14575000D02*
X23570400Y-14575000D01*
X23550400Y-14905000D02*
X23550400Y-14945000D01*
X23530400Y-14925000D02*
X23570400Y-14925000D01*
X23550400Y-15255000D02*
X23550400Y-15295000D01*
X23530400Y-15275000D02*
X23570400Y-15275000D01*
X23550400Y-15605000D02*
X23550400Y-15645000D01*
X23530400Y-15625000D02*
X23570400Y-15625000D01*
X23550400Y-15955000D02*
X23550400Y-15995000D01*
X23530400Y-15975000D02*
X23570400Y-15975000D01*
X23550400Y-16305000D02*
X23550400Y-16345000D01*
X23530400Y-16325000D02*
X23570400Y-16325000D01*
X23550400Y-16655000D02*
X23550400Y-16695000D01*
X23530400Y-16675000D02*
X23570400Y-16675000D01*
X23550400Y-17005000D02*
X23550400Y-17045000D01*
X23530400Y-17025000D02*
X23570400Y-17025000D01*
X10775713Y-12359713D02*
X10775713Y-12317287D01*
X10733287Y-12317287D01*
X10733287Y-12359713D01*
X10775713Y-12359713D01*
X11275713Y-12489713D02*
X11275713Y-12447287D01*
X11233287Y-12447287D01*
X11233287Y-12489713D01*
X11275713Y-12489713D01*
X16610900Y-12419500D02*
X16650900Y-12379500D01*
X16610900Y-12339500D01*
X16570900Y-12379500D01*
X16610900Y-12419500D01*
X16610900Y-12673500D02*
X16650900Y-12633500D01*
X16610900Y-12593500D01*
X16570900Y-12633500D01*
X16610900Y-12673500D01*
X17372900Y-12419500D02*
X17412900Y-12379500D01*
X17372900Y-12339500D01*
X17332900Y-12379500D01*
X17372900Y-12419500D01*
X17372900Y-12673500D02*
X17412900Y-12633500D01*
X17372900Y-12593500D01*
X17332900Y-12633500D01*
X17372900Y-12673500D01*
X17738900Y-12372500D02*
X17778900Y-12332500D01*
X17738900Y-12292500D01*
X17698900Y-12332500D01*
X17738900Y-12372500D01*
X17738900Y-13134500D02*
X17778900Y-13094500D01*
X17738900Y-13054500D01*
X17698900Y-13094500D01*
X17738900Y-13134500D01*
X17992900Y-12372500D02*
X18032900Y-12332500D01*
X17992900Y-12292500D01*
X17952900Y-12332500D01*
X17992900Y-12372500D01*
X17992900Y-13134500D02*
X18032900Y-13094500D01*
X17992900Y-13054500D01*
X17952900Y-13094500D01*
X17992900Y-13134500D01*
X18729900Y-11910500D02*
X18769900Y-11870500D01*
X18729900Y-11830500D01*
X18689900Y-11870500D01*
X18729900Y-11910500D01*
X18729900Y-12164500D02*
X18769900Y-12124500D01*
X18729900Y-12084500D01*
X18689900Y-12124500D01*
X18729900Y-12164500D01*
X19491900Y-11910500D02*
X19531900Y-11870500D01*
X19491900Y-11830500D01*
X19451900Y-11870500D01*
X19491900Y-11910500D01*
X19491900Y-12164500D02*
X19531900Y-12124500D01*
X19491900Y-12084500D01*
X19451900Y-12124500D01*
X19491900Y-12164500D01*
X21106780Y-12626500D02*
X21146780Y-12586500D01*
X21106780Y-12546500D01*
X21066780Y-12586500D01*
X21106780Y-12626500D01*
X21356780Y-12626500D02*
X21396780Y-12586500D01*
X21356780Y-12546500D01*
X21316780Y-12586500D01*
X21356780Y-12626500D01*
X23013900Y-8974500D02*
X23053900Y-8934500D01*
X23013900Y-8894500D01*
X22973900Y-8934500D01*
X23013900Y-8974500D01*
X23013900Y-9736500D02*
X23053900Y-9696500D01*
X23013900Y-9656500D01*
X22973900Y-9696500D01*
X23013900Y-9736500D01*
X23267900Y-8974500D02*
X23307900Y-8934500D01*
X23267900Y-8894500D01*
X23227900Y-8934500D01*
X23267900Y-8974500D01*
X23267900Y-9736500D02*
X23307900Y-9696500D01*
X23267900Y-9656500D01*
X23227900Y-9696500D01*
X23267900Y-9736500D01*
X18324900Y-12991500D02*
X18414900Y-13081500D01*
X18414900Y-12991500D02*
X18324900Y-13081500D01*
X18414900Y-13036500D02*
G75*
G02*
X18324900Y-13036500I-45000J0D01*
G01*
X18324900Y-13036500D02*
G75*
G02*
X18414900Y-13036500I45000J0D01*
G01*
X18578900Y-12991500D02*
X18668900Y-13081500D01*
X18668900Y-12991500D02*
X18578900Y-13081500D01*
X18668900Y-13036500D02*
G75*
G02*
X18578900Y-13036500I-45000J0D01*
G01*
X18578900Y-13036500D02*
G75*
G02*
X18668900Y-13036500I45000J0D01*
G01*
X20182900Y-12722500D02*
X20272900Y-12812500D01*
X20272900Y-12722500D02*
X20182900Y-12812500D01*
X20272900Y-12767500D02*
G75*
G02*
X20182900Y-12767500I-45000J0D01*
G01*
X20182900Y-12767500D02*
G75*
G02*
X20272900Y-12767500I45000J0D01*
G01*
X20436900Y-12722500D02*
X20526900Y-12812500D01*
X20526900Y-12722500D02*
X20436900Y-12812500D01*
X20526900Y-12767500D02*
G75*
G02*
X20436900Y-12767500I-45000J0D01*
G01*
X20436900Y-12767500D02*
G75*
G02*
X20526900Y-12767500I45000J0D01*
G01*
X21750900Y-12851500D02*
X21840900Y-12941500D01*
X21840900Y-12851500D02*
X21750900Y-12941500D01*
X21840900Y-12896500D02*
G75*
G02*
X21750900Y-12896500I-45000J0D01*
G01*
X21750900Y-12896500D02*
G75*
G02*
X21840900Y-12896500I45000J0D01*
G01*
X22004900Y-12851500D02*
X22094900Y-12941500D01*
X22094900Y-12851500D02*
X22004900Y-12941500D01*
X22094900Y-12896500D02*
G75*
G02*
X22004900Y-12896500I-45000J0D01*
G01*
X22004900Y-12896500D02*
G75*
G02*
X22094900Y-12896500I45000J0D01*
G01*
X22343900Y-12851500D02*
X22433900Y-12941500D01*
X22433900Y-12851500D02*
X22343900Y-12941500D01*
X22433900Y-12896500D02*
G75*
G02*
X22343900Y-12896500I-45000J0D01*
G01*
X22343900Y-12896500D02*
G75*
G02*
X22433900Y-12896500I45000J0D01*
G01*
X22597900Y-12851500D02*
X22687900Y-12941500D01*
X22687900Y-12851500D02*
X22597900Y-12941500D01*
X22687900Y-12896500D02*
G75*
G02*
X22597900Y-12896500I-45000J0D01*
G01*
X22597900Y-12896500D02*
G75*
G02*
X22687900Y-12896500I45000J0D01*
G01*
X22936900Y-12877500D02*
X23026900Y-12967500D01*
X23026900Y-12877500D02*
X22936900Y-12967500D01*
X23026900Y-12922500D02*
G75*
G02*
X22936900Y-12922500I-45000J0D01*
G01*
X22936900Y-12922500D02*
G75*
G02*
X23026900Y-12922500I45000J0D01*
G01*
X23190900Y-12877500D02*
X23280900Y-12967500D01*
X23280900Y-12877500D02*
X23190900Y-12967500D01*
X23280900Y-12922500D02*
G75*
G02*
X23190900Y-12922500I-45000J0D01*
G01*
X23190900Y-12922500D02*
G75*
G02*
X23280900Y-12922500I45000J0D01*
G01*
X14145900Y-9190500D02*
X14245900Y-9290500D01*
X14245900Y-9190500D02*
X14145900Y-9290500D01*
X14195900Y-9190500D02*
X14195900Y-9290500D01*
X14145900Y-9240500D02*
X14245900Y-9240500D01*
X14645900Y-12098500D02*
X14745900Y-12198500D01*
X14745900Y-12098500D02*
X14645900Y-12198500D01*
X14695900Y-12098500D02*
X14695900Y-12198500D01*
X14645900Y-12148500D02*
X14745900Y-12148500D01*
X15145900Y-12098500D02*
X15245900Y-12198500D01*
X15245900Y-12098500D02*
X15145900Y-12198500D01*
X15195900Y-12098500D02*
X15195900Y-12198500D01*
X15145900Y-12148500D02*
X15245900Y-12148500D01*
X15645900Y-9190500D02*
X15745900Y-9290500D01*
X15745900Y-9190500D02*
X15645900Y-9290500D01*
X15695900Y-9190500D02*
X15695900Y-9290500D01*
X15645900Y-9240500D02*
X15745900Y-9240500D01*
X16804900Y-8979500D02*
X16904900Y-9079500D01*
X16904900Y-8979500D02*
X16804900Y-9079500D01*
X16854900Y-8979500D02*
X16854900Y-9079500D01*
X16804900Y-9029500D02*
X16904900Y-9029500D01*
X16804900Y-10179500D02*
X16904900Y-10279500D01*
X16904900Y-10179500D02*
X16804900Y-10279500D01*
X16854900Y-10179500D02*
X16854900Y-10279500D01*
X16804900Y-10229500D02*
X16904900Y-10229500D01*
X16804900Y-10678500D02*
X16904900Y-10778500D01*
X16904900Y-10678500D02*
X16804900Y-10778500D01*
X16854900Y-10678500D02*
X16854900Y-10778500D01*
X16804900Y-10728500D02*
X16904900Y-10728500D01*
X16804900Y-11878500D02*
X16904900Y-11978500D01*
X16904900Y-11878500D02*
X16804900Y-11978500D01*
X16854900Y-11878500D02*
X16854900Y-11978500D01*
X16804900Y-11928500D02*
X16904900Y-11928500D01*
X18923900Y-8979500D02*
X19023900Y-9079500D01*
X19023900Y-8979500D02*
X18923900Y-9079500D01*
X18973900Y-8979500D02*
X18973900Y-9079500D01*
X18923900Y-9029500D02*
X19023900Y-9029500D01*
X18923900Y-10179500D02*
X19023900Y-10279500D01*
X19023900Y-10179500D02*
X18923900Y-10279500D01*
X18973900Y-10179500D02*
X18973900Y-10279500D01*
X18923900Y-10229500D02*
X19023900Y-10229500D01*
X19776900Y-12673500D02*
X19876900Y-12773500D01*
X19876900Y-12673500D02*
X19776900Y-12773500D01*
X19826900Y-12673500D02*
X19826900Y-12773500D01*
X19776900Y-12723500D02*
X19876900Y-12723500D01*
X19776900Y-12927500D02*
X19876900Y-13027500D01*
X19876900Y-12927500D02*
X19776900Y-13027500D01*
X19826900Y-12927500D02*
X19826900Y-13027500D01*
X19776900Y-12977500D02*
X19876900Y-12977500D01*
X19776900Y-13181500D02*
X19876900Y-13281500D01*
X19876900Y-13181500D02*
X19776900Y-13281500D01*
X19826900Y-13181500D02*
X19826900Y-13281500D01*
X19776900Y-13231500D02*
X19876900Y-13231500D01*
X20057780Y-11003500D02*
X20157780Y-11103500D01*
X20157780Y-11003500D02*
X20057780Y-11103500D01*
X20107780Y-11003500D02*
X20107780Y-11103500D01*
X20057780Y-11053500D02*
X20157780Y-11053500D01*
X20557780Y-11003500D02*
X20657780Y-11103500D01*
X20657780Y-11003500D02*
X20557780Y-11103500D01*
X20607780Y-11003500D02*
X20607780Y-11103500D01*
X20557780Y-11053500D02*
X20657780Y-11053500D01*
X21042900Y-8979500D02*
X21142900Y-9079500D01*
X21142900Y-8979500D02*
X21042900Y-9079500D01*
X21092900Y-8979500D02*
X21092900Y-9079500D01*
X21042900Y-9029500D02*
X21142900Y-9029500D01*
X21042900Y-10179500D02*
X21142900Y-10279500D01*
X21142900Y-10179500D02*
X21042900Y-10279500D01*
X21092900Y-10179500D02*
X21092900Y-10279500D01*
X21042900Y-10229500D02*
X21142900Y-10229500D01*
D12*
X10702000Y-11157000D02*
X10807000Y-11262000D01*
X10807000Y-11157000D02*
X10702000Y-11262000D01*
X10791624Y-11246623D02*
X10791624Y-11172377D01*
X10717377Y-11172377D01*
X10717377Y-11246623D01*
X10791624Y-11246623D01*
X11202000Y-11157000D02*
X11307000Y-11262000D01*
X11307000Y-11157000D02*
X11202000Y-11262000D01*
X11291623Y-11246623D02*
X11291623Y-11172377D01*
X11217376Y-11172377D01*
X11217376Y-11246623D01*
X11291623Y-11246623D01*
X12202000Y-11157000D02*
X12307000Y-11262000D01*
X12307000Y-11157000D02*
X12202000Y-11262000D01*
X12291623Y-11246623D02*
X12291623Y-11172377D01*
X12217376Y-11172377D01*
X12217376Y-11246623D01*
X12291623Y-11246623D01*
X12702000Y-11157000D02*
X12807000Y-11262000D01*
X12807000Y-11157000D02*
X12702000Y-11262000D01*
X12791623Y-11246623D02*
X12791623Y-11172377D01*
X12717376Y-11172377D01*
X12717376Y-11246623D01*
X12791623Y-11246623D01*
D13*
X18334900Y-12491500D02*
X18444900Y-12601500D01*
X18444900Y-12491500D02*
X18334900Y-12601500D01*
X18389900Y-12601500D02*
X18444900Y-12546500D01*
X18389900Y-12491500D01*
X18334900Y-12546500D01*
X18389900Y-12601500D01*
X19350900Y-12491500D02*
X19460900Y-12601500D01*
X19460900Y-12491500D02*
X19350900Y-12601500D01*
X19405900Y-12601500D02*
X19460900Y-12546500D01*
X19405900Y-12491500D01*
X19350900Y-12546500D01*
X19405900Y-12601500D01*
X19927900Y-11782500D02*
X20037900Y-11892500D01*
X20037900Y-11782500D02*
X19927900Y-11892500D01*
X19982900Y-11892500D02*
X20037900Y-11837500D01*
X19982900Y-11782500D01*
X19927900Y-11837500D01*
X19982900Y-11892500D01*
X19927900Y-12232500D02*
X20037900Y-12342500D01*
X20037900Y-12232500D02*
X19927900Y-12342500D01*
X19982900Y-12342500D02*
X20037900Y-12287500D01*
X19982900Y-12232500D01*
X19927900Y-12287500D01*
X19982900Y-12342500D01*
X20577900Y-11782500D02*
X20687900Y-11892500D01*
X20687900Y-11782500D02*
X20577900Y-11892500D01*
X20632900Y-11892500D02*
X20687900Y-11837500D01*
X20632900Y-11782500D01*
X20577900Y-11837500D01*
X20632900Y-11892500D01*
X20577900Y-12232500D02*
X20687900Y-12342500D01*
X20687900Y-12232500D02*
X20577900Y-12342500D01*
X20632900Y-12342500D02*
X20687900Y-12287500D01*
X20632900Y-12232500D01*
X20577900Y-12287500D01*
X20632900Y-12342500D01*
X21086900Y-10623500D02*
X21196900Y-10733500D01*
X21196900Y-10623500D02*
X21086900Y-10733500D01*
X21141900Y-10733500D02*
X21196900Y-10678500D01*
X21141900Y-10623500D01*
X21086900Y-10678500D01*
X21141900Y-10733500D01*
X21086900Y-11073500D02*
X21196900Y-11183500D01*
X21196900Y-11073500D02*
X21086900Y-11183500D01*
X21141900Y-11183500D02*
X21196900Y-11128500D01*
X21141900Y-11073500D01*
X21086900Y-11128500D01*
X21141900Y-11183500D01*
X21086900Y-11482500D02*
X21196900Y-11592500D01*
X21196900Y-11482500D02*
X21086900Y-11592500D01*
X21141900Y-11592500D02*
X21196900Y-11537500D01*
X21141900Y-11482500D01*
X21086900Y-11537500D01*
X21141900Y-11592500D01*
X21086900Y-11932500D02*
X21196900Y-12042500D01*
X21196900Y-11932500D02*
X21086900Y-12042500D01*
X21141900Y-12042500D02*
X21196900Y-11987500D01*
X21141900Y-11932500D01*
X21086900Y-11987500D01*
X21141900Y-12042500D01*
X21736900Y-10623500D02*
X21846900Y-10733500D01*
X21846900Y-10623500D02*
X21736900Y-10733500D01*
X21791900Y-10733500D02*
X21846900Y-10678500D01*
X21791900Y-10623500D01*
X21736900Y-10678500D01*
X21791900Y-10733500D01*
X21736900Y-11073500D02*
X21846900Y-11183500D01*
X21846900Y-11073500D02*
X21736900Y-11183500D01*
X21791900Y-11183500D02*
X21846900Y-11128500D01*
X21791900Y-11073500D01*
X21736900Y-11128500D01*
X21791900Y-11183500D01*
X21736900Y-11482500D02*
X21846900Y-11592500D01*
X21846900Y-11482500D02*
X21736900Y-11592500D01*
X21791900Y-11592500D02*
X21846900Y-11537500D01*
X21791900Y-11482500D01*
X21736900Y-11537500D01*
X21791900Y-11592500D01*
X21736900Y-11932500D02*
X21846900Y-12042500D01*
X21846900Y-11932500D02*
X21736900Y-12042500D01*
X21791900Y-12042500D02*
X21846900Y-11987500D01*
X21791900Y-11932500D01*
X21736900Y-11987500D01*
X21791900Y-12042500D01*
X21760900Y-12351500D02*
X21870900Y-12461500D01*
X21870900Y-12351500D02*
X21760900Y-12461500D01*
X21815900Y-12461500D02*
X21870900Y-12406500D01*
X21815900Y-12351500D01*
X21760900Y-12406500D01*
X21815900Y-12461500D01*
X22145900Y-10623500D02*
X22255900Y-10733500D01*
X22255900Y-10623500D02*
X22145900Y-10733500D01*
X22200900Y-10733500D02*
X22255900Y-10678500D01*
X22200900Y-10623500D01*
X22145900Y-10678500D01*
X22200900Y-10733500D01*
X22145900Y-11073500D02*
X22255900Y-11183500D01*
X22255900Y-11073500D02*
X22145900Y-11183500D01*
X22200900Y-11183500D02*
X22255900Y-11128500D01*
X22200900Y-11073500D01*
X22145900Y-11128500D01*
X22200900Y-11183500D01*
X22145900Y-11482500D02*
X22255900Y-11592500D01*
X22255900Y-11482500D02*
X22145900Y-11592500D01*
X22200900Y-11592500D02*
X22255900Y-11537500D01*
X22200900Y-11482500D01*
X22145900Y-11537500D01*
X22200900Y-11592500D01*
X22145900Y-11932500D02*
X22255900Y-12042500D01*
X22255900Y-11932500D02*
X22145900Y-12042500D01*
X22200900Y-12042500D02*
X22255900Y-11987500D01*
X22200900Y-11932500D01*
X22145900Y-11987500D01*
X22200900Y-12042500D01*
X22776900Y-12351500D02*
X22886900Y-12461500D01*
X22886900Y-12351500D02*
X22776900Y-12461500D01*
X22831900Y-12461500D02*
X22886900Y-12406500D01*
X22831900Y-12351500D01*
X22776900Y-12406500D01*
X22831900Y-12461500D01*
X22795900Y-10623500D02*
X22905900Y-10733500D01*
X22905900Y-10623500D02*
X22795900Y-10733500D01*
X22850900Y-10733500D02*
X22905900Y-10678500D01*
X22850900Y-10623500D01*
X22795900Y-10678500D01*
X22850900Y-10733500D01*
X22795900Y-11073500D02*
X22905900Y-11183500D01*
X22905900Y-11073500D02*
X22795900Y-11183500D01*
X22850900Y-11183500D02*
X22905900Y-11128500D01*
X22850900Y-11073500D01*
X22795900Y-11128500D01*
X22850900Y-11183500D01*
X22795900Y-11482500D02*
X22905900Y-11592500D01*
X22905900Y-11482500D02*
X22795900Y-11592500D01*
X22850900Y-11592500D02*
X22905900Y-11537500D01*
X22850900Y-11482500D01*
X22795900Y-11537500D01*
X22850900Y-11592500D01*
X22795900Y-11932500D02*
X22905900Y-12042500D01*
X22905900Y-11932500D02*
X22795900Y-12042500D01*
X22850900Y-12042500D02*
X22905900Y-11987500D01*
X22850900Y-11932500D01*
X22795900Y-11987500D01*
X22850900Y-12042500D01*
X23214900Y-9991500D02*
X23324900Y-10101500D01*
X23324900Y-9991500D02*
X23214900Y-10101500D01*
X23269900Y-10101500D02*
X23324900Y-10046500D01*
X23269900Y-9991500D01*
X23214900Y-10046500D01*
X23269900Y-10101500D01*
X23214900Y-11007500D02*
X23324900Y-11117500D01*
X23324900Y-11007500D02*
X23214900Y-11117500D01*
X23269900Y-11117500D02*
X23324900Y-11062500D01*
X23269900Y-11007500D01*
X23214900Y-11062500D01*
X23269900Y-11117500D01*
X23214900Y-11386500D02*
X23324900Y-11496500D01*
X23324900Y-11386500D02*
X23214900Y-11496500D01*
X23269900Y-11496500D02*
X23324900Y-11441500D01*
X23269900Y-11386500D01*
X23214900Y-11441500D01*
X23269900Y-11496500D01*
X23214900Y-12402500D02*
X23324900Y-12512500D01*
X23324900Y-12402500D02*
X23214900Y-12512500D01*
X23269900Y-12512500D02*
X23324900Y-12457500D01*
X23269900Y-12402500D01*
X23214900Y-12457500D01*
X23269900Y-12512500D01*
D14*
X10929500Y-9635500D02*
X10929500Y-9765500D01*
X10864500Y-9700500D02*
X10994500Y-9700500D01*
X10994500Y-9700500D02*
G75*
G02*
X10864500Y-9700500I-65000J0D01*
G01*
X10864500Y-9700500D02*
G75*
G02*
X10994500Y-9700500I65000J0D01*
G01*
X11429500Y-9635500D02*
X11429500Y-9765500D01*
X11364500Y-9700500D02*
X11494500Y-9700500D01*
X11494500Y-9700500D02*
G75*
G02*
X11364500Y-9700500I-65000J0D01*
G01*
X11364500Y-9700500D02*
G75*
G02*
X11494500Y-9700500I65000J0D01*
G01*
X11929500Y-9635500D02*
X11929500Y-9765500D01*
X11864500Y-9700500D02*
X11994500Y-9700500D01*
X11994500Y-9700500D02*
G75*
G02*
X11864500Y-9700500I-65000J0D01*
G01*
X11864500Y-9700500D02*
G75*
G02*
X11994500Y-9700500I65000J0D01*
G01*
X16659900Y-9559500D02*
X16659900Y-9689500D01*
X16594900Y-9624500D02*
X16724900Y-9624500D01*
X16724900Y-9624500D02*
G75*
G02*
X16594900Y-9624500I-65000J0D01*
G01*
X16594900Y-9624500D02*
G75*
G02*
X16724900Y-9624500I65000J0D01*
G01*
X16659900Y-11258500D02*
X16659900Y-11388500D01*
X16594900Y-11323500D02*
X16724900Y-11323500D01*
X16724900Y-11323500D02*
G75*
G02*
X16594900Y-11323500I-65000J0D01*
G01*
X16594900Y-11323500D02*
G75*
G02*
X16724900Y-11323500I65000J0D01*
G01*
X18074900Y-10164500D02*
X18074900Y-10294500D01*
X18009900Y-10229500D02*
X18139900Y-10229500D01*
X18139900Y-10229500D02*
G75*
G02*
X18009900Y-10229500I-65000J0D01*
G01*
X18009900Y-10229500D02*
G75*
G02*
X18139900Y-10229500I65000J0D01*
G01*
X18074900Y-11863500D02*
X18074900Y-11993500D01*
X18009900Y-11928500D02*
X18139900Y-11928500D01*
X18139900Y-11928500D02*
G75*
G02*
X18009900Y-11928500I-65000J0D01*
G01*
X18009900Y-11928500D02*
G75*
G02*
X18139900Y-11928500I65000J0D01*
G01*
X18079900Y-8959500D02*
X18079900Y-9089500D01*
X18014900Y-9024500D02*
X18144900Y-9024500D01*
X18144900Y-9024500D02*
G75*
G02*
X18014900Y-9024500I-65000J0D01*
G01*
X18014900Y-9024500D02*
G75*
G02*
X18144900Y-9024500I65000J0D01*
G01*
X18079900Y-10658500D02*
X18079900Y-10788500D01*
X18014900Y-10723500D02*
X18144900Y-10723500D01*
X18144900Y-10723500D02*
G75*
G02*
X18014900Y-10723500I-65000J0D01*
G01*
X18014900Y-10723500D02*
G75*
G02*
X18144900Y-10723500I65000J0D01*
G01*
X18778900Y-9559500D02*
X18778900Y-9689500D01*
X18713900Y-9624500D02*
X18843900Y-9624500D01*
X18843900Y-9624500D02*
G75*
G02*
X18713900Y-9624500I-65000J0D01*
G01*
X18713900Y-9624500D02*
G75*
G02*
X18843900Y-9624500I65000J0D01*
G01*
X18923900Y-11034500D02*
X18923900Y-11164500D01*
X18858900Y-11099500D02*
X18988900Y-11099500D01*
X18988900Y-11099500D02*
G75*
G02*
X18858900Y-11099500I-65000J0D01*
G01*
X18858900Y-11099500D02*
G75*
G02*
X18988900Y-11099500I65000J0D01*
G01*
X19423900Y-11034500D02*
X19423900Y-11164500D01*
X19358900Y-11099500D02*
X19488900Y-11099500D01*
X19488900Y-11099500D02*
G75*
G02*
X19358900Y-11099500I-65000J0D01*
G01*
X19358900Y-11099500D02*
G75*
G02*
X19488900Y-11099500I65000J0D01*
G01*
X20193900Y-10164500D02*
X20193900Y-10294500D01*
X20128900Y-10229500D02*
X20258900Y-10229500D01*
X20258900Y-10229500D02*
G75*
G02*
X20128900Y-10229500I-65000J0D01*
G01*
X20128900Y-10229500D02*
G75*
G02*
X20258900Y-10229500I65000J0D01*
G01*
X20198900Y-8959500D02*
X20198900Y-9089500D01*
X20133900Y-9024500D02*
X20263900Y-9024500D01*
X20263900Y-9024500D02*
G75*
G02*
X20133900Y-9024500I-65000J0D01*
G01*
X20133900Y-9024500D02*
G75*
G02*
X20263900Y-9024500I65000J0D01*
G01*
X20897900Y-9559500D02*
X20897900Y-9689500D01*
X20832900Y-9624500D02*
X20962900Y-9624500D01*
X20962900Y-9624500D02*
G75*
G02*
X20832900Y-9624500I-65000J0D01*
G01*
X20832900Y-9624500D02*
G75*
G02*
X20962900Y-9624500I65000J0D01*
G01*
X22312900Y-10164500D02*
X22312900Y-10294500D01*
X22247900Y-10229500D02*
X22377900Y-10229500D01*
X22377900Y-10229500D02*
G75*
G02*
X22247900Y-10229500I-65000J0D01*
G01*
X22247900Y-10229500D02*
G75*
G02*
X22377900Y-10229500I65000J0D01*
G01*
X22317900Y-8959500D02*
X22317900Y-9089500D01*
X22252900Y-9024500D02*
X22382900Y-9024500D01*
X22382900Y-9024500D02*
G75*
G02*
X22252900Y-9024500I-65000J0D01*
G01*
X22252900Y-9024500D02*
G75*
G02*
X22382900Y-9024500I65000J0D01*
G01*
D11*
X10255777Y-17976484D02*
X10255777Y-17776484D01*
X10255777Y-17776484D02*
X10303396Y-17776484D01*
X10303396Y-17776484D02*
X10331967Y-17786008D01*
X10331967Y-17786008D02*
X10351015Y-17805055D01*
X10351015Y-17805055D02*
X10360539Y-17824103D01*
X10360539Y-17824103D02*
X10370063Y-17862198D01*
X10370063Y-17862198D02*
X10370063Y-17890770D01*
X10370063Y-17890770D02*
X10360539Y-17928865D01*
X10360539Y-17928865D02*
X10351015Y-17947912D01*
X10351015Y-17947912D02*
X10331967Y-17966960D01*
X10331967Y-17966960D02*
X10303396Y-17976484D01*
X10303396Y-17976484D02*
X10255777Y-17976484D01*
X10455777Y-17976484D02*
X10455777Y-17843150D01*
X10455777Y-17881246D02*
X10465301Y-17862198D01*
X10465301Y-17862198D02*
X10474824Y-17852674D01*
X10474824Y-17852674D02*
X10493872Y-17843150D01*
X10493872Y-17843150D02*
X10512920Y-17843150D01*
X10579586Y-17976484D02*
X10579586Y-17843150D01*
X10579586Y-17776484D02*
X10570063Y-17786008D01*
X10570063Y-17786008D02*
X10579586Y-17795531D01*
X10579586Y-17795531D02*
X10589110Y-17786008D01*
X10589110Y-17786008D02*
X10579586Y-17776484D01*
X10579586Y-17776484D02*
X10579586Y-17795531D01*
X10703396Y-17976484D02*
X10684348Y-17966960D01*
X10684348Y-17966960D02*
X10674824Y-17947912D01*
X10674824Y-17947912D02*
X10674824Y-17776484D01*
X10808158Y-17976484D02*
X10789110Y-17966960D01*
X10789110Y-17966960D02*
X10779586Y-17947912D01*
X10779586Y-17947912D02*
X10779586Y-17776484D01*
X11036729Y-17976484D02*
X11036729Y-17776484D01*
X11036729Y-17776484D02*
X11103396Y-17919341D01*
X11103396Y-17919341D02*
X11170063Y-17776484D01*
X11170063Y-17776484D02*
X11170063Y-17976484D01*
X11351015Y-17976484D02*
X11351015Y-17871722D01*
X11351015Y-17871722D02*
X11341491Y-17852674D01*
X11341491Y-17852674D02*
X11322443Y-17843150D01*
X11322443Y-17843150D02*
X11284348Y-17843150D01*
X11284348Y-17843150D02*
X11265301Y-17852674D01*
X11351015Y-17966960D02*
X11331967Y-17976484D01*
X11331967Y-17976484D02*
X11284348Y-17976484D01*
X11284348Y-17976484D02*
X11265301Y-17966960D01*
X11265301Y-17966960D02*
X11255777Y-17947912D01*
X11255777Y-17947912D02*
X11255777Y-17928865D01*
X11255777Y-17928865D02*
X11265301Y-17909817D01*
X11265301Y-17909817D02*
X11284348Y-17900293D01*
X11284348Y-17900293D02*
X11331967Y-17900293D01*
X11331967Y-17900293D02*
X11351015Y-17890770D01*
X11446253Y-17843150D02*
X11446253Y-18043150D01*
X11446253Y-17852674D02*
X11465301Y-17843150D01*
X11465301Y-17843150D02*
X11503396Y-17843150D01*
X11503396Y-17843150D02*
X11522443Y-17852674D01*
X11522443Y-17852674D02*
X11531967Y-17862198D01*
X11531967Y-17862198D02*
X11541491Y-17881246D01*
X11541491Y-17881246D02*
X11541491Y-17938389D01*
X11541491Y-17938389D02*
X11531967Y-17957436D01*
X11531967Y-17957436D02*
X11522443Y-17966960D01*
X11522443Y-17966960D02*
X11503396Y-17976484D01*
X11503396Y-17976484D02*
X11465301Y-17976484D01*
X11465301Y-17976484D02*
X11446253Y-17966960D01*
X11627205Y-17957436D02*
X11636729Y-17966960D01*
X11636729Y-17966960D02*
X11627205Y-17976484D01*
X11627205Y-17976484D02*
X11617682Y-17966960D01*
X11617682Y-17966960D02*
X11627205Y-17957436D01*
X11627205Y-17957436D02*
X11627205Y-17976484D01*
X11627205Y-17852674D02*
X11636729Y-17862198D01*
X11636729Y-17862198D02*
X11627205Y-17871722D01*
X11627205Y-17871722D02*
X11617682Y-17862198D01*
X11617682Y-17862198D02*
X11627205Y-17852674D01*
X11627205Y-17852674D02*
X11627205Y-17871722D01*
D10*
X9975000Y-18295000D02*
X9995000Y-18315000D01*
X9995000Y-18295000D02*
X9975000Y-18315000D01*
D11*
X10293872Y-18196484D02*
X10312920Y-18196484D01*
X10312920Y-18196484D02*
X10331967Y-18206008D01*
X10331967Y-18206008D02*
X10341491Y-18215531D01*
X10341491Y-18215531D02*
X10351015Y-18234579D01*
X10351015Y-18234579D02*
X10360539Y-18272674D01*
X10360539Y-18272674D02*
X10360539Y-18320293D01*
X10360539Y-18320293D02*
X10351015Y-18358389D01*
X10351015Y-18358389D02*
X10341491Y-18377436D01*
X10341491Y-18377436D02*
X10331967Y-18386960D01*
X10331967Y-18386960D02*
X10312920Y-18396484D01*
X10312920Y-18396484D02*
X10293872Y-18396484D01*
X10293872Y-18396484D02*
X10274824Y-18386960D01*
X10274824Y-18386960D02*
X10265301Y-18377436D01*
X10265301Y-18377436D02*
X10255777Y-18358389D01*
X10255777Y-18358389D02*
X10246253Y-18320293D01*
X10246253Y-18320293D02*
X10246253Y-18272674D01*
X10246253Y-18272674D02*
X10255777Y-18234579D01*
X10255777Y-18234579D02*
X10265301Y-18215531D01*
X10265301Y-18215531D02*
X10274824Y-18206008D01*
X10274824Y-18206008D02*
X10293872Y-18196484D01*
X10446253Y-18377436D02*
X10455777Y-18386960D01*
X10455777Y-18386960D02*
X10446253Y-18396484D01*
X10446253Y-18396484D02*
X10436729Y-18386960D01*
X10436729Y-18386960D02*
X10446253Y-18377436D01*
X10446253Y-18377436D02*
X10446253Y-18396484D01*
X10531967Y-18215531D02*
X10541491Y-18206008D01*
X10541491Y-18206008D02*
X10560539Y-18196484D01*
X10560539Y-18196484D02*
X10608158Y-18196484D01*
X10608158Y-18196484D02*
X10627205Y-18206008D01*
X10627205Y-18206008D02*
X10636729Y-18215531D01*
X10636729Y-18215531D02*
X10646253Y-18234579D01*
X10646253Y-18234579D02*
X10646253Y-18253627D01*
X10646253Y-18253627D02*
X10636729Y-18282198D01*
X10636729Y-18282198D02*
X10522444Y-18396484D01*
X10522444Y-18396484D02*
X10646253Y-18396484D01*
X10770063Y-18196484D02*
X10789110Y-18196484D01*
X10789110Y-18196484D02*
X10808158Y-18206008D01*
X10808158Y-18206008D02*
X10817682Y-18215531D01*
X10817682Y-18215531D02*
X10827205Y-18234579D01*
X10827205Y-18234579D02*
X10836729Y-18272674D01*
X10836729Y-18272674D02*
X10836729Y-18320293D01*
X10836729Y-18320293D02*
X10827205Y-18358389D01*
X10827205Y-18358389D02*
X10817682Y-18377436D01*
X10817682Y-18377436D02*
X10808158Y-18386960D01*
X10808158Y-18386960D02*
X10789110Y-18396484D01*
X10789110Y-18396484D02*
X10770063Y-18396484D01*
X10770063Y-18396484D02*
X10751015Y-18386960D01*
X10751015Y-18386960D02*
X10741491Y-18377436D01*
X10741491Y-18377436D02*
X10731967Y-18358389D01*
X10731967Y-18358389D02*
X10722444Y-18320293D01*
X10722444Y-18320293D02*
X10722444Y-18272674D01*
X10722444Y-18272674D02*
X10731967Y-18234579D01*
X10731967Y-18234579D02*
X10741491Y-18215531D01*
X10741491Y-18215531D02*
X10751015Y-18206008D01*
X10751015Y-18206008D02*
X10770063Y-18196484D01*
X10960539Y-18196484D02*
X10979586Y-18196484D01*
X10979586Y-18196484D02*
X10998634Y-18206008D01*
X10998634Y-18206008D02*
X11008158Y-18215531D01*
X11008158Y-18215531D02*
X11017682Y-18234579D01*
X11017682Y-18234579D02*
X11027205Y-18272674D01*
X11027205Y-18272674D02*
X11027205Y-18320293D01*
X11027205Y-18320293D02*
X11017682Y-18358389D01*
X11017682Y-18358389D02*
X11008158Y-18377436D01*
X11008158Y-18377436D02*
X10998634Y-18386960D01*
X10998634Y-18386960D02*
X10979586Y-18396484D01*
X10979586Y-18396484D02*
X10960539Y-18396484D01*
X10960539Y-18396484D02*
X10941491Y-18386960D01*
X10941491Y-18386960D02*
X10931967Y-18377436D01*
X10931967Y-18377436D02*
X10922444Y-18358389D01*
X10922444Y-18358389D02*
X10912920Y-18320293D01*
X10912920Y-18320293D02*
X10912920Y-18272674D01*
X10912920Y-18272674D02*
X10922444Y-18234579D01*
X10922444Y-18234579D02*
X10931967Y-18215531D01*
X10931967Y-18215531D02*
X10941491Y-18206008D01*
X10941491Y-18206008D02*
X10960539Y-18196484D01*
X11112920Y-18396484D02*
X11112920Y-18263150D01*
X11112920Y-18282198D02*
X11122444Y-18272674D01*
X11122444Y-18272674D02*
X11141491Y-18263150D01*
X11141491Y-18263150D02*
X11170063Y-18263150D01*
X11170063Y-18263150D02*
X11189110Y-18272674D01*
X11189110Y-18272674D02*
X11198634Y-18291722D01*
X11198634Y-18291722D02*
X11198634Y-18396484D01*
X11198634Y-18291722D02*
X11208158Y-18272674D01*
X11208158Y-18272674D02*
X11227205Y-18263150D01*
X11227205Y-18263150D02*
X11255777Y-18263150D01*
X11255777Y-18263150D02*
X11274824Y-18272674D01*
X11274824Y-18272674D02*
X11284348Y-18291722D01*
X11284348Y-18291722D02*
X11284348Y-18396484D01*
X11379586Y-18396484D02*
X11379586Y-18263150D01*
X11379586Y-18282198D02*
X11389110Y-18272674D01*
X11389110Y-18272674D02*
X11408158Y-18263150D01*
X11408158Y-18263150D02*
X11436729Y-18263150D01*
X11436729Y-18263150D02*
X11455777Y-18272674D01*
X11455777Y-18272674D02*
X11465301Y-18291722D01*
X11465301Y-18291722D02*
X11465301Y-18396484D01*
X11465301Y-18291722D02*
X11474824Y-18272674D01*
X11474824Y-18272674D02*
X11493872Y-18263150D01*
X11493872Y-18263150D02*
X11522443Y-18263150D01*
X11522443Y-18263150D02*
X11541491Y-18272674D01*
X11541491Y-18272674D02*
X11551015Y-18291722D01*
X11551015Y-18291722D02*
X11551015Y-18396484D01*
X11941491Y-18186960D02*
X11770063Y-18444103D01*
X12198634Y-18196484D02*
X12217682Y-18196484D01*
X12217682Y-18196484D02*
X12236729Y-18206008D01*
X12236729Y-18206008D02*
X12246253Y-18215531D01*
X12246253Y-18215531D02*
X12255777Y-18234579D01*
X12255777Y-18234579D02*
X12265301Y-18272674D01*
X12265301Y-18272674D02*
X12265301Y-18320293D01*
X12265301Y-18320293D02*
X12255777Y-18358389D01*
X12255777Y-18358389D02*
X12246253Y-18377436D01*
X12246253Y-18377436D02*
X12236729Y-18386960D01*
X12236729Y-18386960D02*
X12217682Y-18396484D01*
X12217682Y-18396484D02*
X12198634Y-18396484D01*
X12198634Y-18396484D02*
X12179586Y-18386960D01*
X12179586Y-18386960D02*
X12170063Y-18377436D01*
X12170063Y-18377436D02*
X12160539Y-18358389D01*
X12160539Y-18358389D02*
X12151015Y-18320293D01*
X12151015Y-18320293D02*
X12151015Y-18272674D01*
X12151015Y-18272674D02*
X12160539Y-18234579D01*
X12160539Y-18234579D02*
X12170063Y-18215531D01*
X12170063Y-18215531D02*
X12179586Y-18206008D01*
X12179586Y-18206008D02*
X12198634Y-18196484D01*
X12351015Y-18377436D02*
X12360539Y-18386960D01*
X12360539Y-18386960D02*
X12351015Y-18396484D01*
X12351015Y-18396484D02*
X12341491Y-18386960D01*
X12341491Y-18386960D02*
X12351015Y-18377436D01*
X12351015Y-18377436D02*
X12351015Y-18396484D01*
X12484348Y-18196484D02*
X12503396Y-18196484D01*
X12503396Y-18196484D02*
X12522444Y-18206008D01*
X12522444Y-18206008D02*
X12531967Y-18215531D01*
X12531967Y-18215531D02*
X12541491Y-18234579D01*
X12541491Y-18234579D02*
X12551015Y-18272674D01*
X12551015Y-18272674D02*
X12551015Y-18320293D01*
X12551015Y-18320293D02*
X12541491Y-18358389D01*
X12541491Y-18358389D02*
X12531967Y-18377436D01*
X12531967Y-18377436D02*
X12522444Y-18386960D01*
X12522444Y-18386960D02*
X12503396Y-18396484D01*
X12503396Y-18396484D02*
X12484348Y-18396484D01*
X12484348Y-18396484D02*
X12465301Y-18386960D01*
X12465301Y-18386960D02*
X12455777Y-18377436D01*
X12455777Y-18377436D02*
X12446253Y-18358389D01*
X12446253Y-18358389D02*
X12436729Y-18320293D01*
X12436729Y-18320293D02*
X12436729Y-18272674D01*
X12436729Y-18272674D02*
X12446253Y-18234579D01*
X12446253Y-18234579D02*
X12455777Y-18215531D01*
X12455777Y-18215531D02*
X12465301Y-18206008D01*
X12465301Y-18206008D02*
X12484348Y-18196484D01*
X12674825Y-18196484D02*
X12693872Y-18196484D01*
X12693872Y-18196484D02*
X12712920Y-18206008D01*
X12712920Y-18206008D02*
X12722444Y-18215531D01*
X12722444Y-18215531D02*
X12731967Y-18234579D01*
X12731967Y-18234579D02*
X12741491Y-18272674D01*
X12741491Y-18272674D02*
X12741491Y-18320293D01*
X12741491Y-18320293D02*
X12731967Y-18358389D01*
X12731967Y-18358389D02*
X12722444Y-18377436D01*
X12722444Y-18377436D02*
X12712920Y-18386960D01*
X12712920Y-18386960D02*
X12693872Y-18396484D01*
X12693872Y-18396484D02*
X12674825Y-18396484D01*
X12674825Y-18396484D02*
X12655777Y-18386960D01*
X12655777Y-18386960D02*
X12646253Y-18377436D01*
X12646253Y-18377436D02*
X12636729Y-18358389D01*
X12636729Y-18358389D02*
X12627206Y-18320293D01*
X12627206Y-18320293D02*
X12627206Y-18272674D01*
X12627206Y-18272674D02*
X12636729Y-18234579D01*
X12636729Y-18234579D02*
X12646253Y-18215531D01*
X12646253Y-18215531D02*
X12655777Y-18206008D01*
X12655777Y-18206008D02*
X12674825Y-18196484D01*
X12808158Y-18196484D02*
X12941491Y-18196484D01*
X12941491Y-18196484D02*
X12855777Y-18396484D01*
X13027206Y-18396484D02*
X13065301Y-18396484D01*
X13065301Y-18396484D02*
X13084348Y-18386960D01*
X13084348Y-18386960D02*
X13093872Y-18377436D01*
X13093872Y-18377436D02*
X13112920Y-18348865D01*
X13112920Y-18348865D02*
X13122444Y-18310770D01*
X13122444Y-18310770D02*
X13122444Y-18234579D01*
X13122444Y-18234579D02*
X13112920Y-18215531D01*
X13112920Y-18215531D02*
X13103396Y-18206008D01*
X13103396Y-18206008D02*
X13084348Y-18196484D01*
X13084348Y-18196484D02*
X13046253Y-18196484D01*
X13046253Y-18196484D02*
X13027206Y-18206008D01*
X13027206Y-18206008D02*
X13017682Y-18215531D01*
X13017682Y-18215531D02*
X13008158Y-18234579D01*
X13008158Y-18234579D02*
X13008158Y-18282198D01*
X13008158Y-18282198D02*
X13017682Y-18301246D01*
X13017682Y-18301246D02*
X13027206Y-18310770D01*
X13027206Y-18310770D02*
X13046253Y-18320293D01*
X13046253Y-18320293D02*
X13084348Y-18320293D01*
X13084348Y-18320293D02*
X13103396Y-18310770D01*
X13103396Y-18310770D02*
X13112920Y-18301246D01*
X13112920Y-18301246D02*
X13122444Y-18282198D01*
X13198634Y-18196484D02*
X13198634Y-18234579D01*
X13274825Y-18196484D02*
X13274825Y-18234579D01*
X13570063Y-18472674D02*
X13560539Y-18463150D01*
X13560539Y-18463150D02*
X13541491Y-18434579D01*
X13541491Y-18434579D02*
X13531968Y-18415531D01*
X13531968Y-18415531D02*
X13522444Y-18386960D01*
X13522444Y-18386960D02*
X13512920Y-18339341D01*
X13512920Y-18339341D02*
X13512920Y-18301246D01*
X13512920Y-18301246D02*
X13522444Y-18253627D01*
X13522444Y-18253627D02*
X13531968Y-18225055D01*
X13531968Y-18225055D02*
X13541491Y-18206008D01*
X13541491Y-18206008D02*
X13560539Y-18177436D01*
X13560539Y-18177436D02*
X13570063Y-18167912D01*
X13751015Y-18396484D02*
X13636729Y-18396484D01*
X13693872Y-18396484D02*
X13693872Y-18196484D01*
X13693872Y-18196484D02*
X13674825Y-18225055D01*
X13674825Y-18225055D02*
X13655777Y-18244103D01*
X13655777Y-18244103D02*
X13636729Y-18253627D01*
X13827206Y-18215531D02*
X13836729Y-18206008D01*
X13836729Y-18206008D02*
X13855777Y-18196484D01*
X13855777Y-18196484D02*
X13903396Y-18196484D01*
X13903396Y-18196484D02*
X13922444Y-18206008D01*
X13922444Y-18206008D02*
X13931968Y-18215531D01*
X13931968Y-18215531D02*
X13941491Y-18234579D01*
X13941491Y-18234579D02*
X13941491Y-18253627D01*
X13941491Y-18253627D02*
X13931968Y-18282198D01*
X13931968Y-18282198D02*
X13817682Y-18396484D01*
X13817682Y-18396484D02*
X13941491Y-18396484D01*
X14179587Y-18396484D02*
X14179587Y-18196484D01*
X14265301Y-18396484D02*
X14265301Y-18291722D01*
X14265301Y-18291722D02*
X14255777Y-18272674D01*
X14255777Y-18272674D02*
X14236730Y-18263150D01*
X14236730Y-18263150D02*
X14208158Y-18263150D01*
X14208158Y-18263150D02*
X14189110Y-18272674D01*
X14189110Y-18272674D02*
X14179587Y-18282198D01*
X14389110Y-18396484D02*
X14370063Y-18386960D01*
X14370063Y-18386960D02*
X14360539Y-18377436D01*
X14360539Y-18377436D02*
X14351015Y-18358389D01*
X14351015Y-18358389D02*
X14351015Y-18301246D01*
X14351015Y-18301246D02*
X14360539Y-18282198D01*
X14360539Y-18282198D02*
X14370063Y-18272674D01*
X14370063Y-18272674D02*
X14389110Y-18263150D01*
X14389110Y-18263150D02*
X14417682Y-18263150D01*
X14417682Y-18263150D02*
X14436730Y-18272674D01*
X14436730Y-18272674D02*
X14446253Y-18282198D01*
X14446253Y-18282198D02*
X14455777Y-18301246D01*
X14455777Y-18301246D02*
X14455777Y-18358389D01*
X14455777Y-18358389D02*
X14446253Y-18377436D01*
X14446253Y-18377436D02*
X14436730Y-18386960D01*
X14436730Y-18386960D02*
X14417682Y-18396484D01*
X14417682Y-18396484D02*
X14389110Y-18396484D01*
X14570063Y-18396484D02*
X14551015Y-18386960D01*
X14551015Y-18386960D02*
X14541491Y-18367912D01*
X14541491Y-18367912D02*
X14541491Y-18196484D01*
X14722444Y-18386960D02*
X14703396Y-18396484D01*
X14703396Y-18396484D02*
X14665301Y-18396484D01*
X14665301Y-18396484D02*
X14646253Y-18386960D01*
X14646253Y-18386960D02*
X14636730Y-18367912D01*
X14636730Y-18367912D02*
X14636730Y-18291722D01*
X14636730Y-18291722D02*
X14646253Y-18272674D01*
X14646253Y-18272674D02*
X14665301Y-18263150D01*
X14665301Y-18263150D02*
X14703396Y-18263150D01*
X14703396Y-18263150D02*
X14722444Y-18272674D01*
X14722444Y-18272674D02*
X14731968Y-18291722D01*
X14731968Y-18291722D02*
X14731968Y-18310770D01*
X14731968Y-18310770D02*
X14636730Y-18329817D01*
X14808158Y-18386960D02*
X14827206Y-18396484D01*
X14827206Y-18396484D02*
X14865301Y-18396484D01*
X14865301Y-18396484D02*
X14884349Y-18386960D01*
X14884349Y-18386960D02*
X14893872Y-18367912D01*
X14893872Y-18367912D02*
X14893872Y-18358389D01*
X14893872Y-18358389D02*
X14884349Y-18339341D01*
X14884349Y-18339341D02*
X14865301Y-18329817D01*
X14865301Y-18329817D02*
X14836730Y-18329817D01*
X14836730Y-18329817D02*
X14817682Y-18320293D01*
X14817682Y-18320293D02*
X14808158Y-18301246D01*
X14808158Y-18301246D02*
X14808158Y-18291722D01*
X14808158Y-18291722D02*
X14817682Y-18272674D01*
X14817682Y-18272674D02*
X14836730Y-18263150D01*
X14836730Y-18263150D02*
X14865301Y-18263150D01*
X14865301Y-18263150D02*
X14884349Y-18272674D01*
X14960539Y-18472674D02*
X14970063Y-18463150D01*
X14970063Y-18463150D02*
X14989111Y-18434579D01*
X14989111Y-18434579D02*
X14998634Y-18415531D01*
X14998634Y-18415531D02*
X15008158Y-18386960D01*
X15008158Y-18386960D02*
X15017682Y-18339341D01*
X15017682Y-18339341D02*
X15017682Y-18301246D01*
X15017682Y-18301246D02*
X15008158Y-18253627D01*
X15008158Y-18253627D02*
X14998634Y-18225055D01*
X14998634Y-18225055D02*
X14989111Y-18206008D01*
X14989111Y-18206008D02*
X14970063Y-18177436D01*
X14970063Y-18177436D02*
X14960539Y-18167912D01*
D10*
X9995000Y-18569000D02*
G75*
G02*
X9965000Y-18569000I-15000J0D01*
G01*
X9965000Y-18569000D02*
G75*
G02*
X9995000Y-18569000I15000J0D01*
G01*
D11*
X10293872Y-18460484D02*
X10312920Y-18460484D01*
X10312920Y-18460484D02*
X10331967Y-18470008D01*
X10331967Y-18470008D02*
X10341491Y-18479531D01*
X10341491Y-18479531D02*
X10351015Y-18498579D01*
X10351015Y-18498579D02*
X10360539Y-18536674D01*
X10360539Y-18536674D02*
X10360539Y-18584293D01*
X10360539Y-18584293D02*
X10351015Y-18622389D01*
X10351015Y-18622389D02*
X10341491Y-18641436D01*
X10341491Y-18641436D02*
X10331967Y-18650960D01*
X10331967Y-18650960D02*
X10312920Y-18660484D01*
X10312920Y-18660484D02*
X10293872Y-18660484D01*
X10293872Y-18660484D02*
X10274824Y-18650960D01*
X10274824Y-18650960D02*
X10265301Y-18641436D01*
X10265301Y-18641436D02*
X10255777Y-18622389D01*
X10255777Y-18622389D02*
X10246253Y-18584293D01*
X10246253Y-18584293D02*
X10246253Y-18536674D01*
X10246253Y-18536674D02*
X10255777Y-18498579D01*
X10255777Y-18498579D02*
X10265301Y-18479531D01*
X10265301Y-18479531D02*
X10274824Y-18470008D01*
X10274824Y-18470008D02*
X10293872Y-18460484D01*
X10446253Y-18641436D02*
X10455777Y-18650960D01*
X10455777Y-18650960D02*
X10446253Y-18660484D01*
X10446253Y-18660484D02*
X10436729Y-18650960D01*
X10436729Y-18650960D02*
X10446253Y-18641436D01*
X10446253Y-18641436D02*
X10446253Y-18660484D01*
X10522444Y-18460484D02*
X10646253Y-18460484D01*
X10646253Y-18460484D02*
X10579586Y-18536674D01*
X10579586Y-18536674D02*
X10608158Y-18536674D01*
X10608158Y-18536674D02*
X10627205Y-18546198D01*
X10627205Y-18546198D02*
X10636729Y-18555722D01*
X10636729Y-18555722D02*
X10646253Y-18574770D01*
X10646253Y-18574770D02*
X10646253Y-18622389D01*
X10646253Y-18622389D02*
X10636729Y-18641436D01*
X10636729Y-18641436D02*
X10627205Y-18650960D01*
X10627205Y-18650960D02*
X10608158Y-18660484D01*
X10608158Y-18660484D02*
X10551015Y-18660484D01*
X10551015Y-18660484D02*
X10531967Y-18650960D01*
X10531967Y-18650960D02*
X10522444Y-18641436D01*
X10770063Y-18460484D02*
X10789110Y-18460484D01*
X10789110Y-18460484D02*
X10808158Y-18470008D01*
X10808158Y-18470008D02*
X10817682Y-18479531D01*
X10817682Y-18479531D02*
X10827205Y-18498579D01*
X10827205Y-18498579D02*
X10836729Y-18536674D01*
X10836729Y-18536674D02*
X10836729Y-18584293D01*
X10836729Y-18584293D02*
X10827205Y-18622389D01*
X10827205Y-18622389D02*
X10817682Y-18641436D01*
X10817682Y-18641436D02*
X10808158Y-18650960D01*
X10808158Y-18650960D02*
X10789110Y-18660484D01*
X10789110Y-18660484D02*
X10770063Y-18660484D01*
X10770063Y-18660484D02*
X10751015Y-18650960D01*
X10751015Y-18650960D02*
X10741491Y-18641436D01*
X10741491Y-18641436D02*
X10731967Y-18622389D01*
X10731967Y-18622389D02*
X10722444Y-18584293D01*
X10722444Y-18584293D02*
X10722444Y-18536674D01*
X10722444Y-18536674D02*
X10731967Y-18498579D01*
X10731967Y-18498579D02*
X10741491Y-18479531D01*
X10741491Y-18479531D02*
X10751015Y-18470008D01*
X10751015Y-18470008D02*
X10770063Y-18460484D01*
X10960539Y-18460484D02*
X10979586Y-18460484D01*
X10979586Y-18460484D02*
X10998634Y-18470008D01*
X10998634Y-18470008D02*
X11008158Y-18479531D01*
X11008158Y-18479531D02*
X11017682Y-18498579D01*
X11017682Y-18498579D02*
X11027205Y-18536674D01*
X11027205Y-18536674D02*
X11027205Y-18584293D01*
X11027205Y-18584293D02*
X11017682Y-18622389D01*
X11017682Y-18622389D02*
X11008158Y-18641436D01*
X11008158Y-18641436D02*
X10998634Y-18650960D01*
X10998634Y-18650960D02*
X10979586Y-18660484D01*
X10979586Y-18660484D02*
X10960539Y-18660484D01*
X10960539Y-18660484D02*
X10941491Y-18650960D01*
X10941491Y-18650960D02*
X10931967Y-18641436D01*
X10931967Y-18641436D02*
X10922444Y-18622389D01*
X10922444Y-18622389D02*
X10912920Y-18584293D01*
X10912920Y-18584293D02*
X10912920Y-18536674D01*
X10912920Y-18536674D02*
X10922444Y-18498579D01*
X10922444Y-18498579D02*
X10931967Y-18479531D01*
X10931967Y-18479531D02*
X10941491Y-18470008D01*
X10941491Y-18470008D02*
X10960539Y-18460484D01*
X11112920Y-18660484D02*
X11112920Y-18527150D01*
X11112920Y-18546198D02*
X11122444Y-18536674D01*
X11122444Y-18536674D02*
X11141491Y-18527150D01*
X11141491Y-18527150D02*
X11170063Y-18527150D01*
X11170063Y-18527150D02*
X11189110Y-18536674D01*
X11189110Y-18536674D02*
X11198634Y-18555722D01*
X11198634Y-18555722D02*
X11198634Y-18660484D01*
X11198634Y-18555722D02*
X11208158Y-18536674D01*
X11208158Y-18536674D02*
X11227205Y-18527150D01*
X11227205Y-18527150D02*
X11255777Y-18527150D01*
X11255777Y-18527150D02*
X11274824Y-18536674D01*
X11274824Y-18536674D02*
X11284348Y-18555722D01*
X11284348Y-18555722D02*
X11284348Y-18660484D01*
X11379586Y-18660484D02*
X11379586Y-18527150D01*
X11379586Y-18546198D02*
X11389110Y-18536674D01*
X11389110Y-18536674D02*
X11408158Y-18527150D01*
X11408158Y-18527150D02*
X11436729Y-18527150D01*
X11436729Y-18527150D02*
X11455777Y-18536674D01*
X11455777Y-18536674D02*
X11465301Y-18555722D01*
X11465301Y-18555722D02*
X11465301Y-18660484D01*
X11465301Y-18555722D02*
X11474824Y-18536674D01*
X11474824Y-18536674D02*
X11493872Y-18527150D01*
X11493872Y-18527150D02*
X11522443Y-18527150D01*
X11522443Y-18527150D02*
X11541491Y-18536674D01*
X11541491Y-18536674D02*
X11551015Y-18555722D01*
X11551015Y-18555722D02*
X11551015Y-18660484D01*
X11941491Y-18450960D02*
X11770063Y-18708103D01*
X12198634Y-18460484D02*
X12217682Y-18460484D01*
X12217682Y-18460484D02*
X12236729Y-18470008D01*
X12236729Y-18470008D02*
X12246253Y-18479531D01*
X12246253Y-18479531D02*
X12255777Y-18498579D01*
X12255777Y-18498579D02*
X12265301Y-18536674D01*
X12265301Y-18536674D02*
X12265301Y-18584293D01*
X12265301Y-18584293D02*
X12255777Y-18622389D01*
X12255777Y-18622389D02*
X12246253Y-18641436D01*
X12246253Y-18641436D02*
X12236729Y-18650960D01*
X12236729Y-18650960D02*
X12217682Y-18660484D01*
X12217682Y-18660484D02*
X12198634Y-18660484D01*
X12198634Y-18660484D02*
X12179586Y-18650960D01*
X12179586Y-18650960D02*
X12170063Y-18641436D01*
X12170063Y-18641436D02*
X12160539Y-18622389D01*
X12160539Y-18622389D02*
X12151015Y-18584293D01*
X12151015Y-18584293D02*
X12151015Y-18536674D01*
X12151015Y-18536674D02*
X12160539Y-18498579D01*
X12160539Y-18498579D02*
X12170063Y-18479531D01*
X12170063Y-18479531D02*
X12179586Y-18470008D01*
X12179586Y-18470008D02*
X12198634Y-18460484D01*
X12351015Y-18641436D02*
X12360539Y-18650960D01*
X12360539Y-18650960D02*
X12351015Y-18660484D01*
X12351015Y-18660484D02*
X12341491Y-18650960D01*
X12341491Y-18650960D02*
X12351015Y-18641436D01*
X12351015Y-18641436D02*
X12351015Y-18660484D01*
X12484348Y-18460484D02*
X12503396Y-18460484D01*
X12503396Y-18460484D02*
X12522444Y-18470008D01*
X12522444Y-18470008D02*
X12531967Y-18479531D01*
X12531967Y-18479531D02*
X12541491Y-18498579D01*
X12541491Y-18498579D02*
X12551015Y-18536674D01*
X12551015Y-18536674D02*
X12551015Y-18584293D01*
X12551015Y-18584293D02*
X12541491Y-18622389D01*
X12541491Y-18622389D02*
X12531967Y-18641436D01*
X12531967Y-18641436D02*
X12522444Y-18650960D01*
X12522444Y-18650960D02*
X12503396Y-18660484D01*
X12503396Y-18660484D02*
X12484348Y-18660484D01*
X12484348Y-18660484D02*
X12465301Y-18650960D01*
X12465301Y-18650960D02*
X12455777Y-18641436D01*
X12455777Y-18641436D02*
X12446253Y-18622389D01*
X12446253Y-18622389D02*
X12436729Y-18584293D01*
X12436729Y-18584293D02*
X12436729Y-18536674D01*
X12436729Y-18536674D02*
X12446253Y-18498579D01*
X12446253Y-18498579D02*
X12455777Y-18479531D01*
X12455777Y-18479531D02*
X12465301Y-18470008D01*
X12465301Y-18470008D02*
X12484348Y-18460484D01*
X12741491Y-18660484D02*
X12627206Y-18660484D01*
X12684348Y-18660484D02*
X12684348Y-18460484D01*
X12684348Y-18460484D02*
X12665301Y-18489055D01*
X12665301Y-18489055D02*
X12646253Y-18508103D01*
X12646253Y-18508103D02*
X12627206Y-18517627D01*
X12931967Y-18660484D02*
X12817682Y-18660484D01*
X12874825Y-18660484D02*
X12874825Y-18460484D01*
X12874825Y-18460484D02*
X12855777Y-18489055D01*
X12855777Y-18489055D02*
X12836729Y-18508103D01*
X12836729Y-18508103D02*
X12817682Y-18517627D01*
X13046253Y-18546198D02*
X13027206Y-18536674D01*
X13027206Y-18536674D02*
X13017682Y-18527150D01*
X13017682Y-18527150D02*
X13008158Y-18508103D01*
X13008158Y-18508103D02*
X13008158Y-18498579D01*
X13008158Y-18498579D02*
X13017682Y-18479531D01*
X13017682Y-18479531D02*
X13027206Y-18470008D01*
X13027206Y-18470008D02*
X13046253Y-18460484D01*
X13046253Y-18460484D02*
X13084348Y-18460484D01*
X13084348Y-18460484D02*
X13103396Y-18470008D01*
X13103396Y-18470008D02*
X13112920Y-18479531D01*
X13112920Y-18479531D02*
X13122444Y-18498579D01*
X13122444Y-18498579D02*
X13122444Y-18508103D01*
X13122444Y-18508103D02*
X13112920Y-18527150D01*
X13112920Y-18527150D02*
X13103396Y-18536674D01*
X13103396Y-18536674D02*
X13084348Y-18546198D01*
X13084348Y-18546198D02*
X13046253Y-18546198D01*
X13046253Y-18546198D02*
X13027206Y-18555722D01*
X13027206Y-18555722D02*
X13017682Y-18565246D01*
X13017682Y-18565246D02*
X13008158Y-18584293D01*
X13008158Y-18584293D02*
X13008158Y-18622389D01*
X13008158Y-18622389D02*
X13017682Y-18641436D01*
X13017682Y-18641436D02*
X13027206Y-18650960D01*
X13027206Y-18650960D02*
X13046253Y-18660484D01*
X13046253Y-18660484D02*
X13084348Y-18660484D01*
X13084348Y-18660484D02*
X13103396Y-18650960D01*
X13103396Y-18650960D02*
X13112920Y-18641436D01*
X13112920Y-18641436D02*
X13122444Y-18622389D01*
X13122444Y-18622389D02*
X13122444Y-18584293D01*
X13122444Y-18584293D02*
X13112920Y-18565246D01*
X13112920Y-18565246D02*
X13103396Y-18555722D01*
X13103396Y-18555722D02*
X13084348Y-18546198D01*
X13198634Y-18460484D02*
X13198634Y-18498579D01*
X13274825Y-18460484D02*
X13274825Y-18498579D01*
X13570063Y-18736674D02*
X13560539Y-18727150D01*
X13560539Y-18727150D02*
X13541491Y-18698579D01*
X13541491Y-18698579D02*
X13531968Y-18679531D01*
X13531968Y-18679531D02*
X13522444Y-18650960D01*
X13522444Y-18650960D02*
X13512920Y-18603341D01*
X13512920Y-18603341D02*
X13512920Y-18565246D01*
X13512920Y-18565246D02*
X13522444Y-18517627D01*
X13522444Y-18517627D02*
X13531968Y-18489055D01*
X13531968Y-18489055D02*
X13541491Y-18470008D01*
X13541491Y-18470008D02*
X13560539Y-18441436D01*
X13560539Y-18441436D02*
X13570063Y-18431912D01*
X13751015Y-18660484D02*
X13636729Y-18660484D01*
X13693872Y-18660484D02*
X13693872Y-18460484D01*
X13693872Y-18460484D02*
X13674825Y-18489055D01*
X13674825Y-18489055D02*
X13655777Y-18508103D01*
X13655777Y-18508103D02*
X13636729Y-18517627D01*
X13941491Y-18660484D02*
X13827206Y-18660484D01*
X13884348Y-18660484D02*
X13884348Y-18460484D01*
X13884348Y-18460484D02*
X13865301Y-18489055D01*
X13865301Y-18489055D02*
X13846253Y-18508103D01*
X13846253Y-18508103D02*
X13827206Y-18517627D01*
X14179587Y-18660484D02*
X14179587Y-18460484D01*
X14265301Y-18660484D02*
X14265301Y-18555722D01*
X14265301Y-18555722D02*
X14255777Y-18536674D01*
X14255777Y-18536674D02*
X14236730Y-18527150D01*
X14236730Y-18527150D02*
X14208158Y-18527150D01*
X14208158Y-18527150D02*
X14189110Y-18536674D01*
X14189110Y-18536674D02*
X14179587Y-18546198D01*
X14389110Y-18660484D02*
X14370063Y-18650960D01*
X14370063Y-18650960D02*
X14360539Y-18641436D01*
X14360539Y-18641436D02*
X14351015Y-18622389D01*
X14351015Y-18622389D02*
X14351015Y-18565246D01*
X14351015Y-18565246D02*
X14360539Y-18546198D01*
X14360539Y-18546198D02*
X14370063Y-18536674D01*
X14370063Y-18536674D02*
X14389110Y-18527150D01*
X14389110Y-18527150D02*
X14417682Y-18527150D01*
X14417682Y-18527150D02*
X14436730Y-18536674D01*
X14436730Y-18536674D02*
X14446253Y-18546198D01*
X14446253Y-18546198D02*
X14455777Y-18565246D01*
X14455777Y-18565246D02*
X14455777Y-18622389D01*
X14455777Y-18622389D02*
X14446253Y-18641436D01*
X14446253Y-18641436D02*
X14436730Y-18650960D01*
X14436730Y-18650960D02*
X14417682Y-18660484D01*
X14417682Y-18660484D02*
X14389110Y-18660484D01*
X14570063Y-18660484D02*
X14551015Y-18650960D01*
X14551015Y-18650960D02*
X14541491Y-18631912D01*
X14541491Y-18631912D02*
X14541491Y-18460484D01*
X14722444Y-18650960D02*
X14703396Y-18660484D01*
X14703396Y-18660484D02*
X14665301Y-18660484D01*
X14665301Y-18660484D02*
X14646253Y-18650960D01*
X14646253Y-18650960D02*
X14636730Y-18631912D01*
X14636730Y-18631912D02*
X14636730Y-18555722D01*
X14636730Y-18555722D02*
X14646253Y-18536674D01*
X14646253Y-18536674D02*
X14665301Y-18527150D01*
X14665301Y-18527150D02*
X14703396Y-18527150D01*
X14703396Y-18527150D02*
X14722444Y-18536674D01*
X14722444Y-18536674D02*
X14731968Y-18555722D01*
X14731968Y-18555722D02*
X14731968Y-18574770D01*
X14731968Y-18574770D02*
X14636730Y-18593817D01*
X14808158Y-18650960D02*
X14827206Y-18660484D01*
X14827206Y-18660484D02*
X14865301Y-18660484D01*
X14865301Y-18660484D02*
X14884349Y-18650960D01*
X14884349Y-18650960D02*
X14893872Y-18631912D01*
X14893872Y-18631912D02*
X14893872Y-18622389D01*
X14893872Y-18622389D02*
X14884349Y-18603341D01*
X14884349Y-18603341D02*
X14865301Y-18593817D01*
X14865301Y-18593817D02*
X14836730Y-18593817D01*
X14836730Y-18593817D02*
X14817682Y-18584293D01*
X14817682Y-18584293D02*
X14808158Y-18565246D01*
X14808158Y-18565246D02*
X14808158Y-18555722D01*
X14808158Y-18555722D02*
X14817682Y-18536674D01*
X14817682Y-18536674D02*
X14836730Y-18527150D01*
X14836730Y-18527150D02*
X14865301Y-18527150D01*
X14865301Y-18527150D02*
X14884349Y-18536674D01*
X14960539Y-18736674D02*
X14970063Y-18727150D01*
X14970063Y-18727150D02*
X14989111Y-18698579D01*
X14989111Y-18698579D02*
X14998634Y-18679531D01*
X14998634Y-18679531D02*
X15008158Y-18650960D01*
X15008158Y-18650960D02*
X15017682Y-18603341D01*
X15017682Y-18603341D02*
X15017682Y-18565246D01*
X15017682Y-18565246D02*
X15008158Y-18517627D01*
X15008158Y-18517627D02*
X14998634Y-18489055D01*
X14998634Y-18489055D02*
X14989111Y-18470008D01*
X14989111Y-18470008D02*
X14970063Y-18441436D01*
X14970063Y-18441436D02*
X14960539Y-18431912D01*
D10*
X9975000Y-18813000D02*
X9975000Y-18853000D01*
X9955000Y-18833000D02*
X9995000Y-18833000D01*
D11*
X10293872Y-18724484D02*
X10312920Y-18724484D01*
X10312920Y-18724484D02*
X10331967Y-18734008D01*
X10331967Y-18734008D02*
X10341491Y-18743531D01*
X10341491Y-18743531D02*
X10351015Y-18762579D01*
X10351015Y-18762579D02*
X10360539Y-18800674D01*
X10360539Y-18800674D02*
X10360539Y-18848293D01*
X10360539Y-18848293D02*
X10351015Y-18886389D01*
X10351015Y-18886389D02*
X10341491Y-18905436D01*
X10341491Y-18905436D02*
X10331967Y-18914960D01*
X10331967Y-18914960D02*
X10312920Y-18924484D01*
X10312920Y-18924484D02*
X10293872Y-18924484D01*
X10293872Y-18924484D02*
X10274824Y-18914960D01*
X10274824Y-18914960D02*
X10265301Y-18905436D01*
X10265301Y-18905436D02*
X10255777Y-18886389D01*
X10255777Y-18886389D02*
X10246253Y-18848293D01*
X10246253Y-18848293D02*
X10246253Y-18800674D01*
X10246253Y-18800674D02*
X10255777Y-18762579D01*
X10255777Y-18762579D02*
X10265301Y-18743531D01*
X10265301Y-18743531D02*
X10274824Y-18734008D01*
X10274824Y-18734008D02*
X10293872Y-18724484D01*
X10446253Y-18905436D02*
X10455777Y-18914960D01*
X10455777Y-18914960D02*
X10446253Y-18924484D01*
X10446253Y-18924484D02*
X10436729Y-18914960D01*
X10436729Y-18914960D02*
X10446253Y-18905436D01*
X10446253Y-18905436D02*
X10446253Y-18924484D01*
X10627205Y-18791150D02*
X10627205Y-18924484D01*
X10579586Y-18714960D02*
X10531967Y-18857817D01*
X10531967Y-18857817D02*
X10655777Y-18857817D01*
X10770063Y-18724484D02*
X10789110Y-18724484D01*
X10789110Y-18724484D02*
X10808158Y-18734008D01*
X10808158Y-18734008D02*
X10817682Y-18743531D01*
X10817682Y-18743531D02*
X10827205Y-18762579D01*
X10827205Y-18762579D02*
X10836729Y-18800674D01*
X10836729Y-18800674D02*
X10836729Y-18848293D01*
X10836729Y-18848293D02*
X10827205Y-18886389D01*
X10827205Y-18886389D02*
X10817682Y-18905436D01*
X10817682Y-18905436D02*
X10808158Y-18914960D01*
X10808158Y-18914960D02*
X10789110Y-18924484D01*
X10789110Y-18924484D02*
X10770063Y-18924484D01*
X10770063Y-18924484D02*
X10751015Y-18914960D01*
X10751015Y-18914960D02*
X10741491Y-18905436D01*
X10741491Y-18905436D02*
X10731967Y-18886389D01*
X10731967Y-18886389D02*
X10722444Y-18848293D01*
X10722444Y-18848293D02*
X10722444Y-18800674D01*
X10722444Y-18800674D02*
X10731967Y-18762579D01*
X10731967Y-18762579D02*
X10741491Y-18743531D01*
X10741491Y-18743531D02*
X10751015Y-18734008D01*
X10751015Y-18734008D02*
X10770063Y-18724484D01*
X10960539Y-18724484D02*
X10979586Y-18724484D01*
X10979586Y-18724484D02*
X10998634Y-18734008D01*
X10998634Y-18734008D02*
X11008158Y-18743531D01*
X11008158Y-18743531D02*
X11017682Y-18762579D01*
X11017682Y-18762579D02*
X11027205Y-18800674D01*
X11027205Y-18800674D02*
X11027205Y-18848293D01*
X11027205Y-18848293D02*
X11017682Y-18886389D01*
X11017682Y-18886389D02*
X11008158Y-18905436D01*
X11008158Y-18905436D02*
X10998634Y-18914960D01*
X10998634Y-18914960D02*
X10979586Y-18924484D01*
X10979586Y-18924484D02*
X10960539Y-18924484D01*
X10960539Y-18924484D02*
X10941491Y-18914960D01*
X10941491Y-18914960D02*
X10931967Y-18905436D01*
X10931967Y-18905436D02*
X10922444Y-18886389D01*
X10922444Y-18886389D02*
X10912920Y-18848293D01*
X10912920Y-18848293D02*
X10912920Y-18800674D01*
X10912920Y-18800674D02*
X10922444Y-18762579D01*
X10922444Y-18762579D02*
X10931967Y-18743531D01*
X10931967Y-18743531D02*
X10941491Y-18734008D01*
X10941491Y-18734008D02*
X10960539Y-18724484D01*
X11112920Y-18924484D02*
X11112920Y-18791150D01*
X11112920Y-18810198D02*
X11122444Y-18800674D01*
X11122444Y-18800674D02*
X11141491Y-18791150D01*
X11141491Y-18791150D02*
X11170063Y-18791150D01*
X11170063Y-18791150D02*
X11189110Y-18800674D01*
X11189110Y-18800674D02*
X11198634Y-18819722D01*
X11198634Y-18819722D02*
X11198634Y-18924484D01*
X11198634Y-18819722D02*
X11208158Y-18800674D01*
X11208158Y-18800674D02*
X11227205Y-18791150D01*
X11227205Y-18791150D02*
X11255777Y-18791150D01*
X11255777Y-18791150D02*
X11274824Y-18800674D01*
X11274824Y-18800674D02*
X11284348Y-18819722D01*
X11284348Y-18819722D02*
X11284348Y-18924484D01*
X11379586Y-18924484D02*
X11379586Y-18791150D01*
X11379586Y-18810198D02*
X11389110Y-18800674D01*
X11389110Y-18800674D02*
X11408158Y-18791150D01*
X11408158Y-18791150D02*
X11436729Y-18791150D01*
X11436729Y-18791150D02*
X11455777Y-18800674D01*
X11455777Y-18800674D02*
X11465301Y-18819722D01*
X11465301Y-18819722D02*
X11465301Y-18924484D01*
X11465301Y-18819722D02*
X11474824Y-18800674D01*
X11474824Y-18800674D02*
X11493872Y-18791150D01*
X11493872Y-18791150D02*
X11522443Y-18791150D01*
X11522443Y-18791150D02*
X11541491Y-18800674D01*
X11541491Y-18800674D02*
X11551015Y-18819722D01*
X11551015Y-18819722D02*
X11551015Y-18924484D01*
X11941491Y-18714960D02*
X11770063Y-18972103D01*
X12198634Y-18724484D02*
X12217682Y-18724484D01*
X12217682Y-18724484D02*
X12236729Y-18734008D01*
X12236729Y-18734008D02*
X12246253Y-18743531D01*
X12246253Y-18743531D02*
X12255777Y-18762579D01*
X12255777Y-18762579D02*
X12265301Y-18800674D01*
X12265301Y-18800674D02*
X12265301Y-18848293D01*
X12265301Y-18848293D02*
X12255777Y-18886389D01*
X12255777Y-18886389D02*
X12246253Y-18905436D01*
X12246253Y-18905436D02*
X12236729Y-18914960D01*
X12236729Y-18914960D02*
X12217682Y-18924484D01*
X12217682Y-18924484D02*
X12198634Y-18924484D01*
X12198634Y-18924484D02*
X12179586Y-18914960D01*
X12179586Y-18914960D02*
X12170063Y-18905436D01*
X12170063Y-18905436D02*
X12160539Y-18886389D01*
X12160539Y-18886389D02*
X12151015Y-18848293D01*
X12151015Y-18848293D02*
X12151015Y-18800674D01*
X12151015Y-18800674D02*
X12160539Y-18762579D01*
X12160539Y-18762579D02*
X12170063Y-18743531D01*
X12170063Y-18743531D02*
X12179586Y-18734008D01*
X12179586Y-18734008D02*
X12198634Y-18724484D01*
X12351015Y-18905436D02*
X12360539Y-18914960D01*
X12360539Y-18914960D02*
X12351015Y-18924484D01*
X12351015Y-18924484D02*
X12341491Y-18914960D01*
X12341491Y-18914960D02*
X12351015Y-18905436D01*
X12351015Y-18905436D02*
X12351015Y-18924484D01*
X12484348Y-18724484D02*
X12503396Y-18724484D01*
X12503396Y-18724484D02*
X12522444Y-18734008D01*
X12522444Y-18734008D02*
X12531967Y-18743531D01*
X12531967Y-18743531D02*
X12541491Y-18762579D01*
X12541491Y-18762579D02*
X12551015Y-18800674D01*
X12551015Y-18800674D02*
X12551015Y-18848293D01*
X12551015Y-18848293D02*
X12541491Y-18886389D01*
X12541491Y-18886389D02*
X12531967Y-18905436D01*
X12531967Y-18905436D02*
X12522444Y-18914960D01*
X12522444Y-18914960D02*
X12503396Y-18924484D01*
X12503396Y-18924484D02*
X12484348Y-18924484D01*
X12484348Y-18924484D02*
X12465301Y-18914960D01*
X12465301Y-18914960D02*
X12455777Y-18905436D01*
X12455777Y-18905436D02*
X12446253Y-18886389D01*
X12446253Y-18886389D02*
X12436729Y-18848293D01*
X12436729Y-18848293D02*
X12436729Y-18800674D01*
X12436729Y-18800674D02*
X12446253Y-18762579D01*
X12446253Y-18762579D02*
X12455777Y-18743531D01*
X12455777Y-18743531D02*
X12465301Y-18734008D01*
X12465301Y-18734008D02*
X12484348Y-18724484D01*
X12741491Y-18924484D02*
X12627206Y-18924484D01*
X12684348Y-18924484D02*
X12684348Y-18724484D01*
X12684348Y-18724484D02*
X12665301Y-18753055D01*
X12665301Y-18753055D02*
X12646253Y-18772103D01*
X12646253Y-18772103D02*
X12627206Y-18781627D01*
X12922444Y-18724484D02*
X12827206Y-18724484D01*
X12827206Y-18724484D02*
X12817682Y-18819722D01*
X12817682Y-18819722D02*
X12827206Y-18810198D01*
X12827206Y-18810198D02*
X12846253Y-18800674D01*
X12846253Y-18800674D02*
X12893872Y-18800674D01*
X12893872Y-18800674D02*
X12912920Y-18810198D01*
X12912920Y-18810198D02*
X12922444Y-18819722D01*
X12922444Y-18819722D02*
X12931967Y-18838770D01*
X12931967Y-18838770D02*
X12931967Y-18886389D01*
X12931967Y-18886389D02*
X12922444Y-18905436D01*
X12922444Y-18905436D02*
X12912920Y-18914960D01*
X12912920Y-18914960D02*
X12893872Y-18924484D01*
X12893872Y-18924484D02*
X12846253Y-18924484D01*
X12846253Y-18924484D02*
X12827206Y-18914960D01*
X12827206Y-18914960D02*
X12817682Y-18905436D01*
X12998634Y-18724484D02*
X13131967Y-18724484D01*
X13131967Y-18724484D02*
X13046253Y-18924484D01*
X13198634Y-18724484D02*
X13198634Y-18762579D01*
X13274825Y-18724484D02*
X13274825Y-18762579D01*
X13570063Y-19000674D02*
X13560539Y-18991150D01*
X13560539Y-18991150D02*
X13541491Y-18962579D01*
X13541491Y-18962579D02*
X13531968Y-18943531D01*
X13531968Y-18943531D02*
X13522444Y-18914960D01*
X13522444Y-18914960D02*
X13512920Y-18867341D01*
X13512920Y-18867341D02*
X13512920Y-18829246D01*
X13512920Y-18829246D02*
X13522444Y-18781627D01*
X13522444Y-18781627D02*
X13531968Y-18753055D01*
X13531968Y-18753055D02*
X13541491Y-18734008D01*
X13541491Y-18734008D02*
X13560539Y-18705436D01*
X13560539Y-18705436D02*
X13570063Y-18695912D01*
X13627206Y-18724484D02*
X13751015Y-18724484D01*
X13751015Y-18724484D02*
X13684348Y-18800674D01*
X13684348Y-18800674D02*
X13712920Y-18800674D01*
X13712920Y-18800674D02*
X13731968Y-18810198D01*
X13731968Y-18810198D02*
X13741491Y-18819722D01*
X13741491Y-18819722D02*
X13751015Y-18838770D01*
X13751015Y-18838770D02*
X13751015Y-18886389D01*
X13751015Y-18886389D02*
X13741491Y-18905436D01*
X13741491Y-18905436D02*
X13731968Y-18914960D01*
X13731968Y-18914960D02*
X13712920Y-18924484D01*
X13712920Y-18924484D02*
X13655777Y-18924484D01*
X13655777Y-18924484D02*
X13636729Y-18914960D01*
X13636729Y-18914960D02*
X13627206Y-18905436D01*
X13846253Y-18924484D02*
X13884348Y-18924484D01*
X13884348Y-18924484D02*
X13903396Y-18914960D01*
X13903396Y-18914960D02*
X13912920Y-18905436D01*
X13912920Y-18905436D02*
X13931968Y-18876865D01*
X13931968Y-18876865D02*
X13941491Y-18838770D01*
X13941491Y-18838770D02*
X13941491Y-18762579D01*
X13941491Y-18762579D02*
X13931968Y-18743531D01*
X13931968Y-18743531D02*
X13922444Y-18734008D01*
X13922444Y-18734008D02*
X13903396Y-18724484D01*
X13903396Y-18724484D02*
X13865301Y-18724484D01*
X13865301Y-18724484D02*
X13846253Y-18734008D01*
X13846253Y-18734008D02*
X13836729Y-18743531D01*
X13836729Y-18743531D02*
X13827206Y-18762579D01*
X13827206Y-18762579D02*
X13827206Y-18810198D01*
X13827206Y-18810198D02*
X13836729Y-18829246D01*
X13836729Y-18829246D02*
X13846253Y-18838770D01*
X13846253Y-18838770D02*
X13865301Y-18848293D01*
X13865301Y-18848293D02*
X13903396Y-18848293D01*
X13903396Y-18848293D02*
X13922444Y-18838770D01*
X13922444Y-18838770D02*
X13931968Y-18829246D01*
X13931968Y-18829246D02*
X13941491Y-18810198D01*
X14122444Y-18724484D02*
X14027206Y-18724484D01*
X14027206Y-18724484D02*
X14017682Y-18819722D01*
X14017682Y-18819722D02*
X14027206Y-18810198D01*
X14027206Y-18810198D02*
X14046253Y-18800674D01*
X14046253Y-18800674D02*
X14093872Y-18800674D01*
X14093872Y-18800674D02*
X14112920Y-18810198D01*
X14112920Y-18810198D02*
X14122444Y-18819722D01*
X14122444Y-18819722D02*
X14131968Y-18838770D01*
X14131968Y-18838770D02*
X14131968Y-18886389D01*
X14131968Y-18886389D02*
X14122444Y-18905436D01*
X14122444Y-18905436D02*
X14112920Y-18914960D01*
X14112920Y-18914960D02*
X14093872Y-18924484D01*
X14093872Y-18924484D02*
X14046253Y-18924484D01*
X14046253Y-18924484D02*
X14027206Y-18914960D01*
X14027206Y-18914960D02*
X14017682Y-18905436D01*
X14370063Y-18924484D02*
X14370063Y-18724484D01*
X14455777Y-18924484D02*
X14455777Y-18819722D01*
X14455777Y-18819722D02*
X14446253Y-18800674D01*
X14446253Y-18800674D02*
X14427206Y-18791150D01*
X14427206Y-18791150D02*
X14398634Y-18791150D01*
X14398634Y-18791150D02*
X14379587Y-18800674D01*
X14379587Y-18800674D02*
X14370063Y-18810198D01*
X14579587Y-18924484D02*
X14560539Y-18914960D01*
X14560539Y-18914960D02*
X14551015Y-18905436D01*
X14551015Y-18905436D02*
X14541491Y-18886389D01*
X14541491Y-18886389D02*
X14541491Y-18829246D01*
X14541491Y-18829246D02*
X14551015Y-18810198D01*
X14551015Y-18810198D02*
X14560539Y-18800674D01*
X14560539Y-18800674D02*
X14579587Y-18791150D01*
X14579587Y-18791150D02*
X14608158Y-18791150D01*
X14608158Y-18791150D02*
X14627206Y-18800674D01*
X14627206Y-18800674D02*
X14636730Y-18810198D01*
X14636730Y-18810198D02*
X14646253Y-18829246D01*
X14646253Y-18829246D02*
X14646253Y-18886389D01*
X14646253Y-18886389D02*
X14636730Y-18905436D01*
X14636730Y-18905436D02*
X14627206Y-18914960D01*
X14627206Y-18914960D02*
X14608158Y-18924484D01*
X14608158Y-18924484D02*
X14579587Y-18924484D01*
X14760539Y-18924484D02*
X14741491Y-18914960D01*
X14741491Y-18914960D02*
X14731968Y-18895912D01*
X14731968Y-18895912D02*
X14731968Y-18724484D01*
X14912920Y-18914960D02*
X14893872Y-18924484D01*
X14893872Y-18924484D02*
X14855777Y-18924484D01*
X14855777Y-18924484D02*
X14836730Y-18914960D01*
X14836730Y-18914960D02*
X14827206Y-18895912D01*
X14827206Y-18895912D02*
X14827206Y-18819722D01*
X14827206Y-18819722D02*
X14836730Y-18800674D01*
X14836730Y-18800674D02*
X14855777Y-18791150D01*
X14855777Y-18791150D02*
X14893872Y-18791150D01*
X14893872Y-18791150D02*
X14912920Y-18800674D01*
X14912920Y-18800674D02*
X14922444Y-18819722D01*
X14922444Y-18819722D02*
X14922444Y-18838770D01*
X14922444Y-18838770D02*
X14827206Y-18857817D01*
X14998634Y-18914960D02*
X15017682Y-18924484D01*
X15017682Y-18924484D02*
X15055777Y-18924484D01*
X15055777Y-18924484D02*
X15074825Y-18914960D01*
X15074825Y-18914960D02*
X15084349Y-18895912D01*
X15084349Y-18895912D02*
X15084349Y-18886389D01*
X15084349Y-18886389D02*
X15074825Y-18867341D01*
X15074825Y-18867341D02*
X15055777Y-18857817D01*
X15055777Y-18857817D02*
X15027206Y-18857817D01*
X15027206Y-18857817D02*
X15008158Y-18848293D01*
X15008158Y-18848293D02*
X14998634Y-18829246D01*
X14998634Y-18829246D02*
X14998634Y-18819722D01*
X14998634Y-18819722D02*
X15008158Y-18800674D01*
X15008158Y-18800674D02*
X15027206Y-18791150D01*
X15027206Y-18791150D02*
X15055777Y-18791150D01*
X15055777Y-18791150D02*
X15074825Y-18800674D01*
X15151015Y-19000674D02*
X15160539Y-18991150D01*
X15160539Y-18991150D02*
X15179587Y-18962579D01*
X15179587Y-18962579D02*
X15189111Y-18943531D01*
X15189111Y-18943531D02*
X15198634Y-18914960D01*
X15198634Y-18914960D02*
X15208158Y-18867341D01*
X15208158Y-18867341D02*
X15208158Y-18829246D01*
X15208158Y-18829246D02*
X15198634Y-18781627D01*
X15198634Y-18781627D02*
X15189111Y-18753055D01*
X15189111Y-18753055D02*
X15179587Y-18734008D01*
X15179587Y-18734008D02*
X15160539Y-18705436D01*
X15160539Y-18705436D02*
X15151015Y-18695912D01*
D10*
X9986213Y-19118213D02*
X9986213Y-19075787D01*
X9943787Y-19075787D01*
X9943787Y-19118213D01*
X9986213Y-19118213D01*
D11*
X10293872Y-18988484D02*
X10312920Y-18988484D01*
X10312920Y-18988484D02*
X10331967Y-18998008D01*
X10331967Y-18998008D02*
X10341491Y-19007531D01*
X10341491Y-19007531D02*
X10351015Y-19026579D01*
X10351015Y-19026579D02*
X10360539Y-19064674D01*
X10360539Y-19064674D02*
X10360539Y-19112293D01*
X10360539Y-19112293D02*
X10351015Y-19150389D01*
X10351015Y-19150389D02*
X10341491Y-19169436D01*
X10341491Y-19169436D02*
X10331967Y-19178960D01*
X10331967Y-19178960D02*
X10312920Y-19188484D01*
X10312920Y-19188484D02*
X10293872Y-19188484D01*
X10293872Y-19188484D02*
X10274824Y-19178960D01*
X10274824Y-19178960D02*
X10265301Y-19169436D01*
X10265301Y-19169436D02*
X10255777Y-19150389D01*
X10255777Y-19150389D02*
X10246253Y-19112293D01*
X10246253Y-19112293D02*
X10246253Y-19064674D01*
X10246253Y-19064674D02*
X10255777Y-19026579D01*
X10255777Y-19026579D02*
X10265301Y-19007531D01*
X10265301Y-19007531D02*
X10274824Y-18998008D01*
X10274824Y-18998008D02*
X10293872Y-18988484D01*
X10446253Y-19169436D02*
X10455777Y-19178960D01*
X10455777Y-19178960D02*
X10446253Y-19188484D01*
X10446253Y-19188484D02*
X10436729Y-19178960D01*
X10436729Y-19178960D02*
X10446253Y-19169436D01*
X10446253Y-19169436D02*
X10446253Y-19188484D01*
X10627205Y-18988484D02*
X10589110Y-18988484D01*
X10589110Y-18988484D02*
X10570063Y-18998008D01*
X10570063Y-18998008D02*
X10560539Y-19007531D01*
X10560539Y-19007531D02*
X10541491Y-19036103D01*
X10541491Y-19036103D02*
X10531967Y-19074198D01*
X10531967Y-19074198D02*
X10531967Y-19150389D01*
X10531967Y-19150389D02*
X10541491Y-19169436D01*
X10541491Y-19169436D02*
X10551015Y-19178960D01*
X10551015Y-19178960D02*
X10570063Y-19188484D01*
X10570063Y-19188484D02*
X10608158Y-19188484D01*
X10608158Y-19188484D02*
X10627205Y-19178960D01*
X10627205Y-19178960D02*
X10636729Y-19169436D01*
X10636729Y-19169436D02*
X10646253Y-19150389D01*
X10646253Y-19150389D02*
X10646253Y-19102770D01*
X10646253Y-19102770D02*
X10636729Y-19083722D01*
X10636729Y-19083722D02*
X10627205Y-19074198D01*
X10627205Y-19074198D02*
X10608158Y-19064674D01*
X10608158Y-19064674D02*
X10570063Y-19064674D01*
X10570063Y-19064674D02*
X10551015Y-19074198D01*
X10551015Y-19074198D02*
X10541491Y-19083722D01*
X10541491Y-19083722D02*
X10531967Y-19102770D01*
X10770063Y-18988484D02*
X10789110Y-18988484D01*
X10789110Y-18988484D02*
X10808158Y-18998008D01*
X10808158Y-18998008D02*
X10817682Y-19007531D01*
X10817682Y-19007531D02*
X10827205Y-19026579D01*
X10827205Y-19026579D02*
X10836729Y-19064674D01*
X10836729Y-19064674D02*
X10836729Y-19112293D01*
X10836729Y-19112293D02*
X10827205Y-19150389D01*
X10827205Y-19150389D02*
X10817682Y-19169436D01*
X10817682Y-19169436D02*
X10808158Y-19178960D01*
X10808158Y-19178960D02*
X10789110Y-19188484D01*
X10789110Y-19188484D02*
X10770063Y-19188484D01*
X10770063Y-19188484D02*
X10751015Y-19178960D01*
X10751015Y-19178960D02*
X10741491Y-19169436D01*
X10741491Y-19169436D02*
X10731967Y-19150389D01*
X10731967Y-19150389D02*
X10722444Y-19112293D01*
X10722444Y-19112293D02*
X10722444Y-19064674D01*
X10722444Y-19064674D02*
X10731967Y-19026579D01*
X10731967Y-19026579D02*
X10741491Y-19007531D01*
X10741491Y-19007531D02*
X10751015Y-18998008D01*
X10751015Y-18998008D02*
X10770063Y-18988484D01*
X10960539Y-18988484D02*
X10979586Y-18988484D01*
X10979586Y-18988484D02*
X10998634Y-18998008D01*
X10998634Y-18998008D02*
X11008158Y-19007531D01*
X11008158Y-19007531D02*
X11017682Y-19026579D01*
X11017682Y-19026579D02*
X11027205Y-19064674D01*
X11027205Y-19064674D02*
X11027205Y-19112293D01*
X11027205Y-19112293D02*
X11017682Y-19150389D01*
X11017682Y-19150389D02*
X11008158Y-19169436D01*
X11008158Y-19169436D02*
X10998634Y-19178960D01*
X10998634Y-19178960D02*
X10979586Y-19188484D01*
X10979586Y-19188484D02*
X10960539Y-19188484D01*
X10960539Y-19188484D02*
X10941491Y-19178960D01*
X10941491Y-19178960D02*
X10931967Y-19169436D01*
X10931967Y-19169436D02*
X10922444Y-19150389D01*
X10922444Y-19150389D02*
X10912920Y-19112293D01*
X10912920Y-19112293D02*
X10912920Y-19064674D01*
X10912920Y-19064674D02*
X10922444Y-19026579D01*
X10922444Y-19026579D02*
X10931967Y-19007531D01*
X10931967Y-19007531D02*
X10941491Y-18998008D01*
X10941491Y-18998008D02*
X10960539Y-18988484D01*
X11112920Y-19188484D02*
X11112920Y-19055150D01*
X11112920Y-19074198D02*
X11122444Y-19064674D01*
X11122444Y-19064674D02*
X11141491Y-19055150D01*
X11141491Y-19055150D02*
X11170063Y-19055150D01*
X11170063Y-19055150D02*
X11189110Y-19064674D01*
X11189110Y-19064674D02*
X11198634Y-19083722D01*
X11198634Y-19083722D02*
X11198634Y-19188484D01*
X11198634Y-19083722D02*
X11208158Y-19064674D01*
X11208158Y-19064674D02*
X11227205Y-19055150D01*
X11227205Y-19055150D02*
X11255777Y-19055150D01*
X11255777Y-19055150D02*
X11274824Y-19064674D01*
X11274824Y-19064674D02*
X11284348Y-19083722D01*
X11284348Y-19083722D02*
X11284348Y-19188484D01*
X11379586Y-19188484D02*
X11379586Y-19055150D01*
X11379586Y-19074198D02*
X11389110Y-19064674D01*
X11389110Y-19064674D02*
X11408158Y-19055150D01*
X11408158Y-19055150D02*
X11436729Y-19055150D01*
X11436729Y-19055150D02*
X11455777Y-19064674D01*
X11455777Y-19064674D02*
X11465301Y-19083722D01*
X11465301Y-19083722D02*
X11465301Y-19188484D01*
X11465301Y-19083722D02*
X11474824Y-19064674D01*
X11474824Y-19064674D02*
X11493872Y-19055150D01*
X11493872Y-19055150D02*
X11522443Y-19055150D01*
X11522443Y-19055150D02*
X11541491Y-19064674D01*
X11541491Y-19064674D02*
X11551015Y-19083722D01*
X11551015Y-19083722D02*
X11551015Y-19188484D01*
X11941491Y-18978960D02*
X11770063Y-19236103D01*
X12198634Y-18988484D02*
X12217682Y-18988484D01*
X12217682Y-18988484D02*
X12236729Y-18998008D01*
X12236729Y-18998008D02*
X12246253Y-19007531D01*
X12246253Y-19007531D02*
X12255777Y-19026579D01*
X12255777Y-19026579D02*
X12265301Y-19064674D01*
X12265301Y-19064674D02*
X12265301Y-19112293D01*
X12265301Y-19112293D02*
X12255777Y-19150389D01*
X12255777Y-19150389D02*
X12246253Y-19169436D01*
X12246253Y-19169436D02*
X12236729Y-19178960D01*
X12236729Y-19178960D02*
X12217682Y-19188484D01*
X12217682Y-19188484D02*
X12198634Y-19188484D01*
X12198634Y-19188484D02*
X12179586Y-19178960D01*
X12179586Y-19178960D02*
X12170063Y-19169436D01*
X12170063Y-19169436D02*
X12160539Y-19150389D01*
X12160539Y-19150389D02*
X12151015Y-19112293D01*
X12151015Y-19112293D02*
X12151015Y-19064674D01*
X12151015Y-19064674D02*
X12160539Y-19026579D01*
X12160539Y-19026579D02*
X12170063Y-19007531D01*
X12170063Y-19007531D02*
X12179586Y-18998008D01*
X12179586Y-18998008D02*
X12198634Y-18988484D01*
X12351015Y-19169436D02*
X12360539Y-19178960D01*
X12360539Y-19178960D02*
X12351015Y-19188484D01*
X12351015Y-19188484D02*
X12341491Y-19178960D01*
X12341491Y-19178960D02*
X12351015Y-19169436D01*
X12351015Y-19169436D02*
X12351015Y-19188484D01*
X12484348Y-18988484D02*
X12503396Y-18988484D01*
X12503396Y-18988484D02*
X12522444Y-18998008D01*
X12522444Y-18998008D02*
X12531967Y-19007531D01*
X12531967Y-19007531D02*
X12541491Y-19026579D01*
X12541491Y-19026579D02*
X12551015Y-19064674D01*
X12551015Y-19064674D02*
X12551015Y-19112293D01*
X12551015Y-19112293D02*
X12541491Y-19150389D01*
X12541491Y-19150389D02*
X12531967Y-19169436D01*
X12531967Y-19169436D02*
X12522444Y-19178960D01*
X12522444Y-19178960D02*
X12503396Y-19188484D01*
X12503396Y-19188484D02*
X12484348Y-19188484D01*
X12484348Y-19188484D02*
X12465301Y-19178960D01*
X12465301Y-19178960D02*
X12455777Y-19169436D01*
X12455777Y-19169436D02*
X12446253Y-19150389D01*
X12446253Y-19150389D02*
X12436729Y-19112293D01*
X12436729Y-19112293D02*
X12436729Y-19064674D01*
X12436729Y-19064674D02*
X12446253Y-19026579D01*
X12446253Y-19026579D02*
X12455777Y-19007531D01*
X12455777Y-19007531D02*
X12465301Y-18998008D01*
X12465301Y-18998008D02*
X12484348Y-18988484D01*
X12627206Y-19007531D02*
X12636729Y-18998008D01*
X12636729Y-18998008D02*
X12655777Y-18988484D01*
X12655777Y-18988484D02*
X12703396Y-18988484D01*
X12703396Y-18988484D02*
X12722444Y-18998008D01*
X12722444Y-18998008D02*
X12731967Y-19007531D01*
X12731967Y-19007531D02*
X12741491Y-19026579D01*
X12741491Y-19026579D02*
X12741491Y-19045627D01*
X12741491Y-19045627D02*
X12731967Y-19074198D01*
X12731967Y-19074198D02*
X12617682Y-19188484D01*
X12617682Y-19188484D02*
X12741491Y-19188484D01*
X12808158Y-18988484D02*
X12931967Y-18988484D01*
X12931967Y-18988484D02*
X12865301Y-19064674D01*
X12865301Y-19064674D02*
X12893872Y-19064674D01*
X12893872Y-19064674D02*
X12912920Y-19074198D01*
X12912920Y-19074198D02*
X12922444Y-19083722D01*
X12922444Y-19083722D02*
X12931967Y-19102770D01*
X12931967Y-19102770D02*
X12931967Y-19150389D01*
X12931967Y-19150389D02*
X12922444Y-19169436D01*
X12922444Y-19169436D02*
X12912920Y-19178960D01*
X12912920Y-19178960D02*
X12893872Y-19188484D01*
X12893872Y-19188484D02*
X12836729Y-19188484D01*
X12836729Y-19188484D02*
X12817682Y-19178960D01*
X12817682Y-19178960D02*
X12808158Y-19169436D01*
X13103396Y-18988484D02*
X13065301Y-18988484D01*
X13065301Y-18988484D02*
X13046253Y-18998008D01*
X13046253Y-18998008D02*
X13036729Y-19007531D01*
X13036729Y-19007531D02*
X13017682Y-19036103D01*
X13017682Y-19036103D02*
X13008158Y-19074198D01*
X13008158Y-19074198D02*
X13008158Y-19150389D01*
X13008158Y-19150389D02*
X13017682Y-19169436D01*
X13017682Y-19169436D02*
X13027206Y-19178960D01*
X13027206Y-19178960D02*
X13046253Y-19188484D01*
X13046253Y-19188484D02*
X13084348Y-19188484D01*
X13084348Y-19188484D02*
X13103396Y-19178960D01*
X13103396Y-19178960D02*
X13112920Y-19169436D01*
X13112920Y-19169436D02*
X13122444Y-19150389D01*
X13122444Y-19150389D02*
X13122444Y-19102770D01*
X13122444Y-19102770D02*
X13112920Y-19083722D01*
X13112920Y-19083722D02*
X13103396Y-19074198D01*
X13103396Y-19074198D02*
X13084348Y-19064674D01*
X13084348Y-19064674D02*
X13046253Y-19064674D01*
X13046253Y-19064674D02*
X13027206Y-19074198D01*
X13027206Y-19074198D02*
X13017682Y-19083722D01*
X13017682Y-19083722D02*
X13008158Y-19102770D01*
X13198634Y-18988484D02*
X13198634Y-19026579D01*
X13274825Y-18988484D02*
X13274825Y-19026579D01*
X13570063Y-19264674D02*
X13560539Y-19255150D01*
X13560539Y-19255150D02*
X13541491Y-19226579D01*
X13541491Y-19226579D02*
X13531968Y-19207531D01*
X13531968Y-19207531D02*
X13522444Y-19178960D01*
X13522444Y-19178960D02*
X13512920Y-19131341D01*
X13512920Y-19131341D02*
X13512920Y-19093246D01*
X13512920Y-19093246D02*
X13522444Y-19045627D01*
X13522444Y-19045627D02*
X13531968Y-19017055D01*
X13531968Y-19017055D02*
X13541491Y-18998008D01*
X13541491Y-18998008D02*
X13560539Y-18969436D01*
X13560539Y-18969436D02*
X13570063Y-18959912D01*
X13636729Y-19007531D02*
X13646253Y-18998008D01*
X13646253Y-18998008D02*
X13665301Y-18988484D01*
X13665301Y-18988484D02*
X13712920Y-18988484D01*
X13712920Y-18988484D02*
X13731968Y-18998008D01*
X13731968Y-18998008D02*
X13741491Y-19007531D01*
X13741491Y-19007531D02*
X13751015Y-19026579D01*
X13751015Y-19026579D02*
X13751015Y-19045627D01*
X13751015Y-19045627D02*
X13741491Y-19074198D01*
X13741491Y-19074198D02*
X13627206Y-19188484D01*
X13627206Y-19188484D02*
X13751015Y-19188484D01*
X13989110Y-19188484D02*
X13989110Y-18988484D01*
X14074825Y-19188484D02*
X14074825Y-19083722D01*
X14074825Y-19083722D02*
X14065301Y-19064674D01*
X14065301Y-19064674D02*
X14046253Y-19055150D01*
X14046253Y-19055150D02*
X14017682Y-19055150D01*
X14017682Y-19055150D02*
X13998634Y-19064674D01*
X13998634Y-19064674D02*
X13989110Y-19074198D01*
X14198634Y-19188484D02*
X14179587Y-19178960D01*
X14179587Y-19178960D02*
X14170063Y-19169436D01*
X14170063Y-19169436D02*
X14160539Y-19150389D01*
X14160539Y-19150389D02*
X14160539Y-19093246D01*
X14160539Y-19093246D02*
X14170063Y-19074198D01*
X14170063Y-19074198D02*
X14179587Y-19064674D01*
X14179587Y-19064674D02*
X14198634Y-19055150D01*
X14198634Y-19055150D02*
X14227206Y-19055150D01*
X14227206Y-19055150D02*
X14246253Y-19064674D01*
X14246253Y-19064674D02*
X14255777Y-19074198D01*
X14255777Y-19074198D02*
X14265301Y-19093246D01*
X14265301Y-19093246D02*
X14265301Y-19150389D01*
X14265301Y-19150389D02*
X14255777Y-19169436D01*
X14255777Y-19169436D02*
X14246253Y-19178960D01*
X14246253Y-19178960D02*
X14227206Y-19188484D01*
X14227206Y-19188484D02*
X14198634Y-19188484D01*
X14379587Y-19188484D02*
X14360539Y-19178960D01*
X14360539Y-19178960D02*
X14351015Y-19159912D01*
X14351015Y-19159912D02*
X14351015Y-18988484D01*
X14531968Y-19178960D02*
X14512920Y-19188484D01*
X14512920Y-19188484D02*
X14474825Y-19188484D01*
X14474825Y-19188484D02*
X14455777Y-19178960D01*
X14455777Y-19178960D02*
X14446253Y-19159912D01*
X14446253Y-19159912D02*
X14446253Y-19083722D01*
X14446253Y-19083722D02*
X14455777Y-19064674D01*
X14455777Y-19064674D02*
X14474825Y-19055150D01*
X14474825Y-19055150D02*
X14512920Y-19055150D01*
X14512920Y-19055150D02*
X14531968Y-19064674D01*
X14531968Y-19064674D02*
X14541491Y-19083722D01*
X14541491Y-19083722D02*
X14541491Y-19102770D01*
X14541491Y-19102770D02*
X14446253Y-19121817D01*
X14617682Y-19178960D02*
X14636730Y-19188484D01*
X14636730Y-19188484D02*
X14674825Y-19188484D01*
X14674825Y-19188484D02*
X14693872Y-19178960D01*
X14693872Y-19178960D02*
X14703396Y-19159912D01*
X14703396Y-19159912D02*
X14703396Y-19150389D01*
X14703396Y-19150389D02*
X14693872Y-19131341D01*
X14693872Y-19131341D02*
X14674825Y-19121817D01*
X14674825Y-19121817D02*
X14646253Y-19121817D01*
X14646253Y-19121817D02*
X14627206Y-19112293D01*
X14627206Y-19112293D02*
X14617682Y-19093246D01*
X14617682Y-19093246D02*
X14617682Y-19083722D01*
X14617682Y-19083722D02*
X14627206Y-19064674D01*
X14627206Y-19064674D02*
X14646253Y-19055150D01*
X14646253Y-19055150D02*
X14674825Y-19055150D01*
X14674825Y-19055150D02*
X14693872Y-19064674D01*
X14770063Y-19264674D02*
X14779587Y-19255150D01*
X14779587Y-19255150D02*
X14798634Y-19226579D01*
X14798634Y-19226579D02*
X14808158Y-19207531D01*
X14808158Y-19207531D02*
X14817682Y-19178960D01*
X14817682Y-19178960D02*
X14827206Y-19131341D01*
X14827206Y-19131341D02*
X14827206Y-19093246D01*
X14827206Y-19093246D02*
X14817682Y-19045627D01*
X14817682Y-19045627D02*
X14808158Y-19017055D01*
X14808158Y-19017055D02*
X14798634Y-18998008D01*
X14798634Y-18998008D02*
X14779587Y-18969436D01*
X14779587Y-18969436D02*
X14770063Y-18959912D01*
D10*
X9955000Y-19401000D02*
X9995000Y-19361000D01*
X9955000Y-19321000D01*
X9915000Y-19361000D01*
X9955000Y-19401000D01*
D11*
X10293872Y-19252484D02*
X10312920Y-19252484D01*
X10312920Y-19252484D02*
X10331967Y-19262008D01*
X10331967Y-19262008D02*
X10341491Y-19271531D01*
X10341491Y-19271531D02*
X10351015Y-19290579D01*
X10351015Y-19290579D02*
X10360539Y-19328674D01*
X10360539Y-19328674D02*
X10360539Y-19376293D01*
X10360539Y-19376293D02*
X10351015Y-19414389D01*
X10351015Y-19414389D02*
X10341491Y-19433436D01*
X10341491Y-19433436D02*
X10331967Y-19442960D01*
X10331967Y-19442960D02*
X10312920Y-19452484D01*
X10312920Y-19452484D02*
X10293872Y-19452484D01*
X10293872Y-19452484D02*
X10274824Y-19442960D01*
X10274824Y-19442960D02*
X10265301Y-19433436D01*
X10265301Y-19433436D02*
X10255777Y-19414389D01*
X10255777Y-19414389D02*
X10246253Y-19376293D01*
X10246253Y-19376293D02*
X10246253Y-19328674D01*
X10246253Y-19328674D02*
X10255777Y-19290579D01*
X10255777Y-19290579D02*
X10265301Y-19271531D01*
X10265301Y-19271531D02*
X10274824Y-19262008D01*
X10274824Y-19262008D02*
X10293872Y-19252484D01*
X10446253Y-19433436D02*
X10455777Y-19442960D01*
X10455777Y-19442960D02*
X10446253Y-19452484D01*
X10446253Y-19452484D02*
X10436729Y-19442960D01*
X10436729Y-19442960D02*
X10446253Y-19433436D01*
X10446253Y-19433436D02*
X10446253Y-19452484D01*
X10570063Y-19338198D02*
X10551015Y-19328674D01*
X10551015Y-19328674D02*
X10541491Y-19319150D01*
X10541491Y-19319150D02*
X10531967Y-19300103D01*
X10531967Y-19300103D02*
X10531967Y-19290579D01*
X10531967Y-19290579D02*
X10541491Y-19271531D01*
X10541491Y-19271531D02*
X10551015Y-19262008D01*
X10551015Y-19262008D02*
X10570063Y-19252484D01*
X10570063Y-19252484D02*
X10608158Y-19252484D01*
X10608158Y-19252484D02*
X10627205Y-19262008D01*
X10627205Y-19262008D02*
X10636729Y-19271531D01*
X10636729Y-19271531D02*
X10646253Y-19290579D01*
X10646253Y-19290579D02*
X10646253Y-19300103D01*
X10646253Y-19300103D02*
X10636729Y-19319150D01*
X10636729Y-19319150D02*
X10627205Y-19328674D01*
X10627205Y-19328674D02*
X10608158Y-19338198D01*
X10608158Y-19338198D02*
X10570063Y-19338198D01*
X10570063Y-19338198D02*
X10551015Y-19347722D01*
X10551015Y-19347722D02*
X10541491Y-19357246D01*
X10541491Y-19357246D02*
X10531967Y-19376293D01*
X10531967Y-19376293D02*
X10531967Y-19414389D01*
X10531967Y-19414389D02*
X10541491Y-19433436D01*
X10541491Y-19433436D02*
X10551015Y-19442960D01*
X10551015Y-19442960D02*
X10570063Y-19452484D01*
X10570063Y-19452484D02*
X10608158Y-19452484D01*
X10608158Y-19452484D02*
X10627205Y-19442960D01*
X10627205Y-19442960D02*
X10636729Y-19433436D01*
X10636729Y-19433436D02*
X10646253Y-19414389D01*
X10646253Y-19414389D02*
X10646253Y-19376293D01*
X10646253Y-19376293D02*
X10636729Y-19357246D01*
X10636729Y-19357246D02*
X10627205Y-19347722D01*
X10627205Y-19347722D02*
X10608158Y-19338198D01*
X10770063Y-19252484D02*
X10789110Y-19252484D01*
X10789110Y-19252484D02*
X10808158Y-19262008D01*
X10808158Y-19262008D02*
X10817682Y-19271531D01*
X10817682Y-19271531D02*
X10827205Y-19290579D01*
X10827205Y-19290579D02*
X10836729Y-19328674D01*
X10836729Y-19328674D02*
X10836729Y-19376293D01*
X10836729Y-19376293D02*
X10827205Y-19414389D01*
X10827205Y-19414389D02*
X10817682Y-19433436D01*
X10817682Y-19433436D02*
X10808158Y-19442960D01*
X10808158Y-19442960D02*
X10789110Y-19452484D01*
X10789110Y-19452484D02*
X10770063Y-19452484D01*
X10770063Y-19452484D02*
X10751015Y-19442960D01*
X10751015Y-19442960D02*
X10741491Y-19433436D01*
X10741491Y-19433436D02*
X10731967Y-19414389D01*
X10731967Y-19414389D02*
X10722444Y-19376293D01*
X10722444Y-19376293D02*
X10722444Y-19328674D01*
X10722444Y-19328674D02*
X10731967Y-19290579D01*
X10731967Y-19290579D02*
X10741491Y-19271531D01*
X10741491Y-19271531D02*
X10751015Y-19262008D01*
X10751015Y-19262008D02*
X10770063Y-19252484D01*
X10960539Y-19252484D02*
X10979586Y-19252484D01*
X10979586Y-19252484D02*
X10998634Y-19262008D01*
X10998634Y-19262008D02*
X11008158Y-19271531D01*
X11008158Y-19271531D02*
X11017682Y-19290579D01*
X11017682Y-19290579D02*
X11027205Y-19328674D01*
X11027205Y-19328674D02*
X11027205Y-19376293D01*
X11027205Y-19376293D02*
X11017682Y-19414389D01*
X11017682Y-19414389D02*
X11008158Y-19433436D01*
X11008158Y-19433436D02*
X10998634Y-19442960D01*
X10998634Y-19442960D02*
X10979586Y-19452484D01*
X10979586Y-19452484D02*
X10960539Y-19452484D01*
X10960539Y-19452484D02*
X10941491Y-19442960D01*
X10941491Y-19442960D02*
X10931967Y-19433436D01*
X10931967Y-19433436D02*
X10922444Y-19414389D01*
X10922444Y-19414389D02*
X10912920Y-19376293D01*
X10912920Y-19376293D02*
X10912920Y-19328674D01*
X10912920Y-19328674D02*
X10922444Y-19290579D01*
X10922444Y-19290579D02*
X10931967Y-19271531D01*
X10931967Y-19271531D02*
X10941491Y-19262008D01*
X10941491Y-19262008D02*
X10960539Y-19252484D01*
X11112920Y-19452484D02*
X11112920Y-19319150D01*
X11112920Y-19338198D02*
X11122444Y-19328674D01*
X11122444Y-19328674D02*
X11141491Y-19319150D01*
X11141491Y-19319150D02*
X11170063Y-19319150D01*
X11170063Y-19319150D02*
X11189110Y-19328674D01*
X11189110Y-19328674D02*
X11198634Y-19347722D01*
X11198634Y-19347722D02*
X11198634Y-19452484D01*
X11198634Y-19347722D02*
X11208158Y-19328674D01*
X11208158Y-19328674D02*
X11227205Y-19319150D01*
X11227205Y-19319150D02*
X11255777Y-19319150D01*
X11255777Y-19319150D02*
X11274824Y-19328674D01*
X11274824Y-19328674D02*
X11284348Y-19347722D01*
X11284348Y-19347722D02*
X11284348Y-19452484D01*
X11379586Y-19452484D02*
X11379586Y-19319150D01*
X11379586Y-19338198D02*
X11389110Y-19328674D01*
X11389110Y-19328674D02*
X11408158Y-19319150D01*
X11408158Y-19319150D02*
X11436729Y-19319150D01*
X11436729Y-19319150D02*
X11455777Y-19328674D01*
X11455777Y-19328674D02*
X11465301Y-19347722D01*
X11465301Y-19347722D02*
X11465301Y-19452484D01*
X11465301Y-19347722D02*
X11474824Y-19328674D01*
X11474824Y-19328674D02*
X11493872Y-19319150D01*
X11493872Y-19319150D02*
X11522443Y-19319150D01*
X11522443Y-19319150D02*
X11541491Y-19328674D01*
X11541491Y-19328674D02*
X11551015Y-19347722D01*
X11551015Y-19347722D02*
X11551015Y-19452484D01*
X11941491Y-19242960D02*
X11770063Y-19500103D01*
X12198634Y-19252484D02*
X12217682Y-19252484D01*
X12217682Y-19252484D02*
X12236729Y-19262008D01*
X12236729Y-19262008D02*
X12246253Y-19271531D01*
X12246253Y-19271531D02*
X12255777Y-19290579D01*
X12255777Y-19290579D02*
X12265301Y-19328674D01*
X12265301Y-19328674D02*
X12265301Y-19376293D01*
X12265301Y-19376293D02*
X12255777Y-19414389D01*
X12255777Y-19414389D02*
X12246253Y-19433436D01*
X12246253Y-19433436D02*
X12236729Y-19442960D01*
X12236729Y-19442960D02*
X12217682Y-19452484D01*
X12217682Y-19452484D02*
X12198634Y-19452484D01*
X12198634Y-19452484D02*
X12179586Y-19442960D01*
X12179586Y-19442960D02*
X12170063Y-19433436D01*
X12170063Y-19433436D02*
X12160539Y-19414389D01*
X12160539Y-19414389D02*
X12151015Y-19376293D01*
X12151015Y-19376293D02*
X12151015Y-19328674D01*
X12151015Y-19328674D02*
X12160539Y-19290579D01*
X12160539Y-19290579D02*
X12170063Y-19271531D01*
X12170063Y-19271531D02*
X12179586Y-19262008D01*
X12179586Y-19262008D02*
X12198634Y-19252484D01*
X12351015Y-19433436D02*
X12360539Y-19442960D01*
X12360539Y-19442960D02*
X12351015Y-19452484D01*
X12351015Y-19452484D02*
X12341491Y-19442960D01*
X12341491Y-19442960D02*
X12351015Y-19433436D01*
X12351015Y-19433436D02*
X12351015Y-19452484D01*
X12484348Y-19252484D02*
X12503396Y-19252484D01*
X12503396Y-19252484D02*
X12522444Y-19262008D01*
X12522444Y-19262008D02*
X12531967Y-19271531D01*
X12531967Y-19271531D02*
X12541491Y-19290579D01*
X12541491Y-19290579D02*
X12551015Y-19328674D01*
X12551015Y-19328674D02*
X12551015Y-19376293D01*
X12551015Y-19376293D02*
X12541491Y-19414389D01*
X12541491Y-19414389D02*
X12531967Y-19433436D01*
X12531967Y-19433436D02*
X12522444Y-19442960D01*
X12522444Y-19442960D02*
X12503396Y-19452484D01*
X12503396Y-19452484D02*
X12484348Y-19452484D01*
X12484348Y-19452484D02*
X12465301Y-19442960D01*
X12465301Y-19442960D02*
X12455777Y-19433436D01*
X12455777Y-19433436D02*
X12446253Y-19414389D01*
X12446253Y-19414389D02*
X12436729Y-19376293D01*
X12436729Y-19376293D02*
X12436729Y-19328674D01*
X12436729Y-19328674D02*
X12446253Y-19290579D01*
X12446253Y-19290579D02*
X12455777Y-19271531D01*
X12455777Y-19271531D02*
X12465301Y-19262008D01*
X12465301Y-19262008D02*
X12484348Y-19252484D01*
X12617682Y-19252484D02*
X12741491Y-19252484D01*
X12741491Y-19252484D02*
X12674825Y-19328674D01*
X12674825Y-19328674D02*
X12703396Y-19328674D01*
X12703396Y-19328674D02*
X12722444Y-19338198D01*
X12722444Y-19338198D02*
X12731967Y-19347722D01*
X12731967Y-19347722D02*
X12741491Y-19366770D01*
X12741491Y-19366770D02*
X12741491Y-19414389D01*
X12741491Y-19414389D02*
X12731967Y-19433436D01*
X12731967Y-19433436D02*
X12722444Y-19442960D01*
X12722444Y-19442960D02*
X12703396Y-19452484D01*
X12703396Y-19452484D02*
X12646253Y-19452484D01*
X12646253Y-19452484D02*
X12627206Y-19442960D01*
X12627206Y-19442960D02*
X12617682Y-19433436D01*
X12931967Y-19452484D02*
X12817682Y-19452484D01*
X12874825Y-19452484D02*
X12874825Y-19252484D01*
X12874825Y-19252484D02*
X12855777Y-19281055D01*
X12855777Y-19281055D02*
X12836729Y-19300103D01*
X12836729Y-19300103D02*
X12817682Y-19309627D01*
X13112920Y-19252484D02*
X13017682Y-19252484D01*
X13017682Y-19252484D02*
X13008158Y-19347722D01*
X13008158Y-19347722D02*
X13017682Y-19338198D01*
X13017682Y-19338198D02*
X13036729Y-19328674D01*
X13036729Y-19328674D02*
X13084348Y-19328674D01*
X13084348Y-19328674D02*
X13103396Y-19338198D01*
X13103396Y-19338198D02*
X13112920Y-19347722D01*
X13112920Y-19347722D02*
X13122444Y-19366770D01*
X13122444Y-19366770D02*
X13122444Y-19414389D01*
X13122444Y-19414389D02*
X13112920Y-19433436D01*
X13112920Y-19433436D02*
X13103396Y-19442960D01*
X13103396Y-19442960D02*
X13084348Y-19452484D01*
X13084348Y-19452484D02*
X13036729Y-19452484D01*
X13036729Y-19452484D02*
X13017682Y-19442960D01*
X13017682Y-19442960D02*
X13008158Y-19433436D01*
X13198634Y-19252484D02*
X13198634Y-19290579D01*
X13274825Y-19252484D02*
X13274825Y-19290579D01*
X13570063Y-19528674D02*
X13560539Y-19519150D01*
X13560539Y-19519150D02*
X13541491Y-19490579D01*
X13541491Y-19490579D02*
X13531968Y-19471531D01*
X13531968Y-19471531D02*
X13522444Y-19442960D01*
X13522444Y-19442960D02*
X13512920Y-19395341D01*
X13512920Y-19395341D02*
X13512920Y-19357246D01*
X13512920Y-19357246D02*
X13522444Y-19309627D01*
X13522444Y-19309627D02*
X13531968Y-19281055D01*
X13531968Y-19281055D02*
X13541491Y-19262008D01*
X13541491Y-19262008D02*
X13560539Y-19233436D01*
X13560539Y-19233436D02*
X13570063Y-19223912D01*
X13751015Y-19452484D02*
X13636729Y-19452484D01*
X13693872Y-19452484D02*
X13693872Y-19252484D01*
X13693872Y-19252484D02*
X13674825Y-19281055D01*
X13674825Y-19281055D02*
X13655777Y-19300103D01*
X13655777Y-19300103D02*
X13636729Y-19309627D01*
X13865301Y-19338198D02*
X13846253Y-19328674D01*
X13846253Y-19328674D02*
X13836729Y-19319150D01*
X13836729Y-19319150D02*
X13827206Y-19300103D01*
X13827206Y-19300103D02*
X13827206Y-19290579D01*
X13827206Y-19290579D02*
X13836729Y-19271531D01*
X13836729Y-19271531D02*
X13846253Y-19262008D01*
X13846253Y-19262008D02*
X13865301Y-19252484D01*
X13865301Y-19252484D02*
X13903396Y-19252484D01*
X13903396Y-19252484D02*
X13922444Y-19262008D01*
X13922444Y-19262008D02*
X13931968Y-19271531D01*
X13931968Y-19271531D02*
X13941491Y-19290579D01*
X13941491Y-19290579D02*
X13941491Y-19300103D01*
X13941491Y-19300103D02*
X13931968Y-19319150D01*
X13931968Y-19319150D02*
X13922444Y-19328674D01*
X13922444Y-19328674D02*
X13903396Y-19338198D01*
X13903396Y-19338198D02*
X13865301Y-19338198D01*
X13865301Y-19338198D02*
X13846253Y-19347722D01*
X13846253Y-19347722D02*
X13836729Y-19357246D01*
X13836729Y-19357246D02*
X13827206Y-19376293D01*
X13827206Y-19376293D02*
X13827206Y-19414389D01*
X13827206Y-19414389D02*
X13836729Y-19433436D01*
X13836729Y-19433436D02*
X13846253Y-19442960D01*
X13846253Y-19442960D02*
X13865301Y-19452484D01*
X13865301Y-19452484D02*
X13903396Y-19452484D01*
X13903396Y-19452484D02*
X13922444Y-19442960D01*
X13922444Y-19442960D02*
X13931968Y-19433436D01*
X13931968Y-19433436D02*
X13941491Y-19414389D01*
X13941491Y-19414389D02*
X13941491Y-19376293D01*
X13941491Y-19376293D02*
X13931968Y-19357246D01*
X13931968Y-19357246D02*
X13922444Y-19347722D01*
X13922444Y-19347722D02*
X13903396Y-19338198D01*
X14179587Y-19452484D02*
X14179587Y-19252484D01*
X14265301Y-19452484D02*
X14265301Y-19347722D01*
X14265301Y-19347722D02*
X14255777Y-19328674D01*
X14255777Y-19328674D02*
X14236730Y-19319150D01*
X14236730Y-19319150D02*
X14208158Y-19319150D01*
X14208158Y-19319150D02*
X14189110Y-19328674D01*
X14189110Y-19328674D02*
X14179587Y-19338198D01*
X14389110Y-19452484D02*
X14370063Y-19442960D01*
X14370063Y-19442960D02*
X14360539Y-19433436D01*
X14360539Y-19433436D02*
X14351015Y-19414389D01*
X14351015Y-19414389D02*
X14351015Y-19357246D01*
X14351015Y-19357246D02*
X14360539Y-19338198D01*
X14360539Y-19338198D02*
X14370063Y-19328674D01*
X14370063Y-19328674D02*
X14389110Y-19319150D01*
X14389110Y-19319150D02*
X14417682Y-19319150D01*
X14417682Y-19319150D02*
X14436730Y-19328674D01*
X14436730Y-19328674D02*
X14446253Y-19338198D01*
X14446253Y-19338198D02*
X14455777Y-19357246D01*
X14455777Y-19357246D02*
X14455777Y-19414389D01*
X14455777Y-19414389D02*
X14446253Y-19433436D01*
X14446253Y-19433436D02*
X14436730Y-19442960D01*
X14436730Y-19442960D02*
X14417682Y-19452484D01*
X14417682Y-19452484D02*
X14389110Y-19452484D01*
X14570063Y-19452484D02*
X14551015Y-19442960D01*
X14551015Y-19442960D02*
X14541491Y-19423912D01*
X14541491Y-19423912D02*
X14541491Y-19252484D01*
X14722444Y-19442960D02*
X14703396Y-19452484D01*
X14703396Y-19452484D02*
X14665301Y-19452484D01*
X14665301Y-19452484D02*
X14646253Y-19442960D01*
X14646253Y-19442960D02*
X14636730Y-19423912D01*
X14636730Y-19423912D02*
X14636730Y-19347722D01*
X14636730Y-19347722D02*
X14646253Y-19328674D01*
X14646253Y-19328674D02*
X14665301Y-19319150D01*
X14665301Y-19319150D02*
X14703396Y-19319150D01*
X14703396Y-19319150D02*
X14722444Y-19328674D01*
X14722444Y-19328674D02*
X14731968Y-19347722D01*
X14731968Y-19347722D02*
X14731968Y-19366770D01*
X14731968Y-19366770D02*
X14636730Y-19385817D01*
X14808158Y-19442960D02*
X14827206Y-19452484D01*
X14827206Y-19452484D02*
X14865301Y-19452484D01*
X14865301Y-19452484D02*
X14884349Y-19442960D01*
X14884349Y-19442960D02*
X14893872Y-19423912D01*
X14893872Y-19423912D02*
X14893872Y-19414389D01*
X14893872Y-19414389D02*
X14884349Y-19395341D01*
X14884349Y-19395341D02*
X14865301Y-19385817D01*
X14865301Y-19385817D02*
X14836730Y-19385817D01*
X14836730Y-19385817D02*
X14817682Y-19376293D01*
X14817682Y-19376293D02*
X14808158Y-19357246D01*
X14808158Y-19357246D02*
X14808158Y-19347722D01*
X14808158Y-19347722D02*
X14817682Y-19328674D01*
X14817682Y-19328674D02*
X14836730Y-19319150D01*
X14836730Y-19319150D02*
X14865301Y-19319150D01*
X14865301Y-19319150D02*
X14884349Y-19328674D01*
X14960539Y-19528674D02*
X14970063Y-19519150D01*
X14970063Y-19519150D02*
X14989111Y-19490579D01*
X14989111Y-19490579D02*
X14998634Y-19471531D01*
X14998634Y-19471531D02*
X15008158Y-19442960D01*
X15008158Y-19442960D02*
X15017682Y-19395341D01*
X15017682Y-19395341D02*
X15017682Y-19357246D01*
X15017682Y-19357246D02*
X15008158Y-19309627D01*
X15008158Y-19309627D02*
X14998634Y-19281055D01*
X14998634Y-19281055D02*
X14989111Y-19262008D01*
X14989111Y-19262008D02*
X14970063Y-19233436D01*
X14970063Y-19233436D02*
X14960539Y-19223912D01*
D10*
X9905000Y-19580000D02*
X9995000Y-19670000D01*
X9995000Y-19580000D02*
X9905000Y-19670000D01*
X9995000Y-19625000D02*
G75*
G02*
X9905000Y-19625000I-45000J0D01*
G01*
X9905000Y-19625000D02*
G75*
G02*
X9995000Y-19625000I45000J0D01*
G01*
D11*
X10293872Y-19516484D02*
X10312920Y-19516484D01*
X10312920Y-19516484D02*
X10331967Y-19526008D01*
X10331967Y-19526008D02*
X10341491Y-19535531D01*
X10341491Y-19535531D02*
X10351015Y-19554579D01*
X10351015Y-19554579D02*
X10360539Y-19592674D01*
X10360539Y-19592674D02*
X10360539Y-19640293D01*
X10360539Y-19640293D02*
X10351015Y-19678389D01*
X10351015Y-19678389D02*
X10341491Y-19697436D01*
X10341491Y-19697436D02*
X10331967Y-19706960D01*
X10331967Y-19706960D02*
X10312920Y-19716484D01*
X10312920Y-19716484D02*
X10293872Y-19716484D01*
X10293872Y-19716484D02*
X10274824Y-19706960D01*
X10274824Y-19706960D02*
X10265301Y-19697436D01*
X10265301Y-19697436D02*
X10255777Y-19678389D01*
X10255777Y-19678389D02*
X10246253Y-19640293D01*
X10246253Y-19640293D02*
X10246253Y-19592674D01*
X10246253Y-19592674D02*
X10255777Y-19554579D01*
X10255777Y-19554579D02*
X10265301Y-19535531D01*
X10265301Y-19535531D02*
X10274824Y-19526008D01*
X10274824Y-19526008D02*
X10293872Y-19516484D01*
X10446253Y-19697436D02*
X10455777Y-19706960D01*
X10455777Y-19706960D02*
X10446253Y-19716484D01*
X10446253Y-19716484D02*
X10436729Y-19706960D01*
X10436729Y-19706960D02*
X10446253Y-19697436D01*
X10446253Y-19697436D02*
X10446253Y-19716484D01*
X10551015Y-19716484D02*
X10589110Y-19716484D01*
X10589110Y-19716484D02*
X10608158Y-19706960D01*
X10608158Y-19706960D02*
X10617682Y-19697436D01*
X10617682Y-19697436D02*
X10636729Y-19668865D01*
X10636729Y-19668865D02*
X10646253Y-19630770D01*
X10646253Y-19630770D02*
X10646253Y-19554579D01*
X10646253Y-19554579D02*
X10636729Y-19535531D01*
X10636729Y-19535531D02*
X10627205Y-19526008D01*
X10627205Y-19526008D02*
X10608158Y-19516484D01*
X10608158Y-19516484D02*
X10570063Y-19516484D01*
X10570063Y-19516484D02*
X10551015Y-19526008D01*
X10551015Y-19526008D02*
X10541491Y-19535531D01*
X10541491Y-19535531D02*
X10531967Y-19554579D01*
X10531967Y-19554579D02*
X10531967Y-19602198D01*
X10531967Y-19602198D02*
X10541491Y-19621246D01*
X10541491Y-19621246D02*
X10551015Y-19630770D01*
X10551015Y-19630770D02*
X10570063Y-19640293D01*
X10570063Y-19640293D02*
X10608158Y-19640293D01*
X10608158Y-19640293D02*
X10627205Y-19630770D01*
X10627205Y-19630770D02*
X10636729Y-19621246D01*
X10636729Y-19621246D02*
X10646253Y-19602198D01*
X10770063Y-19516484D02*
X10789110Y-19516484D01*
X10789110Y-19516484D02*
X10808158Y-19526008D01*
X10808158Y-19526008D02*
X10817682Y-19535531D01*
X10817682Y-19535531D02*
X10827205Y-19554579D01*
X10827205Y-19554579D02*
X10836729Y-19592674D01*
X10836729Y-19592674D02*
X10836729Y-19640293D01*
X10836729Y-19640293D02*
X10827205Y-19678389D01*
X10827205Y-19678389D02*
X10817682Y-19697436D01*
X10817682Y-19697436D02*
X10808158Y-19706960D01*
X10808158Y-19706960D02*
X10789110Y-19716484D01*
X10789110Y-19716484D02*
X10770063Y-19716484D01*
X10770063Y-19716484D02*
X10751015Y-19706960D01*
X10751015Y-19706960D02*
X10741491Y-19697436D01*
X10741491Y-19697436D02*
X10731967Y-19678389D01*
X10731967Y-19678389D02*
X10722444Y-19640293D01*
X10722444Y-19640293D02*
X10722444Y-19592674D01*
X10722444Y-19592674D02*
X10731967Y-19554579D01*
X10731967Y-19554579D02*
X10741491Y-19535531D01*
X10741491Y-19535531D02*
X10751015Y-19526008D01*
X10751015Y-19526008D02*
X10770063Y-19516484D01*
X10960539Y-19516484D02*
X10979586Y-19516484D01*
X10979586Y-19516484D02*
X10998634Y-19526008D01*
X10998634Y-19526008D02*
X11008158Y-19535531D01*
X11008158Y-19535531D02*
X11017682Y-19554579D01*
X11017682Y-19554579D02*
X11027205Y-19592674D01*
X11027205Y-19592674D02*
X11027205Y-19640293D01*
X11027205Y-19640293D02*
X11017682Y-19678389D01*
X11017682Y-19678389D02*
X11008158Y-19697436D01*
X11008158Y-19697436D02*
X10998634Y-19706960D01*
X10998634Y-19706960D02*
X10979586Y-19716484D01*
X10979586Y-19716484D02*
X10960539Y-19716484D01*
X10960539Y-19716484D02*
X10941491Y-19706960D01*
X10941491Y-19706960D02*
X10931967Y-19697436D01*
X10931967Y-19697436D02*
X10922444Y-19678389D01*
X10922444Y-19678389D02*
X10912920Y-19640293D01*
X10912920Y-19640293D02*
X10912920Y-19592674D01*
X10912920Y-19592674D02*
X10922444Y-19554579D01*
X10922444Y-19554579D02*
X10931967Y-19535531D01*
X10931967Y-19535531D02*
X10941491Y-19526008D01*
X10941491Y-19526008D02*
X10960539Y-19516484D01*
X11112920Y-19716484D02*
X11112920Y-19583150D01*
X11112920Y-19602198D02*
X11122444Y-19592674D01*
X11122444Y-19592674D02*
X11141491Y-19583150D01*
X11141491Y-19583150D02*
X11170063Y-19583150D01*
X11170063Y-19583150D02*
X11189110Y-19592674D01*
X11189110Y-19592674D02*
X11198634Y-19611722D01*
X11198634Y-19611722D02*
X11198634Y-19716484D01*
X11198634Y-19611722D02*
X11208158Y-19592674D01*
X11208158Y-19592674D02*
X11227205Y-19583150D01*
X11227205Y-19583150D02*
X11255777Y-19583150D01*
X11255777Y-19583150D02*
X11274824Y-19592674D01*
X11274824Y-19592674D02*
X11284348Y-19611722D01*
X11284348Y-19611722D02*
X11284348Y-19716484D01*
X11379586Y-19716484D02*
X11379586Y-19583150D01*
X11379586Y-19602198D02*
X11389110Y-19592674D01*
X11389110Y-19592674D02*
X11408158Y-19583150D01*
X11408158Y-19583150D02*
X11436729Y-19583150D01*
X11436729Y-19583150D02*
X11455777Y-19592674D01*
X11455777Y-19592674D02*
X11465301Y-19611722D01*
X11465301Y-19611722D02*
X11465301Y-19716484D01*
X11465301Y-19611722D02*
X11474824Y-19592674D01*
X11474824Y-19592674D02*
X11493872Y-19583150D01*
X11493872Y-19583150D02*
X11522443Y-19583150D01*
X11522443Y-19583150D02*
X11541491Y-19592674D01*
X11541491Y-19592674D02*
X11551015Y-19611722D01*
X11551015Y-19611722D02*
X11551015Y-19716484D01*
X11941491Y-19506960D02*
X11770063Y-19764103D01*
X12198634Y-19516484D02*
X12217682Y-19516484D01*
X12217682Y-19516484D02*
X12236729Y-19526008D01*
X12236729Y-19526008D02*
X12246253Y-19535531D01*
X12246253Y-19535531D02*
X12255777Y-19554579D01*
X12255777Y-19554579D02*
X12265301Y-19592674D01*
X12265301Y-19592674D02*
X12265301Y-19640293D01*
X12265301Y-19640293D02*
X12255777Y-19678389D01*
X12255777Y-19678389D02*
X12246253Y-19697436D01*
X12246253Y-19697436D02*
X12236729Y-19706960D01*
X12236729Y-19706960D02*
X12217682Y-19716484D01*
X12217682Y-19716484D02*
X12198634Y-19716484D01*
X12198634Y-19716484D02*
X12179586Y-19706960D01*
X12179586Y-19706960D02*
X12170063Y-19697436D01*
X12170063Y-19697436D02*
X12160539Y-19678389D01*
X12160539Y-19678389D02*
X12151015Y-19640293D01*
X12151015Y-19640293D02*
X12151015Y-19592674D01*
X12151015Y-19592674D02*
X12160539Y-19554579D01*
X12160539Y-19554579D02*
X12170063Y-19535531D01*
X12170063Y-19535531D02*
X12179586Y-19526008D01*
X12179586Y-19526008D02*
X12198634Y-19516484D01*
X12351015Y-19697436D02*
X12360539Y-19706960D01*
X12360539Y-19706960D02*
X12351015Y-19716484D01*
X12351015Y-19716484D02*
X12341491Y-19706960D01*
X12341491Y-19706960D02*
X12351015Y-19697436D01*
X12351015Y-19697436D02*
X12351015Y-19716484D01*
X12484348Y-19516484D02*
X12503396Y-19516484D01*
X12503396Y-19516484D02*
X12522444Y-19526008D01*
X12522444Y-19526008D02*
X12531967Y-19535531D01*
X12531967Y-19535531D02*
X12541491Y-19554579D01*
X12541491Y-19554579D02*
X12551015Y-19592674D01*
X12551015Y-19592674D02*
X12551015Y-19640293D01*
X12551015Y-19640293D02*
X12541491Y-19678389D01*
X12541491Y-19678389D02*
X12531967Y-19697436D01*
X12531967Y-19697436D02*
X12522444Y-19706960D01*
X12522444Y-19706960D02*
X12503396Y-19716484D01*
X12503396Y-19716484D02*
X12484348Y-19716484D01*
X12484348Y-19716484D02*
X12465301Y-19706960D01*
X12465301Y-19706960D02*
X12455777Y-19697436D01*
X12455777Y-19697436D02*
X12446253Y-19678389D01*
X12446253Y-19678389D02*
X12436729Y-19640293D01*
X12436729Y-19640293D02*
X12436729Y-19592674D01*
X12436729Y-19592674D02*
X12446253Y-19554579D01*
X12446253Y-19554579D02*
X12455777Y-19535531D01*
X12455777Y-19535531D02*
X12465301Y-19526008D01*
X12465301Y-19526008D02*
X12484348Y-19516484D01*
X12617682Y-19516484D02*
X12741491Y-19516484D01*
X12741491Y-19516484D02*
X12674825Y-19592674D01*
X12674825Y-19592674D02*
X12703396Y-19592674D01*
X12703396Y-19592674D02*
X12722444Y-19602198D01*
X12722444Y-19602198D02*
X12731967Y-19611722D01*
X12731967Y-19611722D02*
X12741491Y-19630770D01*
X12741491Y-19630770D02*
X12741491Y-19678389D01*
X12741491Y-19678389D02*
X12731967Y-19697436D01*
X12731967Y-19697436D02*
X12722444Y-19706960D01*
X12722444Y-19706960D02*
X12703396Y-19716484D01*
X12703396Y-19716484D02*
X12646253Y-19716484D01*
X12646253Y-19716484D02*
X12627206Y-19706960D01*
X12627206Y-19706960D02*
X12617682Y-19697436D01*
X12922444Y-19516484D02*
X12827206Y-19516484D01*
X12827206Y-19516484D02*
X12817682Y-19611722D01*
X12817682Y-19611722D02*
X12827206Y-19602198D01*
X12827206Y-19602198D02*
X12846253Y-19592674D01*
X12846253Y-19592674D02*
X12893872Y-19592674D01*
X12893872Y-19592674D02*
X12912920Y-19602198D01*
X12912920Y-19602198D02*
X12922444Y-19611722D01*
X12922444Y-19611722D02*
X12931967Y-19630770D01*
X12931967Y-19630770D02*
X12931967Y-19678389D01*
X12931967Y-19678389D02*
X12922444Y-19697436D01*
X12922444Y-19697436D02*
X12912920Y-19706960D01*
X12912920Y-19706960D02*
X12893872Y-19716484D01*
X12893872Y-19716484D02*
X12846253Y-19716484D01*
X12846253Y-19716484D02*
X12827206Y-19706960D01*
X12827206Y-19706960D02*
X12817682Y-19697436D01*
X13103396Y-19583150D02*
X13103396Y-19716484D01*
X13055777Y-19506960D02*
X13008158Y-19649817D01*
X13008158Y-19649817D02*
X13131967Y-19649817D01*
X13198634Y-19516484D02*
X13198634Y-19554579D01*
X13274825Y-19516484D02*
X13274825Y-19554579D01*
X13570063Y-19792674D02*
X13560539Y-19783150D01*
X13560539Y-19783150D02*
X13541491Y-19754579D01*
X13541491Y-19754579D02*
X13531968Y-19735531D01*
X13531968Y-19735531D02*
X13522444Y-19706960D01*
X13522444Y-19706960D02*
X13512920Y-19659341D01*
X13512920Y-19659341D02*
X13512920Y-19621246D01*
X13512920Y-19621246D02*
X13522444Y-19573627D01*
X13522444Y-19573627D02*
X13531968Y-19545055D01*
X13531968Y-19545055D02*
X13541491Y-19526008D01*
X13541491Y-19526008D02*
X13560539Y-19497436D01*
X13560539Y-19497436D02*
X13570063Y-19487912D01*
X13751015Y-19716484D02*
X13636729Y-19716484D01*
X13693872Y-19716484D02*
X13693872Y-19516484D01*
X13693872Y-19516484D02*
X13674825Y-19545055D01*
X13674825Y-19545055D02*
X13655777Y-19564103D01*
X13655777Y-19564103D02*
X13636729Y-19573627D01*
X13874825Y-19516484D02*
X13893872Y-19516484D01*
X13893872Y-19516484D02*
X13912920Y-19526008D01*
X13912920Y-19526008D02*
X13922444Y-19535531D01*
X13922444Y-19535531D02*
X13931968Y-19554579D01*
X13931968Y-19554579D02*
X13941491Y-19592674D01*
X13941491Y-19592674D02*
X13941491Y-19640293D01*
X13941491Y-19640293D02*
X13931968Y-19678389D01*
X13931968Y-19678389D02*
X13922444Y-19697436D01*
X13922444Y-19697436D02*
X13912920Y-19706960D01*
X13912920Y-19706960D02*
X13893872Y-19716484D01*
X13893872Y-19716484D02*
X13874825Y-19716484D01*
X13874825Y-19716484D02*
X13855777Y-19706960D01*
X13855777Y-19706960D02*
X13846253Y-19697436D01*
X13846253Y-19697436D02*
X13836729Y-19678389D01*
X13836729Y-19678389D02*
X13827206Y-19640293D01*
X13827206Y-19640293D02*
X13827206Y-19592674D01*
X13827206Y-19592674D02*
X13836729Y-19554579D01*
X13836729Y-19554579D02*
X13846253Y-19535531D01*
X13846253Y-19535531D02*
X13855777Y-19526008D01*
X13855777Y-19526008D02*
X13874825Y-19516484D01*
X14179587Y-19716484D02*
X14179587Y-19516484D01*
X14265301Y-19716484D02*
X14265301Y-19611722D01*
X14265301Y-19611722D02*
X14255777Y-19592674D01*
X14255777Y-19592674D02*
X14236730Y-19583150D01*
X14236730Y-19583150D02*
X14208158Y-19583150D01*
X14208158Y-19583150D02*
X14189110Y-19592674D01*
X14189110Y-19592674D02*
X14179587Y-19602198D01*
X14389110Y-19716484D02*
X14370063Y-19706960D01*
X14370063Y-19706960D02*
X14360539Y-19697436D01*
X14360539Y-19697436D02*
X14351015Y-19678389D01*
X14351015Y-19678389D02*
X14351015Y-19621246D01*
X14351015Y-19621246D02*
X14360539Y-19602198D01*
X14360539Y-19602198D02*
X14370063Y-19592674D01*
X14370063Y-19592674D02*
X14389110Y-19583150D01*
X14389110Y-19583150D02*
X14417682Y-19583150D01*
X14417682Y-19583150D02*
X14436730Y-19592674D01*
X14436730Y-19592674D02*
X14446253Y-19602198D01*
X14446253Y-19602198D02*
X14455777Y-19621246D01*
X14455777Y-19621246D02*
X14455777Y-19678389D01*
X14455777Y-19678389D02*
X14446253Y-19697436D01*
X14446253Y-19697436D02*
X14436730Y-19706960D01*
X14436730Y-19706960D02*
X14417682Y-19716484D01*
X14417682Y-19716484D02*
X14389110Y-19716484D01*
X14570063Y-19716484D02*
X14551015Y-19706960D01*
X14551015Y-19706960D02*
X14541491Y-19687912D01*
X14541491Y-19687912D02*
X14541491Y-19516484D01*
X14722444Y-19706960D02*
X14703396Y-19716484D01*
X14703396Y-19716484D02*
X14665301Y-19716484D01*
X14665301Y-19716484D02*
X14646253Y-19706960D01*
X14646253Y-19706960D02*
X14636730Y-19687912D01*
X14636730Y-19687912D02*
X14636730Y-19611722D01*
X14636730Y-19611722D02*
X14646253Y-19592674D01*
X14646253Y-19592674D02*
X14665301Y-19583150D01*
X14665301Y-19583150D02*
X14703396Y-19583150D01*
X14703396Y-19583150D02*
X14722444Y-19592674D01*
X14722444Y-19592674D02*
X14731968Y-19611722D01*
X14731968Y-19611722D02*
X14731968Y-19630770D01*
X14731968Y-19630770D02*
X14636730Y-19649817D01*
X14808158Y-19706960D02*
X14827206Y-19716484D01*
X14827206Y-19716484D02*
X14865301Y-19716484D01*
X14865301Y-19716484D02*
X14884349Y-19706960D01*
X14884349Y-19706960D02*
X14893872Y-19687912D01*
X14893872Y-19687912D02*
X14893872Y-19678389D01*
X14893872Y-19678389D02*
X14884349Y-19659341D01*
X14884349Y-19659341D02*
X14865301Y-19649817D01*
X14865301Y-19649817D02*
X14836730Y-19649817D01*
X14836730Y-19649817D02*
X14817682Y-19640293D01*
X14817682Y-19640293D02*
X14808158Y-19621246D01*
X14808158Y-19621246D02*
X14808158Y-19611722D01*
X14808158Y-19611722D02*
X14817682Y-19592674D01*
X14817682Y-19592674D02*
X14836730Y-19583150D01*
X14836730Y-19583150D02*
X14865301Y-19583150D01*
X14865301Y-19583150D02*
X14884349Y-19592674D01*
X14960539Y-19792674D02*
X14970063Y-19783150D01*
X14970063Y-19783150D02*
X14989111Y-19754579D01*
X14989111Y-19754579D02*
X14998634Y-19735531D01*
X14998634Y-19735531D02*
X15008158Y-19706960D01*
X15008158Y-19706960D02*
X15017682Y-19659341D01*
X15017682Y-19659341D02*
X15017682Y-19621246D01*
X15017682Y-19621246D02*
X15008158Y-19573627D01*
X15008158Y-19573627D02*
X14998634Y-19545055D01*
X14998634Y-19545055D02*
X14989111Y-19526008D01*
X14989111Y-19526008D02*
X14970063Y-19497436D01*
X14970063Y-19497436D02*
X14960539Y-19487912D01*
D10*
X9895000Y-19839000D02*
X9995000Y-19939000D01*
X9995000Y-19839000D02*
X9895000Y-19939000D01*
X9945000Y-19839000D02*
X9945000Y-19939000D01*
X9895000Y-19889000D02*
X9995000Y-19889000D01*
D11*
X10360539Y-19980484D02*
X10246253Y-19980484D01*
X10303396Y-19980484D02*
X10303396Y-19780484D01*
X10303396Y-19780484D02*
X10284348Y-19809055D01*
X10284348Y-19809055D02*
X10265301Y-19828103D01*
X10265301Y-19828103D02*
X10246253Y-19837627D01*
X10446253Y-19961436D02*
X10455777Y-19970960D01*
X10455777Y-19970960D02*
X10446253Y-19980484D01*
X10446253Y-19980484D02*
X10436729Y-19970960D01*
X10436729Y-19970960D02*
X10446253Y-19961436D01*
X10446253Y-19961436D02*
X10446253Y-19980484D01*
X10579586Y-19780484D02*
X10598634Y-19780484D01*
X10598634Y-19780484D02*
X10617682Y-19790008D01*
X10617682Y-19790008D02*
X10627205Y-19799531D01*
X10627205Y-19799531D02*
X10636729Y-19818579D01*
X10636729Y-19818579D02*
X10646253Y-19856674D01*
X10646253Y-19856674D02*
X10646253Y-19904293D01*
X10646253Y-19904293D02*
X10636729Y-19942389D01*
X10636729Y-19942389D02*
X10627205Y-19961436D01*
X10627205Y-19961436D02*
X10617682Y-19970960D01*
X10617682Y-19970960D02*
X10598634Y-19980484D01*
X10598634Y-19980484D02*
X10579586Y-19980484D01*
X10579586Y-19980484D02*
X10560539Y-19970960D01*
X10560539Y-19970960D02*
X10551015Y-19961436D01*
X10551015Y-19961436D02*
X10541491Y-19942389D01*
X10541491Y-19942389D02*
X10531967Y-19904293D01*
X10531967Y-19904293D02*
X10531967Y-19856674D01*
X10531967Y-19856674D02*
X10541491Y-19818579D01*
X10541491Y-19818579D02*
X10551015Y-19799531D01*
X10551015Y-19799531D02*
X10560539Y-19790008D01*
X10560539Y-19790008D02*
X10579586Y-19780484D01*
X10770063Y-19780484D02*
X10789110Y-19780484D01*
X10789110Y-19780484D02*
X10808158Y-19790008D01*
X10808158Y-19790008D02*
X10817682Y-19799531D01*
X10817682Y-19799531D02*
X10827205Y-19818579D01*
X10827205Y-19818579D02*
X10836729Y-19856674D01*
X10836729Y-19856674D02*
X10836729Y-19904293D01*
X10836729Y-19904293D02*
X10827205Y-19942389D01*
X10827205Y-19942389D02*
X10817682Y-19961436D01*
X10817682Y-19961436D02*
X10808158Y-19970960D01*
X10808158Y-19970960D02*
X10789110Y-19980484D01*
X10789110Y-19980484D02*
X10770063Y-19980484D01*
X10770063Y-19980484D02*
X10751015Y-19970960D01*
X10751015Y-19970960D02*
X10741491Y-19961436D01*
X10741491Y-19961436D02*
X10731967Y-19942389D01*
X10731967Y-19942389D02*
X10722444Y-19904293D01*
X10722444Y-19904293D02*
X10722444Y-19856674D01*
X10722444Y-19856674D02*
X10731967Y-19818579D01*
X10731967Y-19818579D02*
X10741491Y-19799531D01*
X10741491Y-19799531D02*
X10751015Y-19790008D01*
X10751015Y-19790008D02*
X10770063Y-19780484D01*
X10960539Y-19780484D02*
X10979586Y-19780484D01*
X10979586Y-19780484D02*
X10998634Y-19790008D01*
X10998634Y-19790008D02*
X11008158Y-19799531D01*
X11008158Y-19799531D02*
X11017682Y-19818579D01*
X11017682Y-19818579D02*
X11027205Y-19856674D01*
X11027205Y-19856674D02*
X11027205Y-19904293D01*
X11027205Y-19904293D02*
X11017682Y-19942389D01*
X11017682Y-19942389D02*
X11008158Y-19961436D01*
X11008158Y-19961436D02*
X10998634Y-19970960D01*
X10998634Y-19970960D02*
X10979586Y-19980484D01*
X10979586Y-19980484D02*
X10960539Y-19980484D01*
X10960539Y-19980484D02*
X10941491Y-19970960D01*
X10941491Y-19970960D02*
X10931967Y-19961436D01*
X10931967Y-19961436D02*
X10922444Y-19942389D01*
X10922444Y-19942389D02*
X10912920Y-19904293D01*
X10912920Y-19904293D02*
X10912920Y-19856674D01*
X10912920Y-19856674D02*
X10922444Y-19818579D01*
X10922444Y-19818579D02*
X10931967Y-19799531D01*
X10931967Y-19799531D02*
X10941491Y-19790008D01*
X10941491Y-19790008D02*
X10960539Y-19780484D01*
X11112920Y-19980484D02*
X11112920Y-19847150D01*
X11112920Y-19866198D02*
X11122444Y-19856674D01*
X11122444Y-19856674D02*
X11141491Y-19847150D01*
X11141491Y-19847150D02*
X11170063Y-19847150D01*
X11170063Y-19847150D02*
X11189110Y-19856674D01*
X11189110Y-19856674D02*
X11198634Y-19875722D01*
X11198634Y-19875722D02*
X11198634Y-19980484D01*
X11198634Y-19875722D02*
X11208158Y-19856674D01*
X11208158Y-19856674D02*
X11227205Y-19847150D01*
X11227205Y-19847150D02*
X11255777Y-19847150D01*
X11255777Y-19847150D02*
X11274824Y-19856674D01*
X11274824Y-19856674D02*
X11284348Y-19875722D01*
X11284348Y-19875722D02*
X11284348Y-19980484D01*
X11379586Y-19980484D02*
X11379586Y-19847150D01*
X11379586Y-19866198D02*
X11389110Y-19856674D01*
X11389110Y-19856674D02*
X11408158Y-19847150D01*
X11408158Y-19847150D02*
X11436729Y-19847150D01*
X11436729Y-19847150D02*
X11455777Y-19856674D01*
X11455777Y-19856674D02*
X11465301Y-19875722D01*
X11465301Y-19875722D02*
X11465301Y-19980484D01*
X11465301Y-19875722D02*
X11474824Y-19856674D01*
X11474824Y-19856674D02*
X11493872Y-19847150D01*
X11493872Y-19847150D02*
X11522443Y-19847150D01*
X11522443Y-19847150D02*
X11541491Y-19856674D01*
X11541491Y-19856674D02*
X11551015Y-19875722D01*
X11551015Y-19875722D02*
X11551015Y-19980484D01*
X11941491Y-19770960D02*
X11770063Y-20028103D01*
X12198634Y-19780484D02*
X12217682Y-19780484D01*
X12217682Y-19780484D02*
X12236729Y-19790008D01*
X12236729Y-19790008D02*
X12246253Y-19799531D01*
X12246253Y-19799531D02*
X12255777Y-19818579D01*
X12255777Y-19818579D02*
X12265301Y-19856674D01*
X12265301Y-19856674D02*
X12265301Y-19904293D01*
X12265301Y-19904293D02*
X12255777Y-19942389D01*
X12255777Y-19942389D02*
X12246253Y-19961436D01*
X12246253Y-19961436D02*
X12236729Y-19970960D01*
X12236729Y-19970960D02*
X12217682Y-19980484D01*
X12217682Y-19980484D02*
X12198634Y-19980484D01*
X12198634Y-19980484D02*
X12179586Y-19970960D01*
X12179586Y-19970960D02*
X12170063Y-19961436D01*
X12170063Y-19961436D02*
X12160539Y-19942389D01*
X12160539Y-19942389D02*
X12151015Y-19904293D01*
X12151015Y-19904293D02*
X12151015Y-19856674D01*
X12151015Y-19856674D02*
X12160539Y-19818579D01*
X12160539Y-19818579D02*
X12170063Y-19799531D01*
X12170063Y-19799531D02*
X12179586Y-19790008D01*
X12179586Y-19790008D02*
X12198634Y-19780484D01*
X12351015Y-19961436D02*
X12360539Y-19970960D01*
X12360539Y-19970960D02*
X12351015Y-19980484D01*
X12351015Y-19980484D02*
X12341491Y-19970960D01*
X12341491Y-19970960D02*
X12351015Y-19961436D01*
X12351015Y-19961436D02*
X12351015Y-19980484D01*
X12484348Y-19780484D02*
X12503396Y-19780484D01*
X12503396Y-19780484D02*
X12522444Y-19790008D01*
X12522444Y-19790008D02*
X12531967Y-19799531D01*
X12531967Y-19799531D02*
X12541491Y-19818579D01*
X12541491Y-19818579D02*
X12551015Y-19856674D01*
X12551015Y-19856674D02*
X12551015Y-19904293D01*
X12551015Y-19904293D02*
X12541491Y-19942389D01*
X12541491Y-19942389D02*
X12531967Y-19961436D01*
X12531967Y-19961436D02*
X12522444Y-19970960D01*
X12522444Y-19970960D02*
X12503396Y-19980484D01*
X12503396Y-19980484D02*
X12484348Y-19980484D01*
X12484348Y-19980484D02*
X12465301Y-19970960D01*
X12465301Y-19970960D02*
X12455777Y-19961436D01*
X12455777Y-19961436D02*
X12446253Y-19942389D01*
X12446253Y-19942389D02*
X12436729Y-19904293D01*
X12436729Y-19904293D02*
X12436729Y-19856674D01*
X12436729Y-19856674D02*
X12446253Y-19818579D01*
X12446253Y-19818579D02*
X12455777Y-19799531D01*
X12455777Y-19799531D02*
X12465301Y-19790008D01*
X12465301Y-19790008D02*
X12484348Y-19780484D01*
X12617682Y-19780484D02*
X12741491Y-19780484D01*
X12741491Y-19780484D02*
X12674825Y-19856674D01*
X12674825Y-19856674D02*
X12703396Y-19856674D01*
X12703396Y-19856674D02*
X12722444Y-19866198D01*
X12722444Y-19866198D02*
X12731967Y-19875722D01*
X12731967Y-19875722D02*
X12741491Y-19894770D01*
X12741491Y-19894770D02*
X12741491Y-19942389D01*
X12741491Y-19942389D02*
X12731967Y-19961436D01*
X12731967Y-19961436D02*
X12722444Y-19970960D01*
X12722444Y-19970960D02*
X12703396Y-19980484D01*
X12703396Y-19980484D02*
X12646253Y-19980484D01*
X12646253Y-19980484D02*
X12627206Y-19970960D01*
X12627206Y-19970960D02*
X12617682Y-19961436D01*
X12836729Y-19980484D02*
X12874825Y-19980484D01*
X12874825Y-19980484D02*
X12893872Y-19970960D01*
X12893872Y-19970960D02*
X12903396Y-19961436D01*
X12903396Y-19961436D02*
X12922444Y-19932865D01*
X12922444Y-19932865D02*
X12931967Y-19894770D01*
X12931967Y-19894770D02*
X12931967Y-19818579D01*
X12931967Y-19818579D02*
X12922444Y-19799531D01*
X12922444Y-19799531D02*
X12912920Y-19790008D01*
X12912920Y-19790008D02*
X12893872Y-19780484D01*
X12893872Y-19780484D02*
X12855777Y-19780484D01*
X12855777Y-19780484D02*
X12836729Y-19790008D01*
X12836729Y-19790008D02*
X12827206Y-19799531D01*
X12827206Y-19799531D02*
X12817682Y-19818579D01*
X12817682Y-19818579D02*
X12817682Y-19866198D01*
X12817682Y-19866198D02*
X12827206Y-19885246D01*
X12827206Y-19885246D02*
X12836729Y-19894770D01*
X12836729Y-19894770D02*
X12855777Y-19904293D01*
X12855777Y-19904293D02*
X12893872Y-19904293D01*
X12893872Y-19904293D02*
X12912920Y-19894770D01*
X12912920Y-19894770D02*
X12922444Y-19885246D01*
X12922444Y-19885246D02*
X12931967Y-19866198D01*
X13103396Y-19847150D02*
X13103396Y-19980484D01*
X13055777Y-19770960D02*
X13008158Y-19913817D01*
X13008158Y-19913817D02*
X13131967Y-19913817D01*
X13198634Y-19780484D02*
X13198634Y-19818579D01*
X13274825Y-19780484D02*
X13274825Y-19818579D01*
X13570063Y-20056674D02*
X13560539Y-20047150D01*
X13560539Y-20047150D02*
X13541491Y-20018579D01*
X13541491Y-20018579D02*
X13531968Y-19999531D01*
X13531968Y-19999531D02*
X13522444Y-19970960D01*
X13522444Y-19970960D02*
X13512920Y-19923341D01*
X13512920Y-19923341D02*
X13512920Y-19885246D01*
X13512920Y-19885246D02*
X13522444Y-19837627D01*
X13522444Y-19837627D02*
X13531968Y-19809055D01*
X13531968Y-19809055D02*
X13541491Y-19790008D01*
X13541491Y-19790008D02*
X13560539Y-19761436D01*
X13560539Y-19761436D02*
X13570063Y-19751912D01*
X13751015Y-19980484D02*
X13636729Y-19980484D01*
X13693872Y-19980484D02*
X13693872Y-19780484D01*
X13693872Y-19780484D02*
X13674825Y-19809055D01*
X13674825Y-19809055D02*
X13655777Y-19828103D01*
X13655777Y-19828103D02*
X13636729Y-19837627D01*
X13817682Y-19780484D02*
X13951015Y-19780484D01*
X13951015Y-19780484D02*
X13865301Y-19980484D01*
X14179587Y-19980484D02*
X14179587Y-19780484D01*
X14265301Y-19980484D02*
X14265301Y-19875722D01*
X14265301Y-19875722D02*
X14255777Y-19856674D01*
X14255777Y-19856674D02*
X14236730Y-19847150D01*
X14236730Y-19847150D02*
X14208158Y-19847150D01*
X14208158Y-19847150D02*
X14189110Y-19856674D01*
X14189110Y-19856674D02*
X14179587Y-19866198D01*
X14389110Y-19980484D02*
X14370063Y-19970960D01*
X14370063Y-19970960D02*
X14360539Y-19961436D01*
X14360539Y-19961436D02*
X14351015Y-19942389D01*
X14351015Y-19942389D02*
X14351015Y-19885246D01*
X14351015Y-19885246D02*
X14360539Y-19866198D01*
X14360539Y-19866198D02*
X14370063Y-19856674D01*
X14370063Y-19856674D02*
X14389110Y-19847150D01*
X14389110Y-19847150D02*
X14417682Y-19847150D01*
X14417682Y-19847150D02*
X14436730Y-19856674D01*
X14436730Y-19856674D02*
X14446253Y-19866198D01*
X14446253Y-19866198D02*
X14455777Y-19885246D01*
X14455777Y-19885246D02*
X14455777Y-19942389D01*
X14455777Y-19942389D02*
X14446253Y-19961436D01*
X14446253Y-19961436D02*
X14436730Y-19970960D01*
X14436730Y-19970960D02*
X14417682Y-19980484D01*
X14417682Y-19980484D02*
X14389110Y-19980484D01*
X14570063Y-19980484D02*
X14551015Y-19970960D01*
X14551015Y-19970960D02*
X14541491Y-19951912D01*
X14541491Y-19951912D02*
X14541491Y-19780484D01*
X14722444Y-19970960D02*
X14703396Y-19980484D01*
X14703396Y-19980484D02*
X14665301Y-19980484D01*
X14665301Y-19980484D02*
X14646253Y-19970960D01*
X14646253Y-19970960D02*
X14636730Y-19951912D01*
X14636730Y-19951912D02*
X14636730Y-19875722D01*
X14636730Y-19875722D02*
X14646253Y-19856674D01*
X14646253Y-19856674D02*
X14665301Y-19847150D01*
X14665301Y-19847150D02*
X14703396Y-19847150D01*
X14703396Y-19847150D02*
X14722444Y-19856674D01*
X14722444Y-19856674D02*
X14731968Y-19875722D01*
X14731968Y-19875722D02*
X14731968Y-19894770D01*
X14731968Y-19894770D02*
X14636730Y-19913817D01*
X14808158Y-19970960D02*
X14827206Y-19980484D01*
X14827206Y-19980484D02*
X14865301Y-19980484D01*
X14865301Y-19980484D02*
X14884349Y-19970960D01*
X14884349Y-19970960D02*
X14893872Y-19951912D01*
X14893872Y-19951912D02*
X14893872Y-19942389D01*
X14893872Y-19942389D02*
X14884349Y-19923341D01*
X14884349Y-19923341D02*
X14865301Y-19913817D01*
X14865301Y-19913817D02*
X14836730Y-19913817D01*
X14836730Y-19913817D02*
X14817682Y-19904293D01*
X14817682Y-19904293D02*
X14808158Y-19885246D01*
X14808158Y-19885246D02*
X14808158Y-19875722D01*
X14808158Y-19875722D02*
X14817682Y-19856674D01*
X14817682Y-19856674D02*
X14836730Y-19847150D01*
X14836730Y-19847150D02*
X14865301Y-19847150D01*
X14865301Y-19847150D02*
X14884349Y-19856674D01*
X14960539Y-20056674D02*
X14970063Y-20047150D01*
X14970063Y-20047150D02*
X14989111Y-20018579D01*
X14989111Y-20018579D02*
X14998634Y-19999531D01*
X14998634Y-19999531D02*
X15008158Y-19970960D01*
X15008158Y-19970960D02*
X15017682Y-19923341D01*
X15017682Y-19923341D02*
X15017682Y-19885246D01*
X15017682Y-19885246D02*
X15008158Y-19837627D01*
X15008158Y-19837627D02*
X14998634Y-19809055D01*
X14998634Y-19809055D02*
X14989111Y-19790008D01*
X14989111Y-19790008D02*
X14970063Y-19761436D01*
X14970063Y-19761436D02*
X14960539Y-19751912D01*
D12*
X9890000Y-20100500D02*
X9995000Y-20205500D01*
X9995000Y-20100500D02*
X9890000Y-20205500D01*
X9979624Y-20190124D02*
X9979624Y-20115877D01*
X9905377Y-20115877D01*
X9905377Y-20190124D01*
X9979624Y-20190124D01*
D11*
X10360539Y-20244484D02*
X10246253Y-20244484D01*
X10303396Y-20244484D02*
X10303396Y-20044484D01*
X10303396Y-20044484D02*
X10284348Y-20073055D01*
X10284348Y-20073055D02*
X10265301Y-20092103D01*
X10265301Y-20092103D02*
X10246253Y-20101627D01*
X10446253Y-20225436D02*
X10455777Y-20234960D01*
X10455777Y-20234960D02*
X10446253Y-20244484D01*
X10446253Y-20244484D02*
X10436729Y-20234960D01*
X10436729Y-20234960D02*
X10446253Y-20225436D01*
X10446253Y-20225436D02*
X10446253Y-20244484D01*
X10579586Y-20044484D02*
X10598634Y-20044484D01*
X10598634Y-20044484D02*
X10617682Y-20054008D01*
X10617682Y-20054008D02*
X10627205Y-20063531D01*
X10627205Y-20063531D02*
X10636729Y-20082579D01*
X10636729Y-20082579D02*
X10646253Y-20120674D01*
X10646253Y-20120674D02*
X10646253Y-20168293D01*
X10646253Y-20168293D02*
X10636729Y-20206389D01*
X10636729Y-20206389D02*
X10627205Y-20225436D01*
X10627205Y-20225436D02*
X10617682Y-20234960D01*
X10617682Y-20234960D02*
X10598634Y-20244484D01*
X10598634Y-20244484D02*
X10579586Y-20244484D01*
X10579586Y-20244484D02*
X10560539Y-20234960D01*
X10560539Y-20234960D02*
X10551015Y-20225436D01*
X10551015Y-20225436D02*
X10541491Y-20206389D01*
X10541491Y-20206389D02*
X10531967Y-20168293D01*
X10531967Y-20168293D02*
X10531967Y-20120674D01*
X10531967Y-20120674D02*
X10541491Y-20082579D01*
X10541491Y-20082579D02*
X10551015Y-20063531D01*
X10551015Y-20063531D02*
X10560539Y-20054008D01*
X10560539Y-20054008D02*
X10579586Y-20044484D01*
X10827205Y-20044484D02*
X10731967Y-20044484D01*
X10731967Y-20044484D02*
X10722444Y-20139722D01*
X10722444Y-20139722D02*
X10731967Y-20130198D01*
X10731967Y-20130198D02*
X10751015Y-20120674D01*
X10751015Y-20120674D02*
X10798634Y-20120674D01*
X10798634Y-20120674D02*
X10817682Y-20130198D01*
X10817682Y-20130198D02*
X10827205Y-20139722D01*
X10827205Y-20139722D02*
X10836729Y-20158770D01*
X10836729Y-20158770D02*
X10836729Y-20206389D01*
X10836729Y-20206389D02*
X10827205Y-20225436D01*
X10827205Y-20225436D02*
X10817682Y-20234960D01*
X10817682Y-20234960D02*
X10798634Y-20244484D01*
X10798634Y-20244484D02*
X10751015Y-20244484D01*
X10751015Y-20244484D02*
X10731967Y-20234960D01*
X10731967Y-20234960D02*
X10722444Y-20225436D01*
X10960539Y-20044484D02*
X10979586Y-20044484D01*
X10979586Y-20044484D02*
X10998634Y-20054008D01*
X10998634Y-20054008D02*
X11008158Y-20063531D01*
X11008158Y-20063531D02*
X11017682Y-20082579D01*
X11017682Y-20082579D02*
X11027205Y-20120674D01*
X11027205Y-20120674D02*
X11027205Y-20168293D01*
X11027205Y-20168293D02*
X11017682Y-20206389D01*
X11017682Y-20206389D02*
X11008158Y-20225436D01*
X11008158Y-20225436D02*
X10998634Y-20234960D01*
X10998634Y-20234960D02*
X10979586Y-20244484D01*
X10979586Y-20244484D02*
X10960539Y-20244484D01*
X10960539Y-20244484D02*
X10941491Y-20234960D01*
X10941491Y-20234960D02*
X10931967Y-20225436D01*
X10931967Y-20225436D02*
X10922444Y-20206389D01*
X10922444Y-20206389D02*
X10912920Y-20168293D01*
X10912920Y-20168293D02*
X10912920Y-20120674D01*
X10912920Y-20120674D02*
X10922444Y-20082579D01*
X10922444Y-20082579D02*
X10931967Y-20063531D01*
X10931967Y-20063531D02*
X10941491Y-20054008D01*
X10941491Y-20054008D02*
X10960539Y-20044484D01*
X11112920Y-20244484D02*
X11112920Y-20111150D01*
X11112920Y-20130198D02*
X11122444Y-20120674D01*
X11122444Y-20120674D02*
X11141491Y-20111150D01*
X11141491Y-20111150D02*
X11170063Y-20111150D01*
X11170063Y-20111150D02*
X11189110Y-20120674D01*
X11189110Y-20120674D02*
X11198634Y-20139722D01*
X11198634Y-20139722D02*
X11198634Y-20244484D01*
X11198634Y-20139722D02*
X11208158Y-20120674D01*
X11208158Y-20120674D02*
X11227205Y-20111150D01*
X11227205Y-20111150D02*
X11255777Y-20111150D01*
X11255777Y-20111150D02*
X11274824Y-20120674D01*
X11274824Y-20120674D02*
X11284348Y-20139722D01*
X11284348Y-20139722D02*
X11284348Y-20244484D01*
X11379586Y-20244484D02*
X11379586Y-20111150D01*
X11379586Y-20130198D02*
X11389110Y-20120674D01*
X11389110Y-20120674D02*
X11408158Y-20111150D01*
X11408158Y-20111150D02*
X11436729Y-20111150D01*
X11436729Y-20111150D02*
X11455777Y-20120674D01*
X11455777Y-20120674D02*
X11465301Y-20139722D01*
X11465301Y-20139722D02*
X11465301Y-20244484D01*
X11465301Y-20139722D02*
X11474824Y-20120674D01*
X11474824Y-20120674D02*
X11493872Y-20111150D01*
X11493872Y-20111150D02*
X11522443Y-20111150D01*
X11522443Y-20111150D02*
X11541491Y-20120674D01*
X11541491Y-20120674D02*
X11551015Y-20139722D01*
X11551015Y-20139722D02*
X11551015Y-20244484D01*
X11941491Y-20034960D02*
X11770063Y-20292103D01*
X12198634Y-20044484D02*
X12217682Y-20044484D01*
X12217682Y-20044484D02*
X12236729Y-20054008D01*
X12236729Y-20054008D02*
X12246253Y-20063531D01*
X12246253Y-20063531D02*
X12255777Y-20082579D01*
X12255777Y-20082579D02*
X12265301Y-20120674D01*
X12265301Y-20120674D02*
X12265301Y-20168293D01*
X12265301Y-20168293D02*
X12255777Y-20206389D01*
X12255777Y-20206389D02*
X12246253Y-20225436D01*
X12246253Y-20225436D02*
X12236729Y-20234960D01*
X12236729Y-20234960D02*
X12217682Y-20244484D01*
X12217682Y-20244484D02*
X12198634Y-20244484D01*
X12198634Y-20244484D02*
X12179586Y-20234960D01*
X12179586Y-20234960D02*
X12170063Y-20225436D01*
X12170063Y-20225436D02*
X12160539Y-20206389D01*
X12160539Y-20206389D02*
X12151015Y-20168293D01*
X12151015Y-20168293D02*
X12151015Y-20120674D01*
X12151015Y-20120674D02*
X12160539Y-20082579D01*
X12160539Y-20082579D02*
X12170063Y-20063531D01*
X12170063Y-20063531D02*
X12179586Y-20054008D01*
X12179586Y-20054008D02*
X12198634Y-20044484D01*
X12351015Y-20225436D02*
X12360539Y-20234960D01*
X12360539Y-20234960D02*
X12351015Y-20244484D01*
X12351015Y-20244484D02*
X12341491Y-20234960D01*
X12341491Y-20234960D02*
X12351015Y-20225436D01*
X12351015Y-20225436D02*
X12351015Y-20244484D01*
X12484348Y-20044484D02*
X12503396Y-20044484D01*
X12503396Y-20044484D02*
X12522444Y-20054008D01*
X12522444Y-20054008D02*
X12531967Y-20063531D01*
X12531967Y-20063531D02*
X12541491Y-20082579D01*
X12541491Y-20082579D02*
X12551015Y-20120674D01*
X12551015Y-20120674D02*
X12551015Y-20168293D01*
X12551015Y-20168293D02*
X12541491Y-20206389D01*
X12541491Y-20206389D02*
X12531967Y-20225436D01*
X12531967Y-20225436D02*
X12522444Y-20234960D01*
X12522444Y-20234960D02*
X12503396Y-20244484D01*
X12503396Y-20244484D02*
X12484348Y-20244484D01*
X12484348Y-20244484D02*
X12465301Y-20234960D01*
X12465301Y-20234960D02*
X12455777Y-20225436D01*
X12455777Y-20225436D02*
X12446253Y-20206389D01*
X12446253Y-20206389D02*
X12436729Y-20168293D01*
X12436729Y-20168293D02*
X12436729Y-20120674D01*
X12436729Y-20120674D02*
X12446253Y-20082579D01*
X12446253Y-20082579D02*
X12455777Y-20063531D01*
X12455777Y-20063531D02*
X12465301Y-20054008D01*
X12465301Y-20054008D02*
X12484348Y-20044484D01*
X12722444Y-20111150D02*
X12722444Y-20244484D01*
X12674825Y-20034960D02*
X12627206Y-20177817D01*
X12627206Y-20177817D02*
X12751015Y-20177817D01*
X12931967Y-20244484D02*
X12817682Y-20244484D01*
X12874825Y-20244484D02*
X12874825Y-20044484D01*
X12874825Y-20044484D02*
X12855777Y-20073055D01*
X12855777Y-20073055D02*
X12836729Y-20092103D01*
X12836729Y-20092103D02*
X12817682Y-20101627D01*
X12998634Y-20044484D02*
X13122444Y-20044484D01*
X13122444Y-20044484D02*
X13055777Y-20120674D01*
X13055777Y-20120674D02*
X13084348Y-20120674D01*
X13084348Y-20120674D02*
X13103396Y-20130198D01*
X13103396Y-20130198D02*
X13112920Y-20139722D01*
X13112920Y-20139722D02*
X13122444Y-20158770D01*
X13122444Y-20158770D02*
X13122444Y-20206389D01*
X13122444Y-20206389D02*
X13112920Y-20225436D01*
X13112920Y-20225436D02*
X13103396Y-20234960D01*
X13103396Y-20234960D02*
X13084348Y-20244484D01*
X13084348Y-20244484D02*
X13027206Y-20244484D01*
X13027206Y-20244484D02*
X13008158Y-20234960D01*
X13008158Y-20234960D02*
X12998634Y-20225436D01*
X13198634Y-20044484D02*
X13198634Y-20082579D01*
X13274825Y-20044484D02*
X13274825Y-20082579D01*
X13570063Y-20320674D02*
X13560539Y-20311150D01*
X13560539Y-20311150D02*
X13541491Y-20282579D01*
X13541491Y-20282579D02*
X13531968Y-20263531D01*
X13531968Y-20263531D02*
X13522444Y-20234960D01*
X13522444Y-20234960D02*
X13512920Y-20187341D01*
X13512920Y-20187341D02*
X13512920Y-20149246D01*
X13512920Y-20149246D02*
X13522444Y-20101627D01*
X13522444Y-20101627D02*
X13531968Y-20073055D01*
X13531968Y-20073055D02*
X13541491Y-20054008D01*
X13541491Y-20054008D02*
X13560539Y-20025436D01*
X13560539Y-20025436D02*
X13570063Y-20015912D01*
X13731968Y-20111150D02*
X13731968Y-20244484D01*
X13684348Y-20034960D02*
X13636729Y-20177817D01*
X13636729Y-20177817D02*
X13760539Y-20177817D01*
X13989110Y-20244484D02*
X13989110Y-20044484D01*
X14074825Y-20244484D02*
X14074825Y-20139722D01*
X14074825Y-20139722D02*
X14065301Y-20120674D01*
X14065301Y-20120674D02*
X14046253Y-20111150D01*
X14046253Y-20111150D02*
X14017682Y-20111150D01*
X14017682Y-20111150D02*
X13998634Y-20120674D01*
X13998634Y-20120674D02*
X13989110Y-20130198D01*
X14198634Y-20244484D02*
X14179587Y-20234960D01*
X14179587Y-20234960D02*
X14170063Y-20225436D01*
X14170063Y-20225436D02*
X14160539Y-20206389D01*
X14160539Y-20206389D02*
X14160539Y-20149246D01*
X14160539Y-20149246D02*
X14170063Y-20130198D01*
X14170063Y-20130198D02*
X14179587Y-20120674D01*
X14179587Y-20120674D02*
X14198634Y-20111150D01*
X14198634Y-20111150D02*
X14227206Y-20111150D01*
X14227206Y-20111150D02*
X14246253Y-20120674D01*
X14246253Y-20120674D02*
X14255777Y-20130198D01*
X14255777Y-20130198D02*
X14265301Y-20149246D01*
X14265301Y-20149246D02*
X14265301Y-20206389D01*
X14265301Y-20206389D02*
X14255777Y-20225436D01*
X14255777Y-20225436D02*
X14246253Y-20234960D01*
X14246253Y-20234960D02*
X14227206Y-20244484D01*
X14227206Y-20244484D02*
X14198634Y-20244484D01*
X14379587Y-20244484D02*
X14360539Y-20234960D01*
X14360539Y-20234960D02*
X14351015Y-20215912D01*
X14351015Y-20215912D02*
X14351015Y-20044484D01*
X14531968Y-20234960D02*
X14512920Y-20244484D01*
X14512920Y-20244484D02*
X14474825Y-20244484D01*
X14474825Y-20244484D02*
X14455777Y-20234960D01*
X14455777Y-20234960D02*
X14446253Y-20215912D01*
X14446253Y-20215912D02*
X14446253Y-20139722D01*
X14446253Y-20139722D02*
X14455777Y-20120674D01*
X14455777Y-20120674D02*
X14474825Y-20111150D01*
X14474825Y-20111150D02*
X14512920Y-20111150D01*
X14512920Y-20111150D02*
X14531968Y-20120674D01*
X14531968Y-20120674D02*
X14541491Y-20139722D01*
X14541491Y-20139722D02*
X14541491Y-20158770D01*
X14541491Y-20158770D02*
X14446253Y-20177817D01*
X14617682Y-20234960D02*
X14636730Y-20244484D01*
X14636730Y-20244484D02*
X14674825Y-20244484D01*
X14674825Y-20244484D02*
X14693872Y-20234960D01*
X14693872Y-20234960D02*
X14703396Y-20215912D01*
X14703396Y-20215912D02*
X14703396Y-20206389D01*
X14703396Y-20206389D02*
X14693872Y-20187341D01*
X14693872Y-20187341D02*
X14674825Y-20177817D01*
X14674825Y-20177817D02*
X14646253Y-20177817D01*
X14646253Y-20177817D02*
X14627206Y-20168293D01*
X14627206Y-20168293D02*
X14617682Y-20149246D01*
X14617682Y-20149246D02*
X14617682Y-20139722D01*
X14617682Y-20139722D02*
X14627206Y-20120674D01*
X14627206Y-20120674D02*
X14646253Y-20111150D01*
X14646253Y-20111150D02*
X14674825Y-20111150D01*
X14674825Y-20111150D02*
X14693872Y-20120674D01*
X14770063Y-20320674D02*
X14779587Y-20311150D01*
X14779587Y-20311150D02*
X14798634Y-20282579D01*
X14798634Y-20282579D02*
X14808158Y-20263531D01*
X14808158Y-20263531D02*
X14817682Y-20234960D01*
X14817682Y-20234960D02*
X14827206Y-20187341D01*
X14827206Y-20187341D02*
X14827206Y-20149246D01*
X14827206Y-20149246D02*
X14817682Y-20101627D01*
X14817682Y-20101627D02*
X14808158Y-20073055D01*
X14808158Y-20073055D02*
X14798634Y-20054008D01*
X14798634Y-20054008D02*
X14779587Y-20025436D01*
X14779587Y-20025436D02*
X14770063Y-20015912D01*
D13*
X9885000Y-20362000D02*
X9995000Y-20472000D01*
X9995000Y-20362000D02*
X9885000Y-20472000D01*
X9940000Y-20472000D02*
X9995000Y-20417000D01*
X9940000Y-20362000D01*
X9885000Y-20417000D01*
X9940000Y-20472000D01*
D11*
X10360539Y-20508484D02*
X10246253Y-20508484D01*
X10303396Y-20508484D02*
X10303396Y-20308484D01*
X10303396Y-20308484D02*
X10284348Y-20337055D01*
X10284348Y-20337055D02*
X10265301Y-20356103D01*
X10265301Y-20356103D02*
X10246253Y-20365627D01*
X10446253Y-20489436D02*
X10455777Y-20498960D01*
X10455777Y-20498960D02*
X10446253Y-20508484D01*
X10446253Y-20508484D02*
X10436729Y-20498960D01*
X10436729Y-20498960D02*
X10446253Y-20489436D01*
X10446253Y-20489436D02*
X10446253Y-20508484D01*
X10646253Y-20508484D02*
X10531967Y-20508484D01*
X10589110Y-20508484D02*
X10589110Y-20308484D01*
X10589110Y-20308484D02*
X10570063Y-20337055D01*
X10570063Y-20337055D02*
X10551015Y-20356103D01*
X10551015Y-20356103D02*
X10531967Y-20365627D01*
X10770063Y-20308484D02*
X10789110Y-20308484D01*
X10789110Y-20308484D02*
X10808158Y-20318008D01*
X10808158Y-20318008D02*
X10817682Y-20327531D01*
X10817682Y-20327531D02*
X10827205Y-20346579D01*
X10827205Y-20346579D02*
X10836729Y-20384674D01*
X10836729Y-20384674D02*
X10836729Y-20432293D01*
X10836729Y-20432293D02*
X10827205Y-20470389D01*
X10827205Y-20470389D02*
X10817682Y-20489436D01*
X10817682Y-20489436D02*
X10808158Y-20498960D01*
X10808158Y-20498960D02*
X10789110Y-20508484D01*
X10789110Y-20508484D02*
X10770063Y-20508484D01*
X10770063Y-20508484D02*
X10751015Y-20498960D01*
X10751015Y-20498960D02*
X10741491Y-20489436D01*
X10741491Y-20489436D02*
X10731967Y-20470389D01*
X10731967Y-20470389D02*
X10722444Y-20432293D01*
X10722444Y-20432293D02*
X10722444Y-20384674D01*
X10722444Y-20384674D02*
X10731967Y-20346579D01*
X10731967Y-20346579D02*
X10741491Y-20327531D01*
X10741491Y-20327531D02*
X10751015Y-20318008D01*
X10751015Y-20318008D02*
X10770063Y-20308484D01*
X10960539Y-20308484D02*
X10979586Y-20308484D01*
X10979586Y-20308484D02*
X10998634Y-20318008D01*
X10998634Y-20318008D02*
X11008158Y-20327531D01*
X11008158Y-20327531D02*
X11017682Y-20346579D01*
X11017682Y-20346579D02*
X11027205Y-20384674D01*
X11027205Y-20384674D02*
X11027205Y-20432293D01*
X11027205Y-20432293D02*
X11017682Y-20470389D01*
X11017682Y-20470389D02*
X11008158Y-20489436D01*
X11008158Y-20489436D02*
X10998634Y-20498960D01*
X10998634Y-20498960D02*
X10979586Y-20508484D01*
X10979586Y-20508484D02*
X10960539Y-20508484D01*
X10960539Y-20508484D02*
X10941491Y-20498960D01*
X10941491Y-20498960D02*
X10931967Y-20489436D01*
X10931967Y-20489436D02*
X10922444Y-20470389D01*
X10922444Y-20470389D02*
X10912920Y-20432293D01*
X10912920Y-20432293D02*
X10912920Y-20384674D01*
X10912920Y-20384674D02*
X10922444Y-20346579D01*
X10922444Y-20346579D02*
X10931967Y-20327531D01*
X10931967Y-20327531D02*
X10941491Y-20318008D01*
X10941491Y-20318008D02*
X10960539Y-20308484D01*
X11112920Y-20508484D02*
X11112920Y-20375150D01*
X11112920Y-20394198D02*
X11122444Y-20384674D01*
X11122444Y-20384674D02*
X11141491Y-20375150D01*
X11141491Y-20375150D02*
X11170063Y-20375150D01*
X11170063Y-20375150D02*
X11189110Y-20384674D01*
X11189110Y-20384674D02*
X11198634Y-20403722D01*
X11198634Y-20403722D02*
X11198634Y-20508484D01*
X11198634Y-20403722D02*
X11208158Y-20384674D01*
X11208158Y-20384674D02*
X11227205Y-20375150D01*
X11227205Y-20375150D02*
X11255777Y-20375150D01*
X11255777Y-20375150D02*
X11274824Y-20384674D01*
X11274824Y-20384674D02*
X11284348Y-20403722D01*
X11284348Y-20403722D02*
X11284348Y-20508484D01*
X11379586Y-20508484D02*
X11379586Y-20375150D01*
X11379586Y-20394198D02*
X11389110Y-20384674D01*
X11389110Y-20384674D02*
X11408158Y-20375150D01*
X11408158Y-20375150D02*
X11436729Y-20375150D01*
X11436729Y-20375150D02*
X11455777Y-20384674D01*
X11455777Y-20384674D02*
X11465301Y-20403722D01*
X11465301Y-20403722D02*
X11465301Y-20508484D01*
X11465301Y-20403722D02*
X11474824Y-20384674D01*
X11474824Y-20384674D02*
X11493872Y-20375150D01*
X11493872Y-20375150D02*
X11522443Y-20375150D01*
X11522443Y-20375150D02*
X11541491Y-20384674D01*
X11541491Y-20384674D02*
X11551015Y-20403722D01*
X11551015Y-20403722D02*
X11551015Y-20508484D01*
X11941491Y-20298960D02*
X11770063Y-20556103D01*
X12198634Y-20308484D02*
X12217682Y-20308484D01*
X12217682Y-20308484D02*
X12236729Y-20318008D01*
X12236729Y-20318008D02*
X12246253Y-20327531D01*
X12246253Y-20327531D02*
X12255777Y-20346579D01*
X12255777Y-20346579D02*
X12265301Y-20384674D01*
X12265301Y-20384674D02*
X12265301Y-20432293D01*
X12265301Y-20432293D02*
X12255777Y-20470389D01*
X12255777Y-20470389D02*
X12246253Y-20489436D01*
X12246253Y-20489436D02*
X12236729Y-20498960D01*
X12236729Y-20498960D02*
X12217682Y-20508484D01*
X12217682Y-20508484D02*
X12198634Y-20508484D01*
X12198634Y-20508484D02*
X12179586Y-20498960D01*
X12179586Y-20498960D02*
X12170063Y-20489436D01*
X12170063Y-20489436D02*
X12160539Y-20470389D01*
X12160539Y-20470389D02*
X12151015Y-20432293D01*
X12151015Y-20432293D02*
X12151015Y-20384674D01*
X12151015Y-20384674D02*
X12160539Y-20346579D01*
X12160539Y-20346579D02*
X12170063Y-20327531D01*
X12170063Y-20327531D02*
X12179586Y-20318008D01*
X12179586Y-20318008D02*
X12198634Y-20308484D01*
X12351015Y-20489436D02*
X12360539Y-20498960D01*
X12360539Y-20498960D02*
X12351015Y-20508484D01*
X12351015Y-20508484D02*
X12341491Y-20498960D01*
X12341491Y-20498960D02*
X12351015Y-20489436D01*
X12351015Y-20489436D02*
X12351015Y-20508484D01*
X12484348Y-20308484D02*
X12503396Y-20308484D01*
X12503396Y-20308484D02*
X12522444Y-20318008D01*
X12522444Y-20318008D02*
X12531967Y-20327531D01*
X12531967Y-20327531D02*
X12541491Y-20346579D01*
X12541491Y-20346579D02*
X12551015Y-20384674D01*
X12551015Y-20384674D02*
X12551015Y-20432293D01*
X12551015Y-20432293D02*
X12541491Y-20470389D01*
X12541491Y-20470389D02*
X12531967Y-20489436D01*
X12531967Y-20489436D02*
X12522444Y-20498960D01*
X12522444Y-20498960D02*
X12503396Y-20508484D01*
X12503396Y-20508484D02*
X12484348Y-20508484D01*
X12484348Y-20508484D02*
X12465301Y-20498960D01*
X12465301Y-20498960D02*
X12455777Y-20489436D01*
X12455777Y-20489436D02*
X12446253Y-20470389D01*
X12446253Y-20470389D02*
X12436729Y-20432293D01*
X12436729Y-20432293D02*
X12436729Y-20384674D01*
X12436729Y-20384674D02*
X12446253Y-20346579D01*
X12446253Y-20346579D02*
X12455777Y-20327531D01*
X12455777Y-20327531D02*
X12465301Y-20318008D01*
X12465301Y-20318008D02*
X12484348Y-20308484D01*
X12722444Y-20375150D02*
X12722444Y-20508484D01*
X12674825Y-20298960D02*
X12627206Y-20441817D01*
X12627206Y-20441817D02*
X12751015Y-20441817D01*
X12808158Y-20308484D02*
X12931967Y-20308484D01*
X12931967Y-20308484D02*
X12865301Y-20384674D01*
X12865301Y-20384674D02*
X12893872Y-20384674D01*
X12893872Y-20384674D02*
X12912920Y-20394198D01*
X12912920Y-20394198D02*
X12922444Y-20403722D01*
X12922444Y-20403722D02*
X12931967Y-20422770D01*
X12931967Y-20422770D02*
X12931967Y-20470389D01*
X12931967Y-20470389D02*
X12922444Y-20489436D01*
X12922444Y-20489436D02*
X12912920Y-20498960D01*
X12912920Y-20498960D02*
X12893872Y-20508484D01*
X12893872Y-20508484D02*
X12836729Y-20508484D01*
X12836729Y-20508484D02*
X12817682Y-20498960D01*
X12817682Y-20498960D02*
X12808158Y-20489436D01*
X12998634Y-20308484D02*
X13122444Y-20308484D01*
X13122444Y-20308484D02*
X13055777Y-20384674D01*
X13055777Y-20384674D02*
X13084348Y-20384674D01*
X13084348Y-20384674D02*
X13103396Y-20394198D01*
X13103396Y-20394198D02*
X13112920Y-20403722D01*
X13112920Y-20403722D02*
X13122444Y-20422770D01*
X13122444Y-20422770D02*
X13122444Y-20470389D01*
X13122444Y-20470389D02*
X13112920Y-20489436D01*
X13112920Y-20489436D02*
X13103396Y-20498960D01*
X13103396Y-20498960D02*
X13084348Y-20508484D01*
X13084348Y-20508484D02*
X13027206Y-20508484D01*
X13027206Y-20508484D02*
X13008158Y-20498960D01*
X13008158Y-20498960D02*
X12998634Y-20489436D01*
X13198634Y-20308484D02*
X13198634Y-20346579D01*
X13274825Y-20308484D02*
X13274825Y-20346579D01*
X13570063Y-20584674D02*
X13560539Y-20575150D01*
X13560539Y-20575150D02*
X13541491Y-20546579D01*
X13541491Y-20546579D02*
X13531968Y-20527531D01*
X13531968Y-20527531D02*
X13522444Y-20498960D01*
X13522444Y-20498960D02*
X13512920Y-20451341D01*
X13512920Y-20451341D02*
X13512920Y-20413246D01*
X13512920Y-20413246D02*
X13522444Y-20365627D01*
X13522444Y-20365627D02*
X13531968Y-20337055D01*
X13531968Y-20337055D02*
X13541491Y-20318008D01*
X13541491Y-20318008D02*
X13560539Y-20289436D01*
X13560539Y-20289436D02*
X13570063Y-20279912D01*
X13636729Y-20327531D02*
X13646253Y-20318008D01*
X13646253Y-20318008D02*
X13665301Y-20308484D01*
X13665301Y-20308484D02*
X13712920Y-20308484D01*
X13712920Y-20308484D02*
X13731968Y-20318008D01*
X13731968Y-20318008D02*
X13741491Y-20327531D01*
X13741491Y-20327531D02*
X13751015Y-20346579D01*
X13751015Y-20346579D02*
X13751015Y-20365627D01*
X13751015Y-20365627D02*
X13741491Y-20394198D01*
X13741491Y-20394198D02*
X13627206Y-20508484D01*
X13627206Y-20508484D02*
X13751015Y-20508484D01*
X13865301Y-20394198D02*
X13846253Y-20384674D01*
X13846253Y-20384674D02*
X13836729Y-20375150D01*
X13836729Y-20375150D02*
X13827206Y-20356103D01*
X13827206Y-20356103D02*
X13827206Y-20346579D01*
X13827206Y-20346579D02*
X13836729Y-20327531D01*
X13836729Y-20327531D02*
X13846253Y-20318008D01*
X13846253Y-20318008D02*
X13865301Y-20308484D01*
X13865301Y-20308484D02*
X13903396Y-20308484D01*
X13903396Y-20308484D02*
X13922444Y-20318008D01*
X13922444Y-20318008D02*
X13931968Y-20327531D01*
X13931968Y-20327531D02*
X13941491Y-20346579D01*
X13941491Y-20346579D02*
X13941491Y-20356103D01*
X13941491Y-20356103D02*
X13931968Y-20375150D01*
X13931968Y-20375150D02*
X13922444Y-20384674D01*
X13922444Y-20384674D02*
X13903396Y-20394198D01*
X13903396Y-20394198D02*
X13865301Y-20394198D01*
X13865301Y-20394198D02*
X13846253Y-20403722D01*
X13846253Y-20403722D02*
X13836729Y-20413246D01*
X13836729Y-20413246D02*
X13827206Y-20432293D01*
X13827206Y-20432293D02*
X13827206Y-20470389D01*
X13827206Y-20470389D02*
X13836729Y-20489436D01*
X13836729Y-20489436D02*
X13846253Y-20498960D01*
X13846253Y-20498960D02*
X13865301Y-20508484D01*
X13865301Y-20508484D02*
X13903396Y-20508484D01*
X13903396Y-20508484D02*
X13922444Y-20498960D01*
X13922444Y-20498960D02*
X13931968Y-20489436D01*
X13931968Y-20489436D02*
X13941491Y-20470389D01*
X13941491Y-20470389D02*
X13941491Y-20432293D01*
X13941491Y-20432293D02*
X13931968Y-20413246D01*
X13931968Y-20413246D02*
X13922444Y-20403722D01*
X13922444Y-20403722D02*
X13903396Y-20394198D01*
X14179587Y-20508484D02*
X14179587Y-20308484D01*
X14265301Y-20508484D02*
X14265301Y-20403722D01*
X14265301Y-20403722D02*
X14255777Y-20384674D01*
X14255777Y-20384674D02*
X14236730Y-20375150D01*
X14236730Y-20375150D02*
X14208158Y-20375150D01*
X14208158Y-20375150D02*
X14189110Y-20384674D01*
X14189110Y-20384674D02*
X14179587Y-20394198D01*
X14389110Y-20508484D02*
X14370063Y-20498960D01*
X14370063Y-20498960D02*
X14360539Y-20489436D01*
X14360539Y-20489436D02*
X14351015Y-20470389D01*
X14351015Y-20470389D02*
X14351015Y-20413246D01*
X14351015Y-20413246D02*
X14360539Y-20394198D01*
X14360539Y-20394198D02*
X14370063Y-20384674D01*
X14370063Y-20384674D02*
X14389110Y-20375150D01*
X14389110Y-20375150D02*
X14417682Y-20375150D01*
X14417682Y-20375150D02*
X14436730Y-20384674D01*
X14436730Y-20384674D02*
X14446253Y-20394198D01*
X14446253Y-20394198D02*
X14455777Y-20413246D01*
X14455777Y-20413246D02*
X14455777Y-20470389D01*
X14455777Y-20470389D02*
X14446253Y-20489436D01*
X14446253Y-20489436D02*
X14436730Y-20498960D01*
X14436730Y-20498960D02*
X14417682Y-20508484D01*
X14417682Y-20508484D02*
X14389110Y-20508484D01*
X14570063Y-20508484D02*
X14551015Y-20498960D01*
X14551015Y-20498960D02*
X14541491Y-20479912D01*
X14541491Y-20479912D02*
X14541491Y-20308484D01*
X14722444Y-20498960D02*
X14703396Y-20508484D01*
X14703396Y-20508484D02*
X14665301Y-20508484D01*
X14665301Y-20508484D02*
X14646253Y-20498960D01*
X14646253Y-20498960D02*
X14636730Y-20479912D01*
X14636730Y-20479912D02*
X14636730Y-20403722D01*
X14636730Y-20403722D02*
X14646253Y-20384674D01*
X14646253Y-20384674D02*
X14665301Y-20375150D01*
X14665301Y-20375150D02*
X14703396Y-20375150D01*
X14703396Y-20375150D02*
X14722444Y-20384674D01*
X14722444Y-20384674D02*
X14731968Y-20403722D01*
X14731968Y-20403722D02*
X14731968Y-20422770D01*
X14731968Y-20422770D02*
X14636730Y-20441817D01*
X14808158Y-20498960D02*
X14827206Y-20508484D01*
X14827206Y-20508484D02*
X14865301Y-20508484D01*
X14865301Y-20508484D02*
X14884349Y-20498960D01*
X14884349Y-20498960D02*
X14893872Y-20479912D01*
X14893872Y-20479912D02*
X14893872Y-20470389D01*
X14893872Y-20470389D02*
X14884349Y-20451341D01*
X14884349Y-20451341D02*
X14865301Y-20441817D01*
X14865301Y-20441817D02*
X14836730Y-20441817D01*
X14836730Y-20441817D02*
X14817682Y-20432293D01*
X14817682Y-20432293D02*
X14808158Y-20413246D01*
X14808158Y-20413246D02*
X14808158Y-20403722D01*
X14808158Y-20403722D02*
X14817682Y-20384674D01*
X14817682Y-20384674D02*
X14836730Y-20375150D01*
X14836730Y-20375150D02*
X14865301Y-20375150D01*
X14865301Y-20375150D02*
X14884349Y-20384674D01*
X14960539Y-20584674D02*
X14970063Y-20575150D01*
X14970063Y-20575150D02*
X14989111Y-20546579D01*
X14989111Y-20546579D02*
X14998634Y-20527531D01*
X14998634Y-20527531D02*
X15008158Y-20498960D01*
X15008158Y-20498960D02*
X15017682Y-20451341D01*
X15017682Y-20451341D02*
X15017682Y-20413246D01*
X15017682Y-20413246D02*
X15008158Y-20365627D01*
X15008158Y-20365627D02*
X14998634Y-20337055D01*
X14998634Y-20337055D02*
X14989111Y-20318008D01*
X14989111Y-20318008D02*
X14970063Y-20289436D01*
X14970063Y-20289436D02*
X14960539Y-20279912D01*
D14*
X9930000Y-20616000D02*
X9930000Y-20746000D01*
X9865000Y-20681000D02*
X9995000Y-20681000D01*
X9995000Y-20681000D02*
G75*
G02*
X9865000Y-20681000I-65000J0D01*
G01*
X9865000Y-20681000D02*
G75*
G02*
X9995000Y-20681000I65000J0D01*
G01*
D11*
X10360539Y-20772484D02*
X10246253Y-20772484D01*
X10303396Y-20772484D02*
X10303396Y-20572484D01*
X10303396Y-20572484D02*
X10284348Y-20601055D01*
X10284348Y-20601055D02*
X10265301Y-20620103D01*
X10265301Y-20620103D02*
X10246253Y-20629627D01*
X10446253Y-20753436D02*
X10455777Y-20762960D01*
X10455777Y-20762960D02*
X10446253Y-20772484D01*
X10446253Y-20772484D02*
X10436729Y-20762960D01*
X10436729Y-20762960D02*
X10446253Y-20753436D01*
X10446253Y-20753436D02*
X10446253Y-20772484D01*
X10522444Y-20572484D02*
X10646253Y-20572484D01*
X10646253Y-20572484D02*
X10579586Y-20648674D01*
X10579586Y-20648674D02*
X10608158Y-20648674D01*
X10608158Y-20648674D02*
X10627205Y-20658198D01*
X10627205Y-20658198D02*
X10636729Y-20667722D01*
X10636729Y-20667722D02*
X10646253Y-20686770D01*
X10646253Y-20686770D02*
X10646253Y-20734389D01*
X10646253Y-20734389D02*
X10636729Y-20753436D01*
X10636729Y-20753436D02*
X10627205Y-20762960D01*
X10627205Y-20762960D02*
X10608158Y-20772484D01*
X10608158Y-20772484D02*
X10551015Y-20772484D01*
X10551015Y-20772484D02*
X10531967Y-20762960D01*
X10531967Y-20762960D02*
X10522444Y-20753436D01*
X10770063Y-20572484D02*
X10789110Y-20572484D01*
X10789110Y-20572484D02*
X10808158Y-20582008D01*
X10808158Y-20582008D02*
X10817682Y-20591531D01*
X10817682Y-20591531D02*
X10827205Y-20610579D01*
X10827205Y-20610579D02*
X10836729Y-20648674D01*
X10836729Y-20648674D02*
X10836729Y-20696293D01*
X10836729Y-20696293D02*
X10827205Y-20734389D01*
X10827205Y-20734389D02*
X10817682Y-20753436D01*
X10817682Y-20753436D02*
X10808158Y-20762960D01*
X10808158Y-20762960D02*
X10789110Y-20772484D01*
X10789110Y-20772484D02*
X10770063Y-20772484D01*
X10770063Y-20772484D02*
X10751015Y-20762960D01*
X10751015Y-20762960D02*
X10741491Y-20753436D01*
X10741491Y-20753436D02*
X10731967Y-20734389D01*
X10731967Y-20734389D02*
X10722444Y-20696293D01*
X10722444Y-20696293D02*
X10722444Y-20648674D01*
X10722444Y-20648674D02*
X10731967Y-20610579D01*
X10731967Y-20610579D02*
X10741491Y-20591531D01*
X10741491Y-20591531D02*
X10751015Y-20582008D01*
X10751015Y-20582008D02*
X10770063Y-20572484D01*
X10960539Y-20572484D02*
X10979586Y-20572484D01*
X10979586Y-20572484D02*
X10998634Y-20582008D01*
X10998634Y-20582008D02*
X11008158Y-20591531D01*
X11008158Y-20591531D02*
X11017682Y-20610579D01*
X11017682Y-20610579D02*
X11027205Y-20648674D01*
X11027205Y-20648674D02*
X11027205Y-20696293D01*
X11027205Y-20696293D02*
X11017682Y-20734389D01*
X11017682Y-20734389D02*
X11008158Y-20753436D01*
X11008158Y-20753436D02*
X10998634Y-20762960D01*
X10998634Y-20762960D02*
X10979586Y-20772484D01*
X10979586Y-20772484D02*
X10960539Y-20772484D01*
X10960539Y-20772484D02*
X10941491Y-20762960D01*
X10941491Y-20762960D02*
X10931967Y-20753436D01*
X10931967Y-20753436D02*
X10922444Y-20734389D01*
X10922444Y-20734389D02*
X10912920Y-20696293D01*
X10912920Y-20696293D02*
X10912920Y-20648674D01*
X10912920Y-20648674D02*
X10922444Y-20610579D01*
X10922444Y-20610579D02*
X10931967Y-20591531D01*
X10931967Y-20591531D02*
X10941491Y-20582008D01*
X10941491Y-20582008D02*
X10960539Y-20572484D01*
X11112920Y-20772484D02*
X11112920Y-20639150D01*
X11112920Y-20658198D02*
X11122444Y-20648674D01*
X11122444Y-20648674D02*
X11141491Y-20639150D01*
X11141491Y-20639150D02*
X11170063Y-20639150D01*
X11170063Y-20639150D02*
X11189110Y-20648674D01*
X11189110Y-20648674D02*
X11198634Y-20667722D01*
X11198634Y-20667722D02*
X11198634Y-20772484D01*
X11198634Y-20667722D02*
X11208158Y-20648674D01*
X11208158Y-20648674D02*
X11227205Y-20639150D01*
X11227205Y-20639150D02*
X11255777Y-20639150D01*
X11255777Y-20639150D02*
X11274824Y-20648674D01*
X11274824Y-20648674D02*
X11284348Y-20667722D01*
X11284348Y-20667722D02*
X11284348Y-20772484D01*
X11379586Y-20772484D02*
X11379586Y-20639150D01*
X11379586Y-20658198D02*
X11389110Y-20648674D01*
X11389110Y-20648674D02*
X11408158Y-20639150D01*
X11408158Y-20639150D02*
X11436729Y-20639150D01*
X11436729Y-20639150D02*
X11455777Y-20648674D01*
X11455777Y-20648674D02*
X11465301Y-20667722D01*
X11465301Y-20667722D02*
X11465301Y-20772484D01*
X11465301Y-20667722D02*
X11474824Y-20648674D01*
X11474824Y-20648674D02*
X11493872Y-20639150D01*
X11493872Y-20639150D02*
X11522443Y-20639150D01*
X11522443Y-20639150D02*
X11541491Y-20648674D01*
X11541491Y-20648674D02*
X11551015Y-20667722D01*
X11551015Y-20667722D02*
X11551015Y-20772484D01*
X11941491Y-20562960D02*
X11770063Y-20820103D01*
X12198634Y-20572484D02*
X12217682Y-20572484D01*
X12217682Y-20572484D02*
X12236729Y-20582008D01*
X12236729Y-20582008D02*
X12246253Y-20591531D01*
X12246253Y-20591531D02*
X12255777Y-20610579D01*
X12255777Y-20610579D02*
X12265301Y-20648674D01*
X12265301Y-20648674D02*
X12265301Y-20696293D01*
X12265301Y-20696293D02*
X12255777Y-20734389D01*
X12255777Y-20734389D02*
X12246253Y-20753436D01*
X12246253Y-20753436D02*
X12236729Y-20762960D01*
X12236729Y-20762960D02*
X12217682Y-20772484D01*
X12217682Y-20772484D02*
X12198634Y-20772484D01*
X12198634Y-20772484D02*
X12179586Y-20762960D01*
X12179586Y-20762960D02*
X12170063Y-20753436D01*
X12170063Y-20753436D02*
X12160539Y-20734389D01*
X12160539Y-20734389D02*
X12151015Y-20696293D01*
X12151015Y-20696293D02*
X12151015Y-20648674D01*
X12151015Y-20648674D02*
X12160539Y-20610579D01*
X12160539Y-20610579D02*
X12170063Y-20591531D01*
X12170063Y-20591531D02*
X12179586Y-20582008D01*
X12179586Y-20582008D02*
X12198634Y-20572484D01*
X12351015Y-20753436D02*
X12360539Y-20762960D01*
X12360539Y-20762960D02*
X12351015Y-20772484D01*
X12351015Y-20772484D02*
X12341491Y-20762960D01*
X12341491Y-20762960D02*
X12351015Y-20753436D01*
X12351015Y-20753436D02*
X12351015Y-20772484D01*
X12484348Y-20572484D02*
X12503396Y-20572484D01*
X12503396Y-20572484D02*
X12522444Y-20582008D01*
X12522444Y-20582008D02*
X12531967Y-20591531D01*
X12531967Y-20591531D02*
X12541491Y-20610579D01*
X12541491Y-20610579D02*
X12551015Y-20648674D01*
X12551015Y-20648674D02*
X12551015Y-20696293D01*
X12551015Y-20696293D02*
X12541491Y-20734389D01*
X12541491Y-20734389D02*
X12531967Y-20753436D01*
X12531967Y-20753436D02*
X12522444Y-20762960D01*
X12522444Y-20762960D02*
X12503396Y-20772484D01*
X12503396Y-20772484D02*
X12484348Y-20772484D01*
X12484348Y-20772484D02*
X12465301Y-20762960D01*
X12465301Y-20762960D02*
X12455777Y-20753436D01*
X12455777Y-20753436D02*
X12446253Y-20734389D01*
X12446253Y-20734389D02*
X12436729Y-20696293D01*
X12436729Y-20696293D02*
X12436729Y-20648674D01*
X12436729Y-20648674D02*
X12446253Y-20610579D01*
X12446253Y-20610579D02*
X12455777Y-20591531D01*
X12455777Y-20591531D02*
X12465301Y-20582008D01*
X12465301Y-20582008D02*
X12484348Y-20572484D01*
X12731967Y-20572484D02*
X12636729Y-20572484D01*
X12636729Y-20572484D02*
X12627206Y-20667722D01*
X12627206Y-20667722D02*
X12636729Y-20658198D01*
X12636729Y-20658198D02*
X12655777Y-20648674D01*
X12655777Y-20648674D02*
X12703396Y-20648674D01*
X12703396Y-20648674D02*
X12722444Y-20658198D01*
X12722444Y-20658198D02*
X12731967Y-20667722D01*
X12731967Y-20667722D02*
X12741491Y-20686770D01*
X12741491Y-20686770D02*
X12741491Y-20734389D01*
X12741491Y-20734389D02*
X12731967Y-20753436D01*
X12731967Y-20753436D02*
X12722444Y-20762960D01*
X12722444Y-20762960D02*
X12703396Y-20772484D01*
X12703396Y-20772484D02*
X12655777Y-20772484D01*
X12655777Y-20772484D02*
X12636729Y-20762960D01*
X12636729Y-20762960D02*
X12627206Y-20753436D01*
X12931967Y-20772484D02*
X12817682Y-20772484D01*
X12874825Y-20772484D02*
X12874825Y-20572484D01*
X12874825Y-20572484D02*
X12855777Y-20601055D01*
X12855777Y-20601055D02*
X12836729Y-20620103D01*
X12836729Y-20620103D02*
X12817682Y-20629627D01*
X13008158Y-20591531D02*
X13017682Y-20582008D01*
X13017682Y-20582008D02*
X13036729Y-20572484D01*
X13036729Y-20572484D02*
X13084348Y-20572484D01*
X13084348Y-20572484D02*
X13103396Y-20582008D01*
X13103396Y-20582008D02*
X13112920Y-20591531D01*
X13112920Y-20591531D02*
X13122444Y-20610579D01*
X13122444Y-20610579D02*
X13122444Y-20629627D01*
X13122444Y-20629627D02*
X13112920Y-20658198D01*
X13112920Y-20658198D02*
X12998634Y-20772484D01*
X12998634Y-20772484D02*
X13122444Y-20772484D01*
X13198634Y-20572484D02*
X13198634Y-20610579D01*
X13274825Y-20572484D02*
X13274825Y-20610579D01*
X13570063Y-20848674D02*
X13560539Y-20839150D01*
X13560539Y-20839150D02*
X13541491Y-20810579D01*
X13541491Y-20810579D02*
X13531968Y-20791531D01*
X13531968Y-20791531D02*
X13522444Y-20762960D01*
X13522444Y-20762960D02*
X13512920Y-20715341D01*
X13512920Y-20715341D02*
X13512920Y-20677246D01*
X13512920Y-20677246D02*
X13522444Y-20629627D01*
X13522444Y-20629627D02*
X13531968Y-20601055D01*
X13531968Y-20601055D02*
X13541491Y-20582008D01*
X13541491Y-20582008D02*
X13560539Y-20553436D01*
X13560539Y-20553436D02*
X13570063Y-20543912D01*
X13751015Y-20772484D02*
X13636729Y-20772484D01*
X13693872Y-20772484D02*
X13693872Y-20572484D01*
X13693872Y-20572484D02*
X13674825Y-20601055D01*
X13674825Y-20601055D02*
X13655777Y-20620103D01*
X13655777Y-20620103D02*
X13636729Y-20629627D01*
X13817682Y-20572484D02*
X13951015Y-20572484D01*
X13951015Y-20572484D02*
X13865301Y-20772484D01*
X14179587Y-20772484D02*
X14179587Y-20572484D01*
X14265301Y-20772484D02*
X14265301Y-20667722D01*
X14265301Y-20667722D02*
X14255777Y-20648674D01*
X14255777Y-20648674D02*
X14236730Y-20639150D01*
X14236730Y-20639150D02*
X14208158Y-20639150D01*
X14208158Y-20639150D02*
X14189110Y-20648674D01*
X14189110Y-20648674D02*
X14179587Y-20658198D01*
X14389110Y-20772484D02*
X14370063Y-20762960D01*
X14370063Y-20762960D02*
X14360539Y-20753436D01*
X14360539Y-20753436D02*
X14351015Y-20734389D01*
X14351015Y-20734389D02*
X14351015Y-20677246D01*
X14351015Y-20677246D02*
X14360539Y-20658198D01*
X14360539Y-20658198D02*
X14370063Y-20648674D01*
X14370063Y-20648674D02*
X14389110Y-20639150D01*
X14389110Y-20639150D02*
X14417682Y-20639150D01*
X14417682Y-20639150D02*
X14436730Y-20648674D01*
X14436730Y-20648674D02*
X14446253Y-20658198D01*
X14446253Y-20658198D02*
X14455777Y-20677246D01*
X14455777Y-20677246D02*
X14455777Y-20734389D01*
X14455777Y-20734389D02*
X14446253Y-20753436D01*
X14446253Y-20753436D02*
X14436730Y-20762960D01*
X14436730Y-20762960D02*
X14417682Y-20772484D01*
X14417682Y-20772484D02*
X14389110Y-20772484D01*
X14570063Y-20772484D02*
X14551015Y-20762960D01*
X14551015Y-20762960D02*
X14541491Y-20743912D01*
X14541491Y-20743912D02*
X14541491Y-20572484D01*
X14722444Y-20762960D02*
X14703396Y-20772484D01*
X14703396Y-20772484D02*
X14665301Y-20772484D01*
X14665301Y-20772484D02*
X14646253Y-20762960D01*
X14646253Y-20762960D02*
X14636730Y-20743912D01*
X14636730Y-20743912D02*
X14636730Y-20667722D01*
X14636730Y-20667722D02*
X14646253Y-20648674D01*
X14646253Y-20648674D02*
X14665301Y-20639150D01*
X14665301Y-20639150D02*
X14703396Y-20639150D01*
X14703396Y-20639150D02*
X14722444Y-20648674D01*
X14722444Y-20648674D02*
X14731968Y-20667722D01*
X14731968Y-20667722D02*
X14731968Y-20686770D01*
X14731968Y-20686770D02*
X14636730Y-20705817D01*
X14808158Y-20762960D02*
X14827206Y-20772484D01*
X14827206Y-20772484D02*
X14865301Y-20772484D01*
X14865301Y-20772484D02*
X14884349Y-20762960D01*
X14884349Y-20762960D02*
X14893872Y-20743912D01*
X14893872Y-20743912D02*
X14893872Y-20734389D01*
X14893872Y-20734389D02*
X14884349Y-20715341D01*
X14884349Y-20715341D02*
X14865301Y-20705817D01*
X14865301Y-20705817D02*
X14836730Y-20705817D01*
X14836730Y-20705817D02*
X14817682Y-20696293D01*
X14817682Y-20696293D02*
X14808158Y-20677246D01*
X14808158Y-20677246D02*
X14808158Y-20667722D01*
X14808158Y-20667722D02*
X14817682Y-20648674D01*
X14817682Y-20648674D02*
X14836730Y-20639150D01*
X14836730Y-20639150D02*
X14865301Y-20639150D01*
X14865301Y-20639150D02*
X14884349Y-20648674D01*
X14960539Y-20848674D02*
X14970063Y-20839150D01*
X14970063Y-20839150D02*
X14989111Y-20810579D01*
X14989111Y-20810579D02*
X14998634Y-20791531D01*
X14998634Y-20791531D02*
X15008158Y-20762960D01*
X15008158Y-20762960D02*
X15017682Y-20715341D01*
X15017682Y-20715341D02*
X15017682Y-20677246D01*
X15017682Y-20677246D02*
X15008158Y-20629627D01*
X15008158Y-20629627D02*
X14998634Y-20601055D01*
X14998634Y-20601055D02*
X14989111Y-20582008D01*
X14989111Y-20582008D02*
X14970063Y-20553436D01*
X14970063Y-20553436D02*
X14960539Y-20543912D01*
M02*
