%TF.GenerationSoftware,KiCad,Pcbnew,10.0.5*%
%TF.CreationDate,2026-08-03T03:02:49-07:00*%
%TF.ProjectId,homehub,686f6d65-6875-4622-9e6b-696361645f70,rev?*%
%TF.SameCoordinates,Original*%
%TF.FileFunction,Paste,Top*%
%TF.FilePolarity,Positive*%
%FSLAX46Y46*%
G04 Gerber Fmt 4.6, Leading zero omitted, Abs format (unit mm)*
G04 Created by KiCad (PCBNEW 10.0.5) date 2026-08-03 03:02:49*
%MOMM*%
%LPD*%
G01*
G04 APERTURE LIST*
%ADD10R,1.500000X0.900000*%
%ADD11R,0.900000X1.500000*%
%ADD12R,0.900000X0.900000*%
G04 APERTURE END LIST*
D10*
%TO.C,U1*%
X171910000Y-102470000D03*
X171910000Y-103740000D03*
X171910000Y-105010000D03*
X171910000Y-106280000D03*
X171910000Y-107550000D03*
X171910000Y-108820000D03*
X171910000Y-110090000D03*
X171910000Y-111360000D03*
X171910000Y-112630000D03*
X171910000Y-113900000D03*
X171910000Y-115170000D03*
X171910000Y-116440000D03*
X171910000Y-117710000D03*
X171910000Y-118980000D03*
D11*
X174945000Y-120230000D03*
X176215000Y-120230000D03*
X177485000Y-120230000D03*
X178755000Y-120230000D03*
X180025000Y-120230000D03*
X181295000Y-120230000D03*
X182565000Y-120230000D03*
X183835000Y-120230000D03*
X185105000Y-120230000D03*
X186375000Y-120230000D03*
D10*
X189410000Y-118980000D03*
X189410000Y-117710000D03*
X189410000Y-116440000D03*
X189410000Y-115170000D03*
X189410000Y-113900000D03*
X189410000Y-112630000D03*
X189410000Y-111360000D03*
X189410000Y-110090000D03*
X189410000Y-108820000D03*
X189410000Y-107550000D03*
X189410000Y-106280000D03*
X189410000Y-105010000D03*
X189410000Y-103740000D03*
X189410000Y-102470000D03*
D12*
X177760000Y-108790000D03*
X177760000Y-110190000D03*
X177760000Y-111590000D03*
X179160000Y-108790000D03*
X179160000Y-110190000D03*
X179160000Y-111590000D03*
X180560000Y-108790000D03*
X180560000Y-110190000D03*
X180560000Y-111590000D03*
%TD*%
M02*
