%TF.GenerationSoftware,KiCad,Pcbnew,10.0.5*%
%TF.CreationDate,2026-08-03T01:34:29-07:00*%
%TF.ProjectId,cv-tb3,63762d74-6233-42e6-9b69-6361645f7063,rev?*%
%TF.SameCoordinates,Original*%
%TF.FileFunction,Paste,Bot*%
%TF.FilePolarity,Positive*%
%FSLAX46Y46*%
G04 Gerber Fmt 4.6, Leading zero omitted, Abs format (unit mm)*
G04 Created by KiCad (PCBNEW 10.0.5) date 2026-08-03 01:34:29*
%MOMM*%
%LPD*%
G01*
G04 APERTURE LIST*
G04 Aperture macros list*
%AMRoundRect*
0 Rectangle with rounded corners*
0 $1 Rounding radius*
0 $2 $3 $4 $5 $6 $7 $8 $9 X,Y pos of 4 corners*
0 Add a 4 corners polygon primitive as box body*
4,1,4,$2,$3,$4,$5,$6,$7,$8,$9,$2,$3,0*
0 Add four circle primitives for the rounded corners*
1,1,$1+$1,$2,$3*
1,1,$1+$1,$4,$5*
1,1,$1+$1,$6,$7*
1,1,$1+$1,$8,$9*
0 Add four rect primitives between the rounded corners*
20,1,$1+$1,$2,$3,$4,$5,0*
20,1,$1+$1,$4,$5,$6,$7,0*
20,1,$1+$1,$6,$7,$8,$9,0*
20,1,$1+$1,$8,$9,$2,$3,0*%
G04 Aperture macros list end*
%ADD10RoundRect,0.250000X0.475000X-0.250000X0.475000X0.250000X-0.475000X0.250000X-0.475000X-0.250000X0*%
%ADD11RoundRect,0.250000X0.250000X0.475000X-0.250000X0.475000X-0.250000X-0.475000X0.250000X-0.475000X0*%
%ADD12RoundRect,0.250000X0.450000X-0.262500X0.450000X0.262500X-0.450000X0.262500X-0.450000X-0.262500X0*%
%ADD13RoundRect,0.250000X0.262500X0.450000X-0.262500X0.450000X-0.262500X-0.450000X0.262500X-0.450000X0*%
%ADD14RoundRect,0.150000X0.587500X0.150000X-0.587500X0.150000X-0.587500X-0.150000X0.587500X-0.150000X0*%
%ADD15RoundRect,0.250000X0.362500X1.425000X-0.362500X1.425000X-0.362500X-1.425000X0.362500X-1.425000X0*%
G04 APERTURE END LIST*
D10*
%TO.C,C8*%
X184150000Y-155530000D03*
X184150000Y-153630000D03*
%TD*%
D11*
%TO.C,C4*%
X158385000Y-136775000D03*
X156485000Y-136775000D03*
%TD*%
D12*
%TO.C,R8*%
X152195000Y-166612500D03*
X152195000Y-164787500D03*
%TD*%
D13*
%TO.C,R2*%
X157502500Y-160520000D03*
X155677500Y-160520000D03*
%TD*%
%TO.C,R3*%
X176282500Y-162840000D03*
X174457500Y-162840000D03*
%TD*%
D12*
%TO.C,R1*%
X156685000Y-157712500D03*
X156685000Y-155887500D03*
%TD*%
D13*
%TO.C,R10*%
X180732500Y-165830000D03*
X178907500Y-165830000D03*
%TD*%
D11*
%TO.C,C6*%
X160390000Y-153050000D03*
X158490000Y-153050000D03*
%TD*%
D12*
%TO.C,R12*%
X183540000Y-168932500D03*
X183540000Y-167107500D03*
%TD*%
D11*
%TO.C,C7*%
X153895000Y-153610000D03*
X151995000Y-153610000D03*
%TD*%
D10*
%TO.C,C5*%
X184150000Y-151040000D03*
X184150000Y-149140000D03*
%TD*%
D13*
%TO.C,R6*%
X157502500Y-163510000D03*
X155677500Y-163510000D03*
%TD*%
D11*
%TO.C,C3*%
X153895000Y-136775000D03*
X151995000Y-136775000D03*
%TD*%
D13*
%TO.C,R9*%
X176282500Y-165830000D03*
X174457500Y-165830000D03*
%TD*%
%TO.C,R11*%
X156827500Y-166500000D03*
X155002500Y-166500000D03*
%TD*%
D14*
%TO.C,Q2*%
X159062500Y-143840000D03*
X159062500Y-145740000D03*
X157187500Y-144790000D03*
%TD*%
D13*
%TO.C,R4*%
X180732500Y-162840000D03*
X178907500Y-162840000D03*
%TD*%
D14*
%TO.C,Q1*%
X154112500Y-143840000D03*
X154112500Y-145740000D03*
X152237500Y-144790000D03*
%TD*%
D15*
%TO.C,Rsh*%
X113087500Y-179440000D03*
X107162500Y-179440000D03*
%TD*%
D14*
%TO.C,Q4*%
X160607500Y-148330000D03*
X160607500Y-150230000D03*
X158732500Y-149280000D03*
%TD*%
D12*
%TO.C,R5*%
X183540000Y-164482500D03*
X183540000Y-162657500D03*
%TD*%
D13*
%TO.C,R7*%
X165472500Y-164900000D03*
X163647500Y-164900000D03*
%TD*%
D14*
%TO.C,Q3*%
X171617500Y-144590000D03*
X171617500Y-146490000D03*
X169742500Y-145540000D03*
%TD*%
M02*
