%TF.GenerationSoftware,KiCad,Pcbnew,10.0.5*%
%TF.CreationDate,2026-08-09T21:19:24-07:00*%
%TF.ProjectId,cv-tb3,63762d74-6233-42e6-9b69-6361645f7063,rev?*%
%TF.SameCoordinates,Original*%
%TF.FileFunction,Paste,Top*%
%TF.FilePolarity,Positive*%
%FSLAX46Y46*%
G04 Gerber Fmt 4.6, Leading zero omitted, Abs format (unit mm)*
G04 Created by KiCad (PCBNEW 10.0.5) date 2026-08-09 21:19:24*
%MOMM*%
%LPD*%
G01*
G04 APERTURE LIST*
G04 Aperture macros list*
%AMRoundRect*
0 Rectangle with rounded corners*
0 $1 Rounding radius*
0 $2 $3 $4 $5 $6 $7 $8 $9 X,Y pos of 4 corners*
0 Add a 4 corners polygon primitive as box body*
4,1,4,$2,$3,$4,$5,$6,$7,$8,$9,$2,$3,0*
0 Add four circle primitives for the rounded corners*
1,1,$1+$1,$2,$3*
1,1,$1+$1,$4,$5*
1,1,$1+$1,$6,$7*
1,1,$1+$1,$8,$9*
0 Add four rect primitives between the rounded corners*
20,1,$1+$1,$2,$3,$4,$5,0*
20,1,$1+$1,$4,$5,$6,$7,0*
20,1,$1+$1,$6,$7,$8,$9,0*
20,1,$1+$1,$8,$9,$2,$3,0*%
G04 Aperture macros list end*
%ADD10R,1.500000X0.900000*%
%ADD11R,0.900000X1.500000*%
%ADD12R,0.900000X0.900000*%
%ADD13RoundRect,0.150000X-0.825000X-0.150000X0.825000X-0.150000X0.825000X0.150000X-0.825000X0.150000X0*%
%ADD14RoundRect,0.375000X-0.625000X-0.375000X0.625000X-0.375000X0.625000X0.375000X-0.625000X0.375000X0*%
%ADD15RoundRect,0.500000X-0.500000X-1.400000X0.500000X-1.400000X0.500000X1.400000X-0.500000X1.400000X0*%
G04 APERTURE END LIST*
D10*
%TO.C,U1*%
X159450000Y-102470000D03*
X159450000Y-103740000D03*
X159450000Y-105010000D03*
X159450000Y-106280000D03*
X159450000Y-107550000D03*
X159450000Y-108820000D03*
X159450000Y-110090000D03*
X159450000Y-111360000D03*
X159450000Y-112630000D03*
X159450000Y-113900000D03*
X159450000Y-115170000D03*
X159450000Y-116440000D03*
X159450000Y-117710000D03*
X159450000Y-118980000D03*
D11*
X162485000Y-120230000D03*
X163755000Y-120230000D03*
X165025000Y-120230000D03*
X166295000Y-120230000D03*
X167565000Y-120230000D03*
X168835000Y-120230000D03*
X170105000Y-120230000D03*
X171375000Y-120230000D03*
X172645000Y-120230000D03*
X173915000Y-120230000D03*
D10*
X176950000Y-118980000D03*
X176950000Y-117710000D03*
X176950000Y-116440000D03*
X176950000Y-115170000D03*
X176950000Y-113900000D03*
X176950000Y-112630000D03*
X176950000Y-111360000D03*
X176950000Y-110090000D03*
X176950000Y-108820000D03*
X176950000Y-107550000D03*
X176950000Y-106280000D03*
X176950000Y-105010000D03*
X176950000Y-103740000D03*
X176950000Y-102470000D03*
D12*
X165300000Y-108790000D03*
X165300000Y-110190000D03*
X165300000Y-111590000D03*
X166700000Y-108790000D03*
X166700000Y-110190000D03*
X166700000Y-111590000D03*
X168100000Y-108790000D03*
X168100000Y-110190000D03*
X168100000Y-111590000D03*
%TD*%
D13*
%TO.C,U6*%
X142470000Y-178450000D03*
X142470000Y-179720000D03*
X142470000Y-180990000D03*
X142470000Y-182260000D03*
X147420000Y-182260000D03*
X147420000Y-180990000D03*
X147420000Y-179720000D03*
X147420000Y-178450000D03*
%TD*%
D14*
%TO.C,U2*%
X175234999Y-164545000D03*
X175234999Y-166845000D03*
D15*
X181534999Y-166845000D03*
D14*
X175234999Y-169145000D03*
%TD*%
M02*
