%TF.GenerationSoftware,KiCad,Pcbnew,10.0.5*%
%TF.CreationDate,2026-08-03T01:34:29-07:00*%
%TF.ProjectId,cv-tb3,63762d74-6233-42e6-9b69-6361645f7063,rev?*%
%TF.SameCoordinates,Original*%
%TF.FileFunction,Legend,Top*%
%TF.FilePolarity,Positive*%
%FSLAX46Y46*%
G04 Gerber Fmt 4.6, Leading zero omitted, Abs format (unit mm)*
G04 Created by KiCad (PCBNEW 10.0.5) date 2026-08-03 01:34:29*
%MOMM*%
%LPD*%
G01*
G04 APERTURE LIST*
%ADD10C,0.150000*%
%ADD11C,0.180000*%
%ADD12C,0.200000*%
%ADD13C,0.120000*%
G04 APERTURE END LIST*
D10*
X134349999Y-194822842D02*
X134307142Y-194865700D01*
X134307142Y-194865700D02*
X134178570Y-194908557D01*
X134178570Y-194908557D02*
X134092856Y-194908557D01*
X134092856Y-194908557D02*
X133964285Y-194865700D01*
X133964285Y-194865700D02*
X133878570Y-194779985D01*
X133878570Y-194779985D02*
X133835713Y-194694271D01*
X133835713Y-194694271D02*
X133792856Y-194522842D01*
X133792856Y-194522842D02*
X133792856Y-194394271D01*
X133792856Y-194394271D02*
X133835713Y-194222842D01*
X133835713Y-194222842D02*
X133878570Y-194137128D01*
X133878570Y-194137128D02*
X133964285Y-194051414D01*
X133964285Y-194051414D02*
X134092856Y-194008557D01*
X134092856Y-194008557D02*
X134178570Y-194008557D01*
X134178570Y-194008557D02*
X134307142Y-194051414D01*
X134307142Y-194051414D02*
X134349999Y-194094271D01*
X134607142Y-194008557D02*
X134907142Y-194908557D01*
X134907142Y-194908557D02*
X135207142Y-194008557D01*
X135507142Y-194565700D02*
X136192857Y-194565700D01*
X136492857Y-194008557D02*
X137007143Y-194008557D01*
X136750000Y-194908557D02*
X136750000Y-194008557D01*
X137607142Y-194437128D02*
X137735714Y-194479985D01*
X137735714Y-194479985D02*
X137778571Y-194522842D01*
X137778571Y-194522842D02*
X137821428Y-194608557D01*
X137821428Y-194608557D02*
X137821428Y-194737128D01*
X137821428Y-194737128D02*
X137778571Y-194822842D01*
X137778571Y-194822842D02*
X137735714Y-194865700D01*
X137735714Y-194865700D02*
X137649999Y-194908557D01*
X137649999Y-194908557D02*
X137307142Y-194908557D01*
X137307142Y-194908557D02*
X137307142Y-194008557D01*
X137307142Y-194008557D02*
X137607142Y-194008557D01*
X137607142Y-194008557D02*
X137692857Y-194051414D01*
X137692857Y-194051414D02*
X137735714Y-194094271D01*
X137735714Y-194094271D02*
X137778571Y-194179985D01*
X137778571Y-194179985D02*
X137778571Y-194265700D01*
X137778571Y-194265700D02*
X137735714Y-194351414D01*
X137735714Y-194351414D02*
X137692857Y-194394271D01*
X137692857Y-194394271D02*
X137607142Y-194437128D01*
X137607142Y-194437128D02*
X137307142Y-194437128D01*
X138121428Y-194008557D02*
X138678571Y-194008557D01*
X138678571Y-194008557D02*
X138378571Y-194351414D01*
X138378571Y-194351414D02*
X138507142Y-194351414D01*
X138507142Y-194351414D02*
X138592857Y-194394271D01*
X138592857Y-194394271D02*
X138635714Y-194437128D01*
X138635714Y-194437128D02*
X138678571Y-194522842D01*
X138678571Y-194522842D02*
X138678571Y-194737128D01*
X138678571Y-194737128D02*
X138635714Y-194822842D01*
X138635714Y-194822842D02*
X138592857Y-194865700D01*
X138592857Y-194865700D02*
X138507142Y-194908557D01*
X138507142Y-194908557D02*
X138249999Y-194908557D01*
X138249999Y-194908557D02*
X138164285Y-194865700D01*
X138164285Y-194865700D02*
X138121428Y-194822842D01*
X140949999Y-194908557D02*
X140649999Y-194479985D01*
X140435713Y-194908557D02*
X140435713Y-194008557D01*
X140435713Y-194008557D02*
X140778570Y-194008557D01*
X140778570Y-194008557D02*
X140864285Y-194051414D01*
X140864285Y-194051414D02*
X140907142Y-194094271D01*
X140907142Y-194094271D02*
X140949999Y-194179985D01*
X140949999Y-194179985D02*
X140949999Y-194308557D01*
X140949999Y-194308557D02*
X140907142Y-194394271D01*
X140907142Y-194394271D02*
X140864285Y-194437128D01*
X140864285Y-194437128D02*
X140778570Y-194479985D01*
X140778570Y-194479985D02*
X140435713Y-194479985D01*
X141335713Y-194437128D02*
X141635713Y-194437128D01*
X141764285Y-194908557D02*
X141335713Y-194908557D01*
X141335713Y-194908557D02*
X141335713Y-194008557D01*
X141335713Y-194008557D02*
X141764285Y-194008557D01*
X142021428Y-194008557D02*
X142321428Y-194908557D01*
X142321428Y-194908557D02*
X142621428Y-194008557D01*
X143564285Y-194651414D02*
X143992857Y-194651414D01*
X143478571Y-194908557D02*
X143778571Y-194008557D01*
X143778571Y-194008557D02*
X144078571Y-194908557D01*
X146135714Y-194865700D02*
X146049999Y-194908557D01*
X146049999Y-194908557D02*
X145878571Y-194908557D01*
X145878571Y-194908557D02*
X145792856Y-194865700D01*
X145792856Y-194865700D02*
X145749999Y-194822842D01*
X145749999Y-194822842D02*
X145707142Y-194737128D01*
X145707142Y-194737128D02*
X145707142Y-194479985D01*
X145707142Y-194479985D02*
X145749999Y-194394271D01*
X145749999Y-194394271D02*
X145792856Y-194351414D01*
X145792856Y-194351414D02*
X145878571Y-194308557D01*
X145878571Y-194308557D02*
X146049999Y-194308557D01*
X146049999Y-194308557D02*
X146135714Y-194351414D01*
X146521428Y-194908557D02*
X146521428Y-194308557D01*
X146521428Y-194008557D02*
X146478571Y-194051414D01*
X146478571Y-194051414D02*
X146521428Y-194094271D01*
X146521428Y-194094271D02*
X146564285Y-194051414D01*
X146564285Y-194051414D02*
X146521428Y-194008557D01*
X146521428Y-194008557D02*
X146521428Y-194094271D01*
X146949999Y-194908557D02*
X146949999Y-194308557D01*
X146949999Y-194479985D02*
X146992856Y-194394271D01*
X146992856Y-194394271D02*
X147035714Y-194351414D01*
X147035714Y-194351414D02*
X147121428Y-194308557D01*
X147121428Y-194308557D02*
X147207142Y-194308557D01*
X147892857Y-194865700D02*
X147807142Y-194908557D01*
X147807142Y-194908557D02*
X147635714Y-194908557D01*
X147635714Y-194908557D02*
X147549999Y-194865700D01*
X147549999Y-194865700D02*
X147507142Y-194822842D01*
X147507142Y-194822842D02*
X147464285Y-194737128D01*
X147464285Y-194737128D02*
X147464285Y-194479985D01*
X147464285Y-194479985D02*
X147507142Y-194394271D01*
X147507142Y-194394271D02*
X147549999Y-194351414D01*
X147549999Y-194351414D02*
X147635714Y-194308557D01*
X147635714Y-194308557D02*
X147807142Y-194308557D01*
X147807142Y-194308557D02*
X147892857Y-194351414D01*
X148664286Y-194308557D02*
X148664286Y-194908557D01*
X148278571Y-194308557D02*
X148278571Y-194779985D01*
X148278571Y-194779985D02*
X148321428Y-194865700D01*
X148321428Y-194865700D02*
X148407143Y-194908557D01*
X148407143Y-194908557D02*
X148535714Y-194908557D01*
X148535714Y-194908557D02*
X148621428Y-194865700D01*
X148621428Y-194865700D02*
X148664286Y-194822842D01*
X149007143Y-194308557D02*
X149221429Y-194908557D01*
X149221429Y-194908557D02*
X149435714Y-194308557D01*
X150121428Y-194865700D02*
X150035714Y-194908557D01*
X150035714Y-194908557D02*
X149864286Y-194908557D01*
X149864286Y-194908557D02*
X149778571Y-194865700D01*
X149778571Y-194865700D02*
X149735714Y-194779985D01*
X149735714Y-194779985D02*
X149735714Y-194437128D01*
X149735714Y-194437128D02*
X149778571Y-194351414D01*
X149778571Y-194351414D02*
X149864286Y-194308557D01*
X149864286Y-194308557D02*
X150035714Y-194308557D01*
X150035714Y-194308557D02*
X150121428Y-194351414D01*
X150121428Y-194351414D02*
X150164286Y-194437128D01*
X150164286Y-194437128D02*
X150164286Y-194522842D01*
X150164286Y-194522842D02*
X149735714Y-194608557D01*
X150550000Y-194308557D02*
X150550000Y-194908557D01*
X150550000Y-194394271D02*
X150592857Y-194351414D01*
X150592857Y-194351414D02*
X150678572Y-194308557D01*
X150678572Y-194308557D02*
X150807143Y-194308557D01*
X150807143Y-194308557D02*
X150892857Y-194351414D01*
X150892857Y-194351414D02*
X150935715Y-194437128D01*
X150935715Y-194437128D02*
X150935715Y-194908557D01*
X151235715Y-194308557D02*
X151578572Y-194308557D01*
X151364286Y-194008557D02*
X151364286Y-194779985D01*
X151364286Y-194779985D02*
X151407143Y-194865700D01*
X151407143Y-194865700D02*
X151492858Y-194908557D01*
X151492858Y-194908557D02*
X151578572Y-194908557D01*
X151878572Y-194822842D02*
X151921429Y-194865700D01*
X151921429Y-194865700D02*
X151878572Y-194908557D01*
X151878572Y-194908557D02*
X151835715Y-194865700D01*
X151835715Y-194865700D02*
X151878572Y-194822842D01*
X151878572Y-194822842D02*
X151878572Y-194908557D01*
X152692858Y-194865700D02*
X152607143Y-194908557D01*
X152607143Y-194908557D02*
X152435715Y-194908557D01*
X152435715Y-194908557D02*
X152350000Y-194865700D01*
X152350000Y-194865700D02*
X152307143Y-194822842D01*
X152307143Y-194822842D02*
X152264286Y-194737128D01*
X152264286Y-194737128D02*
X152264286Y-194479985D01*
X152264286Y-194479985D02*
X152307143Y-194394271D01*
X152307143Y-194394271D02*
X152350000Y-194351414D01*
X152350000Y-194351414D02*
X152435715Y-194308557D01*
X152435715Y-194308557D02*
X152607143Y-194308557D01*
X152607143Y-194308557D02*
X152692858Y-194351414D01*
X153207144Y-194908557D02*
X153121429Y-194865700D01*
X153121429Y-194865700D02*
X153078572Y-194822842D01*
X153078572Y-194822842D02*
X153035715Y-194737128D01*
X153035715Y-194737128D02*
X153035715Y-194479985D01*
X153035715Y-194479985D02*
X153078572Y-194394271D01*
X153078572Y-194394271D02*
X153121429Y-194351414D01*
X153121429Y-194351414D02*
X153207144Y-194308557D01*
X153207144Y-194308557D02*
X153335715Y-194308557D01*
X153335715Y-194308557D02*
X153421429Y-194351414D01*
X153421429Y-194351414D02*
X153464287Y-194394271D01*
X153464287Y-194394271D02*
X153507144Y-194479985D01*
X153507144Y-194479985D02*
X153507144Y-194737128D01*
X153507144Y-194737128D02*
X153464287Y-194822842D01*
X153464287Y-194822842D02*
X153421429Y-194865700D01*
X153421429Y-194865700D02*
X153335715Y-194908557D01*
X153335715Y-194908557D02*
X153207144Y-194908557D01*
X153892858Y-194908557D02*
X153892858Y-194308557D01*
X153892858Y-194394271D02*
X153935715Y-194351414D01*
X153935715Y-194351414D02*
X154021430Y-194308557D01*
X154021430Y-194308557D02*
X154150001Y-194308557D01*
X154150001Y-194308557D02*
X154235715Y-194351414D01*
X154235715Y-194351414D02*
X154278573Y-194437128D01*
X154278573Y-194437128D02*
X154278573Y-194908557D01*
X154278573Y-194437128D02*
X154321430Y-194351414D01*
X154321430Y-194351414D02*
X154407144Y-194308557D01*
X154407144Y-194308557D02*
X154535715Y-194308557D01*
X154535715Y-194308557D02*
X154621430Y-194351414D01*
X154621430Y-194351414D02*
X154664287Y-194437128D01*
X154664287Y-194437128D02*
X154664287Y-194908557D01*
D11*
X103857142Y-189853259D02*
X103523809Y-189377068D01*
X103285714Y-189853259D02*
X103285714Y-188853259D01*
X103285714Y-188853259D02*
X103666666Y-188853259D01*
X103666666Y-188853259D02*
X103761904Y-188900878D01*
X103761904Y-188900878D02*
X103809523Y-188948497D01*
X103809523Y-188948497D02*
X103857142Y-189043735D01*
X103857142Y-189043735D02*
X103857142Y-189186592D01*
X103857142Y-189186592D02*
X103809523Y-189281830D01*
X103809523Y-189281830D02*
X103761904Y-189329449D01*
X103761904Y-189329449D02*
X103666666Y-189377068D01*
X103666666Y-189377068D02*
X103285714Y-189377068D01*
X104285714Y-189853259D02*
X104285714Y-188853259D01*
X104714285Y-189805640D02*
X104857142Y-189853259D01*
X104857142Y-189853259D02*
X105095237Y-189853259D01*
X105095237Y-189853259D02*
X105190475Y-189805640D01*
X105190475Y-189805640D02*
X105238094Y-189758020D01*
X105238094Y-189758020D02*
X105285713Y-189662782D01*
X105285713Y-189662782D02*
X105285713Y-189567544D01*
X105285713Y-189567544D02*
X105238094Y-189472306D01*
X105238094Y-189472306D02*
X105190475Y-189424687D01*
X105190475Y-189424687D02*
X105095237Y-189377068D01*
X105095237Y-189377068D02*
X104904761Y-189329449D01*
X104904761Y-189329449D02*
X104809523Y-189281830D01*
X104809523Y-189281830D02*
X104761904Y-189234211D01*
X104761904Y-189234211D02*
X104714285Y-189138973D01*
X104714285Y-189138973D02*
X104714285Y-189043735D01*
X104714285Y-189043735D02*
X104761904Y-188948497D01*
X104761904Y-188948497D02*
X104809523Y-188900878D01*
X104809523Y-188900878D02*
X104904761Y-188853259D01*
X104904761Y-188853259D02*
X105142856Y-188853259D01*
X105142856Y-188853259D02*
X105285713Y-188900878D01*
X105714285Y-189853259D02*
X105714285Y-188853259D01*
X106285713Y-189853259D02*
X105857142Y-189281830D01*
X106285713Y-188853259D02*
X105714285Y-189424687D01*
X107666666Y-188853259D02*
X107857142Y-188853259D01*
X107857142Y-188853259D02*
X107952380Y-188900878D01*
X107952380Y-188900878D02*
X108047618Y-188996116D01*
X108047618Y-188996116D02*
X108095237Y-189186592D01*
X108095237Y-189186592D02*
X108095237Y-189519925D01*
X108095237Y-189519925D02*
X108047618Y-189710401D01*
X108047618Y-189710401D02*
X107952380Y-189805640D01*
X107952380Y-189805640D02*
X107857142Y-189853259D01*
X107857142Y-189853259D02*
X107666666Y-189853259D01*
X107666666Y-189853259D02*
X107571428Y-189805640D01*
X107571428Y-189805640D02*
X107476190Y-189710401D01*
X107476190Y-189710401D02*
X107428571Y-189519925D01*
X107428571Y-189519925D02*
X107428571Y-189186592D01*
X107428571Y-189186592D02*
X107476190Y-188996116D01*
X107476190Y-188996116D02*
X107571428Y-188900878D01*
X107571428Y-188900878D02*
X107666666Y-188853259D01*
X108857142Y-189329449D02*
X108523809Y-189329449D01*
X108523809Y-189853259D02*
X108523809Y-188853259D01*
X108523809Y-188853259D02*
X108999999Y-188853259D01*
X110095238Y-189805640D02*
X110238095Y-189853259D01*
X110238095Y-189853259D02*
X110476190Y-189853259D01*
X110476190Y-189853259D02*
X110571428Y-189805640D01*
X110571428Y-189805640D02*
X110619047Y-189758020D01*
X110619047Y-189758020D02*
X110666666Y-189662782D01*
X110666666Y-189662782D02*
X110666666Y-189567544D01*
X110666666Y-189567544D02*
X110619047Y-189472306D01*
X110619047Y-189472306D02*
X110571428Y-189424687D01*
X110571428Y-189424687D02*
X110476190Y-189377068D01*
X110476190Y-189377068D02*
X110285714Y-189329449D01*
X110285714Y-189329449D02*
X110190476Y-189281830D01*
X110190476Y-189281830D02*
X110142857Y-189234211D01*
X110142857Y-189234211D02*
X110095238Y-189138973D01*
X110095238Y-189138973D02*
X110095238Y-189043735D01*
X110095238Y-189043735D02*
X110142857Y-188948497D01*
X110142857Y-188948497D02*
X110190476Y-188900878D01*
X110190476Y-188900878D02*
X110285714Y-188853259D01*
X110285714Y-188853259D02*
X110523809Y-188853259D01*
X110523809Y-188853259D02*
X110666666Y-188900878D01*
X111095238Y-189853259D02*
X111095238Y-188853259D01*
X111095238Y-189329449D02*
X111666666Y-189329449D01*
X111666666Y-189853259D02*
X111666666Y-188853259D01*
X112333333Y-188853259D02*
X112523809Y-188853259D01*
X112523809Y-188853259D02*
X112619047Y-188900878D01*
X112619047Y-188900878D02*
X112714285Y-188996116D01*
X112714285Y-188996116D02*
X112761904Y-189186592D01*
X112761904Y-189186592D02*
X112761904Y-189519925D01*
X112761904Y-189519925D02*
X112714285Y-189710401D01*
X112714285Y-189710401D02*
X112619047Y-189805640D01*
X112619047Y-189805640D02*
X112523809Y-189853259D01*
X112523809Y-189853259D02*
X112333333Y-189853259D01*
X112333333Y-189853259D02*
X112238095Y-189805640D01*
X112238095Y-189805640D02*
X112142857Y-189710401D01*
X112142857Y-189710401D02*
X112095238Y-189519925D01*
X112095238Y-189519925D02*
X112095238Y-189186592D01*
X112095238Y-189186592D02*
X112142857Y-188996116D01*
X112142857Y-188996116D02*
X112238095Y-188900878D01*
X112238095Y-188900878D02*
X112333333Y-188853259D01*
X113761904Y-189758020D02*
X113714285Y-189805640D01*
X113714285Y-189805640D02*
X113571428Y-189853259D01*
X113571428Y-189853259D02*
X113476190Y-189853259D01*
X113476190Y-189853259D02*
X113333333Y-189805640D01*
X113333333Y-189805640D02*
X113238095Y-189710401D01*
X113238095Y-189710401D02*
X113190476Y-189615163D01*
X113190476Y-189615163D02*
X113142857Y-189424687D01*
X113142857Y-189424687D02*
X113142857Y-189281830D01*
X113142857Y-189281830D02*
X113190476Y-189091354D01*
X113190476Y-189091354D02*
X113238095Y-188996116D01*
X113238095Y-188996116D02*
X113333333Y-188900878D01*
X113333333Y-188900878D02*
X113476190Y-188853259D01*
X113476190Y-188853259D02*
X113571428Y-188853259D01*
X113571428Y-188853259D02*
X113714285Y-188900878D01*
X113714285Y-188900878D02*
X113761904Y-188948497D01*
X114190476Y-189853259D02*
X114190476Y-188853259D01*
X114761904Y-189853259D02*
X114333333Y-189281830D01*
X114761904Y-188853259D02*
X114190476Y-189424687D01*
D12*
X132107144Y-82930457D02*
X132050001Y-82987600D01*
X132050001Y-82987600D02*
X131878573Y-83044742D01*
X131878573Y-83044742D02*
X131764287Y-83044742D01*
X131764287Y-83044742D02*
X131592858Y-82987600D01*
X131592858Y-82987600D02*
X131478573Y-82873314D01*
X131478573Y-82873314D02*
X131421430Y-82759028D01*
X131421430Y-82759028D02*
X131364287Y-82530457D01*
X131364287Y-82530457D02*
X131364287Y-82359028D01*
X131364287Y-82359028D02*
X131421430Y-82130457D01*
X131421430Y-82130457D02*
X131478573Y-82016171D01*
X131478573Y-82016171D02*
X131592858Y-81901885D01*
X131592858Y-81901885D02*
X131764287Y-81844742D01*
X131764287Y-81844742D02*
X131878573Y-81844742D01*
X131878573Y-81844742D02*
X132050001Y-81901885D01*
X132050001Y-81901885D02*
X132107144Y-81959028D01*
X132621430Y-83044742D02*
X132621430Y-82244742D01*
X132621430Y-81844742D02*
X132564287Y-81901885D01*
X132564287Y-81901885D02*
X132621430Y-81959028D01*
X132621430Y-81959028D02*
X132678573Y-81901885D01*
X132678573Y-81901885D02*
X132621430Y-81844742D01*
X132621430Y-81844742D02*
X132621430Y-81959028D01*
X133192859Y-83044742D02*
X133192859Y-82244742D01*
X133192859Y-82473314D02*
X133250002Y-82359028D01*
X133250002Y-82359028D02*
X133307145Y-82301885D01*
X133307145Y-82301885D02*
X133421430Y-82244742D01*
X133421430Y-82244742D02*
X133535716Y-82244742D01*
X134450002Y-82987600D02*
X134335716Y-83044742D01*
X134335716Y-83044742D02*
X134107144Y-83044742D01*
X134107144Y-83044742D02*
X133992859Y-82987600D01*
X133992859Y-82987600D02*
X133935716Y-82930457D01*
X133935716Y-82930457D02*
X133878573Y-82816171D01*
X133878573Y-82816171D02*
X133878573Y-82473314D01*
X133878573Y-82473314D02*
X133935716Y-82359028D01*
X133935716Y-82359028D02*
X133992859Y-82301885D01*
X133992859Y-82301885D02*
X134107144Y-82244742D01*
X134107144Y-82244742D02*
X134335716Y-82244742D01*
X134335716Y-82244742D02*
X134450002Y-82301885D01*
X135478573Y-82244742D02*
X135478573Y-83044742D01*
X134964287Y-82244742D02*
X134964287Y-82873314D01*
X134964287Y-82873314D02*
X135021430Y-82987600D01*
X135021430Y-82987600D02*
X135135715Y-83044742D01*
X135135715Y-83044742D02*
X135307144Y-83044742D01*
X135307144Y-83044742D02*
X135421430Y-82987600D01*
X135421430Y-82987600D02*
X135478573Y-82930457D01*
X135935715Y-82244742D02*
X136221429Y-83044742D01*
X136221429Y-83044742D02*
X136507144Y-82244742D01*
X137421430Y-82987600D02*
X137307144Y-83044742D01*
X137307144Y-83044742D02*
X137078573Y-83044742D01*
X137078573Y-83044742D02*
X136964287Y-82987600D01*
X136964287Y-82987600D02*
X136907144Y-82873314D01*
X136907144Y-82873314D02*
X136907144Y-82416171D01*
X136907144Y-82416171D02*
X136964287Y-82301885D01*
X136964287Y-82301885D02*
X137078573Y-82244742D01*
X137078573Y-82244742D02*
X137307144Y-82244742D01*
X137307144Y-82244742D02*
X137421430Y-82301885D01*
X137421430Y-82301885D02*
X137478573Y-82416171D01*
X137478573Y-82416171D02*
X137478573Y-82530457D01*
X137478573Y-82530457D02*
X136907144Y-82644742D01*
X137992858Y-82244742D02*
X137992858Y-83044742D01*
X137992858Y-82359028D02*
X138050001Y-82301885D01*
X138050001Y-82301885D02*
X138164286Y-82244742D01*
X138164286Y-82244742D02*
X138335715Y-82244742D01*
X138335715Y-82244742D02*
X138450001Y-82301885D01*
X138450001Y-82301885D02*
X138507144Y-82416171D01*
X138507144Y-82416171D02*
X138507144Y-83044742D01*
X138907143Y-82244742D02*
X139364286Y-82244742D01*
X139078572Y-81844742D02*
X139078572Y-82873314D01*
X139078572Y-82873314D02*
X139135715Y-82987600D01*
X139135715Y-82987600D02*
X139250000Y-83044742D01*
X139250000Y-83044742D02*
X139364286Y-83044742D01*
X140507143Y-81844742D02*
X141192858Y-81844742D01*
X140850000Y-83044742D02*
X140850000Y-81844742D01*
X141764286Y-83044742D02*
X141650001Y-82987600D01*
X141650001Y-82987600D02*
X141592858Y-82930457D01*
X141592858Y-82930457D02*
X141535715Y-82816171D01*
X141535715Y-82816171D02*
X141535715Y-82473314D01*
X141535715Y-82473314D02*
X141592858Y-82359028D01*
X141592858Y-82359028D02*
X141650001Y-82301885D01*
X141650001Y-82301885D02*
X141764286Y-82244742D01*
X141764286Y-82244742D02*
X141935715Y-82244742D01*
X141935715Y-82244742D02*
X142050001Y-82301885D01*
X142050001Y-82301885D02*
X142107144Y-82359028D01*
X142107144Y-82359028D02*
X142164286Y-82473314D01*
X142164286Y-82473314D02*
X142164286Y-82816171D01*
X142164286Y-82816171D02*
X142107144Y-82930457D01*
X142107144Y-82930457D02*
X142050001Y-82987600D01*
X142050001Y-82987600D02*
X141935715Y-83044742D01*
X141935715Y-83044742D02*
X141764286Y-83044742D01*
X143192858Y-82244742D02*
X143192858Y-83044742D01*
X142678572Y-82244742D02*
X142678572Y-82873314D01*
X142678572Y-82873314D02*
X142735715Y-82987600D01*
X142735715Y-82987600D02*
X142850000Y-83044742D01*
X142850000Y-83044742D02*
X143021429Y-83044742D01*
X143021429Y-83044742D02*
X143135715Y-82987600D01*
X143135715Y-82987600D02*
X143192858Y-82930457D01*
X144278572Y-82987600D02*
X144164286Y-83044742D01*
X144164286Y-83044742D02*
X143935714Y-83044742D01*
X143935714Y-83044742D02*
X143821429Y-82987600D01*
X143821429Y-82987600D02*
X143764286Y-82930457D01*
X143764286Y-82930457D02*
X143707143Y-82816171D01*
X143707143Y-82816171D02*
X143707143Y-82473314D01*
X143707143Y-82473314D02*
X143764286Y-82359028D01*
X143764286Y-82359028D02*
X143821429Y-82301885D01*
X143821429Y-82301885D02*
X143935714Y-82244742D01*
X143935714Y-82244742D02*
X144164286Y-82244742D01*
X144164286Y-82244742D02*
X144278572Y-82301885D01*
X144792857Y-83044742D02*
X144792857Y-81844742D01*
X145307143Y-83044742D02*
X145307143Y-82416171D01*
X145307143Y-82416171D02*
X145250000Y-82301885D01*
X145250000Y-82301885D02*
X145135714Y-82244742D01*
X145135714Y-82244742D02*
X144964285Y-82244742D01*
X144964285Y-82244742D02*
X144850000Y-82301885D01*
X144850000Y-82301885D02*
X144792857Y-82359028D01*
X146735714Y-82987600D02*
X146907143Y-83044742D01*
X146907143Y-83044742D02*
X147192857Y-83044742D01*
X147192857Y-83044742D02*
X147307143Y-82987600D01*
X147307143Y-82987600D02*
X147364285Y-82930457D01*
X147364285Y-82930457D02*
X147421428Y-82816171D01*
X147421428Y-82816171D02*
X147421428Y-82701885D01*
X147421428Y-82701885D02*
X147364285Y-82587600D01*
X147364285Y-82587600D02*
X147307143Y-82530457D01*
X147307143Y-82530457D02*
X147192857Y-82473314D01*
X147192857Y-82473314D02*
X146964285Y-82416171D01*
X146964285Y-82416171D02*
X146850000Y-82359028D01*
X146850000Y-82359028D02*
X146792857Y-82301885D01*
X146792857Y-82301885D02*
X146735714Y-82187600D01*
X146735714Y-82187600D02*
X146735714Y-82073314D01*
X146735714Y-82073314D02*
X146792857Y-81959028D01*
X146792857Y-81959028D02*
X146850000Y-81901885D01*
X146850000Y-81901885D02*
X146964285Y-81844742D01*
X146964285Y-81844742D02*
X147250000Y-81844742D01*
X147250000Y-81844742D02*
X147421428Y-81901885D01*
X147821428Y-82244742D02*
X148050000Y-83044742D01*
X148050000Y-83044742D02*
X148278571Y-82473314D01*
X148278571Y-82473314D02*
X148507142Y-83044742D01*
X148507142Y-83044742D02*
X148735714Y-82244742D01*
X149192857Y-83044742D02*
X149192857Y-82244742D01*
X149192857Y-81844742D02*
X149135714Y-81901885D01*
X149135714Y-81901885D02*
X149192857Y-81959028D01*
X149192857Y-81959028D02*
X149250000Y-81901885D01*
X149250000Y-81901885D02*
X149192857Y-81844742D01*
X149192857Y-81844742D02*
X149192857Y-81959028D01*
X149592857Y-82244742D02*
X150050000Y-82244742D01*
X149764286Y-81844742D02*
X149764286Y-82873314D01*
X149764286Y-82873314D02*
X149821429Y-82987600D01*
X149821429Y-82987600D02*
X149935714Y-83044742D01*
X149935714Y-83044742D02*
X150050000Y-83044742D01*
X150964286Y-82987600D02*
X150850000Y-83044742D01*
X150850000Y-83044742D02*
X150621428Y-83044742D01*
X150621428Y-83044742D02*
X150507143Y-82987600D01*
X150507143Y-82987600D02*
X150450000Y-82930457D01*
X150450000Y-82930457D02*
X150392857Y-82816171D01*
X150392857Y-82816171D02*
X150392857Y-82473314D01*
X150392857Y-82473314D02*
X150450000Y-82359028D01*
X150450000Y-82359028D02*
X150507143Y-82301885D01*
X150507143Y-82301885D02*
X150621428Y-82244742D01*
X150621428Y-82244742D02*
X150850000Y-82244742D01*
X150850000Y-82244742D02*
X150964286Y-82301885D01*
X151478571Y-83044742D02*
X151478571Y-81844742D01*
X151992857Y-83044742D02*
X151992857Y-82416171D01*
X151992857Y-82416171D02*
X151935714Y-82301885D01*
X151935714Y-82301885D02*
X151821428Y-82244742D01*
X151821428Y-82244742D02*
X151649999Y-82244742D01*
X151649999Y-82244742D02*
X151535714Y-82301885D01*
X151535714Y-82301885D02*
X151478571Y-82359028D01*
X152564285Y-83044742D02*
X152564285Y-81844742D01*
X152564285Y-82301885D02*
X152678571Y-82244742D01*
X152678571Y-82244742D02*
X152907142Y-82244742D01*
X152907142Y-82244742D02*
X153021428Y-82301885D01*
X153021428Y-82301885D02*
X153078571Y-82359028D01*
X153078571Y-82359028D02*
X153135713Y-82473314D01*
X153135713Y-82473314D02*
X153135713Y-82816171D01*
X153135713Y-82816171D02*
X153078571Y-82930457D01*
X153078571Y-82930457D02*
X153021428Y-82987600D01*
X153021428Y-82987600D02*
X152907142Y-83044742D01*
X152907142Y-83044742D02*
X152678571Y-83044742D01*
X152678571Y-83044742D02*
X152564285Y-82987600D01*
X153821427Y-83044742D02*
X153707142Y-82987600D01*
X153707142Y-82987600D02*
X153649999Y-82930457D01*
X153649999Y-82930457D02*
X153592856Y-82816171D01*
X153592856Y-82816171D02*
X153592856Y-82473314D01*
X153592856Y-82473314D02*
X153649999Y-82359028D01*
X153649999Y-82359028D02*
X153707142Y-82301885D01*
X153707142Y-82301885D02*
X153821427Y-82244742D01*
X153821427Y-82244742D02*
X153992856Y-82244742D01*
X153992856Y-82244742D02*
X154107142Y-82301885D01*
X154107142Y-82301885D02*
X154164285Y-82359028D01*
X154164285Y-82359028D02*
X154221427Y-82473314D01*
X154221427Y-82473314D02*
X154221427Y-82816171D01*
X154221427Y-82816171D02*
X154164285Y-82930457D01*
X154164285Y-82930457D02*
X154107142Y-82987600D01*
X154107142Y-82987600D02*
X153992856Y-83044742D01*
X153992856Y-83044742D02*
X153821427Y-83044742D01*
X155249999Y-83044742D02*
X155249999Y-82416171D01*
X155249999Y-82416171D02*
X155192856Y-82301885D01*
X155192856Y-82301885D02*
X155078570Y-82244742D01*
X155078570Y-82244742D02*
X154849999Y-82244742D01*
X154849999Y-82244742D02*
X154735713Y-82301885D01*
X155249999Y-82987600D02*
X155135713Y-83044742D01*
X155135713Y-83044742D02*
X154849999Y-83044742D01*
X154849999Y-83044742D02*
X154735713Y-82987600D01*
X154735713Y-82987600D02*
X154678570Y-82873314D01*
X154678570Y-82873314D02*
X154678570Y-82759028D01*
X154678570Y-82759028D02*
X154735713Y-82644742D01*
X154735713Y-82644742D02*
X154849999Y-82587600D01*
X154849999Y-82587600D02*
X155135713Y-82587600D01*
X155135713Y-82587600D02*
X155249999Y-82530457D01*
X155821427Y-83044742D02*
X155821427Y-82244742D01*
X155821427Y-82473314D02*
X155878570Y-82359028D01*
X155878570Y-82359028D02*
X155935713Y-82301885D01*
X155935713Y-82301885D02*
X156049998Y-82244742D01*
X156049998Y-82244742D02*
X156164284Y-82244742D01*
X157078570Y-83044742D02*
X157078570Y-81844742D01*
X157078570Y-82987600D02*
X156964284Y-83044742D01*
X156964284Y-83044742D02*
X156735712Y-83044742D01*
X156735712Y-83044742D02*
X156621427Y-82987600D01*
X156621427Y-82987600D02*
X156564284Y-82930457D01*
X156564284Y-82930457D02*
X156507141Y-82816171D01*
X156507141Y-82816171D02*
X156507141Y-82473314D01*
X156507141Y-82473314D02*
X156564284Y-82359028D01*
X156564284Y-82359028D02*
X156621427Y-82301885D01*
X156621427Y-82301885D02*
X156735712Y-82244742D01*
X156735712Y-82244742D02*
X156964284Y-82244742D01*
X156964284Y-82244742D02*
X157078570Y-82301885D01*
D10*
X170603095Y-149109819D02*
X170603095Y-148109819D01*
X171174523Y-149109819D02*
X170745952Y-148538390D01*
X171174523Y-148109819D02*
X170603095Y-148681247D01*
X159089819Y-166976904D02*
X158089819Y-166976904D01*
X159089819Y-166405476D02*
X158518390Y-166834047D01*
X158089819Y-166405476D02*
X158661247Y-166976904D01*
X170603095Y-153399819D02*
X170603095Y-152399819D01*
X171174523Y-153399819D02*
X170745952Y-152828390D01*
X171174523Y-152399819D02*
X170603095Y-152971247D01*
%TO.C,F1*%
D13*
X106545000Y-138225000D02*
X106545000Y-144225000D01*
X106545000Y-144225000D02*
X108095000Y-144225000D01*
X106545000Y-153225000D02*
X106545000Y-159225000D01*
X106545000Y-153225000D02*
X108095000Y-153225000D01*
X106545000Y-159225000D02*
X108095000Y-159225000D01*
X106695000Y-144225000D02*
X106695000Y-153225000D01*
X108095000Y-138225000D02*
X106545000Y-138225000D01*
X110295000Y-138225000D02*
X111845000Y-138225000D01*
X111695000Y-144225000D02*
X111695000Y-153225000D01*
X111845000Y-144225000D02*
X110295000Y-144225000D01*
X111845000Y-144225000D02*
X111845000Y-138225000D01*
X111845000Y-153225000D02*
X110295000Y-153225000D01*
X111845000Y-153225000D02*
X111845000Y-159225000D01*
X111845000Y-159225000D02*
X110295000Y-159225000D01*
%TO.C,D1*%
X172205000Y-150755000D02*
X173225000Y-150755000D01*
X174005000Y-149285000D02*
X174005000Y-152225000D01*
X174125000Y-149285000D02*
X174125000Y-152225000D01*
X174245000Y-149285000D02*
X174245000Y-152225000D01*
X179685000Y-150755000D02*
X178665000Y-150755000D01*
X173225000Y-149285000D02*
X178665000Y-149285000D01*
X178665000Y-152225000D01*
X173225000Y-152225000D01*
X173225000Y-149285000D01*
%TO.C,JP*%
X151635000Y-155665000D02*
X153015000Y-155665000D01*
X151635000Y-157045000D02*
X151635000Y-155665000D01*
X151635000Y-158315000D02*
X151635000Y-163505000D01*
X151635000Y-158315000D02*
X154395000Y-158315000D01*
X151635000Y-163505000D02*
X154395000Y-163505000D01*
X154395000Y-158315000D02*
X154395000Y-163505000D01*
%TO.C,J3*%
X124535000Y-178045000D02*
X139775000Y-178045000D01*
X124535000Y-181065000D02*
X139775000Y-181065000D01*
X124535000Y-185965000D02*
X139775000Y-185965000D01*
X124535000Y-187465000D02*
X139775000Y-187465000D01*
X124535000Y-188085000D02*
X124535000Y-178045000D01*
X126855000Y-188085000D02*
X124535000Y-188085000D01*
X139775000Y-178045000D02*
X139775000Y-188085000D01*
X139775000Y-188085000D02*
X127455000Y-188085000D01*
X127155000Y-188085000D02*
X127595000Y-188695000D01*
X126715000Y-188695000D01*
X127155000Y-188085000D01*
G36*
X127595000Y-188695000D02*
G01*
X126715000Y-188695000D01*
X127155000Y-188085000D01*
X127595000Y-188695000D01*
G37*
%TO.C,U6*%
X142885000Y-177795000D02*
X147005000Y-177795000D01*
X142885000Y-177890000D02*
X142885000Y-177795000D01*
X142885000Y-182915000D02*
X142885000Y-182820000D01*
X147005000Y-177795000D02*
X147005000Y-177890000D01*
X147005000Y-182820000D02*
X147005000Y-182915000D01*
X147005000Y-182915000D02*
X142885000Y-182915000D01*
X142345000Y-177885000D02*
X142105000Y-177555000D01*
X142585000Y-177555000D01*
X142345000Y-177885000D01*
G36*
X142345000Y-177885000D02*
G01*
X142105000Y-177555000D01*
X142585000Y-177555000D01*
X142345000Y-177885000D01*
G37*
%TO.C,LED2*%
X180775000Y-158709000D02*
X180775000Y-158865000D01*
X180775000Y-161025000D02*
X180775000Y-161181000D01*
X180775000Y-158709484D02*
G75*
G02*
X184006437Y-158865000I1560000J-1235516D01*
G01*
X181294039Y-158865000D02*
G75*
G02*
X183375961Y-158865000I1040961J-1080000D01*
G01*
X183375961Y-161025000D02*
G75*
G02*
X181294039Y-161025000I-1040961J1080000D01*
G01*
X184006437Y-161025000D02*
G75*
G02*
X180775000Y-161180516I-1671437J1080000D01*
G01*
%TO.C,LED3*%
X168915000Y-164219000D02*
X168915000Y-164375000D01*
X168915000Y-166535000D02*
X168915000Y-166691000D01*
X168915000Y-164219484D02*
G75*
G02*
X172146437Y-164375000I1560000J-1235516D01*
G01*
X169434039Y-164375000D02*
G75*
G02*
X171515961Y-164375000I1040961J-1080000D01*
G01*
X171515961Y-166535000D02*
G75*
G02*
X169434039Y-166535000I-1040961J1080000D01*
G01*
X172146437Y-166535000D02*
G75*
G02*
X168915000Y-166690516I-1671437J1080000D01*
G01*
%TO.C,SW1*%
X164085000Y-138795000D02*
X164085000Y-140295000D01*
X165335000Y-142795000D02*
X169835000Y-142795000D01*
X169835000Y-136295000D02*
X165335000Y-136295000D01*
X171085000Y-140295000D02*
X171085000Y-138795000D01*
%TO.C,U2*%
X176535000Y-163435000D02*
X180295000Y-163435000D01*
X176535000Y-170255000D02*
X180295000Y-170255000D01*
X180295000Y-163435000D02*
X180295000Y-164695000D01*
X180295000Y-170255000D02*
X180295000Y-168995000D01*
X175255000Y-163535000D02*
X175015000Y-163205000D01*
X175495000Y-163205000D01*
X175255000Y-163535000D01*
G36*
X175255000Y-163535000D02*
G01*
X175015000Y-163205000D01*
X175495000Y-163205000D01*
X175255000Y-163535000D01*
G37*
%TO.C,J2*%
X106685000Y-114765000D02*
X116725000Y-114765000D01*
X106685000Y-130005000D02*
X106685000Y-114765000D01*
X109705000Y-130005000D02*
X109705000Y-114765000D01*
X114605000Y-130005000D02*
X114605000Y-114765000D01*
X116105000Y-130005000D02*
X116105000Y-114765000D01*
X116725000Y-114765000D02*
X116725000Y-127085000D01*
X116725000Y-127685000D02*
X116725000Y-130005000D01*
X116725000Y-130005000D02*
X106685000Y-130005000D01*
X116725000Y-127385000D02*
X117335000Y-126945000D01*
X117335000Y-127825000D01*
X116725000Y-127385000D01*
G36*
X117335000Y-127825000D02*
G01*
X116725000Y-127385000D01*
X117335000Y-126945000D01*
X117335000Y-127825000D01*
G37*
%TO.C,D3*%
X159265000Y-163335000D02*
X162205000Y-163335000D01*
X159265000Y-163455000D02*
X162205000Y-163455000D01*
X159265000Y-163575000D02*
X162205000Y-163575000D01*
X160735000Y-157895000D02*
X160735000Y-158915000D01*
X160735000Y-165375000D02*
X160735000Y-164355000D01*
X159265000Y-158915000D02*
X162205000Y-158915000D01*
X162205000Y-164355000D01*
X159265000Y-164355000D01*
X159265000Y-158915000D01*
%TO.C,PS1*%
X124295000Y-88435000D02*
X147015000Y-88435000D01*
X124295000Y-125455000D02*
X124295000Y-88435000D01*
X132859000Y-125455000D02*
X124295000Y-125455000D01*
X147015000Y-88435000D02*
X147015000Y-125455000D01*
X147015000Y-125455000D02*
X133451000Y-125455000D01*
X133155000Y-125455000D02*
X133595000Y-126065000D01*
X132715000Y-126065000D01*
X133155000Y-125455000D01*
G36*
X133595000Y-126065000D02*
G01*
X132715000Y-126065000D01*
X133155000Y-125455000D01*
X133595000Y-126065000D01*
G37*
%TO.C,TP3*%
X161336300Y-152225000D02*
G75*
G02*
X159436300Y-152225000I-950000J0D01*
G01*
X159436300Y-152225000D02*
G75*
G02*
X161336300Y-152225000I950000J0D01*
G01*
%TO.C,J4*%
X163815000Y-155595000D02*
X165195000Y-155595000D01*
X163815000Y-156975000D02*
X163815000Y-155595000D01*
X163815000Y-158245000D02*
X163815000Y-163435000D01*
X163815000Y-158245000D02*
X166575000Y-158245000D01*
X163815000Y-163435000D02*
X166575000Y-163435000D01*
X166575000Y-158245000D02*
X166575000Y-163435000D01*
%TO.C,LED1*%
X174845000Y-158709000D02*
X174845000Y-158865000D01*
X174845000Y-161025000D02*
X174845000Y-161181000D01*
X174845000Y-158709484D02*
G75*
G02*
X178076437Y-158865000I1560000J-1235516D01*
G01*
X175364039Y-158865000D02*
G75*
G02*
X177445961Y-158865000I1040961J-1080000D01*
G01*
X177445961Y-161025000D02*
G75*
G02*
X175364039Y-161025000I-1040961J1080000D01*
G01*
X178076437Y-161025000D02*
G75*
G02*
X174845000Y-161180516I-1671437J1080000D01*
G01*
%TO.C,U5*%
X163025000Y-146595000D02*
X163025000Y-148245000D01*
X163025000Y-150245000D02*
X163025000Y-151895000D01*
X163025000Y-151895000D02*
X168225000Y-151895000D01*
X168225000Y-146595000D02*
X163025000Y-146595000D01*
X168225000Y-151895000D02*
X168225000Y-146595000D01*
X163025000Y-148245000D02*
G75*
G02*
X163025000Y-150245000I0J-1000000D01*
G01*
%TO.C,TP1*%
X171716300Y-145635000D02*
G75*
G02*
X169816300Y-145635000I-950000J0D01*
G01*
X169816300Y-145635000D02*
G75*
G02*
X171716300Y-145635000I950000J0D01*
G01*
%TO.C,U3*%
X175645000Y-135985000D02*
X175645000Y-141185000D01*
X175645000Y-141185000D02*
X180945000Y-141185000D01*
X177295000Y-135985000D02*
X175645000Y-135985000D01*
X180945000Y-135985000D02*
X179295000Y-135985000D01*
X180945000Y-141185000D02*
X180945000Y-135985000D01*
X179295000Y-135985000D02*
G75*
G02*
X177295000Y-135985000I-1000000J0D01*
G01*
%TO.C,K1*%
X124305000Y-126835000D02*
X124305000Y-133435000D01*
X124305000Y-126835000D02*
X144105000Y-126835000D01*
X124305000Y-135835000D02*
X124305000Y-142435000D01*
X128355000Y-134685000D02*
X127555000Y-134685000D01*
X128355000Y-134685000D02*
X128355000Y-138285000D01*
X129255000Y-140685000D02*
X131755000Y-140685000D01*
X129755000Y-132885000D02*
X133755000Y-132885000D01*
X129755000Y-136485000D02*
X129755000Y-132885000D01*
X131755000Y-128685000D02*
X129255000Y-128685000D01*
X131755000Y-128685000D02*
X131755000Y-132885000D01*
X131755000Y-136485000D02*
X131755000Y-140685000D01*
X133755000Y-132885000D02*
X133755000Y-136485000D01*
X133755000Y-136485000D02*
X129755000Y-132885000D01*
X133755000Y-136485000D02*
X129755000Y-136485000D01*
X135155000Y-134685000D02*
X135155000Y-138285000D01*
X135155000Y-134685000D02*
X136655000Y-134685000D01*
X135155000Y-138285000D02*
X128355000Y-138285000D01*
X136655000Y-134685000D02*
X141255000Y-132185000D01*
X139855000Y-130435000D02*
X139855000Y-132935000D01*
X139855000Y-138835000D02*
X139855000Y-136385000D01*
X144105000Y-126835000D02*
X144105000Y-142435000D01*
X144105000Y-142435000D02*
X124305000Y-142435000D01*
%TO.C,K3*%
X124305000Y-160815000D02*
X124305000Y-167415000D01*
X124305000Y-160815000D02*
X144105000Y-160815000D01*
X124305000Y-169815000D02*
X124305000Y-176415000D01*
X128355000Y-168665000D02*
X127555000Y-168665000D01*
X128355000Y-168665000D02*
X128355000Y-172265000D01*
X129255000Y-174665000D02*
X131755000Y-174665000D01*
X129755000Y-166865000D02*
X133755000Y-166865000D01*
X129755000Y-170465000D02*
X129755000Y-166865000D01*
X131755000Y-162665000D02*
X129255000Y-162665000D01*
X131755000Y-162665000D02*
X131755000Y-166865000D01*
X131755000Y-170465000D02*
X131755000Y-174665000D01*
X133755000Y-166865000D02*
X133755000Y-170465000D01*
X133755000Y-170465000D02*
X129755000Y-166865000D01*
X133755000Y-170465000D02*
X129755000Y-170465000D01*
X135155000Y-168665000D02*
X135155000Y-172265000D01*
X135155000Y-168665000D02*
X136655000Y-168665000D01*
X135155000Y-172265000D02*
X128355000Y-172265000D01*
X136655000Y-168665000D02*
X141255000Y-166165000D01*
X139855000Y-164415000D02*
X139855000Y-166915000D01*
X139855000Y-172815000D02*
X139855000Y-170365000D01*
X144105000Y-160815000D02*
X144105000Y-176415000D01*
X144105000Y-176415000D02*
X124305000Y-176415000D01*
%TO.C,TP2*%
X161336300Y-148635000D02*
G75*
G02*
X159436300Y-148635000I-950000J0D01*
G01*
X159436300Y-148635000D02*
G75*
G02*
X161336300Y-148635000I950000J0D01*
G01*
%TO.C,U1*%
X159000000Y-120680000D02*
X159000000Y-119730000D01*
X160400000Y-120680000D02*
X159000000Y-120680000D01*
X176000000Y-120680000D02*
X177400000Y-120680000D01*
X177400000Y-120680000D02*
X177400000Y-119730000D01*
X159000000Y-101730000D02*
X158500000Y-101730000D01*
X159000000Y-101230000D01*
X159000000Y-101730000D01*
G36*
X159000000Y-101730000D02*
G01*
X158500000Y-101730000D01*
X159000000Y-101230000D01*
X159000000Y-101730000D01*
G37*
%TO.C,C2*%
X151143559Y-148946000D02*
X151773559Y-148946000D01*
X151458559Y-148631000D02*
X151458559Y-149261000D01*
X154643800Y-147555000D02*
X154643800Y-154015000D01*
X154683800Y-147555000D02*
X154683800Y-154015000D01*
X154723800Y-147556000D02*
X154723800Y-154014000D01*
X154763800Y-147557000D02*
X154763800Y-154013000D01*
X154803800Y-147559000D02*
X154803800Y-154011000D01*
X154843800Y-147561000D02*
X154843800Y-154009000D01*
X154883800Y-147564000D02*
X154883800Y-149745000D01*
X154883800Y-151825000D02*
X154883800Y-154006000D01*
X154923800Y-147567000D02*
X154923800Y-149745000D01*
X154923800Y-151825000D02*
X154923800Y-154003000D01*
X154963800Y-147571000D02*
X154963800Y-149745000D01*
X154963800Y-151825000D02*
X154963800Y-153999000D01*
X155003800Y-147575000D02*
X155003800Y-149745000D01*
X155003800Y-151825000D02*
X155003800Y-153995000D01*
X155043800Y-147580000D02*
X155043800Y-149745000D01*
X155043800Y-151825000D02*
X155043800Y-153990000D01*
X155083800Y-147585000D02*
X155083800Y-149745000D01*
X155083800Y-151825000D02*
X155083800Y-153985000D01*
X155123800Y-147590000D02*
X155123800Y-149745000D01*
X155123800Y-151825000D02*
X155123800Y-153980000D01*
X155163800Y-147597000D02*
X155163800Y-149745000D01*
X155163800Y-151825000D02*
X155163800Y-153973000D01*
X155203800Y-147603000D02*
X155203800Y-149745000D01*
X155203800Y-151825000D02*
X155203800Y-153967000D01*
X155243800Y-147611000D02*
X155243800Y-149745000D01*
X155243800Y-151825000D02*
X155243800Y-153959000D01*
X155283800Y-147618000D02*
X155283800Y-149745000D01*
X155283800Y-151825000D02*
X155283800Y-153952000D01*
X155323800Y-147626000D02*
X155323800Y-149745000D01*
X155323800Y-151825000D02*
X155323800Y-153944000D01*
X155363800Y-147635000D02*
X155363800Y-149745000D01*
X155363800Y-151825000D02*
X155363800Y-153935000D01*
X155403800Y-147645000D02*
X155403800Y-149745000D01*
X155403800Y-151825000D02*
X155403800Y-153925000D01*
X155443800Y-147654000D02*
X155443800Y-149745000D01*
X155443800Y-151825000D02*
X155443800Y-153916000D01*
X155483800Y-147665000D02*
X155483800Y-149745000D01*
X155483800Y-151825000D02*
X155483800Y-153905000D01*
X155523800Y-147676000D02*
X155523800Y-149745000D01*
X155523800Y-151825000D02*
X155523800Y-153894000D01*
X155563800Y-147687000D02*
X155563800Y-149745000D01*
X155563800Y-151825000D02*
X155563800Y-153883000D01*
X155603800Y-147699000D02*
X155603800Y-149745000D01*
X155603800Y-151825000D02*
X155603800Y-153871000D01*
X155643800Y-147712000D02*
X155643800Y-149745000D01*
X155643800Y-151825000D02*
X155643800Y-153858000D01*
X155683800Y-147725000D02*
X155683800Y-149745000D01*
X155683800Y-151825000D02*
X155683800Y-153845000D01*
X155723800Y-147738000D02*
X155723800Y-149745000D01*
X155723800Y-151825000D02*
X155723800Y-153832000D01*
X155763800Y-147753000D02*
X155763800Y-149745000D01*
X155763800Y-151825000D02*
X155763800Y-153817000D01*
X155803800Y-147768000D02*
X155803800Y-149745000D01*
X155803800Y-151825000D02*
X155803800Y-153802000D01*
X155843800Y-147783000D02*
X155843800Y-149745000D01*
X155843800Y-151825000D02*
X155843800Y-153787000D01*
X155883800Y-147799000D02*
X155883800Y-149745000D01*
X155883800Y-151825000D02*
X155883800Y-153771000D01*
X155923800Y-147816000D02*
X155923800Y-149745000D01*
X155923800Y-151825000D02*
X155923800Y-153754000D01*
X155963800Y-147833000D02*
X155963800Y-149745000D01*
X155963800Y-151825000D02*
X155963800Y-153737000D01*
X156003800Y-147851000D02*
X156003800Y-149745000D01*
X156003800Y-151825000D02*
X156003800Y-153719000D01*
X156043800Y-147870000D02*
X156043800Y-149745000D01*
X156043800Y-151825000D02*
X156043800Y-153700000D01*
X156083800Y-147889000D02*
X156083800Y-149745000D01*
X156083800Y-151825000D02*
X156083800Y-153681000D01*
X156123800Y-147909000D02*
X156123800Y-149745000D01*
X156123800Y-151825000D02*
X156123800Y-153661000D01*
X156163800Y-147930000D02*
X156163800Y-149745000D01*
X156163800Y-151825000D02*
X156163800Y-153640000D01*
X156203800Y-147951000D02*
X156203800Y-149745000D01*
X156203800Y-151825000D02*
X156203800Y-153619000D01*
X156243800Y-147973000D02*
X156243800Y-149745000D01*
X156243800Y-151825000D02*
X156243800Y-153597000D01*
X156283800Y-147996000D02*
X156283800Y-149745000D01*
X156283800Y-151825000D02*
X156283800Y-153574000D01*
X156323800Y-148020000D02*
X156323800Y-149745000D01*
X156323800Y-151825000D02*
X156323800Y-153550000D01*
X156363800Y-148044000D02*
X156363800Y-149745000D01*
X156363800Y-151825000D02*
X156363800Y-153526000D01*
X156403800Y-148069000D02*
X156403800Y-149745000D01*
X156403800Y-151825000D02*
X156403800Y-153501000D01*
X156443800Y-148095000D02*
X156443800Y-149745000D01*
X156443800Y-151825000D02*
X156443800Y-153475000D01*
X156483800Y-148122000D02*
X156483800Y-149745000D01*
X156483800Y-151825000D02*
X156483800Y-153448000D01*
X156523800Y-148149000D02*
X156523800Y-149745000D01*
X156523800Y-151825000D02*
X156523800Y-153421000D01*
X156563800Y-148178000D02*
X156563800Y-149745000D01*
X156563800Y-151825000D02*
X156563800Y-153392000D01*
X156603800Y-148208000D02*
X156603800Y-149745000D01*
X156603800Y-151825000D02*
X156603800Y-153362000D01*
X156643800Y-148238000D02*
X156643800Y-149745000D01*
X156643800Y-151825000D02*
X156643800Y-153332000D01*
X156683800Y-148269000D02*
X156683800Y-149745000D01*
X156683800Y-151825000D02*
X156683800Y-153301000D01*
X156723800Y-148302000D02*
X156723800Y-149745000D01*
X156723800Y-151825000D02*
X156723800Y-153268000D01*
X156763800Y-148335000D02*
X156763800Y-149745000D01*
X156763800Y-151825000D02*
X156763800Y-153235000D01*
X156803800Y-148370000D02*
X156803800Y-149745000D01*
X156803800Y-151825000D02*
X156803800Y-153200000D01*
X156843800Y-148406000D02*
X156843800Y-149745000D01*
X156843800Y-151825000D02*
X156843800Y-153164000D01*
X156883800Y-148443000D02*
X156883800Y-149745000D01*
X156883800Y-151825000D02*
X156883800Y-153127000D01*
X156923800Y-148481000D02*
X156923800Y-149745000D01*
X156923800Y-151825000D02*
X156923800Y-153089000D01*
X156963800Y-148521000D02*
X156963800Y-153049000D01*
X157003800Y-148562000D02*
X157003800Y-153008000D01*
X157043800Y-148604000D02*
X157043800Y-152966000D01*
X157083800Y-148648000D02*
X157083800Y-152922000D01*
X157123800Y-148694000D02*
X157123800Y-152876000D01*
X157163800Y-148741000D02*
X157163800Y-152829000D01*
X157203800Y-148790000D02*
X157203800Y-152780000D01*
X157243800Y-148842000D02*
X157243800Y-152728000D01*
X157283800Y-148895000D02*
X157283800Y-152675000D01*
X157323800Y-148951000D02*
X157323800Y-152619000D01*
X157363800Y-149010000D02*
X157363800Y-152560000D01*
X157403800Y-149071000D02*
X157403800Y-152499000D01*
X157443800Y-149136000D02*
X157443800Y-152434000D01*
X157483800Y-149204000D02*
X157483800Y-152366000D01*
X157523800Y-149276000D02*
X157523800Y-152294000D01*
X157563800Y-149353000D02*
X157563800Y-152217000D01*
X157603800Y-149435000D02*
X157603800Y-152135000D01*
X157643800Y-149524000D02*
X157643800Y-152046000D01*
X157683800Y-149620000D02*
X157683800Y-151950000D01*
X157723800Y-149727000D02*
X157723800Y-151843000D01*
X157763800Y-149846000D02*
X157763800Y-151724000D01*
X157803800Y-149984000D02*
X157803800Y-151586000D01*
X157843800Y-150152000D02*
X157843800Y-151418000D01*
X157883800Y-150383000D02*
X157883800Y-151187000D01*
X157913800Y-150785000D02*
G75*
G02*
X151373800Y-150785000I-3270000J0D01*
G01*
X151373800Y-150785000D02*
G75*
G02*
X157913800Y-150785000I3270000J0D01*
G01*
%TO.C,J1*%
X106685000Y-91675000D02*
X116725000Y-91675000D01*
X106685000Y-106915000D02*
X106685000Y-91675000D01*
X109705000Y-106915000D02*
X109705000Y-91675000D01*
X114605000Y-106915000D02*
X114605000Y-91675000D01*
X116105000Y-106915000D02*
X116105000Y-91675000D01*
X116725000Y-91675000D02*
X116725000Y-103995000D01*
X116725000Y-104595000D02*
X116725000Y-106915000D01*
X116725000Y-106915000D02*
X106685000Y-106915000D01*
X116725000Y-104295000D02*
X117335000Y-103855000D01*
X117335000Y-104735000D01*
X116725000Y-104295000D01*
G36*
X117335000Y-104735000D02*
G01*
X116725000Y-104295000D01*
X117335000Y-103855000D01*
X117335000Y-104735000D01*
G37*
%TO.C,TP6*%
X161901300Y-192400000D02*
G75*
G02*
X160001300Y-192400000I-950000J0D01*
G01*
X160001300Y-192400000D02*
G75*
G02*
X161901300Y-192400000I950000J0D01*
G01*
%TO.C,U4*%
X175645000Y-142665000D02*
X175645000Y-147865000D01*
X175645000Y-147865000D02*
X180945000Y-147865000D01*
X177295000Y-142665000D02*
X175645000Y-142665000D01*
X180945000Y-142665000D02*
X179295000Y-142665000D01*
X180945000Y-147865000D02*
X180945000Y-142665000D01*
X179295000Y-142665000D02*
G75*
G02*
X177295000Y-142665000I-1000000J0D01*
G01*
%TO.C,TP4*%
X153901300Y-192400000D02*
G75*
G02*
X152001300Y-192400000I-950000J0D01*
G01*
X152001300Y-192400000D02*
G75*
G02*
X153901300Y-192400000I950000J0D01*
G01*
%TO.C,D2*%
X172205000Y-155045000D02*
X173225000Y-155045000D01*
X174005000Y-153575000D02*
X174005000Y-156515000D01*
X174125000Y-153575000D02*
X174125000Y-156515000D01*
X174245000Y-153575000D02*
X174245000Y-156515000D01*
X179685000Y-155045000D02*
X178665000Y-155045000D01*
X173225000Y-153575000D02*
X178665000Y-153575000D01*
X178665000Y-156515000D01*
X173225000Y-156515000D01*
X173225000Y-153575000D01*
%TO.C,K2*%
X124305000Y-143825000D02*
X124305000Y-150425000D01*
X124305000Y-143825000D02*
X144105000Y-143825000D01*
X124305000Y-152825000D02*
X124305000Y-159425000D01*
X128355000Y-151675000D02*
X127555000Y-151675000D01*
X128355000Y-151675000D02*
X128355000Y-155275000D01*
X129255000Y-157675000D02*
X131755000Y-157675000D01*
X129755000Y-149875000D02*
X133755000Y-149875000D01*
X129755000Y-153475000D02*
X129755000Y-149875000D01*
X131755000Y-145675000D02*
X129255000Y-145675000D01*
X131755000Y-145675000D02*
X131755000Y-149875000D01*
X131755000Y-153475000D02*
X131755000Y-157675000D01*
X133755000Y-149875000D02*
X133755000Y-153475000D01*
X133755000Y-153475000D02*
X129755000Y-149875000D01*
X133755000Y-153475000D02*
X129755000Y-153475000D01*
X135155000Y-151675000D02*
X135155000Y-155275000D01*
X135155000Y-151675000D02*
X136655000Y-151675000D01*
X135155000Y-155275000D02*
X128355000Y-155275000D01*
X136655000Y-151675000D02*
X141255000Y-149175000D01*
X139855000Y-147425000D02*
X139855000Y-149925000D01*
X139855000Y-155825000D02*
X139855000Y-153375000D01*
X144105000Y-143825000D02*
X144105000Y-159425000D01*
X144105000Y-159425000D02*
X124305000Y-159425000D01*
%TO.C,C1*%
X151014154Y-138170000D02*
X152014154Y-138170000D01*
X151514154Y-137670000D02*
X151514154Y-138670000D01*
X156493800Y-135965000D02*
X156493800Y-146125000D01*
X156533800Y-135965000D02*
X156533800Y-146125000D01*
X156573800Y-135966000D02*
X156573800Y-146124000D01*
X156613800Y-135966000D02*
X156613800Y-146124000D01*
X156653800Y-135968000D02*
X156653800Y-146122000D01*
X156693800Y-135969000D02*
X156693800Y-146121000D01*
X156733800Y-135971000D02*
X156733800Y-146119000D01*
X156773800Y-135973000D02*
X156773800Y-146117000D01*
X156813800Y-135975000D02*
X156813800Y-146115000D01*
X156853800Y-135978000D02*
X156853800Y-146112000D01*
X156893800Y-135981000D02*
X156893800Y-146109000D01*
X156933800Y-135984000D02*
X156933800Y-146106000D01*
X156973800Y-135988000D02*
X156973800Y-146102000D01*
X157013800Y-135991000D02*
X157013800Y-146099000D01*
X157053800Y-135996000D02*
X157053800Y-146094000D01*
X157093800Y-136000000D02*
X157093800Y-146090000D01*
X157133800Y-136005000D02*
X157133800Y-146085000D01*
X157173800Y-136010000D02*
X157173800Y-146080000D01*
X157213800Y-136016000D02*
X157213800Y-146074000D01*
X157253800Y-136022000D02*
X157253800Y-146068000D01*
X157293800Y-136028000D02*
X157293800Y-146062000D01*
X157333800Y-136034000D02*
X157333800Y-146056000D01*
X157373800Y-136041000D02*
X157373800Y-146049000D01*
X157413800Y-136048000D02*
X157413800Y-146042000D01*
X157453800Y-136056000D02*
X157453800Y-146034000D01*
X157493800Y-136064000D02*
X157493800Y-146026000D01*
X157533800Y-136072000D02*
X157533800Y-146018000D01*
X157573800Y-136080000D02*
X157573800Y-146010000D01*
X157613800Y-136089000D02*
X157613800Y-146001000D01*
X157653800Y-136098000D02*
X157653800Y-145992000D01*
X157693800Y-136108000D02*
X157693800Y-145982000D01*
X157733800Y-136117000D02*
X157733800Y-145973000D01*
X157773800Y-136128000D02*
X157773800Y-139805000D01*
X157773800Y-142285000D02*
X157773800Y-145962000D01*
X157813800Y-136138000D02*
X157813800Y-139805000D01*
X157813800Y-142285000D02*
X157813800Y-145952000D01*
X157853800Y-136149000D02*
X157853800Y-139805000D01*
X157853800Y-142285000D02*
X157853800Y-145941000D01*
X157893800Y-136160000D02*
X157893800Y-139805000D01*
X157893800Y-142285000D02*
X157893800Y-145930000D01*
X157933800Y-136172000D02*
X157933800Y-139805000D01*
X157933800Y-142285000D02*
X157933800Y-145918000D01*
X157973800Y-136184000D02*
X157973800Y-139805000D01*
X157973800Y-142285000D02*
X157973800Y-145906000D01*
X158013800Y-136196000D02*
X158013800Y-139805000D01*
X158013800Y-142285000D02*
X158013800Y-145894000D01*
X158053800Y-136208000D02*
X158053800Y-139805000D01*
X158053800Y-142285000D02*
X158053800Y-145882000D01*
X158093800Y-136221000D02*
X158093800Y-139805000D01*
X158093800Y-142285000D02*
X158093800Y-145869000D01*
X158133800Y-136235000D02*
X158133800Y-139805000D01*
X158133800Y-142285000D02*
X158133800Y-145855000D01*
X158173800Y-136248000D02*
X158173800Y-139805000D01*
X158173800Y-142285000D02*
X158173800Y-145842000D01*
X158213800Y-136263000D02*
X158213800Y-139805000D01*
X158213800Y-142285000D02*
X158213800Y-145827000D01*
X158253800Y-136277000D02*
X158253800Y-139805000D01*
X158253800Y-142285000D02*
X158253800Y-145813000D01*
X158293800Y-136292000D02*
X158293800Y-139805000D01*
X158293800Y-142285000D02*
X158293800Y-145798000D01*
X158333800Y-136307000D02*
X158333800Y-139805000D01*
X158333800Y-142285000D02*
X158333800Y-145783000D01*
X158373800Y-136323000D02*
X158373800Y-139805000D01*
X158373800Y-142285000D02*
X158373800Y-145767000D01*
X158413800Y-136339000D02*
X158413800Y-139805000D01*
X158413800Y-142285000D02*
X158413800Y-145751000D01*
X158453800Y-136355000D02*
X158453800Y-139805000D01*
X158453800Y-142285000D02*
X158453800Y-145735000D01*
X158493800Y-136372000D02*
X158493800Y-139805000D01*
X158493800Y-142285000D02*
X158493800Y-145718000D01*
X158533800Y-136389000D02*
X158533800Y-139805000D01*
X158533800Y-142285000D02*
X158533800Y-145701000D01*
X158573800Y-136407000D02*
X158573800Y-139805000D01*
X158573800Y-142285000D02*
X158573800Y-145683000D01*
X158613800Y-136425000D02*
X158613800Y-139805000D01*
X158613800Y-142285000D02*
X158613800Y-145665000D01*
X158653800Y-136443000D02*
X158653800Y-139805000D01*
X158653800Y-142285000D02*
X158653800Y-145647000D01*
X158693800Y-136462000D02*
X158693800Y-139805000D01*
X158693800Y-142285000D02*
X158693800Y-145628000D01*
X158733800Y-136481000D02*
X158733800Y-139805000D01*
X158733800Y-142285000D02*
X158733800Y-145609000D01*
X158773800Y-136501000D02*
X158773800Y-139805000D01*
X158773800Y-142285000D02*
X158773800Y-145589000D01*
X158813800Y-136521000D02*
X158813800Y-139805000D01*
X158813800Y-142285000D02*
X158813800Y-145569000D01*
X158853800Y-136541000D02*
X158853800Y-139805000D01*
X158853800Y-142285000D02*
X158853800Y-145549000D01*
X158893800Y-136562000D02*
X158893800Y-139805000D01*
X158893800Y-142285000D02*
X158893800Y-145528000D01*
X158933800Y-136584000D02*
X158933800Y-139805000D01*
X158933800Y-142285000D02*
X158933800Y-145506000D01*
X158973800Y-136606000D02*
X158973800Y-139805000D01*
X158973800Y-142285000D02*
X158973800Y-145484000D01*
X159013800Y-136628000D02*
X159013800Y-139805000D01*
X159013800Y-142285000D02*
X159013800Y-145462000D01*
X159053800Y-136651000D02*
X159053800Y-139805000D01*
X159053800Y-142285000D02*
X159053800Y-145439000D01*
X159093800Y-136674000D02*
X159093800Y-139805000D01*
X159093800Y-142285000D02*
X159093800Y-145416000D01*
X159133800Y-136698000D02*
X159133800Y-139805000D01*
X159133800Y-142285000D02*
X159133800Y-145392000D01*
X159173800Y-136722000D02*
X159173800Y-139805000D01*
X159173800Y-142285000D02*
X159173800Y-145368000D01*
X159213800Y-136747000D02*
X159213800Y-139805000D01*
X159213800Y-142285000D02*
X159213800Y-145343000D01*
X159253800Y-136773000D02*
X159253800Y-139805000D01*
X159253800Y-142285000D02*
X159253800Y-145317000D01*
X159293800Y-136798000D02*
X159293800Y-139805000D01*
X159293800Y-142285000D02*
X159293800Y-145292000D01*
X159333800Y-136825000D02*
X159333800Y-139805000D01*
X159333800Y-142285000D02*
X159333800Y-145265000D01*
X159373800Y-136852000D02*
X159373800Y-139805000D01*
X159373800Y-142285000D02*
X159373800Y-145238000D01*
X159413800Y-136879000D02*
X159413800Y-139805000D01*
X159413800Y-142285000D02*
X159413800Y-145211000D01*
X159453800Y-136907000D02*
X159453800Y-139805000D01*
X159453800Y-142285000D02*
X159453800Y-145183000D01*
X159493800Y-136936000D02*
X159493800Y-139805000D01*
X159493800Y-142285000D02*
X159493800Y-145154000D01*
X159533800Y-136965000D02*
X159533800Y-139805000D01*
X159533800Y-142285000D02*
X159533800Y-145125000D01*
X159573800Y-136995000D02*
X159573800Y-139805000D01*
X159573800Y-142285000D02*
X159573800Y-145095000D01*
X159613800Y-137025000D02*
X159613800Y-139805000D01*
X159613800Y-142285000D02*
X159613800Y-145065000D01*
X159653800Y-137057000D02*
X159653800Y-139805000D01*
X159653800Y-142285000D02*
X159653800Y-145033000D01*
X159693800Y-137088000D02*
X159693800Y-139805000D01*
X159693800Y-142285000D02*
X159693800Y-145002000D01*
X159733800Y-137121000D02*
X159733800Y-139805000D01*
X159733800Y-142285000D02*
X159733800Y-144969000D01*
X159773800Y-137154000D02*
X159773800Y-139805000D01*
X159773800Y-142285000D02*
X159773800Y-144936000D01*
X159813800Y-137187000D02*
X159813800Y-139805000D01*
X159813800Y-142285000D02*
X159813800Y-144903000D01*
X159853800Y-137222000D02*
X159853800Y-139805000D01*
X159853800Y-142285000D02*
X159853800Y-144868000D01*
X159893800Y-137257000D02*
X159893800Y-139805000D01*
X159893800Y-142285000D02*
X159893800Y-144833000D01*
X159933800Y-137293000D02*
X159933800Y-139805000D01*
X159933800Y-142285000D02*
X159933800Y-144797000D01*
X159973800Y-137329000D02*
X159973800Y-139805000D01*
X159973800Y-142285000D02*
X159973800Y-144761000D01*
X160013800Y-137367000D02*
X160013800Y-139805000D01*
X160013800Y-142285000D02*
X160013800Y-144723000D01*
X160053800Y-137405000D02*
X160053800Y-139805000D01*
X160053800Y-142285000D02*
X160053800Y-144685000D01*
X160093800Y-137444000D02*
X160093800Y-139805000D01*
X160093800Y-142285000D02*
X160093800Y-144646000D01*
X160133800Y-137484000D02*
X160133800Y-139805000D01*
X160133800Y-142285000D02*
X160133800Y-144606000D01*
X160173800Y-137525000D02*
X160173800Y-139805000D01*
X160173800Y-142285000D02*
X160173800Y-144565000D01*
X160213800Y-137567000D02*
X160213800Y-139805000D01*
X160213800Y-142285000D02*
X160213800Y-144523000D01*
X160253800Y-137610000D02*
X160253800Y-144480000D01*
X160293800Y-137654000D02*
X160293800Y-144436000D01*
X160333800Y-137698000D02*
X160333800Y-144392000D01*
X160373800Y-137744000D02*
X160373800Y-144346000D01*
X160413800Y-137791000D02*
X160413800Y-144299000D01*
X160453800Y-137840000D02*
X160453800Y-144250000D01*
X160493800Y-137889000D02*
X160493800Y-144201000D01*
X160533800Y-137940000D02*
X160533800Y-144150000D01*
X160573800Y-137992000D02*
X160573800Y-144098000D01*
X160613800Y-138045000D02*
X160613800Y-144045000D01*
X160653800Y-138100000D02*
X160653800Y-143990000D01*
X160693800Y-138157000D02*
X160693800Y-143933000D01*
X160733800Y-138215000D02*
X160733800Y-143875000D01*
X160773800Y-138275000D02*
X160773800Y-143815000D01*
X160813800Y-138337000D02*
X160813800Y-143753000D01*
X160853800Y-138401000D02*
X160853800Y-143689000D01*
X160893800Y-138467000D02*
X160893800Y-143623000D01*
X160933800Y-138535000D02*
X160933800Y-143555000D01*
X160973800Y-138606000D02*
X160973800Y-143484000D01*
X161013800Y-138680000D02*
X161013800Y-143410000D01*
X161053800Y-138757000D02*
X161053800Y-143333000D01*
X161093800Y-138837000D02*
X161093800Y-143253000D01*
X161133800Y-138921000D02*
X161133800Y-143169000D01*
X161173800Y-139008000D02*
X161173800Y-143082000D01*
X161213800Y-139101000D02*
X161213800Y-142989000D01*
X161253800Y-139199000D02*
X161253800Y-142891000D01*
X161293800Y-139303000D02*
X161293800Y-142787000D01*
X161333800Y-139415000D02*
X161333800Y-142675000D01*
X161373800Y-139536000D02*
X161373800Y-142554000D01*
X161413800Y-139668000D02*
X161413800Y-142422000D01*
X161453800Y-139815000D02*
X161453800Y-142275000D01*
X161493800Y-139983000D02*
X161493800Y-142107000D01*
X161533800Y-140183000D02*
X161533800Y-141907000D01*
X161573800Y-140446000D02*
X161573800Y-141644000D01*
X161613800Y-141045000D02*
G75*
G02*
X151373800Y-141045000I-5120000J0D01*
G01*
X151373800Y-141045000D02*
G75*
G02*
X161613800Y-141045000I5120000J0D01*
G01*
%TO.C,LED0*%
X168915000Y-158709000D02*
X168915000Y-158865000D01*
X168915000Y-161025000D02*
X168915000Y-161181000D01*
X168915000Y-158709484D02*
G75*
G02*
X172146437Y-158865000I1560000J-1235516D01*
G01*
X169434039Y-158865000D02*
G75*
G02*
X171515961Y-158865000I1040961J-1080000D01*
G01*
X171515961Y-161025000D02*
G75*
G02*
X169434039Y-161025000I-1040961J1080000D01*
G01*
X172146437Y-161025000D02*
G75*
G02*
X168915000Y-161180516I-1671437J1080000D01*
G01*
%TO.C,TP5*%
X157901300Y-192400000D02*
G75*
G02*
X156001300Y-192400000I-950000J0D01*
G01*
X156001300Y-192400000D02*
G75*
G02*
X157901300Y-192400000I950000J0D01*
G01*
%TO.C,RV1*%
D10*
X106545000Y-167315000D02*
X106545000Y-170715000D01*
X106545000Y-167315000D02*
X113545000Y-167315000D01*
X106545000Y-170715000D02*
X113545000Y-170715000D01*
X113545000Y-167315000D02*
X113545000Y-170715000D01*
%TD*%
M02*
