%TF.GenerationSoftware,KiCad,Pcbnew,10.0.5*%
%TF.CreationDate,2026-08-09T21:19:24-07:00*%
%TF.ProjectId,cv-tb3,63762d74-6233-42e6-9b69-6361645f7063,rev?*%
%TF.SameCoordinates,Original*%
%TF.FileFunction,Copper,L2,Bot*%
%TF.FilePolarity,Positive*%
%FSLAX46Y46*%
G04 Gerber Fmt 4.6, Leading zero omitted, Abs format (unit mm)*
G04 Created by KiCad (PCBNEW 10.0.5) date 2026-08-09 21:19:24*
%MOMM*%
%LPD*%
G01*
G04 APERTURE LIST*
G04 Aperture macros list*
%AMRoundRect*
0 Rectangle with rounded corners*
0 $1 Rounding radius*
0 $2 $3 $4 $5 $6 $7 $8 $9 X,Y pos of 4 corners*
0 Add a 4 corners polygon primitive as box body*
4,1,4,$2,$3,$4,$5,$6,$7,$8,$9,$2,$3,0*
0 Add four circle primitives for the rounded corners*
1,1,$1+$1,$2,$3*
1,1,$1+$1,$4,$5*
1,1,$1+$1,$6,$7*
1,1,$1+$1,$8,$9*
0 Add four rect primitives between the rounded corners*
20,1,$1+$1,$2,$3,$4,$5,0*
20,1,$1+$1,$4,$5,$6,$7,0*
20,1,$1+$1,$6,$7,$8,$9,0*
20,1,$1+$1,$8,$9,$2,$3,0*%
G04 Aperture macros list end*
%TA.AperFunction,ComponentPad*%
%ADD10R,1.800000X1.800000*%
%TD*%
%TA.AperFunction,ComponentPad*%
%ADD11C,1.800000*%
%TD*%
%TA.AperFunction,ComponentPad*%
%ADD12RoundRect,0.250000X0.550000X-0.550000X0.550000X0.550000X-0.550000X0.550000X-0.550000X-0.550000X0*%
%TD*%
%TA.AperFunction,ComponentPad*%
%ADD13C,1.600000*%
%TD*%
%TA.AperFunction,ComponentPad*%
%ADD14RoundRect,0.249999X0.850001X-0.850001X0.850001X0.850001X-0.850001X0.850001X-0.850001X-0.850001X0*%
%TD*%
%TA.AperFunction,ComponentPad*%
%ADD15C,2.200000*%
%TD*%
%TA.AperFunction,HeatsinkPad*%
%ADD16C,0.600000*%
%TD*%
%TA.AperFunction,ComponentPad*%
%ADD17RoundRect,0.250000X-0.550000X-0.550000X0.550000X-0.550000X0.550000X0.550000X-0.550000X0.550000X0*%
%TD*%
%TA.AperFunction,ComponentPad*%
%ADD18R,1.700000X1.700000*%
%TD*%
%TA.AperFunction,ComponentPad*%
%ADD19C,1.700000*%
%TD*%
%TA.AperFunction,ComponentPad*%
%ADD20C,3.000000*%
%TD*%
%TA.AperFunction,ComponentPad*%
%ADD21C,2.500000*%
%TD*%
%TA.AperFunction,ComponentPad*%
%ADD22RoundRect,0.250000X1.050000X-1.050000X1.050000X1.050000X-1.050000X1.050000X-1.050000X-1.050000X0*%
%TD*%
%TA.AperFunction,ComponentPad*%
%ADD23C,2.600000*%
%TD*%
%TA.AperFunction,ComponentPad*%
%ADD24RoundRect,0.249999X-0.850001X-0.850001X0.850001X-0.850001X0.850001X0.850001X-0.850001X0.850001X0*%
%TD*%
%TA.AperFunction,ComponentPad*%
%ADD25RoundRect,0.500000X0.500000X-0.500000X0.500000X0.500000X-0.500000X0.500000X-0.500000X-0.500000X0*%
%TD*%
%TA.AperFunction,ComponentPad*%
%ADD26C,2.000000*%
%TD*%
%TA.AperFunction,ComponentPad*%
%ADD27RoundRect,0.250000X0.750000X-0.600000X0.750000X0.600000X-0.750000X0.600000X-0.750000X-0.600000X0*%
%TD*%
%TA.AperFunction,ComponentPad*%
%ADD28O,2.000000X1.700000*%
%TD*%
%TA.AperFunction,ComponentPad*%
%ADD29RoundRect,0.250000X-1.050000X-1.050000X1.050000X-1.050000X1.050000X1.050000X-1.050000X1.050000X0*%
%TD*%
%TA.AperFunction,ComponentPad*%
%ADD30RoundRect,0.250000X-0.750000X-0.750000X0.750000X-0.750000X0.750000X0.750000X-0.750000X0.750000X0*%
%TD*%
%TA.AperFunction,SMDPad,CuDef*%
%ADD31RoundRect,0.250000X0.262500X0.450000X-0.262500X0.450000X-0.262500X-0.450000X0.262500X-0.450000X0*%
%TD*%
%TA.AperFunction,SMDPad,CuDef*%
%ADD32RoundRect,0.150000X0.587500X0.150000X-0.587500X0.150000X-0.587500X-0.150000X0.587500X-0.150000X0*%
%TD*%
%TA.AperFunction,SMDPad,CuDef*%
%ADD33RoundRect,0.250000X0.475000X-0.250000X0.475000X0.250000X-0.475000X0.250000X-0.475000X-0.250000X0*%
%TD*%
%TA.AperFunction,SMDPad,CuDef*%
%ADD34RoundRect,0.250000X0.450000X-0.262500X0.450000X0.262500X-0.450000X0.262500X-0.450000X-0.262500X0*%
%TD*%
%TA.AperFunction,SMDPad,CuDef*%
%ADD35RoundRect,0.250000X0.250000X0.475000X-0.250000X0.475000X-0.250000X-0.475000X0.250000X-0.475000X0*%
%TD*%
%TA.AperFunction,SMDPad,CuDef*%
%ADD36RoundRect,0.250000X0.362500X1.425000X-0.362500X1.425000X-0.362500X-1.425000X0.362500X-1.425000X0*%
%TD*%
%TA.AperFunction,ViaPad*%
%ADD37C,0.800000*%
%TD*%
G04 APERTURE END LIST*
D10*
%TO.P,LED1,1*%
%TO.N,GND*%
X175134999Y-159945000D03*
D11*
%TO.P,LED1,2*%
%TO.N,RELAY1_A*%
X177674999Y-159945000D03*
%TD*%
D12*
%TO.P,U5,1*%
%TO.N,RELAY3_OPT*%
X164355000Y-153055000D03*
D13*
%TO.P,U5,2*%
%TO.N,GND*%
X166895000Y-153055000D03*
%TO.P,U5,3*%
%TO.N,RELAY3_DRV*%
X166895000Y-145435000D03*
%TO.P,U5,4*%
%TO.N,+5V*%
X164355000Y-145435000D03*
%TD*%
D10*
%TO.P,LED3,1*%
%TO.N,GND*%
X169204999Y-165454999D03*
D11*
%TO.P,LED3,2*%
%TO.N,RELAY3_A*%
X171744999Y-165454999D03*
%TD*%
D14*
%TO.P,D3,1*%
%TO.N,+5V*%
X160735000Y-166715000D03*
D15*
%TO.P,D3,2*%
%TO.N,RELAY3_COIL*%
X160735000Y-156555000D03*
%TD*%
D10*
%TO.P,LED0,1*%
%TO.N,GND*%
X169204999Y-159945000D03*
D11*
%TO.P,LED0,2*%
%TO.N,LED0_A*%
X171744999Y-159945000D03*
%TD*%
D16*
%TO.P,U1,39*%
%TO.N,GND*%
X165300000Y-109490000D03*
X165300000Y-110890000D03*
X166000000Y-108790000D03*
X166000000Y-110190000D03*
X166000000Y-111590000D03*
X166700000Y-109490000D03*
X166700000Y-110890000D03*
X167400000Y-108790000D03*
X167400000Y-110190000D03*
X167400000Y-111590000D03*
X168100000Y-109490000D03*
X168100000Y-110890000D03*
%TD*%
D17*
%TO.P,C2,1*%
%TO.N,+3V3*%
X153393753Y-150785001D03*
D13*
%TO.P,C2,2*%
%TO.N,GND*%
X155893753Y-150785001D03*
%TD*%
D10*
%TO.P,LED2,1*%
%TO.N,GND*%
X181064999Y-159945000D03*
D11*
%TO.P,LED2,2*%
%TO.N,RELAY2_A*%
X183604999Y-159945000D03*
%TD*%
D18*
%TO.P,J4,1*%
%TO.N,+5V*%
X165194999Y-156975000D03*
D19*
%TO.P,J4,2*%
%TO.N,BACKLIGHT_OUT*%
X165194999Y-159515000D03*
%TO.P,J4,3*%
%TO.N,GND*%
X165194999Y-162055000D03*
%TD*%
D18*
%TO.P,JP,1*%
%TO.N,UART_TX*%
X153015000Y-157044999D03*
D19*
%TO.P,JP,2*%
%TO.N,UART_RX*%
X153015000Y-159584999D03*
%TO.P,JP,3*%
%TO.N,GND*%
X153015000Y-162124999D03*
%TD*%
D20*
%TO.P,K2,1*%
%TO.N,AC_L_FUSED*%
X125705000Y-151625000D03*
D21*
%TO.P,K2,2*%
%TO.N,+5V*%
X127655000Y-157675000D03*
D20*
%TO.P,K2,3*%
%TO.N,RELAY2_SW*%
X139855000Y-157675000D03*
%TO.P,K2,4*%
%TO.N,N$K2.4*%
X139905000Y-145625000D03*
D21*
%TO.P,K2,5*%
%TO.N,RELAY2_COIL*%
X127655000Y-145675000D03*
%TD*%
D22*
%TO.P,J1,1*%
%TO.N,AC_L*%
X112005000Y-104295000D03*
D23*
%TO.P,J1,2*%
%TO.N,AC_N*%
X112005000Y-99295000D03*
%TO.P,J1,3*%
%TO.N,AC_LOAD*%
X112005000Y-94295000D03*
%TD*%
D24*
%TO.P,D2,1*%
%TO.N,+5V*%
X170865000Y-155045000D03*
D15*
%TO.P,D2,2*%
%TO.N,RELAY2_COIL*%
X181025000Y-155045000D03*
%TD*%
D24*
%TO.P,D1,1*%
%TO.N,+5V*%
X170865000Y-150755000D03*
D15*
%TO.P,D1,2*%
%TO.N,RELAY1_COIL*%
X181025000Y-150755000D03*
%TD*%
D20*
%TO.P,K3,1*%
%TO.N,AC_L_FUSED*%
X125705000Y-168615000D03*
D21*
%TO.P,K3,2*%
%TO.N,+5V*%
X127655000Y-174665000D03*
D20*
%TO.P,K3,3*%
%TO.N,RELAY3_SW*%
X139855000Y-174665000D03*
%TO.P,K3,4*%
%TO.N,N$K3.4*%
X139905000Y-162615000D03*
D21*
%TO.P,K3,5*%
%TO.N,RELAY3_COIL*%
X127655000Y-162665000D03*
%TD*%
D25*
%TO.P,F1,1*%
%TO.N,AC_L*%
X109195000Y-158725000D03*
X109195000Y-153725000D03*
D26*
%TO.P,F1,2*%
%TO.N,AC_L_FUSED*%
X109195000Y-143725000D03*
X109195000Y-138725000D03*
%TD*%
D13*
%TO.P,RV1,1*%
%TO.N,AC_L_FUSED*%
X107545000Y-168365000D03*
%TO.P,RV1,2*%
%TO.N,AC_N*%
X112545000Y-169665000D03*
%TD*%
D20*
%TO.P,K1,1*%
%TO.N,AC_L_FUSED*%
X125705000Y-134635000D03*
D21*
%TO.P,K1,2*%
%TO.N,+5V*%
X127655000Y-140685000D03*
D20*
%TO.P,K1,3*%
%TO.N,RELAY1_SW*%
X139855000Y-140685000D03*
%TO.P,K1,4*%
%TO.N,N$K1.4*%
X139905000Y-128635000D03*
D21*
%TO.P,K1,5*%
%TO.N,RELAY1_COIL*%
X127655000Y-128685000D03*
%TD*%
D17*
%TO.P,U4,1*%
%TO.N,RELAY2_OPT*%
X174485000Y-143995000D03*
D13*
%TO.P,U4,2*%
%TO.N,GND*%
X174485000Y-146535000D03*
%TO.P,U4,3*%
%TO.N,RELAY2_DRV*%
X182105000Y-146535000D03*
%TO.P,U4,4*%
%TO.N,+5V*%
X182105000Y-143995000D03*
%TD*%
D27*
%TO.P,PS1,1*%
%TO.N,AC_L_FUSED*%
X133155000Y-121485000D03*
D28*
%TO.P,PS1,2*%
%TO.N,AC_N*%
X138155000Y-121485000D03*
%TO.P,PS1,3*%
%TO.N,GND*%
X128155000Y-92405000D03*
%TO.P,PS1,4*%
%TO.N,+5V*%
X143155000Y-92405000D03*
%TD*%
D29*
%TO.P,J3,1*%
%TO.N,+5V*%
X127155000Y-183365000D03*
D23*
%TO.P,J3,2*%
%TO.N,RELAY3_SW*%
X132155000Y-183365000D03*
%TO.P,J3,3*%
%TO.N,AC_N*%
X137155000Y-183365000D03*
%TD*%
D30*
%TO.P,C1,1*%
%TO.N,+5V*%
X153993751Y-141045000D03*
D26*
%TO.P,C1,2*%
%TO.N,GND*%
X158993751Y-141045000D03*
%TD*%
D22*
%TO.P,J2,1*%
%TO.N,AC_LOAD*%
X112005000Y-127385000D03*
D23*
%TO.P,J2,2*%
%TO.N,RELAY2_SW*%
X112005000Y-122385000D03*
%TO.P,J2,3*%
%TO.N,AC_N*%
X112005000Y-117385000D03*
%TD*%
D26*
%TO.P,SW1,1*%
%TO.N,BTN_PIN*%
X164334999Y-137295000D03*
X170834999Y-137295000D03*
%TO.P,SW1,2*%
%TO.N,GND*%
X164334999Y-141795000D03*
X170834999Y-141795000D03*
%TD*%
D17*
%TO.P,U3,1*%
%TO.N,RELAY1_OPT*%
X174485000Y-137315000D03*
D13*
%TO.P,U3,2*%
%TO.N,GND*%
X174485000Y-139855000D03*
%TO.P,U3,3*%
%TO.N,RELAY1_DRV*%
X182105000Y-139855000D03*
%TO.P,U3,4*%
%TO.N,+5V*%
X182105000Y-137315000D03*
%TD*%
D31*
%TO.P,R11,1*%
%TO.N,N$R11.1*%
X156827500Y-166500000D03*
%TO.P,R11,2*%
%TO.N,N$R11.2*%
X155002500Y-166500000D03*
%TD*%
%TO.P,R7,1*%
%TO.N,BACKLIGHT*%
X165472499Y-164900000D03*
%TO.P,R7,2*%
%TO.N,BACKLIGHT_B*%
X163647499Y-164900000D03*
%TD*%
D32*
%TO.P,Q4,1*%
%TO.N,BACKLIGHT_B*%
X160607500Y-148330000D03*
%TO.P,Q4,2*%
%TO.N,GND*%
X160607500Y-150230000D03*
%TO.P,Q4,3*%
%TO.N,BACKLIGHT_OUT*%
X158732500Y-149280000D03*
%TD*%
D33*
%TO.P,C8,1*%
%TO.N,+3V3*%
X184150000Y-155530000D03*
%TO.P,C8,2*%
%TO.N,GND*%
X184150000Y-153630000D03*
%TD*%
D34*
%TO.P,R8,1*%
%TO.N,+3V3*%
X152195000Y-166612500D03*
%TO.P,R8,2*%
%TO.N,EN*%
X152195000Y-164787500D03*
%TD*%
D31*
%TO.P,R3,1*%
%TO.N,RELAY2*%
X176282499Y-162840000D03*
%TO.P,R3,2*%
%TO.N,RELAY2_OPT*%
X174457499Y-162840000D03*
%TD*%
D34*
%TO.P,R1,1*%
%TO.N,RELAY1*%
X156685000Y-157712500D03*
%TO.P,R1,2*%
%TO.N,RELAY1_OPT*%
X156685000Y-155887500D03*
%TD*%
D35*
%TO.P,C6,1*%
%TO.N,+3V3*%
X160390000Y-153050000D03*
%TO.P,C6,2*%
%TO.N,GND*%
X158490000Y-153050000D03*
%TD*%
D33*
%TO.P,C5,1*%
%TO.N,+3V3*%
X184150000Y-151040000D03*
%TO.P,C5,2*%
%TO.N,GND*%
X184150000Y-149140000D03*
%TD*%
D32*
%TO.P,Q1,1*%
%TO.N,RELAY1_DRV*%
X154112499Y-143840000D03*
%TO.P,Q1,2*%
%TO.N,GND*%
X154112499Y-145740000D03*
%TO.P,Q1,3*%
%TO.N,RELAY1_COIL*%
X152237499Y-144790000D03*
%TD*%
D31*
%TO.P,R10,1*%
%TO.N,N$R10.1*%
X180732499Y-165830000D03*
%TO.P,R10,2*%
%TO.N,N$R10.2*%
X178907499Y-165830000D03*
%TD*%
D35*
%TO.P,C3,1*%
%TO.N,+3V3*%
X153895000Y-136775000D03*
%TO.P,C3,2*%
%TO.N,GND*%
X151995000Y-136775000D03*
%TD*%
%TO.P,C4,1*%
%TO.N,+3V3*%
X158385000Y-136775000D03*
%TO.P,C4,2*%
%TO.N,GND*%
X156485000Y-136775000D03*
%TD*%
D32*
%TO.P,Q3,1*%
%TO.N,RELAY3_DRV*%
X171617499Y-144590000D03*
%TO.P,Q3,2*%
%TO.N,GND*%
X171617499Y-146490000D03*
%TO.P,Q3,3*%
%TO.N,RELAY3_COIL*%
X169742499Y-145540000D03*
%TD*%
D31*
%TO.P,R2,1*%
%TO.N,RELAY1*%
X157502499Y-160520000D03*
%TO.P,R2,2*%
%TO.N,RELAY1_A*%
X155677499Y-160520000D03*
%TD*%
D34*
%TO.P,R5,1*%
%TO.N,RELAY3*%
X183539999Y-164482500D03*
%TO.P,R5,2*%
%TO.N,RELAY3_OPT*%
X183539999Y-162657500D03*
%TD*%
%TO.P,R12,1*%
%TO.N,N$R12.1*%
X183539999Y-168932499D03*
%TO.P,R12,2*%
%TO.N,N$R12.2*%
X183539999Y-167107499D03*
%TD*%
D31*
%TO.P,R9,1*%
%TO.N,+3V3*%
X176282499Y-165830000D03*
%TO.P,R9,2*%
%TO.N,LED0_A*%
X174457499Y-165830000D03*
%TD*%
D32*
%TO.P,Q2,1*%
%TO.N,RELAY2_DRV*%
X159062499Y-143840000D03*
%TO.P,Q2,2*%
%TO.N,GND*%
X159062499Y-145740000D03*
%TO.P,Q2,3*%
%TO.N,RELAY2_COIL*%
X157187499Y-144790000D03*
%TD*%
D36*
%TO.P,Rsh,1*%
%TO.N,RELAY1_SW*%
X113087500Y-179440000D03*
%TO.P,Rsh,2*%
%TO.N,AC_LOAD*%
X107162500Y-179440000D03*
%TD*%
D31*
%TO.P,R6,1*%
%TO.N,RELAY3*%
X157502499Y-163510000D03*
%TO.P,R6,2*%
%TO.N,RELAY3_A*%
X155677499Y-163510000D03*
%TD*%
D35*
%TO.P,C7,1*%
%TO.N,+3V3*%
X153895000Y-153610000D03*
%TO.P,C7,2*%
%TO.N,GND*%
X151995000Y-153610000D03*
%TD*%
D31*
%TO.P,R4,1*%
%TO.N,RELAY2*%
X180732499Y-162840000D03*
%TO.P,R4,2*%
%TO.N,RELAY2_A*%
X178907499Y-162840000D03*
%TD*%
D37*
%TO.N,GND*%
X158700000Y-170250000D03*
X158700000Y-191250000D03*
X186700000Y-152750000D03*
X186700000Y-173750000D03*
X158700000Y-128250000D03*
X176200000Y-187750000D03*
X169200000Y-187750000D03*
X165700000Y-170250000D03*
X151700000Y-117750000D03*
X155200000Y-180750000D03*
X165700000Y-173750000D03*
X158700000Y-82750000D03*
X172700000Y-152750000D03*
X179700000Y-89750000D03*
X186700000Y-177250000D03*
X186700000Y-82750000D03*
X151700000Y-138750000D03*
X172700000Y-124750000D03*
X155200000Y-194750000D03*
X176200000Y-121250000D03*
X172700000Y-170250000D03*
X169200000Y-194750000D03*
X165700000Y-187750000D03*
X151700000Y-128250000D03*
X169200000Y-128250000D03*
X172700000Y-135250000D03*
X186700000Y-170250000D03*
X186700000Y-145750000D03*
X158700000Y-177250000D03*
X165700000Y-184250000D03*
X169200000Y-82750000D03*
X169200000Y-93250000D03*
X172700000Y-138750000D03*
X186700000Y-159750000D03*
X179700000Y-173750000D03*
X169200000Y-114250000D03*
X155200000Y-131750000D03*
X176200000Y-177250000D03*
X162200000Y-114250000D03*
X179700000Y-145750000D03*
X186700000Y-156250000D03*
X176200000Y-124750000D03*
X151700000Y-110750000D03*
X179700000Y-177250000D03*
X165700000Y-194750000D03*
X151700000Y-194750000D03*
X186700000Y-142250000D03*
X158700000Y-131750000D03*
X169204999Y-162245000D03*
X176200000Y-86250000D03*
X161199999Y-145740000D03*
X172700000Y-194750000D03*
X179700000Y-114250000D03*
X183200000Y-173750000D03*
X158700000Y-93250000D03*
X186700000Y-180750000D03*
X162200000Y-107250000D03*
X158700000Y-121250000D03*
X172700000Y-89750000D03*
X186700000Y-131750000D03*
X165700000Y-117750000D03*
X186700000Y-149250000D03*
X151700000Y-142250000D03*
X167444999Y-162055000D03*
X155200000Y-128250000D03*
X151700000Y-149250000D03*
X176200000Y-82750000D03*
X186700000Y-89750000D03*
X151700000Y-100250000D03*
X172700000Y-177250000D03*
X169200000Y-191250000D03*
X157299999Y-102470000D03*
X183200000Y-117750000D03*
X151700000Y-187750000D03*
X158700000Y-194750000D03*
X172700000Y-173750000D03*
X158700000Y-89750000D03*
X181064999Y-157644999D03*
X183200000Y-96750000D03*
X155200000Y-177250000D03*
X186700000Y-107250000D03*
X156865000Y-153050000D03*
X186700000Y-166750000D03*
X151700000Y-107250000D03*
X172700000Y-93250000D03*
X165700000Y-86250000D03*
X186700000Y-114250000D03*
X172700000Y-191250000D03*
X169200000Y-107250000D03*
X186700000Y-100250000D03*
X176200000Y-173750000D03*
X165700000Y-93250000D03*
X183200000Y-135250000D03*
X151700000Y-82750000D03*
X183200000Y-131750000D03*
X162200000Y-89750000D03*
X186700000Y-117750000D03*
X151700000Y-121250000D03*
X186700000Y-135250000D03*
X151700000Y-89750000D03*
X179700000Y-152750000D03*
X179700000Y-191250000D03*
X169200000Y-177250000D03*
X172700000Y-117750000D03*
X169200000Y-184250000D03*
X172700000Y-114250000D03*
X165700000Y-82750000D03*
X162200000Y-184250000D03*
X151700000Y-180750000D03*
X179700000Y-128250000D03*
X169200000Y-131750000D03*
X186700000Y-93250000D03*
X179700000Y-170250000D03*
X183200000Y-107250000D03*
X165700000Y-114250000D03*
X151700000Y-93250000D03*
X162200000Y-187750000D03*
X162200000Y-191250000D03*
X151700000Y-114250000D03*
X179700000Y-96750000D03*
X162200000Y-138750000D03*
X183200000Y-114250000D03*
X179700000Y-187750000D03*
X186700000Y-128250000D03*
X176200000Y-194750000D03*
X186700000Y-86250000D03*
X175134999Y-157644999D03*
X169200000Y-135250000D03*
X151700000Y-173750000D03*
X176200000Y-135250000D03*
X179700000Y-103750000D03*
X155200000Y-173750000D03*
X179700000Y-110750000D03*
X151700000Y-124750000D03*
X186700000Y-184250000D03*
X169200000Y-173750000D03*
X179700000Y-138750000D03*
X151700000Y-177250000D03*
X165700000Y-128250000D03*
X183200000Y-121250000D03*
X172700000Y-82750000D03*
X162200000Y-170250000D03*
X186700000Y-194750000D03*
X155200000Y-93250000D03*
X176200000Y-89750000D03*
X162200000Y-131750000D03*
X169200000Y-89750000D03*
X162200000Y-117750000D03*
X186700000Y-110750000D03*
X176200000Y-93250000D03*
X155200000Y-100250000D03*
X186700000Y-191250000D03*
X169200000Y-170250000D03*
X162200000Y-93250000D03*
X155200000Y-184250000D03*
X151700000Y-86250000D03*
X173234999Y-141795000D03*
X183200000Y-86250000D03*
X179700000Y-100250000D03*
X172700000Y-180750000D03*
X183200000Y-110750000D03*
X186700000Y-163250000D03*
X165700000Y-124750000D03*
X179700000Y-82750000D03*
X155200000Y-89750000D03*
X172700000Y-184250000D03*
X183200000Y-124750000D03*
X169200000Y-110750000D03*
X179700000Y-184250000D03*
X176200000Y-131750000D03*
X186700000Y-124750000D03*
X183200000Y-128250000D03*
X186700000Y-121250000D03*
X155200000Y-187750000D03*
X162200000Y-86250000D03*
X179700000Y-86250000D03*
X158700000Y-173750000D03*
X172700000Y-187750000D03*
X176685000Y-146535000D03*
X155200000Y-114250000D03*
X172700000Y-128250000D03*
X155200000Y-107250000D03*
X183200000Y-184250000D03*
X165700000Y-177250000D03*
X162200000Y-124750000D03*
X176200000Y-142250000D03*
X162200000Y-173750000D03*
X155200000Y-121250000D03*
X162200000Y-180750000D03*
X176200000Y-152750000D03*
X158700000Y-180750000D03*
X183200000Y-93250000D03*
X179700000Y-180750000D03*
X165700000Y-149250000D03*
X183200000Y-100250000D03*
X186700000Y-103750000D03*
X166895000Y-150855000D03*
X172700000Y-103750000D03*
X158700000Y-138750000D03*
X179700000Y-124750000D03*
X155200000Y-82750000D03*
X183200000Y-103750000D03*
X172700000Y-110750000D03*
X183200000Y-180750000D03*
X162200000Y-194750000D03*
X172700000Y-163250000D03*
X158700000Y-124750000D03*
X169200000Y-124750000D03*
X165700000Y-135250000D03*
X162200000Y-159750000D03*
X158700000Y-86250000D03*
X183200000Y-89750000D03*
X162200000Y-177250000D03*
X169200000Y-180750000D03*
X165700000Y-103750000D03*
X186275000Y-153630000D03*
X169200000Y-103750000D03*
X166734999Y-141795000D03*
X183200000Y-177250000D03*
X179700000Y-121250000D03*
X183200000Y-187750000D03*
X169200000Y-163250000D03*
X169200000Y-117750000D03*
X165700000Y-180750000D03*
X158700000Y-184250000D03*
X162200000Y-103750000D03*
X176200000Y-184250000D03*
X165700000Y-191250000D03*
X155200000Y-86250000D03*
X172700000Y-86250000D03*
X169200000Y-86250000D03*
X176200000Y-149250000D03*
X155200000Y-103750000D03*
X186700000Y-138750000D03*
X155200000Y-117750000D03*
X162744999Y-150230000D03*
X172700000Y-107250000D03*
X171617499Y-148127500D03*
X155200000Y-124750000D03*
X165700000Y-107250000D03*
X154112499Y-147377500D03*
X179700000Y-194750000D03*
X176200000Y-180750000D03*
X179700000Y-117750000D03*
X151700000Y-96750000D03*
X162200000Y-163250000D03*
X179700000Y-142250000D03*
X151700000Y-131750000D03*
X179100000Y-102470000D03*
X172700000Y-131750000D03*
X165700000Y-89750000D03*
X150765000Y-162124999D03*
X186700000Y-187750000D03*
X186700000Y-96750000D03*
X155200000Y-138750000D03*
X155200000Y-191250000D03*
X162200000Y-145750000D03*
X162200000Y-128250000D03*
X162200000Y-82750000D03*
X151700000Y-103750000D03*
X155200000Y-170250000D03*
X158700000Y-187750000D03*
X165700000Y-131750000D03*
X162200000Y-110750000D03*
X155200000Y-96750000D03*
X179700000Y-135250000D03*
X179700000Y-93250000D03*
X162200000Y-135250000D03*
X176200000Y-156250000D03*
X176200000Y-128250000D03*
X183200000Y-142250000D03*
X151700000Y-184250000D03*
X151700000Y-170250000D03*
X176200000Y-191250000D03*
X179700000Y-131750000D03*
X179700000Y-107250000D03*
X155200000Y-110750000D03*
%TD*%
%TA.AperFunction,Conductor*%
%TO.N,GND*%
G36*
X187016943Y-81019685D02*
G01*
X187026377Y-81026389D01*
X187151573Y-81124474D01*
X187162781Y-81134404D01*
X187365596Y-81337219D01*
X187375525Y-81348426D01*
X187473611Y-81473623D01*
X187499460Y-81538532D01*
X187500000Y-81550094D01*
X187500000Y-195449903D01*
X187480315Y-195516942D01*
X187473611Y-195526376D01*
X187375525Y-195651573D01*
X187365595Y-195662781D01*
X187162781Y-195865595D01*
X187151574Y-195875524D01*
X187026378Y-195973610D01*
X186961466Y-195999460D01*
X186949904Y-196000000D01*
X150074000Y-196000000D01*
X150006961Y-195980315D01*
X149961206Y-195927511D01*
X149950000Y-195876000D01*
X149950000Y-192881995D01*
X182698236Y-192881995D01*
X182698236Y-193118004D01*
X182698237Y-193118020D01*
X182729042Y-193352010D01*
X182790130Y-193579993D01*
X182880450Y-193798045D01*
X182880455Y-193798056D01*
X182951413Y-193920957D01*
X182998463Y-194002450D01*
X182998465Y-194002453D01*
X182998466Y-194002454D01*
X183142142Y-194189697D01*
X183142148Y-194189704D01*
X183309031Y-194356587D01*
X183309037Y-194356592D01*
X183496286Y-194500273D01*
X183627654Y-194576118D01*
X183700679Y-194618280D01*
X183700684Y-194618282D01*
X183700687Y-194618284D01*
X183918743Y-194708606D01*
X184146722Y-194769693D01*
X184380725Y-194800500D01*
X184380732Y-194800500D01*
X184616740Y-194800500D01*
X184616747Y-194800500D01*
X184850750Y-194769693D01*
X185078729Y-194708606D01*
X185296785Y-194618284D01*
X185501186Y-194500273D01*
X185688435Y-194356592D01*
X185855328Y-194189699D01*
X185999009Y-194002450D01*
X186117020Y-193798049D01*
X186207342Y-193579993D01*
X186268429Y-193352014D01*
X186299236Y-193118011D01*
X186299236Y-192881989D01*
X186268429Y-192647986D01*
X186207342Y-192420007D01*
X186117020Y-192201951D01*
X186117018Y-192201948D01*
X186117016Y-192201943D01*
X186074854Y-192128918D01*
X185999009Y-191997550D01*
X185855328Y-191810301D01*
X185855323Y-191810295D01*
X185688440Y-191643412D01*
X185688433Y-191643406D01*
X185501190Y-191499730D01*
X185501189Y-191499729D01*
X185501186Y-191499727D01*
X185419693Y-191452677D01*
X185296792Y-191381719D01*
X185296781Y-191381714D01*
X185078729Y-191291394D01*
X184850746Y-191230306D01*
X184616756Y-191199501D01*
X184616753Y-191199500D01*
X184616747Y-191199500D01*
X184380725Y-191199500D01*
X184380719Y-191199500D01*
X184380715Y-191199501D01*
X184146725Y-191230306D01*
X183918742Y-191291394D01*
X183700690Y-191381714D01*
X183700679Y-191381719D01*
X183496281Y-191499730D01*
X183309038Y-191643406D01*
X183309031Y-191643412D01*
X183142148Y-191810295D01*
X183142142Y-191810302D01*
X182998466Y-191997545D01*
X182880455Y-192201943D01*
X182880450Y-192201954D01*
X182790130Y-192420006D01*
X182729042Y-192647989D01*
X182698237Y-192881979D01*
X182698236Y-192881995D01*
X149950000Y-192881995D01*
X149950000Y-164474983D01*
X150994500Y-164474983D01*
X150994500Y-165100001D01*
X150994501Y-165100019D01*
X151005000Y-165202796D01*
X151005001Y-165202799D01*
X151060185Y-165369331D01*
X151060187Y-165369336D01*
X151095069Y-165425888D01*
X151142507Y-165502799D01*
X151152289Y-165518657D01*
X151245951Y-165612319D01*
X151279436Y-165673642D01*
X151274452Y-165743334D01*
X151245951Y-165787681D01*
X151152289Y-165881342D01*
X151060187Y-166030663D01*
X151060186Y-166030667D01*
X151005001Y-166197203D01*
X151005001Y-166197204D01*
X151005000Y-166197204D01*
X150994500Y-166299983D01*
X150994500Y-166925001D01*
X150994501Y-166925019D01*
X151005000Y-167027796D01*
X151005001Y-167027799D01*
X151029854Y-167102799D01*
X151060186Y-167194334D01*
X151152288Y-167343656D01*
X151276344Y-167467712D01*
X151425666Y-167559814D01*
X151592203Y-167614999D01*
X151694991Y-167625500D01*
X152695008Y-167625499D01*
X152695016Y-167625498D01*
X152695019Y-167625498D01*
X152751302Y-167619748D01*
X152797797Y-167614999D01*
X152964334Y-167559814D01*
X153113656Y-167467712D01*
X153237712Y-167343656D01*
X153329814Y-167194334D01*
X153384999Y-167027797D01*
X153395500Y-166925009D01*
X153395499Y-166299992D01*
X153384999Y-166197203D01*
X153329814Y-166030666D01*
X153310889Y-165999983D01*
X153989500Y-165999983D01*
X153989500Y-167000001D01*
X153989501Y-167000019D01*
X154000000Y-167102796D01*
X154000001Y-167102799D01*
X154030332Y-167194331D01*
X154055186Y-167269334D01*
X154147288Y-167418656D01*
X154271344Y-167542712D01*
X154420666Y-167634814D01*
X154587203Y-167689999D01*
X154689991Y-167700500D01*
X155315008Y-167700499D01*
X155315016Y-167700498D01*
X155315019Y-167700498D01*
X155371302Y-167694748D01*
X155417797Y-167689999D01*
X155584334Y-167634814D01*
X155733656Y-167542712D01*
X155827319Y-167449049D01*
X155888642Y-167415564D01*
X155958334Y-167420548D01*
X156002681Y-167449049D01*
X156096344Y-167542712D01*
X156245666Y-167634814D01*
X156412203Y-167689999D01*
X156514991Y-167700500D01*
X157140008Y-167700499D01*
X157140016Y-167700498D01*
X157140019Y-167700498D01*
X157196302Y-167694748D01*
X157242797Y-167689999D01*
X157409334Y-167634814D01*
X157558656Y-167542712D01*
X157682712Y-167418656D01*
X157774814Y-167269334D01*
X157829999Y-167102797D01*
X157840500Y-167000009D01*
X157840499Y-165999992D01*
X157839744Y-165992605D01*
X157829999Y-165897203D01*
X157829998Y-165897200D01*
X157814635Y-165850837D01*
X157802756Y-165814990D01*
X157802753Y-165814982D01*
X159134500Y-165814982D01*
X159134500Y-167615017D01*
X159145000Y-167717796D01*
X159145001Y-167717798D01*
X159200186Y-167884335D01*
X159292288Y-168033656D01*
X159416344Y-168157712D01*
X159565665Y-168249814D01*
X159732202Y-168304999D01*
X159834990Y-168315500D01*
X159834995Y-168315500D01*
X161635005Y-168315500D01*
X161635010Y-168315500D01*
X161737798Y-168304999D01*
X161904335Y-168249814D01*
X162053656Y-168157712D01*
X162177712Y-168033656D01*
X162269814Y-167884335D01*
X162324999Y-167717798D01*
X162335500Y-167615010D01*
X162335500Y-165814990D01*
X162324999Y-165712202D01*
X162269814Y-165545665D01*
X162177712Y-165396344D01*
X162053656Y-165272288D01*
X161944563Y-165204999D01*
X161904337Y-165180187D01*
X161904332Y-165180185D01*
X161899829Y-165178693D01*
X161737798Y-165125001D01*
X161737796Y-165125000D01*
X161635017Y-165114500D01*
X161635010Y-165114500D01*
X159834990Y-165114500D01*
X159834982Y-165114500D01*
X159732203Y-165125000D01*
X159732202Y-165125001D01*
X159726025Y-165127048D01*
X159565667Y-165180185D01*
X159565662Y-165180187D01*
X159416342Y-165272289D01*
X159292289Y-165396342D01*
X159200187Y-165545662D01*
X159200185Y-165545667D01*
X159172673Y-165628693D01*
X159145001Y-165712202D01*
X159145001Y-165712203D01*
X159145000Y-165712203D01*
X159134500Y-165814982D01*
X157802753Y-165814982D01*
X157774814Y-165730666D01*
X157682712Y-165581344D01*
X157558656Y-165457288D01*
X157465778Y-165400001D01*
X157409336Y-165365187D01*
X157409331Y-165365185D01*
X157407862Y-165364698D01*
X157242797Y-165310001D01*
X157242795Y-165310000D01*
X157140010Y-165299500D01*
X156514998Y-165299500D01*
X156514980Y-165299501D01*
X156412203Y-165310000D01*
X156412200Y-165310001D01*
X156245668Y-165365185D01*
X156245663Y-165365187D01*
X156096342Y-165457289D01*
X156002681Y-165550951D01*
X155941358Y-165584436D01*
X155871666Y-165579452D01*
X155827319Y-165550951D01*
X155733657Y-165457289D01*
X155733656Y-165457288D01*
X155640778Y-165400001D01*
X155584336Y-165365187D01*
X155584331Y-165365185D01*
X155582862Y-165364698D01*
X155417797Y-165310001D01*
X155417795Y-165310000D01*
X155315010Y-165299500D01*
X154689998Y-165299500D01*
X154689980Y-165299501D01*
X154587203Y-165310000D01*
X154587200Y-165310001D01*
X154420668Y-165365185D01*
X154420663Y-165365187D01*
X154271342Y-165457289D01*
X154147289Y-165581342D01*
X154055187Y-165730663D01*
X154055186Y-165730666D01*
X154000001Y-165897203D01*
X154000001Y-165897204D01*
X154000000Y-165897204D01*
X153989500Y-165999983D01*
X153310889Y-165999983D01*
X153237712Y-165881344D01*
X153144049Y-165787681D01*
X153110564Y-165726358D01*
X153115548Y-165656666D01*
X153144049Y-165612319D01*
X153176916Y-165579452D01*
X153237712Y-165518656D01*
X153329814Y-165369334D01*
X153384999Y-165202797D01*
X153395500Y-165100009D01*
X153395499Y-164474992D01*
X153393870Y-164459049D01*
X153384999Y-164372203D01*
X153384998Y-164372200D01*
X153365352Y-164312912D01*
X153329814Y-164205666D01*
X153237712Y-164056344D01*
X153113656Y-163932288D01*
X152964334Y-163840186D01*
X152797797Y-163785001D01*
X152797795Y-163785000D01*
X152695010Y-163774500D01*
X151694998Y-163774500D01*
X151694980Y-163774501D01*
X151592203Y-163785000D01*
X151592200Y-163785001D01*
X151425668Y-163840185D01*
X151425663Y-163840187D01*
X151276342Y-163932289D01*
X151152289Y-164056342D01*
X151060187Y-164205663D01*
X151060185Y-164205668D01*
X151043114Y-164257186D01*
X151005001Y-164372203D01*
X151005001Y-164372204D01*
X151005000Y-164372204D01*
X150994500Y-164474983D01*
X149950000Y-164474983D01*
X149950000Y-156147134D01*
X151664500Y-156147134D01*
X151664500Y-157942869D01*
X151664501Y-157942875D01*
X151670908Y-158002482D01*
X151721202Y-158137327D01*
X151721206Y-158137334D01*
X151807452Y-158252543D01*
X151807455Y-158252546D01*
X151922664Y-158338792D01*
X151922671Y-158338796D01*
X152054082Y-158387809D01*
X152110016Y-158429680D01*
X152134433Y-158495144D01*
X152119582Y-158563417D01*
X152098431Y-158591672D01*
X151984889Y-158705214D01*
X151859951Y-158877178D01*
X151763444Y-159066584D01*
X151697753Y-159268759D01*
X151664500Y-159478712D01*
X151664500Y-159691285D01*
X151697753Y-159901238D01*
X151697753Y-159901240D01*
X151697754Y-159901242D01*
X151758222Y-160087343D01*
X151763444Y-160103413D01*
X151859951Y-160292819D01*
X151984890Y-160464785D01*
X152135213Y-160615108D01*
X152307179Y-160740047D01*
X152307181Y-160740048D01*
X152307184Y-160740050D01*
X152316493Y-160744793D01*
X152367290Y-160792765D01*
X152384087Y-160860586D01*
X152361552Y-160926721D01*
X152316505Y-160965759D01*
X152307446Y-160970375D01*
X152307440Y-160970379D01*
X152253282Y-161009726D01*
X152253282Y-161009727D01*
X152885591Y-161642036D01*
X152822007Y-161659074D01*
X152707993Y-161724900D01*
X152614901Y-161817992D01*
X152549075Y-161932006D01*
X152532037Y-161995590D01*
X151899728Y-161363281D01*
X151899727Y-161363281D01*
X151860380Y-161417438D01*
X151763904Y-161606781D01*
X151698242Y-161808868D01*
X151698242Y-161808871D01*
X151665000Y-162018752D01*
X151665000Y-162231245D01*
X151698242Y-162441126D01*
X151698242Y-162441129D01*
X151763904Y-162643216D01*
X151860375Y-162832549D01*
X151899728Y-162886715D01*
X152532037Y-162254407D01*
X152549075Y-162317992D01*
X152614901Y-162432006D01*
X152707993Y-162525098D01*
X152822007Y-162590924D01*
X152885590Y-162607961D01*
X152253282Y-163240268D01*
X152253282Y-163240269D01*
X152307449Y-163279623D01*
X152496782Y-163376094D01*
X152698870Y-163441756D01*
X152908754Y-163474999D01*
X153121246Y-163474999D01*
X153331127Y-163441756D01*
X153331130Y-163441756D01*
X153533217Y-163376094D01*
X153722554Y-163279621D01*
X153776716Y-163240269D01*
X153776717Y-163240269D01*
X153546431Y-163009983D01*
X154664499Y-163009983D01*
X154664499Y-164010001D01*
X154664500Y-164010019D01*
X154674999Y-164112796D01*
X154675000Y-164112799D01*
X154730184Y-164279331D01*
X154730186Y-164279336D01*
X154741207Y-164297204D01*
X154822287Y-164428656D01*
X154946343Y-164552712D01*
X155095665Y-164644814D01*
X155262202Y-164699999D01*
X155364990Y-164710500D01*
X155990007Y-164710499D01*
X155990015Y-164710498D01*
X155990018Y-164710498D01*
X156046301Y-164704748D01*
X156092796Y-164699999D01*
X156259333Y-164644814D01*
X156408655Y-164552712D01*
X156502318Y-164459049D01*
X156563641Y-164425564D01*
X156633333Y-164430548D01*
X156677680Y-164459049D01*
X156771343Y-164552712D01*
X156920665Y-164644814D01*
X157087202Y-164699999D01*
X157189990Y-164710500D01*
X157815007Y-164710499D01*
X157815015Y-164710498D01*
X157815018Y-164710498D01*
X157871301Y-164704748D01*
X157917796Y-164699999D01*
X158084333Y-164644814D01*
X158233655Y-164552712D01*
X158357711Y-164428656D01*
X158375397Y-164399983D01*
X162634499Y-164399983D01*
X162634499Y-165400001D01*
X162634500Y-165400019D01*
X162644999Y-165502796D01*
X162645000Y-165502799D01*
X162700184Y-165669331D01*
X162700186Y-165669336D01*
X162719100Y-165700000D01*
X162792287Y-165818656D01*
X162916343Y-165942712D01*
X163065665Y-166034814D01*
X163232202Y-166089999D01*
X163334990Y-166100500D01*
X163960007Y-166100499D01*
X163960015Y-166100498D01*
X163960018Y-166100498D01*
X164018744Y-166094499D01*
X164062796Y-166089999D01*
X164229333Y-166034814D01*
X164378655Y-165942712D01*
X164472318Y-165849049D01*
X164533641Y-165815564D01*
X164603333Y-165820548D01*
X164647680Y-165849049D01*
X164741343Y-165942712D01*
X164890665Y-166034814D01*
X165057202Y-166089999D01*
X165159990Y-166100500D01*
X165785007Y-166100499D01*
X165785015Y-166100498D01*
X165785018Y-166100498D01*
X165843744Y-166094499D01*
X165887796Y-166089999D01*
X166054333Y-166034814D01*
X166203655Y-165942712D01*
X166327711Y-165818656D01*
X166419813Y-165669334D01*
X166474998Y-165502797D01*
X166485499Y-165400009D01*
X166485498Y-164507154D01*
X167804999Y-164507154D01*
X167804999Y-165204999D01*
X168829721Y-165204999D01*
X168785666Y-165281305D01*
X168754999Y-165395755D01*
X168754999Y-165514243D01*
X168785666Y-165628693D01*
X168829721Y-165704999D01*
X167804999Y-165704999D01*
X167804999Y-166402843D01*
X167811400Y-166462371D01*
X167811402Y-166462378D01*
X167861644Y-166597085D01*
X167861648Y-166597092D01*
X167947808Y-166712186D01*
X167947811Y-166712189D01*
X168062905Y-166798349D01*
X168062912Y-166798353D01*
X168197619Y-166848595D01*
X168197626Y-166848597D01*
X168257154Y-166854998D01*
X168257171Y-166854999D01*
X168954999Y-166854999D01*
X168954999Y-165830276D01*
X169031305Y-165874332D01*
X169145755Y-165904999D01*
X169264243Y-165904999D01*
X169378693Y-165874332D01*
X169454999Y-165830276D01*
X169454999Y-166854999D01*
X170152827Y-166854999D01*
X170152843Y-166854998D01*
X170212371Y-166848597D01*
X170212378Y-166848595D01*
X170347085Y-166798353D01*
X170347092Y-166798349D01*
X170462186Y-166712189D01*
X170462189Y-166712186D01*
X170548349Y-166597092D01*
X170548353Y-166597085D01*
X170578212Y-166517030D01*
X170620083Y-166461096D01*
X170685547Y-166436679D01*
X170753820Y-166451530D01*
X170782075Y-166472682D01*
X170832635Y-166523242D01*
X170832640Y-166523246D01*
X170937370Y-166599336D01*
X171010977Y-166652814D01*
X171127500Y-166712186D01*
X171207392Y-166752894D01*
X171207395Y-166752895D01*
X171287891Y-166779049D01*
X171417048Y-166821014D01*
X171634777Y-166855499D01*
X171634778Y-166855499D01*
X171855220Y-166855499D01*
X171855221Y-166855499D01*
X172072950Y-166821014D01*
X172282605Y-166752894D01*
X172479021Y-166652814D01*
X172657364Y-166523241D01*
X172813241Y-166367364D01*
X172942814Y-166189021D01*
X173042894Y-165992605D01*
X173111014Y-165782950D01*
X173145499Y-165565221D01*
X173145499Y-165344777D01*
X173143156Y-165329983D01*
X173444499Y-165329983D01*
X173444499Y-166330001D01*
X173444500Y-166330019D01*
X173454999Y-166432796D01*
X173455000Y-166432799D01*
X173510184Y-166599331D01*
X173510186Y-166599336D01*
X173543170Y-166652811D01*
X173602287Y-166748656D01*
X173726343Y-166872712D01*
X173875665Y-166964814D01*
X174042202Y-167019999D01*
X174144990Y-167030500D01*
X174770007Y-167030499D01*
X174770015Y-167030498D01*
X174770018Y-167030498D01*
X174826301Y-167024748D01*
X174872796Y-167019999D01*
X175039333Y-166964814D01*
X175188655Y-166872712D01*
X175282318Y-166779049D01*
X175343641Y-166745564D01*
X175413333Y-166750548D01*
X175457680Y-166779049D01*
X175551343Y-166872712D01*
X175700665Y-166964814D01*
X175867202Y-167019999D01*
X175969990Y-167030500D01*
X176595007Y-167030499D01*
X176595015Y-167030498D01*
X176595018Y-167030498D01*
X176651301Y-167024748D01*
X176697796Y-167019999D01*
X176864333Y-166964814D01*
X177013655Y-166872712D01*
X177137711Y-166748656D01*
X177229813Y-166599334D01*
X177284998Y-166432797D01*
X177295499Y-166330009D01*
X177295498Y-165329992D01*
X177295497Y-165329983D01*
X177894499Y-165329983D01*
X177894499Y-166330001D01*
X177894500Y-166330019D01*
X177904999Y-166432796D01*
X177905000Y-166432799D01*
X177960184Y-166599331D01*
X177960186Y-166599336D01*
X177993170Y-166652811D01*
X178052287Y-166748656D01*
X178176343Y-166872712D01*
X178325665Y-166964814D01*
X178492202Y-167019999D01*
X178594990Y-167030500D01*
X179220007Y-167030499D01*
X179220015Y-167030498D01*
X179220018Y-167030498D01*
X179276301Y-167024748D01*
X179322796Y-167019999D01*
X179489333Y-166964814D01*
X179638655Y-166872712D01*
X179732318Y-166779049D01*
X179793641Y-166745564D01*
X179863333Y-166750548D01*
X179907680Y-166779049D01*
X180001343Y-166872712D01*
X180150665Y-166964814D01*
X180317202Y-167019999D01*
X180419990Y-167030500D01*
X181045007Y-167030499D01*
X181045015Y-167030498D01*
X181045018Y-167030498D01*
X181101301Y-167024748D01*
X181147796Y-167019999D01*
X181314333Y-166964814D01*
X181463655Y-166872712D01*
X181541385Y-166794982D01*
X182339499Y-166794982D01*
X182339499Y-167420000D01*
X182339500Y-167420018D01*
X182349999Y-167522795D01*
X182350000Y-167522798D01*
X182405184Y-167689330D01*
X182405186Y-167689335D01*
X182497288Y-167838656D01*
X182590950Y-167932318D01*
X182624435Y-167993641D01*
X182619451Y-168063333D01*
X182590950Y-168107680D01*
X182497288Y-168201341D01*
X182405186Y-168350662D01*
X182405185Y-168350665D01*
X182350000Y-168517202D01*
X182350000Y-168517203D01*
X182349999Y-168517203D01*
X182339499Y-168619982D01*
X182339499Y-169245000D01*
X182339500Y-169245018D01*
X182349999Y-169347795D01*
X182350000Y-169347798D01*
X182405184Y-169514330D01*
X182405185Y-169514333D01*
X182497287Y-169663655D01*
X182621343Y-169787711D01*
X182770665Y-169879813D01*
X182937202Y-169934998D01*
X183039990Y-169945499D01*
X184040007Y-169945498D01*
X184040015Y-169945497D01*
X184040018Y-169945497D01*
X184096301Y-169939747D01*
X184142796Y-169934998D01*
X184309333Y-169879813D01*
X184458655Y-169787711D01*
X184582711Y-169663655D01*
X184674813Y-169514333D01*
X184729998Y-169347796D01*
X184740499Y-169245008D01*
X184740498Y-168619991D01*
X184729998Y-168517202D01*
X184674813Y-168350665D01*
X184582711Y-168201343D01*
X184489048Y-168107680D01*
X184455563Y-168046357D01*
X184460547Y-167976665D01*
X184489048Y-167932318D01*
X184582711Y-167838655D01*
X184674813Y-167689333D01*
X184729998Y-167522796D01*
X184740499Y-167420008D01*
X184740498Y-166794991D01*
X184735764Y-166748652D01*
X184729998Y-166692202D01*
X184729997Y-166692199D01*
X184674813Y-166525665D01*
X184582711Y-166376343D01*
X184458655Y-166252287D01*
X184309333Y-166160185D01*
X184142796Y-166105000D01*
X184142794Y-166104999D01*
X184040009Y-166094499D01*
X183039997Y-166094499D01*
X183039979Y-166094500D01*
X182937202Y-166104999D01*
X182937199Y-166105000D01*
X182770667Y-166160184D01*
X182770662Y-166160186D01*
X182621341Y-166252288D01*
X182497288Y-166376341D01*
X182405186Y-166525662D01*
X182405185Y-166525665D01*
X182350000Y-166692202D01*
X182350000Y-166692203D01*
X182349999Y-166692203D01*
X182339499Y-166794982D01*
X181541385Y-166794982D01*
X181587711Y-166748656D01*
X181593050Y-166739998D01*
X181601232Y-166726736D01*
X181679809Y-166599340D01*
X181679813Y-166599334D01*
X181734998Y-166432797D01*
X181745499Y-166330009D01*
X181745498Y-165329992D01*
X181739603Y-165272288D01*
X181734998Y-165227203D01*
X181734997Y-165227200D01*
X181718923Y-165178693D01*
X181679813Y-165060666D01*
X181587711Y-164911344D01*
X181463655Y-164787288D01*
X181339161Y-164710500D01*
X181314335Y-164695187D01*
X181314330Y-164695185D01*
X181312861Y-164694698D01*
X181147796Y-164640001D01*
X181147794Y-164640000D01*
X181045009Y-164629500D01*
X180419997Y-164629500D01*
X180419979Y-164629501D01*
X180317202Y-164640000D01*
X180317199Y-164640001D01*
X180150667Y-164695185D01*
X180150662Y-164695187D01*
X180001341Y-164787289D01*
X179907680Y-164880951D01*
X179846357Y-164914436D01*
X179776665Y-164909452D01*
X179732318Y-164880951D01*
X179638656Y-164787289D01*
X179638655Y-164787288D01*
X179514161Y-164710500D01*
X179489335Y-164695187D01*
X179489330Y-164695185D01*
X179487861Y-164694698D01*
X179322796Y-164640001D01*
X179322794Y-164640000D01*
X179220009Y-164629500D01*
X178594997Y-164629500D01*
X178594979Y-164629501D01*
X178492202Y-164640000D01*
X178492199Y-164640001D01*
X178325667Y-164695185D01*
X178325662Y-164695187D01*
X178176341Y-164787289D01*
X178052288Y-164911342D01*
X177960186Y-165060663D01*
X177960184Y-165060668D01*
X177947145Y-165100019D01*
X177905000Y-165227203D01*
X177905000Y-165227204D01*
X177904999Y-165227204D01*
X177894499Y-165329983D01*
X177295497Y-165329983D01*
X177289603Y-165272288D01*
X177284998Y-165227203D01*
X177284997Y-165227200D01*
X177268923Y-165178693D01*
X177229813Y-165060666D01*
X177137711Y-164911344D01*
X177013655Y-164787288D01*
X176889161Y-164710500D01*
X176864335Y-164695187D01*
X176864330Y-164695185D01*
X176862861Y-164694698D01*
X176697796Y-164640001D01*
X176697794Y-164640000D01*
X176595009Y-164629500D01*
X175969997Y-164629500D01*
X175969979Y-164629501D01*
X175867202Y-164640000D01*
X175867199Y-164640001D01*
X175700667Y-164695185D01*
X175700662Y-164695187D01*
X175551341Y-164787289D01*
X175457680Y-164880951D01*
X175396357Y-164914436D01*
X175326665Y-164909452D01*
X175282318Y-164880951D01*
X175188656Y-164787289D01*
X175188655Y-164787288D01*
X175064161Y-164710500D01*
X175039335Y-164695187D01*
X175039330Y-164695185D01*
X175037861Y-164694698D01*
X174872796Y-164640001D01*
X174872794Y-164640000D01*
X174770009Y-164629500D01*
X174144997Y-164629500D01*
X174144979Y-164629501D01*
X174042202Y-164640000D01*
X174042199Y-164640001D01*
X173875667Y-164695185D01*
X173875662Y-164695187D01*
X173726341Y-164787289D01*
X173602288Y-164911342D01*
X173510186Y-165060663D01*
X173510184Y-165060668D01*
X173497145Y-165100019D01*
X173455000Y-165227203D01*
X173455000Y-165227204D01*
X173454999Y-165227204D01*
X173444499Y-165329983D01*
X173143156Y-165329983D01*
X173111014Y-165127048D01*
X173076954Y-165022220D01*
X173042895Y-164917395D01*
X173042894Y-164917392D01*
X173008236Y-164849374D01*
X172942814Y-164720977D01*
X172876353Y-164629501D01*
X172813246Y-164542640D01*
X172813242Y-164542635D01*
X172657362Y-164386755D01*
X172657357Y-164386751D01*
X172479024Y-164257186D01*
X172479023Y-164257185D01*
X172479021Y-164257184D01*
X172416095Y-164225121D01*
X172282605Y-164157103D01*
X172282602Y-164157102D01*
X172072951Y-164088984D01*
X171935437Y-164067204D01*
X171855221Y-164054499D01*
X171634777Y-164054499D01*
X171562200Y-164065994D01*
X171417046Y-164088984D01*
X171207395Y-164157102D01*
X171207392Y-164157103D01*
X171010973Y-164257186D01*
X170832640Y-164386751D01*
X170832635Y-164386755D01*
X170782074Y-164437316D01*
X170720751Y-164470800D01*
X170651059Y-164465815D01*
X170595126Y-164423944D01*
X170578212Y-164392967D01*
X170548353Y-164312912D01*
X170548349Y-164312905D01*
X170462189Y-164197811D01*
X170462186Y-164197808D01*
X170347092Y-164111648D01*
X170347085Y-164111644D01*
X170212378Y-164061402D01*
X170212371Y-164061400D01*
X170152843Y-164054999D01*
X169454999Y-164054999D01*
X169454999Y-165079721D01*
X169378693Y-165035666D01*
X169264243Y-165004999D01*
X169145755Y-165004999D01*
X169031305Y-165035666D01*
X168954999Y-165079721D01*
X168954999Y-164054999D01*
X168257154Y-164054999D01*
X168197626Y-164061400D01*
X168197619Y-164061402D01*
X168062912Y-164111644D01*
X168062905Y-164111648D01*
X167947811Y-164197808D01*
X167947808Y-164197811D01*
X167861648Y-164312905D01*
X167861644Y-164312912D01*
X167811402Y-164447619D01*
X167811400Y-164447626D01*
X167804999Y-164507154D01*
X166485498Y-164507154D01*
X166485498Y-164399992D01*
X166484780Y-164392967D01*
X166474998Y-164297203D01*
X166474997Y-164297200D01*
X166469076Y-164279331D01*
X166419813Y-164130666D01*
X166327711Y-163981344D01*
X166203655Y-163857288D01*
X166093021Y-163789049D01*
X166054335Y-163765187D01*
X166054330Y-163765185D01*
X166034627Y-163758656D01*
X165887796Y-163710001D01*
X165887794Y-163710000D01*
X165785009Y-163699500D01*
X165159997Y-163699500D01*
X165159979Y-163699501D01*
X165057202Y-163710000D01*
X165057199Y-163710001D01*
X164890667Y-163765185D01*
X164890662Y-163765187D01*
X164741341Y-163857289D01*
X164647680Y-163950951D01*
X164586357Y-163984436D01*
X164516665Y-163979452D01*
X164472318Y-163950951D01*
X164378656Y-163857289D01*
X164378655Y-163857288D01*
X164268021Y-163789049D01*
X164229335Y-163765187D01*
X164229330Y-163765185D01*
X164209627Y-163758656D01*
X164062796Y-163710001D01*
X164062794Y-163710000D01*
X163960009Y-163699500D01*
X163334997Y-163699500D01*
X163334979Y-163699501D01*
X163232202Y-163710000D01*
X163232199Y-163710001D01*
X163065667Y-163765185D01*
X163065662Y-163765187D01*
X162916341Y-163857289D01*
X162792288Y-163981342D01*
X162700186Y-164130663D01*
X162700184Y-164130668D01*
X162677936Y-164197808D01*
X162645000Y-164297203D01*
X162645000Y-164297204D01*
X162644999Y-164297204D01*
X162634499Y-164399983D01*
X158375397Y-164399983D01*
X158449813Y-164279334D01*
X158504998Y-164112797D01*
X158515499Y-164010009D01*
X158515498Y-163009992D01*
X158511414Y-162970016D01*
X158504998Y-162907203D01*
X158504997Y-162907200D01*
X158480260Y-162832549D01*
X158449813Y-162740666D01*
X158357711Y-162591344D01*
X158233655Y-162467288D01*
X158084333Y-162375186D01*
X157917796Y-162320001D01*
X157917794Y-162320000D01*
X157815009Y-162309500D01*
X157189997Y-162309500D01*
X157189979Y-162309501D01*
X157087202Y-162320000D01*
X157087199Y-162320001D01*
X156920667Y-162375185D01*
X156920662Y-162375187D01*
X156771341Y-162467289D01*
X156677680Y-162560951D01*
X156616357Y-162594436D01*
X156546665Y-162589452D01*
X156502318Y-162560951D01*
X156408656Y-162467289D01*
X156408655Y-162467288D01*
X156259333Y-162375186D01*
X156092796Y-162320001D01*
X156092794Y-162320000D01*
X155990009Y-162309500D01*
X155364997Y-162309500D01*
X155364979Y-162309501D01*
X155262202Y-162320000D01*
X155262199Y-162320001D01*
X155095667Y-162375185D01*
X155095662Y-162375187D01*
X154946341Y-162467289D01*
X154822288Y-162591342D01*
X154730186Y-162740663D01*
X154730185Y-162740666D01*
X154675000Y-162907203D01*
X154675000Y-162907204D01*
X154674999Y-162907204D01*
X154664499Y-163009983D01*
X153546431Y-163009983D01*
X153144408Y-162607961D01*
X153207993Y-162590924D01*
X153322007Y-162525098D01*
X153415099Y-162432006D01*
X153480925Y-162317992D01*
X153497962Y-162254407D01*
X154130270Y-162886716D01*
X154130270Y-162886715D01*
X154169622Y-162832553D01*
X154266095Y-162643216D01*
X154331757Y-162441129D01*
X154331757Y-162441126D01*
X154365000Y-162231245D01*
X154365000Y-162018751D01*
X154356214Y-161963278D01*
X154331757Y-161808871D01*
X154331757Y-161808868D01*
X154266095Y-161606781D01*
X154169624Y-161417448D01*
X154130270Y-161363281D01*
X154130269Y-161363281D01*
X153497962Y-161995589D01*
X153480925Y-161932006D01*
X153415099Y-161817992D01*
X153322007Y-161724900D01*
X153207993Y-161659074D01*
X153144409Y-161642036D01*
X153776716Y-161009727D01*
X153722547Y-160970372D01*
X153722547Y-160970371D01*
X153713500Y-160965762D01*
X153662706Y-160917787D01*
X153645912Y-160849965D01*
X153668451Y-160783831D01*
X153713508Y-160744792D01*
X153722816Y-160740050D01*
X153819166Y-160670048D01*
X153894786Y-160615108D01*
X153894788Y-160615105D01*
X153894792Y-160615103D01*
X154045104Y-160464791D01*
X154045106Y-160464787D01*
X154045109Y-160464785D01*
X154170048Y-160292819D01*
X154170047Y-160292819D01*
X154170051Y-160292815D01*
X154266557Y-160103411D01*
X154293665Y-160019983D01*
X154664499Y-160019983D01*
X154664499Y-161020001D01*
X154664500Y-161020019D01*
X154674999Y-161122796D01*
X154675000Y-161122799D01*
X154714797Y-161242896D01*
X154730185Y-161289334D01*
X154822287Y-161438656D01*
X154946343Y-161562712D01*
X155095665Y-161654814D01*
X155262202Y-161709999D01*
X155364990Y-161720500D01*
X155990007Y-161720499D01*
X155990015Y-161720498D01*
X155990018Y-161720498D01*
X156046301Y-161714748D01*
X156092796Y-161709999D01*
X156259333Y-161654814D01*
X156408655Y-161562712D01*
X156502318Y-161469049D01*
X156563641Y-161435564D01*
X156633333Y-161440548D01*
X156677680Y-161469049D01*
X156771343Y-161562712D01*
X156920665Y-161654814D01*
X157087202Y-161709999D01*
X157189990Y-161720500D01*
X157815007Y-161720499D01*
X157815015Y-161720498D01*
X157815018Y-161720498D01*
X157871301Y-161714748D01*
X157917796Y-161709999D01*
X158084333Y-161654814D01*
X158233655Y-161562712D01*
X158357711Y-161438656D01*
X158449813Y-161289334D01*
X158504998Y-161122797D01*
X158515499Y-161020009D01*
X158515498Y-160019992D01*
X158513889Y-160004244D01*
X158504998Y-159917203D01*
X158504997Y-159917200D01*
X158477685Y-159834778D01*
X158449813Y-159750666D01*
X158357711Y-159601344D01*
X158233655Y-159477288D01*
X158120338Y-159407394D01*
X158084335Y-159385187D01*
X158084330Y-159385185D01*
X158082861Y-159384698D01*
X157917796Y-159330001D01*
X157917794Y-159330000D01*
X157815009Y-159319500D01*
X157189997Y-159319500D01*
X157189979Y-159319501D01*
X157087202Y-159330000D01*
X157087199Y-159330001D01*
X156920667Y-159385185D01*
X156920662Y-159385187D01*
X156771341Y-159477289D01*
X156677680Y-159570951D01*
X156616357Y-159604436D01*
X156546665Y-159599452D01*
X156502318Y-159570951D01*
X156408656Y-159477289D01*
X156408655Y-159477288D01*
X156295338Y-159407394D01*
X156259335Y-159385187D01*
X156259330Y-159385185D01*
X156257861Y-159384698D01*
X156092796Y-159330001D01*
X156092794Y-159330000D01*
X155990009Y-159319500D01*
X155364997Y-159319500D01*
X155364979Y-159319501D01*
X155262202Y-159330000D01*
X155262199Y-159330001D01*
X155095667Y-159385185D01*
X155095662Y-159385187D01*
X154946341Y-159477289D01*
X154822288Y-159601342D01*
X154730186Y-159750663D01*
X154730184Y-159750668D01*
X154703486Y-159831239D01*
X154675000Y-159917203D01*
X154675000Y-159917204D01*
X154674999Y-159917204D01*
X154664499Y-160019983D01*
X154293665Y-160019983D01*
X154332246Y-159901242D01*
X154365500Y-159691286D01*
X154365500Y-159478712D01*
X154332246Y-159268756D01*
X154266557Y-159066587D01*
X154170051Y-158877183D01*
X154170049Y-158877180D01*
X154170048Y-158877178D01*
X154045109Y-158705212D01*
X153931569Y-158591672D01*
X153898084Y-158530349D01*
X153903068Y-158460657D01*
X153944940Y-158404724D01*
X153975915Y-158387809D01*
X154107331Y-158338795D01*
X154222546Y-158252545D01*
X154308796Y-158137330D01*
X154359091Y-158002482D01*
X154365500Y-157942872D01*
X154365499Y-156147127D01*
X154359091Y-156087516D01*
X154355219Y-156077135D01*
X154308797Y-155952670D01*
X154308793Y-155952663D01*
X154222547Y-155837454D01*
X154222544Y-155837451D01*
X154107335Y-155751205D01*
X154107328Y-155751201D01*
X153972482Y-155700907D01*
X153972483Y-155700907D01*
X153918696Y-155695124D01*
X153918686Y-155695124D01*
X153912873Y-155694499D01*
X153912864Y-155694499D01*
X152117129Y-155694499D01*
X152117123Y-155694500D01*
X152057516Y-155700907D01*
X151922671Y-155751201D01*
X151922664Y-155751205D01*
X151807455Y-155837451D01*
X151807452Y-155837454D01*
X151721206Y-155952663D01*
X151721202Y-155952670D01*
X151670908Y-156087516D01*
X151664501Y-156147115D01*
X151664501Y-156147122D01*
X151664500Y-156147134D01*
X149950000Y-156147134D01*
X149950000Y-155574983D01*
X155484500Y-155574983D01*
X155484500Y-156200001D01*
X155484501Y-156200019D01*
X155495000Y-156302796D01*
X155495001Y-156302799D01*
X155550185Y-156469331D01*
X155550187Y-156469336D01*
X155581436Y-156519998D01*
X155634537Y-156606090D01*
X155642289Y-156618657D01*
X155735951Y-156712319D01*
X155769436Y-156773642D01*
X155764452Y-156843334D01*
X155735951Y-156887681D01*
X155642289Y-156981342D01*
X155550187Y-157130663D01*
X155550186Y-157130666D01*
X155495001Y-157297203D01*
X155495001Y-157297204D01*
X155495000Y-157297204D01*
X155484500Y-157399983D01*
X155484500Y-158025001D01*
X155484501Y-158025019D01*
X155495000Y-158127796D01*
X155495001Y-158127799D01*
X155541724Y-158268797D01*
X155550186Y-158294334D01*
X155642288Y-158443656D01*
X155766344Y-158567712D01*
X155915666Y-158659814D01*
X156082203Y-158714999D01*
X156184991Y-158725500D01*
X157185008Y-158725499D01*
X157185016Y-158725498D01*
X157185019Y-158725498D01*
X157241302Y-158719748D01*
X157287797Y-158714999D01*
X157454334Y-158659814D01*
X157603656Y-158567712D01*
X157727712Y-158443656D01*
X157819814Y-158294334D01*
X157874999Y-158127797D01*
X157885500Y-158025009D01*
X157885499Y-157399992D01*
X157884871Y-157393848D01*
X157874999Y-157297203D01*
X157874998Y-157297200D01*
X157819814Y-157130666D01*
X157727712Y-156981344D01*
X157634049Y-156887681D01*
X157600564Y-156826358D01*
X157605548Y-156756666D01*
X157634049Y-156712319D01*
X157665407Y-156680961D01*
X157727712Y-156618656D01*
X157819814Y-156469334D01*
X157833167Y-156429038D01*
X159134500Y-156429038D01*
X159134500Y-156680962D01*
X159149179Y-156773642D01*
X159173910Y-156929785D01*
X159251760Y-157169383D01*
X159366132Y-157393848D01*
X159514201Y-157597649D01*
X159514205Y-157597654D01*
X159692345Y-157775794D01*
X159692350Y-157775798D01*
X159825977Y-157872883D01*
X159896155Y-157923870D01*
X160039184Y-157996747D01*
X160120616Y-158038239D01*
X160120618Y-158038239D01*
X160120621Y-158038241D01*
X160360215Y-158116090D01*
X160609038Y-158155500D01*
X160609039Y-158155500D01*
X160860961Y-158155500D01*
X160860962Y-158155500D01*
X161109785Y-158116090D01*
X161349379Y-158038241D01*
X161573845Y-157923870D01*
X161777656Y-157775793D01*
X161955793Y-157597656D01*
X162103870Y-157393845D01*
X162218241Y-157169379D01*
X162296090Y-156929785D01*
X162335500Y-156680962D01*
X162335500Y-156429038D01*
X162309645Y-156265798D01*
X162296090Y-156180214D01*
X162273966Y-156112125D01*
X162262597Y-156077135D01*
X163844499Y-156077135D01*
X163844499Y-157872870D01*
X163844500Y-157872876D01*
X163850907Y-157932483D01*
X163901201Y-158067328D01*
X163901205Y-158067335D01*
X163987451Y-158182544D01*
X163987454Y-158182547D01*
X164102663Y-158268793D01*
X164102670Y-158268797D01*
X164234081Y-158317810D01*
X164290015Y-158359681D01*
X164314432Y-158425145D01*
X164299581Y-158493418D01*
X164278430Y-158521673D01*
X164164888Y-158635215D01*
X164039950Y-158807179D01*
X163943443Y-158996585D01*
X163877752Y-159198760D01*
X163858629Y-159319500D01*
X163844499Y-159408713D01*
X163844499Y-159621287D01*
X163877753Y-159831243D01*
X163939081Y-160019991D01*
X163943443Y-160033414D01*
X164039950Y-160222820D01*
X164164889Y-160394786D01*
X164315212Y-160545109D01*
X164487178Y-160670048D01*
X164487180Y-160670049D01*
X164487183Y-160670051D01*
X164496492Y-160674794D01*
X164547289Y-160722766D01*
X164564086Y-160790587D01*
X164541551Y-160856722D01*
X164496504Y-160895760D01*
X164487445Y-160900376D01*
X164487439Y-160900380D01*
X164433281Y-160939727D01*
X164433281Y-160939728D01*
X165065590Y-161572037D01*
X165002006Y-161589075D01*
X164887992Y-161654901D01*
X164794900Y-161747993D01*
X164729074Y-161862007D01*
X164712036Y-161925591D01*
X164079727Y-161293282D01*
X164079726Y-161293282D01*
X164040379Y-161347439D01*
X163943903Y-161536782D01*
X163878241Y-161738869D01*
X163878241Y-161738872D01*
X163844999Y-161948753D01*
X163844999Y-162161246D01*
X163878241Y-162371127D01*
X163878241Y-162371130D01*
X163943903Y-162573217D01*
X164040374Y-162762550D01*
X164079727Y-162816716D01*
X164712036Y-162184408D01*
X164729074Y-162247993D01*
X164794900Y-162362007D01*
X164887992Y-162455099D01*
X165002006Y-162520925D01*
X165065589Y-162537962D01*
X164433281Y-163170269D01*
X164433281Y-163170270D01*
X164487448Y-163209624D01*
X164676781Y-163306095D01*
X164878869Y-163371757D01*
X165088753Y-163405000D01*
X165301245Y-163405000D01*
X165511126Y-163371757D01*
X165511129Y-163371757D01*
X165713216Y-163306095D01*
X165902553Y-163209622D01*
X165956715Y-163170270D01*
X165956716Y-163170270D01*
X165324407Y-162537962D01*
X165387992Y-162520925D01*
X165502006Y-162455099D01*
X165595098Y-162362007D01*
X165660924Y-162247993D01*
X165677961Y-162184408D01*
X166310269Y-162816717D01*
X166310269Y-162816716D01*
X166349621Y-162762554D01*
X166446094Y-162573217D01*
X166511756Y-162371130D01*
X166511756Y-162371127D01*
X166516689Y-162339983D01*
X173444499Y-162339983D01*
X173444499Y-163340001D01*
X173444500Y-163340019D01*
X173454999Y-163442796D01*
X173455000Y-163442799D01*
X173482791Y-163526666D01*
X173510185Y-163609334D01*
X173602287Y-163758656D01*
X173726343Y-163882712D01*
X173875665Y-163974814D01*
X174042202Y-164029999D01*
X174144990Y-164040500D01*
X174770007Y-164040499D01*
X174770015Y-164040498D01*
X174770018Y-164040498D01*
X174826301Y-164034748D01*
X174872796Y-164029999D01*
X175039333Y-163974814D01*
X175188655Y-163882712D01*
X175282318Y-163789049D01*
X175343641Y-163755564D01*
X175413333Y-163760548D01*
X175457680Y-163789049D01*
X175551343Y-163882712D01*
X175700665Y-163974814D01*
X175867202Y-164029999D01*
X175969990Y-164040500D01*
X176595007Y-164040499D01*
X176595015Y-164040498D01*
X176595018Y-164040498D01*
X176651301Y-164034748D01*
X176697796Y-164029999D01*
X176864333Y-163974814D01*
X177013655Y-163882712D01*
X177137711Y-163758656D01*
X177229813Y-163609334D01*
X177284998Y-163442797D01*
X177295499Y-163340009D01*
X177295498Y-162339992D01*
X177295497Y-162339983D01*
X177894499Y-162339983D01*
X177894499Y-163340001D01*
X177894500Y-163340019D01*
X177904999Y-163442796D01*
X177905000Y-163442799D01*
X177932791Y-163526666D01*
X177960185Y-163609334D01*
X178052287Y-163758656D01*
X178176343Y-163882712D01*
X178325665Y-163974814D01*
X178492202Y-164029999D01*
X178594990Y-164040500D01*
X179220007Y-164040499D01*
X179220015Y-164040498D01*
X179220018Y-164040498D01*
X179276301Y-164034748D01*
X179322796Y-164029999D01*
X179489333Y-163974814D01*
X179638655Y-163882712D01*
X179732318Y-163789049D01*
X179793641Y-163755564D01*
X179863333Y-163760548D01*
X179907680Y-163789049D01*
X180001343Y-163882712D01*
X180150665Y-163974814D01*
X180317202Y-164029999D01*
X180419990Y-164040500D01*
X181045007Y-164040499D01*
X181045015Y-164040498D01*
X181045018Y-164040498D01*
X181101301Y-164034748D01*
X181147796Y-164029999D01*
X181314333Y-163974814D01*
X181463655Y-163882712D01*
X181587711Y-163758656D01*
X181679813Y-163609334D01*
X181734998Y-163442797D01*
X181745499Y-163340009D01*
X181745498Y-162344983D01*
X182339499Y-162344983D01*
X182339499Y-162970001D01*
X182339500Y-162970019D01*
X182349999Y-163072796D01*
X182350000Y-163072799D01*
X182405184Y-163239331D01*
X182405186Y-163239336D01*
X182430034Y-163279621D01*
X182467281Y-163340009D01*
X182497288Y-163388657D01*
X182590950Y-163482319D01*
X182624435Y-163543642D01*
X182619451Y-163613334D01*
X182590950Y-163657681D01*
X182497288Y-163751342D01*
X182405186Y-163900663D01*
X182405185Y-163900666D01*
X182350000Y-164067203D01*
X182350000Y-164067204D01*
X182349999Y-164067204D01*
X182339499Y-164169983D01*
X182339499Y-164795001D01*
X182339500Y-164795019D01*
X182349999Y-164897796D01*
X182350000Y-164897799D01*
X182405184Y-165064331D01*
X182405186Y-165064336D01*
X182436127Y-165114500D01*
X182497287Y-165213656D01*
X182621343Y-165337712D01*
X182770665Y-165429814D01*
X182937202Y-165484999D01*
X183039990Y-165495500D01*
X184040007Y-165495499D01*
X184040015Y-165495498D01*
X184040018Y-165495498D01*
X184096301Y-165489748D01*
X184142796Y-165484999D01*
X184309333Y-165429814D01*
X184458655Y-165337712D01*
X184582711Y-165213656D01*
X184674813Y-165064334D01*
X184729998Y-164897797D01*
X184740499Y-164795009D01*
X184740498Y-164169992D01*
X184739181Y-164157104D01*
X184729998Y-164067203D01*
X184729997Y-164067200D01*
X184711043Y-164010001D01*
X184674813Y-163900666D01*
X184582711Y-163751344D01*
X184489048Y-163657681D01*
X184455563Y-163596358D01*
X184460547Y-163526666D01*
X184489048Y-163482319D01*
X184529611Y-163441756D01*
X184582711Y-163388656D01*
X184674813Y-163239334D01*
X184729998Y-163072797D01*
X184740499Y-162970009D01*
X184740498Y-162344992D01*
X184739986Y-162339983D01*
X184729998Y-162242203D01*
X184729997Y-162242200D01*
X184691160Y-162124998D01*
X184674813Y-162075666D01*
X184582711Y-161926344D01*
X184458655Y-161802288D01*
X184355836Y-161738869D01*
X184309335Y-161710187D01*
X184309330Y-161710185D01*
X184282957Y-161701446D01*
X184142796Y-161655001D01*
X184142794Y-161655000D01*
X184040009Y-161644500D01*
X183039997Y-161644500D01*
X183039979Y-161644501D01*
X182937202Y-161655000D01*
X182937199Y-161655001D01*
X182770667Y-161710185D01*
X182770662Y-161710187D01*
X182621341Y-161802289D01*
X182497288Y-161926342D01*
X182405186Y-162075663D01*
X182405184Y-162075668D01*
X182377348Y-162159670D01*
X182350000Y-162242203D01*
X182350000Y-162242204D01*
X182349999Y-162242204D01*
X182339499Y-162344983D01*
X181745498Y-162344983D01*
X181745498Y-162339992D01*
X181734998Y-162237203D01*
X181679813Y-162070666D01*
X181587711Y-161921344D01*
X181463655Y-161797288D01*
X181339161Y-161720500D01*
X181314335Y-161705187D01*
X181314330Y-161705185D01*
X181303046Y-161701446D01*
X181147796Y-161650001D01*
X181147794Y-161650000D01*
X181045009Y-161639500D01*
X180419997Y-161639500D01*
X180419979Y-161639501D01*
X180317202Y-161650000D01*
X180317199Y-161650001D01*
X180150667Y-161705185D01*
X180150662Y-161705187D01*
X180001341Y-161797289D01*
X179907680Y-161890951D01*
X179846357Y-161924436D01*
X179776665Y-161919452D01*
X179732318Y-161890951D01*
X179638656Y-161797289D01*
X179638655Y-161797288D01*
X179514161Y-161720500D01*
X179489335Y-161705187D01*
X179489330Y-161705185D01*
X179478046Y-161701446D01*
X179322796Y-161650001D01*
X179322794Y-161650000D01*
X179220009Y-161639500D01*
X178594997Y-161639500D01*
X178594979Y-161639501D01*
X178492202Y-161650000D01*
X178492199Y-161650001D01*
X178325667Y-161705185D01*
X178325662Y-161705187D01*
X178176341Y-161797289D01*
X178052288Y-161921342D01*
X177960186Y-162070663D01*
X177960184Y-162070668D01*
X177942181Y-162124998D01*
X177905000Y-162237203D01*
X177905000Y-162237204D01*
X177904999Y-162237204D01*
X177894499Y-162339983D01*
X177295497Y-162339983D01*
X177284998Y-162237203D01*
X177229813Y-162070666D01*
X177137711Y-161921344D01*
X177013655Y-161797288D01*
X176889161Y-161720500D01*
X176864335Y-161705187D01*
X176864330Y-161705185D01*
X176853046Y-161701446D01*
X176697796Y-161650001D01*
X176697794Y-161650000D01*
X176595009Y-161639500D01*
X175969997Y-161639500D01*
X175969979Y-161639501D01*
X175867202Y-161650000D01*
X175867199Y-161650001D01*
X175700667Y-161705185D01*
X175700662Y-161705187D01*
X175551341Y-161797289D01*
X175457680Y-161890951D01*
X175396357Y-161924436D01*
X175326665Y-161919452D01*
X175282318Y-161890951D01*
X175188656Y-161797289D01*
X175188655Y-161797288D01*
X175064161Y-161720500D01*
X175039335Y-161705187D01*
X175039330Y-161705185D01*
X175028046Y-161701446D01*
X174872796Y-161650001D01*
X174872794Y-161650000D01*
X174770009Y-161639500D01*
X174144997Y-161639500D01*
X174144979Y-161639501D01*
X174042202Y-161650000D01*
X174042199Y-161650001D01*
X173875667Y-161705185D01*
X173875662Y-161705187D01*
X173726341Y-161797289D01*
X173602288Y-161921342D01*
X173510186Y-162070663D01*
X173510184Y-162070668D01*
X173492181Y-162124998D01*
X173455000Y-162237203D01*
X173455000Y-162237204D01*
X173454999Y-162237204D01*
X173444499Y-162339983D01*
X166516689Y-162339983D01*
X166520261Y-162317436D01*
X166544999Y-162161246D01*
X166544999Y-161948753D01*
X166511756Y-161738872D01*
X166511756Y-161738869D01*
X166446094Y-161536782D01*
X166349623Y-161347449D01*
X166310269Y-161293282D01*
X166310268Y-161293282D01*
X165677961Y-161925590D01*
X165660924Y-161862007D01*
X165595098Y-161747993D01*
X165502006Y-161654901D01*
X165387992Y-161589075D01*
X165324408Y-161572037D01*
X165956715Y-160939728D01*
X165902546Y-160900373D01*
X165902546Y-160900372D01*
X165893499Y-160895763D01*
X165842705Y-160847788D01*
X165825911Y-160779966D01*
X165848450Y-160713832D01*
X165893507Y-160674793D01*
X165902815Y-160670051D01*
X165982006Y-160612515D01*
X166074785Y-160545109D01*
X166074787Y-160545106D01*
X166074791Y-160545104D01*
X166225103Y-160394792D01*
X166225105Y-160394788D01*
X166225108Y-160394786D01*
X166313625Y-160272951D01*
X166350050Y-160222816D01*
X166446556Y-160033412D01*
X166512245Y-159831243D01*
X166545499Y-159621287D01*
X166545499Y-159408713D01*
X166512245Y-159198757D01*
X166446740Y-158997155D01*
X167804999Y-158997155D01*
X167804999Y-159695000D01*
X168829721Y-159695000D01*
X168785666Y-159771306D01*
X168754999Y-159885756D01*
X168754999Y-160004244D01*
X168785666Y-160118694D01*
X168829721Y-160195000D01*
X167804999Y-160195000D01*
X167804999Y-160892844D01*
X167811400Y-160952372D01*
X167811402Y-160952379D01*
X167861644Y-161087086D01*
X167861648Y-161087093D01*
X167947808Y-161202187D01*
X167947811Y-161202190D01*
X168062905Y-161288350D01*
X168062912Y-161288354D01*
X168197619Y-161338596D01*
X168197626Y-161338598D01*
X168257154Y-161344999D01*
X168257171Y-161345000D01*
X168954999Y-161345000D01*
X168954999Y-160320277D01*
X169031305Y-160364333D01*
X169145755Y-160395000D01*
X169264243Y-160395000D01*
X169378693Y-160364333D01*
X169454999Y-160320277D01*
X169454999Y-161345000D01*
X170152827Y-161345000D01*
X170152843Y-161344999D01*
X170212371Y-161338598D01*
X170212378Y-161338596D01*
X170347085Y-161288354D01*
X170347092Y-161288350D01*
X170462186Y-161202190D01*
X170462189Y-161202187D01*
X170548349Y-161087093D01*
X170548353Y-161087086D01*
X170578212Y-161007031D01*
X170620083Y-160951097D01*
X170685547Y-160926680D01*
X170753820Y-160941531D01*
X170782075Y-160962683D01*
X170832635Y-161013243D01*
X170832640Y-161013247D01*
X170983422Y-161122795D01*
X171010977Y-161142815D01*
X171127500Y-161202187D01*
X171207392Y-161242895D01*
X171207395Y-161242896D01*
X171312220Y-161276955D01*
X171417048Y-161311015D01*
X171634777Y-161345500D01*
X171634778Y-161345500D01*
X171855220Y-161345500D01*
X171855221Y-161345500D01*
X172072950Y-161311015D01*
X172282605Y-161242895D01*
X172479021Y-161142815D01*
X172657364Y-161013242D01*
X172813241Y-160857365D01*
X172942814Y-160679022D01*
X173042894Y-160482606D01*
X173111014Y-160272951D01*
X173145499Y-160055222D01*
X173145499Y-159834778D01*
X173111014Y-159617049D01*
X173076954Y-159512221D01*
X173042895Y-159407396D01*
X173042894Y-159407393D01*
X172942814Y-159210978D01*
X172838017Y-159066736D01*
X172838016Y-159066735D01*
X172813242Y-159032636D01*
X172777761Y-158997155D01*
X173734999Y-158997155D01*
X173734999Y-159695000D01*
X174759721Y-159695000D01*
X174715666Y-159771306D01*
X174684999Y-159885756D01*
X174684999Y-160004244D01*
X174715666Y-160118694D01*
X174759721Y-160195000D01*
X173734999Y-160195000D01*
X173734999Y-160892844D01*
X173741400Y-160952372D01*
X173741402Y-160952379D01*
X173791644Y-161087086D01*
X173791648Y-161087093D01*
X173877808Y-161202187D01*
X173877811Y-161202190D01*
X173992905Y-161288350D01*
X173992912Y-161288354D01*
X174127619Y-161338596D01*
X174127626Y-161338598D01*
X174187154Y-161344999D01*
X174187171Y-161345000D01*
X174884999Y-161345000D01*
X174884999Y-160320277D01*
X174961305Y-160364333D01*
X175075755Y-160395000D01*
X175194243Y-160395000D01*
X175308693Y-160364333D01*
X175384999Y-160320277D01*
X175384999Y-161345000D01*
X176082827Y-161345000D01*
X176082843Y-161344999D01*
X176142371Y-161338598D01*
X176142378Y-161338596D01*
X176277085Y-161288354D01*
X176277092Y-161288350D01*
X176392186Y-161202190D01*
X176392189Y-161202187D01*
X176478349Y-161087093D01*
X176478353Y-161087086D01*
X176508212Y-161007031D01*
X176550083Y-160951097D01*
X176615547Y-160926680D01*
X176683820Y-160941531D01*
X176712075Y-160962683D01*
X176762635Y-161013243D01*
X176762640Y-161013247D01*
X176913422Y-161122795D01*
X176940977Y-161142815D01*
X177057500Y-161202187D01*
X177137392Y-161242895D01*
X177137395Y-161242896D01*
X177242220Y-161276955D01*
X177347048Y-161311015D01*
X177564777Y-161345500D01*
X177564778Y-161345500D01*
X177785220Y-161345500D01*
X177785221Y-161345500D01*
X178002950Y-161311015D01*
X178212605Y-161242895D01*
X178409021Y-161142815D01*
X178587364Y-161013242D01*
X178743241Y-160857365D01*
X178872814Y-160679022D01*
X178972894Y-160482606D01*
X179041014Y-160272951D01*
X179075499Y-160055222D01*
X179075499Y-159834778D01*
X179041014Y-159617049D01*
X179006954Y-159512221D01*
X178972895Y-159407396D01*
X178972894Y-159407393D01*
X178872814Y-159210978D01*
X178768017Y-159066736D01*
X178768016Y-159066735D01*
X178743242Y-159032636D01*
X178707761Y-158997155D01*
X179664999Y-158997155D01*
X179664999Y-159695000D01*
X180689721Y-159695000D01*
X180645666Y-159771306D01*
X180614999Y-159885756D01*
X180614999Y-160004244D01*
X180645666Y-160118694D01*
X180689721Y-160195000D01*
X179664999Y-160195000D01*
X179664999Y-160892844D01*
X179671400Y-160952372D01*
X179671402Y-160952379D01*
X179721644Y-161087086D01*
X179721648Y-161087093D01*
X179807808Y-161202187D01*
X179807811Y-161202190D01*
X179922905Y-161288350D01*
X179922912Y-161288354D01*
X180057619Y-161338596D01*
X180057626Y-161338598D01*
X180117154Y-161344999D01*
X180117171Y-161345000D01*
X180814999Y-161345000D01*
X180814999Y-160320277D01*
X180891305Y-160364333D01*
X181005755Y-160395000D01*
X181124243Y-160395000D01*
X181238693Y-160364333D01*
X181314999Y-160320277D01*
X181314999Y-161345000D01*
X182012827Y-161345000D01*
X182012843Y-161344999D01*
X182072371Y-161338598D01*
X182072378Y-161338596D01*
X182207085Y-161288354D01*
X182207092Y-161288350D01*
X182322186Y-161202190D01*
X182322189Y-161202187D01*
X182408349Y-161087093D01*
X182408353Y-161087086D01*
X182438212Y-161007031D01*
X182480083Y-160951097D01*
X182545547Y-160926680D01*
X182613820Y-160941531D01*
X182642075Y-160962683D01*
X182692635Y-161013243D01*
X182692640Y-161013247D01*
X182843422Y-161122795D01*
X182870977Y-161142815D01*
X182987500Y-161202187D01*
X183067392Y-161242895D01*
X183067395Y-161242896D01*
X183172220Y-161276955D01*
X183277048Y-161311015D01*
X183494777Y-161345500D01*
X183494778Y-161345500D01*
X183715220Y-161345500D01*
X183715221Y-161345500D01*
X183932950Y-161311015D01*
X184142605Y-161242895D01*
X184339021Y-161142815D01*
X184517364Y-161013242D01*
X184673241Y-160857365D01*
X184802814Y-160679022D01*
X184902894Y-160482606D01*
X184971014Y-160272951D01*
X185005499Y-160055222D01*
X185005499Y-159834778D01*
X184971014Y-159617049D01*
X184936954Y-159512221D01*
X184902895Y-159407396D01*
X184902894Y-159407393D01*
X184832255Y-159268759D01*
X184802814Y-159210978D01*
X184698016Y-159066735D01*
X184673246Y-159032641D01*
X184673242Y-159032636D01*
X184517362Y-158876756D01*
X184517357Y-158876752D01*
X184339024Y-158747187D01*
X184339023Y-158747186D01*
X184339021Y-158747185D01*
X184256645Y-158705212D01*
X184142605Y-158647104D01*
X184142602Y-158647103D01*
X183932951Y-158578985D01*
X183780852Y-158554895D01*
X183715221Y-158544500D01*
X183494777Y-158544500D01*
X183429146Y-158554895D01*
X183277046Y-158578985D01*
X183067395Y-158647103D01*
X183067392Y-158647104D01*
X182870973Y-158747187D01*
X182692640Y-158876752D01*
X182692635Y-158876756D01*
X182642074Y-158927317D01*
X182580751Y-158960801D01*
X182511059Y-158955816D01*
X182455126Y-158913945D01*
X182438212Y-158882968D01*
X182408353Y-158802913D01*
X182408349Y-158802906D01*
X182322189Y-158687812D01*
X182322186Y-158687809D01*
X182207092Y-158601649D01*
X182207085Y-158601645D01*
X182072378Y-158551403D01*
X182072371Y-158551401D01*
X182012843Y-158545000D01*
X181314999Y-158545000D01*
X181314999Y-159569722D01*
X181238693Y-159525667D01*
X181124243Y-159495000D01*
X181005755Y-159495000D01*
X180891305Y-159525667D01*
X180814999Y-159569722D01*
X180814999Y-158545000D01*
X180117154Y-158545000D01*
X180057626Y-158551401D01*
X180057619Y-158551403D01*
X179922912Y-158601645D01*
X179922905Y-158601649D01*
X179807811Y-158687809D01*
X179807808Y-158687812D01*
X179721648Y-158802906D01*
X179721644Y-158802913D01*
X179671402Y-158937620D01*
X179671400Y-158937627D01*
X179664999Y-158997155D01*
X178707761Y-158997155D01*
X178587362Y-158876756D01*
X178587357Y-158876752D01*
X178409024Y-158747187D01*
X178409023Y-158747186D01*
X178409021Y-158747185D01*
X178326645Y-158705212D01*
X178212605Y-158647104D01*
X178212602Y-158647103D01*
X178002951Y-158578985D01*
X177850852Y-158554895D01*
X177785221Y-158544500D01*
X177564777Y-158544500D01*
X177499146Y-158554895D01*
X177347046Y-158578985D01*
X177137395Y-158647103D01*
X177137392Y-158647104D01*
X176940973Y-158747187D01*
X176762640Y-158876752D01*
X176762635Y-158876756D01*
X176712074Y-158927317D01*
X176650751Y-158960801D01*
X176581059Y-158955816D01*
X176525126Y-158913945D01*
X176508212Y-158882968D01*
X176478353Y-158802913D01*
X176478349Y-158802906D01*
X176392189Y-158687812D01*
X176392186Y-158687809D01*
X176277092Y-158601649D01*
X176277085Y-158601645D01*
X176142378Y-158551403D01*
X176142371Y-158551401D01*
X176082843Y-158545000D01*
X175384999Y-158545000D01*
X175384999Y-159569722D01*
X175308693Y-159525667D01*
X175194243Y-159495000D01*
X175075755Y-159495000D01*
X174961305Y-159525667D01*
X174884999Y-159569722D01*
X174884999Y-158545000D01*
X174187154Y-158545000D01*
X174127626Y-158551401D01*
X174127619Y-158551403D01*
X173992912Y-158601645D01*
X173992905Y-158601649D01*
X173877811Y-158687809D01*
X173877808Y-158687812D01*
X173791648Y-158802906D01*
X173791644Y-158802913D01*
X173741402Y-158937620D01*
X173741400Y-158937627D01*
X173734999Y-158997155D01*
X172777761Y-158997155D01*
X172657362Y-158876756D01*
X172657357Y-158876752D01*
X172479024Y-158747187D01*
X172479023Y-158747186D01*
X172479021Y-158747185D01*
X172396645Y-158705212D01*
X172282605Y-158647104D01*
X172282602Y-158647103D01*
X172072951Y-158578985D01*
X171920852Y-158554895D01*
X171855221Y-158544500D01*
X171634777Y-158544500D01*
X171569146Y-158554895D01*
X171417046Y-158578985D01*
X171207395Y-158647103D01*
X171207392Y-158647104D01*
X171010973Y-158747187D01*
X170832640Y-158876752D01*
X170832635Y-158876756D01*
X170782074Y-158927317D01*
X170720751Y-158960801D01*
X170651059Y-158955816D01*
X170595126Y-158913945D01*
X170578212Y-158882968D01*
X170548353Y-158802913D01*
X170548349Y-158802906D01*
X170462189Y-158687812D01*
X170462186Y-158687809D01*
X170347092Y-158601649D01*
X170347085Y-158601645D01*
X170212378Y-158551403D01*
X170212371Y-158551401D01*
X170152843Y-158545000D01*
X169454999Y-158545000D01*
X169454999Y-159569722D01*
X169378693Y-159525667D01*
X169264243Y-159495000D01*
X169145755Y-159495000D01*
X169031305Y-159525667D01*
X168954999Y-159569722D01*
X168954999Y-158545000D01*
X168257154Y-158545000D01*
X168197626Y-158551401D01*
X168197619Y-158551403D01*
X168062912Y-158601645D01*
X168062905Y-158601649D01*
X167947811Y-158687809D01*
X167947808Y-158687812D01*
X167861648Y-158802906D01*
X167861644Y-158802913D01*
X167811402Y-158937620D01*
X167811400Y-158937627D01*
X167804999Y-158997155D01*
X166446740Y-158997155D01*
X166446556Y-158996588D01*
X166446554Y-158996585D01*
X166446554Y-158996583D01*
X166350047Y-158807179D01*
X166225108Y-158635213D01*
X166111568Y-158521673D01*
X166078083Y-158460350D01*
X166083067Y-158390658D01*
X166124939Y-158334725D01*
X166155914Y-158317810D01*
X166287330Y-158268796D01*
X166402545Y-158182546D01*
X166488795Y-158067331D01*
X166539090Y-157932483D01*
X166545499Y-157872873D01*
X166545498Y-156077128D01*
X166539090Y-156017517D01*
X166512049Y-155945017D01*
X166488796Y-155882671D01*
X166488792Y-155882664D01*
X166402546Y-155767455D01*
X166402543Y-155767452D01*
X166287334Y-155681206D01*
X166287327Y-155681202D01*
X166152481Y-155630908D01*
X166152482Y-155630908D01*
X166092882Y-155624501D01*
X166092880Y-155624500D01*
X166092872Y-155624500D01*
X166092863Y-155624500D01*
X164297128Y-155624500D01*
X164297122Y-155624501D01*
X164237515Y-155630908D01*
X164102670Y-155681202D01*
X164102663Y-155681206D01*
X163987454Y-155767452D01*
X163987451Y-155767455D01*
X163901205Y-155882664D01*
X163901201Y-155882671D01*
X163850907Y-156017517D01*
X163847652Y-156047798D01*
X163844500Y-156077123D01*
X163844499Y-156077135D01*
X162262597Y-156077135D01*
X162218241Y-155940621D01*
X162103870Y-155716155D01*
X162062620Y-155659379D01*
X161955798Y-155512350D01*
X161955794Y-155512345D01*
X161777654Y-155334205D01*
X161777649Y-155334201D01*
X161573848Y-155186132D01*
X161573847Y-155186131D01*
X161573845Y-155186130D01*
X161503747Y-155150413D01*
X161349383Y-155071760D01*
X161109785Y-154993910D01*
X160860962Y-154954500D01*
X160609038Y-154954500D01*
X160484626Y-154974205D01*
X160360214Y-154993910D01*
X160120616Y-155071760D01*
X159896151Y-155186132D01*
X159692350Y-155334201D01*
X159692345Y-155334205D01*
X159514205Y-155512345D01*
X159514201Y-155512350D01*
X159366132Y-155716151D01*
X159251760Y-155940616D01*
X159173910Y-156180214D01*
X159160355Y-156265798D01*
X159134500Y-156429038D01*
X157833167Y-156429038D01*
X157874999Y-156302797D01*
X157885500Y-156200009D01*
X157885499Y-155574992D01*
X157879099Y-155512344D01*
X157874999Y-155472203D01*
X157874998Y-155472200D01*
X157857629Y-155419785D01*
X157819814Y-155305666D01*
X157727712Y-155156344D01*
X157603656Y-155032288D01*
X157454334Y-154940186D01*
X157287797Y-154885001D01*
X157287795Y-154885000D01*
X157185010Y-154874500D01*
X156184998Y-154874500D01*
X156184980Y-154874501D01*
X156082203Y-154885000D01*
X156082200Y-154885001D01*
X155915668Y-154940185D01*
X155915663Y-154940187D01*
X155766342Y-155032289D01*
X155642289Y-155156342D01*
X155550187Y-155305663D01*
X155550186Y-155305666D01*
X155495001Y-155472203D01*
X155495001Y-155472204D01*
X155495000Y-155472204D01*
X155484500Y-155574983D01*
X149950000Y-155574983D01*
X149950000Y-154134986D01*
X150995001Y-154134986D01*
X151005494Y-154237697D01*
X151060641Y-154404119D01*
X151060643Y-154404124D01*
X151152684Y-154553345D01*
X151276654Y-154677315D01*
X151425875Y-154769356D01*
X151425880Y-154769358D01*
X151592302Y-154824505D01*
X151592309Y-154824506D01*
X151695019Y-154834999D01*
X151744999Y-154834998D01*
X151745000Y-154834998D01*
X151745000Y-153860000D01*
X150995001Y-153860000D01*
X150995001Y-154134986D01*
X149950000Y-154134986D01*
X149950000Y-153085013D01*
X150995000Y-153085013D01*
X150995000Y-153360000D01*
X151745000Y-153360000D01*
X151745000Y-152385000D01*
X152245000Y-152385000D01*
X152245000Y-154834999D01*
X152294972Y-154834999D01*
X152294986Y-154834998D01*
X152397697Y-154824505D01*
X152564119Y-154769358D01*
X152564124Y-154769356D01*
X152713345Y-154677315D01*
X152837318Y-154553342D01*
X152839165Y-154550348D01*
X152840969Y-154548724D01*
X152841798Y-154547677D01*
X152841976Y-154547818D01*
X152891110Y-154503621D01*
X152960073Y-154492396D01*
X153024156Y-154520236D01*
X153050243Y-154550341D01*
X153052288Y-154553656D01*
X153176344Y-154677712D01*
X153325666Y-154769814D01*
X153492203Y-154824999D01*
X153594991Y-154835500D01*
X154195008Y-154835499D01*
X154195016Y-154835498D01*
X154195019Y-154835498D01*
X154251302Y-154829748D01*
X154297797Y-154824999D01*
X154464334Y-154769814D01*
X154613656Y-154677712D01*
X154737712Y-154553656D01*
X154829814Y-154404334D01*
X154884999Y-154237797D01*
X154895500Y-154135009D01*
X154895499Y-153574986D01*
X157490001Y-153574986D01*
X157500494Y-153677697D01*
X157555641Y-153844119D01*
X157555643Y-153844124D01*
X157647684Y-153993345D01*
X157771654Y-154117315D01*
X157920875Y-154209356D01*
X157920880Y-154209358D01*
X158087302Y-154264505D01*
X158087309Y-154264506D01*
X158190019Y-154274999D01*
X158239999Y-154274998D01*
X158240000Y-154274998D01*
X158240000Y-153300000D01*
X157490001Y-153300000D01*
X157490001Y-153574986D01*
X154895499Y-153574986D01*
X154895499Y-153084992D01*
X154893035Y-153060875D01*
X154884999Y-152982203D01*
X154884998Y-152982200D01*
X154857960Y-152900606D01*
X154829814Y-152815666D01*
X154737712Y-152666344D01*
X154613656Y-152542288D01*
X154585649Y-152525013D01*
X157490000Y-152525013D01*
X157490000Y-152800000D01*
X158240000Y-152800000D01*
X158240000Y-151825000D01*
X158740000Y-151825000D01*
X158740000Y-154274999D01*
X158789972Y-154274999D01*
X158789986Y-154274998D01*
X158892697Y-154264505D01*
X159059119Y-154209358D01*
X159059124Y-154209356D01*
X159208345Y-154117315D01*
X159332318Y-153993342D01*
X159334165Y-153990348D01*
X159335969Y-153988724D01*
X159336798Y-153987677D01*
X159336976Y-153987818D01*
X159386110Y-153943621D01*
X159455073Y-153932396D01*
X159519156Y-153960236D01*
X159545243Y-153990341D01*
X159547288Y-153993656D01*
X159671344Y-154117712D01*
X159820666Y-154209814D01*
X159987203Y-154264999D01*
X160089991Y-154275500D01*
X160690008Y-154275499D01*
X160690016Y-154275498D01*
X160690019Y-154275498D01*
X160746302Y-154269748D01*
X160792797Y-154264999D01*
X160959334Y-154209814D01*
X161108656Y-154117712D01*
X161232712Y-153993656D01*
X161324814Y-153844334D01*
X161379999Y-153677797D01*
X161390500Y-153575009D01*
X161390499Y-152524992D01*
X161383348Y-152454983D01*
X163054500Y-152454983D01*
X163054500Y-153655001D01*
X163054501Y-153655018D01*
X163065000Y-153757796D01*
X163065001Y-153757799D01*
X163120185Y-153924331D01*
X163120187Y-153924336D01*
X163132082Y-153943621D01*
X163212288Y-154073656D01*
X163336344Y-154197712D01*
X163485666Y-154289814D01*
X163652203Y-154344999D01*
X163754991Y-154355500D01*
X164955008Y-154355499D01*
X165057797Y-154344999D01*
X165224334Y-154289814D01*
X165373656Y-154197712D01*
X165497712Y-154073656D01*
X165589814Y-153924334D01*
X165619698Y-153834149D01*
X165623225Y-153826858D01*
X165641458Y-153806732D01*
X165656919Y-153784401D01*
X165664572Y-153781219D01*
X165670136Y-153775078D01*
X165696356Y-153768004D01*
X165721435Y-153757578D01*
X165729592Y-153759038D01*
X165737594Y-153756880D01*
X165763478Y-153765106D01*
X165790211Y-153769893D01*
X165797222Y-153775830D01*
X165804182Y-153778042D01*
X165805943Y-153780168D01*
X165815524Y-153780922D01*
X166495000Y-153101446D01*
X166495000Y-153107661D01*
X166522259Y-153209394D01*
X166574920Y-153300606D01*
X166649394Y-153375080D01*
X166740606Y-153427741D01*
X166842339Y-153455000D01*
X166848553Y-153455000D01*
X166169076Y-154134474D01*
X166213650Y-154166859D01*
X166395968Y-154259755D01*
X166590582Y-154322990D01*
X166792683Y-154355000D01*
X166997317Y-154355000D01*
X167199417Y-154322990D01*
X167394031Y-154259755D01*
X167576349Y-154166859D01*
X167606459Y-154144982D01*
X169264500Y-154144982D01*
X169264500Y-155945017D01*
X169275000Y-156047796D01*
X169292077Y-156099331D01*
X169330186Y-156214335D01*
X169422288Y-156363656D01*
X169546344Y-156487712D01*
X169695665Y-156579814D01*
X169862202Y-156634999D01*
X169964990Y-156645500D01*
X169964995Y-156645500D01*
X171765005Y-156645500D01*
X171765010Y-156645500D01*
X171867798Y-156634999D01*
X172034335Y-156579814D01*
X172183656Y-156487712D01*
X172307712Y-156363656D01*
X172399814Y-156214335D01*
X172454999Y-156047798D01*
X172465500Y-155945010D01*
X172465500Y-154919038D01*
X179424500Y-154919038D01*
X179424500Y-155170962D01*
X179445835Y-155305663D01*
X179463910Y-155419785D01*
X179541760Y-155659383D01*
X179596825Y-155767452D01*
X179655528Y-155882664D01*
X179656132Y-155883848D01*
X179804201Y-156087649D01*
X179804205Y-156087654D01*
X179982345Y-156265794D01*
X179982350Y-156265798D01*
X180129503Y-156372710D01*
X180186155Y-156413870D01*
X180329184Y-156486747D01*
X180410616Y-156528239D01*
X180410618Y-156528239D01*
X180410621Y-156528241D01*
X180650215Y-156606090D01*
X180899038Y-156645500D01*
X180899039Y-156645500D01*
X181150961Y-156645500D01*
X181150962Y-156645500D01*
X181399785Y-156606090D01*
X181639379Y-156528241D01*
X181863845Y-156413870D01*
X182067656Y-156265793D01*
X182245793Y-156087656D01*
X182393870Y-155883845D01*
X182508241Y-155659379D01*
X182586090Y-155419785D01*
X182616152Y-155229983D01*
X182924500Y-155229983D01*
X182924500Y-155830001D01*
X182924501Y-155830019D01*
X182935000Y-155932796D01*
X182935001Y-155932799D01*
X182990185Y-156099331D01*
X182990187Y-156099336D01*
X183019657Y-156147115D01*
X183082288Y-156248656D01*
X183206344Y-156372712D01*
X183355666Y-156464814D01*
X183522203Y-156519999D01*
X183624991Y-156530500D01*
X184675008Y-156530499D01*
X184675016Y-156530498D01*
X184675019Y-156530498D01*
X184731302Y-156524748D01*
X184777797Y-156519999D01*
X184944334Y-156464814D01*
X185093656Y-156372712D01*
X185217712Y-156248656D01*
X185309814Y-156099334D01*
X185364999Y-155932797D01*
X185375500Y-155830009D01*
X185375499Y-155229992D01*
X185371018Y-155186130D01*
X185364999Y-155127203D01*
X185364998Y-155127200D01*
X185346627Y-155071760D01*
X185309814Y-154960666D01*
X185217712Y-154811344D01*
X185093656Y-154687288D01*
X185090342Y-154685243D01*
X185088546Y-154683248D01*
X185087989Y-154682807D01*
X185088064Y-154682711D01*
X185043618Y-154633297D01*
X185032397Y-154564334D01*
X185060240Y-154500252D01*
X185090348Y-154474165D01*
X185093342Y-154472318D01*
X185217315Y-154348345D01*
X185309356Y-154199124D01*
X185309358Y-154199119D01*
X185364505Y-154032697D01*
X185364506Y-154032690D01*
X185374999Y-153929986D01*
X185375000Y-153929973D01*
X185375000Y-153880000D01*
X182925001Y-153880000D01*
X182925001Y-153929986D01*
X182935494Y-154032697D01*
X182990641Y-154199119D01*
X182990643Y-154199124D01*
X183082684Y-154348345D01*
X183206655Y-154472316D01*
X183206659Y-154472319D01*
X183209656Y-154474168D01*
X183211279Y-154475972D01*
X183212323Y-154476798D01*
X183212181Y-154476976D01*
X183256381Y-154526116D01*
X183267602Y-154595079D01*
X183239759Y-154659161D01*
X183209661Y-154685241D01*
X183206349Y-154687283D01*
X183206343Y-154687288D01*
X183082289Y-154811342D01*
X182990187Y-154960663D01*
X182990186Y-154960666D01*
X182935001Y-155127203D01*
X182935001Y-155127204D01*
X182935000Y-155127204D01*
X182924500Y-155229983D01*
X182616152Y-155229983D01*
X182625500Y-155170962D01*
X182625500Y-154919038D01*
X182586090Y-154670215D01*
X182508241Y-154430621D01*
X182508239Y-154430618D01*
X182508239Y-154430616D01*
X182429202Y-154275499D01*
X182393870Y-154206155D01*
X182297604Y-154073656D01*
X182245798Y-154002350D01*
X182245794Y-154002345D01*
X182067654Y-153824205D01*
X182067649Y-153824201D01*
X181863848Y-153676132D01*
X181863847Y-153676131D01*
X181863845Y-153676130D01*
X181793747Y-153640413D01*
X181639383Y-153561760D01*
X181399785Y-153483909D01*
X181181501Y-153449337D01*
X181150962Y-153444500D01*
X180899038Y-153444500D01*
X180832738Y-153455001D01*
X180650214Y-153483910D01*
X180410616Y-153561760D01*
X180186151Y-153676132D01*
X179982350Y-153824201D01*
X179982345Y-153824205D01*
X179804205Y-154002345D01*
X179804201Y-154002350D01*
X179656132Y-154206151D01*
X179541760Y-154430616D01*
X179463910Y-154670214D01*
X179437731Y-154835499D01*
X179424500Y-154919038D01*
X172465500Y-154919038D01*
X172465500Y-154144990D01*
X172454999Y-154042202D01*
X172399814Y-153875665D01*
X172307712Y-153726344D01*
X172183656Y-153602288D01*
X172034335Y-153510186D01*
X171867798Y-153455001D01*
X171867796Y-153455000D01*
X171765017Y-153444500D01*
X171765010Y-153444500D01*
X169964990Y-153444500D01*
X169964982Y-153444500D01*
X169862203Y-153455000D01*
X169862202Y-153455001D01*
X169779669Y-153482349D01*
X169695667Y-153510185D01*
X169695662Y-153510187D01*
X169546342Y-153602289D01*
X169422289Y-153726342D01*
X169330187Y-153875662D01*
X169330185Y-153875667D01*
X169314060Y-153924331D01*
X169275001Y-154042202D01*
X169275001Y-154042203D01*
X169275000Y-154042203D01*
X169264500Y-154144982D01*
X167606459Y-154144982D01*
X167620922Y-154134474D01*
X166941447Y-153455000D01*
X166947661Y-153455000D01*
X167049394Y-153427741D01*
X167140606Y-153375080D01*
X167215080Y-153300606D01*
X167267741Y-153209394D01*
X167295000Y-153107661D01*
X167295000Y-153101448D01*
X167974474Y-153780922D01*
X167974474Y-153780921D01*
X168006859Y-153736349D01*
X168099755Y-153554031D01*
X168162990Y-153359417D01*
X168167647Y-153330013D01*
X182925000Y-153330013D01*
X182925000Y-153380000D01*
X183900000Y-153380000D01*
X184400000Y-153380000D01*
X185374999Y-153380000D01*
X185374999Y-153330028D01*
X185374998Y-153330013D01*
X185364505Y-153227302D01*
X185309358Y-153060880D01*
X185309356Y-153060875D01*
X185217315Y-152911654D01*
X185093345Y-152787684D01*
X184944124Y-152695643D01*
X184944119Y-152695641D01*
X184777697Y-152640494D01*
X184777690Y-152640493D01*
X184674986Y-152630000D01*
X184400000Y-152630000D01*
X184400000Y-153380000D01*
X183900000Y-153380000D01*
X183900000Y-152630000D01*
X183625029Y-152630000D01*
X183625012Y-152630001D01*
X183522302Y-152640494D01*
X183355880Y-152695641D01*
X183355875Y-152695643D01*
X183206654Y-152787684D01*
X183082684Y-152911654D01*
X182990643Y-153060875D01*
X182990641Y-153060880D01*
X182935494Y-153227302D01*
X182935493Y-153227309D01*
X182925000Y-153330013D01*
X168167647Y-153330013D01*
X168195000Y-153157317D01*
X168195000Y-152952682D01*
X168162990Y-152750582D01*
X168099755Y-152555968D01*
X168006859Y-152373650D01*
X167974474Y-152329077D01*
X167974474Y-152329076D01*
X167295000Y-153008551D01*
X167295000Y-153002339D01*
X167267741Y-152900606D01*
X167215080Y-152809394D01*
X167140606Y-152734920D01*
X167049394Y-152682259D01*
X166947661Y-152655000D01*
X166941446Y-152655000D01*
X167620922Y-151975524D01*
X167620921Y-151975523D01*
X167576359Y-151943147D01*
X167576350Y-151943141D01*
X167394031Y-151850244D01*
X167199417Y-151787009D01*
X166997317Y-151755000D01*
X166792683Y-151755000D01*
X166590582Y-151787009D01*
X166395968Y-151850244D01*
X166213644Y-151943143D01*
X166169077Y-151975523D01*
X166169077Y-151975524D01*
X166848554Y-152655000D01*
X166842339Y-152655000D01*
X166740606Y-152682259D01*
X166649394Y-152734920D01*
X166574920Y-152809394D01*
X166522259Y-152900606D01*
X166495000Y-153002339D01*
X166495000Y-153008553D01*
X165815524Y-152329077D01*
X165798345Y-152330429D01*
X165779840Y-152344699D01*
X165775786Y-152345047D01*
X165772410Y-152347324D01*
X165741261Y-152348012D01*
X165710227Y-152350678D01*
X165706626Y-152348778D01*
X165702557Y-152348868D01*
X165675985Y-152332610D01*
X165648432Y-152318072D01*
X165645434Y-152313918D01*
X165642958Y-152312403D01*
X165637124Y-152302402D01*
X165623225Y-152283140D01*
X165619696Y-152275844D01*
X165589814Y-152185666D01*
X165497712Y-152036344D01*
X165373656Y-151912288D01*
X165273066Y-151850244D01*
X165224336Y-151820187D01*
X165224331Y-151820185D01*
X165222862Y-151819698D01*
X165057797Y-151765001D01*
X165057795Y-151765000D01*
X164955010Y-151754500D01*
X163754998Y-151754500D01*
X163754981Y-151754501D01*
X163652203Y-151765000D01*
X163652200Y-151765001D01*
X163485668Y-151820185D01*
X163485663Y-151820187D01*
X163336342Y-151912289D01*
X163212289Y-152036342D01*
X163120187Y-152185663D01*
X163120186Y-152185666D01*
X163065001Y-152352203D01*
X163065001Y-152352204D01*
X163065000Y-152352204D01*
X163054500Y-152454983D01*
X161383348Y-152454983D01*
X161379999Y-152422203D01*
X161324814Y-152255666D01*
X161232712Y-152106344D01*
X161108656Y-151982288D01*
X160995167Y-151912288D01*
X160959336Y-151890187D01*
X160959331Y-151890185D01*
X160881743Y-151864475D01*
X160792797Y-151835001D01*
X160792795Y-151835000D01*
X160690010Y-151824500D01*
X160089998Y-151824500D01*
X160089980Y-151824501D01*
X159987203Y-151835000D01*
X159987200Y-151835001D01*
X159820668Y-151890185D01*
X159820663Y-151890187D01*
X159671342Y-151982289D01*
X159547288Y-152106343D01*
X159547283Y-152106349D01*
X159545241Y-152109661D01*
X159543247Y-152111453D01*
X159542807Y-152112011D01*
X159542711Y-152111935D01*
X159493291Y-152156383D01*
X159424328Y-152167602D01*
X159360247Y-152139755D01*
X159334168Y-152109656D01*
X159332319Y-152106659D01*
X159332316Y-152106655D01*
X159208345Y-151982684D01*
X159059124Y-151890643D01*
X159059119Y-151890641D01*
X158892697Y-151835494D01*
X158892690Y-151835493D01*
X158789986Y-151825000D01*
X158740000Y-151825000D01*
X158240000Y-151825000D01*
X158239999Y-151824999D01*
X158190029Y-151825000D01*
X158190011Y-151825001D01*
X158087302Y-151835494D01*
X157920880Y-151890641D01*
X157920875Y-151890643D01*
X157771654Y-151982684D01*
X157647684Y-152106654D01*
X157555643Y-152255875D01*
X157555641Y-152255880D01*
X157500494Y-152422302D01*
X157500493Y-152422309D01*
X157490000Y-152525013D01*
X154585649Y-152525013D01*
X154487437Y-152464436D01*
X154464336Y-152450187D01*
X154464331Y-152450185D01*
X154462862Y-152449698D01*
X154297797Y-152395001D01*
X154297795Y-152395000D01*
X154195010Y-152384500D01*
X153594998Y-152384500D01*
X153594980Y-152384501D01*
X153492203Y-152395000D01*
X153492200Y-152395001D01*
X153325668Y-152450185D01*
X153325663Y-152450187D01*
X153176342Y-152542289D01*
X153052288Y-152666343D01*
X153052283Y-152666349D01*
X153050241Y-152669661D01*
X153048247Y-152671453D01*
X153047807Y-152672011D01*
X153047711Y-152671935D01*
X152998291Y-152716383D01*
X152929328Y-152727602D01*
X152865247Y-152699755D01*
X152839168Y-152669656D01*
X152837319Y-152666659D01*
X152837316Y-152666655D01*
X152713345Y-152542684D01*
X152564124Y-152450643D01*
X152564119Y-152450641D01*
X152397697Y-152395494D01*
X152397690Y-152395493D01*
X152294986Y-152385000D01*
X152245000Y-152385000D01*
X151745000Y-152385000D01*
X151744999Y-152384999D01*
X151695029Y-152385000D01*
X151695011Y-152385001D01*
X151592302Y-152395494D01*
X151425880Y-152450641D01*
X151425875Y-152450643D01*
X151276654Y-152542684D01*
X151152684Y-152666654D01*
X151060643Y-152815875D01*
X151060641Y-152815880D01*
X151005494Y-152982302D01*
X151005493Y-152982309D01*
X150995000Y-153085013D01*
X149950000Y-153085013D01*
X149950000Y-150184984D01*
X152093253Y-150184984D01*
X152093253Y-151385002D01*
X152093254Y-151385019D01*
X152103753Y-151487797D01*
X152103754Y-151487800D01*
X152158938Y-151654332D01*
X152158940Y-151654337D01*
X152193822Y-151710889D01*
X152251041Y-151803657D01*
X152375097Y-151927713D01*
X152524419Y-152019815D01*
X152690956Y-152075000D01*
X152793744Y-152085501D01*
X153993761Y-152085500D01*
X154096550Y-152075000D01*
X154263087Y-152019815D01*
X154412409Y-151927713D01*
X154536465Y-151803657D01*
X154628567Y-151654335D01*
X154651855Y-151584055D01*
X154655863Y-151576051D01*
X154673813Y-151556773D01*
X154688808Y-151535117D01*
X154697248Y-151531607D01*
X154703478Y-151524918D01*
X154729002Y-151518405D01*
X154753324Y-151508293D01*
X154769587Y-151508049D01*
X154771178Y-151507644D01*
X154772276Y-151508009D01*
X154776472Y-151507947D01*
X154814278Y-151510922D01*
X155493753Y-150831447D01*
X155493753Y-150837662D01*
X155521012Y-150939395D01*
X155573673Y-151030607D01*
X155648147Y-151105081D01*
X155739359Y-151157742D01*
X155841092Y-151185001D01*
X155847306Y-151185001D01*
X155167829Y-151864475D01*
X155212403Y-151896860D01*
X155394721Y-151989756D01*
X155589335Y-152052991D01*
X155791436Y-152085001D01*
X155996070Y-152085001D01*
X156198170Y-152052991D01*
X156392784Y-151989756D01*
X156575102Y-151896860D01*
X156619674Y-151864475D01*
X155940200Y-151185001D01*
X155946414Y-151185001D01*
X156048147Y-151157742D01*
X156139359Y-151105081D01*
X156213833Y-151030607D01*
X156266494Y-150939395D01*
X156293753Y-150837662D01*
X156293753Y-150831449D01*
X156973227Y-151510923D01*
X156973227Y-151510922D01*
X157005612Y-151466350D01*
X157098508Y-151284032D01*
X157161743Y-151089418D01*
X157193753Y-150887318D01*
X157193753Y-150682683D01*
X157161742Y-150480582D01*
X157161741Y-150480575D01*
X157161554Y-150480001D01*
X159372704Y-150480001D01*
X159372899Y-150482486D01*
X159418718Y-150640198D01*
X159502314Y-150781552D01*
X159502321Y-150781561D01*
X159618438Y-150897678D01*
X159618447Y-150897685D01*
X159759803Y-150981282D01*
X159759806Y-150981283D01*
X159917504Y-151027099D01*
X159917510Y-151027100D01*
X159954350Y-151029999D01*
X159954366Y-151030000D01*
X160357500Y-151030000D01*
X160857500Y-151030000D01*
X161260634Y-151030000D01*
X161260649Y-151029999D01*
X161297489Y-151027100D01*
X161297495Y-151027099D01*
X161455193Y-150981283D01*
X161455196Y-150981282D01*
X161596552Y-150897685D01*
X161596561Y-150897678D01*
X161712678Y-150781561D01*
X161712685Y-150781552D01*
X161796281Y-150640198D01*
X161842100Y-150482486D01*
X161842295Y-150480001D01*
X161842295Y-150480000D01*
X160857500Y-150480000D01*
X160857500Y-151030000D01*
X160357500Y-151030000D01*
X160357500Y-150480000D01*
X159372705Y-150480000D01*
X159372704Y-150480001D01*
X157161554Y-150480001D01*
X157159599Y-150473985D01*
X157159596Y-150473975D01*
X157098508Y-150285969D01*
X157005612Y-150103651D01*
X156973227Y-150059078D01*
X156973227Y-150059077D01*
X156293753Y-150738552D01*
X156293753Y-150732340D01*
X156266494Y-150630607D01*
X156213833Y-150539395D01*
X156139359Y-150464921D01*
X156048147Y-150412260D01*
X155946414Y-150385001D01*
X155940199Y-150385001D01*
X156619675Y-149705525D01*
X156619674Y-149705524D01*
X156575112Y-149673148D01*
X156575103Y-149673142D01*
X156392784Y-149580245D01*
X156198170Y-149517010D01*
X155996070Y-149485001D01*
X155791436Y-149485001D01*
X155589335Y-149517010D01*
X155394721Y-149580245D01*
X155212397Y-149673144D01*
X155167830Y-149705524D01*
X155167830Y-149705525D01*
X155847307Y-150385001D01*
X155841092Y-150385001D01*
X155739359Y-150412260D01*
X155648147Y-150464921D01*
X155573673Y-150539395D01*
X155521012Y-150630607D01*
X155493753Y-150732340D01*
X155493753Y-150738554D01*
X154814277Y-150059078D01*
X154776472Y-150062054D01*
X154708094Y-150047690D01*
X154658337Y-149998639D01*
X154655863Y-149993950D01*
X154651854Y-149985943D01*
X154628567Y-149915667D01*
X154536465Y-149766345D01*
X154412409Y-149642289D01*
X154311819Y-149580245D01*
X154263089Y-149550188D01*
X154263084Y-149550186D01*
X154261615Y-149549699D01*
X154096550Y-149495002D01*
X154096548Y-149495001D01*
X153993763Y-149484501D01*
X152793751Y-149484501D01*
X152793734Y-149484502D01*
X152690956Y-149495001D01*
X152690953Y-149495002D01*
X152524421Y-149550186D01*
X152524416Y-149550188D01*
X152375095Y-149642290D01*
X152251042Y-149766343D01*
X152158940Y-149915664D01*
X152158938Y-149915669D01*
X152148198Y-149948081D01*
X152103754Y-150082204D01*
X152103754Y-150082205D01*
X152103753Y-150082205D01*
X152093253Y-150184984D01*
X149950000Y-150184984D01*
X149950000Y-149064298D01*
X157494500Y-149064298D01*
X157494500Y-149495690D01*
X157497401Y-149532567D01*
X157497402Y-149532573D01*
X157543254Y-149690393D01*
X157543255Y-149690396D01*
X157543256Y-149690398D01*
X157556235Y-149712344D01*
X157626917Y-149831862D01*
X157626923Y-149831870D01*
X157743129Y-149948076D01*
X157743133Y-149948079D01*
X157743135Y-149948081D01*
X157884602Y-150031744D01*
X157911298Y-150039500D01*
X158042426Y-150077597D01*
X158042429Y-150077597D01*
X158042431Y-150077598D01*
X158079306Y-150080500D01*
X158079314Y-150080500D01*
X159385686Y-150080500D01*
X159385694Y-150080500D01*
X159422569Y-150077598D01*
X159422571Y-150077597D01*
X159422573Y-150077597D01*
X159476071Y-150062054D01*
X159580398Y-150031744D01*
X159638694Y-149997268D01*
X159701815Y-149980000D01*
X160357500Y-149980000D01*
X160857500Y-149980000D01*
X161842295Y-149980000D01*
X161842295Y-149979998D01*
X161842100Y-149977513D01*
X161815638Y-149886428D01*
X161815638Y-149886427D01*
X161806503Y-149854982D01*
X169264500Y-149854982D01*
X169264500Y-151655017D01*
X169275000Y-151757796D01*
X169330185Y-151924332D01*
X169330187Y-151924337D01*
X169341787Y-151943143D01*
X169422288Y-152073656D01*
X169546344Y-152197712D01*
X169695665Y-152289814D01*
X169862202Y-152344999D01*
X169964990Y-152355500D01*
X169964995Y-152355500D01*
X171765005Y-152355500D01*
X171765010Y-152355500D01*
X171867798Y-152344999D01*
X172034335Y-152289814D01*
X172183656Y-152197712D01*
X172307712Y-152073656D01*
X172399814Y-151924335D01*
X172454999Y-151757798D01*
X172465500Y-151655010D01*
X172465500Y-150629038D01*
X179424500Y-150629038D01*
X179424500Y-150880962D01*
X179448202Y-151030607D01*
X179463910Y-151129785D01*
X179541760Y-151369383D01*
X179656132Y-151593848D01*
X179804201Y-151797649D01*
X179804205Y-151797654D01*
X179982345Y-151975794D01*
X179982350Y-151975798D01*
X180118891Y-152075000D01*
X180186155Y-152123870D01*
X180307431Y-152185663D01*
X180410616Y-152238239D01*
X180410618Y-152238239D01*
X180410621Y-152238241D01*
X180650215Y-152316090D01*
X180899038Y-152355500D01*
X180899039Y-152355500D01*
X181150961Y-152355500D01*
X181150962Y-152355500D01*
X181399785Y-152316090D01*
X181639379Y-152238241D01*
X181863845Y-152123870D01*
X182067656Y-151975793D01*
X182245793Y-151797656D01*
X182393870Y-151593845D01*
X182508241Y-151369379D01*
X182586090Y-151129785D01*
X182625500Y-150880962D01*
X182625500Y-150739983D01*
X182924500Y-150739983D01*
X182924500Y-151340001D01*
X182924501Y-151340019D01*
X182935000Y-151442796D01*
X182935001Y-151442799D01*
X182965593Y-151535117D01*
X182990186Y-151609334D01*
X183082288Y-151758656D01*
X183206344Y-151882712D01*
X183355666Y-151974814D01*
X183522203Y-152029999D01*
X183624991Y-152040500D01*
X184675008Y-152040499D01*
X184675016Y-152040498D01*
X184675019Y-152040498D01*
X184731302Y-152034748D01*
X184777797Y-152029999D01*
X184944334Y-151974814D01*
X185093656Y-151882712D01*
X185217712Y-151758656D01*
X185309814Y-151609334D01*
X185364999Y-151442797D01*
X185375500Y-151340009D01*
X185375499Y-150739992D01*
X185374717Y-150732340D01*
X185364999Y-150637203D01*
X185364998Y-150637200D01*
X185362293Y-150629038D01*
X185309814Y-150470666D01*
X185217712Y-150321344D01*
X185093656Y-150197288D01*
X185090342Y-150195243D01*
X185088546Y-150193248D01*
X185087989Y-150192807D01*
X185088064Y-150192711D01*
X185043618Y-150143297D01*
X185032397Y-150074334D01*
X185060240Y-150010252D01*
X185090348Y-149984165D01*
X185093342Y-149982318D01*
X185217315Y-149858345D01*
X185309356Y-149709124D01*
X185309358Y-149709119D01*
X185364505Y-149542697D01*
X185364506Y-149542690D01*
X185374999Y-149439986D01*
X185375000Y-149439973D01*
X185375000Y-149390000D01*
X182925001Y-149390000D01*
X182925001Y-149439986D01*
X182935494Y-149542697D01*
X182990641Y-149709119D01*
X182990643Y-149709124D01*
X183082684Y-149858345D01*
X183206655Y-149982316D01*
X183206659Y-149982319D01*
X183209656Y-149984168D01*
X183211279Y-149985972D01*
X183212323Y-149986798D01*
X183212181Y-149986976D01*
X183256381Y-150036116D01*
X183267602Y-150105079D01*
X183239759Y-150169161D01*
X183209661Y-150195241D01*
X183206349Y-150197283D01*
X183206343Y-150197288D01*
X183082289Y-150321342D01*
X182990187Y-150470663D01*
X182990185Y-150470668D01*
X182986902Y-150480575D01*
X182935001Y-150637203D01*
X182935001Y-150637204D01*
X182935000Y-150637204D01*
X182924500Y-150739983D01*
X182625500Y-150739983D01*
X182625500Y-150629038D01*
X182586090Y-150380215D01*
X182508241Y-150140621D01*
X182508239Y-150140618D01*
X182508239Y-150140616D01*
X182452765Y-150031744D01*
X182393870Y-149916155D01*
X182323866Y-149819802D01*
X182245798Y-149712350D01*
X182245794Y-149712345D01*
X182067654Y-149534205D01*
X182067649Y-149534201D01*
X181863848Y-149386132D01*
X181863847Y-149386131D01*
X181863845Y-149386130D01*
X181793747Y-149350413D01*
X181639383Y-149271760D01*
X181399785Y-149193910D01*
X181359068Y-149187461D01*
X181150962Y-149154500D01*
X180899038Y-149154500D01*
X180832738Y-149165001D01*
X180650214Y-149193910D01*
X180410616Y-149271760D01*
X180186151Y-149386132D01*
X179982350Y-149534201D01*
X179982345Y-149534205D01*
X179804205Y-149712345D01*
X179804201Y-149712350D01*
X179656132Y-149916151D01*
X179541760Y-150140616D01*
X179463910Y-150380214D01*
X179449060Y-150473975D01*
X179424500Y-150629038D01*
X172465500Y-150629038D01*
X172465500Y-149854990D01*
X172454999Y-149752202D01*
X172399814Y-149585665D01*
X172307712Y-149436344D01*
X172183656Y-149312288D01*
X172034335Y-149220186D01*
X171867798Y-149165001D01*
X171867796Y-149165000D01*
X171765017Y-149154500D01*
X171765010Y-149154500D01*
X169964990Y-149154500D01*
X169964982Y-149154500D01*
X169862203Y-149165000D01*
X169862202Y-149165001D01*
X169779669Y-149192349D01*
X169695667Y-149220185D01*
X169695662Y-149220187D01*
X169546342Y-149312289D01*
X169422289Y-149436342D01*
X169330187Y-149585662D01*
X169330186Y-149585665D01*
X169275001Y-149752202D01*
X169275001Y-149752203D01*
X169275000Y-149752203D01*
X169264500Y-149854982D01*
X161806503Y-149854982D01*
X161796282Y-149819802D01*
X161712685Y-149678447D01*
X161712678Y-149678438D01*
X161596561Y-149562321D01*
X161596552Y-149562314D01*
X161455196Y-149478717D01*
X161455193Y-149478716D01*
X161297495Y-149432900D01*
X161297489Y-149432899D01*
X161260649Y-149430000D01*
X160857500Y-149430000D01*
X160857500Y-149980000D01*
X160357500Y-149980000D01*
X160357500Y-149430000D01*
X160094500Y-149430000D01*
X160027461Y-149410315D01*
X159981706Y-149357511D01*
X159970500Y-149306000D01*
X159970500Y-149254500D01*
X159990185Y-149187461D01*
X160042989Y-149141706D01*
X160094500Y-149130500D01*
X161260686Y-149130500D01*
X161260694Y-149130500D01*
X161297569Y-149127598D01*
X161297571Y-149127597D01*
X161297573Y-149127597D01*
X161339191Y-149115505D01*
X161455398Y-149081744D01*
X161596865Y-148998081D01*
X161713081Y-148881865D01*
X161737832Y-148840013D01*
X182925000Y-148840013D01*
X182925000Y-148890000D01*
X183900000Y-148890000D01*
X184400000Y-148890000D01*
X185374999Y-148890000D01*
X185374999Y-148840028D01*
X185374998Y-148840013D01*
X185364505Y-148737302D01*
X185309358Y-148570880D01*
X185309356Y-148570875D01*
X185217315Y-148421654D01*
X185093345Y-148297684D01*
X184944124Y-148205643D01*
X184944119Y-148205641D01*
X184777697Y-148150494D01*
X184777690Y-148150493D01*
X184674986Y-148140000D01*
X184400000Y-148140000D01*
X184400000Y-148890000D01*
X183900000Y-148890000D01*
X183900000Y-148140000D01*
X183625029Y-148140000D01*
X183625012Y-148140001D01*
X183522302Y-148150494D01*
X183355880Y-148205641D01*
X183355875Y-148205643D01*
X183206654Y-148297684D01*
X183082684Y-148421654D01*
X182990643Y-148570875D01*
X182990641Y-148570880D01*
X182935494Y-148737302D01*
X182935493Y-148737309D01*
X182925000Y-148840013D01*
X161737832Y-148840013D01*
X161796744Y-148740398D01*
X161842598Y-148582569D01*
X161845500Y-148545694D01*
X161845500Y-148114306D01*
X161842598Y-148077431D01*
X161796744Y-147919602D01*
X161713081Y-147778135D01*
X161713079Y-147778133D01*
X161713076Y-147778129D01*
X161596869Y-147661922D01*
X161596863Y-147661917D01*
X161455396Y-147578255D01*
X161455393Y-147578254D01*
X161297573Y-147532402D01*
X161297567Y-147532401D01*
X161260701Y-147529500D01*
X161260694Y-147529500D01*
X159954306Y-147529500D01*
X159954298Y-147529500D01*
X159917432Y-147532401D01*
X159917426Y-147532402D01*
X159759606Y-147578254D01*
X159759603Y-147578255D01*
X159618137Y-147661917D01*
X159618129Y-147661923D01*
X159501923Y-147778129D01*
X159501917Y-147778137D01*
X159418255Y-147919603D01*
X159418254Y-147919606D01*
X159372402Y-148077426D01*
X159372401Y-148077432D01*
X159369500Y-148114298D01*
X159369500Y-148355500D01*
X159349815Y-148422539D01*
X159297011Y-148468294D01*
X159245500Y-148479500D01*
X158079298Y-148479500D01*
X158042432Y-148482401D01*
X158042426Y-148482402D01*
X157884606Y-148528254D01*
X157884603Y-148528255D01*
X157743137Y-148611917D01*
X157743129Y-148611923D01*
X157626923Y-148728129D01*
X157626917Y-148728137D01*
X157543255Y-148869603D01*
X157543254Y-148869606D01*
X157497402Y-149027426D01*
X157497401Y-149027432D01*
X157494500Y-149064298D01*
X149950000Y-149064298D01*
X149950000Y-146740001D01*
X170382703Y-146740001D01*
X170382898Y-146742486D01*
X170428717Y-146900198D01*
X170512313Y-147041552D01*
X170512320Y-147041561D01*
X170628437Y-147157678D01*
X170628446Y-147157685D01*
X170769802Y-147241282D01*
X170769805Y-147241283D01*
X170927503Y-147287099D01*
X170927509Y-147287100D01*
X170964349Y-147289999D01*
X170964365Y-147290000D01*
X171367499Y-147290000D01*
X171867499Y-147290000D01*
X172270633Y-147290000D01*
X172270648Y-147289999D01*
X172307488Y-147287100D01*
X172307494Y-147287099D01*
X172465192Y-147241283D01*
X172465195Y-147241282D01*
X172606551Y-147157685D01*
X172606560Y-147157678D01*
X172722677Y-147041561D01*
X172722684Y-147041552D01*
X172806280Y-146900198D01*
X172852099Y-146742486D01*
X172852294Y-146740001D01*
X172852294Y-146740000D01*
X171867499Y-146740000D01*
X171867499Y-147290000D01*
X171367499Y-147290000D01*
X171367499Y-146740000D01*
X170382704Y-146740000D01*
X170382703Y-146740001D01*
X149950000Y-146740001D01*
X149950000Y-145990001D01*
X152877703Y-145990001D01*
X152877898Y-145992485D01*
X152923717Y-146150198D01*
X153007313Y-146291552D01*
X153007320Y-146291561D01*
X153123437Y-146407678D01*
X153123446Y-146407685D01*
X153264802Y-146491282D01*
X153264805Y-146491283D01*
X153422503Y-146537099D01*
X153422509Y-146537100D01*
X153459349Y-146539999D01*
X153459365Y-146540000D01*
X153862499Y-146540000D01*
X154362499Y-146540000D01*
X154765633Y-146540000D01*
X154765648Y-146539999D01*
X154802488Y-146537100D01*
X154802494Y-146537099D01*
X154960192Y-146491283D01*
X154960195Y-146491282D01*
X155101551Y-146407685D01*
X155101560Y-146407678D01*
X155217677Y-146291561D01*
X155217684Y-146291552D01*
X155301280Y-146150198D01*
X155347099Y-145992485D01*
X155347100Y-145992485D01*
X155347294Y-145990001D01*
X157827703Y-145990001D01*
X157827898Y-145992485D01*
X157873717Y-146150198D01*
X157957313Y-146291552D01*
X157957320Y-146291561D01*
X158073437Y-146407678D01*
X158073446Y-146407685D01*
X158214802Y-146491282D01*
X158214805Y-146491283D01*
X158372503Y-146537099D01*
X158372509Y-146537100D01*
X158409349Y-146539999D01*
X158409365Y-146540000D01*
X158812499Y-146540000D01*
X159312499Y-146540000D01*
X159715633Y-146540000D01*
X159715648Y-146539999D01*
X159752488Y-146537100D01*
X159752494Y-146537099D01*
X159910192Y-146491283D01*
X159910195Y-146491282D01*
X160051551Y-146407685D01*
X160051560Y-146407678D01*
X160167677Y-146291561D01*
X160167684Y-146291552D01*
X160251280Y-146150198D01*
X160297099Y-145992485D01*
X160297100Y-145992485D01*
X160297294Y-145990001D01*
X160297294Y-145990000D01*
X159312499Y-145990000D01*
X159312499Y-146540000D01*
X158812499Y-146540000D01*
X158812499Y-145990000D01*
X157827704Y-145990000D01*
X157827703Y-145990001D01*
X155347294Y-145990001D01*
X155347294Y-145990000D01*
X154362499Y-145990000D01*
X154362499Y-146540000D01*
X153862499Y-146540000D01*
X153862499Y-145990000D01*
X152877704Y-145990000D01*
X152877703Y-145990001D01*
X149950000Y-145990001D01*
X149950000Y-144574298D01*
X150999499Y-144574298D01*
X150999499Y-145005701D01*
X151002400Y-145042567D01*
X151002401Y-145042573D01*
X151048253Y-145200393D01*
X151048254Y-145200396D01*
X151048255Y-145200398D01*
X151082369Y-145258082D01*
X151131916Y-145341862D01*
X151131922Y-145341870D01*
X151248128Y-145458076D01*
X151248132Y-145458079D01*
X151248134Y-145458081D01*
X151389601Y-145541744D01*
X151431223Y-145553836D01*
X151547425Y-145587597D01*
X151547428Y-145587597D01*
X151547430Y-145587598D01*
X151584305Y-145590500D01*
X151584313Y-145590500D01*
X152890685Y-145590500D01*
X152890693Y-145590500D01*
X152927568Y-145587598D01*
X152927570Y-145587597D01*
X152927572Y-145587597D01*
X153001908Y-145566000D01*
X153085397Y-145541744D01*
X153143693Y-145507268D01*
X153206814Y-145490000D01*
X153862499Y-145490000D01*
X154362499Y-145490000D01*
X155347294Y-145490000D01*
X155347294Y-145489998D01*
X155347099Y-145487513D01*
X155301280Y-145329801D01*
X155217684Y-145188447D01*
X155217677Y-145188438D01*
X155101560Y-145072321D01*
X155101551Y-145072314D01*
X154960195Y-144988717D01*
X154960192Y-144988716D01*
X154802494Y-144942900D01*
X154802488Y-144942899D01*
X154765648Y-144940000D01*
X154362499Y-144940000D01*
X154362499Y-145490000D01*
X153862499Y-145490000D01*
X153862499Y-144940000D01*
X153599499Y-144940000D01*
X153532460Y-144920315D01*
X153486705Y-144867511D01*
X153475499Y-144816000D01*
X153475499Y-144764500D01*
X153495184Y-144697461D01*
X153547988Y-144651706D01*
X153599499Y-144640500D01*
X154765685Y-144640500D01*
X154765693Y-144640500D01*
X154802568Y-144637598D01*
X154802570Y-144637597D01*
X154802572Y-144637597D01*
X154878629Y-144615500D01*
X154960397Y-144591744D01*
X154989897Y-144574298D01*
X155949499Y-144574298D01*
X155949499Y-145005701D01*
X155952400Y-145042567D01*
X155952401Y-145042573D01*
X155998253Y-145200393D01*
X155998254Y-145200396D01*
X155998255Y-145200398D01*
X156032369Y-145258082D01*
X156081916Y-145341862D01*
X156081922Y-145341870D01*
X156198128Y-145458076D01*
X156198132Y-145458079D01*
X156198134Y-145458081D01*
X156339601Y-145541744D01*
X156381223Y-145553836D01*
X156497425Y-145587597D01*
X156497428Y-145587597D01*
X156497430Y-145587598D01*
X156534305Y-145590500D01*
X156534313Y-145590500D01*
X157840685Y-145590500D01*
X157840693Y-145590500D01*
X157877568Y-145587598D01*
X157877570Y-145587597D01*
X157877572Y-145587597D01*
X157951908Y-145566000D01*
X158035397Y-145541744D01*
X158093693Y-145507268D01*
X158156814Y-145490000D01*
X158812499Y-145490000D01*
X159312499Y-145490000D01*
X160297294Y-145490000D01*
X160297294Y-145489998D01*
X160297099Y-145487511D01*
X160260743Y-145362370D01*
X160260743Y-145362367D01*
X160252109Y-145332648D01*
X163054500Y-145332648D01*
X163054500Y-145537351D01*
X163086522Y-145739534D01*
X163149781Y-145934223D01*
X163201624Y-146035968D01*
X163230107Y-146091870D01*
X163242715Y-146116613D01*
X163363028Y-146282213D01*
X163507786Y-146426971D01*
X163596306Y-146491283D01*
X163673390Y-146547287D01*
X163789607Y-146606503D01*
X163855776Y-146640218D01*
X163855778Y-146640218D01*
X163855781Y-146640220D01*
X163960137Y-146674127D01*
X164050465Y-146703477D01*
X164151557Y-146719488D01*
X164252648Y-146735500D01*
X164252649Y-146735500D01*
X164457351Y-146735500D01*
X164457352Y-146735500D01*
X164659534Y-146703477D01*
X164854219Y-146640220D01*
X165036610Y-146547287D01*
X165194352Y-146432682D01*
X165202213Y-146426971D01*
X165202215Y-146426968D01*
X165202219Y-146426966D01*
X165346966Y-146282219D01*
X165346968Y-146282215D01*
X165346971Y-146282213D01*
X165467284Y-146116614D01*
X165467285Y-146116613D01*
X165467287Y-146116610D01*
X165514516Y-146023917D01*
X165562489Y-145973123D01*
X165630310Y-145956328D01*
X165696445Y-145978865D01*
X165735485Y-146023919D01*
X165782715Y-146116614D01*
X165903028Y-146282213D01*
X166047786Y-146426971D01*
X166136306Y-146491283D01*
X166213390Y-146547287D01*
X166329607Y-146606503D01*
X166395776Y-146640218D01*
X166395778Y-146640218D01*
X166395781Y-146640220D01*
X166500137Y-146674127D01*
X166590465Y-146703477D01*
X166691557Y-146719488D01*
X166792648Y-146735500D01*
X166792649Y-146735500D01*
X166997351Y-146735500D01*
X166997352Y-146735500D01*
X167199534Y-146703477D01*
X167394219Y-146640220D01*
X167399850Y-146637351D01*
X167502259Y-146585171D01*
X167511727Y-146580346D01*
X167576610Y-146547287D01*
X167734352Y-146432682D01*
X167742213Y-146426971D01*
X167742215Y-146426968D01*
X167742219Y-146426966D01*
X167886966Y-146282219D01*
X167886968Y-146282215D01*
X167886971Y-146282213D01*
X167982884Y-146150198D01*
X168007287Y-146116610D01*
X168100220Y-145934219D01*
X168163477Y-145739534D01*
X168195500Y-145537352D01*
X168195500Y-145332648D01*
X168194178Y-145324298D01*
X168504499Y-145324298D01*
X168504499Y-145755701D01*
X168507400Y-145792567D01*
X168507401Y-145792573D01*
X168553253Y-145950393D01*
X168553254Y-145950396D01*
X168553255Y-145950398D01*
X168576676Y-145990001D01*
X168636916Y-146091862D01*
X168636922Y-146091870D01*
X168753128Y-146208076D01*
X168753132Y-146208079D01*
X168753134Y-146208081D01*
X168894601Y-146291744D01*
X168936223Y-146303836D01*
X169052425Y-146337597D01*
X169052428Y-146337597D01*
X169052430Y-146337598D01*
X169089305Y-146340500D01*
X169089313Y-146340500D01*
X170395685Y-146340500D01*
X170395693Y-146340500D01*
X170432568Y-146337598D01*
X170432570Y-146337597D01*
X170432572Y-146337597D01*
X170455967Y-146330799D01*
X170590397Y-146291744D01*
X170655121Y-146253466D01*
X170661956Y-146250465D01*
X170683899Y-146247636D01*
X170711814Y-146240000D01*
X171367499Y-146240000D01*
X171867499Y-146240000D01*
X172852294Y-146240000D01*
X172852294Y-146239998D01*
X172852099Y-146237513D01*
X172806280Y-146079801D01*
X172722684Y-145938447D01*
X172722677Y-145938438D01*
X172606560Y-145822321D01*
X172606551Y-145822314D01*
X172465195Y-145738717D01*
X172465192Y-145738716D01*
X172307494Y-145692900D01*
X172307488Y-145692899D01*
X172270648Y-145690000D01*
X171867499Y-145690000D01*
X171867499Y-146240000D01*
X171367499Y-146240000D01*
X171367499Y-145690000D01*
X171104499Y-145690000D01*
X171037460Y-145670315D01*
X170991705Y-145617511D01*
X170980499Y-145566000D01*
X170980499Y-145514500D01*
X171000184Y-145447461D01*
X171052988Y-145401706D01*
X171104499Y-145390500D01*
X172270685Y-145390500D01*
X172270693Y-145390500D01*
X172307568Y-145387598D01*
X172307570Y-145387597D01*
X172307572Y-145387597D01*
X172349261Y-145375485D01*
X172465397Y-145341744D01*
X172606864Y-145258081D01*
X172723080Y-145141865D01*
X172806743Y-145000398D01*
X172846274Y-144864334D01*
X172852596Y-144842573D01*
X172852597Y-144842567D01*
X172855499Y-144805694D01*
X172855499Y-144374306D01*
X172852597Y-144337431D01*
X172821321Y-144229781D01*
X172806744Y-144179606D01*
X172806743Y-144179603D01*
X172806743Y-144179602D01*
X172723080Y-144038135D01*
X172723078Y-144038133D01*
X172723075Y-144038129D01*
X172606869Y-143921923D01*
X172606861Y-143921917D01*
X172465395Y-143838255D01*
X172465392Y-143838254D01*
X172307572Y-143792402D01*
X172307566Y-143792401D01*
X172270700Y-143789500D01*
X172270693Y-143789500D01*
X170964305Y-143789500D01*
X170964297Y-143789500D01*
X170927431Y-143792401D01*
X170927425Y-143792402D01*
X170769605Y-143838254D01*
X170769602Y-143838255D01*
X170628136Y-143921917D01*
X170628128Y-143921923D01*
X170511922Y-144038129D01*
X170511916Y-144038137D01*
X170428254Y-144179603D01*
X170428253Y-144179606D01*
X170382401Y-144337426D01*
X170382400Y-144337432D01*
X170379499Y-144374298D01*
X170379499Y-144615500D01*
X170359814Y-144682539D01*
X170307010Y-144728294D01*
X170255499Y-144739500D01*
X169089297Y-144739500D01*
X169052431Y-144742401D01*
X169052425Y-144742402D01*
X168894605Y-144788254D01*
X168894602Y-144788255D01*
X168753136Y-144871917D01*
X168753128Y-144871923D01*
X168636922Y-144988129D01*
X168636916Y-144988137D01*
X168553254Y-145129603D01*
X168553253Y-145129606D01*
X168507401Y-145287426D01*
X168507400Y-145287432D01*
X168504499Y-145324298D01*
X168194178Y-145324298D01*
X168179213Y-145229815D01*
X168163477Y-145130465D01*
X168117420Y-144988717D01*
X168100220Y-144935781D01*
X168100218Y-144935778D01*
X168100218Y-144935776D01*
X168052725Y-144842567D01*
X168007287Y-144753390D01*
X167989054Y-144728294D01*
X167886971Y-144587786D01*
X167742213Y-144443028D01*
X167576613Y-144322715D01*
X167576612Y-144322714D01*
X167576610Y-144322713D01*
X167519653Y-144293691D01*
X167394223Y-144229781D01*
X167199534Y-144166522D01*
X167024995Y-144138878D01*
X166997352Y-144134500D01*
X166792648Y-144134500D01*
X166768329Y-144138351D01*
X166590465Y-144166522D01*
X166395776Y-144229781D01*
X166213386Y-144322715D01*
X166047786Y-144443028D01*
X165903028Y-144587786D01*
X165782715Y-144753386D01*
X165735485Y-144846080D01*
X165687510Y-144896876D01*
X165619689Y-144913671D01*
X165553554Y-144891134D01*
X165514515Y-144846080D01*
X165499188Y-144816000D01*
X165467287Y-144753390D01*
X165449054Y-144728294D01*
X165346971Y-144587786D01*
X165202213Y-144443028D01*
X165036613Y-144322715D01*
X165036612Y-144322714D01*
X165036610Y-144322713D01*
X164979653Y-144293691D01*
X164854223Y-144229781D01*
X164659534Y-144166522D01*
X164484995Y-144138878D01*
X164457352Y-144134500D01*
X164252648Y-144134500D01*
X164228329Y-144138351D01*
X164050465Y-144166522D01*
X163855776Y-144229781D01*
X163673386Y-144322715D01*
X163507786Y-144443028D01*
X163363028Y-144587786D01*
X163242715Y-144753386D01*
X163149781Y-144935776D01*
X163086522Y-145130465D01*
X163054500Y-145332648D01*
X160252109Y-145332648D01*
X160251283Y-145329806D01*
X160251281Y-145329803D01*
X160167684Y-145188447D01*
X160167677Y-145188438D01*
X160051560Y-145072321D01*
X160051551Y-145072314D01*
X159910195Y-144988717D01*
X159910192Y-144988716D01*
X159752494Y-144942900D01*
X159752488Y-144942899D01*
X159715648Y-144940000D01*
X159312499Y-144940000D01*
X159312499Y-145490000D01*
X158812499Y-145490000D01*
X158812499Y-144940000D01*
X158549499Y-144940000D01*
X158482460Y-144920315D01*
X158436705Y-144867511D01*
X158425499Y-144816000D01*
X158425499Y-144764500D01*
X158445184Y-144697461D01*
X158497988Y-144651706D01*
X158549499Y-144640500D01*
X159715685Y-144640500D01*
X159715693Y-144640500D01*
X159752568Y-144637598D01*
X159752570Y-144637597D01*
X159752572Y-144637597D01*
X159828629Y-144615500D01*
X159910397Y-144591744D01*
X160051864Y-144508081D01*
X160168080Y-144391865D01*
X160251743Y-144250398D01*
X160289071Y-144121917D01*
X160297596Y-144092573D01*
X160297597Y-144092567D01*
X160300498Y-144055701D01*
X160300499Y-144055694D01*
X160300499Y-143624306D01*
X160297597Y-143587431D01*
X160251743Y-143429602D01*
X160231269Y-143394983D01*
X173184500Y-143394983D01*
X173184500Y-144595001D01*
X173184501Y-144595018D01*
X173195000Y-144697796D01*
X173195001Y-144697799D01*
X173250185Y-144864331D01*
X173250187Y-144864336D01*
X173254863Y-144871917D01*
X173342288Y-145013656D01*
X173466344Y-145137712D01*
X173615666Y-145229814D01*
X173698152Y-145257147D01*
X173755597Y-145296920D01*
X173782420Y-145361436D01*
X173770105Y-145430212D01*
X173760143Y-145441975D01*
X173759077Y-145455524D01*
X174438554Y-146135000D01*
X174432339Y-146135000D01*
X174330606Y-146162259D01*
X174239394Y-146214920D01*
X174164920Y-146289394D01*
X174112259Y-146380606D01*
X174085000Y-146482339D01*
X174085000Y-146488553D01*
X173405524Y-145809077D01*
X173405523Y-145809077D01*
X173373143Y-145853644D01*
X173280244Y-146035968D01*
X173217009Y-146230582D01*
X173185000Y-146432682D01*
X173185000Y-146637317D01*
X173217009Y-146839417D01*
X173280244Y-147034031D01*
X173373141Y-147216350D01*
X173373147Y-147216359D01*
X173405523Y-147260921D01*
X173405524Y-147260922D01*
X174085000Y-146581446D01*
X174085000Y-146587661D01*
X174112259Y-146689394D01*
X174164920Y-146780606D01*
X174239394Y-146855080D01*
X174330606Y-146907741D01*
X174432339Y-146935000D01*
X174438553Y-146935000D01*
X173759076Y-147614474D01*
X173803650Y-147646859D01*
X173985968Y-147739755D01*
X174180582Y-147802990D01*
X174382683Y-147835000D01*
X174587317Y-147835000D01*
X174789417Y-147802990D01*
X174984031Y-147739755D01*
X175166349Y-147646859D01*
X175210921Y-147614474D01*
X174531447Y-146935000D01*
X174537661Y-146935000D01*
X174639394Y-146907741D01*
X174730606Y-146855080D01*
X174805080Y-146780606D01*
X174857741Y-146689394D01*
X174885000Y-146587661D01*
X174885000Y-146581447D01*
X175564474Y-147260921D01*
X175596859Y-147216349D01*
X175689755Y-147034031D01*
X175752990Y-146839417D01*
X175785000Y-146637317D01*
X175785000Y-146432682D01*
X175752990Y-146230582D01*
X175689755Y-146035968D01*
X175596859Y-145853650D01*
X175564474Y-145809077D01*
X175564474Y-145809076D01*
X174885000Y-146488551D01*
X174885000Y-146482339D01*
X174857741Y-146380606D01*
X174805080Y-146289394D01*
X174730606Y-146214920D01*
X174639394Y-146162259D01*
X174537661Y-146135000D01*
X174531446Y-146135000D01*
X175210922Y-145455524D01*
X175209570Y-145438349D01*
X175195299Y-145419842D01*
X175189320Y-145350229D01*
X175221925Y-145288433D01*
X175271845Y-145257148D01*
X175354334Y-145229814D01*
X175503656Y-145137712D01*
X175627712Y-145013656D01*
X175719814Y-144864334D01*
X175774999Y-144697797D01*
X175785500Y-144595009D01*
X175785499Y-143892648D01*
X180804500Y-143892648D01*
X180804500Y-144097351D01*
X180836522Y-144299534D01*
X180899781Y-144494223D01*
X180951135Y-144595009D01*
X180974313Y-144640499D01*
X180992715Y-144676613D01*
X181113028Y-144842213D01*
X181257786Y-144986971D01*
X181375253Y-145072314D01*
X181423390Y-145107287D01*
X181491263Y-145141870D01*
X181516080Y-145154515D01*
X181566876Y-145202490D01*
X181583671Y-145270311D01*
X181561134Y-145336446D01*
X181516080Y-145375485D01*
X181423386Y-145422715D01*
X181257786Y-145543028D01*
X181113028Y-145687786D01*
X180992715Y-145853386D01*
X180899781Y-146035776D01*
X180836522Y-146230465D01*
X180804500Y-146432648D01*
X180804500Y-146637351D01*
X180836522Y-146839534D01*
X180899781Y-147034223D01*
X180962686Y-147157678D01*
X180992585Y-147216359D01*
X180992715Y-147216613D01*
X181113028Y-147382213D01*
X181257786Y-147526971D01*
X181378226Y-147614474D01*
X181423390Y-147647287D01*
X181539607Y-147706503D01*
X181605776Y-147740218D01*
X181605778Y-147740218D01*
X181605781Y-147740220D01*
X181710137Y-147774127D01*
X181800465Y-147803477D01*
X181901557Y-147819488D01*
X182002648Y-147835500D01*
X182002649Y-147835500D01*
X182207351Y-147835500D01*
X182207352Y-147835500D01*
X182409534Y-147803477D01*
X182604219Y-147740220D01*
X182786610Y-147647287D01*
X182881627Y-147578254D01*
X182952213Y-147526971D01*
X182952215Y-147526968D01*
X182952219Y-147526966D01*
X183096966Y-147382219D01*
X183096968Y-147382215D01*
X183096971Y-147382213D01*
X183166074Y-147287099D01*
X183217287Y-147216610D01*
X183310220Y-147034219D01*
X183373477Y-146839534D01*
X183405500Y-146637352D01*
X183405500Y-146432648D01*
X183383152Y-146291552D01*
X183373477Y-146230465D01*
X183324523Y-146079801D01*
X183310220Y-146035781D01*
X183310218Y-146035778D01*
X183310218Y-146035776D01*
X183266714Y-145950396D01*
X183217287Y-145853390D01*
X183185092Y-145809077D01*
X183096971Y-145687786D01*
X182952213Y-145543028D01*
X182786614Y-145422715D01*
X182780006Y-145419348D01*
X182693917Y-145375483D01*
X182643123Y-145327511D01*
X182626328Y-145259690D01*
X182648865Y-145193555D01*
X182693917Y-145154516D01*
X182786610Y-145107287D01*
X182875682Y-145042573D01*
X182952213Y-144986971D01*
X182952215Y-144986968D01*
X182952219Y-144986966D01*
X183096966Y-144842219D01*
X183096968Y-144842215D01*
X183096971Y-144842213D01*
X183153432Y-144764500D01*
X183217287Y-144676610D01*
X183310220Y-144494219D01*
X183373477Y-144299534D01*
X183405500Y-144097352D01*
X183405500Y-143892648D01*
X183373477Y-143690466D01*
X183310220Y-143495781D01*
X183310218Y-143495778D01*
X183310218Y-143495776D01*
X183258865Y-143394991D01*
X183217287Y-143313390D01*
X183198934Y-143288129D01*
X183096971Y-143147786D01*
X182952213Y-143003028D01*
X182786613Y-142882715D01*
X182786612Y-142882714D01*
X182786610Y-142882713D01*
X182726898Y-142852288D01*
X182604223Y-142789781D01*
X182409534Y-142726522D01*
X182234995Y-142698878D01*
X182207352Y-142694500D01*
X182002648Y-142694500D01*
X181978329Y-142698351D01*
X181800465Y-142726522D01*
X181605776Y-142789781D01*
X181423386Y-142882715D01*
X181257786Y-143003028D01*
X181113028Y-143147786D01*
X180992715Y-143313386D01*
X180899781Y-143495776D01*
X180836522Y-143690465D01*
X180804500Y-143892648D01*
X175785499Y-143892648D01*
X175785499Y-143394992D01*
X175774999Y-143292203D01*
X175719814Y-143125666D01*
X175627712Y-142976344D01*
X175503656Y-142852288D01*
X175354334Y-142760186D01*
X175187797Y-142705001D01*
X175187795Y-142705000D01*
X175085010Y-142694500D01*
X173884998Y-142694500D01*
X173884981Y-142694501D01*
X173782203Y-142705000D01*
X173782200Y-142705001D01*
X173615668Y-142760185D01*
X173615663Y-142760187D01*
X173466342Y-142852289D01*
X173342289Y-142976342D01*
X173250187Y-143125663D01*
X173250186Y-143125666D01*
X173195001Y-143292203D01*
X173195001Y-143292204D01*
X173195000Y-143292204D01*
X173184500Y-143394983D01*
X160231269Y-143394983D01*
X160168080Y-143288135D01*
X160168078Y-143288133D01*
X160168075Y-143288129D01*
X160051869Y-143171923D01*
X160051861Y-143171917D01*
X159910395Y-143088255D01*
X159910392Y-143088254D01*
X159752572Y-143042402D01*
X159752566Y-143042401D01*
X159715700Y-143039500D01*
X159715693Y-143039500D01*
X158409305Y-143039500D01*
X158409297Y-143039500D01*
X158372431Y-143042401D01*
X158372425Y-143042402D01*
X158214605Y-143088254D01*
X158214602Y-143088255D01*
X158073136Y-143171917D01*
X158073128Y-143171923D01*
X157956922Y-143288129D01*
X157956916Y-143288137D01*
X157873254Y-143429603D01*
X157873253Y-143429606D01*
X157827401Y-143587426D01*
X157827400Y-143587432D01*
X157824499Y-143624298D01*
X157824499Y-143865500D01*
X157804814Y-143932539D01*
X157752010Y-143978294D01*
X157700499Y-143989500D01*
X156534297Y-143989500D01*
X156497431Y-143992401D01*
X156497425Y-143992402D01*
X156339605Y-144038254D01*
X156339602Y-144038255D01*
X156198136Y-144121917D01*
X156198128Y-144121923D01*
X156081922Y-144238129D01*
X156081916Y-144238137D01*
X155998254Y-144379603D01*
X155998253Y-144379606D01*
X155952401Y-144537426D01*
X155952400Y-144537432D01*
X155949499Y-144574298D01*
X154989897Y-144574298D01*
X155101864Y-144508081D01*
X155101869Y-144508076D01*
X155125756Y-144484190D01*
X155218075Y-144391870D01*
X155218080Y-144391865D01*
X155301743Y-144250398D01*
X155339071Y-144121917D01*
X155347596Y-144092573D01*
X155347597Y-144092567D01*
X155350498Y-144055701D01*
X155350499Y-144055694D01*
X155350499Y-143624306D01*
X155347597Y-143587431D01*
X155301743Y-143429602D01*
X155218080Y-143288135D01*
X155218078Y-143288133D01*
X155218075Y-143288129D01*
X155101869Y-143171923D01*
X155101861Y-143171917D01*
X154960395Y-143088255D01*
X154960392Y-143088254D01*
X154802572Y-143042402D01*
X154802566Y-143042401D01*
X154765700Y-143039500D01*
X154765693Y-143039500D01*
X153459305Y-143039500D01*
X153459297Y-143039500D01*
X153422431Y-143042401D01*
X153422425Y-143042402D01*
X153264605Y-143088254D01*
X153264602Y-143088255D01*
X153123136Y-143171917D01*
X153123128Y-143171923D01*
X153006922Y-143288129D01*
X153006916Y-143288137D01*
X152923254Y-143429603D01*
X152923253Y-143429606D01*
X152877401Y-143587426D01*
X152877400Y-143587432D01*
X152874499Y-143624298D01*
X152874499Y-143865500D01*
X152854814Y-143932539D01*
X152802010Y-143978294D01*
X152750499Y-143989500D01*
X151584297Y-143989500D01*
X151547431Y-143992401D01*
X151547425Y-143992402D01*
X151389605Y-144038254D01*
X151389602Y-144038255D01*
X151248136Y-144121917D01*
X151248128Y-144121923D01*
X151131922Y-144238129D01*
X151131916Y-144238137D01*
X151048254Y-144379603D01*
X151048253Y-144379606D01*
X151002401Y-144537426D01*
X151002400Y-144537432D01*
X150999499Y-144574298D01*
X149950000Y-144574298D01*
X149950000Y-140244983D01*
X152493251Y-140244983D01*
X152493251Y-141845001D01*
X152493252Y-141845018D01*
X152503751Y-141947796D01*
X152503752Y-141947799D01*
X152558936Y-142114331D01*
X152558937Y-142114334D01*
X152651039Y-142263656D01*
X152775095Y-142387712D01*
X152924417Y-142479814D01*
X153090954Y-142534999D01*
X153193742Y-142545500D01*
X154793759Y-142545499D01*
X154896548Y-142534999D01*
X155063085Y-142479814D01*
X155212407Y-142387712D01*
X155336463Y-142263656D01*
X155428565Y-142114334D01*
X155483750Y-141947797D01*
X155494251Y-141845009D01*
X155494250Y-140926947D01*
X157493751Y-140926947D01*
X157493751Y-141163052D01*
X157530685Y-141396247D01*
X157603648Y-141620802D01*
X157710838Y-141831174D01*
X157771089Y-141914104D01*
X157771091Y-141914105D01*
X158510788Y-141174408D01*
X158527826Y-141237993D01*
X158593652Y-141352007D01*
X158686744Y-141445099D01*
X158800758Y-141510925D01*
X158864341Y-141527962D01*
X158124644Y-142267658D01*
X158207579Y-142327914D01*
X158417948Y-142435102D01*
X158642503Y-142508065D01*
X158642502Y-142508065D01*
X158875699Y-142545000D01*
X159111803Y-142545000D01*
X159344998Y-142508065D01*
X159569553Y-142435102D01*
X159779914Y-142327918D01*
X159779920Y-142327914D01*
X159862855Y-142267658D01*
X159862856Y-142267658D01*
X159123159Y-141527962D01*
X159186744Y-141510925D01*
X159300758Y-141445099D01*
X159393850Y-141352007D01*
X159459676Y-141237993D01*
X159476713Y-141174409D01*
X160216409Y-141914105D01*
X160216409Y-141914104D01*
X160276665Y-141831169D01*
X160276669Y-141831163D01*
X160355246Y-141676947D01*
X162834999Y-141676947D01*
X162834999Y-141913052D01*
X162871933Y-142146247D01*
X162944896Y-142370802D01*
X163052086Y-142581174D01*
X163112337Y-142664104D01*
X163112339Y-142664105D01*
X163811211Y-141965233D01*
X163822481Y-142007292D01*
X163894889Y-142132708D01*
X163997291Y-142235110D01*
X164122707Y-142307518D01*
X164164764Y-142318787D01*
X163465892Y-143017658D01*
X163548827Y-143077914D01*
X163759196Y-143185102D01*
X163983751Y-143258065D01*
X163983750Y-143258065D01*
X164216947Y-143295000D01*
X164453051Y-143295000D01*
X164686246Y-143258065D01*
X164910801Y-143185102D01*
X165121162Y-143077918D01*
X165121168Y-143077914D01*
X165204103Y-143017658D01*
X165204104Y-143017658D01*
X164505232Y-142318787D01*
X164547291Y-142307518D01*
X164672707Y-142235110D01*
X164775109Y-142132708D01*
X164847517Y-142007292D01*
X164858786Y-141965234D01*
X165557657Y-142664105D01*
X165557657Y-142664104D01*
X165617913Y-142581169D01*
X165617917Y-142581163D01*
X165725101Y-142370802D01*
X165798064Y-142146247D01*
X165834999Y-141913052D01*
X165834999Y-141676947D01*
X169334999Y-141676947D01*
X169334999Y-141913052D01*
X169371933Y-142146247D01*
X169444896Y-142370802D01*
X169552086Y-142581174D01*
X169612337Y-142664104D01*
X169612339Y-142664105D01*
X170311211Y-141965233D01*
X170322481Y-142007292D01*
X170394889Y-142132708D01*
X170497291Y-142235110D01*
X170622707Y-142307518D01*
X170664764Y-142318787D01*
X169965892Y-143017658D01*
X170048827Y-143077914D01*
X170259196Y-143185102D01*
X170483751Y-143258065D01*
X170483750Y-143258065D01*
X170716947Y-143295000D01*
X170953051Y-143295000D01*
X171114930Y-143269361D01*
X171186246Y-143258065D01*
X171410801Y-143185102D01*
X171621162Y-143077918D01*
X171621168Y-143077914D01*
X171704103Y-143017658D01*
X171704104Y-143017658D01*
X171005232Y-142318787D01*
X171047291Y-142307518D01*
X171172707Y-142235110D01*
X171275109Y-142132708D01*
X171347517Y-142007292D01*
X171358786Y-141965234D01*
X172057657Y-142664105D01*
X172057657Y-142664104D01*
X172117913Y-142581169D01*
X172117917Y-142581163D01*
X172225101Y-142370802D01*
X172298064Y-142146247D01*
X172334999Y-141913052D01*
X172334999Y-141676947D01*
X172298064Y-141443752D01*
X172225101Y-141219197D01*
X172117911Y-141008825D01*
X172082513Y-140960103D01*
X172082511Y-140960101D01*
X172057657Y-140925894D01*
X172057657Y-140925893D01*
X171358786Y-141624765D01*
X171347517Y-141582708D01*
X171275109Y-141457292D01*
X171172707Y-141354890D01*
X171047291Y-141282482D01*
X171005233Y-141271212D01*
X171704104Y-140572340D01*
X171704103Y-140572338D01*
X171621173Y-140512087D01*
X171410801Y-140404897D01*
X171186246Y-140331934D01*
X171186247Y-140331934D01*
X170953051Y-140295000D01*
X170716947Y-140295000D01*
X170483751Y-140331934D01*
X170259196Y-140404897D01*
X170048829Y-140512084D01*
X169965893Y-140572340D01*
X170664765Y-141271212D01*
X170622707Y-141282482D01*
X170497291Y-141354890D01*
X170394889Y-141457292D01*
X170322481Y-141582708D01*
X170311211Y-141624765D01*
X169612339Y-140925894D01*
X169552083Y-141008830D01*
X169444896Y-141219197D01*
X169371933Y-141443752D01*
X169334999Y-141676947D01*
X165834999Y-141676947D01*
X165798064Y-141443752D01*
X165725101Y-141219197D01*
X165617913Y-141008828D01*
X165557657Y-140925894D01*
X165557657Y-140925893D01*
X164858786Y-141624765D01*
X164847517Y-141582708D01*
X164775109Y-141457292D01*
X164672707Y-141354890D01*
X164547291Y-141282482D01*
X164505233Y-141271212D01*
X165204104Y-140572340D01*
X165204103Y-140572339D01*
X165121173Y-140512087D01*
X164910801Y-140404897D01*
X164686246Y-140331934D01*
X164686247Y-140331934D01*
X164453051Y-140295000D01*
X164216947Y-140295000D01*
X163983751Y-140331934D01*
X163759196Y-140404897D01*
X163548829Y-140512084D01*
X163465893Y-140572340D01*
X164164765Y-141271212D01*
X164122707Y-141282482D01*
X163997291Y-141354890D01*
X163894889Y-141457292D01*
X163822481Y-141582708D01*
X163811211Y-141624766D01*
X163112339Y-140925894D01*
X163052083Y-141008830D01*
X162944896Y-141219197D01*
X162871933Y-141443752D01*
X162834999Y-141676947D01*
X160355246Y-141676947D01*
X160383853Y-141620802D01*
X160456816Y-141396247D01*
X160493751Y-141163052D01*
X160493751Y-140926947D01*
X160456816Y-140693752D01*
X160445173Y-140657917D01*
X160383853Y-140469197D01*
X160276665Y-140258828D01*
X160216409Y-140175894D01*
X160216409Y-140175893D01*
X159476713Y-140915590D01*
X159459676Y-140852007D01*
X159393850Y-140737993D01*
X159300758Y-140644901D01*
X159186744Y-140579075D01*
X159123160Y-140562037D01*
X159862856Y-139822340D01*
X159862855Y-139822338D01*
X159779925Y-139762087D01*
X159569553Y-139654897D01*
X159344998Y-139581934D01*
X159344999Y-139581934D01*
X159111803Y-139545000D01*
X158875699Y-139545000D01*
X158642503Y-139581934D01*
X158417948Y-139654897D01*
X158207581Y-139762084D01*
X158124645Y-139822340D01*
X158864342Y-140562037D01*
X158800758Y-140579075D01*
X158686744Y-140644901D01*
X158593652Y-140737993D01*
X158527826Y-140852007D01*
X158510788Y-140915591D01*
X157771091Y-140175894D01*
X157710835Y-140258830D01*
X157603648Y-140469197D01*
X157530685Y-140693752D01*
X157493751Y-140926947D01*
X155494250Y-140926947D01*
X155494250Y-140244992D01*
X155487191Y-140175893D01*
X155483750Y-140142203D01*
X155483749Y-140142200D01*
X155439741Y-140009394D01*
X155428565Y-139975666D01*
X155336463Y-139826344D01*
X155212407Y-139702288D01*
X155063085Y-139610186D01*
X154896548Y-139555001D01*
X154896546Y-139555000D01*
X154793761Y-139544500D01*
X153193749Y-139544500D01*
X153193732Y-139544501D01*
X153090954Y-139555000D01*
X153090951Y-139555001D01*
X152924419Y-139610185D01*
X152924414Y-139610187D01*
X152775093Y-139702289D01*
X152651040Y-139826342D01*
X152558938Y-139975663D01*
X152558936Y-139975668D01*
X152531100Y-140059670D01*
X152503752Y-140142203D01*
X152503752Y-140142204D01*
X152503751Y-140142204D01*
X152493251Y-140244983D01*
X149950000Y-140244983D01*
X149950000Y-137299986D01*
X150995001Y-137299986D01*
X151005494Y-137402697D01*
X151060641Y-137569119D01*
X151060643Y-137569124D01*
X151152684Y-137718345D01*
X151276654Y-137842315D01*
X151425875Y-137934356D01*
X151425880Y-137934358D01*
X151592302Y-137989505D01*
X151592309Y-137989506D01*
X151695019Y-137999999D01*
X151744999Y-137999998D01*
X151745000Y-137999998D01*
X151745000Y-137025000D01*
X150995001Y-137025000D01*
X150995001Y-137299986D01*
X149950000Y-137299986D01*
X149950000Y-136250013D01*
X150995000Y-136250013D01*
X150995000Y-136525000D01*
X151745000Y-136525000D01*
X151745000Y-135550000D01*
X152245000Y-135550000D01*
X152245000Y-137999999D01*
X152294972Y-137999999D01*
X152294986Y-137999998D01*
X152397697Y-137989505D01*
X152564119Y-137934358D01*
X152564124Y-137934356D01*
X152713345Y-137842315D01*
X152837318Y-137718342D01*
X152839165Y-137715348D01*
X152840969Y-137713724D01*
X152841798Y-137712677D01*
X152841976Y-137712818D01*
X152891110Y-137668621D01*
X152960073Y-137657396D01*
X153024156Y-137685236D01*
X153050243Y-137715341D01*
X153052288Y-137718656D01*
X153176344Y-137842712D01*
X153325666Y-137934814D01*
X153492203Y-137989999D01*
X153594991Y-138000500D01*
X154195008Y-138000499D01*
X154195016Y-138000498D01*
X154195019Y-138000498D01*
X154251302Y-137994748D01*
X154297797Y-137989999D01*
X154464334Y-137934814D01*
X154613656Y-137842712D01*
X154737712Y-137718656D01*
X154829814Y-137569334D01*
X154884999Y-137402797D01*
X154895500Y-137300009D01*
X154895500Y-137299986D01*
X155485001Y-137299986D01*
X155495494Y-137402697D01*
X155550641Y-137569119D01*
X155550643Y-137569124D01*
X155642684Y-137718345D01*
X155766654Y-137842315D01*
X155915875Y-137934356D01*
X155915880Y-137934358D01*
X156082302Y-137989505D01*
X156082309Y-137989506D01*
X156185019Y-137999999D01*
X156234999Y-137999998D01*
X156235000Y-137999998D01*
X156235000Y-137025000D01*
X155485001Y-137025000D01*
X155485001Y-137299986D01*
X154895500Y-137299986D01*
X154895499Y-136750153D01*
X154895499Y-136250013D01*
X155485000Y-136250013D01*
X155485000Y-136525000D01*
X156235000Y-136525000D01*
X156235000Y-135550000D01*
X156735000Y-135550000D01*
X156735000Y-137999999D01*
X156784972Y-137999999D01*
X156784986Y-137999998D01*
X156887697Y-137989505D01*
X157054119Y-137934358D01*
X157054124Y-137934356D01*
X157203345Y-137842315D01*
X157327318Y-137718342D01*
X157329165Y-137715348D01*
X157330969Y-137713724D01*
X157331798Y-137712677D01*
X157331976Y-137712818D01*
X157381110Y-137668621D01*
X157450073Y-137657396D01*
X157514156Y-137685236D01*
X157540243Y-137715341D01*
X157542288Y-137718656D01*
X157666344Y-137842712D01*
X157815666Y-137934814D01*
X157982203Y-137989999D01*
X158084991Y-138000500D01*
X158685008Y-138000499D01*
X158685016Y-138000498D01*
X158685019Y-138000498D01*
X158741302Y-137994748D01*
X158787797Y-137989999D01*
X158954334Y-137934814D01*
X159103656Y-137842712D01*
X159227712Y-137718656D01*
X159319814Y-137569334D01*
X159374999Y-137402797D01*
X159385500Y-137300009D01*
X159385500Y-137176902D01*
X162834499Y-137176902D01*
X162834499Y-137413097D01*
X162871445Y-137646368D01*
X162944432Y-137870996D01*
X163019231Y-138017795D01*
X163051656Y-138081433D01*
X163190482Y-138272510D01*
X163357489Y-138439517D01*
X163548566Y-138578343D01*
X163607621Y-138608433D01*
X163759002Y-138685566D01*
X163759004Y-138685566D01*
X163759007Y-138685568D01*
X163879411Y-138724689D01*
X163983630Y-138758553D01*
X164216902Y-138795500D01*
X164216907Y-138795500D01*
X164453096Y-138795500D01*
X164686367Y-138758553D01*
X164743953Y-138739842D01*
X164910991Y-138685568D01*
X165121432Y-138578343D01*
X165312509Y-138439517D01*
X165479516Y-138272510D01*
X165618342Y-138081433D01*
X165725567Y-137870992D01*
X165798552Y-137646368D01*
X165810753Y-137569334D01*
X165835499Y-137413097D01*
X165835499Y-137176902D01*
X169334499Y-137176902D01*
X169334499Y-137413097D01*
X169371445Y-137646368D01*
X169444432Y-137870996D01*
X169519231Y-138017795D01*
X169551656Y-138081433D01*
X169690482Y-138272510D01*
X169857489Y-138439517D01*
X170048566Y-138578343D01*
X170107621Y-138608433D01*
X170259002Y-138685566D01*
X170259004Y-138685566D01*
X170259007Y-138685568D01*
X170379411Y-138724689D01*
X170483630Y-138758553D01*
X170716902Y-138795500D01*
X170716907Y-138795500D01*
X170953096Y-138795500D01*
X171186367Y-138758553D01*
X171243953Y-138739842D01*
X171410991Y-138685568D01*
X171621432Y-138578343D01*
X171812509Y-138439517D01*
X171979516Y-138272510D01*
X172118342Y-138081433D01*
X172225567Y-137870992D01*
X172298552Y-137646368D01*
X172310753Y-137569334D01*
X172335499Y-137413097D01*
X172335499Y-137176902D01*
X172298552Y-136943631D01*
X172277748Y-136879605D01*
X172225567Y-136719008D01*
X172223516Y-136714983D01*
X173184500Y-136714983D01*
X173184500Y-137915001D01*
X173184501Y-137915018D01*
X173195000Y-138017796D01*
X173195001Y-138017799D01*
X173216088Y-138081433D01*
X173250186Y-138184334D01*
X173342288Y-138333656D01*
X173466344Y-138457712D01*
X173615666Y-138549814D01*
X173698152Y-138577147D01*
X173755597Y-138616920D01*
X173782420Y-138681436D01*
X173770105Y-138750212D01*
X173760143Y-138761975D01*
X173759077Y-138775524D01*
X174438554Y-139455000D01*
X174432339Y-139455000D01*
X174330606Y-139482259D01*
X174239394Y-139534920D01*
X174164920Y-139609394D01*
X174112259Y-139700606D01*
X174085000Y-139802339D01*
X174085000Y-139808553D01*
X173405524Y-139129077D01*
X173405523Y-139129077D01*
X173373143Y-139173644D01*
X173280244Y-139355968D01*
X173217009Y-139550582D01*
X173185000Y-139752682D01*
X173185000Y-139957317D01*
X173217009Y-140159417D01*
X173280244Y-140354031D01*
X173373141Y-140536350D01*
X173373147Y-140536359D01*
X173405523Y-140580921D01*
X173405524Y-140580922D01*
X174085000Y-139901446D01*
X174085000Y-139907661D01*
X174112259Y-140009394D01*
X174164920Y-140100606D01*
X174239394Y-140175080D01*
X174330606Y-140227741D01*
X174432339Y-140255000D01*
X174438553Y-140255000D01*
X173759076Y-140934474D01*
X173803650Y-140966859D01*
X173985968Y-141059755D01*
X174180582Y-141122990D01*
X174382683Y-141155000D01*
X174587317Y-141155000D01*
X174789417Y-141122990D01*
X174984031Y-141059755D01*
X175166349Y-140966859D01*
X175210921Y-140934474D01*
X174531447Y-140255000D01*
X174537661Y-140255000D01*
X174639394Y-140227741D01*
X174730606Y-140175080D01*
X174805080Y-140100606D01*
X174857741Y-140009394D01*
X174885000Y-139907661D01*
X174885000Y-139901447D01*
X175564474Y-140580921D01*
X175596859Y-140536349D01*
X175689755Y-140354031D01*
X175752990Y-140159417D01*
X175785000Y-139957317D01*
X175785000Y-139752682D01*
X175752990Y-139550582D01*
X175689755Y-139355968D01*
X175596859Y-139173650D01*
X175564474Y-139129077D01*
X175564474Y-139129076D01*
X174885000Y-139808551D01*
X174885000Y-139802339D01*
X174857741Y-139700606D01*
X174805080Y-139609394D01*
X174730606Y-139534920D01*
X174639394Y-139482259D01*
X174537661Y-139455000D01*
X174531446Y-139455000D01*
X175210922Y-138775524D01*
X175209570Y-138758349D01*
X175195299Y-138739842D01*
X175189320Y-138670229D01*
X175221925Y-138608433D01*
X175271845Y-138577148D01*
X175354334Y-138549814D01*
X175503656Y-138457712D01*
X175627712Y-138333656D01*
X175719814Y-138184334D01*
X175774999Y-138017797D01*
X175785500Y-137915009D01*
X175785499Y-137212648D01*
X180804500Y-137212648D01*
X180804500Y-137417351D01*
X180836522Y-137619534D01*
X180899781Y-137814223D01*
X180951135Y-137915009D01*
X180989093Y-137989506D01*
X180992715Y-137996613D01*
X181113028Y-138162213D01*
X181257786Y-138306971D01*
X181412749Y-138419556D01*
X181423390Y-138427287D01*
X181514840Y-138473883D01*
X181516080Y-138474515D01*
X181566876Y-138522490D01*
X181583671Y-138590311D01*
X181561134Y-138656446D01*
X181516080Y-138695485D01*
X181423386Y-138742715D01*
X181257786Y-138863028D01*
X181113028Y-139007786D01*
X180992715Y-139173386D01*
X180899781Y-139355776D01*
X180836522Y-139550465D01*
X180804500Y-139752648D01*
X180804500Y-139957351D01*
X180836522Y-140159534D01*
X180899781Y-140354223D01*
X180958364Y-140469197D01*
X180992585Y-140536359D01*
X180992715Y-140536613D01*
X181113028Y-140702213D01*
X181257786Y-140846971D01*
X181367866Y-140926947D01*
X181423390Y-140967287D01*
X181504913Y-141008825D01*
X181605776Y-141060218D01*
X181605778Y-141060218D01*
X181605781Y-141060220D01*
X181710137Y-141094127D01*
X181800465Y-141123477D01*
X181901557Y-141139488D01*
X182002648Y-141155500D01*
X182002649Y-141155500D01*
X182207351Y-141155500D01*
X182207352Y-141155500D01*
X182409534Y-141123477D01*
X182604219Y-141060220D01*
X182786610Y-140967287D01*
X182945281Y-140852007D01*
X182952213Y-140846971D01*
X182952215Y-140846968D01*
X182952219Y-140846966D01*
X183096966Y-140702219D01*
X183096968Y-140702215D01*
X183096971Y-140702213D01*
X183149732Y-140629590D01*
X183217287Y-140536610D01*
X183310220Y-140354219D01*
X183373477Y-140159534D01*
X183405500Y-139957352D01*
X183405500Y-139752648D01*
X183382936Y-139610185D01*
X183373477Y-139550465D01*
X183342458Y-139455000D01*
X183310220Y-139355781D01*
X183310218Y-139355778D01*
X183310218Y-139355776D01*
X183217419Y-139173650D01*
X183217287Y-139173390D01*
X183185092Y-139129077D01*
X183096971Y-139007786D01*
X182952213Y-138863028D01*
X182786614Y-138742715D01*
X182780006Y-138739348D01*
X182693917Y-138695483D01*
X182643123Y-138647511D01*
X182626328Y-138579690D01*
X182648865Y-138513555D01*
X182693917Y-138474516D01*
X182786610Y-138427287D01*
X182915482Y-138333657D01*
X182952213Y-138306971D01*
X182952215Y-138306968D01*
X182952219Y-138306966D01*
X183096966Y-138162219D01*
X183096968Y-138162215D01*
X183096971Y-138162213D01*
X183201892Y-138017799D01*
X183217287Y-137996610D01*
X183310220Y-137814219D01*
X183373477Y-137619534D01*
X183405500Y-137417352D01*
X183405500Y-137212648D01*
X183373477Y-137010466D01*
X183310220Y-136815781D01*
X183310218Y-136815778D01*
X183310218Y-136815776D01*
X183276503Y-136749607D01*
X183217287Y-136633390D01*
X183201892Y-136612200D01*
X183096971Y-136467786D01*
X182952213Y-136323028D01*
X182786613Y-136202715D01*
X182786612Y-136202714D01*
X182786610Y-136202713D01*
X182726898Y-136172288D01*
X182604223Y-136109781D01*
X182409534Y-136046522D01*
X182234995Y-136018878D01*
X182207352Y-136014500D01*
X182002648Y-136014500D01*
X181978329Y-136018351D01*
X181800465Y-136046522D01*
X181605776Y-136109781D01*
X181423386Y-136202715D01*
X181257786Y-136323028D01*
X181113028Y-136467786D01*
X180992715Y-136633386D01*
X180899781Y-136815776D01*
X180836522Y-137010465D01*
X180804500Y-137212648D01*
X175785499Y-137212648D01*
X175785499Y-136714992D01*
X175774999Y-136612203D01*
X175719814Y-136445666D01*
X175627712Y-136296344D01*
X175503656Y-136172288D01*
X175354334Y-136080186D01*
X175187797Y-136025001D01*
X175187795Y-136025000D01*
X175085010Y-136014500D01*
X173884998Y-136014500D01*
X173884981Y-136014501D01*
X173782203Y-136025000D01*
X173782200Y-136025001D01*
X173615668Y-136080185D01*
X173615663Y-136080187D01*
X173466342Y-136172289D01*
X173342289Y-136296342D01*
X173250187Y-136445663D01*
X173250186Y-136445666D01*
X173195001Y-136612203D01*
X173195001Y-136612204D01*
X173195000Y-136612204D01*
X173184500Y-136714983D01*
X172223516Y-136714983D01*
X172118342Y-136508567D01*
X171979516Y-136317490D01*
X171812509Y-136150483D01*
X171621432Y-136011657D01*
X171560603Y-135980663D01*
X171410995Y-135904433D01*
X171186367Y-135831446D01*
X170953096Y-135794500D01*
X170953091Y-135794500D01*
X170716907Y-135794500D01*
X170716902Y-135794500D01*
X170483630Y-135831446D01*
X170259002Y-135904433D01*
X170048565Y-136011657D01*
X169954244Y-136080186D01*
X169857489Y-136150483D01*
X169857487Y-136150485D01*
X169857486Y-136150485D01*
X169690484Y-136317487D01*
X169690484Y-136317488D01*
X169690482Y-136317490D01*
X169630861Y-136399550D01*
X169551656Y-136508566D01*
X169444432Y-136719003D01*
X169371445Y-136943631D01*
X169334499Y-137176902D01*
X165835499Y-137176902D01*
X165798552Y-136943631D01*
X165764688Y-136839412D01*
X165725567Y-136719008D01*
X165725565Y-136719005D01*
X165725565Y-136719003D01*
X165618341Y-136508566D01*
X165479516Y-136317490D01*
X165312509Y-136150483D01*
X165121432Y-136011657D01*
X165060603Y-135980663D01*
X164910995Y-135904433D01*
X164686367Y-135831446D01*
X164453096Y-135794500D01*
X164453091Y-135794500D01*
X164216907Y-135794500D01*
X164216902Y-135794500D01*
X163983630Y-135831446D01*
X163759002Y-135904433D01*
X163548565Y-136011657D01*
X163454244Y-136080186D01*
X163357489Y-136150483D01*
X163357487Y-136150485D01*
X163357486Y-136150485D01*
X163190484Y-136317487D01*
X163190484Y-136317488D01*
X163190482Y-136317490D01*
X163130861Y-136399550D01*
X163051656Y-136508566D01*
X162944432Y-136719003D01*
X162871445Y-136943631D01*
X162834499Y-137176902D01*
X159385500Y-137176902D01*
X159385499Y-136750153D01*
X159385499Y-136249998D01*
X159385498Y-136249980D01*
X159374999Y-136147203D01*
X159374998Y-136147200D01*
X159319814Y-135980666D01*
X159227712Y-135831344D01*
X159103656Y-135707288D01*
X158954334Y-135615186D01*
X158787797Y-135560001D01*
X158787795Y-135560000D01*
X158685010Y-135549500D01*
X158084998Y-135549500D01*
X158084980Y-135549501D01*
X157982203Y-135560000D01*
X157982200Y-135560001D01*
X157815668Y-135615185D01*
X157815663Y-135615187D01*
X157666342Y-135707289D01*
X157542288Y-135831343D01*
X157542283Y-135831349D01*
X157540241Y-135834661D01*
X157538247Y-135836453D01*
X157537807Y-135837011D01*
X157537711Y-135836935D01*
X157488291Y-135881383D01*
X157419328Y-135892602D01*
X157355247Y-135864755D01*
X157329168Y-135834656D01*
X157327319Y-135831659D01*
X157327316Y-135831655D01*
X157203345Y-135707684D01*
X157054124Y-135615643D01*
X157054119Y-135615641D01*
X156887697Y-135560494D01*
X156887690Y-135560493D01*
X156784986Y-135550000D01*
X156735000Y-135550000D01*
X156235000Y-135550000D01*
X156234999Y-135549999D01*
X156185029Y-135550000D01*
X156185011Y-135550001D01*
X156082302Y-135560494D01*
X155915880Y-135615641D01*
X155915875Y-135615643D01*
X155766654Y-135707684D01*
X155642684Y-135831654D01*
X155550643Y-135980875D01*
X155550641Y-135980880D01*
X155495494Y-136147302D01*
X155495493Y-136147309D01*
X155485000Y-136250013D01*
X154895499Y-136250013D01*
X154895499Y-136249998D01*
X154895498Y-136249980D01*
X154884999Y-136147203D01*
X154884998Y-136147200D01*
X154829814Y-135980666D01*
X154737712Y-135831344D01*
X154613656Y-135707288D01*
X154464334Y-135615186D01*
X154297797Y-135560001D01*
X154297795Y-135560000D01*
X154195010Y-135549500D01*
X153594998Y-135549500D01*
X153594980Y-135549501D01*
X153492203Y-135560000D01*
X153492200Y-135560001D01*
X153325668Y-135615185D01*
X153325663Y-135615187D01*
X153176342Y-135707289D01*
X153052288Y-135831343D01*
X153052283Y-135831349D01*
X153050241Y-135834661D01*
X153048247Y-135836453D01*
X153047807Y-135837011D01*
X153047711Y-135836935D01*
X152998291Y-135881383D01*
X152929328Y-135892602D01*
X152865247Y-135864755D01*
X152839168Y-135834656D01*
X152837319Y-135831659D01*
X152837316Y-135831655D01*
X152713345Y-135707684D01*
X152564124Y-135615643D01*
X152564119Y-135615641D01*
X152397697Y-135560494D01*
X152397690Y-135560493D01*
X152294986Y-135550000D01*
X152245000Y-135550000D01*
X151745000Y-135550000D01*
X151744999Y-135549999D01*
X151695029Y-135550000D01*
X151695011Y-135550001D01*
X151592302Y-135560494D01*
X151425880Y-135615641D01*
X151425875Y-135615643D01*
X151276654Y-135707684D01*
X151152684Y-135831654D01*
X151060643Y-135980875D01*
X151060641Y-135980880D01*
X151005494Y-136147302D01*
X151005493Y-136147309D01*
X150995000Y-136250013D01*
X149950000Y-136250013D01*
X149950000Y-83881995D01*
X182698236Y-83881995D01*
X182698236Y-84118004D01*
X182698237Y-84118020D01*
X182729042Y-84352010D01*
X182790130Y-84579993D01*
X182880450Y-84798045D01*
X182880455Y-84798056D01*
X182951413Y-84920957D01*
X182998463Y-85002450D01*
X182998465Y-85002453D01*
X182998466Y-85002454D01*
X183142142Y-85189697D01*
X183142148Y-85189704D01*
X183309031Y-85356587D01*
X183309037Y-85356592D01*
X183496286Y-85500273D01*
X183627654Y-85576118D01*
X183700679Y-85618280D01*
X183700684Y-85618282D01*
X183700687Y-85618284D01*
X183918743Y-85708606D01*
X184146722Y-85769693D01*
X184380725Y-85800500D01*
X184380732Y-85800500D01*
X184616740Y-85800500D01*
X184616747Y-85800500D01*
X184850750Y-85769693D01*
X185078729Y-85708606D01*
X185296785Y-85618284D01*
X185501186Y-85500273D01*
X185688435Y-85356592D01*
X185855328Y-85189699D01*
X185999009Y-85002450D01*
X186117020Y-84798049D01*
X186207342Y-84579993D01*
X186268429Y-84352014D01*
X186299236Y-84118011D01*
X186299236Y-83881989D01*
X186268429Y-83647986D01*
X186207342Y-83420007D01*
X186117020Y-83201951D01*
X186117018Y-83201948D01*
X186117016Y-83201943D01*
X186074854Y-83128918D01*
X185999009Y-82997550D01*
X185855328Y-82810301D01*
X185855323Y-82810295D01*
X185688440Y-82643412D01*
X185688433Y-82643406D01*
X185501190Y-82499730D01*
X185501189Y-82499729D01*
X185501186Y-82499727D01*
X185419693Y-82452677D01*
X185296792Y-82381719D01*
X185296781Y-82381714D01*
X185078729Y-82291394D01*
X184850746Y-82230306D01*
X184616756Y-82199501D01*
X184616753Y-82199500D01*
X184616747Y-82199500D01*
X184380725Y-82199500D01*
X184380719Y-82199500D01*
X184380715Y-82199501D01*
X184146725Y-82230306D01*
X183918742Y-82291394D01*
X183700690Y-82381714D01*
X183700679Y-82381719D01*
X183496281Y-82499730D01*
X183309038Y-82643406D01*
X183309031Y-82643412D01*
X183142148Y-82810295D01*
X183142142Y-82810302D01*
X182998466Y-82997545D01*
X182998463Y-82997549D01*
X182998463Y-82997550D01*
X182990750Y-83010909D01*
X182880455Y-83201943D01*
X182880450Y-83201954D01*
X182790130Y-83420006D01*
X182729042Y-83647989D01*
X182698237Y-83881979D01*
X182698236Y-83881995D01*
X149950000Y-83881995D01*
X149950000Y-81124000D01*
X149969685Y-81056961D01*
X150022489Y-81011206D01*
X150074000Y-81000000D01*
X186949904Y-81000000D01*
X187016943Y-81019685D01*
G37*
%TD.AperFunction*%
%TD*%
M02*
