%TF.GenerationSoftware,KiCad,Pcbnew,10.0.5*%
%TF.CreationDate,2026-07-29T02:28:39-07:00*%
%TF.ProjectId,cv-lock,63762d6c-6f63-46b2-9e6b-696361645f70,rev?*%
%TF.SameCoordinates,Original*%
%TF.FileFunction,Soldermask,Bot*%
%TF.FilePolarity,Negative*%
%FSLAX46Y46*%
G04 Gerber Fmt 4.6, Leading zero omitted, Abs format (unit mm)*
G04 Created by KiCad (PCBNEW 10.0.5) date 2026-07-29 02:28:39*
%MOMM*%
%LPD*%
G01*
G04 APERTURE LIST*
G04 Aperture macros list*
%AMRoundRect*
0 Rectangle with rounded corners*
0 $1 Rounding radius*
0 $2 $3 $4 $5 $6 $7 $8 $9 X,Y pos of 4 corners*
0 Add a 4 corners polygon primitive as box body*
4,1,4,$2,$3,$4,$5,$6,$7,$8,$9,$2,$3,0*
0 Add four circle primitives for the rounded corners*
1,1,$1+$1,$2,$3*
1,1,$1+$1,$4,$5*
1,1,$1+$1,$6,$7*
1,1,$1+$1,$8,$9*
0 Add four rect primitives between the rounded corners*
20,1,$1+$1,$2,$3,$4,$5,0*
20,1,$1+$1,$4,$5,$6,$7,0*
20,1,$1+$1,$6,$7,$8,$9,0*
20,1,$1+$1,$8,$9,$2,$3,0*%
G04 Aperture macros list end*
%ADD10R,1.800000X1.800000*%
%ADD11C,1.800000*%
%ADD12C,3.200000*%
%ADD13RoundRect,0.250000X-0.550000X-0.550000X0.550000X-0.550000X0.550000X0.550000X-0.550000X0.550000X0*%
%ADD14C,1.600000*%
%ADD15R,1.700000X1.700000*%
%ADD16C,1.700000*%
%ADD17C,3.000000*%
%ADD18C,2.500000*%
%ADD19C,2.000000*%
%ADD20RoundRect,0.250000X-1.350000X-1.350000X1.350000X-1.350000X1.350000X1.350000X-1.350000X1.350000X0*%
%ADD21RoundRect,0.250000X-0.750000X-0.750000X0.750000X-0.750000X0.750000X0.750000X-0.750000X0.750000X0*%
%ADD22RoundRect,0.249999X0.850001X-0.850001X0.850001X0.850001X-0.850001X0.850001X-0.850001X-0.850001X0*%
%ADD23C,2.200000*%
%ADD24RoundRect,0.250000X-1.050000X-1.050000X1.050000X-1.050000X1.050000X1.050000X-1.050000X1.050000X0*%
%ADD25C,2.600000*%
%ADD26RoundRect,0.250000X0.250000X0.475000X-0.250000X0.475000X-0.250000X-0.475000X0.250000X-0.475000X0*%
%ADD27RoundRect,0.250000X0.262500X0.450000X-0.262500X0.450000X-0.262500X-0.450000X0.262500X-0.450000X0*%
%ADD28RoundRect,0.250000X0.450000X-0.262500X0.450000X0.262500X-0.450000X0.262500X-0.450000X-0.262500X0*%
%ADD29RoundRect,0.250000X0.375000X0.625000X-0.375000X0.625000X-0.375000X-0.625000X0.375000X-0.625000X0*%
%ADD30RoundRect,0.250000X1.000000X0.650000X-1.000000X0.650000X-1.000000X-0.650000X1.000000X-0.650000X0*%
%ADD31RoundRect,0.150000X0.587500X0.150000X-0.587500X0.150000X-0.587500X-0.150000X0.587500X-0.150000X0*%
%ADD32R,0.900000X1.500000*%
%ADD33R,1.500000X0.900000*%
%ADD34R,0.900000X0.900000*%
%ADD35C,0.600000*%
G04 APERTURE END LIST*
D10*
%TO.C,LED0*%
X147415000Y-102405000D03*
D11*
X149955000Y-102405000D03*
%TD*%
D12*
%TO.C,MH2*%
X189198700Y-147400000D03*
%TD*%
%TO.C,MH1*%
X103998700Y-84000000D03*
%TD*%
D13*
%TO.C,C2*%
X155813800Y-103285000D03*
D14*
X158313800Y-103285000D03*
%TD*%
D15*
%TO.C,JP*%
X143405000Y-101965000D03*
D16*
X143405000Y-104505000D03*
X143405000Y-107045000D03*
%TD*%
D13*
%TO.C,PC1*%
X176905000Y-96605000D03*
D14*
X176905000Y-99145000D03*
X184525000Y-99145000D03*
X184525000Y-96605000D03*
%TD*%
D17*
%TO.C,K1*%
X104845000Y-96245000D03*
D18*
X106795000Y-102295000D03*
D17*
X118995000Y-102295000D03*
X119045000Y-90245000D03*
D18*
X106795000Y-90295000D03*
%TD*%
D19*
%TO.C,SW1*%
X166755000Y-96585000D03*
X173255000Y-96585000D03*
X166755000Y-101085000D03*
X173255000Y-101085000D03*
%TD*%
D15*
%TO.C,U3*%
X134145000Y-101965000D03*
D16*
X134145000Y-104505000D03*
X134145000Y-107045000D03*
X134145000Y-109585000D03*
%TD*%
D13*
%TO.C,C3*%
X126633800Y-103595000D03*
D14*
X129133800Y-103595000D03*
%TD*%
D20*
%TO.C,D2*%
X167105000Y-91145000D03*
D12*
X182345000Y-91145000D03*
%TD*%
D21*
%TO.C,C1*%
X156413800Y-93545000D03*
D19*
X161413800Y-93545000D03*
%TD*%
D22*
%TO.C,D1*%
X188265000Y-99805000D03*
D23*
X188265000Y-89645000D03*
%TD*%
D24*
%TO.C,J1*%
X144575000Y-94005000D03*
D25*
X149575000Y-94005000D03*
%TD*%
D15*
%TO.C,J3*%
X138775000Y-101965000D03*
D16*
X138775000Y-104505000D03*
X138775000Y-107045000D03*
%TD*%
D10*
%TO.C,LED1*%
X176995000Y-103975000D03*
D11*
X179535000Y-103975000D03*
%TD*%
D24*
%TO.C,J2*%
X127485000Y-94005000D03*
D25*
X132485000Y-94005000D03*
X137485000Y-94005000D03*
%TD*%
D26*
%TO.C,Csn*%
X132690000Y-89275000D03*
X130790000Y-89275000D03*
%TD*%
D27*
%TO.C,R8*%
X135882500Y-97300000D03*
X134057500Y-97300000D03*
%TD*%
D28*
%TO.C,R4*%
X140780000Y-93937500D03*
X140780000Y-92112500D03*
%TD*%
D29*
%TO.C,F1*%
X128070000Y-89425000D03*
X125270000Y-89425000D03*
%TD*%
D26*
%TO.C,C5*%
X141670000Y-89275000D03*
X139770000Y-89275000D03*
%TD*%
D30*
%TO.C,D3*%
X157420000Y-97340000D03*
X153420000Y-97340000D03*
%TD*%
D27*
%TO.C,R1*%
X150592500Y-89245000D03*
X148767500Y-89245000D03*
%TD*%
D31*
%TO.C,Q1*%
X162877500Y-96340000D03*
X162877500Y-98240000D03*
X161002500Y-97290000D03*
%TD*%
D27*
%TO.C,Rsn*%
X145412500Y-97300000D03*
X143587500Y-97300000D03*
%TD*%
D26*
%TO.C,C4*%
X137180000Y-89275000D03*
X135280000Y-89275000D03*
%TD*%
D28*
%TO.C,R5*%
X140780000Y-98387500D03*
X140780000Y-96562500D03*
%TD*%
D27*
%TO.C,R7*%
X131432500Y-97300000D03*
X129607500Y-97300000D03*
%TD*%
%TO.C,R6*%
X126982500Y-97300000D03*
X125157500Y-97300000D03*
%TD*%
%TO.C,R2*%
X155042500Y-89245000D03*
X153217500Y-89245000D03*
%TD*%
D32*
%TO.C,U1*%
X168275000Y-134645000D03*
X167005000Y-134645000D03*
X165735000Y-134645000D03*
X164465000Y-134645000D03*
X163195000Y-134645000D03*
X161925000Y-134645000D03*
X160655000Y-134645000D03*
X159385000Y-134645000D03*
X158115000Y-134645000D03*
X156845000Y-134645000D03*
X155575000Y-134645000D03*
X154305000Y-134645000D03*
X153035000Y-134645000D03*
X151765000Y-134645000D03*
D33*
X150515000Y-131610000D03*
X150515000Y-130340000D03*
X150515000Y-129070000D03*
X150515000Y-127800000D03*
X150515000Y-126530000D03*
X150515000Y-125260000D03*
X150515000Y-123990000D03*
X150515000Y-122720000D03*
X150515000Y-121450000D03*
X150515000Y-120180000D03*
D32*
X151765000Y-117145000D03*
X153035000Y-117145000D03*
X154305000Y-117145000D03*
X155575000Y-117145000D03*
X156845000Y-117145000D03*
X158115000Y-117145000D03*
X159385000Y-117145000D03*
X160655000Y-117145000D03*
X161925000Y-117145000D03*
X163195000Y-117145000D03*
X164465000Y-117145000D03*
X165735000Y-117145000D03*
X167005000Y-117145000D03*
X168275000Y-117145000D03*
D34*
X159155000Y-128795000D03*
D35*
X159855000Y-128795000D03*
D34*
X160555000Y-128795000D03*
D35*
X161255000Y-128795000D03*
D34*
X161955000Y-128795000D03*
D35*
X159155000Y-128095000D03*
X160555000Y-128095000D03*
X161955000Y-128095000D03*
D34*
X159155000Y-127395000D03*
D35*
X159855000Y-127395000D03*
D34*
X160555000Y-127395000D03*
D35*
X161255000Y-127395000D03*
D34*
X161955000Y-127395000D03*
D35*
X159155000Y-126695000D03*
X160555000Y-126695000D03*
X161955000Y-126695000D03*
D34*
X159155000Y-125995000D03*
D35*
X159855000Y-125995000D03*
D34*
X160555000Y-125995000D03*
D35*
X161255000Y-125995000D03*
D34*
X161955000Y-125995000D03*
%TD*%
D27*
%TO.C,R3*%
X159492500Y-89245000D03*
X157667500Y-89245000D03*
%TD*%
D26*
%TO.C,C6*%
X146160000Y-89275000D03*
X144260000Y-89275000D03*
%TD*%
M02*
