%TF.GenerationSoftware,KiCad,Pcbnew,10.0.5*%
%TF.CreationDate,2026-07-29T13:10:57-07:00*%
%TF.ProjectId,cv-lock,63762d6c-6f63-46b2-9e6b-696361645f70,rev?*%
%TF.SameCoordinates,Original*%
%TF.FileFunction,Copper,L2,Bot*%
%TF.FilePolarity,Positive*%
%FSLAX46Y46*%
G04 Gerber Fmt 4.6, Leading zero omitted, Abs format (unit mm)*
G04 Created by KiCad (PCBNEW 10.0.5) date 2026-07-29 13:10:57*
%MOMM*%
%LPD*%
G01*
G04 APERTURE LIST*
G04 Aperture macros list*
%AMRoundRect*
0 Rectangle with rounded corners*
0 $1 Rounding radius*
0 $2 $3 $4 $5 $6 $7 $8 $9 X,Y pos of 4 corners*
0 Add a 4 corners polygon primitive as box body*
4,1,4,$2,$3,$4,$5,$6,$7,$8,$9,$2,$3,0*
0 Add four circle primitives for the rounded corners*
1,1,$1+$1,$2,$3*
1,1,$1+$1,$4,$5*
1,1,$1+$1,$6,$7*
1,1,$1+$1,$8,$9*
0 Add four rect primitives between the rounded corners*
20,1,$1+$1,$2,$3,$4,$5,0*
20,1,$1+$1,$4,$5,$6,$7,0*
20,1,$1+$1,$6,$7,$8,$9,0*
20,1,$1+$1,$8,$9,$2,$3,0*%
G04 Aperture macros list end*
%TA.AperFunction,ComponentPad*%
%ADD10RoundRect,0.249999X0.850001X-0.850001X0.850001X0.850001X-0.850001X0.850001X-0.850001X-0.850001X0*%
%TD*%
%TA.AperFunction,ComponentPad*%
%ADD11C,2.200000*%
%TD*%
%TA.AperFunction,ComponentPad*%
%ADD12C,3.000000*%
%TD*%
%TA.AperFunction,ComponentPad*%
%ADD13C,2.500000*%
%TD*%
%TA.AperFunction,ComponentPad*%
%ADD14R,1.700000X1.700000*%
%TD*%
%TA.AperFunction,ComponentPad*%
%ADD15C,1.700000*%
%TD*%
%TA.AperFunction,ComponentPad*%
%ADD16RoundRect,0.250000X0.550000X-0.550000X0.550000X0.550000X-0.550000X0.550000X-0.550000X-0.550000X0*%
%TD*%
%TA.AperFunction,ComponentPad*%
%ADD17C,1.600000*%
%TD*%
%TA.AperFunction,ComponentPad*%
%ADD18RoundRect,0.250000X-1.050000X-1.050000X1.050000X-1.050000X1.050000X1.050000X-1.050000X1.050000X0*%
%TD*%
%TA.AperFunction,ComponentPad*%
%ADD19C,2.600000*%
%TD*%
%TA.AperFunction,HeatsinkPad*%
%ADD20C,0.600000*%
%TD*%
%TA.AperFunction,ComponentPad*%
%ADD21R,1.800000X1.800000*%
%TD*%
%TA.AperFunction,ComponentPad*%
%ADD22C,1.800000*%
%TD*%
%TA.AperFunction,ComponentPad*%
%ADD23RoundRect,0.250000X-0.550000X-0.550000X0.550000X-0.550000X0.550000X0.550000X-0.550000X0.550000X0*%
%TD*%
%TA.AperFunction,ComponentPad*%
%ADD24C,2.000000*%
%TD*%
%TA.AperFunction,ComponentPad*%
%ADD25RoundRect,0.250000X1.350000X-1.350000X1.350000X1.350000X-1.350000X1.350000X-1.350000X-1.350000X0*%
%TD*%
%TA.AperFunction,ComponentPad*%
%ADD26C,3.200000*%
%TD*%
%TA.AperFunction,ComponentPad*%
%ADD27RoundRect,0.250000X-0.750000X-0.750000X0.750000X-0.750000X0.750000X0.750000X-0.750000X0.750000X0*%
%TD*%
%TA.AperFunction,SMDPad,CuDef*%
%ADD28RoundRect,0.250000X0.475000X-0.250000X0.475000X0.250000X-0.475000X0.250000X-0.475000X-0.250000X0*%
%TD*%
%TA.AperFunction,SMDPad,CuDef*%
%ADD29RoundRect,0.250000X1.000000X0.650000X-1.000000X0.650000X-1.000000X-0.650000X1.000000X-0.650000X0*%
%TD*%
%TA.AperFunction,SMDPad,CuDef*%
%ADD30RoundRect,0.250000X0.262500X0.450000X-0.262500X0.450000X-0.262500X-0.450000X0.262500X-0.450000X0*%
%TD*%
%TA.AperFunction,SMDPad,CuDef*%
%ADD31RoundRect,0.250000X0.450000X-0.262500X0.450000X0.262500X-0.450000X0.262500X-0.450000X-0.262500X0*%
%TD*%
%TA.AperFunction,SMDPad,CuDef*%
%ADD32RoundRect,0.250000X0.250000X0.475000X-0.250000X0.475000X-0.250000X-0.475000X0.250000X-0.475000X0*%
%TD*%
%TA.AperFunction,SMDPad,CuDef*%
%ADD33RoundRect,0.250000X0.375000X0.625000X-0.375000X0.625000X-0.375000X-0.625000X0.375000X-0.625000X0*%
%TD*%
%TA.AperFunction,SMDPad,CuDef*%
%ADD34RoundRect,0.375000X0.375000X-0.625000X0.375000X0.625000X-0.375000X0.625000X-0.375000X-0.625000X0*%
%TD*%
%TA.AperFunction,SMDPad,CuDef*%
%ADD35RoundRect,0.500000X1.400000X-0.500000X1.400000X0.500000X-1.400000X0.500000X-1.400000X-0.500000X0*%
%TD*%
%TA.AperFunction,SMDPad,CuDef*%
%ADD36RoundRect,0.150000X0.150000X-0.587500X0.150000X0.587500X-0.150000X0.587500X-0.150000X-0.587500X0*%
%TD*%
%TA.AperFunction,ViaPad*%
%ADD37C,0.600000*%
%TD*%
%TA.AperFunction,ViaPad*%
%ADD38C,0.800000*%
%TD*%
%TA.AperFunction,Conductor*%
%ADD39C,0.800000*%
%TD*%
%TA.AperFunction,Conductor*%
%ADD40C,0.250000*%
%TD*%
G04 APERTURE END LIST*
D10*
%TO.P,D1,1*%
%TO.N,+5V*%
X168865000Y-131495000D03*
D11*
%TO.P,D1,2*%
%TO.N,LOCK_RELAY_COIL*%
X168865000Y-121335000D03*
%TD*%
D12*
%TO.P,K1,1*%
%TO.N,+5V*%
X139845000Y-96245000D03*
D13*
%TO.P,K1,2*%
X141795000Y-102295000D03*
D12*
%TO.P,K1,3*%
%TO.N,LOCK_RELAY_SW*%
X153995000Y-102295000D03*
%TO.P,K1,4*%
%TO.N,N$K1.4*%
X154045000Y-90245000D03*
D13*
%TO.P,K1,5*%
%TO.N,LOCK_RELAY_COIL*%
X141795000Y-90295000D03*
%TD*%
D14*
%TO.P,J3,1*%
%TO.N,+5V*%
X158445000Y-122455000D03*
D15*
%TO.P,J3,2*%
%TO.N,GND*%
X158445000Y-124995000D03*
%TO.P,J3,3*%
X158445000Y-127535000D03*
%TD*%
D16*
%TO.P,PC1,1*%
%TO.N,LOCK_RELAY_OPT*%
X173095000Y-108865000D03*
D17*
%TO.P,PC1,2*%
%TO.N,GND*%
X175635000Y-108865000D03*
%TO.P,PC1,3*%
%TO.N,LOCK_RELAY_DRV*%
X175635000Y-101245000D03*
%TO.P,PC1,4*%
%TO.N,+5V*%
X173095000Y-101245000D03*
%TD*%
D14*
%TO.P,U3,1*%
%TO.N,N$U3.1*%
X173325000Y-121755000D03*
D15*
%TO.P,U3,2*%
%TO.N,N$U3.2*%
X173325000Y-124295000D03*
%TO.P,U3,3*%
%TO.N,N$U3.3*%
X173325000Y-126835000D03*
%TO.P,U3,4*%
%TO.N,N$U3.4*%
X173325000Y-129375000D03*
%TD*%
D18*
%TO.P,J1,1*%
%TO.N,+5V*%
X162485000Y-105905000D03*
D19*
%TO.P,J1,2*%
%TO.N,GND*%
X167485000Y-105905000D03*
%TD*%
D20*
%TO.P,U1,39*%
%TO.N,GND*%
X117350000Y-109490000D03*
X117350000Y-110890000D03*
X118050000Y-108790000D03*
X118050000Y-110190000D03*
X118050000Y-111590000D03*
X118750000Y-109490000D03*
X118750000Y-110890000D03*
X119450000Y-108790000D03*
X119450000Y-110190000D03*
X119450000Y-111590000D03*
X120150000Y-109490000D03*
X120150000Y-110890000D03*
%TD*%
D18*
%TO.P,J2,1*%
%TO.N,+5V*%
X162485000Y-94005000D03*
D19*
%TO.P,J2,2*%
%TO.N,LOCK_RELAY_SW*%
X167485000Y-94005000D03*
%TO.P,J2,3*%
%TO.N,GND*%
X172485000Y-94005000D03*
%TD*%
D21*
%TO.P,LED1,1*%
%TO.N,GND*%
X146435000Y-128455000D03*
D22*
%TO.P,LED1,2*%
%TO.N,LED_PIN_A*%
X146435000Y-125915000D03*
%TD*%
D14*
%TO.P,JP,1*%
%TO.N,UART_TX*%
X163075000Y-122455000D03*
D15*
%TO.P,JP,2*%
%TO.N,UART_RX*%
X163075000Y-124995000D03*
%TO.P,JP,3*%
%TO.N,GND*%
X163075000Y-127535000D03*
%TD*%
D23*
%TO.P,C3,1*%
%TO.N,+5V*%
X140443800Y-120275000D03*
D17*
%TO.P,C3,2*%
%TO.N,GND*%
X142943800Y-120275000D03*
%TD*%
D23*
%TO.P,C2,1*%
%TO.N,+3V3*%
X169413800Y-115495000D03*
D17*
%TO.P,C2,2*%
%TO.N,GND*%
X171913800Y-115495000D03*
%TD*%
D24*
%TO.P,SW1,1*%
%TO.N,BTN_PIN*%
X158175000Y-113595000D03*
X164675000Y-113595000D03*
%TO.P,SW1,2*%
%TO.N,GND*%
X158175000Y-118095000D03*
X164675000Y-118095000D03*
%TD*%
D25*
%TO.P,D2,1*%
%TO.N,N$D2.1*%
X152735000Y-122375000D03*
D26*
%TO.P,D2,2*%
%TO.N,N$D2.2*%
X152735000Y-107135000D03*
%TD*%
D27*
%TO.P,C1,1*%
%TO.N,+5V*%
X141043800Y-110535000D03*
D24*
%TO.P,C1,2*%
%TO.N,GND*%
X146043800Y-110535000D03*
%TD*%
D21*
%TO.P,LED0,1*%
%TO.N,N$LED0.1*%
X139445000Y-126975000D03*
D22*
%TO.P,LED0,2*%
%TO.N,N$LED0.2*%
X141985000Y-126975000D03*
%TD*%
D28*
%TO.P,C5,1*%
%TO.N,+3V3*%
X175810000Y-90945000D03*
%TO.P,C5,2*%
%TO.N,GND*%
X175810000Y-89045000D03*
%TD*%
D29*
%TO.P,D3,1*%
%TO.N,N$D3.1*%
X164890000Y-98100000D03*
%TO.P,D3,2*%
%TO.N,N$D3.2*%
X160890000Y-98100000D03*
%TD*%
D30*
%TO.P,R8,1*%
%TO.N,N$R8.1*%
X162422500Y-109200000D03*
%TO.P,R8,2*%
%TO.N,N$R8.2*%
X160597500Y-109200000D03*
%TD*%
%TO.P,R7,1*%
%TO.N,N$R7.1*%
X157972500Y-108780000D03*
%TO.P,R7,2*%
%TO.N,N$R7.2*%
X156147500Y-108780000D03*
%TD*%
%TO.P,R2,1*%
%TO.N,LED_PIN*%
X161982500Y-101890000D03*
%TO.P,R2,2*%
%TO.N,LED_PIN_A*%
X160157500Y-101890000D03*
%TD*%
%TO.P,R1,1*%
%TO.N,LOCK_RELAY*%
X174562500Y-98225000D03*
%TO.P,R1,2*%
%TO.N,LOCK_RELAY_OPT*%
X172737500Y-98225000D03*
%TD*%
D31*
%TO.P,R5,1*%
%TO.N,N$R5.1*%
X148145000Y-107432500D03*
%TO.P,R5,2*%
%TO.N,N$R5.2*%
X148145000Y-105607500D03*
%TD*%
D32*
%TO.P,C4,1*%
%TO.N,+3V3*%
X172180000Y-89275000D03*
%TO.P,C4,2*%
%TO.N,GND*%
X170280000Y-89275000D03*
%TD*%
D33*
%TO.P,F1,1*%
%TO.N,N$F1.1*%
X163070000Y-89425000D03*
%TO.P,F1,2*%
%TO.N,N$F1.2*%
X160270000Y-89425000D03*
%TD*%
D34*
%TO.P,U2,1*%
%TO.N,GND*%
X154280000Y-132570000D03*
%TO.P,U2,2*%
%TO.N,+3V3*%
X151980000Y-132570000D03*
D35*
X151980000Y-126270000D03*
D34*
%TO.P,U2,3*%
%TO.N,+5V*%
X149680000Y-132570000D03*
%TD*%
D32*
%TO.P,Csn,1*%
%TO.N,+3V3*%
X167690000Y-89275000D03*
%TO.P,Csn,2*%
%TO.N,GND*%
X165790000Y-89275000D03*
%TD*%
D36*
%TO.P,Q1,1*%
%TO.N,LOCK_RELAY_DRV*%
X170130000Y-99217500D03*
%TO.P,Q1,2*%
%TO.N,GND*%
X168230000Y-99217500D03*
%TO.P,Q1,3*%
%TO.N,LOCK_RELAY_COIL*%
X169180000Y-97342500D03*
%TD*%
D30*
%TO.P,Rsn,1*%
%TO.N,N$Rsn.1*%
X166872500Y-109200000D03*
%TO.P,Rsn,2*%
%TO.N,N$Rsn.2*%
X165047500Y-109200000D03*
%TD*%
D28*
%TO.P,C6,1*%
%TO.N,+3V3*%
X175810000Y-95435000D03*
%TO.P,C6,2*%
%TO.N,GND*%
X175810000Y-93535000D03*
%TD*%
D30*
%TO.P,R3,1*%
%TO.N,+3V3*%
X140887500Y-105790000D03*
%TO.P,R3,2*%
%TO.N,EN*%
X139062500Y-105790000D03*
%TD*%
%TO.P,R4,1*%
%TO.N,N$R4.1*%
X145337500Y-105790000D03*
%TO.P,R4,2*%
%TO.N,N$R4.2*%
X143512500Y-105790000D03*
%TD*%
%TO.P,R6,1*%
%TO.N,N$R6.1*%
X157972500Y-105790000D03*
%TO.P,R6,2*%
%TO.N,N$R6.2*%
X156147500Y-105790000D03*
%TD*%
D37*
%TO.N,LOCK_RELAY_COIL*%
X170174200Y-97659400D03*
D38*
%TO.N,GND*%
X131750000Y-86250000D03*
X152750000Y-138750000D03*
X142250000Y-114250000D03*
X143961000Y-139100000D03*
X114250000Y-110750000D03*
X131750000Y-114250000D03*
X173750000Y-86250000D03*
X110750000Y-93250000D03*
X152750000Y-135250000D03*
X131750000Y-110750000D03*
X103750000Y-128250000D03*
X149250000Y-117750000D03*
X135250000Y-131750000D03*
X177250000Y-110750000D03*
X156250000Y-128250000D03*
X170280000Y-91400000D03*
X166750000Y-135250000D03*
X114250000Y-114250000D03*
X114250000Y-138750000D03*
X146435000Y-130755000D03*
X138750000Y-124750000D03*
X145750000Y-135250000D03*
X131750000Y-138750000D03*
X124750000Y-117750000D03*
X114250000Y-86250000D03*
X103750000Y-107250000D03*
X156250000Y-86250000D03*
X138750000Y-110750000D03*
X149250000Y-121250000D03*
X131750000Y-103750000D03*
X103750000Y-93250000D03*
X145750000Y-138750000D03*
X121250000Y-107250000D03*
X103750000Y-103750000D03*
X114250000Y-103750000D03*
X149250000Y-96750000D03*
X148444000Y-110535000D03*
X103750000Y-124750000D03*
X149250000Y-100250000D03*
X160824408Y-123660504D03*
X128250000Y-135250000D03*
X121250000Y-103750000D03*
X135250000Y-96750000D03*
X156250000Y-93250000D03*
X135250000Y-121250000D03*
X152750000Y-93250000D03*
X128250000Y-86250000D03*
X103750000Y-100250000D03*
X163250000Y-131750000D03*
X107250000Y-100250000D03*
X110750000Y-128250000D03*
X117750000Y-124750000D03*
X131750000Y-135250000D03*
X124750000Y-93250000D03*
X107250000Y-86250000D03*
X166750000Y-128250000D03*
X124750000Y-110750000D03*
X145750000Y-114250000D03*
X159750000Y-135250000D03*
X142250000Y-124750000D03*
X114250000Y-117750000D03*
X177935000Y-93535000D03*
X114250000Y-93250000D03*
X149250000Y-93250000D03*
X117750000Y-93250000D03*
X156250000Y-131750000D03*
X114250000Y-107250000D03*
X110750000Y-131750000D03*
X107250000Y-103750000D03*
X177250000Y-82750000D03*
X114250000Y-89750000D03*
X145750000Y-103750000D03*
X163250000Y-138750000D03*
X138750000Y-117750000D03*
X149250000Y-114250000D03*
X152750000Y-82750000D03*
X159750000Y-107250000D03*
X107250000Y-107250000D03*
X145750000Y-117750000D03*
X138750000Y-103750000D03*
X170250000Y-107250000D03*
X103750000Y-135250000D03*
X177250000Y-121250000D03*
X121250000Y-131750000D03*
X165790000Y-91400000D03*
X128250000Y-121250000D03*
X131750000Y-89750000D03*
X166750000Y-100250000D03*
X156250000Y-138750000D03*
X128250000Y-124750000D03*
X103750000Y-121250000D03*
X107250000Y-89750000D03*
X107250000Y-124750000D03*
X167075000Y-118095000D03*
X107250000Y-131750000D03*
X121250000Y-93250000D03*
X103750000Y-117750000D03*
X177250000Y-107250000D03*
X128250000Y-138750000D03*
X170250000Y-103750000D03*
X149250000Y-110750000D03*
X107250000Y-135250000D03*
X145750000Y-121250000D03*
X121250000Y-124750000D03*
X159750000Y-138750000D03*
X135250000Y-128250000D03*
X107250000Y-93250000D03*
X107250000Y-117750000D03*
X107250000Y-82750000D03*
X156250000Y-96750000D03*
X117750000Y-89750000D03*
X163250000Y-135250000D03*
X159750000Y-131750000D03*
X121250000Y-135250000D03*
X173750000Y-82750000D03*
X135250000Y-100250000D03*
X117750000Y-114250000D03*
X156250000Y-110750000D03*
X117750000Y-103750000D03*
X152750000Y-117750000D03*
X131750000Y-131750000D03*
X107250000Y-121250000D03*
X124750000Y-124750000D03*
X131750000Y-93250000D03*
X138750000Y-89750000D03*
X135250000Y-107250000D03*
X124750000Y-82750000D03*
X124750000Y-135250000D03*
X103750000Y-110750000D03*
X117750000Y-86250000D03*
X145750000Y-93250000D03*
X159750000Y-82750000D03*
X121250000Y-89750000D03*
X110750000Y-86250000D03*
X114250000Y-82750000D03*
X145750000Y-86250000D03*
X173750000Y-138750000D03*
X124750000Y-86250000D03*
X128250000Y-93250000D03*
X138750000Y-82750000D03*
X114250000Y-124750000D03*
X156250000Y-100250000D03*
X117750000Y-107250000D03*
X149250000Y-89750000D03*
X156250000Y-121250000D03*
X103750000Y-89750000D03*
X131150000Y-102470000D03*
X142250000Y-135250000D03*
X138750000Y-100250000D03*
X177250000Y-114250000D03*
X121250000Y-86250000D03*
X128250000Y-82750000D03*
X152750000Y-114250000D03*
X135250000Y-117750000D03*
X135250000Y-135250000D03*
X175810000Y-87420000D03*
X152750000Y-110750000D03*
X165325000Y-127535000D03*
X121250000Y-138750000D03*
X114250000Y-128250000D03*
X117750000Y-82750000D03*
X131750000Y-117750000D03*
X107250000Y-128250000D03*
X173750000Y-131750000D03*
X170250000Y-128250000D03*
X173750000Y-103750000D03*
X124750000Y-89750000D03*
X163250000Y-82750000D03*
X170250000Y-135250000D03*
X170250000Y-86250000D03*
X124750000Y-103750000D03*
X156250000Y-82750000D03*
X110750000Y-121250000D03*
X128250000Y-128250000D03*
X117750000Y-117750000D03*
X149250000Y-135250000D03*
X121250000Y-128250000D03*
X177250000Y-131750000D03*
X156250000Y-135250000D03*
X142250000Y-131750000D03*
X159750000Y-93250000D03*
X172485000Y-91305000D03*
X121250000Y-114250000D03*
X135250000Y-124750000D03*
X121250000Y-110750000D03*
X114250000Y-135250000D03*
X131750000Y-128250000D03*
X166750000Y-82750000D03*
X152750000Y-96750000D03*
X124750000Y-107250000D03*
X149250000Y-82750000D03*
X135250000Y-82750000D03*
X103750000Y-138750000D03*
X177250000Y-128250000D03*
X145144000Y-120275000D03*
X167485000Y-103205000D03*
X107250000Y-96750000D03*
X107250000Y-114250000D03*
X135250000Y-103750000D03*
X156250000Y-124750000D03*
X138750000Y-131750000D03*
X142250000Y-82750000D03*
X149250000Y-128250000D03*
X173750000Y-114250000D03*
X135250000Y-89750000D03*
X110750000Y-138750000D03*
X121250000Y-117750000D03*
X145750000Y-89750000D03*
X128250000Y-131750000D03*
X170250000Y-82750000D03*
X149250000Y-103750000D03*
X124750000Y-128250000D03*
X135250000Y-86250000D03*
X117750000Y-128250000D03*
X177250000Y-117750000D03*
X110750000Y-89750000D03*
X131750000Y-100250000D03*
X173750000Y-117750000D03*
X142250000Y-117750000D03*
X131750000Y-121250000D03*
X131750000Y-82750000D03*
X135250000Y-93250000D03*
X177250000Y-124750000D03*
X170250000Y-110750000D03*
X117750000Y-135250000D03*
X107250000Y-138750000D03*
X177250000Y-86250000D03*
X145750000Y-96750000D03*
X177250000Y-103750000D03*
X170250000Y-117750000D03*
X138750000Y-86250000D03*
X170250000Y-138750000D03*
X110750000Y-135250000D03*
X128250000Y-89750000D03*
X149250000Y-138750000D03*
X124750000Y-114250000D03*
X138750000Y-135250000D03*
X109350000Y-102470000D03*
X166750000Y-86250000D03*
X149250000Y-86250000D03*
X142250000Y-86250000D03*
X131750000Y-96750000D03*
X117750000Y-131750000D03*
X124750000Y-138750000D03*
X107250000Y-110750000D03*
X131750000Y-107250000D03*
X163250000Y-100250000D03*
X159750000Y-86250000D03*
X124750000Y-131750000D03*
X166750000Y-138750000D03*
X160575000Y-118095000D03*
X103750000Y-131750000D03*
X145750000Y-100250000D03*
X103750000Y-114250000D03*
X138750000Y-114250000D03*
X114250000Y-131750000D03*
X103750000Y-96750000D03*
X135250000Y-110750000D03*
X138750000Y-93250000D03*
X110750000Y-124750000D03*
X117750000Y-138750000D03*
X163250000Y-86250000D03*
X170250000Y-124750000D03*
X135250000Y-114250000D03*
X166750000Y-124750000D03*
X131750000Y-124750000D03*
X177250000Y-135250000D03*
X121250000Y-82750000D03*
X170185000Y-105905000D03*
X145750000Y-131750000D03*
X142250000Y-93250000D03*
X152750000Y-86250000D03*
X145750000Y-82750000D03*
X173750000Y-135250000D03*
D37*
%TO.N,LOCK_RELAY_DRV*%
X171217500Y-97430400D03*
D38*
%TO.N,+3V3*%
X150092800Y-134298600D03*
X109808400Y-108657400D03*
D37*
%TO.N,EN*%
X114462900Y-105095100D03*
%TO.N,LOCK_RELAY*%
X108170500Y-98676100D03*
%TO.N,LED_PIN*%
X125975100Y-104052800D03*
%TO.N,UART_RX*%
X127525100Y-107837400D03*
%TO.N,UART_TX*%
X143691800Y-118256800D03*
%TO.N,LED_PIN_A*%
X160487800Y-103924900D03*
%TD*%
%TO.N,+5V*%
D39*
X148140400Y-135723900D02*
X148801900Y-136385400D01*
X155139100Y-104501700D02*
X155331600Y-104309200D01*
X163974600Y-136385400D02*
X168865000Y-131495000D01*
X148801900Y-136385400D02*
X163974600Y-136385400D01*
X155331600Y-104309200D02*
X159097800Y-104309200D01*
X151605800Y-104501700D02*
X155139100Y-104501700D01*
X159097800Y-104309200D02*
X160693600Y-105905000D01*
X141795000Y-102295000D02*
X149399100Y-102295000D01*
X149399100Y-102295000D02*
X151605800Y-104501700D01*
X148140400Y-134109600D02*
X148140400Y-135723900D01*
X140443800Y-111135000D02*
X140443800Y-120275000D01*
X141043800Y-110535000D02*
X140443800Y-111135000D01*
X160693600Y-105905000D02*
X162485000Y-105905000D01*
X149680000Y-132570000D02*
X148140400Y-134109600D01*
%TO.N,LOCK_RELAY_COIL*%
D40*
X143994200Y-90295000D02*
X149478300Y-95779100D01*
X169496900Y-97659400D02*
X169180000Y-97342500D01*
X149478300Y-95779100D02*
X167616600Y-95779100D01*
X170174200Y-97659400D02*
X169496900Y-97659400D01*
X141795000Y-90295000D02*
X143994200Y-90295000D01*
X167616600Y-95779100D02*
X169180000Y-97342500D01*
%TO.N,LOCK_RELAY_OPT*%
X171826600Y-99135900D02*
X171826600Y-107596600D01*
X172737500Y-98225000D02*
X171826600Y-99135900D01*
X171826600Y-107596600D02*
X173095000Y-108865000D01*
%TO.N,LOCK_RELAY_DRV*%
X170130000Y-98617800D02*
X170130000Y-99217500D01*
X171217500Y-97430400D02*
X171217500Y-97530300D01*
X171217500Y-97530300D02*
X170130000Y-98617800D01*
%TO.N,+3V3*%
D39*
X172180000Y-89275000D02*
X173850000Y-90945000D01*
X151980000Y-128907700D02*
X151980000Y-132570000D01*
X152456200Y-129383900D02*
X167245500Y-129383900D01*
X145125100Y-107209600D02*
X146946000Y-109030500D01*
X138329600Y-107209600D02*
X140887500Y-107209600D01*
X172180000Y-89003600D02*
X172180000Y-89275000D01*
X169077300Y-88405500D02*
X169635500Y-87847300D01*
X146946000Y-109030500D02*
X149100900Y-109030500D01*
X176248000Y-95873000D02*
X175810000Y-95435000D01*
X140887500Y-105790000D02*
X140887500Y-107209600D01*
X177078100Y-112500000D02*
X178407300Y-111170800D01*
X149100900Y-109030500D02*
X155565400Y-115495000D01*
X169596000Y-93953400D02*
X169596000Y-92274000D01*
X151980000Y-128907700D02*
X152456200Y-129383900D01*
X169413800Y-115495000D02*
X172408800Y-112500000D01*
X170924500Y-87847300D02*
X172180000Y-89102800D01*
X173850000Y-90945000D02*
X175810000Y-90945000D01*
X171401500Y-121226500D02*
X169109000Y-118934000D01*
X171711300Y-96068700D02*
X169596000Y-93953400D01*
X151980000Y-126270000D02*
X151980000Y-128907700D01*
X151980000Y-132844300D02*
X151980000Y-132570000D01*
X169109000Y-118934000D02*
X169109000Y-115495000D01*
X169125100Y-87839900D02*
X171016300Y-87839900D01*
X169077300Y-91755300D02*
X169077300Y-88405500D01*
X167690000Y-89275000D02*
X169125100Y-87839900D01*
X171401500Y-125227900D02*
X171401500Y-121226500D01*
X169596000Y-92274000D02*
X169077300Y-91755300D01*
X137268300Y-106148300D02*
X138329600Y-107209600D01*
X172408800Y-112500000D02*
X177078100Y-112500000D01*
X176248000Y-95873000D02*
X176052300Y-96068700D01*
X169109000Y-115495000D02*
X169413800Y-115495000D01*
X112317500Y-106148300D02*
X137268300Y-106148300D01*
X167245500Y-129383900D02*
X171401500Y-125227900D01*
X150092800Y-134298600D02*
X150525700Y-134298600D01*
X178407300Y-98423700D02*
X176052300Y-96068700D01*
X176052300Y-96068700D02*
X171711300Y-96068700D01*
X155565400Y-115495000D02*
X169109000Y-115495000D01*
X178407300Y-111170800D02*
X178407300Y-98423700D01*
X140887500Y-107209600D02*
X145125100Y-107209600D01*
X150525700Y-134298600D02*
X151980000Y-132844300D01*
X171016300Y-87839900D02*
X172180000Y-89003600D01*
X109808400Y-108657400D02*
X112317500Y-106148300D01*
%TO.N,EN*%
D40*
X114462900Y-105095100D02*
X138367600Y-105095100D01*
X138367600Y-105095100D02*
X139062500Y-105790000D01*
%TO.N,LOCK_RELAY*%
X108170500Y-97124600D02*
X110981300Y-94313800D01*
X148267000Y-97576700D02*
X156592500Y-97576700D01*
X162209100Y-96852300D02*
X162890000Y-97533200D01*
X108170500Y-98676100D02*
X108170500Y-97124600D01*
X173523700Y-97186200D02*
X174562500Y-98225000D01*
X162890000Y-98632300D02*
X165358900Y-101101200D01*
X171357400Y-99451800D02*
X171357400Y-98176800D01*
X110981300Y-94313800D02*
X145004100Y-94313800D01*
X172228300Y-97186200D02*
X173523700Y-97186200D01*
X171844200Y-97690000D02*
X171844200Y-97570300D01*
X171844200Y-97570300D02*
X172228300Y-97186200D01*
X156592500Y-97576700D02*
X157316900Y-96852300D01*
X165358900Y-101101200D02*
X169708000Y-101101200D01*
X162890000Y-97533200D02*
X162890000Y-98632300D01*
X157316900Y-96852300D02*
X162209100Y-96852300D01*
X145004100Y-94313800D02*
X148267000Y-97576700D01*
X171357400Y-98176800D02*
X171844200Y-97690000D01*
X169708000Y-101101200D02*
X171357400Y-99451800D01*
%TO.N,LED_PIN*%
X139994300Y-101200700D02*
X131234600Y-101200700D01*
X160942500Y-100850000D02*
X157104000Y-100850000D01*
X157104000Y-100850000D02*
X156838800Y-101115200D01*
X141824600Y-99370400D02*
X139994300Y-101200700D01*
X155524100Y-101115200D02*
X153779300Y-99370400D01*
X131234600Y-101200700D02*
X128382500Y-104052800D01*
X161982500Y-101890000D02*
X160942500Y-100850000D01*
X153779300Y-99370400D02*
X141824600Y-99370400D01*
X156838800Y-101115200D02*
X155524100Y-101115200D01*
X128382500Y-104052800D02*
X125975100Y-104052800D01*
%TO.N,BTN_PIN*%
X164675000Y-113595000D02*
X158175000Y-113595000D01*
%TO.N,UART_RX*%
X153355900Y-119876900D02*
X142479000Y-109000000D01*
X162678400Y-119876900D02*
X153355900Y-119876900D01*
X142479000Y-109000000D02*
X128687700Y-109000000D01*
X164288600Y-123781400D02*
X164288600Y-121487100D01*
X163075000Y-124995000D02*
X164288600Y-123781400D01*
X128687700Y-109000000D02*
X127525100Y-107837400D01*
X164288600Y-121487100D02*
X162678400Y-119876900D01*
%TO.N,UART_TX*%
X149142300Y-118576700D02*
X150930900Y-120365300D01*
X150930900Y-120365300D02*
X159808600Y-120365300D01*
X144011700Y-118576700D02*
X149142300Y-118576700D01*
X143691800Y-118256800D02*
X144011700Y-118576700D01*
X159808600Y-120365300D02*
X161898300Y-122455000D01*
X163075000Y-122455000D02*
X161898300Y-122455000D01*
%TO.N,LED_PIN_A*%
X160487800Y-102220300D02*
X160487800Y-103924900D01*
X160157500Y-101890000D02*
X160487800Y-102220300D01*
%TD*%
%TA.AperFunction,Conductor*%
%TO.N,GND*%
G36*
X179016943Y-81019685D02*
G01*
X179026377Y-81026389D01*
X179151573Y-81124474D01*
X179162781Y-81134404D01*
X179365596Y-81337219D01*
X179375525Y-81348426D01*
X179473611Y-81473623D01*
X179499460Y-81538532D01*
X179500000Y-81550094D01*
X179500000Y-98085200D01*
X179480315Y-98152239D01*
X179427511Y-98197994D01*
X179358353Y-98207938D01*
X179294797Y-98178913D01*
X179261439Y-98132653D01*
X179228109Y-98052188D01*
X179205311Y-97997149D01*
X179127377Y-97880514D01*
X179106762Y-97849661D01*
X177184819Y-95927718D01*
X177151334Y-95866395D01*
X177148500Y-95840037D01*
X177148500Y-95784308D01*
X177148499Y-95784304D01*
X177113896Y-95610341D01*
X177113895Y-95610334D01*
X177108226Y-95596648D01*
X177102873Y-95583724D01*
X177044938Y-95443857D01*
X177035499Y-95396404D01*
X177035499Y-95134998D01*
X177035498Y-95134981D01*
X177024999Y-95032203D01*
X177024998Y-95032200D01*
X177006249Y-94975619D01*
X176969814Y-94865666D01*
X176877712Y-94716344D01*
X176753656Y-94592288D01*
X176750342Y-94590243D01*
X176748546Y-94588248D01*
X176747989Y-94587807D01*
X176748064Y-94587711D01*
X176703618Y-94538297D01*
X176692397Y-94469334D01*
X176720240Y-94405252D01*
X176750348Y-94379165D01*
X176753342Y-94377318D01*
X176877315Y-94253345D01*
X176969356Y-94104124D01*
X176969358Y-94104119D01*
X177024505Y-93937697D01*
X177024506Y-93937690D01*
X177034999Y-93834986D01*
X177035000Y-93834973D01*
X177035000Y-93785000D01*
X174585001Y-93785000D01*
X174585001Y-93834986D01*
X174595494Y-93937697D01*
X174650641Y-94104119D01*
X174650643Y-94104124D01*
X174742684Y-94253345D01*
X174866655Y-94377316D01*
X174866659Y-94377319D01*
X174869656Y-94379168D01*
X174871279Y-94380972D01*
X174872323Y-94381798D01*
X174872181Y-94381976D01*
X174916381Y-94431116D01*
X174927602Y-94500079D01*
X174899759Y-94564161D01*
X174869661Y-94590241D01*
X174866349Y-94592283D01*
X174866343Y-94592288D01*
X174742289Y-94716342D01*
X174650187Y-94865663D01*
X174650185Y-94865668D01*
X174639028Y-94899339D01*
X174596874Y-95026553D01*
X174595001Y-95032204D01*
X174595000Y-95032205D01*
X174592488Y-95056802D01*
X174566092Y-95121494D01*
X174508912Y-95161645D01*
X174469130Y-95168200D01*
X174106661Y-95168200D01*
X174039622Y-95148515D01*
X173993867Y-95095711D01*
X173983923Y-95026553D01*
X173999274Y-94982199D01*
X174102834Y-94802828D01*
X174102839Y-94802819D01*
X174193129Y-94584837D01*
X174254200Y-94356914D01*
X174284999Y-94122985D01*
X174285000Y-94122971D01*
X174285000Y-93887028D01*
X174284999Y-93887014D01*
X174254200Y-93653085D01*
X174193130Y-93425165D01*
X174132718Y-93279317D01*
X174132717Y-93279315D01*
X174114367Y-93235013D01*
X174585000Y-93235013D01*
X174585000Y-93285000D01*
X175560000Y-93285000D01*
X176060000Y-93285000D01*
X177034999Y-93285000D01*
X177034999Y-93235028D01*
X177034998Y-93235013D01*
X177024505Y-93132302D01*
X176969358Y-92965880D01*
X176969356Y-92965875D01*
X176877315Y-92816654D01*
X176753345Y-92692684D01*
X176604124Y-92600643D01*
X176604119Y-92600641D01*
X176437697Y-92545494D01*
X176437690Y-92545493D01*
X176334986Y-92535000D01*
X176060000Y-92535000D01*
X176060000Y-93285000D01*
X175560000Y-93285000D01*
X175560000Y-92535000D01*
X175285029Y-92535000D01*
X175285012Y-92535001D01*
X175182302Y-92545494D01*
X175015880Y-92600641D01*
X175015875Y-92600643D01*
X174866654Y-92692684D01*
X174742684Y-92816654D01*
X174650643Y-92965875D01*
X174650641Y-92965880D01*
X174595494Y-93132302D01*
X174595493Y-93132309D01*
X174585000Y-93235013D01*
X174114367Y-93235013D01*
X174102839Y-93207180D01*
X174102834Y-93207171D01*
X173984855Y-93002828D01*
X173984854Y-93002827D01*
X173922277Y-92921275D01*
X173086041Y-93757510D01*
X173061022Y-93697110D01*
X172989888Y-93590649D01*
X172899351Y-93500112D01*
X172792890Y-93428978D01*
X172732488Y-93403958D01*
X173568723Y-92567721D01*
X173487172Y-92505145D01*
X173487171Y-92505144D01*
X173282828Y-92387165D01*
X173282819Y-92387160D01*
X173064836Y-92296870D01*
X173064838Y-92296870D01*
X172836914Y-92235799D01*
X172602985Y-92205000D01*
X172367014Y-92205000D01*
X172133085Y-92235799D01*
X171905162Y-92296870D01*
X171687180Y-92387160D01*
X171687171Y-92387165D01*
X171482828Y-92505144D01*
X171482818Y-92505150D01*
X171401275Y-92567720D01*
X171401275Y-92567721D01*
X172237512Y-93403958D01*
X172177110Y-93428978D01*
X172070649Y-93500112D01*
X171980112Y-93590649D01*
X171908978Y-93697110D01*
X171883958Y-93757512D01*
X171047721Y-92921275D01*
X171047720Y-92921275D01*
X170985150Y-93002818D01*
X170985144Y-93002828D01*
X170867165Y-93207171D01*
X170867160Y-93207180D01*
X170776871Y-93425160D01*
X170740403Y-93561260D01*
X170704038Y-93620920D01*
X170641190Y-93651449D01*
X170571815Y-93643154D01*
X170532947Y-93616847D01*
X170532819Y-93616719D01*
X170499334Y-93555396D01*
X170496500Y-93529038D01*
X170496500Y-92185309D01*
X170496499Y-92185303D01*
X170495812Y-92181850D01*
X170495809Y-92181834D01*
X170468691Y-92045500D01*
X170461895Y-92011334D01*
X170396339Y-91853071D01*
X170394695Y-91848474D01*
X170369585Y-91810895D01*
X170295464Y-91699965D01*
X170170035Y-91574536D01*
X170014117Y-91418617D01*
X169980634Y-91357296D01*
X169977800Y-91330938D01*
X169977800Y-90603561D01*
X169997485Y-90536522D01*
X170014119Y-90515880D01*
X170030000Y-90499999D01*
X170030000Y-89399000D01*
X170049685Y-89331961D01*
X170102489Y-89286206D01*
X170154000Y-89275000D01*
X170406000Y-89275000D01*
X170473039Y-89294685D01*
X170518794Y-89347489D01*
X170530000Y-89399000D01*
X170530000Y-90499999D01*
X170579972Y-90499999D01*
X170579986Y-90499998D01*
X170682697Y-90489505D01*
X170849119Y-90434358D01*
X170849124Y-90434356D01*
X170998345Y-90342315D01*
X171122318Y-90218342D01*
X171124165Y-90215348D01*
X171125969Y-90213724D01*
X171126798Y-90212677D01*
X171126976Y-90212818D01*
X171176110Y-90168621D01*
X171245073Y-90157396D01*
X171309156Y-90185236D01*
X171335243Y-90215341D01*
X171337288Y-90218656D01*
X171461344Y-90342712D01*
X171610666Y-90434814D01*
X171777203Y-90489999D01*
X171879991Y-90500500D01*
X172080636Y-90500499D01*
X172147676Y-90520183D01*
X172168318Y-90536818D01*
X173150536Y-91519035D01*
X173245412Y-91613911D01*
X173275966Y-91644465D01*
X173349208Y-91693404D01*
X173423453Y-91743013D01*
X173423454Y-91743013D01*
X173423455Y-91743014D01*
X173471452Y-91762895D01*
X173587334Y-91810895D01*
X173753728Y-91843992D01*
X173761304Y-91845499D01*
X173761308Y-91845500D01*
X173761309Y-91845500D01*
X173938692Y-91845500D01*
X174924868Y-91845500D01*
X174989963Y-91863960D01*
X175015666Y-91879814D01*
X175182203Y-91934999D01*
X175284991Y-91945500D01*
X176335008Y-91945499D01*
X176335016Y-91945498D01*
X176335019Y-91945498D01*
X176391302Y-91939748D01*
X176437797Y-91934999D01*
X176604334Y-91879814D01*
X176753656Y-91787712D01*
X176877712Y-91663656D01*
X176969814Y-91514334D01*
X177024999Y-91347797D01*
X177035500Y-91245009D01*
X177035499Y-90644992D01*
X177034592Y-90636116D01*
X177024999Y-90542203D01*
X177024998Y-90542200D01*
X177011180Y-90500500D01*
X176969814Y-90375666D01*
X176877712Y-90226344D01*
X176753656Y-90102288D01*
X176750342Y-90100243D01*
X176748546Y-90098248D01*
X176747989Y-90097807D01*
X176748064Y-90097711D01*
X176703618Y-90048297D01*
X176692397Y-89979334D01*
X176720240Y-89915252D01*
X176750348Y-89889165D01*
X176753342Y-89887318D01*
X176877315Y-89763345D01*
X176969356Y-89614124D01*
X176969358Y-89614119D01*
X177024505Y-89447697D01*
X177024506Y-89447690D01*
X177034999Y-89344986D01*
X177035000Y-89344973D01*
X177035000Y-89295000D01*
X174585001Y-89295000D01*
X174585001Y-89344986D01*
X174595494Y-89447697D01*
X174650641Y-89614119D01*
X174650643Y-89614124D01*
X174742684Y-89763345D01*
X174812158Y-89832819D01*
X174845643Y-89894142D01*
X174840659Y-89963834D01*
X174798787Y-90019767D01*
X174733323Y-90044184D01*
X174724477Y-90044500D01*
X174274361Y-90044500D01*
X174207322Y-90024815D01*
X174186680Y-90008181D01*
X173216818Y-89038318D01*
X173202148Y-89011453D01*
X173185564Y-88985716D01*
X173184654Y-88979414D01*
X173183333Y-88976995D01*
X173180499Y-88950787D01*
X173180499Y-88749992D01*
X173179990Y-88745013D01*
X174585000Y-88745013D01*
X174585000Y-88795000D01*
X175560000Y-88795000D01*
X176060000Y-88795000D01*
X177034999Y-88795000D01*
X177034999Y-88745028D01*
X177034998Y-88745013D01*
X177024505Y-88642302D01*
X176969358Y-88475880D01*
X176969356Y-88475875D01*
X176877315Y-88326654D01*
X176753345Y-88202684D01*
X176604124Y-88110643D01*
X176604119Y-88110641D01*
X176437697Y-88055494D01*
X176437690Y-88055493D01*
X176334986Y-88045000D01*
X176060000Y-88045000D01*
X176060000Y-88795000D01*
X175560000Y-88795000D01*
X175560000Y-88045000D01*
X175285029Y-88045000D01*
X175285012Y-88045001D01*
X175182302Y-88055494D01*
X175015880Y-88110641D01*
X175015875Y-88110643D01*
X174866654Y-88202684D01*
X174742684Y-88326654D01*
X174650643Y-88475875D01*
X174650641Y-88475880D01*
X174595494Y-88642302D01*
X174595493Y-88642309D01*
X174585000Y-88745013D01*
X173179990Y-88745013D01*
X173169999Y-88647203D01*
X173114814Y-88480666D01*
X173022712Y-88331344D01*
X172898656Y-88207288D01*
X172749334Y-88115186D01*
X172735618Y-88110641D01*
X172582798Y-88060001D01*
X172582791Y-88060000D01*
X172545488Y-88056189D01*
X172480797Y-88029792D01*
X172470411Y-88020512D01*
X171590341Y-87140440D01*
X171590340Y-87140439D01*
X171590336Y-87140436D01*
X171531259Y-87100963D01*
X171531258Y-87100961D01*
X171442844Y-87041885D01*
X171442842Y-87041884D01*
X171360907Y-87007946D01*
X171360906Y-87007946D01*
X171278966Y-86974005D01*
X171278958Y-86974003D01*
X171104996Y-86939400D01*
X171104992Y-86939400D01*
X171104991Y-86939400D01*
X169213792Y-86939400D01*
X169036408Y-86939400D01*
X169036403Y-86939400D01*
X168862441Y-86974003D01*
X168862433Y-86974005D01*
X168698555Y-87041885D01*
X168698546Y-87041890D01*
X168551064Y-87140435D01*
X168551060Y-87140438D01*
X167678317Y-88013181D01*
X167616994Y-88046666D01*
X167590637Y-88049500D01*
X167389999Y-88049500D01*
X167389980Y-88049501D01*
X167287203Y-88060000D01*
X167287200Y-88060001D01*
X167120668Y-88115185D01*
X167120663Y-88115187D01*
X166971342Y-88207289D01*
X166847288Y-88331343D01*
X166847283Y-88331349D01*
X166845241Y-88334661D01*
X166843247Y-88336453D01*
X166842807Y-88337011D01*
X166842711Y-88336935D01*
X166793291Y-88381383D01*
X166724328Y-88392602D01*
X166660247Y-88364755D01*
X166634168Y-88334656D01*
X166632319Y-88331659D01*
X166632316Y-88331655D01*
X166508345Y-88207684D01*
X166359124Y-88115643D01*
X166359119Y-88115641D01*
X166192697Y-88060494D01*
X166192690Y-88060493D01*
X166089986Y-88050000D01*
X166040000Y-88050000D01*
X166040000Y-90499999D01*
X166089972Y-90499999D01*
X166089986Y-90499998D01*
X166192697Y-90489505D01*
X166359119Y-90434358D01*
X166359124Y-90434356D01*
X166508345Y-90342315D01*
X166632318Y-90218342D01*
X166634165Y-90215348D01*
X166635969Y-90213724D01*
X166636798Y-90212677D01*
X166636976Y-90212818D01*
X166686110Y-90168621D01*
X166755073Y-90157396D01*
X166819156Y-90185236D01*
X166845243Y-90215341D01*
X166847288Y-90218656D01*
X166971344Y-90342712D01*
X167120666Y-90434814D01*
X167287203Y-90489999D01*
X167389991Y-90500500D01*
X167990008Y-90500499D01*
X168040198Y-90495372D01*
X168108891Y-90508142D01*
X168159776Y-90556022D01*
X168176800Y-90618730D01*
X168176800Y-91843996D01*
X168211403Y-92017958D01*
X168211405Y-92017966D01*
X168245346Y-92099906D01*
X168266381Y-92150689D01*
X168273850Y-92220159D01*
X168242575Y-92282638D01*
X168182486Y-92318290D01*
X168112661Y-92315796D01*
X168104375Y-92312706D01*
X168064993Y-92296394D01*
X167837014Y-92235307D01*
X167837013Y-92235306D01*
X167837010Y-92235306D01*
X167603020Y-92204501D01*
X167603017Y-92204500D01*
X167603011Y-92204500D01*
X167366989Y-92204500D01*
X167366983Y-92204500D01*
X167366979Y-92204501D01*
X167132989Y-92235306D01*
X166905006Y-92296394D01*
X166686954Y-92386714D01*
X166686943Y-92386719D01*
X166482545Y-92504730D01*
X166295302Y-92648406D01*
X166295295Y-92648412D01*
X166128412Y-92815295D01*
X166128406Y-92815302D01*
X165984730Y-93002545D01*
X165984727Y-93002549D01*
X165984727Y-93002550D01*
X165977014Y-93015909D01*
X165866719Y-93206943D01*
X165866714Y-93206954D01*
X165776394Y-93425006D01*
X165715306Y-93652989D01*
X165684501Y-93886979D01*
X165684500Y-93886995D01*
X165684500Y-94123004D01*
X165684501Y-94123020D01*
X165715293Y-94356914D01*
X165715307Y-94357014D01*
X165720748Y-94377319D01*
X165776394Y-94584993D01*
X165866714Y-94803045D01*
X165866719Y-94803056D01*
X165961719Y-94967600D01*
X165978192Y-95035500D01*
X165955339Y-95101527D01*
X165900418Y-95144718D01*
X165854332Y-95153600D01*
X164409500Y-95153600D01*
X164342461Y-95133915D01*
X164296706Y-95081111D01*
X164285500Y-95029600D01*
X164285499Y-92904998D01*
X164285498Y-92904981D01*
X164274999Y-92802203D01*
X164274998Y-92802200D01*
X164219814Y-92635666D01*
X164127712Y-92486344D01*
X164003656Y-92362288D01*
X163854334Y-92270186D01*
X163687797Y-92215001D01*
X163687795Y-92215000D01*
X163585010Y-92204500D01*
X161384998Y-92204500D01*
X161384981Y-92204501D01*
X161282203Y-92215000D01*
X161282200Y-92215001D01*
X161115668Y-92270185D01*
X161115663Y-92270187D01*
X160966342Y-92362289D01*
X160842289Y-92486342D01*
X160750187Y-92635663D01*
X160750185Y-92635668D01*
X160745962Y-92648412D01*
X160695001Y-92802203D01*
X160695001Y-92802204D01*
X160695000Y-92802204D01*
X160684500Y-92904983D01*
X160684500Y-92904996D01*
X160684501Y-95029600D01*
X160664816Y-95096639D01*
X160612013Y-95142394D01*
X160560501Y-95153600D01*
X149788753Y-95153600D01*
X149721714Y-95133915D01*
X149701072Y-95117281D01*
X147253000Y-92669209D01*
X144697662Y-90113872D01*
X152044500Y-90113872D01*
X152044500Y-90376127D01*
X152065618Y-90536522D01*
X152078730Y-90636116D01*
X152138421Y-90858887D01*
X152146602Y-90889418D01*
X152146605Y-90889428D01*
X152246953Y-91131690D01*
X152246958Y-91131700D01*
X152378075Y-91358803D01*
X152537718Y-91566851D01*
X152537726Y-91566860D01*
X152723140Y-91752274D01*
X152723148Y-91752281D01*
X152931196Y-91911924D01*
X153158299Y-92043041D01*
X153158309Y-92043046D01*
X153400571Y-92143394D01*
X153400581Y-92143398D01*
X153653884Y-92211270D01*
X153913880Y-92245500D01*
X153913887Y-92245500D01*
X154176113Y-92245500D01*
X154176120Y-92245500D01*
X154436116Y-92211270D01*
X154689419Y-92143398D01*
X154866340Y-92070114D01*
X154931690Y-92043046D01*
X154931691Y-92043045D01*
X154931697Y-92043043D01*
X155158803Y-91911924D01*
X155366851Y-91752282D01*
X155366855Y-91752277D01*
X155366860Y-91752274D01*
X155552274Y-91566860D01*
X155552277Y-91566855D01*
X155552282Y-91566851D01*
X155711924Y-91358803D01*
X155843043Y-91131697D01*
X155943398Y-90889419D01*
X156011270Y-90636116D01*
X156045500Y-90376120D01*
X156045500Y-90113880D01*
X156011270Y-89853884D01*
X155943398Y-89600581D01*
X155940238Y-89592952D01*
X155843046Y-89358309D01*
X155843041Y-89358299D01*
X155711924Y-89131196D01*
X155589424Y-88971554D01*
X155552282Y-88923149D01*
X155552281Y-88923148D01*
X155552274Y-88923140D01*
X155379117Y-88749983D01*
X159144500Y-88749983D01*
X159144500Y-90100001D01*
X159144501Y-90100018D01*
X159155000Y-90202796D01*
X159155001Y-90202799D01*
X159210185Y-90369331D01*
X159210187Y-90369336D01*
X159214376Y-90376127D01*
X159302288Y-90518656D01*
X159426344Y-90642712D01*
X159575666Y-90734814D01*
X159742203Y-90789999D01*
X159844991Y-90800500D01*
X160695008Y-90800499D01*
X160695016Y-90800498D01*
X160695019Y-90800498D01*
X160751302Y-90794748D01*
X160797797Y-90789999D01*
X160964334Y-90734814D01*
X161113656Y-90642712D01*
X161237712Y-90518656D01*
X161329814Y-90369334D01*
X161384999Y-90202797D01*
X161395500Y-90100009D01*
X161395499Y-88749992D01*
X161395498Y-88749983D01*
X161944500Y-88749983D01*
X161944500Y-90100001D01*
X161944501Y-90100018D01*
X161955000Y-90202796D01*
X161955001Y-90202799D01*
X162010185Y-90369331D01*
X162010187Y-90369336D01*
X162014376Y-90376127D01*
X162102288Y-90518656D01*
X162226344Y-90642712D01*
X162375666Y-90734814D01*
X162542203Y-90789999D01*
X162644991Y-90800500D01*
X163495008Y-90800499D01*
X163495016Y-90800498D01*
X163495019Y-90800498D01*
X163551302Y-90794748D01*
X163597797Y-90789999D01*
X163764334Y-90734814D01*
X163913656Y-90642712D01*
X164037712Y-90518656D01*
X164129814Y-90369334D01*
X164184999Y-90202797D01*
X164195500Y-90100009D01*
X164195500Y-89799986D01*
X164790001Y-89799986D01*
X164800494Y-89902697D01*
X164855641Y-90069119D01*
X164855643Y-90069124D01*
X164947684Y-90218345D01*
X165071654Y-90342315D01*
X165220875Y-90434356D01*
X165220880Y-90434358D01*
X165387302Y-90489505D01*
X165387309Y-90489506D01*
X165490019Y-90499999D01*
X165539999Y-90499998D01*
X165540000Y-90499998D01*
X165540000Y-89525000D01*
X164790001Y-89525000D01*
X164790001Y-89799986D01*
X164195500Y-89799986D01*
X164195499Y-89399000D01*
X164195499Y-88750013D01*
X164790000Y-88750013D01*
X164790000Y-89025000D01*
X165540000Y-89025000D01*
X165540000Y-88050000D01*
X165539999Y-88049999D01*
X165490029Y-88050000D01*
X165490011Y-88050001D01*
X165387302Y-88060494D01*
X165220880Y-88115641D01*
X165220875Y-88115643D01*
X165071654Y-88207684D01*
X164947684Y-88331654D01*
X164855643Y-88480875D01*
X164855641Y-88480880D01*
X164800494Y-88647302D01*
X164800493Y-88647309D01*
X164790000Y-88750013D01*
X164195499Y-88750013D01*
X164195499Y-88749998D01*
X164195498Y-88749981D01*
X164184999Y-88647203D01*
X164184998Y-88647200D01*
X164180572Y-88633842D01*
X164129814Y-88480666D01*
X164037712Y-88331344D01*
X163913656Y-88207288D01*
X163764334Y-88115186D01*
X163597797Y-88060001D01*
X163597795Y-88060000D01*
X163495010Y-88049500D01*
X162644998Y-88049500D01*
X162644980Y-88049501D01*
X162542203Y-88060000D01*
X162542200Y-88060001D01*
X162375668Y-88115185D01*
X162375663Y-88115187D01*
X162226342Y-88207289D01*
X162102289Y-88331342D01*
X162010187Y-88480663D01*
X162010185Y-88480668D01*
X162010115Y-88480880D01*
X161955001Y-88647203D01*
X161955001Y-88647204D01*
X161955000Y-88647204D01*
X161944500Y-88749983D01*
X161395498Y-88749983D01*
X161394990Y-88745013D01*
X161384999Y-88647203D01*
X161384998Y-88647200D01*
X161380572Y-88633842D01*
X161329814Y-88480666D01*
X161237712Y-88331344D01*
X161113656Y-88207288D01*
X160964334Y-88115186D01*
X160797797Y-88060001D01*
X160797795Y-88060000D01*
X160695010Y-88049500D01*
X159844998Y-88049500D01*
X159844980Y-88049501D01*
X159742203Y-88060000D01*
X159742200Y-88060001D01*
X159575668Y-88115185D01*
X159575663Y-88115187D01*
X159426342Y-88207289D01*
X159302289Y-88331342D01*
X159210187Y-88480663D01*
X159210185Y-88480668D01*
X159210115Y-88480880D01*
X159155001Y-88647203D01*
X159155001Y-88647204D01*
X159155000Y-88647204D01*
X159144500Y-88749983D01*
X155379117Y-88749983D01*
X155366860Y-88737726D01*
X155366851Y-88737718D01*
X155158803Y-88578075D01*
X154931700Y-88446958D01*
X154931690Y-88446953D01*
X154689428Y-88346605D01*
X154689421Y-88346603D01*
X154689419Y-88346602D01*
X154436116Y-88278730D01*
X154378339Y-88271123D01*
X154176127Y-88244500D01*
X154176120Y-88244500D01*
X153913880Y-88244500D01*
X153913872Y-88244500D01*
X153682772Y-88274926D01*
X153653884Y-88278730D01*
X153445164Y-88334656D01*
X153400581Y-88346602D01*
X153400571Y-88346605D01*
X153158309Y-88446953D01*
X153158299Y-88446958D01*
X152931196Y-88578075D01*
X152723148Y-88737718D01*
X152537718Y-88923148D01*
X152378075Y-89131196D01*
X152246958Y-89358299D01*
X152246953Y-89358309D01*
X152146605Y-89600571D01*
X152146602Y-89600581D01*
X152084375Y-89832819D01*
X152078730Y-89853885D01*
X152044500Y-90113872D01*
X144697662Y-90113872D01*
X144487127Y-89903337D01*
X144487125Y-89903334D01*
X144487125Y-89903335D01*
X144480058Y-89896268D01*
X144480058Y-89896267D01*
X144392933Y-89809142D01*
X144392932Y-89809141D01*
X144392931Y-89809140D01*
X144341709Y-89774915D01*
X144290487Y-89740689D01*
X144290486Y-89740688D01*
X144290483Y-89740686D01*
X144290480Y-89740685D01*
X144209992Y-89707347D01*
X144176654Y-89693538D01*
X144176655Y-89693538D01*
X144176652Y-89693537D01*
X144176648Y-89693536D01*
X144176644Y-89693535D01*
X144092697Y-89676836D01*
X144092688Y-89676836D01*
X144055807Y-89669500D01*
X144055806Y-89669500D01*
X143513491Y-89669500D01*
X143446452Y-89649815D01*
X143400697Y-89597011D01*
X143398930Y-89592952D01*
X143368349Y-89519123D01*
X143368346Y-89519117D01*
X143368344Y-89519112D01*
X143253611Y-89320388D01*
X143253608Y-89320385D01*
X143253607Y-89320382D01*
X143113918Y-89138338D01*
X143113911Y-89138330D01*
X142951670Y-88976089D01*
X142951661Y-88976081D01*
X142769617Y-88836392D01*
X142570890Y-88721657D01*
X142570876Y-88721650D01*
X142358887Y-88633842D01*
X142137238Y-88574452D01*
X142099215Y-88569446D01*
X141909741Y-88544500D01*
X141909734Y-88544500D01*
X141680266Y-88544500D01*
X141680258Y-88544500D01*
X141463715Y-88573009D01*
X141452762Y-88574452D01*
X141359076Y-88599554D01*
X141231112Y-88633842D01*
X141019123Y-88721650D01*
X141019109Y-88721657D01*
X140820382Y-88836392D01*
X140638338Y-88976081D01*
X140476081Y-89138338D01*
X140336392Y-89320382D01*
X140221657Y-89519109D01*
X140221650Y-89519123D01*
X140133842Y-89731112D01*
X140122105Y-89774915D01*
X140091988Y-89887318D01*
X140074453Y-89952759D01*
X140074451Y-89952770D01*
X140044500Y-90180258D01*
X140044500Y-90409741D01*
X140069446Y-90599215D01*
X140074452Y-90637238D01*
X140133842Y-90858887D01*
X140221650Y-91070876D01*
X140221656Y-91070888D01*
X140322184Y-91245009D01*
X140336392Y-91269617D01*
X140476081Y-91451661D01*
X140476089Y-91451670D01*
X140638330Y-91613911D01*
X140638338Y-91613918D01*
X140820382Y-91753607D01*
X140820385Y-91753608D01*
X140820388Y-91753611D01*
X141019112Y-91868344D01*
X141019117Y-91868346D01*
X141019123Y-91868349D01*
X141110480Y-91906190D01*
X141231113Y-91956158D01*
X141452762Y-92015548D01*
X141680266Y-92045500D01*
X141680273Y-92045500D01*
X141909727Y-92045500D01*
X141909734Y-92045500D01*
X142137238Y-92015548D01*
X142358887Y-91956158D01*
X142570888Y-91868344D01*
X142769612Y-91753611D01*
X142951661Y-91613919D01*
X142951665Y-91613914D01*
X142951670Y-91613911D01*
X143113911Y-91451670D01*
X143113914Y-91451665D01*
X143113919Y-91451661D01*
X143253611Y-91269612D01*
X143368344Y-91070888D01*
X143398930Y-90997048D01*
X143442771Y-90942644D01*
X143509065Y-90920579D01*
X143513491Y-90920500D01*
X143683748Y-90920500D01*
X143750787Y-90940185D01*
X143771429Y-90956819D01*
X149079563Y-96264955D01*
X149079567Y-96264958D01*
X149182010Y-96333409D01*
X149182011Y-96333409D01*
X149182015Y-96333412D01*
X149248696Y-96361031D01*
X149248698Y-96361033D01*
X149295843Y-96380561D01*
X149295848Y-96380563D01*
X149315897Y-96384551D01*
X149349496Y-96391234D01*
X149416692Y-96404601D01*
X149416694Y-96404601D01*
X149546021Y-96404601D01*
X149546041Y-96404600D01*
X156580647Y-96404600D01*
X156647686Y-96424285D01*
X156693441Y-96477089D01*
X156703385Y-96546247D01*
X156674360Y-96609803D01*
X156668328Y-96616281D01*
X156369729Y-96914881D01*
X156308406Y-96948366D01*
X156282048Y-96951200D01*
X148577453Y-96951200D01*
X148510414Y-96931515D01*
X148489772Y-96914881D01*
X145497028Y-93922138D01*
X145497025Y-93922134D01*
X145497025Y-93922135D01*
X145489958Y-93915068D01*
X145489958Y-93915067D01*
X145402833Y-93827942D01*
X145402832Y-93827941D01*
X145402831Y-93827940D01*
X145351609Y-93793715D01*
X145300387Y-93759489D01*
X145300386Y-93759488D01*
X145300383Y-93759486D01*
X145300380Y-93759485D01*
X145219892Y-93726147D01*
X145186553Y-93712337D01*
X145176527Y-93710343D01*
X145126129Y-93700318D01*
X145065710Y-93688300D01*
X145065707Y-93688300D01*
X145065706Y-93688300D01*
X111042906Y-93688300D01*
X110919693Y-93688300D01*
X110919688Y-93688300D01*
X110798855Y-93712335D01*
X110798847Y-93712337D01*
X110685016Y-93759487D01*
X110582565Y-93827942D01*
X110582562Y-93827945D01*
X107771769Y-96638740D01*
X107684641Y-96725867D01*
X107684638Y-96725870D01*
X107674510Y-96741031D01*
X107674506Y-96741037D01*
X107616188Y-96828314D01*
X107616186Y-96828317D01*
X107616185Y-96828319D01*
X107590878Y-96889418D01*
X107569038Y-96942143D01*
X107569035Y-96942153D01*
X107563655Y-96969198D01*
X107563656Y-96969199D01*
X107548339Y-97046210D01*
X107548338Y-97046216D01*
X107545000Y-97062994D01*
X107545000Y-98133750D01*
X107525315Y-98200789D01*
X107524126Y-98202603D01*
X107518336Y-98211270D01*
X107461109Y-98296915D01*
X107461102Y-98296928D01*
X107400764Y-98442598D01*
X107400761Y-98442610D01*
X107370000Y-98597253D01*
X107370000Y-98754946D01*
X107400761Y-98909589D01*
X107400764Y-98909601D01*
X107461102Y-99055272D01*
X107461109Y-99055285D01*
X107548710Y-99186388D01*
X107548713Y-99186392D01*
X107660207Y-99297886D01*
X107660211Y-99297889D01*
X107791314Y-99385490D01*
X107791327Y-99385497D01*
X107910386Y-99434812D01*
X107937003Y-99445837D01*
X108045910Y-99467500D01*
X108091653Y-99476599D01*
X108091656Y-99476600D01*
X108091658Y-99476600D01*
X108249344Y-99476600D01*
X108249345Y-99476599D01*
X108403997Y-99445837D01*
X108549679Y-99385494D01*
X108680789Y-99297889D01*
X108792289Y-99186389D01*
X108879894Y-99055279D01*
X108940237Y-98909597D01*
X108971000Y-98754942D01*
X108971000Y-98597258D01*
X108971000Y-98597255D01*
X108970999Y-98597253D01*
X108957125Y-98527504D01*
X108940237Y-98442603D01*
X108910084Y-98369806D01*
X108879897Y-98296928D01*
X108879896Y-98296927D01*
X108879894Y-98296921D01*
X108816897Y-98202639D01*
X108796020Y-98135963D01*
X108796000Y-98133750D01*
X108796000Y-97435052D01*
X108815685Y-97368013D01*
X108832319Y-97347371D01*
X111204072Y-94975619D01*
X111265395Y-94942134D01*
X111291753Y-94939300D01*
X138074310Y-94939300D01*
X138141349Y-94958985D01*
X138187104Y-95011789D01*
X138197048Y-95080947D01*
X138179312Y-95127224D01*
X138180105Y-95127682D01*
X138046958Y-95358299D01*
X138046953Y-95358309D01*
X137946605Y-95600571D01*
X137946602Y-95600581D01*
X137882441Y-95840037D01*
X137878730Y-95853885D01*
X137844500Y-96113872D01*
X137844500Y-96376127D01*
X137866898Y-96546247D01*
X137878730Y-96636116D01*
X137944546Y-96881746D01*
X137946602Y-96889418D01*
X137946605Y-96889428D01*
X138046953Y-97131690D01*
X138046958Y-97131700D01*
X138178075Y-97358803D01*
X138337718Y-97566851D01*
X138337726Y-97566860D01*
X138523140Y-97752274D01*
X138523148Y-97752281D01*
X138731196Y-97911924D01*
X138958299Y-98043041D01*
X138958309Y-98043046D01*
X139182631Y-98135963D01*
X139200581Y-98143398D01*
X139453884Y-98211270D01*
X139713880Y-98245500D01*
X139713887Y-98245500D01*
X139976113Y-98245500D01*
X139976120Y-98245500D01*
X140236116Y-98211270D01*
X140489419Y-98143398D01*
X140731697Y-98043043D01*
X140958803Y-97911924D01*
X141166851Y-97752282D01*
X141166855Y-97752277D01*
X141166860Y-97752274D01*
X141352274Y-97566860D01*
X141352277Y-97566855D01*
X141352282Y-97566851D01*
X141511924Y-97358803D01*
X141643043Y-97131697D01*
X141743398Y-96889419D01*
X141811270Y-96636116D01*
X141845500Y-96376120D01*
X141845500Y-96113880D01*
X141811270Y-95853884D01*
X141743398Y-95600581D01*
X141743394Y-95600571D01*
X141643046Y-95358309D01*
X141643041Y-95358299D01*
X141509895Y-95127682D01*
X141510983Y-95127053D01*
X141491710Y-95065528D01*
X141510187Y-94998145D01*
X141562161Y-94951449D01*
X141615690Y-94939300D01*
X144693648Y-94939300D01*
X144760687Y-94958985D01*
X144781328Y-94975618D01*
X147781141Y-97975432D01*
X147781142Y-97975433D01*
X147834425Y-98028716D01*
X147868266Y-98062557D01*
X147907442Y-98088734D01*
X147907441Y-98088734D01*
X147970711Y-98131009D01*
X147970714Y-98131011D01*
X148084548Y-98178163D01*
X148184248Y-98197994D01*
X148205388Y-98202199D01*
X148205392Y-98202200D01*
X148205393Y-98202200D01*
X156654107Y-98202200D01*
X156714529Y-98190181D01*
X156774952Y-98178163D01*
X156816305Y-98161034D01*
X156888786Y-98131012D01*
X156952059Y-98088733D01*
X156991233Y-98062558D01*
X157078358Y-97975433D01*
X157078359Y-97975431D01*
X157085425Y-97968365D01*
X157085427Y-97968361D01*
X157539671Y-97514119D01*
X157600994Y-97480634D01*
X157627352Y-97477800D01*
X159015500Y-97477800D01*
X159082539Y-97497485D01*
X159128294Y-97550289D01*
X159139500Y-97601800D01*
X159139500Y-98800001D01*
X159139501Y-98800018D01*
X159150000Y-98902796D01*
X159150001Y-98902799D01*
X159180332Y-98994331D01*
X159205186Y-99069334D01*
X159297288Y-99218656D01*
X159421344Y-99342712D01*
X159570666Y-99434814D01*
X159737203Y-99489999D01*
X159839991Y-99500500D01*
X161940008Y-99500499D01*
X162042797Y-99489999D01*
X162209334Y-99434814D01*
X162358656Y-99342712D01*
X162449558Y-99251810D01*
X162510881Y-99218325D01*
X162580573Y-99223309D01*
X162624920Y-99251810D01*
X164869916Y-101496806D01*
X164869945Y-101496837D01*
X164960163Y-101587055D01*
X164960168Y-101587059D01*
X165007725Y-101618835D01*
X165007727Y-101618838D01*
X165053713Y-101649563D01*
X165062615Y-101655512D01*
X165129296Y-101683131D01*
X165129298Y-101683133D01*
X165169540Y-101699801D01*
X165176448Y-101702663D01*
X165236871Y-101714681D01*
X165297293Y-101726700D01*
X169769607Y-101726700D01*
X169830029Y-101714681D01*
X169890452Y-101702663D01*
X169929335Y-101686557D01*
X170004286Y-101655512D01*
X170059172Y-101618837D01*
X170106733Y-101587058D01*
X170193858Y-101499933D01*
X170193859Y-101499931D01*
X170200925Y-101492865D01*
X170200927Y-101492861D01*
X170989420Y-100704369D01*
X171050742Y-100670885D01*
X171120434Y-100675869D01*
X171176367Y-100717741D01*
X171200784Y-100783205D01*
X171201100Y-100792051D01*
X171201100Y-107658206D01*
X171208418Y-107694998D01*
X171225136Y-107779050D01*
X171225137Y-107779051D01*
X171227036Y-107783635D01*
X171227038Y-107783642D01*
X171272285Y-107892881D01*
X171272287Y-107892884D01*
X171272288Y-107892886D01*
X171287895Y-107916242D01*
X171306514Y-107944107D01*
X171306515Y-107944109D01*
X171340740Y-107995331D01*
X171340741Y-107995332D01*
X171340742Y-107995333D01*
X171427867Y-108082458D01*
X171427868Y-108082458D01*
X171434935Y-108089525D01*
X171434934Y-108089525D01*
X171434938Y-108089528D01*
X171758181Y-108412771D01*
X171791666Y-108474094D01*
X171794500Y-108500452D01*
X171794500Y-109465001D01*
X171794501Y-109465019D01*
X171805000Y-109567796D01*
X171805001Y-109567799D01*
X171830645Y-109645185D01*
X171860186Y-109734334D01*
X171952288Y-109883656D01*
X172076344Y-110007712D01*
X172225666Y-110099814D01*
X172392203Y-110154999D01*
X172494991Y-110165500D01*
X173695008Y-110165499D01*
X173797797Y-110154999D01*
X173964334Y-110099814D01*
X174113656Y-110007712D01*
X174237712Y-109883656D01*
X174329814Y-109734334D01*
X174359698Y-109644149D01*
X174363225Y-109636858D01*
X174381458Y-109616732D01*
X174396919Y-109594401D01*
X174404572Y-109591219D01*
X174410136Y-109585078D01*
X174436356Y-109578004D01*
X174461435Y-109567578D01*
X174469592Y-109569038D01*
X174477594Y-109566880D01*
X174503478Y-109575106D01*
X174530211Y-109579893D01*
X174537222Y-109585830D01*
X174544182Y-109588042D01*
X174545943Y-109590168D01*
X174555524Y-109590922D01*
X175235000Y-108911446D01*
X175235000Y-108917661D01*
X175262259Y-109019394D01*
X175314920Y-109110606D01*
X175389394Y-109185080D01*
X175480606Y-109237741D01*
X175582339Y-109265000D01*
X175588553Y-109265000D01*
X174909076Y-109944474D01*
X174953650Y-109976859D01*
X175135968Y-110069755D01*
X175330582Y-110132990D01*
X175532683Y-110165000D01*
X175737317Y-110165000D01*
X175939417Y-110132990D01*
X176134031Y-110069755D01*
X176316349Y-109976859D01*
X176360921Y-109944474D01*
X175681447Y-109265000D01*
X175687661Y-109265000D01*
X175789394Y-109237741D01*
X175880606Y-109185080D01*
X175955080Y-109110606D01*
X176007741Y-109019394D01*
X176035000Y-108917661D01*
X176035000Y-108911448D01*
X176714474Y-109590922D01*
X176714474Y-109590921D01*
X176746859Y-109546349D01*
X176839755Y-109364031D01*
X176902990Y-109169417D01*
X176935000Y-108967317D01*
X176935000Y-108762682D01*
X176902990Y-108560582D01*
X176839755Y-108365968D01*
X176746859Y-108183650D01*
X176714474Y-108139077D01*
X176714474Y-108139076D01*
X176035000Y-108818551D01*
X176035000Y-108812339D01*
X176007741Y-108710606D01*
X175955080Y-108619394D01*
X175880606Y-108544920D01*
X175789394Y-108492259D01*
X175687661Y-108465000D01*
X175681446Y-108465000D01*
X176360922Y-107785524D01*
X176360921Y-107785523D01*
X176316359Y-107753147D01*
X176316350Y-107753141D01*
X176134031Y-107660244D01*
X175939417Y-107597009D01*
X175737317Y-107565000D01*
X175532683Y-107565000D01*
X175330582Y-107597009D01*
X175135968Y-107660244D01*
X174953644Y-107753143D01*
X174909077Y-107785523D01*
X174909077Y-107785524D01*
X175588554Y-108465000D01*
X175582339Y-108465000D01*
X175480606Y-108492259D01*
X175389394Y-108544920D01*
X175314920Y-108619394D01*
X175262259Y-108710606D01*
X175235000Y-108812339D01*
X175235000Y-108818553D01*
X174555524Y-108139077D01*
X174538345Y-108140429D01*
X174519840Y-108154699D01*
X174515786Y-108155047D01*
X174512410Y-108157324D01*
X174481261Y-108158012D01*
X174450227Y-108160678D01*
X174446626Y-108158778D01*
X174442557Y-108158868D01*
X174415985Y-108142610D01*
X174388432Y-108128072D01*
X174385434Y-108123918D01*
X174382958Y-108122403D01*
X174377124Y-108112402D01*
X174363225Y-108093140D01*
X174359696Y-108085844D01*
X174329814Y-107995666D01*
X174237712Y-107846344D01*
X174113656Y-107722288D01*
X173988653Y-107645186D01*
X173964336Y-107630187D01*
X173964331Y-107630185D01*
X173912859Y-107613129D01*
X173797797Y-107575001D01*
X173797795Y-107575000D01*
X173695016Y-107564500D01*
X173695009Y-107564500D01*
X172730453Y-107564500D01*
X172663414Y-107544815D01*
X172642772Y-107528181D01*
X172488419Y-107373828D01*
X172454934Y-107312505D01*
X172452100Y-107286147D01*
X172452100Y-102574206D01*
X172471785Y-102507167D01*
X172524589Y-102461412D01*
X172593747Y-102451468D01*
X172614409Y-102456272D01*
X172726820Y-102492797D01*
X172790465Y-102513477D01*
X172891557Y-102529488D01*
X172992648Y-102545500D01*
X172992649Y-102545500D01*
X173197351Y-102545500D01*
X173197352Y-102545500D01*
X173399534Y-102513477D01*
X173594219Y-102450220D01*
X173776610Y-102357287D01*
X173869590Y-102289732D01*
X173942213Y-102236971D01*
X173942215Y-102236968D01*
X173942219Y-102236966D01*
X174086966Y-102092219D01*
X174086968Y-102092215D01*
X174086971Y-102092213D01*
X174207284Y-101926614D01*
X174207285Y-101926613D01*
X174207287Y-101926610D01*
X174254516Y-101833917D01*
X174302489Y-101783123D01*
X174370310Y-101766328D01*
X174436445Y-101788865D01*
X174475483Y-101833917D01*
X174490057Y-101862519D01*
X174522715Y-101926614D01*
X174643028Y-102092213D01*
X174787786Y-102236971D01*
X174942749Y-102349556D01*
X174953390Y-102357287D01*
X175056323Y-102409734D01*
X175135776Y-102450218D01*
X175135778Y-102450218D01*
X175135781Y-102450220D01*
X175240137Y-102484127D01*
X175330465Y-102513477D01*
X175431557Y-102529488D01*
X175532648Y-102545500D01*
X175532649Y-102545500D01*
X175737351Y-102545500D01*
X175737352Y-102545500D01*
X175939534Y-102513477D01*
X176134219Y-102450220D01*
X176316610Y-102357287D01*
X176409590Y-102289732D01*
X176482213Y-102236971D01*
X176482215Y-102236968D01*
X176482219Y-102236966D01*
X176626966Y-102092219D01*
X176626968Y-102092215D01*
X176626971Y-102092213D01*
X176718388Y-101966386D01*
X176747287Y-101926610D01*
X176840220Y-101744219D01*
X176903477Y-101549534D01*
X176935500Y-101347352D01*
X176935500Y-101142648D01*
X176908654Y-100973149D01*
X176903477Y-100940465D01*
X176843276Y-100755186D01*
X176840220Y-100745781D01*
X176840218Y-100745778D01*
X176840218Y-100745776D01*
X176804598Y-100675869D01*
X176747287Y-100563390D01*
X176699021Y-100496957D01*
X176626971Y-100397786D01*
X176482213Y-100253028D01*
X176316613Y-100132715D01*
X176316612Y-100132714D01*
X176316610Y-100132713D01*
X176259653Y-100103691D01*
X176134223Y-100039781D01*
X175939534Y-99976522D01*
X175764995Y-99948878D01*
X175737352Y-99944500D01*
X175532648Y-99944500D01*
X175508329Y-99948351D01*
X175330465Y-99976522D01*
X175135776Y-100039781D01*
X174953386Y-100132715D01*
X174787786Y-100253028D01*
X174643028Y-100397786D01*
X174522715Y-100563386D01*
X174475485Y-100656080D01*
X174427510Y-100706876D01*
X174359689Y-100723671D01*
X174293554Y-100701134D01*
X174254515Y-100656080D01*
X174240246Y-100628076D01*
X174207287Y-100563390D01*
X174159021Y-100496957D01*
X174086971Y-100397786D01*
X173942213Y-100253028D01*
X173776613Y-100132715D01*
X173776612Y-100132714D01*
X173776610Y-100132713D01*
X173719653Y-100103691D01*
X173594223Y-100039781D01*
X173399534Y-99976522D01*
X173224995Y-99948878D01*
X173197352Y-99944500D01*
X172992648Y-99944500D01*
X172925254Y-99955174D01*
X172790464Y-99976523D01*
X172790461Y-99976523D01*
X172614418Y-100033724D01*
X172544577Y-100035719D01*
X172484744Y-99999639D01*
X172453916Y-99936938D01*
X172452100Y-99915793D01*
X172452100Y-99549499D01*
X172471785Y-99482460D01*
X172524589Y-99436705D01*
X172576100Y-99425499D01*
X173050002Y-99425499D01*
X173050008Y-99425499D01*
X173152797Y-99414999D01*
X173319334Y-99359814D01*
X173468656Y-99267712D01*
X173562319Y-99174049D01*
X173623642Y-99140564D01*
X173693334Y-99145548D01*
X173737681Y-99174049D01*
X173831344Y-99267712D01*
X173980666Y-99359814D01*
X174147203Y-99414999D01*
X174249991Y-99425500D01*
X174875008Y-99425499D01*
X174875016Y-99425498D01*
X174875019Y-99425498D01*
X174931302Y-99419748D01*
X174977797Y-99414999D01*
X175144334Y-99359814D01*
X175293656Y-99267712D01*
X175417712Y-99143656D01*
X175509814Y-98994334D01*
X175564999Y-98827797D01*
X175575500Y-98725009D01*
X175575499Y-97724992D01*
X175564999Y-97622203D01*
X175509814Y-97455666D01*
X175417712Y-97306344D01*
X175293656Y-97182288D01*
X175292249Y-97180881D01*
X175258764Y-97119558D01*
X175263748Y-97049866D01*
X175305620Y-96993933D01*
X175371084Y-96969516D01*
X175379930Y-96969200D01*
X175627938Y-96969200D01*
X175694977Y-96988885D01*
X175715619Y-97005519D01*
X177470481Y-98760381D01*
X177503966Y-98821704D01*
X177506800Y-98848062D01*
X177506800Y-110746438D01*
X177487115Y-110813477D01*
X177470481Y-110834119D01*
X176741419Y-111563181D01*
X176680096Y-111596666D01*
X176653738Y-111599500D01*
X172320104Y-111599500D01*
X172146139Y-111634103D01*
X172146123Y-111634108D01*
X172030253Y-111682102D01*
X172030254Y-111682103D01*
X171982254Y-111701986D01*
X171834765Y-111800535D01*
X171834761Y-111800538D01*
X169477117Y-114158181D01*
X169415794Y-114191666D01*
X169389436Y-114194500D01*
X168813798Y-114194500D01*
X168813780Y-114194501D01*
X168711003Y-114205000D01*
X168711000Y-114205001D01*
X168544468Y-114260185D01*
X168544463Y-114260187D01*
X168395142Y-114352289D01*
X168271089Y-114476342D01*
X168271088Y-114476344D01*
X168237083Y-114531476D01*
X168234541Y-114535597D01*
X168182593Y-114582321D01*
X168129002Y-114594500D01*
X166046905Y-114594500D01*
X165979866Y-114574815D01*
X165934111Y-114522011D01*
X165924167Y-114452853D01*
X165946586Y-114397615D01*
X165958343Y-114381433D01*
X166065568Y-114170992D01*
X166138553Y-113946368D01*
X166175500Y-113713097D01*
X166175500Y-113476902D01*
X166138553Y-113243631D01*
X166065566Y-113019003D01*
X165958342Y-112808566D01*
X165819517Y-112617490D01*
X165652510Y-112450483D01*
X165461433Y-112311657D01*
X165250996Y-112204433D01*
X165026368Y-112131446D01*
X164793097Y-112094500D01*
X164793092Y-112094500D01*
X164556908Y-112094500D01*
X164556903Y-112094500D01*
X164323631Y-112131446D01*
X164099003Y-112204433D01*
X163888566Y-112311657D01*
X163779550Y-112390862D01*
X163697490Y-112450483D01*
X163697488Y-112450485D01*
X163697487Y-112450485D01*
X163530485Y-112617487D01*
X163530485Y-112617488D01*
X163530483Y-112617490D01*
X163470862Y-112699550D01*
X163391657Y-112808566D01*
X163344155Y-112901795D01*
X163296180Y-112952591D01*
X163233670Y-112969500D01*
X159616330Y-112969500D01*
X159549291Y-112949815D01*
X159505845Y-112901795D01*
X159458342Y-112808566D01*
X159319517Y-112617490D01*
X159152510Y-112450483D01*
X158961433Y-112311657D01*
X158750996Y-112204433D01*
X158526368Y-112131446D01*
X158293097Y-112094500D01*
X158293092Y-112094500D01*
X158056908Y-112094500D01*
X158056903Y-112094500D01*
X157823631Y-112131446D01*
X157599003Y-112204433D01*
X157388566Y-112311657D01*
X157279550Y-112390862D01*
X157197490Y-112450483D01*
X157197488Y-112450485D01*
X157197487Y-112450485D01*
X157030485Y-112617487D01*
X157030485Y-112617488D01*
X157030483Y-112617490D01*
X156970862Y-112699550D01*
X156891657Y-112808566D01*
X156784433Y-113019003D01*
X156711446Y-113243631D01*
X156674500Y-113476902D01*
X156674500Y-113713097D01*
X156711446Y-113946368D01*
X156784433Y-114170996D01*
X156891656Y-114381432D01*
X156903414Y-114397615D01*
X156926893Y-114463422D01*
X156911067Y-114531476D01*
X156860961Y-114580170D01*
X156803095Y-114594500D01*
X155989761Y-114594500D01*
X155922722Y-114574815D01*
X155902080Y-114558181D01*
X149674941Y-108331040D01*
X149674938Y-108331037D01*
X149600565Y-108281343D01*
X149527449Y-108232488D01*
X149527447Y-108232487D01*
X149444340Y-108198063D01*
X149357938Y-108162274D01*
X149358422Y-108161103D01*
X149305498Y-108126420D01*
X149277041Y-108062607D01*
X149282225Y-108007055D01*
X149334999Y-107847797D01*
X149345500Y-107745009D01*
X149345499Y-107119992D01*
X149344253Y-107107799D01*
X149334999Y-107017203D01*
X149334998Y-107017200D01*
X149304384Y-106924814D01*
X149279814Y-106850666D01*
X149187712Y-106701344D01*
X149094049Y-106607681D01*
X149060564Y-106546358D01*
X149065548Y-106476666D01*
X149094049Y-106432319D01*
X149133573Y-106392795D01*
X149187712Y-106338656D01*
X149279814Y-106189334D01*
X149334999Y-106022797D01*
X149345500Y-105920009D01*
X149345499Y-105294992D01*
X149344987Y-105289983D01*
X149334999Y-105192203D01*
X149334998Y-105192200D01*
X149306822Y-105107171D01*
X149279814Y-105025666D01*
X149187712Y-104876344D01*
X149063656Y-104752288D01*
X148914334Y-104660186D01*
X148747797Y-104605001D01*
X148747795Y-104605000D01*
X148645010Y-104594500D01*
X147644998Y-104594500D01*
X147644980Y-104594501D01*
X147542203Y-104605000D01*
X147542200Y-104605001D01*
X147375668Y-104660185D01*
X147375663Y-104660187D01*
X147226342Y-104752289D01*
X147102289Y-104876342D01*
X147010187Y-105025663D01*
X147010186Y-105025666D01*
X146955001Y-105192203D01*
X146955001Y-105192204D01*
X146955000Y-105192204D01*
X146944500Y-105294983D01*
X146944500Y-105920001D01*
X146944501Y-105920019D01*
X146955000Y-106022796D01*
X146955001Y-106022799D01*
X147010185Y-106189331D01*
X147010187Y-106189336D01*
X147045069Y-106245888D01*
X147072282Y-106290009D01*
X147102289Y-106338657D01*
X147195951Y-106432319D01*
X147229436Y-106493642D01*
X147224452Y-106563334D01*
X147195951Y-106607681D01*
X147102289Y-106701342D01*
X147010187Y-106850663D01*
X147010185Y-106850668D01*
X146991462Y-106907171D01*
X146955001Y-107017203D01*
X146955001Y-107017204D01*
X146955000Y-107017204D01*
X146944500Y-107119983D01*
X146944500Y-107456139D01*
X146924815Y-107523178D01*
X146872011Y-107568933D01*
X146802853Y-107578877D01*
X146739297Y-107549852D01*
X146732819Y-107543820D01*
X146501504Y-107312505D01*
X146132862Y-106943863D01*
X146099379Y-106882542D01*
X146104363Y-106812850D01*
X146132860Y-106768507D01*
X146192712Y-106708656D01*
X146284814Y-106559334D01*
X146339999Y-106392797D01*
X146350500Y-106290009D01*
X146350499Y-105289992D01*
X146339999Y-105187203D01*
X146284814Y-105020666D01*
X146192712Y-104871344D01*
X146068656Y-104747288D01*
X145927442Y-104660187D01*
X145919336Y-104655187D01*
X145919331Y-104655185D01*
X145917862Y-104654698D01*
X145752797Y-104600001D01*
X145752795Y-104600000D01*
X145650010Y-104589500D01*
X145024998Y-104589500D01*
X145024980Y-104589501D01*
X144922203Y-104600000D01*
X144922200Y-104600001D01*
X144755668Y-104655185D01*
X144755663Y-104655187D01*
X144606342Y-104747289D01*
X144512681Y-104840951D01*
X144451358Y-104874436D01*
X144381666Y-104869452D01*
X144337319Y-104840951D01*
X144243657Y-104747289D01*
X144243656Y-104747288D01*
X144102442Y-104660187D01*
X144094336Y-104655187D01*
X144094331Y-104655185D01*
X144092862Y-104654698D01*
X143927797Y-104600001D01*
X143927795Y-104600000D01*
X143825010Y-104589500D01*
X143199998Y-104589500D01*
X143199980Y-104589501D01*
X143097203Y-104600000D01*
X143097200Y-104600001D01*
X142930668Y-104655185D01*
X142930663Y-104655187D01*
X142781342Y-104747289D01*
X142657289Y-104871342D01*
X142565187Y-105020663D01*
X142565186Y-105020666D01*
X142510001Y-105187203D01*
X142510001Y-105187204D01*
X142510000Y-105187204D01*
X142499500Y-105289983D01*
X142499500Y-105289991D01*
X142499500Y-105787028D01*
X142499501Y-106185100D01*
X142479817Y-106252139D01*
X142427013Y-106297894D01*
X142375501Y-106309100D01*
X142024500Y-106309100D01*
X141957461Y-106289415D01*
X141911706Y-106236611D01*
X141900500Y-106185100D01*
X141900499Y-105289998D01*
X141900498Y-105289980D01*
X141889999Y-105187203D01*
X141889998Y-105187200D01*
X141863479Y-105107171D01*
X141834814Y-105020666D01*
X141742712Y-104871344D01*
X141618656Y-104747288D01*
X141477442Y-104660187D01*
X141469336Y-104655187D01*
X141469331Y-104655185D01*
X141467862Y-104654698D01*
X141302797Y-104600001D01*
X141302795Y-104600000D01*
X141200010Y-104589500D01*
X140574998Y-104589500D01*
X140574980Y-104589501D01*
X140472203Y-104600000D01*
X140472200Y-104600001D01*
X140305668Y-104655185D01*
X140305663Y-104655187D01*
X140156342Y-104747289D01*
X140062681Y-104840951D01*
X140001358Y-104874436D01*
X139931666Y-104869452D01*
X139887319Y-104840951D01*
X139793657Y-104747289D01*
X139793656Y-104747288D01*
X139652442Y-104660187D01*
X139644336Y-104655187D01*
X139644331Y-104655185D01*
X139642862Y-104654698D01*
X139477797Y-104600001D01*
X139477795Y-104600000D01*
X139375016Y-104589500D01*
X138774403Y-104589500D01*
X138707364Y-104569815D01*
X138705511Y-104568601D01*
X138663890Y-104540790D01*
X138663886Y-104540788D01*
X138583392Y-104507447D01*
X138550052Y-104493637D01*
X138550048Y-104493636D01*
X138550044Y-104493635D01*
X138477524Y-104479210D01*
X138477523Y-104479210D01*
X138429211Y-104469600D01*
X138429207Y-104469600D01*
X138429206Y-104469600D01*
X129149651Y-104469600D01*
X129082612Y-104449915D01*
X129036857Y-104397111D01*
X129026913Y-104327953D01*
X129055938Y-104264397D01*
X129061970Y-104257919D01*
X129566279Y-103753611D01*
X131457372Y-101862519D01*
X131518695Y-101829034D01*
X131545053Y-101826200D01*
X139949720Y-101826200D01*
X140016759Y-101845885D01*
X140062514Y-101898689D01*
X140072658Y-101966383D01*
X140061756Y-102049188D01*
X140044500Y-102180258D01*
X140044500Y-102409741D01*
X140069446Y-102599215D01*
X140074452Y-102637238D01*
X140074453Y-102637240D01*
X140133842Y-102858887D01*
X140221650Y-103070876D01*
X140221657Y-103070890D01*
X140336392Y-103269617D01*
X140476081Y-103451661D01*
X140476089Y-103451670D01*
X140638330Y-103613911D01*
X140638338Y-103613918D01*
X140820382Y-103753607D01*
X140820385Y-103753608D01*
X140820388Y-103753611D01*
X141019112Y-103868344D01*
X141019117Y-103868346D01*
X141019123Y-103868349D01*
X141110480Y-103906190D01*
X141231113Y-103956158D01*
X141452762Y-104015548D01*
X141680266Y-104045500D01*
X141680273Y-104045500D01*
X141909727Y-104045500D01*
X141909734Y-104045500D01*
X142137238Y-104015548D01*
X142358887Y-103956158D01*
X142570888Y-103868344D01*
X142769612Y-103753611D01*
X142951661Y-103613919D01*
X142951665Y-103613914D01*
X142951670Y-103613911D01*
X143113911Y-103451670D01*
X143113914Y-103451665D01*
X143113919Y-103451661D01*
X143253611Y-103269612D01*
X143260603Y-103257500D01*
X143311170Y-103209285D01*
X143367991Y-103195500D01*
X148974738Y-103195500D01*
X149041777Y-103215185D01*
X149062419Y-103231819D01*
X151031766Y-105201166D01*
X151090836Y-105240633D01*
X151090839Y-105240636D01*
X151153347Y-105282403D01*
X151179253Y-105299713D01*
X151254703Y-105330965D01*
X151305124Y-105351850D01*
X151359525Y-105395689D01*
X151381591Y-105461983D01*
X151364312Y-105529682D01*
X151345351Y-105554091D01*
X151152376Y-105747066D01*
X151152370Y-105747073D01*
X150984754Y-105965516D01*
X150984751Y-105965520D01*
X150984751Y-105965521D01*
X150975752Y-105981106D01*
X150847080Y-106203971D01*
X150847075Y-106203982D01*
X150741704Y-106458369D01*
X150694167Y-106635782D01*
X150674642Y-106708654D01*
X150670441Y-106724331D01*
X150670438Y-106724344D01*
X150634501Y-106997315D01*
X150634500Y-106997332D01*
X150634500Y-107272667D01*
X150634501Y-107272684D01*
X150670438Y-107545655D01*
X150670439Y-107545660D01*
X150670440Y-107545666D01*
X150700594Y-107658204D01*
X150741704Y-107811630D01*
X150847075Y-108066017D01*
X150847080Y-108066028D01*
X150914990Y-108183650D01*
X150984751Y-108304479D01*
X150984753Y-108304482D01*
X150984754Y-108304483D01*
X151152370Y-108522926D01*
X151152376Y-108522933D01*
X151347066Y-108717623D01*
X151347072Y-108717628D01*
X151565521Y-108885249D01*
X151707667Y-108967317D01*
X151803971Y-109022919D01*
X151803976Y-109022921D01*
X151803979Y-109022923D01*
X152058368Y-109128295D01*
X152324334Y-109199560D01*
X152597326Y-109235500D01*
X152597333Y-109235500D01*
X152872667Y-109235500D01*
X152872674Y-109235500D01*
X153145666Y-109199560D01*
X153411632Y-109128295D01*
X153666021Y-109022923D01*
X153904479Y-108885249D01*
X154122928Y-108717628D01*
X154317628Y-108522928D01*
X154485249Y-108304479D01*
X154499392Y-108279983D01*
X155134500Y-108279983D01*
X155134500Y-109280001D01*
X155134501Y-109280019D01*
X155145000Y-109382796D01*
X155145001Y-109382798D01*
X155200185Y-109549331D01*
X155200187Y-109549336D01*
X155226021Y-109591219D01*
X155292288Y-109698656D01*
X155416344Y-109822712D01*
X155565666Y-109914814D01*
X155732203Y-109969999D01*
X155834991Y-109980500D01*
X156460008Y-109980499D01*
X156460016Y-109980498D01*
X156460019Y-109980498D01*
X156516302Y-109974748D01*
X156562797Y-109969999D01*
X156729334Y-109914814D01*
X156878656Y-109822712D01*
X156972319Y-109729049D01*
X157033642Y-109695564D01*
X157103334Y-109700548D01*
X157147681Y-109729049D01*
X157241344Y-109822712D01*
X157390666Y-109914814D01*
X157557203Y-109969999D01*
X157659991Y-109980500D01*
X158285008Y-109980499D01*
X158285016Y-109980498D01*
X158285019Y-109980498D01*
X158341302Y-109974748D01*
X158387797Y-109969999D01*
X158554334Y-109914814D01*
X158703656Y-109822712D01*
X158827712Y-109698656D01*
X158919814Y-109549334D01*
X158974999Y-109382797D01*
X158985500Y-109280009D01*
X158985499Y-108699983D01*
X159584500Y-108699983D01*
X159584500Y-109700001D01*
X159584501Y-109700019D01*
X159595000Y-109802796D01*
X159595001Y-109802799D01*
X159650185Y-109969331D01*
X159650187Y-109969336D01*
X159657073Y-109980500D01*
X159742288Y-110118656D01*
X159866344Y-110242712D01*
X160015666Y-110334814D01*
X160182203Y-110389999D01*
X160284991Y-110400500D01*
X160910008Y-110400499D01*
X160910016Y-110400498D01*
X160910019Y-110400498D01*
X160966302Y-110394748D01*
X161012797Y-110389999D01*
X161179334Y-110334814D01*
X161328656Y-110242712D01*
X161422319Y-110149049D01*
X161483642Y-110115564D01*
X161553334Y-110120548D01*
X161597681Y-110149049D01*
X161691344Y-110242712D01*
X161840666Y-110334814D01*
X162007203Y-110389999D01*
X162109991Y-110400500D01*
X162735008Y-110400499D01*
X162735016Y-110400498D01*
X162735019Y-110400498D01*
X162791302Y-110394748D01*
X162837797Y-110389999D01*
X163004334Y-110334814D01*
X163153656Y-110242712D01*
X163277712Y-110118656D01*
X163369814Y-109969334D01*
X163424999Y-109802797D01*
X163435500Y-109700009D01*
X163435499Y-108699992D01*
X163435498Y-108699983D01*
X164034500Y-108699983D01*
X164034500Y-109700001D01*
X164034501Y-109700019D01*
X164045000Y-109802796D01*
X164045001Y-109802799D01*
X164100185Y-109969331D01*
X164100187Y-109969336D01*
X164107073Y-109980500D01*
X164192288Y-110118656D01*
X164316344Y-110242712D01*
X164465666Y-110334814D01*
X164632203Y-110389999D01*
X164734991Y-110400500D01*
X165360008Y-110400499D01*
X165360016Y-110400498D01*
X165360019Y-110400498D01*
X165416302Y-110394748D01*
X165462797Y-110389999D01*
X165629334Y-110334814D01*
X165778656Y-110242712D01*
X165872319Y-110149049D01*
X165933642Y-110115564D01*
X166003334Y-110120548D01*
X166047681Y-110149049D01*
X166141344Y-110242712D01*
X166290666Y-110334814D01*
X166457203Y-110389999D01*
X166559991Y-110400500D01*
X167185008Y-110400499D01*
X167185016Y-110400498D01*
X167185019Y-110400498D01*
X167241302Y-110394748D01*
X167287797Y-110389999D01*
X167454334Y-110334814D01*
X167603656Y-110242712D01*
X167727712Y-110118656D01*
X167819814Y-109969334D01*
X167874999Y-109802797D01*
X167885500Y-109700009D01*
X167885499Y-108699992D01*
X167881581Y-108661641D01*
X167874999Y-108597203D01*
X167874998Y-108597200D01*
X167850388Y-108522933D01*
X167819814Y-108430666D01*
X167727712Y-108281344D01*
X167603656Y-108157288D01*
X167493794Y-108089525D01*
X167454336Y-108065187D01*
X167454331Y-108065185D01*
X167446551Y-108062607D01*
X167287797Y-108010001D01*
X167287795Y-108010000D01*
X167185010Y-107999500D01*
X166559998Y-107999500D01*
X166559980Y-107999501D01*
X166457203Y-108010000D01*
X166457200Y-108010001D01*
X166290668Y-108065185D01*
X166290663Y-108065187D01*
X166141342Y-108157289D01*
X166047681Y-108250951D01*
X165986358Y-108284436D01*
X165916666Y-108279452D01*
X165872319Y-108250951D01*
X165778657Y-108157289D01*
X165778656Y-108157288D01*
X165668794Y-108089525D01*
X165629336Y-108065187D01*
X165629331Y-108065185D01*
X165621551Y-108062607D01*
X165462797Y-108010001D01*
X165462795Y-108010000D01*
X165360010Y-107999500D01*
X164734998Y-107999500D01*
X164734980Y-107999501D01*
X164632203Y-108010000D01*
X164632200Y-108010001D01*
X164465668Y-108065185D01*
X164465663Y-108065187D01*
X164316342Y-108157289D01*
X164192289Y-108281342D01*
X164100187Y-108430663D01*
X164100185Y-108430668D01*
X164094081Y-108449090D01*
X164045001Y-108597203D01*
X164045001Y-108597204D01*
X164045000Y-108597204D01*
X164034500Y-108699983D01*
X163435498Y-108699983D01*
X163431581Y-108661641D01*
X163424999Y-108597203D01*
X163424998Y-108597200D01*
X163400388Y-108522933D01*
X163369814Y-108430666D01*
X163277712Y-108281344D01*
X163153656Y-108157288D01*
X163043794Y-108089525D01*
X163004336Y-108065187D01*
X163004331Y-108065185D01*
X162996551Y-108062607D01*
X162837797Y-108010001D01*
X162837795Y-108010000D01*
X162735010Y-107999500D01*
X162109998Y-107999500D01*
X162109980Y-107999501D01*
X162007203Y-108010000D01*
X162007200Y-108010001D01*
X161840668Y-108065185D01*
X161840663Y-108065187D01*
X161691342Y-108157289D01*
X161597681Y-108250951D01*
X161536358Y-108284436D01*
X161466666Y-108279452D01*
X161422319Y-108250951D01*
X161328657Y-108157289D01*
X161328656Y-108157288D01*
X161218794Y-108089525D01*
X161179336Y-108065187D01*
X161179331Y-108065185D01*
X161171551Y-108062607D01*
X161012797Y-108010001D01*
X161012795Y-108010000D01*
X160910010Y-107999500D01*
X160284998Y-107999500D01*
X160284980Y-107999501D01*
X160182203Y-108010000D01*
X160182200Y-108010001D01*
X160015668Y-108065185D01*
X160015663Y-108065187D01*
X159866342Y-108157289D01*
X159742289Y-108281342D01*
X159650187Y-108430663D01*
X159650185Y-108430668D01*
X159644081Y-108449090D01*
X159595001Y-108597203D01*
X159595001Y-108597204D01*
X159595000Y-108597204D01*
X159584500Y-108699983D01*
X158985499Y-108699983D01*
X158985499Y-108279992D01*
X158982532Y-108250951D01*
X158974999Y-108177203D01*
X158974998Y-108177200D01*
X158968923Y-108158868D01*
X158919814Y-108010666D01*
X158827712Y-107861344D01*
X158703656Y-107737288D01*
X158610888Y-107680069D01*
X158554336Y-107645187D01*
X158554331Y-107645185D01*
X158509064Y-107630185D01*
X158387797Y-107590001D01*
X158387795Y-107590000D01*
X158285010Y-107579500D01*
X157659998Y-107579500D01*
X157659980Y-107579501D01*
X157557203Y-107590000D01*
X157557200Y-107590001D01*
X157390668Y-107645185D01*
X157390663Y-107645187D01*
X157241342Y-107737289D01*
X157147681Y-107830951D01*
X157086358Y-107864436D01*
X157016666Y-107859452D01*
X156972319Y-107830951D01*
X156878657Y-107737289D01*
X156878656Y-107737288D01*
X156785888Y-107680069D01*
X156729336Y-107645187D01*
X156729331Y-107645185D01*
X156684064Y-107630185D01*
X156562797Y-107590001D01*
X156562795Y-107590000D01*
X156460010Y-107579500D01*
X155834998Y-107579500D01*
X155834980Y-107579501D01*
X155732203Y-107590000D01*
X155732200Y-107590001D01*
X155565668Y-107645185D01*
X155565663Y-107645187D01*
X155416342Y-107737289D01*
X155292289Y-107861342D01*
X155200187Y-108010663D01*
X155200185Y-108010668D01*
X155182974Y-108062607D01*
X155145001Y-108177203D01*
X155145001Y-108177204D01*
X155145000Y-108177204D01*
X155134500Y-108279983D01*
X154499392Y-108279983D01*
X154622923Y-108066021D01*
X154728295Y-107811632D01*
X154799560Y-107545666D01*
X154835500Y-107272674D01*
X154835500Y-106997326D01*
X154799560Y-106724334D01*
X154728295Y-106458368D01*
X154622923Y-106203979D01*
X154622921Y-106203976D01*
X154622919Y-106203971D01*
X154559772Y-106094598D01*
X154485249Y-105965521D01*
X154348287Y-105787028D01*
X154317629Y-105747073D01*
X154317623Y-105747066D01*
X154184438Y-105613881D01*
X154150953Y-105552558D01*
X154155937Y-105482866D01*
X154197809Y-105426933D01*
X154263273Y-105402516D01*
X154272119Y-105402200D01*
X155010500Y-105402200D01*
X155077539Y-105421885D01*
X155123294Y-105474689D01*
X155134500Y-105526200D01*
X155134500Y-106290001D01*
X155134501Y-106290019D01*
X155145000Y-106392796D01*
X155145001Y-106392799D01*
X155195886Y-106546358D01*
X155200186Y-106559334D01*
X155292288Y-106708656D01*
X155416344Y-106832712D01*
X155565666Y-106924814D01*
X155732203Y-106979999D01*
X155834991Y-106990500D01*
X156460008Y-106990499D01*
X156460016Y-106990498D01*
X156460019Y-106990498D01*
X156516302Y-106984748D01*
X156562797Y-106979999D01*
X156729334Y-106924814D01*
X156878656Y-106832712D01*
X156972319Y-106739049D01*
X157033642Y-106705564D01*
X157103334Y-106710548D01*
X157147681Y-106739049D01*
X157241344Y-106832712D01*
X157390666Y-106924814D01*
X157557203Y-106979999D01*
X157659991Y-106990500D01*
X158285008Y-106990499D01*
X158285016Y-106990498D01*
X158285019Y-106990498D01*
X158341302Y-106984748D01*
X158387797Y-106979999D01*
X158554334Y-106924814D01*
X158703656Y-106832712D01*
X158827712Y-106708656D01*
X158919814Y-106559334D01*
X158974999Y-106392797D01*
X158985500Y-106290009D01*
X158985499Y-105769759D01*
X159005183Y-105702722D01*
X159057987Y-105656967D01*
X159127146Y-105647023D01*
X159190702Y-105676048D01*
X159197180Y-105682080D01*
X160119558Y-106604459D01*
X160119561Y-106604462D01*
X160119564Y-106604464D01*
X160166434Y-106635781D01*
X160267053Y-106703013D01*
X160348993Y-106736953D01*
X160430934Y-106770895D01*
X160584694Y-106801479D01*
X160646603Y-106833863D01*
X160681177Y-106894579D01*
X160684501Y-106923096D01*
X160684501Y-107005018D01*
X160695000Y-107107796D01*
X160695001Y-107107799D01*
X160725275Y-107199158D01*
X160750186Y-107274334D01*
X160842288Y-107423656D01*
X160966344Y-107547712D01*
X161115666Y-107639814D01*
X161282203Y-107694999D01*
X161384991Y-107705500D01*
X163585008Y-107705499D01*
X163687797Y-107694999D01*
X163854334Y-107639814D01*
X164003656Y-107547712D01*
X164127712Y-107423656D01*
X164219814Y-107274334D01*
X164274999Y-107107797D01*
X164285500Y-107005009D01*
X164285499Y-105787014D01*
X165685000Y-105787014D01*
X165685000Y-106022985D01*
X165715799Y-106256914D01*
X165776870Y-106484837D01*
X165867160Y-106702819D01*
X165867165Y-106702828D01*
X165985144Y-106907171D01*
X165985145Y-106907172D01*
X166047721Y-106988723D01*
X166883958Y-106152487D01*
X166908978Y-106212890D01*
X166980112Y-106319351D01*
X167070649Y-106409888D01*
X167177110Y-106481022D01*
X167237511Y-106506041D01*
X166401275Y-107342277D01*
X166482827Y-107404854D01*
X166482828Y-107404855D01*
X166687171Y-107522834D01*
X166687180Y-107522839D01*
X166905163Y-107613129D01*
X166905161Y-107613129D01*
X167133085Y-107674200D01*
X167367014Y-107704999D01*
X167367029Y-107705000D01*
X167602971Y-107705000D01*
X167602985Y-107704999D01*
X167836914Y-107674200D01*
X168064837Y-107613129D01*
X168282819Y-107522839D01*
X168282828Y-107522834D01*
X168487181Y-107404850D01*
X168568723Y-107342279D01*
X168568723Y-107342276D01*
X167732487Y-106506041D01*
X167792890Y-106481022D01*
X167899351Y-106409888D01*
X167989888Y-106319351D01*
X168061022Y-106212890D01*
X168086041Y-106152488D01*
X168922276Y-106988723D01*
X168922279Y-106988723D01*
X168984850Y-106907181D01*
X169102834Y-106702828D01*
X169102839Y-106702819D01*
X169193129Y-106484837D01*
X169254200Y-106256914D01*
X169284999Y-106022985D01*
X169285000Y-106022971D01*
X169285000Y-105787028D01*
X169284999Y-105787014D01*
X169254200Y-105553085D01*
X169193129Y-105325162D01*
X169102839Y-105107180D01*
X169102834Y-105107171D01*
X168984855Y-104902828D01*
X168984854Y-104902827D01*
X168922277Y-104821275D01*
X168086041Y-105657511D01*
X168061022Y-105597110D01*
X167989888Y-105490649D01*
X167899351Y-105400112D01*
X167792890Y-105328978D01*
X167732488Y-105303958D01*
X168568723Y-104467721D01*
X168487172Y-104405145D01*
X168487171Y-104405144D01*
X168282828Y-104287165D01*
X168282819Y-104287160D01*
X168064836Y-104196870D01*
X168064838Y-104196870D01*
X167836914Y-104135799D01*
X167602985Y-104105000D01*
X167367014Y-104105000D01*
X167133085Y-104135799D01*
X166905162Y-104196870D01*
X166687180Y-104287160D01*
X166687171Y-104287165D01*
X166482828Y-104405144D01*
X166482818Y-104405150D01*
X166401275Y-104467720D01*
X166401275Y-104467721D01*
X167237512Y-105303958D01*
X167177110Y-105328978D01*
X167070649Y-105400112D01*
X166980112Y-105490649D01*
X166908978Y-105597110D01*
X166883958Y-105657512D01*
X166047721Y-104821275D01*
X166047720Y-104821275D01*
X165985150Y-104902818D01*
X165985144Y-104902828D01*
X165867165Y-105107171D01*
X165867160Y-105107180D01*
X165776870Y-105325162D01*
X165715799Y-105553085D01*
X165685000Y-105787014D01*
X164285499Y-105787014D01*
X164285499Y-104804992D01*
X164279604Y-104747288D01*
X164274999Y-104702203D01*
X164274998Y-104702200D01*
X164226114Y-104554678D01*
X164226113Y-104554676D01*
X164219816Y-104535672D01*
X164219815Y-104535671D01*
X164219814Y-104535666D01*
X164127712Y-104386344D01*
X164003656Y-104262288D01*
X163854334Y-104170186D01*
X163687797Y-104115001D01*
X163687795Y-104115000D01*
X163585016Y-104104500D01*
X161412300Y-104104500D01*
X161345261Y-104084815D01*
X161299506Y-104032011D01*
X161288300Y-103980500D01*
X161288300Y-103846055D01*
X161288299Y-103846053D01*
X161257538Y-103691410D01*
X161257537Y-103691403D01*
X161197194Y-103545721D01*
X161134197Y-103451439D01*
X161113320Y-103384763D01*
X161113300Y-103382550D01*
X161113300Y-103069740D01*
X161132985Y-103002701D01*
X161185789Y-102956946D01*
X161254947Y-102947002D01*
X161302394Y-102964200D01*
X161400666Y-103024814D01*
X161567203Y-103079999D01*
X161669991Y-103090500D01*
X162295008Y-103090499D01*
X162295016Y-103090498D01*
X162295019Y-103090498D01*
X162351302Y-103084748D01*
X162397797Y-103079999D01*
X162564334Y-103024814D01*
X162713656Y-102932712D01*
X162837712Y-102808656D01*
X162929814Y-102659334D01*
X162984999Y-102492797D01*
X162995500Y-102390009D01*
X162995499Y-101389992D01*
X162984999Y-101287203D01*
X162929814Y-101120666D01*
X162837712Y-100971344D01*
X162713656Y-100847288D01*
X162564334Y-100755186D01*
X162397797Y-100700001D01*
X162397795Y-100700000D01*
X162295016Y-100689500D01*
X161717952Y-100689500D01*
X161650913Y-100669815D01*
X161630271Y-100653181D01*
X161432698Y-100455608D01*
X161432678Y-100455586D01*
X161341236Y-100364144D01*
X161341228Y-100364138D01*
X161279782Y-100323081D01*
X161279780Y-100323080D01*
X161244855Y-100299743D01*
X161238785Y-100295687D01*
X161177968Y-100270497D01*
X161158292Y-100262347D01*
X161135809Y-100253034D01*
X161124953Y-100248537D01*
X161114927Y-100246543D01*
X161064529Y-100236518D01*
X161004110Y-100224500D01*
X161004107Y-100224500D01*
X161004106Y-100224500D01*
X157165606Y-100224500D01*
X157042393Y-100224500D01*
X157042388Y-100224500D01*
X156921555Y-100248535D01*
X156921547Y-100248537D01*
X156807716Y-100295687D01*
X156734664Y-100344500D01*
X156734663Y-100344501D01*
X156705265Y-100364143D01*
X156674375Y-100395034D01*
X156616026Y-100453382D01*
X156554706Y-100486866D01*
X156528347Y-100489700D01*
X155834552Y-100489700D01*
X155767513Y-100470015D01*
X155746871Y-100453381D01*
X154269498Y-98976008D01*
X154269478Y-98975986D01*
X154178036Y-98884544D01*
X154178032Y-98884541D01*
X154110794Y-98839614D01*
X154075586Y-98816088D01*
X154075587Y-98816088D01*
X154075585Y-98816087D01*
X154028778Y-98796700D01*
X153986799Y-98779312D01*
X153961752Y-98768937D01*
X153961748Y-98768936D01*
X153961744Y-98768935D01*
X153891391Y-98754941D01*
X153891390Y-98754941D01*
X153840911Y-98744900D01*
X153840907Y-98744900D01*
X153840906Y-98744900D01*
X141886207Y-98744900D01*
X141762993Y-98744900D01*
X141712508Y-98754942D01*
X141712507Y-98754941D01*
X141642155Y-98768935D01*
X141642145Y-98768938D01*
X141617101Y-98779312D01*
X141617100Y-98779312D01*
X141528318Y-98816085D01*
X141528314Y-98816087D01*
X141501970Y-98833691D01*
X141493106Y-98839614D01*
X141425868Y-98884540D01*
X141400820Y-98909589D01*
X141338742Y-98971667D01*
X141338739Y-98971670D01*
X139771529Y-100538881D01*
X139710206Y-100572366D01*
X139683848Y-100575200D01*
X131302341Y-100575200D01*
X131302321Y-100575199D01*
X131296207Y-100575199D01*
X131172994Y-100575199D01*
X131072197Y-100595248D01*
X131072192Y-100595248D01*
X131052149Y-100599236D01*
X131052147Y-100599236D01*
X131004997Y-100618767D01*
X130938319Y-100646385D01*
X130938317Y-100646386D01*
X130835866Y-100714841D01*
X130835863Y-100714844D01*
X128159729Y-103390981D01*
X128098406Y-103424466D01*
X128072048Y-103427300D01*
X126517450Y-103427300D01*
X126450411Y-103407615D01*
X126448559Y-103406402D01*
X126354284Y-103343409D01*
X126354272Y-103343402D01*
X126208601Y-103283064D01*
X126208589Y-103283061D01*
X126053945Y-103252300D01*
X126053942Y-103252300D01*
X125896258Y-103252300D01*
X125896255Y-103252300D01*
X125741610Y-103283061D01*
X125741598Y-103283064D01*
X125595927Y-103343402D01*
X125595914Y-103343409D01*
X125464811Y-103431010D01*
X125464807Y-103431013D01*
X125353313Y-103542507D01*
X125353310Y-103542511D01*
X125265709Y-103673614D01*
X125265702Y-103673627D01*
X125205364Y-103819298D01*
X125205361Y-103819310D01*
X125174600Y-103973953D01*
X125174600Y-104131646D01*
X125205361Y-104286289D01*
X125205363Y-104286298D01*
X125210271Y-104298145D01*
X125217741Y-104367614D01*
X125186467Y-104430094D01*
X125126379Y-104465748D01*
X125095711Y-104469600D01*
X115005250Y-104469600D01*
X114938211Y-104449915D01*
X114936359Y-104448702D01*
X114842084Y-104385709D01*
X114842072Y-104385702D01*
X114696401Y-104325364D01*
X114696389Y-104325361D01*
X114541745Y-104294600D01*
X114541742Y-104294600D01*
X114384058Y-104294600D01*
X114384055Y-104294600D01*
X114229410Y-104325361D01*
X114229398Y-104325364D01*
X114083727Y-104385702D01*
X114083714Y-104385709D01*
X113952611Y-104473310D01*
X113952607Y-104473313D01*
X113841113Y-104584807D01*
X113841110Y-104584811D01*
X113753509Y-104715914D01*
X113753502Y-104715927D01*
X113693164Y-104861598D01*
X113693161Y-104861610D01*
X113662400Y-105016253D01*
X113662400Y-105123800D01*
X113642715Y-105190839D01*
X113589911Y-105236594D01*
X113538400Y-105247800D01*
X112228803Y-105247800D01*
X112054841Y-105282403D01*
X112054829Y-105282406D01*
X111972892Y-105316345D01*
X111972893Y-105316346D01*
X111890955Y-105350285D01*
X111743465Y-105448835D01*
X111743464Y-105448837D01*
X109108938Y-108083360D01*
X109108937Y-108083361D01*
X109085513Y-108118418D01*
X109079064Y-108128072D01*
X109077776Y-108129999D01*
X109077775Y-108130000D01*
X109010385Y-108230855D01*
X108976446Y-108312793D01*
X108942506Y-108394729D01*
X108942503Y-108394741D01*
X108907900Y-108568703D01*
X108907900Y-108746096D01*
X108942503Y-108920058D01*
X108942505Y-108920066D01*
X108971146Y-108989211D01*
X108998240Y-109054623D01*
X109010387Y-109083947D01*
X109025253Y-109106195D01*
X109040020Y-109128296D01*
X109108937Y-109231438D01*
X109234361Y-109356862D01*
X109273174Y-109382796D01*
X109273176Y-109382797D01*
X109381853Y-109455413D01*
X109455355Y-109485858D01*
X109545734Y-109523295D01*
X109701655Y-109554309D01*
X109719703Y-109557899D01*
X109719707Y-109557900D01*
X109719708Y-109557900D01*
X109897093Y-109557900D01*
X109897094Y-109557899D01*
X110071066Y-109523295D01*
X110161445Y-109485858D01*
X110234947Y-109455413D01*
X110343624Y-109382797D01*
X110343626Y-109382796D01*
X110356561Y-109374152D01*
X110382436Y-109356864D01*
X112654180Y-107085118D01*
X112715503Y-107051634D01*
X112741861Y-107048800D01*
X126882259Y-107048800D01*
X126949298Y-107068485D01*
X126995053Y-107121289D01*
X127004997Y-107190447D01*
X126975972Y-107254003D01*
X126969940Y-107260481D01*
X126903313Y-107327107D01*
X126903310Y-107327111D01*
X126815709Y-107458214D01*
X126815702Y-107458227D01*
X126755364Y-107603898D01*
X126755361Y-107603910D01*
X126724600Y-107758553D01*
X126724600Y-107916246D01*
X126755361Y-108070889D01*
X126755364Y-108070901D01*
X126815702Y-108216572D01*
X126815709Y-108216585D01*
X126903310Y-108347688D01*
X126903313Y-108347692D01*
X127014807Y-108459186D01*
X127014811Y-108459189D01*
X127145914Y-108546790D01*
X127145927Y-108546797D01*
X127179208Y-108560582D01*
X127291603Y-108607137D01*
X127402816Y-108629258D01*
X127464723Y-108661641D01*
X127466303Y-108663193D01*
X128288963Y-109485855D01*
X128288967Y-109485858D01*
X128391410Y-109554309D01*
X128391411Y-109554309D01*
X128391415Y-109554312D01*
X128458096Y-109581931D01*
X128458098Y-109581933D01*
X128479800Y-109590922D01*
X128505248Y-109601463D01*
X128520698Y-109604536D01*
X128599745Y-109620259D01*
X128626093Y-109625501D01*
X128626094Y-109625501D01*
X128755421Y-109625501D01*
X128755441Y-109625500D01*
X139419300Y-109625500D01*
X139486339Y-109645185D01*
X139532094Y-109697989D01*
X139543300Y-109749500D01*
X139543300Y-118990201D01*
X139523615Y-119057240D01*
X139484398Y-119095739D01*
X139425144Y-119132287D01*
X139301089Y-119256342D01*
X139208987Y-119405663D01*
X139208985Y-119405668D01*
X139184961Y-119478169D01*
X139153801Y-119572203D01*
X139153801Y-119572204D01*
X139153800Y-119572204D01*
X139143300Y-119674983D01*
X139143300Y-120875001D01*
X139143301Y-120875018D01*
X139153800Y-120977796D01*
X139153801Y-120977799D01*
X139208985Y-121144331D01*
X139208987Y-121144336D01*
X139243869Y-121200888D01*
X139301088Y-121293656D01*
X139425144Y-121417712D01*
X139574466Y-121509814D01*
X139741003Y-121564999D01*
X139843791Y-121575500D01*
X141043808Y-121575499D01*
X141146597Y-121564999D01*
X141313134Y-121509814D01*
X141462456Y-121417712D01*
X141586512Y-121293656D01*
X141678614Y-121144334D01*
X141701902Y-121074054D01*
X141705910Y-121066050D01*
X141723860Y-121046772D01*
X141738855Y-121025116D01*
X141747295Y-121021606D01*
X141753525Y-121014917D01*
X141779049Y-121008404D01*
X141803371Y-120998292D01*
X141819634Y-120998048D01*
X141821225Y-120997643D01*
X141822323Y-120998008D01*
X141826519Y-120997946D01*
X141864325Y-121000921D01*
X142543800Y-120321446D01*
X142543800Y-120327661D01*
X142571059Y-120429394D01*
X142623720Y-120520606D01*
X142698194Y-120595080D01*
X142789406Y-120647741D01*
X142891139Y-120675000D01*
X142897353Y-120675000D01*
X142217876Y-121354474D01*
X142262450Y-121386859D01*
X142444768Y-121479755D01*
X142639382Y-121542990D01*
X142841483Y-121575000D01*
X143046117Y-121575000D01*
X143248217Y-121542990D01*
X143442831Y-121479755D01*
X143625149Y-121386859D01*
X143669721Y-121354474D01*
X142990247Y-120675000D01*
X142996461Y-120675000D01*
X143098194Y-120647741D01*
X143189406Y-120595080D01*
X143263880Y-120520606D01*
X143316541Y-120429394D01*
X143343800Y-120327661D01*
X143343800Y-120321448D01*
X144023274Y-121000922D01*
X144023274Y-121000921D01*
X144055659Y-120956349D01*
X144148555Y-120774031D01*
X144211790Y-120579417D01*
X144243800Y-120377317D01*
X144243800Y-120172682D01*
X144211790Y-119970582D01*
X144148555Y-119775968D01*
X144055659Y-119593650D01*
X144023274Y-119549077D01*
X144023274Y-119549076D01*
X143343800Y-120228551D01*
X143343800Y-120222339D01*
X143316541Y-120120606D01*
X143263880Y-120029394D01*
X143189406Y-119954920D01*
X143098194Y-119902259D01*
X142996461Y-119875000D01*
X142990245Y-119875000D01*
X143670136Y-119195110D01*
X143731459Y-119161625D01*
X143801151Y-119166609D01*
X143805242Y-119168219D01*
X143829248Y-119178163D01*
X143889671Y-119190181D01*
X143950093Y-119202200D01*
X143950094Y-119202200D01*
X148831848Y-119202200D01*
X148898887Y-119221885D01*
X148919528Y-119238518D01*
X150445041Y-120764032D01*
X150445042Y-120764033D01*
X150532167Y-120851158D01*
X150579390Y-120882712D01*
X150624196Y-120936323D01*
X150634500Y-120985814D01*
X150634500Y-123775001D01*
X150634501Y-123775018D01*
X150645000Y-123877796D01*
X150645001Y-123877799D01*
X150700185Y-124044331D01*
X150700186Y-124044334D01*
X150792288Y-124193656D01*
X150916344Y-124317712D01*
X151065666Y-124409814D01*
X151232203Y-124464999D01*
X151334991Y-124475500D01*
X154135008Y-124475499D01*
X154237797Y-124464999D01*
X154404334Y-124409814D01*
X154553656Y-124317712D01*
X154677712Y-124193656D01*
X154769814Y-124044334D01*
X154824999Y-123877797D01*
X154835500Y-123775009D01*
X154835499Y-121114799D01*
X154855184Y-121047761D01*
X154907987Y-121002006D01*
X154959499Y-120990800D01*
X157207743Y-120990800D01*
X157274782Y-121010485D01*
X157320537Y-121063289D01*
X157330481Y-121132447D01*
X157301456Y-121196003D01*
X157282057Y-121214064D01*
X157237454Y-121247454D01*
X157237453Y-121247455D01*
X157237452Y-121247456D01*
X157151206Y-121362664D01*
X157151202Y-121362671D01*
X157100908Y-121497517D01*
X157094501Y-121557116D01*
X157094500Y-121557135D01*
X157094500Y-123352870D01*
X157094501Y-123352876D01*
X157100908Y-123412483D01*
X157151202Y-123547328D01*
X157151206Y-123547335D01*
X157237452Y-123662544D01*
X157237455Y-123662547D01*
X157352664Y-123748793D01*
X157352671Y-123748797D01*
X157397618Y-123765561D01*
X157487517Y-123799091D01*
X157547127Y-123805500D01*
X157557685Y-123805499D01*
X157624723Y-123825179D01*
X157645372Y-123841818D01*
X158315591Y-124512037D01*
X158252007Y-124529075D01*
X158137993Y-124594901D01*
X158044901Y-124687993D01*
X157979075Y-124802007D01*
X157962037Y-124865591D01*
X157329728Y-124233282D01*
X157329727Y-124233282D01*
X157290380Y-124287439D01*
X157193904Y-124476782D01*
X157128242Y-124678869D01*
X157128242Y-124678872D01*
X157095000Y-124888753D01*
X157095000Y-125101246D01*
X157128242Y-125311127D01*
X157128242Y-125311130D01*
X157193904Y-125513217D01*
X157290375Y-125702550D01*
X157329728Y-125756716D01*
X157962037Y-125124408D01*
X157979075Y-125187993D01*
X158044901Y-125302007D01*
X158137993Y-125395099D01*
X158252007Y-125460925D01*
X158315591Y-125477962D01*
X157714971Y-126078581D01*
X157793711Y-126195895D01*
X157794920Y-126199729D01*
X157797844Y-126202491D01*
X157805343Y-126232778D01*
X157814727Y-126262529D01*
X157813671Y-126266408D01*
X157814638Y-126270312D01*
X157804573Y-126299844D01*
X157796383Y-126329947D01*
X157793397Y-126332640D01*
X157792100Y-126336447D01*
X157747051Y-126375483D01*
X157737440Y-126380380D01*
X157683282Y-126419727D01*
X157683282Y-126419728D01*
X158315591Y-127052037D01*
X158252007Y-127069075D01*
X158137993Y-127134901D01*
X158044901Y-127227993D01*
X157979075Y-127342007D01*
X157962037Y-127405591D01*
X157329728Y-126773282D01*
X157329727Y-126773282D01*
X157290380Y-126827439D01*
X157193904Y-127016782D01*
X157128242Y-127218869D01*
X157128242Y-127218872D01*
X157095000Y-127428753D01*
X157095000Y-127641246D01*
X157128242Y-127851127D01*
X157128242Y-127851130D01*
X157193904Y-128053217D01*
X157290377Y-128242554D01*
X157322316Y-128286514D01*
X157345796Y-128352321D01*
X157329971Y-128420375D01*
X157279865Y-128469070D01*
X157221998Y-128483400D01*
X153004500Y-128483400D01*
X152937461Y-128463715D01*
X152891706Y-128410911D01*
X152880500Y-128359400D01*
X152880500Y-127894499D01*
X152900185Y-127827460D01*
X152952989Y-127781705D01*
X153004500Y-127770499D01*
X153438028Y-127770499D01*
X153438036Y-127770499D01*
X153557418Y-127759886D01*
X153753049Y-127703909D01*
X153933407Y-127609698D01*
X154091109Y-127481109D01*
X154219698Y-127323407D01*
X154313909Y-127143049D01*
X154369886Y-126947418D01*
X154380500Y-126828037D01*
X154380499Y-125711964D01*
X154369886Y-125592582D01*
X154313909Y-125396951D01*
X154219698Y-125216593D01*
X154167684Y-125152803D01*
X154091109Y-125058890D01*
X153994336Y-124979983D01*
X153933409Y-124930304D01*
X153933410Y-124930304D01*
X153933407Y-124930302D01*
X153753049Y-124836091D01*
X153753048Y-124836090D01*
X153753045Y-124836089D01*
X153633931Y-124802007D01*
X153557418Y-124780114D01*
X153557415Y-124780113D01*
X153557413Y-124780113D01*
X153491102Y-124774217D01*
X153438037Y-124769500D01*
X153438032Y-124769500D01*
X150521971Y-124769500D01*
X150521965Y-124769500D01*
X150521964Y-124769501D01*
X150510316Y-124770536D01*
X150402584Y-124780113D01*
X150206954Y-124836089D01*
X150140931Y-124870577D01*
X150026593Y-124930302D01*
X150026591Y-124930303D01*
X150026590Y-124930304D01*
X149868890Y-125058890D01*
X149740304Y-125216590D01*
X149646089Y-125396954D01*
X149603283Y-125546557D01*
X149593455Y-125580908D01*
X149590114Y-125592583D01*
X149590113Y-125592586D01*
X149579500Y-125711966D01*
X149579500Y-126828028D01*
X149579501Y-126828034D01*
X149590113Y-126947415D01*
X149646089Y-127143045D01*
X149646090Y-127143048D01*
X149646091Y-127143049D01*
X149740302Y-127323407D01*
X149774977Y-127365933D01*
X149868890Y-127481109D01*
X149962803Y-127557684D01*
X150026593Y-127609698D01*
X150206951Y-127703909D01*
X150402582Y-127759886D01*
X150521963Y-127770500D01*
X150955500Y-127770499D01*
X151022539Y-127790183D01*
X151068294Y-127842987D01*
X151079500Y-127894499D01*
X151079500Y-131184707D01*
X151059815Y-131251746D01*
X151033189Y-131281353D01*
X150982282Y-131322274D01*
X150982275Y-131322280D01*
X150926647Y-131391486D01*
X150869304Y-131431405D01*
X150799482Y-131433985D01*
X150739349Y-131398406D01*
X150733353Y-131391486D01*
X150677722Y-131322278D01*
X150677721Y-131322277D01*
X150529295Y-131202969D01*
X150529292Y-131202967D01*
X150358697Y-131118360D01*
X150173892Y-131072400D01*
X150152506Y-131070950D01*
X150131123Y-131069500D01*
X150131120Y-131069500D01*
X149228877Y-131069500D01*
X149228874Y-131069501D01*
X149186113Y-131072399D01*
X149186112Y-131072399D01*
X149001303Y-131118360D01*
X148830707Y-131202967D01*
X148830704Y-131202969D01*
X148682278Y-131322277D01*
X148682277Y-131322278D01*
X148562969Y-131470704D01*
X148562967Y-131470707D01*
X148478360Y-131641302D01*
X148432400Y-131826107D01*
X148429500Y-131868879D01*
X148429500Y-132495637D01*
X148409815Y-132562676D01*
X148393181Y-132583318D01*
X147440938Y-133535560D01*
X147440937Y-133535561D01*
X147401464Y-133594639D01*
X147401463Y-133594640D01*
X147342388Y-133683050D01*
X147342387Y-133683052D01*
X147316811Y-133744799D01*
X147316811Y-133744800D01*
X147286753Y-133817366D01*
X147274505Y-133846934D01*
X147250665Y-133966789D01*
X147250665Y-133966790D01*
X147239900Y-134020907D01*
X147239900Y-135812596D01*
X147274503Y-135986558D01*
X147274505Y-135986566D01*
X147308446Y-136068506D01*
X147308446Y-136068507D01*
X147342384Y-136150442D01*
X147342385Y-136150444D01*
X147401463Y-136238860D01*
X147440937Y-136297938D01*
X147440940Y-136297941D01*
X148102436Y-136959435D01*
X148227862Y-137084861D01*
X148227866Y-137084865D01*
X148375346Y-137183409D01*
X148375359Y-137183416D01*
X148498263Y-137234323D01*
X148539234Y-137251294D01*
X148581835Y-137259768D01*
X148713205Y-137285900D01*
X148713208Y-137285900D01*
X164063293Y-137285900D01*
X164063294Y-137285899D01*
X164237266Y-137251295D01*
X164319206Y-137217353D01*
X164401147Y-137183413D01*
X164401149Y-137183411D01*
X164401152Y-137183410D01*
X164489555Y-137124339D01*
X164489555Y-137124338D01*
X164489559Y-137124336D01*
X164548636Y-137084864D01*
X168501681Y-133131819D01*
X168563004Y-133098334D01*
X168589362Y-133095500D01*
X169765005Y-133095500D01*
X169765010Y-133095500D01*
X169867798Y-133084999D01*
X170034335Y-133029814D01*
X170183656Y-132937712D01*
X170307712Y-132813656D01*
X170399814Y-132664335D01*
X170454999Y-132497798D01*
X170465500Y-132395010D01*
X170465500Y-130594990D01*
X170454999Y-130492202D01*
X170399814Y-130325665D01*
X170307712Y-130176344D01*
X170183656Y-130052288D01*
X170034335Y-129960186D01*
X169867798Y-129905001D01*
X169867796Y-129905000D01*
X169765017Y-129894500D01*
X169765010Y-129894500D01*
X168307762Y-129894500D01*
X168240723Y-129874815D01*
X168194968Y-129822011D01*
X168185024Y-129752853D01*
X168214049Y-129689297D01*
X168220081Y-129682819D01*
X169171594Y-128731306D01*
X172100964Y-125801935D01*
X172199513Y-125654447D01*
X172219395Y-125606447D01*
X172267395Y-125490566D01*
X172280813Y-125423105D01*
X172313196Y-125361196D01*
X172373912Y-125326621D01*
X172443681Y-125330360D01*
X172475315Y-125346979D01*
X172617182Y-125450050D01*
X172625946Y-125454516D01*
X172676742Y-125502491D01*
X172693536Y-125570312D01*
X172670998Y-125636447D01*
X172625946Y-125675484D01*
X172617182Y-125679949D01*
X172445215Y-125804889D01*
X172297116Y-125952987D01*
X172297112Y-125952991D01*
X172294896Y-125955208D01*
X172289790Y-125962234D01*
X172289770Y-125962261D01*
X172169948Y-126127184D01*
X172073444Y-126316585D01*
X172007753Y-126518760D01*
X171974500Y-126728713D01*
X171974500Y-126941286D01*
X172006455Y-127143045D01*
X172007754Y-127151243D01*
X172069737Y-127342007D01*
X172073444Y-127353414D01*
X172169951Y-127542820D01*
X172294890Y-127714786D01*
X172445213Y-127865109D01*
X172617182Y-127990050D01*
X172625946Y-127994516D01*
X172676742Y-128042491D01*
X172693536Y-128110312D01*
X172670998Y-128176447D01*
X172625946Y-128215484D01*
X172617182Y-128219949D01*
X172445213Y-128344890D01*
X172294890Y-128495213D01*
X172169951Y-128667179D01*
X172073444Y-128856585D01*
X172007753Y-129058760D01*
X171974500Y-129268713D01*
X171974500Y-129481286D01*
X172007445Y-129689297D01*
X172007754Y-129691243D01*
X172067400Y-129874815D01*
X172073444Y-129893414D01*
X172169951Y-130082820D01*
X172294890Y-130254786D01*
X172445213Y-130405109D01*
X172617179Y-130530048D01*
X172617181Y-130530049D01*
X172617184Y-130530051D01*
X172806588Y-130626557D01*
X173008757Y-130692246D01*
X173218713Y-130725500D01*
X173218714Y-130725500D01*
X173431286Y-130725500D01*
X173431287Y-130725500D01*
X173641243Y-130692246D01*
X173843412Y-130626557D01*
X174032816Y-130530051D01*
X174146571Y-130447404D01*
X174204786Y-130405109D01*
X174204788Y-130405106D01*
X174204792Y-130405104D01*
X174355104Y-130254792D01*
X174355106Y-130254788D01*
X174355109Y-130254786D01*
X174480048Y-130082820D01*
X174480047Y-130082820D01*
X174480051Y-130082816D01*
X174576557Y-129893412D01*
X174642246Y-129691243D01*
X174675500Y-129481287D01*
X174675500Y-129268713D01*
X174642246Y-129058757D01*
X174576557Y-128856588D01*
X174480051Y-128667184D01*
X174480049Y-128667181D01*
X174480048Y-128667179D01*
X174355109Y-128495213D01*
X174204786Y-128344890D01*
X174032820Y-128219951D01*
X174032115Y-128219591D01*
X174024054Y-128215485D01*
X173973259Y-128167512D01*
X173956463Y-128099692D01*
X173978999Y-128033556D01*
X174024054Y-127994515D01*
X174032816Y-127990051D01*
X174078214Y-127957068D01*
X174204786Y-127865109D01*
X174204788Y-127865106D01*
X174204792Y-127865104D01*
X174355104Y-127714792D01*
X174355106Y-127714788D01*
X174355109Y-127714786D01*
X174480048Y-127542820D01*
X174480047Y-127542820D01*
X174480051Y-127542816D01*
X174576557Y-127353412D01*
X174642246Y-127151243D01*
X174675500Y-126941287D01*
X174675500Y-126728713D01*
X174642246Y-126518757D01*
X174576557Y-126316588D01*
X174480051Y-126127184D01*
X174480049Y-126127181D01*
X174480048Y-126127179D01*
X174355109Y-125955213D01*
X174204786Y-125804890D01*
X174032820Y-125679951D01*
X174027230Y-125677103D01*
X174024054Y-125675485D01*
X173973259Y-125627512D01*
X173956463Y-125559692D01*
X173978999Y-125493556D01*
X174024054Y-125454515D01*
X174032816Y-125450051D01*
X174069900Y-125423108D01*
X174204786Y-125325109D01*
X174204788Y-125325106D01*
X174204792Y-125325104D01*
X174355104Y-125174792D01*
X174355106Y-125174788D01*
X174355109Y-125174786D01*
X174480048Y-125002820D01*
X174480047Y-125002820D01*
X174480051Y-125002816D01*
X174576557Y-124813412D01*
X174642246Y-124611243D01*
X174675500Y-124401287D01*
X174675500Y-124188713D01*
X174642246Y-123978757D01*
X174576557Y-123776588D01*
X174480051Y-123587184D01*
X174480049Y-123587181D01*
X174480048Y-123587179D01*
X174355109Y-123415213D01*
X174241569Y-123301673D01*
X174208084Y-123240350D01*
X174213068Y-123170658D01*
X174254940Y-123114725D01*
X174285915Y-123097810D01*
X174417331Y-123048796D01*
X174532546Y-122962546D01*
X174618796Y-122847331D01*
X174669091Y-122712483D01*
X174675500Y-122652873D01*
X174675499Y-120857128D01*
X174669091Y-120797517D01*
X174660331Y-120774031D01*
X174618797Y-120662671D01*
X174618793Y-120662664D01*
X174532547Y-120547455D01*
X174532544Y-120547452D01*
X174417335Y-120461206D01*
X174417328Y-120461202D01*
X174282482Y-120410908D01*
X174282483Y-120410908D01*
X174222883Y-120404501D01*
X174222881Y-120404500D01*
X174222873Y-120404500D01*
X174222864Y-120404500D01*
X172427129Y-120404500D01*
X172427123Y-120404501D01*
X172367516Y-120410908D01*
X172232671Y-120461202D01*
X172232668Y-120461204D01*
X172133984Y-120535079D01*
X172068519Y-120559496D01*
X172000246Y-120544644D01*
X171971992Y-120523493D01*
X170045819Y-118597319D01*
X170012334Y-118535996D01*
X170009500Y-118509638D01*
X170009500Y-116907917D01*
X170029185Y-116840878D01*
X170081989Y-116795123D01*
X170110205Y-116787465D01*
X170109981Y-116786415D01*
X170116591Y-116784999D01*
X170116597Y-116784999D01*
X170283134Y-116729814D01*
X170432456Y-116637712D01*
X170556512Y-116513656D01*
X170648614Y-116364334D01*
X170671902Y-116294054D01*
X170675910Y-116286050D01*
X170693860Y-116266772D01*
X170708855Y-116245116D01*
X170717295Y-116241606D01*
X170723525Y-116234917D01*
X170749049Y-116228404D01*
X170773371Y-116218292D01*
X170789634Y-116218048D01*
X170791225Y-116217643D01*
X170792323Y-116218008D01*
X170796519Y-116217946D01*
X170834325Y-116220921D01*
X171513800Y-115541446D01*
X171513800Y-115547661D01*
X171541059Y-115649394D01*
X171593720Y-115740606D01*
X171668194Y-115815080D01*
X171759406Y-115867741D01*
X171861139Y-115895000D01*
X171867353Y-115895000D01*
X171187876Y-116574474D01*
X171232450Y-116606859D01*
X171414768Y-116699755D01*
X171609382Y-116762990D01*
X171811483Y-116795000D01*
X172016117Y-116795000D01*
X172218217Y-116762990D01*
X172412831Y-116699755D01*
X172595149Y-116606859D01*
X172639721Y-116574474D01*
X171960247Y-115895000D01*
X171966461Y-115895000D01*
X172068194Y-115867741D01*
X172159406Y-115815080D01*
X172233880Y-115740606D01*
X172286541Y-115649394D01*
X172313800Y-115547661D01*
X172313800Y-115541448D01*
X172993274Y-116220922D01*
X172993274Y-116220921D01*
X173025659Y-116176349D01*
X173118555Y-115994031D01*
X173181790Y-115799417D01*
X173213800Y-115597317D01*
X173213800Y-115392682D01*
X173181790Y-115190582D01*
X173118555Y-114995968D01*
X173025659Y-114813650D01*
X172993274Y-114769077D01*
X172993274Y-114769076D01*
X172313800Y-115448551D01*
X172313800Y-115442339D01*
X172286541Y-115340606D01*
X172233880Y-115249394D01*
X172159406Y-115174920D01*
X172068194Y-115122259D01*
X171966461Y-115095000D01*
X171960246Y-115095000D01*
X172639722Y-114415524D01*
X172639721Y-114415523D01*
X172595159Y-114383147D01*
X172595150Y-114383141D01*
X172412831Y-114290244D01*
X172213583Y-114225504D01*
X172214194Y-114223620D01*
X172160858Y-114192960D01*
X172128724Y-114130918D01*
X172135235Y-114061352D01*
X172162756Y-114019542D01*
X172745480Y-113436819D01*
X172806803Y-113403334D01*
X172833161Y-113400500D01*
X177166793Y-113400500D01*
X177166794Y-113400499D01*
X177340766Y-113365895D01*
X177422706Y-113331953D01*
X177504647Y-113298013D01*
X177504649Y-113298011D01*
X177504652Y-113298010D01*
X177593055Y-113238939D01*
X177593055Y-113238938D01*
X177593059Y-113238936D01*
X177652136Y-113199464D01*
X179106764Y-111744835D01*
X179180751Y-111634106D01*
X179205313Y-111597347D01*
X179246857Y-111497051D01*
X179261440Y-111461844D01*
X179305279Y-111407443D01*
X179371573Y-111385378D01*
X179439272Y-111402657D01*
X179486883Y-111453793D01*
X179500000Y-111509299D01*
X179500000Y-142149903D01*
X179480315Y-142216942D01*
X179473611Y-142226376D01*
X179375525Y-142351573D01*
X179365595Y-142362781D01*
X179162781Y-142565595D01*
X179151574Y-142575524D01*
X179026378Y-142673610D01*
X178961466Y-142699460D01*
X178949904Y-142700000D01*
X102124000Y-142700000D01*
X102056961Y-142680315D01*
X102011206Y-142627511D01*
X102000000Y-142576000D01*
X102000000Y-139581995D01*
X174698200Y-139581995D01*
X174698200Y-139818004D01*
X174698201Y-139818020D01*
X174729006Y-140052010D01*
X174790094Y-140279993D01*
X174880414Y-140498045D01*
X174880419Y-140498056D01*
X174951377Y-140620957D01*
X174998427Y-140702450D01*
X174998429Y-140702453D01*
X174998430Y-140702454D01*
X175142106Y-140889697D01*
X175142112Y-140889704D01*
X175308995Y-141056587D01*
X175309001Y-141056592D01*
X175496250Y-141200273D01*
X175627618Y-141276118D01*
X175700643Y-141318280D01*
X175700648Y-141318282D01*
X175700651Y-141318284D01*
X175918707Y-141408606D01*
X176146686Y-141469693D01*
X176380689Y-141500500D01*
X176380696Y-141500500D01*
X176616704Y-141500500D01*
X176616711Y-141500500D01*
X176850714Y-141469693D01*
X177078693Y-141408606D01*
X177296749Y-141318284D01*
X177501150Y-141200273D01*
X177688399Y-141056592D01*
X177855292Y-140889699D01*
X177998973Y-140702450D01*
X178116984Y-140498049D01*
X178207306Y-140279993D01*
X178268393Y-140052014D01*
X178299200Y-139818011D01*
X178299200Y-139581989D01*
X178268393Y-139347986D01*
X178207306Y-139120007D01*
X178116984Y-138901951D01*
X178116982Y-138901948D01*
X178116980Y-138901943D01*
X178074818Y-138828918D01*
X177998973Y-138697550D01*
X177855292Y-138510301D01*
X177855287Y-138510295D01*
X177688404Y-138343412D01*
X177688397Y-138343406D01*
X177501154Y-138199730D01*
X177501153Y-138199729D01*
X177501150Y-138199727D01*
X177419657Y-138152677D01*
X177296756Y-138081719D01*
X177296745Y-138081714D01*
X177078693Y-137991394D01*
X176850710Y-137930306D01*
X176616720Y-137899501D01*
X176616717Y-137899500D01*
X176616711Y-137899500D01*
X176380689Y-137899500D01*
X176380683Y-137899500D01*
X176380679Y-137899501D01*
X176146689Y-137930306D01*
X175918706Y-137991394D01*
X175700654Y-138081714D01*
X175700643Y-138081719D01*
X175496245Y-138199730D01*
X175309002Y-138343406D01*
X175308995Y-138343412D01*
X175142112Y-138510295D01*
X175142106Y-138510302D01*
X174998430Y-138697545D01*
X174880419Y-138901943D01*
X174880414Y-138901954D01*
X174790094Y-139120006D01*
X174729006Y-139347989D01*
X174698201Y-139581979D01*
X174698200Y-139581995D01*
X102000000Y-139581995D01*
X102000000Y-126027135D01*
X138044500Y-126027135D01*
X138044500Y-127922870D01*
X138044501Y-127922876D01*
X138050908Y-127982483D01*
X138101202Y-128117328D01*
X138101206Y-128117335D01*
X138187452Y-128232544D01*
X138187455Y-128232547D01*
X138302664Y-128318793D01*
X138302671Y-128318797D01*
X138437517Y-128369091D01*
X138437516Y-128369091D01*
X138444444Y-128369835D01*
X138497127Y-128375500D01*
X140392872Y-128375499D01*
X140452483Y-128369091D01*
X140587331Y-128318796D01*
X140702546Y-128232546D01*
X140788796Y-128117331D01*
X140795375Y-128099692D01*
X140818601Y-128037420D01*
X140860471Y-127981486D01*
X140925936Y-127957068D01*
X140994209Y-127971919D01*
X141022464Y-127993071D01*
X141072636Y-128043243D01*
X141072641Y-128043247D01*
X141086364Y-128053217D01*
X141250978Y-128172815D01*
X141379375Y-128238237D01*
X141447393Y-128272895D01*
X141447396Y-128272896D01*
X141552221Y-128306955D01*
X141657049Y-128341015D01*
X141874778Y-128375500D01*
X141874779Y-128375500D01*
X142095221Y-128375500D01*
X142095222Y-128375500D01*
X142312951Y-128341015D01*
X142522606Y-128272895D01*
X142719022Y-128172815D01*
X142897365Y-128043242D01*
X143053242Y-127887365D01*
X143182815Y-127709022D01*
X143282895Y-127512606D01*
X143351015Y-127302951D01*
X143385500Y-127085222D01*
X143385500Y-126864778D01*
X143351015Y-126647049D01*
X143282895Y-126437394D01*
X143282895Y-126437393D01*
X143236072Y-126345500D01*
X143182815Y-126240978D01*
X143152846Y-126199729D01*
X143053247Y-126062641D01*
X143053243Y-126062636D01*
X142897359Y-125906752D01*
X142888373Y-125900224D01*
X142757001Y-125804778D01*
X145034500Y-125804778D01*
X145034500Y-126025221D01*
X145068985Y-126242952D01*
X145137103Y-126452603D01*
X145137104Y-126452606D01*
X145237187Y-126649025D01*
X145366752Y-126827358D01*
X145366756Y-126827363D01*
X145417316Y-126877923D01*
X145450801Y-126939246D01*
X145445817Y-127008938D01*
X145403945Y-127064871D01*
X145372969Y-127081785D01*
X145292918Y-127111643D01*
X145292906Y-127111649D01*
X145177812Y-127197809D01*
X145177809Y-127197812D01*
X145091649Y-127312906D01*
X145091645Y-127312913D01*
X145041403Y-127447620D01*
X145041401Y-127447627D01*
X145035000Y-127507155D01*
X145035000Y-128205000D01*
X146059722Y-128205000D01*
X146015667Y-128281306D01*
X145985000Y-128395756D01*
X145985000Y-128514244D01*
X146015667Y-128628694D01*
X146059722Y-128705000D01*
X145035000Y-128705000D01*
X145035000Y-129402844D01*
X145041401Y-129462372D01*
X145041403Y-129462379D01*
X145091645Y-129597086D01*
X145091649Y-129597093D01*
X145177809Y-129712187D01*
X145177812Y-129712190D01*
X145292906Y-129798350D01*
X145292913Y-129798354D01*
X145427620Y-129848596D01*
X145427627Y-129848598D01*
X145487155Y-129854999D01*
X145487172Y-129855000D01*
X146185000Y-129855000D01*
X146185000Y-128830277D01*
X146261306Y-128874333D01*
X146375756Y-128905000D01*
X146494244Y-128905000D01*
X146608694Y-128874333D01*
X146685000Y-128830277D01*
X146685000Y-129855000D01*
X147382828Y-129855000D01*
X147382844Y-129854999D01*
X147442372Y-129848598D01*
X147442379Y-129848596D01*
X147577086Y-129798354D01*
X147577093Y-129798350D01*
X147692187Y-129712190D01*
X147692190Y-129712187D01*
X147778350Y-129597093D01*
X147778354Y-129597086D01*
X147828596Y-129462379D01*
X147828598Y-129462372D01*
X147834999Y-129402844D01*
X147835000Y-129402827D01*
X147835000Y-128705000D01*
X146810278Y-128705000D01*
X146854333Y-128628694D01*
X146885000Y-128514244D01*
X146885000Y-128395756D01*
X146854333Y-128281306D01*
X146810278Y-128205000D01*
X147835000Y-128205000D01*
X147835000Y-127507172D01*
X147834999Y-127507155D01*
X147828598Y-127447627D01*
X147828596Y-127447620D01*
X147778354Y-127312913D01*
X147778350Y-127312906D01*
X147692190Y-127197812D01*
X147692187Y-127197809D01*
X147577093Y-127111649D01*
X147577087Y-127111646D01*
X147497030Y-127081786D01*
X147441097Y-127039914D01*
X147416680Y-126974450D01*
X147431532Y-126906177D01*
X147452681Y-126877925D01*
X147503242Y-126827365D01*
X147632815Y-126649022D01*
X147732895Y-126452606D01*
X147801015Y-126242951D01*
X147835500Y-126025222D01*
X147835500Y-125804778D01*
X147801015Y-125587049D01*
X147766955Y-125482221D01*
X147732896Y-125377396D01*
X147732895Y-125377393D01*
X147694483Y-125302007D01*
X147632815Y-125180978D01*
X147616260Y-125158192D01*
X147503247Y-125002641D01*
X147503243Y-125002636D01*
X147347363Y-124846756D01*
X147347358Y-124846752D01*
X147169025Y-124717187D01*
X147169024Y-124717186D01*
X147169022Y-124717185D01*
X147093829Y-124678872D01*
X146972606Y-124617104D01*
X146972603Y-124617103D01*
X146762952Y-124548985D01*
X146654086Y-124531742D01*
X146545222Y-124514500D01*
X146324778Y-124514500D01*
X146252201Y-124525995D01*
X146107047Y-124548985D01*
X145897396Y-124617103D01*
X145897393Y-124617104D01*
X145700974Y-124717187D01*
X145522641Y-124846752D01*
X145522636Y-124846756D01*
X145366756Y-125002636D01*
X145366752Y-125002641D01*
X145237187Y-125180974D01*
X145137104Y-125377393D01*
X145137103Y-125377396D01*
X145068985Y-125587047D01*
X145034500Y-125804778D01*
X142757001Y-125804778D01*
X142719025Y-125777187D01*
X142719024Y-125777186D01*
X142719022Y-125777185D01*
X142601791Y-125717452D01*
X142522606Y-125677104D01*
X142522603Y-125677103D01*
X142312952Y-125608985D01*
X142174440Y-125587047D01*
X142095222Y-125574500D01*
X141874778Y-125574500D01*
X141802201Y-125585995D01*
X141657047Y-125608985D01*
X141447396Y-125677103D01*
X141447393Y-125677104D01*
X141250974Y-125777187D01*
X141072641Y-125906752D01*
X141072636Y-125906756D01*
X141022463Y-125956929D01*
X140961140Y-125990413D01*
X140891448Y-125985428D01*
X140835515Y-125943557D01*
X140818601Y-125912580D01*
X140788797Y-125832671D01*
X140788793Y-125832664D01*
X140702547Y-125717455D01*
X140702544Y-125717452D01*
X140587335Y-125631206D01*
X140587328Y-125631202D01*
X140452482Y-125580908D01*
X140452483Y-125580908D01*
X140392883Y-125574501D01*
X140392881Y-125574500D01*
X140392873Y-125574500D01*
X140392864Y-125574500D01*
X138497129Y-125574500D01*
X138497123Y-125574501D01*
X138437516Y-125580908D01*
X138302671Y-125631202D01*
X138302664Y-125631206D01*
X138187455Y-125717452D01*
X138187452Y-125717455D01*
X138101206Y-125832664D01*
X138101202Y-125832671D01*
X138050908Y-125967517D01*
X138044501Y-126027116D01*
X138044500Y-126027135D01*
X102000000Y-126027135D01*
X102000000Y-84439220D01*
X102019685Y-84372181D01*
X102072489Y-84326426D01*
X102141647Y-84316482D01*
X102205203Y-84345507D01*
X102242977Y-84404285D01*
X102243775Y-84407127D01*
X102290093Y-84579991D01*
X102380414Y-84798045D01*
X102380419Y-84798056D01*
X102451377Y-84920957D01*
X102498427Y-85002450D01*
X102498429Y-85002453D01*
X102498430Y-85002454D01*
X102642106Y-85189697D01*
X102642112Y-85189704D01*
X102808995Y-85356587D01*
X102809001Y-85356592D01*
X102996250Y-85500273D01*
X103127618Y-85576118D01*
X103200643Y-85618280D01*
X103200648Y-85618282D01*
X103200651Y-85618284D01*
X103418707Y-85708606D01*
X103646686Y-85769693D01*
X103880689Y-85800500D01*
X103880696Y-85800500D01*
X104116704Y-85800500D01*
X104116711Y-85800500D01*
X104350714Y-85769693D01*
X104578693Y-85708606D01*
X104796749Y-85618284D01*
X105001150Y-85500273D01*
X105188399Y-85356592D01*
X105355292Y-85189699D01*
X105498973Y-85002450D01*
X105616984Y-84798049D01*
X105707306Y-84579993D01*
X105768393Y-84352014D01*
X105799200Y-84118011D01*
X105799200Y-83881989D01*
X105768393Y-83647986D01*
X105707306Y-83420007D01*
X105616984Y-83201951D01*
X105616982Y-83201948D01*
X105616980Y-83201943D01*
X105574818Y-83128918D01*
X105498973Y-82997550D01*
X105355292Y-82810301D01*
X105355287Y-82810295D01*
X105188404Y-82643412D01*
X105188397Y-82643406D01*
X105001154Y-82499730D01*
X105001153Y-82499729D01*
X105001150Y-82499727D01*
X104919657Y-82452677D01*
X104796756Y-82381719D01*
X104796745Y-82381714D01*
X104578693Y-82291394D01*
X104350710Y-82230306D01*
X104116720Y-82199501D01*
X104116717Y-82199500D01*
X104116711Y-82199500D01*
X103880689Y-82199500D01*
X103880683Y-82199500D01*
X103880679Y-82199501D01*
X103646689Y-82230306D01*
X103418706Y-82291394D01*
X103200654Y-82381714D01*
X103200643Y-82381719D01*
X102996245Y-82499730D01*
X102809002Y-82643406D01*
X102808995Y-82643412D01*
X102642112Y-82810295D01*
X102642106Y-82810302D01*
X102498430Y-82997545D01*
X102498427Y-82997549D01*
X102498427Y-82997550D01*
X102490714Y-83010909D01*
X102380419Y-83201943D01*
X102380414Y-83201954D01*
X102290094Y-83420006D01*
X102290094Y-83420007D01*
X102251584Y-83563730D01*
X102243775Y-83592873D01*
X102207410Y-83652533D01*
X102144563Y-83683062D01*
X102075187Y-83674767D01*
X102021309Y-83630282D01*
X102000035Y-83563730D01*
X102000000Y-83560779D01*
X102000000Y-81124000D01*
X102019685Y-81056961D01*
X102072489Y-81011206D01*
X102124000Y-81000000D01*
X178949904Y-81000000D01*
X179016943Y-81019685D01*
G37*
%TD.AperFunction*%
%TA.AperFunction,Conductor*%
G36*
X167239179Y-130304085D02*
G01*
X167284934Y-130356889D01*
X167294878Y-130426047D01*
X167289846Y-130447399D01*
X167275001Y-130492202D01*
X167275001Y-130492203D01*
X167275000Y-130492203D01*
X167264500Y-130594982D01*
X167264500Y-131770638D01*
X167244815Y-131837677D01*
X167228181Y-131858319D01*
X163637919Y-135448581D01*
X163576596Y-135482066D01*
X163550238Y-135484900D01*
X149226262Y-135484900D01*
X149159223Y-135465215D01*
X149138580Y-135448581D01*
X149077218Y-135387218D01*
X149043734Y-135325894D01*
X149040900Y-135299537D01*
X149040900Y-134735599D01*
X149060585Y-134668560D01*
X149113389Y-134622805D01*
X149182547Y-134612861D01*
X149246103Y-134641886D01*
X149279460Y-134688144D01*
X149294787Y-134725147D01*
X149294788Y-134725149D01*
X149294790Y-134725153D01*
X149393335Y-134872634D01*
X149393338Y-134872638D01*
X149518761Y-134998061D01*
X149518765Y-134998064D01*
X149666246Y-135096609D01*
X149666259Y-135096616D01*
X149789163Y-135147523D01*
X149830134Y-135164494D01*
X149830136Y-135164494D01*
X149830141Y-135164496D01*
X150004104Y-135199099D01*
X150004107Y-135199100D01*
X150004109Y-135199100D01*
X150614393Y-135199100D01*
X150614394Y-135199099D01*
X150788366Y-135164495D01*
X150870306Y-135130553D01*
X150952247Y-135096613D01*
X151060267Y-135024436D01*
X151099736Y-134998064D01*
X151990980Y-134106817D01*
X152052303Y-134073333D01*
X152078661Y-134070499D01*
X152431123Y-134070499D01*
X152431123Y-134070498D01*
X152473889Y-134067600D01*
X152658693Y-134021641D01*
X152829296Y-133937030D01*
X152977722Y-133817722D01*
X153033675Y-133748112D01*
X153091015Y-133708196D01*
X153160837Y-133705616D01*
X153220970Y-133741194D01*
X153226967Y-133748115D01*
X153282632Y-133817366D01*
X153282633Y-133817367D01*
X153430974Y-133936607D01*
X153430977Y-133936609D01*
X153601476Y-134021168D01*
X153786175Y-134067102D01*
X153828903Y-134070000D01*
X154030000Y-134070000D01*
X154530000Y-134070000D01*
X154731097Y-134070000D01*
X154773824Y-134067102D01*
X154958523Y-134021168D01*
X155129022Y-133936609D01*
X155129025Y-133936607D01*
X155277366Y-133817367D01*
X155277367Y-133817366D01*
X155396607Y-133669025D01*
X155396609Y-133669022D01*
X155481168Y-133498523D01*
X155527102Y-133313824D01*
X155530000Y-133271096D01*
X155530000Y-132820000D01*
X154530000Y-132820000D01*
X154530000Y-134070000D01*
X154030000Y-134070000D01*
X154030000Y-132320000D01*
X154530000Y-132320000D01*
X155530000Y-132320000D01*
X155530000Y-131868903D01*
X155527102Y-131826175D01*
X155481168Y-131641476D01*
X155396609Y-131470977D01*
X155396607Y-131470974D01*
X155277367Y-131322633D01*
X155277366Y-131322632D01*
X155129025Y-131203392D01*
X155129022Y-131203390D01*
X154958523Y-131118831D01*
X154773824Y-131072897D01*
X154731097Y-131070000D01*
X154530000Y-131070000D01*
X154530000Y-132320000D01*
X154030000Y-132320000D01*
X154030000Y-131070000D01*
X153828903Y-131070000D01*
X153786175Y-131072897D01*
X153601476Y-131118831D01*
X153430977Y-131203390D01*
X153430974Y-131203392D01*
X153282635Y-131322631D01*
X153226967Y-131391885D01*
X153169624Y-131431803D01*
X153099801Y-131434383D01*
X153039669Y-131398804D01*
X153033673Y-131391884D01*
X152977724Y-131322280D01*
X152977720Y-131322277D01*
X152976910Y-131321625D01*
X152926811Y-131281353D01*
X152886893Y-131224009D01*
X152880500Y-131184707D01*
X152880500Y-130408400D01*
X152900185Y-130341361D01*
X152952989Y-130295606D01*
X153004500Y-130284400D01*
X167172140Y-130284400D01*
X167239179Y-130304085D01*
G37*
%TD.AperFunction*%
%TA.AperFunction,Conductor*%
G36*
X159988492Y-121432568D02*
G01*
X160005454Y-121446744D01*
X161409316Y-122850606D01*
X161409345Y-122850637D01*
X161499564Y-122940856D01*
X161499567Y-122940858D01*
X161550790Y-122975084D01*
X161602014Y-123009312D01*
X161647951Y-123028339D01*
X161702355Y-123072178D01*
X161724421Y-123138471D01*
X161724500Y-123142899D01*
X161724500Y-123352869D01*
X161724501Y-123352876D01*
X161730908Y-123412483D01*
X161781202Y-123547328D01*
X161781206Y-123547335D01*
X161867452Y-123662544D01*
X161867455Y-123662547D01*
X161982664Y-123748793D01*
X161982671Y-123748797D01*
X162114082Y-123797810D01*
X162170016Y-123839681D01*
X162194433Y-123905145D01*
X162179582Y-123973418D01*
X162158431Y-124001673D01*
X162044889Y-124115215D01*
X161919951Y-124287179D01*
X161823444Y-124476585D01*
X161757753Y-124678760D01*
X161724500Y-124888713D01*
X161724500Y-125101286D01*
X161757735Y-125311127D01*
X161757754Y-125311243D01*
X161816991Y-125493556D01*
X161823444Y-125513414D01*
X161919951Y-125702820D01*
X162044890Y-125874786D01*
X162195213Y-126025109D01*
X162367179Y-126150048D01*
X162367181Y-126150049D01*
X162367184Y-126150051D01*
X162376493Y-126154794D01*
X162427290Y-126202766D01*
X162444087Y-126270587D01*
X162421552Y-126336722D01*
X162376505Y-126375760D01*
X162367446Y-126380376D01*
X162367440Y-126380380D01*
X162313282Y-126419727D01*
X162313282Y-126419728D01*
X162945591Y-127052037D01*
X162882007Y-127069075D01*
X162767993Y-127134901D01*
X162674901Y-127227993D01*
X162609075Y-127342007D01*
X162592037Y-127405591D01*
X161959728Y-126773282D01*
X161959727Y-126773282D01*
X161920380Y-126827439D01*
X161823904Y-127016782D01*
X161758242Y-127218869D01*
X161758242Y-127218872D01*
X161725000Y-127428753D01*
X161725000Y-127641246D01*
X161758242Y-127851127D01*
X161758242Y-127851130D01*
X161823904Y-128053217D01*
X161920377Y-128242554D01*
X161952316Y-128286514D01*
X161975796Y-128352321D01*
X161959971Y-128420375D01*
X161909865Y-128469070D01*
X161851998Y-128483400D01*
X159668002Y-128483400D01*
X159600963Y-128463715D01*
X159555208Y-128410911D01*
X159545264Y-128341753D01*
X159567684Y-128286514D01*
X159599622Y-128242554D01*
X159696095Y-128053217D01*
X159761757Y-127851130D01*
X159761757Y-127851127D01*
X159795000Y-127641246D01*
X159795000Y-127428753D01*
X159761757Y-127218872D01*
X159761757Y-127218869D01*
X159696095Y-127016782D01*
X159599624Y-126827449D01*
X159560270Y-126773282D01*
X159560269Y-126773282D01*
X158927962Y-127405589D01*
X158910925Y-127342007D01*
X158845099Y-127227993D01*
X158752007Y-127134901D01*
X158637993Y-127069075D01*
X158574409Y-127052037D01*
X159206716Y-126419728D01*
X159152550Y-126380375D01*
X159142954Y-126375486D01*
X159092157Y-126327512D01*
X159075361Y-126259692D01*
X159097897Y-126193556D01*
X159142954Y-126154514D01*
X159152554Y-126149622D01*
X159206716Y-126110270D01*
X159206717Y-126110270D01*
X158574408Y-125477962D01*
X158637993Y-125460925D01*
X158752007Y-125395099D01*
X158845099Y-125302007D01*
X158910925Y-125187993D01*
X158927962Y-125124408D01*
X159560270Y-125756717D01*
X159560270Y-125756716D01*
X159599622Y-125702554D01*
X159696095Y-125513217D01*
X159761757Y-125311130D01*
X159761757Y-125311127D01*
X159795000Y-125101246D01*
X159795000Y-124888753D01*
X159761757Y-124678872D01*
X159761757Y-124678869D01*
X159696095Y-124476782D01*
X159599624Y-124287449D01*
X159560270Y-124233282D01*
X159560269Y-124233282D01*
X158927962Y-124865590D01*
X158910925Y-124802007D01*
X158845099Y-124687993D01*
X158752007Y-124594901D01*
X158637993Y-124529075D01*
X158574409Y-124512037D01*
X159244627Y-123841818D01*
X159305950Y-123808333D01*
X159332307Y-123805499D01*
X159342872Y-123805499D01*
X159402483Y-123799091D01*
X159537331Y-123748796D01*
X159652546Y-123662546D01*
X159738796Y-123547331D01*
X159789091Y-123412483D01*
X159795500Y-123352873D01*
X159795499Y-121557128D01*
X159795498Y-121557116D01*
X159795498Y-121557112D01*
X159794484Y-121547681D01*
X159806889Y-121478922D01*
X159854498Y-121427784D01*
X159922198Y-121410504D01*
X159988492Y-121432568D01*
G37*
%TD.AperFunction*%
%TA.AperFunction,Conductor*%
G36*
X164335556Y-116415185D02*
G01*
X164381311Y-116467989D01*
X164391255Y-116537147D01*
X164362230Y-116600703D01*
X164306835Y-116637431D01*
X164099197Y-116704897D01*
X163888830Y-116812084D01*
X163805894Y-116872340D01*
X164504766Y-117571212D01*
X164462708Y-117582482D01*
X164337292Y-117654890D01*
X164234890Y-117757292D01*
X164162482Y-117882708D01*
X164151212Y-117924766D01*
X163452340Y-117225894D01*
X163392084Y-117308830D01*
X163284897Y-117519197D01*
X163211934Y-117743752D01*
X163175000Y-117976947D01*
X163175000Y-118213052D01*
X163211934Y-118446247D01*
X163284897Y-118670802D01*
X163392087Y-118881174D01*
X163452338Y-118964104D01*
X163452340Y-118964105D01*
X164151212Y-118265233D01*
X164162482Y-118307292D01*
X164234890Y-118432708D01*
X164337292Y-118535110D01*
X164462708Y-118607518D01*
X164504765Y-118618787D01*
X163805893Y-119317658D01*
X163888828Y-119377914D01*
X164099197Y-119485102D01*
X164323752Y-119558065D01*
X164323751Y-119558065D01*
X164556948Y-119595000D01*
X164793052Y-119595000D01*
X165026247Y-119558065D01*
X165250802Y-119485102D01*
X165461163Y-119377918D01*
X165461169Y-119377914D01*
X165544104Y-119317658D01*
X165544105Y-119317658D01*
X164845233Y-118618787D01*
X164887292Y-118607518D01*
X165012708Y-118535110D01*
X165115110Y-118432708D01*
X165187518Y-118307292D01*
X165198787Y-118265234D01*
X165897658Y-118964105D01*
X165897658Y-118964104D01*
X165957914Y-118881169D01*
X165957918Y-118881163D01*
X166065102Y-118670802D01*
X166138065Y-118446247D01*
X166175000Y-118213052D01*
X166175000Y-117976947D01*
X166138065Y-117743752D01*
X166065102Y-117519197D01*
X165957914Y-117308828D01*
X165897658Y-117225894D01*
X165897658Y-117225893D01*
X165198787Y-117924765D01*
X165187518Y-117882708D01*
X165115110Y-117757292D01*
X165012708Y-117654890D01*
X164887292Y-117582482D01*
X164845234Y-117571212D01*
X165544105Y-116872340D01*
X165544104Y-116872338D01*
X165461174Y-116812087D01*
X165250802Y-116704897D01*
X165043165Y-116637431D01*
X164985489Y-116597993D01*
X164958291Y-116533635D01*
X164970206Y-116464788D01*
X165017450Y-116413313D01*
X165081483Y-116395500D01*
X168084500Y-116395500D01*
X168151539Y-116415185D01*
X168197294Y-116467989D01*
X168208500Y-116519500D01*
X168208500Y-119022696D01*
X168243103Y-119196658D01*
X168243106Y-119196670D01*
X168265777Y-119251401D01*
X168310985Y-119360544D01*
X168370063Y-119448960D01*
X168370064Y-119448961D01*
X168409534Y-119508034D01*
X168486910Y-119585410D01*
X168520395Y-119646733D01*
X168515411Y-119716425D01*
X168473539Y-119772358D01*
X168437548Y-119791022D01*
X168250616Y-119851760D01*
X168026151Y-119966132D01*
X167822350Y-120114201D01*
X167822345Y-120114205D01*
X167644205Y-120292345D01*
X167644201Y-120292350D01*
X167496132Y-120496151D01*
X167381760Y-120720616D01*
X167303910Y-120960214D01*
X167281107Y-121104184D01*
X167264500Y-121209038D01*
X167264500Y-121460962D01*
X167280978Y-121564998D01*
X167303910Y-121709785D01*
X167381760Y-121949383D01*
X167460413Y-122103747D01*
X167492168Y-122166070D01*
X167496132Y-122173848D01*
X167644201Y-122377649D01*
X167644205Y-122377654D01*
X167822345Y-122555794D01*
X167822350Y-122555798D01*
X167955951Y-122652864D01*
X168026155Y-122703870D01*
X168169184Y-122776747D01*
X168250616Y-122818239D01*
X168250618Y-122818239D01*
X168250621Y-122818241D01*
X168490215Y-122896090D01*
X168739038Y-122935500D01*
X168739039Y-122935500D01*
X168990961Y-122935500D01*
X168990962Y-122935500D01*
X169239785Y-122896090D01*
X169479379Y-122818241D01*
X169703845Y-122703870D01*
X169907656Y-122555793D01*
X170085793Y-122377656D01*
X170233870Y-122173845D01*
X170266515Y-122109774D01*
X170314489Y-122058979D01*
X170382310Y-122042184D01*
X170448445Y-122064721D01*
X170491897Y-122119436D01*
X170501000Y-122166070D01*
X170501000Y-124803538D01*
X170481315Y-124870577D01*
X170464681Y-124891219D01*
X166908819Y-128447081D01*
X166847496Y-128480566D01*
X166821138Y-128483400D01*
X164298002Y-128483400D01*
X164230963Y-128463715D01*
X164185208Y-128410911D01*
X164175264Y-128341753D01*
X164197684Y-128286514D01*
X164229622Y-128242554D01*
X164326095Y-128053217D01*
X164391757Y-127851130D01*
X164391757Y-127851127D01*
X164425000Y-127641246D01*
X164425000Y-127428753D01*
X164391757Y-127218872D01*
X164391757Y-127218869D01*
X164326095Y-127016782D01*
X164229624Y-126827449D01*
X164190270Y-126773282D01*
X164190269Y-126773282D01*
X163557962Y-127405589D01*
X163540925Y-127342007D01*
X163475099Y-127227993D01*
X163382007Y-127134901D01*
X163267993Y-127069075D01*
X163204409Y-127052037D01*
X163836716Y-126419728D01*
X163782547Y-126380373D01*
X163782547Y-126380372D01*
X163773500Y-126375763D01*
X163722706Y-126327788D01*
X163705912Y-126259966D01*
X163728451Y-126193832D01*
X163773508Y-126154793D01*
X163782816Y-126150051D01*
X163881187Y-126078581D01*
X163954786Y-126025109D01*
X163954788Y-126025106D01*
X163954792Y-126025104D01*
X164105104Y-125874792D01*
X164105106Y-125874788D01*
X164105109Y-125874786D01*
X164219417Y-125717452D01*
X164230051Y-125702816D01*
X164326557Y-125513412D01*
X164392246Y-125311243D01*
X164425500Y-125101287D01*
X164425500Y-124888713D01*
X164392246Y-124678757D01*
X164387177Y-124663159D01*
X164385183Y-124593321D01*
X164417428Y-124537162D01*
X164774455Y-124180136D01*
X164774455Y-124180135D01*
X164774458Y-124180133D01*
X164842912Y-124077685D01*
X164883889Y-123978757D01*
X164890063Y-123963852D01*
X164894051Y-123943802D01*
X164914101Y-123843006D01*
X164914101Y-123719793D01*
X164914101Y-123714683D01*
X164914100Y-123714657D01*
X164914100Y-121554841D01*
X164914101Y-121554820D01*
X164914101Y-121425491D01*
X164895949Y-121334242D01*
X164890063Y-121304649D01*
X164842912Y-121190815D01*
X164774458Y-121088367D01*
X164774455Y-121088363D01*
X163173325Y-119487235D01*
X163164259Y-119478169D01*
X163164258Y-119478167D01*
X163077133Y-119391042D01*
X163025909Y-119356815D01*
X162974686Y-119322588D01*
X162974683Y-119322586D01*
X162974680Y-119322585D01*
X162894192Y-119289247D01*
X162860853Y-119275437D01*
X162850827Y-119273443D01*
X162800429Y-119263418D01*
X162740010Y-119251400D01*
X162740007Y-119251400D01*
X162740006Y-119251400D01*
X159432291Y-119251400D01*
X159365252Y-119231715D01*
X159319497Y-119178911D01*
X159309553Y-119109753D01*
X159331973Y-119054514D01*
X159457914Y-118881171D01*
X159565102Y-118670802D01*
X159638065Y-118446247D01*
X159675000Y-118213052D01*
X159675000Y-117976947D01*
X159638065Y-117743752D01*
X159565102Y-117519197D01*
X159457914Y-117308828D01*
X159397658Y-117225894D01*
X159397658Y-117225893D01*
X158698787Y-117924764D01*
X158687518Y-117882708D01*
X158615110Y-117757292D01*
X158512708Y-117654890D01*
X158387292Y-117582482D01*
X158345234Y-117571212D01*
X159044105Y-116872340D01*
X159044104Y-116872338D01*
X158961174Y-116812087D01*
X158750802Y-116704897D01*
X158543165Y-116637431D01*
X158485489Y-116597993D01*
X158458291Y-116533635D01*
X158470206Y-116464788D01*
X158517450Y-116413313D01*
X158581483Y-116395500D01*
X164268517Y-116395500D01*
X164335556Y-116415185D01*
G37*
%TD.AperFunction*%
%TA.AperFunction,Conductor*%
G36*
X142749502Y-110155538D02*
G01*
X142755980Y-110161570D01*
X152122528Y-119528119D01*
X152156013Y-119589442D01*
X152151029Y-119659134D01*
X152109157Y-119715067D01*
X152043693Y-119739484D01*
X152034847Y-119739800D01*
X151241353Y-119739800D01*
X151174314Y-119720115D01*
X151153672Y-119703481D01*
X149635228Y-118185038D01*
X149635225Y-118185034D01*
X149635225Y-118185035D01*
X149628158Y-118177968D01*
X149628158Y-118177967D01*
X149541033Y-118090842D01*
X149541032Y-118090841D01*
X149541031Y-118090840D01*
X149489809Y-118056615D01*
X149438586Y-118022388D01*
X149438583Y-118022386D01*
X149438580Y-118022385D01*
X149358092Y-117989047D01*
X149324754Y-117975238D01*
X149324755Y-117975238D01*
X149324752Y-117975237D01*
X149324748Y-117975236D01*
X149324744Y-117975235D01*
X149250731Y-117960513D01*
X149250730Y-117960513D01*
X149203911Y-117951200D01*
X149203907Y-117951200D01*
X149203906Y-117951200D01*
X144514525Y-117951200D01*
X144447486Y-117931515D01*
X144405001Y-117882485D01*
X144404062Y-117882987D01*
X144401850Y-117878848D01*
X144401731Y-117878711D01*
X144401529Y-117878249D01*
X144401192Y-117877617D01*
X144313589Y-117746511D01*
X144313586Y-117746507D01*
X144202092Y-117635013D01*
X144202088Y-117635010D01*
X144070985Y-117547409D01*
X144070972Y-117547402D01*
X143925301Y-117487064D01*
X143925289Y-117487061D01*
X143770645Y-117456300D01*
X143770642Y-117456300D01*
X143612958Y-117456300D01*
X143612955Y-117456300D01*
X143458310Y-117487061D01*
X143458298Y-117487064D01*
X143312627Y-117547402D01*
X143312614Y-117547409D01*
X143181511Y-117635010D01*
X143181507Y-117635013D01*
X143070013Y-117746507D01*
X143070010Y-117746511D01*
X142982409Y-117877614D01*
X142982402Y-117877627D01*
X142922064Y-118023298D01*
X142922061Y-118023310D01*
X142891300Y-118177953D01*
X142891300Y-118335646D01*
X142922061Y-118490289D01*
X142922064Y-118490301D01*
X142982402Y-118635972D01*
X142982409Y-118635985D01*
X143070010Y-118767088D01*
X143073876Y-118771799D01*
X143071800Y-118773502D01*
X143099725Y-118824642D01*
X143094741Y-118894334D01*
X143052869Y-118950267D01*
X142987405Y-118974684D01*
X142978559Y-118975000D01*
X142841483Y-118975000D01*
X142639382Y-119007009D01*
X142444768Y-119070244D01*
X142262444Y-119163143D01*
X142217877Y-119195523D01*
X142217877Y-119195524D01*
X142897353Y-119875000D01*
X142891139Y-119875000D01*
X142789406Y-119902259D01*
X142698194Y-119954920D01*
X142623720Y-120029394D01*
X142571059Y-120120606D01*
X142543800Y-120222339D01*
X142543800Y-120228553D01*
X141864324Y-119549077D01*
X141826519Y-119552053D01*
X141758141Y-119537689D01*
X141708384Y-119488638D01*
X141699085Y-119467444D01*
X141678614Y-119405666D01*
X141586512Y-119256344D01*
X141462456Y-119132288D01*
X141462455Y-119132287D01*
X141403202Y-119095739D01*
X141356478Y-119043791D01*
X141344300Y-118990201D01*
X141344300Y-112159499D01*
X141363985Y-112092460D01*
X141416789Y-112046705D01*
X141468300Y-112035499D01*
X141843802Y-112035499D01*
X141843808Y-112035499D01*
X141946597Y-112024999D01*
X142113134Y-111969814D01*
X142262456Y-111877712D01*
X142386512Y-111753656D01*
X142478614Y-111604334D01*
X142533799Y-111437797D01*
X142544300Y-111335009D01*
X142544299Y-110249250D01*
X142563984Y-110182212D01*
X142616787Y-110136457D01*
X142685946Y-110126513D01*
X142749502Y-110155538D01*
G37*
%TD.AperFunction*%
%TA.AperFunction,Conductor*%
G36*
X148743577Y-109950685D02*
G01*
X148764219Y-109967319D01*
X154865936Y-116069035D01*
X154973250Y-116176349D01*
X154991366Y-116194465D01*
X155064608Y-116243404D01*
X155138853Y-116293013D01*
X155186852Y-116312895D01*
X155302734Y-116360895D01*
X155476704Y-116395499D01*
X155476708Y-116395500D01*
X155476709Y-116395500D01*
X155654092Y-116395500D01*
X157768517Y-116395500D01*
X157835556Y-116415185D01*
X157881311Y-116467989D01*
X157891255Y-116537147D01*
X157862230Y-116600703D01*
X157806835Y-116637431D01*
X157599197Y-116704897D01*
X157388830Y-116812084D01*
X157305894Y-116872340D01*
X158004766Y-117571212D01*
X157962708Y-117582482D01*
X157837292Y-117654890D01*
X157734890Y-117757292D01*
X157662482Y-117882708D01*
X157651212Y-117924766D01*
X156952340Y-117225894D01*
X156892084Y-117308830D01*
X156784897Y-117519197D01*
X156711934Y-117743752D01*
X156675000Y-117976947D01*
X156675000Y-118213052D01*
X156711934Y-118446247D01*
X156784897Y-118670802D01*
X156892085Y-118881171D01*
X157018027Y-119054514D01*
X157041507Y-119120321D01*
X157025682Y-119188375D01*
X156975576Y-119237069D01*
X156917709Y-119251400D01*
X153666353Y-119251400D01*
X153599314Y-119231715D01*
X153578672Y-119215081D01*
X150104197Y-115740606D01*
X146512926Y-112149336D01*
X146479442Y-112088014D01*
X146484426Y-112018322D01*
X146526298Y-111962389D01*
X146562290Y-111943725D01*
X146619602Y-111925102D01*
X146829963Y-111817918D01*
X146829969Y-111817914D01*
X146912904Y-111757658D01*
X146912905Y-111757658D01*
X146173208Y-111017962D01*
X146236793Y-111000925D01*
X146350807Y-110935099D01*
X146443899Y-110842007D01*
X146509725Y-110727993D01*
X146526762Y-110664408D01*
X147266458Y-111404105D01*
X147266458Y-111404104D01*
X147326714Y-111321169D01*
X147326718Y-111321163D01*
X147433902Y-111110802D01*
X147506865Y-110886247D01*
X147543800Y-110653052D01*
X147543800Y-110416947D01*
X147506865Y-110183751D01*
X147477482Y-110093318D01*
X147475487Y-110023477D01*
X147511567Y-109963644D01*
X147574268Y-109932816D01*
X147595413Y-109931000D01*
X148676538Y-109931000D01*
X148743577Y-109950685D01*
G37*
%TD.AperFunction*%
%TA.AperFunction,Conductor*%
G36*
X136910977Y-107068485D02*
G01*
X136931619Y-107085119D01*
X137755560Y-107909061D01*
X137755564Y-107909064D01*
X137903046Y-108007609D01*
X137903055Y-108007614D01*
X137910428Y-108010668D01*
X138066934Y-108075495D01*
X138240903Y-108110099D01*
X138240907Y-108110100D01*
X138240908Y-108110100D01*
X138240909Y-108110100D01*
X140798809Y-108110100D01*
X144700738Y-108110100D01*
X144767777Y-108129785D01*
X144788419Y-108146419D01*
X145565608Y-108923608D01*
X145599093Y-108984931D01*
X145594109Y-109054623D01*
X145552237Y-109110556D01*
X145516246Y-109129220D01*
X145467995Y-109144897D01*
X145257630Y-109252084D01*
X145174694Y-109312340D01*
X145914391Y-110052037D01*
X145850807Y-110069075D01*
X145736793Y-110134901D01*
X145643701Y-110227993D01*
X145577875Y-110342007D01*
X145560837Y-110405591D01*
X144821140Y-109665894D01*
X144760884Y-109748830D01*
X144653696Y-109959198D01*
X144635073Y-110016512D01*
X144595634Y-110074186D01*
X144531275Y-110101383D01*
X144462429Y-110089467D01*
X144429462Y-110065872D01*
X142971928Y-108608338D01*
X142971925Y-108608334D01*
X142971925Y-108608335D01*
X142964859Y-108601269D01*
X142964858Y-108601267D01*
X142877733Y-108514142D01*
X142877729Y-108514139D01*
X142877728Y-108514138D01*
X142801048Y-108462902D01*
X142801047Y-108462901D01*
X142775290Y-108445690D01*
X142775286Y-108445688D01*
X142694792Y-108412347D01*
X142661453Y-108398537D01*
X142642368Y-108394741D01*
X142601029Y-108386518D01*
X142540610Y-108374500D01*
X142540607Y-108374500D01*
X142540606Y-108374500D01*
X128998153Y-108374500D01*
X128931114Y-108354815D01*
X128910472Y-108338181D01*
X128350893Y-107778603D01*
X128317408Y-107717280D01*
X128316987Y-107715264D01*
X128294837Y-107603903D01*
X128261400Y-107523178D01*
X128234497Y-107458227D01*
X128234490Y-107458214D01*
X128146889Y-107327111D01*
X128146886Y-107327107D01*
X128080260Y-107260481D01*
X128046775Y-107199158D01*
X128051759Y-107129466D01*
X128093631Y-107073533D01*
X128159095Y-107049116D01*
X128167941Y-107048800D01*
X136843938Y-107048800D01*
X136910977Y-107068485D01*
G37*
%TD.AperFunction*%
%TA.AperFunction,Conductor*%
G36*
X153535887Y-100015585D02*
G01*
X153556529Y-100032219D01*
X153648519Y-100124209D01*
X153682004Y-100185532D01*
X153677020Y-100255224D01*
X153635148Y-100311157D01*
X153592933Y-100331664D01*
X153350581Y-100396602D01*
X153350579Y-100396602D01*
X153350578Y-100396603D01*
X153350571Y-100396605D01*
X153108309Y-100496953D01*
X153108299Y-100496958D01*
X152881196Y-100628075D01*
X152673148Y-100787718D01*
X152487718Y-100973148D01*
X152328075Y-101181196D01*
X152196958Y-101408299D01*
X152196953Y-101408309D01*
X152096605Y-101650571D01*
X152096602Y-101650581D01*
X152078896Y-101716663D01*
X152028730Y-101903885D01*
X151994500Y-102163872D01*
X151994500Y-102426127D01*
X152005170Y-102507167D01*
X152028730Y-102686116D01*
X152094805Y-102932712D01*
X152096602Y-102939418D01*
X152096605Y-102939428D01*
X152196953Y-103181690D01*
X152196958Y-103181700D01*
X152330105Y-103412318D01*
X152329168Y-103412858D01*
X152348624Y-103474978D01*
X152330144Y-103542359D01*
X152278169Y-103589053D01*
X152224644Y-103601200D01*
X152030162Y-103601200D01*
X151963123Y-103581515D01*
X151942481Y-103564881D01*
X149973135Y-101595535D01*
X149973130Y-101595531D01*
X149914061Y-101556064D01*
X149914060Y-101556063D01*
X149825644Y-101496985D01*
X149825642Y-101496984D01*
X149743707Y-101463046D01*
X149743706Y-101463046D01*
X149661766Y-101429105D01*
X149661758Y-101429103D01*
X149487796Y-101394500D01*
X149487792Y-101394500D01*
X149487791Y-101394500D01*
X143367991Y-101394500D01*
X143300952Y-101374815D01*
X143260603Y-101332499D01*
X143253609Y-101320385D01*
X143146805Y-101181197D01*
X143113919Y-101138339D01*
X143113918Y-101138338D01*
X143113911Y-101138330D01*
X142951670Y-100976089D01*
X142951661Y-100976081D01*
X142769617Y-100836392D01*
X142570890Y-100721657D01*
X142570876Y-100721650D01*
X142358887Y-100633842D01*
X142337364Y-100628075D01*
X142137238Y-100574452D01*
X142076914Y-100566510D01*
X141909741Y-100544500D01*
X141909734Y-100544500D01*
X141834451Y-100544500D01*
X141767412Y-100524815D01*
X141721657Y-100472011D01*
X141711713Y-100402853D01*
X141740738Y-100339297D01*
X141746770Y-100332819D01*
X141809093Y-100270497D01*
X142047371Y-100032219D01*
X142108694Y-99998734D01*
X142135052Y-99995900D01*
X153468848Y-99995900D01*
X153535887Y-100015585D01*
G37*
%TD.AperFunction*%
%TA.AperFunction,Conductor*%
G36*
X167373187Y-96424285D02*
G01*
X167393829Y-96440919D01*
X168343181Y-97390271D01*
X168376666Y-97451594D01*
X168379500Y-97477952D01*
X168379500Y-97995701D01*
X168382401Y-98032567D01*
X168382402Y-98032573D01*
X168428254Y-98190393D01*
X168428255Y-98190396D01*
X168428256Y-98190398D01*
X168462732Y-98248694D01*
X168480000Y-98311814D01*
X168480000Y-98967500D01*
X169030000Y-98967500D01*
X169030000Y-98704500D01*
X169049685Y-98637461D01*
X169102489Y-98591706D01*
X169154000Y-98580500D01*
X169205500Y-98580500D01*
X169272539Y-98600185D01*
X169318294Y-98652989D01*
X169329500Y-98704500D01*
X169329500Y-99870701D01*
X169332401Y-99907567D01*
X169332402Y-99907573D01*
X169378254Y-100065393D01*
X169378255Y-100065396D01*
X169461917Y-100206862D01*
X169461923Y-100206870D01*
X169502149Y-100247096D01*
X169535634Y-100308419D01*
X169530650Y-100378111D01*
X169502154Y-100422453D01*
X169485233Y-100439376D01*
X169423912Y-100472865D01*
X169397547Y-100475700D01*
X168927902Y-100475700D01*
X168860863Y-100456015D01*
X168815108Y-100403211D01*
X168805164Y-100334053D01*
X168834189Y-100270497D01*
X168840221Y-100264019D01*
X168897678Y-100206561D01*
X168897685Y-100206552D01*
X168981282Y-100065196D01*
X168981283Y-100065193D01*
X169027099Y-99907495D01*
X169027100Y-99907489D01*
X169029999Y-99870649D01*
X169030000Y-99870634D01*
X169030000Y-99467500D01*
X167430000Y-99467500D01*
X167430000Y-99870649D01*
X167432899Y-99907489D01*
X167432900Y-99907495D01*
X167478716Y-100065193D01*
X167478717Y-100065196D01*
X167562314Y-100206552D01*
X167562321Y-100206561D01*
X167619779Y-100264019D01*
X167653264Y-100325342D01*
X167648280Y-100395034D01*
X167606408Y-100450967D01*
X167540944Y-100475384D01*
X167532098Y-100475700D01*
X165669352Y-100475700D01*
X165602313Y-100456015D01*
X165581671Y-100439381D01*
X164854470Y-99712180D01*
X164820985Y-99650857D01*
X164825969Y-99581165D01*
X164867841Y-99525232D01*
X164933305Y-99500815D01*
X164942151Y-99500499D01*
X165940002Y-99500499D01*
X165940008Y-99500499D01*
X166042797Y-99489999D01*
X166209334Y-99434814D01*
X166358656Y-99342712D01*
X166482712Y-99218656D01*
X166574814Y-99069334D01*
X166629999Y-98902797D01*
X166640500Y-98800009D01*
X166640500Y-98564350D01*
X167430000Y-98564350D01*
X167430000Y-98967500D01*
X167980000Y-98967500D01*
X167980000Y-97982703D01*
X167977503Y-97982900D01*
X167819806Y-98028716D01*
X167819803Y-98028717D01*
X167678447Y-98112314D01*
X167678438Y-98112321D01*
X167562321Y-98228438D01*
X167562314Y-98228447D01*
X167478717Y-98369803D01*
X167478716Y-98369806D01*
X167432900Y-98527504D01*
X167432899Y-98527510D01*
X167430000Y-98564350D01*
X166640500Y-98564350D01*
X166640499Y-98088735D01*
X166640499Y-97399998D01*
X166640498Y-97399981D01*
X166629999Y-97297203D01*
X166629998Y-97297200D01*
X166574814Y-97130666D01*
X166482712Y-96981344D01*
X166358656Y-96857288D01*
X166265888Y-96800069D01*
X166209336Y-96765187D01*
X166209331Y-96765185D01*
X166207862Y-96764698D01*
X166042797Y-96710001D01*
X166042795Y-96710000D01*
X165940010Y-96699500D01*
X163839998Y-96699500D01*
X163839981Y-96699501D01*
X163737203Y-96710000D01*
X163737200Y-96710001D01*
X163570668Y-96765185D01*
X163570663Y-96765187D01*
X163421342Y-96857289D01*
X163347692Y-96930940D01*
X163286369Y-96964425D01*
X163216677Y-96959441D01*
X163172330Y-96930940D01*
X162857671Y-96616281D01*
X162824186Y-96554958D01*
X162829170Y-96485266D01*
X162871042Y-96429333D01*
X162936506Y-96404916D01*
X162945352Y-96404600D01*
X167306148Y-96404600D01*
X167373187Y-96424285D01*
G37*
%TD.AperFunction*%
%TD*%
M02*
