%TF.GenerationSoftware,KiCad,Pcbnew,10.0.5*%
%TF.CreationDate,2026-08-03T02:39:42-07:00*%
%TF.ProjectId,cv-lock,63762d6c-6f63-46b2-9e6b-696361645f70,rev?*%
%TF.SameCoordinates,Original*%
%TF.FileFunction,Legend,Bot*%
%TF.FilePolarity,Positive*%
%FSLAX46Y46*%
G04 Gerber Fmt 4.6, Leading zero omitted, Abs format (unit mm)*
G04 Created by KiCad (PCBNEW 10.0.5) date 2026-08-03 02:39:42*
%MOMM*%
%LPD*%
G01*
G04 APERTURE LIST*
%ADD10C,0.150000*%
%ADD11C,0.120000*%
G04 APERTURE END LIST*
D10*
X126857142Y-112257200D02*
X126714285Y-112304819D01*
X126714285Y-112304819D02*
X126476190Y-112304819D01*
X126476190Y-112304819D02*
X126380952Y-112257200D01*
X126380952Y-112257200D02*
X126333333Y-112209580D01*
X126333333Y-112209580D02*
X126285714Y-112114342D01*
X126285714Y-112114342D02*
X126285714Y-112019104D01*
X126285714Y-112019104D02*
X126333333Y-111923866D01*
X126333333Y-111923866D02*
X126380952Y-111876247D01*
X126380952Y-111876247D02*
X126476190Y-111828628D01*
X126476190Y-111828628D02*
X126666666Y-111781009D01*
X126666666Y-111781009D02*
X126761904Y-111733390D01*
X126761904Y-111733390D02*
X126809523Y-111685771D01*
X126809523Y-111685771D02*
X126857142Y-111590533D01*
X126857142Y-111590533D02*
X126857142Y-111495295D01*
X126857142Y-111495295D02*
X126809523Y-111400057D01*
X126809523Y-111400057D02*
X126761904Y-111352438D01*
X126761904Y-111352438D02*
X126666666Y-111304819D01*
X126666666Y-111304819D02*
X126428571Y-111304819D01*
X126428571Y-111304819D02*
X126285714Y-111352438D01*
X125857142Y-112304819D02*
X125857142Y-111304819D01*
X125857142Y-111304819D02*
X125285714Y-112304819D01*
X125285714Y-112304819D02*
X125285714Y-111304819D01*
X124095238Y-111257200D02*
X124952380Y-112542914D01*
X123095238Y-112400057D02*
X123190476Y-112352438D01*
X123190476Y-112352438D02*
X123285714Y-112257200D01*
X123285714Y-112257200D02*
X123428571Y-112114342D01*
X123428571Y-112114342D02*
X123523809Y-112066723D01*
X123523809Y-112066723D02*
X123619047Y-112066723D01*
X123571428Y-112304819D02*
X123666666Y-112257200D01*
X123666666Y-112257200D02*
X123761904Y-112161961D01*
X123761904Y-112161961D02*
X123809523Y-111971485D01*
X123809523Y-111971485D02*
X123809523Y-111638152D01*
X123809523Y-111638152D02*
X123761904Y-111447676D01*
X123761904Y-111447676D02*
X123666666Y-111352438D01*
X123666666Y-111352438D02*
X123571428Y-111304819D01*
X123571428Y-111304819D02*
X123380952Y-111304819D01*
X123380952Y-111304819D02*
X123285714Y-111352438D01*
X123285714Y-111352438D02*
X123190476Y-111447676D01*
X123190476Y-111447676D02*
X123142857Y-111638152D01*
X123142857Y-111638152D02*
X123142857Y-111971485D01*
X123142857Y-111971485D02*
X123190476Y-112161961D01*
X123190476Y-112161961D02*
X123285714Y-112257200D01*
X123285714Y-112257200D02*
X123380952Y-112304819D01*
X123380952Y-112304819D02*
X123571428Y-112304819D01*
X122142857Y-112304819D02*
X122476190Y-111828628D01*
X122714285Y-112304819D02*
X122714285Y-111304819D01*
X122714285Y-111304819D02*
X122333333Y-111304819D01*
X122333333Y-111304819D02*
X122238095Y-111352438D01*
X122238095Y-111352438D02*
X122190476Y-111400057D01*
X122190476Y-111400057D02*
X122142857Y-111495295D01*
X122142857Y-111495295D02*
X122142857Y-111638152D01*
X122142857Y-111638152D02*
X122190476Y-111733390D01*
X122190476Y-111733390D02*
X122238095Y-111781009D01*
X122238095Y-111781009D02*
X122333333Y-111828628D01*
X122333333Y-111828628D02*
X122714285Y-111828628D01*
%TO.C,C4*%
D11*
X171491252Y-88540000D02*
X170968748Y-88540000D01*
X171491252Y-90010000D02*
X170968748Y-90010000D01*
%TO.C,D3*%
X166400000Y-96450000D02*
X160890000Y-96450000D01*
X166400000Y-96450000D02*
X166400000Y-99750000D01*
X166400000Y-99750000D02*
X160890000Y-99750000D01*
%TO.C,R1*%
X173877064Y-97490000D02*
X173422936Y-97490000D01*
X173877064Y-98960000D02*
X173422936Y-98960000D01*
%TO.C,R4*%
X144652064Y-105055000D02*
X144197936Y-105055000D01*
X144652064Y-106525000D02*
X144197936Y-106525000D01*
%TO.C,R6*%
X157287064Y-105055000D02*
X156832936Y-105055000D01*
X157287064Y-106525000D02*
X156832936Y-106525000D01*
%TO.C,R5*%
X147410000Y-106747064D02*
X147410000Y-106292936D01*
X148880000Y-106747064D02*
X148880000Y-106292936D01*
%TO.C,Csn*%
X167001252Y-88540000D02*
X166478748Y-88540000D01*
X167001252Y-90010000D02*
X166478748Y-90010000D01*
%TO.C,C6*%
X175075000Y-94746252D02*
X175075000Y-94223748D01*
X176545000Y-94746252D02*
X176545000Y-94223748D01*
%TO.C,C5*%
X175075000Y-90256252D02*
X175075000Y-89733748D01*
X176545000Y-90256252D02*
X176545000Y-89733748D01*
%TO.C,F1*%
X162272064Y-88515000D02*
X161067936Y-88515000D01*
X162272064Y-90335000D02*
X161067936Y-90335000D01*
%TO.C,R2*%
X161297064Y-101155000D02*
X160842936Y-101155000D01*
X161297064Y-102625000D02*
X160842936Y-102625000D01*
%TO.C,U2*%
X148570000Y-127510000D02*
X149830000Y-127510000D01*
X148570000Y-131270000D02*
X148570000Y-127510000D01*
X155390000Y-127510000D02*
X154130000Y-127510000D01*
X155390000Y-131270000D02*
X155390000Y-127510000D01*
X155290000Y-132550000D02*
X155620000Y-132790000D01*
X155620000Y-132310000D01*
X155290000Y-132550000D01*
G36*
X155620000Y-132790000D02*
G01*
X155290000Y-132550000D01*
X155620000Y-132310000D01*
X155620000Y-132790000D01*
G37*
%TO.C,R7*%
X157287064Y-108045000D02*
X156832936Y-108045000D01*
X157287064Y-109515000D02*
X156832936Y-109515000D01*
%TO.C,Rsn*%
X166187064Y-108465000D02*
X165732936Y-108465000D01*
X166187064Y-109935000D02*
X165732936Y-109935000D01*
%TO.C,R3*%
X140202064Y-105055000D02*
X139747936Y-105055000D01*
X140202064Y-106525000D02*
X139747936Y-106525000D01*
%TO.C,Q1*%
X167620000Y-97520000D02*
X167620000Y-99040000D01*
X167620000Y-99040000D02*
X167670000Y-99040000D01*
X168620000Y-97520000D02*
X167620000Y-97520000D01*
X168790000Y-99040000D02*
X169570000Y-99040000D01*
X170690000Y-99040000D02*
X170740000Y-99040000D01*
X170740000Y-97520000D02*
X169740000Y-97520000D01*
X170740000Y-99040000D02*
X170740000Y-97520000D01*
X169560000Y-99580000D02*
X169230000Y-99340000D01*
X169230000Y-99820000D01*
X169560000Y-99580000D01*
G36*
X169560000Y-99580000D02*
G01*
X169230000Y-99820000D01*
X169230000Y-99340000D01*
X169560000Y-99580000D01*
G37*
%TO.C,R8*%
X161737064Y-108465000D02*
X161282936Y-108465000D01*
X161737064Y-109935000D02*
X161282936Y-109935000D01*
%TD*%
M02*
