%TF.GenerationSoftware,KiCad,Pcbnew,10.0.5*%
%TF.CreationDate,2026-07-29T02:28:39-07:00*%
%TF.ProjectId,cv-lock,63762d6c-6f63-46b2-9e6b-696361645f70,rev?*%
%TF.SameCoordinates,Original*%
%TF.FileFunction,Drillmap*%
%TF.FilePolarity,Positive*%
%FSLAX45Y45*%
G04 Gerber Fmt 4.5, Leading zero omitted, Abs format (unit mm)*
G04 Created by KiCad (PCBNEW 10.0.5) date 2026-07-29 02:28:39*
%MOMM*%
%LPD*%
G01*
G04 APERTURE LIST*
%ADD10C,0.100000*%
%ADD11C,0.200000*%
%ADD12C,0.110000*%
%ADD13C,0.130000*%
%ADD14C,0.160000*%
G04 APERTURE END LIST*
D10*
X10000000Y-8300000D02*
G75*
G02*
X10300000Y-8000000I300000J0D01*
G01*
X10000000Y-14840000D02*
X10000000Y-8300000D01*
X10300000Y-8000000D02*
X19020000Y-8000000D01*
X10300000Y-15140000D02*
G75*
G02*
X10000000Y-14840000I0J300000D01*
G01*
X19020000Y-8000000D02*
G75*
G02*
X19320000Y-8300000I0J-300000D01*
G01*
X19020000Y-15140000D02*
X10300000Y-15140000D01*
X19320000Y-8300000D02*
X19320000Y-14840000D01*
X19320000Y-14840000D02*
G75*
G02*
X19020000Y-15140000I-300000J0D01*
G01*
D11*
D10*
X15905500Y-12659500D02*
X15925500Y-12679500D01*
X15925500Y-12659500D02*
X15905500Y-12679500D01*
X15905500Y-12799500D02*
X15925500Y-12819500D01*
X15925500Y-12799500D02*
X15905500Y-12819500D01*
X15975500Y-12589500D02*
X15995500Y-12609500D01*
X15995500Y-12589500D02*
X15975500Y-12609500D01*
X15975500Y-12729500D02*
X15995500Y-12749500D01*
X15995500Y-12729500D02*
X15975500Y-12749500D01*
X15975500Y-12869500D02*
X15995500Y-12889500D01*
X15995500Y-12869500D02*
X15975500Y-12889500D01*
X16045500Y-12659500D02*
X16065500Y-12679500D01*
X16065500Y-12659500D02*
X16045500Y-12679500D01*
X16045500Y-12799500D02*
X16065500Y-12819500D01*
X16065500Y-12799500D02*
X16045500Y-12819500D01*
X16115500Y-12589500D02*
X16135500Y-12609500D01*
X16135500Y-12589500D02*
X16115500Y-12609500D01*
X16115500Y-12729500D02*
X16135500Y-12749500D01*
X16135500Y-12729500D02*
X16115500Y-12749500D01*
X16115500Y-12869500D02*
X16135500Y-12889500D01*
X16135500Y-12869500D02*
X16115500Y-12889500D01*
X16185500Y-12659500D02*
X16205500Y-12679500D01*
X16205500Y-12659500D02*
X16185500Y-12679500D01*
X16185500Y-12799500D02*
X16205500Y-12819500D01*
X16205500Y-12799500D02*
X16185500Y-12819500D01*
X14681800Y-9122200D02*
G75*
G02*
X14651800Y-9122200I-15000J0D01*
G01*
X14651800Y-9122200D02*
G75*
G02*
X14681800Y-9122200I15000J0D01*
G01*
X14728050Y-12017430D02*
G75*
G02*
X14698050Y-12017430I-15000J0D01*
G01*
X14698050Y-12017430D02*
G75*
G02*
X14728050Y-12017430I15000J0D01*
G01*
X15192220Y-8997280D02*
G75*
G02*
X15162220Y-8997280I-15000J0D01*
G01*
X15162220Y-8997280D02*
G75*
G02*
X15192220Y-8997280I15000J0D01*
G01*
X15650500Y-8972210D02*
G75*
G02*
X15620500Y-8972210I-15000J0D01*
G01*
X15620500Y-8972210D02*
G75*
G02*
X15650500Y-8972210I15000J0D01*
G01*
X16152870Y-12082940D02*
G75*
G02*
X16122870Y-12082940I-15000J0D01*
G01*
X16122870Y-12082940D02*
G75*
G02*
X16152870Y-12082940I15000J0D01*
G01*
X16280420Y-11976630D02*
G75*
G02*
X16250420Y-11976630I-15000J0D01*
G01*
X16250420Y-11976630D02*
G75*
G02*
X16280420Y-11976630I15000J0D01*
G01*
X16280420Y-12300800D02*
G75*
G02*
X16250420Y-12300800I-15000J0D01*
G01*
X16250420Y-12300800D02*
G75*
G02*
X16280420Y-12300800I15000J0D01*
G01*
X16572140Y-8768850D02*
G75*
G02*
X16542140Y-8768850I-15000J0D01*
G01*
X16542140Y-8768850D02*
G75*
G02*
X16572140Y-8768850I15000J0D01*
G01*
X17531610Y-9227200D02*
G75*
G02*
X17501610Y-9227200I-15000J0D01*
G01*
X17501610Y-9227200D02*
G75*
G02*
X17531610Y-9227200I15000J0D01*
G01*
X10375000Y-8955000D02*
X10375000Y-8995000D01*
X10355000Y-8975000D02*
X10395000Y-8975000D01*
X10375000Y-9305000D02*
X10375000Y-9345000D01*
X10355000Y-9325000D02*
X10395000Y-9325000D01*
X10375000Y-10005000D02*
X10375000Y-10045000D01*
X10355000Y-10025000D02*
X10395000Y-10025000D01*
X10375000Y-10355000D02*
X10375000Y-10395000D01*
X10355000Y-10375000D02*
X10395000Y-10375000D01*
X10375000Y-10705000D02*
X10375000Y-10745000D01*
X10355000Y-10725000D02*
X10395000Y-10725000D01*
X10375000Y-11055000D02*
X10375000Y-11095000D01*
X10355000Y-11075000D02*
X10395000Y-11075000D01*
X10375000Y-11405000D02*
X10375000Y-11445000D01*
X10355000Y-11425000D02*
X10395000Y-11425000D01*
X10375000Y-11755000D02*
X10375000Y-11795000D01*
X10355000Y-11775000D02*
X10395000Y-11775000D01*
X10375000Y-12105000D02*
X10375000Y-12145000D01*
X10355000Y-12125000D02*
X10395000Y-12125000D01*
X10375000Y-12455000D02*
X10375000Y-12495000D01*
X10355000Y-12475000D02*
X10395000Y-12475000D01*
X10375000Y-12805000D02*
X10375000Y-12845000D01*
X10355000Y-12825000D02*
X10395000Y-12825000D01*
X10375000Y-13155000D02*
X10375000Y-13195000D01*
X10355000Y-13175000D02*
X10395000Y-13175000D01*
X10375000Y-13505000D02*
X10375000Y-13545000D01*
X10355000Y-13525000D02*
X10395000Y-13525000D01*
X10375000Y-13855000D02*
X10375000Y-13895000D01*
X10355000Y-13875000D02*
X10395000Y-13875000D01*
X10375000Y-14205000D02*
X10375000Y-14245000D01*
X10355000Y-14225000D02*
X10395000Y-14225000D01*
X10375000Y-14555000D02*
X10375000Y-14595000D01*
X10355000Y-14575000D02*
X10395000Y-14575000D01*
X10375000Y-14905000D02*
X10375000Y-14945000D01*
X10355000Y-14925000D02*
X10395000Y-14925000D01*
X10725000Y-8255000D02*
X10725000Y-8295000D01*
X10705000Y-8275000D02*
X10745000Y-8275000D01*
X10725000Y-8605000D02*
X10725000Y-8645000D01*
X10705000Y-8625000D02*
X10745000Y-8625000D01*
X10725000Y-9305000D02*
X10725000Y-9345000D01*
X10705000Y-9325000D02*
X10745000Y-9325000D01*
X10725000Y-10705000D02*
X10725000Y-10745000D01*
X10705000Y-10725000D02*
X10745000Y-10725000D01*
X10725000Y-11055000D02*
X10725000Y-11095000D01*
X10705000Y-11075000D02*
X10745000Y-11075000D01*
X10725000Y-11405000D02*
X10725000Y-11445000D01*
X10705000Y-11425000D02*
X10745000Y-11425000D01*
X10725000Y-11755000D02*
X10725000Y-11795000D01*
X10705000Y-11775000D02*
X10745000Y-11775000D01*
X10725000Y-12105000D02*
X10725000Y-12145000D01*
X10705000Y-12125000D02*
X10745000Y-12125000D01*
X10725000Y-12455000D02*
X10725000Y-12495000D01*
X10705000Y-12475000D02*
X10745000Y-12475000D01*
X10725000Y-12805000D02*
X10725000Y-12845000D01*
X10705000Y-12825000D02*
X10745000Y-12825000D01*
X10725000Y-13155000D02*
X10725000Y-13195000D01*
X10705000Y-13175000D02*
X10745000Y-13175000D01*
X10725000Y-13505000D02*
X10725000Y-13545000D01*
X10705000Y-13525000D02*
X10745000Y-13525000D01*
X10725000Y-13855000D02*
X10725000Y-13895000D01*
X10705000Y-13875000D02*
X10745000Y-13875000D01*
X10725000Y-14205000D02*
X10725000Y-14245000D01*
X10705000Y-14225000D02*
X10745000Y-14225000D01*
X10725000Y-14555000D02*
X10725000Y-14595000D01*
X10705000Y-14575000D02*
X10745000Y-14575000D01*
X10725000Y-14905000D02*
X10725000Y-14945000D01*
X10705000Y-14925000D02*
X10745000Y-14925000D01*
X11075000Y-8605000D02*
X11075000Y-8645000D01*
X11055000Y-8625000D02*
X11095000Y-8625000D01*
X11075000Y-8955000D02*
X11075000Y-8995000D01*
X11055000Y-8975000D02*
X11095000Y-8975000D01*
X11075000Y-9305000D02*
X11075000Y-9345000D01*
X11055000Y-9325000D02*
X11095000Y-9325000D01*
X11075000Y-9655000D02*
X11075000Y-9695000D01*
X11055000Y-9675000D02*
X11095000Y-9675000D01*
X11075000Y-10005000D02*
X11075000Y-10045000D01*
X11055000Y-10025000D02*
X11095000Y-10025000D01*
X11075000Y-10355000D02*
X11075000Y-10395000D01*
X11055000Y-10375000D02*
X11095000Y-10375000D01*
X11075000Y-10705000D02*
X11075000Y-10745000D01*
X11055000Y-10725000D02*
X11095000Y-10725000D01*
X11075000Y-11055000D02*
X11075000Y-11095000D01*
X11055000Y-11075000D02*
X11095000Y-11075000D01*
X11075000Y-11405000D02*
X11075000Y-11445000D01*
X11055000Y-11425000D02*
X11095000Y-11425000D01*
X11075000Y-11755000D02*
X11075000Y-11795000D01*
X11055000Y-11775000D02*
X11095000Y-11775000D01*
X11075000Y-12105000D02*
X11075000Y-12145000D01*
X11055000Y-12125000D02*
X11095000Y-12125000D01*
X11075000Y-12455000D02*
X11075000Y-12495000D01*
X11055000Y-12475000D02*
X11095000Y-12475000D01*
X11075000Y-12805000D02*
X11075000Y-12845000D01*
X11055000Y-12825000D02*
X11095000Y-12825000D01*
X11075000Y-13155000D02*
X11075000Y-13195000D01*
X11055000Y-13175000D02*
X11095000Y-13175000D01*
X11075000Y-13505000D02*
X11075000Y-13545000D01*
X11055000Y-13525000D02*
X11095000Y-13525000D01*
X11075000Y-13855000D02*
X11075000Y-13895000D01*
X11055000Y-13875000D02*
X11095000Y-13875000D01*
X11075000Y-14205000D02*
X11075000Y-14245000D01*
X11055000Y-14225000D02*
X11095000Y-14225000D01*
X11075000Y-14555000D02*
X11075000Y-14595000D01*
X11055000Y-14575000D02*
X11095000Y-14575000D01*
X11075000Y-14905000D02*
X11075000Y-14945000D01*
X11055000Y-14925000D02*
X11095000Y-14925000D01*
X11425000Y-8255000D02*
X11425000Y-8295000D01*
X11405000Y-8275000D02*
X11445000Y-8275000D01*
X11425000Y-8605000D02*
X11425000Y-8645000D01*
X11405000Y-8625000D02*
X11445000Y-8625000D01*
X11425000Y-8955000D02*
X11425000Y-8995000D01*
X11405000Y-8975000D02*
X11445000Y-8975000D01*
X11425000Y-9305000D02*
X11425000Y-9345000D01*
X11405000Y-9325000D02*
X11445000Y-9325000D01*
X11425000Y-9655000D02*
X11425000Y-9695000D01*
X11405000Y-9675000D02*
X11445000Y-9675000D01*
X11425000Y-10005000D02*
X11425000Y-10045000D01*
X11405000Y-10025000D02*
X11445000Y-10025000D01*
X11425000Y-10355000D02*
X11425000Y-10395000D01*
X11405000Y-10375000D02*
X11445000Y-10375000D01*
X11425000Y-10705000D02*
X11425000Y-10745000D01*
X11405000Y-10725000D02*
X11445000Y-10725000D01*
X11425000Y-11055000D02*
X11425000Y-11095000D01*
X11405000Y-11075000D02*
X11445000Y-11075000D01*
X11425000Y-11405000D02*
X11425000Y-11445000D01*
X11405000Y-11425000D02*
X11445000Y-11425000D01*
X11425000Y-11755000D02*
X11425000Y-11795000D01*
X11405000Y-11775000D02*
X11445000Y-11775000D01*
X11425000Y-12105000D02*
X11425000Y-12145000D01*
X11405000Y-12125000D02*
X11445000Y-12125000D01*
X11425000Y-12455000D02*
X11425000Y-12495000D01*
X11405000Y-12475000D02*
X11445000Y-12475000D01*
X11425000Y-12805000D02*
X11425000Y-12845000D01*
X11405000Y-12825000D02*
X11445000Y-12825000D01*
X11425000Y-13155000D02*
X11425000Y-13195000D01*
X11405000Y-13175000D02*
X11445000Y-13175000D01*
X11425000Y-13505000D02*
X11425000Y-13545000D01*
X11405000Y-13525000D02*
X11445000Y-13525000D01*
X11425000Y-13855000D02*
X11425000Y-13895000D01*
X11405000Y-13875000D02*
X11445000Y-13875000D01*
X11425000Y-14205000D02*
X11425000Y-14245000D01*
X11405000Y-14225000D02*
X11445000Y-14225000D01*
X11425000Y-14555000D02*
X11425000Y-14595000D01*
X11405000Y-14575000D02*
X11445000Y-14575000D01*
X11425000Y-14905000D02*
X11425000Y-14945000D01*
X11405000Y-14925000D02*
X11445000Y-14925000D01*
X11775000Y-8255000D02*
X11775000Y-8295000D01*
X11755000Y-8275000D02*
X11795000Y-8275000D01*
X11775000Y-8605000D02*
X11775000Y-8645000D01*
X11755000Y-8625000D02*
X11795000Y-8625000D01*
X11775000Y-9305000D02*
X11775000Y-9345000D01*
X11755000Y-9325000D02*
X11795000Y-9325000D01*
X11775000Y-9655000D02*
X11775000Y-9695000D01*
X11755000Y-9675000D02*
X11795000Y-9675000D01*
X11775000Y-10705000D02*
X11775000Y-10745000D01*
X11755000Y-10725000D02*
X11795000Y-10725000D01*
X11775000Y-11055000D02*
X11775000Y-11095000D01*
X11755000Y-11075000D02*
X11795000Y-11075000D01*
X11775000Y-11405000D02*
X11775000Y-11445000D01*
X11755000Y-11425000D02*
X11795000Y-11425000D01*
X11775000Y-11755000D02*
X11775000Y-11795000D01*
X11755000Y-11775000D02*
X11795000Y-11775000D01*
X11775000Y-12105000D02*
X11775000Y-12145000D01*
X11755000Y-12125000D02*
X11795000Y-12125000D01*
X11775000Y-12455000D02*
X11775000Y-12495000D01*
X11755000Y-12475000D02*
X11795000Y-12475000D01*
X11775000Y-12805000D02*
X11775000Y-12845000D01*
X11755000Y-12825000D02*
X11795000Y-12825000D01*
X11775000Y-13155000D02*
X11775000Y-13195000D01*
X11755000Y-13175000D02*
X11795000Y-13175000D01*
X11775000Y-13505000D02*
X11775000Y-13545000D01*
X11755000Y-13525000D02*
X11795000Y-13525000D01*
X11775000Y-13855000D02*
X11775000Y-13895000D01*
X11755000Y-13875000D02*
X11795000Y-13875000D01*
X11775000Y-14205000D02*
X11775000Y-14245000D01*
X11755000Y-14225000D02*
X11795000Y-14225000D01*
X11775000Y-14555000D02*
X11775000Y-14595000D01*
X11755000Y-14575000D02*
X11795000Y-14575000D01*
X11775000Y-14905000D02*
X11775000Y-14945000D01*
X11755000Y-14925000D02*
X11795000Y-14925000D01*
X12125000Y-8255000D02*
X12125000Y-8295000D01*
X12105000Y-8275000D02*
X12145000Y-8275000D01*
X12125000Y-8605000D02*
X12125000Y-8645000D01*
X12105000Y-8625000D02*
X12145000Y-8625000D01*
X12125000Y-9305000D02*
X12125000Y-9345000D01*
X12105000Y-9325000D02*
X12145000Y-9325000D01*
X12125000Y-9655000D02*
X12125000Y-9695000D01*
X12105000Y-9675000D02*
X12145000Y-9675000D01*
X12125000Y-10005000D02*
X12125000Y-10045000D01*
X12105000Y-10025000D02*
X12145000Y-10025000D01*
X12125000Y-10705000D02*
X12125000Y-10745000D01*
X12105000Y-10725000D02*
X12145000Y-10725000D01*
X12125000Y-11055000D02*
X12125000Y-11095000D01*
X12105000Y-11075000D02*
X12145000Y-11075000D01*
X12125000Y-11405000D02*
X12125000Y-11445000D01*
X12105000Y-11425000D02*
X12145000Y-11425000D01*
X12125000Y-11755000D02*
X12125000Y-11795000D01*
X12105000Y-11775000D02*
X12145000Y-11775000D01*
X12125000Y-12105000D02*
X12125000Y-12145000D01*
X12105000Y-12125000D02*
X12145000Y-12125000D01*
X12125000Y-12455000D02*
X12125000Y-12495000D01*
X12105000Y-12475000D02*
X12145000Y-12475000D01*
X12125000Y-12805000D02*
X12125000Y-12845000D01*
X12105000Y-12825000D02*
X12145000Y-12825000D01*
X12125000Y-13155000D02*
X12125000Y-13195000D01*
X12105000Y-13175000D02*
X12145000Y-13175000D01*
X12125000Y-13505000D02*
X12125000Y-13545000D01*
X12105000Y-13525000D02*
X12145000Y-13525000D01*
X12125000Y-13855000D02*
X12125000Y-13895000D01*
X12105000Y-13875000D02*
X12145000Y-13875000D01*
X12125000Y-14205000D02*
X12125000Y-14245000D01*
X12105000Y-14225000D02*
X12145000Y-14225000D01*
X12125000Y-14555000D02*
X12125000Y-14595000D01*
X12105000Y-14575000D02*
X12145000Y-14575000D01*
X12125000Y-14905000D02*
X12125000Y-14945000D01*
X12105000Y-14925000D02*
X12145000Y-14925000D01*
X12475000Y-8255000D02*
X12475000Y-8295000D01*
X12455000Y-8275000D02*
X12495000Y-8275000D01*
X12475000Y-8605000D02*
X12475000Y-8645000D01*
X12455000Y-8625000D02*
X12495000Y-8625000D01*
X12475000Y-9305000D02*
X12475000Y-9345000D01*
X12455000Y-9325000D02*
X12495000Y-9325000D01*
X12475000Y-10005000D02*
X12475000Y-10045000D01*
X12455000Y-10025000D02*
X12495000Y-10025000D01*
X12475000Y-10705000D02*
X12475000Y-10745000D01*
X12455000Y-10725000D02*
X12495000Y-10725000D01*
X12475000Y-11055000D02*
X12475000Y-11095000D01*
X12455000Y-11075000D02*
X12495000Y-11075000D01*
X12475000Y-11405000D02*
X12475000Y-11445000D01*
X12455000Y-11425000D02*
X12495000Y-11425000D01*
X12475000Y-11755000D02*
X12475000Y-11795000D01*
X12455000Y-11775000D02*
X12495000Y-11775000D01*
X12475000Y-12105000D02*
X12475000Y-12145000D01*
X12455000Y-12125000D02*
X12495000Y-12125000D01*
X12475000Y-12455000D02*
X12475000Y-12495000D01*
X12455000Y-12475000D02*
X12495000Y-12475000D01*
X12475000Y-12805000D02*
X12475000Y-12845000D01*
X12455000Y-12825000D02*
X12495000Y-12825000D01*
X12475000Y-13155000D02*
X12475000Y-13195000D01*
X12455000Y-13175000D02*
X12495000Y-13175000D01*
X12475000Y-13505000D02*
X12475000Y-13545000D01*
X12455000Y-13525000D02*
X12495000Y-13525000D01*
X12475000Y-13855000D02*
X12475000Y-13895000D01*
X12455000Y-13875000D02*
X12495000Y-13875000D01*
X12475000Y-14205000D02*
X12475000Y-14245000D01*
X12455000Y-14225000D02*
X12495000Y-14225000D01*
X12475000Y-14555000D02*
X12475000Y-14595000D01*
X12455000Y-14575000D02*
X12495000Y-14575000D01*
X12475000Y-14905000D02*
X12475000Y-14945000D01*
X12455000Y-14925000D02*
X12495000Y-14925000D01*
X12825000Y-8255000D02*
X12825000Y-8295000D01*
X12805000Y-8275000D02*
X12845000Y-8275000D01*
X12825000Y-8605000D02*
X12825000Y-8645000D01*
X12805000Y-8625000D02*
X12845000Y-8625000D01*
X12825000Y-10005000D02*
X12825000Y-10045000D01*
X12805000Y-10025000D02*
X12845000Y-10025000D01*
X12825000Y-10705000D02*
X12825000Y-10745000D01*
X12805000Y-10725000D02*
X12845000Y-10725000D01*
X12825000Y-11055000D02*
X12825000Y-11095000D01*
X12805000Y-11075000D02*
X12845000Y-11075000D01*
X12825000Y-11405000D02*
X12825000Y-11445000D01*
X12805000Y-11425000D02*
X12845000Y-11425000D01*
X12825000Y-11755000D02*
X12825000Y-11795000D01*
X12805000Y-11775000D02*
X12845000Y-11775000D01*
X12825000Y-12105000D02*
X12825000Y-12145000D01*
X12805000Y-12125000D02*
X12845000Y-12125000D01*
X12825000Y-12455000D02*
X12825000Y-12495000D01*
X12805000Y-12475000D02*
X12845000Y-12475000D01*
X12825000Y-12805000D02*
X12825000Y-12845000D01*
X12805000Y-12825000D02*
X12845000Y-12825000D01*
X12825000Y-13155000D02*
X12825000Y-13195000D01*
X12805000Y-13175000D02*
X12845000Y-13175000D01*
X12825000Y-13505000D02*
X12825000Y-13545000D01*
X12805000Y-13525000D02*
X12845000Y-13525000D01*
X12825000Y-13855000D02*
X12825000Y-13895000D01*
X12805000Y-13875000D02*
X12845000Y-13875000D01*
X12825000Y-14205000D02*
X12825000Y-14245000D01*
X12805000Y-14225000D02*
X12845000Y-14225000D01*
X12825000Y-14555000D02*
X12825000Y-14595000D01*
X12805000Y-14575000D02*
X12845000Y-14575000D01*
X12825000Y-14905000D02*
X12825000Y-14945000D01*
X12805000Y-14925000D02*
X12845000Y-14925000D01*
X12913400Y-10559500D02*
X12913400Y-10599500D01*
X12893400Y-10579500D02*
X12933400Y-10579500D01*
X13079000Y-9120000D02*
X13079000Y-9160000D01*
X13059000Y-9140000D02*
X13099000Y-9140000D01*
X13175000Y-8255000D02*
X13175000Y-8295000D01*
X13155000Y-8275000D02*
X13195000Y-8275000D01*
X13175000Y-8605000D02*
X13175000Y-8645000D01*
X13155000Y-8625000D02*
X13195000Y-8625000D01*
X13175000Y-10005000D02*
X13175000Y-10045000D01*
X13155000Y-10025000D02*
X13195000Y-10025000D01*
X13175000Y-10355000D02*
X13175000Y-10395000D01*
X13155000Y-10375000D02*
X13195000Y-10375000D01*
X13175000Y-10705000D02*
X13175000Y-10745000D01*
X13155000Y-10725000D02*
X13195000Y-10725000D01*
X13175000Y-11055000D02*
X13175000Y-11095000D01*
X13155000Y-11075000D02*
X13195000Y-11075000D01*
X13175000Y-11405000D02*
X13175000Y-11445000D01*
X13155000Y-11425000D02*
X13195000Y-11425000D01*
X13175000Y-11755000D02*
X13175000Y-11795000D01*
X13155000Y-11775000D02*
X13195000Y-11775000D01*
X13175000Y-12105000D02*
X13175000Y-12145000D01*
X13155000Y-12125000D02*
X13195000Y-12125000D01*
X13175000Y-12455000D02*
X13175000Y-12495000D01*
X13155000Y-12475000D02*
X13195000Y-12475000D01*
X13175000Y-12805000D02*
X13175000Y-12845000D01*
X13155000Y-12825000D02*
X13195000Y-12825000D01*
X13175000Y-13155000D02*
X13175000Y-13195000D01*
X13155000Y-13175000D02*
X13195000Y-13175000D01*
X13175000Y-13505000D02*
X13175000Y-13545000D01*
X13155000Y-13525000D02*
X13195000Y-13525000D01*
X13175000Y-13855000D02*
X13175000Y-13895000D01*
X13155000Y-13875000D02*
X13195000Y-13875000D01*
X13175000Y-14205000D02*
X13175000Y-14245000D01*
X13155000Y-14225000D02*
X13195000Y-14225000D01*
X13175000Y-14555000D02*
X13175000Y-14595000D01*
X13155000Y-14575000D02*
X13195000Y-14575000D01*
X13175000Y-14905000D02*
X13175000Y-14945000D01*
X13155000Y-14925000D02*
X13195000Y-14925000D01*
X13525000Y-8255000D02*
X13525000Y-8295000D01*
X13505000Y-8275000D02*
X13545000Y-8275000D01*
X13525000Y-8605000D02*
X13525000Y-8645000D01*
X13505000Y-8625000D02*
X13545000Y-8625000D01*
X13525000Y-11405000D02*
X13525000Y-11445000D01*
X13505000Y-11425000D02*
X13545000Y-11425000D01*
X13525000Y-11755000D02*
X13525000Y-11795000D01*
X13505000Y-11775000D02*
X13545000Y-11775000D01*
X13525000Y-12105000D02*
X13525000Y-12145000D01*
X13505000Y-12125000D02*
X13545000Y-12125000D01*
X13525000Y-12455000D02*
X13525000Y-12495000D01*
X13505000Y-12475000D02*
X13545000Y-12475000D01*
X13525000Y-12805000D02*
X13525000Y-12845000D01*
X13505000Y-12825000D02*
X13545000Y-12825000D01*
X13525000Y-13155000D02*
X13525000Y-13195000D01*
X13505000Y-13175000D02*
X13545000Y-13175000D01*
X13525000Y-13505000D02*
X13525000Y-13545000D01*
X13505000Y-13525000D02*
X13545000Y-13525000D01*
X13525000Y-13855000D02*
X13525000Y-13895000D01*
X13505000Y-13875000D02*
X13545000Y-13875000D01*
X13525000Y-14205000D02*
X13525000Y-14245000D01*
X13505000Y-14225000D02*
X13545000Y-14225000D01*
X13525000Y-14555000D02*
X13525000Y-14595000D01*
X13505000Y-14575000D02*
X13545000Y-14575000D01*
X13525000Y-14905000D02*
X13525000Y-14945000D01*
X13505000Y-14925000D02*
X13545000Y-14925000D01*
X13528000Y-9120000D02*
X13528000Y-9160000D01*
X13508000Y-9140000D02*
X13548000Y-9140000D01*
X13559500Y-9191500D02*
X13559500Y-9231500D01*
X13539500Y-9211500D02*
X13579500Y-9211500D01*
X13748500Y-9110500D02*
X13748500Y-9150500D01*
X13728500Y-9130500D02*
X13768500Y-9130500D01*
X13875000Y-8255000D02*
X13875000Y-8295000D01*
X13855000Y-8275000D02*
X13895000Y-8275000D01*
X13875000Y-8605000D02*
X13875000Y-8645000D01*
X13855000Y-8625000D02*
X13895000Y-8625000D01*
X13875000Y-9655000D02*
X13875000Y-9695000D01*
X13855000Y-9675000D02*
X13895000Y-9675000D01*
X13875000Y-11055000D02*
X13875000Y-11095000D01*
X13855000Y-11075000D02*
X13895000Y-11075000D01*
X13875000Y-11405000D02*
X13875000Y-11445000D01*
X13855000Y-11425000D02*
X13895000Y-11425000D01*
X13875000Y-11755000D02*
X13875000Y-11795000D01*
X13855000Y-11775000D02*
X13895000Y-11775000D01*
X13875000Y-12105000D02*
X13875000Y-12145000D01*
X13855000Y-12125000D02*
X13895000Y-12125000D01*
X13875000Y-12455000D02*
X13875000Y-12495000D01*
X13855000Y-12475000D02*
X13895000Y-12475000D01*
X13875000Y-12805000D02*
X13875000Y-12845000D01*
X13855000Y-12825000D02*
X13895000Y-12825000D01*
X13875000Y-13155000D02*
X13875000Y-13195000D01*
X13855000Y-13175000D02*
X13895000Y-13175000D01*
X13875000Y-13505000D02*
X13875000Y-13545000D01*
X13855000Y-13525000D02*
X13895000Y-13525000D01*
X13875000Y-13855000D02*
X13875000Y-13895000D01*
X13855000Y-13875000D02*
X13895000Y-13875000D01*
X13875000Y-14205000D02*
X13875000Y-14245000D01*
X13855000Y-14225000D02*
X13895000Y-14225000D01*
X13875000Y-14905000D02*
X13875000Y-14945000D01*
X13855000Y-14925000D02*
X13895000Y-14925000D01*
X13977000Y-8695000D02*
X13977000Y-8735000D01*
X13957000Y-8715000D02*
X13997000Y-8715000D01*
X14102500Y-10430500D02*
X14102500Y-10470500D01*
X14082500Y-10450500D02*
X14122500Y-10450500D01*
X14102500Y-10684500D02*
X14102500Y-10724500D01*
X14082500Y-10704500D02*
X14122500Y-10704500D01*
X14225000Y-8255000D02*
X14225000Y-8295000D01*
X14205000Y-8275000D02*
X14245000Y-8275000D01*
X14225000Y-8605000D02*
X14225000Y-8645000D01*
X14205000Y-8625000D02*
X14245000Y-8625000D01*
X14225000Y-11055000D02*
X14225000Y-11095000D01*
X14205000Y-11075000D02*
X14245000Y-11075000D01*
X14225000Y-11405000D02*
X14225000Y-11445000D01*
X14205000Y-11425000D02*
X14245000Y-11425000D01*
X14225000Y-11755000D02*
X14225000Y-11795000D01*
X14205000Y-11775000D02*
X14245000Y-11775000D01*
X14225000Y-12105000D02*
X14225000Y-12145000D01*
X14205000Y-12125000D02*
X14245000Y-12125000D01*
X14225000Y-12455000D02*
X14225000Y-12495000D01*
X14205000Y-12475000D02*
X14245000Y-12475000D01*
X14225000Y-12805000D02*
X14225000Y-12845000D01*
X14205000Y-12825000D02*
X14245000Y-12825000D01*
X14225000Y-13155000D02*
X14225000Y-13195000D01*
X14205000Y-13175000D02*
X14245000Y-13175000D01*
X14225000Y-13505000D02*
X14225000Y-13545000D01*
X14205000Y-13525000D02*
X14245000Y-13525000D01*
X14225000Y-13855000D02*
X14225000Y-13895000D01*
X14205000Y-13875000D02*
X14245000Y-13875000D01*
X14225000Y-14205000D02*
X14225000Y-14245000D01*
X14205000Y-14225000D02*
X14245000Y-14225000D01*
X14225000Y-14905000D02*
X14225000Y-14945000D01*
X14205000Y-14925000D02*
X14245000Y-14925000D01*
X14426000Y-9120000D02*
X14426000Y-9160000D01*
X14406000Y-9140000D02*
X14446000Y-9140000D01*
X14575000Y-8255000D02*
X14575000Y-8295000D01*
X14555000Y-8275000D02*
X14595000Y-8275000D01*
X14575000Y-8605000D02*
X14575000Y-8645000D01*
X14555000Y-8625000D02*
X14595000Y-8625000D01*
X14575000Y-10005000D02*
X14575000Y-10045000D01*
X14555000Y-10025000D02*
X14595000Y-10025000D01*
X14575000Y-10705000D02*
X14575000Y-10745000D01*
X14555000Y-10725000D02*
X14595000Y-10725000D01*
X14575000Y-11055000D02*
X14575000Y-11095000D01*
X14555000Y-11075000D02*
X14595000Y-11075000D01*
X14575000Y-11405000D02*
X14575000Y-11445000D01*
X14555000Y-11425000D02*
X14595000Y-11425000D01*
X14575000Y-11755000D02*
X14575000Y-11795000D01*
X14555000Y-11775000D02*
X14595000Y-11775000D01*
X14575000Y-12105000D02*
X14575000Y-12145000D01*
X14555000Y-12125000D02*
X14595000Y-12125000D01*
X14575000Y-12455000D02*
X14575000Y-12495000D01*
X14555000Y-12475000D02*
X14595000Y-12475000D01*
X14575000Y-12805000D02*
X14575000Y-12845000D01*
X14555000Y-12825000D02*
X14595000Y-12825000D01*
X14575000Y-13155000D02*
X14575000Y-13195000D01*
X14555000Y-13175000D02*
X14595000Y-13175000D01*
X14575000Y-13505000D02*
X14575000Y-13545000D01*
X14555000Y-13525000D02*
X14595000Y-13525000D01*
X14575000Y-13855000D02*
X14575000Y-13895000D01*
X14555000Y-13875000D02*
X14595000Y-13875000D01*
X14575000Y-14205000D02*
X14575000Y-14245000D01*
X14555000Y-14225000D02*
X14595000Y-14225000D01*
X14575000Y-14905000D02*
X14575000Y-14945000D01*
X14555000Y-14925000D02*
X14595000Y-14925000D01*
X14757610Y-8690130D02*
X14757610Y-8730130D01*
X14737610Y-8710130D02*
X14777610Y-8710130D01*
X14806020Y-13190790D02*
X14806020Y-13230790D01*
X14786020Y-13210790D02*
X14826020Y-13210790D01*
X14925000Y-8255000D02*
X14925000Y-8295000D01*
X14905000Y-8275000D02*
X14945000Y-8275000D01*
X14925000Y-8605000D02*
X14925000Y-8645000D01*
X14905000Y-8625000D02*
X14945000Y-8625000D01*
X14925000Y-9655000D02*
X14925000Y-9695000D01*
X14905000Y-9675000D02*
X14945000Y-9675000D01*
X14925000Y-10005000D02*
X14925000Y-10045000D01*
X14905000Y-10025000D02*
X14945000Y-10025000D01*
X14925000Y-10705000D02*
X14925000Y-10745000D01*
X14905000Y-10725000D02*
X14945000Y-10725000D01*
X14925000Y-11055000D02*
X14925000Y-11095000D01*
X14905000Y-11075000D02*
X14945000Y-11075000D01*
X14925000Y-11405000D02*
X14925000Y-11445000D01*
X14905000Y-11425000D02*
X14945000Y-11425000D01*
X14925000Y-11755000D02*
X14925000Y-11795000D01*
X14905000Y-11775000D02*
X14945000Y-11775000D01*
X14925000Y-13505000D02*
X14925000Y-13545000D01*
X14905000Y-13525000D02*
X14945000Y-13525000D01*
X14925000Y-13855000D02*
X14925000Y-13895000D01*
X14905000Y-13875000D02*
X14945000Y-13875000D01*
X14925000Y-14205000D02*
X14925000Y-14245000D01*
X14905000Y-14225000D02*
X14945000Y-14225000D01*
X14925000Y-14555000D02*
X14925000Y-14595000D01*
X14905000Y-14575000D02*
X14945000Y-14575000D01*
X14925000Y-14905000D02*
X14925000Y-14945000D01*
X14905000Y-14925000D02*
X14945000Y-14925000D01*
X15227500Y-9380500D02*
X15227500Y-9420500D01*
X15207500Y-9400500D02*
X15247500Y-9400500D01*
X15275000Y-8255000D02*
X15275000Y-8295000D01*
X15255000Y-8275000D02*
X15295000Y-8275000D01*
X15275000Y-8605000D02*
X15275000Y-8645000D01*
X15255000Y-8625000D02*
X15295000Y-8625000D01*
X15275000Y-9305000D02*
X15275000Y-9345000D01*
X15255000Y-9325000D02*
X15295000Y-9325000D01*
X15275000Y-10005000D02*
X15275000Y-10045000D01*
X15255000Y-10025000D02*
X15295000Y-10025000D01*
X15275000Y-10355000D02*
X15275000Y-10395000D01*
X15255000Y-10375000D02*
X15295000Y-10375000D01*
X15275000Y-10705000D02*
X15275000Y-10745000D01*
X15255000Y-10725000D02*
X15295000Y-10725000D01*
X15275000Y-11055000D02*
X15275000Y-11095000D01*
X15255000Y-11075000D02*
X15295000Y-11075000D01*
X15275000Y-11405000D02*
X15275000Y-11445000D01*
X15255000Y-11425000D02*
X15295000Y-11425000D01*
X15275000Y-12105000D02*
X15275000Y-12145000D01*
X15255000Y-12125000D02*
X15295000Y-12125000D01*
X15275000Y-12455000D02*
X15275000Y-12495000D01*
X15255000Y-12475000D02*
X15295000Y-12475000D01*
X15275000Y-12805000D02*
X15275000Y-12845000D01*
X15255000Y-12825000D02*
X15295000Y-12825000D01*
X15275000Y-13155000D02*
X15275000Y-13195000D01*
X15255000Y-13175000D02*
X15295000Y-13175000D01*
X15275000Y-13855000D02*
X15275000Y-13895000D01*
X15255000Y-13875000D02*
X15295000Y-13875000D01*
X15275000Y-14205000D02*
X15275000Y-14245000D01*
X15255000Y-14225000D02*
X15295000Y-14225000D01*
X15275000Y-14555000D02*
X15275000Y-14595000D01*
X15255000Y-14575000D02*
X15295000Y-14575000D01*
X15275000Y-14905000D02*
X15275000Y-14945000D01*
X15255000Y-14925000D02*
X15295000Y-14925000D01*
X15625000Y-8255000D02*
X15625000Y-8295000D01*
X15605000Y-8275000D02*
X15645000Y-8275000D01*
X15625000Y-8605000D02*
X15625000Y-8645000D01*
X15605000Y-8625000D02*
X15645000Y-8625000D01*
X15625000Y-10005000D02*
X15625000Y-10045000D01*
X15605000Y-10025000D02*
X15645000Y-10025000D01*
X15625000Y-10705000D02*
X15625000Y-10745000D01*
X15605000Y-10725000D02*
X15645000Y-10725000D01*
X15625000Y-11055000D02*
X15625000Y-11095000D01*
X15605000Y-11075000D02*
X15645000Y-11075000D01*
X15625000Y-11405000D02*
X15625000Y-11445000D01*
X15605000Y-11425000D02*
X15645000Y-11425000D01*
X15625000Y-12105000D02*
X15625000Y-12145000D01*
X15605000Y-12125000D02*
X15645000Y-12125000D01*
X15625000Y-12455000D02*
X15625000Y-12495000D01*
X15605000Y-12475000D02*
X15645000Y-12475000D01*
X15625000Y-12805000D02*
X15625000Y-12845000D01*
X15605000Y-12825000D02*
X15645000Y-12825000D01*
X15625000Y-13155000D02*
X15625000Y-13195000D01*
X15605000Y-13175000D02*
X15645000Y-13175000D01*
X15625000Y-13855000D02*
X15625000Y-13895000D01*
X15605000Y-13875000D02*
X15645000Y-13875000D01*
X15625000Y-14205000D02*
X15625000Y-14245000D01*
X15605000Y-14225000D02*
X15645000Y-14225000D01*
X15625000Y-14555000D02*
X15625000Y-14595000D01*
X15605000Y-14575000D02*
X15645000Y-14575000D01*
X15625000Y-14905000D02*
X15625000Y-14945000D01*
X15605000Y-14925000D02*
X15645000Y-14925000D01*
X15975000Y-8255000D02*
X15975000Y-8295000D01*
X15955000Y-8275000D02*
X15995000Y-8275000D01*
X15975000Y-8605000D02*
X15975000Y-8645000D01*
X15955000Y-8625000D02*
X15995000Y-8625000D01*
X15975000Y-10005000D02*
X15975000Y-10045000D01*
X15955000Y-10025000D02*
X15995000Y-10025000D01*
X15975000Y-10705000D02*
X15975000Y-10745000D01*
X15955000Y-10725000D02*
X15995000Y-10725000D01*
X15975000Y-11055000D02*
X15975000Y-11095000D01*
X15955000Y-11075000D02*
X15995000Y-11075000D01*
X15975000Y-11405000D02*
X15975000Y-11445000D01*
X15955000Y-11425000D02*
X15995000Y-11425000D01*
X15975000Y-12105000D02*
X15975000Y-12145000D01*
X15955000Y-12125000D02*
X15995000Y-12125000D01*
X15975000Y-12455000D02*
X15975000Y-12495000D01*
X15955000Y-12475000D02*
X15995000Y-12475000D01*
X15975000Y-13155000D02*
X15975000Y-13195000D01*
X15955000Y-13175000D02*
X15995000Y-13175000D01*
X15975000Y-13855000D02*
X15975000Y-13895000D01*
X15955000Y-13875000D02*
X15995000Y-13875000D01*
X15975000Y-14205000D02*
X15975000Y-14245000D01*
X15955000Y-14225000D02*
X15995000Y-14225000D01*
X15975000Y-14555000D02*
X15975000Y-14595000D01*
X15955000Y-14575000D02*
X15995000Y-14575000D01*
X15975000Y-14905000D02*
X15975000Y-14945000D01*
X15955000Y-14925000D02*
X15995000Y-14925000D01*
X16051400Y-10308500D02*
X16051400Y-10348500D01*
X16031400Y-10328500D02*
X16071400Y-10328500D01*
X16325000Y-8255000D02*
X16325000Y-8295000D01*
X16305000Y-8275000D02*
X16345000Y-8275000D01*
X16325000Y-8605000D02*
X16325000Y-8645000D01*
X16305000Y-8625000D02*
X16345000Y-8625000D01*
X16325000Y-8955000D02*
X16325000Y-8995000D01*
X16305000Y-8975000D02*
X16345000Y-8975000D01*
X16325000Y-10005000D02*
X16325000Y-10045000D01*
X16305000Y-10025000D02*
X16345000Y-10025000D01*
X16325000Y-10355000D02*
X16325000Y-10395000D01*
X16305000Y-10375000D02*
X16345000Y-10375000D01*
X16325000Y-10705000D02*
X16325000Y-10745000D01*
X16305000Y-10725000D02*
X16345000Y-10725000D01*
X16325000Y-11055000D02*
X16325000Y-11095000D01*
X16305000Y-11075000D02*
X16345000Y-11075000D01*
X16325000Y-11405000D02*
X16325000Y-11445000D01*
X16305000Y-11425000D02*
X16345000Y-11425000D01*
X16325000Y-12105000D02*
X16325000Y-12145000D01*
X16305000Y-12125000D02*
X16345000Y-12125000D01*
X16325000Y-12455000D02*
X16325000Y-12495000D01*
X16305000Y-12475000D02*
X16345000Y-12475000D01*
X16325000Y-12805000D02*
X16325000Y-12845000D01*
X16305000Y-12825000D02*
X16345000Y-12825000D01*
X16325000Y-13155000D02*
X16325000Y-13195000D01*
X16305000Y-13175000D02*
X16345000Y-13175000D01*
X16325000Y-13855000D02*
X16325000Y-13895000D01*
X16305000Y-13875000D02*
X16345000Y-13875000D01*
X16325000Y-14205000D02*
X16325000Y-14245000D01*
X16305000Y-14225000D02*
X16345000Y-14225000D01*
X16325000Y-14555000D02*
X16325000Y-14595000D01*
X16305000Y-14575000D02*
X16345000Y-14575000D01*
X16325000Y-14905000D02*
X16325000Y-14945000D01*
X16305000Y-14925000D02*
X16345000Y-14925000D01*
X16381400Y-9334500D02*
X16381400Y-9374500D01*
X16361400Y-9354500D02*
X16401400Y-9354500D01*
X16675000Y-8255000D02*
X16675000Y-8295000D01*
X16655000Y-8275000D02*
X16695000Y-8275000D01*
X16675000Y-8605000D02*
X16675000Y-8645000D01*
X16655000Y-8625000D02*
X16695000Y-8625000D01*
X16675000Y-10355000D02*
X16675000Y-10395000D01*
X16655000Y-10375000D02*
X16695000Y-10375000D01*
X16675000Y-10705000D02*
X16675000Y-10745000D01*
X16655000Y-10725000D02*
X16695000Y-10725000D01*
X16675000Y-11055000D02*
X16675000Y-11095000D01*
X16655000Y-11075000D02*
X16695000Y-11075000D01*
X16675000Y-11405000D02*
X16675000Y-11445000D01*
X16655000Y-11425000D02*
X16695000Y-11425000D01*
X16675000Y-12105000D02*
X16675000Y-12145000D01*
X16655000Y-12125000D02*
X16695000Y-12125000D01*
X16675000Y-12455000D02*
X16675000Y-12495000D01*
X16655000Y-12475000D02*
X16695000Y-12475000D01*
X16675000Y-12805000D02*
X16675000Y-12845000D01*
X16655000Y-12825000D02*
X16695000Y-12825000D01*
X16675000Y-13155000D02*
X16675000Y-13195000D01*
X16655000Y-13175000D02*
X16695000Y-13175000D01*
X16675000Y-13855000D02*
X16675000Y-13895000D01*
X16655000Y-13875000D02*
X16695000Y-13875000D01*
X16675000Y-14205000D02*
X16675000Y-14245000D01*
X16655000Y-14225000D02*
X16695000Y-14225000D01*
X16675000Y-14555000D02*
X16675000Y-14595000D01*
X16655000Y-14575000D02*
X16695000Y-14575000D01*
X16675000Y-14905000D02*
X16675000Y-14945000D01*
X16655000Y-14925000D02*
X16695000Y-14925000D01*
X16827500Y-11479500D02*
X16827500Y-11519500D01*
X16807500Y-11499500D02*
X16847500Y-11499500D01*
X16827500Y-13659500D02*
X16827500Y-13699500D01*
X16807500Y-13679500D02*
X16847500Y-13679500D01*
X16915500Y-10088500D02*
X16915500Y-10128500D01*
X16895500Y-10108500D02*
X16935500Y-10108500D01*
X17025000Y-8255000D02*
X17025000Y-8295000D01*
X17005000Y-8275000D02*
X17045000Y-8275000D01*
X17025000Y-8605000D02*
X17025000Y-8645000D01*
X17005000Y-8625000D02*
X17045000Y-8625000D01*
X17025000Y-8955000D02*
X17025000Y-8995000D01*
X17005000Y-8975000D02*
X17045000Y-8975000D01*
X17025000Y-9305000D02*
X17025000Y-9345000D01*
X17005000Y-9325000D02*
X17045000Y-9325000D01*
X17025000Y-10005000D02*
X17025000Y-10045000D01*
X17005000Y-10025000D02*
X17045000Y-10025000D01*
X17025000Y-10355000D02*
X17025000Y-10395000D01*
X17005000Y-10375000D02*
X17045000Y-10375000D01*
X17025000Y-10705000D02*
X17025000Y-10745000D01*
X17005000Y-10725000D02*
X17045000Y-10725000D01*
X17025000Y-11055000D02*
X17025000Y-11095000D01*
X17005000Y-11075000D02*
X17045000Y-11075000D01*
X17025000Y-11405000D02*
X17025000Y-11445000D01*
X17005000Y-11425000D02*
X17045000Y-11425000D01*
X17025000Y-13855000D02*
X17025000Y-13895000D01*
X17005000Y-13875000D02*
X17045000Y-13875000D01*
X17025000Y-14205000D02*
X17025000Y-14245000D01*
X17005000Y-14225000D02*
X17045000Y-14225000D01*
X17025000Y-14555000D02*
X17025000Y-14595000D01*
X17005000Y-14575000D02*
X17045000Y-14575000D01*
X17025000Y-14905000D02*
X17025000Y-14945000D01*
X17005000Y-14925000D02*
X17045000Y-14925000D01*
X17110310Y-10186610D02*
X17110310Y-10226610D01*
X17090310Y-10206610D02*
X17130310Y-10206610D01*
X17375000Y-8255000D02*
X17375000Y-8295000D01*
X17355000Y-8275000D02*
X17395000Y-8275000D01*
X17375000Y-8605000D02*
X17375000Y-8645000D01*
X17355000Y-8625000D02*
X17395000Y-8625000D01*
X17375000Y-8955000D02*
X17375000Y-8995000D01*
X17355000Y-8975000D02*
X17395000Y-8975000D01*
X17375000Y-9305000D02*
X17375000Y-9345000D01*
X17355000Y-9325000D02*
X17395000Y-9325000D01*
X17375000Y-10355000D02*
X17375000Y-10395000D01*
X17355000Y-10375000D02*
X17395000Y-10375000D01*
X17375000Y-10705000D02*
X17375000Y-10745000D01*
X17355000Y-10725000D02*
X17395000Y-10725000D01*
X17375000Y-11055000D02*
X17375000Y-11095000D01*
X17355000Y-11075000D02*
X17395000Y-11075000D01*
X17375000Y-11405000D02*
X17375000Y-11445000D01*
X17355000Y-11425000D02*
X17395000Y-11425000D01*
X17375000Y-13855000D02*
X17375000Y-13895000D01*
X17355000Y-13875000D02*
X17395000Y-13875000D01*
X17375000Y-14205000D02*
X17375000Y-14245000D01*
X17355000Y-14225000D02*
X17395000Y-14225000D01*
X17375000Y-14555000D02*
X17375000Y-14595000D01*
X17355000Y-14575000D02*
X17395000Y-14575000D01*
X17375000Y-14905000D02*
X17375000Y-14945000D01*
X17355000Y-14925000D02*
X17395000Y-14925000D01*
X17565500Y-10088500D02*
X17565500Y-10128500D01*
X17545500Y-10108500D02*
X17585500Y-10108500D01*
X17725000Y-8255000D02*
X17725000Y-8295000D01*
X17705000Y-8275000D02*
X17745000Y-8275000D01*
X17725000Y-8605000D02*
X17725000Y-8645000D01*
X17705000Y-8625000D02*
X17745000Y-8625000D01*
X17725000Y-8955000D02*
X17725000Y-8995000D01*
X17705000Y-8975000D02*
X17745000Y-8975000D01*
X17725000Y-9305000D02*
X17725000Y-9345000D01*
X17705000Y-9325000D02*
X17745000Y-9325000D01*
X17725000Y-10705000D02*
X17725000Y-10745000D01*
X17705000Y-10725000D02*
X17745000Y-10725000D01*
X17725000Y-11055000D02*
X17725000Y-11095000D01*
X17705000Y-11075000D02*
X17745000Y-11075000D01*
X17725000Y-11405000D02*
X17725000Y-11445000D01*
X17705000Y-11425000D02*
X17745000Y-11425000D01*
X17725000Y-11755000D02*
X17725000Y-11795000D01*
X17705000Y-11775000D02*
X17745000Y-11775000D01*
X17725000Y-12105000D02*
X17725000Y-12145000D01*
X17705000Y-12125000D02*
X17745000Y-12125000D01*
X17725000Y-12455000D02*
X17725000Y-12495000D01*
X17705000Y-12475000D02*
X17745000Y-12475000D01*
X17725000Y-12805000D02*
X17725000Y-12845000D01*
X17705000Y-12825000D02*
X17745000Y-12825000D01*
X17725000Y-13155000D02*
X17725000Y-13195000D01*
X17705000Y-13175000D02*
X17745000Y-13175000D01*
X17725000Y-13505000D02*
X17725000Y-13545000D01*
X17705000Y-13525000D02*
X17745000Y-13525000D01*
X17725000Y-13855000D02*
X17725000Y-13895000D01*
X17705000Y-13875000D02*
X17745000Y-13875000D01*
X17725000Y-14205000D02*
X17725000Y-14245000D01*
X17705000Y-14225000D02*
X17745000Y-14225000D01*
X17725000Y-14555000D02*
X17725000Y-14595000D01*
X17705000Y-14575000D02*
X17745000Y-14575000D01*
X17725000Y-14905000D02*
X17725000Y-14945000D01*
X17705000Y-14925000D02*
X17745000Y-14925000D01*
X17910500Y-9894500D02*
X17910500Y-9934500D01*
X17890500Y-9914500D02*
X17930500Y-9914500D01*
X18075000Y-8255000D02*
X18075000Y-8295000D01*
X18055000Y-8275000D02*
X18095000Y-8275000D01*
X18075000Y-8605000D02*
X18075000Y-8645000D01*
X18055000Y-8625000D02*
X18095000Y-8625000D01*
X18075000Y-9655000D02*
X18075000Y-9695000D01*
X18055000Y-9675000D02*
X18095000Y-9675000D01*
X18075000Y-10005000D02*
X18075000Y-10045000D01*
X18055000Y-10025000D02*
X18095000Y-10025000D01*
X18075000Y-10705000D02*
X18075000Y-10745000D01*
X18055000Y-10725000D02*
X18095000Y-10725000D01*
X18075000Y-11055000D02*
X18075000Y-11095000D01*
X18055000Y-11075000D02*
X18095000Y-11075000D01*
X18075000Y-11405000D02*
X18075000Y-11445000D01*
X18055000Y-11425000D02*
X18095000Y-11425000D01*
X18075000Y-11755000D02*
X18075000Y-11795000D01*
X18055000Y-11775000D02*
X18095000Y-11775000D01*
X18075000Y-12105000D02*
X18075000Y-12145000D01*
X18055000Y-12125000D02*
X18095000Y-12125000D01*
X18075000Y-12455000D02*
X18075000Y-12495000D01*
X18055000Y-12475000D02*
X18095000Y-12475000D01*
X18075000Y-12805000D02*
X18075000Y-12845000D01*
X18055000Y-12825000D02*
X18095000Y-12825000D01*
X18075000Y-13155000D02*
X18075000Y-13195000D01*
X18055000Y-13175000D02*
X18095000Y-13175000D01*
X18075000Y-13505000D02*
X18075000Y-13545000D01*
X18055000Y-13525000D02*
X18095000Y-13525000D01*
X18075000Y-13855000D02*
X18075000Y-13895000D01*
X18055000Y-13875000D02*
X18095000Y-13875000D01*
X18075000Y-14205000D02*
X18075000Y-14245000D01*
X18055000Y-14225000D02*
X18095000Y-14225000D01*
X18075000Y-14555000D02*
X18075000Y-14595000D01*
X18055000Y-14575000D02*
X18095000Y-14575000D01*
X18183500Y-10377500D02*
X18183500Y-10417500D01*
X18163500Y-10397500D02*
X18203500Y-10397500D01*
X18425000Y-8255000D02*
X18425000Y-8295000D01*
X18405000Y-8275000D02*
X18445000Y-8275000D01*
X18425000Y-8605000D02*
X18425000Y-8645000D01*
X18405000Y-8625000D02*
X18445000Y-8625000D01*
X18425000Y-9305000D02*
X18425000Y-9345000D01*
X18405000Y-9325000D02*
X18445000Y-9325000D01*
X18425000Y-11405000D02*
X18425000Y-11445000D01*
X18405000Y-11425000D02*
X18445000Y-11425000D01*
X18425000Y-11755000D02*
X18425000Y-11795000D01*
X18405000Y-11775000D02*
X18445000Y-11775000D01*
X18425000Y-12105000D02*
X18425000Y-12145000D01*
X18405000Y-12125000D02*
X18445000Y-12125000D01*
X18425000Y-12455000D02*
X18425000Y-12495000D01*
X18405000Y-12475000D02*
X18445000Y-12475000D01*
X18425000Y-12805000D02*
X18425000Y-12845000D01*
X18405000Y-12825000D02*
X18445000Y-12825000D01*
X18425000Y-13155000D02*
X18425000Y-13195000D01*
X18405000Y-13175000D02*
X18445000Y-13175000D01*
X18425000Y-13505000D02*
X18425000Y-13545000D01*
X18405000Y-13525000D02*
X18445000Y-13525000D01*
X18425000Y-13855000D02*
X18425000Y-13895000D01*
X18405000Y-13875000D02*
X18445000Y-13875000D01*
X18425000Y-14205000D02*
X18425000Y-14245000D01*
X18405000Y-14225000D02*
X18445000Y-14225000D01*
X18425000Y-14555000D02*
X18425000Y-14595000D01*
X18405000Y-14575000D02*
X18445000Y-14575000D01*
X18425000Y-14905000D02*
X18425000Y-14945000D01*
X18405000Y-14925000D02*
X18445000Y-14925000D01*
X18775000Y-8255000D02*
X18775000Y-8295000D01*
X18755000Y-8275000D02*
X18795000Y-8275000D01*
X18775000Y-8605000D02*
X18775000Y-8645000D01*
X18755000Y-8625000D02*
X18795000Y-8625000D01*
X18775000Y-9305000D02*
X18775000Y-9345000D01*
X18755000Y-9325000D02*
X18795000Y-9325000D01*
X18775000Y-9655000D02*
X18775000Y-9695000D01*
X18755000Y-9675000D02*
X18795000Y-9675000D01*
X18775000Y-10705000D02*
X18775000Y-10745000D01*
X18755000Y-10725000D02*
X18795000Y-10725000D01*
X18775000Y-11405000D02*
X18775000Y-11445000D01*
X18755000Y-11425000D02*
X18795000Y-11425000D01*
X18775000Y-11755000D02*
X18775000Y-11795000D01*
X18755000Y-11775000D02*
X18795000Y-11775000D01*
X18775000Y-12105000D02*
X18775000Y-12145000D01*
X18755000Y-12125000D02*
X18795000Y-12125000D01*
X18775000Y-12455000D02*
X18775000Y-12495000D01*
X18755000Y-12475000D02*
X18795000Y-12475000D01*
X18775000Y-12805000D02*
X18775000Y-12845000D01*
X18755000Y-12825000D02*
X18795000Y-12825000D01*
X18775000Y-13155000D02*
X18775000Y-13195000D01*
X18755000Y-13175000D02*
X18795000Y-13175000D01*
X18775000Y-13505000D02*
X18775000Y-13545000D01*
X18755000Y-13525000D02*
X18795000Y-13525000D01*
X18775000Y-13855000D02*
X18775000Y-13895000D01*
X18755000Y-13875000D02*
X18795000Y-13875000D01*
X18775000Y-14205000D02*
X18775000Y-14245000D01*
X18755000Y-14225000D02*
X18795000Y-14225000D01*
X19125000Y-8255000D02*
X19125000Y-8295000D01*
X19105000Y-8275000D02*
X19145000Y-8275000D01*
X19125000Y-8605000D02*
X19125000Y-8645000D01*
X19105000Y-8625000D02*
X19145000Y-8625000D01*
X19125000Y-8955000D02*
X19125000Y-8995000D01*
X19105000Y-8975000D02*
X19145000Y-8975000D01*
X19125000Y-9305000D02*
X19125000Y-9345000D01*
X19105000Y-9325000D02*
X19145000Y-9325000D01*
X19125000Y-9655000D02*
X19125000Y-9695000D01*
X19105000Y-9675000D02*
X19145000Y-9675000D01*
X19125000Y-10005000D02*
X19125000Y-10045000D01*
X19105000Y-10025000D02*
X19145000Y-10025000D01*
X19125000Y-10355000D02*
X19125000Y-10395000D01*
X19105000Y-10375000D02*
X19145000Y-10375000D01*
X19125000Y-10705000D02*
X19125000Y-10745000D01*
X19105000Y-10725000D02*
X19145000Y-10725000D01*
X19125000Y-11055000D02*
X19125000Y-11095000D01*
X19105000Y-11075000D02*
X19145000Y-11075000D01*
X19125000Y-11405000D02*
X19125000Y-11445000D01*
X19105000Y-11425000D02*
X19145000Y-11425000D01*
X19125000Y-11755000D02*
X19125000Y-11795000D01*
X19105000Y-11775000D02*
X19145000Y-11775000D01*
X19125000Y-12105000D02*
X19125000Y-12145000D01*
X19105000Y-12125000D02*
X19145000Y-12125000D01*
X19125000Y-12455000D02*
X19125000Y-12495000D01*
X19105000Y-12475000D02*
X19145000Y-12475000D01*
X19125000Y-12805000D02*
X19125000Y-12845000D01*
X19105000Y-12825000D02*
X19145000Y-12825000D01*
X19125000Y-13155000D02*
X19125000Y-13195000D01*
X19105000Y-13175000D02*
X19145000Y-13175000D01*
X19125000Y-13505000D02*
X19125000Y-13545000D01*
X19105000Y-13525000D02*
X19145000Y-13525000D01*
X19125000Y-13855000D02*
X19125000Y-13895000D01*
X19105000Y-13875000D02*
X19145000Y-13875000D01*
X19125000Y-14205000D02*
X19125000Y-14245000D01*
X19105000Y-14225000D02*
X19145000Y-14225000D01*
X19125000Y-14555000D02*
X19125000Y-14595000D01*
X19105000Y-14575000D02*
X19145000Y-14575000D01*
X19125000Y-14905000D02*
X19125000Y-14945000D01*
X19105000Y-14925000D02*
X19145000Y-14925000D01*
X12691664Y-10387785D02*
X12691664Y-10331216D01*
X12635095Y-10331216D01*
X12635095Y-10387785D01*
X12691664Y-10387785D01*
X12941664Y-10387785D02*
X12941664Y-10331216D01*
X12885095Y-10331216D01*
X12885095Y-10387785D01*
X12941664Y-10387785D01*
X15609664Y-10356785D02*
X15609664Y-10300216D01*
X15553095Y-10300216D01*
X15553095Y-10356785D01*
X15609664Y-10356785D01*
X15859664Y-10356785D02*
X15859664Y-10300216D01*
X15803095Y-10300216D01*
X15803095Y-10356785D01*
X15859664Y-10356785D01*
X17718785Y-9688785D02*
X17718785Y-9632216D01*
X17662216Y-9632216D01*
X17662216Y-9688785D01*
X17718785Y-9688785D01*
X17718785Y-9942785D02*
X17718785Y-9886216D01*
X17662216Y-9886216D01*
X17662216Y-9942785D01*
X17718785Y-9942785D01*
X18480785Y-9688785D02*
X18480785Y-9632216D01*
X18424216Y-9632216D01*
X18424216Y-9688785D01*
X18480785Y-9688785D01*
X18480785Y-9942785D02*
X18480785Y-9886216D01*
X18424216Y-9886216D01*
X18424216Y-9942785D01*
X18480785Y-9942785D01*
X14741500Y-10285500D02*
X14786500Y-10240500D01*
X14741500Y-10195500D01*
X14696500Y-10240500D01*
X14741500Y-10285500D01*
X14995500Y-10285500D02*
X15040500Y-10240500D01*
X14995500Y-10195500D01*
X14950500Y-10240500D01*
X14995500Y-10285500D01*
X17699500Y-10442500D02*
X17744500Y-10397500D01*
X17699500Y-10352500D01*
X17654500Y-10397500D01*
X17699500Y-10442500D01*
X17953500Y-10442500D02*
X17998500Y-10397500D01*
X17953500Y-10352500D01*
X17908500Y-10397500D01*
X17953500Y-10442500D01*
X10629500Y-8979500D02*
X10729500Y-9079500D01*
X10729500Y-8979500D02*
X10629500Y-9079500D01*
X10729500Y-9029500D02*
G75*
G02*
X10629500Y-9029500I-50000J0D01*
G01*
X10629500Y-9029500D02*
G75*
G02*
X10729500Y-9029500I50000J0D01*
G01*
X10629500Y-10179500D02*
X10729500Y-10279500D01*
X10729500Y-10179500D02*
X10629500Y-10279500D01*
X10729500Y-10229500D02*
G75*
G02*
X10629500Y-10229500I-50000J0D01*
G01*
X10629500Y-10229500D02*
G75*
G02*
X10729500Y-10229500I50000J0D01*
G01*
X13364500Y-10146500D02*
X13464500Y-10246500D01*
X13464500Y-10146500D02*
X13364500Y-10246500D01*
X13464500Y-10196500D02*
G75*
G02*
X13364500Y-10196500I-50000J0D01*
G01*
X13364500Y-10196500D02*
G75*
G02*
X13464500Y-10196500I50000J0D01*
G01*
X13364500Y-10400500D02*
X13464500Y-10500500D01*
X13464500Y-10400500D02*
X13364500Y-10500500D01*
X13464500Y-10450500D02*
G75*
G02*
X13364500Y-10450500I-50000J0D01*
G01*
X13364500Y-10450500D02*
G75*
G02*
X13464500Y-10450500I50000J0D01*
G01*
X13364500Y-10654500D02*
X13464500Y-10754500D01*
X13464500Y-10654500D02*
X13364500Y-10754500D01*
X13464500Y-10704500D02*
G75*
G02*
X13364500Y-10704500I-50000J0D01*
G01*
X13364500Y-10704500D02*
G75*
G02*
X13464500Y-10704500I50000J0D01*
G01*
X13364500Y-10908500D02*
X13464500Y-11008500D01*
X13464500Y-10908500D02*
X13364500Y-11008500D01*
X13464500Y-10958500D02*
G75*
G02*
X13364500Y-10958500I-50000J0D01*
G01*
X13364500Y-10958500D02*
G75*
G02*
X13464500Y-10958500I50000J0D01*
G01*
X13827500Y-10146500D02*
X13927500Y-10246500D01*
X13927500Y-10146500D02*
X13827500Y-10246500D01*
X13927500Y-10196500D02*
G75*
G02*
X13827500Y-10196500I-50000J0D01*
G01*
X13827500Y-10196500D02*
G75*
G02*
X13927500Y-10196500I50000J0D01*
G01*
X13827500Y-10400500D02*
X13927500Y-10500500D01*
X13927500Y-10400500D02*
X13827500Y-10500500D01*
X13927500Y-10450500D02*
G75*
G02*
X13827500Y-10450500I-50000J0D01*
G01*
X13827500Y-10450500D02*
G75*
G02*
X13927500Y-10450500I50000J0D01*
G01*
X13827500Y-10654500D02*
X13927500Y-10754500D01*
X13927500Y-10654500D02*
X13827500Y-10754500D01*
X13927500Y-10704500D02*
G75*
G02*
X13827500Y-10704500I-50000J0D01*
G01*
X13827500Y-10704500D02*
G75*
G02*
X13927500Y-10704500I50000J0D01*
G01*
X14290500Y-10146500D02*
X14390500Y-10246500D01*
X14390500Y-10146500D02*
X14290500Y-10246500D01*
X14390500Y-10196500D02*
G75*
G02*
X14290500Y-10196500I-50000J0D01*
G01*
X14290500Y-10196500D02*
G75*
G02*
X14390500Y-10196500I50000J0D01*
G01*
X14290500Y-10400500D02*
X14390500Y-10500500D01*
X14390500Y-10400500D02*
X14290500Y-10500500D01*
X14390500Y-10450500D02*
G75*
G02*
X14290500Y-10450500I-50000J0D01*
G01*
X14290500Y-10450500D02*
G75*
G02*
X14390500Y-10450500I50000J0D01*
G01*
X14290500Y-10654500D02*
X14390500Y-10754500D01*
X14390500Y-10654500D02*
X14290500Y-10754500D01*
X14390500Y-10704500D02*
G75*
G02*
X14290500Y-10704500I-50000J0D01*
G01*
X14290500Y-10704500D02*
G75*
G02*
X14390500Y-10704500I50000J0D01*
G01*
X15591380Y-9304500D02*
X15691380Y-9404500D01*
X15691380Y-9304500D02*
X15591380Y-9404500D01*
X15691380Y-9354500D02*
G75*
G02*
X15591380Y-9354500I-50000J0D01*
G01*
X15591380Y-9354500D02*
G75*
G02*
X15691380Y-9354500I50000J0D01*
G01*
X16091380Y-9304500D02*
X16191380Y-9404500D01*
X16191380Y-9304500D02*
X16091380Y-9404500D01*
X16191380Y-9354500D02*
G75*
G02*
X16091380Y-9354500I-50000J0D01*
G01*
X16091380Y-9354500D02*
G75*
G02*
X16191380Y-9354500I50000J0D01*
G01*
D12*
X16620500Y-9603500D02*
X16730500Y-9713500D01*
X16730500Y-9603500D02*
X16620500Y-9713500D01*
X16675500Y-9603500D02*
X16675500Y-9713500D01*
X16620500Y-9658500D02*
X16730500Y-9658500D01*
X16620500Y-10053500D02*
X16730500Y-10163500D01*
X16730500Y-10053500D02*
X16620500Y-10163500D01*
X16675500Y-10053500D02*
X16675500Y-10163500D01*
X16620500Y-10108500D02*
X16730500Y-10108500D01*
X17270500Y-9603500D02*
X17380500Y-9713500D01*
X17380500Y-9603500D02*
X17270500Y-9713500D01*
X17325500Y-9603500D02*
X17325500Y-9713500D01*
X17270500Y-9658500D02*
X17380500Y-9658500D01*
X17270500Y-10053500D02*
X17380500Y-10163500D01*
X17380500Y-10053500D02*
X17270500Y-10163500D01*
X17325500Y-10053500D02*
X17325500Y-10163500D01*
X17270500Y-10108500D02*
X17380500Y-10108500D01*
X18771500Y-8909500D02*
X18881500Y-9019500D01*
X18881500Y-8909500D02*
X18771500Y-9019500D01*
X18826500Y-8909500D02*
X18826500Y-9019500D01*
X18771500Y-8964500D02*
X18881500Y-8964500D01*
X18771500Y-9925500D02*
X18881500Y-10035500D01*
X18881500Y-9925500D02*
X18771500Y-10035500D01*
X18826500Y-9925500D02*
X18826500Y-10035500D01*
X18771500Y-9980500D02*
X18881500Y-9980500D01*
D13*
X10419500Y-9559500D02*
X10549500Y-9689500D01*
X10549500Y-9559500D02*
X10419500Y-9689500D01*
X10530462Y-9670462D02*
X10530462Y-9578538D01*
X10438538Y-9578538D01*
X10438538Y-9670462D01*
X10530462Y-9670462D01*
X11834500Y-10164500D02*
X11964500Y-10294500D01*
X11964500Y-10164500D02*
X11834500Y-10294500D01*
X11945462Y-10275462D02*
X11945462Y-10183538D01*
X11853538Y-10183538D01*
X11853538Y-10275462D01*
X11945462Y-10275462D01*
X11839500Y-8959500D02*
X11969500Y-9089500D01*
X11969500Y-8959500D02*
X11839500Y-9089500D01*
X11950462Y-9070462D02*
X11950462Y-8978538D01*
X11858538Y-8978538D01*
X11858538Y-9070462D01*
X11950462Y-9070462D01*
X12683500Y-9335500D02*
X12813500Y-9465500D01*
X12813500Y-9335500D02*
X12683500Y-9465500D01*
X12794462Y-9446462D02*
X12794462Y-9354538D01*
X12702538Y-9354538D01*
X12702538Y-9446462D01*
X12794462Y-9446462D01*
X13183500Y-9335500D02*
X13313500Y-9465500D01*
X13313500Y-9335500D02*
X13183500Y-9465500D01*
X13294462Y-9446462D02*
X13294462Y-9354538D01*
X13202538Y-9354538D01*
X13202538Y-9446462D01*
X13294462Y-9446462D01*
X13683500Y-9335500D02*
X13813500Y-9465500D01*
X13813500Y-9335500D02*
X13683500Y-9465500D01*
X13794462Y-9446462D02*
X13794462Y-9354538D01*
X13702538Y-9354538D01*
X13702538Y-9446462D01*
X13794462Y-9446462D01*
X14392500Y-9335500D02*
X14522500Y-9465500D01*
X14522500Y-9335500D02*
X14392500Y-9465500D01*
X14503462Y-9446462D02*
X14503462Y-9354538D01*
X14411538Y-9354538D01*
X14411538Y-9446462D01*
X14503462Y-9446462D01*
X14892500Y-9335500D02*
X15022500Y-9465500D01*
X15022500Y-9335500D02*
X14892500Y-9465500D01*
X15003462Y-9446462D02*
X15003462Y-9354538D01*
X14911538Y-9354538D01*
X14911538Y-9446462D01*
X15003462Y-9446462D01*
D14*
X16630500Y-9034500D02*
X16790500Y-9194500D01*
X16790500Y-9034500D02*
X16630500Y-9194500D01*
X16710500Y-9194500D02*
X16790500Y-9114500D01*
X16710500Y-9034500D01*
X16630500Y-9114500D01*
X16710500Y-9194500D01*
X18154500Y-9034500D02*
X18314500Y-9194500D01*
X18314500Y-9034500D02*
X18154500Y-9194500D01*
X18234500Y-9194500D02*
X18314500Y-9114500D01*
X18234500Y-9034500D01*
X18154500Y-9114500D01*
X18234500Y-9194500D01*
D11*
X10255777Y-15456484D02*
X10255777Y-15256484D01*
X10255777Y-15256484D02*
X10303396Y-15256484D01*
X10303396Y-15256484D02*
X10331967Y-15266008D01*
X10331967Y-15266008D02*
X10351015Y-15285055D01*
X10351015Y-15285055D02*
X10360539Y-15304103D01*
X10360539Y-15304103D02*
X10370063Y-15342198D01*
X10370063Y-15342198D02*
X10370063Y-15370769D01*
X10370063Y-15370769D02*
X10360539Y-15408865D01*
X10360539Y-15408865D02*
X10351015Y-15427912D01*
X10351015Y-15427912D02*
X10331967Y-15446960D01*
X10331967Y-15446960D02*
X10303396Y-15456484D01*
X10303396Y-15456484D02*
X10255777Y-15456484D01*
X10455777Y-15456484D02*
X10455777Y-15323150D01*
X10455777Y-15361246D02*
X10465301Y-15342198D01*
X10465301Y-15342198D02*
X10474824Y-15332674D01*
X10474824Y-15332674D02*
X10493872Y-15323150D01*
X10493872Y-15323150D02*
X10512920Y-15323150D01*
X10579586Y-15456484D02*
X10579586Y-15323150D01*
X10579586Y-15256484D02*
X10570063Y-15266008D01*
X10570063Y-15266008D02*
X10579586Y-15275531D01*
X10579586Y-15275531D02*
X10589110Y-15266008D01*
X10589110Y-15266008D02*
X10579586Y-15256484D01*
X10579586Y-15256484D02*
X10579586Y-15275531D01*
X10703396Y-15456484D02*
X10684348Y-15446960D01*
X10684348Y-15446960D02*
X10674824Y-15427912D01*
X10674824Y-15427912D02*
X10674824Y-15256484D01*
X10808158Y-15456484D02*
X10789110Y-15446960D01*
X10789110Y-15446960D02*
X10779586Y-15427912D01*
X10779586Y-15427912D02*
X10779586Y-15256484D01*
X11036729Y-15456484D02*
X11036729Y-15256484D01*
X11036729Y-15256484D02*
X11103396Y-15399341D01*
X11103396Y-15399341D02*
X11170063Y-15256484D01*
X11170063Y-15256484D02*
X11170063Y-15456484D01*
X11351015Y-15456484D02*
X11351015Y-15351722D01*
X11351015Y-15351722D02*
X11341491Y-15332674D01*
X11341491Y-15332674D02*
X11322443Y-15323150D01*
X11322443Y-15323150D02*
X11284348Y-15323150D01*
X11284348Y-15323150D02*
X11265301Y-15332674D01*
X11351015Y-15446960D02*
X11331967Y-15456484D01*
X11331967Y-15456484D02*
X11284348Y-15456484D01*
X11284348Y-15456484D02*
X11265301Y-15446960D01*
X11265301Y-15446960D02*
X11255777Y-15427912D01*
X11255777Y-15427912D02*
X11255777Y-15408865D01*
X11255777Y-15408865D02*
X11265301Y-15389817D01*
X11265301Y-15389817D02*
X11284348Y-15380293D01*
X11284348Y-15380293D02*
X11331967Y-15380293D01*
X11331967Y-15380293D02*
X11351015Y-15370769D01*
X11446253Y-15323150D02*
X11446253Y-15523150D01*
X11446253Y-15332674D02*
X11465301Y-15323150D01*
X11465301Y-15323150D02*
X11503396Y-15323150D01*
X11503396Y-15323150D02*
X11522443Y-15332674D01*
X11522443Y-15332674D02*
X11531967Y-15342198D01*
X11531967Y-15342198D02*
X11541491Y-15361246D01*
X11541491Y-15361246D02*
X11541491Y-15418388D01*
X11541491Y-15418388D02*
X11531967Y-15437436D01*
X11531967Y-15437436D02*
X11522443Y-15446960D01*
X11522443Y-15446960D02*
X11503396Y-15456484D01*
X11503396Y-15456484D02*
X11465301Y-15456484D01*
X11465301Y-15456484D02*
X11446253Y-15446960D01*
X11627205Y-15437436D02*
X11636729Y-15446960D01*
X11636729Y-15446960D02*
X11627205Y-15456484D01*
X11627205Y-15456484D02*
X11617682Y-15446960D01*
X11617682Y-15446960D02*
X11627205Y-15437436D01*
X11627205Y-15437436D02*
X11627205Y-15456484D01*
X11627205Y-15332674D02*
X11636729Y-15342198D01*
X11636729Y-15342198D02*
X11627205Y-15351722D01*
X11627205Y-15351722D02*
X11617682Y-15342198D01*
X11617682Y-15342198D02*
X11627205Y-15332674D01*
X11627205Y-15332674D02*
X11627205Y-15351722D01*
D10*
X9975000Y-15775000D02*
X9995000Y-15795000D01*
X9995000Y-15775000D02*
X9975000Y-15795000D01*
D11*
X10293872Y-15676484D02*
X10312920Y-15676484D01*
X10312920Y-15676484D02*
X10331967Y-15686008D01*
X10331967Y-15686008D02*
X10341491Y-15695531D01*
X10341491Y-15695531D02*
X10351015Y-15714579D01*
X10351015Y-15714579D02*
X10360539Y-15752674D01*
X10360539Y-15752674D02*
X10360539Y-15800293D01*
X10360539Y-15800293D02*
X10351015Y-15838388D01*
X10351015Y-15838388D02*
X10341491Y-15857436D01*
X10341491Y-15857436D02*
X10331967Y-15866960D01*
X10331967Y-15866960D02*
X10312920Y-15876484D01*
X10312920Y-15876484D02*
X10293872Y-15876484D01*
X10293872Y-15876484D02*
X10274824Y-15866960D01*
X10274824Y-15866960D02*
X10265301Y-15857436D01*
X10265301Y-15857436D02*
X10255777Y-15838388D01*
X10255777Y-15838388D02*
X10246253Y-15800293D01*
X10246253Y-15800293D02*
X10246253Y-15752674D01*
X10246253Y-15752674D02*
X10255777Y-15714579D01*
X10255777Y-15714579D02*
X10265301Y-15695531D01*
X10265301Y-15695531D02*
X10274824Y-15686008D01*
X10274824Y-15686008D02*
X10293872Y-15676484D01*
X10446253Y-15857436D02*
X10455777Y-15866960D01*
X10455777Y-15866960D02*
X10446253Y-15876484D01*
X10446253Y-15876484D02*
X10436729Y-15866960D01*
X10436729Y-15866960D02*
X10446253Y-15857436D01*
X10446253Y-15857436D02*
X10446253Y-15876484D01*
X10531967Y-15695531D02*
X10541491Y-15686008D01*
X10541491Y-15686008D02*
X10560539Y-15676484D01*
X10560539Y-15676484D02*
X10608158Y-15676484D01*
X10608158Y-15676484D02*
X10627205Y-15686008D01*
X10627205Y-15686008D02*
X10636729Y-15695531D01*
X10636729Y-15695531D02*
X10646253Y-15714579D01*
X10646253Y-15714579D02*
X10646253Y-15733627D01*
X10646253Y-15733627D02*
X10636729Y-15762198D01*
X10636729Y-15762198D02*
X10522444Y-15876484D01*
X10522444Y-15876484D02*
X10646253Y-15876484D01*
X10770063Y-15676484D02*
X10789110Y-15676484D01*
X10789110Y-15676484D02*
X10808158Y-15686008D01*
X10808158Y-15686008D02*
X10817682Y-15695531D01*
X10817682Y-15695531D02*
X10827205Y-15714579D01*
X10827205Y-15714579D02*
X10836729Y-15752674D01*
X10836729Y-15752674D02*
X10836729Y-15800293D01*
X10836729Y-15800293D02*
X10827205Y-15838388D01*
X10827205Y-15838388D02*
X10817682Y-15857436D01*
X10817682Y-15857436D02*
X10808158Y-15866960D01*
X10808158Y-15866960D02*
X10789110Y-15876484D01*
X10789110Y-15876484D02*
X10770063Y-15876484D01*
X10770063Y-15876484D02*
X10751015Y-15866960D01*
X10751015Y-15866960D02*
X10741491Y-15857436D01*
X10741491Y-15857436D02*
X10731967Y-15838388D01*
X10731967Y-15838388D02*
X10722444Y-15800293D01*
X10722444Y-15800293D02*
X10722444Y-15752674D01*
X10722444Y-15752674D02*
X10731967Y-15714579D01*
X10731967Y-15714579D02*
X10741491Y-15695531D01*
X10741491Y-15695531D02*
X10751015Y-15686008D01*
X10751015Y-15686008D02*
X10770063Y-15676484D01*
X10960539Y-15676484D02*
X10979586Y-15676484D01*
X10979586Y-15676484D02*
X10998634Y-15686008D01*
X10998634Y-15686008D02*
X11008158Y-15695531D01*
X11008158Y-15695531D02*
X11017682Y-15714579D01*
X11017682Y-15714579D02*
X11027205Y-15752674D01*
X11027205Y-15752674D02*
X11027205Y-15800293D01*
X11027205Y-15800293D02*
X11017682Y-15838388D01*
X11017682Y-15838388D02*
X11008158Y-15857436D01*
X11008158Y-15857436D02*
X10998634Y-15866960D01*
X10998634Y-15866960D02*
X10979586Y-15876484D01*
X10979586Y-15876484D02*
X10960539Y-15876484D01*
X10960539Y-15876484D02*
X10941491Y-15866960D01*
X10941491Y-15866960D02*
X10931967Y-15857436D01*
X10931967Y-15857436D02*
X10922444Y-15838388D01*
X10922444Y-15838388D02*
X10912920Y-15800293D01*
X10912920Y-15800293D02*
X10912920Y-15752674D01*
X10912920Y-15752674D02*
X10922444Y-15714579D01*
X10922444Y-15714579D02*
X10931967Y-15695531D01*
X10931967Y-15695531D02*
X10941491Y-15686008D01*
X10941491Y-15686008D02*
X10960539Y-15676484D01*
X11112920Y-15876484D02*
X11112920Y-15743150D01*
X11112920Y-15762198D02*
X11122444Y-15752674D01*
X11122444Y-15752674D02*
X11141491Y-15743150D01*
X11141491Y-15743150D02*
X11170063Y-15743150D01*
X11170063Y-15743150D02*
X11189110Y-15752674D01*
X11189110Y-15752674D02*
X11198634Y-15771722D01*
X11198634Y-15771722D02*
X11198634Y-15876484D01*
X11198634Y-15771722D02*
X11208158Y-15752674D01*
X11208158Y-15752674D02*
X11227205Y-15743150D01*
X11227205Y-15743150D02*
X11255777Y-15743150D01*
X11255777Y-15743150D02*
X11274824Y-15752674D01*
X11274824Y-15752674D02*
X11284348Y-15771722D01*
X11284348Y-15771722D02*
X11284348Y-15876484D01*
X11379586Y-15876484D02*
X11379586Y-15743150D01*
X11379586Y-15762198D02*
X11389110Y-15752674D01*
X11389110Y-15752674D02*
X11408158Y-15743150D01*
X11408158Y-15743150D02*
X11436729Y-15743150D01*
X11436729Y-15743150D02*
X11455777Y-15752674D01*
X11455777Y-15752674D02*
X11465301Y-15771722D01*
X11465301Y-15771722D02*
X11465301Y-15876484D01*
X11465301Y-15771722D02*
X11474824Y-15752674D01*
X11474824Y-15752674D02*
X11493872Y-15743150D01*
X11493872Y-15743150D02*
X11522443Y-15743150D01*
X11522443Y-15743150D02*
X11541491Y-15752674D01*
X11541491Y-15752674D02*
X11551015Y-15771722D01*
X11551015Y-15771722D02*
X11551015Y-15876484D01*
X11941491Y-15666960D02*
X11770063Y-15924103D01*
X12198634Y-15676484D02*
X12217682Y-15676484D01*
X12217682Y-15676484D02*
X12236729Y-15686008D01*
X12236729Y-15686008D02*
X12246253Y-15695531D01*
X12246253Y-15695531D02*
X12255777Y-15714579D01*
X12255777Y-15714579D02*
X12265301Y-15752674D01*
X12265301Y-15752674D02*
X12265301Y-15800293D01*
X12265301Y-15800293D02*
X12255777Y-15838388D01*
X12255777Y-15838388D02*
X12246253Y-15857436D01*
X12246253Y-15857436D02*
X12236729Y-15866960D01*
X12236729Y-15866960D02*
X12217682Y-15876484D01*
X12217682Y-15876484D02*
X12198634Y-15876484D01*
X12198634Y-15876484D02*
X12179586Y-15866960D01*
X12179586Y-15866960D02*
X12170063Y-15857436D01*
X12170063Y-15857436D02*
X12160539Y-15838388D01*
X12160539Y-15838388D02*
X12151015Y-15800293D01*
X12151015Y-15800293D02*
X12151015Y-15752674D01*
X12151015Y-15752674D02*
X12160539Y-15714579D01*
X12160539Y-15714579D02*
X12170063Y-15695531D01*
X12170063Y-15695531D02*
X12179586Y-15686008D01*
X12179586Y-15686008D02*
X12198634Y-15676484D01*
X12351015Y-15857436D02*
X12360539Y-15866960D01*
X12360539Y-15866960D02*
X12351015Y-15876484D01*
X12351015Y-15876484D02*
X12341491Y-15866960D01*
X12341491Y-15866960D02*
X12351015Y-15857436D01*
X12351015Y-15857436D02*
X12351015Y-15876484D01*
X12484348Y-15676484D02*
X12503396Y-15676484D01*
X12503396Y-15676484D02*
X12522444Y-15686008D01*
X12522444Y-15686008D02*
X12531967Y-15695531D01*
X12531967Y-15695531D02*
X12541491Y-15714579D01*
X12541491Y-15714579D02*
X12551015Y-15752674D01*
X12551015Y-15752674D02*
X12551015Y-15800293D01*
X12551015Y-15800293D02*
X12541491Y-15838388D01*
X12541491Y-15838388D02*
X12531967Y-15857436D01*
X12531967Y-15857436D02*
X12522444Y-15866960D01*
X12522444Y-15866960D02*
X12503396Y-15876484D01*
X12503396Y-15876484D02*
X12484348Y-15876484D01*
X12484348Y-15876484D02*
X12465301Y-15866960D01*
X12465301Y-15866960D02*
X12455777Y-15857436D01*
X12455777Y-15857436D02*
X12446253Y-15838388D01*
X12446253Y-15838388D02*
X12436729Y-15800293D01*
X12436729Y-15800293D02*
X12436729Y-15752674D01*
X12436729Y-15752674D02*
X12446253Y-15714579D01*
X12446253Y-15714579D02*
X12455777Y-15695531D01*
X12455777Y-15695531D02*
X12465301Y-15686008D01*
X12465301Y-15686008D02*
X12484348Y-15676484D01*
X12674825Y-15676484D02*
X12693872Y-15676484D01*
X12693872Y-15676484D02*
X12712920Y-15686008D01*
X12712920Y-15686008D02*
X12722444Y-15695531D01*
X12722444Y-15695531D02*
X12731967Y-15714579D01*
X12731967Y-15714579D02*
X12741491Y-15752674D01*
X12741491Y-15752674D02*
X12741491Y-15800293D01*
X12741491Y-15800293D02*
X12731967Y-15838388D01*
X12731967Y-15838388D02*
X12722444Y-15857436D01*
X12722444Y-15857436D02*
X12712920Y-15866960D01*
X12712920Y-15866960D02*
X12693872Y-15876484D01*
X12693872Y-15876484D02*
X12674825Y-15876484D01*
X12674825Y-15876484D02*
X12655777Y-15866960D01*
X12655777Y-15866960D02*
X12646253Y-15857436D01*
X12646253Y-15857436D02*
X12636729Y-15838388D01*
X12636729Y-15838388D02*
X12627206Y-15800293D01*
X12627206Y-15800293D02*
X12627206Y-15752674D01*
X12627206Y-15752674D02*
X12636729Y-15714579D01*
X12636729Y-15714579D02*
X12646253Y-15695531D01*
X12646253Y-15695531D02*
X12655777Y-15686008D01*
X12655777Y-15686008D02*
X12674825Y-15676484D01*
X12808158Y-15676484D02*
X12941491Y-15676484D01*
X12941491Y-15676484D02*
X12855777Y-15876484D01*
X13027206Y-15876484D02*
X13065301Y-15876484D01*
X13065301Y-15876484D02*
X13084348Y-15866960D01*
X13084348Y-15866960D02*
X13093872Y-15857436D01*
X13093872Y-15857436D02*
X13112920Y-15828865D01*
X13112920Y-15828865D02*
X13122444Y-15790769D01*
X13122444Y-15790769D02*
X13122444Y-15714579D01*
X13122444Y-15714579D02*
X13112920Y-15695531D01*
X13112920Y-15695531D02*
X13103396Y-15686008D01*
X13103396Y-15686008D02*
X13084348Y-15676484D01*
X13084348Y-15676484D02*
X13046253Y-15676484D01*
X13046253Y-15676484D02*
X13027206Y-15686008D01*
X13027206Y-15686008D02*
X13017682Y-15695531D01*
X13017682Y-15695531D02*
X13008158Y-15714579D01*
X13008158Y-15714579D02*
X13008158Y-15762198D01*
X13008158Y-15762198D02*
X13017682Y-15781246D01*
X13017682Y-15781246D02*
X13027206Y-15790769D01*
X13027206Y-15790769D02*
X13046253Y-15800293D01*
X13046253Y-15800293D02*
X13084348Y-15800293D01*
X13084348Y-15800293D02*
X13103396Y-15790769D01*
X13103396Y-15790769D02*
X13112920Y-15781246D01*
X13112920Y-15781246D02*
X13122444Y-15762198D01*
X13198634Y-15676484D02*
X13198634Y-15714579D01*
X13274825Y-15676484D02*
X13274825Y-15714579D01*
X13570063Y-15952674D02*
X13560539Y-15943150D01*
X13560539Y-15943150D02*
X13541491Y-15914579D01*
X13541491Y-15914579D02*
X13531968Y-15895531D01*
X13531968Y-15895531D02*
X13522444Y-15866960D01*
X13522444Y-15866960D02*
X13512920Y-15819341D01*
X13512920Y-15819341D02*
X13512920Y-15781246D01*
X13512920Y-15781246D02*
X13522444Y-15733627D01*
X13522444Y-15733627D02*
X13531968Y-15705055D01*
X13531968Y-15705055D02*
X13541491Y-15686008D01*
X13541491Y-15686008D02*
X13560539Y-15657436D01*
X13560539Y-15657436D02*
X13570063Y-15647912D01*
X13751015Y-15876484D02*
X13636729Y-15876484D01*
X13693872Y-15876484D02*
X13693872Y-15676484D01*
X13693872Y-15676484D02*
X13674825Y-15705055D01*
X13674825Y-15705055D02*
X13655777Y-15724103D01*
X13655777Y-15724103D02*
X13636729Y-15733627D01*
X13827206Y-15695531D02*
X13836729Y-15686008D01*
X13836729Y-15686008D02*
X13855777Y-15676484D01*
X13855777Y-15676484D02*
X13903396Y-15676484D01*
X13903396Y-15676484D02*
X13922444Y-15686008D01*
X13922444Y-15686008D02*
X13931968Y-15695531D01*
X13931968Y-15695531D02*
X13941491Y-15714579D01*
X13941491Y-15714579D02*
X13941491Y-15733627D01*
X13941491Y-15733627D02*
X13931968Y-15762198D01*
X13931968Y-15762198D02*
X13817682Y-15876484D01*
X13817682Y-15876484D02*
X13941491Y-15876484D01*
X14179587Y-15876484D02*
X14179587Y-15676484D01*
X14265301Y-15876484D02*
X14265301Y-15771722D01*
X14265301Y-15771722D02*
X14255777Y-15752674D01*
X14255777Y-15752674D02*
X14236730Y-15743150D01*
X14236730Y-15743150D02*
X14208158Y-15743150D01*
X14208158Y-15743150D02*
X14189110Y-15752674D01*
X14189110Y-15752674D02*
X14179587Y-15762198D01*
X14389110Y-15876484D02*
X14370063Y-15866960D01*
X14370063Y-15866960D02*
X14360539Y-15857436D01*
X14360539Y-15857436D02*
X14351015Y-15838388D01*
X14351015Y-15838388D02*
X14351015Y-15781246D01*
X14351015Y-15781246D02*
X14360539Y-15762198D01*
X14360539Y-15762198D02*
X14370063Y-15752674D01*
X14370063Y-15752674D02*
X14389110Y-15743150D01*
X14389110Y-15743150D02*
X14417682Y-15743150D01*
X14417682Y-15743150D02*
X14436730Y-15752674D01*
X14436730Y-15752674D02*
X14446253Y-15762198D01*
X14446253Y-15762198D02*
X14455777Y-15781246D01*
X14455777Y-15781246D02*
X14455777Y-15838388D01*
X14455777Y-15838388D02*
X14446253Y-15857436D01*
X14446253Y-15857436D02*
X14436730Y-15866960D01*
X14436730Y-15866960D02*
X14417682Y-15876484D01*
X14417682Y-15876484D02*
X14389110Y-15876484D01*
X14570063Y-15876484D02*
X14551015Y-15866960D01*
X14551015Y-15866960D02*
X14541491Y-15847912D01*
X14541491Y-15847912D02*
X14541491Y-15676484D01*
X14722444Y-15866960D02*
X14703396Y-15876484D01*
X14703396Y-15876484D02*
X14665301Y-15876484D01*
X14665301Y-15876484D02*
X14646253Y-15866960D01*
X14646253Y-15866960D02*
X14636730Y-15847912D01*
X14636730Y-15847912D02*
X14636730Y-15771722D01*
X14636730Y-15771722D02*
X14646253Y-15752674D01*
X14646253Y-15752674D02*
X14665301Y-15743150D01*
X14665301Y-15743150D02*
X14703396Y-15743150D01*
X14703396Y-15743150D02*
X14722444Y-15752674D01*
X14722444Y-15752674D02*
X14731968Y-15771722D01*
X14731968Y-15771722D02*
X14731968Y-15790769D01*
X14731968Y-15790769D02*
X14636730Y-15809817D01*
X14808158Y-15866960D02*
X14827206Y-15876484D01*
X14827206Y-15876484D02*
X14865301Y-15876484D01*
X14865301Y-15876484D02*
X14884349Y-15866960D01*
X14884349Y-15866960D02*
X14893872Y-15847912D01*
X14893872Y-15847912D02*
X14893872Y-15838388D01*
X14893872Y-15838388D02*
X14884349Y-15819341D01*
X14884349Y-15819341D02*
X14865301Y-15809817D01*
X14865301Y-15809817D02*
X14836730Y-15809817D01*
X14836730Y-15809817D02*
X14817682Y-15800293D01*
X14817682Y-15800293D02*
X14808158Y-15781246D01*
X14808158Y-15781246D02*
X14808158Y-15771722D01*
X14808158Y-15771722D02*
X14817682Y-15752674D01*
X14817682Y-15752674D02*
X14836730Y-15743150D01*
X14836730Y-15743150D02*
X14865301Y-15743150D01*
X14865301Y-15743150D02*
X14884349Y-15752674D01*
X14960539Y-15952674D02*
X14970063Y-15943150D01*
X14970063Y-15943150D02*
X14989111Y-15914579D01*
X14989111Y-15914579D02*
X14998634Y-15895531D01*
X14998634Y-15895531D02*
X15008158Y-15866960D01*
X15008158Y-15866960D02*
X15017682Y-15819341D01*
X15017682Y-15819341D02*
X15017682Y-15781246D01*
X15017682Y-15781246D02*
X15008158Y-15733627D01*
X15008158Y-15733627D02*
X14998634Y-15705055D01*
X14998634Y-15705055D02*
X14989111Y-15686008D01*
X14989111Y-15686008D02*
X14970063Y-15657436D01*
X14970063Y-15657436D02*
X14960539Y-15647912D01*
D10*
X9995000Y-16049000D02*
G75*
G02*
X9965000Y-16049000I-15000J0D01*
G01*
X9965000Y-16049000D02*
G75*
G02*
X9995000Y-16049000I15000J0D01*
G01*
D11*
X10293872Y-15940484D02*
X10312920Y-15940484D01*
X10312920Y-15940484D02*
X10331967Y-15950008D01*
X10331967Y-15950008D02*
X10341491Y-15959531D01*
X10341491Y-15959531D02*
X10351015Y-15978579D01*
X10351015Y-15978579D02*
X10360539Y-16016674D01*
X10360539Y-16016674D02*
X10360539Y-16064293D01*
X10360539Y-16064293D02*
X10351015Y-16102388D01*
X10351015Y-16102388D02*
X10341491Y-16121436D01*
X10341491Y-16121436D02*
X10331967Y-16130960D01*
X10331967Y-16130960D02*
X10312920Y-16140484D01*
X10312920Y-16140484D02*
X10293872Y-16140484D01*
X10293872Y-16140484D02*
X10274824Y-16130960D01*
X10274824Y-16130960D02*
X10265301Y-16121436D01*
X10265301Y-16121436D02*
X10255777Y-16102388D01*
X10255777Y-16102388D02*
X10246253Y-16064293D01*
X10246253Y-16064293D02*
X10246253Y-16016674D01*
X10246253Y-16016674D02*
X10255777Y-15978579D01*
X10255777Y-15978579D02*
X10265301Y-15959531D01*
X10265301Y-15959531D02*
X10274824Y-15950008D01*
X10274824Y-15950008D02*
X10293872Y-15940484D01*
X10446253Y-16121436D02*
X10455777Y-16130960D01*
X10455777Y-16130960D02*
X10446253Y-16140484D01*
X10446253Y-16140484D02*
X10436729Y-16130960D01*
X10436729Y-16130960D02*
X10446253Y-16121436D01*
X10446253Y-16121436D02*
X10446253Y-16140484D01*
X10522444Y-15940484D02*
X10646253Y-15940484D01*
X10646253Y-15940484D02*
X10579586Y-16016674D01*
X10579586Y-16016674D02*
X10608158Y-16016674D01*
X10608158Y-16016674D02*
X10627205Y-16026198D01*
X10627205Y-16026198D02*
X10636729Y-16035722D01*
X10636729Y-16035722D02*
X10646253Y-16054769D01*
X10646253Y-16054769D02*
X10646253Y-16102388D01*
X10646253Y-16102388D02*
X10636729Y-16121436D01*
X10636729Y-16121436D02*
X10627205Y-16130960D01*
X10627205Y-16130960D02*
X10608158Y-16140484D01*
X10608158Y-16140484D02*
X10551015Y-16140484D01*
X10551015Y-16140484D02*
X10531967Y-16130960D01*
X10531967Y-16130960D02*
X10522444Y-16121436D01*
X10770063Y-15940484D02*
X10789110Y-15940484D01*
X10789110Y-15940484D02*
X10808158Y-15950008D01*
X10808158Y-15950008D02*
X10817682Y-15959531D01*
X10817682Y-15959531D02*
X10827205Y-15978579D01*
X10827205Y-15978579D02*
X10836729Y-16016674D01*
X10836729Y-16016674D02*
X10836729Y-16064293D01*
X10836729Y-16064293D02*
X10827205Y-16102388D01*
X10827205Y-16102388D02*
X10817682Y-16121436D01*
X10817682Y-16121436D02*
X10808158Y-16130960D01*
X10808158Y-16130960D02*
X10789110Y-16140484D01*
X10789110Y-16140484D02*
X10770063Y-16140484D01*
X10770063Y-16140484D02*
X10751015Y-16130960D01*
X10751015Y-16130960D02*
X10741491Y-16121436D01*
X10741491Y-16121436D02*
X10731967Y-16102388D01*
X10731967Y-16102388D02*
X10722444Y-16064293D01*
X10722444Y-16064293D02*
X10722444Y-16016674D01*
X10722444Y-16016674D02*
X10731967Y-15978579D01*
X10731967Y-15978579D02*
X10741491Y-15959531D01*
X10741491Y-15959531D02*
X10751015Y-15950008D01*
X10751015Y-15950008D02*
X10770063Y-15940484D01*
X10960539Y-15940484D02*
X10979586Y-15940484D01*
X10979586Y-15940484D02*
X10998634Y-15950008D01*
X10998634Y-15950008D02*
X11008158Y-15959531D01*
X11008158Y-15959531D02*
X11017682Y-15978579D01*
X11017682Y-15978579D02*
X11027205Y-16016674D01*
X11027205Y-16016674D02*
X11027205Y-16064293D01*
X11027205Y-16064293D02*
X11017682Y-16102388D01*
X11017682Y-16102388D02*
X11008158Y-16121436D01*
X11008158Y-16121436D02*
X10998634Y-16130960D01*
X10998634Y-16130960D02*
X10979586Y-16140484D01*
X10979586Y-16140484D02*
X10960539Y-16140484D01*
X10960539Y-16140484D02*
X10941491Y-16130960D01*
X10941491Y-16130960D02*
X10931967Y-16121436D01*
X10931967Y-16121436D02*
X10922444Y-16102388D01*
X10922444Y-16102388D02*
X10912920Y-16064293D01*
X10912920Y-16064293D02*
X10912920Y-16016674D01*
X10912920Y-16016674D02*
X10922444Y-15978579D01*
X10922444Y-15978579D02*
X10931967Y-15959531D01*
X10931967Y-15959531D02*
X10941491Y-15950008D01*
X10941491Y-15950008D02*
X10960539Y-15940484D01*
X11112920Y-16140484D02*
X11112920Y-16007150D01*
X11112920Y-16026198D02*
X11122444Y-16016674D01*
X11122444Y-16016674D02*
X11141491Y-16007150D01*
X11141491Y-16007150D02*
X11170063Y-16007150D01*
X11170063Y-16007150D02*
X11189110Y-16016674D01*
X11189110Y-16016674D02*
X11198634Y-16035722D01*
X11198634Y-16035722D02*
X11198634Y-16140484D01*
X11198634Y-16035722D02*
X11208158Y-16016674D01*
X11208158Y-16016674D02*
X11227205Y-16007150D01*
X11227205Y-16007150D02*
X11255777Y-16007150D01*
X11255777Y-16007150D02*
X11274824Y-16016674D01*
X11274824Y-16016674D02*
X11284348Y-16035722D01*
X11284348Y-16035722D02*
X11284348Y-16140484D01*
X11379586Y-16140484D02*
X11379586Y-16007150D01*
X11379586Y-16026198D02*
X11389110Y-16016674D01*
X11389110Y-16016674D02*
X11408158Y-16007150D01*
X11408158Y-16007150D02*
X11436729Y-16007150D01*
X11436729Y-16007150D02*
X11455777Y-16016674D01*
X11455777Y-16016674D02*
X11465301Y-16035722D01*
X11465301Y-16035722D02*
X11465301Y-16140484D01*
X11465301Y-16035722D02*
X11474824Y-16016674D01*
X11474824Y-16016674D02*
X11493872Y-16007150D01*
X11493872Y-16007150D02*
X11522443Y-16007150D01*
X11522443Y-16007150D02*
X11541491Y-16016674D01*
X11541491Y-16016674D02*
X11551015Y-16035722D01*
X11551015Y-16035722D02*
X11551015Y-16140484D01*
X11941491Y-15930960D02*
X11770063Y-16188103D01*
X12198634Y-15940484D02*
X12217682Y-15940484D01*
X12217682Y-15940484D02*
X12236729Y-15950008D01*
X12236729Y-15950008D02*
X12246253Y-15959531D01*
X12246253Y-15959531D02*
X12255777Y-15978579D01*
X12255777Y-15978579D02*
X12265301Y-16016674D01*
X12265301Y-16016674D02*
X12265301Y-16064293D01*
X12265301Y-16064293D02*
X12255777Y-16102388D01*
X12255777Y-16102388D02*
X12246253Y-16121436D01*
X12246253Y-16121436D02*
X12236729Y-16130960D01*
X12236729Y-16130960D02*
X12217682Y-16140484D01*
X12217682Y-16140484D02*
X12198634Y-16140484D01*
X12198634Y-16140484D02*
X12179586Y-16130960D01*
X12179586Y-16130960D02*
X12170063Y-16121436D01*
X12170063Y-16121436D02*
X12160539Y-16102388D01*
X12160539Y-16102388D02*
X12151015Y-16064293D01*
X12151015Y-16064293D02*
X12151015Y-16016674D01*
X12151015Y-16016674D02*
X12160539Y-15978579D01*
X12160539Y-15978579D02*
X12170063Y-15959531D01*
X12170063Y-15959531D02*
X12179586Y-15950008D01*
X12179586Y-15950008D02*
X12198634Y-15940484D01*
X12351015Y-16121436D02*
X12360539Y-16130960D01*
X12360539Y-16130960D02*
X12351015Y-16140484D01*
X12351015Y-16140484D02*
X12341491Y-16130960D01*
X12341491Y-16130960D02*
X12351015Y-16121436D01*
X12351015Y-16121436D02*
X12351015Y-16140484D01*
X12484348Y-15940484D02*
X12503396Y-15940484D01*
X12503396Y-15940484D02*
X12522444Y-15950008D01*
X12522444Y-15950008D02*
X12531967Y-15959531D01*
X12531967Y-15959531D02*
X12541491Y-15978579D01*
X12541491Y-15978579D02*
X12551015Y-16016674D01*
X12551015Y-16016674D02*
X12551015Y-16064293D01*
X12551015Y-16064293D02*
X12541491Y-16102388D01*
X12541491Y-16102388D02*
X12531967Y-16121436D01*
X12531967Y-16121436D02*
X12522444Y-16130960D01*
X12522444Y-16130960D02*
X12503396Y-16140484D01*
X12503396Y-16140484D02*
X12484348Y-16140484D01*
X12484348Y-16140484D02*
X12465301Y-16130960D01*
X12465301Y-16130960D02*
X12455777Y-16121436D01*
X12455777Y-16121436D02*
X12446253Y-16102388D01*
X12446253Y-16102388D02*
X12436729Y-16064293D01*
X12436729Y-16064293D02*
X12436729Y-16016674D01*
X12436729Y-16016674D02*
X12446253Y-15978579D01*
X12446253Y-15978579D02*
X12455777Y-15959531D01*
X12455777Y-15959531D02*
X12465301Y-15950008D01*
X12465301Y-15950008D02*
X12484348Y-15940484D01*
X12741491Y-16140484D02*
X12627206Y-16140484D01*
X12684348Y-16140484D02*
X12684348Y-15940484D01*
X12684348Y-15940484D02*
X12665301Y-15969055D01*
X12665301Y-15969055D02*
X12646253Y-15988103D01*
X12646253Y-15988103D02*
X12627206Y-15997627D01*
X12931967Y-16140484D02*
X12817682Y-16140484D01*
X12874825Y-16140484D02*
X12874825Y-15940484D01*
X12874825Y-15940484D02*
X12855777Y-15969055D01*
X12855777Y-15969055D02*
X12836729Y-15988103D01*
X12836729Y-15988103D02*
X12817682Y-15997627D01*
X13046253Y-16026198D02*
X13027206Y-16016674D01*
X13027206Y-16016674D02*
X13017682Y-16007150D01*
X13017682Y-16007150D02*
X13008158Y-15988103D01*
X13008158Y-15988103D02*
X13008158Y-15978579D01*
X13008158Y-15978579D02*
X13017682Y-15959531D01*
X13017682Y-15959531D02*
X13027206Y-15950008D01*
X13027206Y-15950008D02*
X13046253Y-15940484D01*
X13046253Y-15940484D02*
X13084348Y-15940484D01*
X13084348Y-15940484D02*
X13103396Y-15950008D01*
X13103396Y-15950008D02*
X13112920Y-15959531D01*
X13112920Y-15959531D02*
X13122444Y-15978579D01*
X13122444Y-15978579D02*
X13122444Y-15988103D01*
X13122444Y-15988103D02*
X13112920Y-16007150D01*
X13112920Y-16007150D02*
X13103396Y-16016674D01*
X13103396Y-16016674D02*
X13084348Y-16026198D01*
X13084348Y-16026198D02*
X13046253Y-16026198D01*
X13046253Y-16026198D02*
X13027206Y-16035722D01*
X13027206Y-16035722D02*
X13017682Y-16045246D01*
X13017682Y-16045246D02*
X13008158Y-16064293D01*
X13008158Y-16064293D02*
X13008158Y-16102388D01*
X13008158Y-16102388D02*
X13017682Y-16121436D01*
X13017682Y-16121436D02*
X13027206Y-16130960D01*
X13027206Y-16130960D02*
X13046253Y-16140484D01*
X13046253Y-16140484D02*
X13084348Y-16140484D01*
X13084348Y-16140484D02*
X13103396Y-16130960D01*
X13103396Y-16130960D02*
X13112920Y-16121436D01*
X13112920Y-16121436D02*
X13122444Y-16102388D01*
X13122444Y-16102388D02*
X13122444Y-16064293D01*
X13122444Y-16064293D02*
X13112920Y-16045246D01*
X13112920Y-16045246D02*
X13103396Y-16035722D01*
X13103396Y-16035722D02*
X13084348Y-16026198D01*
X13198634Y-15940484D02*
X13198634Y-15978579D01*
X13274825Y-15940484D02*
X13274825Y-15978579D01*
X13570063Y-16216674D02*
X13560539Y-16207150D01*
X13560539Y-16207150D02*
X13541491Y-16178579D01*
X13541491Y-16178579D02*
X13531968Y-16159531D01*
X13531968Y-16159531D02*
X13522444Y-16130960D01*
X13522444Y-16130960D02*
X13512920Y-16083341D01*
X13512920Y-16083341D02*
X13512920Y-16045246D01*
X13512920Y-16045246D02*
X13522444Y-15997627D01*
X13522444Y-15997627D02*
X13531968Y-15969055D01*
X13531968Y-15969055D02*
X13541491Y-15950008D01*
X13541491Y-15950008D02*
X13560539Y-15921436D01*
X13560539Y-15921436D02*
X13570063Y-15911912D01*
X13655777Y-16140484D02*
X13693872Y-16140484D01*
X13693872Y-16140484D02*
X13712920Y-16130960D01*
X13712920Y-16130960D02*
X13722444Y-16121436D01*
X13722444Y-16121436D02*
X13741491Y-16092865D01*
X13741491Y-16092865D02*
X13751015Y-16054769D01*
X13751015Y-16054769D02*
X13751015Y-15978579D01*
X13751015Y-15978579D02*
X13741491Y-15959531D01*
X13741491Y-15959531D02*
X13731968Y-15950008D01*
X13731968Y-15950008D02*
X13712920Y-15940484D01*
X13712920Y-15940484D02*
X13674825Y-15940484D01*
X13674825Y-15940484D02*
X13655777Y-15950008D01*
X13655777Y-15950008D02*
X13646253Y-15959531D01*
X13646253Y-15959531D02*
X13636729Y-15978579D01*
X13636729Y-15978579D02*
X13636729Y-16026198D01*
X13636729Y-16026198D02*
X13646253Y-16045246D01*
X13646253Y-16045246D02*
X13655777Y-16054769D01*
X13655777Y-16054769D02*
X13674825Y-16064293D01*
X13674825Y-16064293D02*
X13712920Y-16064293D01*
X13712920Y-16064293D02*
X13731968Y-16054769D01*
X13731968Y-16054769D02*
X13741491Y-16045246D01*
X13741491Y-16045246D02*
X13751015Y-16026198D01*
X13989110Y-16140484D02*
X13989110Y-15940484D01*
X14074825Y-16140484D02*
X14074825Y-16035722D01*
X14074825Y-16035722D02*
X14065301Y-16016674D01*
X14065301Y-16016674D02*
X14046253Y-16007150D01*
X14046253Y-16007150D02*
X14017682Y-16007150D01*
X14017682Y-16007150D02*
X13998634Y-16016674D01*
X13998634Y-16016674D02*
X13989110Y-16026198D01*
X14198634Y-16140484D02*
X14179587Y-16130960D01*
X14179587Y-16130960D02*
X14170063Y-16121436D01*
X14170063Y-16121436D02*
X14160539Y-16102388D01*
X14160539Y-16102388D02*
X14160539Y-16045246D01*
X14160539Y-16045246D02*
X14170063Y-16026198D01*
X14170063Y-16026198D02*
X14179587Y-16016674D01*
X14179587Y-16016674D02*
X14198634Y-16007150D01*
X14198634Y-16007150D02*
X14227206Y-16007150D01*
X14227206Y-16007150D02*
X14246253Y-16016674D01*
X14246253Y-16016674D02*
X14255777Y-16026198D01*
X14255777Y-16026198D02*
X14265301Y-16045246D01*
X14265301Y-16045246D02*
X14265301Y-16102388D01*
X14265301Y-16102388D02*
X14255777Y-16121436D01*
X14255777Y-16121436D02*
X14246253Y-16130960D01*
X14246253Y-16130960D02*
X14227206Y-16140484D01*
X14227206Y-16140484D02*
X14198634Y-16140484D01*
X14379587Y-16140484D02*
X14360539Y-16130960D01*
X14360539Y-16130960D02*
X14351015Y-16111912D01*
X14351015Y-16111912D02*
X14351015Y-15940484D01*
X14531968Y-16130960D02*
X14512920Y-16140484D01*
X14512920Y-16140484D02*
X14474825Y-16140484D01*
X14474825Y-16140484D02*
X14455777Y-16130960D01*
X14455777Y-16130960D02*
X14446253Y-16111912D01*
X14446253Y-16111912D02*
X14446253Y-16035722D01*
X14446253Y-16035722D02*
X14455777Y-16016674D01*
X14455777Y-16016674D02*
X14474825Y-16007150D01*
X14474825Y-16007150D02*
X14512920Y-16007150D01*
X14512920Y-16007150D02*
X14531968Y-16016674D01*
X14531968Y-16016674D02*
X14541491Y-16035722D01*
X14541491Y-16035722D02*
X14541491Y-16054769D01*
X14541491Y-16054769D02*
X14446253Y-16073817D01*
X14617682Y-16130960D02*
X14636730Y-16140484D01*
X14636730Y-16140484D02*
X14674825Y-16140484D01*
X14674825Y-16140484D02*
X14693872Y-16130960D01*
X14693872Y-16130960D02*
X14703396Y-16111912D01*
X14703396Y-16111912D02*
X14703396Y-16102388D01*
X14703396Y-16102388D02*
X14693872Y-16083341D01*
X14693872Y-16083341D02*
X14674825Y-16073817D01*
X14674825Y-16073817D02*
X14646253Y-16073817D01*
X14646253Y-16073817D02*
X14627206Y-16064293D01*
X14627206Y-16064293D02*
X14617682Y-16045246D01*
X14617682Y-16045246D02*
X14617682Y-16035722D01*
X14617682Y-16035722D02*
X14627206Y-16016674D01*
X14627206Y-16016674D02*
X14646253Y-16007150D01*
X14646253Y-16007150D02*
X14674825Y-16007150D01*
X14674825Y-16007150D02*
X14693872Y-16016674D01*
X14770063Y-16216674D02*
X14779587Y-16207150D01*
X14779587Y-16207150D02*
X14798634Y-16178579D01*
X14798634Y-16178579D02*
X14808158Y-16159531D01*
X14808158Y-16159531D02*
X14817682Y-16130960D01*
X14817682Y-16130960D02*
X14827206Y-16083341D01*
X14827206Y-16083341D02*
X14827206Y-16045246D01*
X14827206Y-16045246D02*
X14817682Y-15997627D01*
X14817682Y-15997627D02*
X14808158Y-15969055D01*
X14808158Y-15969055D02*
X14798634Y-15950008D01*
X14798634Y-15950008D02*
X14779587Y-15921436D01*
X14779587Y-15921436D02*
X14770063Y-15911912D01*
D10*
X9975000Y-16293000D02*
X9975000Y-16333000D01*
X9955000Y-16313000D02*
X9995000Y-16313000D01*
D11*
X10293872Y-16204484D02*
X10312920Y-16204484D01*
X10312920Y-16204484D02*
X10331967Y-16214008D01*
X10331967Y-16214008D02*
X10341491Y-16223531D01*
X10341491Y-16223531D02*
X10351015Y-16242579D01*
X10351015Y-16242579D02*
X10360539Y-16280674D01*
X10360539Y-16280674D02*
X10360539Y-16328293D01*
X10360539Y-16328293D02*
X10351015Y-16366388D01*
X10351015Y-16366388D02*
X10341491Y-16385436D01*
X10341491Y-16385436D02*
X10331967Y-16394960D01*
X10331967Y-16394960D02*
X10312920Y-16404484D01*
X10312920Y-16404484D02*
X10293872Y-16404484D01*
X10293872Y-16404484D02*
X10274824Y-16394960D01*
X10274824Y-16394960D02*
X10265301Y-16385436D01*
X10265301Y-16385436D02*
X10255777Y-16366388D01*
X10255777Y-16366388D02*
X10246253Y-16328293D01*
X10246253Y-16328293D02*
X10246253Y-16280674D01*
X10246253Y-16280674D02*
X10255777Y-16242579D01*
X10255777Y-16242579D02*
X10265301Y-16223531D01*
X10265301Y-16223531D02*
X10274824Y-16214008D01*
X10274824Y-16214008D02*
X10293872Y-16204484D01*
X10446253Y-16385436D02*
X10455777Y-16394960D01*
X10455777Y-16394960D02*
X10446253Y-16404484D01*
X10446253Y-16404484D02*
X10436729Y-16394960D01*
X10436729Y-16394960D02*
X10446253Y-16385436D01*
X10446253Y-16385436D02*
X10446253Y-16404484D01*
X10627205Y-16271150D02*
X10627205Y-16404484D01*
X10579586Y-16194960D02*
X10531967Y-16337817D01*
X10531967Y-16337817D02*
X10655777Y-16337817D01*
X10770063Y-16204484D02*
X10789110Y-16204484D01*
X10789110Y-16204484D02*
X10808158Y-16214008D01*
X10808158Y-16214008D02*
X10817682Y-16223531D01*
X10817682Y-16223531D02*
X10827205Y-16242579D01*
X10827205Y-16242579D02*
X10836729Y-16280674D01*
X10836729Y-16280674D02*
X10836729Y-16328293D01*
X10836729Y-16328293D02*
X10827205Y-16366388D01*
X10827205Y-16366388D02*
X10817682Y-16385436D01*
X10817682Y-16385436D02*
X10808158Y-16394960D01*
X10808158Y-16394960D02*
X10789110Y-16404484D01*
X10789110Y-16404484D02*
X10770063Y-16404484D01*
X10770063Y-16404484D02*
X10751015Y-16394960D01*
X10751015Y-16394960D02*
X10741491Y-16385436D01*
X10741491Y-16385436D02*
X10731967Y-16366388D01*
X10731967Y-16366388D02*
X10722444Y-16328293D01*
X10722444Y-16328293D02*
X10722444Y-16280674D01*
X10722444Y-16280674D02*
X10731967Y-16242579D01*
X10731967Y-16242579D02*
X10741491Y-16223531D01*
X10741491Y-16223531D02*
X10751015Y-16214008D01*
X10751015Y-16214008D02*
X10770063Y-16204484D01*
X10960539Y-16204484D02*
X10979586Y-16204484D01*
X10979586Y-16204484D02*
X10998634Y-16214008D01*
X10998634Y-16214008D02*
X11008158Y-16223531D01*
X11008158Y-16223531D02*
X11017682Y-16242579D01*
X11017682Y-16242579D02*
X11027205Y-16280674D01*
X11027205Y-16280674D02*
X11027205Y-16328293D01*
X11027205Y-16328293D02*
X11017682Y-16366388D01*
X11017682Y-16366388D02*
X11008158Y-16385436D01*
X11008158Y-16385436D02*
X10998634Y-16394960D01*
X10998634Y-16394960D02*
X10979586Y-16404484D01*
X10979586Y-16404484D02*
X10960539Y-16404484D01*
X10960539Y-16404484D02*
X10941491Y-16394960D01*
X10941491Y-16394960D02*
X10931967Y-16385436D01*
X10931967Y-16385436D02*
X10922444Y-16366388D01*
X10922444Y-16366388D02*
X10912920Y-16328293D01*
X10912920Y-16328293D02*
X10912920Y-16280674D01*
X10912920Y-16280674D02*
X10922444Y-16242579D01*
X10922444Y-16242579D02*
X10931967Y-16223531D01*
X10931967Y-16223531D02*
X10941491Y-16214008D01*
X10941491Y-16214008D02*
X10960539Y-16204484D01*
X11112920Y-16404484D02*
X11112920Y-16271150D01*
X11112920Y-16290198D02*
X11122444Y-16280674D01*
X11122444Y-16280674D02*
X11141491Y-16271150D01*
X11141491Y-16271150D02*
X11170063Y-16271150D01*
X11170063Y-16271150D02*
X11189110Y-16280674D01*
X11189110Y-16280674D02*
X11198634Y-16299722D01*
X11198634Y-16299722D02*
X11198634Y-16404484D01*
X11198634Y-16299722D02*
X11208158Y-16280674D01*
X11208158Y-16280674D02*
X11227205Y-16271150D01*
X11227205Y-16271150D02*
X11255777Y-16271150D01*
X11255777Y-16271150D02*
X11274824Y-16280674D01*
X11274824Y-16280674D02*
X11284348Y-16299722D01*
X11284348Y-16299722D02*
X11284348Y-16404484D01*
X11379586Y-16404484D02*
X11379586Y-16271150D01*
X11379586Y-16290198D02*
X11389110Y-16280674D01*
X11389110Y-16280674D02*
X11408158Y-16271150D01*
X11408158Y-16271150D02*
X11436729Y-16271150D01*
X11436729Y-16271150D02*
X11455777Y-16280674D01*
X11455777Y-16280674D02*
X11465301Y-16299722D01*
X11465301Y-16299722D02*
X11465301Y-16404484D01*
X11465301Y-16299722D02*
X11474824Y-16280674D01*
X11474824Y-16280674D02*
X11493872Y-16271150D01*
X11493872Y-16271150D02*
X11522443Y-16271150D01*
X11522443Y-16271150D02*
X11541491Y-16280674D01*
X11541491Y-16280674D02*
X11551015Y-16299722D01*
X11551015Y-16299722D02*
X11551015Y-16404484D01*
X11941491Y-16194960D02*
X11770063Y-16452103D01*
X12198634Y-16204484D02*
X12217682Y-16204484D01*
X12217682Y-16204484D02*
X12236729Y-16214008D01*
X12236729Y-16214008D02*
X12246253Y-16223531D01*
X12246253Y-16223531D02*
X12255777Y-16242579D01*
X12255777Y-16242579D02*
X12265301Y-16280674D01*
X12265301Y-16280674D02*
X12265301Y-16328293D01*
X12265301Y-16328293D02*
X12255777Y-16366388D01*
X12255777Y-16366388D02*
X12246253Y-16385436D01*
X12246253Y-16385436D02*
X12236729Y-16394960D01*
X12236729Y-16394960D02*
X12217682Y-16404484D01*
X12217682Y-16404484D02*
X12198634Y-16404484D01*
X12198634Y-16404484D02*
X12179586Y-16394960D01*
X12179586Y-16394960D02*
X12170063Y-16385436D01*
X12170063Y-16385436D02*
X12160539Y-16366388D01*
X12160539Y-16366388D02*
X12151015Y-16328293D01*
X12151015Y-16328293D02*
X12151015Y-16280674D01*
X12151015Y-16280674D02*
X12160539Y-16242579D01*
X12160539Y-16242579D02*
X12170063Y-16223531D01*
X12170063Y-16223531D02*
X12179586Y-16214008D01*
X12179586Y-16214008D02*
X12198634Y-16204484D01*
X12351015Y-16385436D02*
X12360539Y-16394960D01*
X12360539Y-16394960D02*
X12351015Y-16404484D01*
X12351015Y-16404484D02*
X12341491Y-16394960D01*
X12341491Y-16394960D02*
X12351015Y-16385436D01*
X12351015Y-16385436D02*
X12351015Y-16404484D01*
X12484348Y-16204484D02*
X12503396Y-16204484D01*
X12503396Y-16204484D02*
X12522444Y-16214008D01*
X12522444Y-16214008D02*
X12531967Y-16223531D01*
X12531967Y-16223531D02*
X12541491Y-16242579D01*
X12541491Y-16242579D02*
X12551015Y-16280674D01*
X12551015Y-16280674D02*
X12551015Y-16328293D01*
X12551015Y-16328293D02*
X12541491Y-16366388D01*
X12541491Y-16366388D02*
X12531967Y-16385436D01*
X12531967Y-16385436D02*
X12522444Y-16394960D01*
X12522444Y-16394960D02*
X12503396Y-16404484D01*
X12503396Y-16404484D02*
X12484348Y-16404484D01*
X12484348Y-16404484D02*
X12465301Y-16394960D01*
X12465301Y-16394960D02*
X12455777Y-16385436D01*
X12455777Y-16385436D02*
X12446253Y-16366388D01*
X12446253Y-16366388D02*
X12436729Y-16328293D01*
X12436729Y-16328293D02*
X12436729Y-16280674D01*
X12436729Y-16280674D02*
X12446253Y-16242579D01*
X12446253Y-16242579D02*
X12455777Y-16223531D01*
X12455777Y-16223531D02*
X12465301Y-16214008D01*
X12465301Y-16214008D02*
X12484348Y-16204484D01*
X12741491Y-16404484D02*
X12627206Y-16404484D01*
X12684348Y-16404484D02*
X12684348Y-16204484D01*
X12684348Y-16204484D02*
X12665301Y-16233055D01*
X12665301Y-16233055D02*
X12646253Y-16252103D01*
X12646253Y-16252103D02*
X12627206Y-16261627D01*
X12922444Y-16204484D02*
X12827206Y-16204484D01*
X12827206Y-16204484D02*
X12817682Y-16299722D01*
X12817682Y-16299722D02*
X12827206Y-16290198D01*
X12827206Y-16290198D02*
X12846253Y-16280674D01*
X12846253Y-16280674D02*
X12893872Y-16280674D01*
X12893872Y-16280674D02*
X12912920Y-16290198D01*
X12912920Y-16290198D02*
X12922444Y-16299722D01*
X12922444Y-16299722D02*
X12931967Y-16318769D01*
X12931967Y-16318769D02*
X12931967Y-16366388D01*
X12931967Y-16366388D02*
X12922444Y-16385436D01*
X12922444Y-16385436D02*
X12912920Y-16394960D01*
X12912920Y-16394960D02*
X12893872Y-16404484D01*
X12893872Y-16404484D02*
X12846253Y-16404484D01*
X12846253Y-16404484D02*
X12827206Y-16394960D01*
X12827206Y-16394960D02*
X12817682Y-16385436D01*
X12998634Y-16204484D02*
X13131967Y-16204484D01*
X13131967Y-16204484D02*
X13046253Y-16404484D01*
X13198634Y-16204484D02*
X13198634Y-16242579D01*
X13274825Y-16204484D02*
X13274825Y-16242579D01*
X13570063Y-16480674D02*
X13560539Y-16471150D01*
X13560539Y-16471150D02*
X13541491Y-16442579D01*
X13541491Y-16442579D02*
X13531968Y-16423531D01*
X13531968Y-16423531D02*
X13522444Y-16394960D01*
X13522444Y-16394960D02*
X13512920Y-16347341D01*
X13512920Y-16347341D02*
X13512920Y-16309246D01*
X13512920Y-16309246D02*
X13522444Y-16261627D01*
X13522444Y-16261627D02*
X13531968Y-16233055D01*
X13531968Y-16233055D02*
X13541491Y-16214008D01*
X13541491Y-16214008D02*
X13560539Y-16185436D01*
X13560539Y-16185436D02*
X13570063Y-16175912D01*
X13731968Y-16271150D02*
X13731968Y-16404484D01*
X13684348Y-16194960D02*
X13636729Y-16337817D01*
X13636729Y-16337817D02*
X13760539Y-16337817D01*
X13827206Y-16223531D02*
X13836729Y-16214008D01*
X13836729Y-16214008D02*
X13855777Y-16204484D01*
X13855777Y-16204484D02*
X13903396Y-16204484D01*
X13903396Y-16204484D02*
X13922444Y-16214008D01*
X13922444Y-16214008D02*
X13931968Y-16223531D01*
X13931968Y-16223531D02*
X13941491Y-16242579D01*
X13941491Y-16242579D02*
X13941491Y-16261627D01*
X13941491Y-16261627D02*
X13931968Y-16290198D01*
X13931968Y-16290198D02*
X13817682Y-16404484D01*
X13817682Y-16404484D02*
X13941491Y-16404484D01*
X14122444Y-16204484D02*
X14027206Y-16204484D01*
X14027206Y-16204484D02*
X14017682Y-16299722D01*
X14017682Y-16299722D02*
X14027206Y-16290198D01*
X14027206Y-16290198D02*
X14046253Y-16280674D01*
X14046253Y-16280674D02*
X14093872Y-16280674D01*
X14093872Y-16280674D02*
X14112920Y-16290198D01*
X14112920Y-16290198D02*
X14122444Y-16299722D01*
X14122444Y-16299722D02*
X14131968Y-16318769D01*
X14131968Y-16318769D02*
X14131968Y-16366388D01*
X14131968Y-16366388D02*
X14122444Y-16385436D01*
X14122444Y-16385436D02*
X14112920Y-16394960D01*
X14112920Y-16394960D02*
X14093872Y-16404484D01*
X14093872Y-16404484D02*
X14046253Y-16404484D01*
X14046253Y-16404484D02*
X14027206Y-16394960D01*
X14027206Y-16394960D02*
X14017682Y-16385436D01*
X14370063Y-16404484D02*
X14370063Y-16204484D01*
X14455777Y-16404484D02*
X14455777Y-16299722D01*
X14455777Y-16299722D02*
X14446253Y-16280674D01*
X14446253Y-16280674D02*
X14427206Y-16271150D01*
X14427206Y-16271150D02*
X14398634Y-16271150D01*
X14398634Y-16271150D02*
X14379587Y-16280674D01*
X14379587Y-16280674D02*
X14370063Y-16290198D01*
X14579587Y-16404484D02*
X14560539Y-16394960D01*
X14560539Y-16394960D02*
X14551015Y-16385436D01*
X14551015Y-16385436D02*
X14541491Y-16366388D01*
X14541491Y-16366388D02*
X14541491Y-16309246D01*
X14541491Y-16309246D02*
X14551015Y-16290198D01*
X14551015Y-16290198D02*
X14560539Y-16280674D01*
X14560539Y-16280674D02*
X14579587Y-16271150D01*
X14579587Y-16271150D02*
X14608158Y-16271150D01*
X14608158Y-16271150D02*
X14627206Y-16280674D01*
X14627206Y-16280674D02*
X14636730Y-16290198D01*
X14636730Y-16290198D02*
X14646253Y-16309246D01*
X14646253Y-16309246D02*
X14646253Y-16366388D01*
X14646253Y-16366388D02*
X14636730Y-16385436D01*
X14636730Y-16385436D02*
X14627206Y-16394960D01*
X14627206Y-16394960D02*
X14608158Y-16404484D01*
X14608158Y-16404484D02*
X14579587Y-16404484D01*
X14760539Y-16404484D02*
X14741491Y-16394960D01*
X14741491Y-16394960D02*
X14731968Y-16375912D01*
X14731968Y-16375912D02*
X14731968Y-16204484D01*
X14912920Y-16394960D02*
X14893872Y-16404484D01*
X14893872Y-16404484D02*
X14855777Y-16404484D01*
X14855777Y-16404484D02*
X14836730Y-16394960D01*
X14836730Y-16394960D02*
X14827206Y-16375912D01*
X14827206Y-16375912D02*
X14827206Y-16299722D01*
X14827206Y-16299722D02*
X14836730Y-16280674D01*
X14836730Y-16280674D02*
X14855777Y-16271150D01*
X14855777Y-16271150D02*
X14893872Y-16271150D01*
X14893872Y-16271150D02*
X14912920Y-16280674D01*
X14912920Y-16280674D02*
X14922444Y-16299722D01*
X14922444Y-16299722D02*
X14922444Y-16318769D01*
X14922444Y-16318769D02*
X14827206Y-16337817D01*
X14998634Y-16394960D02*
X15017682Y-16404484D01*
X15017682Y-16404484D02*
X15055777Y-16404484D01*
X15055777Y-16404484D02*
X15074825Y-16394960D01*
X15074825Y-16394960D02*
X15084349Y-16375912D01*
X15084349Y-16375912D02*
X15084349Y-16366388D01*
X15084349Y-16366388D02*
X15074825Y-16347341D01*
X15074825Y-16347341D02*
X15055777Y-16337817D01*
X15055777Y-16337817D02*
X15027206Y-16337817D01*
X15027206Y-16337817D02*
X15008158Y-16328293D01*
X15008158Y-16328293D02*
X14998634Y-16309246D01*
X14998634Y-16309246D02*
X14998634Y-16299722D01*
X14998634Y-16299722D02*
X15008158Y-16280674D01*
X15008158Y-16280674D02*
X15027206Y-16271150D01*
X15027206Y-16271150D02*
X15055777Y-16271150D01*
X15055777Y-16271150D02*
X15074825Y-16280674D01*
X15151015Y-16480674D02*
X15160539Y-16471150D01*
X15160539Y-16471150D02*
X15179587Y-16442579D01*
X15179587Y-16442579D02*
X15189111Y-16423531D01*
X15189111Y-16423531D02*
X15198634Y-16394960D01*
X15198634Y-16394960D02*
X15208158Y-16347341D01*
X15208158Y-16347341D02*
X15208158Y-16309246D01*
X15208158Y-16309246D02*
X15198634Y-16261627D01*
X15198634Y-16261627D02*
X15189111Y-16233055D01*
X15189111Y-16233055D02*
X15179587Y-16214008D01*
X15179587Y-16214008D02*
X15160539Y-16185436D01*
X15160539Y-16185436D02*
X15151015Y-16175912D01*
D10*
X9983285Y-16605284D02*
X9983285Y-16548715D01*
X9926716Y-16548715D01*
X9926716Y-16605284D01*
X9983285Y-16605284D01*
D11*
X10293872Y-16468484D02*
X10312920Y-16468484D01*
X10312920Y-16468484D02*
X10331967Y-16478008D01*
X10331967Y-16478008D02*
X10341491Y-16487531D01*
X10341491Y-16487531D02*
X10351015Y-16506579D01*
X10351015Y-16506579D02*
X10360539Y-16544674D01*
X10360539Y-16544674D02*
X10360539Y-16592293D01*
X10360539Y-16592293D02*
X10351015Y-16630388D01*
X10351015Y-16630388D02*
X10341491Y-16649436D01*
X10341491Y-16649436D02*
X10331967Y-16658960D01*
X10331967Y-16658960D02*
X10312920Y-16668484D01*
X10312920Y-16668484D02*
X10293872Y-16668484D01*
X10293872Y-16668484D02*
X10274824Y-16658960D01*
X10274824Y-16658960D02*
X10265301Y-16649436D01*
X10265301Y-16649436D02*
X10255777Y-16630388D01*
X10255777Y-16630388D02*
X10246253Y-16592293D01*
X10246253Y-16592293D02*
X10246253Y-16544674D01*
X10246253Y-16544674D02*
X10255777Y-16506579D01*
X10255777Y-16506579D02*
X10265301Y-16487531D01*
X10265301Y-16487531D02*
X10274824Y-16478008D01*
X10274824Y-16478008D02*
X10293872Y-16468484D01*
X10446253Y-16649436D02*
X10455777Y-16658960D01*
X10455777Y-16658960D02*
X10446253Y-16668484D01*
X10446253Y-16668484D02*
X10436729Y-16658960D01*
X10436729Y-16658960D02*
X10446253Y-16649436D01*
X10446253Y-16649436D02*
X10446253Y-16668484D01*
X10570063Y-16554198D02*
X10551015Y-16544674D01*
X10551015Y-16544674D02*
X10541491Y-16535150D01*
X10541491Y-16535150D02*
X10531967Y-16516103D01*
X10531967Y-16516103D02*
X10531967Y-16506579D01*
X10531967Y-16506579D02*
X10541491Y-16487531D01*
X10541491Y-16487531D02*
X10551015Y-16478008D01*
X10551015Y-16478008D02*
X10570063Y-16468484D01*
X10570063Y-16468484D02*
X10608158Y-16468484D01*
X10608158Y-16468484D02*
X10627205Y-16478008D01*
X10627205Y-16478008D02*
X10636729Y-16487531D01*
X10636729Y-16487531D02*
X10646253Y-16506579D01*
X10646253Y-16506579D02*
X10646253Y-16516103D01*
X10646253Y-16516103D02*
X10636729Y-16535150D01*
X10636729Y-16535150D02*
X10627205Y-16544674D01*
X10627205Y-16544674D02*
X10608158Y-16554198D01*
X10608158Y-16554198D02*
X10570063Y-16554198D01*
X10570063Y-16554198D02*
X10551015Y-16563722D01*
X10551015Y-16563722D02*
X10541491Y-16573246D01*
X10541491Y-16573246D02*
X10531967Y-16592293D01*
X10531967Y-16592293D02*
X10531967Y-16630388D01*
X10531967Y-16630388D02*
X10541491Y-16649436D01*
X10541491Y-16649436D02*
X10551015Y-16658960D01*
X10551015Y-16658960D02*
X10570063Y-16668484D01*
X10570063Y-16668484D02*
X10608158Y-16668484D01*
X10608158Y-16668484D02*
X10627205Y-16658960D01*
X10627205Y-16658960D02*
X10636729Y-16649436D01*
X10636729Y-16649436D02*
X10646253Y-16630388D01*
X10646253Y-16630388D02*
X10646253Y-16592293D01*
X10646253Y-16592293D02*
X10636729Y-16573246D01*
X10636729Y-16573246D02*
X10627205Y-16563722D01*
X10627205Y-16563722D02*
X10608158Y-16554198D01*
X10770063Y-16468484D02*
X10789110Y-16468484D01*
X10789110Y-16468484D02*
X10808158Y-16478008D01*
X10808158Y-16478008D02*
X10817682Y-16487531D01*
X10817682Y-16487531D02*
X10827205Y-16506579D01*
X10827205Y-16506579D02*
X10836729Y-16544674D01*
X10836729Y-16544674D02*
X10836729Y-16592293D01*
X10836729Y-16592293D02*
X10827205Y-16630388D01*
X10827205Y-16630388D02*
X10817682Y-16649436D01*
X10817682Y-16649436D02*
X10808158Y-16658960D01*
X10808158Y-16658960D02*
X10789110Y-16668484D01*
X10789110Y-16668484D02*
X10770063Y-16668484D01*
X10770063Y-16668484D02*
X10751015Y-16658960D01*
X10751015Y-16658960D02*
X10741491Y-16649436D01*
X10741491Y-16649436D02*
X10731967Y-16630388D01*
X10731967Y-16630388D02*
X10722444Y-16592293D01*
X10722444Y-16592293D02*
X10722444Y-16544674D01*
X10722444Y-16544674D02*
X10731967Y-16506579D01*
X10731967Y-16506579D02*
X10741491Y-16487531D01*
X10741491Y-16487531D02*
X10751015Y-16478008D01*
X10751015Y-16478008D02*
X10770063Y-16468484D01*
X10960539Y-16468484D02*
X10979586Y-16468484D01*
X10979586Y-16468484D02*
X10998634Y-16478008D01*
X10998634Y-16478008D02*
X11008158Y-16487531D01*
X11008158Y-16487531D02*
X11017682Y-16506579D01*
X11017682Y-16506579D02*
X11027205Y-16544674D01*
X11027205Y-16544674D02*
X11027205Y-16592293D01*
X11027205Y-16592293D02*
X11017682Y-16630388D01*
X11017682Y-16630388D02*
X11008158Y-16649436D01*
X11008158Y-16649436D02*
X10998634Y-16658960D01*
X10998634Y-16658960D02*
X10979586Y-16668484D01*
X10979586Y-16668484D02*
X10960539Y-16668484D01*
X10960539Y-16668484D02*
X10941491Y-16658960D01*
X10941491Y-16658960D02*
X10931967Y-16649436D01*
X10931967Y-16649436D02*
X10922444Y-16630388D01*
X10922444Y-16630388D02*
X10912920Y-16592293D01*
X10912920Y-16592293D02*
X10912920Y-16544674D01*
X10912920Y-16544674D02*
X10922444Y-16506579D01*
X10922444Y-16506579D02*
X10931967Y-16487531D01*
X10931967Y-16487531D02*
X10941491Y-16478008D01*
X10941491Y-16478008D02*
X10960539Y-16468484D01*
X11112920Y-16668484D02*
X11112920Y-16535150D01*
X11112920Y-16554198D02*
X11122444Y-16544674D01*
X11122444Y-16544674D02*
X11141491Y-16535150D01*
X11141491Y-16535150D02*
X11170063Y-16535150D01*
X11170063Y-16535150D02*
X11189110Y-16544674D01*
X11189110Y-16544674D02*
X11198634Y-16563722D01*
X11198634Y-16563722D02*
X11198634Y-16668484D01*
X11198634Y-16563722D02*
X11208158Y-16544674D01*
X11208158Y-16544674D02*
X11227205Y-16535150D01*
X11227205Y-16535150D02*
X11255777Y-16535150D01*
X11255777Y-16535150D02*
X11274824Y-16544674D01*
X11274824Y-16544674D02*
X11284348Y-16563722D01*
X11284348Y-16563722D02*
X11284348Y-16668484D01*
X11379586Y-16668484D02*
X11379586Y-16535150D01*
X11379586Y-16554198D02*
X11389110Y-16544674D01*
X11389110Y-16544674D02*
X11408158Y-16535150D01*
X11408158Y-16535150D02*
X11436729Y-16535150D01*
X11436729Y-16535150D02*
X11455777Y-16544674D01*
X11455777Y-16544674D02*
X11465301Y-16563722D01*
X11465301Y-16563722D02*
X11465301Y-16668484D01*
X11465301Y-16563722D02*
X11474824Y-16544674D01*
X11474824Y-16544674D02*
X11493872Y-16535150D01*
X11493872Y-16535150D02*
X11522443Y-16535150D01*
X11522443Y-16535150D02*
X11541491Y-16544674D01*
X11541491Y-16544674D02*
X11551015Y-16563722D01*
X11551015Y-16563722D02*
X11551015Y-16668484D01*
X11941491Y-16458960D02*
X11770063Y-16716103D01*
X12198634Y-16468484D02*
X12217682Y-16468484D01*
X12217682Y-16468484D02*
X12236729Y-16478008D01*
X12236729Y-16478008D02*
X12246253Y-16487531D01*
X12246253Y-16487531D02*
X12255777Y-16506579D01*
X12255777Y-16506579D02*
X12265301Y-16544674D01*
X12265301Y-16544674D02*
X12265301Y-16592293D01*
X12265301Y-16592293D02*
X12255777Y-16630388D01*
X12255777Y-16630388D02*
X12246253Y-16649436D01*
X12246253Y-16649436D02*
X12236729Y-16658960D01*
X12236729Y-16658960D02*
X12217682Y-16668484D01*
X12217682Y-16668484D02*
X12198634Y-16668484D01*
X12198634Y-16668484D02*
X12179586Y-16658960D01*
X12179586Y-16658960D02*
X12170063Y-16649436D01*
X12170063Y-16649436D02*
X12160539Y-16630388D01*
X12160539Y-16630388D02*
X12151015Y-16592293D01*
X12151015Y-16592293D02*
X12151015Y-16544674D01*
X12151015Y-16544674D02*
X12160539Y-16506579D01*
X12160539Y-16506579D02*
X12170063Y-16487531D01*
X12170063Y-16487531D02*
X12179586Y-16478008D01*
X12179586Y-16478008D02*
X12198634Y-16468484D01*
X12351015Y-16649436D02*
X12360539Y-16658960D01*
X12360539Y-16658960D02*
X12351015Y-16668484D01*
X12351015Y-16668484D02*
X12341491Y-16658960D01*
X12341491Y-16658960D02*
X12351015Y-16649436D01*
X12351015Y-16649436D02*
X12351015Y-16668484D01*
X12484348Y-16468484D02*
X12503396Y-16468484D01*
X12503396Y-16468484D02*
X12522444Y-16478008D01*
X12522444Y-16478008D02*
X12531967Y-16487531D01*
X12531967Y-16487531D02*
X12541491Y-16506579D01*
X12541491Y-16506579D02*
X12551015Y-16544674D01*
X12551015Y-16544674D02*
X12551015Y-16592293D01*
X12551015Y-16592293D02*
X12541491Y-16630388D01*
X12541491Y-16630388D02*
X12531967Y-16649436D01*
X12531967Y-16649436D02*
X12522444Y-16658960D01*
X12522444Y-16658960D02*
X12503396Y-16668484D01*
X12503396Y-16668484D02*
X12484348Y-16668484D01*
X12484348Y-16668484D02*
X12465301Y-16658960D01*
X12465301Y-16658960D02*
X12455777Y-16649436D01*
X12455777Y-16649436D02*
X12446253Y-16630388D01*
X12446253Y-16630388D02*
X12436729Y-16592293D01*
X12436729Y-16592293D02*
X12436729Y-16544674D01*
X12436729Y-16544674D02*
X12446253Y-16506579D01*
X12446253Y-16506579D02*
X12455777Y-16487531D01*
X12455777Y-16487531D02*
X12465301Y-16478008D01*
X12465301Y-16478008D02*
X12484348Y-16468484D01*
X12617682Y-16468484D02*
X12741491Y-16468484D01*
X12741491Y-16468484D02*
X12674825Y-16544674D01*
X12674825Y-16544674D02*
X12703396Y-16544674D01*
X12703396Y-16544674D02*
X12722444Y-16554198D01*
X12722444Y-16554198D02*
X12731967Y-16563722D01*
X12731967Y-16563722D02*
X12741491Y-16582769D01*
X12741491Y-16582769D02*
X12741491Y-16630388D01*
X12741491Y-16630388D02*
X12731967Y-16649436D01*
X12731967Y-16649436D02*
X12722444Y-16658960D01*
X12722444Y-16658960D02*
X12703396Y-16668484D01*
X12703396Y-16668484D02*
X12646253Y-16668484D01*
X12646253Y-16668484D02*
X12627206Y-16658960D01*
X12627206Y-16658960D02*
X12617682Y-16649436D01*
X12931967Y-16668484D02*
X12817682Y-16668484D01*
X12874825Y-16668484D02*
X12874825Y-16468484D01*
X12874825Y-16468484D02*
X12855777Y-16497055D01*
X12855777Y-16497055D02*
X12836729Y-16516103D01*
X12836729Y-16516103D02*
X12817682Y-16525627D01*
X13112920Y-16468484D02*
X13017682Y-16468484D01*
X13017682Y-16468484D02*
X13008158Y-16563722D01*
X13008158Y-16563722D02*
X13017682Y-16554198D01*
X13017682Y-16554198D02*
X13036729Y-16544674D01*
X13036729Y-16544674D02*
X13084348Y-16544674D01*
X13084348Y-16544674D02*
X13103396Y-16554198D01*
X13103396Y-16554198D02*
X13112920Y-16563722D01*
X13112920Y-16563722D02*
X13122444Y-16582769D01*
X13122444Y-16582769D02*
X13122444Y-16630388D01*
X13122444Y-16630388D02*
X13112920Y-16649436D01*
X13112920Y-16649436D02*
X13103396Y-16658960D01*
X13103396Y-16658960D02*
X13084348Y-16668484D01*
X13084348Y-16668484D02*
X13036729Y-16668484D01*
X13036729Y-16668484D02*
X13017682Y-16658960D01*
X13017682Y-16658960D02*
X13008158Y-16649436D01*
X13198634Y-16468484D02*
X13198634Y-16506579D01*
X13274825Y-16468484D02*
X13274825Y-16506579D01*
X13570063Y-16744674D02*
X13560539Y-16735150D01*
X13560539Y-16735150D02*
X13541491Y-16706579D01*
X13541491Y-16706579D02*
X13531968Y-16687531D01*
X13531968Y-16687531D02*
X13522444Y-16658960D01*
X13522444Y-16658960D02*
X13512920Y-16611341D01*
X13512920Y-16611341D02*
X13512920Y-16573246D01*
X13512920Y-16573246D02*
X13522444Y-16525627D01*
X13522444Y-16525627D02*
X13531968Y-16497055D01*
X13531968Y-16497055D02*
X13541491Y-16478008D01*
X13541491Y-16478008D02*
X13560539Y-16449436D01*
X13560539Y-16449436D02*
X13570063Y-16439912D01*
X13674825Y-16554198D02*
X13655777Y-16544674D01*
X13655777Y-16544674D02*
X13646253Y-16535150D01*
X13646253Y-16535150D02*
X13636729Y-16516103D01*
X13636729Y-16516103D02*
X13636729Y-16506579D01*
X13636729Y-16506579D02*
X13646253Y-16487531D01*
X13646253Y-16487531D02*
X13655777Y-16478008D01*
X13655777Y-16478008D02*
X13674825Y-16468484D01*
X13674825Y-16468484D02*
X13712920Y-16468484D01*
X13712920Y-16468484D02*
X13731968Y-16478008D01*
X13731968Y-16478008D02*
X13741491Y-16487531D01*
X13741491Y-16487531D02*
X13751015Y-16506579D01*
X13751015Y-16506579D02*
X13751015Y-16516103D01*
X13751015Y-16516103D02*
X13741491Y-16535150D01*
X13741491Y-16535150D02*
X13731968Y-16544674D01*
X13731968Y-16544674D02*
X13712920Y-16554198D01*
X13712920Y-16554198D02*
X13674825Y-16554198D01*
X13674825Y-16554198D02*
X13655777Y-16563722D01*
X13655777Y-16563722D02*
X13646253Y-16573246D01*
X13646253Y-16573246D02*
X13636729Y-16592293D01*
X13636729Y-16592293D02*
X13636729Y-16630388D01*
X13636729Y-16630388D02*
X13646253Y-16649436D01*
X13646253Y-16649436D02*
X13655777Y-16658960D01*
X13655777Y-16658960D02*
X13674825Y-16668484D01*
X13674825Y-16668484D02*
X13712920Y-16668484D01*
X13712920Y-16668484D02*
X13731968Y-16658960D01*
X13731968Y-16658960D02*
X13741491Y-16649436D01*
X13741491Y-16649436D02*
X13751015Y-16630388D01*
X13751015Y-16630388D02*
X13751015Y-16592293D01*
X13751015Y-16592293D02*
X13741491Y-16573246D01*
X13741491Y-16573246D02*
X13731968Y-16563722D01*
X13731968Y-16563722D02*
X13712920Y-16554198D01*
X13989110Y-16668484D02*
X13989110Y-16468484D01*
X14074825Y-16668484D02*
X14074825Y-16563722D01*
X14074825Y-16563722D02*
X14065301Y-16544674D01*
X14065301Y-16544674D02*
X14046253Y-16535150D01*
X14046253Y-16535150D02*
X14017682Y-16535150D01*
X14017682Y-16535150D02*
X13998634Y-16544674D01*
X13998634Y-16544674D02*
X13989110Y-16554198D01*
X14198634Y-16668484D02*
X14179587Y-16658960D01*
X14179587Y-16658960D02*
X14170063Y-16649436D01*
X14170063Y-16649436D02*
X14160539Y-16630388D01*
X14160539Y-16630388D02*
X14160539Y-16573246D01*
X14160539Y-16573246D02*
X14170063Y-16554198D01*
X14170063Y-16554198D02*
X14179587Y-16544674D01*
X14179587Y-16544674D02*
X14198634Y-16535150D01*
X14198634Y-16535150D02*
X14227206Y-16535150D01*
X14227206Y-16535150D02*
X14246253Y-16544674D01*
X14246253Y-16544674D02*
X14255777Y-16554198D01*
X14255777Y-16554198D02*
X14265301Y-16573246D01*
X14265301Y-16573246D02*
X14265301Y-16630388D01*
X14265301Y-16630388D02*
X14255777Y-16649436D01*
X14255777Y-16649436D02*
X14246253Y-16658960D01*
X14246253Y-16658960D02*
X14227206Y-16668484D01*
X14227206Y-16668484D02*
X14198634Y-16668484D01*
X14379587Y-16668484D02*
X14360539Y-16658960D01*
X14360539Y-16658960D02*
X14351015Y-16639912D01*
X14351015Y-16639912D02*
X14351015Y-16468484D01*
X14531968Y-16658960D02*
X14512920Y-16668484D01*
X14512920Y-16668484D02*
X14474825Y-16668484D01*
X14474825Y-16668484D02*
X14455777Y-16658960D01*
X14455777Y-16658960D02*
X14446253Y-16639912D01*
X14446253Y-16639912D02*
X14446253Y-16563722D01*
X14446253Y-16563722D02*
X14455777Y-16544674D01*
X14455777Y-16544674D02*
X14474825Y-16535150D01*
X14474825Y-16535150D02*
X14512920Y-16535150D01*
X14512920Y-16535150D02*
X14531968Y-16544674D01*
X14531968Y-16544674D02*
X14541491Y-16563722D01*
X14541491Y-16563722D02*
X14541491Y-16582769D01*
X14541491Y-16582769D02*
X14446253Y-16601817D01*
X14617682Y-16658960D02*
X14636730Y-16668484D01*
X14636730Y-16668484D02*
X14674825Y-16668484D01*
X14674825Y-16668484D02*
X14693872Y-16658960D01*
X14693872Y-16658960D02*
X14703396Y-16639912D01*
X14703396Y-16639912D02*
X14703396Y-16630388D01*
X14703396Y-16630388D02*
X14693872Y-16611341D01*
X14693872Y-16611341D02*
X14674825Y-16601817D01*
X14674825Y-16601817D02*
X14646253Y-16601817D01*
X14646253Y-16601817D02*
X14627206Y-16592293D01*
X14627206Y-16592293D02*
X14617682Y-16573246D01*
X14617682Y-16573246D02*
X14617682Y-16563722D01*
X14617682Y-16563722D02*
X14627206Y-16544674D01*
X14627206Y-16544674D02*
X14646253Y-16535150D01*
X14646253Y-16535150D02*
X14674825Y-16535150D01*
X14674825Y-16535150D02*
X14693872Y-16544674D01*
X14770063Y-16744674D02*
X14779587Y-16735150D01*
X14779587Y-16735150D02*
X14798634Y-16706579D01*
X14798634Y-16706579D02*
X14808158Y-16687531D01*
X14808158Y-16687531D02*
X14817682Y-16658960D01*
X14817682Y-16658960D02*
X14827206Y-16611341D01*
X14827206Y-16611341D02*
X14827206Y-16573246D01*
X14827206Y-16573246D02*
X14817682Y-16525627D01*
X14817682Y-16525627D02*
X14808158Y-16497055D01*
X14808158Y-16497055D02*
X14798634Y-16478008D01*
X14798634Y-16478008D02*
X14779587Y-16449436D01*
X14779587Y-16449436D02*
X14770063Y-16439912D01*
D10*
X9950000Y-16886000D02*
X9995000Y-16841000D01*
X9950000Y-16796000D01*
X9905000Y-16841000D01*
X9950000Y-16886000D01*
D11*
X10293872Y-16732484D02*
X10312920Y-16732484D01*
X10312920Y-16732484D02*
X10331967Y-16742008D01*
X10331967Y-16742008D02*
X10341491Y-16751531D01*
X10341491Y-16751531D02*
X10351015Y-16770579D01*
X10351015Y-16770579D02*
X10360539Y-16808674D01*
X10360539Y-16808674D02*
X10360539Y-16856293D01*
X10360539Y-16856293D02*
X10351015Y-16894389D01*
X10351015Y-16894389D02*
X10341491Y-16913436D01*
X10341491Y-16913436D02*
X10331967Y-16922960D01*
X10331967Y-16922960D02*
X10312920Y-16932484D01*
X10312920Y-16932484D02*
X10293872Y-16932484D01*
X10293872Y-16932484D02*
X10274824Y-16922960D01*
X10274824Y-16922960D02*
X10265301Y-16913436D01*
X10265301Y-16913436D02*
X10255777Y-16894389D01*
X10255777Y-16894389D02*
X10246253Y-16856293D01*
X10246253Y-16856293D02*
X10246253Y-16808674D01*
X10246253Y-16808674D02*
X10255777Y-16770579D01*
X10255777Y-16770579D02*
X10265301Y-16751531D01*
X10265301Y-16751531D02*
X10274824Y-16742008D01*
X10274824Y-16742008D02*
X10293872Y-16732484D01*
X10446253Y-16913436D02*
X10455777Y-16922960D01*
X10455777Y-16922960D02*
X10446253Y-16932484D01*
X10446253Y-16932484D02*
X10436729Y-16922960D01*
X10436729Y-16922960D02*
X10446253Y-16913436D01*
X10446253Y-16913436D02*
X10446253Y-16932484D01*
X10551015Y-16932484D02*
X10589110Y-16932484D01*
X10589110Y-16932484D02*
X10608158Y-16922960D01*
X10608158Y-16922960D02*
X10617682Y-16913436D01*
X10617682Y-16913436D02*
X10636729Y-16884865D01*
X10636729Y-16884865D02*
X10646253Y-16846770D01*
X10646253Y-16846770D02*
X10646253Y-16770579D01*
X10646253Y-16770579D02*
X10636729Y-16751531D01*
X10636729Y-16751531D02*
X10627205Y-16742008D01*
X10627205Y-16742008D02*
X10608158Y-16732484D01*
X10608158Y-16732484D02*
X10570063Y-16732484D01*
X10570063Y-16732484D02*
X10551015Y-16742008D01*
X10551015Y-16742008D02*
X10541491Y-16751531D01*
X10541491Y-16751531D02*
X10531967Y-16770579D01*
X10531967Y-16770579D02*
X10531967Y-16818198D01*
X10531967Y-16818198D02*
X10541491Y-16837246D01*
X10541491Y-16837246D02*
X10551015Y-16846770D01*
X10551015Y-16846770D02*
X10570063Y-16856293D01*
X10570063Y-16856293D02*
X10608158Y-16856293D01*
X10608158Y-16856293D02*
X10627205Y-16846770D01*
X10627205Y-16846770D02*
X10636729Y-16837246D01*
X10636729Y-16837246D02*
X10646253Y-16818198D01*
X10770063Y-16732484D02*
X10789110Y-16732484D01*
X10789110Y-16732484D02*
X10808158Y-16742008D01*
X10808158Y-16742008D02*
X10817682Y-16751531D01*
X10817682Y-16751531D02*
X10827205Y-16770579D01*
X10827205Y-16770579D02*
X10836729Y-16808674D01*
X10836729Y-16808674D02*
X10836729Y-16856293D01*
X10836729Y-16856293D02*
X10827205Y-16894389D01*
X10827205Y-16894389D02*
X10817682Y-16913436D01*
X10817682Y-16913436D02*
X10808158Y-16922960D01*
X10808158Y-16922960D02*
X10789110Y-16932484D01*
X10789110Y-16932484D02*
X10770063Y-16932484D01*
X10770063Y-16932484D02*
X10751015Y-16922960D01*
X10751015Y-16922960D02*
X10741491Y-16913436D01*
X10741491Y-16913436D02*
X10731967Y-16894389D01*
X10731967Y-16894389D02*
X10722444Y-16856293D01*
X10722444Y-16856293D02*
X10722444Y-16808674D01*
X10722444Y-16808674D02*
X10731967Y-16770579D01*
X10731967Y-16770579D02*
X10741491Y-16751531D01*
X10741491Y-16751531D02*
X10751015Y-16742008D01*
X10751015Y-16742008D02*
X10770063Y-16732484D01*
X10960539Y-16732484D02*
X10979586Y-16732484D01*
X10979586Y-16732484D02*
X10998634Y-16742008D01*
X10998634Y-16742008D02*
X11008158Y-16751531D01*
X11008158Y-16751531D02*
X11017682Y-16770579D01*
X11017682Y-16770579D02*
X11027205Y-16808674D01*
X11027205Y-16808674D02*
X11027205Y-16856293D01*
X11027205Y-16856293D02*
X11017682Y-16894389D01*
X11017682Y-16894389D02*
X11008158Y-16913436D01*
X11008158Y-16913436D02*
X10998634Y-16922960D01*
X10998634Y-16922960D02*
X10979586Y-16932484D01*
X10979586Y-16932484D02*
X10960539Y-16932484D01*
X10960539Y-16932484D02*
X10941491Y-16922960D01*
X10941491Y-16922960D02*
X10931967Y-16913436D01*
X10931967Y-16913436D02*
X10922444Y-16894389D01*
X10922444Y-16894389D02*
X10912920Y-16856293D01*
X10912920Y-16856293D02*
X10912920Y-16808674D01*
X10912920Y-16808674D02*
X10922444Y-16770579D01*
X10922444Y-16770579D02*
X10931967Y-16751531D01*
X10931967Y-16751531D02*
X10941491Y-16742008D01*
X10941491Y-16742008D02*
X10960539Y-16732484D01*
X11112920Y-16932484D02*
X11112920Y-16799150D01*
X11112920Y-16818198D02*
X11122444Y-16808674D01*
X11122444Y-16808674D02*
X11141491Y-16799150D01*
X11141491Y-16799150D02*
X11170063Y-16799150D01*
X11170063Y-16799150D02*
X11189110Y-16808674D01*
X11189110Y-16808674D02*
X11198634Y-16827722D01*
X11198634Y-16827722D02*
X11198634Y-16932484D01*
X11198634Y-16827722D02*
X11208158Y-16808674D01*
X11208158Y-16808674D02*
X11227205Y-16799150D01*
X11227205Y-16799150D02*
X11255777Y-16799150D01*
X11255777Y-16799150D02*
X11274824Y-16808674D01*
X11274824Y-16808674D02*
X11284348Y-16827722D01*
X11284348Y-16827722D02*
X11284348Y-16932484D01*
X11379586Y-16932484D02*
X11379586Y-16799150D01*
X11379586Y-16818198D02*
X11389110Y-16808674D01*
X11389110Y-16808674D02*
X11408158Y-16799150D01*
X11408158Y-16799150D02*
X11436729Y-16799150D01*
X11436729Y-16799150D02*
X11455777Y-16808674D01*
X11455777Y-16808674D02*
X11465301Y-16827722D01*
X11465301Y-16827722D02*
X11465301Y-16932484D01*
X11465301Y-16827722D02*
X11474824Y-16808674D01*
X11474824Y-16808674D02*
X11493872Y-16799150D01*
X11493872Y-16799150D02*
X11522443Y-16799150D01*
X11522443Y-16799150D02*
X11541491Y-16808674D01*
X11541491Y-16808674D02*
X11551015Y-16827722D01*
X11551015Y-16827722D02*
X11551015Y-16932484D01*
X11941491Y-16722960D02*
X11770063Y-16980103D01*
X12198634Y-16732484D02*
X12217682Y-16732484D01*
X12217682Y-16732484D02*
X12236729Y-16742008D01*
X12236729Y-16742008D02*
X12246253Y-16751531D01*
X12246253Y-16751531D02*
X12255777Y-16770579D01*
X12255777Y-16770579D02*
X12265301Y-16808674D01*
X12265301Y-16808674D02*
X12265301Y-16856293D01*
X12265301Y-16856293D02*
X12255777Y-16894389D01*
X12255777Y-16894389D02*
X12246253Y-16913436D01*
X12246253Y-16913436D02*
X12236729Y-16922960D01*
X12236729Y-16922960D02*
X12217682Y-16932484D01*
X12217682Y-16932484D02*
X12198634Y-16932484D01*
X12198634Y-16932484D02*
X12179586Y-16922960D01*
X12179586Y-16922960D02*
X12170063Y-16913436D01*
X12170063Y-16913436D02*
X12160539Y-16894389D01*
X12160539Y-16894389D02*
X12151015Y-16856293D01*
X12151015Y-16856293D02*
X12151015Y-16808674D01*
X12151015Y-16808674D02*
X12160539Y-16770579D01*
X12160539Y-16770579D02*
X12170063Y-16751531D01*
X12170063Y-16751531D02*
X12179586Y-16742008D01*
X12179586Y-16742008D02*
X12198634Y-16732484D01*
X12351015Y-16913436D02*
X12360539Y-16922960D01*
X12360539Y-16922960D02*
X12351015Y-16932484D01*
X12351015Y-16932484D02*
X12341491Y-16922960D01*
X12341491Y-16922960D02*
X12351015Y-16913436D01*
X12351015Y-16913436D02*
X12351015Y-16932484D01*
X12484348Y-16732484D02*
X12503396Y-16732484D01*
X12503396Y-16732484D02*
X12522444Y-16742008D01*
X12522444Y-16742008D02*
X12531967Y-16751531D01*
X12531967Y-16751531D02*
X12541491Y-16770579D01*
X12541491Y-16770579D02*
X12551015Y-16808674D01*
X12551015Y-16808674D02*
X12551015Y-16856293D01*
X12551015Y-16856293D02*
X12541491Y-16894389D01*
X12541491Y-16894389D02*
X12531967Y-16913436D01*
X12531967Y-16913436D02*
X12522444Y-16922960D01*
X12522444Y-16922960D02*
X12503396Y-16932484D01*
X12503396Y-16932484D02*
X12484348Y-16932484D01*
X12484348Y-16932484D02*
X12465301Y-16922960D01*
X12465301Y-16922960D02*
X12455777Y-16913436D01*
X12455777Y-16913436D02*
X12446253Y-16894389D01*
X12446253Y-16894389D02*
X12436729Y-16856293D01*
X12436729Y-16856293D02*
X12436729Y-16808674D01*
X12436729Y-16808674D02*
X12446253Y-16770579D01*
X12446253Y-16770579D02*
X12455777Y-16751531D01*
X12455777Y-16751531D02*
X12465301Y-16742008D01*
X12465301Y-16742008D02*
X12484348Y-16732484D01*
X12617682Y-16732484D02*
X12741491Y-16732484D01*
X12741491Y-16732484D02*
X12674825Y-16808674D01*
X12674825Y-16808674D02*
X12703396Y-16808674D01*
X12703396Y-16808674D02*
X12722444Y-16818198D01*
X12722444Y-16818198D02*
X12731967Y-16827722D01*
X12731967Y-16827722D02*
X12741491Y-16846770D01*
X12741491Y-16846770D02*
X12741491Y-16894389D01*
X12741491Y-16894389D02*
X12731967Y-16913436D01*
X12731967Y-16913436D02*
X12722444Y-16922960D01*
X12722444Y-16922960D02*
X12703396Y-16932484D01*
X12703396Y-16932484D02*
X12646253Y-16932484D01*
X12646253Y-16932484D02*
X12627206Y-16922960D01*
X12627206Y-16922960D02*
X12617682Y-16913436D01*
X12922444Y-16732484D02*
X12827206Y-16732484D01*
X12827206Y-16732484D02*
X12817682Y-16827722D01*
X12817682Y-16827722D02*
X12827206Y-16818198D01*
X12827206Y-16818198D02*
X12846253Y-16808674D01*
X12846253Y-16808674D02*
X12893872Y-16808674D01*
X12893872Y-16808674D02*
X12912920Y-16818198D01*
X12912920Y-16818198D02*
X12922444Y-16827722D01*
X12922444Y-16827722D02*
X12931967Y-16846770D01*
X12931967Y-16846770D02*
X12931967Y-16894389D01*
X12931967Y-16894389D02*
X12922444Y-16913436D01*
X12922444Y-16913436D02*
X12912920Y-16922960D01*
X12912920Y-16922960D02*
X12893872Y-16932484D01*
X12893872Y-16932484D02*
X12846253Y-16932484D01*
X12846253Y-16932484D02*
X12827206Y-16922960D01*
X12827206Y-16922960D02*
X12817682Y-16913436D01*
X13103396Y-16799150D02*
X13103396Y-16932484D01*
X13055777Y-16722960D02*
X13008158Y-16865817D01*
X13008158Y-16865817D02*
X13131967Y-16865817D01*
X13198634Y-16732484D02*
X13198634Y-16770579D01*
X13274825Y-16732484D02*
X13274825Y-16770579D01*
X13570063Y-17008674D02*
X13560539Y-16999150D01*
X13560539Y-16999150D02*
X13541491Y-16970579D01*
X13541491Y-16970579D02*
X13531968Y-16951531D01*
X13531968Y-16951531D02*
X13522444Y-16922960D01*
X13522444Y-16922960D02*
X13512920Y-16875341D01*
X13512920Y-16875341D02*
X13512920Y-16837246D01*
X13512920Y-16837246D02*
X13522444Y-16789627D01*
X13522444Y-16789627D02*
X13531968Y-16761055D01*
X13531968Y-16761055D02*
X13541491Y-16742008D01*
X13541491Y-16742008D02*
X13560539Y-16713436D01*
X13560539Y-16713436D02*
X13570063Y-16703912D01*
X13731968Y-16799150D02*
X13731968Y-16932484D01*
X13684348Y-16722960D02*
X13636729Y-16865817D01*
X13636729Y-16865817D02*
X13760539Y-16865817D01*
X13989110Y-16932484D02*
X13989110Y-16732484D01*
X14074825Y-16932484D02*
X14074825Y-16827722D01*
X14074825Y-16827722D02*
X14065301Y-16808674D01*
X14065301Y-16808674D02*
X14046253Y-16799150D01*
X14046253Y-16799150D02*
X14017682Y-16799150D01*
X14017682Y-16799150D02*
X13998634Y-16808674D01*
X13998634Y-16808674D02*
X13989110Y-16818198D01*
X14198634Y-16932484D02*
X14179587Y-16922960D01*
X14179587Y-16922960D02*
X14170063Y-16913436D01*
X14170063Y-16913436D02*
X14160539Y-16894389D01*
X14160539Y-16894389D02*
X14160539Y-16837246D01*
X14160539Y-16837246D02*
X14170063Y-16818198D01*
X14170063Y-16818198D02*
X14179587Y-16808674D01*
X14179587Y-16808674D02*
X14198634Y-16799150D01*
X14198634Y-16799150D02*
X14227206Y-16799150D01*
X14227206Y-16799150D02*
X14246253Y-16808674D01*
X14246253Y-16808674D02*
X14255777Y-16818198D01*
X14255777Y-16818198D02*
X14265301Y-16837246D01*
X14265301Y-16837246D02*
X14265301Y-16894389D01*
X14265301Y-16894389D02*
X14255777Y-16913436D01*
X14255777Y-16913436D02*
X14246253Y-16922960D01*
X14246253Y-16922960D02*
X14227206Y-16932484D01*
X14227206Y-16932484D02*
X14198634Y-16932484D01*
X14379587Y-16932484D02*
X14360539Y-16922960D01*
X14360539Y-16922960D02*
X14351015Y-16903912D01*
X14351015Y-16903912D02*
X14351015Y-16732484D01*
X14531968Y-16922960D02*
X14512920Y-16932484D01*
X14512920Y-16932484D02*
X14474825Y-16932484D01*
X14474825Y-16932484D02*
X14455777Y-16922960D01*
X14455777Y-16922960D02*
X14446253Y-16903912D01*
X14446253Y-16903912D02*
X14446253Y-16827722D01*
X14446253Y-16827722D02*
X14455777Y-16808674D01*
X14455777Y-16808674D02*
X14474825Y-16799150D01*
X14474825Y-16799150D02*
X14512920Y-16799150D01*
X14512920Y-16799150D02*
X14531968Y-16808674D01*
X14531968Y-16808674D02*
X14541491Y-16827722D01*
X14541491Y-16827722D02*
X14541491Y-16846770D01*
X14541491Y-16846770D02*
X14446253Y-16865817D01*
X14617682Y-16922960D02*
X14636730Y-16932484D01*
X14636730Y-16932484D02*
X14674825Y-16932484D01*
X14674825Y-16932484D02*
X14693872Y-16922960D01*
X14693872Y-16922960D02*
X14703396Y-16903912D01*
X14703396Y-16903912D02*
X14703396Y-16894389D01*
X14703396Y-16894389D02*
X14693872Y-16875341D01*
X14693872Y-16875341D02*
X14674825Y-16865817D01*
X14674825Y-16865817D02*
X14646253Y-16865817D01*
X14646253Y-16865817D02*
X14627206Y-16856293D01*
X14627206Y-16856293D02*
X14617682Y-16837246D01*
X14617682Y-16837246D02*
X14617682Y-16827722D01*
X14617682Y-16827722D02*
X14627206Y-16808674D01*
X14627206Y-16808674D02*
X14646253Y-16799150D01*
X14646253Y-16799150D02*
X14674825Y-16799150D01*
X14674825Y-16799150D02*
X14693872Y-16808674D01*
X14770063Y-17008674D02*
X14779587Y-16999150D01*
X14779587Y-16999150D02*
X14798634Y-16970579D01*
X14798634Y-16970579D02*
X14808158Y-16951531D01*
X14808158Y-16951531D02*
X14817682Y-16922960D01*
X14817682Y-16922960D02*
X14827206Y-16875341D01*
X14827206Y-16875341D02*
X14827206Y-16837246D01*
X14827206Y-16837246D02*
X14817682Y-16789627D01*
X14817682Y-16789627D02*
X14808158Y-16761055D01*
X14808158Y-16761055D02*
X14798634Y-16742008D01*
X14798634Y-16742008D02*
X14779587Y-16713436D01*
X14779587Y-16713436D02*
X14770063Y-16703912D01*
D10*
X9895000Y-17055000D02*
X9995000Y-17155000D01*
X9995000Y-17055000D02*
X9895000Y-17155000D01*
X9995000Y-17105000D02*
G75*
G02*
X9895000Y-17105000I-50000J0D01*
G01*
X9895000Y-17105000D02*
G75*
G02*
X9995000Y-17105000I50000J0D01*
G01*
D11*
X10360539Y-17196484D02*
X10246253Y-17196484D01*
X10303396Y-17196484D02*
X10303396Y-16996484D01*
X10303396Y-16996484D02*
X10284348Y-17025055D01*
X10284348Y-17025055D02*
X10265301Y-17044103D01*
X10265301Y-17044103D02*
X10246253Y-17053627D01*
X10446253Y-17177436D02*
X10455777Y-17186960D01*
X10455777Y-17186960D02*
X10446253Y-17196484D01*
X10446253Y-17196484D02*
X10436729Y-17186960D01*
X10436729Y-17186960D02*
X10446253Y-17177436D01*
X10446253Y-17177436D02*
X10446253Y-17196484D01*
X10579586Y-16996484D02*
X10598634Y-16996484D01*
X10598634Y-16996484D02*
X10617682Y-17006008D01*
X10617682Y-17006008D02*
X10627205Y-17015531D01*
X10627205Y-17015531D02*
X10636729Y-17034579D01*
X10636729Y-17034579D02*
X10646253Y-17072674D01*
X10646253Y-17072674D02*
X10646253Y-17120293D01*
X10646253Y-17120293D02*
X10636729Y-17158389D01*
X10636729Y-17158389D02*
X10627205Y-17177436D01*
X10627205Y-17177436D02*
X10617682Y-17186960D01*
X10617682Y-17186960D02*
X10598634Y-17196484D01*
X10598634Y-17196484D02*
X10579586Y-17196484D01*
X10579586Y-17196484D02*
X10560539Y-17186960D01*
X10560539Y-17186960D02*
X10551015Y-17177436D01*
X10551015Y-17177436D02*
X10541491Y-17158389D01*
X10541491Y-17158389D02*
X10531967Y-17120293D01*
X10531967Y-17120293D02*
X10531967Y-17072674D01*
X10531967Y-17072674D02*
X10541491Y-17034579D01*
X10541491Y-17034579D02*
X10551015Y-17015531D01*
X10551015Y-17015531D02*
X10560539Y-17006008D01*
X10560539Y-17006008D02*
X10579586Y-16996484D01*
X10770063Y-16996484D02*
X10789110Y-16996484D01*
X10789110Y-16996484D02*
X10808158Y-17006008D01*
X10808158Y-17006008D02*
X10817682Y-17015531D01*
X10817682Y-17015531D02*
X10827205Y-17034579D01*
X10827205Y-17034579D02*
X10836729Y-17072674D01*
X10836729Y-17072674D02*
X10836729Y-17120293D01*
X10836729Y-17120293D02*
X10827205Y-17158389D01*
X10827205Y-17158389D02*
X10817682Y-17177436D01*
X10817682Y-17177436D02*
X10808158Y-17186960D01*
X10808158Y-17186960D02*
X10789110Y-17196484D01*
X10789110Y-17196484D02*
X10770063Y-17196484D01*
X10770063Y-17196484D02*
X10751015Y-17186960D01*
X10751015Y-17186960D02*
X10741491Y-17177436D01*
X10741491Y-17177436D02*
X10731967Y-17158389D01*
X10731967Y-17158389D02*
X10722444Y-17120293D01*
X10722444Y-17120293D02*
X10722444Y-17072674D01*
X10722444Y-17072674D02*
X10731967Y-17034579D01*
X10731967Y-17034579D02*
X10741491Y-17015531D01*
X10741491Y-17015531D02*
X10751015Y-17006008D01*
X10751015Y-17006008D02*
X10770063Y-16996484D01*
X10960539Y-16996484D02*
X10979586Y-16996484D01*
X10979586Y-16996484D02*
X10998634Y-17006008D01*
X10998634Y-17006008D02*
X11008158Y-17015531D01*
X11008158Y-17015531D02*
X11017682Y-17034579D01*
X11017682Y-17034579D02*
X11027205Y-17072674D01*
X11027205Y-17072674D02*
X11027205Y-17120293D01*
X11027205Y-17120293D02*
X11017682Y-17158389D01*
X11017682Y-17158389D02*
X11008158Y-17177436D01*
X11008158Y-17177436D02*
X10998634Y-17186960D01*
X10998634Y-17186960D02*
X10979586Y-17196484D01*
X10979586Y-17196484D02*
X10960539Y-17196484D01*
X10960539Y-17196484D02*
X10941491Y-17186960D01*
X10941491Y-17186960D02*
X10931967Y-17177436D01*
X10931967Y-17177436D02*
X10922444Y-17158389D01*
X10922444Y-17158389D02*
X10912920Y-17120293D01*
X10912920Y-17120293D02*
X10912920Y-17072674D01*
X10912920Y-17072674D02*
X10922444Y-17034579D01*
X10922444Y-17034579D02*
X10931967Y-17015531D01*
X10931967Y-17015531D02*
X10941491Y-17006008D01*
X10941491Y-17006008D02*
X10960539Y-16996484D01*
X11112920Y-17196484D02*
X11112920Y-17063150D01*
X11112920Y-17082198D02*
X11122444Y-17072674D01*
X11122444Y-17072674D02*
X11141491Y-17063150D01*
X11141491Y-17063150D02*
X11170063Y-17063150D01*
X11170063Y-17063150D02*
X11189110Y-17072674D01*
X11189110Y-17072674D02*
X11198634Y-17091722D01*
X11198634Y-17091722D02*
X11198634Y-17196484D01*
X11198634Y-17091722D02*
X11208158Y-17072674D01*
X11208158Y-17072674D02*
X11227205Y-17063150D01*
X11227205Y-17063150D02*
X11255777Y-17063150D01*
X11255777Y-17063150D02*
X11274824Y-17072674D01*
X11274824Y-17072674D02*
X11284348Y-17091722D01*
X11284348Y-17091722D02*
X11284348Y-17196484D01*
X11379586Y-17196484D02*
X11379586Y-17063150D01*
X11379586Y-17082198D02*
X11389110Y-17072674D01*
X11389110Y-17072674D02*
X11408158Y-17063150D01*
X11408158Y-17063150D02*
X11436729Y-17063150D01*
X11436729Y-17063150D02*
X11455777Y-17072674D01*
X11455777Y-17072674D02*
X11465301Y-17091722D01*
X11465301Y-17091722D02*
X11465301Y-17196484D01*
X11465301Y-17091722D02*
X11474824Y-17072674D01*
X11474824Y-17072674D02*
X11493872Y-17063150D01*
X11493872Y-17063150D02*
X11522443Y-17063150D01*
X11522443Y-17063150D02*
X11541491Y-17072674D01*
X11541491Y-17072674D02*
X11551015Y-17091722D01*
X11551015Y-17091722D02*
X11551015Y-17196484D01*
X11941491Y-16986960D02*
X11770063Y-17244103D01*
X12198634Y-16996484D02*
X12217682Y-16996484D01*
X12217682Y-16996484D02*
X12236729Y-17006008D01*
X12236729Y-17006008D02*
X12246253Y-17015531D01*
X12246253Y-17015531D02*
X12255777Y-17034579D01*
X12255777Y-17034579D02*
X12265301Y-17072674D01*
X12265301Y-17072674D02*
X12265301Y-17120293D01*
X12265301Y-17120293D02*
X12255777Y-17158389D01*
X12255777Y-17158389D02*
X12246253Y-17177436D01*
X12246253Y-17177436D02*
X12236729Y-17186960D01*
X12236729Y-17186960D02*
X12217682Y-17196484D01*
X12217682Y-17196484D02*
X12198634Y-17196484D01*
X12198634Y-17196484D02*
X12179586Y-17186960D01*
X12179586Y-17186960D02*
X12170063Y-17177436D01*
X12170063Y-17177436D02*
X12160539Y-17158389D01*
X12160539Y-17158389D02*
X12151015Y-17120293D01*
X12151015Y-17120293D02*
X12151015Y-17072674D01*
X12151015Y-17072674D02*
X12160539Y-17034579D01*
X12160539Y-17034579D02*
X12170063Y-17015531D01*
X12170063Y-17015531D02*
X12179586Y-17006008D01*
X12179586Y-17006008D02*
X12198634Y-16996484D01*
X12351015Y-17177436D02*
X12360539Y-17186960D01*
X12360539Y-17186960D02*
X12351015Y-17196484D01*
X12351015Y-17196484D02*
X12341491Y-17186960D01*
X12341491Y-17186960D02*
X12351015Y-17177436D01*
X12351015Y-17177436D02*
X12351015Y-17196484D01*
X12484348Y-16996484D02*
X12503396Y-16996484D01*
X12503396Y-16996484D02*
X12522444Y-17006008D01*
X12522444Y-17006008D02*
X12531967Y-17015531D01*
X12531967Y-17015531D02*
X12541491Y-17034579D01*
X12541491Y-17034579D02*
X12551015Y-17072674D01*
X12551015Y-17072674D02*
X12551015Y-17120293D01*
X12551015Y-17120293D02*
X12541491Y-17158389D01*
X12541491Y-17158389D02*
X12531967Y-17177436D01*
X12531967Y-17177436D02*
X12522444Y-17186960D01*
X12522444Y-17186960D02*
X12503396Y-17196484D01*
X12503396Y-17196484D02*
X12484348Y-17196484D01*
X12484348Y-17196484D02*
X12465301Y-17186960D01*
X12465301Y-17186960D02*
X12455777Y-17177436D01*
X12455777Y-17177436D02*
X12446253Y-17158389D01*
X12446253Y-17158389D02*
X12436729Y-17120293D01*
X12436729Y-17120293D02*
X12436729Y-17072674D01*
X12436729Y-17072674D02*
X12446253Y-17034579D01*
X12446253Y-17034579D02*
X12455777Y-17015531D01*
X12455777Y-17015531D02*
X12465301Y-17006008D01*
X12465301Y-17006008D02*
X12484348Y-16996484D01*
X12617682Y-16996484D02*
X12741491Y-16996484D01*
X12741491Y-16996484D02*
X12674825Y-17072674D01*
X12674825Y-17072674D02*
X12703396Y-17072674D01*
X12703396Y-17072674D02*
X12722444Y-17082198D01*
X12722444Y-17082198D02*
X12731967Y-17091722D01*
X12731967Y-17091722D02*
X12741491Y-17110770D01*
X12741491Y-17110770D02*
X12741491Y-17158389D01*
X12741491Y-17158389D02*
X12731967Y-17177436D01*
X12731967Y-17177436D02*
X12722444Y-17186960D01*
X12722444Y-17186960D02*
X12703396Y-17196484D01*
X12703396Y-17196484D02*
X12646253Y-17196484D01*
X12646253Y-17196484D02*
X12627206Y-17186960D01*
X12627206Y-17186960D02*
X12617682Y-17177436D01*
X12836729Y-17196484D02*
X12874825Y-17196484D01*
X12874825Y-17196484D02*
X12893872Y-17186960D01*
X12893872Y-17186960D02*
X12903396Y-17177436D01*
X12903396Y-17177436D02*
X12922444Y-17148865D01*
X12922444Y-17148865D02*
X12931967Y-17110770D01*
X12931967Y-17110770D02*
X12931967Y-17034579D01*
X12931967Y-17034579D02*
X12922444Y-17015531D01*
X12922444Y-17015531D02*
X12912920Y-17006008D01*
X12912920Y-17006008D02*
X12893872Y-16996484D01*
X12893872Y-16996484D02*
X12855777Y-16996484D01*
X12855777Y-16996484D02*
X12836729Y-17006008D01*
X12836729Y-17006008D02*
X12827206Y-17015531D01*
X12827206Y-17015531D02*
X12817682Y-17034579D01*
X12817682Y-17034579D02*
X12817682Y-17082198D01*
X12817682Y-17082198D02*
X12827206Y-17101246D01*
X12827206Y-17101246D02*
X12836729Y-17110770D01*
X12836729Y-17110770D02*
X12855777Y-17120293D01*
X12855777Y-17120293D02*
X12893872Y-17120293D01*
X12893872Y-17120293D02*
X12912920Y-17110770D01*
X12912920Y-17110770D02*
X12922444Y-17101246D01*
X12922444Y-17101246D02*
X12931967Y-17082198D01*
X13103396Y-17063150D02*
X13103396Y-17196484D01*
X13055777Y-16986960D02*
X13008158Y-17129817D01*
X13008158Y-17129817D02*
X13131967Y-17129817D01*
X13198634Y-16996484D02*
X13198634Y-17034579D01*
X13274825Y-16996484D02*
X13274825Y-17034579D01*
X13570063Y-17272674D02*
X13560539Y-17263150D01*
X13560539Y-17263150D02*
X13541491Y-17234579D01*
X13541491Y-17234579D02*
X13531968Y-17215531D01*
X13531968Y-17215531D02*
X13522444Y-17186960D01*
X13522444Y-17186960D02*
X13512920Y-17139341D01*
X13512920Y-17139341D02*
X13512920Y-17101246D01*
X13512920Y-17101246D02*
X13522444Y-17053627D01*
X13522444Y-17053627D02*
X13531968Y-17025055D01*
X13531968Y-17025055D02*
X13541491Y-17006008D01*
X13541491Y-17006008D02*
X13560539Y-16977436D01*
X13560539Y-16977436D02*
X13570063Y-16967912D01*
X13751015Y-17196484D02*
X13636729Y-17196484D01*
X13693872Y-17196484D02*
X13693872Y-16996484D01*
X13693872Y-16996484D02*
X13674825Y-17025055D01*
X13674825Y-17025055D02*
X13655777Y-17044103D01*
X13655777Y-17044103D02*
X13636729Y-17053627D01*
X13922444Y-17063150D02*
X13922444Y-17196484D01*
X13874825Y-16986960D02*
X13827206Y-17129817D01*
X13827206Y-17129817D02*
X13951015Y-17129817D01*
X14179587Y-17196484D02*
X14179587Y-16996484D01*
X14265301Y-17196484D02*
X14265301Y-17091722D01*
X14265301Y-17091722D02*
X14255777Y-17072674D01*
X14255777Y-17072674D02*
X14236730Y-17063150D01*
X14236730Y-17063150D02*
X14208158Y-17063150D01*
X14208158Y-17063150D02*
X14189110Y-17072674D01*
X14189110Y-17072674D02*
X14179587Y-17082198D01*
X14389110Y-17196484D02*
X14370063Y-17186960D01*
X14370063Y-17186960D02*
X14360539Y-17177436D01*
X14360539Y-17177436D02*
X14351015Y-17158389D01*
X14351015Y-17158389D02*
X14351015Y-17101246D01*
X14351015Y-17101246D02*
X14360539Y-17082198D01*
X14360539Y-17082198D02*
X14370063Y-17072674D01*
X14370063Y-17072674D02*
X14389110Y-17063150D01*
X14389110Y-17063150D02*
X14417682Y-17063150D01*
X14417682Y-17063150D02*
X14436730Y-17072674D01*
X14436730Y-17072674D02*
X14446253Y-17082198D01*
X14446253Y-17082198D02*
X14455777Y-17101246D01*
X14455777Y-17101246D02*
X14455777Y-17158389D01*
X14455777Y-17158389D02*
X14446253Y-17177436D01*
X14446253Y-17177436D02*
X14436730Y-17186960D01*
X14436730Y-17186960D02*
X14417682Y-17196484D01*
X14417682Y-17196484D02*
X14389110Y-17196484D01*
X14570063Y-17196484D02*
X14551015Y-17186960D01*
X14551015Y-17186960D02*
X14541491Y-17167912D01*
X14541491Y-17167912D02*
X14541491Y-16996484D01*
X14722444Y-17186960D02*
X14703396Y-17196484D01*
X14703396Y-17196484D02*
X14665301Y-17196484D01*
X14665301Y-17196484D02*
X14646253Y-17186960D01*
X14646253Y-17186960D02*
X14636730Y-17167912D01*
X14636730Y-17167912D02*
X14636730Y-17091722D01*
X14636730Y-17091722D02*
X14646253Y-17072674D01*
X14646253Y-17072674D02*
X14665301Y-17063150D01*
X14665301Y-17063150D02*
X14703396Y-17063150D01*
X14703396Y-17063150D02*
X14722444Y-17072674D01*
X14722444Y-17072674D02*
X14731968Y-17091722D01*
X14731968Y-17091722D02*
X14731968Y-17110770D01*
X14731968Y-17110770D02*
X14636730Y-17129817D01*
X14808158Y-17186960D02*
X14827206Y-17196484D01*
X14827206Y-17196484D02*
X14865301Y-17196484D01*
X14865301Y-17196484D02*
X14884349Y-17186960D01*
X14884349Y-17186960D02*
X14893872Y-17167912D01*
X14893872Y-17167912D02*
X14893872Y-17158389D01*
X14893872Y-17158389D02*
X14884349Y-17139341D01*
X14884349Y-17139341D02*
X14865301Y-17129817D01*
X14865301Y-17129817D02*
X14836730Y-17129817D01*
X14836730Y-17129817D02*
X14817682Y-17120293D01*
X14817682Y-17120293D02*
X14808158Y-17101246D01*
X14808158Y-17101246D02*
X14808158Y-17091722D01*
X14808158Y-17091722D02*
X14817682Y-17072674D01*
X14817682Y-17072674D02*
X14836730Y-17063150D01*
X14836730Y-17063150D02*
X14865301Y-17063150D01*
X14865301Y-17063150D02*
X14884349Y-17072674D01*
X14960539Y-17272674D02*
X14970063Y-17263150D01*
X14970063Y-17263150D02*
X14989111Y-17234579D01*
X14989111Y-17234579D02*
X14998634Y-17215531D01*
X14998634Y-17215531D02*
X15008158Y-17186960D01*
X15008158Y-17186960D02*
X15017682Y-17139341D01*
X15017682Y-17139341D02*
X15017682Y-17101246D01*
X15017682Y-17101246D02*
X15008158Y-17053627D01*
X15008158Y-17053627D02*
X14998634Y-17025055D01*
X14998634Y-17025055D02*
X14989111Y-17006008D01*
X14989111Y-17006008D02*
X14970063Y-16977436D01*
X14970063Y-16977436D02*
X14960539Y-16967912D01*
D12*
X9885000Y-17314000D02*
X9995000Y-17424000D01*
X9995000Y-17314000D02*
X9885000Y-17424000D01*
X9940000Y-17314000D02*
X9940000Y-17424000D01*
X9885000Y-17369000D02*
X9995000Y-17369000D01*
D11*
X10360539Y-17460484D02*
X10246253Y-17460484D01*
X10303396Y-17460484D02*
X10303396Y-17260484D01*
X10303396Y-17260484D02*
X10284348Y-17289055D01*
X10284348Y-17289055D02*
X10265301Y-17308103D01*
X10265301Y-17308103D02*
X10246253Y-17317627D01*
X10446253Y-17441436D02*
X10455777Y-17450960D01*
X10455777Y-17450960D02*
X10446253Y-17460484D01*
X10446253Y-17460484D02*
X10436729Y-17450960D01*
X10436729Y-17450960D02*
X10446253Y-17441436D01*
X10446253Y-17441436D02*
X10446253Y-17460484D01*
X10646253Y-17460484D02*
X10531967Y-17460484D01*
X10589110Y-17460484D02*
X10589110Y-17260484D01*
X10589110Y-17260484D02*
X10570063Y-17289055D01*
X10570063Y-17289055D02*
X10551015Y-17308103D01*
X10551015Y-17308103D02*
X10531967Y-17317627D01*
X10770063Y-17260484D02*
X10789110Y-17260484D01*
X10789110Y-17260484D02*
X10808158Y-17270008D01*
X10808158Y-17270008D02*
X10817682Y-17279531D01*
X10817682Y-17279531D02*
X10827205Y-17298579D01*
X10827205Y-17298579D02*
X10836729Y-17336674D01*
X10836729Y-17336674D02*
X10836729Y-17384293D01*
X10836729Y-17384293D02*
X10827205Y-17422389D01*
X10827205Y-17422389D02*
X10817682Y-17441436D01*
X10817682Y-17441436D02*
X10808158Y-17450960D01*
X10808158Y-17450960D02*
X10789110Y-17460484D01*
X10789110Y-17460484D02*
X10770063Y-17460484D01*
X10770063Y-17460484D02*
X10751015Y-17450960D01*
X10751015Y-17450960D02*
X10741491Y-17441436D01*
X10741491Y-17441436D02*
X10731967Y-17422389D01*
X10731967Y-17422389D02*
X10722444Y-17384293D01*
X10722444Y-17384293D02*
X10722444Y-17336674D01*
X10722444Y-17336674D02*
X10731967Y-17298579D01*
X10731967Y-17298579D02*
X10741491Y-17279531D01*
X10741491Y-17279531D02*
X10751015Y-17270008D01*
X10751015Y-17270008D02*
X10770063Y-17260484D01*
X10960539Y-17260484D02*
X10979586Y-17260484D01*
X10979586Y-17260484D02*
X10998634Y-17270008D01*
X10998634Y-17270008D02*
X11008158Y-17279531D01*
X11008158Y-17279531D02*
X11017682Y-17298579D01*
X11017682Y-17298579D02*
X11027205Y-17336674D01*
X11027205Y-17336674D02*
X11027205Y-17384293D01*
X11027205Y-17384293D02*
X11017682Y-17422389D01*
X11017682Y-17422389D02*
X11008158Y-17441436D01*
X11008158Y-17441436D02*
X10998634Y-17450960D01*
X10998634Y-17450960D02*
X10979586Y-17460484D01*
X10979586Y-17460484D02*
X10960539Y-17460484D01*
X10960539Y-17460484D02*
X10941491Y-17450960D01*
X10941491Y-17450960D02*
X10931967Y-17441436D01*
X10931967Y-17441436D02*
X10922444Y-17422389D01*
X10922444Y-17422389D02*
X10912920Y-17384293D01*
X10912920Y-17384293D02*
X10912920Y-17336674D01*
X10912920Y-17336674D02*
X10922444Y-17298579D01*
X10922444Y-17298579D02*
X10931967Y-17279531D01*
X10931967Y-17279531D02*
X10941491Y-17270008D01*
X10941491Y-17270008D02*
X10960539Y-17260484D01*
X11112920Y-17460484D02*
X11112920Y-17327150D01*
X11112920Y-17346198D02*
X11122444Y-17336674D01*
X11122444Y-17336674D02*
X11141491Y-17327150D01*
X11141491Y-17327150D02*
X11170063Y-17327150D01*
X11170063Y-17327150D02*
X11189110Y-17336674D01*
X11189110Y-17336674D02*
X11198634Y-17355722D01*
X11198634Y-17355722D02*
X11198634Y-17460484D01*
X11198634Y-17355722D02*
X11208158Y-17336674D01*
X11208158Y-17336674D02*
X11227205Y-17327150D01*
X11227205Y-17327150D02*
X11255777Y-17327150D01*
X11255777Y-17327150D02*
X11274824Y-17336674D01*
X11274824Y-17336674D02*
X11284348Y-17355722D01*
X11284348Y-17355722D02*
X11284348Y-17460484D01*
X11379586Y-17460484D02*
X11379586Y-17327150D01*
X11379586Y-17346198D02*
X11389110Y-17336674D01*
X11389110Y-17336674D02*
X11408158Y-17327150D01*
X11408158Y-17327150D02*
X11436729Y-17327150D01*
X11436729Y-17327150D02*
X11455777Y-17336674D01*
X11455777Y-17336674D02*
X11465301Y-17355722D01*
X11465301Y-17355722D02*
X11465301Y-17460484D01*
X11465301Y-17355722D02*
X11474824Y-17336674D01*
X11474824Y-17336674D02*
X11493872Y-17327150D01*
X11493872Y-17327150D02*
X11522443Y-17327150D01*
X11522443Y-17327150D02*
X11541491Y-17336674D01*
X11541491Y-17336674D02*
X11551015Y-17355722D01*
X11551015Y-17355722D02*
X11551015Y-17460484D01*
X11941491Y-17250960D02*
X11770063Y-17508103D01*
X12198634Y-17260484D02*
X12217682Y-17260484D01*
X12217682Y-17260484D02*
X12236729Y-17270008D01*
X12236729Y-17270008D02*
X12246253Y-17279531D01*
X12246253Y-17279531D02*
X12255777Y-17298579D01*
X12255777Y-17298579D02*
X12265301Y-17336674D01*
X12265301Y-17336674D02*
X12265301Y-17384293D01*
X12265301Y-17384293D02*
X12255777Y-17422389D01*
X12255777Y-17422389D02*
X12246253Y-17441436D01*
X12246253Y-17441436D02*
X12236729Y-17450960D01*
X12236729Y-17450960D02*
X12217682Y-17460484D01*
X12217682Y-17460484D02*
X12198634Y-17460484D01*
X12198634Y-17460484D02*
X12179586Y-17450960D01*
X12179586Y-17450960D02*
X12170063Y-17441436D01*
X12170063Y-17441436D02*
X12160539Y-17422389D01*
X12160539Y-17422389D02*
X12151015Y-17384293D01*
X12151015Y-17384293D02*
X12151015Y-17336674D01*
X12151015Y-17336674D02*
X12160539Y-17298579D01*
X12160539Y-17298579D02*
X12170063Y-17279531D01*
X12170063Y-17279531D02*
X12179586Y-17270008D01*
X12179586Y-17270008D02*
X12198634Y-17260484D01*
X12351015Y-17441436D02*
X12360539Y-17450960D01*
X12360539Y-17450960D02*
X12351015Y-17460484D01*
X12351015Y-17460484D02*
X12341491Y-17450960D01*
X12341491Y-17450960D02*
X12351015Y-17441436D01*
X12351015Y-17441436D02*
X12351015Y-17460484D01*
X12484348Y-17260484D02*
X12503396Y-17260484D01*
X12503396Y-17260484D02*
X12522444Y-17270008D01*
X12522444Y-17270008D02*
X12531967Y-17279531D01*
X12531967Y-17279531D02*
X12541491Y-17298579D01*
X12541491Y-17298579D02*
X12551015Y-17336674D01*
X12551015Y-17336674D02*
X12551015Y-17384293D01*
X12551015Y-17384293D02*
X12541491Y-17422389D01*
X12541491Y-17422389D02*
X12531967Y-17441436D01*
X12531967Y-17441436D02*
X12522444Y-17450960D01*
X12522444Y-17450960D02*
X12503396Y-17460484D01*
X12503396Y-17460484D02*
X12484348Y-17460484D01*
X12484348Y-17460484D02*
X12465301Y-17450960D01*
X12465301Y-17450960D02*
X12455777Y-17441436D01*
X12455777Y-17441436D02*
X12446253Y-17422389D01*
X12446253Y-17422389D02*
X12436729Y-17384293D01*
X12436729Y-17384293D02*
X12436729Y-17336674D01*
X12436729Y-17336674D02*
X12446253Y-17298579D01*
X12446253Y-17298579D02*
X12455777Y-17279531D01*
X12455777Y-17279531D02*
X12465301Y-17270008D01*
X12465301Y-17270008D02*
X12484348Y-17260484D01*
X12722444Y-17327150D02*
X12722444Y-17460484D01*
X12674825Y-17250960D02*
X12627206Y-17393817D01*
X12627206Y-17393817D02*
X12751015Y-17393817D01*
X12808158Y-17260484D02*
X12931967Y-17260484D01*
X12931967Y-17260484D02*
X12865301Y-17336674D01*
X12865301Y-17336674D02*
X12893872Y-17336674D01*
X12893872Y-17336674D02*
X12912920Y-17346198D01*
X12912920Y-17346198D02*
X12922444Y-17355722D01*
X12922444Y-17355722D02*
X12931967Y-17374770D01*
X12931967Y-17374770D02*
X12931967Y-17422389D01*
X12931967Y-17422389D02*
X12922444Y-17441436D01*
X12922444Y-17441436D02*
X12912920Y-17450960D01*
X12912920Y-17450960D02*
X12893872Y-17460484D01*
X12893872Y-17460484D02*
X12836729Y-17460484D01*
X12836729Y-17460484D02*
X12817682Y-17450960D01*
X12817682Y-17450960D02*
X12808158Y-17441436D01*
X12998634Y-17260484D02*
X13122444Y-17260484D01*
X13122444Y-17260484D02*
X13055777Y-17336674D01*
X13055777Y-17336674D02*
X13084348Y-17336674D01*
X13084348Y-17336674D02*
X13103396Y-17346198D01*
X13103396Y-17346198D02*
X13112920Y-17355722D01*
X13112920Y-17355722D02*
X13122444Y-17374770D01*
X13122444Y-17374770D02*
X13122444Y-17422389D01*
X13122444Y-17422389D02*
X13112920Y-17441436D01*
X13112920Y-17441436D02*
X13103396Y-17450960D01*
X13103396Y-17450960D02*
X13084348Y-17460484D01*
X13084348Y-17460484D02*
X13027206Y-17460484D01*
X13027206Y-17460484D02*
X13008158Y-17450960D01*
X13008158Y-17450960D02*
X12998634Y-17441436D01*
X13198634Y-17260484D02*
X13198634Y-17298579D01*
X13274825Y-17260484D02*
X13274825Y-17298579D01*
X13570063Y-17536674D02*
X13560539Y-17527150D01*
X13560539Y-17527150D02*
X13541491Y-17498579D01*
X13541491Y-17498579D02*
X13531968Y-17479531D01*
X13531968Y-17479531D02*
X13522444Y-17450960D01*
X13522444Y-17450960D02*
X13512920Y-17403341D01*
X13512920Y-17403341D02*
X13512920Y-17365246D01*
X13512920Y-17365246D02*
X13522444Y-17317627D01*
X13522444Y-17317627D02*
X13531968Y-17289055D01*
X13531968Y-17289055D02*
X13541491Y-17270008D01*
X13541491Y-17270008D02*
X13560539Y-17241436D01*
X13560539Y-17241436D02*
X13570063Y-17231912D01*
X13731968Y-17260484D02*
X13693872Y-17260484D01*
X13693872Y-17260484D02*
X13674825Y-17270008D01*
X13674825Y-17270008D02*
X13665301Y-17279531D01*
X13665301Y-17279531D02*
X13646253Y-17308103D01*
X13646253Y-17308103D02*
X13636729Y-17346198D01*
X13636729Y-17346198D02*
X13636729Y-17422389D01*
X13636729Y-17422389D02*
X13646253Y-17441436D01*
X13646253Y-17441436D02*
X13655777Y-17450960D01*
X13655777Y-17450960D02*
X13674825Y-17460484D01*
X13674825Y-17460484D02*
X13712920Y-17460484D01*
X13712920Y-17460484D02*
X13731968Y-17450960D01*
X13731968Y-17450960D02*
X13741491Y-17441436D01*
X13741491Y-17441436D02*
X13751015Y-17422389D01*
X13751015Y-17422389D02*
X13751015Y-17374770D01*
X13751015Y-17374770D02*
X13741491Y-17355722D01*
X13741491Y-17355722D02*
X13731968Y-17346198D01*
X13731968Y-17346198D02*
X13712920Y-17336674D01*
X13712920Y-17336674D02*
X13674825Y-17336674D01*
X13674825Y-17336674D02*
X13655777Y-17346198D01*
X13655777Y-17346198D02*
X13646253Y-17355722D01*
X13646253Y-17355722D02*
X13636729Y-17374770D01*
X13989110Y-17460484D02*
X13989110Y-17260484D01*
X14074825Y-17460484D02*
X14074825Y-17355722D01*
X14074825Y-17355722D02*
X14065301Y-17336674D01*
X14065301Y-17336674D02*
X14046253Y-17327150D01*
X14046253Y-17327150D02*
X14017682Y-17327150D01*
X14017682Y-17327150D02*
X13998634Y-17336674D01*
X13998634Y-17336674D02*
X13989110Y-17346198D01*
X14198634Y-17460484D02*
X14179587Y-17450960D01*
X14179587Y-17450960D02*
X14170063Y-17441436D01*
X14170063Y-17441436D02*
X14160539Y-17422389D01*
X14160539Y-17422389D02*
X14160539Y-17365246D01*
X14160539Y-17365246D02*
X14170063Y-17346198D01*
X14170063Y-17346198D02*
X14179587Y-17336674D01*
X14179587Y-17336674D02*
X14198634Y-17327150D01*
X14198634Y-17327150D02*
X14227206Y-17327150D01*
X14227206Y-17327150D02*
X14246253Y-17336674D01*
X14246253Y-17336674D02*
X14255777Y-17346198D01*
X14255777Y-17346198D02*
X14265301Y-17365246D01*
X14265301Y-17365246D02*
X14265301Y-17422389D01*
X14265301Y-17422389D02*
X14255777Y-17441436D01*
X14255777Y-17441436D02*
X14246253Y-17450960D01*
X14246253Y-17450960D02*
X14227206Y-17460484D01*
X14227206Y-17460484D02*
X14198634Y-17460484D01*
X14379587Y-17460484D02*
X14360539Y-17450960D01*
X14360539Y-17450960D02*
X14351015Y-17431912D01*
X14351015Y-17431912D02*
X14351015Y-17260484D01*
X14531968Y-17450960D02*
X14512920Y-17460484D01*
X14512920Y-17460484D02*
X14474825Y-17460484D01*
X14474825Y-17460484D02*
X14455777Y-17450960D01*
X14455777Y-17450960D02*
X14446253Y-17431912D01*
X14446253Y-17431912D02*
X14446253Y-17355722D01*
X14446253Y-17355722D02*
X14455777Y-17336674D01*
X14455777Y-17336674D02*
X14474825Y-17327150D01*
X14474825Y-17327150D02*
X14512920Y-17327150D01*
X14512920Y-17327150D02*
X14531968Y-17336674D01*
X14531968Y-17336674D02*
X14541491Y-17355722D01*
X14541491Y-17355722D02*
X14541491Y-17374770D01*
X14541491Y-17374770D02*
X14446253Y-17393817D01*
X14617682Y-17450960D02*
X14636730Y-17460484D01*
X14636730Y-17460484D02*
X14674825Y-17460484D01*
X14674825Y-17460484D02*
X14693872Y-17450960D01*
X14693872Y-17450960D02*
X14703396Y-17431912D01*
X14703396Y-17431912D02*
X14703396Y-17422389D01*
X14703396Y-17422389D02*
X14693872Y-17403341D01*
X14693872Y-17403341D02*
X14674825Y-17393817D01*
X14674825Y-17393817D02*
X14646253Y-17393817D01*
X14646253Y-17393817D02*
X14627206Y-17384293D01*
X14627206Y-17384293D02*
X14617682Y-17365246D01*
X14617682Y-17365246D02*
X14617682Y-17355722D01*
X14617682Y-17355722D02*
X14627206Y-17336674D01*
X14627206Y-17336674D02*
X14646253Y-17327150D01*
X14646253Y-17327150D02*
X14674825Y-17327150D01*
X14674825Y-17327150D02*
X14693872Y-17336674D01*
X14770063Y-17536674D02*
X14779587Y-17527150D01*
X14779587Y-17527150D02*
X14798634Y-17498579D01*
X14798634Y-17498579D02*
X14808158Y-17479531D01*
X14808158Y-17479531D02*
X14817682Y-17450960D01*
X14817682Y-17450960D02*
X14827206Y-17403341D01*
X14827206Y-17403341D02*
X14827206Y-17365246D01*
X14827206Y-17365246D02*
X14817682Y-17317627D01*
X14817682Y-17317627D02*
X14808158Y-17289055D01*
X14808158Y-17289055D02*
X14798634Y-17270008D01*
X14798634Y-17270008D02*
X14779587Y-17241436D01*
X14779587Y-17241436D02*
X14770063Y-17231912D01*
D13*
X9865000Y-17568000D02*
X9995000Y-17698000D01*
X9995000Y-17568000D02*
X9865000Y-17698000D01*
X9975962Y-17678962D02*
X9975962Y-17587038D01*
X9884038Y-17587038D01*
X9884038Y-17678962D01*
X9975962Y-17678962D01*
D11*
X10360539Y-17724484D02*
X10246253Y-17724484D01*
X10303396Y-17724484D02*
X10303396Y-17524484D01*
X10303396Y-17524484D02*
X10284348Y-17553055D01*
X10284348Y-17553055D02*
X10265301Y-17572103D01*
X10265301Y-17572103D02*
X10246253Y-17581627D01*
X10446253Y-17705436D02*
X10455777Y-17714960D01*
X10455777Y-17714960D02*
X10446253Y-17724484D01*
X10446253Y-17724484D02*
X10436729Y-17714960D01*
X10436729Y-17714960D02*
X10446253Y-17705436D01*
X10446253Y-17705436D02*
X10446253Y-17724484D01*
X10522444Y-17524484D02*
X10646253Y-17524484D01*
X10646253Y-17524484D02*
X10579586Y-17600674D01*
X10579586Y-17600674D02*
X10608158Y-17600674D01*
X10608158Y-17600674D02*
X10627205Y-17610198D01*
X10627205Y-17610198D02*
X10636729Y-17619722D01*
X10636729Y-17619722D02*
X10646253Y-17638770D01*
X10646253Y-17638770D02*
X10646253Y-17686389D01*
X10646253Y-17686389D02*
X10636729Y-17705436D01*
X10636729Y-17705436D02*
X10627205Y-17714960D01*
X10627205Y-17714960D02*
X10608158Y-17724484D01*
X10608158Y-17724484D02*
X10551015Y-17724484D01*
X10551015Y-17724484D02*
X10531967Y-17714960D01*
X10531967Y-17714960D02*
X10522444Y-17705436D01*
X10770063Y-17524484D02*
X10789110Y-17524484D01*
X10789110Y-17524484D02*
X10808158Y-17534008D01*
X10808158Y-17534008D02*
X10817682Y-17543531D01*
X10817682Y-17543531D02*
X10827205Y-17562579D01*
X10827205Y-17562579D02*
X10836729Y-17600674D01*
X10836729Y-17600674D02*
X10836729Y-17648293D01*
X10836729Y-17648293D02*
X10827205Y-17686389D01*
X10827205Y-17686389D02*
X10817682Y-17705436D01*
X10817682Y-17705436D02*
X10808158Y-17714960D01*
X10808158Y-17714960D02*
X10789110Y-17724484D01*
X10789110Y-17724484D02*
X10770063Y-17724484D01*
X10770063Y-17724484D02*
X10751015Y-17714960D01*
X10751015Y-17714960D02*
X10741491Y-17705436D01*
X10741491Y-17705436D02*
X10731967Y-17686389D01*
X10731967Y-17686389D02*
X10722444Y-17648293D01*
X10722444Y-17648293D02*
X10722444Y-17600674D01*
X10722444Y-17600674D02*
X10731967Y-17562579D01*
X10731967Y-17562579D02*
X10741491Y-17543531D01*
X10741491Y-17543531D02*
X10751015Y-17534008D01*
X10751015Y-17534008D02*
X10770063Y-17524484D01*
X10960539Y-17524484D02*
X10979586Y-17524484D01*
X10979586Y-17524484D02*
X10998634Y-17534008D01*
X10998634Y-17534008D02*
X11008158Y-17543531D01*
X11008158Y-17543531D02*
X11017682Y-17562579D01*
X11017682Y-17562579D02*
X11027205Y-17600674D01*
X11027205Y-17600674D02*
X11027205Y-17648293D01*
X11027205Y-17648293D02*
X11017682Y-17686389D01*
X11017682Y-17686389D02*
X11008158Y-17705436D01*
X11008158Y-17705436D02*
X10998634Y-17714960D01*
X10998634Y-17714960D02*
X10979586Y-17724484D01*
X10979586Y-17724484D02*
X10960539Y-17724484D01*
X10960539Y-17724484D02*
X10941491Y-17714960D01*
X10941491Y-17714960D02*
X10931967Y-17705436D01*
X10931967Y-17705436D02*
X10922444Y-17686389D01*
X10922444Y-17686389D02*
X10912920Y-17648293D01*
X10912920Y-17648293D02*
X10912920Y-17600674D01*
X10912920Y-17600674D02*
X10922444Y-17562579D01*
X10922444Y-17562579D02*
X10931967Y-17543531D01*
X10931967Y-17543531D02*
X10941491Y-17534008D01*
X10941491Y-17534008D02*
X10960539Y-17524484D01*
X11112920Y-17724484D02*
X11112920Y-17591150D01*
X11112920Y-17610198D02*
X11122444Y-17600674D01*
X11122444Y-17600674D02*
X11141491Y-17591150D01*
X11141491Y-17591150D02*
X11170063Y-17591150D01*
X11170063Y-17591150D02*
X11189110Y-17600674D01*
X11189110Y-17600674D02*
X11198634Y-17619722D01*
X11198634Y-17619722D02*
X11198634Y-17724484D01*
X11198634Y-17619722D02*
X11208158Y-17600674D01*
X11208158Y-17600674D02*
X11227205Y-17591150D01*
X11227205Y-17591150D02*
X11255777Y-17591150D01*
X11255777Y-17591150D02*
X11274824Y-17600674D01*
X11274824Y-17600674D02*
X11284348Y-17619722D01*
X11284348Y-17619722D02*
X11284348Y-17724484D01*
X11379586Y-17724484D02*
X11379586Y-17591150D01*
X11379586Y-17610198D02*
X11389110Y-17600674D01*
X11389110Y-17600674D02*
X11408158Y-17591150D01*
X11408158Y-17591150D02*
X11436729Y-17591150D01*
X11436729Y-17591150D02*
X11455777Y-17600674D01*
X11455777Y-17600674D02*
X11465301Y-17619722D01*
X11465301Y-17619722D02*
X11465301Y-17724484D01*
X11465301Y-17619722D02*
X11474824Y-17600674D01*
X11474824Y-17600674D02*
X11493872Y-17591150D01*
X11493872Y-17591150D02*
X11522443Y-17591150D01*
X11522443Y-17591150D02*
X11541491Y-17600674D01*
X11541491Y-17600674D02*
X11551015Y-17619722D01*
X11551015Y-17619722D02*
X11551015Y-17724484D01*
X11941491Y-17514960D02*
X11770063Y-17772103D01*
X12198634Y-17524484D02*
X12217682Y-17524484D01*
X12217682Y-17524484D02*
X12236729Y-17534008D01*
X12236729Y-17534008D02*
X12246253Y-17543531D01*
X12246253Y-17543531D02*
X12255777Y-17562579D01*
X12255777Y-17562579D02*
X12265301Y-17600674D01*
X12265301Y-17600674D02*
X12265301Y-17648293D01*
X12265301Y-17648293D02*
X12255777Y-17686389D01*
X12255777Y-17686389D02*
X12246253Y-17705436D01*
X12246253Y-17705436D02*
X12236729Y-17714960D01*
X12236729Y-17714960D02*
X12217682Y-17724484D01*
X12217682Y-17724484D02*
X12198634Y-17724484D01*
X12198634Y-17724484D02*
X12179586Y-17714960D01*
X12179586Y-17714960D02*
X12170063Y-17705436D01*
X12170063Y-17705436D02*
X12160539Y-17686389D01*
X12160539Y-17686389D02*
X12151015Y-17648293D01*
X12151015Y-17648293D02*
X12151015Y-17600674D01*
X12151015Y-17600674D02*
X12160539Y-17562579D01*
X12160539Y-17562579D02*
X12170063Y-17543531D01*
X12170063Y-17543531D02*
X12179586Y-17534008D01*
X12179586Y-17534008D02*
X12198634Y-17524484D01*
X12351015Y-17705436D02*
X12360539Y-17714960D01*
X12360539Y-17714960D02*
X12351015Y-17724484D01*
X12351015Y-17724484D02*
X12341491Y-17714960D01*
X12341491Y-17714960D02*
X12351015Y-17705436D01*
X12351015Y-17705436D02*
X12351015Y-17724484D01*
X12484348Y-17524484D02*
X12503396Y-17524484D01*
X12503396Y-17524484D02*
X12522444Y-17534008D01*
X12522444Y-17534008D02*
X12531967Y-17543531D01*
X12531967Y-17543531D02*
X12541491Y-17562579D01*
X12541491Y-17562579D02*
X12551015Y-17600674D01*
X12551015Y-17600674D02*
X12551015Y-17648293D01*
X12551015Y-17648293D02*
X12541491Y-17686389D01*
X12541491Y-17686389D02*
X12531967Y-17705436D01*
X12531967Y-17705436D02*
X12522444Y-17714960D01*
X12522444Y-17714960D02*
X12503396Y-17724484D01*
X12503396Y-17724484D02*
X12484348Y-17724484D01*
X12484348Y-17724484D02*
X12465301Y-17714960D01*
X12465301Y-17714960D02*
X12455777Y-17705436D01*
X12455777Y-17705436D02*
X12446253Y-17686389D01*
X12446253Y-17686389D02*
X12436729Y-17648293D01*
X12436729Y-17648293D02*
X12436729Y-17600674D01*
X12436729Y-17600674D02*
X12446253Y-17562579D01*
X12446253Y-17562579D02*
X12455777Y-17543531D01*
X12455777Y-17543531D02*
X12465301Y-17534008D01*
X12465301Y-17534008D02*
X12484348Y-17524484D01*
X12731967Y-17524484D02*
X12636729Y-17524484D01*
X12636729Y-17524484D02*
X12627206Y-17619722D01*
X12627206Y-17619722D02*
X12636729Y-17610198D01*
X12636729Y-17610198D02*
X12655777Y-17600674D01*
X12655777Y-17600674D02*
X12703396Y-17600674D01*
X12703396Y-17600674D02*
X12722444Y-17610198D01*
X12722444Y-17610198D02*
X12731967Y-17619722D01*
X12731967Y-17619722D02*
X12741491Y-17638770D01*
X12741491Y-17638770D02*
X12741491Y-17686389D01*
X12741491Y-17686389D02*
X12731967Y-17705436D01*
X12731967Y-17705436D02*
X12722444Y-17714960D01*
X12722444Y-17714960D02*
X12703396Y-17724484D01*
X12703396Y-17724484D02*
X12655777Y-17724484D01*
X12655777Y-17724484D02*
X12636729Y-17714960D01*
X12636729Y-17714960D02*
X12627206Y-17705436D01*
X12931967Y-17724484D02*
X12817682Y-17724484D01*
X12874825Y-17724484D02*
X12874825Y-17524484D01*
X12874825Y-17524484D02*
X12855777Y-17553055D01*
X12855777Y-17553055D02*
X12836729Y-17572103D01*
X12836729Y-17572103D02*
X12817682Y-17581627D01*
X13008158Y-17543531D02*
X13017682Y-17534008D01*
X13017682Y-17534008D02*
X13036729Y-17524484D01*
X13036729Y-17524484D02*
X13084348Y-17524484D01*
X13084348Y-17524484D02*
X13103396Y-17534008D01*
X13103396Y-17534008D02*
X13112920Y-17543531D01*
X13112920Y-17543531D02*
X13122444Y-17562579D01*
X13122444Y-17562579D02*
X13122444Y-17581627D01*
X13122444Y-17581627D02*
X13112920Y-17610198D01*
X13112920Y-17610198D02*
X12998634Y-17724484D01*
X12998634Y-17724484D02*
X13122444Y-17724484D01*
X13198634Y-17524484D02*
X13198634Y-17562579D01*
X13274825Y-17524484D02*
X13274825Y-17562579D01*
X13570063Y-17800674D02*
X13560539Y-17791150D01*
X13560539Y-17791150D02*
X13541491Y-17762579D01*
X13541491Y-17762579D02*
X13531968Y-17743531D01*
X13531968Y-17743531D02*
X13522444Y-17714960D01*
X13522444Y-17714960D02*
X13512920Y-17667341D01*
X13512920Y-17667341D02*
X13512920Y-17629246D01*
X13512920Y-17629246D02*
X13522444Y-17581627D01*
X13522444Y-17581627D02*
X13531968Y-17553055D01*
X13531968Y-17553055D02*
X13541491Y-17534008D01*
X13541491Y-17534008D02*
X13560539Y-17505436D01*
X13560539Y-17505436D02*
X13570063Y-17495912D01*
X13674825Y-17610198D02*
X13655777Y-17600674D01*
X13655777Y-17600674D02*
X13646253Y-17591150D01*
X13646253Y-17591150D02*
X13636729Y-17572103D01*
X13636729Y-17572103D02*
X13636729Y-17562579D01*
X13636729Y-17562579D02*
X13646253Y-17543531D01*
X13646253Y-17543531D02*
X13655777Y-17534008D01*
X13655777Y-17534008D02*
X13674825Y-17524484D01*
X13674825Y-17524484D02*
X13712920Y-17524484D01*
X13712920Y-17524484D02*
X13731968Y-17534008D01*
X13731968Y-17534008D02*
X13741491Y-17543531D01*
X13741491Y-17543531D02*
X13751015Y-17562579D01*
X13751015Y-17562579D02*
X13751015Y-17572103D01*
X13751015Y-17572103D02*
X13741491Y-17591150D01*
X13741491Y-17591150D02*
X13731968Y-17600674D01*
X13731968Y-17600674D02*
X13712920Y-17610198D01*
X13712920Y-17610198D02*
X13674825Y-17610198D01*
X13674825Y-17610198D02*
X13655777Y-17619722D01*
X13655777Y-17619722D02*
X13646253Y-17629246D01*
X13646253Y-17629246D02*
X13636729Y-17648293D01*
X13636729Y-17648293D02*
X13636729Y-17686389D01*
X13636729Y-17686389D02*
X13646253Y-17705436D01*
X13646253Y-17705436D02*
X13655777Y-17714960D01*
X13655777Y-17714960D02*
X13674825Y-17724484D01*
X13674825Y-17724484D02*
X13712920Y-17724484D01*
X13712920Y-17724484D02*
X13731968Y-17714960D01*
X13731968Y-17714960D02*
X13741491Y-17705436D01*
X13741491Y-17705436D02*
X13751015Y-17686389D01*
X13751015Y-17686389D02*
X13751015Y-17648293D01*
X13751015Y-17648293D02*
X13741491Y-17629246D01*
X13741491Y-17629246D02*
X13731968Y-17619722D01*
X13731968Y-17619722D02*
X13712920Y-17610198D01*
X13989110Y-17724484D02*
X13989110Y-17524484D01*
X14074825Y-17724484D02*
X14074825Y-17619722D01*
X14074825Y-17619722D02*
X14065301Y-17600674D01*
X14065301Y-17600674D02*
X14046253Y-17591150D01*
X14046253Y-17591150D02*
X14017682Y-17591150D01*
X14017682Y-17591150D02*
X13998634Y-17600674D01*
X13998634Y-17600674D02*
X13989110Y-17610198D01*
X14198634Y-17724484D02*
X14179587Y-17714960D01*
X14179587Y-17714960D02*
X14170063Y-17705436D01*
X14170063Y-17705436D02*
X14160539Y-17686389D01*
X14160539Y-17686389D02*
X14160539Y-17629246D01*
X14160539Y-17629246D02*
X14170063Y-17610198D01*
X14170063Y-17610198D02*
X14179587Y-17600674D01*
X14179587Y-17600674D02*
X14198634Y-17591150D01*
X14198634Y-17591150D02*
X14227206Y-17591150D01*
X14227206Y-17591150D02*
X14246253Y-17600674D01*
X14246253Y-17600674D02*
X14255777Y-17610198D01*
X14255777Y-17610198D02*
X14265301Y-17629246D01*
X14265301Y-17629246D02*
X14265301Y-17686389D01*
X14265301Y-17686389D02*
X14255777Y-17705436D01*
X14255777Y-17705436D02*
X14246253Y-17714960D01*
X14246253Y-17714960D02*
X14227206Y-17724484D01*
X14227206Y-17724484D02*
X14198634Y-17724484D01*
X14379587Y-17724484D02*
X14360539Y-17714960D01*
X14360539Y-17714960D02*
X14351015Y-17695912D01*
X14351015Y-17695912D02*
X14351015Y-17524484D01*
X14531968Y-17714960D02*
X14512920Y-17724484D01*
X14512920Y-17724484D02*
X14474825Y-17724484D01*
X14474825Y-17724484D02*
X14455777Y-17714960D01*
X14455777Y-17714960D02*
X14446253Y-17695912D01*
X14446253Y-17695912D02*
X14446253Y-17619722D01*
X14446253Y-17619722D02*
X14455777Y-17600674D01*
X14455777Y-17600674D02*
X14474825Y-17591150D01*
X14474825Y-17591150D02*
X14512920Y-17591150D01*
X14512920Y-17591150D02*
X14531968Y-17600674D01*
X14531968Y-17600674D02*
X14541491Y-17619722D01*
X14541491Y-17619722D02*
X14541491Y-17638770D01*
X14541491Y-17638770D02*
X14446253Y-17657817D01*
X14617682Y-17714960D02*
X14636730Y-17724484D01*
X14636730Y-17724484D02*
X14674825Y-17724484D01*
X14674825Y-17724484D02*
X14693872Y-17714960D01*
X14693872Y-17714960D02*
X14703396Y-17695912D01*
X14703396Y-17695912D02*
X14703396Y-17686389D01*
X14703396Y-17686389D02*
X14693872Y-17667341D01*
X14693872Y-17667341D02*
X14674825Y-17657817D01*
X14674825Y-17657817D02*
X14646253Y-17657817D01*
X14646253Y-17657817D02*
X14627206Y-17648293D01*
X14627206Y-17648293D02*
X14617682Y-17629246D01*
X14617682Y-17629246D02*
X14617682Y-17619722D01*
X14617682Y-17619722D02*
X14627206Y-17600674D01*
X14627206Y-17600674D02*
X14646253Y-17591150D01*
X14646253Y-17591150D02*
X14674825Y-17591150D01*
X14674825Y-17591150D02*
X14693872Y-17600674D01*
X14770063Y-17800674D02*
X14779587Y-17791150D01*
X14779587Y-17791150D02*
X14798634Y-17762579D01*
X14798634Y-17762579D02*
X14808158Y-17743531D01*
X14808158Y-17743531D02*
X14817682Y-17714960D01*
X14817682Y-17714960D02*
X14827206Y-17667341D01*
X14827206Y-17667341D02*
X14827206Y-17629246D01*
X14827206Y-17629246D02*
X14817682Y-17581627D01*
X14817682Y-17581627D02*
X14808158Y-17553055D01*
X14808158Y-17553055D02*
X14798634Y-17534008D01*
X14798634Y-17534008D02*
X14779587Y-17505436D01*
X14779587Y-17505436D02*
X14770063Y-17495912D01*
D14*
X9835000Y-17817000D02*
X9995000Y-17977000D01*
X9995000Y-17817000D02*
X9835000Y-17977000D01*
X9915000Y-17977000D02*
X9995000Y-17897000D01*
X9915000Y-17817000D01*
X9835000Y-17897000D01*
X9915000Y-17977000D01*
D11*
X10360539Y-17988484D02*
X10246253Y-17988484D01*
X10303396Y-17988484D02*
X10303396Y-17788484D01*
X10303396Y-17788484D02*
X10284348Y-17817055D01*
X10284348Y-17817055D02*
X10265301Y-17836103D01*
X10265301Y-17836103D02*
X10246253Y-17845627D01*
X10446253Y-17969436D02*
X10455777Y-17978960D01*
X10455777Y-17978960D02*
X10446253Y-17988484D01*
X10446253Y-17988484D02*
X10436729Y-17978960D01*
X10436729Y-17978960D02*
X10446253Y-17969436D01*
X10446253Y-17969436D02*
X10446253Y-17988484D01*
X10627205Y-17788484D02*
X10589110Y-17788484D01*
X10589110Y-17788484D02*
X10570063Y-17798008D01*
X10570063Y-17798008D02*
X10560539Y-17807531D01*
X10560539Y-17807531D02*
X10541491Y-17836103D01*
X10541491Y-17836103D02*
X10531967Y-17874198D01*
X10531967Y-17874198D02*
X10531967Y-17950389D01*
X10531967Y-17950389D02*
X10541491Y-17969436D01*
X10541491Y-17969436D02*
X10551015Y-17978960D01*
X10551015Y-17978960D02*
X10570063Y-17988484D01*
X10570063Y-17988484D02*
X10608158Y-17988484D01*
X10608158Y-17988484D02*
X10627205Y-17978960D01*
X10627205Y-17978960D02*
X10636729Y-17969436D01*
X10636729Y-17969436D02*
X10646253Y-17950389D01*
X10646253Y-17950389D02*
X10646253Y-17902770D01*
X10646253Y-17902770D02*
X10636729Y-17883722D01*
X10636729Y-17883722D02*
X10627205Y-17874198D01*
X10627205Y-17874198D02*
X10608158Y-17864674D01*
X10608158Y-17864674D02*
X10570063Y-17864674D01*
X10570063Y-17864674D02*
X10551015Y-17874198D01*
X10551015Y-17874198D02*
X10541491Y-17883722D01*
X10541491Y-17883722D02*
X10531967Y-17902770D01*
X10770063Y-17788484D02*
X10789110Y-17788484D01*
X10789110Y-17788484D02*
X10808158Y-17798008D01*
X10808158Y-17798008D02*
X10817682Y-17807531D01*
X10817682Y-17807531D02*
X10827205Y-17826579D01*
X10827205Y-17826579D02*
X10836729Y-17864674D01*
X10836729Y-17864674D02*
X10836729Y-17912293D01*
X10836729Y-17912293D02*
X10827205Y-17950389D01*
X10827205Y-17950389D02*
X10817682Y-17969436D01*
X10817682Y-17969436D02*
X10808158Y-17978960D01*
X10808158Y-17978960D02*
X10789110Y-17988484D01*
X10789110Y-17988484D02*
X10770063Y-17988484D01*
X10770063Y-17988484D02*
X10751015Y-17978960D01*
X10751015Y-17978960D02*
X10741491Y-17969436D01*
X10741491Y-17969436D02*
X10731967Y-17950389D01*
X10731967Y-17950389D02*
X10722444Y-17912293D01*
X10722444Y-17912293D02*
X10722444Y-17864674D01*
X10722444Y-17864674D02*
X10731967Y-17826579D01*
X10731967Y-17826579D02*
X10741491Y-17807531D01*
X10741491Y-17807531D02*
X10751015Y-17798008D01*
X10751015Y-17798008D02*
X10770063Y-17788484D01*
X10960539Y-17788484D02*
X10979586Y-17788484D01*
X10979586Y-17788484D02*
X10998634Y-17798008D01*
X10998634Y-17798008D02*
X11008158Y-17807531D01*
X11008158Y-17807531D02*
X11017682Y-17826579D01*
X11017682Y-17826579D02*
X11027205Y-17864674D01*
X11027205Y-17864674D02*
X11027205Y-17912293D01*
X11027205Y-17912293D02*
X11017682Y-17950389D01*
X11017682Y-17950389D02*
X11008158Y-17969436D01*
X11008158Y-17969436D02*
X10998634Y-17978960D01*
X10998634Y-17978960D02*
X10979586Y-17988484D01*
X10979586Y-17988484D02*
X10960539Y-17988484D01*
X10960539Y-17988484D02*
X10941491Y-17978960D01*
X10941491Y-17978960D02*
X10931967Y-17969436D01*
X10931967Y-17969436D02*
X10922444Y-17950389D01*
X10922444Y-17950389D02*
X10912920Y-17912293D01*
X10912920Y-17912293D02*
X10912920Y-17864674D01*
X10912920Y-17864674D02*
X10922444Y-17826579D01*
X10922444Y-17826579D02*
X10931967Y-17807531D01*
X10931967Y-17807531D02*
X10941491Y-17798008D01*
X10941491Y-17798008D02*
X10960539Y-17788484D01*
X11112920Y-17988484D02*
X11112920Y-17855150D01*
X11112920Y-17874198D02*
X11122444Y-17864674D01*
X11122444Y-17864674D02*
X11141491Y-17855150D01*
X11141491Y-17855150D02*
X11170063Y-17855150D01*
X11170063Y-17855150D02*
X11189110Y-17864674D01*
X11189110Y-17864674D02*
X11198634Y-17883722D01*
X11198634Y-17883722D02*
X11198634Y-17988484D01*
X11198634Y-17883722D02*
X11208158Y-17864674D01*
X11208158Y-17864674D02*
X11227205Y-17855150D01*
X11227205Y-17855150D02*
X11255777Y-17855150D01*
X11255777Y-17855150D02*
X11274824Y-17864674D01*
X11274824Y-17864674D02*
X11284348Y-17883722D01*
X11284348Y-17883722D02*
X11284348Y-17988484D01*
X11379586Y-17988484D02*
X11379586Y-17855150D01*
X11379586Y-17874198D02*
X11389110Y-17864674D01*
X11389110Y-17864674D02*
X11408158Y-17855150D01*
X11408158Y-17855150D02*
X11436729Y-17855150D01*
X11436729Y-17855150D02*
X11455777Y-17864674D01*
X11455777Y-17864674D02*
X11465301Y-17883722D01*
X11465301Y-17883722D02*
X11465301Y-17988484D01*
X11465301Y-17883722D02*
X11474824Y-17864674D01*
X11474824Y-17864674D02*
X11493872Y-17855150D01*
X11493872Y-17855150D02*
X11522443Y-17855150D01*
X11522443Y-17855150D02*
X11541491Y-17864674D01*
X11541491Y-17864674D02*
X11551015Y-17883722D01*
X11551015Y-17883722D02*
X11551015Y-17988484D01*
X11941491Y-17778960D02*
X11770063Y-18036103D01*
X12198634Y-17788484D02*
X12217682Y-17788484D01*
X12217682Y-17788484D02*
X12236729Y-17798008D01*
X12236729Y-17798008D02*
X12246253Y-17807531D01*
X12246253Y-17807531D02*
X12255777Y-17826579D01*
X12255777Y-17826579D02*
X12265301Y-17864674D01*
X12265301Y-17864674D02*
X12265301Y-17912293D01*
X12265301Y-17912293D02*
X12255777Y-17950389D01*
X12255777Y-17950389D02*
X12246253Y-17969436D01*
X12246253Y-17969436D02*
X12236729Y-17978960D01*
X12236729Y-17978960D02*
X12217682Y-17988484D01*
X12217682Y-17988484D02*
X12198634Y-17988484D01*
X12198634Y-17988484D02*
X12179586Y-17978960D01*
X12179586Y-17978960D02*
X12170063Y-17969436D01*
X12170063Y-17969436D02*
X12160539Y-17950389D01*
X12160539Y-17950389D02*
X12151015Y-17912293D01*
X12151015Y-17912293D02*
X12151015Y-17864674D01*
X12151015Y-17864674D02*
X12160539Y-17826579D01*
X12160539Y-17826579D02*
X12170063Y-17807531D01*
X12170063Y-17807531D02*
X12179586Y-17798008D01*
X12179586Y-17798008D02*
X12198634Y-17788484D01*
X12351015Y-17969436D02*
X12360539Y-17978960D01*
X12360539Y-17978960D02*
X12351015Y-17988484D01*
X12351015Y-17988484D02*
X12341491Y-17978960D01*
X12341491Y-17978960D02*
X12351015Y-17969436D01*
X12351015Y-17969436D02*
X12351015Y-17988484D01*
X12484348Y-17788484D02*
X12503396Y-17788484D01*
X12503396Y-17788484D02*
X12522444Y-17798008D01*
X12522444Y-17798008D02*
X12531967Y-17807531D01*
X12531967Y-17807531D02*
X12541491Y-17826579D01*
X12541491Y-17826579D02*
X12551015Y-17864674D01*
X12551015Y-17864674D02*
X12551015Y-17912293D01*
X12551015Y-17912293D02*
X12541491Y-17950389D01*
X12541491Y-17950389D02*
X12531967Y-17969436D01*
X12531967Y-17969436D02*
X12522444Y-17978960D01*
X12522444Y-17978960D02*
X12503396Y-17988484D01*
X12503396Y-17988484D02*
X12484348Y-17988484D01*
X12484348Y-17988484D02*
X12465301Y-17978960D01*
X12465301Y-17978960D02*
X12455777Y-17969436D01*
X12455777Y-17969436D02*
X12446253Y-17950389D01*
X12446253Y-17950389D02*
X12436729Y-17912293D01*
X12436729Y-17912293D02*
X12436729Y-17864674D01*
X12436729Y-17864674D02*
X12446253Y-17826579D01*
X12446253Y-17826579D02*
X12455777Y-17807531D01*
X12455777Y-17807531D02*
X12465301Y-17798008D01*
X12465301Y-17798008D02*
X12484348Y-17788484D01*
X12722444Y-17788484D02*
X12684348Y-17788484D01*
X12684348Y-17788484D02*
X12665301Y-17798008D01*
X12665301Y-17798008D02*
X12655777Y-17807531D01*
X12655777Y-17807531D02*
X12636729Y-17836103D01*
X12636729Y-17836103D02*
X12627206Y-17874198D01*
X12627206Y-17874198D02*
X12627206Y-17950389D01*
X12627206Y-17950389D02*
X12636729Y-17969436D01*
X12636729Y-17969436D02*
X12646253Y-17978960D01*
X12646253Y-17978960D02*
X12665301Y-17988484D01*
X12665301Y-17988484D02*
X12703396Y-17988484D01*
X12703396Y-17988484D02*
X12722444Y-17978960D01*
X12722444Y-17978960D02*
X12731967Y-17969436D01*
X12731967Y-17969436D02*
X12741491Y-17950389D01*
X12741491Y-17950389D02*
X12741491Y-17902770D01*
X12741491Y-17902770D02*
X12731967Y-17883722D01*
X12731967Y-17883722D02*
X12722444Y-17874198D01*
X12722444Y-17874198D02*
X12703396Y-17864674D01*
X12703396Y-17864674D02*
X12665301Y-17864674D01*
X12665301Y-17864674D02*
X12646253Y-17874198D01*
X12646253Y-17874198D02*
X12636729Y-17883722D01*
X12636729Y-17883722D02*
X12627206Y-17902770D01*
X12808158Y-17788484D02*
X12931967Y-17788484D01*
X12931967Y-17788484D02*
X12865301Y-17864674D01*
X12865301Y-17864674D02*
X12893872Y-17864674D01*
X12893872Y-17864674D02*
X12912920Y-17874198D01*
X12912920Y-17874198D02*
X12922444Y-17883722D01*
X12922444Y-17883722D02*
X12931967Y-17902770D01*
X12931967Y-17902770D02*
X12931967Y-17950389D01*
X12931967Y-17950389D02*
X12922444Y-17969436D01*
X12922444Y-17969436D02*
X12912920Y-17978960D01*
X12912920Y-17978960D02*
X12893872Y-17988484D01*
X12893872Y-17988484D02*
X12836729Y-17988484D01*
X12836729Y-17988484D02*
X12817682Y-17978960D01*
X12817682Y-17978960D02*
X12808158Y-17969436D01*
X13055777Y-17788484D02*
X13074825Y-17788484D01*
X13074825Y-17788484D02*
X13093872Y-17798008D01*
X13093872Y-17798008D02*
X13103396Y-17807531D01*
X13103396Y-17807531D02*
X13112920Y-17826579D01*
X13112920Y-17826579D02*
X13122444Y-17864674D01*
X13122444Y-17864674D02*
X13122444Y-17912293D01*
X13122444Y-17912293D02*
X13112920Y-17950389D01*
X13112920Y-17950389D02*
X13103396Y-17969436D01*
X13103396Y-17969436D02*
X13093872Y-17978960D01*
X13093872Y-17978960D02*
X13074825Y-17988484D01*
X13074825Y-17988484D02*
X13055777Y-17988484D01*
X13055777Y-17988484D02*
X13036729Y-17978960D01*
X13036729Y-17978960D02*
X13027206Y-17969436D01*
X13027206Y-17969436D02*
X13017682Y-17950389D01*
X13017682Y-17950389D02*
X13008158Y-17912293D01*
X13008158Y-17912293D02*
X13008158Y-17864674D01*
X13008158Y-17864674D02*
X13017682Y-17826579D01*
X13017682Y-17826579D02*
X13027206Y-17807531D01*
X13027206Y-17807531D02*
X13036729Y-17798008D01*
X13036729Y-17798008D02*
X13055777Y-17788484D01*
X13198634Y-17788484D02*
X13198634Y-17826579D01*
X13274825Y-17788484D02*
X13274825Y-17826579D01*
X13570063Y-18064674D02*
X13560539Y-18055150D01*
X13560539Y-18055150D02*
X13541491Y-18026579D01*
X13541491Y-18026579D02*
X13531968Y-18007531D01*
X13531968Y-18007531D02*
X13522444Y-17978960D01*
X13522444Y-17978960D02*
X13512920Y-17931341D01*
X13512920Y-17931341D02*
X13512920Y-17893246D01*
X13512920Y-17893246D02*
X13522444Y-17845627D01*
X13522444Y-17845627D02*
X13531968Y-17817055D01*
X13531968Y-17817055D02*
X13541491Y-17798008D01*
X13541491Y-17798008D02*
X13560539Y-17769436D01*
X13560539Y-17769436D02*
X13570063Y-17759912D01*
X13636729Y-17807531D02*
X13646253Y-17798008D01*
X13646253Y-17798008D02*
X13665301Y-17788484D01*
X13665301Y-17788484D02*
X13712920Y-17788484D01*
X13712920Y-17788484D02*
X13731968Y-17798008D01*
X13731968Y-17798008D02*
X13741491Y-17807531D01*
X13741491Y-17807531D02*
X13751015Y-17826579D01*
X13751015Y-17826579D02*
X13751015Y-17845627D01*
X13751015Y-17845627D02*
X13741491Y-17874198D01*
X13741491Y-17874198D02*
X13627206Y-17988484D01*
X13627206Y-17988484D02*
X13751015Y-17988484D01*
X13989110Y-17988484D02*
X13989110Y-17788484D01*
X14074825Y-17988484D02*
X14074825Y-17883722D01*
X14074825Y-17883722D02*
X14065301Y-17864674D01*
X14065301Y-17864674D02*
X14046253Y-17855150D01*
X14046253Y-17855150D02*
X14017682Y-17855150D01*
X14017682Y-17855150D02*
X13998634Y-17864674D01*
X13998634Y-17864674D02*
X13989110Y-17874198D01*
X14198634Y-17988484D02*
X14179587Y-17978960D01*
X14179587Y-17978960D02*
X14170063Y-17969436D01*
X14170063Y-17969436D02*
X14160539Y-17950389D01*
X14160539Y-17950389D02*
X14160539Y-17893246D01*
X14160539Y-17893246D02*
X14170063Y-17874198D01*
X14170063Y-17874198D02*
X14179587Y-17864674D01*
X14179587Y-17864674D02*
X14198634Y-17855150D01*
X14198634Y-17855150D02*
X14227206Y-17855150D01*
X14227206Y-17855150D02*
X14246253Y-17864674D01*
X14246253Y-17864674D02*
X14255777Y-17874198D01*
X14255777Y-17874198D02*
X14265301Y-17893246D01*
X14265301Y-17893246D02*
X14265301Y-17950389D01*
X14265301Y-17950389D02*
X14255777Y-17969436D01*
X14255777Y-17969436D02*
X14246253Y-17978960D01*
X14246253Y-17978960D02*
X14227206Y-17988484D01*
X14227206Y-17988484D02*
X14198634Y-17988484D01*
X14379587Y-17988484D02*
X14360539Y-17978960D01*
X14360539Y-17978960D02*
X14351015Y-17959912D01*
X14351015Y-17959912D02*
X14351015Y-17788484D01*
X14531968Y-17978960D02*
X14512920Y-17988484D01*
X14512920Y-17988484D02*
X14474825Y-17988484D01*
X14474825Y-17988484D02*
X14455777Y-17978960D01*
X14455777Y-17978960D02*
X14446253Y-17959912D01*
X14446253Y-17959912D02*
X14446253Y-17883722D01*
X14446253Y-17883722D02*
X14455777Y-17864674D01*
X14455777Y-17864674D02*
X14474825Y-17855150D01*
X14474825Y-17855150D02*
X14512920Y-17855150D01*
X14512920Y-17855150D02*
X14531968Y-17864674D01*
X14531968Y-17864674D02*
X14541491Y-17883722D01*
X14541491Y-17883722D02*
X14541491Y-17902770D01*
X14541491Y-17902770D02*
X14446253Y-17921817D01*
X14617682Y-17978960D02*
X14636730Y-17988484D01*
X14636730Y-17988484D02*
X14674825Y-17988484D01*
X14674825Y-17988484D02*
X14693872Y-17978960D01*
X14693872Y-17978960D02*
X14703396Y-17959912D01*
X14703396Y-17959912D02*
X14703396Y-17950389D01*
X14703396Y-17950389D02*
X14693872Y-17931341D01*
X14693872Y-17931341D02*
X14674825Y-17921817D01*
X14674825Y-17921817D02*
X14646253Y-17921817D01*
X14646253Y-17921817D02*
X14627206Y-17912293D01*
X14627206Y-17912293D02*
X14617682Y-17893246D01*
X14617682Y-17893246D02*
X14617682Y-17883722D01*
X14617682Y-17883722D02*
X14627206Y-17864674D01*
X14627206Y-17864674D02*
X14646253Y-17855150D01*
X14646253Y-17855150D02*
X14674825Y-17855150D01*
X14674825Y-17855150D02*
X14693872Y-17864674D01*
X14770063Y-18064674D02*
X14779587Y-18055150D01*
X14779587Y-18055150D02*
X14798634Y-18026579D01*
X14798634Y-18026579D02*
X14808158Y-18007531D01*
X14808158Y-18007531D02*
X14817682Y-17978960D01*
X14817682Y-17978960D02*
X14827206Y-17931341D01*
X14827206Y-17931341D02*
X14827206Y-17893246D01*
X14827206Y-17893246D02*
X14817682Y-17845627D01*
X14817682Y-17845627D02*
X14808158Y-17817055D01*
X14808158Y-17817055D02*
X14798634Y-17798008D01*
X14798634Y-17798008D02*
X14779587Y-17769436D01*
X14779587Y-17769436D02*
X14770063Y-17759912D01*
M02*
